999
"DXF R12 Output" (www.mydxf.blogspot.com)
 0 
SECTION
 2 
HEADER
 9 
$ACADVER
 1 
AC1009
 9 
$EXTMIN
 10 
 0 
 20 
 0 
 9 
$EXTMAX
 10 
 8.5 
 20 
 11 
 0 
ENDSEC
 0 
SECTION
 2 
ENTITIES
0
LINE
8
1
10
24.491896
20
54.375898
11
25.350555
21
54.375898
0
LINE
8
1
10
25.350555
20
54.375898
11
25.350555
21
53.113662
0
LINE
8
1
10
25.350555
20
53.113662
11
24.491896
21
53.113662
0
LINE
8
1
10
24.491896
20
53.113662
11
24.491896
21
54.375898
0
LINE
8
1
10
22.937561
20
54.375898
11
23.796220
21
54.375898
0
LINE
8
1
10
23.796220
20
54.375898
11
23.796220
21
53.113662
0
LINE
8
1
10
23.796220
20
53.113662
11
22.937561
21
53.113662
0
LINE
8
1
10
22.937561
20
53.113662
11
22.937561
21
54.375898
0
LINE
8
1
10
66.171793
20
54.545231
11
67.030452
21
54.545231
0
LINE
8
1
10
67.030452
20
54.545231
11
67.030452
21
53.282995
0
LINE
8
1
10
67.030452
20
53.282995
11
66.171793
21
53.282995
0
LINE
8
1
10
66.171793
20
53.282995
11
66.171793
21
54.545231
0
LINE
8
1
10
64.617458
20
54.545231
11
65.476117
21
54.545231
0
LINE
8
1
10
65.476117
20
54.545231
11
65.476117
21
53.282995
0
LINE
8
1
10
65.476117
20
53.282995
11
64.617458
21
53.282995
0
LINE
8
1
10
64.617458
20
53.282995
11
64.617458
21
54.545231
0
LINE
8
1
10
45.319497
20
54.418585
11
46.178157
21
54.418585
0
LINE
8
1
10
46.178157
20
54.418585
11
46.178157
21
53.156348
0
LINE
8
1
10
46.178157
20
53.156348
11
45.319497
21
53.156348
0
LINE
8
1
10
45.319497
20
53.156348
11
45.319497
21
54.418585
0
LINE
8
1
10
43.766573
20
54.418585
11
44.625232
21
54.418585
0
LINE
8
1
10
44.625232
20
54.418585
11
44.625232
21
53.156348
0
LINE
8
1
10
44.625232
20
53.156348
11
43.766573
21
53.156348
0
LINE
8
1
10
43.766573
20
53.156348
11
43.766573
21
54.418585
0
LINE
8
1
10
51.621153
20
74.615068
11
51.527502
21
74.840691
0
LINE
8
1
10
51.527502
20
74.840691
11
51.321469
21
74.915898
0
LINE
8
1
10
51.321469
20
74.915898
11
51.115436
21
74.840691
0
LINE
8
1
10
51.115436
20
74.840691
11
51.021785
21
74.615068
0
LINE
8
1
10
51.021785
20
74.615068
11
51.115436
21
74.390239
0
LINE
8
1
10
51.115436
20
74.390239
11
51.321469
21
74.315296
0
LINE
8
1
10
51.321469
20
74.315296
11
51.527502
21
74.390239
0
LINE
8
1
10
51.527502
20
74.390239
11
51.621153
21
74.615068
0
LINE
8
1
10
16.062290
20
42.611491
11
15.968418
21
42.836320
0
LINE
8
1
10
15.968418
20
42.836320
11
15.761900
21
42.911263
0
LINE
8
1
10
15.761900
20
42.911263
11
15.555382
21
42.836320
0
LINE
8
1
10
15.555382
20
42.836320
11
15.461510
21
42.611491
0
LINE
8
1
10
15.461510
20
42.611491
11
15.555382
21
42.386662
0
LINE
8
1
10
15.555382
20
42.386662
11
15.761900
21
42.311719
0
LINE
8
1
10
15.761900
20
42.311719
11
15.968418
21
42.386662
0
LINE
8
1
10
15.968418
20
42.386662
11
16.062290
21
42.611491
0
LINE
8
1
10
5.393608
20
72.710425
11
5.299956
21
72.935254
0
LINE
8
1
10
5.299956
20
72.935254
11
5.093923
21
73.010197
0
LINE
8
1
10
5.093923
20
73.010197
11
4.887891
21
72.935254
0
LINE
8
1
10
4.887891
20
72.935254
11
4.794239
21
72.710425
0
LINE
8
1
10
4.794239
20
72.710425
11
4.887891
21
72.485794
0
LINE
8
1
10
4.887891
20
72.485794
11
5.093923
21
72.410917
0
LINE
8
1
10
5.093923
20
72.410917
11
5.299956
21
72.485794
0
LINE
8
1
10
5.299956
20
72.485794
11
5.393608
21
72.710425
0
LINE
8
1
10
73.219219
20
49.215124
11
73.125568
21
49.440747
0
LINE
8
1
10
73.125568
20
49.440747
11
72.919535
21
49.515954
0
LINE
8
1
10
72.919535
20
49.515954
11
72.713502
21
49.440747
0
LINE
8
1
10
72.713502
20
49.440747
11
72.619851
21
49.215124
0
LINE
8
1
10
72.619851
20
49.215124
11
72.713502
21
48.990295
0
LINE
8
1
10
72.713502
20
48.990295
11
72.919535
21
48.915352
0
LINE
8
1
10
72.919535
20
48.915352
11
73.125568
21
48.990295
0
LINE
8
1
10
73.125568
20
48.990295
11
73.219219
21
49.215124
0
LINE
8
1
10
52.264618
20
49.215124
11
52.170967
21
49.440747
0
LINE
8
1
10
52.170967
20
49.440747
11
51.964934
21
49.515954
0
LINE
8
1
10
51.964934
20
49.515954
11
51.758901
21
49.440747
0
LINE
8
1
10
51.758901
20
49.440747
11
51.665250
21
49.215124
0
LINE
8
1
10
51.665250
20
49.215124
11
51.758901
21
48.990295
0
LINE
8
1
10
51.758901
20
48.990295
11
51.964934
21
48.915352
0
LINE
8
1
10
51.964934
20
48.915352
11
52.170967
21
48.990295
0
LINE
8
1
10
52.170967
20
48.990295
11
52.264618
21
49.215124
0
LINE
8
1
10
31.428903
20
49.215124
11
31.335252
21
49.440747
0
LINE
8
1
10
31.335252
20
49.440747
11
31.129219
21
49.515954
0
LINE
8
1
10
31.129219
20
49.515954
11
30.923186
21
49.440747
0
LINE
8
1
10
30.923186
20
49.440747
11
30.829535
21
49.215124
0
LINE
8
1
10
30.829535
20
49.215124
11
30.923186
21
48.990295
0
LINE
8
1
10
30.923186
20
48.990295
11
31.129219
21
48.915352
0
LINE
8
1
10
31.129219
20
48.915352
11
31.335252
21
48.990295
0
LINE
8
1
10
31.335252
20
48.990295
11
31.428903
21
49.215124
0
LINE
8
1
10
38.160594
20
15.560551
11
38.066722
21
15.785380
0
LINE
8
1
10
38.066722
20
15.785380
11
37.860204
21
15.860323
0
LINE
8
1
10
37.860204
20
15.860323
11
37.653686
21
15.785380
0
LINE
8
1
10
37.653686
20
15.785380
11
37.559814
21
15.560551
0
LINE
8
1
10
37.559814
20
15.560551
11
37.653686
21
15.335920
0
LINE
8
1
10
37.653686
20
15.335920
11
37.860204
21
15.261043
0
LINE
8
1
10
37.860204
20
15.261043
11
38.066722
21
15.335920
0
LINE
8
1
10
38.066722
20
15.335920
11
38.160594
21
15.560551
0
LINE
8
1
10
53.145149
20
15.433904
11
53.051498
21
15.658733
0
LINE
8
1
10
53.051498
20
15.658733
11
52.845465
21
15.733676
0
LINE
8
1
10
52.845465
20
15.733676
11
52.639433
21
15.658733
0
LINE
8
1
10
52.639433
20
15.658733
11
52.545781
21
15.433904
0
LINE
8
1
10
52.545781
20
15.433904
11
52.639433
21
15.208281
0
LINE
8
1
10
52.639433
20
15.208281
11
52.845465
21
15.133073
0
LINE
8
1
10
52.845465
20
15.133073
11
53.051498
21
15.208281
0
LINE
8
1
10
53.051498
20
15.208281
11
53.145149
21
15.433904
0
LINE
8
1
10
68.004822
20
15.560551
11
67.911116
21
15.785380
0
LINE
8
1
10
67.911116
20
15.785380
11
67.704962
21
15.860323
0
LINE
8
1
10
67.704962
20
15.860323
11
67.498808
21
15.785380
0
LINE
8
1
10
67.498808
20
15.785380
11
67.405101
21
15.560551
0
LINE
8
1
10
67.405101
20
15.560551
11
67.498808
21
15.335920
0
LINE
8
1
10
67.498808
20
15.335920
11
67.704962
21
15.261043
0
LINE
8
1
10
67.704962
20
15.261043
11
67.911116
21
15.335920
0
LINE
8
1
10
67.911116
20
15.335920
11
68.004822
21
15.560551
0
LINE
8
1
10
74.989807
20
76.012417
11
74.896156
21
76.237247
0
LINE
8
1
10
74.896156
20
76.237247
11
74.690123
21
76.312190
0
LINE
8
1
10
74.690123
20
76.312190
11
74.484090
21
76.237247
0
LINE
8
1
10
74.484090
20
76.237247
11
74.390439
21
76.012417
0
LINE
8
1
10
74.390439
20
76.012417
11
74.484090
21
75.787588
0
LINE
8
1
10
74.484090
20
75.787588
11
74.690123
21
75.712645
0
LINE
8
1
10
74.690123
20
75.712645
11
74.896156
21
75.787588
0
LINE
8
1
10
74.896156
20
75.787588
11
74.989807
21
76.012417
0
LINE
8
1
10
33.841898
20
63.058799
11
33.748191
21
63.283628
0
LINE
8
1
10
33.748191
20
63.283628
11
33.542037
21
63.358571
0
LINE
8
1
10
33.542037
20
63.358571
11
33.335883
21
63.283628
0
LINE
8
1
10
33.335883
20
63.283628
11
33.242177
21
63.058799
0
LINE
8
1
10
33.242177
20
63.058799
11
33.335883
21
62.833176
0
LINE
8
1
10
33.335883
20
62.833176
11
33.542037
21
62.757968
0
LINE
8
1
10
33.542037
20
62.757968
11
33.748191
21
62.833176
0
LINE
8
1
10
33.748191
20
62.833176
11
33.841898
21
63.058799
0
LINE
8
1
10
33.841898
20
65.216736
11
33.748191
21
65.442359
0
LINE
8
1
10
33.748191
20
65.442359
11
33.542037
21
65.517566
0
LINE
8
1
10
33.542037
20
65.517566
11
33.335883
21
65.442359
0
LINE
8
1
10
33.335883
20
65.442359
11
33.242177
21
65.216736
0
LINE
8
1
10
33.242177
20
65.216736
11
33.335883
21
64.991907
0
LINE
8
1
10
33.335883
20
64.991907
11
33.542037
21
64.916963
0
LINE
8
1
10
33.542037
20
64.916963
11
33.748191
21
64.991907
0
LINE
8
1
10
33.748191
20
64.991907
11
33.841898
21
65.216736
0
LINE
8
1
10
68.470488
20
34.576289
11
69.732724
21
34.576289
0
LINE
8
1
10
69.732724
20
34.576289
11
69.732724
21
33.717630
0
LINE
8
1
10
69.732724
20
33.717630
11
68.470488
21
33.717630
0
LINE
8
1
10
68.470488
20
33.717630
11
68.470488
21
34.576289
0
LINE
8
1
10
68.470488
20
36.130625
11
69.732724
21
36.130625
0
LINE
8
1
10
69.732724
20
36.130625
11
69.732724
21
35.271966
0
LINE
8
1
10
69.732724
20
35.271966
11
68.470488
21
35.271966
0
LINE
8
1
10
68.470488
20
35.271966
11
68.470488
21
36.130625
0
LINE
8
1
10
47.410054
20
34.605217
11
48.672290
21
34.605217
0
LINE
8
1
10
48.672290
20
34.605217
11
48.672290
21
33.746558
0
LINE
8
1
10
48.672290
20
33.746558
11
47.410054
21
33.746558
0
LINE
8
1
10
47.410054
20
33.746558
11
47.410054
21
34.605217
0
LINE
8
1
10
47.410054
20
36.159553
11
48.672290
21
36.159553
0
LINE
8
1
10
48.672290
20
36.159553
11
48.672290
21
35.300893
0
LINE
8
1
10
48.672290
20
35.300893
11
47.410054
21
35.300893
0
LINE
8
1
10
47.410054
20
35.300893
11
47.410054
21
36.159553
0
LINE
8
1
10
26.466389
20
34.649314
11
27.728625
21
34.649314
0
LINE
8
1
10
27.728625
20
34.649314
11
27.728625
21
33.790655
0
LINE
8
1
10
27.728625
20
33.790655
11
26.466389
21
33.790655
0
LINE
8
1
10
26.466389
20
33.790655
11
26.466389
21
34.649314
0
LINE
8
1
10
26.466389
20
36.203650
11
27.728625
21
36.203650
0
LINE
8
1
10
27.728625
20
36.203650
11
27.728625
21
35.344990
0
LINE
8
1
10
27.728625
20
35.344990
11
26.466389
21
35.344990
0
LINE
8
1
10
26.466389
20
35.344990
11
26.466389
21
36.203650
0
LINE
8
1
10
40.277256
20
9.527711
11
41.539492
21
9.527711
0
LINE
8
1
10
41.539492
20
9.527711
11
41.539492
21
8.669052
0
LINE
8
1
10
41.539492
20
8.669052
11
40.277256
21
8.669052
0
LINE
8
1
10
40.277256
20
8.669052
11
40.277256
21
9.527711
0
LINE
8
1
10
40.277256
20
7.974434
11
41.539492
21
7.974434
0
LINE
8
1
10
41.539492
20
7.974434
11
41.539492
21
7.115775
0
LINE
8
1
10
41.539492
20
7.115775
11
40.277256
21
7.115775
0
LINE
8
1
10
40.277256
20
7.115775
11
40.277256
21
7.974434
0
LINE
8
1
10
25.290936
20
9.527711
11
26.553172
21
9.527711
0
LINE
8
1
10
26.553172
20
9.527711
11
26.553172
21
8.669052
0
LINE
8
1
10
26.553172
20
8.669052
11
25.290936
21
8.669052
0
LINE
8
1
10
25.290936
20
8.669052
11
25.290936
21
9.527711
0
LINE
8
1
10
25.290936
20
7.974434
11
26.553172
21
7.974434
0
LINE
8
1
10
26.553172
20
7.974434
11
26.553172
21
7.115775
0
LINE
8
1
10
26.553172
20
7.115775
11
25.290936
21
7.115775
0
LINE
8
1
10
25.290936
20
7.115775
11
25.290936
21
7.974434
0
LINE
8
1
10
55.330956
20
9.527711
11
56.593192
21
9.527711
0
LINE
8
1
10
56.593192
20
9.527711
11
56.593192
21
8.669052
0
LINE
8
1
10
56.593192
20
8.669052
11
55.330956
21
8.669052
0
LINE
8
1
10
55.330956
20
8.669052
11
55.330956
21
9.527711
0
LINE
8
1
10
55.330956
20
7.974434
11
56.593192
21
7.974434
0
LINE
8
1
10
56.593192
20
7.974434
11
56.593192
21
7.115775
0
LINE
8
1
10
56.593192
20
7.115775
11
55.330956
21
7.115775
0
LINE
8
1
10
55.330956
20
7.115775
11
55.330956
21
7.974434
0
LINE
8
1
10
39.465516
20
43.470150
11
40.990924
21
43.470150
0
LINE
8
1
10
40.990924
20
43.470150
11
40.990924
21
42.770241
0
LINE
8
1
10
40.990924
20
42.770241
11
39.465516
21
42.770241
0
LINE
8
1
10
39.465516
20
42.770241
11
39.465516
21
43.470150
0
LINE
8
1
10
39.465516
20
42.199448
11
40.990924
21
42.199448
0
LINE
8
1
10
40.990924
20
42.199448
11
40.990924
21
41.499538
0
LINE
8
1
10
40.990924
20
41.499538
11
39.465516
21
41.499538
0
LINE
8
1
10
39.465516
20
41.499538
11
39.465516
21
42.199448
0
LINE
8
1
10
39.465516
20
40.929098
11
40.990924
21
40.929098
0
LINE
8
1
10
40.990924
20
40.929098
11
40.990924
21
40.229188
0
LINE
8
1
10
40.990924
20
40.229188
11
39.465516
21
40.229188
0
LINE
8
1
10
39.465516
20
40.229188
11
39.465516
21
40.929098
0
LINE
8
1
10
39.465516
20
39.659806
11
40.990924
21
39.659806
0
LINE
8
1
10
40.990924
20
39.659806
11
40.990924
21
38.959896
0
LINE
8
1
10
40.990924
20
38.959896
11
39.465516
21
38.959896
0
LINE
8
1
10
39.465516
20
38.959896
11
39.465516
21
39.659806
0
LINE
8
1
10
44.889462
20
39.659806
11
46.414870
21
39.659806
0
LINE
8
1
10
46.414870
20
39.659806
11
46.414870
21
38.959896
0
LINE
8
1
10
46.414870
20
38.959896
11
44.889462
21
38.959896
0
LINE
8
1
10
44.889462
20
38.959896
11
44.889462
21
39.659806
0
LINE
8
1
10
44.889462
20
40.929098
11
46.414870
21
40.929098
0
LINE
8
1
10
46.414870
20
40.929098
11
46.414870
21
40.229188
0
LINE
8
1
10
46.414870
20
40.229188
11
44.889462
21
40.229188
0
LINE
8
1
10
44.889462
20
40.229188
11
44.889462
21
40.929098
0
LINE
8
1
10
44.889462
20
42.199448
11
46.414870
21
42.199448
0
LINE
8
1
10
46.414870
20
42.199448
11
46.414870
21
41.499538
0
LINE
8
1
10
46.414870
20
41.499538
11
44.889462
21
41.499538
0
LINE
8
1
10
44.889462
20
41.499538
11
44.889462
21
42.199448
0
LINE
8
1
10
44.889462
20
43.470150
11
46.414870
21
43.470150
0
LINE
8
1
10
46.414870
20
43.470150
11
46.414870
21
42.770241
0
LINE
8
1
10
46.414870
20
42.770241
11
44.889462
21
42.770241
0
LINE
8
1
10
44.889462
20
42.770241
11
44.889462
21
43.470150
0
LINE
8
1
10
60.420117
20
43.470150
11
61.945525
21
43.470150
0
LINE
8
1
10
61.945525
20
43.470150
11
61.945525
21
42.770241
0
LINE
8
1
10
61.945525
20
42.770241
11
60.420117
21
42.770241
0
LINE
8
1
10
60.420117
20
42.770241
11
60.420117
21
43.470150
0
LINE
8
1
10
60.420117
20
42.199448
11
61.945525
21
42.199448
0
LINE
8
1
10
61.945525
20
42.199448
11
61.945525
21
41.499538
0
LINE
8
1
10
61.945525
20
41.499538
11
60.420117
21
41.499538
0
LINE
8
1
10
60.420117
20
41.499538
11
60.420117
21
42.199448
0
LINE
8
1
10
60.420117
20
40.929098
11
61.945525
21
40.929098
0
LINE
8
1
10
61.945525
20
40.929098
11
61.945525
21
40.229188
0
LINE
8
1
10
61.945525
20
40.229188
11
60.420117
21
40.229188
0
LINE
8
1
10
60.420117
20
40.229188
11
60.420117
21
40.929098
0
LINE
8
1
10
60.420117
20
39.659806
11
61.945525
21
39.659806
0
LINE
8
1
10
61.945525
20
39.659806
11
61.945525
21
38.959896
0
LINE
8
1
10
61.945525
20
38.959896
11
60.420117
21
38.959896
0
LINE
8
1
10
60.420117
20
38.959896
11
60.420117
21
39.659806
0
LINE
8
1
10
65.844063
20
39.659806
11
67.369471
21
39.659806
0
LINE
8
1
10
67.369471
20
39.659806
11
67.369471
21
38.959896
0
LINE
8
1
10
67.369471
20
38.959896
11
65.844063
21
38.959896
0
LINE
8
1
10
65.844063
20
38.959896
11
65.844063
21
39.659806
0
LINE
8
1
10
65.844063
20
40.929098
11
67.369471
21
40.929098
0
LINE
8
1
10
67.369471
20
40.929098
11
67.369471
21
40.229188
0
LINE
8
1
10
67.369471
20
40.229188
11
65.844063
21
40.229188
0
LINE
8
1
10
65.844063
20
40.229188
11
65.844063
21
40.929098
0
LINE
8
1
10
65.844063
20
42.199448
11
67.369471
21
42.199448
0
LINE
8
1
10
67.369471
20
42.199448
11
67.369471
21
41.499538
0
LINE
8
1
10
67.369471
20
41.499538
11
65.844063
21
41.499538
0
LINE
8
1
10
65.844063
20
41.499538
11
65.844063
21
42.199448
0
LINE
8
1
10
65.844063
20
43.470150
11
67.369471
21
43.470150
0
LINE
8
1
10
67.369471
20
43.470150
11
67.369471
21
42.770241
0
LINE
8
1
10
67.369471
20
42.770241
11
65.844063
21
42.770241
0
LINE
8
1
10
65.844063
20
42.770241
11
65.844063
21
43.470150
0
LINE
8
1
10
18.509856
20
43.543175
11
20.035264
21
43.543175
0
LINE
8
1
10
20.035264
20
43.543175
11
20.035264
21
42.843266
0
LINE
8
1
10
20.035264
20
42.843266
11
18.509856
21
42.843266
0
LINE
8
1
10
18.509856
20
42.843266
11
18.509856
21
43.543175
0
LINE
8
1
10
18.509856
20
42.272472
11
20.035264
21
42.272472
0
LINE
8
1
10
20.035264
20
42.272472
11
20.035264
21
41.572563
0
LINE
8
1
10
20.035264
20
41.572563
11
18.509856
21
41.572563
0
LINE
8
1
10
18.509856
20
41.572563
11
18.509856
21
42.272472
0
LINE
8
1
10
18.509856
20
41.002122
11
20.035264
21
41.002122
0
LINE
8
1
10
20.035264
20
41.002122
11
20.035264
21
40.302213
0
LINE
8
1
10
20.035264
20
40.302213
11
18.509856
21
40.302213
0
LINE
8
1
10
18.509856
20
40.302213
11
18.509856
21
41.002122
0
LINE
8
1
10
18.509856
20
39.732831
11
20.035264
21
39.732831
0
LINE
8
1
10
20.035264
20
39.732831
11
20.035264
21
39.032921
0
LINE
8
1
10
20.035264
20
39.032921
11
18.509856
21
39.032921
0
LINE
8
1
10
18.509856
20
39.032921
11
18.509856
21
39.732831
0
LINE
8
1
10
23.933803
20
39.732831
11
25.459211
21
39.732831
0
LINE
8
1
10
25.459211
20
39.732831
11
25.459211
21
39.032921
0
LINE
8
1
10
25.459211
20
39.032921
11
23.933803
21
39.032921
0
LINE
8
1
10
23.933803
20
39.032921
11
23.933803
21
39.732831
0
LINE
8
1
10
23.933803
20
41.002122
11
25.459211
21
41.002122
0
LINE
8
1
10
25.459211
20
41.002122
11
25.459211
21
40.302213
0
LINE
8
1
10
25.459211
20
40.302213
11
23.933803
21
40.302213
0
LINE
8
1
10
23.933803
20
40.302213
11
23.933803
21
41.002122
0
LINE
8
1
10
23.933803
20
42.272472
11
25.459211
21
42.272472
0
LINE
8
1
10
25.459211
20
42.272472
11
25.459211
21
41.572563
0
LINE
8
1
10
25.459211
20
41.572563
11
23.933803
21
41.572563
0
LINE
8
1
10
23.933803
20
41.572563
11
23.933803
21
42.272472
0
LINE
8
1
10
23.933803
20
43.543175
11
25.459211
21
43.543175
0
LINE
8
1
10
25.459211
20
43.543175
11
25.459211
21
42.843266
0
LINE
8
1
10
25.459211
20
42.843266
11
23.933803
21
42.843266
0
LINE
8
1
10
23.933803
20
42.843266
11
23.933803
21
43.543175
0
LINE
8
1
10
41.834413
20
42.764596
11
44.044914
21
42.764596
0
LINE
8
1
10
44.044914
20
42.764596
11
44.044914
21
39.664039
0
LINE
8
1
10
44.044914
20
39.664039
11
41.834413
21
39.664039
0
LINE
8
1
10
41.834413
20
39.664039
11
41.834413
21
42.764596
0
LINE
8
1
10
62.790073
20
42.764596
11
65.000573
21
42.764596
0
LINE
8
1
10
65.000573
20
42.764596
11
65.000573
21
39.664039
0
LINE
8
1
10
65.000573
20
39.664039
11
62.790073
21
39.664039
0
LINE
8
1
10
62.790073
20
39.664039
11
62.790073
21
42.764596
0
LINE
8
1
10
20.880165
20
42.837621
11
23.090666
21
42.837621
0
LINE
8
1
10
23.090666
20
42.837621
11
23.090666
21
39.737064
0
LINE
8
1
10
23.090666
20
39.737064
11
20.880165
21
39.737064
0
LINE
8
1
10
20.880165
20
39.737064
11
20.880165
21
42.837621
0
LINE
8
1
10
37.606734
20
30.003947
11
38.806881
21
30.003947
0
LINE
8
1
10
38.806881
20
30.003947
11
38.806881
21
28.803799
0
LINE
8
1
10
38.806881
20
28.803799
11
37.606734
21
28.803799
0
LINE
8
1
10
37.606734
20
28.803799
11
37.606734
21
30.003947
0
LINE
8
1
10
39.706815
20
30.003947
11
40.906963
21
30.003947
0
LINE
8
1
10
40.906963
20
30.003947
11
40.906963
21
28.803799
0
LINE
8
1
10
40.906963
20
28.803799
11
39.706815
21
28.803799
0
LINE
8
1
10
39.706815
20
28.803799
11
39.706815
21
30.003947
0
LINE
8
1
10
58.562393
20
26.066955
11
59.762540
21
26.066955
0
LINE
8
1
10
59.762540
20
26.066955
11
59.762540
21
24.866808
0
LINE
8
1
10
59.762540
20
24.866808
11
58.562393
21
24.866808
0
LINE
8
1
10
58.562393
20
24.866808
11
58.562393
21
26.066955
0
LINE
8
1
10
60.662475
20
26.066955
11
61.862622
21
26.066955
0
LINE
8
1
10
61.862622
20
26.066955
11
61.862622
21
24.866808
0
LINE
8
1
10
61.862622
20
24.866808
11
60.662475
21
24.866808
0
LINE
8
1
10
60.662475
20
24.866808
11
60.662475
21
26.066955
0
LINE
8
1
10
60.662475
20
28.036157
11
61.862622
21
28.036157
0
LINE
8
1
10
61.862622
20
28.036157
11
61.862622
21
26.836009
0
LINE
8
1
10
61.862622
20
26.836009
11
60.662475
21
26.836009
0
LINE
8
1
10
60.662475
20
26.836009
11
60.662475
21
28.036157
0
LINE
8
1
10
58.562393
20
28.036157
11
59.762540
21
28.036157
0
LINE
8
1
10
59.762540
20
28.036157
11
59.762540
21
26.836009
0
LINE
8
1
10
59.762540
20
26.836009
11
58.562393
21
26.836009
0
LINE
8
1
10
58.562393
20
26.836009
11
58.562393
21
28.036157
0
LINE
8
1
10
58.562393
20
30.003947
11
59.762540
21
30.003947
0
LINE
8
1
10
59.762540
20
30.003947
11
59.762540
21
28.803799
0
LINE
8
1
10
59.762540
20
28.803799
11
58.562393
21
28.803799
0
LINE
8
1
10
58.562393
20
28.803799
11
58.562393
21
30.003947
0
LINE
8
1
10
60.662475
20
30.003947
11
61.862622
21
30.003947
0
LINE
8
1
10
61.862622
20
30.003947
11
61.862622
21
28.803799
0
LINE
8
1
10
61.862622
20
28.803799
11
60.662475
21
28.803799
0
LINE
8
1
10
60.662475
20
28.803799
11
60.662475
21
30.003947
0
LINE
8
1
10
18.752214
20
30.003947
11
19.952362
21
30.003947
0
LINE
8
1
10
19.952362
20
30.003947
11
19.952362
21
28.803799
0
LINE
8
1
10
19.952362
20
28.803799
11
18.752214
21
28.803799
0
LINE
8
1
10
18.752214
20
28.803799
11
18.752214
21
30.003947
0
LINE
8
1
10
16.652133
20
30.003947
11
17.852280
21
30.003947
0
LINE
8
1
10
17.852280
20
30.003947
11
17.852280
21
28.803799
0
LINE
8
1
10
17.852280
20
28.803799
11
16.652133
21
28.803799
0
LINE
8
1
10
16.652133
20
28.803799
11
16.652133
21
30.003947
0
LINE
8
1
10
58.562393
20
32.035237
11
59.762540
21
32.035237
0
LINE
8
1
10
59.762540
20
32.035237
11
59.762540
21
30.835089
0
LINE
8
1
10
59.762540
20
30.835089
11
58.562393
21
30.835089
0
LINE
8
1
10
58.562393
20
30.835089
11
58.562393
21
32.035237
0
LINE
8
1
10
60.662475
20
32.035237
11
61.862622
21
32.035237
0
LINE
8
1
10
61.862622
20
32.035237
11
61.862622
21
30.835089
0
LINE
8
1
10
61.862622
20
30.835089
11
60.662475
21
30.835089
0
LINE
8
1
10
60.662475
20
30.835089
11
60.662475
21
32.035237
0
LINE
8
1
10
37.606734
20
26.066955
11
38.806881
21
26.066955
0
LINE
8
1
10
38.806881
20
26.066955
11
38.806881
21
24.866808
0
LINE
8
1
10
38.806881
20
24.866808
11
37.606734
21
24.866808
0
LINE
8
1
10
37.606734
20
24.866808
11
37.606734
21
26.066955
0
LINE
8
1
10
39.706815
20
26.066955
11
40.906963
21
26.066955
0
LINE
8
1
10
40.906963
20
26.066955
11
40.906963
21
24.866808
0
LINE
8
1
10
40.906963
20
24.866808
11
39.706815
21
24.866808
0
LINE
8
1
10
39.706815
20
24.866808
11
39.706815
21
26.066955
0
LINE
8
1
10
39.706815
20
28.044270
11
40.906963
21
28.044270
0
LINE
8
1
10
40.906963
20
28.044270
11
40.906963
21
26.844123
0
LINE
8
1
10
40.906963
20
26.844123
11
39.706815
21
26.844123
0
LINE
8
1
10
39.706815
20
26.844123
11
39.706815
21
28.044270
0
LINE
8
1
10
37.606734
20
28.044270
11
38.806881
21
28.044270
0
LINE
8
1
10
38.806881
20
28.044270
11
38.806881
21
26.844123
0
LINE
8
1
10
38.806881
20
26.844123
11
37.606734
21
26.844123
0
LINE
8
1
10
37.606734
20
26.844123
11
37.606734
21
28.044270
0
LINE
8
1
10
37.606734
20
32.035237
11
38.806881
21
32.035237
0
LINE
8
1
10
38.806881
20
32.035237
11
38.806881
21
30.835089
0
LINE
8
1
10
38.806881
20
30.835089
11
37.606734
21
30.835089
0
LINE
8
1
10
37.606734
20
30.835089
11
37.606734
21
32.035237
0
LINE
8
1
10
39.706815
20
32.035237
11
40.906963
21
32.035237
0
LINE
8
1
10
40.906963
20
32.035237
11
40.906963
21
30.835089
0
LINE
8
1
10
40.906963
20
30.835089
11
39.706815
21
30.835089
0
LINE
8
1
10
39.706815
20
30.835089
11
39.706815
21
32.035237
0
LINE
8
1
10
7.127154
20
75.215847
11
8.327301
21
75.215847
0
LINE
8
1
10
8.327301
20
75.215847
11
8.327301
21
74.015700
0
LINE
8
1
10
8.327301
20
74.015700
11
7.127154
21
74.015700
0
LINE
8
1
10
7.127154
20
74.015700
11
7.127154
21
75.215847
0
LINE
8
1
10
9.227235
20
75.215847
11
10.427383
21
75.215847
0
LINE
8
1
10
10.427383
20
75.215847
11
10.427383
21
74.015700
0
LINE
8
1
10
10.427383
20
74.015700
11
9.227235
21
74.015700
0
LINE
8
1
10
9.227235
20
74.015700
11
9.227235
21
75.215847
0
LINE
8
1
10
65.995404
20
80.422130
11
67.195552
21
80.422130
0
LINE
8
1
10
67.195552
20
80.422130
11
67.195552
21
79.221983
0
LINE
8
1
10
67.195552
20
79.221983
11
65.995404
21
79.221983
0
LINE
8
1
10
65.995404
20
79.221983
11
65.995404
21
80.422130
0
LINE
8
1
10
63.895323
20
80.422130
11
65.095470
21
80.422130
0
LINE
8
1
10
65.095470
20
80.422130
11
65.095470
21
79.221983
0
LINE
8
1
10
65.095470
20
79.221983
11
63.895323
21
79.221983
0
LINE
8
1
10
63.895323
20
79.221983
11
63.895323
21
80.422130
0
LINE
8
1
10
16.652133
20
32.035237
11
17.852280
21
32.035237
0
LINE
8
1
10
17.852280
20
32.035237
11
17.852280
21
30.835089
0
LINE
8
1
10
17.852280
20
30.835089
11
16.652133
21
30.835089
0
LINE
8
1
10
16.652133
20
30.835089
11
16.652133
21
32.035237
0
LINE
8
1
10
18.752214
20
32.035237
11
19.952362
21
32.035237
0
LINE
8
1
10
19.952362
20
32.035237
11
19.952362
21
30.835089
0
LINE
8
1
10
19.952362
20
30.835089
11
18.752214
21
30.835089
0
LINE
8
1
10
18.752214
20
30.835089
11
18.752214
21
32.035237
0
LINE
8
1
10
16.652133
20
26.066955
11
17.852280
21
26.066955
0
LINE
8
1
10
17.852280
20
26.066955
11
17.852280
21
24.866808
0
LINE
8
1
10
17.852280
20
24.866808
11
16.652133
21
24.866808
0
LINE
8
1
10
16.652133
20
24.866808
11
16.652133
21
26.066955
0
LINE
8
1
10
18.752214
20
26.066955
11
19.952362
21
26.066955
0
LINE
8
1
10
19.952362
20
26.066955
11
19.952362
21
24.866808
0
LINE
8
1
10
19.952362
20
24.866808
11
18.752214
21
24.866808
0
LINE
8
1
10
18.752214
20
24.866808
11
18.752214
21
26.066955
0
LINE
8
1
10
18.752214
20
28.044270
11
19.952362
21
28.044270
0
LINE
8
1
10
19.952362
20
28.044270
11
19.952362
21
26.844123
0
LINE
8
1
10
19.952362
20
26.844123
11
18.752214
21
26.844123
0
LINE
8
1
10
18.752214
20
26.844123
11
18.752214
21
28.044270
0
LINE
8
1
10
16.652133
20
28.044270
11
17.852280
21
28.044270
0
LINE
8
1
10
17.852280
20
28.044270
11
17.852280
21
26.844123
0
LINE
8
1
10
17.852280
20
26.844123
11
16.652133
21
26.844123
0
LINE
8
1
10
16.652133
20
26.844123
11
16.652133
21
28.044270
0
LINE
8
1
10
13.664464
20
10.665770
11
15.064636
21
10.665770
0
LINE
8
1
10
15.064636
20
10.665770
11
15.064636
21
9.765836
0
LINE
8
1
10
15.064636
20
9.765836
11
13.664464
21
9.765836
0
LINE
8
1
10
13.664464
20
9.765836
11
13.664464
21
10.665770
0
LINE
8
1
10
14.270888
20
75.648704
11
15.671060
21
75.648704
0
LINE
8
1
10
15.671060
20
75.648704
11
15.671060
21
74.748770
0
LINE
8
1
10
15.671060
20
74.748770
11
14.270888
21
74.748770
0
LINE
8
1
10
14.270888
20
74.748770
11
14.270888
21
75.648704
0
LINE
8
1
10
13.664464
20
13.865810
11
15.064636
21
13.865810
0
LINE
8
1
10
15.064636
20
13.865810
11
15.064636
21
11.666598
0
LINE
8
1
10
15.064636
20
11.666598
11
13.664464
21
11.666598
0
LINE
8
1
10
13.664464
20
11.666598
11
13.664464
21
13.865810
0
LINE
8
1
10
14.270888
20
73.748295
11
15.671060
21
73.748295
0
LINE
8
1
10
15.671060
20
73.748295
11
15.671060
21
71.549083
0
LINE
8
1
10
15.671060
20
71.549083
11
14.270888
21
71.549083
0
LINE
8
1
10
14.270888
20
71.549083
11
14.270888
21
73.748295
0
LINE
8
1
10
64.617458
20
5.235121
11
66.616998
21
5.235121
0
LINE
8
1
10
66.616998
20
5.235121
11
66.616998
21
3.834949
0
LINE
8
1
10
66.616998
20
3.834949
11
64.617458
21
3.834949
0
LINE
8
1
10
64.617458
20
3.834949
11
64.617458
21
5.235121
0
LINE
8
1
10
57.616951
20
5.235121
11
59.616491
21
5.235121
0
LINE
8
1
10
59.616491
20
5.235121
11
59.616491
21
3.834949
0
LINE
8
1
10
59.616491
20
3.834949
11
57.616951
21
3.834949
0
LINE
8
1
10
57.616951
20
3.834949
11
57.616951
21
5.235121
0
LINE
8
1
10
64.617458
20
8.235136
11
66.616998
21
8.235136
0
LINE
8
1
10
66.616998
20
8.235136
11
66.616998
21
6.834964
0
LINE
8
1
10
66.616998
20
6.834964
11
64.617458
21
6.834964
0
LINE
8
1
10
64.617458
20
6.834964
11
64.617458
21
8.235136
0
LINE
8
1
10
57.616951
20
8.235136
11
59.616491
21
8.235136
0
LINE
8
1
10
59.616491
20
8.235136
11
59.616491
21
6.834964
0
LINE
8
1
10
59.616491
20
6.834964
11
57.616951
21
6.834964
0
LINE
8
1
10
57.616951
20
6.834964
11
57.616951
21
8.235136
0
LINE
8
1
10
49.631491
20
5.235121
11
51.631031
21
5.235121
0
LINE
8
1
10
51.631031
20
5.235121
11
51.631031
21
3.834949
0
LINE
8
1
10
51.631031
20
3.834949
11
49.631491
21
3.834949
0
LINE
8
1
10
49.631491
20
3.834949
11
49.631491
21
5.235121
0
LINE
8
1
10
42.630984
20
5.235121
11
44.630524
21
5.235121
0
LINE
8
1
10
44.630524
20
5.235121
11
44.630524
21
3.834949
0
LINE
8
1
10
44.630524
20
3.834949
11
42.630984
21
3.834949
0
LINE
8
1
10
42.630984
20
3.834949
11
42.630984
21
5.235121
0
LINE
8
1
10
49.631491
20
8.235136
11
51.631031
21
8.235136
0
LINE
8
1
10
51.631031
20
8.235136
11
51.631031
21
6.834964
0
LINE
8
1
10
51.631031
20
6.834964
11
49.631491
21
6.834964
0
LINE
8
1
10
49.631491
20
6.834964
11
49.631491
21
8.235136
0
LINE
8
1
10
42.630984
20
8.235136
11
44.630524
21
8.235136
0
LINE
8
1
10
44.630524
20
8.235136
11
44.630524
21
6.834964
0
LINE
8
1
10
44.630524
20
6.834964
11
42.630984
21
6.834964
0
LINE
8
1
10
42.630984
20
6.834964
11
42.630984
21
8.235136
0
LINE
8
1
10
34.645171
20
5.235121
11
36.644711
21
5.235121
0
LINE
8
1
10
36.644711
20
5.235121
11
36.644711
21
3.834949
0
LINE
8
1
10
36.644711
20
3.834949
11
34.645171
21
3.834949
0
LINE
8
1
10
34.645171
20
3.834949
11
34.645171
21
5.235121
0
LINE
8
1
10
27.644664
20
5.235121
11
29.644204
21
5.235121
0
LINE
8
1
10
29.644204
20
5.235121
11
29.644204
21
3.834949
0
LINE
8
1
10
29.644204
20
3.834949
11
27.644664
21
3.834949
0
LINE
8
1
10
27.644664
20
3.834949
11
27.644664
21
5.235121
0
LINE
8
1
10
34.645171
20
8.235136
11
36.644711
21
8.235136
0
LINE
8
1
10
36.644711
20
8.235136
11
36.644711
21
6.834964
0
LINE
8
1
10
36.644711
20
6.834964
11
34.645171
21
6.834964
0
LINE
8
1
10
34.645171
20
6.834964
11
34.645171
21
8.235136
0
LINE
8
1
10
27.644664
20
8.235136
11
29.644204
21
8.235136
0
LINE
8
1
10
29.644204
20
8.235136
11
29.644204
21
6.834964
0
LINE
8
1
10
29.644204
20
6.834964
11
27.644664
21
6.834964
0
LINE
8
1
10
27.644664
20
6.834964
11
27.644664
21
8.235136
0
LINE
8
1
10
11.226775
20
75.111072
11
12.676336
21
75.111072
0
LINE
8
1
10
12.676336
20
75.111072
11
12.676336
21
74.110597
0
LINE
8
1
10
12.676336
20
74.110597
11
11.226775
21
74.110597
0
LINE
8
1
10
11.226775
20
74.110597
11
11.226775
21
75.111072
0
LINE
8
1
10
11.226775
20
73.210663
11
12.676336
21
73.210663
0
LINE
8
1
10
12.676336
20
73.210663
11
12.676336
21
72.210187
0
LINE
8
1
10
12.676336
20
72.210187
11
11.226775
21
72.210187
0
LINE
8
1
10
11.226775
20
72.210187
11
11.226775
21
73.210663
0
LINE
8
1
10
10.274630
20
19.302104
11
11.724191
21
19.302104
0
LINE
8
1
10
11.724191
20
19.302104
11
11.724191
21
18.301628
0
LINE
8
1
10
11.724191
20
18.301628
11
10.274630
21
18.301628
0
LINE
8
1
10
10.274630
20
18.301628
11
10.274630
21
19.302104
0
LINE
8
1
10
10.274630
20
21.202513
11
11.724191
21
21.202513
0
LINE
8
1
10
11.724191
20
21.202513
11
11.724191
21
20.202038
0
LINE
8
1
10
11.724191
20
20.202038
11
10.274630
21
20.202038
0
LINE
8
1
10
10.274630
20
20.202038
11
10.274630
21
21.202513
0
LINE
8
1
10
64.821363
20
18.407814
11
66.270923
21
18.407814
0
LINE
8
1
10
66.270923
20
18.407814
11
66.270923
21
17.407338
0
LINE
8
1
10
66.270923
20
17.407338
11
64.821363
21
17.407338
0
LINE
8
1
10
64.821363
20
17.407338
11
64.821363
21
18.407814
0
LINE
8
1
10
64.821363
20
16.507404
11
66.270923
21
16.507404
0
LINE
8
1
10
66.270923
20
16.507404
11
66.270923
21
15.506929
0
LINE
8
1
10
66.270923
20
15.506929
11
64.821363
21
15.506929
0
LINE
8
1
10
64.821363
20
15.506929
11
64.821363
21
16.507404
0
LINE
8
1
10
58.089672
20
10.792770
11
59.539233
21
10.792770
0
LINE
8
1
10
59.539233
20
10.792770
11
59.539233
21
9.792294
0
LINE
8
1
10
59.539233
20
9.792294
11
58.089672
21
9.792294
0
LINE
8
1
10
58.089672
20
9.792294
11
58.089672
21
10.792770
0
LINE
8
1
10
58.089672
20
12.692827
11
59.539233
21
12.692827
0
LINE
8
1
10
59.539233
20
12.692827
11
59.539233
21
11.692351
0
LINE
8
1
10
59.539233
20
11.692351
11
58.089672
21
11.692351
0
LINE
8
1
10
58.089672
20
11.692351
11
58.089672
21
12.692827
0
LINE
8
1
10
49.835396
20
18.407814
11
51.284956
21
18.407814
0
LINE
8
1
10
51.284956
20
18.407814
11
51.284956
21
17.407338
0
LINE
8
1
10
51.284956
20
17.407338
11
49.835396
21
17.407338
0
LINE
8
1
10
49.835396
20
17.407338
11
49.835396
21
18.407814
0
LINE
8
1
10
49.835396
20
16.507404
11
51.284956
21
16.507404
0
LINE
8
1
10
51.284956
20
16.507404
11
51.284956
21
15.506929
0
LINE
8
1
10
51.284956
20
15.506929
11
49.835396
21
15.506929
0
LINE
8
1
10
49.835396
20
15.506929
11
49.835396
21
16.507404
0
LINE
8
1
10
43.103705
20
10.792770
11
44.553266
21
10.792770
0
LINE
8
1
10
44.553266
20
10.792770
11
44.553266
21
9.792294
0
LINE
8
1
10
44.553266
20
9.792294
11
43.103705
21
9.792294
0
LINE
8
1
10
43.103705
20
9.792294
11
43.103705
21
10.792770
0
LINE
8
1
10
43.103705
20
12.692827
11
44.553266
21
12.692827
0
LINE
8
1
10
44.553266
20
12.692827
11
44.553266
21
11.692351
0
LINE
8
1
10
44.553266
20
11.692351
11
43.103705
21
11.692351
0
LINE
8
1
10
43.103705
20
11.692351
11
43.103705
21
12.692827
0
LINE
8
1
10
34.849076
20
18.468492
11
36.298637
21
18.468492
0
LINE
8
1
10
36.298637
20
18.468492
11
36.298637
21
17.468016
0
LINE
8
1
10
36.298637
20
17.468016
11
34.849076
21
17.468016
0
LINE
8
1
10
34.849076
20
17.468016
11
34.849076
21
18.468492
0
LINE
8
1
10
34.849076
20
16.569493
11
36.298637
21
16.569493
0
LINE
8
1
10
36.298637
20
16.569493
11
36.298637
21
15.569017
0
LINE
8
1
10
36.298637
20
15.569017
11
34.849076
21
15.569017
0
LINE
8
1
10
34.849076
20
15.569017
11
34.849076
21
16.569493
0
LINE
8
1
10
28.038716
20
10.919417
11
29.488277
21
10.919417
0
LINE
8
1
10
29.488277
20
10.919417
11
29.488277
21
9.918941
0
LINE
8
1
10
29.488277
20
9.918941
11
28.038716
21
9.918941
0
LINE
8
1
10
28.038716
20
9.918941
11
28.038716
21
10.919417
0
LINE
8
1
10
28.038716
20
12.819826
11
29.488277
21
12.819826
0
LINE
8
1
10
29.488277
20
12.819826
11
29.488277
21
11.819351
0
LINE
8
1
10
29.488277
20
11.819351
11
28.038716
21
11.819351
0
LINE
8
1
10
28.038716
20
11.819351
11
28.038716
21
12.819826
0
LINE
8
1
10
6.013790
20
53.787466
11
7.476050
21
53.787466
0
LINE
8
1
10
7.476050
20
53.787466
11
7.476050
21
52.529464
0
LINE
8
1
10
7.476050
20
52.529464
11
6.013790
21
52.529464
0
LINE
8
1
10
6.013790
20
52.529464
11
6.013790
21
53.787466
0
LINE
8
1
10
6.013790
20
55.741498
11
7.476050
21
55.741498
0
LINE
8
1
10
7.476050
20
55.741498
11
7.476050
21
54.483495
0
LINE
8
1
10
7.476050
20
54.483495
11
6.013790
21
54.483495
0
LINE
8
1
10
6.013790
20
54.483495
11
6.013790
21
55.741498
0
LINE
8
1
10
6.013790
20
49.248285
11
7.476050
21
49.248285
0
LINE
8
1
10
7.476050
20
49.248285
11
7.476050
21
47.990282
0
LINE
8
1
10
7.476050
20
47.990282
11
6.013790
21
47.990282
0
LINE
8
1
10
6.013790
20
47.990282
11
6.013790
21
49.248285
0
LINE
8
1
10
6.013790
20
51.202317
11
7.476050
21
51.202317
0
LINE
8
1
10
7.476050
20
51.202317
11
7.476050
21
49.944314
0
LINE
8
1
10
7.476050
20
49.944314
11
6.013790
21
49.944314
0
LINE
8
1
10
6.013790
20
49.944314
11
6.013790
21
51.202317
0
LINE
8
1
10
57.650112
20
18.601841
11
59.112372
21
18.601841
0
LINE
8
1
10
59.112372
20
18.601841
11
59.112372
21
17.343838
0
LINE
8
1
10
59.112372
20
17.343838
11
57.650112
21
17.343838
0
LINE
8
1
10
57.650112
20
17.343838
11
57.650112
21
18.601841
0
LINE
8
1
10
57.650112
20
16.647809
11
59.112372
21
16.647809
0
LINE
8
1
10
59.112372
20
16.647809
11
59.112372
21
15.389807
0
LINE
8
1
10
59.112372
20
15.389807
11
57.650112
21
15.389807
0
LINE
8
1
10
57.650112
20
15.389807
11
57.650112
21
16.647809
0
LINE
8
1
10
42.664145
20
18.563389
11
44.126405
21
18.563389
0
LINE
8
1
10
44.126405
20
18.563389
11
44.126405
21
17.305386
0
LINE
8
1
10
44.126405
20
17.305386
11
42.664145
21
17.305386
0
LINE
8
1
10
42.664145
20
17.305386
11
42.664145
21
18.563389
0
LINE
8
1
10
42.664145
20
16.609357
11
44.126405
21
16.609357
0
LINE
8
1
10
44.126405
20
16.609357
11
44.126405
21
15.351354
0
LINE
8
1
10
44.126405
20
15.351354
11
42.664145
21
15.351354
0
LINE
8
1
10
42.664145
20
15.351354
11
42.664145
21
16.609357
0
LINE
8
1
10
27.677825
20
18.563389
11
29.140086
21
18.563389
0
LINE
8
1
10
29.140086
20
18.563389
11
29.140086
21
17.305386
0
LINE
8
1
10
29.140086
20
17.305386
11
27.677825
21
17.305386
0
LINE
8
1
10
27.677825
20
17.305386
11
27.677825
21
18.563389
0
LINE
8
1
10
27.677825
20
16.609357
11
29.140086
21
16.609357
0
LINE
8
1
10
29.140086
20
16.609357
11
29.140086
21
15.351354
0
LINE
8
1
10
29.140086
20
15.351354
11
27.677825
21
15.351354
0
LINE
8
1
10
27.677825
20
15.351354
11
27.677825
21
16.609357
0
LINE
8
1
10
8.086354
20
58.756683
11
9.541560
21
58.756683
0
LINE
8
1
10
9.541560
20
58.756683
11
9.541560
21
57.200937
0
LINE
8
1
10
9.541560
20
57.200937
11
8.086354
21
57.200937
0
LINE
8
1
10
8.086354
20
57.200937
11
8.086354
21
58.756683
0
LINE
8
1
10
6.234275
20
58.756683
11
7.689480
21
58.756683
0
LINE
8
1
10
7.689480
20
58.756683
11
7.689480
21
57.200937
0
LINE
8
1
10
7.689480
20
57.200937
11
6.234275
21
57.200937
0
LINE
8
1
10
6.234275
20
57.200937
11
6.234275
21
58.756683
0
LINE
8
1
10
69.935218
20
56.977629
11
71.390423
21
56.977629
0
LINE
8
1
10
71.390423
20
56.977629
11
71.390423
21
55.421882
0
LINE
8
1
10
71.390423
20
55.421882
11
69.935218
21
55.421882
0
LINE
8
1
10
69.935218
20
55.421882
11
69.935218
21
56.977629
0
LINE
8
1
10
68.083139
20
56.977629
11
69.538344
21
56.977629
0
LINE
8
1
10
69.538344
20
56.977629
11
69.538344
21
55.421882
0
LINE
8
1
10
69.538344
20
55.421882
11
68.083139
21
55.421882
0
LINE
8
1
10
68.083139
20
55.421882
11
68.083139
21
56.977629
0
LINE
8
1
10
68.234833
20
49.231704
11
69.690038
21
49.231704
0
LINE
8
1
10
69.690038
20
49.231704
11
69.690038
21
47.675958
0
LINE
8
1
10
69.690038
20
47.675958
11
68.234833
21
47.675958
0
LINE
8
1
10
68.234833
20
47.675958
11
68.234833
21
49.231704
0
LINE
8
1
10
70.085501
20
49.231704
11
71.540706
21
49.231704
0
LINE
8
1
10
71.540706
20
49.231704
11
71.540706
21
47.675958
0
LINE
8
1
10
71.540706
20
47.675958
11
70.085501
21
47.675958
0
LINE
8
1
10
70.085501
20
47.675958
11
70.085501
21
49.231704
0
LINE
8
1
10
48.980970
20
56.977629
11
50.436175
21
56.977629
0
LINE
8
1
10
50.436175
20
56.977629
11
50.436175
21
55.421882
0
LINE
8
1
10
50.436175
20
55.421882
11
48.980970
21
55.421882
0
LINE
8
1
10
48.980970
20
55.421882
11
48.980970
21
56.977629
0
LINE
8
1
10
47.128891
20
56.977629
11
48.584096
21
56.977629
0
LINE
8
1
10
48.584096
20
56.977629
11
48.584096
21
55.421882
0
LINE
8
1
10
48.584096
20
55.421882
11
47.128891
21
55.421882
0
LINE
8
1
10
47.128891
20
55.421882
11
47.128891
21
56.977629
0
LINE
8
1
10
60.313931
20
46.437005
11
61.769136
21
46.437005
0
LINE
8
1
10
61.769136
20
46.437005
11
61.769136
21
44.881258
0
LINE
8
1
10
61.769136
20
44.881258
11
60.313931
21
44.881258
0
LINE
8
1
10
60.313931
20
44.881258
11
60.313931
21
46.437005
0
LINE
8
1
10
62.164599
20
46.437005
11
63.619804
21
46.437005
0
LINE
8
1
10
63.619804
20
46.437005
11
63.619804
21
44.881258
0
LINE
8
1
10
63.619804
20
44.881258
11
62.164599
21
44.881258
0
LINE
8
1
10
62.164599
20
44.881258
11
62.164599
21
46.437005
0
LINE
8
1
10
60.313931
20
49.321310
11
61.769136
21
49.321310
0
LINE
8
1
10
61.769136
20
49.321310
11
61.769136
21
47.765563
0
LINE
8
1
10
61.769136
20
47.765563
11
60.313931
21
47.765563
0
LINE
8
1
10
60.313931
20
47.765563
11
60.313931
21
49.321310
0
LINE
8
1
10
62.164599
20
49.321310
11
63.619804
21
49.321310
0
LINE
8
1
10
63.619804
20
49.321310
11
63.619804
21
47.765563
0
LINE
8
1
10
63.619804
20
47.765563
11
62.164599
21
47.765563
0
LINE
8
1
10
62.164599
20
47.765563
11
62.164599
21
49.321310
0
LINE
8
1
10
47.279174
20
49.231704
11
48.734379
21
49.231704
0
LINE
8
1
10
48.734379
20
49.231704
11
48.734379
21
47.675958
0
LINE
8
1
10
48.734379
20
47.675958
11
47.279174
21
47.675958
0
LINE
8
1
10
47.279174
20
47.675958
11
47.279174
21
49.231704
0
LINE
8
1
10
49.131253
20
49.231704
11
50.586458
21
49.231704
0
LINE
8
1
10
50.586458
20
49.231704
11
50.586458
21
47.675958
0
LINE
8
1
10
50.586458
20
47.675958
11
49.131253
21
47.675958
0
LINE
8
1
10
49.131253
20
47.675958
11
49.131253
21
49.231704
0
LINE
8
1
10
39.381555
20
49.358351
11
40.836760
21
49.358351
0
LINE
8
1
10
40.836760
20
49.358351
11
40.836760
21
47.802605
0
LINE
8
1
10
40.836760
20
47.802605
11
39.381555
21
47.802605
0
LINE
8
1
10
39.381555
20
47.802605
11
39.381555
21
49.358351
0
LINE
8
1
10
41.233634
20
49.358351
11
42.688839
21
49.358351
0
LINE
8
1
10
42.688839
20
49.358351
11
42.688839
21
47.802605
0
LINE
8
1
10
42.688839
20
47.802605
11
41.233634
21
47.802605
0
LINE
8
1
10
41.233634
20
47.802605
11
41.233634
21
49.358351
0
LINE
8
1
10
39.357919
20
46.449352
11
40.813124
21
46.449352
0
LINE
8
1
10
40.813124
20
46.449352
11
40.813124
21
44.893606
0
LINE
8
1
10
40.813124
20
44.893606
11
39.357919
21
44.893606
0
LINE
8
1
10
39.357919
20
44.893606
11
39.357919
21
46.449352
0
LINE
8
1
10
41.209998
20
46.449352
11
42.665203
21
46.449352
0
LINE
8
1
10
42.665203
20
46.449352
11
42.665203
21
44.893606
0
LINE
8
1
10
42.665203
20
44.893606
11
41.209998
21
44.893606
0
LINE
8
1
10
41.209998
20
44.893606
11
41.209998
21
46.449352
0
LINE
8
1
10
64.511272
20
21.353855
11
65.966477
21
21.353855
0
LINE
8
1
10
65.966477
20
21.353855
11
65.966477
21
19.798108
0
LINE
8
1
10
65.966477
20
19.798108
11
64.511272
21
19.798108
0
LINE
8
1
10
64.511272
20
19.798108
11
64.511272
21
21.353855
0
LINE
8
1
10
62.659192
20
21.353855
11
64.114398
21
21.353855
0
LINE
8
1
10
64.114398
20
21.353855
11
64.114398
21
19.798108
0
LINE
8
1
10
64.114398
20
19.798108
11
62.659192
21
19.798108
0
LINE
8
1
10
62.659192
20
19.798108
11
62.659192
21
21.353855
0
LINE
8
1
10
49.487910
20
21.353855
11
50.943115
21
21.353855
0
LINE
8
1
10
50.943115
20
21.353855
11
50.943115
21
19.798108
0
LINE
8
1
10
50.943115
20
19.798108
11
49.487910
21
19.798108
0
LINE
8
1
10
49.487910
20
19.798108
11
49.487910
21
21.353855
0
LINE
8
1
10
47.637242
20
21.353855
11
49.092447
21
21.353855
0
LINE
8
1
10
49.092447
20
21.353855
11
49.092447
21
19.798108
0
LINE
8
1
10
49.092447
20
19.798108
11
47.637242
21
19.798108
0
LINE
8
1
10
47.637242
20
19.798108
11
47.637242
21
21.353855
0
LINE
8
1
10
34.501943
20
21.353855
11
35.957149
21
21.353855
0
LINE
8
1
10
35.957149
20
21.353855
11
35.957149
21
19.798108
0
LINE
8
1
10
35.957149
20
19.798108
11
34.501943
21
19.798108
0
LINE
8
1
10
34.501943
20
19.798108
11
34.501943
21
21.353855
0
LINE
8
1
10
32.651275
20
21.353855
11
34.106480
21
21.353855
0
LINE
8
1
10
34.106480
20
21.353855
11
34.106480
21
19.798108
0
LINE
8
1
10
34.106480
20
19.798108
11
32.651275
21
19.798108
0
LINE
8
1
10
32.651275
20
19.798108
11
32.651275
21
21.353855
0
LINE
8
1
10
28.062352
20
56.977629
11
29.517557
21
56.977629
0
LINE
8
1
10
29.517557
20
56.977629
11
29.517557
21
55.421882
0
LINE
8
1
10
29.517557
20
55.421882
11
28.062352
21
55.421882
0
LINE
8
1
10
28.062352
20
55.421882
11
28.062352
21
56.977629
0
LINE
8
1
10
26.210273
20
56.977629
11
27.665478
21
56.977629
0
LINE
8
1
10
27.665478
20
56.977629
11
27.665478
21
55.421882
0
LINE
8
1
10
27.665478
20
55.421882
11
26.210273
21
55.421882
0
LINE
8
1
10
26.210273
20
55.421882
11
26.210273
21
56.977629
0
LINE
8
1
10
26.401831
20
49.231704
11
27.857036
21
49.231704
0
LINE
8
1
10
27.857036
20
49.231704
11
27.857036
21
47.675958
0
LINE
8
1
10
27.857036
20
47.675958
11
26.401831
21
47.675958
0
LINE
8
1
10
26.401831
20
47.675958
11
26.401831
21
49.231704
0
LINE
8
1
10
28.252499
20
49.231704
11
29.707704
21
49.231704
0
LINE
8
1
10
29.707704
20
49.231704
11
29.707704
21
47.675958
0
LINE
8
1
10
29.707704
20
47.675958
11
28.252499
21
47.675958
0
LINE
8
1
10
28.252499
20
47.675958
11
28.252499
21
49.231704
0
LINE
8
1
10
18.406493
20
46.395730
11
19.861698
21
46.395730
0
LINE
8
1
10
19.861698
20
46.395730
11
19.861698
21
44.839983
0
LINE
8
1
10
19.861698
20
44.839983
11
18.406493
21
44.839983
0
LINE
8
1
10
18.406493
20
44.839983
11
18.406493
21
46.395730
0
LINE
8
1
10
20.258572
20
46.395730
11
21.713777
21
46.395730
0
LINE
8
1
10
21.713777
20
46.395730
11
21.713777
21
44.839983
0
LINE
8
1
10
21.713777
20
44.839983
11
20.258572
21
44.839983
0
LINE
8
1
10
20.258572
20
44.839983
11
20.258572
21
46.395730
0
LINE
8
1
10
18.443534
20
49.321310
11
19.898739
21
49.321310
0
LINE
8
1
10
19.898739
20
49.321310
11
19.898739
21
47.765563
0
LINE
8
1
10
19.898739
20
47.765563
11
18.443534
21
47.765563
0
LINE
8
1
10
18.443534
20
47.765563
11
18.443534
21
49.321310
0
LINE
8
1
10
20.294202
20
49.321310
11
21.749408
21
49.321310
0
LINE
8
1
10
21.749408
20
49.321310
11
21.749408
21
47.765563
0
LINE
8
1
10
21.749408
20
47.765563
11
20.294202
21
47.765563
0
LINE
8
1
10
20.294202
20
47.765563
11
20.294202
21
49.321310
0
LINE
8
1
10
19.712826
20
65.335269
11
21.169442
21
65.335269
0
LINE
8
1
10
21.169442
20
65.335269
11
21.169442
21
64.081147
0
LINE
8
1
10
21.169442
20
64.081147
11
19.712826
21
64.081147
0
LINE
8
1
10
19.712826
20
64.081147
11
19.712826
21
65.335269
0
LINE
8
1
10
19.712826
20
66.987676
11
21.169442
21
66.987676
0
LINE
8
1
10
21.169442
20
66.987676
11
21.169442
21
65.733554
0
LINE
8
1
10
21.169442
20
65.733554
11
19.712826
21
65.733554
0
LINE
8
1
10
19.712826
20
65.733554
11
19.712826
21
66.987676
0
LINE
8
1
10
19.766448
20
62.426270
11
21.322195
21
62.426270
0
LINE
8
1
10
21.322195
20
62.426270
11
21.322195
21
60.971065
0
LINE
8
1
10
21.322195
20
60.971065
11
19.766448
21
60.971065
0
LINE
8
1
10
19.766448
20
60.971065
11
19.766448
21
62.426270
0
LINE
8
1
10
19.766448
20
60.574190
11
21.322195
21
60.574190
0
LINE
8
1
10
21.322195
20
60.574190
11
21.322195
21
59.118985
0
LINE
8
1
10
21.322195
20
59.118985
11
19.766448
21
59.118985
0
LINE
8
1
10
19.766448
20
59.118985
11
19.766448
21
60.574190
0
LINE
8
1
10
51.888558
20
55.187638
11
53.444304
21
55.187638
0
LINE
8
1
10
53.444304
20
55.187638
11
53.444304
21
53.732433
0
LINE
8
1
10
53.444304
20
53.732433
11
51.888558
21
53.732433
0
LINE
8
1
10
51.888558
20
53.732433
11
51.888558
21
55.187638
0
LINE
8
1
10
51.888558
20
53.335559
11
53.444304
21
53.335559
0
LINE
8
1
10
53.444304
20
53.335559
11
53.444304
21
51.880354
0
LINE
8
1
10
53.444304
20
51.880354
11
51.888558
21
51.880354
0
LINE
8
1
10
51.888558
20
51.880354
11
51.888558
21
53.335559
0
LINE
8
1
10
30.971351
20
55.187638
11
32.527098
21
55.187638
0
LINE
8
1
10
32.527098
20
55.187638
11
32.527098
21
53.732433
0
LINE
8
1
10
32.527098
20
53.732433
11
30.971351
21
53.732433
0
LINE
8
1
10
30.971351
20
53.732433
11
30.971351
21
55.187638
0
LINE
8
1
10
30.971351
20
53.335559
11
32.527098
21
53.335559
0
LINE
8
1
10
32.527098
20
53.335559
11
32.527098
21
51.880354
0
LINE
8
1
10
32.527098
20
51.880354
11
30.971351
21
51.880354
0
LINE
8
1
10
30.971351
20
51.880354
11
30.971351
21
53.335559
0
LINE
8
1
10
72.844217
20
55.187638
11
74.399964
21
55.187638
0
LINE
8
1
10
74.399964
20
55.187638
11
74.399964
21
53.732433
0
LINE
8
1
10
74.399964
20
53.732433
11
72.844217
21
53.732433
0
LINE
8
1
10
72.844217
20
53.732433
11
72.844217
21
55.187638
0
LINE
8
1
10
72.844217
20
53.335559
11
74.399964
21
53.335559
0
LINE
8
1
10
74.399964
20
53.335559
11
74.399964
21
51.880354
0
LINE
8
1
10
74.399964
20
51.880354
11
72.844217
21
51.880354
0
LINE
8
1
10
72.844217
20
51.880354
11
72.844217
21
53.335559
0
LINE
8
1
10
8.973941
20
50.604007
11
9.595534
21
50.604007
0
LINE
8
1
10
9.595534
20
50.604007
11
9.595534
21
48.130334
0
LINE
8
1
10
9.595534
20
48.130334
11
8.973941
21
48.130334
0
LINE
8
1
10
8.973941
20
48.130334
11
8.973941
21
50.604007
0
LINE
8
1
10
10.285566
20
50.292857
11
10.907159
21
50.292857
0
LINE
8
1
10
10.907159
20
50.292857
11
10.907159
21
48.440778
0
LINE
8
1
10
10.907159
20
48.440778
11
10.285566
21
48.440778
0
LINE
8
1
10
10.285566
20
48.440778
11
10.285566
21
50.292857
0
LINE
8
1
10
10.865884
20
50.292857
11
10.768760
21
50.526021
0
LINE
8
1
10
10.768760
20
50.526021
11
10.555088
21
50.603742
0
LINE
8
1
10
10.555088
20
50.603742
11
10.341415
21
50.526021
0
LINE
8
1
10
10.341415
20
50.526021
11
10.244291
21
50.292857
0
LINE
8
1
10
10.244291
20
50.292857
11
10.341415
21
50.059496
0
LINE
8
1
10
10.341415
20
50.059496
11
10.555088
21
49.981708
0
LINE
8
1
10
10.555088
20
49.981708
11
10.768760
21
50.059496
0
LINE
8
1
10
10.768760
20
50.059496
11
10.865884
21
50.292857
0
LINE
8
1
10
10.865884
20
48.440778
11
10.768760
21
48.673942
0
LINE
8
1
10
10.768760
20
48.673942
11
10.555088
21
48.751663
0
LINE
8
1
10
10.555088
20
48.751663
11
10.341415
21
48.673942
0
LINE
8
1
10
10.341415
20
48.673942
11
10.244291
21
48.440778
0
LINE
8
1
10
10.244291
20
48.440778
11
10.341415
21
48.208210
0
LINE
8
1
10
10.341415
20
48.208210
11
10.555088
21
48.130687
0
LINE
8
1
10
10.555088
20
48.130687
11
10.768760
21
48.208210
0
LINE
8
1
10
10.768760
20
48.208210
11
10.865884
21
48.440778
0
LINE
8
1
10
10.865884
20
48.440778
11
10.768760
21
48.673942
0
LINE
8
1
10
10.768760
20
48.673942
11
10.555088
21
48.751663
0
LINE
8
1
10
10.555088
20
48.751663
11
10.341415
21
48.673942
0
LINE
8
1
10
10.341415
20
48.673942
11
10.244291
21
48.440778
0
LINE
8
1
10
10.244291
20
48.440778
11
10.341415
21
48.208210
0
LINE
8
1
10
10.341415
20
48.208210
11
10.555088
21
48.130687
0
LINE
8
1
10
10.555088
20
48.130687
11
10.768760
21
48.208210
0
LINE
8
1
10
10.768760
20
48.208210
11
10.865884
21
48.440778
0
LINE
8
1
10
10.865884
20
50.292857
11
10.768760
21
50.526021
0
LINE
8
1
10
10.768760
20
50.526021
11
10.555088
21
50.603742
0
LINE
8
1
10
10.555088
20
50.603742
11
10.341415
21
50.526021
0
LINE
8
1
10
10.341415
20
50.526021
11
10.244291
21
50.292857
0
LINE
8
1
10
10.244291
20
50.292857
11
10.341415
21
50.059496
0
LINE
8
1
10
10.341415
20
50.059496
11
10.555088
21
49.981708
0
LINE
8
1
10
10.555088
20
49.981708
11
10.768760
21
50.059496
0
LINE
8
1
10
10.768760
20
50.059496
11
10.865884
21
50.292857
0
LINE
8
1
10
11.556269
20
50.292857
11
12.177862
21
50.292857
0
LINE
8
1
10
12.177862
20
50.292857
11
12.177862
21
48.440778
0
LINE
8
1
10
12.177862
20
48.440778
11
11.556269
21
48.440778
0
LINE
8
1
10
11.556269
20
48.440778
11
11.556269
21
50.292857
0
LINE
8
1
10
12.136234
20
50.292857
11
12.038945
21
50.526021
0
LINE
8
1
10
12.038945
20
50.526021
11
11.824909
21
50.603742
0
LINE
8
1
10
11.824909
20
50.603742
11
11.610872
21
50.526021
0
LINE
8
1
10
11.610872
20
50.526021
11
11.513583
21
50.292857
0
LINE
8
1
10
11.513583
20
50.292857
11
11.610872
21
50.059496
0
LINE
8
1
10
11.610872
20
50.059496
11
11.824909
21
49.981708
0
LINE
8
1
10
11.824909
20
49.981708
11
12.038945
21
50.059496
0
LINE
8
1
10
12.038945
20
50.059496
11
12.136234
21
50.292857
0
LINE
8
1
10
12.136234
20
48.440778
11
12.038945
21
48.673942
0
LINE
8
1
10
12.038945
20
48.673942
11
11.824909
21
48.751663
0
LINE
8
1
10
11.824909
20
48.751663
11
11.610872
21
48.673942
0
LINE
8
1
10
11.610872
20
48.673942
11
11.513583
21
48.440778
0
LINE
8
1
10
11.513583
20
48.440778
11
11.610872
21
48.208210
0
LINE
8
1
10
11.610872
20
48.208210
11
11.824909
21
48.130687
0
LINE
8
1
10
11.824909
20
48.130687
11
12.038945
21
48.208210
0
LINE
8
1
10
12.038945
20
48.208210
11
12.136234
21
48.440778
0
LINE
8
1
10
12.136234
20
48.440778
11
12.038945
21
48.673942
0
LINE
8
1
10
12.038945
20
48.673942
11
11.824909
21
48.751663
0
LINE
8
1
10
11.824909
20
48.751663
11
11.610872
21
48.673942
0
LINE
8
1
10
11.610872
20
48.673942
11
11.513583
21
48.440778
0
LINE
8
1
10
11.513583
20
48.440778
11
11.610872
21
48.208210
0
LINE
8
1
10
11.610872
20
48.208210
11
11.824909
21
48.130687
0
LINE
8
1
10
11.824909
20
48.130687
11
12.038945
21
48.208210
0
LINE
8
1
10
12.038945
20
48.208210
11
12.136234
21
48.440778
0
LINE
8
1
10
12.136234
20
50.292857
11
12.038945
21
50.526021
0
LINE
8
1
10
12.038945
20
50.526021
11
11.824909
21
50.603742
0
LINE
8
1
10
11.824909
20
50.603742
11
11.610872
21
50.526021
0
LINE
8
1
10
11.610872
20
50.526021
11
11.513583
21
50.292857
0
LINE
8
1
10
11.513583
20
50.292857
11
11.610872
21
50.059496
0
LINE
8
1
10
11.610872
20
50.059496
11
11.824909
21
49.981708
0
LINE
8
1
10
11.824909
20
49.981708
11
12.038945
21
50.059496
0
LINE
8
1
10
12.038945
20
50.059496
11
12.136234
21
50.292857
0
LINE
8
1
10
12.826619
20
50.292857
11
13.448212
21
50.292857
0
LINE
8
1
10
13.448212
20
50.292857
11
13.448212
21
48.440778
0
LINE
8
1
10
13.448212
20
48.440778
11
12.826619
21
48.440778
0
LINE
8
1
10
12.826619
20
48.440778
11
12.826619
21
50.292857
0
LINE
8
1
10
13.405526
20
50.292857
11
13.308402
21
50.526021
0
LINE
8
1
10
13.308402
20
50.526021
11
13.094729
21
50.603742
0
LINE
8
1
10
13.094729
20
50.603742
11
12.881057
21
50.526021
0
LINE
8
1
10
12.881057
20
50.526021
11
12.783933
21
50.292857
0
LINE
8
1
10
12.783933
20
50.292857
11
12.881057
21
50.059496
0
LINE
8
1
10
12.881057
20
50.059496
11
13.094729
21
49.981708
0
LINE
8
1
10
13.094729
20
49.981708
11
13.308402
21
50.059496
0
LINE
8
1
10
13.308402
20
50.059496
11
13.405526
21
50.292857
0
LINE
8
1
10
13.405526
20
48.440778
11
13.308402
21
48.673942
0
LINE
8
1
10
13.308402
20
48.673942
11
13.094729
21
48.751663
0
LINE
8
1
10
13.094729
20
48.751663
11
12.881057
21
48.673942
0
LINE
8
1
10
12.881057
20
48.673942
11
12.783933
21
48.440778
0
LINE
8
1
10
12.783933
20
48.440778
11
12.881057
21
48.208210
0
LINE
8
1
10
12.881057
20
48.208210
11
13.094729
21
48.130687
0
LINE
8
1
10
13.094729
20
48.130687
11
13.308402
21
48.208210
0
LINE
8
1
10
13.308402
20
48.208210
11
13.405526
21
48.440778
0
LINE
8
1
10
13.405526
20
48.440778
11
13.308402
21
48.673942
0
LINE
8
1
10
13.308402
20
48.673942
11
13.094729
21
48.751663
0
LINE
8
1
10
13.094729
20
48.751663
11
12.881057
21
48.673942
0
LINE
8
1
10
12.881057
20
48.673942
11
12.783933
21
48.440778
0
LINE
8
1
10
12.783933
20
48.440778
11
12.881057
21
48.208210
0
LINE
8
1
10
12.881057
20
48.208210
11
13.094729
21
48.130687
0
LINE
8
1
10
13.094729
20
48.130687
11
13.308402
21
48.208210
0
LINE
8
1
10
13.308402
20
48.208210
11
13.405526
21
48.440778
0
LINE
8
1
10
13.405526
20
50.292857
11
13.308402
21
50.526021
0
LINE
8
1
10
13.308402
20
50.526021
11
13.094729
21
50.603742
0
LINE
8
1
10
13.094729
20
50.603742
11
12.881057
21
50.526021
0
LINE
8
1
10
12.881057
20
50.526021
11
12.783933
21
50.292857
0
LINE
8
1
10
12.783933
20
50.292857
11
12.881057
21
50.059496
0
LINE
8
1
10
12.881057
20
50.059496
11
13.094729
21
49.981708
0
LINE
8
1
10
13.094729
20
49.981708
11
13.308402
21
50.059496
0
LINE
8
1
10
13.308402
20
50.059496
11
13.405526
21
50.292857
0
LINE
8
1
10
12.826619
20
55.125550
11
13.448212
21
55.125550
0
LINE
8
1
10
13.448212
20
55.125550
11
13.448212
21
53.273470
0
LINE
8
1
10
13.448212
20
53.273470
11
12.826619
21
53.273470
0
LINE
8
1
10
12.826619
20
53.273470
11
12.826619
21
55.125550
0
LINE
8
1
10
13.405526
20
55.125550
11
13.308402
21
55.358912
0
LINE
8
1
10
13.308402
20
55.358912
11
13.094729
21
55.436699
0
LINE
8
1
10
13.094729
20
55.436699
11
12.881057
21
55.358912
0
LINE
8
1
10
12.881057
20
55.358912
11
12.783933
21
55.125550
0
LINE
8
1
10
12.783933
20
55.125550
11
12.881057
21
54.892188
0
LINE
8
1
10
12.881057
20
54.892188
11
13.094729
21
54.814400
0
LINE
8
1
10
13.094729
20
54.814400
11
13.308402
21
54.892188
0
LINE
8
1
10
13.308402
20
54.892188
11
13.405526
21
55.125550
0
LINE
8
1
10
13.405526
20
53.273470
11
13.308402
21
53.506832
0
LINE
8
1
10
13.308402
20
53.506832
11
13.094729
21
53.584620
0
LINE
8
1
10
13.094729
20
53.584620
11
12.881057
21
53.506832
0
LINE
8
1
10
12.881057
20
53.506832
11
12.783933
21
53.273470
0
LINE
8
1
10
12.783933
20
53.273470
11
12.881057
21
53.040108
0
LINE
8
1
10
12.881057
20
53.040108
11
13.094729
21
52.962321
0
LINE
8
1
10
13.094729
20
52.962321
11
13.308402
21
53.040108
0
LINE
8
1
10
13.308402
20
53.040108
11
13.405526
21
53.273470
0
LINE
8
1
10
13.405526
20
53.273470
11
13.308402
21
53.506832
0
LINE
8
1
10
13.308402
20
53.506832
11
13.094729
21
53.584620
0
LINE
8
1
10
13.094729
20
53.584620
11
12.881057
21
53.506832
0
LINE
8
1
10
12.881057
20
53.506832
11
12.783933
21
53.273470
0
LINE
8
1
10
12.783933
20
53.273470
11
12.881057
21
53.040108
0
LINE
8
1
10
12.881057
20
53.040108
11
13.094729
21
52.962321
0
LINE
8
1
10
13.094729
20
52.962321
11
13.308402
21
53.040108
0
LINE
8
1
10
13.308402
20
53.040108
11
13.405526
21
53.273470
0
LINE
8
1
10
13.405526
20
55.125550
11
13.308402
21
55.358912
0
LINE
8
1
10
13.308402
20
55.358912
11
13.094729
21
55.436699
0
LINE
8
1
10
13.094729
20
55.436699
11
12.881057
21
55.358912
0
LINE
8
1
10
12.881057
20
55.358912
11
12.783933
21
55.125550
0
LINE
8
1
10
12.783933
20
55.125550
11
12.881057
21
54.892188
0
LINE
8
1
10
12.881057
20
54.892188
11
13.094729
21
54.814400
0
LINE
8
1
10
13.094729
20
54.814400
11
13.308402
21
54.892188
0
LINE
8
1
10
13.308402
20
54.892188
11
13.405526
21
55.125550
0
LINE
8
1
10
11.556269
20
55.125550
11
12.177862
21
55.125550
0
LINE
8
1
10
12.177862
20
55.125550
11
12.177862
21
53.273470
0
LINE
8
1
10
12.177862
20
53.273470
11
11.556269
21
53.273470
0
LINE
8
1
10
11.556269
20
53.273470
11
11.556269
21
55.125550
0
LINE
8
1
10
12.136234
20
55.125550
11
12.038945
21
55.358912
0
LINE
8
1
10
12.038945
20
55.358912
11
11.824909
21
55.436699
0
LINE
8
1
10
11.824909
20
55.436699
11
11.610872
21
55.358912
0
LINE
8
1
10
11.610872
20
55.358912
11
11.513583
21
55.125550
0
LINE
8
1
10
11.513583
20
55.125550
11
11.610872
21
54.892188
0
LINE
8
1
10
11.610872
20
54.892188
11
11.824909
21
54.814400
0
LINE
8
1
10
11.824909
20
54.814400
11
12.038945
21
54.892188
0
LINE
8
1
10
12.038945
20
54.892188
11
12.136234
21
55.125550
0
LINE
8
1
10
12.136234
20
53.273470
11
12.038945
21
53.506832
0
LINE
8
1
10
12.038945
20
53.506832
11
11.824909
21
53.584620
0
LINE
8
1
10
11.824909
20
53.584620
11
11.610872
21
53.506832
0
LINE
8
1
10
11.610872
20
53.506832
11
11.513583
21
53.273470
0
LINE
8
1
10
11.513583
20
53.273470
11
11.610872
21
53.040108
0
LINE
8
1
10
11.610872
20
53.040108
11
11.824909
21
52.962321
0
LINE
8
1
10
11.824909
20
52.962321
11
12.038945
21
53.040108
0
LINE
8
1
10
12.038945
20
53.040108
11
12.136234
21
53.273470
0
LINE
8
1
10
12.136234
20
53.273470
11
12.038945
21
53.506832
0
LINE
8
1
10
12.038945
20
53.506832
11
11.824909
21
53.584620
0
LINE
8
1
10
11.824909
20
53.584620
11
11.610872
21
53.506832
0
LINE
8
1
10
11.610872
20
53.506832
11
11.513583
21
53.273470
0
LINE
8
1
10
11.513583
20
53.273470
11
11.610872
21
53.040108
0
LINE
8
1
10
11.610872
20
53.040108
11
11.824909
21
52.962321
0
LINE
8
1
10
11.824909
20
52.962321
11
12.038945
21
53.040108
0
LINE
8
1
10
12.038945
20
53.040108
11
12.136234
21
53.273470
0
LINE
8
1
10
12.136234
20
55.125550
11
12.038945
21
55.358912
0
LINE
8
1
10
12.038945
20
55.358912
11
11.824909
21
55.436699
0
LINE
8
1
10
11.824909
20
55.436699
11
11.610872
21
55.358912
0
LINE
8
1
10
11.610872
20
55.358912
11
11.513583
21
55.125550
0
LINE
8
1
10
11.513583
20
55.125550
11
11.610872
21
54.892188
0
LINE
8
1
10
11.610872
20
54.892188
11
11.824909
21
54.814400
0
LINE
8
1
10
11.824909
20
54.814400
11
12.038945
21
54.892188
0
LINE
8
1
10
12.038945
20
54.892188
11
12.136234
21
55.125550
0
LINE
8
1
10
10.285566
20
55.125550
11
10.907159
21
55.125550
0
LINE
8
1
10
10.907159
20
55.125550
11
10.907159
21
53.273470
0
LINE
8
1
10
10.907159
20
53.273470
11
10.285566
21
53.273470
0
LINE
8
1
10
10.285566
20
53.273470
11
10.285566
21
55.125550
0
LINE
8
1
10
10.865884
20
55.125550
11
10.768760
21
55.358912
0
LINE
8
1
10
10.768760
20
55.358912
11
10.555088
21
55.436699
0
LINE
8
1
10
10.555088
20
55.436699
11
10.341415
21
55.358912
0
LINE
8
1
10
10.341415
20
55.358912
11
10.244291
21
55.125550
0
LINE
8
1
10
10.244291
20
55.125550
11
10.341415
21
54.892188
0
LINE
8
1
10
10.341415
20
54.892188
11
10.555088
21
54.814400
0
LINE
8
1
10
10.555088
20
54.814400
11
10.768760
21
54.892188
0
LINE
8
1
10
10.768760
20
54.892188
11
10.865884
21
55.125550
0
LINE
8
1
10
10.865884
20
53.273470
11
10.768760
21
53.506832
0
LINE
8
1
10
10.768760
20
53.506832
11
10.555088
21
53.584620
0
LINE
8
1
10
10.555088
20
53.584620
11
10.341415
21
53.506832
0
LINE
8
1
10
10.341415
20
53.506832
11
10.244291
21
53.273470
0
LINE
8
1
10
10.244291
20
53.273470
11
10.341415
21
53.040108
0
LINE
8
1
10
10.341415
20
53.040108
11
10.555088
21
52.962321
0
LINE
8
1
10
10.555088
20
52.962321
11
10.768760
21
53.040108
0
LINE
8
1
10
10.768760
20
53.040108
11
10.865884
21
53.273470
0
LINE
8
1
10
10.865884
20
53.273470
11
10.768760
21
53.506832
0
LINE
8
1
10
10.768760
20
53.506832
11
10.555088
21
53.584620
0
LINE
8
1
10
10.555088
20
53.584620
11
10.341415
21
53.506832
0
LINE
8
1
10
10.341415
20
53.506832
11
10.244291
21
53.273470
0
LINE
8
1
10
10.244291
20
53.273470
11
10.341415
21
53.040108
0
LINE
8
1
10
10.341415
20
53.040108
11
10.555088
21
52.962321
0
LINE
8
1
10
10.555088
20
52.962321
11
10.768760
21
53.040108
0
LINE
8
1
10
10.768760
20
53.040108
11
10.865884
21
53.273470
0
LINE
8
1
10
10.865884
20
55.125550
11
10.768760
21
55.358912
0
LINE
8
1
10
10.768760
20
55.358912
11
10.555088
21
55.436699
0
LINE
8
1
10
10.555088
20
55.436699
11
10.341415
21
55.358912
0
LINE
8
1
10
10.341415
20
55.358912
11
10.244291
21
55.125550
0
LINE
8
1
10
10.244291
20
55.125550
11
10.341415
21
54.892188
0
LINE
8
1
10
10.341415
20
54.892188
11
10.555088
21
54.814400
0
LINE
8
1
10
10.555088
20
54.814400
11
10.768760
21
54.892188
0
LINE
8
1
10
10.768760
20
54.892188
11
10.865884
21
55.125550
0
LINE
8
1
10
9.016627
20
55.125550
11
9.638220
21
55.125550
0
LINE
8
1
10
9.638220
20
55.125550
11
9.638220
21
53.273470
0
LINE
8
1
10
9.638220
20
53.273470
11
9.016627
21
53.273470
0
LINE
8
1
10
9.016627
20
53.273470
11
9.016627
21
55.125550
0
LINE
8
1
10
9.596593
20
55.125550
11
9.499303
21
55.358912
0
LINE
8
1
10
9.499303
20
55.358912
11
9.285267
21
55.436699
0
LINE
8
1
10
9.285267
20
55.436699
11
9.071231
21
55.358912
0
LINE
8
1
10
9.071231
20
55.358912
11
8.973941
21
55.125550
0
LINE
8
1
10
8.973941
20
55.125550
11
9.071231
21
54.892188
0
LINE
8
1
10
9.071231
20
54.892188
11
9.285267
21
54.814400
0
LINE
8
1
10
9.285267
20
54.814400
11
9.499303
21
54.892188
0
LINE
8
1
10
9.499303
20
54.892188
11
9.596593
21
55.125550
0
LINE
8
1
10
9.596593
20
53.273470
11
9.499303
21
53.506832
0
LINE
8
1
10
9.499303
20
53.506832
11
9.285267
21
53.584620
0
LINE
8
1
10
9.285267
20
53.584620
11
9.071231
21
53.506832
0
LINE
8
1
10
9.071231
20
53.506832
11
8.973941
21
53.273470
0
LINE
8
1
10
8.973941
20
53.273470
11
9.071231
21
53.040108
0
LINE
8
1
10
9.071231
20
53.040108
11
9.285267
21
52.962321
0
LINE
8
1
10
9.285267
20
52.962321
11
9.499303
21
53.040108
0
LINE
8
1
10
9.499303
20
53.040108
11
9.596593
21
53.273470
0
LINE
8
1
10
9.596593
20
53.273470
11
9.499303
21
53.506832
0
LINE
8
1
10
9.499303
20
53.506832
11
9.285267
21
53.584620
0
LINE
8
1
10
9.285267
20
53.584620
11
9.071231
21
53.506832
0
LINE
8
1
10
9.071231
20
53.506832
11
8.973941
21
53.273470
0
LINE
8
1
10
8.973941
20
53.273470
11
9.071231
21
53.040108
0
LINE
8
1
10
9.071231
20
53.040108
11
9.285267
21
52.962321
0
LINE
8
1
10
9.285267
20
52.962321
11
9.499303
21
53.040108
0
LINE
8
1
10
9.499303
20
53.040108
11
9.596593
21
53.273470
0
LINE
8
1
10
9.596593
20
55.125550
11
9.499303
21
55.358912
0
LINE
8
1
10
9.499303
20
55.358912
11
9.285267
21
55.436699
0
LINE
8
1
10
9.285267
20
55.436699
11
9.071231
21
55.358912
0
LINE
8
1
10
9.071231
20
55.358912
11
8.973941
21
55.125550
0
LINE
8
1
10
8.973941
20
55.125550
11
9.071231
21
54.892188
0
LINE
8
1
10
9.071231
20
54.892188
11
9.285267
21
54.814400
0
LINE
8
1
10
9.285267
20
54.814400
11
9.499303
21
54.892188
0
LINE
8
1
10
9.499303
20
54.892188
11
9.596593
21
55.125550
0
LINE
8
1
10
11.133289
20
58.246568
11
12.387412
21
58.246568
0
LINE
8
1
10
12.387412
20
58.246568
11
12.387412
21
56.789952
0
LINE
8
1
10
12.387412
20
56.789952
11
11.133289
21
56.789952
0
LINE
8
1
10
11.133289
20
56.789952
11
11.133289
21
58.246568
0
LINE
8
1
10
12.785344
20
58.246568
11
14.039466
21
58.246568
0
LINE
8
1
10
14.039466
20
58.246568
11
14.039466
21
56.789952
0
LINE
8
1
10
14.039466
20
56.789952
11
12.785344
21
56.789952
0
LINE
8
1
10
12.785344
20
56.789952
11
12.785344
21
58.246568
0
LINE
8
1
10
27.355387
20
62.479892
11
29.829059
21
62.479892
0
LINE
8
1
10
29.829059
20
62.479892
11
29.829059
21
61.858299
0
LINE
8
1
10
29.829059
20
61.858299
11
27.355387
21
61.858299
0
LINE
8
1
10
27.355387
20
61.858299
11
27.355387
21
62.479892
0
LINE
8
1
10
27.665478
20
63.791869
11
29.517557
21
63.791869
0
LINE
8
1
10
29.517557
20
63.791869
11
29.517557
21
63.170276
0
LINE
8
1
10
29.517557
20
63.170276
11
27.665478
21
63.170276
0
LINE
8
1
10
27.665478
20
63.170276
11
27.665478
21
63.791869
0
LINE
8
1
10
27.976980
20
63.439092
11
27.879856
21
63.672454
0
LINE
8
1
10
27.879856
20
63.672454
11
27.666183
21
63.750242
0
LINE
8
1
10
27.666183
20
63.750242
11
27.452511
21
63.672454
0
LINE
8
1
10
27.452511
20
63.672454
11
27.355387
21
63.439092
0
LINE
8
1
10
27.355387
20
63.439092
11
27.452511
21
63.205730
0
LINE
8
1
10
27.452511
20
63.205730
11
27.666183
21
63.127943
0
LINE
8
1
10
27.666183
20
63.127943
11
27.879856
21
63.205730
0
LINE
8
1
10
27.879856
20
63.205730
11
27.976980
21
63.439092
0
LINE
8
1
10
29.829059
20
63.439092
11
29.731935
21
63.672454
0
LINE
8
1
10
29.731935
20
63.672454
11
29.518263
21
63.750242
0
LINE
8
1
10
29.518263
20
63.750242
11
29.304590
21
63.672454
0
LINE
8
1
10
29.304590
20
63.672454
11
29.207466
21
63.439092
0
LINE
8
1
10
29.207466
20
63.439092
11
29.304590
21
63.205730
0
LINE
8
1
10
29.304590
20
63.205730
11
29.518263
21
63.127943
0
LINE
8
1
10
29.518263
20
63.127943
11
29.731935
21
63.205730
0
LINE
8
1
10
29.731935
20
63.205730
11
29.829059
21
63.439092
0
LINE
8
1
10
29.829059
20
63.439092
11
29.731935
21
63.672454
0
LINE
8
1
10
29.731935
20
63.672454
11
29.518263
21
63.750242
0
LINE
8
1
10
29.518263
20
63.750242
11
29.304590
21
63.672454
0
LINE
8
1
10
29.304590
20
63.672454
11
29.207466
21
63.439092
0
LINE
8
1
10
29.207466
20
63.439092
11
29.304590
21
63.205730
0
LINE
8
1
10
29.304590
20
63.205730
11
29.518263
21
63.127943
0
LINE
8
1
10
29.518263
20
63.127943
11
29.731935
21
63.205730
0
LINE
8
1
10
29.731935
20
63.205730
11
29.829059
21
63.439092
0
LINE
8
1
10
27.976980
20
63.439092
11
27.879856
21
63.672454
0
LINE
8
1
10
27.879856
20
63.672454
11
27.666183
21
63.750242
0
LINE
8
1
10
27.666183
20
63.750242
11
27.452511
21
63.672454
0
LINE
8
1
10
27.452511
20
63.672454
11
27.355387
21
63.439092
0
LINE
8
1
10
27.355387
20
63.439092
11
27.452511
21
63.205730
0
LINE
8
1
10
27.452511
20
63.205730
11
27.666183
21
63.127943
0
LINE
8
1
10
27.666183
20
63.127943
11
27.879856
21
63.205730
0
LINE
8
1
10
27.879856
20
63.205730
11
27.976980
21
63.439092
0
LINE
8
1
10
27.665478
20
65.062572
11
29.517557
21
65.062572
0
LINE
8
1
10
29.517557
20
65.062572
11
29.517557
21
64.440979
0
LINE
8
1
10
29.517557
20
64.440979
11
27.665478
21
64.440979
0
LINE
8
1
10
27.665478
20
64.440979
11
27.665478
21
65.062572
0
LINE
8
1
10
27.976980
20
64.709795
11
27.879856
21
64.942959
0
LINE
8
1
10
27.879856
20
64.942959
11
27.666183
21
65.020680
0
LINE
8
1
10
27.666183
20
65.020680
11
27.452511
21
64.942959
0
LINE
8
1
10
27.452511
20
64.942959
11
27.355387
21
64.709795
0
LINE
8
1
10
27.355387
20
64.709795
11
27.452511
21
64.476433
0
LINE
8
1
10
27.452511
20
64.476433
11
27.666183
21
64.398646
0
LINE
8
1
10
27.666183
20
64.398646
11
27.879856
21
64.476433
0
LINE
8
1
10
27.879856
20
64.476433
11
27.976980
21
64.709795
0
LINE
8
1
10
29.829059
20
64.709795
11
29.731935
21
64.942959
0
LINE
8
1
10
29.731935
20
64.942959
11
29.518263
21
65.020680
0
LINE
8
1
10
29.518263
20
65.020680
11
29.304590
21
64.942959
0
LINE
8
1
10
29.304590
20
64.942959
11
29.207466
21
64.709795
0
LINE
8
1
10
29.207466
20
64.709795
11
29.304590
21
64.476433
0
LINE
8
1
10
29.304590
20
64.476433
11
29.518263
21
64.398646
0
LINE
8
1
10
29.518263
20
64.398646
11
29.731935
21
64.476433
0
LINE
8
1
10
29.731935
20
64.476433
11
29.829059
21
64.709795
0
LINE
8
1
10
29.829059
20
64.709795
11
29.731935
21
64.942959
0
LINE
8
1
10
29.731935
20
64.942959
11
29.518263
21
65.020680
0
LINE
8
1
10
29.518263
20
65.020680
11
29.304590
21
64.942959
0
LINE
8
1
10
29.304590
20
64.942959
11
29.207466
21
64.709795
0
LINE
8
1
10
29.207466
20
64.709795
11
29.304590
21
64.476433
0
LINE
8
1
10
29.304590
20
64.476433
11
29.518263
21
64.398646
0
LINE
8
1
10
29.518263
20
64.398646
11
29.731935
21
64.476433
0
LINE
8
1
10
29.731935
20
64.476433
11
29.829059
21
64.709795
0
LINE
8
1
10
27.976980
20
64.709795
11
27.879856
21
64.942959
0
LINE
8
1
10
27.879856
20
64.942959
11
27.666183
21
65.020680
0
LINE
8
1
10
27.666183
20
65.020680
11
27.452511
21
64.942959
0
LINE
8
1
10
27.452511
20
64.942959
11
27.355387
21
64.709795
0
LINE
8
1
10
27.355387
20
64.709795
11
27.452511
21
64.476433
0
LINE
8
1
10
27.452511
20
64.476433
11
27.666183
21
64.398646
0
LINE
8
1
10
27.666183
20
64.398646
11
27.879856
21
64.476433
0
LINE
8
1
10
27.879856
20
64.476433
11
27.976980
21
64.709795
0
LINE
8
1
10
27.665478
20
66.331511
11
29.517557
21
66.331511
0
LINE
8
1
10
29.517557
20
66.331511
11
29.517557
21
65.709918
0
LINE
8
1
10
29.517557
20
65.709918
11
27.665478
21
65.709918
0
LINE
8
1
10
27.665478
20
65.709918
11
27.665478
21
66.331511
0
LINE
8
1
10
27.976980
20
65.978734
11
27.879856
21
66.212096
0
LINE
8
1
10
27.879856
20
66.212096
11
27.666183
21
66.289883
0
LINE
8
1
10
27.666183
20
66.289883
11
27.452511
21
66.212096
0
LINE
8
1
10
27.452511
20
66.212096
11
27.355387
21
65.978734
0
LINE
8
1
10
27.355387
20
65.978734
11
27.452511
21
65.745570
0
LINE
8
1
10
27.452511
20
65.745570
11
27.666183
21
65.667849
0
LINE
8
1
10
27.666183
20
65.667849
11
27.879856
21
65.745570
0
LINE
8
1
10
27.879856
20
65.745570
11
27.976980
21
65.978734
0
LINE
8
1
10
29.829059
20
65.978734
11
29.731935
21
66.212096
0
LINE
8
1
10
29.731935
20
66.212096
11
29.518263
21
66.289883
0
LINE
8
1
10
29.518263
20
66.289883
11
29.304590
21
66.212096
0
LINE
8
1
10
29.304590
20
66.212096
11
29.207466
21
65.978734
0
LINE
8
1
10
29.207466
20
65.978734
11
29.304590
21
65.745570
0
LINE
8
1
10
29.304590
20
65.745570
11
29.518263
21
65.667849
0
LINE
8
1
10
29.518263
20
65.667849
11
29.731935
21
65.745570
0
LINE
8
1
10
29.731935
20
65.745570
11
29.829059
21
65.978734
0
LINE
8
1
10
29.829059
20
65.978734
11
29.731935
21
66.212096
0
LINE
8
1
10
29.731935
20
66.212096
11
29.518263
21
66.289883
0
LINE
8
1
10
29.518263
20
66.289883
11
29.304590
21
66.212096
0
LINE
8
1
10
29.304590
20
66.212096
11
29.207466
21
65.978734
0
LINE
8
1
10
29.207466
20
65.978734
11
29.304590
21
65.745570
0
LINE
8
1
10
29.304590
20
65.745570
11
29.518263
21
65.667849
0
LINE
8
1
10
29.518263
20
65.667849
11
29.731935
21
65.745570
0
LINE
8
1
10
29.731935
20
65.745570
11
29.829059
21
65.978734
0
LINE
8
1
10
27.976980
20
65.978734
11
27.879856
21
66.212096
0
LINE
8
1
10
27.879856
20
66.212096
11
27.666183
21
66.289883
0
LINE
8
1
10
27.666183
20
66.289883
11
27.452511
21
66.212096
0
LINE
8
1
10
27.452511
20
66.212096
11
27.355387
21
65.978734
0
LINE
8
1
10
27.355387
20
65.978734
11
27.452511
21
65.745570
0
LINE
8
1
10
27.452511
20
65.745570
11
27.666183
21
65.667849
0
LINE
8
1
10
27.666183
20
65.667849
11
27.879856
21
65.745570
0
LINE
8
1
10
27.879856
20
65.745570
11
27.976980
21
65.978734
0
LINE
8
1
10
22.834197
20
66.331511
11
24.686276
21
66.331511
0
LINE
8
1
10
24.686276
20
66.331511
11
24.686276
21
65.709918
0
LINE
8
1
10
24.686276
20
65.709918
11
22.834197
21
65.709918
0
LINE
8
1
10
22.834197
20
65.709918
11
22.834197
21
66.331511
0
LINE
8
1
10
23.145346
20
65.978734
11
23.048057
21
66.212096
0
LINE
8
1
10
23.048057
20
66.212096
11
22.834020
21
66.289883
0
LINE
8
1
10
22.834020
20
66.289883
11
22.619984
21
66.212096
0
LINE
8
1
10
22.619984
20
66.212096
11
22.522695
21
65.978734
0
LINE
8
1
10
22.522695
20
65.978734
11
22.619984
21
65.745570
0
LINE
8
1
10
22.619984
20
65.745570
11
22.834020
21
65.667849
0
LINE
8
1
10
22.834020
20
65.667849
11
23.048057
21
65.745570
0
LINE
8
1
10
23.048057
20
65.745570
11
23.145346
21
65.978734
0
LINE
8
1
10
24.996014
20
65.978734
11
24.898946
21
66.212096
0
LINE
8
1
10
24.898946
20
66.212096
11
24.685394
21
66.289883
0
LINE
8
1
10
24.685394
20
66.289883
11
24.471843
21
66.212096
0
LINE
8
1
10
24.471843
20
66.212096
11
24.374774
21
65.978734
0
LINE
8
1
10
24.374774
20
65.978734
11
24.471843
21
65.745570
0
LINE
8
1
10
24.471843
20
65.745570
11
24.685394
21
65.667849
0
LINE
8
1
10
24.685394
20
65.667849
11
24.898946
21
65.745570
0
LINE
8
1
10
24.898946
20
65.745570
11
24.996014
21
65.978734
0
LINE
8
1
10
24.996014
20
65.978734
11
24.898946
21
66.212096
0
LINE
8
1
10
24.898946
20
66.212096
11
24.685394
21
66.289883
0
LINE
8
1
10
24.685394
20
66.289883
11
24.471843
21
66.212096
0
LINE
8
1
10
24.471843
20
66.212096
11
24.374774
21
65.978734
0
LINE
8
1
10
24.374774
20
65.978734
11
24.471843
21
65.745570
0
LINE
8
1
10
24.471843
20
65.745570
11
24.685394
21
65.667849
0
LINE
8
1
10
24.685394
20
65.667849
11
24.898946
21
65.745570
0
LINE
8
1
10
24.898946
20
65.745570
11
24.996014
21
65.978734
0
LINE
8
1
10
23.145346
20
65.978734
11
23.048057
21
66.212096
0
LINE
8
1
10
23.048057
20
66.212096
11
22.834020
21
66.289883
0
LINE
8
1
10
22.834020
20
66.289883
11
22.619984
21
66.212096
0
LINE
8
1
10
22.619984
20
66.212096
11
22.522695
21
65.978734
0
LINE
8
1
10
22.522695
20
65.978734
11
22.619984
21
65.745570
0
LINE
8
1
10
22.619984
20
65.745570
11
22.834020
21
65.667849
0
LINE
8
1
10
22.834020
20
65.667849
11
23.048057
21
65.745570
0
LINE
8
1
10
23.048057
20
65.745570
11
23.145346
21
65.978734
0
LINE
8
1
10
22.834197
20
65.062572
11
24.686276
21
65.062572
0
LINE
8
1
10
24.686276
20
65.062572
11
24.686276
21
64.440979
0
LINE
8
1
10
24.686276
20
64.440979
11
22.834197
21
64.440979
0
LINE
8
1
10
22.834197
20
64.440979
11
22.834197
21
65.062572
0
LINE
8
1
10
23.145346
20
64.709795
11
23.048057
21
64.942959
0
LINE
8
1
10
23.048057
20
64.942959
11
22.834020
21
65.020680
0
LINE
8
1
10
22.834020
20
65.020680
11
22.619984
21
64.942959
0
LINE
8
1
10
22.619984
20
64.942959
11
22.522695
21
64.709795
0
LINE
8
1
10
22.522695
20
64.709795
11
22.619984
21
64.476433
0
LINE
8
1
10
22.619984
20
64.476433
11
22.834020
21
64.398646
0
LINE
8
1
10
22.834020
20
64.398646
11
23.048057
21
64.476433
0
LINE
8
1
10
23.048057
20
64.476433
11
23.145346
21
64.709795
0
LINE
8
1
10
24.996014
20
64.709795
11
24.898946
21
64.942959
0
LINE
8
1
10
24.898946
20
64.942959
11
24.685394
21
65.020680
0
LINE
8
1
10
24.685394
20
65.020680
11
24.471843
21
64.942959
0
LINE
8
1
10
24.471843
20
64.942959
11
24.374774
21
64.709795
0
LINE
8
1
10
24.374774
20
64.709795
11
24.471843
21
64.476433
0
LINE
8
1
10
24.471843
20
64.476433
11
24.685394
21
64.398646
0
LINE
8
1
10
24.685394
20
64.398646
11
24.898946
21
64.476433
0
LINE
8
1
10
24.898946
20
64.476433
11
24.996014
21
64.709795
0
LINE
8
1
10
24.996014
20
64.709795
11
24.898946
21
64.942959
0
LINE
8
1
10
24.898946
20
64.942959
11
24.685394
21
65.020680
0
LINE
8
1
10
24.685394
20
65.020680
11
24.471843
21
64.942959
0
LINE
8
1
10
24.471843
20
64.942959
11
24.374774
21
64.709795
0
LINE
8
1
10
24.374774
20
64.709795
11
24.471843
21
64.476433
0
LINE
8
1
10
24.471843
20
64.476433
11
24.685394
21
64.398646
0
LINE
8
1
10
24.685394
20
64.398646
11
24.898946
21
64.476433
0
LINE
8
1
10
24.898946
20
64.476433
11
24.996014
21
64.709795
0
LINE
8
1
10
23.145346
20
64.709795
11
23.048057
21
64.942959
0
LINE
8
1
10
23.048057
20
64.942959
11
22.834020
21
65.020680
0
LINE
8
1
10
22.834020
20
65.020680
11
22.619984
21
64.942959
0
LINE
8
1
10
22.619984
20
64.942959
11
22.522695
21
64.709795
0
LINE
8
1
10
22.522695
20
64.709795
11
22.619984
21
64.476433
0
LINE
8
1
10
22.619984
20
64.476433
11
22.834020
21
64.398646
0
LINE
8
1
10
22.834020
20
64.398646
11
23.048057
21
64.476433
0
LINE
8
1
10
23.048057
20
64.476433
11
23.145346
21
64.709795
0
LINE
8
1
10
22.834197
20
63.791869
11
24.686276
21
63.791869
0
LINE
8
1
10
24.686276
20
63.791869
11
24.686276
21
63.170276
0
LINE
8
1
10
24.686276
20
63.170276
11
22.834197
21
63.170276
0
LINE
8
1
10
22.834197
20
63.170276
11
22.834197
21
63.791869
0
LINE
8
1
10
23.145346
20
63.439092
11
23.048057
21
63.672454
0
LINE
8
1
10
23.048057
20
63.672454
11
22.834020
21
63.750242
0
LINE
8
1
10
22.834020
20
63.750242
11
22.619984
21
63.672454
0
LINE
8
1
10
22.619984
20
63.672454
11
22.522695
21
63.439092
0
LINE
8
1
10
22.522695
20
63.439092
11
22.619984
21
63.205730
0
LINE
8
1
10
22.619984
20
63.205730
11
22.834020
21
63.127943
0
LINE
8
1
10
22.834020
20
63.127943
11
23.048057
21
63.205730
0
LINE
8
1
10
23.048057
20
63.205730
11
23.145346
21
63.439092
0
LINE
8
1
10
24.996014
20
63.439092
11
24.898946
21
63.672454
0
LINE
8
1
10
24.898946
20
63.672454
11
24.685394
21
63.750242
0
LINE
8
1
10
24.685394
20
63.750242
11
24.471843
21
63.672454
0
LINE
8
1
10
24.471843
20
63.672454
11
24.374774
21
63.439092
0
LINE
8
1
10
24.374774
20
63.439092
11
24.471843
21
63.205730
0
LINE
8
1
10
24.471843
20
63.205730
11
24.685394
21
63.127943
0
LINE
8
1
10
24.685394
20
63.127943
11
24.898946
21
63.205730
0
LINE
8
1
10
24.898946
20
63.205730
11
24.996014
21
63.439092
0
LINE
8
1
10
24.996014
20
63.439092
11
24.898946
21
63.672454
0
LINE
8
1
10
24.898946
20
63.672454
11
24.685394
21
63.750242
0
LINE
8
1
10
24.685394
20
63.750242
11
24.471843
21
63.672454
0
LINE
8
1
10
24.471843
20
63.672454
11
24.374774
21
63.439092
0
LINE
8
1
10
24.374774
20
63.439092
11
24.471843
21
63.205730
0
LINE
8
1
10
24.471843
20
63.205730
11
24.685394
21
63.127943
0
LINE
8
1
10
24.685394
20
63.127943
11
24.898946
21
63.205730
0
LINE
8
1
10
24.898946
20
63.205730
11
24.996014
21
63.439092
0
LINE
8
1
10
23.145346
20
63.439092
11
23.048057
21
63.672454
0
LINE
8
1
10
23.048057
20
63.672454
11
22.834020
21
63.750242
0
LINE
8
1
10
22.834020
20
63.750242
11
22.619984
21
63.672454
0
LINE
8
1
10
22.619984
20
63.672454
11
22.522695
21
63.439092
0
LINE
8
1
10
22.522695
20
63.439092
11
22.619984
21
63.205730
0
LINE
8
1
10
22.619984
20
63.205730
11
22.834020
21
63.127943
0
LINE
8
1
10
22.834020
20
63.127943
11
23.048057
21
63.205730
0
LINE
8
1
10
23.048057
20
63.205730
11
23.145346
21
63.439092
0
LINE
8
1
10
22.834197
20
62.522578
11
24.686276
21
62.522578
0
LINE
8
1
10
24.686276
20
62.522578
11
24.686276
21
61.900985
0
LINE
8
1
10
24.686276
20
61.900985
11
22.834197
21
61.900985
0
LINE
8
1
10
22.834197
20
61.900985
11
22.834197
21
62.522578
0
LINE
8
1
10
23.145346
20
62.169801
11
23.048057
21
62.403163
0
LINE
8
1
10
23.048057
20
62.403163
11
22.834020
21
62.480950
0
LINE
8
1
10
22.834020
20
62.480950
11
22.619984
21
62.403163
0
LINE
8
1
10
22.619984
20
62.403163
11
22.522695
21
62.169801
0
LINE
8
1
10
22.522695
20
62.169801
11
22.619984
21
61.936637
0
LINE
8
1
10
22.619984
20
61.936637
11
22.834020
21
61.858916
0
LINE
8
1
10
22.834020
20
61.858916
11
23.048057
21
61.936637
0
LINE
8
1
10
23.048057
20
61.936637
11
23.145346
21
62.169801
0
LINE
8
1
10
24.996014
20
62.169801
11
24.898946
21
62.403163
0
LINE
8
1
10
24.898946
20
62.403163
11
24.685394
21
62.480950
0
LINE
8
1
10
24.685394
20
62.480950
11
24.471843
21
62.403163
0
LINE
8
1
10
24.471843
20
62.403163
11
24.374774
21
62.169801
0
LINE
8
1
10
24.374774
20
62.169801
11
24.471843
21
61.936637
0
LINE
8
1
10
24.471843
20
61.936637
11
24.685394
21
61.858916
0
LINE
8
1
10
24.685394
20
61.858916
11
24.898946
21
61.936637
0
LINE
8
1
10
24.898946
20
61.936637
11
24.996014
21
62.169801
0
LINE
8
1
10
24.996014
20
62.169801
11
24.898946
21
62.403163
0
LINE
8
1
10
24.898946
20
62.403163
11
24.685394
21
62.480950
0
LINE
8
1
10
24.685394
20
62.480950
11
24.471843
21
62.403163
0
LINE
8
1
10
24.471843
20
62.403163
11
24.374774
21
62.169801
0
LINE
8
1
10
24.374774
20
62.169801
11
24.471843
21
61.936637
0
LINE
8
1
10
24.471843
20
61.936637
11
24.685394
21
61.858916
0
LINE
8
1
10
24.685394
20
61.858916
11
24.898946
21
61.936637
0
LINE
8
1
10
24.898946
20
61.936637
11
24.996014
21
62.169801
0
LINE
8
1
10
23.145346
20
62.169801
11
23.048057
21
62.403163
0
LINE
8
1
10
23.048057
20
62.403163
11
22.834020
21
62.480950
0
LINE
8
1
10
22.834020
20
62.480950
11
22.619984
21
62.403163
0
LINE
8
1
10
22.619984
20
62.403163
11
22.522695
21
62.169801
0
LINE
8
1
10
22.522695
20
62.169801
11
22.619984
21
61.936637
0
LINE
8
1
10
22.619984
20
61.936637
11
22.834020
21
61.858916
0
LINE
8
1
10
22.834020
20
61.858916
11
23.048057
21
61.936637
0
LINE
8
1
10
23.048057
20
61.936637
11
23.145346
21
62.169801
0
LINE
8
1
10
70.108784
20
51.689854
11
70.708152
21
51.689854
0
LINE
8
1
10
70.708152
20
51.689854
11
70.708152
21
50.489707
0
LINE
8
1
10
70.708152
20
50.489707
11
70.108784
21
50.489707
0
LINE
8
1
10
70.108784
20
50.489707
11
70.108784
21
51.689854
0
LINE
8
1
10
68.208727
20
51.689854
11
68.808096
21
51.689854
0
LINE
8
1
10
68.808096
20
51.689854
11
68.808096
21
50.489707
0
LINE
8
1
10
68.808096
20
50.489707
11
68.208727
21
50.489707
0
LINE
8
1
10
68.208727
20
50.489707
11
68.208727
21
51.689854
0
LINE
8
1
10
68.208727
20
54.290526
11
68.808096
21
54.290526
0
LINE
8
1
10
68.808096
20
54.290526
11
68.808096
21
53.090379
0
LINE
8
1
10
68.808096
20
53.090379
11
68.208727
21
53.090379
0
LINE
8
1
10
68.208727
20
53.090379
11
68.208727
21
54.290526
0
LINE
8
1
10
69.159461
20
54.290526
11
69.758830
21
54.290526
0
LINE
8
1
10
69.758830
20
54.290526
11
69.758830
21
53.090379
0
LINE
8
1
10
69.758830
20
53.090379
11
69.159461
21
53.090379
0
LINE
8
1
10
69.159461
20
53.090379
11
69.159461
21
54.290526
0
LINE
8
1
10
70.108784
20
54.290526
11
70.708152
21
54.290526
0
LINE
8
1
10
70.708152
20
54.290526
11
70.708152
21
53.090379
0
LINE
8
1
10
70.708152
20
53.090379
11
70.108784
21
53.090379
0
LINE
8
1
10
70.108784
20
53.090379
11
70.108784
21
54.290526
0
LINE
8
1
10
49.177819
20
51.689854
11
49.777187
21
51.689854
0
LINE
8
1
10
49.777187
20
51.689854
11
49.777187
21
50.489707
0
LINE
8
1
10
49.777187
20
50.489707
11
49.177819
21
50.489707
0
LINE
8
1
10
49.177819
20
50.489707
11
49.177819
21
51.689854
0
LINE
8
1
10
47.277762
20
51.689854
11
47.877131
21
51.689854
0
LINE
8
1
10
47.877131
20
51.689854
11
47.877131
21
50.489707
0
LINE
8
1
10
47.877131
20
50.489707
11
47.277762
21
50.489707
0
LINE
8
1
10
47.277762
20
50.489707
11
47.277762
21
51.689854
0
LINE
8
1
10
47.277762
20
54.290526
11
47.877131
21
54.290526
0
LINE
8
1
10
47.877131
20
54.290526
11
47.877131
21
53.090379
0
LINE
8
1
10
47.877131
20
53.090379
11
47.277762
21
53.090379
0
LINE
8
1
10
47.277762
20
53.090379
11
47.277762
21
54.290526
0
LINE
8
1
10
48.228496
20
54.290526
11
48.827865
21
54.290526
0
LINE
8
1
10
48.827865
20
54.290526
11
48.827865
21
53.090379
0
LINE
8
1
10
48.827865
20
53.090379
11
48.228496
21
53.090379
0
LINE
8
1
10
48.228496
20
53.090379
11
48.228496
21
54.290526
0
LINE
8
1
10
49.177819
20
54.290526
11
49.777187
21
54.290526
0
LINE
8
1
10
49.777187
20
54.290526
11
49.777187
21
53.090379
0
LINE
8
1
10
49.777187
20
53.090379
11
49.177819
21
53.090379
0
LINE
8
1
10
49.177819
20
53.090379
11
49.177819
21
54.290526
0
LINE
8
1
10
28.350218
20
51.688796
11
28.949586
21
51.688796
0
LINE
8
1
10
28.949586
20
51.688796
11
28.949586
21
50.488649
0
LINE
8
1
10
28.949586
20
50.488649
11
28.350218
21
50.488649
0
LINE
8
1
10
28.350218
20
50.488649
11
28.350218
21
51.688796
0
LINE
8
1
10
26.450161
20
51.688796
11
27.049529
21
51.688796
0
LINE
8
1
10
27.049529
20
51.688796
11
27.049529
21
50.488649
0
LINE
8
1
10
27.049529
20
50.488649
11
26.450161
21
50.488649
0
LINE
8
1
10
26.450161
20
50.488649
11
26.450161
21
51.688796
0
LINE
8
1
10
26.450161
20
54.287704
11
27.049529
21
54.287704
0
LINE
8
1
10
27.049529
20
54.287704
11
27.049529
21
53.087557
0
LINE
8
1
10
27.049529
20
53.087557
11
26.450161
21
53.087557
0
LINE
8
1
10
26.450161
20
53.087557
11
26.450161
21
54.287704
0
LINE
8
1
10
27.399484
20
54.287704
11
27.998852
21
54.287704
0
LINE
8
1
10
27.998852
20
54.287704
11
27.998852
21
53.087557
0
LINE
8
1
10
27.998852
20
53.087557
11
27.399484
21
53.087557
0
LINE
8
1
10
27.399484
20
53.087557
11
27.399484
21
54.287704
0
LINE
8
1
10
28.350218
20
54.287704
11
28.949586
21
54.287704
0
LINE
8
1
10
28.949586
20
54.287704
11
28.949586
21
53.087557
0
LINE
8
1
10
28.949586
20
53.087557
11
28.350218
21
53.087557
0
LINE
8
1
10
28.350218
20
53.087557
11
28.350218
21
54.287704
0
LINE
8
1
10
57.724548
20
46.201350
11
59.085914
21
46.201350
0
LINE
8
1
10
59.085914
20
46.201350
11
59.085914
21
45.143019
0
LINE
8
1
10
59.085914
20
45.143019
11
57.724548
21
45.143019
0
LINE
8
1
10
57.724548
20
45.143019
11
57.724548
21
46.201350
0
LINE
8
1
10
57.724548
20
47.954299
11
59.085914
21
47.954299
0
LINE
8
1
10
59.085914
20
47.954299
11
59.085914
21
46.895968
0
LINE
8
1
10
59.085914
20
46.895968
11
57.724548
21
46.895968
0
LINE
8
1
10
57.724548
20
46.895968
11
57.724548
21
47.954299
0
LINE
8
1
10
36.797816
20
46.201350
11
38.159183
21
46.201350
0
LINE
8
1
10
38.159183
20
46.201350
11
38.159183
21
45.143019
0
LINE
8
1
10
38.159183
20
45.143019
11
36.797816
21
45.143019
0
LINE
8
1
10
36.797816
20
45.143019
11
36.797816
21
46.201350
0
LINE
8
1
10
36.797816
20
47.954299
11
38.159183
21
47.954299
0
LINE
8
1
10
38.159183
20
47.954299
11
38.159183
21
46.895968
0
LINE
8
1
10
38.159183
20
46.895968
11
36.797816
21
46.895968
0
LINE
8
1
10
36.797816
20
46.895968
11
36.797816
21
47.954299
0
LINE
8
1
10
15.817110
20
46.201350
11
17.178476
21
46.201350
0
LINE
8
1
10
17.178476
20
46.201350
11
17.178476
21
45.143019
0
LINE
8
1
10
17.178476
20
45.143019
11
15.817110
21
45.143019
0
LINE
8
1
10
15.817110
20
45.143019
11
15.817110
21
46.201350
0
LINE
8
1
10
15.817110
20
47.954299
11
17.178476
21
47.954299
0
LINE
8
1
10
17.178476
20
47.954299
11
17.178476
21
46.895968
0
LINE
8
1
10
17.178476
20
46.895968
11
15.817110
21
46.895968
0
LINE
8
1
10
15.817110
20
46.895968
11
15.817110
21
47.954299
0
LINE
8
1
10
66.124874
20
51.836257
11
67.178971
21
51.836257
0
LINE
8
1
10
67.178971
20
51.836257
11
67.178971
21
50.480182
0
LINE
8
1
10
67.178971
20
50.480182
11
66.124874
21
50.480182
0
LINE
8
1
10
66.124874
20
50.480182
11
66.124874
21
51.836257
0
LINE
8
1
10
64.673902
20
51.836257
11
65.728000
21
51.836257
0
LINE
8
1
10
65.728000
20
51.836257
11
65.728000
21
50.480182
0
LINE
8
1
10
65.728000
20
50.480182
11
64.673902
21
50.480182
0
LINE
8
1
10
64.673902
20
50.480182
11
64.673902
21
51.836257
0
LINE
8
1
10
66.124874
20
49.131163
11
67.178971
21
49.131163
0
LINE
8
1
10
67.178971
20
49.131163
11
67.178971
21
47.775088
0
LINE
8
1
10
67.178971
20
47.775088
11
66.124874
21
47.775088
0
LINE
8
1
10
66.124874
20
47.775088
11
66.124874
21
49.131163
0
LINE
8
1
10
64.673902
20
49.131163
11
65.728000
21
49.131163
0
LINE
8
1
10
65.728000
20
49.131163
11
65.728000
21
47.775088
0
LINE
8
1
10
65.728000
20
47.775088
11
64.673902
21
47.775088
0
LINE
8
1
10
64.673902
20
47.775088
11
64.673902
21
49.131163
0
LINE
8
1
10
66.124874
20
46.337875
11
67.178971
21
46.337875
0
LINE
8
1
10
67.178971
20
46.337875
11
67.178971
21
44.981800
0
LINE
8
1
10
67.178971
20
44.981800
11
66.124874
21
44.981800
0
LINE
8
1
10
66.124874
20
44.981800
11
66.124874
21
46.337875
0
LINE
8
1
10
64.673902
20
46.337875
11
65.728000
21
46.337875
0
LINE
8
1
10
65.728000
20
46.337875
11
65.728000
21
44.981800
0
LINE
8
1
10
65.728000
20
44.981800
11
64.673902
21
44.981800
0
LINE
8
1
10
64.673902
20
44.981800
11
64.673902
21
46.337875
0
LINE
8
1
10
66.477651
20
34.883558
11
67.531748
21
34.883558
0
LINE
8
1
10
67.531748
20
34.883558
11
67.531748
21
33.527483
0
LINE
8
1
10
67.531748
20
33.527483
11
66.477651
21
33.527483
0
LINE
8
1
10
66.477651
20
33.527483
11
66.477651
21
34.883558
0
LINE
8
1
10
65.026679
20
34.883558
11
66.080777
21
34.883558
0
LINE
8
1
10
66.080777
20
34.883558
11
66.080777
21
33.527483
0
LINE
8
1
10
66.080777
20
33.527483
11
65.026679
21
33.527483
0
LINE
8
1
10
65.026679
20
33.527483
11
65.026679
21
34.883558
0
LINE
8
1
10
66.458601
20
37.588652
11
67.512698
21
37.588652
0
LINE
8
1
10
67.512698
20
37.588652
11
67.512698
21
36.232577
0
LINE
8
1
10
67.512698
20
36.232577
11
66.458601
21
36.232577
0
LINE
8
1
10
66.458601
20
36.232577
11
66.458601
21
37.588652
0
LINE
8
1
10
65.006218
20
37.588652
11
66.060315
21
37.588652
0
LINE
8
1
10
66.060315
20
37.588652
11
66.060315
21
36.232577
0
LINE
8
1
10
66.060315
20
36.232577
11
65.006218
21
36.232577
0
LINE
8
1
10
65.006218
20
36.232577
11
65.006218
21
37.588652
0
LINE
8
1
10
45.170625
20
46.337875
11
46.224723
21
46.337875
0
LINE
8
1
10
46.224723
20
46.337875
11
46.224723
21
44.981800
0
LINE
8
1
10
46.224723
20
44.981800
11
45.170625
21
44.981800
0
LINE
8
1
10
45.170625
20
44.981800
11
45.170625
21
46.337875
0
LINE
8
1
10
43.718243
20
46.337875
11
44.772340
21
46.337875
0
LINE
8
1
10
44.772340
20
46.337875
11
44.772340
21
44.981800
0
LINE
8
1
10
44.772340
20
44.981800
11
43.718243
21
44.981800
0
LINE
8
1
10
43.718243
20
44.981800
11
43.718243
21
46.337875
0
LINE
8
1
10
45.170625
20
51.798863
11
46.224723
21
51.798863
0
LINE
8
1
10
46.224723
20
51.798863
11
46.224723
21
50.442788
0
LINE
8
1
10
46.224723
20
50.442788
11
45.170625
21
50.442788
0
LINE
8
1
10
45.170625
20
50.442788
11
45.170625
21
51.798863
0
LINE
8
1
10
43.718243
20
51.798863
11
44.772340
21
51.798863
0
LINE
8
1
10
44.772340
20
51.798863
11
44.772340
21
50.442788
0
LINE
8
1
10
44.772340
20
50.442788
11
43.718243
21
50.442788
0
LINE
8
1
10
43.718243
20
50.442788
11
43.718243
21
51.798863
0
LINE
8
1
10
45.170625
20
49.131163
11
46.224723
21
49.131163
0
LINE
8
1
10
46.224723
20
49.131163
11
46.224723
21
47.775088
0
LINE
8
1
10
46.224723
20
47.775088
11
45.170625
21
47.775088
0
LINE
8
1
10
45.170625
20
47.775088
11
45.170625
21
49.131163
0
LINE
8
1
10
43.718243
20
49.131163
11
44.772340
21
49.131163
0
LINE
8
1
10
44.772340
20
49.131163
11
44.772340
21
47.775088
0
LINE
8
1
10
44.772340
20
47.775088
11
43.718243
21
47.775088
0
LINE
8
1
10
43.718243
20
47.775088
11
43.718243
21
49.131163
0
LINE
8
1
10
45.424272
20
34.883558
11
46.478370
21
34.883558
0
LINE
8
1
10
46.478370
20
34.883558
11
46.478370
21
33.527483
0
LINE
8
1
10
46.478370
20
33.527483
11
45.424272
21
33.527483
0
LINE
8
1
10
45.424272
20
33.527483
11
45.424272
21
34.883558
0
LINE
8
1
10
43.972947
20
34.883558
11
45.027045
21
34.883558
0
LINE
8
1
10
45.027045
20
34.883558
11
45.027045
21
33.527483
0
LINE
8
1
10
45.027045
20
33.527483
11
43.972947
21
33.527483
0
LINE
8
1
10
43.972947
20
33.527483
11
43.972947
21
34.883558
0
LINE
8
1
10
45.424272
20
37.588652
11
46.478370
21
37.588652
0
LINE
8
1
10
46.478370
20
37.588652
11
46.478370
21
36.232577
0
LINE
8
1
10
46.478370
20
36.232577
11
45.424272
21
36.232577
0
LINE
8
1
10
45.424272
20
36.232577
11
45.424272
21
37.588652
0
LINE
8
1
10
43.972947
20
37.588652
11
45.027045
21
37.588652
0
LINE
8
1
10
45.027045
20
37.588652
11
45.027045
21
36.232577
0
LINE
8
1
10
45.027045
20
36.232577
11
43.972947
21
36.232577
0
LINE
8
1
10
43.972947
20
36.232577
11
43.972947
21
37.588652
0
LINE
8
1
10
24.469671
20
34.956583
11
25.523769
21
34.956583
0
LINE
8
1
10
25.523769
20
34.956583
11
25.523769
21
33.600508
0
LINE
8
1
10
25.523769
20
33.600508
11
24.469671
21
33.600508
0
LINE
8
1
10
24.469671
20
33.600508
11
24.469671
21
34.956583
0
LINE
8
1
10
23.017288
20
34.956583
11
24.071386
21
34.956583
0
LINE
8
1
10
24.071386
20
34.956583
11
24.071386
21
33.600508
0
LINE
8
1
10
24.071386
20
33.600508
11
23.017288
21
33.600508
0
LINE
8
1
10
23.017288
20
33.600508
11
23.017288
21
34.956583
0
LINE
8
1
10
24.480960
20
37.661677
11
25.535058
21
37.661677
0
LINE
8
1
10
25.535058
20
37.661677
11
25.535058
21
36.305602
0
LINE
8
1
10
25.535058
20
36.305602
11
24.480960
21
36.305602
0
LINE
8
1
10
24.480960
20
36.305602
11
24.480960
21
37.661677
0
LINE
8
1
10
23.028224
20
37.661677
11
24.082322
21
37.661677
0
LINE
8
1
10
24.082322
20
37.661677
11
24.082322
21
36.305602
0
LINE
8
1
10
24.082322
20
36.305602
11
23.028224
21
36.305602
0
LINE
8
1
10
23.028224
20
36.305602
11
23.028224
21
37.661677
0
LINE
8
1
10
24.254830
20
51.767113
11
25.308928
21
51.767113
0
LINE
8
1
10
25.308928
20
51.767113
11
25.308928
21
50.411038
0
LINE
8
1
10
25.308928
20
50.411038
11
24.254830
21
50.411038
0
LINE
8
1
10
24.254830
20
50.411038
11
24.254830
21
51.767113
0
LINE
8
1
10
22.803858
20
51.767113
11
23.857956
21
51.767113
0
LINE
8
1
10
23.857956
20
51.767113
11
23.857956
21
50.411038
0
LINE
8
1
10
23.857956
20
50.411038
11
22.803858
21
50.411038
0
LINE
8
1
10
22.803858
20
50.411038
11
22.803858
21
51.767113
0
LINE
8
1
10
24.254830
20
49.063430
11
25.308928
21
49.063430
0
LINE
8
1
10
25.308928
20
49.063430
11
25.308928
21
47.707355
0
LINE
8
1
10
25.308928
20
47.707355
11
24.254830
21
47.707355
0
LINE
8
1
10
24.254830
20
47.707355
11
24.254830
21
49.063430
0
LINE
8
1
10
22.803858
20
49.063430
11
23.857956
21
49.063430
0
LINE
8
1
10
23.857956
20
49.063430
11
23.857956
21
47.707355
0
LINE
8
1
10
23.857956
20
47.707355
11
22.803858
21
47.707355
0
LINE
8
1
10
22.803858
20
47.707355
11
22.803858
21
49.063430
0
LINE
8
1
10
24.218847
20
46.270141
11
25.272944
21
46.270141
0
LINE
8
1
10
25.272944
20
46.270141
11
25.272944
21
44.914067
0
LINE
8
1
10
25.272944
20
44.914067
11
24.218847
21
44.914067
0
LINE
8
1
10
24.218847
20
44.914067
11
24.218847
21
46.270141
0
LINE
8
1
10
22.767875
20
46.270141
11
23.821972
21
46.270141
0
LINE
8
1
10
23.821972
20
46.270141
11
23.821972
21
44.914067
0
LINE
8
1
10
23.821972
20
44.914067
11
22.767875
21
44.914067
0
LINE
8
1
10
22.767875
20
44.914067
11
22.767875
21
46.270141
0
LINE
8
1
10
70.041404
20
45.465457
11
73.241091
21
45.465457
0
LINE
8
1
10
73.241091
20
45.465457
11
73.241091
21
42.865138
0
LINE
8
1
10
73.241091
20
42.865138
11
70.041404
21
42.865138
0
LINE
8
1
10
70.041404
20
42.865138
11
70.041404
21
45.465457
0
LINE
8
1
10
70.041404
20
39.564556
11
73.241091
21
39.564556
0
LINE
8
1
10
73.241091
20
39.564556
11
73.241091
21
36.964237
0
LINE
8
1
10
73.241091
20
36.964237
11
70.041404
21
36.964237
0
LINE
8
1
10
70.041404
20
36.964237
11
70.041404
21
39.564556
0
LINE
8
1
10
49.087156
20
45.494385
11
52.286843
21
45.494385
0
LINE
8
1
10
52.286843
20
45.494385
11
52.286843
21
42.894065
0
LINE
8
1
10
52.286843
20
42.894065
11
49.087156
21
42.894065
0
LINE
8
1
10
49.087156
20
42.894065
11
49.087156
21
45.494385
0
LINE
8
1
10
49.087156
20
39.593484
11
52.286843
21
39.593484
0
LINE
8
1
10
52.286843
20
39.593484
11
52.286843
21
36.993165
0
LINE
8
1
10
52.286843
20
36.993165
11
49.087156
21
36.993165
0
LINE
8
1
10
49.087156
20
36.993165
11
49.087156
21
39.593484
0
LINE
8
1
10
28.063763
20
39.637581
11
31.263451
21
39.637581
0
LINE
8
1
10
31.263451
20
39.637581
11
31.263451
21
37.037262
0
LINE
8
1
10
31.263451
20
37.037262
11
28.063763
21
37.037262
0
LINE
8
1
10
28.063763
20
37.037262
11
28.063763
21
39.637581
0
LINE
8
1
10
28.063763
20
45.537071
11
31.263451
21
45.537071
0
LINE
8
1
10
31.263451
20
45.537071
11
31.263451
21
42.936751
0
LINE
8
1
10
31.263451
20
42.936751
11
28.063763
21
42.936751
0
LINE
8
1
10
28.063763
20
42.936751
11
28.063763
21
45.537071
0
LINE
8
1
10
61.678120
20
80.547366
11
62.678595
21
80.547366
0
LINE
8
1
10
62.678595
20
80.547366
11
62.678595
21
79.097805
0
LINE
8
1
10
62.678595
20
79.097805
11
61.678120
21
79.097805
0
LINE
8
1
10
61.678120
20
79.097805
11
61.678120
21
80.547366
0
LINE
8
1
10
59.777710
20
80.547366
11
60.778185
21
80.547366
0
LINE
8
1
10
60.778185
20
80.547366
11
60.778185
21
79.097805
0
LINE
8
1
10
60.778185
20
79.097805
11
59.777710
21
79.097805
0
LINE
8
1
10
59.777710
20
79.097805
11
59.777710
21
80.547366
0
LINE
8
1
10
10.399866
20
15.365112
11
11.600013
21
15.365112
0
LINE
8
1
10
11.600013
20
15.365112
11
11.600013
21
14.164965
0
LINE
8
1
10
11.600013
20
14.164965
11
10.399866
21
14.164965
0
LINE
8
1
10
10.399866
20
14.164965
11
10.399866
21
15.365112
0
LINE
8
1
10
10.399866
20
17.465194
11
11.600013
21
17.465194
0
LINE
8
1
10
11.600013
20
17.465194
11
11.600013
21
16.265046
0
LINE
8
1
10
11.600013
20
16.265046
11
10.399866
21
16.265046
0
LINE
8
1
10
10.399866
20
16.265046
11
10.399866
21
17.465194
0
LINE
8
1
10
64.691893
20
13.019498
11
65.892041
21
13.019498
0
LINE
8
1
10
65.892041
20
13.019498
11
65.892041
21
11.819351
0
LINE
8
1
10
65.892041
20
11.819351
11
64.691893
21
11.819351
0
LINE
8
1
10
64.691893
20
11.819351
11
64.691893
21
13.019498
0
LINE
8
1
10
64.691893
20
10.919417
11
65.892041
21
10.919417
0
LINE
8
1
10
65.892041
20
10.919417
11
65.892041
21
9.719269
0
LINE
8
1
10
65.892041
20
9.719269
11
64.691893
21
9.719269
0
LINE
8
1
10
64.691893
20
9.719269
11
64.691893
21
10.919417
0
LINE
8
1
10
49.705574
20
13.019498
11
50.905721
21
13.019498
0
LINE
8
1
10
50.905721
20
13.019498
11
50.905721
21
11.819351
0
LINE
8
1
10
50.905721
20
11.819351
11
49.705574
21
11.819351
0
LINE
8
1
10
49.705574
20
11.819351
11
49.705574
21
13.019498
0
LINE
8
1
10
49.705574
20
10.919417
11
50.905721
21
10.919417
0
LINE
8
1
10
50.905721
20
10.919417
11
50.905721
21
9.719269
0
LINE
8
1
10
50.905721
20
9.719269
11
49.705574
21
9.719269
0
LINE
8
1
10
49.705574
20
9.719269
11
49.705574
21
10.919417
0
LINE
8
1
10
34.719607
20
13.113337
11
35.919754
21
13.113337
0
LINE
8
1
10
35.919754
20
13.113337
11
35.919754
21
11.913189
0
LINE
8
1
10
35.919754
20
11.913189
11
34.719607
21
11.913189
0
LINE
8
1
10
34.719607
20
11.913189
11
34.719607
21
13.113337
0
LINE
8
1
10
34.719607
20
11.013255
11
35.919754
21
11.013255
0
LINE
8
1
10
35.919754
20
11.013255
11
35.919754
21
9.813108
0
LINE
8
1
10
35.919754
20
9.813108
11
34.719607
21
9.813108
0
LINE
8
1
10
34.719607
20
9.813108
11
34.719607
21
11.013255
0
LINE
8
1
10
7.620689
20
26.838479
11
8.820836
21
26.838479
0
LINE
8
1
10
8.820836
20
26.838479
11
8.820836
21
26.037675
0
LINE
8
1
10
8.820836
20
26.037675
11
7.620689
21
26.037675
0
LINE
8
1
10
7.620689
20
26.037675
11
7.620689
21
26.838479
0
LINE
8
1
10
7.620689
20
21.338685
11
8.820836
21
21.338685
0
LINE
8
1
10
8.820836
20
21.338685
11
8.820836
21
20.537881
0
LINE
8
1
10
8.820836
20
20.537881
11
7.620689
21
20.537881
0
LINE
8
1
10
7.620689
20
20.537881
11
7.620689
21
21.338685
0
LINE
8
1
10
7.620689
20
25.588590
11
8.820836
21
25.588590
0
LINE
8
1
10
8.820836
20
25.588590
11
8.820836
21
24.828003
0
LINE
8
1
10
8.820836
20
24.828003
11
7.620689
21
24.828003
0
LINE
8
1
10
7.620689
20
24.828003
11
7.620689
21
25.588590
0
LINE
8
1
10
7.620689
20
22.548710
11
8.820836
21
22.548710
0
LINE
8
1
10
8.820836
20
22.548710
11
8.820836
21
21.788123
0
LINE
8
1
10
8.820836
20
21.788123
11
7.620689
21
21.788123
0
LINE
8
1
10
7.620689
20
21.788123
11
7.620689
21
22.548710
0
LINE
8
1
10
7.620689
20
24.538725
11
8.820836
21
24.538725
0
LINE
8
1
10
8.820836
20
24.538725
11
8.820836
21
23.838816
0
LINE
8
1
10
8.820836
20
23.838816
11
7.620689
21
23.838816
0
LINE
8
1
10
7.620689
20
23.838816
11
7.620689
21
24.538725
0
LINE
8
1
10
7.620689
20
23.538250
11
8.820836
21
23.538250
0
LINE
8
1
10
8.820836
20
23.538250
11
8.820836
21
22.838340
0
LINE
8
1
10
8.820836
20
22.838340
11
7.620689
21
22.838340
0
LINE
8
1
10
7.620689
20
22.838340
11
7.620689
21
23.538250
0
LINE
8
1
10
5.520254
20
17.763996
11
6.778257
21
17.763996
0
LINE
8
1
10
6.778257
20
17.763996
11
6.778257
21
16.301735
0
LINE
8
1
10
6.778257
20
16.301735
11
5.520254
21
16.301735
0
LINE
8
1
10
5.520254
20
16.301735
11
5.520254
21
17.763996
0
LINE
8
1
10
7.474639
20
17.763996
11
8.732642
21
17.763996
0
LINE
8
1
10
8.732642
20
17.763996
11
8.732642
21
16.301735
0
LINE
8
1
10
8.732642
20
16.301735
11
7.474639
21
16.301735
0
LINE
8
1
10
7.474639
20
16.301735
11
7.474639
21
17.763996
0
LINE
8
1
10
5.432060
20
31.074625
11
6.690063
21
31.074625
0
LINE
8
1
10
6.690063
20
31.074625
11
6.690063
21
29.612364
0
LINE
8
1
10
6.690063
20
29.612364
11
5.432060
21
29.612364
0
LINE
8
1
10
5.432060
20
29.612364
11
5.432060
21
31.074625
0
LINE
8
1
10
7.386445
20
31.074625
11
8.644448
21
31.074625
0
LINE
8
1
10
8.644448
20
31.074625
11
8.644448
21
29.612364
0
LINE
8
1
10
8.644448
20
29.612364
11
7.386445
21
29.612364
0
LINE
8
1
10
7.386445
20
29.612364
11
7.386445
21
31.074625
0
LINE
8
1
10
62.742095
20
18.333378
11
63.991984
21
18.333378
0
LINE
8
1
10
63.991984
20
18.333378
11
63.991984
21
17.734010
0
LINE
8
1
10
63.991984
20
17.734010
11
62.742095
21
17.734010
0
LINE
8
1
10
62.742095
20
17.734010
11
62.742095
21
18.333378
0
LINE
8
1
10
62.742095
20
17.383702
11
63.991984
21
17.383702
0
LINE
8
1
10
63.991984
20
17.383702
11
63.991984
21
16.784334
0
LINE
8
1
10
63.991984
20
16.784334
11
62.742095
21
16.784334
0
LINE
8
1
10
62.742095
20
16.784334
11
62.742095
21
17.383702
0
LINE
8
1
10
62.742095
20
16.434379
11
63.991984
21
16.434379
0
LINE
8
1
10
63.991984
20
16.434379
11
63.991984
21
15.835011
0
LINE
8
1
10
63.991984
20
15.835011
11
62.742095
21
15.835011
0
LINE
8
1
10
62.742095
20
15.835011
11
62.742095
21
16.434379
0
LINE
8
1
10
60.242317
20
16.434379
11
61.492206
21
16.434379
0
LINE
8
1
10
61.492206
20
16.434379
11
61.492206
21
15.835011
0
LINE
8
1
10
61.492206
20
15.835011
11
60.242317
21
15.835011
0
LINE
8
1
10
60.242317
20
15.835011
11
60.242317
21
16.434379
0
LINE
8
1
10
60.242317
20
17.383702
11
61.492206
21
17.383702
0
LINE
8
1
10
61.492206
20
17.383702
11
61.492206
21
16.784334
0
LINE
8
1
10
61.492206
20
16.784334
11
60.242317
21
16.784334
0
LINE
8
1
10
60.242317
20
16.784334
11
60.242317
21
17.383702
0
LINE
8
1
10
60.242317
20
18.333378
11
61.492206
21
18.333378
0
LINE
8
1
10
61.492206
20
18.333378
11
61.492206
21
17.734010
0
LINE
8
1
10
61.492206
20
17.734010
11
60.242317
21
17.734010
0
LINE
8
1
10
60.242317
20
17.734010
11
60.242317
21
18.333378
0
LINE
8
1
10
47.755775
20
18.333378
11
49.005664
21
18.333378
0
LINE
8
1
10
49.005664
20
18.333378
11
49.005664
21
17.734010
0
LINE
8
1
10
49.005664
20
17.734010
11
47.755775
21
17.734010
0
LINE
8
1
10
47.755775
20
17.734010
11
47.755775
21
18.333378
0
LINE
8
1
10
47.755775
20
17.383702
11
49.005664
21
17.383702
0
LINE
8
1
10
49.005664
20
17.383702
11
49.005664
21
16.784334
0
LINE
8
1
10
49.005664
20
16.784334
11
47.755775
21
16.784334
0
LINE
8
1
10
47.755775
20
16.784334
11
47.755775
21
17.383702
0
LINE
8
1
10
47.755775
20
16.434379
11
49.005664
21
16.434379
0
LINE
8
1
10
49.005664
20
16.434379
11
49.005664
21
15.835011
0
LINE
8
1
10
49.005664
20
15.835011
11
47.755775
21
15.835011
0
LINE
8
1
10
47.755775
20
15.835011
11
47.755775
21
16.434379
0
LINE
8
1
10
45.255997
20
16.434379
11
46.505886
21
16.434379
0
LINE
8
1
10
46.505886
20
16.434379
11
46.505886
21
15.835011
0
LINE
8
1
10
46.505886
20
15.835011
11
45.255997
21
15.835011
0
LINE
8
1
10
45.255997
20
15.835011
11
45.255997
21
16.434379
0
LINE
8
1
10
45.255997
20
17.383702
11
46.505886
21
17.383702
0
LINE
8
1
10
46.505886
20
17.383702
11
46.505886
21
16.784334
0
LINE
8
1
10
46.505886
20
16.784334
11
45.255997
21
16.784334
0
LINE
8
1
10
45.255997
20
16.784334
11
45.255997
21
17.383702
0
LINE
8
1
10
45.255997
20
18.333378
11
46.505886
21
18.333378
0
LINE
8
1
10
46.505886
20
18.333378
11
46.505886
21
17.734010
0
LINE
8
1
10
46.505886
20
17.734010
11
45.255997
21
17.734010
0
LINE
8
1
10
45.255997
20
17.734010
11
45.255997
21
18.333378
0
LINE
8
1
10
32.769808
20
18.333378
11
34.019697
21
18.333378
0
LINE
8
1
10
34.019697
20
18.333378
11
34.019697
21
17.734010
0
LINE
8
1
10
34.019697
20
17.734010
11
32.769808
21
17.734010
0
LINE
8
1
10
32.769808
20
17.734010
11
32.769808
21
18.333378
0
LINE
8
1
10
32.769808
20
17.383702
11
34.019697
21
17.383702
0
LINE
8
1
10
34.019697
20
17.383702
11
34.019697
21
16.784334
0
LINE
8
1
10
34.019697
20
16.784334
11
32.769808
21
16.784334
0
LINE
8
1
10
32.769808
20
16.784334
11
32.769808
21
17.383702
0
LINE
8
1
10
32.769808
20
16.434379
11
34.019697
21
16.434379
0
LINE
8
1
10
34.019697
20
16.434379
11
34.019697
21
15.835011
0
LINE
8
1
10
34.019697
20
15.835011
11
32.769808
21
15.835011
0
LINE
8
1
10
32.769808
20
15.835011
11
32.769808
21
16.434379
0
LINE
8
1
10
30.270030
20
16.434379
11
31.519919
21
16.434379
0
LINE
8
1
10
31.519919
20
16.434379
11
31.519919
21
15.835011
0
LINE
8
1
10
31.519919
20
15.835011
11
30.270030
21
15.835011
0
LINE
8
1
10
30.270030
20
15.835011
11
30.270030
21
16.434379
0
LINE
8
1
10
30.270030
20
17.383702
11
31.519919
21
17.383702
0
LINE
8
1
10
31.519919
20
17.383702
11
31.519919
21
16.784334
0
LINE
8
1
10
31.519919
20
16.784334
11
30.270030
21
16.784334
0
LINE
8
1
10
30.270030
20
16.784334
11
30.270030
21
17.383702
0
LINE
8
1
10
30.270030
20
18.333378
11
31.519919
21
18.333378
0
LINE
8
1
10
31.519919
20
18.333378
11
31.519919
21
17.734010
0
LINE
8
1
10
31.519919
20
17.734010
11
30.270030
21
17.734010
0
LINE
8
1
10
30.270030
20
17.734010
11
30.270030
21
18.333378
0
LINE
8
1
10
60.417295
20
13.446711
11
61.716925
21
13.446711
0
LINE
8
1
10
61.716925
20
13.446711
11
61.716925
21
12.847343
0
LINE
8
1
10
61.716925
20
12.847343
11
60.417295
21
12.847343
0
LINE
8
1
10
60.417295
20
12.847343
11
60.417295
21
13.446711
0
LINE
8
1
10
62.517376
20
14.396387
11
63.817007
21
14.396387
0
LINE
8
1
10
63.817007
20
14.396387
11
63.817007
21
13.797019
0
LINE
8
1
10
63.817007
20
13.797019
11
62.517376
21
13.797019
0
LINE
8
1
10
62.517376
20
13.797019
11
62.517376
21
14.396387
0
LINE
8
1
10
62.517376
20
12.497388
11
63.817007
21
12.497388
0
LINE
8
1
10
63.817007
20
12.497388
11
63.817007
21
11.898020
0
LINE
8
1
10
63.817007
20
11.898020
11
62.517376
21
11.898020
0
LINE
8
1
10
62.517376
20
11.898020
11
62.517376
21
12.497388
0
LINE
8
1
10
45.430975
20
13.446711
11
46.730605
21
13.446711
0
LINE
8
1
10
46.730605
20
13.446711
11
46.730605
21
12.847343
0
LINE
8
1
10
46.730605
20
12.847343
11
45.430975
21
12.847343
0
LINE
8
1
10
45.430975
20
12.847343
11
45.430975
21
13.446711
0
LINE
8
1
10
47.531056
20
14.396387
11
48.830687
21
14.396387
0
LINE
8
1
10
48.830687
20
14.396387
11
48.830687
21
13.797019
0
LINE
8
1
10
48.830687
20
13.797019
11
47.531056
21
13.797019
0
LINE
8
1
10
47.531056
20
13.797019
11
47.531056
21
14.396387
0
LINE
8
1
10
47.531056
20
12.497388
11
48.830687
21
12.497388
0
LINE
8
1
10
48.830687
20
12.497388
11
48.830687
21
11.898020
0
LINE
8
1
10
48.830687
20
11.898020
11
47.531056
21
11.898020
0
LINE
8
1
10
47.531056
20
11.898020
11
47.531056
21
12.497388
0
LINE
8
1
10
30.318008
20
13.446711
11
31.617639
21
13.446711
0
LINE
8
1
10
31.617639
20
13.446711
11
31.617639
21
12.847343
0
LINE
8
1
10
31.617639
20
12.847343
11
30.318008
21
12.847343
0
LINE
8
1
10
30.318008
20
12.847343
11
30.318008
21
13.446711
0
LINE
8
1
10
32.418442
20
14.396387
11
33.718073
21
14.396387
0
LINE
8
1
10
33.718073
20
14.396387
11
33.718073
21
13.797019
0
LINE
8
1
10
33.718073
20
13.797019
11
32.418442
21
13.797019
0
LINE
8
1
10
32.418442
20
13.797019
11
32.418442
21
14.396387
0
LINE
8
1
10
32.418442
20
12.497388
11
33.718073
21
12.497388
0
LINE
8
1
10
33.718073
20
12.497388
11
33.718073
21
11.898020
0
LINE
8
1
10
33.718073
20
11.898020
11
32.418442
21
11.898020
0
LINE
8
1
10
32.418442
20
11.898020
11
32.418442
21
12.497388
0
LINE
8
1
10
64.843588
20
76.082620
11
64.621559
21
76.615225
0
LINE
8
1
10
64.621559
20
76.615225
11
64.133095
21
76.792760
0
LINE
8
1
10
64.133095
20
76.792760
11
63.644631
21
76.615225
0
LINE
8
1
10
63.644631
20
76.615225
11
63.422602
21
76.082620
0
LINE
8
1
10
63.422602
20
76.082620
11
63.644631
21
75.550015
0
LINE
8
1
10
63.644631
20
75.550015
11
64.133095
21
75.372480
0
LINE
8
1
10
64.133095
20
75.372480
11
64.621559
21
75.550015
0
LINE
8
1
10
64.621559
20
75.550015
11
64.843588
21
76.082620
0
LINE
8
1
10
62.842636
20
76.082620
11
62.620828
21
76.615225
0
LINE
8
1
10
62.620828
20
76.615225
11
62.132849
21
76.792760
0
LINE
8
1
10
62.132849
20
76.792760
11
61.644870
21
76.615225
0
LINE
8
1
10
61.644870
20
76.615225
11
61.423062
21
76.082620
0
LINE
8
1
10
61.423062
20
76.082620
11
61.644870
21
75.550015
0
LINE
8
1
10
61.644870
20
75.550015
11
62.132849
21
75.372480
0
LINE
8
1
10
62.132849
20
75.372480
11
62.620828
21
75.550015
0
LINE
8
1
10
62.620828
20
75.550015
11
62.842636
21
76.082620
0
LINE
8
1
10
67.343365
20
76.082620
11
67.121336
21
76.615225
0
LINE
8
1
10
67.121336
20
76.615225
11
66.632873
21
76.792760
0
LINE
8
1
10
66.632873
20
76.792760
11
66.144409
21
76.615225
0
LINE
8
1
10
66.144409
20
76.615225
11
65.922380
21
76.082620
0
LINE
8
1
10
65.922380
20
76.082620
11
66.144409
21
75.550015
0
LINE
8
1
10
66.144409
20
75.550015
11
66.632873
21
75.372480
0
LINE
8
1
10
66.632873
20
75.372480
11
67.121336
21
75.550015
0
LINE
8
1
10
67.121336
20
75.550015
11
67.343365
21
76.082620
0
LINE
8
1
10
58.923284
20
76.436808
11
60.342506
21
76.436808
0
LINE
8
1
10
60.342506
20
76.436808
11
60.342506
21
75.727021
0
LINE
8
1
10
60.342506
20
75.727021
11
58.923284
21
75.727021
0
LINE
8
1
10
58.923284
20
75.727021
11
58.923284
21
76.436808
0
LINE
8
1
10
59.277472
20
76.792407
11
59.987259
21
76.792407
0
LINE
8
1
10
59.987259
20
76.792407
11
59.987259
21
75.373186
0
LINE
8
1
10
59.987259
20
75.373186
11
59.277472
21
75.373186
0
LINE
8
1
10
59.277472
20
75.373186
11
59.277472
21
76.792407
0
LINE
8
1
10
60.342859
20
75.727021
11
60.231954
21
75.993720
0
LINE
8
1
10
60.231954
20
75.993720
11
59.987965
21
76.082620
0
LINE
8
1
10
59.987965
20
76.082620
11
59.743976
21
75.993720
0
LINE
8
1
10
59.743976
20
75.993720
11
59.633071
21
75.727021
0
LINE
8
1
10
59.633071
20
75.727021
11
59.743976
21
75.461115
0
LINE
8
1
10
59.743976
20
75.461115
11
59.987965
21
75.372480
0
LINE
8
1
10
59.987965
20
75.372480
11
60.231954
21
75.461115
0
LINE
8
1
10
60.231954
20
75.461115
11
60.342859
21
75.727021
0
LINE
8
1
10
59.633071
20
75.727021
11
59.522167
21
75.993720
0
LINE
8
1
10
59.522167
20
75.993720
11
59.278178
21
76.082620
0
LINE
8
1
10
59.278178
20
76.082620
11
59.034188
21
75.993720
0
LINE
8
1
10
59.034188
20
75.993720
11
58.923284
21
75.727021
0
LINE
8
1
10
58.923284
20
75.727021
11
59.034188
21
75.461115
0
LINE
8
1
10
59.034188
20
75.461115
11
59.278178
21
75.372480
0
LINE
8
1
10
59.278178
20
75.372480
11
59.522167
21
75.461115
0
LINE
8
1
10
59.522167
20
75.461115
11
59.633071
21
75.727021
0
LINE
8
1
10
59.633071
20
76.438219
11
59.522167
21
76.704125
0
LINE
8
1
10
59.522167
20
76.704125
11
59.278178
21
76.792760
0
LINE
8
1
10
59.278178
20
76.792760
11
59.034188
21
76.704125
0
LINE
8
1
10
59.034188
20
76.704125
11
58.923284
21
76.438219
0
LINE
8
1
10
58.923284
20
76.438219
11
59.034188
21
76.171520
0
LINE
8
1
10
59.034188
20
76.171520
11
59.278178
21
76.082620
0
LINE
8
1
10
59.278178
20
76.082620
11
59.522167
21
76.171520
0
LINE
8
1
10
59.522167
20
76.171520
11
59.633071
21
76.438219
0
LINE
8
1
10
60.342859
20
76.438219
11
60.231954
21
76.704125
0
LINE
8
1
10
60.231954
20
76.704125
11
59.987965
21
76.792760
0
LINE
8
1
10
59.987965
20
76.792760
11
59.743976
21
76.704125
0
LINE
8
1
10
59.743976
20
76.704125
11
59.633071
21
76.438219
0
LINE
8
1
10
59.633071
20
76.438219
11
59.743976
21
76.171520
0
LINE
8
1
10
59.743976
20
76.171520
11
59.987965
21
76.082620
0
LINE
8
1
10
59.987965
20
76.082620
11
60.231954
21
76.171520
0
LINE
8
1
10
60.231954
20
76.171520
11
60.342859
21
76.438219
0
LINE
8
1
10
71.427818
20
73.371882
11
71.279599
21
74.126604
0
LINE
8
1
10
71.279599
20
74.126604
11
70.888840
21
74.665691
0
LINE
8
1
10
70.888840
20
74.665691
11
70.336389
21
74.989144
0
LINE
8
1
10
70.336389
20
74.989144
11
69.703091
21
75.096961
0
LINE
8
1
10
69.703091
20
75.096961
11
69.069793
21
74.989144
0
LINE
8
1
10
69.069793
20
74.989144
11
68.517341
21
74.665691
0
LINE
8
1
10
68.517341
20
74.665691
11
68.126583
21
74.126604
0
LINE
8
1
10
68.126583
20
74.126604
11
67.978364
21
73.371882
0
LINE
8
1
10
67.978364
20
73.371882
11
68.126583
21
72.617275
0
LINE
8
1
10
68.126583
20
72.617275
11
68.517341
21
72.078270
0
LINE
8
1
10
68.517341
20
72.078270
11
69.069793
21
71.754868
0
LINE
8
1
10
69.069793
20
71.754868
11
69.703091
21
71.647067
0
LINE
8
1
10
69.703091
20
71.647067
11
70.336389
21
71.754868
0
LINE
8
1
10
70.336389
20
71.754868
11
70.888840
21
72.078270
0
LINE
8
1
10
70.888840
20
72.078270
11
71.279599
21
72.617275
0
LINE
8
1
10
71.279599
20
72.617275
11
71.427818
21
73.371882
0
LINE
8
1
10
58.288285
20
73.371882
11
58.140006
21
74.126604
0
LINE
8
1
10
58.140006
20
74.126604
11
57.749088
21
74.665691
0
LINE
8
1
10
57.749088
20
74.665691
11
57.196410
21
74.989144
0
LINE
8
1
10
57.196410
20
74.989144
11
56.562853
21
75.096961
0
LINE
8
1
10
56.562853
20
75.096961
11
55.929296
21
74.989144
0
LINE
8
1
10
55.929296
20
74.989144
11
55.376618
21
74.665691
0
LINE
8
1
10
55.376618
20
74.665691
11
54.985700
21
74.126604
0
LINE
8
1
10
54.985700
20
74.126604
11
54.837421
21
73.371882
0
LINE
8
1
10
54.837421
20
73.371882
11
54.985700
21
72.617275
0
LINE
8
1
10
54.985700
20
72.617275
11
55.376618
21
72.078270
0
LINE
8
1
10
55.376618
20
72.078270
11
55.929296
21
71.754868
0
LINE
8
1
10
55.929296
20
71.754868
11
56.562853
21
71.647067
0
LINE
8
1
10
56.562853
20
71.647067
11
57.196410
21
71.754868
0
LINE
8
1
10
57.196410
20
71.754868
11
57.749088
21
72.078270
0
LINE
8
1
10
57.749088
20
72.078270
11
58.140006
21
72.617275
0
LINE
8
1
10
58.140006
20
72.617275
11
58.288285
21
73.371882
0
LINE
8
1
10
31.463475
20
10.171177
11
31.244698
21
10.696638
0
LINE
8
1
10
31.244698
20
10.696638
11
30.763389
21
10.871792
0
LINE
8
1
10
30.763389
20
10.871792
11
30.282080
21
10.696638
0
LINE
8
1
10
30.282080
20
10.696638
11
30.063303
21
10.171177
0
LINE
8
1
10
30.063303
20
10.171177
11
30.282080
21
9.646509
0
LINE
8
1
10
30.282080
20
9.646509
11
30.763389
21
9.471620
0
LINE
8
1
10
30.763389
20
9.471620
11
31.244698
21
9.646509
0
LINE
8
1
10
31.244698
20
9.646509
11
31.463475
21
10.171177
0
LINE
8
1
10
61.463278
20
10.171177
11
61.244502
21
10.696638
0
LINE
8
1
10
61.244502
20
10.696638
11
60.763192
21
10.871792
0
LINE
8
1
10
60.763192
20
10.871792
11
60.281883
21
10.696638
0
LINE
8
1
10
60.281883
20
10.696638
11
60.063106
21
10.171177
0
LINE
8
1
10
60.063106
20
10.171177
11
60.281883
21
9.646509
0
LINE
8
1
10
60.281883
20
9.646509
11
60.763192
21
9.471620
0
LINE
8
1
10
60.763192
20
9.471620
11
61.244502
21
9.646509
0
LINE
8
1
10
61.244502
20
9.646509
11
61.463278
21
10.171177
0
LINE
8
1
10
46.463200
20
10.171177
11
46.244423
21
10.696638
0
LINE
8
1
10
46.244423
20
10.696638
11
45.763114
21
10.871792
0
LINE
8
1
10
45.763114
20
10.871792
11
45.281805
21
10.696638
0
LINE
8
1
10
45.281805
20
10.696638
11
45.063028
21
10.171177
0
LINE
8
1
10
45.063028
20
10.171177
11
45.281805
21
9.646509
0
LINE
8
1
10
45.281805
20
9.646509
11
45.763114
21
9.471620
0
LINE
8
1
10
45.763114
20
9.471620
11
46.244423
21
9.646509
0
LINE
8
1
10
46.244423
20
9.646509
11
46.463200
21
10.171177
0
LINE
8
1
10
22.164273
20
10.171177
11
21.945496
21
10.696638
0
LINE
8
1
10
21.945496
20
10.696638
11
21.464187
21
10.871792
0
LINE
8
1
10
21.464187
20
10.871792
11
20.982878
21
10.696638
0
LINE
8
1
10
20.982878
20
10.696638
11
20.764101
21
10.171177
0
LINE
8
1
10
20.764101
20
10.171177
11
20.982878
21
9.646509
0
LINE
8
1
10
20.982878
20
9.646509
11
21.464187
21
9.471620
0
LINE
8
1
10
21.464187
20
9.471620
11
21.945496
21
9.646509
0
LINE
8
1
10
21.945496
20
9.646509
11
22.164273
21
10.171177
0
LINE
8
1
10
44.568435
20
75.074031
11
44.349658
21
75.598698
0
LINE
8
1
10
44.349658
20
75.598698
11
43.868349
21
75.773587
0
LINE
8
1
10
43.868349
20
75.773587
11
43.387040
21
75.598698
0
LINE
8
1
10
43.387040
20
75.598698
11
43.168263
21
75.074031
0
LINE
8
1
10
43.168263
20
75.074031
11
43.387040
21
74.548371
0
LINE
8
1
10
43.387040
20
74.548371
11
43.868349
21
74.373151
0
LINE
8
1
10
43.868349
20
74.373151
11
44.349658
21
74.548371
0
LINE
8
1
10
44.349658
20
74.548371
11
44.568435
21
75.074031
0
LINE
8
1
10
19.664496
20
75.074031
11
19.445719
21
75.598698
0
LINE
8
1
10
19.445719
20
75.598698
11
18.964410
21
75.773587
0
LINE
8
1
10
18.964410
20
75.773587
11
18.483100
21
75.598698
0
LINE
8
1
10
18.483100
20
75.598698
11
18.264324
21
75.074031
0
LINE
8
1
10
18.264324
20
75.074031
11
18.483100
21
74.548371
0
LINE
8
1
10
18.483100
20
74.548371
11
18.964410
21
74.373151
0
LINE
8
1
10
18.964410
20
74.373151
11
19.445719
21
74.548371
0
LINE
8
1
10
19.445719
20
74.548371
11
19.664496
21
75.074031
0
LINE
8
1
10
10.056967
20
66.433464
11
9.838190
21
66.958330
0
LINE
8
1
10
9.838190
20
66.958330
11
9.356881
21
67.133285
0
LINE
8
1
10
9.356881
20
67.133285
11
8.875572
21
66.958330
0
LINE
8
1
10
8.875572
20
66.958330
11
8.656795
21
66.433464
0
LINE
8
1
10
8.656795
20
66.433464
11
8.875572
21
65.908796
0
LINE
8
1
10
8.875572
20
65.908796
11
9.356881
21
65.733907
0
LINE
8
1
10
9.356881
20
65.733907
11
9.838190
21
65.908796
0
LINE
8
1
10
9.838190
20
65.908796
11
10.056967
21
66.433464
0
LINE
8
1
10
10.056967
20
63.933686
11
9.838190
21
64.458552
0
LINE
8
1
10
9.838190
20
64.458552
11
9.356881
21
64.633507
0
LINE
8
1
10
9.356881
20
64.633507
11
8.875572
21
64.458552
0
LINE
8
1
10
8.875572
20
64.458552
11
8.656795
21
63.933686
0
LINE
8
1
10
8.656795
20
63.933686
11
8.875572
21
63.408224
0
LINE
8
1
10
8.875572
20
63.408224
11
9.356881
21
63.233071
0
LINE
8
1
10
9.356881
20
63.233071
11
9.838190
21
63.408224
0
LINE
8
1
10
9.838190
20
63.408224
11
10.056967
21
63.933686
0
LINE
8
1
10
32.563081
20
10.871086
11
33.963253
21
10.871086
0
LINE
8
1
10
33.963253
20
10.871086
11
33.963253
21
9.470914
0
LINE
8
1
10
33.963253
20
9.470914
11
32.563081
21
9.470914
0
LINE
8
1
10
32.563081
20
9.470914
11
32.563081
21
10.871086
0
LINE
8
1
10
62.562884
20
10.871086
11
63.963056
21
10.871086
0
LINE
8
1
10
63.963056
20
10.871086
11
63.963056
21
9.470914
0
LINE
8
1
10
63.963056
20
9.470914
11
62.562884
21
9.470914
0
LINE
8
1
10
62.562884
20
9.470914
11
62.562884
21
10.871086
0
LINE
8
1
10
47.562806
20
10.871086
11
48.962978
21
10.871086
0
LINE
8
1
10
48.962978
20
10.871086
11
48.962978
21
9.470914
0
LINE
8
1
10
48.962978
20
9.470914
11
47.562806
21
9.470914
0
LINE
8
1
10
47.562806
20
9.470914
11
47.562806
21
10.871086
0
LINE
8
1
10
18.264324
20
10.871086
11
19.664496
21
10.871086
0
LINE
8
1
10
19.664496
20
10.871086
11
19.664496
21
9.470914
0
LINE
8
1
10
19.664496
20
9.470914
11
18.264324
21
9.470914
0
LINE
8
1
10
18.264324
20
9.470914
11
18.264324
21
10.871086
0
LINE
8
1
10
45.669452
20
75.773940
11
47.069624
21
75.773940
0
LINE
8
1
10
47.069624
20
75.773940
11
47.069624
21
74.373768
0
LINE
8
1
10
47.069624
20
74.373768
11
45.669452
21
74.373768
0
LINE
8
1
10
45.669452
20
74.373768
11
45.669452
21
75.773940
0
LINE
8
1
10
20.764101
20
75.773940
11
22.164273
21
75.773940
0
LINE
8
1
10
22.164273
20
75.773940
11
22.164273
21
74.373768
0
LINE
8
1
10
22.164273
20
74.373768
11
20.764101
21
74.373768
0
LINE
8
1
10
20.764101
20
74.373768
11
20.764101
21
75.773940
0
LINE
8
1
10
7.406906
20
34.778783
11
7.295416
21
35.346677
0
LINE
8
1
10
7.295416
20
35.346677
11
7.001488
21
35.752316
0
LINE
8
1
10
7.001488
20
35.752316
11
6.585935
21
35.995699
0
LINE
8
1
10
6.585935
20
35.995699
11
6.109568
21
36.076826
0
LINE
8
1
10
6.109568
20
36.076826
11
5.633202
21
35.995699
0
LINE
8
1
10
5.633202
20
35.995699
11
5.217649
21
35.752316
0
LINE
8
1
10
5.217649
20
35.752316
11
4.923721
21
35.346677
0
LINE
8
1
10
4.923721
20
35.346677
11
4.812231
21
34.778783
0
LINE
8
1
10
4.812231
20
34.778783
11
4.923721
21
34.211353
0
LINE
8
1
10
4.923721
20
34.211353
11
5.217649
21
33.806045
0
LINE
8
1
10
5.217649
20
33.806045
11
5.633202
21
33.562860
0
LINE
8
1
10
5.633202
20
33.562860
11
6.109568
21
33.481799
0
LINE
8
1
10
6.109568
20
33.481799
11
6.585935
21
33.562860
0
LINE
8
1
10
6.585935
20
33.562860
11
7.001488
21
33.806045
0
LINE
8
1
10
7.001488
20
33.806045
11
7.295416
21
34.211353
0
LINE
8
1
10
7.295416
20
34.211353
11
7.406906
21
34.778783
0
LINE
8
1
10
7.406906
20
39.479184
11
7.295416
21
40.046731
0
LINE
8
1
10
7.295416
20
40.046731
11
7.001488
21
40.452121
0
LINE
8
1
10
7.001488
20
40.452121
11
6.585935
21
40.695355
0
LINE
8
1
10
6.585935
20
40.695355
11
6.109568
21
40.776433
0
LINE
8
1
10
6.109568
20
40.776433
11
5.633202
21
40.695355
0
LINE
8
1
10
5.633202
20
40.695355
11
5.217649
21
40.452121
0
LINE
8
1
10
5.217649
20
40.452121
11
4.923721
21
40.046731
0
LINE
8
1
10
4.923721
20
40.046731
11
4.812231
21
39.479184
0
LINE
8
1
10
4.812231
20
39.479184
11
4.923721
21
38.911290
0
LINE
8
1
10
4.923721
20
38.911290
11
5.217649
21
38.505652
0
LINE
8
1
10
5.217649
20
38.505652
11
5.633202
21
38.262269
0
LINE
8
1
10
5.633202
20
38.262269
11
6.109568
21
38.181141
0
LINE
8
1
10
6.109568
20
38.181141
11
6.585935
21
38.262269
0
LINE
8
1
10
6.585935
20
38.262269
11
7.001488
21
38.505652
0
LINE
8
1
10
7.001488
20
38.505652
11
7.295416
21
38.911290
0
LINE
8
1
10
7.295416
20
38.911290
11
7.406906
21
39.479184
0
LINE
8
1
10
29.295660
20
78.298412
11
29.184170
21
78.865959
0
LINE
8
1
10
29.184170
20
78.865959
11
28.890242
21
79.271349
0
LINE
8
1
10
28.890242
20
79.271349
11
28.474689
21
79.514584
0
LINE
8
1
10
28.474689
20
79.514584
11
27.998323
21
79.595662
0
LINE
8
1
10
27.998323
20
79.595662
11
27.521957
21
79.514584
0
LINE
8
1
10
27.521957
20
79.514584
11
27.106404
21
79.271349
0
LINE
8
1
10
27.106404
20
79.271349
11
26.812476
21
78.865959
0
LINE
8
1
10
26.812476
20
78.865959
11
26.700986
21
78.298412
0
LINE
8
1
10
26.700986
20
78.298412
11
26.812476
21
77.730519
0
LINE
8
1
10
26.812476
20
77.730519
11
27.106404
21
77.324880
0
LINE
8
1
10
27.106404
20
77.324880
11
27.521957
21
77.081497
0
LINE
8
1
10
27.521957
20
77.081497
11
27.998323
21
77.000369
0
LINE
8
1
10
27.998323
20
77.000369
11
28.474689
21
77.081497
0
LINE
8
1
10
28.474689
20
77.081497
11
28.890242
21
77.324880
0
LINE
8
1
10
28.890242
20
77.324880
11
29.184170
21
77.730519
0
LINE
8
1
10
29.184170
20
77.730519
11
29.295660
21
78.298412
0
LINE
8
1
10
33.996061
20
78.298412
11
33.884571
21
78.865959
0
LINE
8
1
10
33.884571
20
78.865959
11
33.590643
21
79.271349
0
LINE
8
1
10
33.590643
20
79.271349
11
33.175090
21
79.514584
0
LINE
8
1
10
33.175090
20
79.514584
11
32.698724
21
79.595662
0
LINE
8
1
10
32.698724
20
79.595662
11
32.222358
21
79.514584
0
LINE
8
1
10
32.222358
20
79.514584
11
31.806804
21
79.271349
0
LINE
8
1
10
31.806804
20
79.271349
11
31.512876
21
78.865959
0
LINE
8
1
10
31.512876
20
78.865959
11
31.401386
21
78.298412
0
LINE
8
1
10
31.401386
20
78.298412
11
31.512876
21
77.730519
0
LINE
8
1
10
31.512876
20
77.730519
11
31.806804
21
77.324880
0
LINE
8
1
10
31.806804
20
77.324880
11
32.222358
21
77.081497
0
LINE
8
1
10
32.222358
20
77.081497
11
32.698724
21
77.000369
0
LINE
8
1
10
32.698724
20
77.000369
11
33.175090
21
77.081497
0
LINE
8
1
10
33.175090
20
77.081497
11
33.590643
21
77.324880
0
LINE
8
1
10
33.590643
20
77.324880
11
33.884571
21
77.730519
0
LINE
8
1
10
33.884571
20
77.730519
11
33.996061
21
78.298412
0
LINE
8
1
10
4.812231
20
45.476393
11
7.406906
21
45.476393
0
LINE
8
1
10
7.406906
20
45.476393
11
7.406906
21
42.881718
0
LINE
8
1
10
7.406906
20
42.881718
11
4.812231
21
42.881718
0
LINE
8
1
10
4.812231
20
42.881718
11
4.812231
21
45.476393
0
LINE
8
1
10
7.868691
20
28.558267
11
8.468059
21
28.558267
0
LINE
8
1
10
8.468059
20
28.558267
11
8.468059
21
27.458661
0
LINE
8
1
10
8.468059
20
27.458661
11
7.868691
21
27.458661
0
LINE
8
1
10
7.868691
20
27.458661
11
7.868691
21
28.558267
0
LINE
8
1
10
8.470881
20
28.008640
11
8.299068
21
28.420992
0
LINE
8
1
10
8.299068
20
28.420992
11
7.921078
21
28.558443
0
LINE
8
1
10
7.921078
20
28.558443
11
7.543089
21
28.420992
0
LINE
8
1
10
7.543089
20
28.420992
11
7.371275
21
28.008640
0
LINE
8
1
10
7.371275
20
28.008640
11
7.543089
21
27.596089
0
LINE
8
1
10
7.543089
20
27.596089
11
7.921078
21
27.458572
0
LINE
8
1
10
7.921078
20
27.458572
11
8.299068
21
27.596089
0
LINE
8
1
10
8.299068
20
27.596089
11
8.470881
21
28.008640
0
LINE
8
1
10
8.470881
20
28.008640
11
8.299068
21
28.420992
0
LINE
8
1
10
8.299068
20
28.420992
11
7.921078
21
28.558443
0
LINE
8
1
10
7.921078
20
28.558443
11
7.543089
21
28.420992
0
LINE
8
1
10
7.543089
20
28.420992
11
7.371275
21
28.008640
0
LINE
8
1
10
7.371275
20
28.008640
11
7.543089
21
27.596089
0
LINE
8
1
10
7.543089
20
27.596089
11
7.921078
21
27.458572
0
LINE
8
1
10
7.921078
20
27.458572
11
8.299068
21
27.596089
0
LINE
8
1
10
8.299068
20
27.596089
11
8.470881
21
28.008640
0
LINE
8
1
10
9.071661
20
28.008640
11
8.899627
21
28.420992
0
LINE
8
1
10
8.899627
20
28.420992
11
8.521152
21
28.558443
0
LINE
8
1
10
8.521152
20
28.558443
11
8.142677
21
28.420992
0
LINE
8
1
10
8.142677
20
28.420992
11
7.970644
21
28.008640
0
LINE
8
1
10
7.970644
20
28.008640
11
8.142677
21
27.596089
0
LINE
8
1
10
8.142677
20
27.596089
11
8.521152
21
27.458572
0
LINE
8
1
10
8.521152
20
27.458572
11
8.899627
21
27.596089
0
LINE
8
1
10
8.899627
20
27.596089
11
9.071661
21
28.008640
0
LINE
8
1
10
9.071661
20
28.008640
11
8.899627
21
28.420992
0
LINE
8
1
10
8.899627
20
28.420992
11
8.521152
21
28.558443
0
LINE
8
1
10
8.521152
20
28.558443
11
8.142677
21
28.420992
0
LINE
8
1
10
8.142677
20
28.420992
11
7.970644
21
28.008640
0
LINE
8
1
10
7.970644
20
28.008640
11
8.142677
21
27.596089
0
LINE
8
1
10
8.142677
20
27.596089
11
8.521152
21
27.458572
0
LINE
8
1
10
8.521152
20
27.458572
11
8.899627
21
27.596089
0
LINE
8
1
10
8.899627
20
27.596089
11
9.071661
21
28.008640
0
LINE
8
1
10
7.868691
20
19.918052
11
8.468059
21
19.918052
0
LINE
8
1
10
8.468059
20
19.918052
11
8.468059
21
18.818446
0
LINE
8
1
10
8.468059
20
18.818446
11
7.868691
21
18.818446
0
LINE
8
1
10
7.868691
20
18.818446
11
7.868691
21
19.918052
0
LINE
8
1
10
8.470881
20
19.368073
11
8.299068
21
19.780425
0
LINE
8
1
10
8.299068
20
19.780425
11
7.921078
21
19.917876
0
LINE
8
1
10
7.921078
20
19.917876
11
7.543089
21
19.780425
0
LINE
8
1
10
7.543089
20
19.780425
11
7.371275
21
19.368073
0
LINE
8
1
10
7.371275
20
19.368073
11
7.543089
21
18.955721
0
LINE
8
1
10
7.543089
20
18.955721
11
7.921078
21
18.818270
0
LINE
8
1
10
7.921078
20
18.818270
11
8.299068
21
18.955721
0
LINE
8
1
10
8.299068
20
18.955721
11
8.470881
21
19.368073
0
LINE
8
1
10
8.470881
20
19.368073
11
8.299068
21
19.780425
0
LINE
8
1
10
8.299068
20
19.780425
11
7.921078
21
19.917876
0
LINE
8
1
10
7.921078
20
19.917876
11
7.543089
21
19.780425
0
LINE
8
1
10
7.543089
20
19.780425
11
7.371275
21
19.368073
0
LINE
8
1
10
7.371275
20
19.368073
11
7.543089
21
18.955721
0
LINE
8
1
10
7.543089
20
18.955721
11
7.921078
21
18.818270
0
LINE
8
1
10
7.921078
20
18.818270
11
8.299068
21
18.955721
0
LINE
8
1
10
8.299068
20
18.955721
11
8.470881
21
19.368073
0
LINE
8
1
10
9.071661
20
19.368073
11
8.899627
21
19.780425
0
LINE
8
1
10
8.899627
20
19.780425
11
8.521152
21
19.917876
0
LINE
8
1
10
8.521152
20
19.917876
11
8.142677
21
19.780425
0
LINE
8
1
10
8.142677
20
19.780425
11
7.970644
21
19.368073
0
LINE
8
1
10
7.970644
20
19.368073
11
8.142677
21
18.955721
0
LINE
8
1
10
8.142677
20
18.955721
11
8.521152
21
18.818270
0
LINE
8
1
10
8.521152
20
18.818270
11
8.899627
21
18.955721
0
LINE
8
1
10
8.899627
20
18.955721
11
9.071661
21
19.368073
0
LINE
8
1
10
9.071661
20
19.368073
11
8.899627
21
19.780425
0
LINE
8
1
10
8.899627
20
19.780425
11
8.521152
21
19.917876
0
LINE
8
1
10
8.521152
20
19.917876
11
8.142677
21
19.780425
0
LINE
8
1
10
8.142677
20
19.780425
11
7.970644
21
19.368073
0
LINE
8
1
10
7.970644
20
19.368073
11
8.142677
21
18.955721
0
LINE
8
1
10
8.142677
20
18.955721
11
8.521152
21
18.818270
0
LINE
8
1
10
8.521152
20
18.818270
11
8.899627
21
18.955721
0
LINE
8
1
10
8.899627
20
18.955721
11
9.071661
21
19.368073
0
LINE
8
1
10
4.067872
20
28.558267
11
4.667240
21
28.558267
0
LINE
8
1
10
4.667240
20
28.558267
11
4.667240
21
27.458661
0
LINE
8
1
10
4.667240
20
27.458661
11
4.067872
21
27.458661
0
LINE
8
1
10
4.067872
20
27.458661
11
4.067872
21
28.558267
0
LINE
8
1
10
4.671473
20
28.008640
11
4.499439
21
28.420992
0
LINE
8
1
10
4.499439
20
28.420992
11
4.120965
21
28.558443
0
LINE
8
1
10
4.120965
20
28.558443
11
3.742490
21
28.420992
0
LINE
8
1
10
3.742490
20
28.420992
11
3.570456
21
28.008640
0
LINE
8
1
10
3.570456
20
28.008640
11
3.742490
21
27.596089
0
LINE
8
1
10
3.742490
20
27.596089
11
4.120965
21
27.458572
0
LINE
8
1
10
4.120965
20
27.458572
11
4.499439
21
27.596089
0
LINE
8
1
10
4.499439
20
27.596089
11
4.671473
21
28.008640
0
LINE
8
1
10
4.671473
20
28.008640
11
4.499439
21
28.420992
0
LINE
8
1
10
4.499439
20
28.420992
11
4.120965
21
28.558443
0
LINE
8
1
10
4.120965
20
28.558443
11
3.742490
21
28.420992
0
LINE
8
1
10
3.742490
20
28.420992
11
3.570456
21
28.008640
0
LINE
8
1
10
3.570456
20
28.008640
11
3.742490
21
27.596089
0
LINE
8
1
10
3.742490
20
27.596089
11
4.120965
21
27.458572
0
LINE
8
1
10
4.120965
20
27.458572
11
4.499439
21
27.596089
0
LINE
8
1
10
4.499439
20
27.596089
11
4.671473
21
28.008640
0
LINE
8
1
10
5.270841
20
28.008640
11
5.099028
21
28.420992
0
LINE
8
1
10
5.099028
20
28.420992
11
4.721038
21
28.558443
0
LINE
8
1
10
4.721038
20
28.558443
11
4.343049
21
28.420992
0
LINE
8
1
10
4.343049
20
28.420992
11
4.171235
21
28.008640
0
LINE
8
1
10
4.171235
20
28.008640
11
4.343049
21
27.596089
0
LINE
8
1
10
4.343049
20
27.596089
11
4.721038
21
27.458572
0
LINE
8
1
10
4.721038
20
27.458572
11
5.099028
21
27.596089
0
LINE
8
1
10
5.099028
20
27.596089
11
5.270841
21
28.008640
0
LINE
8
1
10
5.270841
20
28.008640
11
5.099028
21
28.420992
0
LINE
8
1
10
5.099028
20
28.420992
11
4.721038
21
28.558443
0
LINE
8
1
10
4.721038
20
28.558443
11
4.343049
21
28.420992
0
LINE
8
1
10
4.343049
20
28.420992
11
4.171235
21
28.008640
0
LINE
8
1
10
4.171235
20
28.008640
11
4.343049
21
27.596089
0
LINE
8
1
10
4.343049
20
27.596089
11
4.721038
21
27.458572
0
LINE
8
1
10
4.721038
20
27.458572
11
5.099028
21
27.596089
0
LINE
8
1
10
5.099028
20
27.596089
11
5.270841
21
28.008640
0
LINE
8
1
10
4.067872
20
19.918052
11
4.667240
21
19.918052
0
LINE
8
1
10
4.667240
20
19.918052
11
4.667240
21
18.818446
0
LINE
8
1
10
4.667240
20
18.818446
11
4.067872
21
18.818446
0
LINE
8
1
10
4.067872
20
18.818446
11
4.067872
21
19.918052
0
LINE
8
1
10
4.671473
20
19.368073
11
4.499439
21
19.780425
0
LINE
8
1
10
4.499439
20
19.780425
11
4.120965
21
19.917876
0
LINE
8
1
10
4.120965
20
19.917876
11
3.742490
21
19.780425
0
LINE
8
1
10
3.742490
20
19.780425
11
3.570456
21
19.368073
0
LINE
8
1
10
3.570456
20
19.368073
11
3.742490
21
18.955721
0
LINE
8
1
10
3.742490
20
18.955721
11
4.120965
21
18.818270
0
LINE
8
1
10
4.120965
20
18.818270
11
4.499439
21
18.955721
0
LINE
8
1
10
4.499439
20
18.955721
11
4.671473
21
19.368073
0
LINE
8
1
10
4.671473
20
19.368073
11
4.499439
21
19.780425
0
LINE
8
1
10
4.499439
20
19.780425
11
4.120965
21
19.917876
0
LINE
8
1
10
4.120965
20
19.917876
11
3.742490
21
19.780425
0
LINE
8
1
10
3.742490
20
19.780425
11
3.570456
21
19.368073
0
LINE
8
1
10
3.570456
20
19.368073
11
3.742490
21
18.955721
0
LINE
8
1
10
3.742490
20
18.955721
11
4.120965
21
18.818270
0
LINE
8
1
10
4.120965
20
18.818270
11
4.499439
21
18.955721
0
LINE
8
1
10
4.499439
20
18.955721
11
4.671473
21
19.368073
0
LINE
8
1
10
5.270841
20
19.368073
11
5.099028
21
19.780425
0
LINE
8
1
10
5.099028
20
19.780425
11
4.721038
21
19.917876
0
LINE
8
1
10
4.721038
20
19.917876
11
4.343049
21
19.780425
0
LINE
8
1
10
4.343049
20
19.780425
11
4.171235
21
19.368073
0
LINE
8
1
10
4.171235
20
19.368073
11
4.343049
21
18.955721
0
LINE
8
1
10
4.343049
20
18.955721
11
4.721038
21
18.818270
0
LINE
8
1
10
4.721038
20
18.818270
11
5.099028
21
18.955721
0
LINE
8
1
10
5.099028
20
18.955721
11
5.270841
21
19.368073
0
LINE
8
1
10
5.270841
20
19.368073
11
5.099028
21
19.780425
0
LINE
8
1
10
5.099028
20
19.780425
11
4.721038
21
19.917876
0
LINE
8
1
10
4.721038
20
19.917876
11
4.343049
21
19.780425
0
LINE
8
1
10
4.343049
20
19.780425
11
4.171235
21
19.368073
0
LINE
8
1
10
4.171235
20
19.368073
11
4.343049
21
18.955721
0
LINE
8
1
10
4.343049
20
18.955721
11
4.721038
21
18.818270
0
LINE
8
1
10
4.721038
20
18.818270
11
5.099028
21
18.955721
0
LINE
8
1
10
5.099028
20
18.955721
11
5.270841
21
19.368073
0
LINE
8
1
10
36.100376
20
79.595221
11
38.695051
21
79.595221
0
LINE
8
1
10
38.695051
20
79.595221
11
38.695051
21
77.000546
0
LINE
8
1
10
38.695051
20
77.000546
11
36.100376
21
77.000546
0
LINE
8
1
10
36.100376
20
77.000546
11
36.100376
21
79.595221
0
LINE
8
1
10
8.656795
20
69.633504
11
10.056967
21
69.633504
0
LINE
8
1
10
10.056967
20
69.633504
11
10.056967
21
68.233332
0
LINE
8
1
10
10.056967
20
68.233332
11
8.656795
21
68.233332
0
LINE
8
1
10
8.656795
20
68.233332
11
8.656795
21
69.633504
 0 
ENDSEC
 0 
EOF