%TF.GenerationSoftware,KiCad,Pcbnew,7.0.8-7.0.8~ubuntu22.04.1*%
%TF.CreationDate,2023-10-06T08:27:00+03:00*%
%TF.ProjectId,Omarichet Sensor Board v1.5,4f6d6172-6963-4686-9574-2053656e736f,rev?*%
%TF.SameCoordinates,Original*%
%TF.FileFunction,Copper,L2,Bot*%
%TF.FilePolarity,Positive*%
%FSLAX46Y46*%
G04 Gerber Fmt 4.6, Leading zero omitted, Abs format (unit mm)*
G04 Created by KiCad (PCBNEW 7.0.8-7.0.8~ubuntu22.04.1) date 2023-10-06 08:27:00*
%MOMM*%
%LPD*%
G01*
G04 APERTURE LIST*
G04 Aperture macros list*
%AMRoundRect*
0 Rectangle with rounded corners*
0 $1 Rounding radius*
0 $2 $3 $4 $5 $6 $7 $8 $9 X,Y pos of 4 corners*
0 Add a 4 corners polygon primitive as box body*
4,1,4,$2,$3,$4,$5,$6,$7,$8,$9,$2,$3,0*
0 Add four circle primitives for the rounded corners*
1,1,$1+$1,$2,$3*
1,1,$1+$1,$4,$5*
1,1,$1+$1,$6,$7*
1,1,$1+$1,$8,$9*
0 Add four rect primitives between the rounded corners*
20,1,$1+$1,$2,$3,$4,$5,0*
20,1,$1+$1,$4,$5,$6,$7,0*
20,1,$1+$1,$6,$7,$8,$9,0*
20,1,$1+$1,$8,$9,$2,$3,0*%
G04 Aperture macros list end*
%TA.AperFunction,ComponentPad*%
%ADD10R,1.700000X1.700000*%
%TD*%
%TA.AperFunction,ComponentPad*%
%ADD11O,1.700000X1.700000*%
%TD*%
%TA.AperFunction,ComponentPad*%
%ADD12R,1.600000X1.600000*%
%TD*%
%TA.AperFunction,ComponentPad*%
%ADD13O,1.600000X1.600000*%
%TD*%
%TA.AperFunction,ComponentPad*%
%ADD14RoundRect,0.250000X-0.750000X0.600000X-0.750000X-0.600000X0.750000X-0.600000X0.750000X0.600000X0*%
%TD*%
%TA.AperFunction,ComponentPad*%
%ADD15O,2.000000X1.700000*%
%TD*%
%TA.AperFunction,ComponentPad*%
%ADD16RoundRect,0.250000X-0.725000X0.600000X-0.725000X-0.600000X0.725000X-0.600000X0.725000X0.600000X0*%
%TD*%
%TA.AperFunction,ComponentPad*%
%ADD17O,1.950000X1.700000*%
%TD*%
%TA.AperFunction,ComponentPad*%
%ADD18C,1.700000*%
%TD*%
%TA.AperFunction,ViaPad*%
%ADD19C,0.800000*%
%TD*%
%TA.AperFunction,Conductor*%
%ADD20C,0.500000*%
%TD*%
%TA.AperFunction,Conductor*%
%ADD21C,0.300000*%
%TD*%
%TA.AperFunction,Conductor*%
%ADD22C,0.250000*%
%TD*%
G04 APERTURE END LIST*
D10*
%TO.P,J8,1,Pin_1*%
%TO.N,CLK*%
X100445000Y-106645000D03*
D11*
%TO.P,J8,2,Pin_2*%
%TO.N,MISO*%
X100445000Y-109185000D03*
%TO.P,J8,3,Pin_3*%
%TO.N,+5V*%
X100445000Y-111725000D03*
%TO.P,J8,4,Pin_4*%
%TO.N,GND*%
X100445000Y-114265000D03*
%TO.P,J8,5,Pin_5*%
%TO.N,MOSI*%
X100445000Y-116805000D03*
%TO.P,J8,6,Pin_6*%
%TO.N,CS*%
X100445000Y-119345000D03*
%TD*%
D10*
%TO.P,J6,1,Pin_1*%
%TO.N,unconnected-(J6-Pin_1-Pad1)*%
X83455000Y-64560000D03*
D11*
%TO.P,J6,2,Pin_2*%
%TO.N,/EN*%
X83455000Y-67100000D03*
%TO.P,J6,3,Pin_3*%
%TO.N,unconnected-(J6-Pin_3-Pad3)*%
X83455000Y-69640000D03*
%TO.P,J6,4,Pin_4*%
%TO.N,unconnected-(J6-Pin_4-Pad4)*%
X83455000Y-72180000D03*
%TO.P,J6,5,Pin_5*%
%TO.N,TX*%
X83455000Y-74720000D03*
%TO.P,J6,6,Pin_6*%
%TO.N,RX*%
X83455000Y-77260000D03*
%TO.P,J6,7,Pin_7*%
%TO.N,GND*%
X83455000Y-79800000D03*
%TO.P,J6,8,Pin_8*%
%TO.N,+3.3V*%
X83455000Y-82340000D03*
%TO.P,J6,9,Pin_9*%
%TO.N,PPS*%
X83455000Y-84880000D03*
%TD*%
D10*
%TO.P,J2,1,Pin_1*%
%TO.N,GND*%
X107160000Y-94230000D03*
D11*
%TO.P,J2,2,Pin_2*%
%TO.N,DHTOUT*%
X109700000Y-94230000D03*
%TO.P,J2,3,Pin_3*%
%TO.N,+3.3V*%
X112240000Y-94230000D03*
%TD*%
D10*
%TO.P,J4,1,Pin_1*%
%TO.N,+3.3V*%
X121475000Y-64375000D03*
D11*
%TO.P,J4,2,Pin_2*%
%TO.N,GND*%
X121475000Y-66915000D03*
%TO.P,J4,3,Pin_3*%
%TO.N,SCL*%
X121475000Y-69455000D03*
%TO.P,J4,4,Pin_4*%
%TO.N,SDA*%
X121475000Y-71995000D03*
%TO.P,J4,5,Pin_5*%
%TO.N,unconnected-(J4-Pin_5-Pad5)*%
X121475000Y-74535000D03*
%TO.P,J4,6,Pin_6*%
%TO.N,unconnected-(J4-Pin_6-Pad6)*%
X121475000Y-77075000D03*
%TO.P,J4,7,Pin_7*%
%TO.N,ADO*%
X121475000Y-79615000D03*
%TO.P,J4,8,Pin_8*%
%TO.N,INT*%
X121475000Y-82155000D03*
%TD*%
D10*
%TO.P,J5,1,Pin_1*%
%TO.N,+3.3V*%
X132645000Y-89750000D03*
D11*
%TO.P,J5,2,Pin_2*%
%TO.N,GND*%
X130105000Y-89750000D03*
%TO.P,J5,3,Pin_3*%
%TO.N,SCL*%
X127565000Y-89750000D03*
%TO.P,J5,4,Pin_4*%
%TO.N,SDA*%
X125025000Y-89750000D03*
%TD*%
D10*
%TO.P,J1,1,Pin_1*%
%TO.N,+5V*%
X81900000Y-104320000D03*
D11*
%TO.P,J1,2,Pin_2*%
%TO.N,CH0*%
X81900000Y-106860000D03*
%TD*%
D12*
%TO.P,U1,1,CH0*%
%TO.N,CH0*%
X86940000Y-104070000D03*
D13*
%TO.P,U1,2,CH1*%
%TO.N,CH1*%
X86940000Y-106610000D03*
%TO.P,U1,3,CH2*%
%TO.N,CH2*%
X86940000Y-109150000D03*
%TO.P,U1,4,CH3*%
%TO.N,CH3*%
X86940000Y-111690000D03*
%TO.P,U1,5,CH4*%
%TO.N,CH4*%
X86940000Y-114230000D03*
%TO.P,U1,6,CH5*%
%TO.N,CH5*%
X86940000Y-116770000D03*
%TO.P,U1,7,CH6*%
%TO.N,unconnected-(U1-CH6-Pad7)*%
X86940000Y-119310000D03*
%TO.P,U1,8,CH7*%
%TO.N,unconnected-(U1-CH7-Pad8)*%
X86940000Y-121850000D03*
%TO.P,U1,9,DGND*%
%TO.N,GND*%
X94560000Y-121850000D03*
%TO.P,U1,10,~{CS}/SHDN*%
%TO.N,CS*%
X94560000Y-119310000D03*
%TO.P,U1,11,Din*%
%TO.N,MOSI*%
X94560000Y-116770000D03*
%TO.P,U1,12,Dout*%
%TO.N,MISO*%
X94560000Y-114230000D03*
%TO.P,U1,13,CLK*%
%TO.N,CLK*%
X94560000Y-111690000D03*
%TO.P,U1,14,AGND*%
%TO.N,GND*%
X94560000Y-109150000D03*
%TO.P,U1,15,Vref*%
%TO.N,+5V*%
X94560000Y-106610000D03*
%TO.P,U1,16,Vdd*%
X94560000Y-104070000D03*
%TD*%
D10*
%TO.P,J10,1,Pin_1*%
%TO.N,TXI_CLK*%
X115665000Y-106645000D03*
D11*
%TO.P,J10,2,Pin_2*%
%TO.N,RXO_MISO*%
X115665000Y-109185000D03*
%TO.P,J10,3,Pin_3*%
%TO.N,+3.3V*%
X115665000Y-111725000D03*
%TO.P,J10,4,Pin_4*%
%TO.N,GND*%
X115665000Y-114265000D03*
%TO.P,J10,5,Pin_5*%
%TO.N,RXO1_MOSI*%
X115665000Y-116805000D03*
%TO.P,J10,6,Pin_6*%
%TO.N,TXI1_CS*%
X115665000Y-119345000D03*
%TD*%
D10*
%TO.P,J7,1,Pin_1*%
%TO.N,+5V*%
X86160000Y-92095000D03*
D11*
%TO.P,J7,2,Pin_2*%
%TO.N,GND*%
X86160000Y-94635000D03*
%TO.P,J7,3,Pin_3*%
%TO.N,CH3*%
X86160000Y-97175000D03*
%TD*%
D10*
%TO.P,J3,1,Pin_1*%
%TO.N,+3.3V*%
X123600000Y-101960000D03*
D11*
%TO.P,J3,2,Pin_2*%
%TO.N,GND*%
X126140000Y-101960000D03*
%TO.P,J3,3,Pin_3*%
%TO.N,SCL*%
X128680000Y-101960000D03*
%TO.P,J3,4,Pin_4*%
%TO.N,SDA*%
X131220000Y-101960000D03*
%TO.P,J3,5,Pin_5*%
%TO.N,unconnected-(J3-Pin_5-Pad5)*%
X133760000Y-101960000D03*
%TD*%
D14*
%TO.P,J12,1,Pin_1*%
%TO.N,GND*%
X143450000Y-115960000D03*
D15*
%TO.P,J12,2,Pin_2*%
%TO.N,+5V*%
X143450000Y-118460000D03*
%TD*%
D16*
%TO.P,J11,1,Pin_1*%
%TO.N,CH4*%
X75900000Y-73150000D03*
D17*
%TO.P,J11,2,Pin_2*%
%TO.N,CH2*%
X75900000Y-75650000D03*
%TO.P,J11,3,Pin_3*%
%TO.N,CH1*%
X75900000Y-78150000D03*
%TD*%
D10*
%TO.P,J9,1,Pin_1*%
%TO.N,+3.3V*%
X139250000Y-128320000D03*
D11*
%TO.P,J9,2,Pin_2*%
%TO.N,+5V*%
X139250000Y-130860000D03*
%TO.P,J9,3,Pin_3*%
%TO.N,SDA*%
X136710000Y-128320000D03*
%TO.P,J9,4,Pin_4*%
%TO.N,unconnected-(J9-Pin_4-Pad4)*%
X136710000Y-130860000D03*
%TO.P,J9,5,Pin_5*%
%TO.N,SCL*%
X134170000Y-128320000D03*
D18*
%TO.P,J9,6,Pin_6*%
%TO.N,GND*%
X134170000Y-130860000D03*
D11*
%TO.P,J9,7,Pin_7*%
%TO.N,unconnected-(J9-Pin_7-Pad7)*%
X131630000Y-128320000D03*
%TO.P,J9,8,Pin_8*%
%TO.N,TX*%
X131630000Y-130860000D03*
%TO.P,J9,9,Pin_9*%
%TO.N,GND*%
X129090000Y-128320000D03*
%TO.P,J9,10,Pin_10*%
%TO.N,RX*%
X129090000Y-130860000D03*
%TO.P,J9,11,Pin_11*%
%TO.N,INT*%
X126550000Y-128320000D03*
%TO.P,J9,12,Pin_12*%
%TO.N,unconnected-(J9-Pin_12-Pad12)*%
X126550000Y-130860000D03*
%TO.P,J9,13,Pin_13*%
%TO.N,ADO*%
X124010000Y-128320000D03*
%TO.P,J9,14,Pin_14*%
%TO.N,unconnected-(J9-Pin_14-Pad14)*%
X124010000Y-130860000D03*
%TO.P,J9,15,Pin_15*%
%TO.N,DHTOUT*%
X121470000Y-128320000D03*
%TO.P,J9,16,Pin_16*%
%TO.N,PPS*%
X121470000Y-130860000D03*
%TO.P,J9,17,Pin_17*%
%TO.N,unconnected-(J9-Pin_17-Pad17)*%
X118930000Y-128320000D03*
%TO.P,J9,18,Pin_18*%
%TO.N,unconnected-(J9-Pin_18-Pad18)*%
X118930000Y-130860000D03*
%TO.P,J9,19,Pin_19*%
%TO.N,RXO1_MOSI*%
X116390000Y-128320000D03*
%TO.P,J9,20,Pin_20*%
%TO.N,unconnected-(J9-Pin_20-Pad20)*%
X116390000Y-130860000D03*
%TO.P,J9,21,Pin_21*%
%TO.N,RXO_MISO*%
X113850000Y-128320000D03*
%TO.P,J9,22,Pin_22*%
%TO.N,unconnected-(J9-Pin_22-Pad22)*%
X113850000Y-130860000D03*
%TO.P,J9,23,Pin_23*%
%TO.N,TXI_CLK*%
X111310000Y-128320000D03*
%TO.P,J9,24,Pin_24*%
%TO.N,unconnected-(J9-Pin_24-Pad24)*%
X111310000Y-130860000D03*
%TO.P,J9,25,Pin_25*%
%TO.N,unconnected-(J9-Pin_25-Pad25)*%
X108770000Y-128320000D03*
%TO.P,J9,26,Pin_26*%
%TO.N,unconnected-(J9-Pin_26-Pad26)*%
X108770000Y-130860000D03*
%TO.P,J9,27,Pin_27*%
%TO.N,unconnected-(J9-Pin_27-Pad27)*%
X106230000Y-128320000D03*
%TO.P,J9,28,Pin_28*%
%TO.N,unconnected-(J9-Pin_28-Pad28)*%
X106230000Y-130860000D03*
%TO.P,J9,29,Pin_29*%
%TO.N,OE*%
X103690000Y-128320000D03*
%TO.P,J9,30,Pin_30*%
%TO.N,unconnected-(J9-Pin_30-Pad30)*%
X103690000Y-130860000D03*
%TO.P,J9,31,Pin_31*%
%TO.N,unconnected-(J9-Pin_31-Pad31)*%
X101150000Y-128320000D03*
%TO.P,J9,32,Pin_32*%
%TO.N,unconnected-(J9-Pin_32-Pad32)*%
X101150000Y-130860000D03*
%TO.P,J9,33,Pin_33*%
%TO.N,unconnected-(J9-Pin_33-Pad33)*%
X98610000Y-128320000D03*
%TO.P,J9,34,Pin_34*%
%TO.N,unconnected-(J9-Pin_34-Pad34)*%
X98610000Y-130860000D03*
%TO.P,J9,35,Pin_35*%
%TO.N,unconnected-(J9-Pin_35-Pad35)*%
X96070000Y-128320000D03*
%TO.P,J9,36,Pin_36*%
%TO.N,unconnected-(J9-Pin_36-Pad36)*%
X96070000Y-130860000D03*
%TO.P,J9,37,Pin_37*%
%TO.N,TXI1_CS*%
X93530000Y-128320000D03*
%TO.P,J9,38,Pin_38*%
%TO.N,unconnected-(J9-Pin_38-Pad38)*%
X93530000Y-130860000D03*
%TO.P,J9,39,Pin_39*%
%TO.N,GND*%
X90990000Y-128320000D03*
%TO.P,J9,40,Pin_40*%
%TO.N,unconnected-(J9-Pin_40-Pad40)*%
X90990000Y-130860000D03*
%TD*%
D19*
%TO.N,+5V*%
X74890000Y-105350000D03*
%TO.N,GND*%
X80170000Y-111420000D03*
X98980000Y-102180000D03*
X144018000Y-126746000D03*
%TO.N,+3.3V*%
X122350000Y-98560000D03*
X117950000Y-111730000D03*
X117620000Y-98560000D03*
X131270000Y-111530000D03*
X123952000Y-111760000D03*
%TO.N,SDA*%
X130420000Y-95490000D03*
X127640000Y-95550000D03*
%TO.N,TXI1_CS*%
X111260000Y-123420000D03*
X104430000Y-123380000D03*
%TD*%
D20*
%TO.N,+5V*%
X143450000Y-118460000D02*
X146060000Y-121070000D01*
X74890000Y-105350000D02*
X75920000Y-104320000D01*
X146060000Y-121070000D02*
X146060000Y-127210000D01*
X146060000Y-127210000D02*
X142410000Y-130860000D01*
X142410000Y-130860000D02*
X139250000Y-130860000D01*
X75920000Y-104320000D02*
X81900000Y-104320000D01*
%TO.N,+3.3V*%
X131100000Y-111700000D02*
X131270000Y-111530000D01*
X122400000Y-111700000D02*
X131100000Y-111700000D01*
X122370000Y-111730000D02*
X122400000Y-111700000D01*
X122350000Y-98560000D02*
X117620000Y-98560000D01*
X117950000Y-111730000D02*
X122370000Y-111730000D01*
D21*
%TO.N,SDA*%
X130360000Y-95550000D02*
X130420000Y-95490000D01*
X127640000Y-95550000D02*
X130360000Y-95550000D01*
%TO.N,TXI1_CS*%
X111260000Y-123420000D02*
X104470000Y-123420000D01*
X104470000Y-123420000D02*
X104430000Y-123380000D01*
D22*
%TO.N,CH1*%
X86140000Y-106610000D02*
X86940000Y-106610000D01*
X84510000Y-100130000D02*
X84510000Y-104980000D01*
D20*
X86060000Y-106710000D02*
X86060000Y-106410000D01*
D22*
X74930000Y-91170000D02*
X81550000Y-97790000D01*
X74930000Y-79120000D02*
X74930000Y-91170000D01*
D20*
X86740000Y-106410000D02*
X86940000Y-106610000D01*
D22*
X84510000Y-104980000D02*
X86140000Y-106610000D01*
D20*
X86060000Y-106410000D02*
X86740000Y-106410000D01*
D22*
X82170000Y-97790000D02*
X84510000Y-100130000D01*
X75900000Y-78150000D02*
X74930000Y-79120000D01*
X81550000Y-97790000D02*
X82170000Y-97790000D01*
%TO.N,CH2*%
X86170000Y-109150000D02*
X86940000Y-109150000D01*
X73370000Y-93020000D02*
X76660000Y-96310000D01*
X83730000Y-106710000D02*
X86170000Y-109150000D01*
X73370000Y-78380000D02*
X73370000Y-93020000D01*
X83730000Y-101220000D02*
X83730000Y-106710000D01*
X76660000Y-96310000D02*
X78820000Y-96310000D01*
X78820000Y-96310000D02*
X83730000Y-101220000D01*
X76000000Y-75750000D02*
X73370000Y-78380000D01*
%TO.N,CH4*%
X75900000Y-73150000D02*
X74360000Y-73150000D01*
X71430000Y-109430000D02*
X76230000Y-114230000D01*
X76230000Y-114230000D02*
X86940000Y-114230000D01*
X71430000Y-76080000D02*
X71430000Y-109430000D01*
X74360000Y-73150000D02*
X71430000Y-76080000D01*
%TD*%
%TA.AperFunction,Conductor*%
%TO.N,GND*%
G36*
X145610895Y-61103402D02*
G01*
X145761349Y-61110809D01*
X145969757Y-61121755D01*
X145975554Y-61122337D01*
X146149309Y-61148164D01*
X146334466Y-61177551D01*
X146339829Y-61178648D01*
X146514386Y-61222464D01*
X146691641Y-61270059D01*
X146696421Y-61271554D01*
X146867638Y-61332950D01*
X147037519Y-61398303D01*
X147041776Y-61400128D01*
X147207132Y-61478513D01*
X147368586Y-61560969D01*
X147372319Y-61563041D01*
X147529734Y-61657621D01*
X147681461Y-61756400D01*
X147684592Y-61758580D01*
X147761806Y-61815997D01*
X147832365Y-61868466D01*
X147972863Y-61982554D01*
X147975461Y-61984785D01*
X148110852Y-62107857D01*
X148113034Y-62109941D01*
X148239826Y-62237128D01*
X148241925Y-62239340D01*
X148364551Y-62375086D01*
X148366785Y-62377702D01*
X148480430Y-62518548D01*
X148589848Y-62666652D01*
X148592045Y-62669829D01*
X148690324Y-62821818D01*
X148784435Y-62979561D01*
X148786495Y-62983301D01*
X148868439Y-63144995D01*
X148946304Y-63310583D01*
X148948133Y-63314886D01*
X149012945Y-63484936D01*
X149030057Y-63533129D01*
X149068007Y-63640008D01*
X149073795Y-63656307D01*
X149075298Y-63661163D01*
X149122346Y-63838582D01*
X149165604Y-64013218D01*
X149166687Y-64018600D01*
X149195507Y-64203909D01*
X149220782Y-64377678D01*
X149221352Y-64383538D01*
X149231216Y-64582612D01*
X149238643Y-64743669D01*
X149238709Y-64746649D01*
X149238614Y-64794462D01*
X149238757Y-64795787D01*
X149287810Y-123993255D01*
X149289587Y-138297027D01*
X149289502Y-138300279D01*
X149281888Y-138445575D01*
X149281302Y-138451431D01*
X149256256Y-138620278D01*
X149228493Y-138795562D01*
X149227398Y-138800929D01*
X149185099Y-138969801D01*
X149139943Y-139138321D01*
X149138431Y-139143163D01*
X149079285Y-139308467D01*
X149017163Y-139470300D01*
X149015328Y-139474591D01*
X148939877Y-139634121D01*
X148861402Y-139788134D01*
X148859339Y-139791861D01*
X148768316Y-139943725D01*
X148674278Y-140088529D01*
X148672079Y-140091695D01*
X148566359Y-140234244D01*
X148457677Y-140368453D01*
X148455433Y-140371073D01*
X148337086Y-140501648D01*
X148334987Y-140503852D01*
X148213852Y-140624987D01*
X148211648Y-140627086D01*
X148081073Y-140745433D01*
X148078453Y-140747677D01*
X147944244Y-140856359D01*
X147801695Y-140962079D01*
X147798529Y-140964278D01*
X147653725Y-141058316D01*
X147501861Y-141149339D01*
X147498134Y-141151402D01*
X147344121Y-141229877D01*
X147184591Y-141305328D01*
X147180300Y-141307163D01*
X147018467Y-141369285D01*
X146853163Y-141428431D01*
X146848321Y-141429943D01*
X146679801Y-141475099D01*
X146510929Y-141517398D01*
X146505562Y-141518493D01*
X146330278Y-141546256D01*
X146161431Y-141571302D01*
X146155575Y-141571888D01*
X145962353Y-141582015D01*
X145811500Y-141589425D01*
X145808491Y-141589500D01*
X115788169Y-141605840D01*
X71897573Y-141600389D01*
X71879393Y-141599047D01*
X71786305Y-141585239D01*
X71604265Y-141556406D01*
X71598898Y-141555311D01*
X71426118Y-141512033D01*
X71251687Y-141465293D01*
X71246845Y-141463781D01*
X71077484Y-141403183D01*
X70910188Y-141338964D01*
X70905897Y-141337128D01*
X70742365Y-141259784D01*
X70583248Y-141178710D01*
X70579542Y-141176659D01*
X70423788Y-141083303D01*
X70274249Y-140986191D01*
X70271083Y-140983992D01*
X70124869Y-140875553D01*
X69986306Y-140763348D01*
X69983687Y-140761103D01*
X69849710Y-140639674D01*
X69847506Y-140637575D01*
X69722423Y-140512492D01*
X69720324Y-140510288D01*
X69712493Y-140501648D01*
X69598895Y-140376311D01*
X69596650Y-140373692D01*
X69594529Y-140371073D01*
X69561143Y-140329845D01*
X69484446Y-140235130D01*
X69376006Y-140088915D01*
X69373807Y-140085749D01*
X69292469Y-139960500D01*
X69276694Y-139936208D01*
X69276376Y-139935677D01*
X69183342Y-139780459D01*
X69181301Y-139776774D01*
X69100218Y-139617641D01*
X69022870Y-139454101D01*
X69021042Y-139449828D01*
X68956822Y-139282531D01*
X68896210Y-139113133D01*
X68894705Y-139108311D01*
X68857591Y-138969801D01*
X68847966Y-138933879D01*
X68804680Y-138761076D01*
X68803596Y-138755757D01*
X68774767Y-138573738D01*
X68774109Y-138569305D01*
X68755230Y-138442031D01*
X68751342Y-138415818D01*
X68750000Y-138397623D01*
X68750000Y-138167763D01*
X70405787Y-138167763D01*
X70435413Y-138437013D01*
X70435415Y-138437024D01*
X70472615Y-138579314D01*
X70503928Y-138699088D01*
X70609870Y-138948390D01*
X70707469Y-139108311D01*
X70750979Y-139179605D01*
X70750986Y-139179615D01*
X70924253Y-139387819D01*
X70924259Y-139387824D01*
X70993460Y-139449828D01*
X71125998Y-139568582D01*
X71351910Y-139718044D01*
X71597176Y-139833020D01*
X71597183Y-139833022D01*
X71597185Y-139833023D01*
X71856557Y-139911057D01*
X71856564Y-139911058D01*
X71856569Y-139911060D01*
X72124561Y-139950500D01*
X72124566Y-139950500D01*
X72327636Y-139950500D01*
X72379133Y-139946730D01*
X72530156Y-139935677D01*
X72705399Y-139896640D01*
X72794546Y-139876782D01*
X72794548Y-139876781D01*
X72794553Y-139876780D01*
X73047558Y-139780014D01*
X73283777Y-139647441D01*
X73498177Y-139481888D01*
X73686186Y-139286881D01*
X73843799Y-139066579D01*
X73922517Y-138913472D01*
X73967649Y-138825690D01*
X73967651Y-138825684D01*
X73967656Y-138825675D01*
X74055118Y-138569305D01*
X74104319Y-138302933D01*
X74108893Y-138177763D01*
X143915787Y-138177763D01*
X143945413Y-138447013D01*
X143945415Y-138447024D01*
X144013926Y-138709082D01*
X144013928Y-138709088D01*
X144119870Y-138958390D01*
X144211366Y-139108311D01*
X144260979Y-139189605D01*
X144260986Y-139189615D01*
X144434253Y-139397819D01*
X144434259Y-139397824D01*
X144528081Y-139481888D01*
X144635998Y-139578582D01*
X144861910Y-139728044D01*
X145107176Y-139843020D01*
X145107183Y-139843022D01*
X145107185Y-139843023D01*
X145366557Y-139921057D01*
X145366564Y-139921058D01*
X145366569Y-139921060D01*
X145634561Y-139960500D01*
X145634566Y-139960500D01*
X145837636Y-139960500D01*
X145889133Y-139956730D01*
X146040156Y-139945677D01*
X146195557Y-139911060D01*
X146304546Y-139886782D01*
X146304548Y-139886781D01*
X146304553Y-139886780D01*
X146557558Y-139790014D01*
X146793777Y-139657441D01*
X147008177Y-139491888D01*
X147196186Y-139296881D01*
X147353799Y-139076579D01*
X147437658Y-138913472D01*
X147477649Y-138835690D01*
X147477651Y-138835684D01*
X147477656Y-138835675D01*
X147565118Y-138579305D01*
X147614319Y-138312933D01*
X147624212Y-138042235D01*
X147594586Y-137772982D01*
X147526072Y-137510912D01*
X147420130Y-137261610D01*
X147279018Y-137030390D01*
X147189747Y-136923119D01*
X147105746Y-136822180D01*
X147105740Y-136822175D01*
X146904002Y-136641418D01*
X146678092Y-136491957D01*
X146656758Y-136481956D01*
X146432824Y-136376980D01*
X146432819Y-136376978D01*
X146432814Y-136376976D01*
X146173442Y-136298942D01*
X146173428Y-136298939D01*
X146057791Y-136281921D01*
X145905439Y-136259500D01*
X145702369Y-136259500D01*
X145702364Y-136259500D01*
X145499844Y-136274323D01*
X145499831Y-136274325D01*
X145235453Y-136333217D01*
X145235446Y-136333220D01*
X144982439Y-136429987D01*
X144746226Y-136562557D01*
X144531822Y-136728112D01*
X144343822Y-136923109D01*
X144343816Y-136923116D01*
X144186202Y-137143419D01*
X144186199Y-137143424D01*
X144062350Y-137384309D01*
X144062343Y-137384327D01*
X143974884Y-137640685D01*
X143974881Y-137640699D01*
X143925681Y-137907068D01*
X143925680Y-137907075D01*
X143915787Y-138177763D01*
X74108893Y-138177763D01*
X74114212Y-138032235D01*
X74084586Y-137762982D01*
X74016072Y-137500912D01*
X73910130Y-137251610D01*
X73769018Y-137020390D01*
X73688069Y-136923119D01*
X73595746Y-136812180D01*
X73595740Y-136812175D01*
X73394002Y-136631418D01*
X73168092Y-136481957D01*
X73168090Y-136481956D01*
X72922824Y-136366980D01*
X72922819Y-136366978D01*
X72922814Y-136366976D01*
X72663442Y-136288942D01*
X72663428Y-136288939D01*
X72547791Y-136271921D01*
X72395439Y-136249500D01*
X72192369Y-136249500D01*
X72192364Y-136249500D01*
X71989844Y-136264323D01*
X71989831Y-136264325D01*
X71725453Y-136323217D01*
X71725446Y-136323220D01*
X71472439Y-136419987D01*
X71236226Y-136552557D01*
X71236224Y-136552558D01*
X71236223Y-136552559D01*
X71173893Y-136600688D01*
X71021822Y-136718112D01*
X70833822Y-136913109D01*
X70833816Y-136913116D01*
X70676202Y-137133419D01*
X70676199Y-137133424D01*
X70552350Y-137374309D01*
X70552343Y-137374327D01*
X70464884Y-137630685D01*
X70464881Y-137630699D01*
X70415681Y-137897068D01*
X70415680Y-137897075D01*
X70405787Y-138167763D01*
X68750000Y-138167763D01*
X68750000Y-128570000D01*
X89659364Y-128570000D01*
X89716567Y-128783486D01*
X89716570Y-128783492D01*
X89816399Y-128997578D01*
X89951894Y-129191082D01*
X90118917Y-129358105D01*
X90312421Y-129493600D01*
X90511573Y-129586466D01*
X90564012Y-129632638D01*
X90583164Y-129699832D01*
X90562948Y-129766713D01*
X90509783Y-129812048D01*
X90503968Y-129814472D01*
X90496771Y-129817260D01*
X90474982Y-129825701D01*
X90474980Y-129825702D01*
X90293699Y-129937947D01*
X90136127Y-130081593D01*
X90007632Y-130251746D01*
X89912596Y-130442605D01*
X89912596Y-130442607D01*
X89912595Y-130442611D01*
X89854244Y-130647690D01*
X89834571Y-130860000D01*
X89854244Y-131072310D01*
X89910909Y-131271465D01*
X89912596Y-131277392D01*
X89912596Y-131277394D01*
X90007632Y-131468253D01*
X90123264Y-131621373D01*
X90136128Y-131638407D01*
X90293698Y-131782052D01*
X90474981Y-131894298D01*
X90673802Y-131971321D01*
X90883390Y-132010500D01*
X90883392Y-132010500D01*
X91096608Y-132010500D01*
X91096610Y-132010500D01*
X91306198Y-131971321D01*
X91505019Y-131894298D01*
X91686302Y-131782052D01*
X91843872Y-131638407D01*
X91972366Y-131468255D01*
X91999998Y-131412762D01*
X92067403Y-131277394D01*
X92067403Y-131277393D01*
X92067405Y-131277389D01*
X92125756Y-131072310D01*
X92136529Y-130956047D01*
X92162315Y-130891111D01*
X92206869Y-130859194D01*
X92170497Y-130838331D01*
X92138307Y-130776318D01*
X92136529Y-130763951D01*
X92135849Y-130756613D01*
X92125756Y-130647690D01*
X92067405Y-130442611D01*
X92067403Y-130442606D01*
X92067403Y-130442605D01*
X91972367Y-130251746D01*
X91843872Y-130081593D01*
X91686302Y-129937948D01*
X91505019Y-129825702D01*
X91505014Y-129825700D01*
X91498129Y-129823032D01*
X91476037Y-129814474D01*
X91420636Y-129771903D01*
X91397045Y-129706136D01*
X91412756Y-129638056D01*
X91462779Y-129589276D01*
X91468426Y-129586466D01*
X91667578Y-129493599D01*
X91861082Y-129358105D01*
X92028105Y-129191082D01*
X92163600Y-128997578D01*
X92257294Y-128796651D01*
X92303466Y-128744212D01*
X92370660Y-128725060D01*
X92437541Y-128745276D01*
X92480676Y-128793785D01*
X92547632Y-128928253D01*
X92663264Y-129081373D01*
X92676128Y-129098407D01*
X92833698Y-129242052D01*
X93014981Y-129354298D01*
X93213802Y-129431321D01*
X93410613Y-129468111D01*
X93472893Y-129499779D01*
X93508166Y-129560092D01*
X93505232Y-129629900D01*
X93465023Y-129687040D01*
X93410613Y-129711888D01*
X93213802Y-129748679D01*
X93213799Y-129748679D01*
X93213799Y-129748680D01*
X93014982Y-129825701D01*
X93014980Y-129825702D01*
X92833699Y-129937947D01*
X92676127Y-130081593D01*
X92547632Y-130251746D01*
X92452596Y-130442605D01*
X92452596Y-130442607D01*
X92394244Y-130647689D01*
X92383471Y-130763951D01*
X92357685Y-130828888D01*
X92313130Y-130860804D01*
X92349503Y-130881668D01*
X92381693Y-130943681D01*
X92383470Y-130956047D01*
X92394244Y-131072310D01*
X92450909Y-131271465D01*
X92452596Y-131277392D01*
X92452596Y-131277394D01*
X92547632Y-131468253D01*
X92663264Y-131621373D01*
X92676128Y-131638407D01*
X92833698Y-131782052D01*
X93014981Y-131894298D01*
X93213802Y-131971321D01*
X93423390Y-132010500D01*
X93423392Y-132010500D01*
X93636608Y-132010500D01*
X93636610Y-132010500D01*
X93846198Y-131971321D01*
X94045019Y-131894298D01*
X94226302Y-131782052D01*
X94383872Y-131638407D01*
X94512366Y-131468255D01*
X94539998Y-131412762D01*
X94607403Y-131277394D01*
X94607403Y-131277393D01*
X94607405Y-131277389D01*
X94665756Y-131072310D01*
X94676529Y-130956047D01*
X94702315Y-130891111D01*
X94744622Y-130860804D01*
X94853130Y-130860804D01*
X94889503Y-130881668D01*
X94921693Y-130943681D01*
X94923470Y-130956047D01*
X94934244Y-131072310D01*
X94990909Y-131271465D01*
X94992596Y-131277392D01*
X94992596Y-131277394D01*
X95087632Y-131468253D01*
X95203264Y-131621373D01*
X95216128Y-131638407D01*
X95373698Y-131782052D01*
X95554981Y-131894298D01*
X95753802Y-131971321D01*
X95963390Y-132010500D01*
X95963392Y-132010500D01*
X96176608Y-132010500D01*
X96176610Y-132010500D01*
X96386198Y-131971321D01*
X96585019Y-131894298D01*
X96766302Y-131782052D01*
X96923872Y-131638407D01*
X97052366Y-131468255D01*
X97079998Y-131412762D01*
X97147403Y-131277394D01*
X97147403Y-131277393D01*
X97147405Y-131277389D01*
X97205756Y-131072310D01*
X97216529Y-130956047D01*
X97242315Y-130891111D01*
X97284622Y-130860804D01*
X97393130Y-130860804D01*
X97429503Y-130881668D01*
X97461693Y-130943681D01*
X97463470Y-130956047D01*
X97474244Y-131072310D01*
X97530909Y-131271465D01*
X97532596Y-131277392D01*
X97532596Y-131277394D01*
X97627632Y-131468253D01*
X97743264Y-131621373D01*
X97756128Y-131638407D01*
X97913698Y-131782052D01*
X98094981Y-131894298D01*
X98293802Y-131971321D01*
X98503390Y-132010500D01*
X98503392Y-132010500D01*
X98716608Y-132010500D01*
X98716610Y-132010500D01*
X98926198Y-131971321D01*
X99125019Y-131894298D01*
X99306302Y-131782052D01*
X99463872Y-131638407D01*
X99592366Y-131468255D01*
X99619998Y-131412762D01*
X99687403Y-131277394D01*
X99687403Y-131277393D01*
X99687405Y-131277389D01*
X99745756Y-131072310D01*
X99756529Y-130956047D01*
X99782315Y-130891111D01*
X99824622Y-130860804D01*
X99933130Y-130860804D01*
X99969503Y-130881668D01*
X100001693Y-130943681D01*
X100003470Y-130956047D01*
X100014244Y-131072310D01*
X100070909Y-131271465D01*
X100072596Y-131277392D01*
X100072596Y-131277394D01*
X100167632Y-131468253D01*
X100283264Y-131621373D01*
X100296128Y-131638407D01*
X100453698Y-131782052D01*
X100634981Y-131894298D01*
X100833802Y-131971321D01*
X101043390Y-132010500D01*
X101043392Y-132010500D01*
X101256608Y-132010500D01*
X101256610Y-132010500D01*
X101466198Y-131971321D01*
X101665019Y-131894298D01*
X101846302Y-131782052D01*
X102003872Y-131638407D01*
X102132366Y-131468255D01*
X102159998Y-131412762D01*
X102227403Y-131277394D01*
X102227403Y-131277393D01*
X102227405Y-131277389D01*
X102285756Y-131072310D01*
X102296529Y-130956047D01*
X102322315Y-130891111D01*
X102364622Y-130860804D01*
X102473130Y-130860804D01*
X102509503Y-130881668D01*
X102541693Y-130943681D01*
X102543470Y-130956047D01*
X102554244Y-131072310D01*
X102610909Y-131271465D01*
X102612596Y-131277392D01*
X102612596Y-131277394D01*
X102707632Y-131468253D01*
X102823264Y-131621373D01*
X102836128Y-131638407D01*
X102993698Y-131782052D01*
X103174981Y-131894298D01*
X103373802Y-131971321D01*
X103583390Y-132010500D01*
X103583392Y-132010500D01*
X103796608Y-132010500D01*
X103796610Y-132010500D01*
X104006198Y-131971321D01*
X104205019Y-131894298D01*
X104386302Y-131782052D01*
X104543872Y-131638407D01*
X104672366Y-131468255D01*
X104699998Y-131412762D01*
X104767403Y-131277394D01*
X104767403Y-131277393D01*
X104767405Y-131277389D01*
X104825756Y-131072310D01*
X104836529Y-130956047D01*
X104862315Y-130891111D01*
X104904622Y-130860804D01*
X105013130Y-130860804D01*
X105049503Y-130881668D01*
X105081693Y-130943681D01*
X105083470Y-130956047D01*
X105094244Y-131072310D01*
X105150909Y-131271465D01*
X105152596Y-131277392D01*
X105152596Y-131277394D01*
X105247632Y-131468253D01*
X105363264Y-131621373D01*
X105376128Y-131638407D01*
X105533698Y-131782052D01*
X105714981Y-131894298D01*
X105913802Y-131971321D01*
X106123390Y-132010500D01*
X106123392Y-132010500D01*
X106336608Y-132010500D01*
X106336610Y-132010500D01*
X106546198Y-131971321D01*
X106745019Y-131894298D01*
X106926302Y-131782052D01*
X107083872Y-131638407D01*
X107212366Y-131468255D01*
X107239998Y-131412762D01*
X107307403Y-131277394D01*
X107307403Y-131277393D01*
X107307405Y-131277389D01*
X107365756Y-131072310D01*
X107376529Y-130956047D01*
X107402315Y-130891111D01*
X107444622Y-130860804D01*
X107553130Y-130860804D01*
X107589503Y-130881668D01*
X107621693Y-130943681D01*
X107623470Y-130956047D01*
X107634244Y-131072310D01*
X107690909Y-131271465D01*
X107692596Y-131277392D01*
X107692596Y-131277394D01*
X107787632Y-131468253D01*
X107903264Y-131621373D01*
X107916128Y-131638407D01*
X108073698Y-131782052D01*
X108254981Y-131894298D01*
X108453802Y-131971321D01*
X108663390Y-132010500D01*
X108663392Y-132010500D01*
X108876608Y-132010500D01*
X108876610Y-132010500D01*
X109086198Y-131971321D01*
X109285019Y-131894298D01*
X109466302Y-131782052D01*
X109623872Y-131638407D01*
X109752366Y-131468255D01*
X109779998Y-131412762D01*
X109847403Y-131277394D01*
X109847403Y-131277393D01*
X109847405Y-131277389D01*
X109905756Y-131072310D01*
X109916529Y-130956047D01*
X109942315Y-130891111D01*
X109984622Y-130860804D01*
X110093130Y-130860804D01*
X110129503Y-130881668D01*
X110161693Y-130943681D01*
X110163470Y-130956047D01*
X110174244Y-131072310D01*
X110230909Y-131271465D01*
X110232596Y-131277392D01*
X110232596Y-131277394D01*
X110327632Y-131468253D01*
X110443264Y-131621373D01*
X110456128Y-131638407D01*
X110613698Y-131782052D01*
X110794981Y-131894298D01*
X110993802Y-131971321D01*
X111203390Y-132010500D01*
X111203392Y-132010500D01*
X111416608Y-132010500D01*
X111416610Y-132010500D01*
X111626198Y-131971321D01*
X111825019Y-131894298D01*
X112006302Y-131782052D01*
X112163872Y-131638407D01*
X112292366Y-131468255D01*
X112319998Y-131412762D01*
X112387403Y-131277394D01*
X112387403Y-131277393D01*
X112387405Y-131277389D01*
X112445756Y-131072310D01*
X112456529Y-130956047D01*
X112482315Y-130891111D01*
X112524622Y-130860804D01*
X112633130Y-130860804D01*
X112669503Y-130881668D01*
X112701693Y-130943681D01*
X112703470Y-130956047D01*
X112714244Y-131072310D01*
X112770909Y-131271465D01*
X112772596Y-131277392D01*
X112772596Y-131277394D01*
X112867632Y-131468253D01*
X112983264Y-131621373D01*
X112996128Y-131638407D01*
X113153698Y-131782052D01*
X113334981Y-131894298D01*
X113533802Y-131971321D01*
X113743390Y-132010500D01*
X113743392Y-132010500D01*
X113956608Y-132010500D01*
X113956610Y-132010500D01*
X114166198Y-131971321D01*
X114365019Y-131894298D01*
X114546302Y-131782052D01*
X114703872Y-131638407D01*
X114832366Y-131468255D01*
X114859998Y-131412762D01*
X114927403Y-131277394D01*
X114927403Y-131277393D01*
X114927405Y-131277389D01*
X114985756Y-131072310D01*
X114996529Y-130956047D01*
X115022315Y-130891111D01*
X115064622Y-130860804D01*
X115173130Y-130860804D01*
X115209503Y-130881668D01*
X115241693Y-130943681D01*
X115243470Y-130956047D01*
X115254244Y-131072310D01*
X115310909Y-131271465D01*
X115312596Y-131277392D01*
X115312596Y-131277394D01*
X115407632Y-131468253D01*
X115523264Y-131621373D01*
X115536128Y-131638407D01*
X115693698Y-131782052D01*
X115874981Y-131894298D01*
X116073802Y-131971321D01*
X116283390Y-132010500D01*
X116283392Y-132010500D01*
X116496608Y-132010500D01*
X116496610Y-132010500D01*
X116706198Y-131971321D01*
X116905019Y-131894298D01*
X117086302Y-131782052D01*
X117243872Y-131638407D01*
X117372366Y-131468255D01*
X117399998Y-131412762D01*
X117467403Y-131277394D01*
X117467403Y-131277393D01*
X117467405Y-131277389D01*
X117525756Y-131072310D01*
X117536529Y-130956047D01*
X117562315Y-130891111D01*
X117604622Y-130860804D01*
X117713130Y-130860804D01*
X117749503Y-130881668D01*
X117781693Y-130943681D01*
X117783470Y-130956047D01*
X117794244Y-131072310D01*
X117850909Y-131271465D01*
X117852596Y-131277392D01*
X117852596Y-131277394D01*
X117947632Y-131468253D01*
X118063264Y-131621373D01*
X118076128Y-131638407D01*
X118233698Y-131782052D01*
X118414981Y-131894298D01*
X118613802Y-131971321D01*
X118823390Y-132010500D01*
X118823392Y-132010500D01*
X119036608Y-132010500D01*
X119036610Y-132010500D01*
X119246198Y-131971321D01*
X119445019Y-131894298D01*
X119626302Y-131782052D01*
X119783872Y-131638407D01*
X119912366Y-131468255D01*
X119939998Y-131412762D01*
X120007403Y-131277394D01*
X120007403Y-131277393D01*
X120007405Y-131277389D01*
X120065756Y-131072310D01*
X120076529Y-130956047D01*
X120102315Y-130891111D01*
X120144622Y-130860804D01*
X120253130Y-130860804D01*
X120289503Y-130881668D01*
X120321693Y-130943681D01*
X120323470Y-130956047D01*
X120334244Y-131072310D01*
X120390909Y-131271465D01*
X120392596Y-131277392D01*
X120392596Y-131277394D01*
X120487632Y-131468253D01*
X120603264Y-131621373D01*
X120616128Y-131638407D01*
X120773698Y-131782052D01*
X120954981Y-131894298D01*
X121153802Y-131971321D01*
X121363390Y-132010500D01*
X121363392Y-132010500D01*
X121576608Y-132010500D01*
X121576610Y-132010500D01*
X121786198Y-131971321D01*
X121985019Y-131894298D01*
X122166302Y-131782052D01*
X122323872Y-131638407D01*
X122452366Y-131468255D01*
X122479998Y-131412762D01*
X122547403Y-131277394D01*
X122547403Y-131277393D01*
X122547405Y-131277389D01*
X122605756Y-131072310D01*
X122616529Y-130956047D01*
X122642315Y-130891111D01*
X122684622Y-130860804D01*
X122793130Y-130860804D01*
X122829503Y-130881668D01*
X122861693Y-130943681D01*
X122863470Y-130956047D01*
X122874244Y-131072310D01*
X122930909Y-131271465D01*
X122932596Y-131277392D01*
X122932596Y-131277394D01*
X123027632Y-131468253D01*
X123143264Y-131621373D01*
X123156128Y-131638407D01*
X123313698Y-131782052D01*
X123494981Y-131894298D01*
X123693802Y-131971321D01*
X123903390Y-132010500D01*
X123903392Y-132010500D01*
X124116608Y-132010500D01*
X124116610Y-132010500D01*
X124326198Y-131971321D01*
X124525019Y-131894298D01*
X124706302Y-131782052D01*
X124863872Y-131638407D01*
X124992366Y-131468255D01*
X125019998Y-131412762D01*
X125087403Y-131277394D01*
X125087403Y-131277393D01*
X125087405Y-131277389D01*
X125145756Y-131072310D01*
X125156529Y-130956047D01*
X125182315Y-130891111D01*
X125224622Y-130860804D01*
X125333130Y-130860804D01*
X125369503Y-130881668D01*
X125401693Y-130943681D01*
X125403470Y-130956047D01*
X125414244Y-131072310D01*
X125470909Y-131271465D01*
X125472596Y-131277392D01*
X125472596Y-131277394D01*
X125567632Y-131468253D01*
X125683264Y-131621373D01*
X125696128Y-131638407D01*
X125853698Y-131782052D01*
X126034981Y-131894298D01*
X126233802Y-131971321D01*
X126443390Y-132010500D01*
X126443392Y-132010500D01*
X126656608Y-132010500D01*
X126656610Y-132010500D01*
X126866198Y-131971321D01*
X127065019Y-131894298D01*
X127246302Y-131782052D01*
X127403872Y-131638407D01*
X127532366Y-131468255D01*
X127559998Y-131412762D01*
X127627403Y-131277394D01*
X127627403Y-131277393D01*
X127627405Y-131277389D01*
X127685756Y-131072310D01*
X127696529Y-130956047D01*
X127722315Y-130891111D01*
X127766869Y-130859194D01*
X127730497Y-130838331D01*
X127698307Y-130776318D01*
X127696529Y-130763951D01*
X127695849Y-130756613D01*
X127685756Y-130647690D01*
X127627405Y-130442611D01*
X127627403Y-130442606D01*
X127627403Y-130442605D01*
X127532367Y-130251746D01*
X127403872Y-130081593D01*
X127246302Y-129937948D01*
X127065019Y-129825702D01*
X127065017Y-129825701D01*
X126965608Y-129787190D01*
X126866198Y-129748679D01*
X126669385Y-129711888D01*
X126607106Y-129680221D01*
X126571833Y-129619908D01*
X126574767Y-129550100D01*
X126614976Y-129492960D01*
X126669384Y-129468111D01*
X126866198Y-129431321D01*
X127065019Y-129354298D01*
X127246302Y-129242052D01*
X127403872Y-129098407D01*
X127532366Y-128928255D01*
X127599325Y-128793781D01*
X127646825Y-128742548D01*
X127714488Y-128725126D01*
X127780828Y-128747051D01*
X127822705Y-128796651D01*
X127916400Y-128997579D01*
X127916402Y-128997583D01*
X127975072Y-129081373D01*
X127975073Y-129081373D01*
X128606923Y-128449523D01*
X128630507Y-128529844D01*
X128708239Y-128650798D01*
X128816900Y-128744952D01*
X128947685Y-128804680D01*
X128957466Y-128806086D01*
X128328625Y-129434925D01*
X128412421Y-129493599D01*
X128611573Y-129586466D01*
X128664012Y-129632638D01*
X128683164Y-129699832D01*
X128662948Y-129766713D01*
X128609783Y-129812048D01*
X128603968Y-129814472D01*
X128596771Y-129817260D01*
X128574982Y-129825701D01*
X128574980Y-129825702D01*
X128393699Y-129937947D01*
X128236127Y-130081593D01*
X128107632Y-130251746D01*
X128012596Y-130442605D01*
X128012596Y-130442607D01*
X127954244Y-130647689D01*
X127943471Y-130763951D01*
X127917685Y-130828888D01*
X127873130Y-130860804D01*
X127909503Y-130881668D01*
X127941693Y-130943681D01*
X127943470Y-130956047D01*
X127954244Y-131072310D01*
X128010909Y-131271465D01*
X128012596Y-131277392D01*
X128012596Y-131277394D01*
X128107632Y-131468253D01*
X128223264Y-131621373D01*
X128236128Y-131638407D01*
X128393698Y-131782052D01*
X128574981Y-131894298D01*
X128773802Y-131971321D01*
X128983390Y-132010500D01*
X128983392Y-132010500D01*
X129196608Y-132010500D01*
X129196610Y-132010500D01*
X129406198Y-131971321D01*
X129605019Y-131894298D01*
X129786302Y-131782052D01*
X129943872Y-131638407D01*
X130072366Y-131468255D01*
X130099998Y-131412762D01*
X130167403Y-131277394D01*
X130167403Y-131277393D01*
X130167405Y-131277389D01*
X130225756Y-131072310D01*
X130236529Y-130956047D01*
X130262315Y-130891111D01*
X130306869Y-130859194D01*
X130270497Y-130838331D01*
X130238307Y-130776318D01*
X130236529Y-130763951D01*
X130235849Y-130756613D01*
X130225756Y-130647690D01*
X130167405Y-130442611D01*
X130167403Y-130442606D01*
X130167403Y-130442605D01*
X130072367Y-130251746D01*
X129943872Y-130081593D01*
X129786302Y-129937948D01*
X129605019Y-129825702D01*
X129605014Y-129825700D01*
X129598129Y-129823032D01*
X129576037Y-129814474D01*
X129520636Y-129771903D01*
X129497045Y-129706136D01*
X129512756Y-129638056D01*
X129562779Y-129589276D01*
X129568427Y-129586466D01*
X129767574Y-129493602D01*
X129767582Y-129493598D01*
X129851373Y-129434926D01*
X129851373Y-129434925D01*
X129222533Y-128806086D01*
X129232315Y-128804680D01*
X129363100Y-128744952D01*
X129471761Y-128650798D01*
X129549493Y-128529844D01*
X129573076Y-128449524D01*
X130204925Y-129081373D01*
X130204926Y-129081373D01*
X130263598Y-128997582D01*
X130263602Y-128997574D01*
X130357294Y-128796652D01*
X130403466Y-128744212D01*
X130470660Y-128725060D01*
X130537541Y-128745276D01*
X130580676Y-128793785D01*
X130647632Y-128928253D01*
X130763264Y-129081373D01*
X130776128Y-129098407D01*
X130933698Y-129242052D01*
X131114981Y-129354298D01*
X131313802Y-129431321D01*
X131510613Y-129468111D01*
X131572893Y-129499779D01*
X131608166Y-129560092D01*
X131605232Y-129629900D01*
X131565023Y-129687040D01*
X131510613Y-129711888D01*
X131313802Y-129748679D01*
X131313799Y-129748679D01*
X131313799Y-129748680D01*
X131114982Y-129825701D01*
X131114980Y-129825702D01*
X130933699Y-129937947D01*
X130776127Y-130081593D01*
X130647632Y-130251746D01*
X130552596Y-130442605D01*
X130552596Y-130442607D01*
X130494244Y-130647689D01*
X130483471Y-130763951D01*
X130457685Y-130828888D01*
X130413130Y-130860804D01*
X130449503Y-130881668D01*
X130481693Y-130943681D01*
X130483470Y-130956047D01*
X130494244Y-131072310D01*
X130550909Y-131271465D01*
X130552596Y-131277392D01*
X130552596Y-131277394D01*
X130647632Y-131468253D01*
X130763264Y-131621373D01*
X130776128Y-131638407D01*
X130933698Y-131782052D01*
X131114981Y-131894298D01*
X131313802Y-131971321D01*
X131523390Y-132010500D01*
X131523392Y-132010500D01*
X131736608Y-132010500D01*
X131736610Y-132010500D01*
X131946198Y-131971321D01*
X132145019Y-131894298D01*
X132326302Y-131782052D01*
X132483872Y-131638407D01*
X132612366Y-131468255D01*
X132679325Y-131333781D01*
X132726825Y-131282548D01*
X132794488Y-131265126D01*
X132860828Y-131287051D01*
X132902705Y-131336651D01*
X132996400Y-131537579D01*
X132996402Y-131537583D01*
X133055072Y-131621373D01*
X133055073Y-131621373D01*
X133686923Y-130989523D01*
X133710507Y-131069844D01*
X133788239Y-131190798D01*
X133896900Y-131284952D01*
X134027685Y-131344680D01*
X134037466Y-131346086D01*
X133408625Y-131974925D01*
X133492421Y-132033599D01*
X133706507Y-132133429D01*
X133706516Y-132133433D01*
X133934673Y-132194567D01*
X133934684Y-132194569D01*
X134169998Y-132215157D01*
X134170002Y-132215157D01*
X134405315Y-132194569D01*
X134405326Y-132194567D01*
X134633483Y-132133433D01*
X134633492Y-132133429D01*
X134847578Y-132033600D01*
X134847582Y-132033598D01*
X134931373Y-131974926D01*
X134931373Y-131974925D01*
X134302533Y-131346086D01*
X134312315Y-131344680D01*
X134443100Y-131284952D01*
X134551761Y-131190798D01*
X134629493Y-131069844D01*
X134653076Y-130989524D01*
X135284925Y-131621373D01*
X135284926Y-131621373D01*
X135343598Y-131537582D01*
X135343602Y-131537574D01*
X135437294Y-131336652D01*
X135483466Y-131284212D01*
X135550660Y-131265060D01*
X135617541Y-131285276D01*
X135660676Y-131333785D01*
X135727632Y-131468253D01*
X135843264Y-131621373D01*
X135856128Y-131638407D01*
X136013698Y-131782052D01*
X136194981Y-131894298D01*
X136393802Y-131971321D01*
X136603390Y-132010500D01*
X136603392Y-132010500D01*
X136816608Y-132010500D01*
X136816610Y-132010500D01*
X137026198Y-131971321D01*
X137225019Y-131894298D01*
X137406302Y-131782052D01*
X137563872Y-131638407D01*
X137692366Y-131468255D01*
X137719998Y-131412762D01*
X137787403Y-131277394D01*
X137787403Y-131277393D01*
X137787405Y-131277389D01*
X137845756Y-131072310D01*
X137856529Y-130956047D01*
X137882315Y-130891111D01*
X137926869Y-130859194D01*
X137890497Y-130838331D01*
X137858307Y-130776318D01*
X137856529Y-130763951D01*
X137855849Y-130756613D01*
X137845756Y-130647690D01*
X137787405Y-130442611D01*
X137787403Y-130442606D01*
X137787403Y-130442605D01*
X137692367Y-130251746D01*
X137563872Y-130081593D01*
X137406302Y-129937948D01*
X137225019Y-129825702D01*
X137225017Y-129825701D01*
X137125608Y-129787190D01*
X137026198Y-129748679D01*
X136829385Y-129711888D01*
X136767106Y-129680221D01*
X136731833Y-129619908D01*
X136734767Y-129550100D01*
X136774976Y-129492960D01*
X136829384Y-129468111D01*
X137026198Y-129431321D01*
X137225019Y-129354298D01*
X137406302Y-129242052D01*
X137563872Y-129098407D01*
X137692366Y-128928255D01*
X137746270Y-128820000D01*
X137787403Y-128737394D01*
X137787403Y-128737393D01*
X137787405Y-128737389D01*
X137845756Y-128532310D01*
X137852029Y-128464605D01*
X137877814Y-128399669D01*
X137934614Y-128358981D01*
X138004395Y-128355461D01*
X138065002Y-128390225D01*
X138097193Y-128452238D01*
X138099500Y-128476047D01*
X138099500Y-129214856D01*
X138099502Y-129214882D01*
X138102413Y-129239987D01*
X138102415Y-129239991D01*
X138147793Y-129342764D01*
X138147794Y-129342765D01*
X138227235Y-129422206D01*
X138330009Y-129467585D01*
X138355135Y-129470500D01*
X139083758Y-129470499D01*
X139150795Y-129490183D01*
X139196550Y-129542987D01*
X139206494Y-129612146D01*
X139177469Y-129675702D01*
X139118691Y-129713476D01*
X139106542Y-129716388D01*
X139050116Y-129726935D01*
X138933802Y-129748679D01*
X138933800Y-129748679D01*
X138933798Y-129748680D01*
X138734982Y-129825701D01*
X138734980Y-129825702D01*
X138553699Y-129937947D01*
X138396127Y-130081593D01*
X138267632Y-130251746D01*
X138172596Y-130442605D01*
X138172596Y-130442607D01*
X138114244Y-130647689D01*
X138103471Y-130763951D01*
X138077685Y-130828888D01*
X138033130Y-130860804D01*
X138069503Y-130881668D01*
X138101693Y-130943681D01*
X138103470Y-130956047D01*
X138114244Y-131072310D01*
X138170909Y-131271465D01*
X138172596Y-131277392D01*
X138172596Y-131277394D01*
X138267632Y-131468253D01*
X138383264Y-131621373D01*
X138396128Y-131638407D01*
X138553698Y-131782052D01*
X138734981Y-131894298D01*
X138933802Y-131971321D01*
X139143390Y-132010500D01*
X139143392Y-132010500D01*
X139356608Y-132010500D01*
X139356610Y-132010500D01*
X139566198Y-131971321D01*
X139765019Y-131894298D01*
X139946302Y-131782052D01*
X140103872Y-131638407D01*
X140221937Y-131482064D01*
X140235821Y-131463680D01*
X140236977Y-131464553D01*
X140283793Y-131422588D01*
X140337194Y-131410500D01*
X142400603Y-131410500D01*
X142466826Y-131412762D01*
X142509832Y-131402280D01*
X142516051Y-131401098D01*
X142559920Y-131395070D01*
X142576383Y-131387918D01*
X142596416Y-131381181D01*
X142613852Y-131376933D01*
X142652465Y-131355221D01*
X142658090Y-131352427D01*
X142698720Y-131334780D01*
X142712632Y-131323460D01*
X142730123Y-131311557D01*
X142745755Y-131302768D01*
X142745753Y-131302768D01*
X142745759Y-131302766D01*
X142777059Y-131271464D01*
X142781771Y-131267211D01*
X142816108Y-131239278D01*
X142826456Y-131224616D01*
X142840074Y-131208449D01*
X146442618Y-127605906D01*
X146491044Y-127560680D01*
X146514049Y-127522847D01*
X146517606Y-127517622D01*
X146544361Y-127482342D01*
X146550943Y-127465648D01*
X146560344Y-127446719D01*
X146569672Y-127431382D01*
X146581619Y-127388739D01*
X146583632Y-127382753D01*
X146599876Y-127341564D01*
X146601711Y-127323716D01*
X146605658Y-127302944D01*
X146610500Y-127285665D01*
X146610500Y-127241405D01*
X146610825Y-127235060D01*
X146613537Y-127208679D01*
X146615352Y-127191028D01*
X146612303Y-127173343D01*
X146610500Y-127152275D01*
X146610500Y-121079396D01*
X146612762Y-121013174D01*
X146602283Y-120970174D01*
X146601096Y-120963931D01*
X146595070Y-120920082D01*
X146595070Y-120920080D01*
X146587921Y-120903622D01*
X146581180Y-120883578D01*
X146576933Y-120866148D01*
X146568046Y-120850342D01*
X146555239Y-120827564D01*
X146552414Y-120821876D01*
X146545585Y-120806157D01*
X146534780Y-120781280D01*
X146523454Y-120767359D01*
X146511556Y-120749877D01*
X146502764Y-120734240D01*
X146471472Y-120702948D01*
X146467215Y-120698231D01*
X146439278Y-120663892D01*
X146424613Y-120653540D01*
X146408441Y-120639917D01*
X144721935Y-118953410D01*
X144688450Y-118892087D01*
X144693434Y-118822395D01*
X144693989Y-118820936D01*
X144711321Y-118776198D01*
X144750500Y-118566610D01*
X144750500Y-118353390D01*
X144711321Y-118143802D01*
X144634298Y-117944981D01*
X144522052Y-117763698D01*
X144378407Y-117606128D01*
X144378404Y-117606126D01*
X144269600Y-117523960D01*
X144227964Y-117467851D01*
X144223273Y-117398139D01*
X144257015Y-117336957D01*
X144318479Y-117303730D01*
X144331727Y-117301648D01*
X144352696Y-117299506D01*
X144519119Y-117244358D01*
X144519124Y-117244356D01*
X144668345Y-117152315D01*
X144792315Y-117028345D01*
X144884356Y-116879124D01*
X144884358Y-116879119D01*
X144939505Y-116712697D01*
X144939506Y-116712690D01*
X144949999Y-116609986D01*
X144950000Y-116609973D01*
X144950000Y-116210000D01*
X143883686Y-116210000D01*
X143909493Y-116169844D01*
X143950000Y-116031889D01*
X143950000Y-115888111D01*
X143909493Y-115750156D01*
X143883686Y-115710000D01*
X144949999Y-115710000D01*
X144949999Y-115310028D01*
X144949998Y-115310013D01*
X144939505Y-115207302D01*
X144884358Y-115040880D01*
X144884356Y-115040875D01*
X144792315Y-114891654D01*
X144668345Y-114767684D01*
X144519124Y-114675643D01*
X144519119Y-114675641D01*
X144352697Y-114620494D01*
X144352690Y-114620493D01*
X144249986Y-114610000D01*
X143700000Y-114610000D01*
X143700000Y-115524498D01*
X143592315Y-115475320D01*
X143485763Y-115460000D01*
X143414237Y-115460000D01*
X143307685Y-115475320D01*
X143200000Y-115524498D01*
X143200000Y-114610000D01*
X142650028Y-114610000D01*
X142650012Y-114610001D01*
X142547302Y-114620494D01*
X142380880Y-114675641D01*
X142380875Y-114675643D01*
X142231654Y-114767684D01*
X142107684Y-114891654D01*
X142015643Y-115040875D01*
X142015641Y-115040880D01*
X141960494Y-115207302D01*
X141960493Y-115207309D01*
X141950000Y-115310013D01*
X141950000Y-115710000D01*
X143016314Y-115710000D01*
X142990507Y-115750156D01*
X142950000Y-115888111D01*
X142950000Y-116031889D01*
X142990507Y-116169844D01*
X143016314Y-116210000D01*
X141950001Y-116210000D01*
X141950001Y-116609986D01*
X141960494Y-116712697D01*
X142015641Y-116879119D01*
X142015643Y-116879124D01*
X142107684Y-117028345D01*
X142231654Y-117152315D01*
X142380875Y-117244356D01*
X142380880Y-117244358D01*
X142547302Y-117299505D01*
X142547311Y-117299506D01*
X142568272Y-117301648D01*
X142632964Y-117328043D01*
X142673117Y-117385223D01*
X142675981Y-117455034D01*
X142640648Y-117515311D01*
X142630400Y-117523959D01*
X142521594Y-117606126D01*
X142377947Y-117763699D01*
X142265702Y-117944980D01*
X142265701Y-117944982D01*
X142188680Y-118143799D01*
X142188679Y-118143802D01*
X142149500Y-118353390D01*
X142149500Y-118566610D01*
X142188679Y-118776198D01*
X142265702Y-118975019D01*
X142377948Y-119156302D01*
X142518062Y-119309999D01*
X142521593Y-119313872D01*
X142691746Y-119442367D01*
X142882606Y-119537403D01*
X142882608Y-119537403D01*
X142882611Y-119537405D01*
X143087690Y-119595756D01*
X143246806Y-119610500D01*
X143246810Y-119610500D01*
X143653191Y-119610500D01*
X143653194Y-119610500D01*
X143749700Y-119601557D01*
X143818269Y-119614972D01*
X143848822Y-119637347D01*
X145473181Y-121261705D01*
X145506666Y-121323028D01*
X145509500Y-121349386D01*
X145509500Y-126930613D01*
X145489815Y-126997652D01*
X145473181Y-127018294D01*
X142218294Y-130273181D01*
X142156971Y-130306666D01*
X142130613Y-130309500D01*
X140337194Y-130309500D01*
X140270155Y-130289815D01*
X140236622Y-130255714D01*
X140235821Y-130256320D01*
X140103872Y-130081593D01*
X139946302Y-129937948D01*
X139765019Y-129825702D01*
X139765017Y-129825701D01*
X139665608Y-129787190D01*
X139566198Y-129748679D01*
X139393456Y-129716387D01*
X139331176Y-129684719D01*
X139295903Y-129624407D01*
X139298837Y-129554599D01*
X139339046Y-129497459D01*
X139403764Y-129471128D01*
X139416233Y-129470499D01*
X140144864Y-129470499D01*
X140144879Y-129470497D01*
X140144882Y-129470497D01*
X140169987Y-129467586D01*
X140169988Y-129467585D01*
X140169991Y-129467585D01*
X140272765Y-129422206D01*
X140352206Y-129342765D01*
X140397585Y-129239991D01*
X140400500Y-129214865D01*
X140400499Y-127425136D01*
X140400497Y-127425117D01*
X140397586Y-127400012D01*
X140397585Y-127400010D01*
X140397585Y-127400009D01*
X140352206Y-127297235D01*
X140272765Y-127217794D01*
X140252124Y-127208680D01*
X140169992Y-127172415D01*
X140144865Y-127169500D01*
X138355143Y-127169500D01*
X138355117Y-127169502D01*
X138330012Y-127172413D01*
X138330008Y-127172415D01*
X138227235Y-127217793D01*
X138147794Y-127297234D01*
X138102415Y-127400006D01*
X138102415Y-127400008D01*
X138099500Y-127425131D01*
X138099500Y-128163951D01*
X138079815Y-128230990D01*
X138027011Y-128276745D01*
X137957853Y-128286689D01*
X137894297Y-128257664D01*
X137856523Y-128198886D01*
X137852029Y-128175391D01*
X137845756Y-128107689D01*
X137831273Y-128056789D01*
X137787405Y-127902611D01*
X137787403Y-127902606D01*
X137787403Y-127902605D01*
X137692367Y-127711746D01*
X137563872Y-127541593D01*
X137498874Y-127482339D01*
X137406302Y-127397948D01*
X137225019Y-127285702D01*
X137225017Y-127285701D01*
X137110674Y-127241405D01*
X137026198Y-127208679D01*
X136816610Y-127169500D01*
X136603390Y-127169500D01*
X136393802Y-127208679D01*
X136393799Y-127208679D01*
X136393799Y-127208680D01*
X136194982Y-127285701D01*
X136194980Y-127285702D01*
X136013699Y-127397947D01*
X135856127Y-127541593D01*
X135727632Y-127711746D01*
X135632596Y-127902605D01*
X135632596Y-127902607D01*
X135574244Y-128107689D01*
X135563471Y-128223951D01*
X135537685Y-128288888D01*
X135493130Y-128320804D01*
X135529503Y-128341668D01*
X135561693Y-128403681D01*
X135563471Y-128416048D01*
X135574244Y-128532310D01*
X135632596Y-128737392D01*
X135632596Y-128737394D01*
X135727632Y-128928253D01*
X135843264Y-129081373D01*
X135856128Y-129098407D01*
X136013698Y-129242052D01*
X136194981Y-129354298D01*
X136393802Y-129431321D01*
X136590613Y-129468111D01*
X136652893Y-129499779D01*
X136688166Y-129560092D01*
X136685232Y-129629900D01*
X136645023Y-129687040D01*
X136590613Y-129711888D01*
X136393802Y-129748679D01*
X136393799Y-129748679D01*
X136393799Y-129748680D01*
X136194982Y-129825701D01*
X136194980Y-129825702D01*
X136013699Y-129937947D01*
X135856127Y-130081593D01*
X135727634Y-130251744D01*
X135660676Y-130386215D01*
X135613173Y-130437452D01*
X135545510Y-130454873D01*
X135479170Y-130432947D01*
X135437294Y-130383348D01*
X135343600Y-130182423D01*
X135343599Y-130182421D01*
X135284925Y-130098626D01*
X135284925Y-130098625D01*
X134653076Y-130730475D01*
X134629493Y-130650156D01*
X134551761Y-130529202D01*
X134443100Y-130435048D01*
X134312315Y-130375320D01*
X134302533Y-130373913D01*
X134931373Y-129745073D01*
X134931373Y-129745072D01*
X134847583Y-129686402D01*
X134847579Y-129686400D01*
X134648426Y-129593533D01*
X134595987Y-129547360D01*
X134576835Y-129480167D01*
X134597051Y-129413286D01*
X134650216Y-129367951D01*
X134656005Y-129365537D01*
X134685019Y-129354298D01*
X134866302Y-129242052D01*
X135023872Y-129098407D01*
X135152366Y-128928255D01*
X135206270Y-128820000D01*
X135247403Y-128737394D01*
X135247403Y-128737393D01*
X135247405Y-128737389D01*
X135305756Y-128532310D01*
X135316529Y-128416047D01*
X135342315Y-128351111D01*
X135386869Y-128319194D01*
X135350497Y-128298331D01*
X135318307Y-128236318D01*
X135316529Y-128223951D01*
X135310969Y-128163951D01*
X135305756Y-128107690D01*
X135247405Y-127902611D01*
X135247403Y-127902606D01*
X135247403Y-127902605D01*
X135152367Y-127711746D01*
X135023872Y-127541593D01*
X134958874Y-127482339D01*
X134866302Y-127397948D01*
X134685019Y-127285702D01*
X134685017Y-127285701D01*
X134570674Y-127241405D01*
X134486198Y-127208679D01*
X134276610Y-127169500D01*
X134063390Y-127169500D01*
X133853802Y-127208679D01*
X133853799Y-127208679D01*
X133853799Y-127208680D01*
X133654982Y-127285701D01*
X133654980Y-127285702D01*
X133473699Y-127397947D01*
X133316127Y-127541593D01*
X133187632Y-127711746D01*
X133092596Y-127902605D01*
X133092596Y-127902607D01*
X133034244Y-128107689D01*
X133023471Y-128223951D01*
X132997685Y-128288888D01*
X132953130Y-128320804D01*
X132989503Y-128341668D01*
X133021693Y-128403681D01*
X133023471Y-128416048D01*
X133034244Y-128532310D01*
X133092596Y-128737392D01*
X133092596Y-128737394D01*
X133187632Y-128928253D01*
X133303264Y-129081373D01*
X133316128Y-129098407D01*
X133473698Y-129242052D01*
X133654981Y-129354298D01*
X133683961Y-129365525D01*
X133739362Y-129408095D01*
X133762954Y-129473861D01*
X133747244Y-129541942D01*
X133697222Y-129590722D01*
X133691573Y-129593533D01*
X133492419Y-129686401D01*
X133408625Y-129745072D01*
X134037466Y-130373913D01*
X134027685Y-130375320D01*
X133896900Y-130435048D01*
X133788239Y-130529202D01*
X133710507Y-130650156D01*
X133686923Y-130730476D01*
X133055072Y-130098625D01*
X132996402Y-130182417D01*
X132902705Y-130383349D01*
X132856532Y-130435788D01*
X132789338Y-130454939D01*
X132722457Y-130434723D01*
X132679323Y-130386215D01*
X132612366Y-130251745D01*
X132560014Y-130182421D01*
X132483872Y-130081593D01*
X132326302Y-129937948D01*
X132145019Y-129825702D01*
X132145017Y-129825701D01*
X132045608Y-129787190D01*
X131946198Y-129748679D01*
X131749385Y-129711888D01*
X131687106Y-129680221D01*
X131651833Y-129619908D01*
X131654767Y-129550100D01*
X131694976Y-129492960D01*
X131749384Y-129468111D01*
X131946198Y-129431321D01*
X132145019Y-129354298D01*
X132326302Y-129242052D01*
X132483872Y-129098407D01*
X132612366Y-128928255D01*
X132666270Y-128820000D01*
X132707403Y-128737394D01*
X132707403Y-128737393D01*
X132707405Y-128737389D01*
X132765756Y-128532310D01*
X132776529Y-128416047D01*
X132802315Y-128351111D01*
X132846869Y-128319194D01*
X132810497Y-128298331D01*
X132778307Y-128236318D01*
X132776529Y-128223951D01*
X132770969Y-128163951D01*
X132765756Y-128107690D01*
X132707405Y-127902611D01*
X132707403Y-127902606D01*
X132707403Y-127902605D01*
X132612367Y-127711746D01*
X132483872Y-127541593D01*
X132418874Y-127482339D01*
X132326302Y-127397948D01*
X132145019Y-127285702D01*
X132145017Y-127285701D01*
X132030674Y-127241405D01*
X131946198Y-127208679D01*
X131736610Y-127169500D01*
X131523390Y-127169500D01*
X131313802Y-127208679D01*
X131313799Y-127208679D01*
X131313799Y-127208680D01*
X131114982Y-127285701D01*
X131114980Y-127285702D01*
X130933699Y-127397947D01*
X130776127Y-127541593D01*
X130647634Y-127711744D01*
X130580676Y-127846215D01*
X130533173Y-127897452D01*
X130465510Y-127914873D01*
X130399170Y-127892947D01*
X130357294Y-127843348D01*
X130263600Y-127642423D01*
X130263599Y-127642421D01*
X130204925Y-127558626D01*
X130204925Y-127558625D01*
X129573076Y-128190475D01*
X129549493Y-128110156D01*
X129471761Y-127989202D01*
X129363100Y-127895048D01*
X129232315Y-127835320D01*
X129222533Y-127833913D01*
X129851373Y-127205073D01*
X129851373Y-127205072D01*
X129767583Y-127146402D01*
X129767579Y-127146400D01*
X129553492Y-127046570D01*
X129553483Y-127046566D01*
X129325326Y-126985432D01*
X129325315Y-126985430D01*
X129090002Y-126964843D01*
X129089998Y-126964843D01*
X128854684Y-126985430D01*
X128854673Y-126985432D01*
X128626516Y-127046566D01*
X128626507Y-127046570D01*
X128412419Y-127146401D01*
X128328625Y-127205072D01*
X128957466Y-127833913D01*
X128947685Y-127835320D01*
X128816900Y-127895048D01*
X128708239Y-127989202D01*
X128630507Y-128110156D01*
X128606923Y-128190475D01*
X127975073Y-127558625D01*
X127975072Y-127558625D01*
X127916402Y-127642417D01*
X127822705Y-127843349D01*
X127776532Y-127895788D01*
X127709338Y-127914939D01*
X127642457Y-127894723D01*
X127599323Y-127846215D01*
X127532366Y-127711745D01*
X127480014Y-127642421D01*
X127403872Y-127541593D01*
X127338874Y-127482339D01*
X127246302Y-127397948D01*
X127065019Y-127285702D01*
X127065017Y-127285701D01*
X126950674Y-127241405D01*
X126866198Y-127208679D01*
X126656610Y-127169500D01*
X126443390Y-127169500D01*
X126233802Y-127208679D01*
X126233799Y-127208679D01*
X126233799Y-127208680D01*
X126034982Y-127285701D01*
X126034980Y-127285702D01*
X125853699Y-127397947D01*
X125696127Y-127541593D01*
X125567632Y-127711746D01*
X125472596Y-127902605D01*
X125472596Y-127902607D01*
X125414244Y-128107689D01*
X125403471Y-128223951D01*
X125377685Y-128288888D01*
X125333130Y-128320804D01*
X125369503Y-128341668D01*
X125401693Y-128403681D01*
X125403471Y-128416048D01*
X125414244Y-128532310D01*
X125472596Y-128737392D01*
X125472596Y-128737394D01*
X125567632Y-128928253D01*
X125683264Y-129081373D01*
X125696128Y-129098407D01*
X125853698Y-129242052D01*
X126034981Y-129354298D01*
X126233802Y-129431321D01*
X126430613Y-129468111D01*
X126492893Y-129499779D01*
X126528166Y-129560092D01*
X126525232Y-129629900D01*
X126485023Y-129687040D01*
X126430613Y-129711888D01*
X126233802Y-129748679D01*
X126233799Y-129748679D01*
X126233799Y-129748680D01*
X126034982Y-129825701D01*
X126034980Y-129825702D01*
X125853699Y-129937947D01*
X125696127Y-130081593D01*
X125567632Y-130251746D01*
X125472596Y-130442605D01*
X125472596Y-130442607D01*
X125414244Y-130647689D01*
X125403471Y-130763951D01*
X125377685Y-130828888D01*
X125333130Y-130860804D01*
X125224622Y-130860804D01*
X125226869Y-130859194D01*
X125190497Y-130838331D01*
X125158307Y-130776318D01*
X125156529Y-130763951D01*
X125155849Y-130756613D01*
X125145756Y-130647690D01*
X125087405Y-130442611D01*
X125087403Y-130442606D01*
X125087403Y-130442605D01*
X124992367Y-130251746D01*
X124863872Y-130081593D01*
X124706302Y-129937948D01*
X124525019Y-129825702D01*
X124525017Y-129825701D01*
X124425608Y-129787190D01*
X124326198Y-129748679D01*
X124129385Y-129711888D01*
X124067106Y-129680221D01*
X124031833Y-129619908D01*
X124034767Y-129550100D01*
X124074976Y-129492960D01*
X124129384Y-129468111D01*
X124326198Y-129431321D01*
X124525019Y-129354298D01*
X124706302Y-129242052D01*
X124863872Y-129098407D01*
X124992366Y-128928255D01*
X125046270Y-128820000D01*
X125087403Y-128737394D01*
X125087403Y-128737393D01*
X125087405Y-128737389D01*
X125145756Y-128532310D01*
X125156529Y-128416047D01*
X125182315Y-128351111D01*
X125226869Y-128319194D01*
X125190497Y-128298331D01*
X125158307Y-128236318D01*
X125156529Y-128223951D01*
X125150969Y-128163951D01*
X125145756Y-128107690D01*
X125087405Y-127902611D01*
X125087403Y-127902606D01*
X125087403Y-127902605D01*
X124992367Y-127711746D01*
X124863872Y-127541593D01*
X124798874Y-127482339D01*
X124706302Y-127397948D01*
X124525019Y-127285702D01*
X124525017Y-127285701D01*
X124410674Y-127241405D01*
X124326198Y-127208679D01*
X124116610Y-127169500D01*
X123903390Y-127169500D01*
X123693802Y-127208679D01*
X123693799Y-127208679D01*
X123693799Y-127208680D01*
X123494982Y-127285701D01*
X123494980Y-127285702D01*
X123313699Y-127397947D01*
X123156127Y-127541593D01*
X123027632Y-127711746D01*
X122932596Y-127902605D01*
X122932596Y-127902607D01*
X122874244Y-128107689D01*
X122863471Y-128223951D01*
X122837685Y-128288888D01*
X122793130Y-128320804D01*
X122829503Y-128341668D01*
X122861693Y-128403681D01*
X122863471Y-128416048D01*
X122874244Y-128532310D01*
X122932596Y-128737392D01*
X122932596Y-128737394D01*
X123027632Y-128928253D01*
X123143264Y-129081373D01*
X123156128Y-129098407D01*
X123313698Y-129242052D01*
X123494981Y-129354298D01*
X123693802Y-129431321D01*
X123890613Y-129468111D01*
X123952893Y-129499779D01*
X123988166Y-129560092D01*
X123985232Y-129629900D01*
X123945023Y-129687040D01*
X123890613Y-129711888D01*
X123693802Y-129748679D01*
X123693799Y-129748679D01*
X123693799Y-129748680D01*
X123494982Y-129825701D01*
X123494980Y-129825702D01*
X123313699Y-129937947D01*
X123156127Y-130081593D01*
X123027632Y-130251746D01*
X122932596Y-130442605D01*
X122932596Y-130442607D01*
X122874244Y-130647689D01*
X122863471Y-130763951D01*
X122837685Y-130828888D01*
X122793130Y-130860804D01*
X122684622Y-130860804D01*
X122686869Y-130859194D01*
X122650497Y-130838331D01*
X122618307Y-130776318D01*
X122616529Y-130763951D01*
X122615849Y-130756613D01*
X122605756Y-130647690D01*
X122547405Y-130442611D01*
X122547403Y-130442606D01*
X122547403Y-130442605D01*
X122452367Y-130251746D01*
X122323872Y-130081593D01*
X122166302Y-129937948D01*
X121985019Y-129825702D01*
X121985017Y-129825701D01*
X121885608Y-129787190D01*
X121786198Y-129748679D01*
X121589385Y-129711888D01*
X121527106Y-129680221D01*
X121491833Y-129619908D01*
X121494767Y-129550100D01*
X121534976Y-129492960D01*
X121589384Y-129468111D01*
X121786198Y-129431321D01*
X121985019Y-129354298D01*
X122166302Y-129242052D01*
X122323872Y-129098407D01*
X122452366Y-128928255D01*
X122506270Y-128820000D01*
X122547403Y-128737394D01*
X122547403Y-128737393D01*
X122547405Y-128737389D01*
X122605756Y-128532310D01*
X122616529Y-128416047D01*
X122642315Y-128351111D01*
X122686869Y-128319194D01*
X122650497Y-128298331D01*
X122618307Y-128236318D01*
X122616529Y-128223951D01*
X122610969Y-128163951D01*
X122605756Y-128107690D01*
X122547405Y-127902611D01*
X122547403Y-127902606D01*
X122547403Y-127902605D01*
X122452367Y-127711746D01*
X122323872Y-127541593D01*
X122258874Y-127482339D01*
X122166302Y-127397948D01*
X121985019Y-127285702D01*
X121985017Y-127285701D01*
X121870674Y-127241405D01*
X121786198Y-127208679D01*
X121576610Y-127169500D01*
X121363390Y-127169500D01*
X121153802Y-127208679D01*
X121153799Y-127208679D01*
X121153799Y-127208680D01*
X120954982Y-127285701D01*
X120954980Y-127285702D01*
X120773699Y-127397947D01*
X120616127Y-127541593D01*
X120487632Y-127711746D01*
X120392596Y-127902605D01*
X120392596Y-127902607D01*
X120334244Y-128107689D01*
X120323471Y-128223951D01*
X120297685Y-128288888D01*
X120253130Y-128320804D01*
X120289503Y-128341668D01*
X120321693Y-128403681D01*
X120323471Y-128416048D01*
X120334244Y-128532310D01*
X120392596Y-128737392D01*
X120392596Y-128737394D01*
X120487632Y-128928253D01*
X120603264Y-129081373D01*
X120616128Y-129098407D01*
X120773698Y-129242052D01*
X120954981Y-129354298D01*
X121153802Y-129431321D01*
X121350613Y-129468111D01*
X121412893Y-129499779D01*
X121448166Y-129560092D01*
X121445232Y-129629900D01*
X121405023Y-129687040D01*
X121350613Y-129711888D01*
X121153802Y-129748679D01*
X121153799Y-129748679D01*
X121153799Y-129748680D01*
X120954982Y-129825701D01*
X120954980Y-129825702D01*
X120773699Y-129937947D01*
X120616127Y-130081593D01*
X120487632Y-130251746D01*
X120392596Y-130442605D01*
X120392596Y-130442607D01*
X120334244Y-130647689D01*
X120323471Y-130763951D01*
X120297685Y-130828888D01*
X120253130Y-130860804D01*
X120144622Y-130860804D01*
X120146869Y-130859194D01*
X120110497Y-130838331D01*
X120078307Y-130776318D01*
X120076529Y-130763951D01*
X120075849Y-130756613D01*
X120065756Y-130647690D01*
X120007405Y-130442611D01*
X120007403Y-130442606D01*
X120007403Y-130442605D01*
X119912367Y-130251746D01*
X119783872Y-130081593D01*
X119626302Y-129937948D01*
X119445019Y-129825702D01*
X119445017Y-129825701D01*
X119345608Y-129787190D01*
X119246198Y-129748679D01*
X119049385Y-129711888D01*
X118987106Y-129680221D01*
X118951833Y-129619908D01*
X118954767Y-129550100D01*
X118994976Y-129492960D01*
X119049384Y-129468111D01*
X119246198Y-129431321D01*
X119445019Y-129354298D01*
X119626302Y-129242052D01*
X119783872Y-129098407D01*
X119912366Y-128928255D01*
X119966270Y-128820000D01*
X120007403Y-128737394D01*
X120007403Y-128737393D01*
X120007405Y-128737389D01*
X120065756Y-128532310D01*
X120076529Y-128416047D01*
X120102315Y-128351111D01*
X120146869Y-128319194D01*
X120110497Y-128298331D01*
X120078307Y-128236318D01*
X120076529Y-128223951D01*
X120070969Y-128163951D01*
X120065756Y-128107690D01*
X120007405Y-127902611D01*
X120007403Y-127902606D01*
X120007403Y-127902605D01*
X119912367Y-127711746D01*
X119783872Y-127541593D01*
X119718874Y-127482339D01*
X119626302Y-127397948D01*
X119445019Y-127285702D01*
X119445017Y-127285701D01*
X119330674Y-127241405D01*
X119246198Y-127208679D01*
X119036610Y-127169500D01*
X118823390Y-127169500D01*
X118613802Y-127208679D01*
X118613799Y-127208679D01*
X118613799Y-127208680D01*
X118414982Y-127285701D01*
X118414980Y-127285702D01*
X118233699Y-127397947D01*
X118076127Y-127541593D01*
X117947632Y-127711746D01*
X117852596Y-127902605D01*
X117852596Y-127902607D01*
X117794244Y-128107689D01*
X117783471Y-128223951D01*
X117757685Y-128288888D01*
X117713130Y-128320804D01*
X117749503Y-128341668D01*
X117781693Y-128403681D01*
X117783471Y-128416048D01*
X117794244Y-128532310D01*
X117852596Y-128737392D01*
X117852596Y-128737394D01*
X117947632Y-128928253D01*
X118063264Y-129081373D01*
X118076128Y-129098407D01*
X118233698Y-129242052D01*
X118414981Y-129354298D01*
X118613802Y-129431321D01*
X118810613Y-129468111D01*
X118872893Y-129499779D01*
X118908166Y-129560092D01*
X118905232Y-129629900D01*
X118865023Y-129687040D01*
X118810613Y-129711888D01*
X118613802Y-129748679D01*
X118613799Y-129748679D01*
X118613799Y-129748680D01*
X118414982Y-129825701D01*
X118414980Y-129825702D01*
X118233699Y-129937947D01*
X118076127Y-130081593D01*
X117947632Y-130251746D01*
X117852596Y-130442605D01*
X117852596Y-130442607D01*
X117794244Y-130647689D01*
X117783471Y-130763951D01*
X117757685Y-130828888D01*
X117713130Y-130860804D01*
X117604622Y-130860804D01*
X117606869Y-130859194D01*
X117570497Y-130838331D01*
X117538307Y-130776318D01*
X117536529Y-130763951D01*
X117535849Y-130756613D01*
X117525756Y-130647690D01*
X117467405Y-130442611D01*
X117467403Y-130442606D01*
X117467403Y-130442605D01*
X117372367Y-130251746D01*
X117243872Y-130081593D01*
X117086302Y-129937948D01*
X116905019Y-129825702D01*
X116905017Y-129825701D01*
X116805608Y-129787190D01*
X116706198Y-129748679D01*
X116509385Y-129711888D01*
X116447106Y-129680221D01*
X116411833Y-129619908D01*
X116414767Y-129550100D01*
X116454976Y-129492960D01*
X116509384Y-129468111D01*
X116706198Y-129431321D01*
X116905019Y-129354298D01*
X117086302Y-129242052D01*
X117243872Y-129098407D01*
X117372366Y-128928255D01*
X117426270Y-128820000D01*
X117467403Y-128737394D01*
X117467403Y-128737393D01*
X117467405Y-128737389D01*
X117525756Y-128532310D01*
X117536529Y-128416047D01*
X117562315Y-128351111D01*
X117606869Y-128319194D01*
X117570497Y-128298331D01*
X117538307Y-128236318D01*
X117536529Y-128223951D01*
X117530969Y-128163951D01*
X117525756Y-128107690D01*
X117467405Y-127902611D01*
X117467403Y-127902606D01*
X117467403Y-127902605D01*
X117372367Y-127711746D01*
X117243872Y-127541593D01*
X117178874Y-127482339D01*
X117086302Y-127397948D01*
X116905019Y-127285702D01*
X116905017Y-127285701D01*
X116790674Y-127241405D01*
X116706198Y-127208679D01*
X116496610Y-127169500D01*
X116283390Y-127169500D01*
X116073802Y-127208679D01*
X116073799Y-127208679D01*
X116073799Y-127208680D01*
X115874982Y-127285701D01*
X115874980Y-127285702D01*
X115693699Y-127397947D01*
X115536127Y-127541593D01*
X115407632Y-127711746D01*
X115312596Y-127902605D01*
X115312596Y-127902607D01*
X115254244Y-128107689D01*
X115243471Y-128223951D01*
X115217685Y-128288888D01*
X115173130Y-128320804D01*
X115209503Y-128341668D01*
X115241693Y-128403681D01*
X115243471Y-128416048D01*
X115254244Y-128532310D01*
X115312596Y-128737392D01*
X115312596Y-128737394D01*
X115407632Y-128928253D01*
X115523264Y-129081373D01*
X115536128Y-129098407D01*
X115693698Y-129242052D01*
X115874981Y-129354298D01*
X116073802Y-129431321D01*
X116270613Y-129468111D01*
X116332893Y-129499779D01*
X116368166Y-129560092D01*
X116365232Y-129629900D01*
X116325023Y-129687040D01*
X116270613Y-129711888D01*
X116073802Y-129748679D01*
X116073799Y-129748679D01*
X116073799Y-129748680D01*
X115874982Y-129825701D01*
X115874980Y-129825702D01*
X115693699Y-129937947D01*
X115536127Y-130081593D01*
X115407632Y-130251746D01*
X115312596Y-130442605D01*
X115312596Y-130442607D01*
X115254244Y-130647689D01*
X115243471Y-130763951D01*
X115217685Y-130828888D01*
X115173130Y-130860804D01*
X115064622Y-130860804D01*
X115066869Y-130859194D01*
X115030497Y-130838331D01*
X114998307Y-130776318D01*
X114996529Y-130763951D01*
X114995849Y-130756613D01*
X114985756Y-130647690D01*
X114927405Y-130442611D01*
X114927403Y-130442606D01*
X114927403Y-130442605D01*
X114832367Y-130251746D01*
X114703872Y-130081593D01*
X114546302Y-129937948D01*
X114365019Y-129825702D01*
X114365017Y-129825701D01*
X114265608Y-129787190D01*
X114166198Y-129748679D01*
X113969385Y-129711888D01*
X113907106Y-129680221D01*
X113871833Y-129619908D01*
X113874767Y-129550100D01*
X113914976Y-129492960D01*
X113969384Y-129468111D01*
X114166198Y-129431321D01*
X114365019Y-129354298D01*
X114546302Y-129242052D01*
X114703872Y-129098407D01*
X114832366Y-128928255D01*
X114886270Y-128820000D01*
X114927403Y-128737394D01*
X114927403Y-128737393D01*
X114927405Y-128737389D01*
X114985756Y-128532310D01*
X114996529Y-128416047D01*
X115022315Y-128351111D01*
X115066869Y-128319194D01*
X115030497Y-128298331D01*
X114998307Y-128236318D01*
X114996529Y-128223951D01*
X114990969Y-128163951D01*
X114985756Y-128107690D01*
X114927405Y-127902611D01*
X114927403Y-127902606D01*
X114927403Y-127902605D01*
X114832367Y-127711746D01*
X114703872Y-127541593D01*
X114638874Y-127482339D01*
X114546302Y-127397948D01*
X114365019Y-127285702D01*
X114365017Y-127285701D01*
X114250674Y-127241405D01*
X114166198Y-127208679D01*
X113956610Y-127169500D01*
X113743390Y-127169500D01*
X113533802Y-127208679D01*
X113533799Y-127208679D01*
X113533799Y-127208680D01*
X113334982Y-127285701D01*
X113334980Y-127285702D01*
X113153699Y-127397947D01*
X112996127Y-127541593D01*
X112867632Y-127711746D01*
X112772596Y-127902605D01*
X112772596Y-127902607D01*
X112714244Y-128107689D01*
X112703471Y-128223951D01*
X112677685Y-128288888D01*
X112633130Y-128320804D01*
X112669503Y-128341668D01*
X112701693Y-128403681D01*
X112703471Y-128416048D01*
X112714244Y-128532310D01*
X112772596Y-128737392D01*
X112772596Y-128737394D01*
X112867632Y-128928253D01*
X112983264Y-129081373D01*
X112996128Y-129098407D01*
X113153698Y-129242052D01*
X113334981Y-129354298D01*
X113533802Y-129431321D01*
X113730613Y-129468111D01*
X113792893Y-129499779D01*
X113828166Y-129560092D01*
X113825232Y-129629900D01*
X113785023Y-129687040D01*
X113730613Y-129711888D01*
X113533802Y-129748679D01*
X113533799Y-129748679D01*
X113533799Y-129748680D01*
X113334982Y-129825701D01*
X113334980Y-129825702D01*
X113153699Y-129937947D01*
X112996127Y-130081593D01*
X112867632Y-130251746D01*
X112772596Y-130442605D01*
X112772596Y-130442607D01*
X112714244Y-130647689D01*
X112703471Y-130763951D01*
X112677685Y-130828888D01*
X112633130Y-130860804D01*
X112524622Y-130860804D01*
X112526869Y-130859194D01*
X112490497Y-130838331D01*
X112458307Y-130776318D01*
X112456529Y-130763951D01*
X112455849Y-130756613D01*
X112445756Y-130647690D01*
X112387405Y-130442611D01*
X112387403Y-130442606D01*
X112387403Y-130442605D01*
X112292367Y-130251746D01*
X112163872Y-130081593D01*
X112006302Y-129937948D01*
X111825019Y-129825702D01*
X111825017Y-129825701D01*
X111725608Y-129787190D01*
X111626198Y-129748679D01*
X111429385Y-129711888D01*
X111367106Y-129680221D01*
X111331833Y-129619908D01*
X111334767Y-129550100D01*
X111374976Y-129492960D01*
X111429384Y-129468111D01*
X111626198Y-129431321D01*
X111825019Y-129354298D01*
X112006302Y-129242052D01*
X112163872Y-129098407D01*
X112292366Y-128928255D01*
X112346270Y-128820000D01*
X112387403Y-128737394D01*
X112387403Y-128737393D01*
X112387405Y-128737389D01*
X112445756Y-128532310D01*
X112456529Y-128416047D01*
X112482315Y-128351111D01*
X112526869Y-128319194D01*
X112490497Y-128298331D01*
X112458307Y-128236318D01*
X112456529Y-128223951D01*
X112450969Y-128163951D01*
X112445756Y-128107690D01*
X112387405Y-127902611D01*
X112387403Y-127902606D01*
X112387403Y-127902605D01*
X112292367Y-127711746D01*
X112163872Y-127541593D01*
X112098874Y-127482339D01*
X112006302Y-127397948D01*
X111825019Y-127285702D01*
X111825017Y-127285701D01*
X111710674Y-127241405D01*
X111626198Y-127208679D01*
X111416610Y-127169500D01*
X111203390Y-127169500D01*
X110993802Y-127208679D01*
X110993799Y-127208679D01*
X110993799Y-127208680D01*
X110794982Y-127285701D01*
X110794980Y-127285702D01*
X110613699Y-127397947D01*
X110456127Y-127541593D01*
X110327632Y-127711746D01*
X110232596Y-127902605D01*
X110232596Y-127902607D01*
X110174244Y-128107689D01*
X110163471Y-128223951D01*
X110137685Y-128288888D01*
X110093130Y-128320804D01*
X110129503Y-128341668D01*
X110161693Y-128403681D01*
X110163471Y-128416048D01*
X110174244Y-128532310D01*
X110232596Y-128737392D01*
X110232596Y-128737394D01*
X110327632Y-128928253D01*
X110443264Y-129081373D01*
X110456128Y-129098407D01*
X110613698Y-129242052D01*
X110794981Y-129354298D01*
X110993802Y-129431321D01*
X111190613Y-129468111D01*
X111252893Y-129499779D01*
X111288166Y-129560092D01*
X111285232Y-129629900D01*
X111245023Y-129687040D01*
X111190613Y-129711888D01*
X110993802Y-129748679D01*
X110993799Y-129748679D01*
X110993799Y-129748680D01*
X110794982Y-129825701D01*
X110794980Y-129825702D01*
X110613699Y-129937947D01*
X110456127Y-130081593D01*
X110327632Y-130251746D01*
X110232596Y-130442605D01*
X110232596Y-130442607D01*
X110174244Y-130647689D01*
X110163471Y-130763951D01*
X110137685Y-130828888D01*
X110093130Y-130860804D01*
X109984622Y-130860804D01*
X109986869Y-130859194D01*
X109950497Y-130838331D01*
X109918307Y-130776318D01*
X109916529Y-130763951D01*
X109915849Y-130756613D01*
X109905756Y-130647690D01*
X109847405Y-130442611D01*
X109847403Y-130442606D01*
X109847403Y-130442605D01*
X109752367Y-130251746D01*
X109623872Y-130081593D01*
X109466302Y-129937948D01*
X109285019Y-129825702D01*
X109285017Y-129825701D01*
X109185608Y-129787190D01*
X109086198Y-129748679D01*
X108889385Y-129711888D01*
X108827106Y-129680221D01*
X108791833Y-129619908D01*
X108794767Y-129550100D01*
X108834976Y-129492960D01*
X108889384Y-129468111D01*
X109086198Y-129431321D01*
X109285019Y-129354298D01*
X109466302Y-129242052D01*
X109623872Y-129098407D01*
X109752366Y-128928255D01*
X109806270Y-128820000D01*
X109847403Y-128737394D01*
X109847403Y-128737393D01*
X109847405Y-128737389D01*
X109905756Y-128532310D01*
X109916529Y-128416047D01*
X109942315Y-128351111D01*
X109986869Y-128319194D01*
X109950497Y-128298331D01*
X109918307Y-128236318D01*
X109916529Y-128223951D01*
X109910969Y-128163951D01*
X109905756Y-128107690D01*
X109847405Y-127902611D01*
X109847403Y-127902606D01*
X109847403Y-127902605D01*
X109752367Y-127711746D01*
X109623872Y-127541593D01*
X109558874Y-127482339D01*
X109466302Y-127397948D01*
X109285019Y-127285702D01*
X109285017Y-127285701D01*
X109170674Y-127241405D01*
X109086198Y-127208679D01*
X108876610Y-127169500D01*
X108663390Y-127169500D01*
X108453802Y-127208679D01*
X108453799Y-127208679D01*
X108453799Y-127208680D01*
X108254982Y-127285701D01*
X108254980Y-127285702D01*
X108073699Y-127397947D01*
X107916127Y-127541593D01*
X107787632Y-127711746D01*
X107692596Y-127902605D01*
X107692596Y-127902607D01*
X107634244Y-128107689D01*
X107623471Y-128223951D01*
X107597685Y-128288888D01*
X107553130Y-128320804D01*
X107589503Y-128341668D01*
X107621693Y-128403681D01*
X107623471Y-128416048D01*
X107634244Y-128532310D01*
X107692596Y-128737392D01*
X107692596Y-128737394D01*
X107787632Y-128928253D01*
X107903264Y-129081373D01*
X107916128Y-129098407D01*
X108073698Y-129242052D01*
X108254981Y-129354298D01*
X108453802Y-129431321D01*
X108650613Y-129468111D01*
X108712893Y-129499779D01*
X108748166Y-129560092D01*
X108745232Y-129629900D01*
X108705023Y-129687040D01*
X108650613Y-129711888D01*
X108453802Y-129748679D01*
X108453799Y-129748679D01*
X108453799Y-129748680D01*
X108254982Y-129825701D01*
X108254980Y-129825702D01*
X108073699Y-129937947D01*
X107916127Y-130081593D01*
X107787632Y-130251746D01*
X107692596Y-130442605D01*
X107692596Y-130442607D01*
X107634244Y-130647689D01*
X107623471Y-130763951D01*
X107597685Y-130828888D01*
X107553130Y-130860804D01*
X107444622Y-130860804D01*
X107446869Y-130859194D01*
X107410497Y-130838331D01*
X107378307Y-130776318D01*
X107376529Y-130763951D01*
X107375849Y-130756613D01*
X107365756Y-130647690D01*
X107307405Y-130442611D01*
X107307403Y-130442606D01*
X107307403Y-130442605D01*
X107212367Y-130251746D01*
X107083872Y-130081593D01*
X106926302Y-129937948D01*
X106745019Y-129825702D01*
X106745017Y-129825701D01*
X106645608Y-129787190D01*
X106546198Y-129748679D01*
X106349385Y-129711888D01*
X106287106Y-129680221D01*
X106251833Y-129619908D01*
X106254767Y-129550100D01*
X106294976Y-129492960D01*
X106349384Y-129468111D01*
X106546198Y-129431321D01*
X106745019Y-129354298D01*
X106926302Y-129242052D01*
X107083872Y-129098407D01*
X107212366Y-128928255D01*
X107266270Y-128820000D01*
X107307403Y-128737394D01*
X107307403Y-128737393D01*
X107307405Y-128737389D01*
X107365756Y-128532310D01*
X107376529Y-128416047D01*
X107402315Y-128351111D01*
X107446869Y-128319194D01*
X107410497Y-128298331D01*
X107378307Y-128236318D01*
X107376529Y-128223951D01*
X107370969Y-128163951D01*
X107365756Y-128107690D01*
X107307405Y-127902611D01*
X107307403Y-127902606D01*
X107307403Y-127902605D01*
X107212367Y-127711746D01*
X107083872Y-127541593D01*
X107018874Y-127482339D01*
X106926302Y-127397948D01*
X106745019Y-127285702D01*
X106745017Y-127285701D01*
X106630674Y-127241405D01*
X106546198Y-127208679D01*
X106336610Y-127169500D01*
X106123390Y-127169500D01*
X105913802Y-127208679D01*
X105913799Y-127208679D01*
X105913799Y-127208680D01*
X105714982Y-127285701D01*
X105714980Y-127285702D01*
X105533699Y-127397947D01*
X105376127Y-127541593D01*
X105247632Y-127711746D01*
X105152596Y-127902605D01*
X105152596Y-127902607D01*
X105094244Y-128107689D01*
X105083471Y-128223951D01*
X105057685Y-128288888D01*
X105013130Y-128320804D01*
X105049503Y-128341668D01*
X105081693Y-128403681D01*
X105083471Y-128416048D01*
X105094244Y-128532310D01*
X105152596Y-128737392D01*
X105152596Y-128737394D01*
X105247632Y-128928253D01*
X105363264Y-129081373D01*
X105376128Y-129098407D01*
X105533698Y-129242052D01*
X105714981Y-129354298D01*
X105913802Y-129431321D01*
X106110613Y-129468111D01*
X106172893Y-129499779D01*
X106208166Y-129560092D01*
X106205232Y-129629900D01*
X106165023Y-129687040D01*
X106110613Y-129711888D01*
X105913802Y-129748679D01*
X105913799Y-129748679D01*
X105913799Y-129748680D01*
X105714982Y-129825701D01*
X105714980Y-129825702D01*
X105533699Y-129937947D01*
X105376127Y-130081593D01*
X105247632Y-130251746D01*
X105152596Y-130442605D01*
X105152596Y-130442607D01*
X105094244Y-130647689D01*
X105083471Y-130763951D01*
X105057685Y-130828888D01*
X105013130Y-130860804D01*
X104904622Y-130860804D01*
X104906869Y-130859194D01*
X104870497Y-130838331D01*
X104838307Y-130776318D01*
X104836529Y-130763951D01*
X104835849Y-130756613D01*
X104825756Y-130647690D01*
X104767405Y-130442611D01*
X104767403Y-130442606D01*
X104767403Y-130442605D01*
X104672367Y-130251746D01*
X104543872Y-130081593D01*
X104386302Y-129937948D01*
X104205019Y-129825702D01*
X104205017Y-129825701D01*
X104105608Y-129787190D01*
X104006198Y-129748679D01*
X103809385Y-129711888D01*
X103747106Y-129680221D01*
X103711833Y-129619908D01*
X103714767Y-129550100D01*
X103754976Y-129492960D01*
X103809384Y-129468111D01*
X104006198Y-129431321D01*
X104205019Y-129354298D01*
X104386302Y-129242052D01*
X104543872Y-129098407D01*
X104672366Y-128928255D01*
X104726270Y-128820000D01*
X104767403Y-128737394D01*
X104767403Y-128737393D01*
X104767405Y-128737389D01*
X104825756Y-128532310D01*
X104836529Y-128416047D01*
X104862315Y-128351111D01*
X104906869Y-128319194D01*
X104870497Y-128298331D01*
X104838307Y-128236318D01*
X104836529Y-128223951D01*
X104830969Y-128163951D01*
X104825756Y-128107690D01*
X104767405Y-127902611D01*
X104767403Y-127902606D01*
X104767403Y-127902605D01*
X104672367Y-127711746D01*
X104543872Y-127541593D01*
X104478874Y-127482339D01*
X104386302Y-127397948D01*
X104205019Y-127285702D01*
X104205017Y-127285701D01*
X104090674Y-127241405D01*
X104006198Y-127208679D01*
X103796610Y-127169500D01*
X103583390Y-127169500D01*
X103373802Y-127208679D01*
X103373799Y-127208679D01*
X103373799Y-127208680D01*
X103174982Y-127285701D01*
X103174980Y-127285702D01*
X102993699Y-127397947D01*
X102836127Y-127541593D01*
X102707632Y-127711746D01*
X102612596Y-127902605D01*
X102612596Y-127902607D01*
X102554244Y-128107689D01*
X102543471Y-128223951D01*
X102517685Y-128288888D01*
X102473130Y-128320804D01*
X102509503Y-128341668D01*
X102541693Y-128403681D01*
X102543471Y-128416048D01*
X102554244Y-128532310D01*
X102612596Y-128737392D01*
X102612596Y-128737394D01*
X102707632Y-128928253D01*
X102823264Y-129081373D01*
X102836128Y-129098407D01*
X102993698Y-129242052D01*
X103174981Y-129354298D01*
X103373802Y-129431321D01*
X103570613Y-129468111D01*
X103632893Y-129499779D01*
X103668166Y-129560092D01*
X103665232Y-129629900D01*
X103625023Y-129687040D01*
X103570613Y-129711888D01*
X103373802Y-129748679D01*
X103373799Y-129748679D01*
X103373799Y-129748680D01*
X103174982Y-129825701D01*
X103174980Y-129825702D01*
X102993699Y-129937947D01*
X102836127Y-130081593D01*
X102707632Y-130251746D01*
X102612596Y-130442605D01*
X102612596Y-130442607D01*
X102554244Y-130647689D01*
X102543471Y-130763951D01*
X102517685Y-130828888D01*
X102473130Y-130860804D01*
X102364622Y-130860804D01*
X102366869Y-130859194D01*
X102330497Y-130838331D01*
X102298307Y-130776318D01*
X102296529Y-130763951D01*
X102295849Y-130756613D01*
X102285756Y-130647690D01*
X102227405Y-130442611D01*
X102227403Y-130442606D01*
X102227403Y-130442605D01*
X102132367Y-130251746D01*
X102003872Y-130081593D01*
X101846302Y-129937948D01*
X101665019Y-129825702D01*
X101665017Y-129825701D01*
X101565608Y-129787190D01*
X101466198Y-129748679D01*
X101269385Y-129711888D01*
X101207106Y-129680221D01*
X101171833Y-129619908D01*
X101174767Y-129550100D01*
X101214976Y-129492960D01*
X101269384Y-129468111D01*
X101466198Y-129431321D01*
X101665019Y-129354298D01*
X101846302Y-129242052D01*
X102003872Y-129098407D01*
X102132366Y-128928255D01*
X102186270Y-128820000D01*
X102227403Y-128737394D01*
X102227403Y-128737393D01*
X102227405Y-128737389D01*
X102285756Y-128532310D01*
X102296529Y-128416047D01*
X102322315Y-128351111D01*
X102366869Y-128319194D01*
X102330497Y-128298331D01*
X102298307Y-128236318D01*
X102296529Y-128223951D01*
X102290969Y-128163951D01*
X102285756Y-128107690D01*
X102227405Y-127902611D01*
X102227403Y-127902606D01*
X102227403Y-127902605D01*
X102132367Y-127711746D01*
X102003872Y-127541593D01*
X101938874Y-127482339D01*
X101846302Y-127397948D01*
X101665019Y-127285702D01*
X101665017Y-127285701D01*
X101550674Y-127241405D01*
X101466198Y-127208679D01*
X101256610Y-127169500D01*
X101043390Y-127169500D01*
X100833802Y-127208679D01*
X100833799Y-127208679D01*
X100833799Y-127208680D01*
X100634982Y-127285701D01*
X100634980Y-127285702D01*
X100453699Y-127397947D01*
X100296127Y-127541593D01*
X100167632Y-127711746D01*
X100072596Y-127902605D01*
X100072596Y-127902607D01*
X100014244Y-128107689D01*
X100003471Y-128223951D01*
X99977685Y-128288888D01*
X99933130Y-128320804D01*
X99969503Y-128341668D01*
X100001693Y-128403681D01*
X100003471Y-128416048D01*
X100014244Y-128532310D01*
X100072596Y-128737392D01*
X100072596Y-128737394D01*
X100167632Y-128928253D01*
X100283264Y-129081373D01*
X100296128Y-129098407D01*
X100453698Y-129242052D01*
X100634981Y-129354298D01*
X100833802Y-129431321D01*
X101030613Y-129468111D01*
X101092893Y-129499779D01*
X101128166Y-129560092D01*
X101125232Y-129629900D01*
X101085023Y-129687040D01*
X101030613Y-129711888D01*
X100833802Y-129748679D01*
X100833799Y-129748679D01*
X100833799Y-129748680D01*
X100634982Y-129825701D01*
X100634980Y-129825702D01*
X100453699Y-129937947D01*
X100296127Y-130081593D01*
X100167632Y-130251746D01*
X100072596Y-130442605D01*
X100072596Y-130442607D01*
X100014244Y-130647689D01*
X100003471Y-130763951D01*
X99977685Y-130828888D01*
X99933130Y-130860804D01*
X99824622Y-130860804D01*
X99826869Y-130859194D01*
X99790497Y-130838331D01*
X99758307Y-130776318D01*
X99756529Y-130763951D01*
X99755849Y-130756613D01*
X99745756Y-130647690D01*
X99687405Y-130442611D01*
X99687403Y-130442606D01*
X99687403Y-130442605D01*
X99592367Y-130251746D01*
X99463872Y-130081593D01*
X99306302Y-129937948D01*
X99125019Y-129825702D01*
X99125017Y-129825701D01*
X99025608Y-129787190D01*
X98926198Y-129748679D01*
X98729385Y-129711888D01*
X98667106Y-129680221D01*
X98631833Y-129619908D01*
X98634767Y-129550100D01*
X98674976Y-129492960D01*
X98729384Y-129468111D01*
X98926198Y-129431321D01*
X99125019Y-129354298D01*
X99306302Y-129242052D01*
X99463872Y-129098407D01*
X99592366Y-128928255D01*
X99646270Y-128820000D01*
X99687403Y-128737394D01*
X99687403Y-128737393D01*
X99687405Y-128737389D01*
X99745756Y-128532310D01*
X99756529Y-128416047D01*
X99782315Y-128351111D01*
X99826869Y-128319194D01*
X99790497Y-128298331D01*
X99758307Y-128236318D01*
X99756529Y-128223951D01*
X99750969Y-128163951D01*
X99745756Y-128107690D01*
X99687405Y-127902611D01*
X99687403Y-127902606D01*
X99687403Y-127902605D01*
X99592367Y-127711746D01*
X99463872Y-127541593D01*
X99398874Y-127482339D01*
X99306302Y-127397948D01*
X99125019Y-127285702D01*
X99125017Y-127285701D01*
X99010674Y-127241405D01*
X98926198Y-127208679D01*
X98716610Y-127169500D01*
X98503390Y-127169500D01*
X98293802Y-127208679D01*
X98293799Y-127208679D01*
X98293799Y-127208680D01*
X98094982Y-127285701D01*
X98094980Y-127285702D01*
X97913699Y-127397947D01*
X97756127Y-127541593D01*
X97627632Y-127711746D01*
X97532596Y-127902605D01*
X97532596Y-127902607D01*
X97474244Y-128107689D01*
X97463471Y-128223951D01*
X97437685Y-128288888D01*
X97393130Y-128320804D01*
X97429503Y-128341668D01*
X97461693Y-128403681D01*
X97463471Y-128416048D01*
X97474244Y-128532310D01*
X97532596Y-128737392D01*
X97532596Y-128737394D01*
X97627632Y-128928253D01*
X97743264Y-129081373D01*
X97756128Y-129098407D01*
X97913698Y-129242052D01*
X98094981Y-129354298D01*
X98293802Y-129431321D01*
X98490613Y-129468111D01*
X98552893Y-129499779D01*
X98588166Y-129560092D01*
X98585232Y-129629900D01*
X98545023Y-129687040D01*
X98490613Y-129711888D01*
X98293802Y-129748679D01*
X98293799Y-129748679D01*
X98293799Y-129748680D01*
X98094982Y-129825701D01*
X98094980Y-129825702D01*
X97913699Y-129937947D01*
X97756127Y-130081593D01*
X97627632Y-130251746D01*
X97532596Y-130442605D01*
X97532596Y-130442607D01*
X97474244Y-130647689D01*
X97463471Y-130763951D01*
X97437685Y-130828888D01*
X97393130Y-130860804D01*
X97284622Y-130860804D01*
X97286869Y-130859194D01*
X97250497Y-130838331D01*
X97218307Y-130776318D01*
X97216529Y-130763951D01*
X97215849Y-130756613D01*
X97205756Y-130647690D01*
X97147405Y-130442611D01*
X97147403Y-130442606D01*
X97147403Y-130442605D01*
X97052367Y-130251746D01*
X96923872Y-130081593D01*
X96766302Y-129937948D01*
X96585019Y-129825702D01*
X96585017Y-129825701D01*
X96485608Y-129787190D01*
X96386198Y-129748679D01*
X96189385Y-129711888D01*
X96127106Y-129680221D01*
X96091833Y-129619908D01*
X96094767Y-129550100D01*
X96134976Y-129492960D01*
X96189384Y-129468111D01*
X96386198Y-129431321D01*
X96585019Y-129354298D01*
X96766302Y-129242052D01*
X96923872Y-129098407D01*
X97052366Y-128928255D01*
X97106270Y-128820000D01*
X97147403Y-128737394D01*
X97147403Y-128737393D01*
X97147405Y-128737389D01*
X97205756Y-128532310D01*
X97216529Y-128416047D01*
X97242315Y-128351111D01*
X97286869Y-128319194D01*
X97250497Y-128298331D01*
X97218307Y-128236318D01*
X97216529Y-128223951D01*
X97210969Y-128163951D01*
X97205756Y-128107690D01*
X97147405Y-127902611D01*
X97147403Y-127902606D01*
X97147403Y-127902605D01*
X97052367Y-127711746D01*
X96923872Y-127541593D01*
X96858874Y-127482339D01*
X96766302Y-127397948D01*
X96585019Y-127285702D01*
X96585017Y-127285701D01*
X96470674Y-127241405D01*
X96386198Y-127208679D01*
X96176610Y-127169500D01*
X95963390Y-127169500D01*
X95753802Y-127208679D01*
X95753799Y-127208679D01*
X95753799Y-127208680D01*
X95554982Y-127285701D01*
X95554980Y-127285702D01*
X95373699Y-127397947D01*
X95216127Y-127541593D01*
X95087632Y-127711746D01*
X94992596Y-127902605D01*
X94992596Y-127902607D01*
X94934244Y-128107689D01*
X94923471Y-128223951D01*
X94897685Y-128288888D01*
X94853130Y-128320804D01*
X94889503Y-128341668D01*
X94921693Y-128403681D01*
X94923471Y-128416048D01*
X94934244Y-128532310D01*
X94992596Y-128737392D01*
X94992596Y-128737394D01*
X95087632Y-128928253D01*
X95203264Y-129081373D01*
X95216128Y-129098407D01*
X95373698Y-129242052D01*
X95554981Y-129354298D01*
X95753802Y-129431321D01*
X95950613Y-129468111D01*
X96012893Y-129499779D01*
X96048166Y-129560092D01*
X96045232Y-129629900D01*
X96005023Y-129687040D01*
X95950613Y-129711888D01*
X95753802Y-129748679D01*
X95753799Y-129748679D01*
X95753799Y-129748680D01*
X95554982Y-129825701D01*
X95554980Y-129825702D01*
X95373699Y-129937947D01*
X95216127Y-130081593D01*
X95087632Y-130251746D01*
X94992596Y-130442605D01*
X94992596Y-130442607D01*
X94934244Y-130647689D01*
X94923471Y-130763951D01*
X94897685Y-130828888D01*
X94853130Y-130860804D01*
X94744622Y-130860804D01*
X94746869Y-130859194D01*
X94710497Y-130838331D01*
X94678307Y-130776318D01*
X94676529Y-130763951D01*
X94675849Y-130756613D01*
X94665756Y-130647690D01*
X94607405Y-130442611D01*
X94607403Y-130442606D01*
X94607403Y-130442605D01*
X94512367Y-130251746D01*
X94383872Y-130081593D01*
X94226302Y-129937948D01*
X94045019Y-129825702D01*
X94045017Y-129825701D01*
X93945608Y-129787190D01*
X93846198Y-129748679D01*
X93649385Y-129711888D01*
X93587106Y-129680221D01*
X93551833Y-129619908D01*
X93554767Y-129550100D01*
X93594976Y-129492960D01*
X93649384Y-129468111D01*
X93846198Y-129431321D01*
X94045019Y-129354298D01*
X94226302Y-129242052D01*
X94383872Y-129098407D01*
X94512366Y-128928255D01*
X94566270Y-128820000D01*
X94607403Y-128737394D01*
X94607403Y-128737393D01*
X94607405Y-128737389D01*
X94665756Y-128532310D01*
X94676529Y-128416047D01*
X94702315Y-128351111D01*
X94746869Y-128319194D01*
X94710497Y-128298331D01*
X94678307Y-128236318D01*
X94676529Y-128223951D01*
X94670969Y-128163951D01*
X94665756Y-128107690D01*
X94607405Y-127902611D01*
X94607403Y-127902606D01*
X94607403Y-127902605D01*
X94512367Y-127711746D01*
X94383872Y-127541593D01*
X94318874Y-127482339D01*
X94226302Y-127397948D01*
X94045019Y-127285702D01*
X94045017Y-127285701D01*
X93930674Y-127241405D01*
X93846198Y-127208679D01*
X93636610Y-127169500D01*
X93423390Y-127169500D01*
X93213802Y-127208679D01*
X93213799Y-127208679D01*
X93213799Y-127208680D01*
X93014982Y-127285701D01*
X93014980Y-127285702D01*
X92833699Y-127397947D01*
X92676127Y-127541593D01*
X92547634Y-127711744D01*
X92480676Y-127846215D01*
X92433173Y-127897452D01*
X92365510Y-127914873D01*
X92299170Y-127892947D01*
X92257294Y-127843348D01*
X92163600Y-127642422D01*
X92163599Y-127642420D01*
X92028113Y-127448926D01*
X92028108Y-127448920D01*
X91861082Y-127281894D01*
X91667578Y-127146399D01*
X91453492Y-127046570D01*
X91453486Y-127046567D01*
X91240000Y-126989364D01*
X91240000Y-127884498D01*
X91132315Y-127835320D01*
X91025763Y-127820000D01*
X90954237Y-127820000D01*
X90847685Y-127835320D01*
X90740000Y-127884498D01*
X90740000Y-126989364D01*
X90739999Y-126989364D01*
X90526513Y-127046567D01*
X90526507Y-127046570D01*
X90312422Y-127146399D01*
X90312420Y-127146400D01*
X90118926Y-127281886D01*
X90118920Y-127281891D01*
X89951891Y-127448920D01*
X89951886Y-127448926D01*
X89816400Y-127642420D01*
X89816399Y-127642422D01*
X89716570Y-127856507D01*
X89716567Y-127856513D01*
X89659364Y-128069999D01*
X89659364Y-128070000D01*
X90556314Y-128070000D01*
X90530507Y-128110156D01*
X90490000Y-128248111D01*
X90490000Y-128391889D01*
X90530507Y-128529844D01*
X90556314Y-128570000D01*
X89659364Y-128570000D01*
X68750000Y-128570000D01*
X68750000Y-123380000D01*
X103724355Y-123380000D01*
X103744859Y-123548869D01*
X103744860Y-123548874D01*
X103805182Y-123707931D01*
X103832792Y-123747930D01*
X103901817Y-123847929D01*
X104007505Y-123941560D01*
X104029150Y-123960736D01*
X104179773Y-124039789D01*
X104179775Y-124039790D01*
X104344944Y-124080500D01*
X104515056Y-124080500D01*
X104680225Y-124039790D01*
X104830852Y-123960734D01*
X104897506Y-123901683D01*
X104960740Y-123871963D01*
X104979733Y-123870500D01*
X110665117Y-123870500D01*
X110732156Y-123890185D01*
X110747344Y-123901685D01*
X110859147Y-124000733D01*
X110859149Y-124000735D01*
X110933560Y-124039789D01*
X111009775Y-124079790D01*
X111174944Y-124120500D01*
X111345056Y-124120500D01*
X111510225Y-124079790D01*
X111589692Y-124038081D01*
X111660849Y-124000736D01*
X111660850Y-124000734D01*
X111660852Y-124000734D01*
X111788183Y-123887929D01*
X111884818Y-123747930D01*
X111945140Y-123588872D01*
X111965645Y-123420000D01*
X111945140Y-123251128D01*
X111884818Y-123092070D01*
X111873911Y-123076269D01*
X111850476Y-123042318D01*
X111788183Y-122952071D01*
X111660852Y-122839266D01*
X111660849Y-122839263D01*
X111510226Y-122760210D01*
X111345056Y-122719500D01*
X111174944Y-122719500D01*
X111009773Y-122760210D01*
X110859149Y-122839264D01*
X110859147Y-122839266D01*
X110747344Y-122938315D01*
X110684111Y-122968037D01*
X110665117Y-122969500D01*
X105062904Y-122969500D01*
X104995865Y-122949815D01*
X104960856Y-122915944D01*
X104958840Y-122913024D01*
X104958183Y-122912071D01*
X104887732Y-122849657D01*
X104830849Y-122799263D01*
X104680226Y-122720210D01*
X104515056Y-122679500D01*
X104344944Y-122679500D01*
X104179773Y-122720210D01*
X104029150Y-122799263D01*
X103901816Y-122912072D01*
X103805182Y-123052068D01*
X103744860Y-123211125D01*
X103744859Y-123211130D01*
X103724355Y-123380000D01*
X68750000Y-123380000D01*
X68750000Y-121850000D01*
X85834785Y-121850000D01*
X85853602Y-122053082D01*
X85909417Y-122249247D01*
X85909422Y-122249260D01*
X86000327Y-122431821D01*
X86123237Y-122594581D01*
X86273958Y-122731980D01*
X86273960Y-122731982D01*
X86319550Y-122760210D01*
X86447363Y-122839348D01*
X86637544Y-122913024D01*
X86838024Y-122950500D01*
X86838026Y-122950500D01*
X87041974Y-122950500D01*
X87041976Y-122950500D01*
X87242456Y-122913024D01*
X87432637Y-122839348D01*
X87606041Y-122731981D01*
X87756764Y-122594579D01*
X87879673Y-122431821D01*
X87970582Y-122249250D01*
X88026397Y-122053083D01*
X88045215Y-121850000D01*
X88026397Y-121646917D01*
X88013048Y-121599999D01*
X93281127Y-121599999D01*
X93281128Y-121600000D01*
X94244314Y-121600000D01*
X94232359Y-121611955D01*
X94174835Y-121724852D01*
X94155014Y-121850000D01*
X94174835Y-121975148D01*
X94232359Y-122088045D01*
X94244314Y-122100000D01*
X93281128Y-122100000D01*
X93333730Y-122296317D01*
X93333734Y-122296326D01*
X93429865Y-122502482D01*
X93560342Y-122688820D01*
X93721179Y-122849657D01*
X93907517Y-122980134D01*
X94113673Y-123076265D01*
X94113682Y-123076269D01*
X94309999Y-123128872D01*
X94310000Y-123128871D01*
X94310000Y-122165686D01*
X94321955Y-122177641D01*
X94434852Y-122235165D01*
X94528519Y-122250000D01*
X94591481Y-122250000D01*
X94685148Y-122235165D01*
X94798045Y-122177641D01*
X94810000Y-122165686D01*
X94810000Y-123128872D01*
X95006317Y-123076269D01*
X95006326Y-123076265D01*
X95212482Y-122980134D01*
X95398820Y-122849657D01*
X95559657Y-122688820D01*
X95690134Y-122502482D01*
X95786265Y-122296326D01*
X95786269Y-122296317D01*
X95838872Y-122100000D01*
X94875686Y-122100000D01*
X94887641Y-122088045D01*
X94945165Y-121975148D01*
X94964986Y-121850000D01*
X94945165Y-121724852D01*
X94887641Y-121611955D01*
X94875686Y-121600000D01*
X95838872Y-121600000D01*
X95838872Y-121599999D01*
X95786269Y-121403682D01*
X95786265Y-121403673D01*
X95690134Y-121197517D01*
X95559657Y-121011179D01*
X95398820Y-120850342D01*
X95212482Y-120719865D01*
X95006326Y-120623734D01*
X95006317Y-120623730D01*
X94905430Y-120596698D01*
X94845769Y-120560333D01*
X94815240Y-120497486D01*
X94823535Y-120428110D01*
X94868020Y-120374233D01*
X94892727Y-120361296D01*
X95052637Y-120299348D01*
X95226041Y-120191981D01*
X95376764Y-120054579D01*
X95499673Y-119891821D01*
X95590582Y-119709250D01*
X95646397Y-119513083D01*
X95665215Y-119310000D01*
X95646397Y-119106917D01*
X95590582Y-118910750D01*
X95583375Y-118896277D01*
X95523582Y-118776195D01*
X95499673Y-118728179D01*
X95376764Y-118565421D01*
X95376762Y-118565418D01*
X95226041Y-118428019D01*
X95226039Y-118428017D01*
X95052642Y-118320655D01*
X95052635Y-118320651D01*
X94957546Y-118283814D01*
X94862456Y-118246976D01*
X94661976Y-118209500D01*
X94458024Y-118209500D01*
X94257544Y-118246976D01*
X94257541Y-118246976D01*
X94257541Y-118246977D01*
X94067364Y-118320651D01*
X94067357Y-118320655D01*
X93893960Y-118428017D01*
X93893958Y-118428019D01*
X93743237Y-118565418D01*
X93620327Y-118728178D01*
X93529422Y-118910739D01*
X93529417Y-118910752D01*
X93473602Y-119106917D01*
X93454785Y-119309999D01*
X93454785Y-119310000D01*
X93473602Y-119513082D01*
X93529417Y-119709247D01*
X93529422Y-119709260D01*
X93620327Y-119891821D01*
X93743237Y-120054581D01*
X93893958Y-120191980D01*
X93893960Y-120191982D01*
X93993141Y-120253392D01*
X94067363Y-120299348D01*
X94187418Y-120345857D01*
X94227270Y-120361296D01*
X94282672Y-120403869D01*
X94306262Y-120469636D01*
X94290551Y-120537716D01*
X94240527Y-120586495D01*
X94214570Y-120596698D01*
X94113680Y-120623731D01*
X94113673Y-120623734D01*
X93907517Y-120719865D01*
X93721179Y-120850342D01*
X93560342Y-121011179D01*
X93429865Y-121197517D01*
X93333734Y-121403673D01*
X93333730Y-121403682D01*
X93281127Y-121599999D01*
X88013048Y-121599999D01*
X87970582Y-121450750D01*
X87879673Y-121268179D01*
X87756764Y-121105421D01*
X87756762Y-121105418D01*
X87606041Y-120968019D01*
X87606039Y-120968017D01*
X87432642Y-120860655D01*
X87432635Y-120860651D01*
X87332544Y-120821876D01*
X87242456Y-120786976D01*
X87041976Y-120749500D01*
X86838024Y-120749500D01*
X86637544Y-120786976D01*
X86637541Y-120786976D01*
X86637541Y-120786977D01*
X86447364Y-120860651D01*
X86447357Y-120860655D01*
X86273960Y-120968017D01*
X86273958Y-120968019D01*
X86123237Y-121105418D01*
X86000327Y-121268178D01*
X85909422Y-121450739D01*
X85909417Y-121450752D01*
X85853602Y-121646917D01*
X85834785Y-121849999D01*
X85834785Y-121850000D01*
X68750000Y-121850000D01*
X68750000Y-119310000D01*
X85834785Y-119310000D01*
X85853602Y-119513082D01*
X85909417Y-119709247D01*
X85909422Y-119709260D01*
X86000327Y-119891821D01*
X86123237Y-120054581D01*
X86273958Y-120191980D01*
X86273960Y-120191982D01*
X86373141Y-120253392D01*
X86447363Y-120299348D01*
X86637544Y-120373024D01*
X86838024Y-120410500D01*
X86838026Y-120410500D01*
X87041974Y-120410500D01*
X87041976Y-120410500D01*
X87242456Y-120373024D01*
X87432637Y-120299348D01*
X87606041Y-120191981D01*
X87756764Y-120054579D01*
X87879673Y-119891821D01*
X87970582Y-119709250D01*
X88026397Y-119513083D01*
X88045215Y-119310000D01*
X88026397Y-119106917D01*
X87970582Y-118910750D01*
X87963375Y-118896277D01*
X87903582Y-118776195D01*
X87879673Y-118728179D01*
X87756764Y-118565421D01*
X87756762Y-118565418D01*
X87606041Y-118428019D01*
X87606039Y-118428017D01*
X87432642Y-118320655D01*
X87432635Y-118320651D01*
X87337546Y-118283814D01*
X87242456Y-118246976D01*
X87041976Y-118209500D01*
X86838024Y-118209500D01*
X86637544Y-118246976D01*
X86637541Y-118246976D01*
X86637541Y-118246977D01*
X86447364Y-118320651D01*
X86447357Y-118320655D01*
X86273960Y-118428017D01*
X86273958Y-118428019D01*
X86123237Y-118565418D01*
X86000327Y-118728178D01*
X85909422Y-118910739D01*
X85909417Y-118910752D01*
X85853602Y-119106917D01*
X85834785Y-119309999D01*
X85834785Y-119310000D01*
X68750000Y-119310000D01*
X68750000Y-116770000D01*
X85834785Y-116770000D01*
X85853602Y-116973082D01*
X85909417Y-117169247D01*
X85909422Y-117169260D01*
X86000327Y-117351821D01*
X86123237Y-117514581D01*
X86273958Y-117651980D01*
X86273960Y-117651982D01*
X86373141Y-117713392D01*
X86447363Y-117759348D01*
X86637544Y-117833024D01*
X86838024Y-117870500D01*
X86838026Y-117870500D01*
X87041974Y-117870500D01*
X87041976Y-117870500D01*
X87242456Y-117833024D01*
X87432637Y-117759348D01*
X87606041Y-117651981D01*
X87756764Y-117514579D01*
X87879673Y-117351821D01*
X87970582Y-117169250D01*
X88026397Y-116973083D01*
X88045215Y-116770000D01*
X93454785Y-116770000D01*
X93473602Y-116973082D01*
X93529417Y-117169247D01*
X93529422Y-117169260D01*
X93620327Y-117351821D01*
X93743237Y-117514581D01*
X93893958Y-117651980D01*
X93893960Y-117651982D01*
X93993141Y-117713392D01*
X94067363Y-117759348D01*
X94257544Y-117833024D01*
X94458024Y-117870500D01*
X94458026Y-117870500D01*
X94661974Y-117870500D01*
X94661976Y-117870500D01*
X94862456Y-117833024D01*
X95052637Y-117759348D01*
X95226041Y-117651981D01*
X95376764Y-117514579D01*
X95499673Y-117351821D01*
X95590582Y-117169250D01*
X95646397Y-116973083D01*
X95665215Y-116770000D01*
X95646397Y-116566917D01*
X95590582Y-116370750D01*
X95499673Y-116188179D01*
X95440704Y-116110091D01*
X95376762Y-116025418D01*
X95226041Y-115888019D01*
X95226039Y-115888017D01*
X95052642Y-115780655D01*
X95052635Y-115780651D01*
X94957546Y-115743814D01*
X94862456Y-115706976D01*
X94661976Y-115669500D01*
X94458024Y-115669500D01*
X94257544Y-115706976D01*
X94257541Y-115706976D01*
X94257541Y-115706977D01*
X94067364Y-115780651D01*
X94067357Y-115780655D01*
X93893960Y-115888017D01*
X93893958Y-115888019D01*
X93743237Y-116025418D01*
X93620327Y-116188178D01*
X93529422Y-116370739D01*
X93529417Y-116370752D01*
X93473602Y-116566917D01*
X93454785Y-116769999D01*
X93454785Y-116770000D01*
X88045215Y-116770000D01*
X88026397Y-116566917D01*
X87970582Y-116370750D01*
X87879673Y-116188179D01*
X87820704Y-116110091D01*
X87756762Y-116025418D01*
X87606041Y-115888019D01*
X87606039Y-115888017D01*
X87432642Y-115780655D01*
X87432635Y-115780651D01*
X87337546Y-115743814D01*
X87242456Y-115706976D01*
X87041976Y-115669500D01*
X86838024Y-115669500D01*
X86637544Y-115706976D01*
X86637541Y-115706976D01*
X86637541Y-115706977D01*
X86447364Y-115780651D01*
X86447357Y-115780655D01*
X86273960Y-115888017D01*
X86273958Y-115888019D01*
X86123237Y-116025418D01*
X86000327Y-116188178D01*
X85909422Y-116370739D01*
X85909417Y-116370752D01*
X85853602Y-116566917D01*
X85834785Y-116769999D01*
X85834785Y-116770000D01*
X68750000Y-116770000D01*
X68750000Y-109497394D01*
X71004500Y-109497394D01*
X71011962Y-109520358D01*
X71016503Y-109539273D01*
X71018084Y-109549253D01*
X71020281Y-109563127D01*
X71031243Y-109584641D01*
X71038688Y-109602615D01*
X71046150Y-109625580D01*
X71060340Y-109645110D01*
X71070508Y-109661703D01*
X71081470Y-109683218D01*
X71081472Y-109683220D01*
X71105446Y-109707194D01*
X75879129Y-114480876D01*
X75879139Y-114480887D01*
X75881471Y-114483219D01*
X75881472Y-114483220D01*
X75976780Y-114578528D01*
X75998301Y-114589493D01*
X76014880Y-114599653D01*
X76034419Y-114613849D01*
X76057381Y-114621309D01*
X76075354Y-114628753D01*
X76096874Y-114639719D01*
X76120724Y-114643495D01*
X76139645Y-114648039D01*
X76161489Y-114655136D01*
X76162607Y-114655500D01*
X76196512Y-114655500D01*
X85845712Y-114655500D01*
X85912751Y-114675185D01*
X85956710Y-114724225D01*
X86000327Y-114811821D01*
X86000329Y-114811823D01*
X86123237Y-114974581D01*
X86273958Y-115111980D01*
X86273960Y-115111982D01*
X86373141Y-115173392D01*
X86447363Y-115219348D01*
X86637544Y-115293024D01*
X86838024Y-115330500D01*
X86838026Y-115330500D01*
X87041974Y-115330500D01*
X87041976Y-115330500D01*
X87242456Y-115293024D01*
X87432637Y-115219348D01*
X87606041Y-115111981D01*
X87756764Y-114974579D01*
X87879673Y-114811821D01*
X87970582Y-114629250D01*
X88026397Y-114433083D01*
X88045215Y-114230000D01*
X93454785Y-114230000D01*
X93473602Y-114433082D01*
X93529417Y-114629247D01*
X93529422Y-114629260D01*
X93620327Y-114811821D01*
X93743237Y-114974581D01*
X93893958Y-115111980D01*
X93893960Y-115111982D01*
X93993141Y-115173392D01*
X94067363Y-115219348D01*
X94257544Y-115293024D01*
X94458024Y-115330500D01*
X94458026Y-115330500D01*
X94661974Y-115330500D01*
X94661976Y-115330500D01*
X94862456Y-115293024D01*
X95052637Y-115219348D01*
X95226041Y-115111981D01*
X95376764Y-114974579D01*
X95499673Y-114811821D01*
X95590582Y-114629250D01*
X95623089Y-114515000D01*
X99114364Y-114515000D01*
X99171567Y-114728486D01*
X99171570Y-114728492D01*
X99271399Y-114942578D01*
X99406894Y-115136082D01*
X99573917Y-115303105D01*
X99767421Y-115438600D01*
X99966573Y-115531466D01*
X100019012Y-115577638D01*
X100038164Y-115644832D01*
X100017948Y-115711713D01*
X99964783Y-115757048D01*
X99958968Y-115759472D01*
X99951771Y-115762260D01*
X99929982Y-115770701D01*
X99929980Y-115770702D01*
X99748699Y-115882947D01*
X99591127Y-116026593D01*
X99462632Y-116196746D01*
X99367596Y-116387605D01*
X99367596Y-116387607D01*
X99309244Y-116592689D01*
X99307643Y-116609973D01*
X99289571Y-116805000D01*
X99309244Y-117017310D01*
X99352475Y-117169250D01*
X99367596Y-117222392D01*
X99367596Y-117222394D01*
X99462632Y-117413253D01*
X99546235Y-117523960D01*
X99591128Y-117583407D01*
X99748698Y-117727052D01*
X99929981Y-117839298D01*
X100128802Y-117916321D01*
X100325613Y-117953111D01*
X100387893Y-117984779D01*
X100423166Y-118045092D01*
X100420232Y-118114900D01*
X100380023Y-118172040D01*
X100325613Y-118196888D01*
X100128802Y-118233679D01*
X100128799Y-118233679D01*
X100128799Y-118233680D01*
X99929982Y-118310701D01*
X99929980Y-118310702D01*
X99748699Y-118422947D01*
X99591127Y-118566593D01*
X99462632Y-118736746D01*
X99367596Y-118927605D01*
X99367596Y-118927607D01*
X99354107Y-118975017D01*
X99309244Y-119132690D01*
X99289571Y-119345000D01*
X99309244Y-119557310D01*
X99352475Y-119709250D01*
X99367596Y-119762392D01*
X99367596Y-119762394D01*
X99462632Y-119953253D01*
X99591127Y-120123406D01*
X99591128Y-120123407D01*
X99748698Y-120267052D01*
X99929981Y-120379298D01*
X100128802Y-120456321D01*
X100338390Y-120495500D01*
X100338392Y-120495500D01*
X100551608Y-120495500D01*
X100551610Y-120495500D01*
X100761198Y-120456321D01*
X100960019Y-120379298D01*
X101141302Y-120267052D01*
X101298872Y-120123407D01*
X101427366Y-119953255D01*
X101522405Y-119762389D01*
X101580756Y-119557310D01*
X101600429Y-119345000D01*
X101580756Y-119132690D01*
X101522405Y-118927611D01*
X101522403Y-118927606D01*
X101522403Y-118927605D01*
X101427367Y-118736746D01*
X101298872Y-118566593D01*
X101297583Y-118565418D01*
X101141302Y-118422948D01*
X100960019Y-118310702D01*
X100960017Y-118310701D01*
X100795524Y-118246977D01*
X100761198Y-118233679D01*
X100564385Y-118196888D01*
X100502106Y-118165221D01*
X100466833Y-118104908D01*
X100469767Y-118035100D01*
X100509976Y-117977960D01*
X100564384Y-117953111D01*
X100761198Y-117916321D01*
X100960019Y-117839298D01*
X101141302Y-117727052D01*
X101298872Y-117583407D01*
X101427366Y-117413255D01*
X101457956Y-117351821D01*
X101522403Y-117222394D01*
X101522403Y-117222393D01*
X101522405Y-117222389D01*
X101580756Y-117017310D01*
X101600429Y-116805000D01*
X101580756Y-116592690D01*
X101522405Y-116387611D01*
X101522403Y-116387606D01*
X101522403Y-116387605D01*
X101427367Y-116196746D01*
X101298872Y-116026593D01*
X101297583Y-116025418D01*
X101141302Y-115882948D01*
X100960019Y-115770702D01*
X100960014Y-115770700D01*
X100953129Y-115768032D01*
X100931037Y-115759474D01*
X100875636Y-115716903D01*
X100852045Y-115651136D01*
X100867756Y-115583056D01*
X100917779Y-115534276D01*
X100923426Y-115531466D01*
X101122578Y-115438599D01*
X101316082Y-115303105D01*
X101483105Y-115136082D01*
X101618600Y-114942578D01*
X101718429Y-114728492D01*
X101718432Y-114728486D01*
X101775636Y-114515000D01*
X114334364Y-114515000D01*
X114391567Y-114728486D01*
X114391570Y-114728492D01*
X114491399Y-114942578D01*
X114626894Y-115136082D01*
X114793917Y-115303105D01*
X114987421Y-115438600D01*
X115186573Y-115531466D01*
X115239012Y-115577638D01*
X115258164Y-115644832D01*
X115237948Y-115711713D01*
X115184783Y-115757048D01*
X115178968Y-115759472D01*
X115171771Y-115762260D01*
X115149982Y-115770701D01*
X115149980Y-115770702D01*
X114968699Y-115882947D01*
X114811127Y-116026593D01*
X114682632Y-116196746D01*
X114587596Y-116387605D01*
X114587596Y-116387607D01*
X114529244Y-116592689D01*
X114527643Y-116609973D01*
X114509571Y-116805000D01*
X114529244Y-117017310D01*
X114572475Y-117169250D01*
X114587596Y-117222392D01*
X114587596Y-117222394D01*
X114682632Y-117413253D01*
X114766235Y-117523960D01*
X114811128Y-117583407D01*
X114968698Y-117727052D01*
X115149981Y-117839298D01*
X115348802Y-117916321D01*
X115545613Y-117953111D01*
X115607893Y-117984779D01*
X115643166Y-118045092D01*
X115640232Y-118114900D01*
X115600023Y-118172040D01*
X115545613Y-118196888D01*
X115348802Y-118233679D01*
X115348799Y-118233679D01*
X115348799Y-118233680D01*
X115149982Y-118310701D01*
X115149980Y-118310702D01*
X114968699Y-118422947D01*
X114811127Y-118566593D01*
X114682632Y-118736746D01*
X114587596Y-118927605D01*
X114587596Y-118927607D01*
X114574107Y-118975017D01*
X114529244Y-119132690D01*
X114509571Y-119345000D01*
X114529244Y-119557310D01*
X114572475Y-119709250D01*
X114587596Y-119762392D01*
X114587596Y-119762394D01*
X114682632Y-119953253D01*
X114811127Y-120123406D01*
X114811128Y-120123407D01*
X114968698Y-120267052D01*
X115149981Y-120379298D01*
X115348802Y-120456321D01*
X115558390Y-120495500D01*
X115558392Y-120495500D01*
X115771608Y-120495500D01*
X115771610Y-120495500D01*
X115981198Y-120456321D01*
X116180019Y-120379298D01*
X116361302Y-120267052D01*
X116518872Y-120123407D01*
X116647366Y-119953255D01*
X116742405Y-119762389D01*
X116800756Y-119557310D01*
X116820429Y-119345000D01*
X116800756Y-119132690D01*
X116742405Y-118927611D01*
X116742403Y-118927606D01*
X116742403Y-118927605D01*
X116647367Y-118736746D01*
X116518872Y-118566593D01*
X116517583Y-118565418D01*
X116361302Y-118422948D01*
X116180019Y-118310702D01*
X116180017Y-118310701D01*
X116015524Y-118246977D01*
X115981198Y-118233679D01*
X115784385Y-118196888D01*
X115722106Y-118165221D01*
X115686833Y-118104908D01*
X115689767Y-118035100D01*
X115729976Y-117977960D01*
X115784384Y-117953111D01*
X115981198Y-117916321D01*
X116180019Y-117839298D01*
X116361302Y-117727052D01*
X116518872Y-117583407D01*
X116647366Y-117413255D01*
X116677956Y-117351821D01*
X116742403Y-117222394D01*
X116742403Y-117222393D01*
X116742405Y-117222389D01*
X116800756Y-117017310D01*
X116820429Y-116805000D01*
X116800756Y-116592690D01*
X116742405Y-116387611D01*
X116742403Y-116387606D01*
X116742403Y-116387605D01*
X116647367Y-116196746D01*
X116518872Y-116026593D01*
X116517583Y-116025418D01*
X116361302Y-115882948D01*
X116180019Y-115770702D01*
X116180014Y-115770700D01*
X116173129Y-115768032D01*
X116151037Y-115759474D01*
X116095636Y-115716903D01*
X116072045Y-115651136D01*
X116087756Y-115583056D01*
X116137779Y-115534276D01*
X116143426Y-115531466D01*
X116342578Y-115438599D01*
X116536082Y-115303105D01*
X116703105Y-115136082D01*
X116838600Y-114942578D01*
X116938429Y-114728492D01*
X116938432Y-114728486D01*
X116995636Y-114515000D01*
X116098686Y-114515000D01*
X116124493Y-114474844D01*
X116165000Y-114336889D01*
X116165000Y-114193111D01*
X116124493Y-114055156D01*
X116098686Y-114015000D01*
X116995636Y-114015000D01*
X116995635Y-114014999D01*
X116938432Y-113801513D01*
X116938429Y-113801507D01*
X116838600Y-113587422D01*
X116838599Y-113587420D01*
X116703113Y-113393926D01*
X116703108Y-113393920D01*
X116536082Y-113226894D01*
X116342578Y-113091399D01*
X116143426Y-112998533D01*
X116090987Y-112952360D01*
X116071835Y-112885167D01*
X116092051Y-112818286D01*
X116145216Y-112772951D01*
X116151005Y-112770537D01*
X116180019Y-112759298D01*
X116361302Y-112647052D01*
X116518872Y-112503407D01*
X116647366Y-112333255D01*
X116686983Y-112253692D01*
X116742403Y-112142394D01*
X116742403Y-112142393D01*
X116742405Y-112142389D01*
X116800756Y-111937310D01*
X116819966Y-111730000D01*
X117244355Y-111730000D01*
X117264859Y-111898869D01*
X117264860Y-111898874D01*
X117325182Y-112057931D01*
X117383480Y-112142389D01*
X117421817Y-112197929D01*
X117504405Y-112271095D01*
X117549150Y-112310736D01*
X117699773Y-112389789D01*
X117699775Y-112389790D01*
X117864944Y-112430500D01*
X118035056Y-112430500D01*
X118200225Y-112389790D01*
X118289547Y-112342909D01*
X118350845Y-112310738D01*
X118350846Y-112310736D01*
X118350852Y-112310734D01*
X118350856Y-112310730D01*
X118357020Y-112306476D01*
X118357960Y-112307839D01*
X118413011Y-112281963D01*
X118432006Y-112280500D01*
X122360603Y-112280500D01*
X122426826Y-112282762D01*
X122469832Y-112272280D01*
X122476051Y-112271098D01*
X122519920Y-112265070D01*
X122529823Y-112260767D01*
X122579229Y-112250500D01*
X123402267Y-112250500D01*
X123469306Y-112270185D01*
X123484492Y-112281682D01*
X123551148Y-112340734D01*
X123701775Y-112419790D01*
X123866944Y-112460500D01*
X124037056Y-112460500D01*
X124202225Y-112419790D01*
X124352852Y-112340734D01*
X124419506Y-112281683D01*
X124482740Y-112251963D01*
X124501733Y-112250500D01*
X131090603Y-112250500D01*
X131156826Y-112252762D01*
X131199828Y-112242281D01*
X131206055Y-112241098D01*
X131243545Y-112235946D01*
X131258327Y-112233915D01*
X131258328Y-112233929D01*
X131283274Y-112230500D01*
X131355056Y-112230500D01*
X131520225Y-112189790D01*
X131610539Y-112142389D01*
X131670849Y-112110736D01*
X131670850Y-112110734D01*
X131670852Y-112110734D01*
X131798183Y-111997929D01*
X131894818Y-111857930D01*
X131955140Y-111698872D01*
X131975645Y-111530000D01*
X131955140Y-111361128D01*
X131894818Y-111202070D01*
X131798183Y-111062071D01*
X131670852Y-110949266D01*
X131670849Y-110949263D01*
X131520226Y-110870210D01*
X131355056Y-110829500D01*
X131184944Y-110829500D01*
X131019773Y-110870210D01*
X130869150Y-110949263D01*
X130741816Y-111062071D01*
X130718439Y-111095940D01*
X130664156Y-111139930D01*
X130616389Y-111149500D01*
X124326701Y-111149500D01*
X124269075Y-111135296D01*
X124233729Y-111116745D01*
X124202224Y-111100209D01*
X124037056Y-111059500D01*
X123866944Y-111059500D01*
X123701775Y-111100209D01*
X123656355Y-111124048D01*
X123634924Y-111135296D01*
X123577299Y-111149500D01*
X122409397Y-111149500D01*
X122343174Y-111147238D01*
X122343173Y-111147238D01*
X122343171Y-111147238D01*
X122300170Y-111157717D01*
X122293930Y-111158902D01*
X122250079Y-111164930D01*
X122240171Y-111169234D01*
X122190768Y-111179500D01*
X118432006Y-111179500D01*
X118364967Y-111159815D01*
X118352925Y-111150697D01*
X118350845Y-111149261D01*
X118200226Y-111070210D01*
X118035056Y-111029500D01*
X117864944Y-111029500D01*
X117699773Y-111070210D01*
X117549150Y-111149263D01*
X117421816Y-111262072D01*
X117325182Y-111402068D01*
X117264860Y-111561125D01*
X117264859Y-111561130D01*
X117244355Y-111730000D01*
X116819966Y-111730000D01*
X116820429Y-111725000D01*
X116800756Y-111512690D01*
X116742405Y-111307611D01*
X116742403Y-111307606D01*
X116742403Y-111307605D01*
X116647367Y-111116746D01*
X116518872Y-110946593D01*
X116435084Y-110870210D01*
X116361302Y-110802948D01*
X116180019Y-110690702D01*
X116180017Y-110690701D01*
X116015524Y-110626977D01*
X115981198Y-110613679D01*
X115784385Y-110576888D01*
X115722106Y-110545221D01*
X115686833Y-110484908D01*
X115689767Y-110415100D01*
X115729976Y-110357960D01*
X115784384Y-110333111D01*
X115981198Y-110296321D01*
X116180019Y-110219298D01*
X116361302Y-110107052D01*
X116518872Y-109963407D01*
X116647366Y-109793255D01*
X116690219Y-109707194D01*
X116742403Y-109602394D01*
X116742403Y-109602393D01*
X116742405Y-109602389D01*
X116800756Y-109397310D01*
X116820429Y-109185000D01*
X116800756Y-108972690D01*
X116742405Y-108767611D01*
X116742403Y-108767606D01*
X116742403Y-108767605D01*
X116647367Y-108576746D01*
X116518872Y-108406593D01*
X116480343Y-108371469D01*
X116361302Y-108262948D01*
X116180019Y-108150702D01*
X116180017Y-108150701D01*
X116015524Y-108086977D01*
X115981198Y-108073679D01*
X115808456Y-108041387D01*
X115746176Y-108009719D01*
X115710903Y-107949407D01*
X115713837Y-107879599D01*
X115754046Y-107822459D01*
X115818764Y-107796128D01*
X115831233Y-107795499D01*
X116559864Y-107795499D01*
X116559879Y-107795497D01*
X116559882Y-107795497D01*
X116584987Y-107792586D01*
X116584988Y-107792585D01*
X116584991Y-107792585D01*
X116687765Y-107747206D01*
X116767206Y-107667765D01*
X116812585Y-107564991D01*
X116815500Y-107539865D01*
X116815499Y-105750136D01*
X116815330Y-105748679D01*
X116812586Y-105725012D01*
X116812585Y-105725010D01*
X116812585Y-105725009D01*
X116767206Y-105622235D01*
X116687765Y-105542794D01*
X116687763Y-105542793D01*
X116584992Y-105497415D01*
X116559865Y-105494500D01*
X114770143Y-105494500D01*
X114770117Y-105494502D01*
X114745012Y-105497413D01*
X114745008Y-105497415D01*
X114642235Y-105542793D01*
X114562794Y-105622234D01*
X114517415Y-105725006D01*
X114517415Y-105725008D01*
X114514500Y-105750131D01*
X114514500Y-107539856D01*
X114514502Y-107539882D01*
X114517413Y-107564987D01*
X114517415Y-107564991D01*
X114562793Y-107667764D01*
X114562794Y-107667765D01*
X114642235Y-107747206D01*
X114745009Y-107792585D01*
X114770135Y-107795500D01*
X115498758Y-107795499D01*
X115565795Y-107815183D01*
X115611550Y-107867987D01*
X115621494Y-107937146D01*
X115592469Y-108000702D01*
X115533691Y-108038476D01*
X115521542Y-108041388D01*
X115465116Y-108051935D01*
X115348802Y-108073679D01*
X115348800Y-108073679D01*
X115348798Y-108073680D01*
X115149982Y-108150701D01*
X115149980Y-108150702D01*
X114968699Y-108262947D01*
X114811127Y-108406593D01*
X114682632Y-108576746D01*
X114587596Y-108767605D01*
X114587596Y-108767607D01*
X114529244Y-108972689D01*
X114524411Y-109024852D01*
X114509571Y-109185000D01*
X114529244Y-109397310D01*
X114572475Y-109549250D01*
X114587596Y-109602392D01*
X114587596Y-109602394D01*
X114682632Y-109793253D01*
X114811127Y-109963406D01*
X114811128Y-109963407D01*
X114968698Y-110107052D01*
X115149981Y-110219298D01*
X115348802Y-110296321D01*
X115545613Y-110333111D01*
X115607893Y-110364779D01*
X115643166Y-110425092D01*
X115640232Y-110494900D01*
X115600023Y-110552040D01*
X115545613Y-110576888D01*
X115348802Y-110613679D01*
X115348799Y-110613679D01*
X115348799Y-110613680D01*
X115149982Y-110690701D01*
X115149980Y-110690702D01*
X114968699Y-110802947D01*
X114811127Y-110946593D01*
X114682632Y-111116746D01*
X114587596Y-111307605D01*
X114587596Y-111307607D01*
X114560719Y-111402070D01*
X114529244Y-111512690D01*
X114509571Y-111725000D01*
X114529244Y-111937310D01*
X114572475Y-112089250D01*
X114587596Y-112142392D01*
X114587596Y-112142394D01*
X114682632Y-112333253D01*
X114778726Y-112460500D01*
X114811128Y-112503407D01*
X114968698Y-112647052D01*
X115149981Y-112759298D01*
X115178961Y-112770525D01*
X115234362Y-112813095D01*
X115257954Y-112878861D01*
X115242244Y-112946942D01*
X115192222Y-112995722D01*
X115186573Y-112998533D01*
X114987422Y-113091399D01*
X114987420Y-113091400D01*
X114793926Y-113226886D01*
X114793920Y-113226891D01*
X114626891Y-113393920D01*
X114626886Y-113393926D01*
X114491400Y-113587420D01*
X114491399Y-113587422D01*
X114391570Y-113801507D01*
X114391567Y-113801513D01*
X114334364Y-114014999D01*
X114334364Y-114015000D01*
X115231314Y-114015000D01*
X115205507Y-114055156D01*
X115165000Y-114193111D01*
X115165000Y-114336889D01*
X115205507Y-114474844D01*
X115231314Y-114515000D01*
X114334364Y-114515000D01*
X101775636Y-114515000D01*
X100878686Y-114515000D01*
X100904493Y-114474844D01*
X100945000Y-114336889D01*
X100945000Y-114193111D01*
X100904493Y-114055156D01*
X100878686Y-114015000D01*
X101775636Y-114015000D01*
X101775635Y-114014999D01*
X101718432Y-113801513D01*
X101718429Y-113801507D01*
X101618600Y-113587422D01*
X101618599Y-113587420D01*
X101483113Y-113393926D01*
X101483108Y-113393920D01*
X101316082Y-113226894D01*
X101122578Y-113091399D01*
X100923426Y-112998533D01*
X100870987Y-112952360D01*
X100851835Y-112885167D01*
X100872051Y-112818286D01*
X100925216Y-112772951D01*
X100931005Y-112770537D01*
X100960019Y-112759298D01*
X101141302Y-112647052D01*
X101298872Y-112503407D01*
X101427366Y-112333255D01*
X101466983Y-112253692D01*
X101522403Y-112142394D01*
X101522403Y-112142393D01*
X101522405Y-112142389D01*
X101580756Y-111937310D01*
X101600429Y-111725000D01*
X101580756Y-111512690D01*
X101522405Y-111307611D01*
X101522403Y-111307606D01*
X101522403Y-111307605D01*
X101427367Y-111116746D01*
X101298872Y-110946593D01*
X101215084Y-110870210D01*
X101141302Y-110802948D01*
X100960019Y-110690702D01*
X100960017Y-110690701D01*
X100795524Y-110626977D01*
X100761198Y-110613679D01*
X100564385Y-110576888D01*
X100502106Y-110545221D01*
X100466833Y-110484908D01*
X100469767Y-110415100D01*
X100509976Y-110357960D01*
X100564384Y-110333111D01*
X100761198Y-110296321D01*
X100960019Y-110219298D01*
X101141302Y-110107052D01*
X101298872Y-109963407D01*
X101427366Y-109793255D01*
X101470219Y-109707194D01*
X101522403Y-109602394D01*
X101522403Y-109602393D01*
X101522405Y-109602389D01*
X101580756Y-109397310D01*
X101600429Y-109185000D01*
X101580756Y-108972690D01*
X101522405Y-108767611D01*
X101522403Y-108767606D01*
X101522403Y-108767605D01*
X101427367Y-108576746D01*
X101298872Y-108406593D01*
X101260343Y-108371469D01*
X101141302Y-108262948D01*
X100960019Y-108150702D01*
X100960017Y-108150701D01*
X100795524Y-108086977D01*
X100761198Y-108073679D01*
X100588456Y-108041387D01*
X100526176Y-108009719D01*
X100490903Y-107949407D01*
X100493837Y-107879599D01*
X100534046Y-107822459D01*
X100598764Y-107796128D01*
X100611233Y-107795499D01*
X101339864Y-107795499D01*
X101339879Y-107795497D01*
X101339882Y-107795497D01*
X101364987Y-107792586D01*
X101364988Y-107792585D01*
X101364991Y-107792585D01*
X101467765Y-107747206D01*
X101547206Y-107667765D01*
X101592585Y-107564991D01*
X101595500Y-107539865D01*
X101595499Y-105750136D01*
X101595330Y-105748679D01*
X101592586Y-105725012D01*
X101592585Y-105725010D01*
X101592585Y-105725009D01*
X101547206Y-105622235D01*
X101467765Y-105542794D01*
X101467763Y-105542793D01*
X101364992Y-105497415D01*
X101339865Y-105494500D01*
X99550143Y-105494500D01*
X99550117Y-105494502D01*
X99525012Y-105497413D01*
X99525008Y-105497415D01*
X99422235Y-105542793D01*
X99342794Y-105622234D01*
X99297415Y-105725006D01*
X99297415Y-105725008D01*
X99294500Y-105750131D01*
X99294500Y-107539856D01*
X99294502Y-107539882D01*
X99297413Y-107564987D01*
X99297415Y-107564991D01*
X99342793Y-107667764D01*
X99342794Y-107667765D01*
X99422235Y-107747206D01*
X99525009Y-107792585D01*
X99550135Y-107795500D01*
X100278758Y-107795499D01*
X100345795Y-107815183D01*
X100391550Y-107867987D01*
X100401494Y-107937146D01*
X100372469Y-108000702D01*
X100313691Y-108038476D01*
X100301542Y-108041388D01*
X100245116Y-108051935D01*
X100128802Y-108073679D01*
X100128800Y-108073679D01*
X100128798Y-108073680D01*
X99929982Y-108150701D01*
X99929980Y-108150702D01*
X99748699Y-108262947D01*
X99591127Y-108406593D01*
X99462632Y-108576746D01*
X99367596Y-108767605D01*
X99367596Y-108767607D01*
X99309244Y-108972689D01*
X99304411Y-109024852D01*
X99289571Y-109185000D01*
X99309244Y-109397310D01*
X99352475Y-109549250D01*
X99367596Y-109602392D01*
X99367596Y-109602394D01*
X99462632Y-109793253D01*
X99591127Y-109963406D01*
X99591128Y-109963407D01*
X99748698Y-110107052D01*
X99929981Y-110219298D01*
X100128802Y-110296321D01*
X100325613Y-110333111D01*
X100387893Y-110364779D01*
X100423166Y-110425092D01*
X100420232Y-110494900D01*
X100380023Y-110552040D01*
X100325613Y-110576888D01*
X100128802Y-110613679D01*
X100128799Y-110613679D01*
X100128799Y-110613680D01*
X99929982Y-110690701D01*
X99929980Y-110690702D01*
X99748699Y-110802947D01*
X99591127Y-110946593D01*
X99462632Y-111116746D01*
X99367596Y-111307605D01*
X99367596Y-111307607D01*
X99340719Y-111402070D01*
X99309244Y-111512690D01*
X99289571Y-111725000D01*
X99309244Y-111937310D01*
X99352475Y-112089250D01*
X99367596Y-112142392D01*
X99367596Y-112142394D01*
X99462632Y-112333253D01*
X99558726Y-112460500D01*
X99591128Y-112503407D01*
X99748698Y-112647052D01*
X99929981Y-112759298D01*
X99958961Y-112770525D01*
X100014362Y-112813095D01*
X100037954Y-112878861D01*
X100022244Y-112946942D01*
X99972222Y-112995722D01*
X99966573Y-112998533D01*
X99767422Y-113091399D01*
X99767420Y-113091400D01*
X99573926Y-113226886D01*
X99573920Y-113226891D01*
X99406891Y-113393920D01*
X99406886Y-113393926D01*
X99271400Y-113587420D01*
X99271399Y-113587422D01*
X99171570Y-113801507D01*
X99171567Y-113801513D01*
X99114364Y-114014999D01*
X99114364Y-114015000D01*
X100011314Y-114015000D01*
X99985507Y-114055156D01*
X99945000Y-114193111D01*
X99945000Y-114336889D01*
X99985507Y-114474844D01*
X100011314Y-114515000D01*
X99114364Y-114515000D01*
X95623089Y-114515000D01*
X95646397Y-114433083D01*
X95665215Y-114230000D01*
X95646397Y-114026917D01*
X95590582Y-113830750D01*
X95499673Y-113648179D01*
X95376764Y-113485421D01*
X95376762Y-113485418D01*
X95226041Y-113348019D01*
X95226039Y-113348017D01*
X95052642Y-113240655D01*
X95052635Y-113240651D01*
X94957546Y-113203814D01*
X94862456Y-113166976D01*
X94661976Y-113129500D01*
X94458024Y-113129500D01*
X94257544Y-113166976D01*
X94257541Y-113166976D01*
X94257541Y-113166977D01*
X94067364Y-113240651D01*
X94067357Y-113240655D01*
X93893960Y-113348017D01*
X93893958Y-113348019D01*
X93743237Y-113485418D01*
X93620327Y-113648178D01*
X93529422Y-113830739D01*
X93529417Y-113830752D01*
X93473602Y-114026917D01*
X93454785Y-114229999D01*
X93454785Y-114230000D01*
X88045215Y-114230000D01*
X88026397Y-114026917D01*
X87970582Y-113830750D01*
X87879673Y-113648179D01*
X87756764Y-113485421D01*
X87756762Y-113485418D01*
X87606041Y-113348019D01*
X87606039Y-113348017D01*
X87432642Y-113240655D01*
X87432635Y-113240651D01*
X87337546Y-113203814D01*
X87242456Y-113166976D01*
X87041976Y-113129500D01*
X86838024Y-113129500D01*
X86637544Y-113166976D01*
X86637541Y-113166976D01*
X86637541Y-113166977D01*
X86447364Y-113240651D01*
X86447357Y-113240655D01*
X86273960Y-113348017D01*
X86273958Y-113348019D01*
X86123237Y-113485418D01*
X86000329Y-113648176D01*
X86000327Y-113648179D01*
X85956710Y-113735774D01*
X85909210Y-113787008D01*
X85845712Y-113804500D01*
X76457609Y-113804500D01*
X76390570Y-113784815D01*
X76369928Y-113768181D01*
X74291747Y-111690000D01*
X85834785Y-111690000D01*
X85853602Y-111893082D01*
X85909417Y-112089247D01*
X85909422Y-112089260D01*
X86000327Y-112271821D01*
X86123237Y-112434581D01*
X86273958Y-112571980D01*
X86273960Y-112571982D01*
X86373141Y-112633392D01*
X86447363Y-112679348D01*
X86637544Y-112753024D01*
X86838024Y-112790500D01*
X86838026Y-112790500D01*
X87041974Y-112790500D01*
X87041976Y-112790500D01*
X87242456Y-112753024D01*
X87432637Y-112679348D01*
X87606041Y-112571981D01*
X87756764Y-112434579D01*
X87879673Y-112271821D01*
X87970582Y-112089250D01*
X88026397Y-111893083D01*
X88045215Y-111690000D01*
X88026397Y-111486917D01*
X87970582Y-111290750D01*
X87879673Y-111108179D01*
X87759668Y-110949266D01*
X87756762Y-110945418D01*
X87606041Y-110808019D01*
X87606039Y-110808017D01*
X87432642Y-110700655D01*
X87432635Y-110700651D01*
X87337546Y-110663814D01*
X87242456Y-110626976D01*
X87041976Y-110589500D01*
X86838024Y-110589500D01*
X86637544Y-110626976D01*
X86637541Y-110626976D01*
X86637541Y-110626977D01*
X86447364Y-110700651D01*
X86447357Y-110700655D01*
X86273960Y-110808017D01*
X86273958Y-110808019D01*
X86123237Y-110945418D01*
X86000327Y-111108178D01*
X85909422Y-111290739D01*
X85909417Y-111290752D01*
X85853602Y-111486917D01*
X85834785Y-111689999D01*
X85834785Y-111690000D01*
X74291747Y-111690000D01*
X71891819Y-109290071D01*
X71858334Y-109228748D01*
X71855500Y-109202390D01*
X71855500Y-105350000D01*
X74184355Y-105350000D01*
X74204859Y-105518869D01*
X74204860Y-105518874D01*
X74265182Y-105677931D01*
X74315027Y-105750143D01*
X74361817Y-105817929D01*
X74415425Y-105865421D01*
X74489150Y-105930736D01*
X74639773Y-106009789D01*
X74639775Y-106009790D01*
X74804944Y-106050500D01*
X74975056Y-106050500D01*
X75140225Y-106009790D01*
X75219692Y-105968081D01*
X75290849Y-105930736D01*
X75290850Y-105930734D01*
X75290852Y-105930734D01*
X75418183Y-105817929D01*
X75514818Y-105677930D01*
X75575140Y-105518872D01*
X75580414Y-105475429D01*
X75608034Y-105411252D01*
X75615818Y-105402705D01*
X76111706Y-104906819D01*
X76173029Y-104873334D01*
X76199387Y-104870500D01*
X80625501Y-104870500D01*
X80692540Y-104890185D01*
X80738295Y-104942989D01*
X80749501Y-104994500D01*
X80749501Y-105214856D01*
X80749502Y-105214882D01*
X80752413Y-105239987D01*
X80752415Y-105239991D01*
X80797793Y-105342764D01*
X80797794Y-105342765D01*
X80877235Y-105422206D01*
X80980009Y-105467585D01*
X81005135Y-105470500D01*
X81733758Y-105470499D01*
X81800795Y-105490183D01*
X81846550Y-105542987D01*
X81856494Y-105612146D01*
X81827469Y-105675702D01*
X81768691Y-105713476D01*
X81756542Y-105716388D01*
X81700116Y-105726935D01*
X81583802Y-105748679D01*
X81583800Y-105748679D01*
X81583798Y-105748680D01*
X81384982Y-105825701D01*
X81384980Y-105825702D01*
X81203699Y-105937947D01*
X81046127Y-106081593D01*
X80917632Y-106251746D01*
X80822596Y-106442605D01*
X80822596Y-106442607D01*
X80764244Y-106647689D01*
X80746135Y-106843126D01*
X80744571Y-106860000D01*
X80764244Y-107072310D01*
X80818015Y-107261294D01*
X80822596Y-107277392D01*
X80822596Y-107277394D01*
X80917632Y-107468253D01*
X81046127Y-107638406D01*
X81046128Y-107638407D01*
X81203698Y-107782052D01*
X81384981Y-107894298D01*
X81583802Y-107971321D01*
X81793390Y-108010500D01*
X81793392Y-108010500D01*
X82006608Y-108010500D01*
X82006610Y-108010500D01*
X82216198Y-107971321D01*
X82415019Y-107894298D01*
X82596302Y-107782052D01*
X82753872Y-107638407D01*
X82882366Y-107468255D01*
X82882367Y-107468253D01*
X82977403Y-107277394D01*
X82977403Y-107277393D01*
X82977405Y-107277389D01*
X83035756Y-107072310D01*
X83055429Y-106860000D01*
X83035756Y-106647690D01*
X82977405Y-106442611D01*
X82977403Y-106442606D01*
X82977403Y-106442605D01*
X82882367Y-106251746D01*
X82753872Y-106081593D01*
X82675107Y-106009789D01*
X82596302Y-105937948D01*
X82415019Y-105825702D01*
X82415017Y-105825701D01*
X82315608Y-105787190D01*
X82216198Y-105748679D01*
X82043456Y-105716387D01*
X81981176Y-105684719D01*
X81945903Y-105624407D01*
X81948837Y-105554599D01*
X81989046Y-105497459D01*
X82053764Y-105471128D01*
X82066233Y-105470499D01*
X82794864Y-105470499D01*
X82794879Y-105470497D01*
X82794882Y-105470497D01*
X82819987Y-105467586D01*
X82819988Y-105467585D01*
X82819991Y-105467585D01*
X82922765Y-105422206D01*
X83002206Y-105342765D01*
X83047585Y-105239991D01*
X83050500Y-105214865D01*
X83050499Y-103425136D01*
X83050497Y-103425117D01*
X83047586Y-103400012D01*
X83047585Y-103400010D01*
X83047585Y-103400009D01*
X83002206Y-103297235D01*
X82922765Y-103217794D01*
X82922763Y-103217793D01*
X82819992Y-103172415D01*
X82794865Y-103169500D01*
X81005143Y-103169500D01*
X81005117Y-103169502D01*
X80980012Y-103172413D01*
X80980008Y-103172415D01*
X80877235Y-103217793D01*
X80797794Y-103297234D01*
X80752415Y-103400006D01*
X80752415Y-103400008D01*
X80749500Y-103425131D01*
X80749500Y-103645500D01*
X80729815Y-103712539D01*
X80677011Y-103758294D01*
X80625500Y-103769500D01*
X75929397Y-103769500D01*
X75863174Y-103767238D01*
X75863173Y-103767238D01*
X75863171Y-103767238D01*
X75820170Y-103777717D01*
X75813930Y-103778902D01*
X75770079Y-103784930D01*
X75753616Y-103792081D01*
X75733575Y-103798820D01*
X75716150Y-103803066D01*
X75716143Y-103803069D01*
X75677566Y-103824759D01*
X75671879Y-103827584D01*
X75631279Y-103845220D01*
X75631276Y-103845221D01*
X75617356Y-103856546D01*
X75599886Y-103868436D01*
X75584241Y-103877233D01*
X75584240Y-103877234D01*
X75552934Y-103908539D01*
X75548221Y-103912792D01*
X75513896Y-103940717D01*
X75513891Y-103940722D01*
X75503542Y-103955383D01*
X75489923Y-103971550D01*
X74838718Y-104622756D01*
X74780712Y-104655472D01*
X74639773Y-104690210D01*
X74489150Y-104769263D01*
X74361816Y-104882072D01*
X74265182Y-105022068D01*
X74204860Y-105181125D01*
X74204859Y-105181130D01*
X74184355Y-105350000D01*
X71855500Y-105350000D01*
X71855500Y-76307610D01*
X71875185Y-76240571D01*
X71891819Y-76219929D01*
X74412819Y-73698929D01*
X74474142Y-73665444D01*
X74543834Y-73670428D01*
X74599767Y-73712300D01*
X74624184Y-73777764D01*
X74624500Y-73786610D01*
X74624500Y-73793102D01*
X74630126Y-73839954D01*
X74635122Y-73881561D01*
X74690639Y-74022343D01*
X74782077Y-74142922D01*
X74902656Y-74234360D01*
X74902657Y-74234360D01*
X74902658Y-74234361D01*
X75043436Y-74289877D01*
X75131898Y-74300500D01*
X75131903Y-74300500D01*
X75424998Y-74300500D01*
X75492037Y-74320185D01*
X75537792Y-74372989D01*
X75547736Y-74442147D01*
X75518711Y-74505703D01*
X75459933Y-74543477D01*
X75458933Y-74543766D01*
X75357607Y-74572596D01*
X75357605Y-74572596D01*
X75166746Y-74667632D01*
X74996593Y-74796127D01*
X74852947Y-74953699D01*
X74740702Y-75134980D01*
X74740701Y-75134982D01*
X74671580Y-75313406D01*
X74663679Y-75333802D01*
X74624500Y-75543390D01*
X74624500Y-75756610D01*
X74663679Y-75966198D01*
X74663680Y-75966200D01*
X74740701Y-76165018D01*
X74740702Y-76165019D01*
X74778275Y-76225702D01*
X74781740Y-76231297D01*
X74800296Y-76298657D01*
X74779488Y-76365357D01*
X74763994Y-76384256D01*
X73116780Y-78031472D01*
X73021471Y-78126780D01*
X73010510Y-78148293D01*
X73000346Y-78164878D01*
X72986152Y-78184414D01*
X72986151Y-78184417D01*
X72978688Y-78207385D01*
X72971243Y-78225358D01*
X72960280Y-78246873D01*
X72956503Y-78270722D01*
X72951962Y-78289639D01*
X72944500Y-78312604D01*
X72944500Y-93087394D01*
X72951962Y-93110358D01*
X72956503Y-93129273D01*
X72957872Y-93137913D01*
X72960281Y-93153127D01*
X72971243Y-93174641D01*
X72978688Y-93192615D01*
X72986150Y-93215580D01*
X73000340Y-93235110D01*
X73010508Y-93251703D01*
X73021470Y-93273218D01*
X73021472Y-93273220D01*
X73045446Y-93297194D01*
X76311472Y-96563220D01*
X76406780Y-96658528D01*
X76428296Y-96669491D01*
X76444878Y-96679653D01*
X76464419Y-96693850D01*
X76487383Y-96701311D01*
X76505362Y-96708757D01*
X76526874Y-96719719D01*
X76550721Y-96723495D01*
X76569643Y-96728039D01*
X76592601Y-96735499D01*
X76592607Y-96735500D01*
X76626512Y-96735500D01*
X78592390Y-96735500D01*
X78659429Y-96755185D01*
X78680071Y-96771819D01*
X83268181Y-101359929D01*
X83301666Y-101421252D01*
X83304500Y-101447610D01*
X83304500Y-106777394D01*
X83311962Y-106800358D01*
X83316503Y-106819273D01*
X83319470Y-106838010D01*
X83320281Y-106843127D01*
X83331243Y-106864641D01*
X83338688Y-106882615D01*
X83346150Y-106905580D01*
X83360340Y-106925110D01*
X83370508Y-106941703D01*
X83381470Y-106963218D01*
X85863547Y-109445295D01*
X85895132Y-109499041D01*
X85909418Y-109549253D01*
X86000327Y-109731821D01*
X86123237Y-109894581D01*
X86273958Y-110031980D01*
X86273960Y-110031982D01*
X86373141Y-110093392D01*
X86447363Y-110139348D01*
X86637544Y-110213024D01*
X86838024Y-110250500D01*
X86838026Y-110250500D01*
X87041974Y-110250500D01*
X87041976Y-110250500D01*
X87242456Y-110213024D01*
X87432637Y-110139348D01*
X87606041Y-110031981D01*
X87756764Y-109894579D01*
X87879673Y-109731821D01*
X87970582Y-109549250D01*
X88026397Y-109353083D01*
X88045215Y-109150000D01*
X88026397Y-108946917D01*
X88013048Y-108899999D01*
X93281127Y-108899999D01*
X93281128Y-108900000D01*
X94244314Y-108900000D01*
X94232359Y-108911955D01*
X94174835Y-109024852D01*
X94155014Y-109150000D01*
X94174835Y-109275148D01*
X94232359Y-109388045D01*
X94244314Y-109400000D01*
X93281128Y-109400000D01*
X93333730Y-109596317D01*
X93333734Y-109596326D01*
X93429865Y-109802482D01*
X93560342Y-109988820D01*
X93721179Y-110149657D01*
X93907517Y-110280134D01*
X94113673Y-110376265D01*
X94113682Y-110376269D01*
X94214569Y-110403301D01*
X94274229Y-110439665D01*
X94304759Y-110502512D01*
X94296465Y-110571888D01*
X94251980Y-110625766D01*
X94227271Y-110638702D01*
X94067370Y-110700648D01*
X94067357Y-110700655D01*
X93893960Y-110808017D01*
X93893958Y-110808019D01*
X93743237Y-110945418D01*
X93620327Y-111108178D01*
X93529422Y-111290739D01*
X93529417Y-111290752D01*
X93473602Y-111486917D01*
X93454785Y-111689999D01*
X93454785Y-111690000D01*
X93473602Y-111893082D01*
X93529417Y-112089247D01*
X93529422Y-112089260D01*
X93620327Y-112271821D01*
X93743237Y-112434581D01*
X93893958Y-112571980D01*
X93893960Y-112571982D01*
X93993141Y-112633392D01*
X94067363Y-112679348D01*
X94257544Y-112753024D01*
X94458024Y-112790500D01*
X94458026Y-112790500D01*
X94661974Y-112790500D01*
X94661976Y-112790500D01*
X94862456Y-112753024D01*
X95052637Y-112679348D01*
X95226041Y-112571981D01*
X95376764Y-112434579D01*
X95499673Y-112271821D01*
X95590582Y-112089250D01*
X95646397Y-111893083D01*
X95665215Y-111690000D01*
X95646397Y-111486917D01*
X95590582Y-111290750D01*
X95499673Y-111108179D01*
X95379668Y-110949266D01*
X95376762Y-110945418D01*
X95226041Y-110808019D01*
X95226039Y-110808017D01*
X95052642Y-110700655D01*
X95052641Y-110700654D01*
X95052637Y-110700652D01*
X95052632Y-110700650D01*
X95052626Y-110700647D01*
X94892729Y-110638702D01*
X94837327Y-110596129D01*
X94813737Y-110530363D01*
X94829448Y-110462282D01*
X94879472Y-110413503D01*
X94905431Y-110403301D01*
X95006315Y-110376270D01*
X95006326Y-110376265D01*
X95212482Y-110280134D01*
X95398820Y-110149657D01*
X95559657Y-109988820D01*
X95690134Y-109802482D01*
X95786265Y-109596326D01*
X95786269Y-109596317D01*
X95838872Y-109400000D01*
X94875686Y-109400000D01*
X94887641Y-109388045D01*
X94945165Y-109275148D01*
X94964986Y-109150000D01*
X94945165Y-109024852D01*
X94887641Y-108911955D01*
X94875686Y-108900000D01*
X95838872Y-108900000D01*
X95838872Y-108899999D01*
X95786269Y-108703682D01*
X95786265Y-108703673D01*
X95690134Y-108497517D01*
X95559657Y-108311179D01*
X95398820Y-108150342D01*
X95212482Y-108019865D01*
X95006326Y-107923734D01*
X95006317Y-107923730D01*
X94905430Y-107896698D01*
X94845769Y-107860333D01*
X94815240Y-107797486D01*
X94823535Y-107728110D01*
X94868020Y-107674233D01*
X94892727Y-107661296D01*
X95052637Y-107599348D01*
X95226041Y-107491981D01*
X95376764Y-107354579D01*
X95499673Y-107191821D01*
X95590582Y-107009250D01*
X95646397Y-106813083D01*
X95665215Y-106610000D01*
X95646397Y-106406917D01*
X95590582Y-106210750D01*
X95499673Y-106028179D01*
X95376764Y-105865421D01*
X95376762Y-105865418D01*
X95226041Y-105728019D01*
X95226039Y-105728017D01*
X95052642Y-105620655D01*
X95052635Y-105620651D01*
X94882133Y-105554599D01*
X94862456Y-105546976D01*
X94661976Y-105509500D01*
X94458024Y-105509500D01*
X94257544Y-105546976D01*
X94257541Y-105546976D01*
X94257541Y-105546977D01*
X94067364Y-105620651D01*
X94067357Y-105620655D01*
X93893960Y-105728017D01*
X93893958Y-105728019D01*
X93743237Y-105865418D01*
X93620327Y-106028178D01*
X93529422Y-106210739D01*
X93529417Y-106210752D01*
X93473602Y-106406917D01*
X93454785Y-106609999D01*
X93454785Y-106610000D01*
X93473602Y-106813082D01*
X93529417Y-107009247D01*
X93529422Y-107009260D01*
X93620327Y-107191821D01*
X93743237Y-107354581D01*
X93893958Y-107491980D01*
X93893960Y-107491982D01*
X93971280Y-107539856D01*
X94067363Y-107599348D01*
X94168184Y-107638406D01*
X94227270Y-107661296D01*
X94282672Y-107703869D01*
X94306262Y-107769636D01*
X94290551Y-107837716D01*
X94240527Y-107886495D01*
X94214570Y-107896698D01*
X94113680Y-107923731D01*
X94113673Y-107923734D01*
X93907517Y-108019865D01*
X93721179Y-108150342D01*
X93560342Y-108311179D01*
X93429865Y-108497517D01*
X93333734Y-108703673D01*
X93333730Y-108703682D01*
X93281127Y-108899999D01*
X88013048Y-108899999D01*
X87970582Y-108750750D01*
X87879673Y-108568179D01*
X87756764Y-108405421D01*
X87756762Y-108405418D01*
X87606041Y-108268019D01*
X87606039Y-108268017D01*
X87432642Y-108160655D01*
X87432635Y-108160651D01*
X87337546Y-108123814D01*
X87242456Y-108086976D01*
X87041976Y-108049500D01*
X86838024Y-108049500D01*
X86637544Y-108086976D01*
X86637541Y-108086976D01*
X86637541Y-108086977D01*
X86447364Y-108160651D01*
X86447357Y-108160655D01*
X86273960Y-108268017D01*
X86273958Y-108268019D01*
X86160479Y-108371469D01*
X86097675Y-108402086D01*
X86028288Y-108393888D01*
X85989260Y-108367513D01*
X85113729Y-107491982D01*
X84191819Y-106570071D01*
X84158334Y-106508748D01*
X84155500Y-106482390D01*
X84155500Y-105526609D01*
X84175185Y-105459570D01*
X84227989Y-105413815D01*
X84297147Y-105403871D01*
X84360703Y-105432896D01*
X84367168Y-105438916D01*
X84858987Y-105930734D01*
X85473181Y-106544928D01*
X85506666Y-106606251D01*
X85509500Y-106632609D01*
X85509500Y-106747658D01*
X85524929Y-106859917D01*
X85524930Y-106859920D01*
X85585217Y-106998716D01*
X85585219Y-106998719D01*
X85585220Y-106998720D01*
X85593784Y-107009247D01*
X85680724Y-107116110D01*
X85804352Y-107203376D01*
X85804355Y-107203378D01*
X85946941Y-107254053D01*
X85946944Y-107254054D01*
X85996375Y-107257435D01*
X86061915Y-107281649D01*
X86086867Y-107306419D01*
X86123237Y-107354580D01*
X86273958Y-107491980D01*
X86273960Y-107491982D01*
X86351280Y-107539856D01*
X86447363Y-107599348D01*
X86637544Y-107673024D01*
X86838024Y-107710500D01*
X86838026Y-107710500D01*
X87041974Y-107710500D01*
X87041976Y-107710500D01*
X87242456Y-107673024D01*
X87432637Y-107599348D01*
X87606041Y-107491981D01*
X87756764Y-107354579D01*
X87879673Y-107191821D01*
X87970582Y-107009250D01*
X88026397Y-106813083D01*
X88045215Y-106610000D01*
X88026397Y-106406917D01*
X87970582Y-106210750D01*
X87879673Y-106028179D01*
X87756764Y-105865421D01*
X87756762Y-105865418D01*
X87606041Y-105728019D01*
X87606039Y-105728017D01*
X87432642Y-105620655D01*
X87432635Y-105620651D01*
X87262133Y-105554599D01*
X87242456Y-105546976D01*
X87041976Y-105509500D01*
X86838024Y-105509500D01*
X86637544Y-105546976D01*
X86637541Y-105546976D01*
X86637541Y-105546977D01*
X86447364Y-105620651D01*
X86447357Y-105620655D01*
X86273960Y-105728017D01*
X86273957Y-105728019D01*
X86165326Y-105827050D01*
X86102522Y-105857667D01*
X86073326Y-105859124D01*
X86031177Y-105856241D01*
X85965637Y-105832027D01*
X85951958Y-105820211D01*
X85046604Y-104914856D01*
X85839500Y-104914856D01*
X85839502Y-104914882D01*
X85842413Y-104939987D01*
X85842415Y-104939991D01*
X85887793Y-105042764D01*
X85887794Y-105042765D01*
X85967235Y-105122206D01*
X86070009Y-105167585D01*
X86095135Y-105170500D01*
X87784864Y-105170499D01*
X87784879Y-105170497D01*
X87784882Y-105170497D01*
X87809987Y-105167586D01*
X87809988Y-105167585D01*
X87809991Y-105167585D01*
X87912765Y-105122206D01*
X87992206Y-105042765D01*
X88037585Y-104939991D01*
X88040500Y-104914865D01*
X88040499Y-104070000D01*
X93454785Y-104070000D01*
X93473602Y-104273082D01*
X93529417Y-104469247D01*
X93529422Y-104469260D01*
X93620327Y-104651821D01*
X93743237Y-104814581D01*
X93893958Y-104951980D01*
X93893960Y-104951982D01*
X93993141Y-105013392D01*
X94067363Y-105059348D01*
X94257544Y-105133024D01*
X94458024Y-105170500D01*
X94458026Y-105170500D01*
X94661974Y-105170500D01*
X94661976Y-105170500D01*
X94862456Y-105133024D01*
X95052637Y-105059348D01*
X95226041Y-104951981D01*
X95376764Y-104814579D01*
X95499673Y-104651821D01*
X95590582Y-104469250D01*
X95646397Y-104273083D01*
X95665215Y-104070000D01*
X95656092Y-103971550D01*
X95646397Y-103866917D01*
X95628230Y-103803067D01*
X95590582Y-103670750D01*
X95499673Y-103488179D01*
X95376764Y-103325421D01*
X95376762Y-103325418D01*
X95226041Y-103188019D01*
X95226039Y-103188017D01*
X95052642Y-103080655D01*
X95052635Y-103080651D01*
X94957546Y-103043814D01*
X94862456Y-103006976D01*
X94661976Y-102969500D01*
X94458024Y-102969500D01*
X94257544Y-103006976D01*
X94257541Y-103006976D01*
X94257541Y-103006977D01*
X94067364Y-103080651D01*
X94067357Y-103080655D01*
X93893960Y-103188017D01*
X93893958Y-103188019D01*
X93743237Y-103325418D01*
X93620327Y-103488178D01*
X93529422Y-103670739D01*
X93529417Y-103670752D01*
X93473602Y-103866917D01*
X93454785Y-104069999D01*
X93454785Y-104070000D01*
X88040499Y-104070000D01*
X88040499Y-103225136D01*
X88039648Y-103217794D01*
X88037586Y-103200012D01*
X88037585Y-103200010D01*
X88037585Y-103200009D01*
X87992206Y-103097235D01*
X87912765Y-103017794D01*
X87888267Y-103006977D01*
X87809992Y-102972415D01*
X87784865Y-102969500D01*
X86095143Y-102969500D01*
X86095117Y-102969502D01*
X86070012Y-102972413D01*
X86070008Y-102972415D01*
X85967235Y-103017793D01*
X85887794Y-103097234D01*
X85842415Y-103200006D01*
X85842415Y-103200008D01*
X85839500Y-103225131D01*
X85839500Y-104914856D01*
X85046604Y-104914856D01*
X84971819Y-104840071D01*
X84938334Y-104778748D01*
X84935500Y-104752390D01*
X84935500Y-102854856D01*
X122449500Y-102854856D01*
X122449502Y-102854882D01*
X122452413Y-102879987D01*
X122452415Y-102879991D01*
X122497793Y-102982764D01*
X122497794Y-102982765D01*
X122577235Y-103062206D01*
X122680009Y-103107585D01*
X122705135Y-103110500D01*
X124494864Y-103110499D01*
X124494879Y-103110497D01*
X124494882Y-103110497D01*
X124519987Y-103107586D01*
X124519988Y-103107585D01*
X124519991Y-103107585D01*
X124622765Y-103062206D01*
X124702206Y-102982765D01*
X124747585Y-102879991D01*
X124750500Y-102854865D01*
X124750499Y-102722516D01*
X124770183Y-102655480D01*
X124822987Y-102609725D01*
X124892145Y-102599781D01*
X124955701Y-102628805D01*
X124976073Y-102651395D01*
X125101890Y-102831078D01*
X125268917Y-102998105D01*
X125462421Y-103133600D01*
X125676507Y-103233429D01*
X125676516Y-103233433D01*
X125890000Y-103290634D01*
X125890000Y-102395501D01*
X125997685Y-102444680D01*
X126104237Y-102460000D01*
X126175763Y-102460000D01*
X126282315Y-102444680D01*
X126390000Y-102395501D01*
X126390000Y-103290633D01*
X126603483Y-103233433D01*
X126603492Y-103233429D01*
X126817578Y-103133600D01*
X127011082Y-102998105D01*
X127178105Y-102831082D01*
X127313600Y-102637578D01*
X127407294Y-102436651D01*
X127453466Y-102384212D01*
X127520660Y-102365060D01*
X127587541Y-102385276D01*
X127630676Y-102433785D01*
X127697632Y-102568253D01*
X127826127Y-102738406D01*
X127826128Y-102738407D01*
X127983698Y-102882052D01*
X128164981Y-102994298D01*
X128363802Y-103071321D01*
X128573390Y-103110500D01*
X128573392Y-103110500D01*
X128786608Y-103110500D01*
X128786610Y-103110500D01*
X128996198Y-103071321D01*
X129195019Y-102994298D01*
X129376302Y-102882052D01*
X129533872Y-102738407D01*
X129662366Y-102568255D01*
X129716270Y-102460000D01*
X129757403Y-102377394D01*
X129757403Y-102377393D01*
X129757405Y-102377389D01*
X129815756Y-102172310D01*
X129826529Y-102056047D01*
X129852315Y-101991111D01*
X129894622Y-101960804D01*
X130003130Y-101960804D01*
X130039503Y-101981668D01*
X130071693Y-102043681D01*
X130073471Y-102056048D01*
X130084244Y-102172310D01*
X130142596Y-102377392D01*
X130142596Y-102377394D01*
X130237632Y-102568253D01*
X130366127Y-102738406D01*
X130366128Y-102738407D01*
X130523698Y-102882052D01*
X130704981Y-102994298D01*
X130903802Y-103071321D01*
X131113390Y-103110500D01*
X131113392Y-103110500D01*
X131326608Y-103110500D01*
X131326610Y-103110500D01*
X131536198Y-103071321D01*
X131735019Y-102994298D01*
X131916302Y-102882052D01*
X132073872Y-102738407D01*
X132202366Y-102568255D01*
X132256270Y-102460000D01*
X132297403Y-102377394D01*
X132297403Y-102377393D01*
X132297405Y-102377389D01*
X132355756Y-102172310D01*
X132366529Y-102056047D01*
X132392315Y-101991111D01*
X132434622Y-101960804D01*
X132543130Y-101960804D01*
X132579503Y-101981668D01*
X132611693Y-102043681D01*
X132613471Y-102056048D01*
X132624244Y-102172310D01*
X132682596Y-102377392D01*
X132682596Y-102377394D01*
X132777632Y-102568253D01*
X132906127Y-102738406D01*
X132906128Y-102738407D01*
X133063698Y-102882052D01*
X133244981Y-102994298D01*
X133443802Y-103071321D01*
X133653390Y-103110500D01*
X133653392Y-103110500D01*
X133866608Y-103110500D01*
X133866610Y-103110500D01*
X134076198Y-103071321D01*
X134275019Y-102994298D01*
X134456302Y-102882052D01*
X134613872Y-102738407D01*
X134742366Y-102568255D01*
X134796270Y-102460000D01*
X134837403Y-102377394D01*
X134837403Y-102377393D01*
X134837405Y-102377389D01*
X134895756Y-102172310D01*
X134915429Y-101960000D01*
X134895756Y-101747690D01*
X134837405Y-101542611D01*
X134837403Y-101542606D01*
X134837403Y-101542605D01*
X134742367Y-101351746D01*
X134613872Y-101181593D01*
X134456302Y-101037948D01*
X134275019Y-100925702D01*
X134275017Y-100925701D01*
X134135034Y-100871472D01*
X134076198Y-100848679D01*
X133866610Y-100809500D01*
X133653390Y-100809500D01*
X133443802Y-100848679D01*
X133443799Y-100848679D01*
X133443799Y-100848680D01*
X133244982Y-100925701D01*
X133244980Y-100925702D01*
X133063699Y-101037947D01*
X132906127Y-101181593D01*
X132777632Y-101351746D01*
X132682596Y-101542605D01*
X132682596Y-101542607D01*
X132624244Y-101747689D01*
X132613471Y-101863951D01*
X132587685Y-101928888D01*
X132543130Y-101960804D01*
X132434622Y-101960804D01*
X132436869Y-101959194D01*
X132400497Y-101938331D01*
X132368307Y-101876318D01*
X132366529Y-101863951D01*
X132365849Y-101856613D01*
X132355756Y-101747690D01*
X132297405Y-101542611D01*
X132297403Y-101542606D01*
X132297403Y-101542605D01*
X132202367Y-101351746D01*
X132073872Y-101181593D01*
X131916302Y-101037948D01*
X131735019Y-100925702D01*
X131735017Y-100925701D01*
X131595034Y-100871472D01*
X131536198Y-100848679D01*
X131326610Y-100809500D01*
X131113390Y-100809500D01*
X130903802Y-100848679D01*
X130903799Y-100848679D01*
X130903799Y-100848680D01*
X130704982Y-100925701D01*
X130704980Y-100925702D01*
X130523699Y-101037947D01*
X130366127Y-101181593D01*
X130237632Y-101351746D01*
X130142596Y-101542605D01*
X130142596Y-101542607D01*
X130084244Y-101747689D01*
X130073471Y-101863951D01*
X130047685Y-101928888D01*
X130003130Y-101960804D01*
X129894622Y-101960804D01*
X129896869Y-101959194D01*
X129860497Y-101938331D01*
X129828307Y-101876318D01*
X129826529Y-101863951D01*
X129825849Y-101856613D01*
X129815756Y-101747690D01*
X129757405Y-101542611D01*
X129757403Y-101542606D01*
X129757403Y-101542605D01*
X129662367Y-101351746D01*
X129533872Y-101181593D01*
X129376302Y-101037948D01*
X129195019Y-100925702D01*
X129195017Y-100925701D01*
X129055034Y-100871472D01*
X128996198Y-100848679D01*
X128786610Y-100809500D01*
X128573390Y-100809500D01*
X128363802Y-100848679D01*
X128363799Y-100848679D01*
X128363799Y-100848680D01*
X128164982Y-100925701D01*
X128164980Y-100925702D01*
X127983699Y-101037947D01*
X127826127Y-101181593D01*
X127697634Y-101351744D01*
X127630676Y-101486215D01*
X127583173Y-101537452D01*
X127515510Y-101554873D01*
X127449170Y-101532947D01*
X127407294Y-101483348D01*
X127313600Y-101282422D01*
X127313599Y-101282420D01*
X127178113Y-101088926D01*
X127178108Y-101088920D01*
X127011082Y-100921894D01*
X126817578Y-100786399D01*
X126603492Y-100686570D01*
X126603486Y-100686567D01*
X126390000Y-100629364D01*
X126390000Y-101524498D01*
X126282315Y-101475320D01*
X126175763Y-101460000D01*
X126104237Y-101460000D01*
X125997685Y-101475320D01*
X125890000Y-101524498D01*
X125890000Y-100629364D01*
X125889999Y-100629364D01*
X125676513Y-100686567D01*
X125676507Y-100686570D01*
X125462422Y-100786399D01*
X125462420Y-100786400D01*
X125268926Y-100921886D01*
X125268920Y-100921891D01*
X125101891Y-101088920D01*
X125101890Y-101088922D01*
X124976074Y-101268606D01*
X124921497Y-101312230D01*
X124851998Y-101319423D01*
X124789644Y-101287901D01*
X124754230Y-101227671D01*
X124750499Y-101197482D01*
X124750499Y-101065143D01*
X124750499Y-101065136D01*
X124750497Y-101065117D01*
X124747586Y-101040012D01*
X124747585Y-101040010D01*
X124747585Y-101040009D01*
X124702206Y-100937235D01*
X124622765Y-100857794D01*
X124602124Y-100848680D01*
X124519992Y-100812415D01*
X124494865Y-100809500D01*
X122705143Y-100809500D01*
X122705117Y-100809502D01*
X122680012Y-100812413D01*
X122680008Y-100812415D01*
X122577235Y-100857793D01*
X122497794Y-100937234D01*
X122452415Y-101040006D01*
X122452415Y-101040008D01*
X122449500Y-101065131D01*
X122449500Y-102854856D01*
X84935500Y-102854856D01*
X84935500Y-100062606D01*
X84935499Y-100062601D01*
X84928039Y-100039643D01*
X84923495Y-100020719D01*
X84919719Y-99996874D01*
X84908757Y-99975362D01*
X84901309Y-99957379D01*
X84893850Y-99934420D01*
X84893850Y-99934419D01*
X84879653Y-99914878D01*
X84869491Y-99898296D01*
X84858528Y-99876780D01*
X84763220Y-99781472D01*
X83541748Y-98560000D01*
X116914355Y-98560000D01*
X116934859Y-98728869D01*
X116934860Y-98728874D01*
X116995182Y-98887931D01*
X117057475Y-98978177D01*
X117091817Y-99027929D01*
X117185021Y-99110500D01*
X117219150Y-99140736D01*
X117369773Y-99219789D01*
X117369775Y-99219790D01*
X117534944Y-99260500D01*
X117705056Y-99260500D01*
X117870225Y-99219790D01*
X117959547Y-99172909D01*
X118020845Y-99140738D01*
X118020846Y-99140736D01*
X118020852Y-99140734D01*
X118020856Y-99140730D01*
X118027020Y-99136476D01*
X118027960Y-99137839D01*
X118083011Y-99111963D01*
X118102006Y-99110500D01*
X121867994Y-99110500D01*
X121935033Y-99130185D01*
X121947074Y-99139302D01*
X121949154Y-99140738D01*
X122099773Y-99219789D01*
X122099775Y-99219790D01*
X122264944Y-99260500D01*
X122435056Y-99260500D01*
X122600225Y-99219790D01*
X122679692Y-99178081D01*
X122750849Y-99140736D01*
X122750850Y-99140734D01*
X122750852Y-99140734D01*
X122878183Y-99027929D01*
X122974818Y-98887930D01*
X123035140Y-98728872D01*
X123055645Y-98560000D01*
X123035140Y-98391128D01*
X123025556Y-98365858D01*
X122974817Y-98232068D01*
X122881621Y-98097052D01*
X122878183Y-98092071D01*
X122783316Y-98008026D01*
X122750849Y-97979263D01*
X122600226Y-97900210D01*
X122435056Y-97859500D01*
X122264944Y-97859500D01*
X122099773Y-97900210D01*
X121949154Y-97979261D01*
X121942980Y-97983524D01*
X121942039Y-97982160D01*
X121886989Y-98008037D01*
X121867994Y-98009500D01*
X118102006Y-98009500D01*
X118034967Y-97989815D01*
X118022925Y-97980697D01*
X118020845Y-97979261D01*
X117870226Y-97900210D01*
X117705056Y-97859500D01*
X117534944Y-97859500D01*
X117369773Y-97900210D01*
X117219150Y-97979263D01*
X117091816Y-98092072D01*
X116995182Y-98232068D01*
X116934860Y-98391125D01*
X116934859Y-98391130D01*
X116914355Y-98560000D01*
X83541748Y-98560000D01*
X82447194Y-97465446D01*
X82423220Y-97441472D01*
X82423218Y-97441470D01*
X82401703Y-97430508D01*
X82385110Y-97420340D01*
X82365580Y-97406150D01*
X82342615Y-97398688D01*
X82324641Y-97391243D01*
X82303127Y-97380281D01*
X82298010Y-97379470D01*
X82279273Y-97376503D01*
X82260358Y-97371962D01*
X82237394Y-97364500D01*
X82237393Y-97364500D01*
X82203488Y-97364500D01*
X81777610Y-97364500D01*
X81710571Y-97344815D01*
X81689929Y-97328181D01*
X79246748Y-94885000D01*
X84829364Y-94885000D01*
X84886567Y-95098486D01*
X84886570Y-95098492D01*
X84986399Y-95312578D01*
X85121894Y-95506082D01*
X85288917Y-95673105D01*
X85482421Y-95808600D01*
X85681573Y-95901466D01*
X85734012Y-95947638D01*
X85753164Y-96014832D01*
X85732948Y-96081713D01*
X85679783Y-96127048D01*
X85673968Y-96129472D01*
X85666771Y-96132260D01*
X85644982Y-96140701D01*
X85644980Y-96140702D01*
X85463699Y-96252947D01*
X85306127Y-96396593D01*
X85177632Y-96566746D01*
X85082596Y-96757605D01*
X85082596Y-96757607D01*
X85024244Y-96962689D01*
X85004571Y-97174999D01*
X85004571Y-97175000D01*
X85024244Y-97387310D01*
X85082596Y-97592392D01*
X85082596Y-97592394D01*
X85177632Y-97783253D01*
X85177634Y-97783255D01*
X85306128Y-97953407D01*
X85463698Y-98097052D01*
X85644981Y-98209298D01*
X85843802Y-98286321D01*
X86053390Y-98325500D01*
X86053392Y-98325500D01*
X86266608Y-98325500D01*
X86266610Y-98325500D01*
X86476198Y-98286321D01*
X86675019Y-98209298D01*
X86856302Y-98097052D01*
X87013872Y-97953407D01*
X87142366Y-97783255D01*
X87237405Y-97592389D01*
X87295756Y-97387310D01*
X87315429Y-97175000D01*
X87295756Y-96962690D01*
X87237405Y-96757611D01*
X87237403Y-96757606D01*
X87237403Y-96757605D01*
X87142367Y-96566746D01*
X87013872Y-96396593D01*
X86856302Y-96252948D01*
X86675019Y-96140702D01*
X86675014Y-96140700D01*
X86668129Y-96138032D01*
X86646037Y-96129474D01*
X86590636Y-96086903D01*
X86567045Y-96021136D01*
X86582756Y-95953056D01*
X86632779Y-95904276D01*
X86638426Y-95901466D01*
X86837578Y-95808599D01*
X87031082Y-95673105D01*
X87198105Y-95506082D01*
X87333600Y-95312578D01*
X87419742Y-95127844D01*
X105810000Y-95127844D01*
X105816401Y-95187372D01*
X105816403Y-95187379D01*
X105866645Y-95322086D01*
X105866649Y-95322093D01*
X105952809Y-95437187D01*
X105952812Y-95437190D01*
X106067906Y-95523350D01*
X106067913Y-95523354D01*
X106202620Y-95573596D01*
X106202627Y-95573598D01*
X106262155Y-95579999D01*
X106262172Y-95580000D01*
X106910000Y-95580000D01*
X106910000Y-94665501D01*
X107017685Y-94714680D01*
X107124237Y-94730000D01*
X107195763Y-94730000D01*
X107302315Y-94714680D01*
X107410000Y-94665501D01*
X107410000Y-95580000D01*
X108057828Y-95580000D01*
X108057844Y-95579999D01*
X108117372Y-95573598D01*
X108117379Y-95573596D01*
X108180644Y-95550000D01*
X126934355Y-95550000D01*
X126954859Y-95718869D01*
X126954860Y-95718874D01*
X127015182Y-95877931D01*
X127062222Y-95946079D01*
X127111817Y-96017929D01*
X127183815Y-96081713D01*
X127239150Y-96130736D01*
X127353021Y-96190500D01*
X127389775Y-96209790D01*
X127554944Y-96250500D01*
X127725056Y-96250500D01*
X127890225Y-96209790D01*
X128040852Y-96130734D01*
X128152656Y-96031685D01*
X128215889Y-96001963D01*
X128234883Y-96000500D01*
X129892843Y-96000500D01*
X129959882Y-96020185D01*
X129975070Y-96031684D01*
X130019150Y-96070736D01*
X130152459Y-96140702D01*
X130169775Y-96149790D01*
X130334944Y-96190500D01*
X130505056Y-96190500D01*
X130670225Y-96149790D01*
X130790045Y-96086903D01*
X130820849Y-96070736D01*
X130820850Y-96070734D01*
X130820852Y-96070734D01*
X130948183Y-95957929D01*
X131044818Y-95817930D01*
X131105140Y-95658872D01*
X131125645Y-95490000D01*
X131105140Y-95321128D01*
X131101897Y-95312578D01*
X131054416Y-95187379D01*
X131044818Y-95162070D01*
X130948183Y-95022071D01*
X130820852Y-94909266D01*
X130820849Y-94909263D01*
X130670226Y-94830210D01*
X130505056Y-94789500D01*
X130334944Y-94789500D01*
X130169773Y-94830210D01*
X130019150Y-94909263D01*
X129891815Y-95022072D01*
X129875340Y-95045941D01*
X129821057Y-95089931D01*
X129773291Y-95099500D01*
X128234883Y-95099500D01*
X128167844Y-95079815D01*
X128152656Y-95068315D01*
X128040852Y-94969266D01*
X128040850Y-94969264D01*
X127890226Y-94890210D01*
X127725056Y-94849500D01*
X127554944Y-94849500D01*
X127389773Y-94890210D01*
X127239150Y-94969263D01*
X127111816Y-95082072D01*
X127015182Y-95222068D01*
X126954860Y-95381125D01*
X126954859Y-95381130D01*
X126934355Y-95550000D01*
X108180644Y-95550000D01*
X108252086Y-95523354D01*
X108252093Y-95523350D01*
X108367187Y-95437190D01*
X108367190Y-95437187D01*
X108453350Y-95322093D01*
X108453354Y-95322086D01*
X108503596Y-95187379D01*
X108503598Y-95187372D01*
X108509999Y-95127844D01*
X108510000Y-95127827D01*
X108510000Y-94933268D01*
X108529685Y-94866229D01*
X108582489Y-94820474D01*
X108651647Y-94810530D01*
X108715203Y-94839555D01*
X108732950Y-94858537D01*
X108846128Y-95008407D01*
X109003698Y-95152052D01*
X109184981Y-95264298D01*
X109383802Y-95341321D01*
X109593390Y-95380500D01*
X109593392Y-95380500D01*
X109806608Y-95380500D01*
X109806610Y-95380500D01*
X110016198Y-95341321D01*
X110215019Y-95264298D01*
X110396302Y-95152052D01*
X110553872Y-95008407D01*
X110682366Y-94838255D01*
X110736270Y-94730000D01*
X110777403Y-94647394D01*
X110777403Y-94647393D01*
X110777405Y-94647389D01*
X110835756Y-94442310D01*
X110846529Y-94326047D01*
X110872315Y-94261111D01*
X110914622Y-94230804D01*
X111023130Y-94230804D01*
X111059503Y-94251668D01*
X111091693Y-94313681D01*
X111093470Y-94326047D01*
X111104244Y-94442310D01*
X111138615Y-94563111D01*
X111162596Y-94647392D01*
X111162596Y-94647394D01*
X111257632Y-94838253D01*
X111356568Y-94969264D01*
X111386128Y-95008407D01*
X111543698Y-95152052D01*
X111724981Y-95264298D01*
X111923802Y-95341321D01*
X112133390Y-95380500D01*
X112133392Y-95380500D01*
X112346608Y-95380500D01*
X112346610Y-95380500D01*
X112556198Y-95341321D01*
X112755019Y-95264298D01*
X112936302Y-95152052D01*
X113093872Y-95008407D01*
X113222366Y-94838255D01*
X113276270Y-94730000D01*
X113317403Y-94647394D01*
X113317403Y-94647393D01*
X113317405Y-94647389D01*
X113375756Y-94442310D01*
X113395429Y-94230000D01*
X113375756Y-94017690D01*
X113317405Y-93812611D01*
X113317403Y-93812606D01*
X113317403Y-93812605D01*
X113222367Y-93621746D01*
X113093872Y-93451593D01*
X113092894Y-93450701D01*
X112936302Y-93307948D01*
X112755019Y-93195702D01*
X112755017Y-93195701D01*
X112583565Y-93129281D01*
X112556198Y-93118679D01*
X112346610Y-93079500D01*
X112133390Y-93079500D01*
X111923802Y-93118679D01*
X111923799Y-93118679D01*
X111923799Y-93118680D01*
X111724982Y-93195701D01*
X111724980Y-93195702D01*
X111543699Y-93307947D01*
X111386127Y-93451593D01*
X111257632Y-93621746D01*
X111162596Y-93812605D01*
X111162596Y-93812607D01*
X111104244Y-94017689D01*
X111093471Y-94133951D01*
X111067685Y-94198888D01*
X111023130Y-94230804D01*
X110914622Y-94230804D01*
X110916869Y-94229194D01*
X110880497Y-94208331D01*
X110848307Y-94146318D01*
X110846529Y-94133951D01*
X110845849Y-94126613D01*
X110835756Y-94017690D01*
X110777405Y-93812611D01*
X110777403Y-93812606D01*
X110777403Y-93812605D01*
X110682367Y-93621746D01*
X110553872Y-93451593D01*
X110552894Y-93450701D01*
X110396302Y-93307948D01*
X110215019Y-93195702D01*
X110215017Y-93195701D01*
X110043565Y-93129281D01*
X110016198Y-93118679D01*
X109806610Y-93079500D01*
X109593390Y-93079500D01*
X109383802Y-93118679D01*
X109383799Y-93118679D01*
X109383799Y-93118680D01*
X109184982Y-93195701D01*
X109184980Y-93195702D01*
X109003699Y-93307947D01*
X108846127Y-93451593D01*
X108732954Y-93601458D01*
X108676845Y-93643094D01*
X108607133Y-93647785D01*
X108545951Y-93614043D01*
X108512724Y-93552579D01*
X108510000Y-93526731D01*
X108510000Y-93332172D01*
X108509999Y-93332155D01*
X108503598Y-93272627D01*
X108503596Y-93272620D01*
X108453354Y-93137913D01*
X108453350Y-93137906D01*
X108367190Y-93022812D01*
X108367187Y-93022809D01*
X108252093Y-92936649D01*
X108252086Y-92936645D01*
X108117379Y-92886403D01*
X108117372Y-92886401D01*
X108057844Y-92880000D01*
X107410000Y-92880000D01*
X107410000Y-93794498D01*
X107302315Y-93745320D01*
X107195763Y-93730000D01*
X107124237Y-93730000D01*
X107017685Y-93745320D01*
X106910000Y-93794498D01*
X106910000Y-92880000D01*
X106262155Y-92880000D01*
X106202627Y-92886401D01*
X106202620Y-92886403D01*
X106067913Y-92936645D01*
X106067906Y-92936649D01*
X105952812Y-93022809D01*
X105952809Y-93022812D01*
X105866649Y-93137906D01*
X105866645Y-93137913D01*
X105816403Y-93272620D01*
X105816401Y-93272627D01*
X105810000Y-93332155D01*
X105810000Y-93980000D01*
X106726314Y-93980000D01*
X106700507Y-94020156D01*
X106660000Y-94158111D01*
X106660000Y-94301889D01*
X106700507Y-94439844D01*
X106726314Y-94480000D01*
X105810000Y-94480000D01*
X105810000Y-95127844D01*
X87419742Y-95127844D01*
X87433429Y-95098492D01*
X87433432Y-95098486D01*
X87490636Y-94885000D01*
X86593686Y-94885000D01*
X86619493Y-94844844D01*
X86660000Y-94706889D01*
X86660000Y-94563111D01*
X86619493Y-94425156D01*
X86593686Y-94385000D01*
X87490636Y-94385000D01*
X87490635Y-94384999D01*
X87433432Y-94171513D01*
X87433429Y-94171507D01*
X87333600Y-93957422D01*
X87333599Y-93957420D01*
X87198113Y-93763926D01*
X87198108Y-93763920D01*
X87031082Y-93596894D01*
X86851394Y-93471074D01*
X86807769Y-93416496D01*
X86800577Y-93346998D01*
X86832099Y-93284643D01*
X86892329Y-93249230D01*
X86922517Y-93245499D01*
X87054864Y-93245499D01*
X87054879Y-93245497D01*
X87054882Y-93245497D01*
X87079987Y-93242586D01*
X87079988Y-93242585D01*
X87079991Y-93242585D01*
X87182765Y-93197206D01*
X87262206Y-93117765D01*
X87307585Y-93014991D01*
X87310500Y-92989865D01*
X87310499Y-91200136D01*
X87310497Y-91200117D01*
X87307586Y-91175012D01*
X87307585Y-91175010D01*
X87307585Y-91175009D01*
X87262206Y-91072235D01*
X87182765Y-90992794D01*
X87128306Y-90968748D01*
X87079992Y-90947415D01*
X87054865Y-90944500D01*
X85265143Y-90944500D01*
X85265117Y-90944502D01*
X85240012Y-90947413D01*
X85240008Y-90947415D01*
X85137235Y-90992793D01*
X85057794Y-91072234D01*
X85012415Y-91175006D01*
X85012415Y-91175008D01*
X85009500Y-91200131D01*
X85009500Y-92989856D01*
X85009502Y-92989882D01*
X85012413Y-93014987D01*
X85012415Y-93014991D01*
X85057793Y-93117764D01*
X85057794Y-93117765D01*
X85137235Y-93197206D01*
X85240009Y-93242585D01*
X85265135Y-93245500D01*
X85397483Y-93245499D01*
X85464520Y-93265183D01*
X85510275Y-93317987D01*
X85520219Y-93387145D01*
X85491195Y-93450701D01*
X85468605Y-93471074D01*
X85288922Y-93596890D01*
X85288920Y-93596891D01*
X85121891Y-93763920D01*
X85121886Y-93763926D01*
X84986400Y-93957420D01*
X84986399Y-93957422D01*
X84886570Y-94171507D01*
X84886567Y-94171513D01*
X84829364Y-94384999D01*
X84829364Y-94385000D01*
X85726314Y-94385000D01*
X85700507Y-94425156D01*
X85660000Y-94563111D01*
X85660000Y-94706889D01*
X85700507Y-94844844D01*
X85726314Y-94885000D01*
X84829364Y-94885000D01*
X79246748Y-94885000D01*
X75391819Y-91030071D01*
X75358334Y-90968748D01*
X75355500Y-90942390D01*
X75355500Y-89750000D01*
X123869571Y-89750000D01*
X123889244Y-89962310D01*
X123947596Y-90167392D01*
X123947596Y-90167394D01*
X124042632Y-90358253D01*
X124105418Y-90441394D01*
X124171128Y-90528407D01*
X124328698Y-90672052D01*
X124509981Y-90784298D01*
X124708802Y-90861321D01*
X124918390Y-90900500D01*
X124918392Y-90900500D01*
X125131608Y-90900500D01*
X125131610Y-90900500D01*
X125341198Y-90861321D01*
X125540019Y-90784298D01*
X125721302Y-90672052D01*
X125878872Y-90528407D01*
X126007366Y-90358255D01*
X126061270Y-90250000D01*
X126102403Y-90167394D01*
X126102403Y-90167393D01*
X126102405Y-90167389D01*
X126160756Y-89962310D01*
X126171529Y-89846047D01*
X126197315Y-89781111D01*
X126239622Y-89750804D01*
X126348130Y-89750804D01*
X126384503Y-89771668D01*
X126416693Y-89833681D01*
X126418471Y-89846048D01*
X126429244Y-89962310D01*
X126487596Y-90167392D01*
X126487596Y-90167394D01*
X126582632Y-90358253D01*
X126645418Y-90441394D01*
X126711128Y-90528407D01*
X126868698Y-90672052D01*
X127049981Y-90784298D01*
X127248802Y-90861321D01*
X127458390Y-90900500D01*
X127458392Y-90900500D01*
X127671608Y-90900500D01*
X127671610Y-90900500D01*
X127881198Y-90861321D01*
X128080019Y-90784298D01*
X128261302Y-90672052D01*
X128418872Y-90528407D01*
X128547366Y-90358255D01*
X128614325Y-90223781D01*
X128661825Y-90172548D01*
X128729488Y-90155126D01*
X128795828Y-90177051D01*
X128837705Y-90226651D01*
X128931399Y-90427578D01*
X129066894Y-90621082D01*
X129233917Y-90788105D01*
X129427421Y-90923600D01*
X129641507Y-91023429D01*
X129641516Y-91023433D01*
X129855000Y-91080634D01*
X129855000Y-90185501D01*
X129962685Y-90234680D01*
X130069237Y-90250000D01*
X130140763Y-90250000D01*
X130247315Y-90234680D01*
X130355000Y-90185501D01*
X130355000Y-91080633D01*
X130568483Y-91023433D01*
X130568492Y-91023429D01*
X130782578Y-90923600D01*
X130976082Y-90788105D01*
X131143105Y-90621082D01*
X131268925Y-90441394D01*
X131323502Y-90397770D01*
X131393001Y-90390577D01*
X131455355Y-90422099D01*
X131490769Y-90482329D01*
X131494500Y-90512517D01*
X131494500Y-90644855D01*
X131494502Y-90644882D01*
X131497413Y-90669987D01*
X131497415Y-90669991D01*
X131542793Y-90772764D01*
X131542794Y-90772765D01*
X131622235Y-90852206D01*
X131725009Y-90897585D01*
X131750135Y-90900500D01*
X133539864Y-90900499D01*
X133539879Y-90900497D01*
X133539882Y-90900497D01*
X133564987Y-90897586D01*
X133564988Y-90897585D01*
X133564991Y-90897585D01*
X133667765Y-90852206D01*
X133747206Y-90772765D01*
X133792585Y-90669991D01*
X133795500Y-90644865D01*
X133795499Y-88855136D01*
X133795497Y-88855117D01*
X133792586Y-88830012D01*
X133792585Y-88830010D01*
X133792585Y-88830009D01*
X133747206Y-88727235D01*
X133667765Y-88647794D01*
X133647124Y-88638680D01*
X133564992Y-88602415D01*
X133539865Y-88599500D01*
X131750143Y-88599500D01*
X131750117Y-88599502D01*
X131725012Y-88602413D01*
X131725008Y-88602415D01*
X131622235Y-88647793D01*
X131542794Y-88727234D01*
X131497415Y-88830006D01*
X131497415Y-88830008D01*
X131494500Y-88855131D01*
X131494500Y-88987481D01*
X131474815Y-89054520D01*
X131422011Y-89100275D01*
X131352853Y-89110219D01*
X131289297Y-89081194D01*
X131268925Y-89058604D01*
X131143113Y-88878926D01*
X131143108Y-88878920D01*
X130976082Y-88711894D01*
X130782578Y-88576399D01*
X130568492Y-88476570D01*
X130568486Y-88476567D01*
X130355000Y-88419364D01*
X130355000Y-89314498D01*
X130247315Y-89265320D01*
X130140763Y-89250000D01*
X130069237Y-89250000D01*
X129962685Y-89265320D01*
X129855000Y-89314498D01*
X129855000Y-88419364D01*
X129854999Y-88419364D01*
X129641513Y-88476567D01*
X129641507Y-88476570D01*
X129427422Y-88576399D01*
X129427420Y-88576400D01*
X129233926Y-88711886D01*
X129233920Y-88711891D01*
X129066891Y-88878920D01*
X129066886Y-88878926D01*
X128931400Y-89072420D01*
X128931399Y-89072422D01*
X128837705Y-89273348D01*
X128791532Y-89325787D01*
X128724339Y-89344939D01*
X128657457Y-89324723D01*
X128614324Y-89276216D01*
X128547366Y-89141745D01*
X128523558Y-89110219D01*
X128418872Y-88971593D01*
X128261302Y-88827948D01*
X128080019Y-88715702D01*
X128080017Y-88715701D01*
X127980608Y-88677190D01*
X127881198Y-88638679D01*
X127671610Y-88599500D01*
X127458390Y-88599500D01*
X127248802Y-88638679D01*
X127248799Y-88638679D01*
X127248799Y-88638680D01*
X127049982Y-88715701D01*
X127049980Y-88715702D01*
X126868699Y-88827947D01*
X126711127Y-88971593D01*
X126582632Y-89141746D01*
X126487596Y-89332605D01*
X126487596Y-89332607D01*
X126429244Y-89537689D01*
X126418471Y-89653951D01*
X126392685Y-89718888D01*
X126348130Y-89750804D01*
X126239622Y-89750804D01*
X126241869Y-89749194D01*
X126205497Y-89728331D01*
X126173307Y-89666318D01*
X126171529Y-89653951D01*
X126170849Y-89646613D01*
X126160756Y-89537690D01*
X126102405Y-89332611D01*
X126102403Y-89332606D01*
X126102403Y-89332605D01*
X126007367Y-89141746D01*
X125878872Y-88971593D01*
X125721302Y-88827948D01*
X125540019Y-88715702D01*
X125540017Y-88715701D01*
X125440608Y-88677190D01*
X125341198Y-88638679D01*
X125131610Y-88599500D01*
X124918390Y-88599500D01*
X124708802Y-88638679D01*
X124708799Y-88638679D01*
X124708799Y-88638680D01*
X124509982Y-88715701D01*
X124509980Y-88715702D01*
X124328699Y-88827947D01*
X124171127Y-88971593D01*
X124042632Y-89141746D01*
X123947596Y-89332605D01*
X123947596Y-89332607D01*
X123889244Y-89537689D01*
X123869571Y-89749999D01*
X123869571Y-89750000D01*
X75355500Y-89750000D01*
X75355500Y-80050000D01*
X82124364Y-80050000D01*
X82181567Y-80263486D01*
X82181570Y-80263492D01*
X82281399Y-80477578D01*
X82416894Y-80671082D01*
X82583917Y-80838105D01*
X82777421Y-80973600D01*
X82976573Y-81066466D01*
X83029012Y-81112638D01*
X83048164Y-81179832D01*
X83027948Y-81246713D01*
X82974783Y-81292048D01*
X82968968Y-81294472D01*
X82961771Y-81297260D01*
X82939982Y-81305701D01*
X82939980Y-81305702D01*
X82758699Y-81417947D01*
X82601127Y-81561593D01*
X82472632Y-81731746D01*
X82377596Y-81922605D01*
X82377596Y-81922607D01*
X82319244Y-82127689D01*
X82316714Y-82154999D01*
X82299571Y-82340000D01*
X82319244Y-82552310D01*
X82324958Y-82572394D01*
X82377596Y-82757392D01*
X82377596Y-82757394D01*
X82472632Y-82948253D01*
X82472634Y-82948255D01*
X82601128Y-83118407D01*
X82758698Y-83262052D01*
X82939981Y-83374298D01*
X83138802Y-83451321D01*
X83335613Y-83488111D01*
X83397893Y-83519779D01*
X83433166Y-83580092D01*
X83430232Y-83649900D01*
X83390023Y-83707040D01*
X83335613Y-83731888D01*
X83138802Y-83768679D01*
X83138799Y-83768679D01*
X83138799Y-83768680D01*
X82939982Y-83845701D01*
X82939980Y-83845702D01*
X82758699Y-83957947D01*
X82601127Y-84101593D01*
X82472632Y-84271746D01*
X82377596Y-84462605D01*
X82377596Y-84462607D01*
X82319244Y-84667689D01*
X82299571Y-84879999D01*
X82299571Y-84880000D01*
X82319244Y-85092310D01*
X82377596Y-85297392D01*
X82377596Y-85297394D01*
X82472632Y-85488253D01*
X82472634Y-85488255D01*
X82601128Y-85658407D01*
X82758698Y-85802052D01*
X82939981Y-85914298D01*
X83138802Y-85991321D01*
X83348390Y-86030500D01*
X83348392Y-86030500D01*
X83561608Y-86030500D01*
X83561610Y-86030500D01*
X83771198Y-85991321D01*
X83970019Y-85914298D01*
X84151302Y-85802052D01*
X84308872Y-85658407D01*
X84437366Y-85488255D01*
X84532405Y-85297389D01*
X84590756Y-85092310D01*
X84610429Y-84880000D01*
X84590756Y-84667690D01*
X84532405Y-84462611D01*
X84532403Y-84462606D01*
X84532403Y-84462605D01*
X84437367Y-84271746D01*
X84308872Y-84101593D01*
X84151302Y-83957948D01*
X83970019Y-83845702D01*
X83970017Y-83845701D01*
X83870608Y-83807190D01*
X83771198Y-83768679D01*
X83574385Y-83731888D01*
X83512106Y-83700221D01*
X83476833Y-83639908D01*
X83479767Y-83570100D01*
X83519976Y-83512960D01*
X83574384Y-83488111D01*
X83771198Y-83451321D01*
X83970019Y-83374298D01*
X84151302Y-83262052D01*
X84308872Y-83118407D01*
X84437366Y-82948255D01*
X84444760Y-82933406D01*
X84532403Y-82757394D01*
X84532403Y-82757393D01*
X84532405Y-82757389D01*
X84590756Y-82552310D01*
X84610429Y-82340000D01*
X84590756Y-82127690D01*
X84532405Y-81922611D01*
X84532403Y-81922606D01*
X84532403Y-81922605D01*
X84437367Y-81731746D01*
X84308872Y-81561593D01*
X84292585Y-81546745D01*
X84151302Y-81417948D01*
X83970019Y-81305702D01*
X83970014Y-81305700D01*
X83963129Y-81303032D01*
X83941037Y-81294474D01*
X83885636Y-81251903D01*
X83862045Y-81186136D01*
X83877756Y-81118056D01*
X83927779Y-81069276D01*
X83933426Y-81066466D01*
X84132578Y-80973599D01*
X84326082Y-80838105D01*
X84493105Y-80671082D01*
X84628600Y-80477578D01*
X84728429Y-80263492D01*
X84728432Y-80263486D01*
X84785636Y-80050000D01*
X83888686Y-80050000D01*
X83914493Y-80009844D01*
X83955000Y-79871889D01*
X83955000Y-79728111D01*
X83914493Y-79590156D01*
X83888686Y-79550000D01*
X84785636Y-79550000D01*
X84785635Y-79549999D01*
X84728432Y-79336513D01*
X84728429Y-79336507D01*
X84628600Y-79122422D01*
X84628599Y-79122420D01*
X84493113Y-78928926D01*
X84493108Y-78928920D01*
X84326082Y-78761894D01*
X84132578Y-78626399D01*
X83933426Y-78533533D01*
X83880987Y-78487360D01*
X83861835Y-78420167D01*
X83882051Y-78353286D01*
X83935216Y-78307951D01*
X83941005Y-78305537D01*
X83970019Y-78294298D01*
X84151302Y-78182052D01*
X84308872Y-78038407D01*
X84437366Y-77868255D01*
X84454523Y-77833799D01*
X84532403Y-77677394D01*
X84532403Y-77677393D01*
X84532405Y-77677389D01*
X84590756Y-77472310D01*
X84610429Y-77260000D01*
X84590756Y-77047690D01*
X84532405Y-76842611D01*
X84532403Y-76842606D01*
X84532403Y-76842605D01*
X84437367Y-76651746D01*
X84308872Y-76481593D01*
X84202099Y-76384256D01*
X84151302Y-76337948D01*
X83970019Y-76225702D01*
X83970017Y-76225701D01*
X83870608Y-76187190D01*
X83771198Y-76148679D01*
X83574385Y-76111888D01*
X83512106Y-76080221D01*
X83476833Y-76019908D01*
X83479767Y-75950100D01*
X83519976Y-75892960D01*
X83574384Y-75868111D01*
X83771198Y-75831321D01*
X83970019Y-75754298D01*
X84151302Y-75642052D01*
X84308872Y-75498407D01*
X84437366Y-75328255D01*
X84444760Y-75313406D01*
X84532403Y-75137394D01*
X84532403Y-75137393D01*
X84532405Y-75137389D01*
X84590756Y-74932310D01*
X84610429Y-74720000D01*
X84590756Y-74507690D01*
X84532405Y-74302611D01*
X84532403Y-74302606D01*
X84532403Y-74302605D01*
X84437367Y-74111746D01*
X84308872Y-73941593D01*
X84292585Y-73926745D01*
X84151302Y-73797948D01*
X83970019Y-73685702D01*
X83970017Y-73685701D01*
X83870608Y-73647190D01*
X83771198Y-73608679D01*
X83574385Y-73571888D01*
X83512106Y-73540221D01*
X83476833Y-73479908D01*
X83479767Y-73410100D01*
X83519976Y-73352960D01*
X83574384Y-73328111D01*
X83771198Y-73291321D01*
X83970019Y-73214298D01*
X84151302Y-73102052D01*
X84308872Y-72958407D01*
X84437366Y-72788255D01*
X84461254Y-72740281D01*
X84532403Y-72597394D01*
X84532403Y-72597393D01*
X84532405Y-72597389D01*
X84590756Y-72392310D01*
X84610429Y-72180000D01*
X84590756Y-71967690D01*
X84532405Y-71762611D01*
X84532403Y-71762606D01*
X84532403Y-71762605D01*
X84437367Y-71571746D01*
X84308872Y-71401593D01*
X84292585Y-71386745D01*
X84151302Y-71257948D01*
X83970019Y-71145702D01*
X83970017Y-71145701D01*
X83870608Y-71107190D01*
X83771198Y-71068679D01*
X83574385Y-71031888D01*
X83512106Y-71000221D01*
X83476833Y-70939908D01*
X83479767Y-70870100D01*
X83519976Y-70812960D01*
X83574384Y-70788111D01*
X83771198Y-70751321D01*
X83970019Y-70674298D01*
X84151302Y-70562052D01*
X84308872Y-70418407D01*
X84437366Y-70248255D01*
X84444760Y-70233406D01*
X84532403Y-70057394D01*
X84532403Y-70057393D01*
X84532405Y-70057389D01*
X84590756Y-69852310D01*
X84610429Y-69640000D01*
X84590756Y-69427690D01*
X84532405Y-69222611D01*
X84532403Y-69222606D01*
X84532403Y-69222605D01*
X84437367Y-69031746D01*
X84308872Y-68861593D01*
X84292585Y-68846745D01*
X84151302Y-68717948D01*
X83970019Y-68605702D01*
X83970017Y-68605701D01*
X83870608Y-68567190D01*
X83771198Y-68528679D01*
X83574385Y-68491888D01*
X83512106Y-68460221D01*
X83476833Y-68399908D01*
X83479767Y-68330100D01*
X83519976Y-68272960D01*
X83574384Y-68248111D01*
X83771198Y-68211321D01*
X83970019Y-68134298D01*
X84151302Y-68022052D01*
X84308872Y-67878407D01*
X84437366Y-67708255D01*
X84532405Y-67517389D01*
X84590756Y-67312310D01*
X84604406Y-67165000D01*
X120144364Y-67165000D01*
X120201567Y-67378486D01*
X120201570Y-67378492D01*
X120301399Y-67592578D01*
X120436894Y-67786082D01*
X120603917Y-67953105D01*
X120797421Y-68088600D01*
X120996573Y-68181466D01*
X121049012Y-68227638D01*
X121068164Y-68294832D01*
X121047948Y-68361713D01*
X120994783Y-68407048D01*
X120988968Y-68409472D01*
X120981771Y-68412260D01*
X120959982Y-68420701D01*
X120959980Y-68420702D01*
X120778699Y-68532947D01*
X120621127Y-68676593D01*
X120492632Y-68846746D01*
X120397596Y-69037605D01*
X120397596Y-69037607D01*
X120339244Y-69242689D01*
X120319571Y-69454999D01*
X120319571Y-69455000D01*
X120339244Y-69667310D01*
X120397596Y-69872392D01*
X120397596Y-69872394D01*
X120492632Y-70063253D01*
X120492634Y-70063255D01*
X120621128Y-70233407D01*
X120778698Y-70377052D01*
X120959981Y-70489298D01*
X121158802Y-70566321D01*
X121355613Y-70603111D01*
X121417893Y-70634779D01*
X121453166Y-70695092D01*
X121450232Y-70764900D01*
X121410023Y-70822040D01*
X121355613Y-70846888D01*
X121158802Y-70883679D01*
X121158799Y-70883679D01*
X121158799Y-70883680D01*
X120959982Y-70960701D01*
X120959980Y-70960702D01*
X120778699Y-71072947D01*
X120621127Y-71216593D01*
X120492632Y-71386746D01*
X120397596Y-71577605D01*
X120397596Y-71577607D01*
X120339244Y-71782689D01*
X120319571Y-71994999D01*
X120319571Y-71995000D01*
X120339244Y-72207310D01*
X120397596Y-72412392D01*
X120397596Y-72412394D01*
X120492632Y-72603253D01*
X120621127Y-72773406D01*
X120621128Y-72773407D01*
X120778698Y-72917052D01*
X120959981Y-73029298D01*
X121158802Y-73106321D01*
X121355613Y-73143111D01*
X121417893Y-73174779D01*
X121453166Y-73235092D01*
X121450232Y-73304900D01*
X121410023Y-73362040D01*
X121355613Y-73386888D01*
X121158802Y-73423679D01*
X121158799Y-73423679D01*
X121158799Y-73423680D01*
X120959982Y-73500701D01*
X120959980Y-73500702D01*
X120778699Y-73612947D01*
X120621127Y-73756593D01*
X120492632Y-73926746D01*
X120397596Y-74117605D01*
X120397596Y-74117607D01*
X120339244Y-74322689D01*
X120319571Y-74534999D01*
X120319571Y-74535000D01*
X120339244Y-74747310D01*
X120397596Y-74952392D01*
X120397596Y-74952394D01*
X120492632Y-75143253D01*
X120492634Y-75143255D01*
X120621128Y-75313407D01*
X120778698Y-75457052D01*
X120959981Y-75569298D01*
X121158802Y-75646321D01*
X121355613Y-75683111D01*
X121417893Y-75714779D01*
X121453166Y-75775092D01*
X121450232Y-75844900D01*
X121410023Y-75902040D01*
X121355613Y-75926888D01*
X121158802Y-75963679D01*
X121158799Y-75963679D01*
X121158799Y-75963680D01*
X120959982Y-76040701D01*
X120959980Y-76040702D01*
X120778699Y-76152947D01*
X120621127Y-76296593D01*
X120492632Y-76466746D01*
X120397596Y-76657605D01*
X120397596Y-76657607D01*
X120339244Y-76862689D01*
X120319571Y-77074999D01*
X120319571Y-77075000D01*
X120339244Y-77287310D01*
X120397596Y-77492392D01*
X120397596Y-77492394D01*
X120492632Y-77683253D01*
X120606323Y-77833802D01*
X120621128Y-77853407D01*
X120778698Y-77997052D01*
X120959981Y-78109298D01*
X121158802Y-78186321D01*
X121355613Y-78223111D01*
X121417893Y-78254779D01*
X121453166Y-78315092D01*
X121450232Y-78384900D01*
X121410023Y-78442040D01*
X121355613Y-78466888D01*
X121158802Y-78503679D01*
X121158799Y-78503679D01*
X121158799Y-78503680D01*
X120959982Y-78580701D01*
X120959980Y-78580702D01*
X120778699Y-78692947D01*
X120621127Y-78836593D01*
X120492632Y-79006746D01*
X120397596Y-79197605D01*
X120397596Y-79197607D01*
X120339244Y-79402689D01*
X120319571Y-79614999D01*
X120319571Y-79615000D01*
X120339244Y-79827310D01*
X120397596Y-80032392D01*
X120397596Y-80032394D01*
X120492632Y-80223253D01*
X120621127Y-80393406D01*
X120621128Y-80393407D01*
X120778698Y-80537052D01*
X120959981Y-80649298D01*
X121158802Y-80726321D01*
X121355613Y-80763111D01*
X121417893Y-80794779D01*
X121453166Y-80855092D01*
X121450232Y-80924900D01*
X121410023Y-80982040D01*
X121355613Y-81006888D01*
X121158802Y-81043679D01*
X121158799Y-81043679D01*
X121158799Y-81043680D01*
X120959982Y-81120701D01*
X120959980Y-81120702D01*
X120778699Y-81232947D01*
X120621127Y-81376593D01*
X120492632Y-81546746D01*
X120397596Y-81737605D01*
X120397596Y-81737607D01*
X120339244Y-81942689D01*
X120319571Y-82154999D01*
X120319571Y-82155000D01*
X120339244Y-82367310D01*
X120397596Y-82572392D01*
X120397596Y-82572394D01*
X120492632Y-82763253D01*
X120492634Y-82763255D01*
X120621128Y-82933407D01*
X120778698Y-83077052D01*
X120959981Y-83189298D01*
X121158802Y-83266321D01*
X121368390Y-83305500D01*
X121368392Y-83305500D01*
X121581608Y-83305500D01*
X121581610Y-83305500D01*
X121791198Y-83266321D01*
X121990019Y-83189298D01*
X122171302Y-83077052D01*
X122328872Y-82933407D01*
X122457366Y-82763255D01*
X122552405Y-82572389D01*
X122610756Y-82367310D01*
X122630429Y-82155000D01*
X122610756Y-81942690D01*
X122552405Y-81737611D01*
X122552403Y-81737606D01*
X122552403Y-81737605D01*
X122457367Y-81546746D01*
X122328872Y-81376593D01*
X122171302Y-81232948D01*
X121990019Y-81120702D01*
X121990017Y-81120701D01*
X121857272Y-81069276D01*
X121791198Y-81043679D01*
X121594385Y-81006888D01*
X121532106Y-80975221D01*
X121496833Y-80914908D01*
X121499767Y-80845100D01*
X121539976Y-80787960D01*
X121594384Y-80763111D01*
X121791198Y-80726321D01*
X121990019Y-80649298D01*
X122171302Y-80537052D01*
X122328872Y-80393407D01*
X122457366Y-80223255D01*
X122552405Y-80032389D01*
X122610756Y-79827310D01*
X122630429Y-79615000D01*
X122610756Y-79402690D01*
X122552405Y-79197611D01*
X122552403Y-79197606D01*
X122552403Y-79197605D01*
X122457367Y-79006746D01*
X122328872Y-78836593D01*
X122171302Y-78692948D01*
X121990019Y-78580702D01*
X121990017Y-78580701D01*
X121868261Y-78533533D01*
X121791198Y-78503679D01*
X121594385Y-78466888D01*
X121532106Y-78435221D01*
X121496833Y-78374908D01*
X121499767Y-78305100D01*
X121539976Y-78247960D01*
X121594384Y-78223111D01*
X121791198Y-78186321D01*
X121990019Y-78109298D01*
X122171302Y-77997052D01*
X122328872Y-77853407D01*
X122457366Y-77683255D01*
X122552405Y-77492389D01*
X122610756Y-77287310D01*
X122630429Y-77075000D01*
X122610756Y-76862690D01*
X122552405Y-76657611D01*
X122552403Y-76657606D01*
X122552403Y-76657605D01*
X122457367Y-76466746D01*
X122328872Y-76296593D01*
X122257246Y-76231297D01*
X122171302Y-76152948D01*
X121990019Y-76040702D01*
X121990017Y-76040701D01*
X121809378Y-75970722D01*
X121791198Y-75963679D01*
X121594385Y-75926888D01*
X121532106Y-75895221D01*
X121496833Y-75834908D01*
X121499767Y-75765100D01*
X121539976Y-75707960D01*
X121594384Y-75683111D01*
X121791198Y-75646321D01*
X121990019Y-75569298D01*
X122171302Y-75457052D01*
X122328872Y-75313407D01*
X122457366Y-75143255D01*
X122551753Y-74953699D01*
X122552403Y-74952394D01*
X122552403Y-74952393D01*
X122552405Y-74952389D01*
X122610756Y-74747310D01*
X122630429Y-74535000D01*
X122610756Y-74322690D01*
X122552405Y-74117611D01*
X122552403Y-74117606D01*
X122552403Y-74117605D01*
X122457367Y-73926746D01*
X122328872Y-73756593D01*
X122265618Y-73698929D01*
X122171302Y-73612948D01*
X121990019Y-73500702D01*
X121990017Y-73500701D01*
X121890608Y-73462190D01*
X121791198Y-73423679D01*
X121594385Y-73386888D01*
X121532106Y-73355221D01*
X121496833Y-73294908D01*
X121499767Y-73225100D01*
X121539976Y-73167960D01*
X121594384Y-73143111D01*
X121791198Y-73106321D01*
X121990019Y-73029298D01*
X122171302Y-72917052D01*
X122328872Y-72773407D01*
X122457366Y-72603255D01*
X122552405Y-72412389D01*
X122610756Y-72207310D01*
X122630429Y-71995000D01*
X122610756Y-71782690D01*
X122552405Y-71577611D01*
X122552403Y-71577606D01*
X122552403Y-71577605D01*
X122457367Y-71386746D01*
X122328872Y-71216593D01*
X122171302Y-71072948D01*
X121990019Y-70960702D01*
X121990017Y-70960701D01*
X121890608Y-70922190D01*
X121791198Y-70883679D01*
X121594385Y-70846888D01*
X121532106Y-70815221D01*
X121496833Y-70754908D01*
X121499767Y-70685100D01*
X121539976Y-70627960D01*
X121594384Y-70603111D01*
X121791198Y-70566321D01*
X121990019Y-70489298D01*
X122171302Y-70377052D01*
X122328872Y-70233407D01*
X122457366Y-70063255D01*
X122552405Y-69872389D01*
X122610756Y-69667310D01*
X122630429Y-69455000D01*
X122610756Y-69242690D01*
X122552405Y-69037611D01*
X122552403Y-69037606D01*
X122552403Y-69037605D01*
X122457367Y-68846746D01*
X122328872Y-68676593D01*
X122171302Y-68532948D01*
X121990019Y-68420702D01*
X121990014Y-68420700D01*
X121983129Y-68418032D01*
X121961037Y-68409474D01*
X121905636Y-68366903D01*
X121882045Y-68301136D01*
X121897756Y-68233056D01*
X121947779Y-68184276D01*
X121953426Y-68181466D01*
X122152578Y-68088599D01*
X122346082Y-67953105D01*
X122513105Y-67786082D01*
X122648600Y-67592578D01*
X122748429Y-67378492D01*
X122748432Y-67378486D01*
X122805636Y-67165000D01*
X121908686Y-67165000D01*
X121934493Y-67124844D01*
X121975000Y-66986889D01*
X121975000Y-66843111D01*
X121934493Y-66705156D01*
X121908686Y-66665000D01*
X122805636Y-66665000D01*
X122805635Y-66664999D01*
X122748432Y-66451513D01*
X122748429Y-66451507D01*
X122648600Y-66237422D01*
X122648599Y-66237420D01*
X122513113Y-66043926D01*
X122513108Y-66043920D01*
X122346082Y-65876894D01*
X122166394Y-65751074D01*
X122122769Y-65696496D01*
X122115577Y-65626998D01*
X122147099Y-65564643D01*
X122207329Y-65529230D01*
X122237517Y-65525499D01*
X122369864Y-65525499D01*
X122369879Y-65525497D01*
X122369882Y-65525497D01*
X122394987Y-65522586D01*
X122394988Y-65522585D01*
X122394991Y-65522585D01*
X122497765Y-65477206D01*
X122577206Y-65397765D01*
X122622585Y-65294991D01*
X122625500Y-65269865D01*
X122625500Y-64667763D01*
X143905787Y-64667763D01*
X143935413Y-64937013D01*
X143935415Y-64937024D01*
X144003926Y-65199082D01*
X144003928Y-65199088D01*
X144109870Y-65448390D01*
X144243375Y-65667145D01*
X144250979Y-65679605D01*
X144250986Y-65679615D01*
X144424253Y-65887819D01*
X144424259Y-65887824D01*
X144518081Y-65971888D01*
X144625998Y-66068582D01*
X144851910Y-66218044D01*
X145097176Y-66333020D01*
X145097183Y-66333022D01*
X145097185Y-66333023D01*
X145356557Y-66411057D01*
X145356564Y-66411058D01*
X145356569Y-66411060D01*
X145624561Y-66450500D01*
X145624566Y-66450500D01*
X145827636Y-66450500D01*
X145879133Y-66446730D01*
X146030156Y-66435677D01*
X146185557Y-66401060D01*
X146294546Y-66376782D01*
X146294548Y-66376781D01*
X146294553Y-66376780D01*
X146547558Y-66280014D01*
X146783777Y-66147441D01*
X146998177Y-65981888D01*
X147186186Y-65786881D01*
X147343799Y-65566579D01*
X147430593Y-65397764D01*
X147467649Y-65325690D01*
X147467651Y-65325684D01*
X147467656Y-65325675D01*
X147555118Y-65069305D01*
X147604319Y-64802933D01*
X147614212Y-64532235D01*
X147584586Y-64262982D01*
X147516072Y-64000912D01*
X147410130Y-63751610D01*
X147269018Y-63520390D01*
X147239513Y-63484936D01*
X147095746Y-63312180D01*
X147095740Y-63312175D01*
X146894002Y-63131418D01*
X146668092Y-62981957D01*
X146646758Y-62971956D01*
X146422824Y-62866980D01*
X146422819Y-62866978D01*
X146422814Y-62866976D01*
X146163442Y-62788942D01*
X146163428Y-62788939D01*
X146047791Y-62771921D01*
X145895439Y-62749500D01*
X145692369Y-62749500D01*
X145692364Y-62749500D01*
X145489844Y-62764323D01*
X145489831Y-62764325D01*
X145225453Y-62823217D01*
X145225446Y-62823220D01*
X144972439Y-62919987D01*
X144736226Y-63052557D01*
X144521822Y-63218112D01*
X144333822Y-63413109D01*
X144333816Y-63413116D01*
X144176202Y-63633419D01*
X144176199Y-63633424D01*
X144052350Y-63874309D01*
X144052343Y-63874327D01*
X143964884Y-64130685D01*
X143964881Y-64130699D01*
X143915681Y-64397068D01*
X143915680Y-64397075D01*
X143905787Y-64667763D01*
X122625500Y-64667763D01*
X122625499Y-63480136D01*
X122625497Y-63480117D01*
X122622586Y-63455012D01*
X122622585Y-63455010D01*
X122622585Y-63455009D01*
X122577206Y-63352235D01*
X122497765Y-63272794D01*
X122497763Y-63272793D01*
X122394992Y-63227415D01*
X122369865Y-63224500D01*
X120580143Y-63224500D01*
X120580117Y-63224502D01*
X120555012Y-63227413D01*
X120555008Y-63227415D01*
X120452235Y-63272793D01*
X120372794Y-63352234D01*
X120327415Y-63455006D01*
X120327415Y-63455008D01*
X120324500Y-63480131D01*
X120324500Y-65269856D01*
X120324502Y-65269882D01*
X120327413Y-65294987D01*
X120327415Y-65294991D01*
X120372793Y-65397764D01*
X120372794Y-65397765D01*
X120452235Y-65477206D01*
X120555009Y-65522585D01*
X120580135Y-65525500D01*
X120712483Y-65525499D01*
X120779520Y-65545183D01*
X120825275Y-65597987D01*
X120835219Y-65667145D01*
X120806195Y-65730701D01*
X120783605Y-65751074D01*
X120603922Y-65876890D01*
X120603920Y-65876891D01*
X120436891Y-66043920D01*
X120436886Y-66043926D01*
X120301400Y-66237420D01*
X120301399Y-66237422D01*
X120201570Y-66451507D01*
X120201567Y-66451513D01*
X120144364Y-66664999D01*
X120144364Y-66665000D01*
X121041314Y-66665000D01*
X121015507Y-66705156D01*
X120975000Y-66843111D01*
X120975000Y-66986889D01*
X121015507Y-67124844D01*
X121041314Y-67165000D01*
X120144364Y-67165000D01*
X84604406Y-67165000D01*
X84610429Y-67100000D01*
X84590756Y-66887690D01*
X84532405Y-66682611D01*
X84532403Y-66682606D01*
X84532403Y-66682605D01*
X84437367Y-66491746D01*
X84308872Y-66321593D01*
X84252293Y-66270014D01*
X84151302Y-66177948D01*
X83970019Y-66065702D01*
X83970017Y-66065701D01*
X83870608Y-66027190D01*
X83771198Y-65988679D01*
X83598456Y-65956387D01*
X83536176Y-65924719D01*
X83500903Y-65864407D01*
X83503837Y-65794599D01*
X83544046Y-65737459D01*
X83608764Y-65711128D01*
X83621233Y-65710499D01*
X84349864Y-65710499D01*
X84349879Y-65710497D01*
X84349882Y-65710497D01*
X84374987Y-65707586D01*
X84374988Y-65707585D01*
X84374991Y-65707585D01*
X84477765Y-65662206D01*
X84557206Y-65582765D01*
X84602585Y-65479991D01*
X84605500Y-65454865D01*
X84605499Y-63665136D01*
X84605497Y-63665117D01*
X84602586Y-63640012D01*
X84602585Y-63640010D01*
X84602585Y-63640009D01*
X84557206Y-63537235D01*
X84477765Y-63457794D01*
X84471451Y-63455006D01*
X84374992Y-63412415D01*
X84349865Y-63409500D01*
X82560143Y-63409500D01*
X82560117Y-63409502D01*
X82535012Y-63412413D01*
X82535008Y-63412415D01*
X82432235Y-63457793D01*
X82352794Y-63537234D01*
X82307415Y-63640006D01*
X82307415Y-63640008D01*
X82304500Y-63665131D01*
X82304500Y-65454856D01*
X82304502Y-65454882D01*
X82307413Y-65479987D01*
X82307415Y-65479991D01*
X82352793Y-65582764D01*
X82352794Y-65582765D01*
X82432235Y-65662206D01*
X82535009Y-65707585D01*
X82560135Y-65710500D01*
X83288758Y-65710499D01*
X83355795Y-65730183D01*
X83401550Y-65782987D01*
X83411494Y-65852146D01*
X83382469Y-65915702D01*
X83323691Y-65953476D01*
X83311542Y-65956388D01*
X83255116Y-65966935D01*
X83138802Y-65988679D01*
X83138800Y-65988679D01*
X83138798Y-65988680D01*
X82939982Y-66065701D01*
X82939980Y-66065702D01*
X82758699Y-66177947D01*
X82601127Y-66321593D01*
X82472632Y-66491746D01*
X82377596Y-66682605D01*
X82377596Y-66682607D01*
X82319244Y-66887689D01*
X82299571Y-67099999D01*
X82299571Y-67100000D01*
X82319244Y-67312310D01*
X82377596Y-67517392D01*
X82377596Y-67517394D01*
X82472632Y-67708253D01*
X82601127Y-67878406D01*
X82601128Y-67878407D01*
X82758698Y-68022052D01*
X82939981Y-68134298D01*
X83138802Y-68211321D01*
X83335613Y-68248111D01*
X83397893Y-68279779D01*
X83433166Y-68340092D01*
X83430232Y-68409900D01*
X83390023Y-68467040D01*
X83335613Y-68491888D01*
X83138802Y-68528679D01*
X83138799Y-68528679D01*
X83138799Y-68528680D01*
X82939982Y-68605701D01*
X82939980Y-68605702D01*
X82758699Y-68717947D01*
X82601127Y-68861593D01*
X82472632Y-69031746D01*
X82377596Y-69222605D01*
X82377596Y-69222607D01*
X82319244Y-69427689D01*
X82316714Y-69454999D01*
X82299571Y-69640000D01*
X82319244Y-69852310D01*
X82324958Y-69872394D01*
X82377596Y-70057392D01*
X82377596Y-70057394D01*
X82472632Y-70248253D01*
X82472634Y-70248255D01*
X82601128Y-70418407D01*
X82758698Y-70562052D01*
X82939981Y-70674298D01*
X83138802Y-70751321D01*
X83335613Y-70788111D01*
X83397893Y-70819779D01*
X83433166Y-70880092D01*
X83430232Y-70949900D01*
X83390023Y-71007040D01*
X83335613Y-71031888D01*
X83138802Y-71068679D01*
X83138799Y-71068679D01*
X83138799Y-71068680D01*
X82939982Y-71145701D01*
X82939980Y-71145702D01*
X82758699Y-71257947D01*
X82601127Y-71401593D01*
X82472632Y-71571746D01*
X82377596Y-71762605D01*
X82377596Y-71762607D01*
X82319244Y-71967689D01*
X82316714Y-71994999D01*
X82299571Y-72180000D01*
X82319244Y-72392310D01*
X82324958Y-72412394D01*
X82377596Y-72597392D01*
X82377596Y-72597394D01*
X82472632Y-72788253D01*
X82569898Y-72917052D01*
X82601128Y-72958407D01*
X82758698Y-73102052D01*
X82939981Y-73214298D01*
X83138802Y-73291321D01*
X83335613Y-73328111D01*
X83397893Y-73359779D01*
X83433166Y-73420092D01*
X83430232Y-73489900D01*
X83390023Y-73547040D01*
X83335613Y-73571888D01*
X83138802Y-73608679D01*
X83138799Y-73608679D01*
X83138799Y-73608680D01*
X82939982Y-73685701D01*
X82939980Y-73685702D01*
X82758699Y-73797947D01*
X82601127Y-73941593D01*
X82472632Y-74111746D01*
X82377596Y-74302605D01*
X82377596Y-74302607D01*
X82319244Y-74507689D01*
X82304424Y-74667632D01*
X82299571Y-74720000D01*
X82319244Y-74932310D01*
X82324958Y-74952394D01*
X82377596Y-75137392D01*
X82377596Y-75137394D01*
X82472632Y-75328253D01*
X82569898Y-75457052D01*
X82601128Y-75498407D01*
X82758698Y-75642052D01*
X82939981Y-75754298D01*
X83138802Y-75831321D01*
X83335613Y-75868111D01*
X83397893Y-75899779D01*
X83433166Y-75960092D01*
X83430232Y-76029900D01*
X83390023Y-76087040D01*
X83335613Y-76111888D01*
X83138802Y-76148679D01*
X83138799Y-76148679D01*
X83138799Y-76148680D01*
X82939982Y-76225701D01*
X82939980Y-76225702D01*
X82758699Y-76337947D01*
X82601127Y-76481593D01*
X82472632Y-76651746D01*
X82377596Y-76842605D01*
X82377596Y-76842607D01*
X82319244Y-77047689D01*
X82316714Y-77074999D01*
X82299571Y-77260000D01*
X82319244Y-77472310D01*
X82365528Y-77634980D01*
X82377596Y-77677392D01*
X82377596Y-77677394D01*
X82472632Y-77868253D01*
X82601127Y-78038406D01*
X82601128Y-78038407D01*
X82758698Y-78182052D01*
X82939981Y-78294298D01*
X82968961Y-78305525D01*
X83024362Y-78348095D01*
X83047954Y-78413861D01*
X83032244Y-78481942D01*
X82982222Y-78530722D01*
X82976573Y-78533533D01*
X82777422Y-78626399D01*
X82777420Y-78626400D01*
X82583926Y-78761886D01*
X82583920Y-78761891D01*
X82416891Y-78928920D01*
X82416886Y-78928926D01*
X82281400Y-79122420D01*
X82281399Y-79122422D01*
X82181570Y-79336507D01*
X82181567Y-79336513D01*
X82124364Y-79549999D01*
X82124364Y-79550000D01*
X83021314Y-79550000D01*
X82995507Y-79590156D01*
X82955000Y-79728111D01*
X82955000Y-79871889D01*
X82995507Y-80009844D01*
X83021314Y-80050000D01*
X82124364Y-80050000D01*
X75355500Y-80050000D01*
X75355500Y-79391007D01*
X75375185Y-79323968D01*
X75427989Y-79278213D01*
X75497147Y-79268269D01*
X75513426Y-79271738D01*
X75562690Y-79285756D01*
X75721806Y-79300500D01*
X75721810Y-79300500D01*
X76078190Y-79300500D01*
X76078194Y-79300500D01*
X76237310Y-79285756D01*
X76442389Y-79227405D01*
X76442393Y-79227403D01*
X76442394Y-79227403D01*
X76633253Y-79132367D01*
X76633253Y-79132366D01*
X76633255Y-79132366D01*
X76803407Y-79003872D01*
X76947052Y-78846302D01*
X77059298Y-78665019D01*
X77136321Y-78466198D01*
X77175500Y-78256610D01*
X77175500Y-78043390D01*
X77136321Y-77833802D01*
X77059298Y-77634981D01*
X76947052Y-77453698D01*
X76803407Y-77296128D01*
X76803406Y-77296127D01*
X76633253Y-77167632D01*
X76442393Y-77072596D01*
X76254960Y-77019266D01*
X76195867Y-76981986D01*
X76166310Y-76918677D01*
X76175672Y-76849437D01*
X76220982Y-76796251D01*
X76254960Y-76780734D01*
X76442389Y-76727405D01*
X76442393Y-76727403D01*
X76442394Y-76727403D01*
X76633253Y-76632367D01*
X76633253Y-76632366D01*
X76633255Y-76632366D01*
X76803407Y-76503872D01*
X76947052Y-76346302D01*
X77059298Y-76165019D01*
X77136321Y-75966198D01*
X77175500Y-75756610D01*
X77175500Y-75543390D01*
X77136321Y-75333802D01*
X77059298Y-75134981D01*
X76947052Y-74953698D01*
X76803407Y-74796128D01*
X76803406Y-74796127D01*
X76633253Y-74667632D01*
X76442393Y-74572596D01*
X76341067Y-74543766D01*
X76281974Y-74506486D01*
X76252417Y-74443177D01*
X76261779Y-74373937D01*
X76307089Y-74320751D01*
X76373961Y-74300504D01*
X76375002Y-74300500D01*
X76668097Y-74300500D01*
X76668102Y-74300500D01*
X76756564Y-74289877D01*
X76897342Y-74234361D01*
X77017922Y-74142922D01*
X77109361Y-74022342D01*
X77164877Y-73881564D01*
X77175500Y-73793102D01*
X77175500Y-72506898D01*
X77164877Y-72418436D01*
X77109361Y-72277658D01*
X77109360Y-72277657D01*
X77109360Y-72277656D01*
X77017922Y-72157077D01*
X76897343Y-72065639D01*
X76756561Y-72010122D01*
X76710926Y-72004642D01*
X76668102Y-71999500D01*
X75131898Y-71999500D01*
X75092853Y-72004188D01*
X75043438Y-72010122D01*
X74902656Y-72065639D01*
X74782077Y-72157077D01*
X74690639Y-72277656D01*
X74635122Y-72418438D01*
X74629188Y-72467853D01*
X74624500Y-72506898D01*
X74624500Y-72506903D01*
X74624500Y-72600500D01*
X74604815Y-72667539D01*
X74552011Y-72713294D01*
X74500500Y-72724500D01*
X74427393Y-72724500D01*
X74292607Y-72724500D01*
X74292604Y-72724501D01*
X74269635Y-72731963D01*
X74250722Y-72736503D01*
X74226874Y-72740280D01*
X74205359Y-72751242D01*
X74187389Y-72758685D01*
X74164421Y-72766148D01*
X74164417Y-72766149D01*
X74144880Y-72780344D01*
X74128298Y-72790506D01*
X74106783Y-72801469D01*
X74106780Y-72801471D01*
X71176780Y-75731472D01*
X71081471Y-75826780D01*
X71070510Y-75848293D01*
X71060346Y-75864878D01*
X71046152Y-75884414D01*
X71046151Y-75884417D01*
X71038688Y-75907385D01*
X71031243Y-75925358D01*
X71020280Y-75946873D01*
X71016503Y-75970722D01*
X71011962Y-75989639D01*
X71004500Y-76012604D01*
X71004500Y-109497394D01*
X68750000Y-109497394D01*
X68750000Y-102315743D01*
X68751266Y-99996872D01*
X68770499Y-64761497D01*
X68770574Y-64758491D01*
X68771260Y-64744557D01*
X68775532Y-64657763D01*
X70405787Y-64657763D01*
X70435413Y-64927013D01*
X70435415Y-64927024D01*
X70472615Y-65069314D01*
X70503928Y-65189088D01*
X70609870Y-65438390D01*
X70697981Y-65582765D01*
X70750979Y-65669605D01*
X70750986Y-65669615D01*
X70924253Y-65877819D01*
X70924259Y-65877824D01*
X71004255Y-65949500D01*
X71125998Y-66058582D01*
X71351910Y-66208044D01*
X71597176Y-66323020D01*
X71597183Y-66323022D01*
X71597185Y-66323023D01*
X71856557Y-66401057D01*
X71856564Y-66401058D01*
X71856569Y-66401060D01*
X72124561Y-66440500D01*
X72124566Y-66440500D01*
X72327636Y-66440500D01*
X72379133Y-66436730D01*
X72530156Y-66425677D01*
X72642758Y-66400593D01*
X72794546Y-66366782D01*
X72794548Y-66366781D01*
X72794553Y-66366780D01*
X73047558Y-66270014D01*
X73283777Y-66137441D01*
X73498177Y-65971888D01*
X73686186Y-65776881D01*
X73843799Y-65556579D01*
X73925451Y-65397764D01*
X73967649Y-65315690D01*
X73967651Y-65315684D01*
X73967656Y-65315675D01*
X74055118Y-65059305D01*
X74104319Y-64792933D01*
X74114212Y-64522235D01*
X74084586Y-64252982D01*
X74016072Y-63990912D01*
X73910130Y-63741610D01*
X73769018Y-63510390D01*
X73743840Y-63480135D01*
X73595746Y-63302180D01*
X73595740Y-63302175D01*
X73394002Y-63121418D01*
X73168092Y-62971957D01*
X73168090Y-62971956D01*
X72922824Y-62856980D01*
X72922819Y-62856978D01*
X72922814Y-62856976D01*
X72663442Y-62778942D01*
X72663428Y-62778939D01*
X72547791Y-62761921D01*
X72395439Y-62739500D01*
X72192369Y-62739500D01*
X72192364Y-62739500D01*
X71989844Y-62754323D01*
X71989831Y-62754325D01*
X71725453Y-62813217D01*
X71725446Y-62813220D01*
X71472439Y-62909987D01*
X71236226Y-63042557D01*
X71236224Y-63042558D01*
X71236223Y-63042559D01*
X71173893Y-63090688D01*
X71021822Y-63208112D01*
X70833822Y-63403109D01*
X70833816Y-63403116D01*
X70676202Y-63623419D01*
X70676199Y-63623424D01*
X70552350Y-63864309D01*
X70552343Y-63864327D01*
X70464884Y-64120685D01*
X70464881Y-64120699D01*
X70415681Y-64387068D01*
X70415680Y-64387075D01*
X70405787Y-64657763D01*
X68775532Y-64657763D01*
X68777993Y-64607763D01*
X68788931Y-64399478D01*
X68789515Y-64393661D01*
X68815331Y-64219968D01*
X68844727Y-64034743D01*
X68845817Y-64029411D01*
X68889638Y-63854828D01*
X68937225Y-63677600D01*
X68938735Y-63672774D01*
X69000133Y-63501543D01*
X69065478Y-63331683D01*
X69067289Y-63327457D01*
X69145694Y-63162058D01*
X69228143Y-63000614D01*
X69230188Y-62996929D01*
X69324805Y-62839450D01*
X69335374Y-62823217D01*
X69423578Y-62687731D01*
X69425726Y-62684646D01*
X69535646Y-62536827D01*
X69561470Y-62505023D01*
X69649721Y-62396340D01*
X69651913Y-62393788D01*
X69775072Y-62258298D01*
X69777103Y-62256173D01*
X69904325Y-62129344D01*
X69906449Y-62127328D01*
X70042287Y-62004618D01*
X70044863Y-62002419D01*
X70185689Y-61888788D01*
X70333855Y-61779322D01*
X70336955Y-61777177D01*
X70488980Y-61678873D01*
X70646759Y-61584739D01*
X70650403Y-61582731D01*
X70812174Y-61500746D01*
X70977752Y-61422884D01*
X70981988Y-61421083D01*
X71152097Y-61356246D01*
X71323526Y-61295375D01*
X71328309Y-61293895D01*
X71505707Y-61246851D01*
X71680418Y-61203573D01*
X71685761Y-61202498D01*
X71871020Y-61173684D01*
X72044844Y-61148398D01*
X72050683Y-61147831D01*
X72258811Y-61137547D01*
X72409788Y-61130583D01*
X72412715Y-61130519D01*
X72462009Y-61130618D01*
X72463011Y-61130508D01*
X141980099Y-61120500D01*
X141980099Y-61120499D01*
X141993691Y-61120498D01*
X141994245Y-61120432D01*
X145607607Y-61103328D01*
X145610895Y-61103402D01*
G37*
%TD.AperFunction*%
%TD*%
M02*
