M48
; DRILL file {KiCad 7.0.8-7.0.8~ubuntu22.04.1} date Fri 06 Oct 2023 08:26:49 AM EAT
; FORMAT={-:-/ absolute / metric / decimal}
; #@! TF.CreationDate,2023-10-06T08:26:49+03:00
; #@! TF.GenerationSoftware,Kicad,Pcbnew,7.0.8-7.0.8~ubuntu22.04.1
; #@! TF.FileFunction,MixedPlating,1,2
FMAT,2
METRIC
; #@! TA.AperFunction,Plated,PTH,ViaDrill
T1C0.400
; #@! TA.AperFunction,Plated,PTH,ComponentDrill
T2C0.800
; #@! TA.AperFunction,Plated,PTH,ComponentDrill
T3C0.950
; #@! TA.AperFunction,Plated,PTH,ComponentDrill
T4C1.000
; #@! TA.AperFunction,NonPlated,NPTH,ComponentDrill
T5C3.200
%
G90
G05
T1
X74.89Y-105.35
X80.17Y-111.42
X98.98Y-102.18
X104.43Y-123.38
X111.26Y-123.42
X117.62Y-98.56
X117.95Y-111.73
X122.35Y-98.56
X123.952Y-111.76
X127.64Y-95.55
X130.42Y-95.49
X131.27Y-111.53
X144.018Y-126.746
T2
X86.94Y-104.07
X86.94Y-106.61
X86.94Y-109.15
X86.94Y-111.69
X86.94Y-114.23
X86.94Y-116.77
X86.94Y-119.31
X86.94Y-121.85
X94.56Y-104.07
X94.56Y-106.61
X94.56Y-109.15
X94.56Y-111.69
X94.56Y-114.23
X94.56Y-116.77
X94.56Y-119.31
X94.56Y-121.85
T3
X75.9Y-73.15
X75.9Y-75.65
X75.9Y-78.15
T4
X81.9Y-104.32
X81.9Y-106.86
X83.455Y-64.56
X83.455Y-67.1
X83.455Y-69.64
X83.455Y-72.18
X83.455Y-74.72
X83.455Y-77.26
X83.455Y-79.8
X83.455Y-82.34
X83.455Y-84.88
X86.16Y-92.095
X86.16Y-94.635
X86.16Y-97.175
X90.99Y-128.32
X90.99Y-130.86
X93.53Y-128.32
X93.53Y-130.86
X96.07Y-128.32
X96.07Y-130.86
X98.61Y-128.32
X98.61Y-130.86
X100.445Y-106.645
X100.445Y-109.185
X100.445Y-111.725
X100.445Y-114.265
X100.445Y-116.805
X100.445Y-119.345
X101.15Y-128.32
X101.15Y-130.86
X103.69Y-128.32
X103.69Y-130.86
X106.23Y-128.32
X106.23Y-130.86
X107.16Y-94.23
X108.77Y-128.32
X108.77Y-130.86
X109.7Y-94.23
X111.31Y-128.32
X111.31Y-130.86
X112.24Y-94.23
X113.85Y-128.32
X113.85Y-130.86
X115.665Y-106.645
X115.665Y-109.185
X115.665Y-111.725
X115.665Y-114.265
X115.665Y-116.805
X115.665Y-119.345
X116.39Y-128.32
X116.39Y-130.86
X118.93Y-128.32
X118.93Y-130.86
X121.47Y-128.32
X121.47Y-130.86
X121.475Y-64.375
X121.475Y-66.915
X121.475Y-69.455
X121.475Y-71.995
X121.475Y-74.535
X121.475Y-77.075
X121.475Y-79.615
X121.475Y-82.155
X123.6Y-101.96
X124.01Y-128.32
X124.01Y-130.86
X125.025Y-89.75
X126.14Y-101.96
X126.55Y-128.32
X126.55Y-130.86
X127.565Y-89.75
X128.68Y-101.96
X129.09Y-128.32
X129.09Y-130.86
X130.105Y-89.75
X131.22Y-101.96
X131.63Y-128.32
X131.63Y-130.86
X132.645Y-89.75
X133.76Y-101.96
X134.17Y-128.32
X134.17Y-130.86
X136.71Y-128.32
X136.71Y-130.86
X139.25Y-128.32
X139.25Y-130.86
X143.45Y-115.96
X143.45Y-118.46
T5
X72.26Y-64.59
X72.26Y-138.1
X145.76Y-64.6
X145.77Y-138.11
T0
M30
