%TF.GenerationSoftware,KiCad,Pcbnew,7.0.8-7.0.8~ubuntu22.04.1*%
%TF.CreationDate,2023-10-06T08:27:00+03:00*%
%TF.ProjectId,Omarichet Sensor Board v1.5,4f6d6172-6963-4686-9574-2053656e736f,rev?*%
%TF.SameCoordinates,Original*%
%TF.FileFunction,Copper,L1,Top*%
%TF.FilePolarity,Positive*%
%FSLAX46Y46*%
G04 Gerber Fmt 4.6, Leading zero omitted, Abs format (unit mm)*
G04 Created by KiCad (PCBNEW 7.0.8-7.0.8~ubuntu22.04.1) date 2023-10-06 08:27:00*
%MOMM*%
%LPD*%
G01*
G04 APERTURE LIST*
G04 Aperture macros list*
%AMRoundRect*
0 Rectangle with rounded corners*
0 $1 Rounding radius*
0 $2 $3 $4 $5 $6 $7 $8 $9 X,Y pos of 4 corners*
0 Add a 4 corners polygon primitive as box body*
4,1,4,$2,$3,$4,$5,$6,$7,$8,$9,$2,$3,0*
0 Add four circle primitives for the rounded corners*
1,1,$1+$1,$2,$3*
1,1,$1+$1,$4,$5*
1,1,$1+$1,$6,$7*
1,1,$1+$1,$8,$9*
0 Add four rect primitives between the rounded corners*
20,1,$1+$1,$2,$3,$4,$5,0*
20,1,$1+$1,$4,$5,$6,$7,0*
20,1,$1+$1,$6,$7,$8,$9,0*
20,1,$1+$1,$8,$9,$2,$3,0*%
G04 Aperture macros list end*
%TA.AperFunction,ComponentPad*%
%ADD10R,1.700000X1.700000*%
%TD*%
%TA.AperFunction,ComponentPad*%
%ADD11O,1.700000X1.700000*%
%TD*%
%TA.AperFunction,SMDPad,CuDef*%
%ADD12RoundRect,0.200000X-0.275000X0.200000X-0.275000X-0.200000X0.275000X-0.200000X0.275000X0.200000X0*%
%TD*%
%TA.AperFunction,SMDPad,CuDef*%
%ADD13RoundRect,0.243750X0.456250X-0.243750X0.456250X0.243750X-0.456250X0.243750X-0.456250X-0.243750X0*%
%TD*%
%TA.AperFunction,SMDPad,CuDef*%
%ADD14RoundRect,0.250000X0.475000X-0.250000X0.475000X0.250000X-0.475000X0.250000X-0.475000X-0.250000X0*%
%TD*%
%TA.AperFunction,ComponentPad*%
%ADD15R,1.600000X1.600000*%
%TD*%
%TA.AperFunction,ComponentPad*%
%ADD16O,1.600000X1.600000*%
%TD*%
%TA.AperFunction,SMDPad,CuDef*%
%ADD17RoundRect,0.200000X0.200000X0.275000X-0.200000X0.275000X-0.200000X-0.275000X0.200000X-0.275000X0*%
%TD*%
%TA.AperFunction,SMDPad,CuDef*%
%ADD18RoundRect,0.200000X-0.200000X-0.275000X0.200000X-0.275000X0.200000X0.275000X-0.200000X0.275000X0*%
%TD*%
%TA.AperFunction,ComponentPad*%
%ADD19RoundRect,0.250000X-0.750000X0.600000X-0.750000X-0.600000X0.750000X-0.600000X0.750000X0.600000X0*%
%TD*%
%TA.AperFunction,ComponentPad*%
%ADD20O,2.000000X1.700000*%
%TD*%
%TA.AperFunction,ComponentPad*%
%ADD21RoundRect,0.250000X-0.725000X0.600000X-0.725000X-0.600000X0.725000X-0.600000X0.725000X0.600000X0*%
%TD*%
%TA.AperFunction,ComponentPad*%
%ADD22O,1.950000X1.700000*%
%TD*%
%TA.AperFunction,ComponentPad*%
%ADD23C,1.700000*%
%TD*%
%TA.AperFunction,ViaPad*%
%ADD24C,0.800000*%
%TD*%
%TA.AperFunction,Conductor*%
%ADD25C,0.500000*%
%TD*%
%TA.AperFunction,Conductor*%
%ADD26C,0.300000*%
%TD*%
%TA.AperFunction,Conductor*%
%ADD27C,0.250000*%
%TD*%
G04 APERTURE END LIST*
D10*
%TO.P,J8,1,Pin_1*%
%TO.N,CLK*%
X100445000Y-106645000D03*
D11*
%TO.P,J8,2,Pin_2*%
%TO.N,MISO*%
X100445000Y-109185000D03*
%TO.P,J8,3,Pin_3*%
%TO.N,+5V*%
X100445000Y-111725000D03*
%TO.P,J8,4,Pin_4*%
%TO.N,GND*%
X100445000Y-114265000D03*
%TO.P,J8,5,Pin_5*%
%TO.N,MOSI*%
X100445000Y-116805000D03*
%TO.P,J8,6,Pin_6*%
%TO.N,CS*%
X100445000Y-119345000D03*
%TD*%
D10*
%TO.P,J6,1,Pin_1*%
%TO.N,unconnected-(J6-Pin_1-Pad1)*%
X83455000Y-64560000D03*
D11*
%TO.P,J6,2,Pin_2*%
%TO.N,/EN*%
X83455000Y-67100000D03*
%TO.P,J6,3,Pin_3*%
%TO.N,unconnected-(J6-Pin_3-Pad3)*%
X83455000Y-69640000D03*
%TO.P,J6,4,Pin_4*%
%TO.N,unconnected-(J6-Pin_4-Pad4)*%
X83455000Y-72180000D03*
%TO.P,J6,5,Pin_5*%
%TO.N,TX*%
X83455000Y-74720000D03*
%TO.P,J6,6,Pin_6*%
%TO.N,RX*%
X83455000Y-77260000D03*
%TO.P,J6,7,Pin_7*%
%TO.N,GND*%
X83455000Y-79800000D03*
%TO.P,J6,8,Pin_8*%
%TO.N,+3.3V*%
X83455000Y-82340000D03*
%TO.P,J6,9,Pin_9*%
%TO.N,PPS*%
X83455000Y-84880000D03*
%TD*%
D10*
%TO.P,J2,1,Pin_1*%
%TO.N,GND*%
X107160000Y-94230000D03*
D11*
%TO.P,J2,2,Pin_2*%
%TO.N,DHTOUT*%
X109700000Y-94230000D03*
%TO.P,J2,3,Pin_3*%
%TO.N,+3.3V*%
X112240000Y-94230000D03*
%TD*%
D10*
%TO.P,J4,1,Pin_1*%
%TO.N,+3.3V*%
X121475000Y-64375000D03*
D11*
%TO.P,J4,2,Pin_2*%
%TO.N,GND*%
X121475000Y-66915000D03*
%TO.P,J4,3,Pin_3*%
%TO.N,SCL*%
X121475000Y-69455000D03*
%TO.P,J4,4,Pin_4*%
%TO.N,SDA*%
X121475000Y-71995000D03*
%TO.P,J4,5,Pin_5*%
%TO.N,unconnected-(J4-Pin_5-Pad5)*%
X121475000Y-74535000D03*
%TO.P,J4,6,Pin_6*%
%TO.N,unconnected-(J4-Pin_6-Pad6)*%
X121475000Y-77075000D03*
%TO.P,J4,7,Pin_7*%
%TO.N,ADO*%
X121475000Y-79615000D03*
%TO.P,J4,8,Pin_8*%
%TO.N,INT*%
X121475000Y-82155000D03*
%TD*%
D10*
%TO.P,J5,1,Pin_1*%
%TO.N,+3.3V*%
X132645000Y-89750000D03*
D11*
%TO.P,J5,2,Pin_2*%
%TO.N,GND*%
X130105000Y-89750000D03*
%TO.P,J5,3,Pin_3*%
%TO.N,SCL*%
X127565000Y-89750000D03*
%TO.P,J5,4,Pin_4*%
%TO.N,SDA*%
X125025000Y-89750000D03*
%TD*%
D12*
%TO.P,R2,1*%
%TO.N,/EN*%
X87300000Y-67100000D03*
%TO.P,R2,2*%
%TO.N,+3.3V*%
X87300000Y-68750000D03*
%TD*%
D10*
%TO.P,J1,1,Pin_1*%
%TO.N,+5V*%
X81900000Y-104320000D03*
D11*
%TO.P,J1,2,Pin_2*%
%TO.N,CH0*%
X81900000Y-106860000D03*
%TD*%
D13*
%TO.P,D1,1,K*%
%TO.N,GND*%
X144018000Y-125143500D03*
%TO.P,D1,2,A*%
%TO.N,Net-(D1-A)*%
X144018000Y-123268500D03*
%TD*%
D14*
%TO.P,C1,1*%
%TO.N,+5V*%
X97100000Y-104070000D03*
%TO.P,C1,2*%
%TO.N,GND*%
X97100000Y-102170000D03*
%TD*%
D15*
%TO.P,U1,1,CH0*%
%TO.N,CH0*%
X86940000Y-104070000D03*
D16*
%TO.P,U1,2,CH1*%
%TO.N,CH1*%
X86940000Y-106610000D03*
%TO.P,U1,3,CH2*%
%TO.N,CH2*%
X86940000Y-109150000D03*
%TO.P,U1,4,CH3*%
%TO.N,CH3*%
X86940000Y-111690000D03*
%TO.P,U1,5,CH4*%
%TO.N,CH4*%
X86940000Y-114230000D03*
%TO.P,U1,6,CH5*%
%TO.N,CH5*%
X86940000Y-116770000D03*
%TO.P,U1,7,CH6*%
%TO.N,unconnected-(U1-CH6-Pad7)*%
X86940000Y-119310000D03*
%TO.P,U1,8,CH7*%
%TO.N,unconnected-(U1-CH7-Pad8)*%
X86940000Y-121850000D03*
%TO.P,U1,9,DGND*%
%TO.N,GND*%
X94560000Y-121850000D03*
%TO.P,U1,10,~{CS}/SHDN*%
%TO.N,CS*%
X94560000Y-119310000D03*
%TO.P,U1,11,Din*%
%TO.N,MOSI*%
X94560000Y-116770000D03*
%TO.P,U1,12,Dout*%
%TO.N,MISO*%
X94560000Y-114230000D03*
%TO.P,U1,13,CLK*%
%TO.N,CLK*%
X94560000Y-111690000D03*
%TO.P,U1,14,AGND*%
%TO.N,GND*%
X94560000Y-109150000D03*
%TO.P,U1,15,Vref*%
%TO.N,+5V*%
X94560000Y-106610000D03*
%TO.P,U1,16,Vdd*%
X94560000Y-104070000D03*
%TD*%
D17*
%TO.P,R1,1*%
%TO.N,CH0*%
X81900000Y-109900000D03*
%TO.P,R1,2*%
%TO.N,GND*%
X80250000Y-109900000D03*
%TD*%
D10*
%TO.P,J10,1,Pin_1*%
%TO.N,TXI_CLK*%
X115665000Y-106645000D03*
D11*
%TO.P,J10,2,Pin_2*%
%TO.N,RXO_MISO*%
X115665000Y-109185000D03*
%TO.P,J10,3,Pin_3*%
%TO.N,+3.3V*%
X115665000Y-111725000D03*
%TO.P,J10,4,Pin_4*%
%TO.N,GND*%
X115665000Y-114265000D03*
%TO.P,J10,5,Pin_5*%
%TO.N,RXO1_MOSI*%
X115665000Y-116805000D03*
%TO.P,J10,6,Pin_6*%
%TO.N,TXI1_CS*%
X115665000Y-119345000D03*
%TD*%
D10*
%TO.P,J7,1,Pin_1*%
%TO.N,+5V*%
X86160000Y-92095000D03*
D11*
%TO.P,J7,2,Pin_2*%
%TO.N,GND*%
X86160000Y-94635000D03*
%TO.P,J7,3,Pin_3*%
%TO.N,CH3*%
X86160000Y-97175000D03*
%TD*%
D18*
%TO.P,R3,1*%
%TO.N,+3.3V*%
X139320000Y-123190000D03*
%TO.P,R3,2*%
%TO.N,Net-(D1-A)*%
X140970000Y-123190000D03*
%TD*%
D10*
%TO.P,J3,1,Pin_1*%
%TO.N,+3.3V*%
X123600000Y-101960000D03*
D11*
%TO.P,J3,2,Pin_2*%
%TO.N,GND*%
X126140000Y-101960000D03*
%TO.P,J3,3,Pin_3*%
%TO.N,SCL*%
X128680000Y-101960000D03*
%TO.P,J3,4,Pin_4*%
%TO.N,SDA*%
X131220000Y-101960000D03*
%TO.P,J3,5,Pin_5*%
%TO.N,unconnected-(J3-Pin_5-Pad5)*%
X133760000Y-101960000D03*
%TD*%
D19*
%TO.P,J12,1,Pin_1*%
%TO.N,GND*%
X143450000Y-115960000D03*
D20*
%TO.P,J12,2,Pin_2*%
%TO.N,+5V*%
X143450000Y-118460000D03*
%TD*%
D21*
%TO.P,J11,1,Pin_1*%
%TO.N,CH4*%
X75900000Y-73150000D03*
D22*
%TO.P,J11,2,Pin_2*%
%TO.N,CH2*%
X75900000Y-75650000D03*
%TO.P,J11,3,Pin_3*%
%TO.N,CH1*%
X75900000Y-78150000D03*
%TD*%
D10*
%TO.P,J9,1,Pin_1*%
%TO.N,+3.3V*%
X139250000Y-128320000D03*
D11*
%TO.P,J9,2,Pin_2*%
%TO.N,+5V*%
X139250000Y-130860000D03*
%TO.P,J9,3,Pin_3*%
%TO.N,SDA*%
X136710000Y-128320000D03*
%TO.P,J9,4,Pin_4*%
%TO.N,unconnected-(J9-Pin_4-Pad4)*%
X136710000Y-130860000D03*
%TO.P,J9,5,Pin_5*%
%TO.N,SCL*%
X134170000Y-128320000D03*
D23*
%TO.P,J9,6,Pin_6*%
%TO.N,GND*%
X134170000Y-130860000D03*
D11*
%TO.P,J9,7,Pin_7*%
%TO.N,unconnected-(J9-Pin_7-Pad7)*%
X131630000Y-128320000D03*
%TO.P,J9,8,Pin_8*%
%TO.N,TX*%
X131630000Y-130860000D03*
%TO.P,J9,9,Pin_9*%
%TO.N,GND*%
X129090000Y-128320000D03*
%TO.P,J9,10,Pin_10*%
%TO.N,RX*%
X129090000Y-130860000D03*
%TO.P,J9,11,Pin_11*%
%TO.N,INT*%
X126550000Y-128320000D03*
%TO.P,J9,12,Pin_12*%
%TO.N,unconnected-(J9-Pin_12-Pad12)*%
X126550000Y-130860000D03*
%TO.P,J9,13,Pin_13*%
%TO.N,ADO*%
X124010000Y-128320000D03*
%TO.P,J9,14,Pin_14*%
%TO.N,unconnected-(J9-Pin_14-Pad14)*%
X124010000Y-130860000D03*
%TO.P,J9,15,Pin_15*%
%TO.N,DHTOUT*%
X121470000Y-128320000D03*
%TO.P,J9,16,Pin_16*%
%TO.N,PPS*%
X121470000Y-130860000D03*
%TO.P,J9,17,Pin_17*%
%TO.N,unconnected-(J9-Pin_17-Pad17)*%
X118930000Y-128320000D03*
%TO.P,J9,18,Pin_18*%
%TO.N,unconnected-(J9-Pin_18-Pad18)*%
X118930000Y-130860000D03*
%TO.P,J9,19,Pin_19*%
%TO.N,RXO1_MOSI*%
X116390000Y-128320000D03*
%TO.P,J9,20,Pin_20*%
%TO.N,unconnected-(J9-Pin_20-Pad20)*%
X116390000Y-130860000D03*
%TO.P,J9,21,Pin_21*%
%TO.N,RXO_MISO*%
X113850000Y-128320000D03*
%TO.P,J9,22,Pin_22*%
%TO.N,unconnected-(J9-Pin_22-Pad22)*%
X113850000Y-130860000D03*
%TO.P,J9,23,Pin_23*%
%TO.N,TXI_CLK*%
X111310000Y-128320000D03*
%TO.P,J9,24,Pin_24*%
%TO.N,unconnected-(J9-Pin_24-Pad24)*%
X111310000Y-130860000D03*
%TO.P,J9,25,Pin_25*%
%TO.N,unconnected-(J9-Pin_25-Pad25)*%
X108770000Y-128320000D03*
%TO.P,J9,26,Pin_26*%
%TO.N,unconnected-(J9-Pin_26-Pad26)*%
X108770000Y-130860000D03*
%TO.P,J9,27,Pin_27*%
%TO.N,unconnected-(J9-Pin_27-Pad27)*%
X106230000Y-128320000D03*
%TO.P,J9,28,Pin_28*%
%TO.N,unconnected-(J9-Pin_28-Pad28)*%
X106230000Y-130860000D03*
%TO.P,J9,29,Pin_29*%
%TO.N,OE*%
X103690000Y-128320000D03*
%TO.P,J9,30,Pin_30*%
%TO.N,unconnected-(J9-Pin_30-Pad30)*%
X103690000Y-130860000D03*
%TO.P,J9,31,Pin_31*%
%TO.N,unconnected-(J9-Pin_31-Pad31)*%
X101150000Y-128320000D03*
%TO.P,J9,32,Pin_32*%
%TO.N,unconnected-(J9-Pin_32-Pad32)*%
X101150000Y-130860000D03*
%TO.P,J9,33,Pin_33*%
%TO.N,unconnected-(J9-Pin_33-Pad33)*%
X98610000Y-128320000D03*
%TO.P,J9,34,Pin_34*%
%TO.N,unconnected-(J9-Pin_34-Pad34)*%
X98610000Y-130860000D03*
%TO.P,J9,35,Pin_35*%
%TO.N,unconnected-(J9-Pin_35-Pad35)*%
X96070000Y-128320000D03*
%TO.P,J9,36,Pin_36*%
%TO.N,unconnected-(J9-Pin_36-Pad36)*%
X96070000Y-130860000D03*
%TO.P,J9,37,Pin_37*%
%TO.N,TXI1_CS*%
X93530000Y-128320000D03*
%TO.P,J9,38,Pin_38*%
%TO.N,unconnected-(J9-Pin_38-Pad38)*%
X93530000Y-130860000D03*
%TO.P,J9,39,Pin_39*%
%TO.N,GND*%
X90990000Y-128320000D03*
%TO.P,J9,40,Pin_40*%
%TO.N,unconnected-(J9-Pin_40-Pad40)*%
X90990000Y-130860000D03*
%TD*%
D24*
%TO.N,+5V*%
X74890000Y-105350000D03*
%TO.N,GND*%
X80170000Y-111420000D03*
X98980000Y-102180000D03*
X144018000Y-126746000D03*
%TO.N,+3.3V*%
X122350000Y-98560000D03*
X117950000Y-111730000D03*
X117620000Y-98560000D03*
X131270000Y-111530000D03*
X123952000Y-111760000D03*
%TO.N,SDA*%
X130420000Y-95490000D03*
X127640000Y-95550000D03*
%TO.N,TXI1_CS*%
X111260000Y-123420000D03*
X104430000Y-123380000D03*
%TD*%
D25*
%TO.N,+5V*%
X135542000Y-137000000D02*
X139250000Y-133292000D01*
X74890000Y-115290000D02*
X76980000Y-117380000D01*
D26*
X104500000Y-110120000D02*
X102895000Y-111725000D01*
X94560000Y-104070000D02*
X97100000Y-104070000D01*
D25*
X86160000Y-92095000D02*
X83945000Y-92095000D01*
X81660000Y-137000000D02*
X135542000Y-137000000D01*
X89975000Y-92095000D02*
X94560000Y-96680000D01*
X86160000Y-92095000D02*
X89975000Y-92095000D01*
X94560000Y-96680000D02*
X94560000Y-104070000D01*
D26*
X97100000Y-104070000D02*
X103450000Y-104070000D01*
X94560000Y-104070000D02*
X94560000Y-106610000D01*
D25*
X76980000Y-117380000D02*
X76980000Y-132320000D01*
X74890000Y-105350000D02*
X74890000Y-114430000D01*
X76980000Y-132320000D02*
X81660000Y-137000000D01*
D26*
X103450000Y-104070000D02*
X104500000Y-105120000D01*
D25*
X139250000Y-133292000D02*
X139250000Y-130860000D01*
X83945000Y-92095000D02*
X81900000Y-94140000D01*
D26*
X102895000Y-111725000D02*
X100445000Y-111725000D01*
X104500000Y-105120000D02*
X104500000Y-110120000D01*
D25*
X74890000Y-114430000D02*
X74890000Y-115290000D01*
X81900000Y-94140000D02*
X81900000Y-104320000D01*
D26*
%TO.N,GND*%
X98970000Y-102170000D02*
X98980000Y-102180000D01*
D27*
X144018000Y-125143500D02*
X144018000Y-126746000D01*
D26*
X80250000Y-109900000D02*
X80250000Y-111340000D01*
X97100000Y-102170000D02*
X98970000Y-102170000D01*
X80250000Y-111340000D02*
X80170000Y-111420000D01*
D27*
%TO.N,Net-(D1-A)*%
X140970000Y-123190000D02*
X143939500Y-123190000D01*
X143939500Y-123190000D02*
X144018000Y-123268500D01*
D26*
%TO.N,CH0*%
X81900000Y-106860000D02*
X81900000Y-109900000D01*
X85040000Y-106110000D02*
X84290000Y-106860000D01*
X86940000Y-104070000D02*
X86080000Y-104070000D01*
X84290000Y-106860000D02*
X81900000Y-106860000D01*
X85040000Y-105110000D02*
X85040000Y-106110000D01*
X86080000Y-104070000D02*
X85040000Y-105110000D01*
%TO.N,DHTOUT*%
X119690000Y-116134000D02*
X121470000Y-117914000D01*
X121470000Y-117914000D02*
X121470000Y-128320000D01*
X111220000Y-97680000D02*
X114570000Y-97680000D01*
X119690000Y-102800000D02*
X119690000Y-116134000D01*
X109700000Y-96160000D02*
X111220000Y-97680000D01*
X114570000Y-97680000D02*
X119690000Y-102800000D01*
X109700000Y-94230000D02*
X109700000Y-96160000D01*
D25*
%TO.N,+3.3V*%
X112240000Y-94230000D02*
X116570000Y-98560000D01*
X123600000Y-101960000D02*
X123600000Y-111408000D01*
D26*
X109820000Y-88890000D02*
X112240000Y-91310000D01*
D25*
X117945000Y-111725000D02*
X117950000Y-111730000D01*
X123600000Y-111408000D02*
X123952000Y-111760000D01*
X136990000Y-111252000D02*
X136990000Y-118956000D01*
X122670000Y-98560000D02*
X123600000Y-99490000D01*
X128355000Y-64375000D02*
X132645000Y-68665000D01*
X139320000Y-123190000D02*
X139250000Y-123260000D01*
X116570000Y-98560000D02*
X117620000Y-98560000D01*
X136990000Y-111252000D02*
X131548000Y-111252000D01*
X123600000Y-99490000D02*
X123600000Y-101960000D01*
X121475000Y-64375000D02*
X128355000Y-64375000D01*
X122350000Y-98560000D02*
X122670000Y-98560000D01*
X132645000Y-92605000D02*
X136990000Y-96950000D01*
D26*
X112240000Y-91310000D02*
X112240000Y-94230000D01*
D25*
X131548000Y-111252000D02*
X131270000Y-111530000D01*
X139250000Y-123260000D02*
X139250000Y-128320000D01*
D26*
X93440000Y-88890000D02*
X109820000Y-88890000D01*
X86890000Y-82340000D02*
X93440000Y-88890000D01*
D25*
X136990000Y-96950000D02*
X136990000Y-111252000D01*
X132645000Y-89750000D02*
X132645000Y-92605000D01*
D26*
X87300000Y-68750000D02*
X87300000Y-80500000D01*
X85460000Y-82340000D02*
X83455000Y-82340000D01*
D25*
X139320000Y-121286000D02*
X139320000Y-123190000D01*
X136990000Y-118956000D02*
X139320000Y-121286000D01*
D26*
X87300000Y-80500000D02*
X85460000Y-82340000D01*
D25*
X132645000Y-68665000D02*
X132645000Y-89750000D01*
X115665000Y-111725000D02*
X117945000Y-111725000D01*
D26*
X85460000Y-82340000D02*
X86890000Y-82340000D01*
%TO.N,SCL*%
X128680000Y-94200000D02*
X128680000Y-101960000D01*
X123975000Y-69455000D02*
X127565000Y-73045000D01*
X127565000Y-93065000D02*
X128690000Y-94190000D01*
X127000000Y-105664000D02*
X127000000Y-116840000D01*
X121475000Y-69455000D02*
X123975000Y-69455000D01*
X128690000Y-94190000D02*
X128680000Y-94200000D01*
X127565000Y-89750000D02*
X127565000Y-93065000D01*
X134170000Y-124010000D02*
X134170000Y-128320000D01*
X128680000Y-103984000D02*
X127000000Y-105664000D01*
X127565000Y-73045000D02*
X127565000Y-89750000D01*
X128680000Y-101960000D02*
X128680000Y-103984000D01*
X127000000Y-116840000D02*
X134170000Y-124010000D01*
%TO.N,SDA*%
X130740000Y-95500000D02*
X130500000Y-95500000D01*
X131220000Y-95980000D02*
X131220000Y-101960000D01*
X125025000Y-93025000D02*
X126150000Y-94150000D01*
X129286000Y-116078000D02*
X136710000Y-123502000D01*
X121475000Y-71995000D02*
X123805000Y-71995000D01*
X130480000Y-95500000D02*
X130490000Y-95500000D01*
X127640000Y-95550000D02*
X127640000Y-95490000D01*
X129286000Y-106426000D02*
X129286000Y-116078000D01*
X131220000Y-104492000D02*
X129286000Y-106426000D01*
X126170000Y-94150000D02*
X127510000Y-95490000D01*
X127510000Y-95490000D02*
X127640000Y-95550000D01*
X123805000Y-71995000D02*
X125025000Y-73215000D01*
X126150000Y-94150000D02*
X126170000Y-94150000D01*
X125025000Y-89750000D02*
X125025000Y-93025000D01*
X130420000Y-95490000D02*
X130480000Y-95500000D01*
X130500000Y-95500000D02*
X130420000Y-95490000D01*
X136710000Y-123502000D02*
X136710000Y-128320000D01*
X131220000Y-101960000D02*
X131220000Y-104492000D01*
X131220000Y-95980000D02*
X130740000Y-95500000D01*
X125025000Y-73215000D02*
X125025000Y-89750000D01*
D27*
%TO.N,ADO*%
X120650000Y-100330000D02*
X120650000Y-115316000D01*
X119126000Y-98806000D02*
X120650000Y-100330000D01*
X120650000Y-115316000D02*
X124010000Y-118676000D01*
X121475000Y-79615000D02*
X120029000Y-79615000D01*
X120029000Y-79615000D02*
X119126000Y-80518000D01*
X124010000Y-118676000D02*
X124010000Y-128320000D01*
X119126000Y-80518000D02*
X119126000Y-98806000D01*
D26*
%TO.N,INT*%
X121475000Y-82155000D02*
X121475000Y-114617000D01*
X126550000Y-119692000D02*
X126550000Y-128320000D01*
X121475000Y-114617000D02*
X126550000Y-119692000D01*
%TO.N,/EN*%
X83455000Y-67100000D02*
X87300000Y-67100000D01*
%TO.N,TX*%
X78230000Y-92990000D02*
X78210000Y-93010000D01*
X76510000Y-113660000D02*
X79140000Y-116290000D01*
X131630000Y-133292000D02*
X131630000Y-130860000D01*
X81630000Y-74720000D02*
X78230000Y-78120000D01*
X82090000Y-135440000D02*
X129482000Y-135440000D01*
X79180000Y-132530000D02*
X82090000Y-135440000D01*
X78210000Y-94070000D02*
X76510000Y-95770000D01*
X129482000Y-135440000D02*
X131630000Y-133292000D01*
X79140000Y-132530000D02*
X79180000Y-132530000D01*
X78210000Y-93010000D02*
X78210000Y-94070000D01*
X83455000Y-74720000D02*
X81630000Y-74720000D01*
X76510000Y-95770000D02*
X76510000Y-113660000D01*
X78230000Y-78120000D02*
X78230000Y-92990000D01*
X79140000Y-116290000D02*
X79140000Y-132530000D01*
%TO.N,RX*%
X77490000Y-113520000D02*
X80100000Y-116130000D01*
X82240000Y-134280000D02*
X127340000Y-134280000D01*
X129090000Y-132530000D02*
X129090000Y-130860000D01*
X83455000Y-77260000D02*
X80420000Y-77260000D01*
X80420000Y-77260000D02*
X79230000Y-78450000D01*
X80100000Y-132140000D02*
X82240000Y-134280000D01*
X79230000Y-78450000D02*
X79230000Y-94500000D01*
X77490000Y-96240000D02*
X77490000Y-113520000D01*
X80100000Y-116130000D02*
X80100000Y-132140000D01*
X79230000Y-94500000D02*
X77490000Y-96240000D01*
X127340000Y-134280000D02*
X129090000Y-132530000D01*
%TO.N,PPS*%
X82810000Y-133210000D02*
X83090000Y-133490000D01*
X80400000Y-88730000D02*
X80400000Y-94860000D01*
X78450000Y-96810000D02*
X78450000Y-113140000D01*
X81380000Y-116070000D02*
X81380000Y-131830000D01*
X78450000Y-113140000D02*
X81380000Y-116070000D01*
X80400000Y-94860000D02*
X78450000Y-96810000D01*
X83090000Y-133490000D02*
X120256000Y-133490000D01*
X120256000Y-133490000D02*
X121470000Y-132276000D01*
X81020000Y-88110000D02*
X80400000Y-88730000D01*
X121470000Y-132276000D02*
X121470000Y-130860000D01*
X81550000Y-88110000D02*
X81020000Y-88110000D01*
X82760000Y-133210000D02*
X82810000Y-133210000D01*
X83455000Y-86205000D02*
X81550000Y-88110000D01*
X83455000Y-84880000D02*
X83455000Y-86205000D01*
X81380000Y-131830000D02*
X82760000Y-133210000D01*
%TO.N,CH3*%
X86160000Y-97175000D02*
X88405000Y-97175000D01*
X88430000Y-111690000D02*
X86940000Y-111690000D01*
X88405000Y-97175000D02*
X89530000Y-98300000D01*
X89530000Y-98300000D02*
X89530000Y-110590000D01*
X89530000Y-110590000D02*
X88430000Y-111690000D01*
%TO.N,CLK*%
X95750000Y-111690000D02*
X96270000Y-111170000D01*
X94560000Y-111690000D02*
X95750000Y-111690000D01*
X96270000Y-111170000D02*
X96270000Y-107970000D01*
X97595000Y-106645000D02*
X100445000Y-106645000D01*
X96270000Y-107970000D02*
X97595000Y-106645000D01*
%TO.N,MISO*%
X98025000Y-109185000D02*
X100445000Y-109185000D01*
X94560000Y-114230000D02*
X95970000Y-114230000D01*
X97080000Y-110080000D02*
X98000000Y-109160000D01*
X97080000Y-113120000D02*
X97080000Y-110080000D01*
X95970000Y-114230000D02*
X97080000Y-113120000D01*
X98000000Y-109160000D02*
X98025000Y-109185000D01*
%TO.N,MOSI*%
X94560000Y-116770000D02*
X100410000Y-116770000D01*
X100410000Y-116770000D02*
X100445000Y-116805000D01*
%TO.N,CS*%
X94560000Y-119310000D02*
X100410000Y-119310000D01*
X100410000Y-119310000D02*
X100445000Y-119345000D01*
%TO.N,RXO1_MOSI*%
X115665000Y-116805000D02*
X117313000Y-116805000D01*
X118364000Y-117856000D02*
X118364000Y-122682000D01*
X116390000Y-124656000D02*
X116390000Y-128320000D01*
X118364000Y-122682000D02*
X116390000Y-124656000D01*
X117313000Y-116805000D02*
X118364000Y-117856000D01*
D27*
%TO.N,RXO_MISO*%
X109728000Y-111760000D02*
X109728000Y-123952000D01*
X112303000Y-109185000D02*
X109728000Y-111760000D01*
X113850000Y-125788000D02*
X113850000Y-128320000D01*
X115665000Y-109185000D02*
X112303000Y-109185000D01*
X110490000Y-124714000D02*
X112776000Y-124714000D01*
X109728000Y-123952000D02*
X110490000Y-124714000D01*
X112776000Y-124714000D02*
X113850000Y-125788000D01*
D26*
%TO.N,TXI_CLK*%
X110744000Y-125730000D02*
X111310000Y-126296000D01*
X111310000Y-126296000D02*
X111310000Y-128320000D01*
X109474000Y-125730000D02*
X110744000Y-125730000D01*
X115665000Y-106645000D02*
X111287000Y-106645000D01*
X108204000Y-124460000D02*
X109474000Y-125730000D01*
X111287000Y-106645000D02*
X108204000Y-109728000D01*
X108204000Y-109728000D02*
X108204000Y-124460000D01*
%TO.N,TXI1_CS*%
X115665000Y-121135000D02*
X114300000Y-122500000D01*
X93530000Y-126300000D02*
X93530000Y-128320000D01*
X99430000Y-125240000D02*
X94590000Y-125240000D01*
X94590000Y-125240000D02*
X93530000Y-126300000D01*
X115665000Y-119345000D02*
X115665000Y-121135000D01*
X101290000Y-123380000D02*
X99430000Y-125240000D01*
X114300000Y-122500000D02*
X113380000Y-123420000D01*
X104430000Y-123380000D02*
X101290000Y-123380000D01*
X113380000Y-123420000D02*
X111260000Y-123420000D01*
%TD*%
M02*
