%TF.GenerationSoftware,KiCad,Pcbnew,7.0.8-7.0.8~ubuntu22.04.1*%
%TF.CreationDate,2023-10-06T08:27:01+03:00*%
%TF.ProjectId,Omarichet Sensor Board v1.5,4f6d6172-6963-4686-9574-2053656e736f,rev?*%
%TF.SameCoordinates,Original*%
%TF.FileFunction,Legend,Top*%
%TF.FilePolarity,Positive*%
%FSLAX46Y46*%
G04 Gerber Fmt 4.6, Leading zero omitted, Abs format (unit mm)*
G04 Created by KiCad (PCBNEW 7.0.8-7.0.8~ubuntu22.04.1) date 2023-10-06 08:27:01*
%MOMM*%
%LPD*%
G01*
G04 APERTURE LIST*
%ADD10C,0.150000*%
%ADD11C,0.125000*%
%ADD12C,0.500000*%
%ADD13C,0.450000*%
%ADD14C,0.120000*%
G04 APERTURE END LIST*
D10*
X120185000Y-87230000D02*
X135695000Y-87230000D01*
X135695000Y-98740000D01*
X120185000Y-98740000D01*
X120185000Y-87230000D01*
X70620000Y-89675000D02*
X89620000Y-89675000D01*
X89620000Y-99685000D01*
X70620000Y-99685000D01*
X70620000Y-89675000D01*
X120904000Y-99568000D02*
X136652000Y-99568000D01*
X136652000Y-122428000D01*
X120904000Y-122428000D01*
X120904000Y-99568000D01*
X117965000Y-62160000D02*
X134815000Y-62160000D01*
X134815000Y-84130000D01*
X117965000Y-84130000D01*
X117965000Y-62160000D01*
X80150000Y-62090000D02*
X115150000Y-62090000D01*
X115150000Y-87630000D01*
X80150000Y-87630000D01*
X80150000Y-62090000D01*
X138846112Y-133206295D02*
X138465160Y-133206295D01*
X138465160Y-133206295D02*
X138427064Y-133587247D01*
X138427064Y-133587247D02*
X138465160Y-133549152D01*
X138465160Y-133549152D02*
X138541350Y-133511057D01*
X138541350Y-133511057D02*
X138731826Y-133511057D01*
X138731826Y-133511057D02*
X138808017Y-133549152D01*
X138808017Y-133549152D02*
X138846112Y-133587247D01*
X138846112Y-133587247D02*
X138884207Y-133663438D01*
X138884207Y-133663438D02*
X138884207Y-133853914D01*
X138884207Y-133853914D02*
X138846112Y-133930104D01*
X138846112Y-133930104D02*
X138808017Y-133968200D01*
X138808017Y-133968200D02*
X138731826Y-134006295D01*
X138731826Y-134006295D02*
X138541350Y-134006295D01*
X138541350Y-134006295D02*
X138465160Y-133968200D01*
X138465160Y-133968200D02*
X138427064Y-133930104D01*
X139112779Y-133206295D02*
X139379446Y-134006295D01*
X139379446Y-134006295D02*
X139646112Y-133206295D01*
D11*
X86255595Y-77593002D02*
X85874642Y-77759668D01*
X86255595Y-77878716D02*
X85455595Y-77878716D01*
X85455595Y-77878716D02*
X85455595Y-77688240D01*
X85455595Y-77688240D02*
X85493690Y-77640621D01*
X85493690Y-77640621D02*
X85531785Y-77616811D01*
X85531785Y-77616811D02*
X85607976Y-77593002D01*
X85607976Y-77593002D02*
X85722261Y-77593002D01*
X85722261Y-77593002D02*
X85798452Y-77616811D01*
X85798452Y-77616811D02*
X85836547Y-77640621D01*
X85836547Y-77640621D02*
X85874642Y-77688240D01*
X85874642Y-77688240D02*
X85874642Y-77878716D01*
X85455595Y-77426335D02*
X86255595Y-77093002D01*
X85455595Y-77093002D02*
X86255595Y-77426335D01*
X124121283Y-82465595D02*
X124121283Y-81665595D01*
X124359378Y-82465595D02*
X124359378Y-81665595D01*
X124359378Y-81665595D02*
X124645092Y-82465595D01*
X124645092Y-82465595D02*
X124645092Y-81665595D01*
X124811760Y-81665595D02*
X125097474Y-81665595D01*
X124954617Y-82465595D02*
X124954617Y-81665595D01*
X103801759Y-113643690D02*
X103725569Y-113605595D01*
X103725569Y-113605595D02*
X103611283Y-113605595D01*
X103611283Y-113605595D02*
X103496997Y-113643690D01*
X103496997Y-113643690D02*
X103420807Y-113719880D01*
X103420807Y-113719880D02*
X103382712Y-113796071D01*
X103382712Y-113796071D02*
X103344616Y-113948452D01*
X103344616Y-113948452D02*
X103344616Y-114062738D01*
X103344616Y-114062738D02*
X103382712Y-114215119D01*
X103382712Y-114215119D02*
X103420807Y-114291309D01*
X103420807Y-114291309D02*
X103496997Y-114367500D01*
X103496997Y-114367500D02*
X103611283Y-114405595D01*
X103611283Y-114405595D02*
X103687474Y-114405595D01*
X103687474Y-114405595D02*
X103801759Y-114367500D01*
X103801759Y-114367500D02*
X103839855Y-114329404D01*
X103839855Y-114329404D02*
X103839855Y-114062738D01*
X103839855Y-114062738D02*
X103687474Y-114062738D01*
X104182712Y-114405595D02*
X104182712Y-113605595D01*
X104182712Y-113605595D02*
X104639855Y-114405595D01*
X104639855Y-114405595D02*
X104639855Y-113605595D01*
X105020807Y-114405595D02*
X105020807Y-113605595D01*
X105020807Y-113605595D02*
X105211283Y-113605595D01*
X105211283Y-113605595D02*
X105325569Y-113643690D01*
X105325569Y-113643690D02*
X105401759Y-113719880D01*
X105401759Y-113719880D02*
X105439854Y-113796071D01*
X105439854Y-113796071D02*
X105477950Y-113948452D01*
X105477950Y-113948452D02*
X105477950Y-114062738D01*
X105477950Y-114062738D02*
X105439854Y-114215119D01*
X105439854Y-114215119D02*
X105401759Y-114291309D01*
X105401759Y-114291309D02*
X105325569Y-114367500D01*
X105325569Y-114367500D02*
X105211283Y-114405595D01*
X105211283Y-114405595D02*
X105020807Y-114405595D01*
D10*
X106602969Y-110959819D02*
X106126779Y-110959819D01*
X106126779Y-110959819D02*
X106079160Y-111436009D01*
X106079160Y-111436009D02*
X106126779Y-111388390D01*
X106126779Y-111388390D02*
X106222017Y-111340771D01*
X106222017Y-111340771D02*
X106460112Y-111340771D01*
X106460112Y-111340771D02*
X106555350Y-111388390D01*
X106555350Y-111388390D02*
X106602969Y-111436009D01*
X106602969Y-111436009D02*
X106650588Y-111531247D01*
X106650588Y-111531247D02*
X106650588Y-111769342D01*
X106650588Y-111769342D02*
X106602969Y-111864580D01*
X106602969Y-111864580D02*
X106555350Y-111912200D01*
X106555350Y-111912200D02*
X106460112Y-111959819D01*
X106460112Y-111959819D02*
X106222017Y-111959819D01*
X106222017Y-111959819D02*
X106126779Y-111912200D01*
X106126779Y-111912200D02*
X106079160Y-111864580D01*
X107079160Y-111578866D02*
X107841065Y-111578866D01*
X108222017Y-110959819D02*
X108841064Y-110959819D01*
X108841064Y-110959819D02*
X108507731Y-111340771D01*
X108507731Y-111340771D02*
X108650588Y-111340771D01*
X108650588Y-111340771D02*
X108745826Y-111388390D01*
X108745826Y-111388390D02*
X108793445Y-111436009D01*
X108793445Y-111436009D02*
X108841064Y-111531247D01*
X108841064Y-111531247D02*
X108841064Y-111769342D01*
X108841064Y-111769342D02*
X108793445Y-111864580D01*
X108793445Y-111864580D02*
X108745826Y-111912200D01*
X108745826Y-111912200D02*
X108650588Y-111959819D01*
X108650588Y-111959819D02*
X108364874Y-111959819D01*
X108364874Y-111959819D02*
X108269636Y-111912200D01*
X108269636Y-111912200D02*
X108222017Y-111864580D01*
X109174398Y-111293152D02*
X109412493Y-111959819D01*
X109412493Y-111959819D02*
X109650588Y-111293152D01*
X109936303Y-110959819D02*
X110555350Y-110959819D01*
X110555350Y-110959819D02*
X110222017Y-111340771D01*
X110222017Y-111340771D02*
X110364874Y-111340771D01*
X110364874Y-111340771D02*
X110460112Y-111388390D01*
X110460112Y-111388390D02*
X110507731Y-111436009D01*
X110507731Y-111436009D02*
X110555350Y-111531247D01*
X110555350Y-111531247D02*
X110555350Y-111769342D01*
X110555350Y-111769342D02*
X110507731Y-111864580D01*
X110507731Y-111864580D02*
X110460112Y-111912200D01*
X110460112Y-111912200D02*
X110364874Y-111959819D01*
X110364874Y-111959819D02*
X110079160Y-111959819D01*
X110079160Y-111959819D02*
X109983922Y-111912200D01*
X109983922Y-111912200D02*
X109936303Y-111864580D01*
D11*
X129977759Y-91843690D02*
X129901569Y-91805595D01*
X129901569Y-91805595D02*
X129787283Y-91805595D01*
X129787283Y-91805595D02*
X129672997Y-91843690D01*
X129672997Y-91843690D02*
X129596807Y-91919880D01*
X129596807Y-91919880D02*
X129558712Y-91996071D01*
X129558712Y-91996071D02*
X129520616Y-92148452D01*
X129520616Y-92148452D02*
X129520616Y-92262738D01*
X129520616Y-92262738D02*
X129558712Y-92415119D01*
X129558712Y-92415119D02*
X129596807Y-92491309D01*
X129596807Y-92491309D02*
X129672997Y-92567500D01*
X129672997Y-92567500D02*
X129787283Y-92605595D01*
X129787283Y-92605595D02*
X129863474Y-92605595D01*
X129863474Y-92605595D02*
X129977759Y-92567500D01*
X129977759Y-92567500D02*
X130015855Y-92529404D01*
X130015855Y-92529404D02*
X130015855Y-92262738D01*
X130015855Y-92262738D02*
X129863474Y-92262738D01*
X130358712Y-92605595D02*
X130358712Y-91805595D01*
X130358712Y-91805595D02*
X130815855Y-92605595D01*
X130815855Y-92605595D02*
X130815855Y-91805595D01*
X131196807Y-92605595D02*
X131196807Y-91805595D01*
X131196807Y-91805595D02*
X131387283Y-91805595D01*
X131387283Y-91805595D02*
X131501569Y-91843690D01*
X131501569Y-91843690D02*
X131577759Y-91919880D01*
X131577759Y-91919880D02*
X131615854Y-91996071D01*
X131615854Y-91996071D02*
X131653950Y-92148452D01*
X131653950Y-92148452D02*
X131653950Y-92262738D01*
X131653950Y-92262738D02*
X131615854Y-92415119D01*
X131615854Y-92415119D02*
X131577759Y-92491309D01*
X131577759Y-92491309D02*
X131501569Y-92567500D01*
X131501569Y-92567500D02*
X131387283Y-92605595D01*
X131387283Y-92605595D02*
X131196807Y-92605595D01*
D12*
X143954571Y-78673232D02*
X143954571Y-79673232D01*
X142383142Y-80101804D02*
X142383142Y-78673232D01*
X142383142Y-78673232D02*
X145383142Y-78673232D01*
X145383142Y-78673232D02*
X145383142Y-80101804D01*
X142383142Y-81387518D02*
X145383142Y-81387518D01*
X145383142Y-81387518D02*
X145383142Y-82101804D01*
X145383142Y-82101804D02*
X145240285Y-82530375D01*
X145240285Y-82530375D02*
X144954571Y-82816090D01*
X144954571Y-82816090D02*
X144668857Y-82958947D01*
X144668857Y-82958947D02*
X144097428Y-83101804D01*
X144097428Y-83101804D02*
X143668857Y-83101804D01*
X143668857Y-83101804D02*
X143097428Y-82958947D01*
X143097428Y-82958947D02*
X142811714Y-82816090D01*
X142811714Y-82816090D02*
X142526000Y-82530375D01*
X142526000Y-82530375D02*
X142383142Y-82101804D01*
X142383142Y-82101804D02*
X142383142Y-81387518D01*
X145383142Y-84387518D02*
X142954571Y-84387518D01*
X142954571Y-84387518D02*
X142668857Y-84530375D01*
X142668857Y-84530375D02*
X142526000Y-84673233D01*
X142526000Y-84673233D02*
X142383142Y-84958947D01*
X142383142Y-84958947D02*
X142383142Y-85530375D01*
X142383142Y-85530375D02*
X142526000Y-85816090D01*
X142526000Y-85816090D02*
X142668857Y-85958947D01*
X142668857Y-85958947D02*
X142954571Y-86101804D01*
X142954571Y-86101804D02*
X145383142Y-86101804D01*
X142526000Y-87387518D02*
X142383142Y-87816090D01*
X142383142Y-87816090D02*
X142383142Y-88530375D01*
X142383142Y-88530375D02*
X142526000Y-88816090D01*
X142526000Y-88816090D02*
X142668857Y-88958947D01*
X142668857Y-88958947D02*
X142954571Y-89101804D01*
X142954571Y-89101804D02*
X143240285Y-89101804D01*
X143240285Y-89101804D02*
X143526000Y-88958947D01*
X143526000Y-88958947D02*
X143668857Y-88816090D01*
X143668857Y-88816090D02*
X143811714Y-88530375D01*
X143811714Y-88530375D02*
X143954571Y-87958947D01*
X143954571Y-87958947D02*
X144097428Y-87673232D01*
X144097428Y-87673232D02*
X144240285Y-87530375D01*
X144240285Y-87530375D02*
X144526000Y-87387518D01*
X144526000Y-87387518D02*
X144811714Y-87387518D01*
X144811714Y-87387518D02*
X145097428Y-87530375D01*
X145097428Y-87530375D02*
X145240285Y-87673232D01*
X145240285Y-87673232D02*
X145383142Y-87958947D01*
X145383142Y-87958947D02*
X145383142Y-88673232D01*
X145383142Y-88673232D02*
X145240285Y-89101804D01*
X143240285Y-90244661D02*
X143240285Y-91673233D01*
X142383142Y-89958947D02*
X145383142Y-90958947D01*
X145383142Y-90958947D02*
X142383142Y-91958947D01*
X145383142Y-92530376D02*
X145383142Y-94244662D01*
X142383142Y-93387519D02*
X145383142Y-93387519D01*
D11*
X106883188Y-96415690D02*
X106835569Y-96377595D01*
X106835569Y-96377595D02*
X106764140Y-96377595D01*
X106764140Y-96377595D02*
X106692712Y-96415690D01*
X106692712Y-96415690D02*
X106645093Y-96491880D01*
X106645093Y-96491880D02*
X106621283Y-96568071D01*
X106621283Y-96568071D02*
X106597474Y-96720452D01*
X106597474Y-96720452D02*
X106597474Y-96834738D01*
X106597474Y-96834738D02*
X106621283Y-96987119D01*
X106621283Y-96987119D02*
X106645093Y-97063309D01*
X106645093Y-97063309D02*
X106692712Y-97139500D01*
X106692712Y-97139500D02*
X106764140Y-97177595D01*
X106764140Y-97177595D02*
X106811759Y-97177595D01*
X106811759Y-97177595D02*
X106883188Y-97139500D01*
X106883188Y-97139500D02*
X106906997Y-97101404D01*
X106906997Y-97101404D02*
X106906997Y-96834738D01*
X106906997Y-96834738D02*
X106811759Y-96834738D01*
X107121283Y-97177595D02*
X107121283Y-96377595D01*
X107121283Y-96377595D02*
X107406997Y-97177595D01*
X107406997Y-97177595D02*
X107406997Y-96377595D01*
X107645093Y-97177595D02*
X107645093Y-96377595D01*
X107645093Y-96377595D02*
X107764141Y-96377595D01*
X107764141Y-96377595D02*
X107835569Y-96415690D01*
X107835569Y-96415690D02*
X107883188Y-96491880D01*
X107883188Y-96491880D02*
X107906998Y-96568071D01*
X107906998Y-96568071D02*
X107930807Y-96720452D01*
X107930807Y-96720452D02*
X107930807Y-96834738D01*
X107930807Y-96834738D02*
X107906998Y-96987119D01*
X107906998Y-96987119D02*
X107883188Y-97063309D01*
X107883188Y-97063309D02*
X107835569Y-97139500D01*
X107835569Y-97139500D02*
X107764141Y-97177595D01*
X107764141Y-97177595D02*
X107645093Y-97177595D01*
X110897664Y-104205595D02*
X111207188Y-104205595D01*
X111207188Y-104205595D02*
X111040521Y-104510357D01*
X111040521Y-104510357D02*
X111111950Y-104510357D01*
X111111950Y-104510357D02*
X111159569Y-104548452D01*
X111159569Y-104548452D02*
X111183378Y-104586547D01*
X111183378Y-104586547D02*
X111207188Y-104662738D01*
X111207188Y-104662738D02*
X111207188Y-104853214D01*
X111207188Y-104853214D02*
X111183378Y-104929404D01*
X111183378Y-104929404D02*
X111159569Y-104967500D01*
X111159569Y-104967500D02*
X111111950Y-105005595D01*
X111111950Y-105005595D02*
X110969093Y-105005595D01*
X110969093Y-105005595D02*
X110921474Y-104967500D01*
X110921474Y-104967500D02*
X110897664Y-104929404D01*
X111421473Y-104929404D02*
X111445283Y-104967500D01*
X111445283Y-104967500D02*
X111421473Y-105005595D01*
X111421473Y-105005595D02*
X111397664Y-104967500D01*
X111397664Y-104967500D02*
X111421473Y-104929404D01*
X111421473Y-104929404D02*
X111421473Y-105005595D01*
X111611949Y-104205595D02*
X111921473Y-104205595D01*
X111921473Y-104205595D02*
X111754806Y-104510357D01*
X111754806Y-104510357D02*
X111826235Y-104510357D01*
X111826235Y-104510357D02*
X111873854Y-104548452D01*
X111873854Y-104548452D02*
X111897663Y-104586547D01*
X111897663Y-104586547D02*
X111921473Y-104662738D01*
X111921473Y-104662738D02*
X111921473Y-104853214D01*
X111921473Y-104853214D02*
X111897663Y-104929404D01*
X111897663Y-104929404D02*
X111873854Y-104967500D01*
X111873854Y-104967500D02*
X111826235Y-105005595D01*
X111826235Y-105005595D02*
X111683378Y-105005595D01*
X111683378Y-105005595D02*
X111635759Y-104967500D01*
X111635759Y-104967500D02*
X111611949Y-104929404D01*
X112064330Y-104205595D02*
X112230996Y-105005595D01*
X112230996Y-105005595D02*
X112397663Y-104205595D01*
X78626997Y-107329404D02*
X78603188Y-107367500D01*
X78603188Y-107367500D02*
X78531759Y-107405595D01*
X78531759Y-107405595D02*
X78484140Y-107405595D01*
X78484140Y-107405595D02*
X78412712Y-107367500D01*
X78412712Y-107367500D02*
X78365093Y-107291309D01*
X78365093Y-107291309D02*
X78341283Y-107215119D01*
X78341283Y-107215119D02*
X78317474Y-107062738D01*
X78317474Y-107062738D02*
X78317474Y-106948452D01*
X78317474Y-106948452D02*
X78341283Y-106796071D01*
X78341283Y-106796071D02*
X78365093Y-106719880D01*
X78365093Y-106719880D02*
X78412712Y-106643690D01*
X78412712Y-106643690D02*
X78484140Y-106605595D01*
X78484140Y-106605595D02*
X78531759Y-106605595D01*
X78531759Y-106605595D02*
X78603188Y-106643690D01*
X78603188Y-106643690D02*
X78626997Y-106681785D01*
X78841283Y-107405595D02*
X78841283Y-106605595D01*
X78841283Y-106986547D02*
X79126997Y-106986547D01*
X79126997Y-107405595D02*
X79126997Y-106605595D01*
X79460331Y-106605595D02*
X79507950Y-106605595D01*
X79507950Y-106605595D02*
X79555569Y-106643690D01*
X79555569Y-106643690D02*
X79579379Y-106681785D01*
X79579379Y-106681785D02*
X79603188Y-106757976D01*
X79603188Y-106757976D02*
X79626998Y-106910357D01*
X79626998Y-106910357D02*
X79626998Y-107100833D01*
X79626998Y-107100833D02*
X79603188Y-107253214D01*
X79603188Y-107253214D02*
X79579379Y-107329404D01*
X79579379Y-107329404D02*
X79555569Y-107367500D01*
X79555569Y-107367500D02*
X79507950Y-107405595D01*
X79507950Y-107405595D02*
X79460331Y-107405595D01*
X79460331Y-107405595D02*
X79412712Y-107367500D01*
X79412712Y-107367500D02*
X79388903Y-107329404D01*
X79388903Y-107329404D02*
X79365093Y-107253214D01*
X79365093Y-107253214D02*
X79341284Y-107100833D01*
X79341284Y-107100833D02*
X79341284Y-106910357D01*
X79341284Y-106910357D02*
X79365093Y-106757976D01*
X79365093Y-106757976D02*
X79388903Y-106681785D01*
X79388903Y-106681785D02*
X79412712Y-106643690D01*
X79412712Y-106643690D02*
X79460331Y-106605595D01*
X78679378Y-103615595D02*
X78441283Y-103615595D01*
X78441283Y-103615595D02*
X78417474Y-103996547D01*
X78417474Y-103996547D02*
X78441283Y-103958452D01*
X78441283Y-103958452D02*
X78488902Y-103920357D01*
X78488902Y-103920357D02*
X78607950Y-103920357D01*
X78607950Y-103920357D02*
X78655569Y-103958452D01*
X78655569Y-103958452D02*
X78679378Y-103996547D01*
X78679378Y-103996547D02*
X78703188Y-104072738D01*
X78703188Y-104072738D02*
X78703188Y-104263214D01*
X78703188Y-104263214D02*
X78679378Y-104339404D01*
X78679378Y-104339404D02*
X78655569Y-104377500D01*
X78655569Y-104377500D02*
X78607950Y-104415595D01*
X78607950Y-104415595D02*
X78488902Y-104415595D01*
X78488902Y-104415595D02*
X78441283Y-104377500D01*
X78441283Y-104377500D02*
X78417474Y-104339404D01*
X78846045Y-103615595D02*
X79012711Y-104415595D01*
X79012711Y-104415595D02*
X79179378Y-103615595D01*
X103763664Y-110905595D02*
X103382712Y-110905595D01*
X103382712Y-110905595D02*
X103344616Y-111286547D01*
X103344616Y-111286547D02*
X103382712Y-111248452D01*
X103382712Y-111248452D02*
X103458902Y-111210357D01*
X103458902Y-111210357D02*
X103649378Y-111210357D01*
X103649378Y-111210357D02*
X103725569Y-111248452D01*
X103725569Y-111248452D02*
X103763664Y-111286547D01*
X103763664Y-111286547D02*
X103801759Y-111362738D01*
X103801759Y-111362738D02*
X103801759Y-111553214D01*
X103801759Y-111553214D02*
X103763664Y-111629404D01*
X103763664Y-111629404D02*
X103725569Y-111667500D01*
X103725569Y-111667500D02*
X103649378Y-111705595D01*
X103649378Y-111705595D02*
X103458902Y-111705595D01*
X103458902Y-111705595D02*
X103382712Y-111667500D01*
X103382712Y-111667500D02*
X103344616Y-111629404D01*
X104030331Y-110905595D02*
X104296998Y-111705595D01*
X104296998Y-111705595D02*
X104563664Y-110905595D01*
X122370521Y-104251595D02*
X122865759Y-104251595D01*
X122865759Y-104251595D02*
X122599093Y-104556357D01*
X122599093Y-104556357D02*
X122713378Y-104556357D01*
X122713378Y-104556357D02*
X122789569Y-104594452D01*
X122789569Y-104594452D02*
X122827664Y-104632547D01*
X122827664Y-104632547D02*
X122865759Y-104708738D01*
X122865759Y-104708738D02*
X122865759Y-104899214D01*
X122865759Y-104899214D02*
X122827664Y-104975404D01*
X122827664Y-104975404D02*
X122789569Y-105013500D01*
X122789569Y-105013500D02*
X122713378Y-105051595D01*
X122713378Y-105051595D02*
X122484807Y-105051595D01*
X122484807Y-105051595D02*
X122408616Y-105013500D01*
X122408616Y-105013500D02*
X122370521Y-104975404D01*
X123208617Y-104975404D02*
X123246712Y-105013500D01*
X123246712Y-105013500D02*
X123208617Y-105051595D01*
X123208617Y-105051595D02*
X123170521Y-105013500D01*
X123170521Y-105013500D02*
X123208617Y-104975404D01*
X123208617Y-104975404D02*
X123208617Y-105051595D01*
X123513378Y-104251595D02*
X124008616Y-104251595D01*
X124008616Y-104251595D02*
X123741950Y-104556357D01*
X123741950Y-104556357D02*
X123856235Y-104556357D01*
X123856235Y-104556357D02*
X123932426Y-104594452D01*
X123932426Y-104594452D02*
X123970521Y-104632547D01*
X123970521Y-104632547D02*
X124008616Y-104708738D01*
X124008616Y-104708738D02*
X124008616Y-104899214D01*
X124008616Y-104899214D02*
X123970521Y-104975404D01*
X123970521Y-104975404D02*
X123932426Y-105013500D01*
X123932426Y-105013500D02*
X123856235Y-105051595D01*
X123856235Y-105051595D02*
X123627664Y-105051595D01*
X123627664Y-105051595D02*
X123551473Y-105013500D01*
X123551473Y-105013500D02*
X123513378Y-104975404D01*
X124237188Y-104251595D02*
X124503855Y-105051595D01*
X124503855Y-105051595D02*
X124770521Y-104251595D01*
X111945378Y-117243595D02*
X111707283Y-117243595D01*
X111707283Y-117243595D02*
X111707283Y-116443595D01*
X112040617Y-116443595D02*
X112207283Y-117243595D01*
X112207283Y-117243595D02*
X112373950Y-116443595D01*
X112516807Y-116519785D02*
X112540616Y-116481690D01*
X112540616Y-116481690D02*
X112588235Y-116443595D01*
X112588235Y-116443595D02*
X112707283Y-116443595D01*
X112707283Y-116443595D02*
X112754902Y-116481690D01*
X112754902Y-116481690D02*
X112778711Y-116519785D01*
X112778711Y-116519785D02*
X112802521Y-116595976D01*
X112802521Y-116595976D02*
X112802521Y-116672166D01*
X112802521Y-116672166D02*
X112778711Y-116786452D01*
X112778711Y-116786452D02*
X112492997Y-117243595D01*
X112492997Y-117243595D02*
X112802521Y-117243595D01*
X111983664Y-96377595D02*
X112293188Y-96377595D01*
X112293188Y-96377595D02*
X112126521Y-96682357D01*
X112126521Y-96682357D02*
X112197950Y-96682357D01*
X112197950Y-96682357D02*
X112245569Y-96720452D01*
X112245569Y-96720452D02*
X112269378Y-96758547D01*
X112269378Y-96758547D02*
X112293188Y-96834738D01*
X112293188Y-96834738D02*
X112293188Y-97025214D01*
X112293188Y-97025214D02*
X112269378Y-97101404D01*
X112269378Y-97101404D02*
X112245569Y-97139500D01*
X112245569Y-97139500D02*
X112197950Y-97177595D01*
X112197950Y-97177595D02*
X112055093Y-97177595D01*
X112055093Y-97177595D02*
X112007474Y-97139500D01*
X112007474Y-97139500D02*
X111983664Y-97101404D01*
X112507473Y-97101404D02*
X112531283Y-97139500D01*
X112531283Y-97139500D02*
X112507473Y-97177595D01*
X112507473Y-97177595D02*
X112483664Y-97139500D01*
X112483664Y-97139500D02*
X112507473Y-97101404D01*
X112507473Y-97101404D02*
X112507473Y-97177595D01*
X112697949Y-96377595D02*
X113007473Y-96377595D01*
X113007473Y-96377595D02*
X112840806Y-96682357D01*
X112840806Y-96682357D02*
X112912235Y-96682357D01*
X112912235Y-96682357D02*
X112959854Y-96720452D01*
X112959854Y-96720452D02*
X112983663Y-96758547D01*
X112983663Y-96758547D02*
X113007473Y-96834738D01*
X113007473Y-96834738D02*
X113007473Y-97025214D01*
X113007473Y-97025214D02*
X112983663Y-97101404D01*
X112983663Y-97101404D02*
X112959854Y-97139500D01*
X112959854Y-97139500D02*
X112912235Y-97177595D01*
X112912235Y-97177595D02*
X112769378Y-97177595D01*
X112769378Y-97177595D02*
X112721759Y-97139500D01*
X112721759Y-97139500D02*
X112697949Y-97101404D01*
X113150330Y-96377595D02*
X113316996Y-97177595D01*
X113316996Y-97177595D02*
X113483663Y-96377595D01*
D10*
X125986779Y-74429819D02*
X125986779Y-73429819D01*
X125986779Y-73429819D02*
X126320112Y-74144104D01*
X126320112Y-74144104D02*
X126653445Y-73429819D01*
X126653445Y-73429819D02*
X126653445Y-74429819D01*
X127129636Y-74429819D02*
X127129636Y-73429819D01*
X127129636Y-73429819D02*
X127510588Y-73429819D01*
X127510588Y-73429819D02*
X127605826Y-73477438D01*
X127605826Y-73477438D02*
X127653445Y-73525057D01*
X127653445Y-73525057D02*
X127701064Y-73620295D01*
X127701064Y-73620295D02*
X127701064Y-73763152D01*
X127701064Y-73763152D02*
X127653445Y-73858390D01*
X127653445Y-73858390D02*
X127605826Y-73906009D01*
X127605826Y-73906009D02*
X127510588Y-73953628D01*
X127510588Y-73953628D02*
X127129636Y-73953628D01*
X128129636Y-73429819D02*
X128129636Y-74239342D01*
X128129636Y-74239342D02*
X128177255Y-74334580D01*
X128177255Y-74334580D02*
X128224874Y-74382200D01*
X128224874Y-74382200D02*
X128320112Y-74429819D01*
X128320112Y-74429819D02*
X128510588Y-74429819D01*
X128510588Y-74429819D02*
X128605826Y-74382200D01*
X128605826Y-74382200D02*
X128653445Y-74334580D01*
X128653445Y-74334580D02*
X128701064Y-74239342D01*
X128701064Y-74239342D02*
X128701064Y-73429819D01*
X129605826Y-73429819D02*
X129415350Y-73429819D01*
X129415350Y-73429819D02*
X129320112Y-73477438D01*
X129320112Y-73477438D02*
X129272493Y-73525057D01*
X129272493Y-73525057D02*
X129177255Y-73667914D01*
X129177255Y-73667914D02*
X129129636Y-73858390D01*
X129129636Y-73858390D02*
X129129636Y-74239342D01*
X129129636Y-74239342D02*
X129177255Y-74334580D01*
X129177255Y-74334580D02*
X129224874Y-74382200D01*
X129224874Y-74382200D02*
X129320112Y-74429819D01*
X129320112Y-74429819D02*
X129510588Y-74429819D01*
X129510588Y-74429819D02*
X129605826Y-74382200D01*
X129605826Y-74382200D02*
X129653445Y-74334580D01*
X129653445Y-74334580D02*
X129701064Y-74239342D01*
X129701064Y-74239342D02*
X129701064Y-74001247D01*
X129701064Y-74001247D02*
X129653445Y-73906009D01*
X129653445Y-73906009D02*
X129605826Y-73858390D01*
X129605826Y-73858390D02*
X129510588Y-73810771D01*
X129510588Y-73810771D02*
X129320112Y-73810771D01*
X129320112Y-73810771D02*
X129224874Y-73858390D01*
X129224874Y-73858390D02*
X129177255Y-73906009D01*
X129177255Y-73906009D02*
X129129636Y-74001247D01*
X130320112Y-73429819D02*
X130415350Y-73429819D01*
X130415350Y-73429819D02*
X130510588Y-73477438D01*
X130510588Y-73477438D02*
X130558207Y-73525057D01*
X130558207Y-73525057D02*
X130605826Y-73620295D01*
X130605826Y-73620295D02*
X130653445Y-73810771D01*
X130653445Y-73810771D02*
X130653445Y-74048866D01*
X130653445Y-74048866D02*
X130605826Y-74239342D01*
X130605826Y-74239342D02*
X130558207Y-74334580D01*
X130558207Y-74334580D02*
X130510588Y-74382200D01*
X130510588Y-74382200D02*
X130415350Y-74429819D01*
X130415350Y-74429819D02*
X130320112Y-74429819D01*
X130320112Y-74429819D02*
X130224874Y-74382200D01*
X130224874Y-74382200D02*
X130177255Y-74334580D01*
X130177255Y-74334580D02*
X130129636Y-74239342D01*
X130129636Y-74239342D02*
X130082017Y-74048866D01*
X130082017Y-74048866D02*
X130082017Y-73810771D01*
X130082017Y-73810771D02*
X130129636Y-73620295D01*
X130129636Y-73620295D02*
X130177255Y-73525057D01*
X130177255Y-73525057D02*
X130224874Y-73477438D01*
X130224874Y-73477438D02*
X130320112Y-73429819D01*
X131558207Y-73429819D02*
X131082017Y-73429819D01*
X131082017Y-73429819D02*
X131034398Y-73906009D01*
X131034398Y-73906009D02*
X131082017Y-73858390D01*
X131082017Y-73858390D02*
X131177255Y-73810771D01*
X131177255Y-73810771D02*
X131415350Y-73810771D01*
X131415350Y-73810771D02*
X131510588Y-73858390D01*
X131510588Y-73858390D02*
X131558207Y-73906009D01*
X131558207Y-73906009D02*
X131605826Y-74001247D01*
X131605826Y-74001247D02*
X131605826Y-74239342D01*
X131605826Y-74239342D02*
X131558207Y-74334580D01*
X131558207Y-74334580D02*
X131510588Y-74382200D01*
X131510588Y-74382200D02*
X131415350Y-74429819D01*
X131415350Y-74429819D02*
X131177255Y-74429819D01*
X131177255Y-74429819D02*
X131082017Y-74382200D01*
X131082017Y-74382200D02*
X131034398Y-74334580D01*
X132224874Y-73429819D02*
X132320112Y-73429819D01*
X132320112Y-73429819D02*
X132415350Y-73477438D01*
X132415350Y-73477438D02*
X132462969Y-73525057D01*
X132462969Y-73525057D02*
X132510588Y-73620295D01*
X132510588Y-73620295D02*
X132558207Y-73810771D01*
X132558207Y-73810771D02*
X132558207Y-74048866D01*
X132558207Y-74048866D02*
X132510588Y-74239342D01*
X132510588Y-74239342D02*
X132462969Y-74334580D01*
X132462969Y-74334580D02*
X132415350Y-74382200D01*
X132415350Y-74382200D02*
X132320112Y-74429819D01*
X132320112Y-74429819D02*
X132224874Y-74429819D01*
X132224874Y-74429819D02*
X132129636Y-74382200D01*
X132129636Y-74382200D02*
X132082017Y-74334580D01*
X132082017Y-74334580D02*
X132034398Y-74239342D01*
X132034398Y-74239342D02*
X131986779Y-74048866D01*
X131986779Y-74048866D02*
X131986779Y-73810771D01*
X131986779Y-73810771D02*
X132034398Y-73620295D01*
X132034398Y-73620295D02*
X132082017Y-73525057D01*
X132082017Y-73525057D02*
X132129636Y-73477438D01*
X132129636Y-73477438D02*
X132224874Y-73429819D01*
D11*
X123957474Y-69597500D02*
X124028902Y-69635595D01*
X124028902Y-69635595D02*
X124147950Y-69635595D01*
X124147950Y-69635595D02*
X124195569Y-69597500D01*
X124195569Y-69597500D02*
X124219378Y-69559404D01*
X124219378Y-69559404D02*
X124243188Y-69483214D01*
X124243188Y-69483214D02*
X124243188Y-69407023D01*
X124243188Y-69407023D02*
X124219378Y-69330833D01*
X124219378Y-69330833D02*
X124195569Y-69292738D01*
X124195569Y-69292738D02*
X124147950Y-69254642D01*
X124147950Y-69254642D02*
X124052712Y-69216547D01*
X124052712Y-69216547D02*
X124005093Y-69178452D01*
X124005093Y-69178452D02*
X123981283Y-69140357D01*
X123981283Y-69140357D02*
X123957474Y-69064166D01*
X123957474Y-69064166D02*
X123957474Y-68987976D01*
X123957474Y-68987976D02*
X123981283Y-68911785D01*
X123981283Y-68911785D02*
X124005093Y-68873690D01*
X124005093Y-68873690D02*
X124052712Y-68835595D01*
X124052712Y-68835595D02*
X124171759Y-68835595D01*
X124171759Y-68835595D02*
X124243188Y-68873690D01*
X124743187Y-69559404D02*
X124719378Y-69597500D01*
X124719378Y-69597500D02*
X124647949Y-69635595D01*
X124647949Y-69635595D02*
X124600330Y-69635595D01*
X124600330Y-69635595D02*
X124528902Y-69597500D01*
X124528902Y-69597500D02*
X124481283Y-69521309D01*
X124481283Y-69521309D02*
X124457473Y-69445119D01*
X124457473Y-69445119D02*
X124433664Y-69292738D01*
X124433664Y-69292738D02*
X124433664Y-69178452D01*
X124433664Y-69178452D02*
X124457473Y-69026071D01*
X124457473Y-69026071D02*
X124481283Y-68949880D01*
X124481283Y-68949880D02*
X124528902Y-68873690D01*
X124528902Y-68873690D02*
X124600330Y-68835595D01*
X124600330Y-68835595D02*
X124647949Y-68835595D01*
X124647949Y-68835595D02*
X124719378Y-68873690D01*
X124719378Y-68873690D02*
X124743187Y-68911785D01*
X125195568Y-69635595D02*
X124957473Y-69635595D01*
X124957473Y-69635595D02*
X124957473Y-68835595D01*
X111945378Y-106805595D02*
X111707283Y-106805595D01*
X111707283Y-106805595D02*
X111707283Y-106005595D01*
X112040617Y-106005595D02*
X112207283Y-106805595D01*
X112207283Y-106805595D02*
X112373950Y-106005595D01*
X112754902Y-106272261D02*
X112754902Y-106805595D01*
X112635854Y-105967500D02*
X112516807Y-106538928D01*
X112516807Y-106538928D02*
X112826330Y-106538928D01*
X123833664Y-63185595D02*
X124143188Y-63185595D01*
X124143188Y-63185595D02*
X123976521Y-63490357D01*
X123976521Y-63490357D02*
X124047950Y-63490357D01*
X124047950Y-63490357D02*
X124095569Y-63528452D01*
X124095569Y-63528452D02*
X124119378Y-63566547D01*
X124119378Y-63566547D02*
X124143188Y-63642738D01*
X124143188Y-63642738D02*
X124143188Y-63833214D01*
X124143188Y-63833214D02*
X124119378Y-63909404D01*
X124119378Y-63909404D02*
X124095569Y-63947500D01*
X124095569Y-63947500D02*
X124047950Y-63985595D01*
X124047950Y-63985595D02*
X123905093Y-63985595D01*
X123905093Y-63985595D02*
X123857474Y-63947500D01*
X123857474Y-63947500D02*
X123833664Y-63909404D01*
X124357473Y-63909404D02*
X124381283Y-63947500D01*
X124381283Y-63947500D02*
X124357473Y-63985595D01*
X124357473Y-63985595D02*
X124333664Y-63947500D01*
X124333664Y-63947500D02*
X124357473Y-63909404D01*
X124357473Y-63909404D02*
X124357473Y-63985595D01*
X124547949Y-63185595D02*
X124857473Y-63185595D01*
X124857473Y-63185595D02*
X124690806Y-63490357D01*
X124690806Y-63490357D02*
X124762235Y-63490357D01*
X124762235Y-63490357D02*
X124809854Y-63528452D01*
X124809854Y-63528452D02*
X124833663Y-63566547D01*
X124833663Y-63566547D02*
X124857473Y-63642738D01*
X124857473Y-63642738D02*
X124857473Y-63833214D01*
X124857473Y-63833214D02*
X124833663Y-63909404D01*
X124833663Y-63909404D02*
X124809854Y-63947500D01*
X124809854Y-63947500D02*
X124762235Y-63985595D01*
X124762235Y-63985595D02*
X124619378Y-63985595D01*
X124619378Y-63985595D02*
X124571759Y-63947500D01*
X124571759Y-63947500D02*
X124547949Y-63909404D01*
X125000330Y-63185595D02*
X125166996Y-63985595D01*
X125166996Y-63985595D02*
X125333663Y-63185595D01*
X85493690Y-79966811D02*
X85455595Y-80014430D01*
X85455595Y-80014430D02*
X85455595Y-80085859D01*
X85455595Y-80085859D02*
X85493690Y-80157287D01*
X85493690Y-80157287D02*
X85569880Y-80204906D01*
X85569880Y-80204906D02*
X85646071Y-80228716D01*
X85646071Y-80228716D02*
X85798452Y-80252525D01*
X85798452Y-80252525D02*
X85912738Y-80252525D01*
X85912738Y-80252525D02*
X86065119Y-80228716D01*
X86065119Y-80228716D02*
X86141309Y-80204906D01*
X86141309Y-80204906D02*
X86217500Y-80157287D01*
X86217500Y-80157287D02*
X86255595Y-80085859D01*
X86255595Y-80085859D02*
X86255595Y-80038240D01*
X86255595Y-80038240D02*
X86217500Y-79966811D01*
X86217500Y-79966811D02*
X86179404Y-79943002D01*
X86179404Y-79943002D02*
X85912738Y-79943002D01*
X85912738Y-79943002D02*
X85912738Y-80038240D01*
X86255595Y-79728716D02*
X85455595Y-79728716D01*
X85455595Y-79728716D02*
X86255595Y-79443002D01*
X86255595Y-79443002D02*
X85455595Y-79443002D01*
X86255595Y-79204906D02*
X85455595Y-79204906D01*
X85455595Y-79204906D02*
X85455595Y-79085858D01*
X85455595Y-79085858D02*
X85493690Y-79014430D01*
X85493690Y-79014430D02*
X85569880Y-78966811D01*
X85569880Y-78966811D02*
X85646071Y-78943001D01*
X85646071Y-78943001D02*
X85798452Y-78919192D01*
X85798452Y-78919192D02*
X85912738Y-78919192D01*
X85912738Y-78919192D02*
X86065119Y-78943001D01*
X86065119Y-78943001D02*
X86141309Y-78966811D01*
X86141309Y-78966811D02*
X86217500Y-79014430D01*
X86217500Y-79014430D02*
X86255595Y-79085858D01*
X86255595Y-79085858D02*
X86255595Y-79204906D01*
X125981759Y-104123690D02*
X125905569Y-104085595D01*
X125905569Y-104085595D02*
X125791283Y-104085595D01*
X125791283Y-104085595D02*
X125676997Y-104123690D01*
X125676997Y-104123690D02*
X125600807Y-104199880D01*
X125600807Y-104199880D02*
X125562712Y-104276071D01*
X125562712Y-104276071D02*
X125524616Y-104428452D01*
X125524616Y-104428452D02*
X125524616Y-104542738D01*
X125524616Y-104542738D02*
X125562712Y-104695119D01*
X125562712Y-104695119D02*
X125600807Y-104771309D01*
X125600807Y-104771309D02*
X125676997Y-104847500D01*
X125676997Y-104847500D02*
X125791283Y-104885595D01*
X125791283Y-104885595D02*
X125867474Y-104885595D01*
X125867474Y-104885595D02*
X125981759Y-104847500D01*
X125981759Y-104847500D02*
X126019855Y-104809404D01*
X126019855Y-104809404D02*
X126019855Y-104542738D01*
X126019855Y-104542738D02*
X125867474Y-104542738D01*
X126362712Y-104885595D02*
X126362712Y-104085595D01*
X126362712Y-104085595D02*
X126819855Y-104885595D01*
X126819855Y-104885595D02*
X126819855Y-104085595D01*
X127200807Y-104885595D02*
X127200807Y-104085595D01*
X127200807Y-104085595D02*
X127391283Y-104085595D01*
X127391283Y-104085595D02*
X127505569Y-104123690D01*
X127505569Y-104123690D02*
X127581759Y-104199880D01*
X127581759Y-104199880D02*
X127619854Y-104276071D01*
X127619854Y-104276071D02*
X127657950Y-104428452D01*
X127657950Y-104428452D02*
X127657950Y-104542738D01*
X127657950Y-104542738D02*
X127619854Y-104695119D01*
X127619854Y-104695119D02*
X127581759Y-104771309D01*
X127581759Y-104771309D02*
X127505569Y-104847500D01*
X127505569Y-104847500D02*
X127391283Y-104885595D01*
X127391283Y-104885595D02*
X127200807Y-104885595D01*
X109556521Y-96377595D02*
X109651759Y-96377595D01*
X109651759Y-96377595D02*
X109699378Y-96415690D01*
X109699378Y-96415690D02*
X109746997Y-96491880D01*
X109746997Y-96491880D02*
X109770807Y-96644261D01*
X109770807Y-96644261D02*
X109770807Y-96910928D01*
X109770807Y-96910928D02*
X109746997Y-97063309D01*
X109746997Y-97063309D02*
X109699378Y-97139500D01*
X109699378Y-97139500D02*
X109651759Y-97177595D01*
X109651759Y-97177595D02*
X109556521Y-97177595D01*
X109556521Y-97177595D02*
X109508902Y-97139500D01*
X109508902Y-97139500D02*
X109461283Y-97063309D01*
X109461283Y-97063309D02*
X109437474Y-96910928D01*
X109437474Y-96910928D02*
X109437474Y-96644261D01*
X109437474Y-96644261D02*
X109461283Y-96491880D01*
X109461283Y-96491880D02*
X109508902Y-96415690D01*
X109508902Y-96415690D02*
X109556521Y-96377595D01*
X109985093Y-96377595D02*
X109985093Y-97025214D01*
X109985093Y-97025214D02*
X110008903Y-97101404D01*
X110008903Y-97101404D02*
X110032712Y-97139500D01*
X110032712Y-97139500D02*
X110080331Y-97177595D01*
X110080331Y-97177595D02*
X110175569Y-97177595D01*
X110175569Y-97177595D02*
X110223188Y-97139500D01*
X110223188Y-97139500D02*
X110246998Y-97101404D01*
X110246998Y-97101404D02*
X110270807Y-97025214D01*
X110270807Y-97025214D02*
X110270807Y-96377595D01*
X110437475Y-96377595D02*
X110723189Y-96377595D01*
X110580332Y-97177595D02*
X110580332Y-96377595D01*
D10*
X125050779Y-108073819D02*
X125050779Y-107073819D01*
X125050779Y-107550009D02*
X125622207Y-107550009D01*
X125622207Y-108073819D02*
X125622207Y-107073819D01*
X126098398Y-108073819D02*
X126098398Y-107073819D01*
X126098398Y-107073819D02*
X126431731Y-107788104D01*
X126431731Y-107788104D02*
X126765064Y-107073819D01*
X126765064Y-107073819D02*
X126765064Y-108073819D01*
X127812683Y-107978580D02*
X127765064Y-108026200D01*
X127765064Y-108026200D02*
X127622207Y-108073819D01*
X127622207Y-108073819D02*
X127526969Y-108073819D01*
X127526969Y-108073819D02*
X127384112Y-108026200D01*
X127384112Y-108026200D02*
X127288874Y-107930961D01*
X127288874Y-107930961D02*
X127241255Y-107835723D01*
X127241255Y-107835723D02*
X127193636Y-107645247D01*
X127193636Y-107645247D02*
X127193636Y-107502390D01*
X127193636Y-107502390D02*
X127241255Y-107311914D01*
X127241255Y-107311914D02*
X127288874Y-107216676D01*
X127288874Y-107216676D02*
X127384112Y-107121438D01*
X127384112Y-107121438D02*
X127526969Y-107073819D01*
X127526969Y-107073819D02*
X127622207Y-107073819D01*
X127622207Y-107073819D02*
X127765064Y-107121438D01*
X127765064Y-107121438D02*
X127812683Y-107169057D01*
X128717445Y-107073819D02*
X128241255Y-107073819D01*
X128241255Y-107073819D02*
X128193636Y-107550009D01*
X128193636Y-107550009D02*
X128241255Y-107502390D01*
X128241255Y-107502390D02*
X128336493Y-107454771D01*
X128336493Y-107454771D02*
X128574588Y-107454771D01*
X128574588Y-107454771D02*
X128669826Y-107502390D01*
X128669826Y-107502390D02*
X128717445Y-107550009D01*
X128717445Y-107550009D02*
X128765064Y-107645247D01*
X128765064Y-107645247D02*
X128765064Y-107883342D01*
X128765064Y-107883342D02*
X128717445Y-107978580D01*
X128717445Y-107978580D02*
X128669826Y-108026200D01*
X128669826Y-108026200D02*
X128574588Y-108073819D01*
X128574588Y-108073819D02*
X128336493Y-108073819D01*
X128336493Y-108073819D02*
X128241255Y-108026200D01*
X128241255Y-108026200D02*
X128193636Y-107978580D01*
X129336493Y-107502390D02*
X129241255Y-107454771D01*
X129241255Y-107454771D02*
X129193636Y-107407152D01*
X129193636Y-107407152D02*
X129146017Y-107311914D01*
X129146017Y-107311914D02*
X129146017Y-107264295D01*
X129146017Y-107264295D02*
X129193636Y-107169057D01*
X129193636Y-107169057D02*
X129241255Y-107121438D01*
X129241255Y-107121438D02*
X129336493Y-107073819D01*
X129336493Y-107073819D02*
X129526969Y-107073819D01*
X129526969Y-107073819D02*
X129622207Y-107121438D01*
X129622207Y-107121438D02*
X129669826Y-107169057D01*
X129669826Y-107169057D02*
X129717445Y-107264295D01*
X129717445Y-107264295D02*
X129717445Y-107311914D01*
X129717445Y-107311914D02*
X129669826Y-107407152D01*
X129669826Y-107407152D02*
X129622207Y-107454771D01*
X129622207Y-107454771D02*
X129526969Y-107502390D01*
X129526969Y-107502390D02*
X129336493Y-107502390D01*
X129336493Y-107502390D02*
X129241255Y-107550009D01*
X129241255Y-107550009D02*
X129193636Y-107597628D01*
X129193636Y-107597628D02*
X129146017Y-107692866D01*
X129146017Y-107692866D02*
X129146017Y-107883342D01*
X129146017Y-107883342D02*
X129193636Y-107978580D01*
X129193636Y-107978580D02*
X129241255Y-108026200D01*
X129241255Y-108026200D02*
X129336493Y-108073819D01*
X129336493Y-108073819D02*
X129526969Y-108073819D01*
X129526969Y-108073819D02*
X129622207Y-108026200D01*
X129622207Y-108026200D02*
X129669826Y-107978580D01*
X129669826Y-107978580D02*
X129717445Y-107883342D01*
X129717445Y-107883342D02*
X129717445Y-107692866D01*
X129717445Y-107692866D02*
X129669826Y-107597628D01*
X129669826Y-107597628D02*
X129622207Y-107550009D01*
X129622207Y-107550009D02*
X129526969Y-107502390D01*
X130288874Y-107502390D02*
X130193636Y-107454771D01*
X130193636Y-107454771D02*
X130146017Y-107407152D01*
X130146017Y-107407152D02*
X130098398Y-107311914D01*
X130098398Y-107311914D02*
X130098398Y-107264295D01*
X130098398Y-107264295D02*
X130146017Y-107169057D01*
X130146017Y-107169057D02*
X130193636Y-107121438D01*
X130193636Y-107121438D02*
X130288874Y-107073819D01*
X130288874Y-107073819D02*
X130479350Y-107073819D01*
X130479350Y-107073819D02*
X130574588Y-107121438D01*
X130574588Y-107121438D02*
X130622207Y-107169057D01*
X130622207Y-107169057D02*
X130669826Y-107264295D01*
X130669826Y-107264295D02*
X130669826Y-107311914D01*
X130669826Y-107311914D02*
X130622207Y-107407152D01*
X130622207Y-107407152D02*
X130574588Y-107454771D01*
X130574588Y-107454771D02*
X130479350Y-107502390D01*
X130479350Y-107502390D02*
X130288874Y-107502390D01*
X130288874Y-107502390D02*
X130193636Y-107550009D01*
X130193636Y-107550009D02*
X130146017Y-107597628D01*
X130146017Y-107597628D02*
X130098398Y-107692866D01*
X130098398Y-107692866D02*
X130098398Y-107883342D01*
X130098398Y-107883342D02*
X130146017Y-107978580D01*
X130146017Y-107978580D02*
X130193636Y-108026200D01*
X130193636Y-108026200D02*
X130288874Y-108073819D01*
X130288874Y-108073819D02*
X130479350Y-108073819D01*
X130479350Y-108073819D02*
X130574588Y-108026200D01*
X130574588Y-108026200D02*
X130622207Y-107978580D01*
X130622207Y-107978580D02*
X130669826Y-107883342D01*
X130669826Y-107883342D02*
X130669826Y-107692866D01*
X130669826Y-107692866D02*
X130622207Y-107597628D01*
X130622207Y-107597628D02*
X130574588Y-107550009D01*
X130574588Y-107550009D02*
X130479350Y-107502390D01*
X131003160Y-107073819D02*
X131622207Y-107073819D01*
X131622207Y-107073819D02*
X131288874Y-107454771D01*
X131288874Y-107454771D02*
X131431731Y-107454771D01*
X131431731Y-107454771D02*
X131526969Y-107502390D01*
X131526969Y-107502390D02*
X131574588Y-107550009D01*
X131574588Y-107550009D02*
X131622207Y-107645247D01*
X131622207Y-107645247D02*
X131622207Y-107883342D01*
X131622207Y-107883342D02*
X131574588Y-107978580D01*
X131574588Y-107978580D02*
X131526969Y-108026200D01*
X131526969Y-108026200D02*
X131431731Y-108073819D01*
X131431731Y-108073819D02*
X131146017Y-108073819D01*
X131146017Y-108073819D02*
X131050779Y-108026200D01*
X131050779Y-108026200D02*
X131003160Y-107978580D01*
X132193636Y-108073819D02*
X132098398Y-108026200D01*
X132098398Y-108026200D02*
X132050779Y-107930961D01*
X132050779Y-107930961D02*
X132050779Y-107073819D01*
X127440112Y-94266009D02*
X127582969Y-94313628D01*
X127582969Y-94313628D02*
X127630588Y-94361247D01*
X127630588Y-94361247D02*
X127678207Y-94456485D01*
X127678207Y-94456485D02*
X127678207Y-94599342D01*
X127678207Y-94599342D02*
X127630588Y-94694580D01*
X127630588Y-94694580D02*
X127582969Y-94742200D01*
X127582969Y-94742200D02*
X127487731Y-94789819D01*
X127487731Y-94789819D02*
X127106779Y-94789819D01*
X127106779Y-94789819D02*
X127106779Y-93789819D01*
X127106779Y-93789819D02*
X127440112Y-93789819D01*
X127440112Y-93789819D02*
X127535350Y-93837438D01*
X127535350Y-93837438D02*
X127582969Y-93885057D01*
X127582969Y-93885057D02*
X127630588Y-93980295D01*
X127630588Y-93980295D02*
X127630588Y-94075533D01*
X127630588Y-94075533D02*
X127582969Y-94170771D01*
X127582969Y-94170771D02*
X127535350Y-94218390D01*
X127535350Y-94218390D02*
X127440112Y-94266009D01*
X127440112Y-94266009D02*
X127106779Y-94266009D01*
X128106779Y-94789819D02*
X128106779Y-93789819D01*
X128106779Y-93789819D02*
X128440112Y-94504104D01*
X128440112Y-94504104D02*
X128773445Y-93789819D01*
X128773445Y-93789819D02*
X128773445Y-94789819D01*
X129249636Y-94266009D02*
X129582969Y-94266009D01*
X129725826Y-94789819D02*
X129249636Y-94789819D01*
X129249636Y-94789819D02*
X129249636Y-93789819D01*
X129249636Y-93789819D02*
X129725826Y-93789819D01*
X130106779Y-93885057D02*
X130154398Y-93837438D01*
X130154398Y-93837438D02*
X130249636Y-93789819D01*
X130249636Y-93789819D02*
X130487731Y-93789819D01*
X130487731Y-93789819D02*
X130582969Y-93837438D01*
X130582969Y-93837438D02*
X130630588Y-93885057D01*
X130630588Y-93885057D02*
X130678207Y-93980295D01*
X130678207Y-93980295D02*
X130678207Y-94075533D01*
X130678207Y-94075533D02*
X130630588Y-94218390D01*
X130630588Y-94218390D02*
X130059160Y-94789819D01*
X130059160Y-94789819D02*
X130678207Y-94789819D01*
X131249636Y-94218390D02*
X131154398Y-94170771D01*
X131154398Y-94170771D02*
X131106779Y-94123152D01*
X131106779Y-94123152D02*
X131059160Y-94027914D01*
X131059160Y-94027914D02*
X131059160Y-93980295D01*
X131059160Y-93980295D02*
X131106779Y-93885057D01*
X131106779Y-93885057D02*
X131154398Y-93837438D01*
X131154398Y-93837438D02*
X131249636Y-93789819D01*
X131249636Y-93789819D02*
X131440112Y-93789819D01*
X131440112Y-93789819D02*
X131535350Y-93837438D01*
X131535350Y-93837438D02*
X131582969Y-93885057D01*
X131582969Y-93885057D02*
X131630588Y-93980295D01*
X131630588Y-93980295D02*
X131630588Y-94027914D01*
X131630588Y-94027914D02*
X131582969Y-94123152D01*
X131582969Y-94123152D02*
X131535350Y-94170771D01*
X131535350Y-94170771D02*
X131440112Y-94218390D01*
X131440112Y-94218390D02*
X131249636Y-94218390D01*
X131249636Y-94218390D02*
X131154398Y-94266009D01*
X131154398Y-94266009D02*
X131106779Y-94313628D01*
X131106779Y-94313628D02*
X131059160Y-94408866D01*
X131059160Y-94408866D02*
X131059160Y-94599342D01*
X131059160Y-94599342D02*
X131106779Y-94694580D01*
X131106779Y-94694580D02*
X131154398Y-94742200D01*
X131154398Y-94742200D02*
X131249636Y-94789819D01*
X131249636Y-94789819D02*
X131440112Y-94789819D01*
X131440112Y-94789819D02*
X131535350Y-94742200D01*
X131535350Y-94742200D02*
X131582969Y-94694580D01*
X131582969Y-94694580D02*
X131630588Y-94599342D01*
X131630588Y-94599342D02*
X131630588Y-94408866D01*
X131630588Y-94408866D02*
X131582969Y-94313628D01*
X131582969Y-94313628D02*
X131535350Y-94266009D01*
X131535350Y-94266009D02*
X131440112Y-94218390D01*
X132249636Y-93789819D02*
X132344874Y-93789819D01*
X132344874Y-93789819D02*
X132440112Y-93837438D01*
X132440112Y-93837438D02*
X132487731Y-93885057D01*
X132487731Y-93885057D02*
X132535350Y-93980295D01*
X132535350Y-93980295D02*
X132582969Y-94170771D01*
X132582969Y-94170771D02*
X132582969Y-94408866D01*
X132582969Y-94408866D02*
X132535350Y-94599342D01*
X132535350Y-94599342D02*
X132487731Y-94694580D01*
X132487731Y-94694580D02*
X132440112Y-94742200D01*
X132440112Y-94742200D02*
X132344874Y-94789819D01*
X132344874Y-94789819D02*
X132249636Y-94789819D01*
X132249636Y-94789819D02*
X132154398Y-94742200D01*
X132154398Y-94742200D02*
X132106779Y-94694580D01*
X132106779Y-94694580D02*
X132059160Y-94599342D01*
X132059160Y-94599342D02*
X132011541Y-94408866D01*
X132011541Y-94408866D02*
X132011541Y-94170771D01*
X132011541Y-94170771D02*
X132059160Y-93980295D01*
X132059160Y-93980295D02*
X132106779Y-93885057D01*
X132106779Y-93885057D02*
X132154398Y-93837438D01*
X132154398Y-93837438D02*
X132249636Y-93789819D01*
X84929819Y-105947030D02*
X84929819Y-106423220D01*
X84929819Y-106423220D02*
X83929819Y-106423220D01*
X84929819Y-105613696D02*
X83929819Y-105613696D01*
X83929819Y-105613696D02*
X83929819Y-105375601D01*
X83929819Y-105375601D02*
X83977438Y-105232744D01*
X83977438Y-105232744D02*
X84072676Y-105137506D01*
X84072676Y-105137506D02*
X84167914Y-105089887D01*
X84167914Y-105089887D02*
X84358390Y-105042268D01*
X84358390Y-105042268D02*
X84501247Y-105042268D01*
X84501247Y-105042268D02*
X84691723Y-105089887D01*
X84691723Y-105089887D02*
X84786961Y-105137506D01*
X84786961Y-105137506D02*
X84882200Y-105232744D01*
X84882200Y-105232744D02*
X84929819Y-105375601D01*
X84929819Y-105375601D02*
X84929819Y-105613696D01*
X84929819Y-104042268D02*
X84453628Y-104375601D01*
X84929819Y-104613696D02*
X83929819Y-104613696D01*
X83929819Y-104613696D02*
X83929819Y-104232744D01*
X83929819Y-104232744D02*
X83977438Y-104137506D01*
X83977438Y-104137506D02*
X84025057Y-104089887D01*
X84025057Y-104089887D02*
X84120295Y-104042268D01*
X84120295Y-104042268D02*
X84263152Y-104042268D01*
X84263152Y-104042268D02*
X84358390Y-104089887D01*
X84358390Y-104089887D02*
X84406009Y-104137506D01*
X84406009Y-104137506D02*
X84453628Y-104232744D01*
X84453628Y-104232744D02*
X84453628Y-104613696D01*
D11*
X85455595Y-82806335D02*
X85455595Y-82496811D01*
X85455595Y-82496811D02*
X85760357Y-82663478D01*
X85760357Y-82663478D02*
X85760357Y-82592049D01*
X85760357Y-82592049D02*
X85798452Y-82544430D01*
X85798452Y-82544430D02*
X85836547Y-82520621D01*
X85836547Y-82520621D02*
X85912738Y-82496811D01*
X85912738Y-82496811D02*
X86103214Y-82496811D01*
X86103214Y-82496811D02*
X86179404Y-82520621D01*
X86179404Y-82520621D02*
X86217500Y-82544430D01*
X86217500Y-82544430D02*
X86255595Y-82592049D01*
X86255595Y-82592049D02*
X86255595Y-82734906D01*
X86255595Y-82734906D02*
X86217500Y-82782525D01*
X86217500Y-82782525D02*
X86179404Y-82806335D01*
X86179404Y-82282526D02*
X86217500Y-82258716D01*
X86217500Y-82258716D02*
X86255595Y-82282526D01*
X86255595Y-82282526D02*
X86217500Y-82306335D01*
X86217500Y-82306335D02*
X86179404Y-82282526D01*
X86179404Y-82282526D02*
X86255595Y-82282526D01*
X85455595Y-82092050D02*
X85455595Y-81782526D01*
X85455595Y-81782526D02*
X85760357Y-81949193D01*
X85760357Y-81949193D02*
X85760357Y-81877764D01*
X85760357Y-81877764D02*
X85798452Y-81830145D01*
X85798452Y-81830145D02*
X85836547Y-81806336D01*
X85836547Y-81806336D02*
X85912738Y-81782526D01*
X85912738Y-81782526D02*
X86103214Y-81782526D01*
X86103214Y-81782526D02*
X86179404Y-81806336D01*
X86179404Y-81806336D02*
X86217500Y-81830145D01*
X86217500Y-81830145D02*
X86255595Y-81877764D01*
X86255595Y-81877764D02*
X86255595Y-82020621D01*
X86255595Y-82020621D02*
X86217500Y-82068240D01*
X86217500Y-82068240D02*
X86179404Y-82092050D01*
X85455595Y-81639669D02*
X86255595Y-81473003D01*
X86255595Y-81473003D02*
X85455595Y-81306336D01*
X103422712Y-109325595D02*
X103422712Y-108525595D01*
X103422712Y-108906547D02*
X103879855Y-108906547D01*
X103879855Y-109325595D02*
X103879855Y-108525595D01*
X104146521Y-108525595D02*
X104413188Y-109325595D01*
X104413188Y-109325595D02*
X104679854Y-108525595D01*
X104870330Y-108525595D02*
X105365568Y-108525595D01*
X105365568Y-108525595D02*
X105098902Y-108830357D01*
X105098902Y-108830357D02*
X105213187Y-108830357D01*
X105213187Y-108830357D02*
X105289378Y-108868452D01*
X105289378Y-108868452D02*
X105327473Y-108906547D01*
X105327473Y-108906547D02*
X105365568Y-108982738D01*
X105365568Y-108982738D02*
X105365568Y-109173214D01*
X105365568Y-109173214D02*
X105327473Y-109249404D01*
X105327473Y-109249404D02*
X105289378Y-109287500D01*
X105289378Y-109287500D02*
X105213187Y-109325595D01*
X105213187Y-109325595D02*
X104984616Y-109325595D01*
X104984616Y-109325595D02*
X104908425Y-109287500D01*
X104908425Y-109287500D02*
X104870330Y-109249404D01*
X88155595Y-92220621D02*
X88155595Y-92458716D01*
X88155595Y-92458716D02*
X88536547Y-92482525D01*
X88536547Y-92482525D02*
X88498452Y-92458716D01*
X88498452Y-92458716D02*
X88460357Y-92411097D01*
X88460357Y-92411097D02*
X88460357Y-92292049D01*
X88460357Y-92292049D02*
X88498452Y-92244430D01*
X88498452Y-92244430D02*
X88536547Y-92220621D01*
X88536547Y-92220621D02*
X88612738Y-92196811D01*
X88612738Y-92196811D02*
X88803214Y-92196811D01*
X88803214Y-92196811D02*
X88879404Y-92220621D01*
X88879404Y-92220621D02*
X88917500Y-92244430D01*
X88917500Y-92244430D02*
X88955595Y-92292049D01*
X88955595Y-92292049D02*
X88955595Y-92411097D01*
X88955595Y-92411097D02*
X88917500Y-92458716D01*
X88917500Y-92458716D02*
X88879404Y-92482525D01*
X88155595Y-92053954D02*
X88955595Y-91887288D01*
X88955595Y-91887288D02*
X88155595Y-91720621D01*
X111945378Y-109369595D02*
X111707283Y-109369595D01*
X111707283Y-109369595D02*
X111707283Y-108569595D01*
X112040617Y-108569595D02*
X112207283Y-109369595D01*
X112207283Y-109369595D02*
X112373950Y-108569595D01*
X112492997Y-108569595D02*
X112802521Y-108569595D01*
X112802521Y-108569595D02*
X112635854Y-108874357D01*
X112635854Y-108874357D02*
X112707283Y-108874357D01*
X112707283Y-108874357D02*
X112754902Y-108912452D01*
X112754902Y-108912452D02*
X112778711Y-108950547D01*
X112778711Y-108950547D02*
X112802521Y-109026738D01*
X112802521Y-109026738D02*
X112802521Y-109217214D01*
X112802521Y-109217214D02*
X112778711Y-109293404D01*
X112778711Y-109293404D02*
X112754902Y-109331500D01*
X112754902Y-109331500D02*
X112707283Y-109369595D01*
X112707283Y-109369595D02*
X112564426Y-109369595D01*
X112564426Y-109369595D02*
X112516807Y-109331500D01*
X112516807Y-109331500D02*
X112492997Y-109293404D01*
X85836547Y-67362716D02*
X85836547Y-67196049D01*
X86255595Y-67124621D02*
X86255595Y-67362716D01*
X86255595Y-67362716D02*
X85455595Y-67362716D01*
X85455595Y-67362716D02*
X85455595Y-67124621D01*
X86255595Y-66910335D02*
X85455595Y-66910335D01*
X85455595Y-66910335D02*
X86255595Y-66624621D01*
X86255595Y-66624621D02*
X85455595Y-66624621D01*
X132276521Y-91805595D02*
X132771759Y-91805595D01*
X132771759Y-91805595D02*
X132505093Y-92110357D01*
X132505093Y-92110357D02*
X132619378Y-92110357D01*
X132619378Y-92110357D02*
X132695569Y-92148452D01*
X132695569Y-92148452D02*
X132733664Y-92186547D01*
X132733664Y-92186547D02*
X132771759Y-92262738D01*
X132771759Y-92262738D02*
X132771759Y-92453214D01*
X132771759Y-92453214D02*
X132733664Y-92529404D01*
X132733664Y-92529404D02*
X132695569Y-92567500D01*
X132695569Y-92567500D02*
X132619378Y-92605595D01*
X132619378Y-92605595D02*
X132390807Y-92605595D01*
X132390807Y-92605595D02*
X132314616Y-92567500D01*
X132314616Y-92567500D02*
X132276521Y-92529404D01*
X133114617Y-92529404D02*
X133152712Y-92567500D01*
X133152712Y-92567500D02*
X133114617Y-92605595D01*
X133114617Y-92605595D02*
X133076521Y-92567500D01*
X133076521Y-92567500D02*
X133114617Y-92529404D01*
X133114617Y-92529404D02*
X133114617Y-92605595D01*
X133419378Y-91805595D02*
X133914616Y-91805595D01*
X133914616Y-91805595D02*
X133647950Y-92110357D01*
X133647950Y-92110357D02*
X133762235Y-92110357D01*
X133762235Y-92110357D02*
X133838426Y-92148452D01*
X133838426Y-92148452D02*
X133876521Y-92186547D01*
X133876521Y-92186547D02*
X133914616Y-92262738D01*
X133914616Y-92262738D02*
X133914616Y-92453214D01*
X133914616Y-92453214D02*
X133876521Y-92529404D01*
X133876521Y-92529404D02*
X133838426Y-92567500D01*
X133838426Y-92567500D02*
X133762235Y-92605595D01*
X133762235Y-92605595D02*
X133533664Y-92605595D01*
X133533664Y-92605595D02*
X133457473Y-92567500D01*
X133457473Y-92567500D02*
X133419378Y-92529404D01*
X134143188Y-91805595D02*
X134409855Y-92605595D01*
X134409855Y-92605595D02*
X134676521Y-91805595D01*
X85455595Y-75320144D02*
X85455595Y-75034430D01*
X86255595Y-75177287D02*
X85455595Y-75177287D01*
X85455595Y-74915383D02*
X86255595Y-74582050D01*
X85455595Y-74582050D02*
X86255595Y-74915383D01*
D10*
X97870588Y-72497438D02*
X97775350Y-72449819D01*
X97775350Y-72449819D02*
X97632493Y-72449819D01*
X97632493Y-72449819D02*
X97489636Y-72497438D01*
X97489636Y-72497438D02*
X97394398Y-72592676D01*
X97394398Y-72592676D02*
X97346779Y-72687914D01*
X97346779Y-72687914D02*
X97299160Y-72878390D01*
X97299160Y-72878390D02*
X97299160Y-73021247D01*
X97299160Y-73021247D02*
X97346779Y-73211723D01*
X97346779Y-73211723D02*
X97394398Y-73306961D01*
X97394398Y-73306961D02*
X97489636Y-73402200D01*
X97489636Y-73402200D02*
X97632493Y-73449819D01*
X97632493Y-73449819D02*
X97727731Y-73449819D01*
X97727731Y-73449819D02*
X97870588Y-73402200D01*
X97870588Y-73402200D02*
X97918207Y-73354580D01*
X97918207Y-73354580D02*
X97918207Y-73021247D01*
X97918207Y-73021247D02*
X97727731Y-73021247D01*
X98346779Y-73449819D02*
X98346779Y-72449819D01*
X98346779Y-72449819D02*
X98727731Y-72449819D01*
X98727731Y-72449819D02*
X98822969Y-72497438D01*
X98822969Y-72497438D02*
X98870588Y-72545057D01*
X98870588Y-72545057D02*
X98918207Y-72640295D01*
X98918207Y-72640295D02*
X98918207Y-72783152D01*
X98918207Y-72783152D02*
X98870588Y-72878390D01*
X98870588Y-72878390D02*
X98822969Y-72926009D01*
X98822969Y-72926009D02*
X98727731Y-72973628D01*
X98727731Y-72973628D02*
X98346779Y-72973628D01*
X99299160Y-73402200D02*
X99442017Y-73449819D01*
X99442017Y-73449819D02*
X99680112Y-73449819D01*
X99680112Y-73449819D02*
X99775350Y-73402200D01*
X99775350Y-73402200D02*
X99822969Y-73354580D01*
X99822969Y-73354580D02*
X99870588Y-73259342D01*
X99870588Y-73259342D02*
X99870588Y-73164104D01*
X99870588Y-73164104D02*
X99822969Y-73068866D01*
X99822969Y-73068866D02*
X99775350Y-73021247D01*
X99775350Y-73021247D02*
X99680112Y-72973628D01*
X99680112Y-72973628D02*
X99489636Y-72926009D01*
X99489636Y-72926009D02*
X99394398Y-72878390D01*
X99394398Y-72878390D02*
X99346779Y-72830771D01*
X99346779Y-72830771D02*
X99299160Y-72735533D01*
X99299160Y-72735533D02*
X99299160Y-72640295D01*
X99299160Y-72640295D02*
X99346779Y-72545057D01*
X99346779Y-72545057D02*
X99394398Y-72497438D01*
X99394398Y-72497438D02*
X99489636Y-72449819D01*
X99489636Y-72449819D02*
X99727731Y-72449819D01*
X99727731Y-72449819D02*
X99870588Y-72497438D01*
X108626779Y-92059819D02*
X108626779Y-91059819D01*
X108626779Y-91059819D02*
X108864874Y-91059819D01*
X108864874Y-91059819D02*
X109007731Y-91107438D01*
X109007731Y-91107438D02*
X109102969Y-91202676D01*
X109102969Y-91202676D02*
X109150588Y-91297914D01*
X109150588Y-91297914D02*
X109198207Y-91488390D01*
X109198207Y-91488390D02*
X109198207Y-91631247D01*
X109198207Y-91631247D02*
X109150588Y-91821723D01*
X109150588Y-91821723D02*
X109102969Y-91916961D01*
X109102969Y-91916961D02*
X109007731Y-92012200D01*
X109007731Y-92012200D02*
X108864874Y-92059819D01*
X108864874Y-92059819D02*
X108626779Y-92059819D01*
X109626779Y-92059819D02*
X109626779Y-91059819D01*
X109626779Y-91536009D02*
X110198207Y-91536009D01*
X110198207Y-92059819D02*
X110198207Y-91059819D01*
X110531541Y-91059819D02*
X111102969Y-91059819D01*
X110817255Y-92059819D02*
X110817255Y-91059819D01*
D11*
X124186616Y-92567500D02*
X124300902Y-92605595D01*
X124300902Y-92605595D02*
X124491378Y-92605595D01*
X124491378Y-92605595D02*
X124567569Y-92567500D01*
X124567569Y-92567500D02*
X124605664Y-92529404D01*
X124605664Y-92529404D02*
X124643759Y-92453214D01*
X124643759Y-92453214D02*
X124643759Y-92377023D01*
X124643759Y-92377023D02*
X124605664Y-92300833D01*
X124605664Y-92300833D02*
X124567569Y-92262738D01*
X124567569Y-92262738D02*
X124491378Y-92224642D01*
X124491378Y-92224642D02*
X124338997Y-92186547D01*
X124338997Y-92186547D02*
X124262807Y-92148452D01*
X124262807Y-92148452D02*
X124224712Y-92110357D01*
X124224712Y-92110357D02*
X124186616Y-92034166D01*
X124186616Y-92034166D02*
X124186616Y-91957976D01*
X124186616Y-91957976D02*
X124224712Y-91881785D01*
X124224712Y-91881785D02*
X124262807Y-91843690D01*
X124262807Y-91843690D02*
X124338997Y-91805595D01*
X124338997Y-91805595D02*
X124529474Y-91805595D01*
X124529474Y-91805595D02*
X124643759Y-91843690D01*
X124986617Y-92605595D02*
X124986617Y-91805595D01*
X124986617Y-91805595D02*
X125177093Y-91805595D01*
X125177093Y-91805595D02*
X125291379Y-91843690D01*
X125291379Y-91843690D02*
X125367569Y-91919880D01*
X125367569Y-91919880D02*
X125405664Y-91996071D01*
X125405664Y-91996071D02*
X125443760Y-92148452D01*
X125443760Y-92148452D02*
X125443760Y-92262738D01*
X125443760Y-92262738D02*
X125405664Y-92415119D01*
X125405664Y-92415119D02*
X125367569Y-92491309D01*
X125367569Y-92491309D02*
X125291379Y-92567500D01*
X125291379Y-92567500D02*
X125177093Y-92605595D01*
X125177093Y-92605595D02*
X124986617Y-92605595D01*
X125748521Y-92377023D02*
X126129474Y-92377023D01*
X125672331Y-92605595D02*
X125938998Y-91805595D01*
X125938998Y-91805595D02*
X126205664Y-92605595D01*
X127054616Y-92567500D02*
X127168902Y-92605595D01*
X127168902Y-92605595D02*
X127359378Y-92605595D01*
X127359378Y-92605595D02*
X127435569Y-92567500D01*
X127435569Y-92567500D02*
X127473664Y-92529404D01*
X127473664Y-92529404D02*
X127511759Y-92453214D01*
X127511759Y-92453214D02*
X127511759Y-92377023D01*
X127511759Y-92377023D02*
X127473664Y-92300833D01*
X127473664Y-92300833D02*
X127435569Y-92262738D01*
X127435569Y-92262738D02*
X127359378Y-92224642D01*
X127359378Y-92224642D02*
X127206997Y-92186547D01*
X127206997Y-92186547D02*
X127130807Y-92148452D01*
X127130807Y-92148452D02*
X127092712Y-92110357D01*
X127092712Y-92110357D02*
X127054616Y-92034166D01*
X127054616Y-92034166D02*
X127054616Y-91957976D01*
X127054616Y-91957976D02*
X127092712Y-91881785D01*
X127092712Y-91881785D02*
X127130807Y-91843690D01*
X127130807Y-91843690D02*
X127206997Y-91805595D01*
X127206997Y-91805595D02*
X127397474Y-91805595D01*
X127397474Y-91805595D02*
X127511759Y-91843690D01*
X128311760Y-92529404D02*
X128273664Y-92567500D01*
X128273664Y-92567500D02*
X128159379Y-92605595D01*
X128159379Y-92605595D02*
X128083188Y-92605595D01*
X128083188Y-92605595D02*
X127968902Y-92567500D01*
X127968902Y-92567500D02*
X127892712Y-92491309D01*
X127892712Y-92491309D02*
X127854617Y-92415119D01*
X127854617Y-92415119D02*
X127816521Y-92262738D01*
X127816521Y-92262738D02*
X127816521Y-92148452D01*
X127816521Y-92148452D02*
X127854617Y-91996071D01*
X127854617Y-91996071D02*
X127892712Y-91919880D01*
X127892712Y-91919880D02*
X127968902Y-91843690D01*
X127968902Y-91843690D02*
X128083188Y-91805595D01*
X128083188Y-91805595D02*
X128159379Y-91805595D01*
X128159379Y-91805595D02*
X128273664Y-91843690D01*
X128273664Y-91843690D02*
X128311760Y-91881785D01*
X129035569Y-92605595D02*
X128654617Y-92605595D01*
X128654617Y-92605595D02*
X128654617Y-91805595D01*
D13*
X142249400Y-95658909D02*
X142163685Y-95916052D01*
X142163685Y-95916052D02*
X142163685Y-96344623D01*
X142163685Y-96344623D02*
X142249400Y-96516052D01*
X142249400Y-96516052D02*
X142335114Y-96601766D01*
X142335114Y-96601766D02*
X142506542Y-96687480D01*
X142506542Y-96687480D02*
X142677971Y-96687480D01*
X142677971Y-96687480D02*
X142849400Y-96601766D01*
X142849400Y-96601766D02*
X142935114Y-96516052D01*
X142935114Y-96516052D02*
X143020828Y-96344623D01*
X143020828Y-96344623D02*
X143106542Y-96001766D01*
X143106542Y-96001766D02*
X143192257Y-95830337D01*
X143192257Y-95830337D02*
X143277971Y-95744623D01*
X143277971Y-95744623D02*
X143449400Y-95658909D01*
X143449400Y-95658909D02*
X143620828Y-95658909D01*
X143620828Y-95658909D02*
X143792257Y-95744623D01*
X143792257Y-95744623D02*
X143877971Y-95830337D01*
X143877971Y-95830337D02*
X143963685Y-96001766D01*
X143963685Y-96001766D02*
X143963685Y-96430337D01*
X143963685Y-96430337D02*
X143877971Y-96687480D01*
X142249400Y-98144623D02*
X142163685Y-97973195D01*
X142163685Y-97973195D02*
X142163685Y-97630338D01*
X142163685Y-97630338D02*
X142249400Y-97458909D01*
X142249400Y-97458909D02*
X142420828Y-97373195D01*
X142420828Y-97373195D02*
X143106542Y-97373195D01*
X143106542Y-97373195D02*
X143277971Y-97458909D01*
X143277971Y-97458909D02*
X143363685Y-97630338D01*
X143363685Y-97630338D02*
X143363685Y-97973195D01*
X143363685Y-97973195D02*
X143277971Y-98144623D01*
X143277971Y-98144623D02*
X143106542Y-98230338D01*
X143106542Y-98230338D02*
X142935114Y-98230338D01*
X142935114Y-98230338D02*
X142763685Y-97373195D01*
X143363685Y-99001766D02*
X142163685Y-99001766D01*
X143192257Y-99001766D02*
X143277971Y-99087480D01*
X143277971Y-99087480D02*
X143363685Y-99258909D01*
X143363685Y-99258909D02*
X143363685Y-99516052D01*
X143363685Y-99516052D02*
X143277971Y-99687480D01*
X143277971Y-99687480D02*
X143106542Y-99773195D01*
X143106542Y-99773195D02*
X142163685Y-99773195D01*
X142249400Y-100544623D02*
X142163685Y-100716051D01*
X142163685Y-100716051D02*
X142163685Y-101058908D01*
X142163685Y-101058908D02*
X142249400Y-101230337D01*
X142249400Y-101230337D02*
X142420828Y-101316051D01*
X142420828Y-101316051D02*
X142506542Y-101316051D01*
X142506542Y-101316051D02*
X142677971Y-101230337D01*
X142677971Y-101230337D02*
X142763685Y-101058908D01*
X142763685Y-101058908D02*
X142763685Y-100801766D01*
X142763685Y-100801766D02*
X142849400Y-100630337D01*
X142849400Y-100630337D02*
X143020828Y-100544623D01*
X143020828Y-100544623D02*
X143106542Y-100544623D01*
X143106542Y-100544623D02*
X143277971Y-100630337D01*
X143277971Y-100630337D02*
X143363685Y-100801766D01*
X143363685Y-100801766D02*
X143363685Y-101058908D01*
X143363685Y-101058908D02*
X143277971Y-101230337D01*
X142163685Y-102344623D02*
X142249400Y-102173194D01*
X142249400Y-102173194D02*
X142335114Y-102087480D01*
X142335114Y-102087480D02*
X142506542Y-102001766D01*
X142506542Y-102001766D02*
X143020828Y-102001766D01*
X143020828Y-102001766D02*
X143192257Y-102087480D01*
X143192257Y-102087480D02*
X143277971Y-102173194D01*
X143277971Y-102173194D02*
X143363685Y-102344623D01*
X143363685Y-102344623D02*
X143363685Y-102601766D01*
X143363685Y-102601766D02*
X143277971Y-102773194D01*
X143277971Y-102773194D02*
X143192257Y-102858909D01*
X143192257Y-102858909D02*
X143020828Y-102944623D01*
X143020828Y-102944623D02*
X142506542Y-102944623D01*
X142506542Y-102944623D02*
X142335114Y-102858909D01*
X142335114Y-102858909D02*
X142249400Y-102773194D01*
X142249400Y-102773194D02*
X142163685Y-102601766D01*
X142163685Y-102601766D02*
X142163685Y-102344623D01*
X142163685Y-103716051D02*
X143363685Y-103716051D01*
X143020828Y-103716051D02*
X143192257Y-103801765D01*
X143192257Y-103801765D02*
X143277971Y-103887480D01*
X143277971Y-103887480D02*
X143363685Y-104058908D01*
X143363685Y-104058908D02*
X143363685Y-104230337D01*
X143106542Y-106801766D02*
X143020828Y-107058909D01*
X143020828Y-107058909D02*
X142935114Y-107144623D01*
X142935114Y-107144623D02*
X142763685Y-107230337D01*
X142763685Y-107230337D02*
X142506542Y-107230337D01*
X142506542Y-107230337D02*
X142335114Y-107144623D01*
X142335114Y-107144623D02*
X142249400Y-107058909D01*
X142249400Y-107058909D02*
X142163685Y-106887480D01*
X142163685Y-106887480D02*
X142163685Y-106201766D01*
X142163685Y-106201766D02*
X143963685Y-106201766D01*
X143963685Y-106201766D02*
X143963685Y-106801766D01*
X143963685Y-106801766D02*
X143877971Y-106973195D01*
X143877971Y-106973195D02*
X143792257Y-107058909D01*
X143792257Y-107058909D02*
X143620828Y-107144623D01*
X143620828Y-107144623D02*
X143449400Y-107144623D01*
X143449400Y-107144623D02*
X143277971Y-107058909D01*
X143277971Y-107058909D02*
X143192257Y-106973195D01*
X143192257Y-106973195D02*
X143106542Y-106801766D01*
X143106542Y-106801766D02*
X143106542Y-106201766D01*
X142163685Y-108258909D02*
X142249400Y-108087480D01*
X142249400Y-108087480D02*
X142335114Y-108001766D01*
X142335114Y-108001766D02*
X142506542Y-107916052D01*
X142506542Y-107916052D02*
X143020828Y-107916052D01*
X143020828Y-107916052D02*
X143192257Y-108001766D01*
X143192257Y-108001766D02*
X143277971Y-108087480D01*
X143277971Y-108087480D02*
X143363685Y-108258909D01*
X143363685Y-108258909D02*
X143363685Y-108516052D01*
X143363685Y-108516052D02*
X143277971Y-108687480D01*
X143277971Y-108687480D02*
X143192257Y-108773195D01*
X143192257Y-108773195D02*
X143020828Y-108858909D01*
X143020828Y-108858909D02*
X142506542Y-108858909D01*
X142506542Y-108858909D02*
X142335114Y-108773195D01*
X142335114Y-108773195D02*
X142249400Y-108687480D01*
X142249400Y-108687480D02*
X142163685Y-108516052D01*
X142163685Y-108516052D02*
X142163685Y-108258909D01*
X142163685Y-110401766D02*
X143106542Y-110401766D01*
X143106542Y-110401766D02*
X143277971Y-110316051D01*
X143277971Y-110316051D02*
X143363685Y-110144623D01*
X143363685Y-110144623D02*
X143363685Y-109801766D01*
X143363685Y-109801766D02*
X143277971Y-109630337D01*
X142249400Y-110401766D02*
X142163685Y-110230337D01*
X142163685Y-110230337D02*
X142163685Y-109801766D01*
X142163685Y-109801766D02*
X142249400Y-109630337D01*
X142249400Y-109630337D02*
X142420828Y-109544623D01*
X142420828Y-109544623D02*
X142592257Y-109544623D01*
X142592257Y-109544623D02*
X142763685Y-109630337D01*
X142763685Y-109630337D02*
X142849400Y-109801766D01*
X142849400Y-109801766D02*
X142849400Y-110230337D01*
X142849400Y-110230337D02*
X142935114Y-110401766D01*
X142163685Y-111258908D02*
X143363685Y-111258908D01*
X143020828Y-111258908D02*
X143192257Y-111344622D01*
X143192257Y-111344622D02*
X143277971Y-111430337D01*
X143277971Y-111430337D02*
X143363685Y-111601765D01*
X143363685Y-111601765D02*
X143363685Y-111773194D01*
X142163685Y-113144623D02*
X143963685Y-113144623D01*
X142249400Y-113144623D02*
X142163685Y-112973194D01*
X142163685Y-112973194D02*
X142163685Y-112630337D01*
X142163685Y-112630337D02*
X142249400Y-112458908D01*
X142249400Y-112458908D02*
X142335114Y-112373194D01*
X142335114Y-112373194D02*
X142506542Y-112287480D01*
X142506542Y-112287480D02*
X143020828Y-112287480D01*
X143020828Y-112287480D02*
X143192257Y-112373194D01*
X143192257Y-112373194D02*
X143277971Y-112458908D01*
X143277971Y-112458908D02*
X143363685Y-112630337D01*
X143363685Y-112630337D02*
X143363685Y-112973194D01*
X143363685Y-112973194D02*
X143277971Y-113144623D01*
D11*
X128284616Y-104847500D02*
X128398902Y-104885595D01*
X128398902Y-104885595D02*
X128589378Y-104885595D01*
X128589378Y-104885595D02*
X128665569Y-104847500D01*
X128665569Y-104847500D02*
X128703664Y-104809404D01*
X128703664Y-104809404D02*
X128741759Y-104733214D01*
X128741759Y-104733214D02*
X128741759Y-104657023D01*
X128741759Y-104657023D02*
X128703664Y-104580833D01*
X128703664Y-104580833D02*
X128665569Y-104542738D01*
X128665569Y-104542738D02*
X128589378Y-104504642D01*
X128589378Y-104504642D02*
X128436997Y-104466547D01*
X128436997Y-104466547D02*
X128360807Y-104428452D01*
X128360807Y-104428452D02*
X128322712Y-104390357D01*
X128322712Y-104390357D02*
X128284616Y-104314166D01*
X128284616Y-104314166D02*
X128284616Y-104237976D01*
X128284616Y-104237976D02*
X128322712Y-104161785D01*
X128322712Y-104161785D02*
X128360807Y-104123690D01*
X128360807Y-104123690D02*
X128436997Y-104085595D01*
X128436997Y-104085595D02*
X128627474Y-104085595D01*
X128627474Y-104085595D02*
X128741759Y-104123690D01*
X129541760Y-104809404D02*
X129503664Y-104847500D01*
X129503664Y-104847500D02*
X129389379Y-104885595D01*
X129389379Y-104885595D02*
X129313188Y-104885595D01*
X129313188Y-104885595D02*
X129198902Y-104847500D01*
X129198902Y-104847500D02*
X129122712Y-104771309D01*
X129122712Y-104771309D02*
X129084617Y-104695119D01*
X129084617Y-104695119D02*
X129046521Y-104542738D01*
X129046521Y-104542738D02*
X129046521Y-104428452D01*
X129046521Y-104428452D02*
X129084617Y-104276071D01*
X129084617Y-104276071D02*
X129122712Y-104199880D01*
X129122712Y-104199880D02*
X129198902Y-104123690D01*
X129198902Y-104123690D02*
X129313188Y-104085595D01*
X129313188Y-104085595D02*
X129389379Y-104085595D01*
X129389379Y-104085595D02*
X129503664Y-104123690D01*
X129503664Y-104123690D02*
X129541760Y-104161785D01*
X130265569Y-104885595D02*
X129884617Y-104885595D01*
X129884617Y-104885595D02*
X129884617Y-104085595D01*
X124143188Y-66273690D02*
X124095569Y-66235595D01*
X124095569Y-66235595D02*
X124024140Y-66235595D01*
X124024140Y-66235595D02*
X123952712Y-66273690D01*
X123952712Y-66273690D02*
X123905093Y-66349880D01*
X123905093Y-66349880D02*
X123881283Y-66426071D01*
X123881283Y-66426071D02*
X123857474Y-66578452D01*
X123857474Y-66578452D02*
X123857474Y-66692738D01*
X123857474Y-66692738D02*
X123881283Y-66845119D01*
X123881283Y-66845119D02*
X123905093Y-66921309D01*
X123905093Y-66921309D02*
X123952712Y-66997500D01*
X123952712Y-66997500D02*
X124024140Y-67035595D01*
X124024140Y-67035595D02*
X124071759Y-67035595D01*
X124071759Y-67035595D02*
X124143188Y-66997500D01*
X124143188Y-66997500D02*
X124166997Y-66959404D01*
X124166997Y-66959404D02*
X124166997Y-66692738D01*
X124166997Y-66692738D02*
X124071759Y-66692738D01*
X124381283Y-67035595D02*
X124381283Y-66235595D01*
X124381283Y-66235595D02*
X124666997Y-67035595D01*
X124666997Y-67035595D02*
X124666997Y-66235595D01*
X124905093Y-67035595D02*
X124905093Y-66235595D01*
X124905093Y-66235595D02*
X125024141Y-66235595D01*
X125024141Y-66235595D02*
X125095569Y-66273690D01*
X125095569Y-66273690D02*
X125143188Y-66349880D01*
X125143188Y-66349880D02*
X125166998Y-66426071D01*
X125166998Y-66426071D02*
X125190807Y-66578452D01*
X125190807Y-66578452D02*
X125190807Y-66692738D01*
X125190807Y-66692738D02*
X125166998Y-66845119D01*
X125166998Y-66845119D02*
X125143188Y-66921309D01*
X125143188Y-66921309D02*
X125095569Y-66997500D01*
X125095569Y-66997500D02*
X125024141Y-67035595D01*
X125024141Y-67035595D02*
X124905093Y-67035595D01*
X103482712Y-119535595D02*
X103482712Y-118735595D01*
X103482712Y-119116547D02*
X103939855Y-119116547D01*
X103939855Y-119535595D02*
X103939855Y-118735595D01*
X104206521Y-118735595D02*
X104473188Y-119535595D01*
X104473188Y-119535595D02*
X104739854Y-118735595D01*
X105425568Y-119535595D02*
X104968425Y-119535595D01*
X105196997Y-119535595D02*
X105196997Y-118735595D01*
X105196997Y-118735595D02*
X105120806Y-118849880D01*
X105120806Y-118849880D02*
X105044616Y-118926071D01*
X105044616Y-118926071D02*
X104968425Y-118964166D01*
X86255595Y-85288716D02*
X85455595Y-85288716D01*
X85455595Y-85288716D02*
X85455595Y-85098240D01*
X85455595Y-85098240D02*
X85493690Y-85050621D01*
X85493690Y-85050621D02*
X85531785Y-85026811D01*
X85531785Y-85026811D02*
X85607976Y-85003002D01*
X85607976Y-85003002D02*
X85722261Y-85003002D01*
X85722261Y-85003002D02*
X85798452Y-85026811D01*
X85798452Y-85026811D02*
X85836547Y-85050621D01*
X85836547Y-85050621D02*
X85874642Y-85098240D01*
X85874642Y-85098240D02*
X85874642Y-85288716D01*
X86255595Y-84788716D02*
X85455595Y-84788716D01*
X85455595Y-84788716D02*
X85455595Y-84598240D01*
X85455595Y-84598240D02*
X85493690Y-84550621D01*
X85493690Y-84550621D02*
X85531785Y-84526811D01*
X85531785Y-84526811D02*
X85607976Y-84503002D01*
X85607976Y-84503002D02*
X85722261Y-84503002D01*
X85722261Y-84503002D02*
X85798452Y-84526811D01*
X85798452Y-84526811D02*
X85836547Y-84550621D01*
X85836547Y-84550621D02*
X85874642Y-84598240D01*
X85874642Y-84598240D02*
X85874642Y-84788716D01*
X86217500Y-84312525D02*
X86255595Y-84241097D01*
X86255595Y-84241097D02*
X86255595Y-84122049D01*
X86255595Y-84122049D02*
X86217500Y-84074430D01*
X86217500Y-84074430D02*
X86179404Y-84050621D01*
X86179404Y-84050621D02*
X86103214Y-84026811D01*
X86103214Y-84026811D02*
X86027023Y-84026811D01*
X86027023Y-84026811D02*
X85950833Y-84050621D01*
X85950833Y-84050621D02*
X85912738Y-84074430D01*
X85912738Y-84074430D02*
X85874642Y-84122049D01*
X85874642Y-84122049D02*
X85836547Y-84217287D01*
X85836547Y-84217287D02*
X85798452Y-84264906D01*
X85798452Y-84264906D02*
X85760357Y-84288716D01*
X85760357Y-84288716D02*
X85684166Y-84312525D01*
X85684166Y-84312525D02*
X85607976Y-84312525D01*
X85607976Y-84312525D02*
X85531785Y-84288716D01*
X85531785Y-84288716D02*
X85493690Y-84264906D01*
X85493690Y-84264906D02*
X85455595Y-84217287D01*
X85455595Y-84217287D02*
X85455595Y-84098240D01*
X85455595Y-84098240D02*
X85493690Y-84026811D01*
X124167474Y-79657023D02*
X124405569Y-79657023D01*
X124119855Y-79885595D02*
X124286521Y-79085595D01*
X124286521Y-79085595D02*
X124453188Y-79885595D01*
X124619854Y-79885595D02*
X124619854Y-79085595D01*
X124619854Y-79085595D02*
X124738902Y-79085595D01*
X124738902Y-79085595D02*
X124810330Y-79123690D01*
X124810330Y-79123690D02*
X124857949Y-79199880D01*
X124857949Y-79199880D02*
X124881759Y-79276071D01*
X124881759Y-79276071D02*
X124905568Y-79428452D01*
X124905568Y-79428452D02*
X124905568Y-79542738D01*
X124905568Y-79542738D02*
X124881759Y-79695119D01*
X124881759Y-79695119D02*
X124857949Y-79771309D01*
X124857949Y-79771309D02*
X124810330Y-79847500D01*
X124810330Y-79847500D02*
X124738902Y-79885595D01*
X124738902Y-79885595D02*
X124619854Y-79885595D01*
X125215092Y-79085595D02*
X125310330Y-79085595D01*
X125310330Y-79085595D02*
X125357949Y-79123690D01*
X125357949Y-79123690D02*
X125405568Y-79199880D01*
X125405568Y-79199880D02*
X125429378Y-79352261D01*
X125429378Y-79352261D02*
X125429378Y-79618928D01*
X125429378Y-79618928D02*
X125405568Y-79771309D01*
X125405568Y-79771309D02*
X125357949Y-79847500D01*
X125357949Y-79847500D02*
X125310330Y-79885595D01*
X125310330Y-79885595D02*
X125215092Y-79885595D01*
X125215092Y-79885595D02*
X125167473Y-79847500D01*
X125167473Y-79847500D02*
X125119854Y-79771309D01*
X125119854Y-79771309D02*
X125096045Y-79618928D01*
X125096045Y-79618928D02*
X125096045Y-79352261D01*
X125096045Y-79352261D02*
X125119854Y-79199880D01*
X125119854Y-79199880D02*
X125167473Y-79123690D01*
X125167473Y-79123690D02*
X125215092Y-79085595D01*
X111435759Y-113733690D02*
X111359569Y-113695595D01*
X111359569Y-113695595D02*
X111245283Y-113695595D01*
X111245283Y-113695595D02*
X111130997Y-113733690D01*
X111130997Y-113733690D02*
X111054807Y-113809880D01*
X111054807Y-113809880D02*
X111016712Y-113886071D01*
X111016712Y-113886071D02*
X110978616Y-114038452D01*
X110978616Y-114038452D02*
X110978616Y-114152738D01*
X110978616Y-114152738D02*
X111016712Y-114305119D01*
X111016712Y-114305119D02*
X111054807Y-114381309D01*
X111054807Y-114381309D02*
X111130997Y-114457500D01*
X111130997Y-114457500D02*
X111245283Y-114495595D01*
X111245283Y-114495595D02*
X111321474Y-114495595D01*
X111321474Y-114495595D02*
X111435759Y-114457500D01*
X111435759Y-114457500D02*
X111473855Y-114419404D01*
X111473855Y-114419404D02*
X111473855Y-114152738D01*
X111473855Y-114152738D02*
X111321474Y-114152738D01*
X111816712Y-114495595D02*
X111816712Y-113695595D01*
X111816712Y-113695595D02*
X112273855Y-114495595D01*
X112273855Y-114495595D02*
X112273855Y-113695595D01*
X112654807Y-114495595D02*
X112654807Y-113695595D01*
X112654807Y-113695595D02*
X112845283Y-113695595D01*
X112845283Y-113695595D02*
X112959569Y-113733690D01*
X112959569Y-113733690D02*
X113035759Y-113809880D01*
X113035759Y-113809880D02*
X113073854Y-113886071D01*
X113073854Y-113886071D02*
X113111950Y-114038452D01*
X113111950Y-114038452D02*
X113111950Y-114152738D01*
X113111950Y-114152738D02*
X113073854Y-114305119D01*
X113073854Y-114305119D02*
X113035759Y-114381309D01*
X113035759Y-114381309D02*
X112959569Y-114457500D01*
X112959569Y-114457500D02*
X112845283Y-114495595D01*
X112845283Y-114495595D02*
X112654807Y-114495595D01*
X88749404Y-97513002D02*
X88787500Y-97536811D01*
X88787500Y-97536811D02*
X88825595Y-97608240D01*
X88825595Y-97608240D02*
X88825595Y-97655859D01*
X88825595Y-97655859D02*
X88787500Y-97727287D01*
X88787500Y-97727287D02*
X88711309Y-97774906D01*
X88711309Y-97774906D02*
X88635119Y-97798716D01*
X88635119Y-97798716D02*
X88482738Y-97822525D01*
X88482738Y-97822525D02*
X88368452Y-97822525D01*
X88368452Y-97822525D02*
X88216071Y-97798716D01*
X88216071Y-97798716D02*
X88139880Y-97774906D01*
X88139880Y-97774906D02*
X88063690Y-97727287D01*
X88063690Y-97727287D02*
X88025595Y-97655859D01*
X88025595Y-97655859D02*
X88025595Y-97608240D01*
X88025595Y-97608240D02*
X88063690Y-97536811D01*
X88063690Y-97536811D02*
X88101785Y-97513002D01*
X88825595Y-97298716D02*
X88025595Y-97298716D01*
X88406547Y-97298716D02*
X88406547Y-97013002D01*
X88825595Y-97013002D02*
X88025595Y-97013002D01*
X88025595Y-96822525D02*
X88025595Y-96513001D01*
X88025595Y-96513001D02*
X88330357Y-96679668D01*
X88330357Y-96679668D02*
X88330357Y-96608239D01*
X88330357Y-96608239D02*
X88368452Y-96560620D01*
X88368452Y-96560620D02*
X88406547Y-96536811D01*
X88406547Y-96536811D02*
X88482738Y-96513001D01*
X88482738Y-96513001D02*
X88673214Y-96513001D01*
X88673214Y-96513001D02*
X88749404Y-96536811D01*
X88749404Y-96536811D02*
X88787500Y-96560620D01*
X88787500Y-96560620D02*
X88825595Y-96608239D01*
X88825595Y-96608239D02*
X88825595Y-96751096D01*
X88825595Y-96751096D02*
X88787500Y-96798715D01*
X88787500Y-96798715D02*
X88749404Y-96822525D01*
X124057474Y-71967500D02*
X124128902Y-72005595D01*
X124128902Y-72005595D02*
X124247950Y-72005595D01*
X124247950Y-72005595D02*
X124295569Y-71967500D01*
X124295569Y-71967500D02*
X124319378Y-71929404D01*
X124319378Y-71929404D02*
X124343188Y-71853214D01*
X124343188Y-71853214D02*
X124343188Y-71777023D01*
X124343188Y-71777023D02*
X124319378Y-71700833D01*
X124319378Y-71700833D02*
X124295569Y-71662738D01*
X124295569Y-71662738D02*
X124247950Y-71624642D01*
X124247950Y-71624642D02*
X124152712Y-71586547D01*
X124152712Y-71586547D02*
X124105093Y-71548452D01*
X124105093Y-71548452D02*
X124081283Y-71510357D01*
X124081283Y-71510357D02*
X124057474Y-71434166D01*
X124057474Y-71434166D02*
X124057474Y-71357976D01*
X124057474Y-71357976D02*
X124081283Y-71281785D01*
X124081283Y-71281785D02*
X124105093Y-71243690D01*
X124105093Y-71243690D02*
X124152712Y-71205595D01*
X124152712Y-71205595D02*
X124271759Y-71205595D01*
X124271759Y-71205595D02*
X124343188Y-71243690D01*
X124557473Y-72005595D02*
X124557473Y-71205595D01*
X124557473Y-71205595D02*
X124676521Y-71205595D01*
X124676521Y-71205595D02*
X124747949Y-71243690D01*
X124747949Y-71243690D02*
X124795568Y-71319880D01*
X124795568Y-71319880D02*
X124819378Y-71396071D01*
X124819378Y-71396071D02*
X124843187Y-71548452D01*
X124843187Y-71548452D02*
X124843187Y-71662738D01*
X124843187Y-71662738D02*
X124819378Y-71815119D01*
X124819378Y-71815119D02*
X124795568Y-71891309D01*
X124795568Y-71891309D02*
X124747949Y-71967500D01*
X124747949Y-71967500D02*
X124676521Y-72005595D01*
X124676521Y-72005595D02*
X124557473Y-72005595D01*
X125033664Y-71777023D02*
X125271759Y-71777023D01*
X124986045Y-72005595D02*
X125152711Y-71205595D01*
X125152711Y-71205595D02*
X125319378Y-72005595D01*
X103372712Y-117085595D02*
X103372712Y-116285595D01*
X103372712Y-116666547D02*
X103829855Y-116666547D01*
X103829855Y-117085595D02*
X103829855Y-116285595D01*
X104096521Y-116285595D02*
X104363188Y-117085595D01*
X104363188Y-117085595D02*
X104629854Y-116285595D01*
X104858425Y-116361785D02*
X104896521Y-116323690D01*
X104896521Y-116323690D02*
X104972711Y-116285595D01*
X104972711Y-116285595D02*
X105163187Y-116285595D01*
X105163187Y-116285595D02*
X105239378Y-116323690D01*
X105239378Y-116323690D02*
X105277473Y-116361785D01*
X105277473Y-116361785D02*
X105315568Y-116437976D01*
X105315568Y-116437976D02*
X105315568Y-116514166D01*
X105315568Y-116514166D02*
X105277473Y-116628452D01*
X105277473Y-116628452D02*
X104820330Y-117085595D01*
X104820330Y-117085595D02*
X105315568Y-117085595D01*
X103482712Y-106605595D02*
X103482712Y-105805595D01*
X103482712Y-106186547D02*
X103939855Y-106186547D01*
X103939855Y-106605595D02*
X103939855Y-105805595D01*
X104206521Y-105805595D02*
X104473188Y-106605595D01*
X104473188Y-106605595D02*
X104739854Y-105805595D01*
X105349378Y-106072261D02*
X105349378Y-106605595D01*
X105158902Y-105767500D02*
X104968425Y-106338928D01*
X104968425Y-106338928D02*
X105463664Y-106338928D01*
X111945378Y-120037595D02*
X111707283Y-120037595D01*
X111707283Y-120037595D02*
X111707283Y-119237595D01*
X112040617Y-119237595D02*
X112207283Y-120037595D01*
X112207283Y-120037595D02*
X112373950Y-119237595D01*
X112802521Y-120037595D02*
X112516807Y-120037595D01*
X112659664Y-120037595D02*
X112659664Y-119237595D01*
X112659664Y-119237595D02*
X112612045Y-119351880D01*
X112612045Y-119351880D02*
X112564426Y-119428071D01*
X112564426Y-119428071D02*
X112516807Y-119466166D01*
D10*
X77930588Y-94187438D02*
X77835350Y-94139819D01*
X77835350Y-94139819D02*
X77692493Y-94139819D01*
X77692493Y-94139819D02*
X77549636Y-94187438D01*
X77549636Y-94187438D02*
X77454398Y-94282676D01*
X77454398Y-94282676D02*
X77406779Y-94377914D01*
X77406779Y-94377914D02*
X77359160Y-94568390D01*
X77359160Y-94568390D02*
X77359160Y-94711247D01*
X77359160Y-94711247D02*
X77406779Y-94901723D01*
X77406779Y-94901723D02*
X77454398Y-94996961D01*
X77454398Y-94996961D02*
X77549636Y-95092200D01*
X77549636Y-95092200D02*
X77692493Y-95139819D01*
X77692493Y-95139819D02*
X77787731Y-95139819D01*
X77787731Y-95139819D02*
X77930588Y-95092200D01*
X77930588Y-95092200D02*
X77978207Y-95044580D01*
X77978207Y-95044580D02*
X77978207Y-94711247D01*
X77978207Y-94711247D02*
X77787731Y-94711247D01*
X78406779Y-94139819D02*
X78406779Y-94949342D01*
X78406779Y-94949342D02*
X78454398Y-95044580D01*
X78454398Y-95044580D02*
X78502017Y-95092200D01*
X78502017Y-95092200D02*
X78597255Y-95139819D01*
X78597255Y-95139819D02*
X78787731Y-95139819D01*
X78787731Y-95139819D02*
X78882969Y-95092200D01*
X78882969Y-95092200D02*
X78930588Y-95044580D01*
X78930588Y-95044580D02*
X78978207Y-94949342D01*
X78978207Y-94949342D02*
X78978207Y-94139819D01*
X79311541Y-94139819D02*
X79644874Y-95139819D01*
X79644874Y-95139819D02*
X79978207Y-94139819D01*
X80263922Y-94854104D02*
X80740112Y-94854104D01*
X80168684Y-95139819D02*
X80502017Y-94139819D01*
X80502017Y-94139819D02*
X80835350Y-95139819D01*
X138388969Y-125332295D02*
X138884207Y-125332295D01*
X138884207Y-125332295D02*
X138617541Y-125637057D01*
X138617541Y-125637057D02*
X138731826Y-125637057D01*
X138731826Y-125637057D02*
X138808017Y-125675152D01*
X138808017Y-125675152D02*
X138846112Y-125713247D01*
X138846112Y-125713247D02*
X138884207Y-125789438D01*
X138884207Y-125789438D02*
X138884207Y-125979914D01*
X138884207Y-125979914D02*
X138846112Y-126056104D01*
X138846112Y-126056104D02*
X138808017Y-126094200D01*
X138808017Y-126094200D02*
X138731826Y-126132295D01*
X138731826Y-126132295D02*
X138503255Y-126132295D01*
X138503255Y-126132295D02*
X138427064Y-126094200D01*
X138427064Y-126094200D02*
X138388969Y-126056104D01*
X139227065Y-126056104D02*
X139265160Y-126094200D01*
X139265160Y-126094200D02*
X139227065Y-126132295D01*
X139227065Y-126132295D02*
X139188969Y-126094200D01*
X139188969Y-126094200D02*
X139227065Y-126056104D01*
X139227065Y-126056104D02*
X139227065Y-126132295D01*
X139531826Y-125332295D02*
X140027064Y-125332295D01*
X140027064Y-125332295D02*
X139760398Y-125637057D01*
X139760398Y-125637057D02*
X139874683Y-125637057D01*
X139874683Y-125637057D02*
X139950874Y-125675152D01*
X139950874Y-125675152D02*
X139988969Y-125713247D01*
X139988969Y-125713247D02*
X140027064Y-125789438D01*
X140027064Y-125789438D02*
X140027064Y-125979914D01*
X140027064Y-125979914D02*
X139988969Y-126056104D01*
X139988969Y-126056104D02*
X139950874Y-126094200D01*
X139950874Y-126094200D02*
X139874683Y-126132295D01*
X139874683Y-126132295D02*
X139646112Y-126132295D01*
X139646112Y-126132295D02*
X139569921Y-126094200D01*
X139569921Y-126094200D02*
X139531826Y-126056104D01*
X140255636Y-125332295D02*
X140522303Y-126132295D01*
X140522303Y-126132295D02*
X140788969Y-125332295D01*
D11*
X88193690Y-94666811D02*
X88155595Y-94714430D01*
X88155595Y-94714430D02*
X88155595Y-94785859D01*
X88155595Y-94785859D02*
X88193690Y-94857287D01*
X88193690Y-94857287D02*
X88269880Y-94904906D01*
X88269880Y-94904906D02*
X88346071Y-94928716D01*
X88346071Y-94928716D02*
X88498452Y-94952525D01*
X88498452Y-94952525D02*
X88612738Y-94952525D01*
X88612738Y-94952525D02*
X88765119Y-94928716D01*
X88765119Y-94928716D02*
X88841309Y-94904906D01*
X88841309Y-94904906D02*
X88917500Y-94857287D01*
X88917500Y-94857287D02*
X88955595Y-94785859D01*
X88955595Y-94785859D02*
X88955595Y-94738240D01*
X88955595Y-94738240D02*
X88917500Y-94666811D01*
X88917500Y-94666811D02*
X88879404Y-94643002D01*
X88879404Y-94643002D02*
X88612738Y-94643002D01*
X88612738Y-94643002D02*
X88612738Y-94738240D01*
X88955595Y-94428716D02*
X88155595Y-94428716D01*
X88155595Y-94428716D02*
X88955595Y-94143002D01*
X88955595Y-94143002D02*
X88155595Y-94143002D01*
X88955595Y-93904906D02*
X88155595Y-93904906D01*
X88155595Y-93904906D02*
X88155595Y-93785858D01*
X88155595Y-93785858D02*
X88193690Y-93714430D01*
X88193690Y-93714430D02*
X88269880Y-93666811D01*
X88269880Y-93666811D02*
X88346071Y-93643001D01*
X88346071Y-93643001D02*
X88498452Y-93619192D01*
X88498452Y-93619192D02*
X88612738Y-93619192D01*
X88612738Y-93619192D02*
X88765119Y-93643001D01*
X88765119Y-93643001D02*
X88841309Y-93666811D01*
X88841309Y-93666811D02*
X88917500Y-93714430D01*
X88917500Y-93714430D02*
X88955595Y-93785858D01*
X88955595Y-93785858D02*
X88955595Y-93904906D01*
X130907474Y-104857500D02*
X130978902Y-104895595D01*
X130978902Y-104895595D02*
X131097950Y-104895595D01*
X131097950Y-104895595D02*
X131145569Y-104857500D01*
X131145569Y-104857500D02*
X131169378Y-104819404D01*
X131169378Y-104819404D02*
X131193188Y-104743214D01*
X131193188Y-104743214D02*
X131193188Y-104667023D01*
X131193188Y-104667023D02*
X131169378Y-104590833D01*
X131169378Y-104590833D02*
X131145569Y-104552738D01*
X131145569Y-104552738D02*
X131097950Y-104514642D01*
X131097950Y-104514642D02*
X131002712Y-104476547D01*
X131002712Y-104476547D02*
X130955093Y-104438452D01*
X130955093Y-104438452D02*
X130931283Y-104400357D01*
X130931283Y-104400357D02*
X130907474Y-104324166D01*
X130907474Y-104324166D02*
X130907474Y-104247976D01*
X130907474Y-104247976D02*
X130931283Y-104171785D01*
X130931283Y-104171785D02*
X130955093Y-104133690D01*
X130955093Y-104133690D02*
X131002712Y-104095595D01*
X131002712Y-104095595D02*
X131121759Y-104095595D01*
X131121759Y-104095595D02*
X131193188Y-104133690D01*
X131407473Y-104895595D02*
X131407473Y-104095595D01*
X131407473Y-104095595D02*
X131526521Y-104095595D01*
X131526521Y-104095595D02*
X131597949Y-104133690D01*
X131597949Y-104133690D02*
X131645568Y-104209880D01*
X131645568Y-104209880D02*
X131669378Y-104286071D01*
X131669378Y-104286071D02*
X131693187Y-104438452D01*
X131693187Y-104438452D02*
X131693187Y-104552738D01*
X131693187Y-104552738D02*
X131669378Y-104705119D01*
X131669378Y-104705119D02*
X131645568Y-104781309D01*
X131645568Y-104781309D02*
X131597949Y-104857500D01*
X131597949Y-104857500D02*
X131526521Y-104895595D01*
X131526521Y-104895595D02*
X131407473Y-104895595D01*
X131883664Y-104667023D02*
X132121759Y-104667023D01*
X131836045Y-104895595D02*
X132002711Y-104095595D01*
X132002711Y-104095595D02*
X132169378Y-104895595D01*
X104579378Y-104251595D02*
X104341283Y-104251595D01*
X104341283Y-104251595D02*
X104317474Y-104632547D01*
X104317474Y-104632547D02*
X104341283Y-104594452D01*
X104341283Y-104594452D02*
X104388902Y-104556357D01*
X104388902Y-104556357D02*
X104507950Y-104556357D01*
X104507950Y-104556357D02*
X104555569Y-104594452D01*
X104555569Y-104594452D02*
X104579378Y-104632547D01*
X104579378Y-104632547D02*
X104603188Y-104708738D01*
X104603188Y-104708738D02*
X104603188Y-104899214D01*
X104603188Y-104899214D02*
X104579378Y-104975404D01*
X104579378Y-104975404D02*
X104555569Y-105013500D01*
X104555569Y-105013500D02*
X104507950Y-105051595D01*
X104507950Y-105051595D02*
X104388902Y-105051595D01*
X104388902Y-105051595D02*
X104341283Y-105013500D01*
X104341283Y-105013500D02*
X104317474Y-104975404D01*
X104746045Y-104251595D02*
X104912711Y-105051595D01*
X104912711Y-105051595D02*
X105079378Y-104251595D01*
X111194521Y-111363595D02*
X111689759Y-111363595D01*
X111689759Y-111363595D02*
X111423093Y-111668357D01*
X111423093Y-111668357D02*
X111537378Y-111668357D01*
X111537378Y-111668357D02*
X111613569Y-111706452D01*
X111613569Y-111706452D02*
X111651664Y-111744547D01*
X111651664Y-111744547D02*
X111689759Y-111820738D01*
X111689759Y-111820738D02*
X111689759Y-112011214D01*
X111689759Y-112011214D02*
X111651664Y-112087404D01*
X111651664Y-112087404D02*
X111613569Y-112125500D01*
X111613569Y-112125500D02*
X111537378Y-112163595D01*
X111537378Y-112163595D02*
X111308807Y-112163595D01*
X111308807Y-112163595D02*
X111232616Y-112125500D01*
X111232616Y-112125500D02*
X111194521Y-112087404D01*
X112032617Y-112087404D02*
X112070712Y-112125500D01*
X112070712Y-112125500D02*
X112032617Y-112163595D01*
X112032617Y-112163595D02*
X111994521Y-112125500D01*
X111994521Y-112125500D02*
X112032617Y-112087404D01*
X112032617Y-112087404D02*
X112032617Y-112163595D01*
X112337378Y-111363595D02*
X112832616Y-111363595D01*
X112832616Y-111363595D02*
X112565950Y-111668357D01*
X112565950Y-111668357D02*
X112680235Y-111668357D01*
X112680235Y-111668357D02*
X112756426Y-111706452D01*
X112756426Y-111706452D02*
X112794521Y-111744547D01*
X112794521Y-111744547D02*
X112832616Y-111820738D01*
X112832616Y-111820738D02*
X112832616Y-112011214D01*
X112832616Y-112011214D02*
X112794521Y-112087404D01*
X112794521Y-112087404D02*
X112756426Y-112125500D01*
X112756426Y-112125500D02*
X112680235Y-112163595D01*
X112680235Y-112163595D02*
X112451664Y-112163595D01*
X112451664Y-112163595D02*
X112375473Y-112125500D01*
X112375473Y-112125500D02*
X112337378Y-112087404D01*
X113061188Y-111363595D02*
X113327855Y-112163595D01*
X113327855Y-112163595D02*
X113594521Y-111363595D01*
D10*
X100111666Y-103329819D02*
X100111666Y-104044104D01*
X100111666Y-104044104D02*
X100064047Y-104186961D01*
X100064047Y-104186961D02*
X99968809Y-104282200D01*
X99968809Y-104282200D02*
X99825952Y-104329819D01*
X99825952Y-104329819D02*
X99730714Y-104329819D01*
X100730714Y-103758390D02*
X100635476Y-103710771D01*
X100635476Y-103710771D02*
X100587857Y-103663152D01*
X100587857Y-103663152D02*
X100540238Y-103567914D01*
X100540238Y-103567914D02*
X100540238Y-103520295D01*
X100540238Y-103520295D02*
X100587857Y-103425057D01*
X100587857Y-103425057D02*
X100635476Y-103377438D01*
X100635476Y-103377438D02*
X100730714Y-103329819D01*
X100730714Y-103329819D02*
X100921190Y-103329819D01*
X100921190Y-103329819D02*
X101016428Y-103377438D01*
X101016428Y-103377438D02*
X101064047Y-103425057D01*
X101064047Y-103425057D02*
X101111666Y-103520295D01*
X101111666Y-103520295D02*
X101111666Y-103567914D01*
X101111666Y-103567914D02*
X101064047Y-103663152D01*
X101064047Y-103663152D02*
X101016428Y-103710771D01*
X101016428Y-103710771D02*
X100921190Y-103758390D01*
X100921190Y-103758390D02*
X100730714Y-103758390D01*
X100730714Y-103758390D02*
X100635476Y-103806009D01*
X100635476Y-103806009D02*
X100587857Y-103853628D01*
X100587857Y-103853628D02*
X100540238Y-103948866D01*
X100540238Y-103948866D02*
X100540238Y-104139342D01*
X100540238Y-104139342D02*
X100587857Y-104234580D01*
X100587857Y-104234580D02*
X100635476Y-104282200D01*
X100635476Y-104282200D02*
X100730714Y-104329819D01*
X100730714Y-104329819D02*
X100921190Y-104329819D01*
X100921190Y-104329819D02*
X101016428Y-104282200D01*
X101016428Y-104282200D02*
X101064047Y-104234580D01*
X101064047Y-104234580D02*
X101111666Y-104139342D01*
X101111666Y-104139342D02*
X101111666Y-103948866D01*
X101111666Y-103948866D02*
X101064047Y-103853628D01*
X101064047Y-103853628D02*
X101016428Y-103806009D01*
X101016428Y-103806009D02*
X100921190Y-103758390D01*
X85726666Y-62944819D02*
X85726666Y-63659104D01*
X85726666Y-63659104D02*
X85679047Y-63801961D01*
X85679047Y-63801961D02*
X85583809Y-63897200D01*
X85583809Y-63897200D02*
X85440952Y-63944819D01*
X85440952Y-63944819D02*
X85345714Y-63944819D01*
X86631428Y-62944819D02*
X86440952Y-62944819D01*
X86440952Y-62944819D02*
X86345714Y-62992438D01*
X86345714Y-62992438D02*
X86298095Y-63040057D01*
X86298095Y-63040057D02*
X86202857Y-63182914D01*
X86202857Y-63182914D02*
X86155238Y-63373390D01*
X86155238Y-63373390D02*
X86155238Y-63754342D01*
X86155238Y-63754342D02*
X86202857Y-63849580D01*
X86202857Y-63849580D02*
X86250476Y-63897200D01*
X86250476Y-63897200D02*
X86345714Y-63944819D01*
X86345714Y-63944819D02*
X86536190Y-63944819D01*
X86536190Y-63944819D02*
X86631428Y-63897200D01*
X86631428Y-63897200D02*
X86679047Y-63849580D01*
X86679047Y-63849580D02*
X86726666Y-63754342D01*
X86726666Y-63754342D02*
X86726666Y-63516247D01*
X86726666Y-63516247D02*
X86679047Y-63421009D01*
X86679047Y-63421009D02*
X86631428Y-63373390D01*
X86631428Y-63373390D02*
X86536190Y-63325771D01*
X86536190Y-63325771D02*
X86345714Y-63325771D01*
X86345714Y-63325771D02*
X86250476Y-63373390D01*
X86250476Y-63373390D02*
X86202857Y-63421009D01*
X86202857Y-63421009D02*
X86155238Y-63516247D01*
X103844819Y-94563333D02*
X104559104Y-94563333D01*
X104559104Y-94563333D02*
X104701961Y-94610952D01*
X104701961Y-94610952D02*
X104797200Y-94706190D01*
X104797200Y-94706190D02*
X104844819Y-94849047D01*
X104844819Y-94849047D02*
X104844819Y-94944285D01*
X103940057Y-94134761D02*
X103892438Y-94087142D01*
X103892438Y-94087142D02*
X103844819Y-93991904D01*
X103844819Y-93991904D02*
X103844819Y-93753809D01*
X103844819Y-93753809D02*
X103892438Y-93658571D01*
X103892438Y-93658571D02*
X103940057Y-93610952D01*
X103940057Y-93610952D02*
X104035295Y-93563333D01*
X104035295Y-93563333D02*
X104130533Y-93563333D01*
X104130533Y-93563333D02*
X104273390Y-93610952D01*
X104273390Y-93610952D02*
X104844819Y-94182380D01*
X104844819Y-94182380D02*
X104844819Y-93563333D01*
X118566666Y-63744819D02*
X118566666Y-64459104D01*
X118566666Y-64459104D02*
X118519047Y-64601961D01*
X118519047Y-64601961D02*
X118423809Y-64697200D01*
X118423809Y-64697200D02*
X118280952Y-64744819D01*
X118280952Y-64744819D02*
X118185714Y-64744819D01*
X119471428Y-64078152D02*
X119471428Y-64744819D01*
X119233333Y-63697200D02*
X118995238Y-64411485D01*
X118995238Y-64411485D02*
X119614285Y-64411485D01*
X122086666Y-88244819D02*
X122086666Y-88959104D01*
X122086666Y-88959104D02*
X122039047Y-89101961D01*
X122039047Y-89101961D02*
X121943809Y-89197200D01*
X121943809Y-89197200D02*
X121800952Y-89244819D01*
X121800952Y-89244819D02*
X121705714Y-89244819D01*
X123039047Y-88244819D02*
X122562857Y-88244819D01*
X122562857Y-88244819D02*
X122515238Y-88721009D01*
X122515238Y-88721009D02*
X122562857Y-88673390D01*
X122562857Y-88673390D02*
X122658095Y-88625771D01*
X122658095Y-88625771D02*
X122896190Y-88625771D01*
X122896190Y-88625771D02*
X122991428Y-88673390D01*
X122991428Y-88673390D02*
X123039047Y-88721009D01*
X123039047Y-88721009D02*
X123086666Y-88816247D01*
X123086666Y-88816247D02*
X123086666Y-89054342D01*
X123086666Y-89054342D02*
X123039047Y-89149580D01*
X123039047Y-89149580D02*
X122991428Y-89197200D01*
X122991428Y-89197200D02*
X122896190Y-89244819D01*
X122896190Y-89244819D02*
X122658095Y-89244819D01*
X122658095Y-89244819D02*
X122562857Y-89197200D01*
X122562857Y-89197200D02*
X122515238Y-89149580D01*
X87113333Y-66214819D02*
X86780000Y-65738628D01*
X86541905Y-66214819D02*
X86541905Y-65214819D01*
X86541905Y-65214819D02*
X86922857Y-65214819D01*
X86922857Y-65214819D02*
X87018095Y-65262438D01*
X87018095Y-65262438D02*
X87065714Y-65310057D01*
X87065714Y-65310057D02*
X87113333Y-65405295D01*
X87113333Y-65405295D02*
X87113333Y-65548152D01*
X87113333Y-65548152D02*
X87065714Y-65643390D01*
X87065714Y-65643390D02*
X87018095Y-65691009D01*
X87018095Y-65691009D02*
X86922857Y-65738628D01*
X86922857Y-65738628D02*
X86541905Y-65738628D01*
X87494286Y-65310057D02*
X87541905Y-65262438D01*
X87541905Y-65262438D02*
X87637143Y-65214819D01*
X87637143Y-65214819D02*
X87875238Y-65214819D01*
X87875238Y-65214819D02*
X87970476Y-65262438D01*
X87970476Y-65262438D02*
X88018095Y-65310057D01*
X88018095Y-65310057D02*
X88065714Y-65405295D01*
X88065714Y-65405295D02*
X88065714Y-65500533D01*
X88065714Y-65500533D02*
X88018095Y-65643390D01*
X88018095Y-65643390D02*
X87446667Y-66214819D01*
X87446667Y-66214819D02*
X88065714Y-66214819D01*
X81566666Y-101004819D02*
X81566666Y-101719104D01*
X81566666Y-101719104D02*
X81519047Y-101861961D01*
X81519047Y-101861961D02*
X81423809Y-101957200D01*
X81423809Y-101957200D02*
X81280952Y-102004819D01*
X81280952Y-102004819D02*
X81185714Y-102004819D01*
X82566666Y-102004819D02*
X81995238Y-102004819D01*
X82280952Y-102004819D02*
X82280952Y-101004819D01*
X82280952Y-101004819D02*
X82185714Y-101147676D01*
X82185714Y-101147676D02*
X82090476Y-101242914D01*
X82090476Y-101242914D02*
X81995238Y-101290533D01*
X143279905Y-122120819D02*
X143279905Y-121120819D01*
X143279905Y-121120819D02*
X143518000Y-121120819D01*
X143518000Y-121120819D02*
X143660857Y-121168438D01*
X143660857Y-121168438D02*
X143756095Y-121263676D01*
X143756095Y-121263676D02*
X143803714Y-121358914D01*
X143803714Y-121358914D02*
X143851333Y-121549390D01*
X143851333Y-121549390D02*
X143851333Y-121692247D01*
X143851333Y-121692247D02*
X143803714Y-121882723D01*
X143803714Y-121882723D02*
X143756095Y-121977961D01*
X143756095Y-121977961D02*
X143660857Y-122073200D01*
X143660857Y-122073200D02*
X143518000Y-122120819D01*
X143518000Y-122120819D02*
X143279905Y-122120819D01*
X144803714Y-122120819D02*
X144232286Y-122120819D01*
X144518000Y-122120819D02*
X144518000Y-121120819D01*
X144518000Y-121120819D02*
X144422762Y-121263676D01*
X144422762Y-121263676D02*
X144327524Y-121358914D01*
X144327524Y-121358914D02*
X144232286Y-121406533D01*
X96933333Y-100519580D02*
X96885714Y-100567200D01*
X96885714Y-100567200D02*
X96742857Y-100614819D01*
X96742857Y-100614819D02*
X96647619Y-100614819D01*
X96647619Y-100614819D02*
X96504762Y-100567200D01*
X96504762Y-100567200D02*
X96409524Y-100471961D01*
X96409524Y-100471961D02*
X96361905Y-100376723D01*
X96361905Y-100376723D02*
X96314286Y-100186247D01*
X96314286Y-100186247D02*
X96314286Y-100043390D01*
X96314286Y-100043390D02*
X96361905Y-99852914D01*
X96361905Y-99852914D02*
X96409524Y-99757676D01*
X96409524Y-99757676D02*
X96504762Y-99662438D01*
X96504762Y-99662438D02*
X96647619Y-99614819D01*
X96647619Y-99614819D02*
X96742857Y-99614819D01*
X96742857Y-99614819D02*
X96885714Y-99662438D01*
X96885714Y-99662438D02*
X96933333Y-99710057D01*
X97885714Y-100614819D02*
X97314286Y-100614819D01*
X97600000Y-100614819D02*
X97600000Y-99614819D01*
X97600000Y-99614819D02*
X97504762Y-99757676D01*
X97504762Y-99757676D02*
X97409524Y-99852914D01*
X97409524Y-99852914D02*
X97314286Y-99900533D01*
X89988095Y-101194819D02*
X89988095Y-102004342D01*
X89988095Y-102004342D02*
X90035714Y-102099580D01*
X90035714Y-102099580D02*
X90083333Y-102147200D01*
X90083333Y-102147200D02*
X90178571Y-102194819D01*
X90178571Y-102194819D02*
X90369047Y-102194819D01*
X90369047Y-102194819D02*
X90464285Y-102147200D01*
X90464285Y-102147200D02*
X90511904Y-102099580D01*
X90511904Y-102099580D02*
X90559523Y-102004342D01*
X90559523Y-102004342D02*
X90559523Y-101194819D01*
X91559523Y-102194819D02*
X90988095Y-102194819D01*
X91273809Y-102194819D02*
X91273809Y-101194819D01*
X91273809Y-101194819D02*
X91178571Y-101337676D01*
X91178571Y-101337676D02*
X91083333Y-101432914D01*
X91083333Y-101432914D02*
X90988095Y-101480533D01*
X79344819Y-110066666D02*
X78868628Y-110399999D01*
X79344819Y-110638094D02*
X78344819Y-110638094D01*
X78344819Y-110638094D02*
X78344819Y-110257142D01*
X78344819Y-110257142D02*
X78392438Y-110161904D01*
X78392438Y-110161904D02*
X78440057Y-110114285D01*
X78440057Y-110114285D02*
X78535295Y-110066666D01*
X78535295Y-110066666D02*
X78678152Y-110066666D01*
X78678152Y-110066666D02*
X78773390Y-110114285D01*
X78773390Y-110114285D02*
X78821009Y-110161904D01*
X78821009Y-110161904D02*
X78868628Y-110257142D01*
X78868628Y-110257142D02*
X78868628Y-110638094D01*
X79344819Y-109114285D02*
X79344819Y-109685713D01*
X79344819Y-109399999D02*
X78344819Y-109399999D01*
X78344819Y-109399999D02*
X78487676Y-109495237D01*
X78487676Y-109495237D02*
X78582914Y-109590475D01*
X78582914Y-109590475D02*
X78630533Y-109685713D01*
X114855476Y-103329819D02*
X114855476Y-104044104D01*
X114855476Y-104044104D02*
X114807857Y-104186961D01*
X114807857Y-104186961D02*
X114712619Y-104282200D01*
X114712619Y-104282200D02*
X114569762Y-104329819D01*
X114569762Y-104329819D02*
X114474524Y-104329819D01*
X115855476Y-104329819D02*
X115284048Y-104329819D01*
X115569762Y-104329819D02*
X115569762Y-103329819D01*
X115569762Y-103329819D02*
X115474524Y-103472676D01*
X115474524Y-103472676D02*
X115379286Y-103567914D01*
X115379286Y-103567914D02*
X115284048Y-103615533D01*
X116474524Y-103329819D02*
X116569762Y-103329819D01*
X116569762Y-103329819D02*
X116665000Y-103377438D01*
X116665000Y-103377438D02*
X116712619Y-103425057D01*
X116712619Y-103425057D02*
X116760238Y-103520295D01*
X116760238Y-103520295D02*
X116807857Y-103710771D01*
X116807857Y-103710771D02*
X116807857Y-103948866D01*
X116807857Y-103948866D02*
X116760238Y-104139342D01*
X116760238Y-104139342D02*
X116712619Y-104234580D01*
X116712619Y-104234580D02*
X116665000Y-104282200D01*
X116665000Y-104282200D02*
X116569762Y-104329819D01*
X116569762Y-104329819D02*
X116474524Y-104329819D01*
X116474524Y-104329819D02*
X116379286Y-104282200D01*
X116379286Y-104282200D02*
X116331667Y-104234580D01*
X116331667Y-104234580D02*
X116284048Y-104139342D01*
X116284048Y-104139342D02*
X116236429Y-103948866D01*
X116236429Y-103948866D02*
X116236429Y-103710771D01*
X116236429Y-103710771D02*
X116284048Y-103520295D01*
X116284048Y-103520295D02*
X116331667Y-103425057D01*
X116331667Y-103425057D02*
X116379286Y-103377438D01*
X116379286Y-103377438D02*
X116474524Y-103329819D01*
X83036666Y-90514819D02*
X83036666Y-91229104D01*
X83036666Y-91229104D02*
X82989047Y-91371961D01*
X82989047Y-91371961D02*
X82893809Y-91467200D01*
X82893809Y-91467200D02*
X82750952Y-91514819D01*
X82750952Y-91514819D02*
X82655714Y-91514819D01*
X83417619Y-90514819D02*
X84084285Y-90514819D01*
X84084285Y-90514819D02*
X83655714Y-91514819D01*
X139978333Y-122214819D02*
X139645000Y-121738628D01*
X139406905Y-122214819D02*
X139406905Y-121214819D01*
X139406905Y-121214819D02*
X139787857Y-121214819D01*
X139787857Y-121214819D02*
X139883095Y-121262438D01*
X139883095Y-121262438D02*
X139930714Y-121310057D01*
X139930714Y-121310057D02*
X139978333Y-121405295D01*
X139978333Y-121405295D02*
X139978333Y-121548152D01*
X139978333Y-121548152D02*
X139930714Y-121643390D01*
X139930714Y-121643390D02*
X139883095Y-121691009D01*
X139883095Y-121691009D02*
X139787857Y-121738628D01*
X139787857Y-121738628D02*
X139406905Y-121738628D01*
X140311667Y-121214819D02*
X140930714Y-121214819D01*
X140930714Y-121214819D02*
X140597381Y-121595771D01*
X140597381Y-121595771D02*
X140740238Y-121595771D01*
X140740238Y-121595771D02*
X140835476Y-121643390D01*
X140835476Y-121643390D02*
X140883095Y-121691009D01*
X140883095Y-121691009D02*
X140930714Y-121786247D01*
X140930714Y-121786247D02*
X140930714Y-122024342D01*
X140930714Y-122024342D02*
X140883095Y-122119580D01*
X140883095Y-122119580D02*
X140835476Y-122167200D01*
X140835476Y-122167200D02*
X140740238Y-122214819D01*
X140740238Y-122214819D02*
X140454524Y-122214819D01*
X140454524Y-122214819D02*
X140359286Y-122167200D01*
X140359286Y-122167200D02*
X140311667Y-122119580D01*
X135302666Y-104102819D02*
X135302666Y-104817104D01*
X135302666Y-104817104D02*
X135255047Y-104959961D01*
X135255047Y-104959961D02*
X135159809Y-105055200D01*
X135159809Y-105055200D02*
X135016952Y-105102819D01*
X135016952Y-105102819D02*
X134921714Y-105102819D01*
X135683619Y-104102819D02*
X136302666Y-104102819D01*
X136302666Y-104102819D02*
X135969333Y-104483771D01*
X135969333Y-104483771D02*
X136112190Y-104483771D01*
X136112190Y-104483771D02*
X136207428Y-104531390D01*
X136207428Y-104531390D02*
X136255047Y-104579009D01*
X136255047Y-104579009D02*
X136302666Y-104674247D01*
X136302666Y-104674247D02*
X136302666Y-104912342D01*
X136302666Y-104912342D02*
X136255047Y-105007580D01*
X136255047Y-105007580D02*
X136207428Y-105055200D01*
X136207428Y-105055200D02*
X136112190Y-105102819D01*
X136112190Y-105102819D02*
X135826476Y-105102819D01*
X135826476Y-105102819D02*
X135731238Y-105055200D01*
X135731238Y-105055200D02*
X135683619Y-105007580D01*
X141504819Y-130073333D02*
X142219104Y-130073333D01*
X142219104Y-130073333D02*
X142361961Y-130120952D01*
X142361961Y-130120952D02*
X142457200Y-130216190D01*
X142457200Y-130216190D02*
X142504819Y-130359047D01*
X142504819Y-130359047D02*
X142504819Y-130454285D01*
X142504819Y-129549523D02*
X142504819Y-129359047D01*
X142504819Y-129359047D02*
X142457200Y-129263809D01*
X142457200Y-129263809D02*
X142409580Y-129216190D01*
X142409580Y-129216190D02*
X142266723Y-129120952D01*
X142266723Y-129120952D02*
X142076247Y-129073333D01*
X142076247Y-129073333D02*
X141695295Y-129073333D01*
X141695295Y-129073333D02*
X141600057Y-129120952D01*
X141600057Y-129120952D02*
X141552438Y-129168571D01*
X141552438Y-129168571D02*
X141504819Y-129263809D01*
X141504819Y-129263809D02*
X141504819Y-129454285D01*
X141504819Y-129454285D02*
X141552438Y-129549523D01*
X141552438Y-129549523D02*
X141600057Y-129597142D01*
X141600057Y-129597142D02*
X141695295Y-129644761D01*
X141695295Y-129644761D02*
X141933390Y-129644761D01*
X141933390Y-129644761D02*
X142028628Y-129597142D01*
X142028628Y-129597142D02*
X142076247Y-129549523D01*
X142076247Y-129549523D02*
X142123866Y-129454285D01*
X142123866Y-129454285D02*
X142123866Y-129263809D01*
X142123866Y-129263809D02*
X142076247Y-129168571D01*
X142076247Y-129168571D02*
X142028628Y-129120952D01*
X142028628Y-129120952D02*
X141933390Y-129073333D01*
D14*
%TO.C,J8*%
X99115000Y-107915000D02*
X99115000Y-120675000D01*
X99115000Y-107915000D02*
X101775000Y-107915000D01*
X99115000Y-120675000D02*
X101775000Y-120675000D01*
X100445000Y-105315000D02*
X101775000Y-105315000D01*
X101775000Y-105315000D02*
X101775000Y-106645000D01*
X101775000Y-107915000D02*
X101775000Y-120675000D01*
%TO.C,J6*%
X82125000Y-65830000D02*
X82125000Y-86210000D01*
X82125000Y-65830000D02*
X84785000Y-65830000D01*
X82125000Y-86210000D02*
X84785000Y-86210000D01*
X83455000Y-63230000D02*
X84785000Y-63230000D01*
X84785000Y-63230000D02*
X84785000Y-64560000D01*
X84785000Y-65830000D02*
X84785000Y-86210000D01*
%TO.C,J2*%
X108430000Y-95560000D02*
X113570000Y-95560000D01*
X108430000Y-95560000D02*
X108430000Y-92900000D01*
X113570000Y-95560000D02*
X113570000Y-92900000D01*
X105830000Y-94230000D02*
X105830000Y-92900000D01*
X105830000Y-92900000D02*
X107160000Y-92900000D01*
X108430000Y-92900000D02*
X113570000Y-92900000D01*
%TO.C,J4*%
X120145000Y-65645000D02*
X120145000Y-83485000D01*
X120145000Y-65645000D02*
X122805000Y-65645000D01*
X120145000Y-83485000D02*
X122805000Y-83485000D01*
X121475000Y-63045000D02*
X122805000Y-63045000D01*
X122805000Y-63045000D02*
X122805000Y-64375000D01*
X122805000Y-65645000D02*
X122805000Y-83485000D01*
%TO.C,J5*%
X131375000Y-88420000D02*
X123695000Y-88420000D01*
X131375000Y-88420000D02*
X131375000Y-91080000D01*
X123695000Y-88420000D02*
X123695000Y-91080000D01*
X133975000Y-89750000D02*
X133975000Y-91080000D01*
X133975000Y-91080000D02*
X132645000Y-91080000D01*
X131375000Y-91080000D02*
X123695000Y-91080000D01*
%TO.C,R2*%
X87822500Y-67687742D02*
X87822500Y-68162258D01*
X86777500Y-67687742D02*
X86777500Y-68162258D01*
%TO.C,J1*%
X80570000Y-105590000D02*
X80570000Y-108190000D01*
X80570000Y-105590000D02*
X83230000Y-105590000D01*
X80570000Y-108190000D02*
X83230000Y-108190000D01*
X81900000Y-102990000D02*
X83230000Y-102990000D01*
X83230000Y-102990000D02*
X83230000Y-104320000D01*
X83230000Y-105590000D02*
X83230000Y-108190000D01*
%TO.C,D1*%
X143058000Y-125891000D02*
X144978000Y-125891000D01*
X144978000Y-125891000D02*
X144978000Y-123206000D01*
X143058000Y-123206000D02*
X143058000Y-125891000D01*
%TO.C,C1*%
X96365000Y-103381252D02*
X96365000Y-102858748D01*
X97835000Y-103381252D02*
X97835000Y-102858748D01*
%TO.C,G\u002A\u002A\u002A*%
G36*
X108582667Y-135622475D02*
G01*
X108582667Y-137109097D01*
X108328667Y-137109097D01*
X108074667Y-137109097D01*
X108074667Y-135622475D01*
X108074667Y-134135853D01*
X108328667Y-134135853D01*
X108582667Y-134135853D01*
X108582667Y-135622475D01*
G37*
G36*
X120605334Y-134390702D02*
G01*
X120596085Y-134541567D01*
X120539218Y-134616798D01*
X120391053Y-134642690D01*
X120182000Y-134645552D01*
X119758667Y-134645552D01*
X119758667Y-135877324D01*
X119758667Y-137109097D01*
X119462334Y-137109097D01*
X119166000Y-137109097D01*
X119166000Y-135877324D01*
X119166000Y-134645552D01*
X118742667Y-134645552D01*
X118492064Y-134639984D01*
X118367097Y-134605750D01*
X118324087Y-134516553D01*
X118319334Y-134390702D01*
X118319334Y-134135853D01*
X119462334Y-134135853D01*
X120605334Y-134135853D01*
X120605334Y-134390702D01*
G37*
G36*
X112816000Y-134730502D02*
G01*
X112816000Y-135325150D01*
X113535667Y-135325150D01*
X114255334Y-135325150D01*
X114255334Y-134730502D01*
X114255334Y-134135853D01*
X114551667Y-134135853D01*
X114848000Y-134135853D01*
X114848000Y-135622475D01*
X114848000Y-137109097D01*
X114551667Y-137109097D01*
X114255334Y-137109097D01*
X114255334Y-136514448D01*
X114255334Y-135919799D01*
X113535667Y-135919799D01*
X112816000Y-135919799D01*
X112816000Y-136514448D01*
X112816000Y-137109097D01*
X112519667Y-137109097D01*
X112223334Y-137109097D01*
X112223334Y-135622475D01*
X112223334Y-134135853D01*
X112519667Y-134135853D01*
X112816000Y-134135853D01*
X112816000Y-134730502D01*
G37*
G36*
X103167883Y-134170635D02*
G01*
X103333904Y-134276020D01*
X103413174Y-134405981D01*
X103537236Y-134665191D01*
X103692761Y-135023320D01*
X103866425Y-135450036D01*
X103990822Y-135771137D01*
X104498534Y-137109097D01*
X104191100Y-137108633D01*
X103883667Y-137108169D01*
X103425149Y-135876860D01*
X103261179Y-135453357D01*
X103109616Y-135092759D01*
X102982904Y-134822394D01*
X102893487Y-134669588D01*
X102864458Y-134645552D01*
X102800007Y-134720585D01*
X102688968Y-134927643D01*
X102544195Y-135239663D01*
X102378544Y-135629585D01*
X102279316Y-135877324D01*
X101796347Y-137109097D01*
X101497448Y-137109097D01*
X101290573Y-137086964D01*
X101237353Y-137017736D01*
X101242040Y-137002910D01*
X101286665Y-136890181D01*
X101381100Y-136649203D01*
X101513607Y-136310006D01*
X101672450Y-135902621D01*
X101765005Y-135664950D01*
X101941257Y-135226954D01*
X102109176Y-134836344D01*
X102254242Y-134525002D01*
X102361934Y-134324811D01*
X102397558Y-134276020D01*
X102622008Y-134152244D01*
X102867667Y-134118863D01*
X103167883Y-134170635D01*
G37*
G36*
X111630667Y-134390702D02*
G01*
X111630667Y-134645552D01*
X111101500Y-134646026D01*
X110598928Y-134668129D01*
X110235711Y-134739721D01*
X109986634Y-134870279D01*
X109826481Y-135069285D01*
X109794657Y-135137318D01*
X109700545Y-135521189D01*
X109717599Y-135905720D01*
X109838130Y-136237157D01*
X109976059Y-136405458D01*
X110110472Y-136502939D01*
X110265939Y-136561384D01*
X110488512Y-136590298D01*
X110824247Y-136599186D01*
X110915721Y-136599398D01*
X111630667Y-136599398D01*
X111630667Y-136854247D01*
X111630667Y-137109097D01*
X110847500Y-137103712D01*
X110480305Y-137093788D01*
X110161910Y-137071809D01*
X109941618Y-137041729D01*
X109888095Y-137026793D01*
X109649989Y-136861658D01*
X109424285Y-136594088D01*
X109258854Y-136287778D01*
X109210877Y-136125736D01*
X109176417Y-135741604D01*
X109199129Y-135332813D01*
X109271067Y-134960714D01*
X109384285Y-134686661D01*
X109400276Y-134663266D01*
X109633516Y-134418422D01*
X109930729Y-134256507D01*
X110323935Y-134166187D01*
X110845155Y-134136126D01*
X110889834Y-134135985D01*
X111630667Y-134135853D01*
X111630667Y-134390702D01*
G37*
G36*
X105965146Y-134149976D02*
G01*
X106988292Y-134178328D01*
X107244790Y-134466584D01*
X107405248Y-134671689D01*
X107468395Y-134855019D01*
X107461822Y-135104625D01*
X107457438Y-135145179D01*
X107392716Y-135443961D01*
X107252458Y-135660461D01*
X107141347Y-135763553D01*
X106869106Y-135991590D01*
X107175553Y-136497744D01*
X107328031Y-136756609D01*
X107437775Y-136956315D01*
X107481922Y-137055175D01*
X107482000Y-137056497D01*
X107407893Y-137091877D01*
X107227416Y-137107445D01*
X107206834Y-137107470D01*
X107056288Y-137092361D01*
X106936364Y-137028083D01*
X106812984Y-136883065D01*
X106652069Y-136625736D01*
X106610798Y-136555296D01*
X106289929Y-136004749D01*
X105869964Y-136004749D01*
X105450000Y-136004749D01*
X105450000Y-136556923D01*
X105450000Y-137109097D01*
X105196000Y-137109097D01*
X104942000Y-137109097D01*
X104942000Y-136404013D01*
X104954781Y-136010219D01*
X104990783Y-135731010D01*
X105043600Y-135596990D01*
X105187008Y-135541945D01*
X105471836Y-135506835D01*
X105853500Y-135495050D01*
X106298542Y-135482985D01*
X106600041Y-135440005D01*
X106782519Y-135355933D01*
X106870501Y-135220594D01*
X106889334Y-135065210D01*
X106859281Y-134894589D01*
X106754024Y-134775306D01*
X106550917Y-134699379D01*
X106227312Y-134658827D01*
X105760561Y-134645669D01*
X105698488Y-134645552D01*
X104942000Y-134645552D01*
X104942000Y-134383588D01*
X104942000Y-134121624D01*
X105965146Y-134149976D01*
G37*
G36*
X94890473Y-134190674D02*
G01*
X95242977Y-134280104D01*
X95441055Y-134377644D01*
X95709937Y-134667046D01*
X95884233Y-135055846D01*
X95962226Y-135501372D01*
X95942202Y-135960954D01*
X95822444Y-136391921D01*
X95601237Y-136751603D01*
X95539127Y-136816602D01*
X95403905Y-136935801D01*
X95270056Y-137011395D01*
X95093291Y-137055130D01*
X94829320Y-137078755D01*
X94501424Y-137091861D01*
X94108954Y-137098702D01*
X93839551Y-137084566D01*
X93647582Y-137043151D01*
X93487413Y-136968150D01*
X93452611Y-136946956D01*
X93148051Y-136659043D01*
X92954204Y-136258901D01*
X92877711Y-135768326D01*
X92888547Y-135639516D01*
X93427334Y-135639516D01*
X93453729Y-136039286D01*
X93549081Y-136312409D01*
X93737638Y-136481118D01*
X94043649Y-136567646D01*
X94468349Y-136594013D01*
X94772229Y-136584795D01*
X94970090Y-136536824D01*
X95123984Y-136432055D01*
X95166849Y-136390885D01*
X95285194Y-136246066D01*
X95347785Y-136077189D01*
X95370560Y-135826499D01*
X95371974Y-135647574D01*
X95349899Y-135297281D01*
X95293235Y-135039721D01*
X95251336Y-134956607D01*
X95051818Y-134811752D01*
X94739286Y-134718000D01*
X94365411Y-134686905D01*
X94123619Y-134704414D01*
X93784505Y-134804198D01*
X93564504Y-135004256D01*
X93450725Y-135321899D01*
X93427334Y-135639516D01*
X92888547Y-135639516D01*
X92924390Y-135213451D01*
X93082742Y-134763214D01*
X93360890Y-134425319D01*
X93748187Y-134212684D01*
X93749611Y-134212212D01*
X94081787Y-134150664D01*
X94482742Y-134145507D01*
X94890473Y-134190674D01*
G37*
G36*
X117896000Y-134375627D02*
G01*
X117896000Y-134629631D01*
X117052186Y-134658829D01*
X116567707Y-134690056D01*
X116235508Y-134749283D01*
X116039825Y-134843568D01*
X115964895Y-134979966D01*
X115985102Y-135136606D01*
X116049202Y-135251559D01*
X116174137Y-135329884D01*
X116387353Y-135377969D01*
X116716293Y-135402202D01*
X117155167Y-135408940D01*
X117509910Y-135411557D01*
X117728343Y-135424101D01*
X117843488Y-135455649D01*
X117888366Y-135515280D01*
X117896000Y-135612070D01*
X117896000Y-135612595D01*
X117888597Y-135705237D01*
X117845695Y-135765867D01*
X117736254Y-135803247D01*
X117529235Y-135826140D01*
X117193598Y-135843307D01*
X117059219Y-135848811D01*
X116577628Y-135881826D01*
X116245746Y-135939687D01*
X116044965Y-136028635D01*
X115956679Y-136154916D01*
X115948667Y-136221458D01*
X115987228Y-136382568D01*
X116116911Y-136493600D01*
X116358716Y-136561724D01*
X116733639Y-136594112D01*
X117055381Y-136599398D01*
X117896000Y-136599398D01*
X117896000Y-136854247D01*
X117896000Y-137109097D01*
X116943500Y-137106514D01*
X116542244Y-137097443D01*
X116191654Y-137074859D01*
X115933872Y-137042350D01*
X115821667Y-137011003D01*
X115581127Y-136820136D01*
X115463193Y-136557621D01*
X115440667Y-136299003D01*
X115484439Y-135984561D01*
X115611314Y-135791182D01*
X115781961Y-135636232D01*
X115611314Y-135453978D01*
X115466405Y-135185175D01*
X115448128Y-134863159D01*
X115554627Y-134545382D01*
X115644809Y-134416677D01*
X115737380Y-134316176D01*
X115833826Y-134247801D01*
X115968066Y-134204185D01*
X116174020Y-134177959D01*
X116485605Y-134161753D01*
X116872476Y-134149976D01*
X117896000Y-134121624D01*
X117896000Y-134375627D01*
G37*
G36*
X97966752Y-134158679D02*
G01*
X98142818Y-134247211D01*
X98247188Y-134359684D01*
X98323431Y-134475147D01*
X98374005Y-134613694D01*
X98404002Y-134810914D01*
X98418514Y-135102398D01*
X98422630Y-135523737D01*
X98422667Y-135586443D01*
X98427059Y-136056981D01*
X98444146Y-136391408D01*
X98479788Y-136586408D01*
X98539849Y-136638664D01*
X98630191Y-136544862D01*
X98756678Y-136301685D01*
X98925170Y-135905817D01*
X99141532Y-135353943D01*
X99226402Y-135131858D01*
X99377905Y-134763996D01*
X99522903Y-134465245D01*
X99643241Y-134270859D01*
X99696681Y-134218647D01*
X99972546Y-134140697D01*
X100282002Y-134152352D01*
X100547247Y-134246303D01*
X100624000Y-134305752D01*
X100688797Y-134383883D01*
X100734669Y-134485952D01*
X100764835Y-134640223D01*
X100782516Y-134874963D01*
X100790932Y-135218437D01*
X100793300Y-135698912D01*
X100793334Y-135792375D01*
X100793334Y-137109097D01*
X100497000Y-137109097D01*
X100200667Y-137109097D01*
X100200667Y-135877324D01*
X100197009Y-135369181D01*
X100184912Y-135011467D01*
X100162692Y-134784850D01*
X100128665Y-134669995D01*
X100093371Y-134645552D01*
X100025581Y-134720974D01*
X99914254Y-134928756D01*
X99772566Y-135241168D01*
X99613692Y-135630481D01*
X99564205Y-135759295D01*
X99353985Y-136289209D01*
X99174239Y-136675723D01*
X99010008Y-136939105D01*
X98846331Y-137099625D01*
X98668250Y-137177551D01*
X98505295Y-137194047D01*
X98265494Y-137140088D01*
X98072213Y-137031847D01*
X97990256Y-136955558D01*
X97933249Y-136862106D01*
X97895594Y-136720175D01*
X97871693Y-136498450D01*
X97855949Y-136165617D01*
X97844438Y-135757599D01*
X97828353Y-135280116D01*
X97806388Y-134951661D01*
X97775921Y-134751394D01*
X97734328Y-134658473D01*
X97704430Y-134645552D01*
X97632862Y-134723208D01*
X97518072Y-134943409D01*
X97368819Y-135287003D01*
X97193863Y-135734838D01*
X97141088Y-135877324D01*
X96689859Y-137109097D01*
X96413263Y-137109097D01*
X96225245Y-137099110D01*
X96137512Y-137074774D01*
X96136667Y-137071860D01*
X96166479Y-136960301D01*
X96247393Y-136724525D01*
X96366623Y-136397658D01*
X96511383Y-136012827D01*
X96668886Y-135603158D01*
X96826349Y-135201777D01*
X96970984Y-134841811D01*
X97090006Y-134556386D01*
X97170630Y-134378629D01*
X97188892Y-134345659D01*
X97315511Y-134206798D01*
X97494831Y-134146180D01*
X97698807Y-134135853D01*
X97966752Y-134158679D01*
G37*
%TO.C,U1*%
X88100000Y-102740000D02*
X88100000Y-123180000D01*
X88100000Y-123180000D02*
X93400000Y-123180000D01*
X89750000Y-102740000D02*
X88100000Y-102740000D01*
X93400000Y-102740000D02*
X91750000Y-102740000D01*
X93400000Y-123180000D02*
X93400000Y-102740000D01*
X89750000Y-102740000D02*
G75*
G03*
X91750000Y-102740000I1000000J0D01*
G01*
%TO.C,R1*%
X81312258Y-110422500D02*
X80837742Y-110422500D01*
X81312258Y-109377500D02*
X80837742Y-109377500D01*
%TO.C,J10*%
X114335000Y-107915000D02*
X114335000Y-120675000D01*
X114335000Y-107915000D02*
X116995000Y-107915000D01*
X114335000Y-120675000D02*
X116995000Y-120675000D01*
X115665000Y-105315000D02*
X116995000Y-105315000D01*
X116995000Y-105315000D02*
X116995000Y-106645000D01*
X116995000Y-107915000D02*
X116995000Y-120675000D01*
%TO.C,J7*%
X84830000Y-93365000D02*
X84830000Y-98505000D01*
X84830000Y-93365000D02*
X87490000Y-93365000D01*
X84830000Y-98505000D02*
X87490000Y-98505000D01*
X86160000Y-90765000D02*
X87490000Y-90765000D01*
X87490000Y-90765000D02*
X87490000Y-92095000D01*
X87490000Y-93365000D02*
X87490000Y-98505000D01*
%TO.C,R3*%
X139907742Y-122667500D02*
X140382258Y-122667500D01*
X139907742Y-123712500D02*
X140382258Y-123712500D01*
%TO.C,J3*%
X124870000Y-103290000D02*
X135090000Y-103290000D01*
X124870000Y-103290000D02*
X124870000Y-100630000D01*
X135090000Y-103290000D02*
X135090000Y-100630000D01*
X122270000Y-101960000D02*
X122270000Y-100630000D01*
X122270000Y-100630000D02*
X123600000Y-100630000D01*
X124870000Y-100630000D02*
X135090000Y-100630000D01*
%TD*%
M02*
