%TF.GenerationSoftware,KiCad,Pcbnew,7.0.8-7.0.8~ubuntu22.04.1*%
%TF.CreationDate,2023-10-06T08:27:01+03:00*%
%TF.ProjectId,Omarichet Sensor Board v1.5,4f6d6172-6963-4686-9574-2053656e736f,rev?*%
%TF.SameCoordinates,Original*%
%TF.FileFunction,Legend,Bot*%
%TF.FilePolarity,Positive*%
%FSLAX46Y46*%
G04 Gerber Fmt 4.6, Leading zero omitted, Abs format (unit mm)*
G04 Created by KiCad (PCBNEW 7.0.8-7.0.8~ubuntu22.04.1) date 2023-10-06 08:27:01*
%MOMM*%
%LPD*%
G01*
G04 APERTURE LIST*
%ADD10C,0.500000*%
%ADD11C,0.250000*%
%ADD12C,0.300000*%
%ADD13C,0.375000*%
%ADD14C,0.150000*%
%ADD15C,0.120000*%
G04 APERTURE END LIST*
D10*
X116899624Y-66778047D02*
X116423433Y-66778047D01*
X116423433Y-66778047D02*
X116185338Y-66897095D01*
X116185338Y-66897095D02*
X115947243Y-67135190D01*
X115947243Y-67135190D02*
X115828195Y-67611380D01*
X115828195Y-67611380D02*
X115828195Y-68444714D01*
X115828195Y-68444714D02*
X115947243Y-68920904D01*
X115947243Y-68920904D02*
X116185338Y-69159000D01*
X116185338Y-69159000D02*
X116423433Y-69278047D01*
X116423433Y-69278047D02*
X116899624Y-69278047D01*
X116899624Y-69278047D02*
X117137719Y-69159000D01*
X117137719Y-69159000D02*
X117375814Y-68920904D01*
X117375814Y-68920904D02*
X117494862Y-68444714D01*
X117494862Y-68444714D02*
X117494862Y-67611380D01*
X117494862Y-67611380D02*
X117375814Y-67135190D01*
X117375814Y-67135190D02*
X117137719Y-66897095D01*
X117137719Y-66897095D02*
X116899624Y-66778047D01*
X114756766Y-69278047D02*
X114756766Y-66778047D01*
X114756766Y-66778047D02*
X113923433Y-68563761D01*
X113923433Y-68563761D02*
X113090100Y-66778047D01*
X113090100Y-66778047D02*
X113090100Y-69278047D01*
X112018671Y-68563761D02*
X110828195Y-68563761D01*
X112256766Y-69278047D02*
X111423433Y-66778047D01*
X111423433Y-66778047D02*
X110590100Y-69278047D01*
X108328195Y-69278047D02*
X109161528Y-68087571D01*
X109756766Y-69278047D02*
X109756766Y-66778047D01*
X109756766Y-66778047D02*
X108804385Y-66778047D01*
X108804385Y-66778047D02*
X108566290Y-66897095D01*
X108566290Y-66897095D02*
X108447243Y-67016142D01*
X108447243Y-67016142D02*
X108328195Y-67254238D01*
X108328195Y-67254238D02*
X108328195Y-67611380D01*
X108328195Y-67611380D02*
X108447243Y-67849476D01*
X108447243Y-67849476D02*
X108566290Y-67968523D01*
X108566290Y-67968523D02*
X108804385Y-68087571D01*
X108804385Y-68087571D02*
X109756766Y-68087571D01*
X107256766Y-69278047D02*
X107256766Y-66778047D01*
X104637719Y-69039952D02*
X104756767Y-69159000D01*
X104756767Y-69159000D02*
X105113909Y-69278047D01*
X105113909Y-69278047D02*
X105352005Y-69278047D01*
X105352005Y-69278047D02*
X105709148Y-69159000D01*
X105709148Y-69159000D02*
X105947243Y-68920904D01*
X105947243Y-68920904D02*
X106066290Y-68682809D01*
X106066290Y-68682809D02*
X106185338Y-68206619D01*
X106185338Y-68206619D02*
X106185338Y-67849476D01*
X106185338Y-67849476D02*
X106066290Y-67373285D01*
X106066290Y-67373285D02*
X105947243Y-67135190D01*
X105947243Y-67135190D02*
X105709148Y-66897095D01*
X105709148Y-66897095D02*
X105352005Y-66778047D01*
X105352005Y-66778047D02*
X105113909Y-66778047D01*
X105113909Y-66778047D02*
X104756767Y-66897095D01*
X104756767Y-66897095D02*
X104637719Y-67016142D01*
X103566290Y-69278047D02*
X103566290Y-66778047D01*
X103566290Y-67968523D02*
X102137719Y-67968523D01*
X102137719Y-69278047D02*
X102137719Y-66778047D01*
X100947242Y-67968523D02*
X100113909Y-67968523D01*
X99756766Y-69278047D02*
X100947242Y-69278047D01*
X100947242Y-69278047D02*
X100947242Y-66778047D01*
X100947242Y-66778047D02*
X99756766Y-66778047D01*
X99042480Y-66778047D02*
X97613909Y-66778047D01*
X98328195Y-69278047D02*
X98328195Y-66778047D01*
X96780575Y-69039952D02*
X96661528Y-69159000D01*
X96661528Y-69159000D02*
X96780575Y-69278047D01*
X96780575Y-69278047D02*
X96899623Y-69159000D01*
X96899623Y-69159000D02*
X96780575Y-69039952D01*
X96780575Y-69039952D02*
X96780575Y-69278047D01*
X95709147Y-69159000D02*
X95352004Y-69278047D01*
X95352004Y-69278047D02*
X94756766Y-69278047D01*
X94756766Y-69278047D02*
X94518671Y-69159000D01*
X94518671Y-69159000D02*
X94399623Y-69039952D01*
X94399623Y-69039952D02*
X94280576Y-68801857D01*
X94280576Y-68801857D02*
X94280576Y-68563761D01*
X94280576Y-68563761D02*
X94399623Y-68325666D01*
X94399623Y-68325666D02*
X94518671Y-68206619D01*
X94518671Y-68206619D02*
X94756766Y-68087571D01*
X94756766Y-68087571D02*
X95232957Y-67968523D01*
X95232957Y-67968523D02*
X95471052Y-67849476D01*
X95471052Y-67849476D02*
X95590099Y-67730428D01*
X95590099Y-67730428D02*
X95709147Y-67492333D01*
X95709147Y-67492333D02*
X95709147Y-67254238D01*
X95709147Y-67254238D02*
X95590099Y-67016142D01*
X95590099Y-67016142D02*
X95471052Y-66897095D01*
X95471052Y-66897095D02*
X95232957Y-66778047D01*
X95232957Y-66778047D02*
X94637718Y-66778047D01*
X94637718Y-66778047D02*
X94280576Y-66897095D01*
X93209147Y-69278047D02*
X93209147Y-66778047D01*
X93209147Y-66778047D02*
X92256766Y-66778047D01*
X92256766Y-66778047D02*
X92018671Y-66897095D01*
X92018671Y-66897095D02*
X91899624Y-67016142D01*
X91899624Y-67016142D02*
X91780576Y-67254238D01*
X91780576Y-67254238D02*
X91780576Y-67611380D01*
X91780576Y-67611380D02*
X91899624Y-67849476D01*
X91899624Y-67849476D02*
X92018671Y-67968523D01*
X92018671Y-67968523D02*
X92256766Y-68087571D01*
X92256766Y-68087571D02*
X93209147Y-68087571D01*
X90828195Y-68563761D02*
X89637719Y-68563761D01*
X91066290Y-69278047D02*
X90232957Y-66778047D01*
X90232957Y-66778047D02*
X89399624Y-69278047D01*
X87137719Y-69039952D02*
X87256767Y-69159000D01*
X87256767Y-69159000D02*
X87613909Y-69278047D01*
X87613909Y-69278047D02*
X87852005Y-69278047D01*
X87852005Y-69278047D02*
X88209148Y-69159000D01*
X88209148Y-69159000D02*
X88447243Y-68920904D01*
X88447243Y-68920904D02*
X88566290Y-68682809D01*
X88566290Y-68682809D02*
X88685338Y-68206619D01*
X88685338Y-68206619D02*
X88685338Y-67849476D01*
X88685338Y-67849476D02*
X88566290Y-67373285D01*
X88566290Y-67373285D02*
X88447243Y-67135190D01*
X88447243Y-67135190D02*
X88209148Y-66897095D01*
X88209148Y-66897095D02*
X87852005Y-66778047D01*
X87852005Y-66778047D02*
X87613909Y-66778047D01*
X87613909Y-66778047D02*
X87256767Y-66897095D01*
X87256767Y-66897095D02*
X87137719Y-67016142D01*
X86066290Y-67968523D02*
X85232957Y-67968523D01*
X84875814Y-69278047D02*
X86066290Y-69278047D01*
X86066290Y-69278047D02*
X86066290Y-66778047D01*
X86066290Y-66778047D02*
X84875814Y-66778047D01*
D11*
X78147431Y-69310809D02*
X77814098Y-69310809D01*
X77671241Y-69834619D02*
X78147431Y-69834619D01*
X78147431Y-69834619D02*
X78147431Y-68834619D01*
X78147431Y-68834619D02*
X77671241Y-68834619D01*
X77242669Y-69834619D02*
X77242669Y-68834619D01*
X77242669Y-68834619D02*
X76861717Y-68834619D01*
X76861717Y-68834619D02*
X76766479Y-68882238D01*
X76766479Y-68882238D02*
X76718860Y-68929857D01*
X76718860Y-68929857D02*
X76671241Y-69025095D01*
X76671241Y-69025095D02*
X76671241Y-69167952D01*
X76671241Y-69167952D02*
X76718860Y-69263190D01*
X76718860Y-69263190D02*
X76766479Y-69310809D01*
X76766479Y-69310809D02*
X76861717Y-69358428D01*
X76861717Y-69358428D02*
X77242669Y-69358428D01*
X76290288Y-69787000D02*
X76147431Y-69834619D01*
X76147431Y-69834619D02*
X75909336Y-69834619D01*
X75909336Y-69834619D02*
X75814098Y-69787000D01*
X75814098Y-69787000D02*
X75766479Y-69739380D01*
X75766479Y-69739380D02*
X75718860Y-69644142D01*
X75718860Y-69644142D02*
X75718860Y-69548904D01*
X75718860Y-69548904D02*
X75766479Y-69453666D01*
X75766479Y-69453666D02*
X75814098Y-69406047D01*
X75814098Y-69406047D02*
X75909336Y-69358428D01*
X75909336Y-69358428D02*
X76099812Y-69310809D01*
X76099812Y-69310809D02*
X76195050Y-69263190D01*
X76195050Y-69263190D02*
X76242669Y-69215571D01*
X76242669Y-69215571D02*
X76290288Y-69120333D01*
X76290288Y-69120333D02*
X76290288Y-69025095D01*
X76290288Y-69025095D02*
X76242669Y-68929857D01*
X76242669Y-68929857D02*
X76195050Y-68882238D01*
X76195050Y-68882238D02*
X76099812Y-68834619D01*
X76099812Y-68834619D02*
X75861717Y-68834619D01*
X75861717Y-68834619D02*
X75718860Y-68882238D01*
X74576002Y-69787000D02*
X74433145Y-69834619D01*
X74433145Y-69834619D02*
X74195050Y-69834619D01*
X74195050Y-69834619D02*
X74099812Y-69787000D01*
X74099812Y-69787000D02*
X74052193Y-69739380D01*
X74052193Y-69739380D02*
X74004574Y-69644142D01*
X74004574Y-69644142D02*
X74004574Y-69548904D01*
X74004574Y-69548904D02*
X74052193Y-69453666D01*
X74052193Y-69453666D02*
X74099812Y-69406047D01*
X74099812Y-69406047D02*
X74195050Y-69358428D01*
X74195050Y-69358428D02*
X74385526Y-69310809D01*
X74385526Y-69310809D02*
X74480764Y-69263190D01*
X74480764Y-69263190D02*
X74528383Y-69215571D01*
X74528383Y-69215571D02*
X74576002Y-69120333D01*
X74576002Y-69120333D02*
X74576002Y-69025095D01*
X74576002Y-69025095D02*
X74528383Y-68929857D01*
X74528383Y-68929857D02*
X74480764Y-68882238D01*
X74480764Y-68882238D02*
X74385526Y-68834619D01*
X74385526Y-68834619D02*
X74147431Y-68834619D01*
X74147431Y-68834619D02*
X74004574Y-68882238D01*
X73195050Y-69787000D02*
X73290288Y-69834619D01*
X73290288Y-69834619D02*
X73480764Y-69834619D01*
X73480764Y-69834619D02*
X73576002Y-69787000D01*
X73576002Y-69787000D02*
X73623621Y-69691761D01*
X73623621Y-69691761D02*
X73623621Y-69310809D01*
X73623621Y-69310809D02*
X73576002Y-69215571D01*
X73576002Y-69215571D02*
X73480764Y-69167952D01*
X73480764Y-69167952D02*
X73290288Y-69167952D01*
X73290288Y-69167952D02*
X73195050Y-69215571D01*
X73195050Y-69215571D02*
X73147431Y-69310809D01*
X73147431Y-69310809D02*
X73147431Y-69406047D01*
X73147431Y-69406047D02*
X73623621Y-69501285D01*
X72718859Y-69167952D02*
X72718859Y-69834619D01*
X72718859Y-69263190D02*
X72671240Y-69215571D01*
X72671240Y-69215571D02*
X72576002Y-69167952D01*
X72576002Y-69167952D02*
X72433145Y-69167952D01*
X72433145Y-69167952D02*
X72337907Y-69215571D01*
X72337907Y-69215571D02*
X72290288Y-69310809D01*
X72290288Y-69310809D02*
X72290288Y-69834619D01*
X71861716Y-69787000D02*
X71766478Y-69834619D01*
X71766478Y-69834619D02*
X71576002Y-69834619D01*
X71576002Y-69834619D02*
X71480764Y-69787000D01*
X71480764Y-69787000D02*
X71433145Y-69691761D01*
X71433145Y-69691761D02*
X71433145Y-69644142D01*
X71433145Y-69644142D02*
X71480764Y-69548904D01*
X71480764Y-69548904D02*
X71576002Y-69501285D01*
X71576002Y-69501285D02*
X71718859Y-69501285D01*
X71718859Y-69501285D02*
X71814097Y-69453666D01*
X71814097Y-69453666D02*
X71861716Y-69358428D01*
X71861716Y-69358428D02*
X71861716Y-69310809D01*
X71861716Y-69310809D02*
X71814097Y-69215571D01*
X71814097Y-69215571D02*
X71718859Y-69167952D01*
X71718859Y-69167952D02*
X71576002Y-69167952D01*
X71576002Y-69167952D02*
X71480764Y-69215571D01*
X70861716Y-69834619D02*
X70956954Y-69787000D01*
X70956954Y-69787000D02*
X71004573Y-69739380D01*
X71004573Y-69739380D02*
X71052192Y-69644142D01*
X71052192Y-69644142D02*
X71052192Y-69358428D01*
X71052192Y-69358428D02*
X71004573Y-69263190D01*
X71004573Y-69263190D02*
X70956954Y-69215571D01*
X70956954Y-69215571D02*
X70861716Y-69167952D01*
X70861716Y-69167952D02*
X70718859Y-69167952D01*
X70718859Y-69167952D02*
X70623621Y-69215571D01*
X70623621Y-69215571D02*
X70576002Y-69263190D01*
X70576002Y-69263190D02*
X70528383Y-69358428D01*
X70528383Y-69358428D02*
X70528383Y-69644142D01*
X70528383Y-69644142D02*
X70576002Y-69739380D01*
X70576002Y-69739380D02*
X70623621Y-69787000D01*
X70623621Y-69787000D02*
X70718859Y-69834619D01*
X70718859Y-69834619D02*
X70861716Y-69834619D01*
X70099811Y-69834619D02*
X70099811Y-69167952D01*
X70099811Y-69358428D02*
X70052192Y-69263190D01*
X70052192Y-69263190D02*
X70004573Y-69215571D01*
X70004573Y-69215571D02*
X69909335Y-69167952D01*
X69909335Y-69167952D02*
X69814097Y-69167952D01*
X69528382Y-69787000D02*
X69433144Y-69834619D01*
X69433144Y-69834619D02*
X69242668Y-69834619D01*
X69242668Y-69834619D02*
X69147430Y-69787000D01*
X69147430Y-69787000D02*
X69099811Y-69691761D01*
X69099811Y-69691761D02*
X69099811Y-69644142D01*
X69099811Y-69644142D02*
X69147430Y-69548904D01*
X69147430Y-69548904D02*
X69242668Y-69501285D01*
X69242668Y-69501285D02*
X69385525Y-69501285D01*
X69385525Y-69501285D02*
X69480763Y-69453666D01*
X69480763Y-69453666D02*
X69528382Y-69358428D01*
X69528382Y-69358428D02*
X69528382Y-69310809D01*
X69528382Y-69310809D02*
X69480763Y-69215571D01*
X69480763Y-69215571D02*
X69385525Y-69167952D01*
X69385525Y-69167952D02*
X69242668Y-69167952D01*
X69242668Y-69167952D02*
X69147430Y-69215571D01*
X115257431Y-88344619D02*
X115257431Y-87677952D01*
X115257431Y-87344619D02*
X115305050Y-87392238D01*
X115305050Y-87392238D02*
X115257431Y-87439857D01*
X115257431Y-87439857D02*
X115209812Y-87392238D01*
X115209812Y-87392238D02*
X115257431Y-87344619D01*
X115257431Y-87344619D02*
X115257431Y-87439857D01*
X114781241Y-87677952D02*
X114781241Y-88344619D01*
X114781241Y-87773190D02*
X114733622Y-87725571D01*
X114733622Y-87725571D02*
X114638384Y-87677952D01*
X114638384Y-87677952D02*
X114495527Y-87677952D01*
X114495527Y-87677952D02*
X114400289Y-87725571D01*
X114400289Y-87725571D02*
X114352670Y-87820809D01*
X114352670Y-87820809D02*
X114352670Y-88344619D01*
X114019336Y-87677952D02*
X113638384Y-87677952D01*
X113876479Y-88344619D02*
X113876479Y-87487476D01*
X113876479Y-87487476D02*
X113828860Y-87392238D01*
X113828860Y-87392238D02*
X113733622Y-87344619D01*
X113733622Y-87344619D02*
X113638384Y-87344619D01*
X113162193Y-88344619D02*
X113257431Y-88297000D01*
X113257431Y-88297000D02*
X113305050Y-88249380D01*
X113305050Y-88249380D02*
X113352669Y-88154142D01*
X113352669Y-88154142D02*
X113352669Y-87868428D01*
X113352669Y-87868428D02*
X113305050Y-87773190D01*
X113305050Y-87773190D02*
X113257431Y-87725571D01*
X113257431Y-87725571D02*
X113162193Y-87677952D01*
X113162193Y-87677952D02*
X113019336Y-87677952D01*
X113019336Y-87677952D02*
X112924098Y-87725571D01*
X112924098Y-87725571D02*
X112876479Y-87773190D01*
X112876479Y-87773190D02*
X112828860Y-87868428D01*
X112828860Y-87868428D02*
X112828860Y-88154142D01*
X112828860Y-88154142D02*
X112876479Y-88249380D01*
X112876479Y-88249380D02*
X112924098Y-88297000D01*
X112924098Y-88297000D02*
X113019336Y-88344619D01*
X113019336Y-88344619D02*
X113162193Y-88344619D01*
X111781241Y-87868428D02*
X111828860Y-87820809D01*
X111828860Y-87820809D02*
X111924098Y-87773190D01*
X111924098Y-87773190D02*
X112019336Y-87773190D01*
X112019336Y-87773190D02*
X112114574Y-87820809D01*
X112114574Y-87820809D02*
X112162193Y-87868428D01*
X112162193Y-87868428D02*
X112209812Y-87963666D01*
X112209812Y-87963666D02*
X112209812Y-88058904D01*
X112209812Y-88058904D02*
X112162193Y-88154142D01*
X112162193Y-88154142D02*
X112114574Y-88201761D01*
X112114574Y-88201761D02*
X112019336Y-88249380D01*
X112019336Y-88249380D02*
X111924098Y-88249380D01*
X111924098Y-88249380D02*
X111828860Y-88201761D01*
X111828860Y-88201761D02*
X111781241Y-88154142D01*
X111781241Y-87773190D02*
X111781241Y-88154142D01*
X111781241Y-88154142D02*
X111733622Y-88201761D01*
X111733622Y-88201761D02*
X111686003Y-88201761D01*
X111686003Y-88201761D02*
X111590764Y-88154142D01*
X111590764Y-88154142D02*
X111543145Y-88058904D01*
X111543145Y-88058904D02*
X111543145Y-87820809D01*
X111543145Y-87820809D02*
X111638384Y-87677952D01*
X111638384Y-87677952D02*
X111781241Y-87582714D01*
X111781241Y-87582714D02*
X111971717Y-87535095D01*
X111971717Y-87535095D02*
X112162193Y-87582714D01*
X112162193Y-87582714D02*
X112305050Y-87677952D01*
X112305050Y-87677952D02*
X112400288Y-87820809D01*
X112400288Y-87820809D02*
X112447907Y-88011285D01*
X112447907Y-88011285D02*
X112400288Y-88201761D01*
X112400288Y-88201761D02*
X112305050Y-88344619D01*
X112305050Y-88344619D02*
X112162193Y-88439857D01*
X112162193Y-88439857D02*
X111971717Y-88487476D01*
X111971717Y-88487476D02*
X111781241Y-88439857D01*
X111781241Y-88439857D02*
X111638384Y-88344619D01*
X110971717Y-88344619D02*
X111066955Y-88297000D01*
X111066955Y-88297000D02*
X111114574Y-88249380D01*
X111114574Y-88249380D02*
X111162193Y-88154142D01*
X111162193Y-88154142D02*
X111162193Y-87868428D01*
X111162193Y-87868428D02*
X111114574Y-87773190D01*
X111114574Y-87773190D02*
X111066955Y-87725571D01*
X111066955Y-87725571D02*
X110971717Y-87677952D01*
X110971717Y-87677952D02*
X110828860Y-87677952D01*
X110828860Y-87677952D02*
X110733622Y-87725571D01*
X110733622Y-87725571D02*
X110686003Y-87773190D01*
X110686003Y-87773190D02*
X110638384Y-87868428D01*
X110638384Y-87868428D02*
X110638384Y-88154142D01*
X110638384Y-88154142D02*
X110686003Y-88249380D01*
X110686003Y-88249380D02*
X110733622Y-88297000D01*
X110733622Y-88297000D02*
X110828860Y-88344619D01*
X110828860Y-88344619D02*
X110971717Y-88344619D01*
X110209812Y-88344619D02*
X110209812Y-87677952D01*
X110209812Y-87773190D02*
X110162193Y-87725571D01*
X110162193Y-87725571D02*
X110066955Y-87677952D01*
X110066955Y-87677952D02*
X109924098Y-87677952D01*
X109924098Y-87677952D02*
X109828860Y-87725571D01*
X109828860Y-87725571D02*
X109781241Y-87820809D01*
X109781241Y-87820809D02*
X109781241Y-88344619D01*
X109781241Y-87820809D02*
X109733622Y-87725571D01*
X109733622Y-87725571D02*
X109638384Y-87677952D01*
X109638384Y-87677952D02*
X109495527Y-87677952D01*
X109495527Y-87677952D02*
X109400288Y-87725571D01*
X109400288Y-87725571D02*
X109352669Y-87820809D01*
X109352669Y-87820809D02*
X109352669Y-88344619D01*
X108447908Y-88344619D02*
X108447908Y-87820809D01*
X108447908Y-87820809D02*
X108495527Y-87725571D01*
X108495527Y-87725571D02*
X108590765Y-87677952D01*
X108590765Y-87677952D02*
X108781241Y-87677952D01*
X108781241Y-87677952D02*
X108876479Y-87725571D01*
X108447908Y-88297000D02*
X108543146Y-88344619D01*
X108543146Y-88344619D02*
X108781241Y-88344619D01*
X108781241Y-88344619D02*
X108876479Y-88297000D01*
X108876479Y-88297000D02*
X108924098Y-88201761D01*
X108924098Y-88201761D02*
X108924098Y-88106523D01*
X108924098Y-88106523D02*
X108876479Y-88011285D01*
X108876479Y-88011285D02*
X108781241Y-87963666D01*
X108781241Y-87963666D02*
X108543146Y-87963666D01*
X108543146Y-87963666D02*
X108447908Y-87916047D01*
X107971717Y-88344619D02*
X107971717Y-87677952D01*
X107971717Y-87868428D02*
X107924098Y-87773190D01*
X107924098Y-87773190D02*
X107876479Y-87725571D01*
X107876479Y-87725571D02*
X107781241Y-87677952D01*
X107781241Y-87677952D02*
X107686003Y-87677952D01*
X107352669Y-88344619D02*
X107352669Y-87677952D01*
X107352669Y-87344619D02*
X107400288Y-87392238D01*
X107400288Y-87392238D02*
X107352669Y-87439857D01*
X107352669Y-87439857D02*
X107305050Y-87392238D01*
X107305050Y-87392238D02*
X107352669Y-87344619D01*
X107352669Y-87344619D02*
X107352669Y-87439857D01*
X106447908Y-88297000D02*
X106543146Y-88344619D01*
X106543146Y-88344619D02*
X106733622Y-88344619D01*
X106733622Y-88344619D02*
X106828860Y-88297000D01*
X106828860Y-88297000D02*
X106876479Y-88249380D01*
X106876479Y-88249380D02*
X106924098Y-88154142D01*
X106924098Y-88154142D02*
X106924098Y-87868428D01*
X106924098Y-87868428D02*
X106876479Y-87773190D01*
X106876479Y-87773190D02*
X106828860Y-87725571D01*
X106828860Y-87725571D02*
X106733622Y-87677952D01*
X106733622Y-87677952D02*
X106543146Y-87677952D01*
X106543146Y-87677952D02*
X106447908Y-87725571D01*
X106019336Y-88344619D02*
X106019336Y-87344619D01*
X105590765Y-88344619D02*
X105590765Y-87820809D01*
X105590765Y-87820809D02*
X105638384Y-87725571D01*
X105638384Y-87725571D02*
X105733622Y-87677952D01*
X105733622Y-87677952D02*
X105876479Y-87677952D01*
X105876479Y-87677952D02*
X105971717Y-87725571D01*
X105971717Y-87725571D02*
X106019336Y-87773190D01*
X104733622Y-88297000D02*
X104828860Y-88344619D01*
X104828860Y-88344619D02*
X105019336Y-88344619D01*
X105019336Y-88344619D02*
X105114574Y-88297000D01*
X105114574Y-88297000D02*
X105162193Y-88201761D01*
X105162193Y-88201761D02*
X105162193Y-87820809D01*
X105162193Y-87820809D02*
X105114574Y-87725571D01*
X105114574Y-87725571D02*
X105019336Y-87677952D01*
X105019336Y-87677952D02*
X104828860Y-87677952D01*
X104828860Y-87677952D02*
X104733622Y-87725571D01*
X104733622Y-87725571D02*
X104686003Y-87820809D01*
X104686003Y-87820809D02*
X104686003Y-87916047D01*
X104686003Y-87916047D02*
X105162193Y-88011285D01*
X104400288Y-87677952D02*
X104019336Y-87677952D01*
X104257431Y-87344619D02*
X104257431Y-88201761D01*
X104257431Y-88201761D02*
X104209812Y-88297000D01*
X104209812Y-88297000D02*
X104114574Y-88344619D01*
X104114574Y-88344619D02*
X104019336Y-88344619D01*
X103686002Y-88249380D02*
X103638383Y-88297000D01*
X103638383Y-88297000D02*
X103686002Y-88344619D01*
X103686002Y-88344619D02*
X103733621Y-88297000D01*
X103733621Y-88297000D02*
X103686002Y-88249380D01*
X103686002Y-88249380D02*
X103686002Y-88344619D01*
X103257431Y-88297000D02*
X103162193Y-88344619D01*
X103162193Y-88344619D02*
X102971717Y-88344619D01*
X102971717Y-88344619D02*
X102876479Y-88297000D01*
X102876479Y-88297000D02*
X102828860Y-88201761D01*
X102828860Y-88201761D02*
X102828860Y-88154142D01*
X102828860Y-88154142D02*
X102876479Y-88058904D01*
X102876479Y-88058904D02*
X102971717Y-88011285D01*
X102971717Y-88011285D02*
X103114574Y-88011285D01*
X103114574Y-88011285D02*
X103209812Y-87963666D01*
X103209812Y-87963666D02*
X103257431Y-87868428D01*
X103257431Y-87868428D02*
X103257431Y-87820809D01*
X103257431Y-87820809D02*
X103209812Y-87725571D01*
X103209812Y-87725571D02*
X103114574Y-87677952D01*
X103114574Y-87677952D02*
X102971717Y-87677952D01*
X102971717Y-87677952D02*
X102876479Y-87725571D01*
X102400288Y-87677952D02*
X102400288Y-88677952D01*
X102400288Y-87725571D02*
X102305050Y-87677952D01*
X102305050Y-87677952D02*
X102114574Y-87677952D01*
X102114574Y-87677952D02*
X102019336Y-87725571D01*
X102019336Y-87725571D02*
X101971717Y-87773190D01*
X101971717Y-87773190D02*
X101924098Y-87868428D01*
X101924098Y-87868428D02*
X101924098Y-88154142D01*
X101924098Y-88154142D02*
X101971717Y-88249380D01*
X101971717Y-88249380D02*
X102019336Y-88297000D01*
X102019336Y-88297000D02*
X102114574Y-88344619D01*
X102114574Y-88344619D02*
X102305050Y-88344619D01*
X102305050Y-88344619D02*
X102400288Y-88297000D01*
X101066955Y-88344619D02*
X101066955Y-87820809D01*
X101066955Y-87820809D02*
X101114574Y-87725571D01*
X101114574Y-87725571D02*
X101209812Y-87677952D01*
X101209812Y-87677952D02*
X101400288Y-87677952D01*
X101400288Y-87677952D02*
X101495526Y-87725571D01*
X101066955Y-88297000D02*
X101162193Y-88344619D01*
X101162193Y-88344619D02*
X101400288Y-88344619D01*
X101400288Y-88344619D02*
X101495526Y-88297000D01*
X101495526Y-88297000D02*
X101543145Y-88201761D01*
X101543145Y-88201761D02*
X101543145Y-88106523D01*
X101543145Y-88106523D02*
X101495526Y-88011285D01*
X101495526Y-88011285D02*
X101400288Y-87963666D01*
X101400288Y-87963666D02*
X101162193Y-87963666D01*
X101162193Y-87963666D02*
X101066955Y-87916047D01*
X100162193Y-88297000D02*
X100257431Y-88344619D01*
X100257431Y-88344619D02*
X100447907Y-88344619D01*
X100447907Y-88344619D02*
X100543145Y-88297000D01*
X100543145Y-88297000D02*
X100590764Y-88249380D01*
X100590764Y-88249380D02*
X100638383Y-88154142D01*
X100638383Y-88154142D02*
X100638383Y-87868428D01*
X100638383Y-87868428D02*
X100590764Y-87773190D01*
X100590764Y-87773190D02*
X100543145Y-87725571D01*
X100543145Y-87725571D02*
X100447907Y-87677952D01*
X100447907Y-87677952D02*
X100257431Y-87677952D01*
X100257431Y-87677952D02*
X100162193Y-87725571D01*
X99352669Y-88297000D02*
X99447907Y-88344619D01*
X99447907Y-88344619D02*
X99638383Y-88344619D01*
X99638383Y-88344619D02*
X99733621Y-88297000D01*
X99733621Y-88297000D02*
X99781240Y-88201761D01*
X99781240Y-88201761D02*
X99781240Y-87820809D01*
X99781240Y-87820809D02*
X99733621Y-87725571D01*
X99733621Y-87725571D02*
X99638383Y-87677952D01*
X99638383Y-87677952D02*
X99447907Y-87677952D01*
X99447907Y-87677952D02*
X99352669Y-87725571D01*
X99352669Y-87725571D02*
X99305050Y-87820809D01*
X99305050Y-87820809D02*
X99305050Y-87916047D01*
X99305050Y-87916047D02*
X99781240Y-88011285D01*
X115257431Y-89954619D02*
X115257431Y-88954619D01*
X114828860Y-89954619D02*
X114828860Y-89430809D01*
X114828860Y-89430809D02*
X114876479Y-89335571D01*
X114876479Y-89335571D02*
X114971717Y-89287952D01*
X114971717Y-89287952D02*
X115114574Y-89287952D01*
X115114574Y-89287952D02*
X115209812Y-89335571D01*
X115209812Y-89335571D02*
X115257431Y-89383190D01*
X114495526Y-89287952D02*
X114114574Y-89287952D01*
X114352669Y-88954619D02*
X114352669Y-89811761D01*
X114352669Y-89811761D02*
X114305050Y-89907000D01*
X114305050Y-89907000D02*
X114209812Y-89954619D01*
X114209812Y-89954619D02*
X114114574Y-89954619D01*
X113924097Y-89287952D02*
X113543145Y-89287952D01*
X113781240Y-88954619D02*
X113781240Y-89811761D01*
X113781240Y-89811761D02*
X113733621Y-89907000D01*
X113733621Y-89907000D02*
X113638383Y-89954619D01*
X113638383Y-89954619D02*
X113543145Y-89954619D01*
X113209811Y-89287952D02*
X113209811Y-90287952D01*
X113209811Y-89335571D02*
X113114573Y-89287952D01*
X113114573Y-89287952D02*
X112924097Y-89287952D01*
X112924097Y-89287952D02*
X112828859Y-89335571D01*
X112828859Y-89335571D02*
X112781240Y-89383190D01*
X112781240Y-89383190D02*
X112733621Y-89478428D01*
X112733621Y-89478428D02*
X112733621Y-89764142D01*
X112733621Y-89764142D02*
X112781240Y-89859380D01*
X112781240Y-89859380D02*
X112828859Y-89907000D01*
X112828859Y-89907000D02*
X112924097Y-89954619D01*
X112924097Y-89954619D02*
X113114573Y-89954619D01*
X113114573Y-89954619D02*
X113209811Y-89907000D01*
X112352668Y-89907000D02*
X112257430Y-89954619D01*
X112257430Y-89954619D02*
X112066954Y-89954619D01*
X112066954Y-89954619D02*
X111971716Y-89907000D01*
X111971716Y-89907000D02*
X111924097Y-89811761D01*
X111924097Y-89811761D02*
X111924097Y-89764142D01*
X111924097Y-89764142D02*
X111971716Y-89668904D01*
X111971716Y-89668904D02*
X112066954Y-89621285D01*
X112066954Y-89621285D02*
X112209811Y-89621285D01*
X112209811Y-89621285D02*
X112305049Y-89573666D01*
X112305049Y-89573666D02*
X112352668Y-89478428D01*
X112352668Y-89478428D02*
X112352668Y-89430809D01*
X112352668Y-89430809D02*
X112305049Y-89335571D01*
X112305049Y-89335571D02*
X112209811Y-89287952D01*
X112209811Y-89287952D02*
X112066954Y-89287952D01*
X112066954Y-89287952D02*
X111971716Y-89335571D01*
X111495525Y-89859380D02*
X111447906Y-89907000D01*
X111447906Y-89907000D02*
X111495525Y-89954619D01*
X111495525Y-89954619D02*
X111543144Y-89907000D01*
X111543144Y-89907000D02*
X111495525Y-89859380D01*
X111495525Y-89859380D02*
X111495525Y-89954619D01*
X111495525Y-89335571D02*
X111447906Y-89383190D01*
X111447906Y-89383190D02*
X111495525Y-89430809D01*
X111495525Y-89430809D02*
X111543144Y-89383190D01*
X111543144Y-89383190D02*
X111495525Y-89335571D01*
X111495525Y-89335571D02*
X111495525Y-89430809D01*
X110305050Y-88907000D02*
X111162192Y-90192714D01*
X109257431Y-88907000D02*
X110114573Y-90192714D01*
X108781240Y-89954619D02*
X108876478Y-89907000D01*
X108876478Y-89907000D02*
X108924097Y-89859380D01*
X108924097Y-89859380D02*
X108971716Y-89764142D01*
X108971716Y-89764142D02*
X108971716Y-89478428D01*
X108971716Y-89478428D02*
X108924097Y-89383190D01*
X108924097Y-89383190D02*
X108876478Y-89335571D01*
X108876478Y-89335571D02*
X108781240Y-89287952D01*
X108781240Y-89287952D02*
X108638383Y-89287952D01*
X108638383Y-89287952D02*
X108543145Y-89335571D01*
X108543145Y-89335571D02*
X108495526Y-89383190D01*
X108495526Y-89383190D02*
X108447907Y-89478428D01*
X108447907Y-89478428D02*
X108447907Y-89764142D01*
X108447907Y-89764142D02*
X108495526Y-89859380D01*
X108495526Y-89859380D02*
X108543145Y-89907000D01*
X108543145Y-89907000D02*
X108638383Y-89954619D01*
X108638383Y-89954619D02*
X108781240Y-89954619D01*
X108019335Y-89954619D02*
X108019335Y-89287952D01*
X108019335Y-89383190D02*
X107971716Y-89335571D01*
X107971716Y-89335571D02*
X107876478Y-89287952D01*
X107876478Y-89287952D02*
X107733621Y-89287952D01*
X107733621Y-89287952D02*
X107638383Y-89335571D01*
X107638383Y-89335571D02*
X107590764Y-89430809D01*
X107590764Y-89430809D02*
X107590764Y-89954619D01*
X107590764Y-89430809D02*
X107543145Y-89335571D01*
X107543145Y-89335571D02*
X107447907Y-89287952D01*
X107447907Y-89287952D02*
X107305050Y-89287952D01*
X107305050Y-89287952D02*
X107209811Y-89335571D01*
X107209811Y-89335571D02*
X107162192Y-89430809D01*
X107162192Y-89430809D02*
X107162192Y-89954619D01*
X106257431Y-89954619D02*
X106257431Y-89430809D01*
X106257431Y-89430809D02*
X106305050Y-89335571D01*
X106305050Y-89335571D02*
X106400288Y-89287952D01*
X106400288Y-89287952D02*
X106590764Y-89287952D01*
X106590764Y-89287952D02*
X106686002Y-89335571D01*
X106257431Y-89907000D02*
X106352669Y-89954619D01*
X106352669Y-89954619D02*
X106590764Y-89954619D01*
X106590764Y-89954619D02*
X106686002Y-89907000D01*
X106686002Y-89907000D02*
X106733621Y-89811761D01*
X106733621Y-89811761D02*
X106733621Y-89716523D01*
X106733621Y-89716523D02*
X106686002Y-89621285D01*
X106686002Y-89621285D02*
X106590764Y-89573666D01*
X106590764Y-89573666D02*
X106352669Y-89573666D01*
X106352669Y-89573666D02*
X106257431Y-89526047D01*
X105781240Y-89954619D02*
X105781240Y-89287952D01*
X105781240Y-89478428D02*
X105733621Y-89383190D01*
X105733621Y-89383190D02*
X105686002Y-89335571D01*
X105686002Y-89335571D02*
X105590764Y-89287952D01*
X105590764Y-89287952D02*
X105495526Y-89287952D01*
X105162192Y-89954619D02*
X105162192Y-89287952D01*
X105162192Y-88954619D02*
X105209811Y-89002238D01*
X105209811Y-89002238D02*
X105162192Y-89049857D01*
X105162192Y-89049857D02*
X105114573Y-89002238D01*
X105114573Y-89002238D02*
X105162192Y-88954619D01*
X105162192Y-88954619D02*
X105162192Y-89049857D01*
X104257431Y-89907000D02*
X104352669Y-89954619D01*
X104352669Y-89954619D02*
X104543145Y-89954619D01*
X104543145Y-89954619D02*
X104638383Y-89907000D01*
X104638383Y-89907000D02*
X104686002Y-89859380D01*
X104686002Y-89859380D02*
X104733621Y-89764142D01*
X104733621Y-89764142D02*
X104733621Y-89478428D01*
X104733621Y-89478428D02*
X104686002Y-89383190D01*
X104686002Y-89383190D02*
X104638383Y-89335571D01*
X104638383Y-89335571D02*
X104543145Y-89287952D01*
X104543145Y-89287952D02*
X104352669Y-89287952D01*
X104352669Y-89287952D02*
X104257431Y-89335571D01*
X103828859Y-89954619D02*
X103828859Y-88954619D01*
X103400288Y-89954619D02*
X103400288Y-89430809D01*
X103400288Y-89430809D02*
X103447907Y-89335571D01*
X103447907Y-89335571D02*
X103543145Y-89287952D01*
X103543145Y-89287952D02*
X103686002Y-89287952D01*
X103686002Y-89287952D02*
X103781240Y-89335571D01*
X103781240Y-89335571D02*
X103828859Y-89383190D01*
X102543145Y-89907000D02*
X102638383Y-89954619D01*
X102638383Y-89954619D02*
X102828859Y-89954619D01*
X102828859Y-89954619D02*
X102924097Y-89907000D01*
X102924097Y-89907000D02*
X102971716Y-89811761D01*
X102971716Y-89811761D02*
X102971716Y-89430809D01*
X102971716Y-89430809D02*
X102924097Y-89335571D01*
X102924097Y-89335571D02*
X102828859Y-89287952D01*
X102828859Y-89287952D02*
X102638383Y-89287952D01*
X102638383Y-89287952D02*
X102543145Y-89335571D01*
X102543145Y-89335571D02*
X102495526Y-89430809D01*
X102495526Y-89430809D02*
X102495526Y-89526047D01*
X102495526Y-89526047D02*
X102971716Y-89621285D01*
X102209811Y-89287952D02*
X101828859Y-89287952D01*
X102066954Y-88954619D02*
X102066954Y-89811761D01*
X102066954Y-89811761D02*
X102019335Y-89907000D01*
X102019335Y-89907000D02*
X101924097Y-89954619D01*
X101924097Y-89954619D02*
X101828859Y-89954619D01*
X101495525Y-89859380D02*
X101447906Y-89907000D01*
X101447906Y-89907000D02*
X101495525Y-89954619D01*
X101495525Y-89954619D02*
X101543144Y-89907000D01*
X101543144Y-89907000D02*
X101495525Y-89859380D01*
X101495525Y-89859380D02*
X101495525Y-89954619D01*
X101066954Y-89907000D02*
X100971716Y-89954619D01*
X100971716Y-89954619D02*
X100781240Y-89954619D01*
X100781240Y-89954619D02*
X100686002Y-89907000D01*
X100686002Y-89907000D02*
X100638383Y-89811761D01*
X100638383Y-89811761D02*
X100638383Y-89764142D01*
X100638383Y-89764142D02*
X100686002Y-89668904D01*
X100686002Y-89668904D02*
X100781240Y-89621285D01*
X100781240Y-89621285D02*
X100924097Y-89621285D01*
X100924097Y-89621285D02*
X101019335Y-89573666D01*
X101019335Y-89573666D02*
X101066954Y-89478428D01*
X101066954Y-89478428D02*
X101066954Y-89430809D01*
X101066954Y-89430809D02*
X101019335Y-89335571D01*
X101019335Y-89335571D02*
X100924097Y-89287952D01*
X100924097Y-89287952D02*
X100781240Y-89287952D01*
X100781240Y-89287952D02*
X100686002Y-89335571D01*
X100209811Y-89287952D02*
X100209811Y-90287952D01*
X100209811Y-89335571D02*
X100114573Y-89287952D01*
X100114573Y-89287952D02*
X99924097Y-89287952D01*
X99924097Y-89287952D02*
X99828859Y-89335571D01*
X99828859Y-89335571D02*
X99781240Y-89383190D01*
X99781240Y-89383190D02*
X99733621Y-89478428D01*
X99733621Y-89478428D02*
X99733621Y-89764142D01*
X99733621Y-89764142D02*
X99781240Y-89859380D01*
X99781240Y-89859380D02*
X99828859Y-89907000D01*
X99828859Y-89907000D02*
X99924097Y-89954619D01*
X99924097Y-89954619D02*
X100114573Y-89954619D01*
X100114573Y-89954619D02*
X100209811Y-89907000D01*
X98876478Y-89954619D02*
X98876478Y-89430809D01*
X98876478Y-89430809D02*
X98924097Y-89335571D01*
X98924097Y-89335571D02*
X99019335Y-89287952D01*
X99019335Y-89287952D02*
X99209811Y-89287952D01*
X99209811Y-89287952D02*
X99305049Y-89335571D01*
X98876478Y-89907000D02*
X98971716Y-89954619D01*
X98971716Y-89954619D02*
X99209811Y-89954619D01*
X99209811Y-89954619D02*
X99305049Y-89907000D01*
X99305049Y-89907000D02*
X99352668Y-89811761D01*
X99352668Y-89811761D02*
X99352668Y-89716523D01*
X99352668Y-89716523D02*
X99305049Y-89621285D01*
X99305049Y-89621285D02*
X99209811Y-89573666D01*
X99209811Y-89573666D02*
X98971716Y-89573666D01*
X98971716Y-89573666D02*
X98876478Y-89526047D01*
X97971716Y-89907000D02*
X98066954Y-89954619D01*
X98066954Y-89954619D02*
X98257430Y-89954619D01*
X98257430Y-89954619D02*
X98352668Y-89907000D01*
X98352668Y-89907000D02*
X98400287Y-89859380D01*
X98400287Y-89859380D02*
X98447906Y-89764142D01*
X98447906Y-89764142D02*
X98447906Y-89478428D01*
X98447906Y-89478428D02*
X98400287Y-89383190D01*
X98400287Y-89383190D02*
X98352668Y-89335571D01*
X98352668Y-89335571D02*
X98257430Y-89287952D01*
X98257430Y-89287952D02*
X98066954Y-89287952D01*
X98066954Y-89287952D02*
X97971716Y-89335571D01*
X97162192Y-89907000D02*
X97257430Y-89954619D01*
X97257430Y-89954619D02*
X97447906Y-89954619D01*
X97447906Y-89954619D02*
X97543144Y-89907000D01*
X97543144Y-89907000D02*
X97590763Y-89811761D01*
X97590763Y-89811761D02*
X97590763Y-89430809D01*
X97590763Y-89430809D02*
X97543144Y-89335571D01*
X97543144Y-89335571D02*
X97447906Y-89287952D01*
X97447906Y-89287952D02*
X97257430Y-89287952D01*
X97257430Y-89287952D02*
X97162192Y-89335571D01*
X97162192Y-89335571D02*
X97114573Y-89430809D01*
X97114573Y-89430809D02*
X97114573Y-89526047D01*
X97114573Y-89526047D02*
X97590763Y-89621285D01*
D12*
X147185114Y-115714510D02*
X147185114Y-115214510D01*
X147970828Y-115214510D02*
X146470828Y-115214510D01*
X146470828Y-115214510D02*
X146470828Y-115928796D01*
X147542257Y-116428796D02*
X147542257Y-117143082D01*
X147970828Y-116285939D02*
X146470828Y-116785939D01*
X146470828Y-116785939D02*
X147970828Y-117285939D01*
X147970828Y-117785938D02*
X146470828Y-117785938D01*
X146470828Y-117785938D02*
X147970828Y-118643081D01*
X147970828Y-118643081D02*
X146470828Y-118643081D01*
D10*
X116506767Y-73185428D02*
X115506767Y-73185428D01*
X115078195Y-74756857D02*
X116506767Y-74756857D01*
X116506767Y-74756857D02*
X116506767Y-71756857D01*
X116506767Y-71756857D02*
X115078195Y-71756857D01*
X112506767Y-74756857D02*
X112506767Y-71756857D01*
X112506767Y-74614000D02*
X112792481Y-74756857D01*
X112792481Y-74756857D02*
X113363909Y-74756857D01*
X113363909Y-74756857D02*
X113649624Y-74614000D01*
X113649624Y-74614000D02*
X113792481Y-74471142D01*
X113792481Y-74471142D02*
X113935338Y-74185428D01*
X113935338Y-74185428D02*
X113935338Y-73328285D01*
X113935338Y-73328285D02*
X113792481Y-73042571D01*
X113792481Y-73042571D02*
X113649624Y-72899714D01*
X113649624Y-72899714D02*
X113363909Y-72756857D01*
X113363909Y-72756857D02*
X112792481Y-72756857D01*
X112792481Y-72756857D02*
X112506767Y-72899714D01*
X109792481Y-72756857D02*
X109792481Y-74756857D01*
X111078195Y-72756857D02*
X111078195Y-74328285D01*
X111078195Y-74328285D02*
X110935338Y-74614000D01*
X110935338Y-74614000D02*
X110649623Y-74756857D01*
X110649623Y-74756857D02*
X110221052Y-74756857D01*
X110221052Y-74756857D02*
X109935338Y-74614000D01*
X109935338Y-74614000D02*
X109792481Y-74471142D01*
X108506766Y-74614000D02*
X108221052Y-74756857D01*
X108221052Y-74756857D02*
X107649623Y-74756857D01*
X107649623Y-74756857D02*
X107363909Y-74614000D01*
X107363909Y-74614000D02*
X107221052Y-74328285D01*
X107221052Y-74328285D02*
X107221052Y-74185428D01*
X107221052Y-74185428D02*
X107363909Y-73899714D01*
X107363909Y-73899714D02*
X107649623Y-73756857D01*
X107649623Y-73756857D02*
X108078195Y-73756857D01*
X108078195Y-73756857D02*
X108363909Y-73614000D01*
X108363909Y-73614000D02*
X108506766Y-73328285D01*
X108506766Y-73328285D02*
X108506766Y-73185428D01*
X108506766Y-73185428D02*
X108363909Y-72899714D01*
X108363909Y-72899714D02*
X108078195Y-72756857D01*
X108078195Y-72756857D02*
X107649623Y-72756857D01*
X107649623Y-72756857D02*
X107363909Y-72899714D01*
X104649624Y-74756857D02*
X104649624Y-73185428D01*
X104649624Y-73185428D02*
X104792481Y-72899714D01*
X104792481Y-72899714D02*
X105078195Y-72756857D01*
X105078195Y-72756857D02*
X105649624Y-72756857D01*
X105649624Y-72756857D02*
X105935338Y-72899714D01*
X104649624Y-74614000D02*
X104935338Y-74756857D01*
X104935338Y-74756857D02*
X105649624Y-74756857D01*
X105649624Y-74756857D02*
X105935338Y-74614000D01*
X105935338Y-74614000D02*
X106078195Y-74328285D01*
X106078195Y-74328285D02*
X106078195Y-74042571D01*
X106078195Y-74042571D02*
X105935338Y-73756857D01*
X105935338Y-73756857D02*
X105649624Y-73614000D01*
X105649624Y-73614000D02*
X104935338Y-73614000D01*
X104935338Y-73614000D02*
X104649624Y-73471142D01*
X103649623Y-72756857D02*
X102506766Y-72756857D01*
X103221052Y-71756857D02*
X103221052Y-74328285D01*
X103221052Y-74328285D02*
X103078195Y-74614000D01*
X103078195Y-74614000D02*
X102792480Y-74756857D01*
X102792480Y-74756857D02*
X102506766Y-74756857D01*
X99221052Y-74756857D02*
X99221052Y-71756857D01*
X97506766Y-74756857D02*
X98792480Y-73042571D01*
X97506766Y-71756857D02*
X99221052Y-73471142D01*
X96221052Y-74756857D02*
X96221052Y-72756857D01*
X96221052Y-71756857D02*
X96363909Y-71899714D01*
X96363909Y-71899714D02*
X96221052Y-72042571D01*
X96221052Y-72042571D02*
X96078195Y-71899714D01*
X96078195Y-71899714D02*
X96221052Y-71756857D01*
X96221052Y-71756857D02*
X96221052Y-72042571D01*
X95221052Y-72756857D02*
X94078195Y-72756857D01*
X94792481Y-71756857D02*
X94792481Y-74328285D01*
X94792481Y-74328285D02*
X94649624Y-74614000D01*
X94649624Y-74614000D02*
X94363909Y-74756857D01*
X94363909Y-74756857D02*
X94078195Y-74756857D01*
D13*
X116267575Y-78915500D02*
X116053290Y-78986928D01*
X116053290Y-78986928D02*
X115696147Y-78986928D01*
X115696147Y-78986928D02*
X115553290Y-78915500D01*
X115553290Y-78915500D02*
X115481861Y-78844071D01*
X115481861Y-78844071D02*
X115410432Y-78701214D01*
X115410432Y-78701214D02*
X115410432Y-78558357D01*
X115410432Y-78558357D02*
X115481861Y-78415500D01*
X115481861Y-78415500D02*
X115553290Y-78344071D01*
X115553290Y-78344071D02*
X115696147Y-78272642D01*
X115696147Y-78272642D02*
X115981861Y-78201214D01*
X115981861Y-78201214D02*
X116124718Y-78129785D01*
X116124718Y-78129785D02*
X116196147Y-78058357D01*
X116196147Y-78058357D02*
X116267575Y-77915500D01*
X116267575Y-77915500D02*
X116267575Y-77772642D01*
X116267575Y-77772642D02*
X116196147Y-77629785D01*
X116196147Y-77629785D02*
X116124718Y-77558357D01*
X116124718Y-77558357D02*
X115981861Y-77486928D01*
X115981861Y-77486928D02*
X115624718Y-77486928D01*
X115624718Y-77486928D02*
X115410432Y-77558357D01*
X114196147Y-78915500D02*
X114339004Y-78986928D01*
X114339004Y-78986928D02*
X114624719Y-78986928D01*
X114624719Y-78986928D02*
X114767576Y-78915500D01*
X114767576Y-78915500D02*
X114839004Y-78772642D01*
X114839004Y-78772642D02*
X114839004Y-78201214D01*
X114839004Y-78201214D02*
X114767576Y-78058357D01*
X114767576Y-78058357D02*
X114624719Y-77986928D01*
X114624719Y-77986928D02*
X114339004Y-77986928D01*
X114339004Y-77986928D02*
X114196147Y-78058357D01*
X114196147Y-78058357D02*
X114124719Y-78201214D01*
X114124719Y-78201214D02*
X114124719Y-78344071D01*
X114124719Y-78344071D02*
X114839004Y-78486928D01*
X113481862Y-77986928D02*
X113481862Y-78986928D01*
X113481862Y-78129785D02*
X113410433Y-78058357D01*
X113410433Y-78058357D02*
X113267576Y-77986928D01*
X113267576Y-77986928D02*
X113053290Y-77986928D01*
X113053290Y-77986928D02*
X112910433Y-78058357D01*
X112910433Y-78058357D02*
X112839005Y-78201214D01*
X112839005Y-78201214D02*
X112839005Y-78986928D01*
X112196147Y-78915500D02*
X112053290Y-78986928D01*
X112053290Y-78986928D02*
X111767576Y-78986928D01*
X111767576Y-78986928D02*
X111624719Y-78915500D01*
X111624719Y-78915500D02*
X111553290Y-78772642D01*
X111553290Y-78772642D02*
X111553290Y-78701214D01*
X111553290Y-78701214D02*
X111624719Y-78558357D01*
X111624719Y-78558357D02*
X111767576Y-78486928D01*
X111767576Y-78486928D02*
X111981862Y-78486928D01*
X111981862Y-78486928D02*
X112124719Y-78415500D01*
X112124719Y-78415500D02*
X112196147Y-78272642D01*
X112196147Y-78272642D02*
X112196147Y-78201214D01*
X112196147Y-78201214D02*
X112124719Y-78058357D01*
X112124719Y-78058357D02*
X111981862Y-77986928D01*
X111981862Y-77986928D02*
X111767576Y-77986928D01*
X111767576Y-77986928D02*
X111624719Y-78058357D01*
X110696147Y-78986928D02*
X110839004Y-78915500D01*
X110839004Y-78915500D02*
X110910433Y-78844071D01*
X110910433Y-78844071D02*
X110981861Y-78701214D01*
X110981861Y-78701214D02*
X110981861Y-78272642D01*
X110981861Y-78272642D02*
X110910433Y-78129785D01*
X110910433Y-78129785D02*
X110839004Y-78058357D01*
X110839004Y-78058357D02*
X110696147Y-77986928D01*
X110696147Y-77986928D02*
X110481861Y-77986928D01*
X110481861Y-77986928D02*
X110339004Y-78058357D01*
X110339004Y-78058357D02*
X110267576Y-78129785D01*
X110267576Y-78129785D02*
X110196147Y-78272642D01*
X110196147Y-78272642D02*
X110196147Y-78701214D01*
X110196147Y-78701214D02*
X110267576Y-78844071D01*
X110267576Y-78844071D02*
X110339004Y-78915500D01*
X110339004Y-78915500D02*
X110481861Y-78986928D01*
X110481861Y-78986928D02*
X110696147Y-78986928D01*
X109553290Y-78986928D02*
X109553290Y-77986928D01*
X109553290Y-78272642D02*
X109481861Y-78129785D01*
X109481861Y-78129785D02*
X109410433Y-78058357D01*
X109410433Y-78058357D02*
X109267575Y-77986928D01*
X109267575Y-77986928D02*
X109124718Y-77986928D01*
X106981862Y-78201214D02*
X106767576Y-78272642D01*
X106767576Y-78272642D02*
X106696147Y-78344071D01*
X106696147Y-78344071D02*
X106624719Y-78486928D01*
X106624719Y-78486928D02*
X106624719Y-78701214D01*
X106624719Y-78701214D02*
X106696147Y-78844071D01*
X106696147Y-78844071D02*
X106767576Y-78915500D01*
X106767576Y-78915500D02*
X106910433Y-78986928D01*
X106910433Y-78986928D02*
X107481862Y-78986928D01*
X107481862Y-78986928D02*
X107481862Y-77486928D01*
X107481862Y-77486928D02*
X106981862Y-77486928D01*
X106981862Y-77486928D02*
X106839005Y-77558357D01*
X106839005Y-77558357D02*
X106767576Y-77629785D01*
X106767576Y-77629785D02*
X106696147Y-77772642D01*
X106696147Y-77772642D02*
X106696147Y-77915500D01*
X106696147Y-77915500D02*
X106767576Y-78058357D01*
X106767576Y-78058357D02*
X106839005Y-78129785D01*
X106839005Y-78129785D02*
X106981862Y-78201214D01*
X106981862Y-78201214D02*
X107481862Y-78201214D01*
X105767576Y-78986928D02*
X105910433Y-78915500D01*
X105910433Y-78915500D02*
X105981862Y-78844071D01*
X105981862Y-78844071D02*
X106053290Y-78701214D01*
X106053290Y-78701214D02*
X106053290Y-78272642D01*
X106053290Y-78272642D02*
X105981862Y-78129785D01*
X105981862Y-78129785D02*
X105910433Y-78058357D01*
X105910433Y-78058357D02*
X105767576Y-77986928D01*
X105767576Y-77986928D02*
X105553290Y-77986928D01*
X105553290Y-77986928D02*
X105410433Y-78058357D01*
X105410433Y-78058357D02*
X105339005Y-78129785D01*
X105339005Y-78129785D02*
X105267576Y-78272642D01*
X105267576Y-78272642D02*
X105267576Y-78701214D01*
X105267576Y-78701214D02*
X105339005Y-78844071D01*
X105339005Y-78844071D02*
X105410433Y-78915500D01*
X105410433Y-78915500D02*
X105553290Y-78986928D01*
X105553290Y-78986928D02*
X105767576Y-78986928D01*
X103981862Y-78986928D02*
X103981862Y-78201214D01*
X103981862Y-78201214D02*
X104053290Y-78058357D01*
X104053290Y-78058357D02*
X104196147Y-77986928D01*
X104196147Y-77986928D02*
X104481862Y-77986928D01*
X104481862Y-77986928D02*
X104624719Y-78058357D01*
X103981862Y-78915500D02*
X104124719Y-78986928D01*
X104124719Y-78986928D02*
X104481862Y-78986928D01*
X104481862Y-78986928D02*
X104624719Y-78915500D01*
X104624719Y-78915500D02*
X104696147Y-78772642D01*
X104696147Y-78772642D02*
X104696147Y-78629785D01*
X104696147Y-78629785D02*
X104624719Y-78486928D01*
X104624719Y-78486928D02*
X104481862Y-78415500D01*
X104481862Y-78415500D02*
X104124719Y-78415500D01*
X104124719Y-78415500D02*
X103981862Y-78344071D01*
X103267576Y-78986928D02*
X103267576Y-77986928D01*
X103267576Y-78272642D02*
X103196147Y-78129785D01*
X103196147Y-78129785D02*
X103124719Y-78058357D01*
X103124719Y-78058357D02*
X102981861Y-77986928D01*
X102981861Y-77986928D02*
X102839004Y-77986928D01*
X101696148Y-78986928D02*
X101696148Y-77486928D01*
X101696148Y-78915500D02*
X101839005Y-78986928D01*
X101839005Y-78986928D02*
X102124719Y-78986928D01*
X102124719Y-78986928D02*
X102267576Y-78915500D01*
X102267576Y-78915500D02*
X102339005Y-78844071D01*
X102339005Y-78844071D02*
X102410433Y-78701214D01*
X102410433Y-78701214D02*
X102410433Y-78272642D01*
X102410433Y-78272642D02*
X102339005Y-78129785D01*
X102339005Y-78129785D02*
X102267576Y-78058357D01*
X102267576Y-78058357D02*
X102124719Y-77986928D01*
X102124719Y-77986928D02*
X101839005Y-77986928D01*
X101839005Y-77986928D02*
X101696148Y-78058357D01*
D11*
X87752568Y-124854619D02*
X87752568Y-123854619D01*
X87752568Y-123854619D02*
X88085901Y-124568904D01*
X88085901Y-124568904D02*
X88419234Y-123854619D01*
X88419234Y-123854619D02*
X88419234Y-124854619D01*
X89466853Y-124759380D02*
X89419234Y-124807000D01*
X89419234Y-124807000D02*
X89276377Y-124854619D01*
X89276377Y-124854619D02*
X89181139Y-124854619D01*
X89181139Y-124854619D02*
X89038282Y-124807000D01*
X89038282Y-124807000D02*
X88943044Y-124711761D01*
X88943044Y-124711761D02*
X88895425Y-124616523D01*
X88895425Y-124616523D02*
X88847806Y-124426047D01*
X88847806Y-124426047D02*
X88847806Y-124283190D01*
X88847806Y-124283190D02*
X88895425Y-124092714D01*
X88895425Y-124092714D02*
X88943044Y-123997476D01*
X88943044Y-123997476D02*
X89038282Y-123902238D01*
X89038282Y-123902238D02*
X89181139Y-123854619D01*
X89181139Y-123854619D02*
X89276377Y-123854619D01*
X89276377Y-123854619D02*
X89419234Y-123902238D01*
X89419234Y-123902238D02*
X89466853Y-123949857D01*
X89895425Y-124854619D02*
X89895425Y-123854619D01*
X89895425Y-123854619D02*
X90276377Y-123854619D01*
X90276377Y-123854619D02*
X90371615Y-123902238D01*
X90371615Y-123902238D02*
X90419234Y-123949857D01*
X90419234Y-123949857D02*
X90466853Y-124045095D01*
X90466853Y-124045095D02*
X90466853Y-124187952D01*
X90466853Y-124187952D02*
X90419234Y-124283190D01*
X90419234Y-124283190D02*
X90371615Y-124330809D01*
X90371615Y-124330809D02*
X90276377Y-124378428D01*
X90276377Y-124378428D02*
X89895425Y-124378428D01*
X90800187Y-123854619D02*
X91419234Y-123854619D01*
X91419234Y-123854619D02*
X91085901Y-124235571D01*
X91085901Y-124235571D02*
X91228758Y-124235571D01*
X91228758Y-124235571D02*
X91323996Y-124283190D01*
X91323996Y-124283190D02*
X91371615Y-124330809D01*
X91371615Y-124330809D02*
X91419234Y-124426047D01*
X91419234Y-124426047D02*
X91419234Y-124664142D01*
X91419234Y-124664142D02*
X91371615Y-124759380D01*
X91371615Y-124759380D02*
X91323996Y-124807000D01*
X91323996Y-124807000D02*
X91228758Y-124854619D01*
X91228758Y-124854619D02*
X90943044Y-124854619D01*
X90943044Y-124854619D02*
X90847806Y-124807000D01*
X90847806Y-124807000D02*
X90800187Y-124759380D01*
X92038282Y-123854619D02*
X92133520Y-123854619D01*
X92133520Y-123854619D02*
X92228758Y-123902238D01*
X92228758Y-123902238D02*
X92276377Y-123949857D01*
X92276377Y-123949857D02*
X92323996Y-124045095D01*
X92323996Y-124045095D02*
X92371615Y-124235571D01*
X92371615Y-124235571D02*
X92371615Y-124473666D01*
X92371615Y-124473666D02*
X92323996Y-124664142D01*
X92323996Y-124664142D02*
X92276377Y-124759380D01*
X92276377Y-124759380D02*
X92228758Y-124807000D01*
X92228758Y-124807000D02*
X92133520Y-124854619D01*
X92133520Y-124854619D02*
X92038282Y-124854619D01*
X92038282Y-124854619D02*
X91943044Y-124807000D01*
X91943044Y-124807000D02*
X91895425Y-124759380D01*
X91895425Y-124759380D02*
X91847806Y-124664142D01*
X91847806Y-124664142D02*
X91800187Y-124473666D01*
X91800187Y-124473666D02*
X91800187Y-124235571D01*
X91800187Y-124235571D02*
X91847806Y-124045095D01*
X91847806Y-124045095D02*
X91895425Y-123949857D01*
X91895425Y-123949857D02*
X91943044Y-123902238D01*
X91943044Y-123902238D02*
X92038282Y-123854619D01*
X92990663Y-123854619D02*
X93085901Y-123854619D01*
X93085901Y-123854619D02*
X93181139Y-123902238D01*
X93181139Y-123902238D02*
X93228758Y-123949857D01*
X93228758Y-123949857D02*
X93276377Y-124045095D01*
X93276377Y-124045095D02*
X93323996Y-124235571D01*
X93323996Y-124235571D02*
X93323996Y-124473666D01*
X93323996Y-124473666D02*
X93276377Y-124664142D01*
X93276377Y-124664142D02*
X93228758Y-124759380D01*
X93228758Y-124759380D02*
X93181139Y-124807000D01*
X93181139Y-124807000D02*
X93085901Y-124854619D01*
X93085901Y-124854619D02*
X92990663Y-124854619D01*
X92990663Y-124854619D02*
X92895425Y-124807000D01*
X92895425Y-124807000D02*
X92847806Y-124759380D01*
X92847806Y-124759380D02*
X92800187Y-124664142D01*
X92800187Y-124664142D02*
X92752568Y-124473666D01*
X92752568Y-124473666D02*
X92752568Y-124235571D01*
X92752568Y-124235571D02*
X92800187Y-124045095D01*
X92800187Y-124045095D02*
X92847806Y-123949857D01*
X92847806Y-123949857D02*
X92895425Y-123902238D01*
X92895425Y-123902238D02*
X92990663Y-123854619D01*
X93895425Y-124283190D02*
X93800187Y-124235571D01*
X93800187Y-124235571D02*
X93752568Y-124187952D01*
X93752568Y-124187952D02*
X93704949Y-124092714D01*
X93704949Y-124092714D02*
X93704949Y-124045095D01*
X93704949Y-124045095D02*
X93752568Y-123949857D01*
X93752568Y-123949857D02*
X93800187Y-123902238D01*
X93800187Y-123902238D02*
X93895425Y-123854619D01*
X93895425Y-123854619D02*
X94085901Y-123854619D01*
X94085901Y-123854619D02*
X94181139Y-123902238D01*
X94181139Y-123902238D02*
X94228758Y-123949857D01*
X94228758Y-123949857D02*
X94276377Y-124045095D01*
X94276377Y-124045095D02*
X94276377Y-124092714D01*
X94276377Y-124092714D02*
X94228758Y-124187952D01*
X94228758Y-124187952D02*
X94181139Y-124235571D01*
X94181139Y-124235571D02*
X94085901Y-124283190D01*
X94085901Y-124283190D02*
X93895425Y-124283190D01*
X93895425Y-124283190D02*
X93800187Y-124330809D01*
X93800187Y-124330809D02*
X93752568Y-124378428D01*
X93752568Y-124378428D02*
X93704949Y-124473666D01*
X93704949Y-124473666D02*
X93704949Y-124664142D01*
X93704949Y-124664142D02*
X93752568Y-124759380D01*
X93752568Y-124759380D02*
X93800187Y-124807000D01*
X93800187Y-124807000D02*
X93895425Y-124854619D01*
X93895425Y-124854619D02*
X94085901Y-124854619D01*
X94085901Y-124854619D02*
X94181139Y-124807000D01*
X94181139Y-124807000D02*
X94228758Y-124759380D01*
X94228758Y-124759380D02*
X94276377Y-124664142D01*
X94276377Y-124664142D02*
X94276377Y-124473666D01*
X94276377Y-124473666D02*
X94228758Y-124378428D01*
X94228758Y-124378428D02*
X94181139Y-124330809D01*
X94181139Y-124330809D02*
X94085901Y-124283190D01*
D14*
X140104819Y-116400476D02*
X140819104Y-116400476D01*
X140819104Y-116400476D02*
X140961961Y-116352857D01*
X140961961Y-116352857D02*
X141057200Y-116257619D01*
X141057200Y-116257619D02*
X141104819Y-116114762D01*
X141104819Y-116114762D02*
X141104819Y-116019524D01*
X141104819Y-117400476D02*
X141104819Y-116829048D01*
X141104819Y-117114762D02*
X140104819Y-117114762D01*
X140104819Y-117114762D02*
X140247676Y-117019524D01*
X140247676Y-117019524D02*
X140342914Y-116924286D01*
X140342914Y-116924286D02*
X140390533Y-116829048D01*
X140200057Y-117781429D02*
X140152438Y-117829048D01*
X140152438Y-117829048D02*
X140104819Y-117924286D01*
X140104819Y-117924286D02*
X140104819Y-118162381D01*
X140104819Y-118162381D02*
X140152438Y-118257619D01*
X140152438Y-118257619D02*
X140200057Y-118305238D01*
X140200057Y-118305238D02*
X140295295Y-118352857D01*
X140295295Y-118352857D02*
X140390533Y-118352857D01*
X140390533Y-118352857D02*
X140533390Y-118305238D01*
X140533390Y-118305238D02*
X141104819Y-117733810D01*
X141104819Y-117733810D02*
X141104819Y-118352857D01*
X77574819Y-74680476D02*
X78289104Y-74680476D01*
X78289104Y-74680476D02*
X78431961Y-74632857D01*
X78431961Y-74632857D02*
X78527200Y-74537619D01*
X78527200Y-74537619D02*
X78574819Y-74394762D01*
X78574819Y-74394762D02*
X78574819Y-74299524D01*
X78574819Y-75680476D02*
X78574819Y-75109048D01*
X78574819Y-75394762D02*
X77574819Y-75394762D01*
X77574819Y-75394762D02*
X77717676Y-75299524D01*
X77717676Y-75299524D02*
X77812914Y-75204286D01*
X77812914Y-75204286D02*
X77860533Y-75109048D01*
X78574819Y-76632857D02*
X78574819Y-76061429D01*
X78574819Y-76347143D02*
X77574819Y-76347143D01*
X77574819Y-76347143D02*
X77717676Y-76251905D01*
X77717676Y-76251905D02*
X77812914Y-76156667D01*
X77812914Y-76156667D02*
X77860533Y-76061429D01*
D15*
%TO.C,J12*%
X146060000Y-113050000D02*
X146060000Y-115550000D01*
X143560000Y-113050000D02*
X146060000Y-113050000D01*
X145760000Y-113350000D02*
X145760000Y-121070000D01*
X144260000Y-113350000D02*
X144260000Y-114350000D01*
X143450000Y-113350000D02*
X143450000Y-113850000D01*
X141740000Y-113350000D02*
X145760000Y-113350000D01*
X143450000Y-113850000D02*
X142240000Y-113850000D01*
X142240000Y-113850000D02*
X142240000Y-120570000D01*
X144260000Y-114350000D02*
X145760000Y-114350000D01*
X144260000Y-120070000D02*
X145760000Y-120070000D01*
X143450000Y-120570000D02*
X143450000Y-121070000D01*
X142240000Y-120570000D02*
X143450000Y-120570000D01*
X145760000Y-121070000D02*
X141740000Y-121070000D01*
X144260000Y-121070000D02*
X144260000Y-120070000D01*
X141740000Y-121070000D02*
X141740000Y-113350000D01*
%TO.C,J11*%
X77510000Y-70540000D02*
X69090000Y-70540000D01*
X70310000Y-70540000D02*
X70310000Y-71760000D01*
X69090000Y-70540000D02*
X69090000Y-80760000D01*
X77510000Y-71760000D02*
X77510000Y-70540000D01*
X75310000Y-71760000D02*
X75310000Y-70540000D01*
X75310000Y-71760000D02*
X77510000Y-71760000D01*
X74310000Y-71760000D02*
X74310000Y-79540000D01*
X70310000Y-71760000D02*
X75310000Y-71760000D01*
X74310000Y-72830000D02*
X70890000Y-72830000D01*
X70890000Y-72830000D02*
X70810000Y-73150000D01*
X78000000Y-72850000D02*
X78000000Y-73450000D01*
X77400000Y-73150000D02*
X78000000Y-72850000D01*
X74310000Y-73150000D02*
X74310000Y-72830000D01*
X70810000Y-73150000D02*
X70890000Y-73470000D01*
X78000000Y-73450000D02*
X77400000Y-73150000D01*
X74310000Y-73470000D02*
X74310000Y-73150000D01*
X70890000Y-73470000D02*
X74310000Y-73470000D01*
X75310000Y-74320000D02*
X75310000Y-74480000D01*
X74310000Y-75330000D02*
X70890000Y-75330000D01*
X70890000Y-75330000D02*
X70810000Y-75650000D01*
X74310000Y-75650000D02*
X74310000Y-75330000D01*
X70810000Y-75650000D02*
X70890000Y-75970000D01*
X74310000Y-75970000D02*
X74310000Y-75650000D01*
X70890000Y-75970000D02*
X74310000Y-75970000D01*
X75310000Y-76820000D02*
X75310000Y-76980000D01*
X74310000Y-77830000D02*
X70890000Y-77830000D01*
X70890000Y-77830000D02*
X70810000Y-78150000D01*
X74310000Y-78150000D02*
X74310000Y-77830000D01*
X70810000Y-78150000D02*
X70890000Y-78470000D01*
X74310000Y-78470000D02*
X74310000Y-78150000D01*
X70890000Y-78470000D02*
X74310000Y-78470000D01*
X77510000Y-79540000D02*
X75310000Y-79540000D01*
X75310000Y-79540000D02*
X75310000Y-80760000D01*
X70310000Y-79540000D02*
X75310000Y-79540000D01*
X77510000Y-80760000D02*
X77510000Y-79540000D01*
X70310000Y-80760000D02*
X70310000Y-79540000D01*
X69090000Y-80760000D02*
X77510000Y-80760000D01*
%TO.C,J9*%
X89660000Y-132190000D02*
X89660000Y-126990000D01*
X140580000Y-132190000D02*
X89660000Y-132190000D01*
X140580000Y-132190000D02*
X140580000Y-129590000D01*
X137980000Y-129590000D02*
X137980000Y-126990000D01*
X140580000Y-129590000D02*
X137980000Y-129590000D01*
X140580000Y-128320000D02*
X140580000Y-126990000D01*
X137980000Y-126990000D02*
X89660000Y-126990000D01*
X140580000Y-126990000D02*
X139250000Y-126990000D01*
%TD*%
M02*
