%TF.GenerationSoftware,KiCad,Pcbnew,8.0.6*%
%TF.CreationDate,2024-11-27T19:42:17+03:00*%
%TF.ProjectId,EPSv3,45505376-332e-46b6-9963-61645f706362,rev?*%
%TF.SameCoordinates,Original*%
%TF.FileFunction,Paste,Top*%
%TF.FilePolarity,Positive*%
%FSLAX46Y46*%
G04 Gerber Fmt 4.6, Leading zero omitted, Abs format (unit mm)*
G04 Created by KiCad (PCBNEW 8.0.6) date 2024-11-27 19:42:17*
%MOMM*%
%LPD*%
G01*
G04 APERTURE LIST*
G04 Aperture macros list*
%AMRoundRect*
0 Rectangle with rounded corners*
0 $1 Rounding radius*
0 $2 $3 $4 $5 $6 $7 $8 $9 X,Y pos of 4 corners*
0 Add a 4 corners polygon primitive as box body*
4,1,4,$2,$3,$4,$5,$6,$7,$8,$9,$2,$3,0*
0 Add four circle primitives for the rounded corners*
1,1,$1+$1,$2,$3*
1,1,$1+$1,$4,$5*
1,1,$1+$1,$6,$7*
1,1,$1+$1,$8,$9*
0 Add four rect primitives between the rounded corners*
20,1,$1+$1,$2,$3,$4,$5,0*
20,1,$1+$1,$4,$5,$6,$7,0*
20,1,$1+$1,$6,$7,$8,$9,0*
20,1,$1+$1,$8,$9,$2,$3,0*%
G04 Aperture macros list end*
%ADD10RoundRect,0.250000X-0.337500X-0.475000X0.337500X-0.475000X0.337500X0.475000X-0.337500X0.475000X0*%
%ADD11RoundRect,0.250000X-0.475000X0.337500X-0.475000X-0.337500X0.475000X-0.337500X0.475000X0.337500X0*%
%ADD12RoundRect,0.250000X0.475000X-0.337500X0.475000X0.337500X-0.475000X0.337500X-0.475000X-0.337500X0*%
%ADD13RoundRect,0.250000X-0.450000X0.350000X-0.450000X-0.350000X0.450000X-0.350000X0.450000X0.350000X0*%
%ADD14RoundRect,0.250000X0.337500X0.475000X-0.337500X0.475000X-0.337500X-0.475000X0.337500X-0.475000X0*%
%ADD15R,3.200000X2.600000*%
%ADD16RoundRect,0.250000X0.325000X0.450000X-0.325000X0.450000X-0.325000X-0.450000X0.325000X-0.450000X0*%
%ADD17RoundRect,0.250000X-0.325000X-0.450000X0.325000X-0.450000X0.325000X0.450000X-0.325000X0.450000X0*%
%ADD18RoundRect,0.250000X-0.350000X-0.450000X0.350000X-0.450000X0.350000X0.450000X-0.350000X0.450000X0*%
%ADD19RoundRect,0.250000X0.450000X-0.350000X0.450000X0.350000X-0.450000X0.350000X-0.450000X-0.350000X0*%
%ADD20R,1.320800X0.558800*%
%ADD21RoundRect,0.150000X-0.150000X0.825000X-0.150000X-0.825000X0.150000X-0.825000X0.150000X0.825000X0*%
%ADD22RoundRect,0.175000X-0.175000X-0.425000X0.175000X-0.425000X0.175000X0.425000X-0.175000X0.425000X0*%
%ADD23RoundRect,0.190000X0.190000X0.410000X-0.190000X0.410000X-0.190000X-0.410000X0.190000X-0.410000X0*%
%ADD24RoundRect,0.200000X0.200000X0.400000X-0.200000X0.400000X-0.200000X-0.400000X0.200000X-0.400000X0*%
%ADD25RoundRect,0.175000X0.175000X0.425000X-0.175000X0.425000X-0.175000X-0.425000X0.175000X-0.425000X0*%
%ADD26RoundRect,0.190000X-0.190000X-0.410000X0.190000X-0.410000X0.190000X0.410000X-0.190000X0.410000X0*%
%ADD27RoundRect,0.200000X-0.200000X-0.400000X0.200000X-0.400000X0.200000X0.400000X-0.200000X0.400000X0*%
%ADD28O,1.100000X1.700000*%
%ADD29RoundRect,0.178200X0.151800X-0.584300X0.151800X0.584300X-0.151800X0.584300X-0.151800X-0.584300X0*%
%ADD30R,1.500000X1.050000*%
%ADD31R,1.500000X2.400000*%
%ADD32R,0.952500X0.558800*%
%ADD33RoundRect,0.250000X0.350000X0.450000X-0.350000X0.450000X-0.350000X-0.450000X0.350000X-0.450000X0*%
%ADD34RoundRect,0.150000X-0.825000X-0.150000X0.825000X-0.150000X0.825000X0.150000X-0.825000X0.150000X0*%
%ADD35R,1.550000X1.000000*%
%ADD36RoundRect,0.150000X-0.150000X0.512500X-0.150000X-0.512500X0.150000X-0.512500X0.150000X0.512500X0*%
%ADD37RoundRect,0.250000X-0.450000X0.325000X-0.450000X-0.325000X0.450000X-0.325000X0.450000X0.325000X0*%
%ADD38R,2.600000X3.200000*%
G04 APERTURE END LIST*
D10*
%TO.C,C5*%
X92625106Y-59857982D03*
X94700106Y-59857982D03*
%TD*%
D11*
%TO.C,C7*%
X96583606Y-82730482D03*
X96583606Y-84805482D03*
%TD*%
%TO.C,C11*%
X75947606Y-95585482D03*
X75947606Y-97660482D03*
%TD*%
D12*
%TO.C,C14*%
X74866606Y-63943482D03*
X74866606Y-61868482D03*
%TD*%
D13*
%TO.C,R11*%
X88074606Y-61905982D03*
X88074606Y-63905982D03*
%TD*%
D14*
%TO.C,C1*%
X98256106Y-109387982D03*
X96181106Y-109387982D03*
%TD*%
D15*
%TO.C,L2*%
X79692606Y-63823982D03*
X79692606Y-57923982D03*
%TD*%
D16*
%TO.C,D3*%
X127707606Y-113451982D03*
X125657606Y-113451982D03*
%TD*%
D17*
%TO.C,D8*%
X118822106Y-93154482D03*
X120872106Y-93154482D03*
%TD*%
D18*
%TO.C,R5*%
X74374606Y-117261982D03*
X76374606Y-117261982D03*
%TD*%
D19*
%TO.C,R4*%
X80962606Y-121817982D03*
X80962606Y-119817982D03*
%TD*%
D12*
%TO.C,C16*%
X72580606Y-57593482D03*
X72580606Y-55518482D03*
%TD*%
D20*
%TO.C,U3*%
X92214806Y-67401782D03*
X92214806Y-65522182D03*
X90030406Y-66461982D03*
%TD*%
D16*
%TO.C,D7*%
X120849606Y-95925982D03*
X118799606Y-95925982D03*
%TD*%
D21*
%TO.C,U1*%
X100771606Y-101832982D03*
X99501606Y-101832982D03*
X98231606Y-101832982D03*
X96961606Y-101832982D03*
X96961606Y-106782982D03*
X98231606Y-106782982D03*
X99501606Y-106782982D03*
X100771606Y-106782982D03*
%TD*%
D11*
%TO.C,C8*%
X87947606Y-82730482D03*
X87947606Y-84805482D03*
%TD*%
D12*
%TO.C,C3*%
X85661606Y-88869482D03*
X85661606Y-86794482D03*
%TD*%
D11*
%TO.C,C6*%
X98869606Y-82730482D03*
X98869606Y-84805482D03*
%TD*%
D22*
%TO.C,J3*%
X72842606Y-119769982D03*
D23*
X74862606Y-119769982D03*
D24*
X76092606Y-119769982D03*
D25*
X73842606Y-119769982D03*
D26*
X71822606Y-119769982D03*
D27*
X70592606Y-119769982D03*
D28*
X69022606Y-119849982D03*
X69022606Y-123649982D03*
X77662606Y-119849982D03*
X77662606Y-123649982D03*
%TD*%
D16*
%TO.C,D9*%
X95703606Y-70398982D03*
X93653606Y-70398982D03*
%TD*%
D29*
%TO.C,U2*%
X89979606Y-87941982D03*
X91249606Y-87941982D03*
X92519606Y-87941982D03*
X93789606Y-87941982D03*
X93789606Y-82861982D03*
X92519606Y-82861982D03*
X91249606Y-82861982D03*
X89979606Y-82861982D03*
%TD*%
D18*
%TO.C,R2*%
X120872606Y-110911982D03*
X122872606Y-110911982D03*
%TD*%
D11*
%TO.C,C2*%
X102044606Y-109112482D03*
X102044606Y-111187482D03*
%TD*%
D17*
%TO.C,D6*%
X118822106Y-98719982D03*
X120872106Y-98719982D03*
%TD*%
D12*
%TO.C,C12*%
X75947606Y-92580482D03*
X75947606Y-90505482D03*
%TD*%
D30*
%TO.C,D1*%
X104838606Y-112943982D03*
D31*
X104838606Y-110568982D03*
%TD*%
D18*
%TO.C,R8*%
X97361606Y-80465982D03*
X99361606Y-80465982D03*
%TD*%
D16*
%TO.C,D5*%
X120858606Y-101513982D03*
X118808606Y-101513982D03*
%TD*%
D17*
%TO.C,D10*%
X58296806Y-47843782D03*
X60346806Y-47843782D03*
%TD*%
D11*
%TO.C,C13*%
X69024606Y-59836482D03*
X69024606Y-61911482D03*
%TD*%
%TO.C,C10*%
X83375606Y-82730482D03*
X83375606Y-84805482D03*
%TD*%
D32*
%TO.C,IC1*%
X89782650Y-61943999D03*
X89782650Y-62894000D03*
X89782650Y-63844001D03*
X92589350Y-63844001D03*
X92589350Y-62894000D03*
X92589350Y-61943999D03*
%TD*%
D19*
%TO.C,R9*%
X94424606Y-64159982D03*
X94424606Y-62159982D03*
%TD*%
D33*
%TO.C,R7*%
X87931606Y-90879982D03*
X85931606Y-90879982D03*
%TD*%
D18*
%TO.C,R10*%
X112728606Y-86273982D03*
X114728606Y-86273982D03*
%TD*%
D33*
%TO.C,R12*%
X89233000Y-70411000D03*
X87233000Y-70411000D03*
%TD*%
D34*
%TO.C,U4*%
X68581606Y-93004982D03*
X68581606Y-94274982D03*
X68581606Y-95544982D03*
X68581606Y-96814982D03*
X73531606Y-96814982D03*
X73531606Y-95544982D03*
X73531606Y-94274982D03*
X73531606Y-93004982D03*
%TD*%
D12*
%TO.C,C4*%
X87947606Y-88869482D03*
X87947606Y-86794482D03*
%TD*%
D35*
%TO.C,S2*%
X117538606Y-86451982D03*
X117538606Y-89651982D03*
X122788606Y-89651982D03*
X122788606Y-86451982D03*
%TD*%
D36*
%TO.C,U5*%
X72956606Y-59614982D03*
X72006606Y-59614982D03*
X71056606Y-59614982D03*
X71056606Y-61889982D03*
X72006606Y-61889982D03*
X72956606Y-61889982D03*
%TD*%
D18*
%TO.C,R1*%
X120901606Y-113451982D03*
X122901606Y-113451982D03*
%TD*%
D33*
%TO.C,R6*%
X72310606Y-117261982D03*
X70310606Y-117261982D03*
%TD*%
D37*
%TO.C,D4*%
X80962606Y-115719982D03*
X80962606Y-117769982D03*
%TD*%
D18*
%TO.C,R3*%
X125682606Y-110911982D03*
X127682606Y-110911982D03*
%TD*%
D11*
%TO.C,C9*%
X85661606Y-82730482D03*
X85661606Y-84805482D03*
%TD*%
D38*
%TO.C,L1*%
X88807606Y-77925982D03*
X94707606Y-77925982D03*
%TD*%
D30*
%TO.C,D2*%
X113441106Y-112978482D03*
D31*
X113441106Y-110603482D03*
%TD*%
D19*
%TO.C,R13*%
X60337806Y-51891782D03*
X60337806Y-49891782D03*
%TD*%
D12*
%TO.C,C15*%
X74866606Y-57593482D03*
X74866606Y-55518482D03*
%TD*%
M02*
