%TF.GenerationSoftware,KiCad,Pcbnew,8.0.6*%
%TF.CreationDate,2024-11-27T19:43:05+03:00*%
%TF.ProjectId,EPSv3,45505376-332e-46b6-9963-61645f706362,rev?*%
%TF.SameCoordinates,Original*%
%TF.FileFunction,Drillmap*%
%TF.FilePolarity,Positive*%
%FSLAX45Y45*%
G04 Gerber Fmt 4.5, Leading zero omitted, Abs format (unit mm)*
G04 Created by KiCad (PCBNEW 8.0.6) date 2024-11-27 19:43:05*
%MOMM*%
%LPD*%
G01*
G04 APERTURE LIST*
%ADD10C,0.100000*%
%ADD11C,0.200000*%
%ADD12C,0.132000*%
%ADD13C,0.173000*%
G04 APERTURE END LIST*
D10*
X12737982Y-12628970D02*
X5334000Y-12629000D01*
X5009139Y-4900026D02*
G75*
G02*
X5334139Y-4575026I325000J0D01*
G01*
X13062982Y-12303970D02*
G75*
G02*
X12737982Y-12628972I-325002J1D01*
G01*
X13062982Y-4902200D02*
X13062982Y-12303970D01*
X5334000Y-12629000D02*
G75*
G02*
X5009000Y-12304000I0J325000D01*
G01*
X12737982Y-4577200D02*
G75*
G02*
X13062980Y-4902200I-2J-325000D01*
G01*
X5334139Y-4575026D02*
X12737982Y-4577200D01*
X5009139Y-4900026D02*
X5009000Y-12304000D01*
D11*
D10*
X5121061Y-5286998D02*
X5151061Y-5316998D01*
X5151061Y-5286998D02*
X5121061Y-5316998D01*
X5121061Y-5686998D02*
X5151061Y-5716998D01*
X5151061Y-5686998D02*
X5121061Y-5716998D01*
X5121061Y-6086998D02*
X5151061Y-6116998D01*
X5151061Y-6086998D02*
X5121061Y-6116998D01*
X5121061Y-6486998D02*
X5151061Y-6516998D01*
X5151061Y-6486998D02*
X5121061Y-6516998D01*
X5121061Y-6886998D02*
X5151061Y-6916998D01*
X5151061Y-6886998D02*
X5121061Y-6916998D01*
X5121061Y-7286998D02*
X5151061Y-7316998D01*
X5151061Y-7286998D02*
X5121061Y-7316998D01*
X5121061Y-7686998D02*
X5151061Y-7716998D01*
X5151061Y-7686998D02*
X5121061Y-7716998D01*
X5121061Y-8086998D02*
X5151061Y-8116998D01*
X5151061Y-8086998D02*
X5121061Y-8116998D01*
X5121061Y-8486998D02*
X5151061Y-8516998D01*
X5151061Y-8486998D02*
X5121061Y-8516998D01*
X5121061Y-8886998D02*
X5151061Y-8916998D01*
X5151061Y-8886998D02*
X5121061Y-8916998D01*
X5121061Y-9286998D02*
X5151061Y-9316998D01*
X5151061Y-9286998D02*
X5121061Y-9316998D01*
X5121061Y-9686998D02*
X5151061Y-9716998D01*
X5151061Y-9686998D02*
X5121061Y-9716998D01*
X5121061Y-10086998D02*
X5151061Y-10116998D01*
X5151061Y-10086998D02*
X5121061Y-10116998D01*
X5121061Y-10486998D02*
X5151061Y-10516998D01*
X5151061Y-10486998D02*
X5121061Y-10516998D01*
X5121061Y-10886998D02*
X5151061Y-10916998D01*
X5151061Y-10886998D02*
X5121061Y-10916998D01*
X5121061Y-11686998D02*
X5151061Y-11716998D01*
X5151061Y-11686998D02*
X5121061Y-11716998D01*
X5121061Y-12086998D02*
X5151061Y-12116998D01*
X5151061Y-12086998D02*
X5121061Y-12116998D01*
X5221061Y-5086998D02*
X5251061Y-5116998D01*
X5251061Y-5086998D02*
X5221061Y-5116998D01*
X5221061Y-5486998D02*
X5251061Y-5516998D01*
X5251061Y-5486998D02*
X5221061Y-5516998D01*
X5221061Y-5886998D02*
X5251061Y-5916998D01*
X5251061Y-5886998D02*
X5221061Y-5916998D01*
X5221061Y-6286998D02*
X5251061Y-6316998D01*
X5251061Y-6286998D02*
X5221061Y-6316998D01*
X5321061Y-10286998D02*
X5351061Y-10316998D01*
X5351061Y-10286998D02*
X5321061Y-10316998D01*
X5321061Y-10686998D02*
X5351061Y-10716998D01*
X5351061Y-10686998D02*
X5321061Y-10716998D01*
X5321061Y-11086998D02*
X5351061Y-11116998D01*
X5351061Y-11086998D02*
X5321061Y-11116998D01*
X5321061Y-11886998D02*
X5351061Y-11916998D01*
X5351061Y-11886998D02*
X5321061Y-11916998D01*
X5421061Y-5286998D02*
X5451061Y-5316998D01*
X5451061Y-5286998D02*
X5421061Y-5316998D01*
X5421061Y-5686998D02*
X5451061Y-5716998D01*
X5451061Y-5686998D02*
X5421061Y-5716998D01*
X5421061Y-6086998D02*
X5451061Y-6116998D01*
X5451061Y-6086998D02*
X5421061Y-6116998D01*
X5421061Y-6486998D02*
X5451061Y-6516998D01*
X5451061Y-6486998D02*
X5421061Y-6516998D01*
X5521061Y-11686998D02*
X5551061Y-11716998D01*
X5551061Y-11686998D02*
X5521061Y-11716998D01*
X5521061Y-12086998D02*
X5551061Y-12116998D01*
X5551061Y-12086998D02*
X5521061Y-12116998D01*
X5521061Y-12486998D02*
X5551061Y-12516998D01*
X5551061Y-12486998D02*
X5521061Y-12516998D01*
X5621061Y-4686998D02*
X5651061Y-4716998D01*
X5651061Y-4686998D02*
X5621061Y-4716998D01*
X5621061Y-5086998D02*
X5651061Y-5116998D01*
X5651061Y-5086998D02*
X5621061Y-5116998D01*
X5621061Y-5486998D02*
X5651061Y-5516998D01*
X5651061Y-5486998D02*
X5621061Y-5516998D01*
X5721061Y-11886998D02*
X5751061Y-11916998D01*
X5751061Y-11886998D02*
X5721061Y-11916998D01*
X5721061Y-12286998D02*
X5751061Y-12316998D01*
X5751061Y-12286998D02*
X5721061Y-12316998D01*
X5921061Y-11686998D02*
X5951061Y-11716998D01*
X5951061Y-11686998D02*
X5921061Y-11716998D01*
X5921061Y-12086998D02*
X5951061Y-12116998D01*
X5951061Y-12086998D02*
X5921061Y-12116998D01*
X5921061Y-12486998D02*
X5951061Y-12516998D01*
X5951061Y-12486998D02*
X5921061Y-12516998D01*
X6021061Y-6286998D02*
X6051061Y-6316998D01*
X6051061Y-6286998D02*
X6021061Y-6316998D01*
X6121061Y-7486998D02*
X6151061Y-7516998D01*
X6151061Y-7486998D02*
X6121061Y-7516998D01*
X6121061Y-7886998D02*
X6151061Y-7916998D01*
X6151061Y-7886998D02*
X6121061Y-7916998D01*
X6121061Y-8286998D02*
X6151061Y-8316998D01*
X6151061Y-8286998D02*
X6121061Y-8316998D01*
X6121061Y-8686998D02*
X6151061Y-8716998D01*
X6151061Y-8686998D02*
X6121061Y-8716998D01*
X6121061Y-11886998D02*
X6151061Y-11916998D01*
X6151061Y-11886998D02*
X6121061Y-11916998D01*
X6121061Y-12286998D02*
X6151061Y-12316998D01*
X6151061Y-12286998D02*
X6121061Y-12316998D01*
X6321061Y-7686998D02*
X6351061Y-7716998D01*
X6351061Y-7686998D02*
X6321061Y-7716998D01*
X6321061Y-8086998D02*
X6351061Y-8116998D01*
X6351061Y-8086998D02*
X6321061Y-8116998D01*
X6321061Y-8486998D02*
X6351061Y-8516998D01*
X6351061Y-8486998D02*
X6321061Y-8516998D01*
X6321061Y-9286998D02*
X6351061Y-9316998D01*
X6351061Y-9286998D02*
X6321061Y-9316998D01*
X6321061Y-11686998D02*
X6351061Y-11716998D01*
X6351061Y-11686998D02*
X6321061Y-11716998D01*
X6321061Y-12086998D02*
X6351061Y-12116998D01*
X6351061Y-12086998D02*
X6321061Y-12116998D01*
X6321061Y-12486998D02*
X6351061Y-12516998D01*
X6351061Y-12486998D02*
X6321061Y-12516998D01*
X6421061Y-4686998D02*
X6451061Y-4716998D01*
X6451061Y-4686998D02*
X6421061Y-4716998D01*
X6421061Y-6286998D02*
X6451061Y-6316998D01*
X6451061Y-6286998D02*
X6421061Y-6316998D01*
X6521061Y-7486998D02*
X6551061Y-7516998D01*
X6551061Y-7486998D02*
X6521061Y-7516998D01*
X6521061Y-7886998D02*
X6551061Y-7916998D01*
X6551061Y-7886998D02*
X6521061Y-7916998D01*
X6521061Y-8286998D02*
X6551061Y-8316998D01*
X6551061Y-8286998D02*
X6521061Y-8316998D01*
X6521061Y-8686998D02*
X6551061Y-8716998D01*
X6551061Y-8686998D02*
X6521061Y-8716998D01*
X6521061Y-9086998D02*
X6551061Y-9116998D01*
X6551061Y-9086998D02*
X6521061Y-9116998D01*
X6521061Y-9886998D02*
X6551061Y-9916998D01*
X6551061Y-9886998D02*
X6521061Y-9916998D01*
X6521061Y-10286998D02*
X6551061Y-10316998D01*
X6551061Y-10286998D02*
X6521061Y-10316998D01*
X6521061Y-10686998D02*
X6551061Y-10716998D01*
X6551061Y-10686998D02*
X6521061Y-10716998D01*
X6521061Y-11086998D02*
X6551061Y-11116998D01*
X6551061Y-11086998D02*
X6521061Y-11116998D01*
X6521061Y-11486998D02*
X6551061Y-11516998D01*
X6551061Y-11486998D02*
X6521061Y-11516998D01*
X6521061Y-11886998D02*
X6551061Y-11916998D01*
X6551061Y-11886998D02*
X6521061Y-11916998D01*
X6521061Y-12286998D02*
X6551061Y-12316998D01*
X6551061Y-12286998D02*
X6521061Y-12316998D01*
X6721061Y-7686998D02*
X6751061Y-7716998D01*
X6751061Y-7686998D02*
X6721061Y-7716998D01*
X6721061Y-8086998D02*
X6751061Y-8116998D01*
X6751061Y-8086998D02*
X6721061Y-8116998D01*
X6721061Y-10086998D02*
X6751061Y-10116998D01*
X6751061Y-10086998D02*
X6721061Y-10116998D01*
X6721061Y-10486998D02*
X6751061Y-10516998D01*
X6751061Y-10486998D02*
X6721061Y-10516998D01*
X6721061Y-10886998D02*
X6751061Y-10916998D01*
X6751061Y-10886998D02*
X6721061Y-10916998D01*
X6721061Y-11286998D02*
X6751061Y-11316998D01*
X6751061Y-11286998D02*
X6721061Y-11316998D01*
X6721061Y-11686998D02*
X6751061Y-11716998D01*
X6751061Y-11686998D02*
X6721061Y-11716998D01*
X6721061Y-12086998D02*
X6751061Y-12116998D01*
X6751061Y-12086998D02*
X6721061Y-12116998D01*
X6721061Y-12486998D02*
X6751061Y-12516998D01*
X6751061Y-12486998D02*
X6721061Y-12516998D01*
X6821061Y-6286998D02*
X6851061Y-6316998D01*
X6851061Y-6286998D02*
X6821061Y-6316998D01*
X6921061Y-7486998D02*
X6951061Y-7516998D01*
X6951061Y-7486998D02*
X6921061Y-7516998D01*
X6921061Y-7886998D02*
X6951061Y-7916998D01*
X6951061Y-7886998D02*
X6921061Y-7916998D01*
X6921061Y-9886998D02*
X6951061Y-9916998D01*
X6951061Y-9886998D02*
X6921061Y-9916998D01*
X6921061Y-10286998D02*
X6951061Y-10316998D01*
X6951061Y-10286998D02*
X6921061Y-10316998D01*
X6921061Y-10686998D02*
X6951061Y-10716998D01*
X6951061Y-10686998D02*
X6921061Y-10716998D01*
X6921061Y-11086998D02*
X6951061Y-11116998D01*
X6951061Y-11086998D02*
X6921061Y-11116998D01*
X6921061Y-11486998D02*
X6951061Y-11516998D01*
X6951061Y-11486998D02*
X6921061Y-11516998D01*
X7021061Y-5286998D02*
X7051061Y-5316998D01*
X7051061Y-5286998D02*
X7021061Y-5316998D01*
X7121061Y-10486998D02*
X7151061Y-10516998D01*
X7151061Y-10486998D02*
X7121061Y-10516998D01*
X7121061Y-10886998D02*
X7151061Y-10916998D01*
X7151061Y-10886998D02*
X7121061Y-10916998D01*
X7121061Y-11286998D02*
X7151061Y-11316998D01*
X7151061Y-11286998D02*
X7121061Y-11316998D01*
X7121061Y-12486998D02*
X7151061Y-12516998D01*
X7151061Y-12486998D02*
X7121061Y-12516998D01*
X7192261Y-9079758D02*
X7222261Y-9109758D01*
X7222261Y-9079758D02*
X7192261Y-9109758D01*
X7192261Y-9181358D02*
X7222261Y-9211358D01*
X7222261Y-9181358D02*
X7192261Y-9211358D01*
X7192261Y-9282958D02*
X7222261Y-9312958D01*
X7222261Y-9282958D02*
X7192261Y-9312958D01*
X7321061Y-7486998D02*
X7351061Y-7516998D01*
X7351061Y-7486998D02*
X7321061Y-7516998D01*
X7321061Y-7886998D02*
X7351061Y-7916998D01*
X7351061Y-7886998D02*
X7321061Y-7916998D01*
X7321061Y-8686998D02*
X7351061Y-8716998D01*
X7351061Y-8686998D02*
X7321061Y-8716998D01*
X7321061Y-10686998D02*
X7351061Y-10716998D01*
X7351061Y-10686998D02*
X7321061Y-10716998D01*
X7321061Y-11086998D02*
X7351061Y-11116998D01*
X7351061Y-11086998D02*
X7321061Y-11116998D01*
X7321061Y-11486998D02*
X7351061Y-11516998D01*
X7351061Y-11486998D02*
X7321061Y-11516998D01*
X7321061Y-12286998D02*
X7351061Y-12316998D01*
X7351061Y-12286998D02*
X7321061Y-12316998D01*
X7521061Y-7686998D02*
X7551061Y-7716998D01*
X7551061Y-7686998D02*
X7521061Y-7716998D01*
X7521061Y-8086998D02*
X7551061Y-8116998D01*
X7551061Y-8086998D02*
X7521061Y-8116998D01*
X7521061Y-8486998D02*
X7551061Y-8516998D01*
X7551061Y-8486998D02*
X7521061Y-8516998D01*
X7521061Y-8886998D02*
X7551061Y-8916998D01*
X7551061Y-8886998D02*
X7521061Y-8916998D01*
X7521061Y-10086998D02*
X7551061Y-10116998D01*
X7551061Y-10086998D02*
X7521061Y-10116998D01*
X7521061Y-10886998D02*
X7551061Y-10916998D01*
X7551061Y-10886998D02*
X7521061Y-10916998D01*
X7521061Y-11286998D02*
X7551061Y-11316998D01*
X7551061Y-11286998D02*
X7521061Y-11316998D01*
X7521061Y-12486998D02*
X7551061Y-12516998D01*
X7551061Y-12486998D02*
X7521061Y-12516998D01*
X7721061Y-5286998D02*
X7751061Y-5316998D01*
X7751061Y-5286998D02*
X7721061Y-5316998D01*
X7721061Y-7486998D02*
X7751061Y-7516998D01*
X7751061Y-7486998D02*
X7721061Y-7516998D01*
X7721061Y-7886998D02*
X7751061Y-7916998D01*
X7751061Y-7886998D02*
X7721061Y-7916998D01*
X7721061Y-8686998D02*
X7751061Y-8716998D01*
X7751061Y-8686998D02*
X7721061Y-8716998D01*
X7721061Y-9086998D02*
X7751061Y-9116998D01*
X7751061Y-9086998D02*
X7721061Y-9116998D01*
X7721061Y-9886998D02*
X7751061Y-9916998D01*
X7751061Y-9886998D02*
X7721061Y-9916998D01*
X7721061Y-10286998D02*
X7751061Y-10316998D01*
X7751061Y-10286998D02*
X7721061Y-10316998D01*
X7721061Y-10686998D02*
X7751061Y-10716998D01*
X7751061Y-10686998D02*
X7721061Y-10716998D01*
X7721061Y-11086998D02*
X7751061Y-11116998D01*
X7751061Y-11086998D02*
X7721061Y-11116998D01*
X7721061Y-11486998D02*
X7751061Y-11516998D01*
X7751061Y-11486998D02*
X7721061Y-11516998D01*
X7728201Y-9412498D02*
X7758201Y-9442498D01*
X7758201Y-9412498D02*
X7728201Y-9442498D01*
X7921061Y-7686998D02*
X7951061Y-7716998D01*
X7951061Y-7686998D02*
X7921061Y-7716998D01*
X7921061Y-8086998D02*
X7951061Y-8116998D01*
X7951061Y-8086998D02*
X7921061Y-8116998D01*
X7921061Y-8486998D02*
X7951061Y-8516998D01*
X7951061Y-8486998D02*
X7921061Y-8516998D01*
X7921061Y-8886998D02*
X7951061Y-8916998D01*
X7951061Y-8886998D02*
X7921061Y-8916998D01*
X7921061Y-9686998D02*
X7951061Y-9716998D01*
X7951061Y-9686998D02*
X7921061Y-9716998D01*
X7921061Y-10086998D02*
X7951061Y-10116998D01*
X7951061Y-10086998D02*
X7921061Y-10116998D01*
X7921061Y-10886998D02*
X7951061Y-10916998D01*
X7951061Y-10886998D02*
X7921061Y-10916998D01*
X7921061Y-11286998D02*
X7951061Y-11316998D01*
X7951061Y-11286998D02*
X7921061Y-11316998D01*
X7921061Y-11686998D02*
X7951061Y-11716998D01*
X7951061Y-11686998D02*
X7921061Y-11716998D01*
X7921061Y-12486998D02*
X7951061Y-12516998D01*
X7951061Y-12486998D02*
X7921061Y-12516998D01*
X8120715Y-5290234D02*
X8150715Y-5320234D01*
X8150715Y-5290234D02*
X8120715Y-5320234D01*
X8121061Y-7486998D02*
X8151061Y-7516998D01*
X8151061Y-7486998D02*
X8121061Y-7516998D01*
X8121061Y-7886998D02*
X8151061Y-7916998D01*
X8151061Y-7886998D02*
X8121061Y-7916998D01*
X8121061Y-8686998D02*
X8151061Y-8716998D01*
X8151061Y-8686998D02*
X8121061Y-8716998D01*
X8121061Y-9486998D02*
X8151061Y-9516998D01*
X8151061Y-9486998D02*
X8121061Y-9516998D01*
X8121061Y-9886998D02*
X8151061Y-9916998D01*
X8151061Y-9886998D02*
X8121061Y-9916998D01*
X8121061Y-10286998D02*
X8151061Y-10316998D01*
X8151061Y-10286998D02*
X8121061Y-10316998D01*
X8121061Y-10686998D02*
X8151061Y-10716998D01*
X8151061Y-10686998D02*
X8121061Y-10716998D01*
X8121061Y-11086998D02*
X8151061Y-11116998D01*
X8151061Y-11086998D02*
X8121061Y-11116998D01*
X8321061Y-5486998D02*
X8351061Y-5516998D01*
X8351061Y-5486998D02*
X8321061Y-5516998D01*
X8321061Y-5886998D02*
X8351061Y-5916998D01*
X8351061Y-5886998D02*
X8321061Y-5916998D01*
X8321061Y-6286998D02*
X8351061Y-6316998D01*
X8351061Y-6286998D02*
X8321061Y-6316998D01*
X8321061Y-7686998D02*
X8351061Y-7716998D01*
X8351061Y-7686998D02*
X8321061Y-7716998D01*
X8321061Y-8086998D02*
X8351061Y-8116998D01*
X8351061Y-8086998D02*
X8321061Y-8116998D01*
X8521061Y-5686998D02*
X8551061Y-5716998D01*
X8551061Y-5686998D02*
X8521061Y-5716998D01*
X8521061Y-6086998D02*
X8551061Y-6116998D01*
X8551061Y-6086998D02*
X8521061Y-6116998D01*
X8521061Y-6486998D02*
X8551061Y-6516998D01*
X8551061Y-6486998D02*
X8521061Y-6516998D01*
X8521061Y-7486998D02*
X8551061Y-7516998D01*
X8551061Y-7486998D02*
X8521061Y-7516998D01*
X8521061Y-7886998D02*
X8551061Y-7916998D01*
X8551061Y-7886998D02*
X8521061Y-7916998D01*
X8721061Y-5486998D02*
X8751061Y-5516998D01*
X8751061Y-5486998D02*
X8721061Y-5516998D01*
X8721061Y-5886998D02*
X8751061Y-5916998D01*
X8751061Y-5886998D02*
X8721061Y-5916998D01*
X8721061Y-8086998D02*
X8751061Y-8116998D01*
X8751061Y-8086998D02*
X8721061Y-8116998D01*
X8721061Y-9486998D02*
X8751061Y-9516998D01*
X8751061Y-9486998D02*
X8721061Y-9516998D01*
X8721061Y-9886998D02*
X8751061Y-9916998D01*
X8751061Y-9886998D02*
X8721061Y-9916998D01*
X8721061Y-10886998D02*
X8751061Y-10916998D01*
X8751061Y-10886998D02*
X8721061Y-10916998D01*
X8721061Y-11286998D02*
X8751061Y-11316998D01*
X8751061Y-11286998D02*
X8721061Y-11316998D01*
X8921061Y-5686998D02*
X8951061Y-5716998D01*
X8951061Y-5686998D02*
X8921061Y-5716998D01*
X8921061Y-9286998D02*
X8951061Y-9316998D01*
X8951061Y-9286998D02*
X8921061Y-9316998D01*
X8921061Y-9686998D02*
X8951061Y-9716998D01*
X8951061Y-9686998D02*
X8921061Y-9716998D01*
X9121061Y-5486998D02*
X9151061Y-5516998D01*
X9151061Y-5486998D02*
X9121061Y-5516998D01*
X9121061Y-5886998D02*
X9151061Y-5916998D01*
X9151061Y-5886998D02*
X9121061Y-5916998D01*
X9121061Y-9486998D02*
X9151061Y-9516998D01*
X9151061Y-9486998D02*
X9121061Y-9516998D01*
X9121061Y-9886998D02*
X9151061Y-9916998D01*
X9151061Y-9886998D02*
X9121061Y-9916998D01*
X9321061Y-5686998D02*
X9351061Y-5716998D01*
X9351061Y-5686998D02*
X9321061Y-5716998D01*
X9321061Y-9286998D02*
X9351061Y-9316998D01*
X9351061Y-9286998D02*
X9321061Y-9316998D01*
X9321061Y-9686998D02*
X9351061Y-9716998D01*
X9351061Y-9686998D02*
X9321061Y-9716998D01*
X9321061Y-10886998D02*
X9351061Y-10916998D01*
X9351061Y-10886998D02*
X9321061Y-10916998D01*
X9321061Y-11286998D02*
X9351061Y-11316998D01*
X9351061Y-11286998D02*
X9321061Y-11316998D01*
X9321061Y-11686998D02*
X9351061Y-11716998D01*
X9351061Y-11686998D02*
X9321061Y-11716998D01*
X9321061Y-12086998D02*
X9351061Y-12116998D01*
X9351061Y-12086998D02*
X9321061Y-12116998D01*
X9321061Y-12486998D02*
X9351061Y-12516998D01*
X9351061Y-12486998D02*
X9321061Y-12516998D01*
X9521061Y-5486998D02*
X9551061Y-5516998D01*
X9551061Y-5486998D02*
X9521061Y-5516998D01*
X9521061Y-8686998D02*
X9551061Y-8716998D01*
X9551061Y-8686998D02*
X9521061Y-8716998D01*
X9521061Y-9486998D02*
X9551061Y-9516998D01*
X9551061Y-9486998D02*
X9521061Y-9516998D01*
X9521061Y-9886998D02*
X9551061Y-9916998D01*
X9551061Y-9886998D02*
X9521061Y-9916998D01*
X9521061Y-10686998D02*
X9551061Y-10716998D01*
X9551061Y-10686998D02*
X9521061Y-10716998D01*
X9521061Y-11086998D02*
X9551061Y-11116998D01*
X9551061Y-11086998D02*
X9521061Y-11116998D01*
X9521061Y-11486998D02*
X9551061Y-11516998D01*
X9551061Y-11486998D02*
X9521061Y-11516998D01*
X9521061Y-11886998D02*
X9551061Y-11916998D01*
X9551061Y-11886998D02*
X9521061Y-11916998D01*
X9521061Y-12286998D02*
X9551061Y-12316998D01*
X9551061Y-12286998D02*
X9521061Y-12316998D01*
X9721061Y-5686998D02*
X9751061Y-5716998D01*
X9751061Y-5686998D02*
X9721061Y-5716998D01*
X9721061Y-6086998D02*
X9751061Y-6116998D01*
X9751061Y-6086998D02*
X9721061Y-6116998D01*
X9721061Y-8886998D02*
X9751061Y-8916998D01*
X9751061Y-8886998D02*
X9721061Y-8916998D01*
X9721061Y-9286998D02*
X9751061Y-9316998D01*
X9751061Y-9286998D02*
X9721061Y-9316998D01*
X9721061Y-9686998D02*
X9751061Y-9716998D01*
X9751061Y-9686998D02*
X9721061Y-9716998D01*
X9721061Y-11286998D02*
X9751061Y-11316998D01*
X9751061Y-11286998D02*
X9721061Y-11316998D01*
X9721061Y-11686998D02*
X9751061Y-11716998D01*
X9751061Y-11686998D02*
X9721061Y-11716998D01*
X9721061Y-12086998D02*
X9751061Y-12116998D01*
X9751061Y-12086998D02*
X9721061Y-12116998D01*
X9721061Y-12486998D02*
X9751061Y-12516998D01*
X9751061Y-12486998D02*
X9721061Y-12516998D01*
X9921061Y-5486998D02*
X9951061Y-5516998D01*
X9951061Y-5486998D02*
X9921061Y-5516998D01*
X9921061Y-5886998D02*
X9951061Y-5916998D01*
X9951061Y-5886998D02*
X9921061Y-5916998D01*
X9921061Y-6286998D02*
X9951061Y-6316998D01*
X9951061Y-6286998D02*
X9921061Y-6316998D01*
X9921061Y-8686998D02*
X9951061Y-8716998D01*
X9951061Y-8686998D02*
X9921061Y-8716998D01*
X9921061Y-9486998D02*
X9951061Y-9516998D01*
X9951061Y-9486998D02*
X9921061Y-9516998D01*
X9921061Y-9886998D02*
X9951061Y-9916998D01*
X9951061Y-9886998D02*
X9921061Y-9916998D01*
X9921061Y-11086998D02*
X9951061Y-11116998D01*
X9951061Y-11086998D02*
X9921061Y-11116998D01*
X9921061Y-11486998D02*
X9951061Y-11516998D01*
X9951061Y-11486998D02*
X9921061Y-11516998D01*
X9921061Y-11886998D02*
X9951061Y-11916998D01*
X9951061Y-11886998D02*
X9921061Y-11916998D01*
X9921061Y-12286998D02*
X9951061Y-12316998D01*
X9951061Y-12286998D02*
X9921061Y-12316998D01*
X9950261Y-10887798D02*
X9980261Y-10917798D01*
X9980261Y-10887798D02*
X9950261Y-10917798D01*
X10121061Y-5686998D02*
X10151061Y-5716998D01*
X10151061Y-5686998D02*
X10121061Y-5716998D01*
X10121061Y-6486998D02*
X10151061Y-6516998D01*
X10151061Y-6486998D02*
X10121061Y-6516998D01*
X10121061Y-8486998D02*
X10151061Y-8516998D01*
X10151061Y-8486998D02*
X10121061Y-8516998D01*
X10121061Y-8886998D02*
X10151061Y-8916998D01*
X10151061Y-8886998D02*
X10121061Y-8916998D01*
X10121061Y-9286998D02*
X10151061Y-9316998D01*
X10151061Y-9286998D02*
X10121061Y-9316998D01*
X10121061Y-11686998D02*
X10151061Y-11716998D01*
X10151061Y-11686998D02*
X10121061Y-11716998D01*
X10121061Y-12086998D02*
X10151061Y-12116998D01*
X10151061Y-12086998D02*
X10121061Y-12116998D01*
X10121061Y-12486998D02*
X10151061Y-12516998D01*
X10151061Y-12486998D02*
X10121061Y-12516998D01*
X10189461Y-10568198D02*
X10219461Y-10598198D01*
X10219461Y-10568198D02*
X10189461Y-10598198D01*
X10189461Y-10669798D02*
X10219461Y-10699798D01*
X10219461Y-10669798D02*
X10189461Y-10699798D01*
X10189461Y-10771398D02*
X10219461Y-10801398D01*
X10219461Y-10771398D02*
X10189461Y-10801398D01*
X10321061Y-5486998D02*
X10351061Y-5516998D01*
X10351061Y-5486998D02*
X10321061Y-5516998D01*
X10321061Y-5886998D02*
X10351061Y-5916998D01*
X10351061Y-5886998D02*
X10321061Y-5916998D01*
X10321061Y-6286998D02*
X10351061Y-6316998D01*
X10351061Y-6286998D02*
X10321061Y-6316998D01*
X10321061Y-6686998D02*
X10351061Y-6716998D01*
X10351061Y-6686998D02*
X10321061Y-6716998D01*
X10321061Y-8686998D02*
X10351061Y-8716998D01*
X10351061Y-8686998D02*
X10321061Y-8716998D01*
X10321061Y-9486998D02*
X10351061Y-9516998D01*
X10351061Y-9486998D02*
X10321061Y-9516998D01*
X10321061Y-9886998D02*
X10351061Y-9916998D01*
X10351061Y-9886998D02*
X10321061Y-9916998D01*
X10321061Y-11486998D02*
X10351061Y-11516998D01*
X10351061Y-11486998D02*
X10321061Y-11516998D01*
X10321061Y-11886998D02*
X10351061Y-11916998D01*
X10351061Y-11886998D02*
X10321061Y-11916998D01*
X10321061Y-12286998D02*
X10351061Y-12316998D01*
X10351061Y-12286998D02*
X10321061Y-12316998D01*
X10521061Y-5686998D02*
X10551061Y-5716998D01*
X10551061Y-5686998D02*
X10521061Y-5716998D01*
X10521061Y-6086998D02*
X10551061Y-6116998D01*
X10551061Y-6086998D02*
X10521061Y-6116998D01*
X10521061Y-6486998D02*
X10551061Y-6516998D01*
X10551061Y-6486998D02*
X10521061Y-6516998D01*
X10521061Y-8486998D02*
X10551061Y-8516998D01*
X10551061Y-8486998D02*
X10521061Y-8516998D01*
X10521061Y-8886998D02*
X10551061Y-8916998D01*
X10551061Y-8886998D02*
X10521061Y-8916998D01*
X10521061Y-9286998D02*
X10551061Y-9316998D01*
X10551061Y-9286998D02*
X10521061Y-9316998D01*
X10521061Y-12086998D02*
X10551061Y-12116998D01*
X10551061Y-12086998D02*
X10521061Y-12116998D01*
X10521061Y-12486998D02*
X10551061Y-12516998D01*
X10551061Y-12486998D02*
X10521061Y-12516998D01*
X10721061Y-5486998D02*
X10751061Y-5516998D01*
X10751061Y-5486998D02*
X10721061Y-5516998D01*
X10721061Y-5886998D02*
X10751061Y-5916998D01*
X10751061Y-5886998D02*
X10721061Y-5916998D01*
X10721061Y-6286998D02*
X10751061Y-6316998D01*
X10751061Y-6286998D02*
X10721061Y-6316998D01*
X10721061Y-6686998D02*
X10751061Y-6716998D01*
X10751061Y-6686998D02*
X10721061Y-6716998D01*
X10721061Y-8686998D02*
X10751061Y-8716998D01*
X10751061Y-8686998D02*
X10721061Y-8716998D01*
X10721061Y-9486998D02*
X10751061Y-9516998D01*
X10751061Y-9486998D02*
X10721061Y-9516998D01*
X10721061Y-9886998D02*
X10751061Y-9916998D01*
X10751061Y-9886998D02*
X10721061Y-9916998D01*
X10721061Y-10286998D02*
X10751061Y-10316998D01*
X10751061Y-10286998D02*
X10721061Y-10316998D01*
X10721061Y-10686998D02*
X10751061Y-10716998D01*
X10751061Y-10686998D02*
X10721061Y-10716998D01*
X10721061Y-11486998D02*
X10751061Y-11516998D01*
X10751061Y-11486998D02*
X10721061Y-11516998D01*
X10721061Y-11886998D02*
X10751061Y-11916998D01*
X10751061Y-11886998D02*
X10721061Y-11916998D01*
X10721061Y-12286998D02*
X10751061Y-12316998D01*
X10751061Y-12286998D02*
X10721061Y-12316998D01*
X10921061Y-5686998D02*
X10951061Y-5716998D01*
X10951061Y-5686998D02*
X10921061Y-5716998D01*
X10921061Y-6086998D02*
X10951061Y-6116998D01*
X10951061Y-6086998D02*
X10921061Y-6116998D01*
X10921061Y-6486998D02*
X10951061Y-6516998D01*
X10951061Y-6486998D02*
X10921061Y-6516998D01*
X10921061Y-8486998D02*
X10951061Y-8516998D01*
X10951061Y-8486998D02*
X10921061Y-8516998D01*
X10921061Y-8886998D02*
X10951061Y-8916998D01*
X10951061Y-8886998D02*
X10921061Y-8916998D01*
X10921061Y-9286998D02*
X10951061Y-9316998D01*
X10951061Y-9286998D02*
X10921061Y-9316998D01*
X10921061Y-10086998D02*
X10951061Y-10116998D01*
X10951061Y-10086998D02*
X10921061Y-10116998D01*
X10921061Y-10486998D02*
X10951061Y-10516998D01*
X10951061Y-10486998D02*
X10921061Y-10516998D01*
X10921061Y-11286998D02*
X10951061Y-11316998D01*
X10951061Y-11286998D02*
X10921061Y-11316998D01*
X10921061Y-11686998D02*
X10951061Y-11716998D01*
X10951061Y-11686998D02*
X10921061Y-11716998D01*
X10921061Y-12086998D02*
X10951061Y-12116998D01*
X10951061Y-12086998D02*
X10921061Y-12116998D01*
X10921061Y-12486998D02*
X10951061Y-12516998D01*
X10951061Y-12486998D02*
X10921061Y-12516998D01*
X11121061Y-5486998D02*
X11151061Y-5516998D01*
X11151061Y-5486998D02*
X11121061Y-5516998D01*
X11121061Y-6286998D02*
X11151061Y-6316998D01*
X11151061Y-6286998D02*
X11121061Y-6316998D01*
X11121061Y-6686998D02*
X11151061Y-6716998D01*
X11151061Y-6686998D02*
X11121061Y-6716998D01*
X11121061Y-8686998D02*
X11151061Y-8716998D01*
X11151061Y-8686998D02*
X11121061Y-8716998D01*
X11121061Y-9486998D02*
X11151061Y-9516998D01*
X11151061Y-9486998D02*
X11121061Y-9516998D01*
X11121061Y-9886998D02*
X11151061Y-9916998D01*
X11151061Y-9886998D02*
X11121061Y-9916998D01*
X11121061Y-10286998D02*
X11151061Y-10316998D01*
X11151061Y-10286998D02*
X11121061Y-10316998D01*
X11121061Y-10686998D02*
X11151061Y-10716998D01*
X11151061Y-10686998D02*
X11121061Y-10716998D01*
X11121061Y-11486998D02*
X11151061Y-11516998D01*
X11151061Y-11486998D02*
X11121061Y-11516998D01*
X11121061Y-11886998D02*
X11151061Y-11916998D01*
X11151061Y-11886998D02*
X11121061Y-11916998D01*
X11121061Y-12286998D02*
X11151061Y-12316998D01*
X11151061Y-12286998D02*
X11121061Y-12316998D01*
X11321061Y-5286998D02*
X11351061Y-5316998D01*
X11351061Y-5286998D02*
X11321061Y-5316998D01*
X11321061Y-5686998D02*
X11351061Y-5716998D01*
X11351061Y-5686998D02*
X11321061Y-5716998D01*
X11321061Y-6086998D02*
X11351061Y-6116998D01*
X11351061Y-6086998D02*
X11321061Y-6116998D01*
X11321061Y-6486998D02*
X11351061Y-6516998D01*
X11351061Y-6486998D02*
X11321061Y-6516998D01*
X11321061Y-8486998D02*
X11351061Y-8516998D01*
X11351061Y-8486998D02*
X11321061Y-8516998D01*
X11321061Y-8886998D02*
X11351061Y-8916998D01*
X11351061Y-8886998D02*
X11321061Y-8916998D01*
X11321061Y-9286998D02*
X11351061Y-9316998D01*
X11351061Y-9286998D02*
X11321061Y-9316998D01*
X11321061Y-10086998D02*
X11351061Y-10116998D01*
X11351061Y-10086998D02*
X11321061Y-10116998D01*
X11321061Y-10486998D02*
X11351061Y-10516998D01*
X11351061Y-10486998D02*
X11321061Y-10516998D01*
X11321061Y-12086998D02*
X11351061Y-12116998D01*
X11351061Y-12086998D02*
X11321061Y-12116998D01*
X11321061Y-12486998D02*
X11351061Y-12516998D01*
X11351061Y-12486998D02*
X11321061Y-12516998D01*
X11521061Y-5486998D02*
X11551061Y-5516998D01*
X11551061Y-5486998D02*
X11521061Y-5516998D01*
X11521061Y-5886998D02*
X11551061Y-5916998D01*
X11551061Y-5886998D02*
X11521061Y-5916998D01*
X11521061Y-6286998D02*
X11551061Y-6316998D01*
X11551061Y-6286998D02*
X11521061Y-6316998D01*
X11521061Y-6686998D02*
X11551061Y-6716998D01*
X11551061Y-6686998D02*
X11521061Y-6716998D01*
X11521061Y-9486998D02*
X11551061Y-9516998D01*
X11551061Y-9486998D02*
X11521061Y-9516998D01*
X11521061Y-9886998D02*
X11551061Y-9916998D01*
X11551061Y-9886998D02*
X11521061Y-9916998D01*
X11521061Y-10286998D02*
X11551061Y-10316998D01*
X11551061Y-10286998D02*
X11521061Y-10316998D01*
X11521061Y-10686998D02*
X11551061Y-10716998D01*
X11551061Y-10686998D02*
X11521061Y-10716998D01*
X11521061Y-11486998D02*
X11551061Y-11516998D01*
X11551061Y-11486998D02*
X11521061Y-11516998D01*
X11521061Y-11886998D02*
X11551061Y-11916998D01*
X11551061Y-11886998D02*
X11521061Y-11916998D01*
X11521061Y-12286998D02*
X11551061Y-12316998D01*
X11551061Y-12286998D02*
X11521061Y-12316998D01*
X11721061Y-4886998D02*
X11751061Y-4916998D01*
X11751061Y-4886998D02*
X11721061Y-4916998D01*
X11721061Y-5286998D02*
X11751061Y-5316998D01*
X11751061Y-5286998D02*
X11721061Y-5316998D01*
X11721061Y-5686998D02*
X11751061Y-5716998D01*
X11751061Y-5686998D02*
X11721061Y-5716998D01*
X11721061Y-6086998D02*
X11751061Y-6116998D01*
X11751061Y-6086998D02*
X11721061Y-6116998D01*
X11721061Y-6486998D02*
X11751061Y-6516998D01*
X11751061Y-6486998D02*
X11721061Y-6516998D01*
X11721061Y-8486998D02*
X11751061Y-8516998D01*
X11751061Y-8486998D02*
X11721061Y-8516998D01*
X11721061Y-9286998D02*
X11751061Y-9316998D01*
X11751061Y-9286998D02*
X11721061Y-9316998D01*
X11721061Y-11286998D02*
X11751061Y-11316998D01*
X11751061Y-11286998D02*
X11721061Y-11316998D01*
X11721061Y-11686998D02*
X11751061Y-11716998D01*
X11751061Y-11686998D02*
X11721061Y-11716998D01*
X11721061Y-12086998D02*
X11751061Y-12116998D01*
X11751061Y-12086998D02*
X11721061Y-12116998D01*
X11721061Y-12486998D02*
X11751061Y-12516998D01*
X11751061Y-12486998D02*
X11721061Y-12516998D01*
X11921061Y-5086998D02*
X11951061Y-5116998D01*
X11951061Y-5086998D02*
X11921061Y-5116998D01*
X11921061Y-5486998D02*
X11951061Y-5516998D01*
X11951061Y-5486998D02*
X11921061Y-5516998D01*
X11921061Y-5886998D02*
X11951061Y-5916998D01*
X11951061Y-5886998D02*
X11921061Y-5916998D01*
X11921061Y-6686998D02*
X11951061Y-6716998D01*
X11951061Y-6686998D02*
X11921061Y-6716998D01*
X11921061Y-8686998D02*
X11951061Y-8716998D01*
X11951061Y-8686998D02*
X11921061Y-8716998D01*
X11921061Y-11486998D02*
X11951061Y-11516998D01*
X11951061Y-11486998D02*
X11921061Y-11516998D01*
X11921061Y-11886998D02*
X11951061Y-11916998D01*
X11951061Y-11886998D02*
X11921061Y-11916998D01*
X11921061Y-12286998D02*
X11951061Y-12316998D01*
X11951061Y-12286998D02*
X11921061Y-12316998D01*
X12121061Y-5286998D02*
X12151061Y-5316998D01*
X12151061Y-5286998D02*
X12121061Y-5316998D01*
X12121061Y-5686998D02*
X12151061Y-5716998D01*
X12151061Y-5686998D02*
X12121061Y-5716998D01*
X12121061Y-6086998D02*
X12151061Y-6116998D01*
X12151061Y-6086998D02*
X12121061Y-6116998D01*
X12121061Y-6486998D02*
X12151061Y-6516998D01*
X12151061Y-6486998D02*
X12121061Y-6516998D01*
X12121061Y-8486998D02*
X12151061Y-8516998D01*
X12151061Y-8486998D02*
X12121061Y-8516998D01*
X12121061Y-8886998D02*
X12151061Y-8916998D01*
X12151061Y-8886998D02*
X12121061Y-8916998D01*
X12121061Y-10486998D02*
X12151061Y-10516998D01*
X12151061Y-10486998D02*
X12121061Y-10516998D01*
X12121061Y-11686998D02*
X12151061Y-11716998D01*
X12151061Y-11686998D02*
X12121061Y-11716998D01*
X12121061Y-12086998D02*
X12151061Y-12116998D01*
X12151061Y-12086998D02*
X12121061Y-12116998D01*
X12121061Y-12486998D02*
X12151061Y-12516998D01*
X12151061Y-12486998D02*
X12121061Y-12516998D01*
X12321061Y-4686998D02*
X12351061Y-4716998D01*
X12351061Y-4686998D02*
X12321061Y-4716998D01*
X12321061Y-5486998D02*
X12351061Y-5516998D01*
X12351061Y-5486998D02*
X12321061Y-5516998D01*
X12321061Y-5886998D02*
X12351061Y-5916998D01*
X12351061Y-5886998D02*
X12321061Y-5916998D01*
X12321061Y-6286998D02*
X12351061Y-6316998D01*
X12351061Y-6286998D02*
X12321061Y-6316998D01*
X12321061Y-6686998D02*
X12351061Y-6716998D01*
X12351061Y-6686998D02*
X12321061Y-6716998D01*
X12321061Y-9086998D02*
X12351061Y-9116998D01*
X12351061Y-9086998D02*
X12321061Y-9116998D01*
X12321061Y-9486998D02*
X12351061Y-9516998D01*
X12351061Y-9486998D02*
X12321061Y-9516998D01*
X12321061Y-9886998D02*
X12351061Y-9916998D01*
X12351061Y-9886998D02*
X12321061Y-9916998D01*
X12321061Y-10286998D02*
X12351061Y-10316998D01*
X12351061Y-10286998D02*
X12321061Y-10316998D01*
X12321061Y-10686998D02*
X12351061Y-10716998D01*
X12351061Y-10686998D02*
X12321061Y-10716998D01*
X12321061Y-11486998D02*
X12351061Y-11516998D01*
X12351061Y-11486998D02*
X12321061Y-11516998D01*
X12321061Y-11886998D02*
X12351061Y-11916998D01*
X12351061Y-11886998D02*
X12321061Y-11916998D01*
X12321061Y-12286998D02*
X12351061Y-12316998D01*
X12351061Y-12286998D02*
X12321061Y-12316998D01*
X12521061Y-5686998D02*
X12551061Y-5716998D01*
X12551061Y-5686998D02*
X12521061Y-5716998D01*
X12521061Y-6086998D02*
X12551061Y-6116998D01*
X12551061Y-6086998D02*
X12521061Y-6116998D01*
X12521061Y-6486998D02*
X12551061Y-6516998D01*
X12551061Y-6486998D02*
X12521061Y-6516998D01*
X12521061Y-10086998D02*
X12551061Y-10116998D01*
X12551061Y-10086998D02*
X12521061Y-10116998D01*
X12521061Y-10486998D02*
X12551061Y-10516998D01*
X12551061Y-10486998D02*
X12521061Y-10516998D01*
X12521061Y-11686998D02*
X12551061Y-11716998D01*
X12551061Y-11686998D02*
X12521061Y-11716998D01*
X12521061Y-12086998D02*
X12551061Y-12116998D01*
X12551061Y-12086998D02*
X12521061Y-12116998D01*
X12521061Y-12486998D02*
X12551061Y-12516998D01*
X12551061Y-12486998D02*
X12521061Y-12516998D01*
X12721061Y-5886998D02*
X12751061Y-5916998D01*
X12751061Y-5886998D02*
X12721061Y-5916998D01*
X12721061Y-6286998D02*
X12751061Y-6316998D01*
X12751061Y-6286998D02*
X12721061Y-6316998D01*
X12721061Y-10286998D02*
X12751061Y-10316998D01*
X12751061Y-10286998D02*
X12721061Y-10316998D01*
X12721061Y-11486998D02*
X12751061Y-11516998D01*
X12751061Y-11486998D02*
X12721061Y-11516998D01*
X12721061Y-11886998D02*
X12751061Y-11916998D01*
X12751061Y-11886998D02*
X12721061Y-11916998D01*
X12921061Y-5286998D02*
X12951061Y-5316998D01*
X12951061Y-5286998D02*
X12921061Y-5316998D01*
X12921061Y-10886998D02*
X12951061Y-10916998D01*
X12951061Y-10886998D02*
X12921061Y-10916998D01*
X12921061Y-11286998D02*
X12951061Y-11316998D01*
X12951061Y-11286998D02*
X12921061Y-11316998D01*
X12921061Y-11686998D02*
X12951061Y-11716998D01*
X12951061Y-11686998D02*
X12921061Y-11716998D01*
X12921061Y-12086998D02*
X12951061Y-12116998D01*
X12951061Y-12086998D02*
X12921061Y-12116998D01*
X6932261Y-11984998D02*
G75*
G02*
X6872261Y-11984998I-30000J0D01*
G01*
X6872261Y-11984998D02*
G75*
G02*
X6932261Y-11984998I30000J0D01*
G01*
X6872261Y-11954998D02*
X6872261Y-12014998D01*
X6932261Y-12014998D02*
G75*
G02*
X6872261Y-12014998I-30000J0D01*
G01*
X6932261Y-12014998D02*
X6932261Y-11954998D01*
X6932261Y-11954998D02*
G75*
G03*
X6872261Y-11954998I-30000J0D01*
G01*
X6932261Y-12364998D02*
G75*
G02*
X6872261Y-12364998I-30000J0D01*
G01*
X6872261Y-12364998D02*
G75*
G02*
X6932261Y-12364998I30000J0D01*
G01*
X6872261Y-12334998D02*
X6872261Y-12394998D01*
X6932261Y-12394998D02*
G75*
G02*
X6872261Y-12394998I-30000J0D01*
G01*
X6932261Y-12394998D02*
X6932261Y-12334998D01*
X6932261Y-12334998D02*
G75*
G03*
X6872261Y-12334998I-30000J0D01*
G01*
X7796261Y-11984998D02*
G75*
G02*
X7736261Y-11984998I-30000J0D01*
G01*
X7736261Y-11984998D02*
G75*
G02*
X7796261Y-11984998I30000J0D01*
G01*
X7736261Y-11954998D02*
X7736261Y-12014998D01*
X7796261Y-12014998D02*
G75*
G02*
X7736261Y-12014998I-30000J0D01*
G01*
X7796261Y-12014998D02*
X7796261Y-11954998D01*
X7796261Y-11954998D02*
G75*
G03*
X7736261Y-11954998I-30000J0D01*
G01*
X7796261Y-12364998D02*
G75*
G02*
X7736261Y-12364998I-30000J0D01*
G01*
X7736261Y-12364998D02*
G75*
G02*
X7796261Y-12364998I30000J0D01*
G01*
X7736261Y-12334998D02*
X7736261Y-12394998D01*
X7796261Y-12394998D02*
G75*
G02*
X7736261Y-12394998I-30000J0D01*
G01*
X7796261Y-12394998D02*
X7796261Y-12334998D01*
X7796261Y-12334998D02*
G75*
G03*
X7736261Y-12334998I-30000J0D01*
G01*
X5952061Y-5658398D02*
X5952061Y-5758398D01*
X5902061Y-5708398D02*
X6002061Y-5708398D01*
X5952061Y-5908398D02*
X5952061Y-6008398D01*
X5902061Y-5958398D02*
X6002061Y-5958398D01*
X6626061Y-4866998D02*
X6626061Y-4966998D01*
X6576061Y-4916998D02*
X6676061Y-4916998D01*
X6626061Y-5120998D02*
X6626061Y-5220998D01*
X6576061Y-5170998D02*
X6676061Y-5170998D01*
X6880061Y-4866998D02*
X6880061Y-4966998D01*
X6830061Y-4916998D02*
X6930061Y-4916998D01*
X6880061Y-5120998D02*
X6880061Y-5220998D01*
X6830061Y-5170998D02*
X6930061Y-5170998D01*
X7134061Y-4866998D02*
X7134061Y-4966998D01*
X7084061Y-4916998D02*
X7184061Y-4916998D01*
X7134061Y-5120998D02*
X7134061Y-5220998D01*
X7084061Y-5170998D02*
X7184061Y-5170998D01*
X7388061Y-4866998D02*
X7388061Y-4966998D01*
X7338061Y-4916998D02*
X7438061Y-4916998D01*
X7388061Y-5120998D02*
X7388061Y-5220998D01*
X7338061Y-5170998D02*
X7438061Y-5170998D01*
X7642061Y-4866998D02*
X7642061Y-4966998D01*
X7592061Y-4916998D02*
X7692061Y-4916998D01*
X7642061Y-5120998D02*
X7642061Y-5220998D01*
X7592061Y-5170998D02*
X7692061Y-5170998D01*
X7896061Y-4866998D02*
X7896061Y-4966998D01*
X7846061Y-4916998D02*
X7946061Y-4916998D01*
X7896061Y-5120998D02*
X7896061Y-5220998D01*
X7846061Y-5170998D02*
X7946061Y-5170998D01*
X8150061Y-4866998D02*
X8150061Y-4966998D01*
X8100061Y-4916998D02*
X8200061Y-4916998D01*
X8150061Y-5120998D02*
X8150061Y-5220998D01*
X8100061Y-5170998D02*
X8200061Y-5170998D01*
X8404061Y-4866998D02*
X8404061Y-4966998D01*
X8354061Y-4916998D02*
X8454061Y-4916998D01*
X8404061Y-5120998D02*
X8404061Y-5220998D01*
X8354061Y-5170998D02*
X8454061Y-5170998D01*
X8658061Y-4866998D02*
X8658061Y-4966998D01*
X8608061Y-4916998D02*
X8708061Y-4916998D01*
X8658061Y-5120998D02*
X8658061Y-5220998D01*
X8608061Y-5170998D02*
X8708061Y-5170998D01*
X8912061Y-4866998D02*
X8912061Y-4966998D01*
X8862061Y-4916998D02*
X8962061Y-4916998D01*
X8912061Y-5120998D02*
X8912061Y-5220998D01*
X8862061Y-5170998D02*
X8962061Y-5170998D01*
X9166061Y-4866998D02*
X9166061Y-4966998D01*
X9116061Y-4916998D02*
X9216061Y-4916998D01*
X9166061Y-5120998D02*
X9166061Y-5220998D01*
X9116061Y-5170998D02*
X9216061Y-5170998D01*
X9420061Y-4866998D02*
X9420061Y-4966998D01*
X9370061Y-4916998D02*
X9470061Y-4916998D01*
X9420061Y-5120998D02*
X9420061Y-5220998D01*
X9370061Y-5170998D02*
X9470061Y-5170998D01*
X9674061Y-4866998D02*
X9674061Y-4966998D01*
X9624061Y-4916998D02*
X9724061Y-4916998D01*
X9674061Y-5120998D02*
X9674061Y-5220998D01*
X9624061Y-5170998D02*
X9724061Y-5170998D01*
X9928061Y-4866998D02*
X9928061Y-4966998D01*
X9878061Y-4916998D02*
X9978061Y-4916998D01*
X9928061Y-5120998D02*
X9928061Y-5220998D01*
X9878061Y-5170998D02*
X9978061Y-5170998D01*
X10182061Y-4866998D02*
X10182061Y-4966998D01*
X10132061Y-4916998D02*
X10232061Y-4916998D01*
X10182061Y-5120998D02*
X10182061Y-5220998D01*
X10132061Y-5170998D02*
X10232061Y-5170998D01*
X10436061Y-4866998D02*
X10436061Y-4966998D01*
X10386061Y-4916998D02*
X10486061Y-4916998D01*
X10436061Y-5120998D02*
X10436061Y-5220998D01*
X10386061Y-5170998D02*
X10486061Y-5170998D01*
X10485861Y-11635998D02*
X10485861Y-11735998D01*
X10435861Y-11685998D02*
X10535861Y-11685998D01*
X10690061Y-4866998D02*
X10690061Y-4966998D01*
X10640061Y-4916998D02*
X10740061Y-4916998D01*
X10690061Y-5120998D02*
X10690061Y-5220998D01*
X10640061Y-5170998D02*
X10740061Y-5170998D01*
X10735861Y-11635998D02*
X10735861Y-11735998D01*
X10685861Y-11685998D02*
X10785861Y-11685998D01*
X10944061Y-4866998D02*
X10944061Y-4966998D01*
X10894061Y-4916998D02*
X10994061Y-4916998D01*
X10944061Y-5120998D02*
X10944061Y-5220998D01*
X10894061Y-5170998D02*
X10994061Y-5170998D01*
X11198061Y-4866998D02*
X11198061Y-4966998D01*
X11148061Y-4916998D02*
X11248061Y-4916998D01*
X11198061Y-5120998D02*
X11198061Y-5220998D01*
X11148061Y-5170998D02*
X11248061Y-5170998D01*
X11349461Y-11635998D02*
X11349461Y-11735998D01*
X11299461Y-11685998D02*
X11399461Y-11685998D01*
X11452061Y-4866998D02*
X11452061Y-4966998D01*
X11402061Y-4916998D02*
X11502061Y-4916998D01*
X11452061Y-5120998D02*
X11452061Y-5220998D01*
X11402061Y-5170998D02*
X11502061Y-5170998D01*
X11599461Y-11635998D02*
X11599461Y-11735998D01*
X11549461Y-11685998D02*
X11649461Y-11685998D01*
D12*
X5471730Y-7505668D02*
X5471730Y-7412329D01*
X5378391Y-7412329D01*
X5378391Y-7505668D01*
X5471730Y-7505668D01*
X5471730Y-9791668D02*
X5471730Y-9698329D01*
X5378391Y-9698329D01*
X5378391Y-9791668D01*
X5471730Y-9791668D01*
X12693730Y-7505668D02*
X12693730Y-7412329D01*
X12600391Y-7412329D01*
X12600391Y-7505668D01*
X12693730Y-7505668D01*
X12693730Y-9791668D02*
X12693730Y-9698329D01*
X12600391Y-9698329D01*
X12600391Y-9791668D01*
X12693730Y-9791668D01*
D13*
X5276661Y-11457098D02*
X5363161Y-11370598D01*
X5276661Y-11284098D01*
X5190161Y-11370598D01*
X5276661Y-11457098D01*
X5746661Y-11457098D02*
X5833161Y-11370598D01*
X5746661Y-11284098D01*
X5660161Y-11370598D01*
X5746661Y-11457098D01*
X6216661Y-11457098D02*
X6303161Y-11370598D01*
X6216661Y-11284098D01*
X6130161Y-11370598D01*
X6216661Y-11457098D01*
X8959861Y-11469698D02*
X9046361Y-11383198D01*
X8959861Y-11296698D01*
X8873361Y-11383198D01*
X8959861Y-11469698D01*
X8959861Y-11939698D02*
X9046361Y-11853198D01*
X8959861Y-11766698D01*
X8873361Y-11853198D01*
X8959861Y-11939698D01*
X8959861Y-12409698D02*
X9046361Y-12323198D01*
X8959861Y-12236698D01*
X8873361Y-12323198D01*
X8959861Y-12409698D01*
D11*
X5264777Y-12945484D02*
X5264777Y-12745484D01*
X5264777Y-12745484D02*
X5312396Y-12745484D01*
X5312396Y-12745484D02*
X5340967Y-12755008D01*
X5340967Y-12755008D02*
X5360015Y-12774055D01*
X5360015Y-12774055D02*
X5369539Y-12793103D01*
X5369539Y-12793103D02*
X5379063Y-12831198D01*
X5379063Y-12831198D02*
X5379063Y-12859769D01*
X5379063Y-12859769D02*
X5369539Y-12897865D01*
X5369539Y-12897865D02*
X5360015Y-12916912D01*
X5360015Y-12916912D02*
X5340967Y-12935960D01*
X5340967Y-12935960D02*
X5312396Y-12945484D01*
X5312396Y-12945484D02*
X5264777Y-12945484D01*
X5464777Y-12945484D02*
X5464777Y-12812150D01*
X5464777Y-12850246D02*
X5474301Y-12831198D01*
X5474301Y-12831198D02*
X5483824Y-12821674D01*
X5483824Y-12821674D02*
X5502872Y-12812150D01*
X5502872Y-12812150D02*
X5521920Y-12812150D01*
X5588586Y-12945484D02*
X5588586Y-12812150D01*
X5588586Y-12745484D02*
X5579063Y-12755008D01*
X5579063Y-12755008D02*
X5588586Y-12764531D01*
X5588586Y-12764531D02*
X5598110Y-12755008D01*
X5598110Y-12755008D02*
X5588586Y-12745484D01*
X5588586Y-12745484D02*
X5588586Y-12764531D01*
X5712396Y-12945484D02*
X5693348Y-12935960D01*
X5693348Y-12935960D02*
X5683824Y-12916912D01*
X5683824Y-12916912D02*
X5683824Y-12745484D01*
X5817158Y-12945484D02*
X5798110Y-12935960D01*
X5798110Y-12935960D02*
X5788586Y-12916912D01*
X5788586Y-12916912D02*
X5788586Y-12745484D01*
X6045729Y-12945484D02*
X6045729Y-12745484D01*
X6045729Y-12745484D02*
X6112396Y-12888341D01*
X6112396Y-12888341D02*
X6179062Y-12745484D01*
X6179062Y-12745484D02*
X6179062Y-12945484D01*
X6360015Y-12945484D02*
X6360015Y-12840722D01*
X6360015Y-12840722D02*
X6350491Y-12821674D01*
X6350491Y-12821674D02*
X6331443Y-12812150D01*
X6331443Y-12812150D02*
X6293348Y-12812150D01*
X6293348Y-12812150D02*
X6274301Y-12821674D01*
X6360015Y-12935960D02*
X6340967Y-12945484D01*
X6340967Y-12945484D02*
X6293348Y-12945484D01*
X6293348Y-12945484D02*
X6274301Y-12935960D01*
X6274301Y-12935960D02*
X6264777Y-12916912D01*
X6264777Y-12916912D02*
X6264777Y-12897865D01*
X6264777Y-12897865D02*
X6274301Y-12878817D01*
X6274301Y-12878817D02*
X6293348Y-12869293D01*
X6293348Y-12869293D02*
X6340967Y-12869293D01*
X6340967Y-12869293D02*
X6360015Y-12859769D01*
X6455253Y-12812150D02*
X6455253Y-13012150D01*
X6455253Y-12821674D02*
X6474301Y-12812150D01*
X6474301Y-12812150D02*
X6512396Y-12812150D01*
X6512396Y-12812150D02*
X6531443Y-12821674D01*
X6531443Y-12821674D02*
X6540967Y-12831198D01*
X6540967Y-12831198D02*
X6550491Y-12850246D01*
X6550491Y-12850246D02*
X6550491Y-12907388D01*
X6550491Y-12907388D02*
X6540967Y-12926436D01*
X6540967Y-12926436D02*
X6531443Y-12935960D01*
X6531443Y-12935960D02*
X6512396Y-12945484D01*
X6512396Y-12945484D02*
X6474301Y-12945484D01*
X6474301Y-12945484D02*
X6455253Y-12935960D01*
X6636205Y-12926436D02*
X6645729Y-12935960D01*
X6645729Y-12935960D02*
X6636205Y-12945484D01*
X6636205Y-12945484D02*
X6626682Y-12935960D01*
X6626682Y-12935960D02*
X6636205Y-12926436D01*
X6636205Y-12926436D02*
X6636205Y-12945484D01*
X6636205Y-12821674D02*
X6645729Y-12831198D01*
X6645729Y-12831198D02*
X6636205Y-12840722D01*
X6636205Y-12840722D02*
X6626682Y-12831198D01*
X6626682Y-12831198D02*
X6636205Y-12821674D01*
X6636205Y-12821674D02*
X6636205Y-12840722D01*
D10*
X4974000Y-13259000D02*
X5004000Y-13289000D01*
X5004000Y-13259000D02*
X4974000Y-13289000D01*
D11*
X5302872Y-13165484D02*
X5321920Y-13165484D01*
X5321920Y-13165484D02*
X5340967Y-13175008D01*
X5340967Y-13175008D02*
X5350491Y-13184531D01*
X5350491Y-13184531D02*
X5360015Y-13203579D01*
X5360015Y-13203579D02*
X5369539Y-13241674D01*
X5369539Y-13241674D02*
X5369539Y-13289293D01*
X5369539Y-13289293D02*
X5360015Y-13327388D01*
X5360015Y-13327388D02*
X5350491Y-13346436D01*
X5350491Y-13346436D02*
X5340967Y-13355960D01*
X5340967Y-13355960D02*
X5321920Y-13365484D01*
X5321920Y-13365484D02*
X5302872Y-13365484D01*
X5302872Y-13365484D02*
X5283824Y-13355960D01*
X5283824Y-13355960D02*
X5274301Y-13346436D01*
X5274301Y-13346436D02*
X5264777Y-13327388D01*
X5264777Y-13327388D02*
X5255253Y-13289293D01*
X5255253Y-13289293D02*
X5255253Y-13241674D01*
X5255253Y-13241674D02*
X5264777Y-13203579D01*
X5264777Y-13203579D02*
X5274301Y-13184531D01*
X5274301Y-13184531D02*
X5283824Y-13175008D01*
X5283824Y-13175008D02*
X5302872Y-13165484D01*
X5455253Y-13346436D02*
X5464777Y-13355960D01*
X5464777Y-13355960D02*
X5455253Y-13365484D01*
X5455253Y-13365484D02*
X5445729Y-13355960D01*
X5445729Y-13355960D02*
X5455253Y-13346436D01*
X5455253Y-13346436D02*
X5455253Y-13365484D01*
X5531444Y-13165484D02*
X5655253Y-13165484D01*
X5655253Y-13165484D02*
X5588586Y-13241674D01*
X5588586Y-13241674D02*
X5617158Y-13241674D01*
X5617158Y-13241674D02*
X5636205Y-13251198D01*
X5636205Y-13251198D02*
X5645729Y-13260722D01*
X5645729Y-13260722D02*
X5655253Y-13279769D01*
X5655253Y-13279769D02*
X5655253Y-13327388D01*
X5655253Y-13327388D02*
X5645729Y-13346436D01*
X5645729Y-13346436D02*
X5636205Y-13355960D01*
X5636205Y-13355960D02*
X5617158Y-13365484D01*
X5617158Y-13365484D02*
X5560015Y-13365484D01*
X5560015Y-13365484D02*
X5540967Y-13355960D01*
X5540967Y-13355960D02*
X5531444Y-13346436D01*
X5779062Y-13165484D02*
X5798110Y-13165484D01*
X5798110Y-13165484D02*
X5817158Y-13175008D01*
X5817158Y-13175008D02*
X5826682Y-13184531D01*
X5826682Y-13184531D02*
X5836205Y-13203579D01*
X5836205Y-13203579D02*
X5845729Y-13241674D01*
X5845729Y-13241674D02*
X5845729Y-13289293D01*
X5845729Y-13289293D02*
X5836205Y-13327388D01*
X5836205Y-13327388D02*
X5826682Y-13346436D01*
X5826682Y-13346436D02*
X5817158Y-13355960D01*
X5817158Y-13355960D02*
X5798110Y-13365484D01*
X5798110Y-13365484D02*
X5779062Y-13365484D01*
X5779062Y-13365484D02*
X5760015Y-13355960D01*
X5760015Y-13355960D02*
X5750491Y-13346436D01*
X5750491Y-13346436D02*
X5740967Y-13327388D01*
X5740967Y-13327388D02*
X5731443Y-13289293D01*
X5731443Y-13289293D02*
X5731443Y-13241674D01*
X5731443Y-13241674D02*
X5740967Y-13203579D01*
X5740967Y-13203579D02*
X5750491Y-13184531D01*
X5750491Y-13184531D02*
X5760015Y-13175008D01*
X5760015Y-13175008D02*
X5779062Y-13165484D01*
X5969539Y-13165484D02*
X5988586Y-13165484D01*
X5988586Y-13165484D02*
X6007634Y-13175008D01*
X6007634Y-13175008D02*
X6017158Y-13184531D01*
X6017158Y-13184531D02*
X6026682Y-13203579D01*
X6026682Y-13203579D02*
X6036205Y-13241674D01*
X6036205Y-13241674D02*
X6036205Y-13289293D01*
X6036205Y-13289293D02*
X6026682Y-13327388D01*
X6026682Y-13327388D02*
X6017158Y-13346436D01*
X6017158Y-13346436D02*
X6007634Y-13355960D01*
X6007634Y-13355960D02*
X5988586Y-13365484D01*
X5988586Y-13365484D02*
X5969539Y-13365484D01*
X5969539Y-13365484D02*
X5950491Y-13355960D01*
X5950491Y-13355960D02*
X5940967Y-13346436D01*
X5940967Y-13346436D02*
X5931443Y-13327388D01*
X5931443Y-13327388D02*
X5921920Y-13289293D01*
X5921920Y-13289293D02*
X5921920Y-13241674D01*
X5921920Y-13241674D02*
X5931443Y-13203579D01*
X5931443Y-13203579D02*
X5940967Y-13184531D01*
X5940967Y-13184531D02*
X5950491Y-13175008D01*
X5950491Y-13175008D02*
X5969539Y-13165484D01*
X6121920Y-13365484D02*
X6121920Y-13232150D01*
X6121920Y-13251198D02*
X6131443Y-13241674D01*
X6131443Y-13241674D02*
X6150491Y-13232150D01*
X6150491Y-13232150D02*
X6179063Y-13232150D01*
X6179063Y-13232150D02*
X6198110Y-13241674D01*
X6198110Y-13241674D02*
X6207634Y-13260722D01*
X6207634Y-13260722D02*
X6207634Y-13365484D01*
X6207634Y-13260722D02*
X6217158Y-13241674D01*
X6217158Y-13241674D02*
X6236205Y-13232150D01*
X6236205Y-13232150D02*
X6264777Y-13232150D01*
X6264777Y-13232150D02*
X6283824Y-13241674D01*
X6283824Y-13241674D02*
X6293348Y-13260722D01*
X6293348Y-13260722D02*
X6293348Y-13365484D01*
X6388586Y-13365484D02*
X6388586Y-13232150D01*
X6388586Y-13251198D02*
X6398110Y-13241674D01*
X6398110Y-13241674D02*
X6417158Y-13232150D01*
X6417158Y-13232150D02*
X6445729Y-13232150D01*
X6445729Y-13232150D02*
X6464777Y-13241674D01*
X6464777Y-13241674D02*
X6474301Y-13260722D01*
X6474301Y-13260722D02*
X6474301Y-13365484D01*
X6474301Y-13260722D02*
X6483824Y-13241674D01*
X6483824Y-13241674D02*
X6502872Y-13232150D01*
X6502872Y-13232150D02*
X6531443Y-13232150D01*
X6531443Y-13232150D02*
X6550491Y-13241674D01*
X6550491Y-13241674D02*
X6560015Y-13260722D01*
X6560015Y-13260722D02*
X6560015Y-13365484D01*
X6950491Y-13155960D02*
X6779063Y-13413103D01*
X7207634Y-13165484D02*
X7226682Y-13165484D01*
X7226682Y-13165484D02*
X7245729Y-13175008D01*
X7245729Y-13175008D02*
X7255253Y-13184531D01*
X7255253Y-13184531D02*
X7264777Y-13203579D01*
X7264777Y-13203579D02*
X7274301Y-13241674D01*
X7274301Y-13241674D02*
X7274301Y-13289293D01*
X7274301Y-13289293D02*
X7264777Y-13327388D01*
X7264777Y-13327388D02*
X7255253Y-13346436D01*
X7255253Y-13346436D02*
X7245729Y-13355960D01*
X7245729Y-13355960D02*
X7226682Y-13365484D01*
X7226682Y-13365484D02*
X7207634Y-13365484D01*
X7207634Y-13365484D02*
X7188586Y-13355960D01*
X7188586Y-13355960D02*
X7179063Y-13346436D01*
X7179063Y-13346436D02*
X7169539Y-13327388D01*
X7169539Y-13327388D02*
X7160015Y-13289293D01*
X7160015Y-13289293D02*
X7160015Y-13241674D01*
X7160015Y-13241674D02*
X7169539Y-13203579D01*
X7169539Y-13203579D02*
X7179063Y-13184531D01*
X7179063Y-13184531D02*
X7188586Y-13175008D01*
X7188586Y-13175008D02*
X7207634Y-13165484D01*
X7360015Y-13346436D02*
X7369539Y-13355960D01*
X7369539Y-13355960D02*
X7360015Y-13365484D01*
X7360015Y-13365484D02*
X7350491Y-13355960D01*
X7350491Y-13355960D02*
X7360015Y-13346436D01*
X7360015Y-13346436D02*
X7360015Y-13365484D01*
X7493348Y-13165484D02*
X7512396Y-13165484D01*
X7512396Y-13165484D02*
X7531444Y-13175008D01*
X7531444Y-13175008D02*
X7540967Y-13184531D01*
X7540967Y-13184531D02*
X7550491Y-13203579D01*
X7550491Y-13203579D02*
X7560015Y-13241674D01*
X7560015Y-13241674D02*
X7560015Y-13289293D01*
X7560015Y-13289293D02*
X7550491Y-13327388D01*
X7550491Y-13327388D02*
X7540967Y-13346436D01*
X7540967Y-13346436D02*
X7531444Y-13355960D01*
X7531444Y-13355960D02*
X7512396Y-13365484D01*
X7512396Y-13365484D02*
X7493348Y-13365484D01*
X7493348Y-13365484D02*
X7474301Y-13355960D01*
X7474301Y-13355960D02*
X7464777Y-13346436D01*
X7464777Y-13346436D02*
X7455253Y-13327388D01*
X7455253Y-13327388D02*
X7445729Y-13289293D01*
X7445729Y-13289293D02*
X7445729Y-13241674D01*
X7445729Y-13241674D02*
X7455253Y-13203579D01*
X7455253Y-13203579D02*
X7464777Y-13184531D01*
X7464777Y-13184531D02*
X7474301Y-13175008D01*
X7474301Y-13175008D02*
X7493348Y-13165484D01*
X7750491Y-13365484D02*
X7636206Y-13365484D01*
X7693348Y-13365484D02*
X7693348Y-13165484D01*
X7693348Y-13165484D02*
X7674301Y-13194055D01*
X7674301Y-13194055D02*
X7655253Y-13213103D01*
X7655253Y-13213103D02*
X7636206Y-13222627D01*
X7940967Y-13365484D02*
X7826682Y-13365484D01*
X7883825Y-13365484D02*
X7883825Y-13165484D01*
X7883825Y-13165484D02*
X7864777Y-13194055D01*
X7864777Y-13194055D02*
X7845729Y-13213103D01*
X7845729Y-13213103D02*
X7826682Y-13222627D01*
X8055253Y-13251198D02*
X8036206Y-13241674D01*
X8036206Y-13241674D02*
X8026682Y-13232150D01*
X8026682Y-13232150D02*
X8017158Y-13213103D01*
X8017158Y-13213103D02*
X8017158Y-13203579D01*
X8017158Y-13203579D02*
X8026682Y-13184531D01*
X8026682Y-13184531D02*
X8036206Y-13175008D01*
X8036206Y-13175008D02*
X8055253Y-13165484D01*
X8055253Y-13165484D02*
X8093348Y-13165484D01*
X8093348Y-13165484D02*
X8112396Y-13175008D01*
X8112396Y-13175008D02*
X8121920Y-13184531D01*
X8121920Y-13184531D02*
X8131444Y-13203579D01*
X8131444Y-13203579D02*
X8131444Y-13213103D01*
X8131444Y-13213103D02*
X8121920Y-13232150D01*
X8121920Y-13232150D02*
X8112396Y-13241674D01*
X8112396Y-13241674D02*
X8093348Y-13251198D01*
X8093348Y-13251198D02*
X8055253Y-13251198D01*
X8055253Y-13251198D02*
X8036206Y-13260722D01*
X8036206Y-13260722D02*
X8026682Y-13270246D01*
X8026682Y-13270246D02*
X8017158Y-13289293D01*
X8017158Y-13289293D02*
X8017158Y-13327388D01*
X8017158Y-13327388D02*
X8026682Y-13346436D01*
X8026682Y-13346436D02*
X8036206Y-13355960D01*
X8036206Y-13355960D02*
X8055253Y-13365484D01*
X8055253Y-13365484D02*
X8093348Y-13365484D01*
X8093348Y-13365484D02*
X8112396Y-13355960D01*
X8112396Y-13355960D02*
X8121920Y-13346436D01*
X8121920Y-13346436D02*
X8131444Y-13327388D01*
X8131444Y-13327388D02*
X8131444Y-13289293D01*
X8131444Y-13289293D02*
X8121920Y-13270246D01*
X8121920Y-13270246D02*
X8112396Y-13260722D01*
X8112396Y-13260722D02*
X8093348Y-13251198D01*
X8207634Y-13165484D02*
X8207634Y-13203579D01*
X8283825Y-13165484D02*
X8283825Y-13203579D01*
X8579063Y-13441674D02*
X8569539Y-13432150D01*
X8569539Y-13432150D02*
X8550491Y-13403579D01*
X8550491Y-13403579D02*
X8540968Y-13384531D01*
X8540968Y-13384531D02*
X8531444Y-13355960D01*
X8531444Y-13355960D02*
X8521920Y-13308341D01*
X8521920Y-13308341D02*
X8521920Y-13270246D01*
X8521920Y-13270246D02*
X8531444Y-13222627D01*
X8531444Y-13222627D02*
X8540968Y-13194055D01*
X8540968Y-13194055D02*
X8550491Y-13175008D01*
X8550491Y-13175008D02*
X8569539Y-13146436D01*
X8569539Y-13146436D02*
X8579063Y-13136912D01*
X8636206Y-13165484D02*
X8760015Y-13165484D01*
X8760015Y-13165484D02*
X8693349Y-13241674D01*
X8693349Y-13241674D02*
X8721920Y-13241674D01*
X8721920Y-13241674D02*
X8740968Y-13251198D01*
X8740968Y-13251198D02*
X8750491Y-13260722D01*
X8750491Y-13260722D02*
X8760015Y-13279769D01*
X8760015Y-13279769D02*
X8760015Y-13327388D01*
X8760015Y-13327388D02*
X8750491Y-13346436D01*
X8750491Y-13346436D02*
X8740968Y-13355960D01*
X8740968Y-13355960D02*
X8721920Y-13365484D01*
X8721920Y-13365484D02*
X8664777Y-13365484D01*
X8664777Y-13365484D02*
X8645730Y-13355960D01*
X8645730Y-13355960D02*
X8636206Y-13346436D01*
X8931444Y-13232150D02*
X8931444Y-13365484D01*
X8883825Y-13155960D02*
X8836206Y-13298817D01*
X8836206Y-13298817D02*
X8960015Y-13298817D01*
X9131444Y-13165484D02*
X9036206Y-13165484D01*
X9036206Y-13165484D02*
X9026682Y-13260722D01*
X9026682Y-13260722D02*
X9036206Y-13251198D01*
X9036206Y-13251198D02*
X9055253Y-13241674D01*
X9055253Y-13241674D02*
X9102872Y-13241674D01*
X9102872Y-13241674D02*
X9121920Y-13251198D01*
X9121920Y-13251198D02*
X9131444Y-13260722D01*
X9131444Y-13260722D02*
X9140968Y-13279769D01*
X9140968Y-13279769D02*
X9140968Y-13327388D01*
X9140968Y-13327388D02*
X9131444Y-13346436D01*
X9131444Y-13346436D02*
X9121920Y-13355960D01*
X9121920Y-13355960D02*
X9102872Y-13365484D01*
X9102872Y-13365484D02*
X9055253Y-13365484D01*
X9055253Y-13365484D02*
X9036206Y-13355960D01*
X9036206Y-13355960D02*
X9026682Y-13346436D01*
X9379063Y-13365484D02*
X9379063Y-13165484D01*
X9464777Y-13365484D02*
X9464777Y-13260722D01*
X9464777Y-13260722D02*
X9455253Y-13241674D01*
X9455253Y-13241674D02*
X9436206Y-13232150D01*
X9436206Y-13232150D02*
X9407634Y-13232150D01*
X9407634Y-13232150D02*
X9388587Y-13241674D01*
X9388587Y-13241674D02*
X9379063Y-13251198D01*
X9588587Y-13365484D02*
X9569539Y-13355960D01*
X9569539Y-13355960D02*
X9560015Y-13346436D01*
X9560015Y-13346436D02*
X9550492Y-13327388D01*
X9550492Y-13327388D02*
X9550492Y-13270246D01*
X9550492Y-13270246D02*
X9560015Y-13251198D01*
X9560015Y-13251198D02*
X9569539Y-13241674D01*
X9569539Y-13241674D02*
X9588587Y-13232150D01*
X9588587Y-13232150D02*
X9617158Y-13232150D01*
X9617158Y-13232150D02*
X9636206Y-13241674D01*
X9636206Y-13241674D02*
X9645730Y-13251198D01*
X9645730Y-13251198D02*
X9655253Y-13270246D01*
X9655253Y-13270246D02*
X9655253Y-13327388D01*
X9655253Y-13327388D02*
X9645730Y-13346436D01*
X9645730Y-13346436D02*
X9636206Y-13355960D01*
X9636206Y-13355960D02*
X9617158Y-13365484D01*
X9617158Y-13365484D02*
X9588587Y-13365484D01*
X9769539Y-13365484D02*
X9750492Y-13355960D01*
X9750492Y-13355960D02*
X9740968Y-13336912D01*
X9740968Y-13336912D02*
X9740968Y-13165484D01*
X9921920Y-13355960D02*
X9902873Y-13365484D01*
X9902873Y-13365484D02*
X9864777Y-13365484D01*
X9864777Y-13365484D02*
X9845730Y-13355960D01*
X9845730Y-13355960D02*
X9836206Y-13336912D01*
X9836206Y-13336912D02*
X9836206Y-13260722D01*
X9836206Y-13260722D02*
X9845730Y-13241674D01*
X9845730Y-13241674D02*
X9864777Y-13232150D01*
X9864777Y-13232150D02*
X9902873Y-13232150D01*
X9902873Y-13232150D02*
X9921920Y-13241674D01*
X9921920Y-13241674D02*
X9931444Y-13260722D01*
X9931444Y-13260722D02*
X9931444Y-13279769D01*
X9931444Y-13279769D02*
X9836206Y-13298817D01*
X10007634Y-13355960D02*
X10026682Y-13365484D01*
X10026682Y-13365484D02*
X10064777Y-13365484D01*
X10064777Y-13365484D02*
X10083825Y-13355960D01*
X10083825Y-13355960D02*
X10093349Y-13336912D01*
X10093349Y-13336912D02*
X10093349Y-13327388D01*
X10093349Y-13327388D02*
X10083825Y-13308341D01*
X10083825Y-13308341D02*
X10064777Y-13298817D01*
X10064777Y-13298817D02*
X10036206Y-13298817D01*
X10036206Y-13298817D02*
X10017158Y-13289293D01*
X10017158Y-13289293D02*
X10007634Y-13270246D01*
X10007634Y-13270246D02*
X10007634Y-13260722D01*
X10007634Y-13260722D02*
X10017158Y-13241674D01*
X10017158Y-13241674D02*
X10036206Y-13232150D01*
X10036206Y-13232150D02*
X10064777Y-13232150D01*
X10064777Y-13232150D02*
X10083825Y-13241674D01*
X10160015Y-13441674D02*
X10169539Y-13432150D01*
X10169539Y-13432150D02*
X10188587Y-13403579D01*
X10188587Y-13403579D02*
X10198111Y-13384531D01*
X10198111Y-13384531D02*
X10207634Y-13355960D01*
X10207634Y-13355960D02*
X10217158Y-13308341D01*
X10217158Y-13308341D02*
X10217158Y-13270246D01*
X10217158Y-13270246D02*
X10207634Y-13222627D01*
X10207634Y-13222627D02*
X10198111Y-13194055D01*
X10198111Y-13194055D02*
X10188587Y-13175008D01*
X10188587Y-13175008D02*
X10169539Y-13146436D01*
X10169539Y-13146436D02*
X10160015Y-13136912D01*
D10*
X5004000Y-13538000D02*
G75*
G02*
X4944000Y-13538000I-30000J0D01*
G01*
X4944000Y-13538000D02*
G75*
G02*
X5004000Y-13538000I30000J0D01*
G01*
D11*
X5302872Y-13429484D02*
X5321920Y-13429484D01*
X5321920Y-13429484D02*
X5340967Y-13439008D01*
X5340967Y-13439008D02*
X5350491Y-13448531D01*
X5350491Y-13448531D02*
X5360015Y-13467579D01*
X5360015Y-13467579D02*
X5369539Y-13505674D01*
X5369539Y-13505674D02*
X5369539Y-13553293D01*
X5369539Y-13553293D02*
X5360015Y-13591388D01*
X5360015Y-13591388D02*
X5350491Y-13610436D01*
X5350491Y-13610436D02*
X5340967Y-13619960D01*
X5340967Y-13619960D02*
X5321920Y-13629484D01*
X5321920Y-13629484D02*
X5302872Y-13629484D01*
X5302872Y-13629484D02*
X5283824Y-13619960D01*
X5283824Y-13619960D02*
X5274301Y-13610436D01*
X5274301Y-13610436D02*
X5264777Y-13591388D01*
X5264777Y-13591388D02*
X5255253Y-13553293D01*
X5255253Y-13553293D02*
X5255253Y-13505674D01*
X5255253Y-13505674D02*
X5264777Y-13467579D01*
X5264777Y-13467579D02*
X5274301Y-13448531D01*
X5274301Y-13448531D02*
X5283824Y-13439008D01*
X5283824Y-13439008D02*
X5302872Y-13429484D01*
X5455253Y-13610436D02*
X5464777Y-13619960D01*
X5464777Y-13619960D02*
X5455253Y-13629484D01*
X5455253Y-13629484D02*
X5445729Y-13619960D01*
X5445729Y-13619960D02*
X5455253Y-13610436D01*
X5455253Y-13610436D02*
X5455253Y-13629484D01*
X5636205Y-13429484D02*
X5598110Y-13429484D01*
X5598110Y-13429484D02*
X5579063Y-13439008D01*
X5579063Y-13439008D02*
X5569539Y-13448531D01*
X5569539Y-13448531D02*
X5550491Y-13477103D01*
X5550491Y-13477103D02*
X5540967Y-13515198D01*
X5540967Y-13515198D02*
X5540967Y-13591388D01*
X5540967Y-13591388D02*
X5550491Y-13610436D01*
X5550491Y-13610436D02*
X5560015Y-13619960D01*
X5560015Y-13619960D02*
X5579063Y-13629484D01*
X5579063Y-13629484D02*
X5617158Y-13629484D01*
X5617158Y-13629484D02*
X5636205Y-13619960D01*
X5636205Y-13619960D02*
X5645729Y-13610436D01*
X5645729Y-13610436D02*
X5655253Y-13591388D01*
X5655253Y-13591388D02*
X5655253Y-13543769D01*
X5655253Y-13543769D02*
X5645729Y-13524722D01*
X5645729Y-13524722D02*
X5636205Y-13515198D01*
X5636205Y-13515198D02*
X5617158Y-13505674D01*
X5617158Y-13505674D02*
X5579063Y-13505674D01*
X5579063Y-13505674D02*
X5560015Y-13515198D01*
X5560015Y-13515198D02*
X5550491Y-13524722D01*
X5550491Y-13524722D02*
X5540967Y-13543769D01*
X5779062Y-13429484D02*
X5798110Y-13429484D01*
X5798110Y-13429484D02*
X5817158Y-13439008D01*
X5817158Y-13439008D02*
X5826682Y-13448531D01*
X5826682Y-13448531D02*
X5836205Y-13467579D01*
X5836205Y-13467579D02*
X5845729Y-13505674D01*
X5845729Y-13505674D02*
X5845729Y-13553293D01*
X5845729Y-13553293D02*
X5836205Y-13591388D01*
X5836205Y-13591388D02*
X5826682Y-13610436D01*
X5826682Y-13610436D02*
X5817158Y-13619960D01*
X5817158Y-13619960D02*
X5798110Y-13629484D01*
X5798110Y-13629484D02*
X5779062Y-13629484D01*
X5779062Y-13629484D02*
X5760015Y-13619960D01*
X5760015Y-13619960D02*
X5750491Y-13610436D01*
X5750491Y-13610436D02*
X5740967Y-13591388D01*
X5740967Y-13591388D02*
X5731443Y-13553293D01*
X5731443Y-13553293D02*
X5731443Y-13505674D01*
X5731443Y-13505674D02*
X5740967Y-13467579D01*
X5740967Y-13467579D02*
X5750491Y-13448531D01*
X5750491Y-13448531D02*
X5760015Y-13439008D01*
X5760015Y-13439008D02*
X5779062Y-13429484D01*
X5969539Y-13429484D02*
X5988586Y-13429484D01*
X5988586Y-13429484D02*
X6007634Y-13439008D01*
X6007634Y-13439008D02*
X6017158Y-13448531D01*
X6017158Y-13448531D02*
X6026682Y-13467579D01*
X6026682Y-13467579D02*
X6036205Y-13505674D01*
X6036205Y-13505674D02*
X6036205Y-13553293D01*
X6036205Y-13553293D02*
X6026682Y-13591388D01*
X6026682Y-13591388D02*
X6017158Y-13610436D01*
X6017158Y-13610436D02*
X6007634Y-13619960D01*
X6007634Y-13619960D02*
X5988586Y-13629484D01*
X5988586Y-13629484D02*
X5969539Y-13629484D01*
X5969539Y-13629484D02*
X5950491Y-13619960D01*
X5950491Y-13619960D02*
X5940967Y-13610436D01*
X5940967Y-13610436D02*
X5931443Y-13591388D01*
X5931443Y-13591388D02*
X5921920Y-13553293D01*
X5921920Y-13553293D02*
X5921920Y-13505674D01*
X5921920Y-13505674D02*
X5931443Y-13467579D01*
X5931443Y-13467579D02*
X5940967Y-13448531D01*
X5940967Y-13448531D02*
X5950491Y-13439008D01*
X5950491Y-13439008D02*
X5969539Y-13429484D01*
X6121920Y-13629484D02*
X6121920Y-13496150D01*
X6121920Y-13515198D02*
X6131443Y-13505674D01*
X6131443Y-13505674D02*
X6150491Y-13496150D01*
X6150491Y-13496150D02*
X6179063Y-13496150D01*
X6179063Y-13496150D02*
X6198110Y-13505674D01*
X6198110Y-13505674D02*
X6207634Y-13524722D01*
X6207634Y-13524722D02*
X6207634Y-13629484D01*
X6207634Y-13524722D02*
X6217158Y-13505674D01*
X6217158Y-13505674D02*
X6236205Y-13496150D01*
X6236205Y-13496150D02*
X6264777Y-13496150D01*
X6264777Y-13496150D02*
X6283824Y-13505674D01*
X6283824Y-13505674D02*
X6293348Y-13524722D01*
X6293348Y-13524722D02*
X6293348Y-13629484D01*
X6388586Y-13629484D02*
X6388586Y-13496150D01*
X6388586Y-13515198D02*
X6398110Y-13505674D01*
X6398110Y-13505674D02*
X6417158Y-13496150D01*
X6417158Y-13496150D02*
X6445729Y-13496150D01*
X6445729Y-13496150D02*
X6464777Y-13505674D01*
X6464777Y-13505674D02*
X6474301Y-13524722D01*
X6474301Y-13524722D02*
X6474301Y-13629484D01*
X6474301Y-13524722D02*
X6483824Y-13505674D01*
X6483824Y-13505674D02*
X6502872Y-13496150D01*
X6502872Y-13496150D02*
X6531443Y-13496150D01*
X6531443Y-13496150D02*
X6550491Y-13505674D01*
X6550491Y-13505674D02*
X6560015Y-13524722D01*
X6560015Y-13524722D02*
X6560015Y-13629484D01*
X6950491Y-13419960D02*
X6779063Y-13677103D01*
X7207634Y-13429484D02*
X7226682Y-13429484D01*
X7226682Y-13429484D02*
X7245729Y-13439008D01*
X7245729Y-13439008D02*
X7255253Y-13448531D01*
X7255253Y-13448531D02*
X7264777Y-13467579D01*
X7264777Y-13467579D02*
X7274301Y-13505674D01*
X7274301Y-13505674D02*
X7274301Y-13553293D01*
X7274301Y-13553293D02*
X7264777Y-13591388D01*
X7264777Y-13591388D02*
X7255253Y-13610436D01*
X7255253Y-13610436D02*
X7245729Y-13619960D01*
X7245729Y-13619960D02*
X7226682Y-13629484D01*
X7226682Y-13629484D02*
X7207634Y-13629484D01*
X7207634Y-13629484D02*
X7188586Y-13619960D01*
X7188586Y-13619960D02*
X7179063Y-13610436D01*
X7179063Y-13610436D02*
X7169539Y-13591388D01*
X7169539Y-13591388D02*
X7160015Y-13553293D01*
X7160015Y-13553293D02*
X7160015Y-13505674D01*
X7160015Y-13505674D02*
X7169539Y-13467579D01*
X7169539Y-13467579D02*
X7179063Y-13448531D01*
X7179063Y-13448531D02*
X7188586Y-13439008D01*
X7188586Y-13439008D02*
X7207634Y-13429484D01*
X7360015Y-13610436D02*
X7369539Y-13619960D01*
X7369539Y-13619960D02*
X7360015Y-13629484D01*
X7360015Y-13629484D02*
X7350491Y-13619960D01*
X7350491Y-13619960D02*
X7360015Y-13610436D01*
X7360015Y-13610436D02*
X7360015Y-13629484D01*
X7493348Y-13429484D02*
X7512396Y-13429484D01*
X7512396Y-13429484D02*
X7531444Y-13439008D01*
X7531444Y-13439008D02*
X7540967Y-13448531D01*
X7540967Y-13448531D02*
X7550491Y-13467579D01*
X7550491Y-13467579D02*
X7560015Y-13505674D01*
X7560015Y-13505674D02*
X7560015Y-13553293D01*
X7560015Y-13553293D02*
X7550491Y-13591388D01*
X7550491Y-13591388D02*
X7540967Y-13610436D01*
X7540967Y-13610436D02*
X7531444Y-13619960D01*
X7531444Y-13619960D02*
X7512396Y-13629484D01*
X7512396Y-13629484D02*
X7493348Y-13629484D01*
X7493348Y-13629484D02*
X7474301Y-13619960D01*
X7474301Y-13619960D02*
X7464777Y-13610436D01*
X7464777Y-13610436D02*
X7455253Y-13591388D01*
X7455253Y-13591388D02*
X7445729Y-13553293D01*
X7445729Y-13553293D02*
X7445729Y-13505674D01*
X7445729Y-13505674D02*
X7455253Y-13467579D01*
X7455253Y-13467579D02*
X7464777Y-13448531D01*
X7464777Y-13448531D02*
X7474301Y-13439008D01*
X7474301Y-13439008D02*
X7493348Y-13429484D01*
X7636206Y-13448531D02*
X7645729Y-13439008D01*
X7645729Y-13439008D02*
X7664777Y-13429484D01*
X7664777Y-13429484D02*
X7712396Y-13429484D01*
X7712396Y-13429484D02*
X7731444Y-13439008D01*
X7731444Y-13439008D02*
X7740967Y-13448531D01*
X7740967Y-13448531D02*
X7750491Y-13467579D01*
X7750491Y-13467579D02*
X7750491Y-13486627D01*
X7750491Y-13486627D02*
X7740967Y-13515198D01*
X7740967Y-13515198D02*
X7626682Y-13629484D01*
X7626682Y-13629484D02*
X7750491Y-13629484D01*
X7817158Y-13429484D02*
X7940967Y-13429484D01*
X7940967Y-13429484D02*
X7874301Y-13505674D01*
X7874301Y-13505674D02*
X7902872Y-13505674D01*
X7902872Y-13505674D02*
X7921920Y-13515198D01*
X7921920Y-13515198D02*
X7931444Y-13524722D01*
X7931444Y-13524722D02*
X7940967Y-13543769D01*
X7940967Y-13543769D02*
X7940967Y-13591388D01*
X7940967Y-13591388D02*
X7931444Y-13610436D01*
X7931444Y-13610436D02*
X7921920Y-13619960D01*
X7921920Y-13619960D02*
X7902872Y-13629484D01*
X7902872Y-13629484D02*
X7845729Y-13629484D01*
X7845729Y-13629484D02*
X7826682Y-13619960D01*
X7826682Y-13619960D02*
X7817158Y-13610436D01*
X8112396Y-13429484D02*
X8074301Y-13429484D01*
X8074301Y-13429484D02*
X8055253Y-13439008D01*
X8055253Y-13439008D02*
X8045729Y-13448531D01*
X8045729Y-13448531D02*
X8026682Y-13477103D01*
X8026682Y-13477103D02*
X8017158Y-13515198D01*
X8017158Y-13515198D02*
X8017158Y-13591388D01*
X8017158Y-13591388D02*
X8026682Y-13610436D01*
X8026682Y-13610436D02*
X8036206Y-13619960D01*
X8036206Y-13619960D02*
X8055253Y-13629484D01*
X8055253Y-13629484D02*
X8093348Y-13629484D01*
X8093348Y-13629484D02*
X8112396Y-13619960D01*
X8112396Y-13619960D02*
X8121920Y-13610436D01*
X8121920Y-13610436D02*
X8131444Y-13591388D01*
X8131444Y-13591388D02*
X8131444Y-13543769D01*
X8131444Y-13543769D02*
X8121920Y-13524722D01*
X8121920Y-13524722D02*
X8112396Y-13515198D01*
X8112396Y-13515198D02*
X8093348Y-13505674D01*
X8093348Y-13505674D02*
X8055253Y-13505674D01*
X8055253Y-13505674D02*
X8036206Y-13515198D01*
X8036206Y-13515198D02*
X8026682Y-13524722D01*
X8026682Y-13524722D02*
X8017158Y-13543769D01*
X8207634Y-13429484D02*
X8207634Y-13467579D01*
X8283825Y-13429484D02*
X8283825Y-13467579D01*
X8579063Y-13705674D02*
X8569539Y-13696150D01*
X8569539Y-13696150D02*
X8550491Y-13667579D01*
X8550491Y-13667579D02*
X8540968Y-13648531D01*
X8540968Y-13648531D02*
X8531444Y-13619960D01*
X8531444Y-13619960D02*
X8521920Y-13572341D01*
X8521920Y-13572341D02*
X8521920Y-13534246D01*
X8521920Y-13534246D02*
X8531444Y-13486627D01*
X8531444Y-13486627D02*
X8540968Y-13458055D01*
X8540968Y-13458055D02*
X8550491Y-13439008D01*
X8550491Y-13439008D02*
X8569539Y-13410436D01*
X8569539Y-13410436D02*
X8579063Y-13400912D01*
X8693349Y-13429484D02*
X8712396Y-13429484D01*
X8712396Y-13429484D02*
X8731444Y-13439008D01*
X8731444Y-13439008D02*
X8740968Y-13448531D01*
X8740968Y-13448531D02*
X8750491Y-13467579D01*
X8750491Y-13467579D02*
X8760015Y-13505674D01*
X8760015Y-13505674D02*
X8760015Y-13553293D01*
X8760015Y-13553293D02*
X8750491Y-13591388D01*
X8750491Y-13591388D02*
X8740968Y-13610436D01*
X8740968Y-13610436D02*
X8731444Y-13619960D01*
X8731444Y-13619960D02*
X8712396Y-13629484D01*
X8712396Y-13629484D02*
X8693349Y-13629484D01*
X8693349Y-13629484D02*
X8674301Y-13619960D01*
X8674301Y-13619960D02*
X8664777Y-13610436D01*
X8664777Y-13610436D02*
X8655253Y-13591388D01*
X8655253Y-13591388D02*
X8645730Y-13553293D01*
X8645730Y-13553293D02*
X8645730Y-13505674D01*
X8645730Y-13505674D02*
X8655253Y-13467579D01*
X8655253Y-13467579D02*
X8664777Y-13448531D01*
X8664777Y-13448531D02*
X8674301Y-13439008D01*
X8674301Y-13439008D02*
X8693349Y-13429484D01*
X8998111Y-13629484D02*
X8998111Y-13429484D01*
X9083825Y-13629484D02*
X9083825Y-13524722D01*
X9083825Y-13524722D02*
X9074301Y-13505674D01*
X9074301Y-13505674D02*
X9055253Y-13496150D01*
X9055253Y-13496150D02*
X9026682Y-13496150D01*
X9026682Y-13496150D02*
X9007634Y-13505674D01*
X9007634Y-13505674D02*
X8998111Y-13515198D01*
X9207634Y-13629484D02*
X9188587Y-13619960D01*
X9188587Y-13619960D02*
X9179063Y-13610436D01*
X9179063Y-13610436D02*
X9169539Y-13591388D01*
X9169539Y-13591388D02*
X9169539Y-13534246D01*
X9169539Y-13534246D02*
X9179063Y-13515198D01*
X9179063Y-13515198D02*
X9188587Y-13505674D01*
X9188587Y-13505674D02*
X9207634Y-13496150D01*
X9207634Y-13496150D02*
X9236206Y-13496150D01*
X9236206Y-13496150D02*
X9255253Y-13505674D01*
X9255253Y-13505674D02*
X9264777Y-13515198D01*
X9264777Y-13515198D02*
X9274301Y-13534246D01*
X9274301Y-13534246D02*
X9274301Y-13591388D01*
X9274301Y-13591388D02*
X9264777Y-13610436D01*
X9264777Y-13610436D02*
X9255253Y-13619960D01*
X9255253Y-13619960D02*
X9236206Y-13629484D01*
X9236206Y-13629484D02*
X9207634Y-13629484D01*
X9388587Y-13629484D02*
X9369539Y-13619960D01*
X9369539Y-13619960D02*
X9360015Y-13600912D01*
X9360015Y-13600912D02*
X9360015Y-13429484D01*
X9540968Y-13619960D02*
X9521920Y-13629484D01*
X9521920Y-13629484D02*
X9483825Y-13629484D01*
X9483825Y-13629484D02*
X9464777Y-13619960D01*
X9464777Y-13619960D02*
X9455253Y-13600912D01*
X9455253Y-13600912D02*
X9455253Y-13524722D01*
X9455253Y-13524722D02*
X9464777Y-13505674D01*
X9464777Y-13505674D02*
X9483825Y-13496150D01*
X9483825Y-13496150D02*
X9521920Y-13496150D01*
X9521920Y-13496150D02*
X9540968Y-13505674D01*
X9540968Y-13505674D02*
X9550492Y-13524722D01*
X9550492Y-13524722D02*
X9550492Y-13543769D01*
X9550492Y-13543769D02*
X9455253Y-13562817D01*
X9626682Y-13619960D02*
X9645730Y-13629484D01*
X9645730Y-13629484D02*
X9683825Y-13629484D01*
X9683825Y-13629484D02*
X9702873Y-13619960D01*
X9702873Y-13619960D02*
X9712396Y-13600912D01*
X9712396Y-13600912D02*
X9712396Y-13591388D01*
X9712396Y-13591388D02*
X9702873Y-13572341D01*
X9702873Y-13572341D02*
X9683825Y-13562817D01*
X9683825Y-13562817D02*
X9655253Y-13562817D01*
X9655253Y-13562817D02*
X9636206Y-13553293D01*
X9636206Y-13553293D02*
X9626682Y-13534246D01*
X9626682Y-13534246D02*
X9626682Y-13524722D01*
X9626682Y-13524722D02*
X9636206Y-13505674D01*
X9636206Y-13505674D02*
X9655253Y-13496150D01*
X9655253Y-13496150D02*
X9683825Y-13496150D01*
X9683825Y-13496150D02*
X9702873Y-13505674D01*
X9950492Y-13553293D02*
X10102873Y-13553293D01*
X10026682Y-13629484D02*
X10026682Y-13477103D01*
X10436206Y-13496150D02*
X10436206Y-13629484D01*
X10388587Y-13419960D02*
X10340968Y-13562817D01*
X10340968Y-13562817D02*
X10464777Y-13562817D01*
X10683825Y-13619960D02*
X10702873Y-13629484D01*
X10702873Y-13629484D02*
X10740968Y-13629484D01*
X10740968Y-13629484D02*
X10760016Y-13619960D01*
X10760016Y-13619960D02*
X10769539Y-13600912D01*
X10769539Y-13600912D02*
X10769539Y-13591388D01*
X10769539Y-13591388D02*
X10760016Y-13572341D01*
X10760016Y-13572341D02*
X10740968Y-13562817D01*
X10740968Y-13562817D02*
X10712396Y-13562817D01*
X10712396Y-13562817D02*
X10693349Y-13553293D01*
X10693349Y-13553293D02*
X10683825Y-13534246D01*
X10683825Y-13534246D02*
X10683825Y-13524722D01*
X10683825Y-13524722D02*
X10693349Y-13505674D01*
X10693349Y-13505674D02*
X10712396Y-13496150D01*
X10712396Y-13496150D02*
X10740968Y-13496150D01*
X10740968Y-13496150D02*
X10760016Y-13505674D01*
X10883825Y-13629484D02*
X10864777Y-13619960D01*
X10864777Y-13619960D02*
X10855254Y-13600912D01*
X10855254Y-13600912D02*
X10855254Y-13429484D01*
X10988587Y-13629484D02*
X10969539Y-13619960D01*
X10969539Y-13619960D02*
X10960016Y-13610436D01*
X10960016Y-13610436D02*
X10950492Y-13591388D01*
X10950492Y-13591388D02*
X10950492Y-13534246D01*
X10950492Y-13534246D02*
X10960016Y-13515198D01*
X10960016Y-13515198D02*
X10969539Y-13505674D01*
X10969539Y-13505674D02*
X10988587Y-13496150D01*
X10988587Y-13496150D02*
X11017158Y-13496150D01*
X11017158Y-13496150D02*
X11036206Y-13505674D01*
X11036206Y-13505674D02*
X11045730Y-13515198D01*
X11045730Y-13515198D02*
X11055254Y-13534246D01*
X11055254Y-13534246D02*
X11055254Y-13591388D01*
X11055254Y-13591388D02*
X11045730Y-13610436D01*
X11045730Y-13610436D02*
X11036206Y-13619960D01*
X11036206Y-13619960D02*
X11017158Y-13629484D01*
X11017158Y-13629484D02*
X10988587Y-13629484D01*
X11112397Y-13496150D02*
X11188587Y-13496150D01*
X11140968Y-13429484D02*
X11140968Y-13600912D01*
X11140968Y-13600912D02*
X11150492Y-13619960D01*
X11150492Y-13619960D02*
X11169539Y-13629484D01*
X11169539Y-13629484D02*
X11188587Y-13629484D01*
X11245730Y-13619960D02*
X11264777Y-13629484D01*
X11264777Y-13629484D02*
X11302873Y-13629484D01*
X11302873Y-13629484D02*
X11321920Y-13619960D01*
X11321920Y-13619960D02*
X11331444Y-13600912D01*
X11331444Y-13600912D02*
X11331444Y-13591388D01*
X11331444Y-13591388D02*
X11321920Y-13572341D01*
X11321920Y-13572341D02*
X11302873Y-13562817D01*
X11302873Y-13562817D02*
X11274301Y-13562817D01*
X11274301Y-13562817D02*
X11255254Y-13553293D01*
X11255254Y-13553293D02*
X11245730Y-13534246D01*
X11245730Y-13534246D02*
X11245730Y-13524722D01*
X11245730Y-13524722D02*
X11255254Y-13505674D01*
X11255254Y-13505674D02*
X11274301Y-13496150D01*
X11274301Y-13496150D02*
X11302873Y-13496150D01*
X11302873Y-13496150D02*
X11321920Y-13505674D01*
X11398111Y-13705674D02*
X11407635Y-13696150D01*
X11407635Y-13696150D02*
X11426682Y-13667579D01*
X11426682Y-13667579D02*
X11436206Y-13648531D01*
X11436206Y-13648531D02*
X11445730Y-13619960D01*
X11445730Y-13619960D02*
X11455254Y-13572341D01*
X11455254Y-13572341D02*
X11455254Y-13534246D01*
X11455254Y-13534246D02*
X11445730Y-13486627D01*
X11445730Y-13486627D02*
X11436206Y-13458055D01*
X11436206Y-13458055D02*
X11426682Y-13439008D01*
X11426682Y-13439008D02*
X11407635Y-13410436D01*
X11407635Y-13410436D02*
X11398111Y-13400912D01*
D10*
X4954000Y-13752000D02*
X4954000Y-13852000D01*
X4904000Y-13802000D02*
X5004000Y-13802000D01*
D11*
X5369539Y-13893484D02*
X5255253Y-13893484D01*
X5312396Y-13893484D02*
X5312396Y-13693484D01*
X5312396Y-13693484D02*
X5293348Y-13722055D01*
X5293348Y-13722055D02*
X5274301Y-13741103D01*
X5274301Y-13741103D02*
X5255253Y-13750627D01*
X5455253Y-13874436D02*
X5464777Y-13883960D01*
X5464777Y-13883960D02*
X5455253Y-13893484D01*
X5455253Y-13893484D02*
X5445729Y-13883960D01*
X5445729Y-13883960D02*
X5455253Y-13874436D01*
X5455253Y-13874436D02*
X5455253Y-13893484D01*
X5588586Y-13693484D02*
X5607634Y-13693484D01*
X5607634Y-13693484D02*
X5626682Y-13703008D01*
X5626682Y-13703008D02*
X5636205Y-13712531D01*
X5636205Y-13712531D02*
X5645729Y-13731579D01*
X5645729Y-13731579D02*
X5655253Y-13769674D01*
X5655253Y-13769674D02*
X5655253Y-13817293D01*
X5655253Y-13817293D02*
X5645729Y-13855388D01*
X5645729Y-13855388D02*
X5636205Y-13874436D01*
X5636205Y-13874436D02*
X5626682Y-13883960D01*
X5626682Y-13883960D02*
X5607634Y-13893484D01*
X5607634Y-13893484D02*
X5588586Y-13893484D01*
X5588586Y-13893484D02*
X5569539Y-13883960D01*
X5569539Y-13883960D02*
X5560015Y-13874436D01*
X5560015Y-13874436D02*
X5550491Y-13855388D01*
X5550491Y-13855388D02*
X5540967Y-13817293D01*
X5540967Y-13817293D02*
X5540967Y-13769674D01*
X5540967Y-13769674D02*
X5550491Y-13731579D01*
X5550491Y-13731579D02*
X5560015Y-13712531D01*
X5560015Y-13712531D02*
X5569539Y-13703008D01*
X5569539Y-13703008D02*
X5588586Y-13693484D01*
X5779062Y-13693484D02*
X5798110Y-13693484D01*
X5798110Y-13693484D02*
X5817158Y-13703008D01*
X5817158Y-13703008D02*
X5826682Y-13712531D01*
X5826682Y-13712531D02*
X5836205Y-13731579D01*
X5836205Y-13731579D02*
X5845729Y-13769674D01*
X5845729Y-13769674D02*
X5845729Y-13817293D01*
X5845729Y-13817293D02*
X5836205Y-13855388D01*
X5836205Y-13855388D02*
X5826682Y-13874436D01*
X5826682Y-13874436D02*
X5817158Y-13883960D01*
X5817158Y-13883960D02*
X5798110Y-13893484D01*
X5798110Y-13893484D02*
X5779062Y-13893484D01*
X5779062Y-13893484D02*
X5760015Y-13883960D01*
X5760015Y-13883960D02*
X5750491Y-13874436D01*
X5750491Y-13874436D02*
X5740967Y-13855388D01*
X5740967Y-13855388D02*
X5731443Y-13817293D01*
X5731443Y-13817293D02*
X5731443Y-13769674D01*
X5731443Y-13769674D02*
X5740967Y-13731579D01*
X5740967Y-13731579D02*
X5750491Y-13712531D01*
X5750491Y-13712531D02*
X5760015Y-13703008D01*
X5760015Y-13703008D02*
X5779062Y-13693484D01*
X5969539Y-13693484D02*
X5988586Y-13693484D01*
X5988586Y-13693484D02*
X6007634Y-13703008D01*
X6007634Y-13703008D02*
X6017158Y-13712531D01*
X6017158Y-13712531D02*
X6026682Y-13731579D01*
X6026682Y-13731579D02*
X6036205Y-13769674D01*
X6036205Y-13769674D02*
X6036205Y-13817293D01*
X6036205Y-13817293D02*
X6026682Y-13855388D01*
X6026682Y-13855388D02*
X6017158Y-13874436D01*
X6017158Y-13874436D02*
X6007634Y-13883960D01*
X6007634Y-13883960D02*
X5988586Y-13893484D01*
X5988586Y-13893484D02*
X5969539Y-13893484D01*
X5969539Y-13893484D02*
X5950491Y-13883960D01*
X5950491Y-13883960D02*
X5940967Y-13874436D01*
X5940967Y-13874436D02*
X5931443Y-13855388D01*
X5931443Y-13855388D02*
X5921920Y-13817293D01*
X5921920Y-13817293D02*
X5921920Y-13769674D01*
X5921920Y-13769674D02*
X5931443Y-13731579D01*
X5931443Y-13731579D02*
X5940967Y-13712531D01*
X5940967Y-13712531D02*
X5950491Y-13703008D01*
X5950491Y-13703008D02*
X5969539Y-13693484D01*
X6121920Y-13893484D02*
X6121920Y-13760150D01*
X6121920Y-13779198D02*
X6131443Y-13769674D01*
X6131443Y-13769674D02*
X6150491Y-13760150D01*
X6150491Y-13760150D02*
X6179063Y-13760150D01*
X6179063Y-13760150D02*
X6198110Y-13769674D01*
X6198110Y-13769674D02*
X6207634Y-13788722D01*
X6207634Y-13788722D02*
X6207634Y-13893484D01*
X6207634Y-13788722D02*
X6217158Y-13769674D01*
X6217158Y-13769674D02*
X6236205Y-13760150D01*
X6236205Y-13760150D02*
X6264777Y-13760150D01*
X6264777Y-13760150D02*
X6283824Y-13769674D01*
X6283824Y-13769674D02*
X6293348Y-13788722D01*
X6293348Y-13788722D02*
X6293348Y-13893484D01*
X6388586Y-13893484D02*
X6388586Y-13760150D01*
X6388586Y-13779198D02*
X6398110Y-13769674D01*
X6398110Y-13769674D02*
X6417158Y-13760150D01*
X6417158Y-13760150D02*
X6445729Y-13760150D01*
X6445729Y-13760150D02*
X6464777Y-13769674D01*
X6464777Y-13769674D02*
X6474301Y-13788722D01*
X6474301Y-13788722D02*
X6474301Y-13893484D01*
X6474301Y-13788722D02*
X6483824Y-13769674D01*
X6483824Y-13769674D02*
X6502872Y-13760150D01*
X6502872Y-13760150D02*
X6531443Y-13760150D01*
X6531443Y-13760150D02*
X6550491Y-13769674D01*
X6550491Y-13769674D02*
X6560015Y-13788722D01*
X6560015Y-13788722D02*
X6560015Y-13893484D01*
X6950491Y-13683960D02*
X6779063Y-13941103D01*
X7207634Y-13693484D02*
X7226682Y-13693484D01*
X7226682Y-13693484D02*
X7245729Y-13703008D01*
X7245729Y-13703008D02*
X7255253Y-13712531D01*
X7255253Y-13712531D02*
X7264777Y-13731579D01*
X7264777Y-13731579D02*
X7274301Y-13769674D01*
X7274301Y-13769674D02*
X7274301Y-13817293D01*
X7274301Y-13817293D02*
X7264777Y-13855388D01*
X7264777Y-13855388D02*
X7255253Y-13874436D01*
X7255253Y-13874436D02*
X7245729Y-13883960D01*
X7245729Y-13883960D02*
X7226682Y-13893484D01*
X7226682Y-13893484D02*
X7207634Y-13893484D01*
X7207634Y-13893484D02*
X7188586Y-13883960D01*
X7188586Y-13883960D02*
X7179063Y-13874436D01*
X7179063Y-13874436D02*
X7169539Y-13855388D01*
X7169539Y-13855388D02*
X7160015Y-13817293D01*
X7160015Y-13817293D02*
X7160015Y-13769674D01*
X7160015Y-13769674D02*
X7169539Y-13731579D01*
X7169539Y-13731579D02*
X7179063Y-13712531D01*
X7179063Y-13712531D02*
X7188586Y-13703008D01*
X7188586Y-13703008D02*
X7207634Y-13693484D01*
X7360015Y-13874436D02*
X7369539Y-13883960D01*
X7369539Y-13883960D02*
X7360015Y-13893484D01*
X7360015Y-13893484D02*
X7350491Y-13883960D01*
X7350491Y-13883960D02*
X7360015Y-13874436D01*
X7360015Y-13874436D02*
X7360015Y-13893484D01*
X7493348Y-13693484D02*
X7512396Y-13693484D01*
X7512396Y-13693484D02*
X7531444Y-13703008D01*
X7531444Y-13703008D02*
X7540967Y-13712531D01*
X7540967Y-13712531D02*
X7550491Y-13731579D01*
X7550491Y-13731579D02*
X7560015Y-13769674D01*
X7560015Y-13769674D02*
X7560015Y-13817293D01*
X7560015Y-13817293D02*
X7550491Y-13855388D01*
X7550491Y-13855388D02*
X7540967Y-13874436D01*
X7540967Y-13874436D02*
X7531444Y-13883960D01*
X7531444Y-13883960D02*
X7512396Y-13893484D01*
X7512396Y-13893484D02*
X7493348Y-13893484D01*
X7493348Y-13893484D02*
X7474301Y-13883960D01*
X7474301Y-13883960D02*
X7464777Y-13874436D01*
X7464777Y-13874436D02*
X7455253Y-13855388D01*
X7455253Y-13855388D02*
X7445729Y-13817293D01*
X7445729Y-13817293D02*
X7445729Y-13769674D01*
X7445729Y-13769674D02*
X7455253Y-13731579D01*
X7455253Y-13731579D02*
X7464777Y-13712531D01*
X7464777Y-13712531D02*
X7474301Y-13703008D01*
X7474301Y-13703008D02*
X7493348Y-13693484D01*
X7626682Y-13693484D02*
X7750491Y-13693484D01*
X7750491Y-13693484D02*
X7683825Y-13769674D01*
X7683825Y-13769674D02*
X7712396Y-13769674D01*
X7712396Y-13769674D02*
X7731444Y-13779198D01*
X7731444Y-13779198D02*
X7740967Y-13788722D01*
X7740967Y-13788722D02*
X7750491Y-13807769D01*
X7750491Y-13807769D02*
X7750491Y-13855388D01*
X7750491Y-13855388D02*
X7740967Y-13874436D01*
X7740967Y-13874436D02*
X7731444Y-13883960D01*
X7731444Y-13883960D02*
X7712396Y-13893484D01*
X7712396Y-13893484D02*
X7655253Y-13893484D01*
X7655253Y-13893484D02*
X7636206Y-13883960D01*
X7636206Y-13883960D02*
X7626682Y-13874436D01*
X7845729Y-13893484D02*
X7883825Y-13893484D01*
X7883825Y-13893484D02*
X7902872Y-13883960D01*
X7902872Y-13883960D02*
X7912396Y-13874436D01*
X7912396Y-13874436D02*
X7931444Y-13845865D01*
X7931444Y-13845865D02*
X7940967Y-13807769D01*
X7940967Y-13807769D02*
X7940967Y-13731579D01*
X7940967Y-13731579D02*
X7931444Y-13712531D01*
X7931444Y-13712531D02*
X7921920Y-13703008D01*
X7921920Y-13703008D02*
X7902872Y-13693484D01*
X7902872Y-13693484D02*
X7864777Y-13693484D01*
X7864777Y-13693484D02*
X7845729Y-13703008D01*
X7845729Y-13703008D02*
X7836206Y-13712531D01*
X7836206Y-13712531D02*
X7826682Y-13731579D01*
X7826682Y-13731579D02*
X7826682Y-13779198D01*
X7826682Y-13779198D02*
X7836206Y-13798246D01*
X7836206Y-13798246D02*
X7845729Y-13807769D01*
X7845729Y-13807769D02*
X7864777Y-13817293D01*
X7864777Y-13817293D02*
X7902872Y-13817293D01*
X7902872Y-13817293D02*
X7921920Y-13807769D01*
X7921920Y-13807769D02*
X7931444Y-13798246D01*
X7931444Y-13798246D02*
X7940967Y-13779198D01*
X8112396Y-13760150D02*
X8112396Y-13893484D01*
X8064777Y-13683960D02*
X8017158Y-13826817D01*
X8017158Y-13826817D02*
X8140967Y-13826817D01*
X8207634Y-13693484D02*
X8207634Y-13731579D01*
X8283825Y-13693484D02*
X8283825Y-13731579D01*
X8579063Y-13969674D02*
X8569539Y-13960150D01*
X8569539Y-13960150D02*
X8550491Y-13931579D01*
X8550491Y-13931579D02*
X8540968Y-13912531D01*
X8540968Y-13912531D02*
X8531444Y-13883960D01*
X8531444Y-13883960D02*
X8521920Y-13836341D01*
X8521920Y-13836341D02*
X8521920Y-13798246D01*
X8521920Y-13798246D02*
X8531444Y-13750627D01*
X8531444Y-13750627D02*
X8540968Y-13722055D01*
X8540968Y-13722055D02*
X8550491Y-13703008D01*
X8550491Y-13703008D02*
X8569539Y-13674436D01*
X8569539Y-13674436D02*
X8579063Y-13664912D01*
X8740968Y-13760150D02*
X8740968Y-13893484D01*
X8693349Y-13683960D02*
X8645730Y-13826817D01*
X8645730Y-13826817D02*
X8769539Y-13826817D01*
X8931444Y-13693484D02*
X8893349Y-13693484D01*
X8893349Y-13693484D02*
X8874301Y-13703008D01*
X8874301Y-13703008D02*
X8864777Y-13712531D01*
X8864777Y-13712531D02*
X8845730Y-13741103D01*
X8845730Y-13741103D02*
X8836206Y-13779198D01*
X8836206Y-13779198D02*
X8836206Y-13855388D01*
X8836206Y-13855388D02*
X8845730Y-13874436D01*
X8845730Y-13874436D02*
X8855253Y-13883960D01*
X8855253Y-13883960D02*
X8874301Y-13893484D01*
X8874301Y-13893484D02*
X8912396Y-13893484D01*
X8912396Y-13893484D02*
X8931444Y-13883960D01*
X8931444Y-13883960D02*
X8940968Y-13874436D01*
X8940968Y-13874436D02*
X8950491Y-13855388D01*
X8950491Y-13855388D02*
X8950491Y-13807769D01*
X8950491Y-13807769D02*
X8940968Y-13788722D01*
X8940968Y-13788722D02*
X8931444Y-13779198D01*
X8931444Y-13779198D02*
X8912396Y-13769674D01*
X8912396Y-13769674D02*
X8874301Y-13769674D01*
X8874301Y-13769674D02*
X8855253Y-13779198D01*
X8855253Y-13779198D02*
X8845730Y-13788722D01*
X8845730Y-13788722D02*
X8836206Y-13807769D01*
X9188587Y-13893484D02*
X9188587Y-13693484D01*
X9274301Y-13893484D02*
X9274301Y-13788722D01*
X9274301Y-13788722D02*
X9264777Y-13769674D01*
X9264777Y-13769674D02*
X9245730Y-13760150D01*
X9245730Y-13760150D02*
X9217158Y-13760150D01*
X9217158Y-13760150D02*
X9198111Y-13769674D01*
X9198111Y-13769674D02*
X9188587Y-13779198D01*
X9398111Y-13893484D02*
X9379063Y-13883960D01*
X9379063Y-13883960D02*
X9369539Y-13874436D01*
X9369539Y-13874436D02*
X9360015Y-13855388D01*
X9360015Y-13855388D02*
X9360015Y-13798246D01*
X9360015Y-13798246D02*
X9369539Y-13779198D01*
X9369539Y-13779198D02*
X9379063Y-13769674D01*
X9379063Y-13769674D02*
X9398111Y-13760150D01*
X9398111Y-13760150D02*
X9426682Y-13760150D01*
X9426682Y-13760150D02*
X9445730Y-13769674D01*
X9445730Y-13769674D02*
X9455253Y-13779198D01*
X9455253Y-13779198D02*
X9464777Y-13798246D01*
X9464777Y-13798246D02*
X9464777Y-13855388D01*
X9464777Y-13855388D02*
X9455253Y-13874436D01*
X9455253Y-13874436D02*
X9445730Y-13883960D01*
X9445730Y-13883960D02*
X9426682Y-13893484D01*
X9426682Y-13893484D02*
X9398111Y-13893484D01*
X9579063Y-13893484D02*
X9560015Y-13883960D01*
X9560015Y-13883960D02*
X9550492Y-13864912D01*
X9550492Y-13864912D02*
X9550492Y-13693484D01*
X9731444Y-13883960D02*
X9712396Y-13893484D01*
X9712396Y-13893484D02*
X9674301Y-13893484D01*
X9674301Y-13893484D02*
X9655253Y-13883960D01*
X9655253Y-13883960D02*
X9645730Y-13864912D01*
X9645730Y-13864912D02*
X9645730Y-13788722D01*
X9645730Y-13788722D02*
X9655253Y-13769674D01*
X9655253Y-13769674D02*
X9674301Y-13760150D01*
X9674301Y-13760150D02*
X9712396Y-13760150D01*
X9712396Y-13760150D02*
X9731444Y-13769674D01*
X9731444Y-13769674D02*
X9740968Y-13788722D01*
X9740968Y-13788722D02*
X9740968Y-13807769D01*
X9740968Y-13807769D02*
X9645730Y-13826817D01*
X9817158Y-13883960D02*
X9836206Y-13893484D01*
X9836206Y-13893484D02*
X9874301Y-13893484D01*
X9874301Y-13893484D02*
X9893349Y-13883960D01*
X9893349Y-13883960D02*
X9902873Y-13864912D01*
X9902873Y-13864912D02*
X9902873Y-13855388D01*
X9902873Y-13855388D02*
X9893349Y-13836341D01*
X9893349Y-13836341D02*
X9874301Y-13826817D01*
X9874301Y-13826817D02*
X9845730Y-13826817D01*
X9845730Y-13826817D02*
X9826682Y-13817293D01*
X9826682Y-13817293D02*
X9817158Y-13798246D01*
X9817158Y-13798246D02*
X9817158Y-13788722D01*
X9817158Y-13788722D02*
X9826682Y-13769674D01*
X9826682Y-13769674D02*
X9845730Y-13760150D01*
X9845730Y-13760150D02*
X9874301Y-13760150D01*
X9874301Y-13760150D02*
X9893349Y-13769674D01*
X9969539Y-13969674D02*
X9979063Y-13960150D01*
X9979063Y-13960150D02*
X9998111Y-13931579D01*
X9998111Y-13931579D02*
X10007634Y-13912531D01*
X10007634Y-13912531D02*
X10017158Y-13883960D01*
X10017158Y-13883960D02*
X10026682Y-13836341D01*
X10026682Y-13836341D02*
X10026682Y-13798246D01*
X10026682Y-13798246D02*
X10017158Y-13750627D01*
X10017158Y-13750627D02*
X10007634Y-13722055D01*
X10007634Y-13722055D02*
X9998111Y-13703008D01*
X9998111Y-13703008D02*
X9979063Y-13674436D01*
X9979063Y-13674436D02*
X9969539Y-13664912D01*
D12*
X4984670Y-14112669D02*
X4984670Y-14019330D01*
X4891331Y-14019330D01*
X4891331Y-14112669D01*
X4984670Y-14112669D01*
D11*
X5369539Y-14157484D02*
X5255253Y-14157484D01*
X5312396Y-14157484D02*
X5312396Y-13957484D01*
X5312396Y-13957484D02*
X5293348Y-13986055D01*
X5293348Y-13986055D02*
X5274301Y-14005103D01*
X5274301Y-14005103D02*
X5255253Y-14014627D01*
X5455253Y-14138436D02*
X5464777Y-14147960D01*
X5464777Y-14147960D02*
X5455253Y-14157484D01*
X5455253Y-14157484D02*
X5445729Y-14147960D01*
X5445729Y-14147960D02*
X5455253Y-14138436D01*
X5455253Y-14138436D02*
X5455253Y-14157484D01*
X5531444Y-13957484D02*
X5655253Y-13957484D01*
X5655253Y-13957484D02*
X5588586Y-14033674D01*
X5588586Y-14033674D02*
X5617158Y-14033674D01*
X5617158Y-14033674D02*
X5636205Y-14043198D01*
X5636205Y-14043198D02*
X5645729Y-14052722D01*
X5645729Y-14052722D02*
X5655253Y-14071769D01*
X5655253Y-14071769D02*
X5655253Y-14119388D01*
X5655253Y-14119388D02*
X5645729Y-14138436D01*
X5645729Y-14138436D02*
X5636205Y-14147960D01*
X5636205Y-14147960D02*
X5617158Y-14157484D01*
X5617158Y-14157484D02*
X5560015Y-14157484D01*
X5560015Y-14157484D02*
X5540967Y-14147960D01*
X5540967Y-14147960D02*
X5531444Y-14138436D01*
X5731443Y-13976531D02*
X5740967Y-13967008D01*
X5740967Y-13967008D02*
X5760015Y-13957484D01*
X5760015Y-13957484D02*
X5807634Y-13957484D01*
X5807634Y-13957484D02*
X5826682Y-13967008D01*
X5826682Y-13967008D02*
X5836205Y-13976531D01*
X5836205Y-13976531D02*
X5845729Y-13995579D01*
X5845729Y-13995579D02*
X5845729Y-14014627D01*
X5845729Y-14014627D02*
X5836205Y-14043198D01*
X5836205Y-14043198D02*
X5721920Y-14157484D01*
X5721920Y-14157484D02*
X5845729Y-14157484D01*
X5969539Y-13957484D02*
X5988586Y-13957484D01*
X5988586Y-13957484D02*
X6007634Y-13967008D01*
X6007634Y-13967008D02*
X6017158Y-13976531D01*
X6017158Y-13976531D02*
X6026682Y-13995579D01*
X6026682Y-13995579D02*
X6036205Y-14033674D01*
X6036205Y-14033674D02*
X6036205Y-14081293D01*
X6036205Y-14081293D02*
X6026682Y-14119388D01*
X6026682Y-14119388D02*
X6017158Y-14138436D01*
X6017158Y-14138436D02*
X6007634Y-14147960D01*
X6007634Y-14147960D02*
X5988586Y-14157484D01*
X5988586Y-14157484D02*
X5969539Y-14157484D01*
X5969539Y-14157484D02*
X5950491Y-14147960D01*
X5950491Y-14147960D02*
X5940967Y-14138436D01*
X5940967Y-14138436D02*
X5931443Y-14119388D01*
X5931443Y-14119388D02*
X5921920Y-14081293D01*
X5921920Y-14081293D02*
X5921920Y-14033674D01*
X5921920Y-14033674D02*
X5931443Y-13995579D01*
X5931443Y-13995579D02*
X5940967Y-13976531D01*
X5940967Y-13976531D02*
X5950491Y-13967008D01*
X5950491Y-13967008D02*
X5969539Y-13957484D01*
X6121920Y-14157484D02*
X6121920Y-14024150D01*
X6121920Y-14043198D02*
X6131443Y-14033674D01*
X6131443Y-14033674D02*
X6150491Y-14024150D01*
X6150491Y-14024150D02*
X6179063Y-14024150D01*
X6179063Y-14024150D02*
X6198110Y-14033674D01*
X6198110Y-14033674D02*
X6207634Y-14052722D01*
X6207634Y-14052722D02*
X6207634Y-14157484D01*
X6207634Y-14052722D02*
X6217158Y-14033674D01*
X6217158Y-14033674D02*
X6236205Y-14024150D01*
X6236205Y-14024150D02*
X6264777Y-14024150D01*
X6264777Y-14024150D02*
X6283824Y-14033674D01*
X6283824Y-14033674D02*
X6293348Y-14052722D01*
X6293348Y-14052722D02*
X6293348Y-14157484D01*
X6388586Y-14157484D02*
X6388586Y-14024150D01*
X6388586Y-14043198D02*
X6398110Y-14033674D01*
X6398110Y-14033674D02*
X6417158Y-14024150D01*
X6417158Y-14024150D02*
X6445729Y-14024150D01*
X6445729Y-14024150D02*
X6464777Y-14033674D01*
X6464777Y-14033674D02*
X6474301Y-14052722D01*
X6474301Y-14052722D02*
X6474301Y-14157484D01*
X6474301Y-14052722D02*
X6483824Y-14033674D01*
X6483824Y-14033674D02*
X6502872Y-14024150D01*
X6502872Y-14024150D02*
X6531443Y-14024150D01*
X6531443Y-14024150D02*
X6550491Y-14033674D01*
X6550491Y-14033674D02*
X6560015Y-14052722D01*
X6560015Y-14052722D02*
X6560015Y-14157484D01*
X6950491Y-13947960D02*
X6779063Y-14205103D01*
X7207634Y-13957484D02*
X7226682Y-13957484D01*
X7226682Y-13957484D02*
X7245729Y-13967008D01*
X7245729Y-13967008D02*
X7255253Y-13976531D01*
X7255253Y-13976531D02*
X7264777Y-13995579D01*
X7264777Y-13995579D02*
X7274301Y-14033674D01*
X7274301Y-14033674D02*
X7274301Y-14081293D01*
X7274301Y-14081293D02*
X7264777Y-14119388D01*
X7264777Y-14119388D02*
X7255253Y-14138436D01*
X7255253Y-14138436D02*
X7245729Y-14147960D01*
X7245729Y-14147960D02*
X7226682Y-14157484D01*
X7226682Y-14157484D02*
X7207634Y-14157484D01*
X7207634Y-14157484D02*
X7188586Y-14147960D01*
X7188586Y-14147960D02*
X7179063Y-14138436D01*
X7179063Y-14138436D02*
X7169539Y-14119388D01*
X7169539Y-14119388D02*
X7160015Y-14081293D01*
X7160015Y-14081293D02*
X7160015Y-14033674D01*
X7160015Y-14033674D02*
X7169539Y-13995579D01*
X7169539Y-13995579D02*
X7179063Y-13976531D01*
X7179063Y-13976531D02*
X7188586Y-13967008D01*
X7188586Y-13967008D02*
X7207634Y-13957484D01*
X7360015Y-14138436D02*
X7369539Y-14147960D01*
X7369539Y-14147960D02*
X7360015Y-14157484D01*
X7360015Y-14157484D02*
X7350491Y-14147960D01*
X7350491Y-14147960D02*
X7360015Y-14138436D01*
X7360015Y-14138436D02*
X7360015Y-14157484D01*
X7493348Y-13957484D02*
X7512396Y-13957484D01*
X7512396Y-13957484D02*
X7531444Y-13967008D01*
X7531444Y-13967008D02*
X7540967Y-13976531D01*
X7540967Y-13976531D02*
X7550491Y-13995579D01*
X7550491Y-13995579D02*
X7560015Y-14033674D01*
X7560015Y-14033674D02*
X7560015Y-14081293D01*
X7560015Y-14081293D02*
X7550491Y-14119388D01*
X7550491Y-14119388D02*
X7540967Y-14138436D01*
X7540967Y-14138436D02*
X7531444Y-14147960D01*
X7531444Y-14147960D02*
X7512396Y-14157484D01*
X7512396Y-14157484D02*
X7493348Y-14157484D01*
X7493348Y-14157484D02*
X7474301Y-14147960D01*
X7474301Y-14147960D02*
X7464777Y-14138436D01*
X7464777Y-14138436D02*
X7455253Y-14119388D01*
X7455253Y-14119388D02*
X7445729Y-14081293D01*
X7445729Y-14081293D02*
X7445729Y-14033674D01*
X7445729Y-14033674D02*
X7455253Y-13995579D01*
X7455253Y-13995579D02*
X7464777Y-13976531D01*
X7464777Y-13976531D02*
X7474301Y-13967008D01*
X7474301Y-13967008D02*
X7493348Y-13957484D01*
X7740967Y-13957484D02*
X7645729Y-13957484D01*
X7645729Y-13957484D02*
X7636206Y-14052722D01*
X7636206Y-14052722D02*
X7645729Y-14043198D01*
X7645729Y-14043198D02*
X7664777Y-14033674D01*
X7664777Y-14033674D02*
X7712396Y-14033674D01*
X7712396Y-14033674D02*
X7731444Y-14043198D01*
X7731444Y-14043198D02*
X7740967Y-14052722D01*
X7740967Y-14052722D02*
X7750491Y-14071769D01*
X7750491Y-14071769D02*
X7750491Y-14119388D01*
X7750491Y-14119388D02*
X7740967Y-14138436D01*
X7740967Y-14138436D02*
X7731444Y-14147960D01*
X7731444Y-14147960D02*
X7712396Y-14157484D01*
X7712396Y-14157484D02*
X7664777Y-14157484D01*
X7664777Y-14157484D02*
X7645729Y-14147960D01*
X7645729Y-14147960D02*
X7636206Y-14138436D01*
X7826682Y-13976531D02*
X7836206Y-13967008D01*
X7836206Y-13967008D02*
X7855253Y-13957484D01*
X7855253Y-13957484D02*
X7902872Y-13957484D01*
X7902872Y-13957484D02*
X7921920Y-13967008D01*
X7921920Y-13967008D02*
X7931444Y-13976531D01*
X7931444Y-13976531D02*
X7940967Y-13995579D01*
X7940967Y-13995579D02*
X7940967Y-14014627D01*
X7940967Y-14014627D02*
X7931444Y-14043198D01*
X7931444Y-14043198D02*
X7817158Y-14157484D01*
X7817158Y-14157484D02*
X7940967Y-14157484D01*
X8064777Y-13957484D02*
X8083825Y-13957484D01*
X8083825Y-13957484D02*
X8102872Y-13967008D01*
X8102872Y-13967008D02*
X8112396Y-13976531D01*
X8112396Y-13976531D02*
X8121920Y-13995579D01*
X8121920Y-13995579D02*
X8131444Y-14033674D01*
X8131444Y-14033674D02*
X8131444Y-14081293D01*
X8131444Y-14081293D02*
X8121920Y-14119388D01*
X8121920Y-14119388D02*
X8112396Y-14138436D01*
X8112396Y-14138436D02*
X8102872Y-14147960D01*
X8102872Y-14147960D02*
X8083825Y-14157484D01*
X8083825Y-14157484D02*
X8064777Y-14157484D01*
X8064777Y-14157484D02*
X8045729Y-14147960D01*
X8045729Y-14147960D02*
X8036206Y-14138436D01*
X8036206Y-14138436D02*
X8026682Y-14119388D01*
X8026682Y-14119388D02*
X8017158Y-14081293D01*
X8017158Y-14081293D02*
X8017158Y-14033674D01*
X8017158Y-14033674D02*
X8026682Y-13995579D01*
X8026682Y-13995579D02*
X8036206Y-13976531D01*
X8036206Y-13976531D02*
X8045729Y-13967008D01*
X8045729Y-13967008D02*
X8064777Y-13957484D01*
X8207634Y-13957484D02*
X8207634Y-13995579D01*
X8283825Y-13957484D02*
X8283825Y-13995579D01*
X8579063Y-14233674D02*
X8569539Y-14224150D01*
X8569539Y-14224150D02*
X8550491Y-14195579D01*
X8550491Y-14195579D02*
X8540968Y-14176531D01*
X8540968Y-14176531D02*
X8531444Y-14147960D01*
X8531444Y-14147960D02*
X8521920Y-14100341D01*
X8521920Y-14100341D02*
X8521920Y-14062246D01*
X8521920Y-14062246D02*
X8531444Y-14014627D01*
X8531444Y-14014627D02*
X8540968Y-13986055D01*
X8540968Y-13986055D02*
X8550491Y-13967008D01*
X8550491Y-13967008D02*
X8569539Y-13938436D01*
X8569539Y-13938436D02*
X8579063Y-13928912D01*
X8740968Y-14024150D02*
X8740968Y-14157484D01*
X8693349Y-13947960D02*
X8645730Y-14090817D01*
X8645730Y-14090817D02*
X8769539Y-14090817D01*
X8998111Y-14157484D02*
X8998111Y-13957484D01*
X9083825Y-14157484D02*
X9083825Y-14052722D01*
X9083825Y-14052722D02*
X9074301Y-14033674D01*
X9074301Y-14033674D02*
X9055253Y-14024150D01*
X9055253Y-14024150D02*
X9026682Y-14024150D01*
X9026682Y-14024150D02*
X9007634Y-14033674D01*
X9007634Y-14033674D02*
X8998111Y-14043198D01*
X9207634Y-14157484D02*
X9188587Y-14147960D01*
X9188587Y-14147960D02*
X9179063Y-14138436D01*
X9179063Y-14138436D02*
X9169539Y-14119388D01*
X9169539Y-14119388D02*
X9169539Y-14062246D01*
X9169539Y-14062246D02*
X9179063Y-14043198D01*
X9179063Y-14043198D02*
X9188587Y-14033674D01*
X9188587Y-14033674D02*
X9207634Y-14024150D01*
X9207634Y-14024150D02*
X9236206Y-14024150D01*
X9236206Y-14024150D02*
X9255253Y-14033674D01*
X9255253Y-14033674D02*
X9264777Y-14043198D01*
X9264777Y-14043198D02*
X9274301Y-14062246D01*
X9274301Y-14062246D02*
X9274301Y-14119388D01*
X9274301Y-14119388D02*
X9264777Y-14138436D01*
X9264777Y-14138436D02*
X9255253Y-14147960D01*
X9255253Y-14147960D02*
X9236206Y-14157484D01*
X9236206Y-14157484D02*
X9207634Y-14157484D01*
X9388587Y-14157484D02*
X9369539Y-14147960D01*
X9369539Y-14147960D02*
X9360015Y-14128912D01*
X9360015Y-14128912D02*
X9360015Y-13957484D01*
X9540968Y-14147960D02*
X9521920Y-14157484D01*
X9521920Y-14157484D02*
X9483825Y-14157484D01*
X9483825Y-14157484D02*
X9464777Y-14147960D01*
X9464777Y-14147960D02*
X9455253Y-14128912D01*
X9455253Y-14128912D02*
X9455253Y-14052722D01*
X9455253Y-14052722D02*
X9464777Y-14033674D01*
X9464777Y-14033674D02*
X9483825Y-14024150D01*
X9483825Y-14024150D02*
X9521920Y-14024150D01*
X9521920Y-14024150D02*
X9540968Y-14033674D01*
X9540968Y-14033674D02*
X9550492Y-14052722D01*
X9550492Y-14052722D02*
X9550492Y-14071769D01*
X9550492Y-14071769D02*
X9455253Y-14090817D01*
X9626682Y-14147960D02*
X9645730Y-14157484D01*
X9645730Y-14157484D02*
X9683825Y-14157484D01*
X9683825Y-14157484D02*
X9702873Y-14147960D01*
X9702873Y-14147960D02*
X9712396Y-14128912D01*
X9712396Y-14128912D02*
X9712396Y-14119388D01*
X9712396Y-14119388D02*
X9702873Y-14100341D01*
X9702873Y-14100341D02*
X9683825Y-14090817D01*
X9683825Y-14090817D02*
X9655253Y-14090817D01*
X9655253Y-14090817D02*
X9636206Y-14081293D01*
X9636206Y-14081293D02*
X9626682Y-14062246D01*
X9626682Y-14062246D02*
X9626682Y-14052722D01*
X9626682Y-14052722D02*
X9636206Y-14033674D01*
X9636206Y-14033674D02*
X9655253Y-14024150D01*
X9655253Y-14024150D02*
X9683825Y-14024150D01*
X9683825Y-14024150D02*
X9702873Y-14033674D01*
X9779063Y-14233674D02*
X9788587Y-14224150D01*
X9788587Y-14224150D02*
X9807634Y-14195579D01*
X9807634Y-14195579D02*
X9817158Y-14176531D01*
X9817158Y-14176531D02*
X9826682Y-14147960D01*
X9826682Y-14147960D02*
X9836206Y-14100341D01*
X9836206Y-14100341D02*
X9836206Y-14062246D01*
X9836206Y-14062246D02*
X9826682Y-14014627D01*
X9826682Y-14014627D02*
X9817158Y-13986055D01*
X9817158Y-13986055D02*
X9807634Y-13967008D01*
X9807634Y-13967008D02*
X9788587Y-13938436D01*
X9788587Y-13938436D02*
X9779063Y-13928912D01*
D13*
X4917500Y-14416500D02*
X5004000Y-14330000D01*
X4917500Y-14243500D01*
X4831000Y-14330000D01*
X4917500Y-14416500D01*
D11*
X5369539Y-14421484D02*
X5255253Y-14421484D01*
X5312396Y-14421484D02*
X5312396Y-14221484D01*
X5312396Y-14221484D02*
X5293348Y-14250055D01*
X5293348Y-14250055D02*
X5274301Y-14269103D01*
X5274301Y-14269103D02*
X5255253Y-14278627D01*
X5455253Y-14402436D02*
X5464777Y-14411960D01*
X5464777Y-14411960D02*
X5455253Y-14421484D01*
X5455253Y-14421484D02*
X5445729Y-14411960D01*
X5445729Y-14411960D02*
X5455253Y-14402436D01*
X5455253Y-14402436D02*
X5455253Y-14421484D01*
X5531444Y-14221484D02*
X5664777Y-14221484D01*
X5664777Y-14221484D02*
X5579063Y-14421484D01*
X5721920Y-14221484D02*
X5845729Y-14221484D01*
X5845729Y-14221484D02*
X5779062Y-14297674D01*
X5779062Y-14297674D02*
X5807634Y-14297674D01*
X5807634Y-14297674D02*
X5826682Y-14307198D01*
X5826682Y-14307198D02*
X5836205Y-14316722D01*
X5836205Y-14316722D02*
X5845729Y-14335769D01*
X5845729Y-14335769D02*
X5845729Y-14383388D01*
X5845729Y-14383388D02*
X5836205Y-14402436D01*
X5836205Y-14402436D02*
X5826682Y-14411960D01*
X5826682Y-14411960D02*
X5807634Y-14421484D01*
X5807634Y-14421484D02*
X5750491Y-14421484D01*
X5750491Y-14421484D02*
X5731443Y-14411960D01*
X5731443Y-14411960D02*
X5721920Y-14402436D01*
X5969539Y-14221484D02*
X5988586Y-14221484D01*
X5988586Y-14221484D02*
X6007634Y-14231008D01*
X6007634Y-14231008D02*
X6017158Y-14240531D01*
X6017158Y-14240531D02*
X6026682Y-14259579D01*
X6026682Y-14259579D02*
X6036205Y-14297674D01*
X6036205Y-14297674D02*
X6036205Y-14345293D01*
X6036205Y-14345293D02*
X6026682Y-14383388D01*
X6026682Y-14383388D02*
X6017158Y-14402436D01*
X6017158Y-14402436D02*
X6007634Y-14411960D01*
X6007634Y-14411960D02*
X5988586Y-14421484D01*
X5988586Y-14421484D02*
X5969539Y-14421484D01*
X5969539Y-14421484D02*
X5950491Y-14411960D01*
X5950491Y-14411960D02*
X5940967Y-14402436D01*
X5940967Y-14402436D02*
X5931443Y-14383388D01*
X5931443Y-14383388D02*
X5921920Y-14345293D01*
X5921920Y-14345293D02*
X5921920Y-14297674D01*
X5921920Y-14297674D02*
X5931443Y-14259579D01*
X5931443Y-14259579D02*
X5940967Y-14240531D01*
X5940967Y-14240531D02*
X5950491Y-14231008D01*
X5950491Y-14231008D02*
X5969539Y-14221484D01*
X6121920Y-14421484D02*
X6121920Y-14288150D01*
X6121920Y-14307198D02*
X6131443Y-14297674D01*
X6131443Y-14297674D02*
X6150491Y-14288150D01*
X6150491Y-14288150D02*
X6179063Y-14288150D01*
X6179063Y-14288150D02*
X6198110Y-14297674D01*
X6198110Y-14297674D02*
X6207634Y-14316722D01*
X6207634Y-14316722D02*
X6207634Y-14421484D01*
X6207634Y-14316722D02*
X6217158Y-14297674D01*
X6217158Y-14297674D02*
X6236205Y-14288150D01*
X6236205Y-14288150D02*
X6264777Y-14288150D01*
X6264777Y-14288150D02*
X6283824Y-14297674D01*
X6283824Y-14297674D02*
X6293348Y-14316722D01*
X6293348Y-14316722D02*
X6293348Y-14421484D01*
X6388586Y-14421484D02*
X6388586Y-14288150D01*
X6388586Y-14307198D02*
X6398110Y-14297674D01*
X6398110Y-14297674D02*
X6417158Y-14288150D01*
X6417158Y-14288150D02*
X6445729Y-14288150D01*
X6445729Y-14288150D02*
X6464777Y-14297674D01*
X6464777Y-14297674D02*
X6474301Y-14316722D01*
X6474301Y-14316722D02*
X6474301Y-14421484D01*
X6474301Y-14316722D02*
X6483824Y-14297674D01*
X6483824Y-14297674D02*
X6502872Y-14288150D01*
X6502872Y-14288150D02*
X6531443Y-14288150D01*
X6531443Y-14288150D02*
X6550491Y-14297674D01*
X6550491Y-14297674D02*
X6560015Y-14316722D01*
X6560015Y-14316722D02*
X6560015Y-14421484D01*
X6950491Y-14211960D02*
X6779063Y-14469103D01*
X7207634Y-14221484D02*
X7226682Y-14221484D01*
X7226682Y-14221484D02*
X7245729Y-14231008D01*
X7245729Y-14231008D02*
X7255253Y-14240531D01*
X7255253Y-14240531D02*
X7264777Y-14259579D01*
X7264777Y-14259579D02*
X7274301Y-14297674D01*
X7274301Y-14297674D02*
X7274301Y-14345293D01*
X7274301Y-14345293D02*
X7264777Y-14383388D01*
X7264777Y-14383388D02*
X7255253Y-14402436D01*
X7255253Y-14402436D02*
X7245729Y-14411960D01*
X7245729Y-14411960D02*
X7226682Y-14421484D01*
X7226682Y-14421484D02*
X7207634Y-14421484D01*
X7207634Y-14421484D02*
X7188586Y-14411960D01*
X7188586Y-14411960D02*
X7179063Y-14402436D01*
X7179063Y-14402436D02*
X7169539Y-14383388D01*
X7169539Y-14383388D02*
X7160015Y-14345293D01*
X7160015Y-14345293D02*
X7160015Y-14297674D01*
X7160015Y-14297674D02*
X7169539Y-14259579D01*
X7169539Y-14259579D02*
X7179063Y-14240531D01*
X7179063Y-14240531D02*
X7188586Y-14231008D01*
X7188586Y-14231008D02*
X7207634Y-14221484D01*
X7360015Y-14402436D02*
X7369539Y-14411960D01*
X7369539Y-14411960D02*
X7360015Y-14421484D01*
X7360015Y-14421484D02*
X7350491Y-14411960D01*
X7350491Y-14411960D02*
X7360015Y-14402436D01*
X7360015Y-14402436D02*
X7360015Y-14421484D01*
X7493348Y-14221484D02*
X7512396Y-14221484D01*
X7512396Y-14221484D02*
X7531444Y-14231008D01*
X7531444Y-14231008D02*
X7540967Y-14240531D01*
X7540967Y-14240531D02*
X7550491Y-14259579D01*
X7550491Y-14259579D02*
X7560015Y-14297674D01*
X7560015Y-14297674D02*
X7560015Y-14345293D01*
X7560015Y-14345293D02*
X7550491Y-14383388D01*
X7550491Y-14383388D02*
X7540967Y-14402436D01*
X7540967Y-14402436D02*
X7531444Y-14411960D01*
X7531444Y-14411960D02*
X7512396Y-14421484D01*
X7512396Y-14421484D02*
X7493348Y-14421484D01*
X7493348Y-14421484D02*
X7474301Y-14411960D01*
X7474301Y-14411960D02*
X7464777Y-14402436D01*
X7464777Y-14402436D02*
X7455253Y-14383388D01*
X7455253Y-14383388D02*
X7445729Y-14345293D01*
X7445729Y-14345293D02*
X7445729Y-14297674D01*
X7445729Y-14297674D02*
X7455253Y-14259579D01*
X7455253Y-14259579D02*
X7464777Y-14240531D01*
X7464777Y-14240531D02*
X7474301Y-14231008D01*
X7474301Y-14231008D02*
X7493348Y-14221484D01*
X7731444Y-14221484D02*
X7693348Y-14221484D01*
X7693348Y-14221484D02*
X7674301Y-14231008D01*
X7674301Y-14231008D02*
X7664777Y-14240531D01*
X7664777Y-14240531D02*
X7645729Y-14269103D01*
X7645729Y-14269103D02*
X7636206Y-14307198D01*
X7636206Y-14307198D02*
X7636206Y-14383388D01*
X7636206Y-14383388D02*
X7645729Y-14402436D01*
X7645729Y-14402436D02*
X7655253Y-14411960D01*
X7655253Y-14411960D02*
X7674301Y-14421484D01*
X7674301Y-14421484D02*
X7712396Y-14421484D01*
X7712396Y-14421484D02*
X7731444Y-14411960D01*
X7731444Y-14411960D02*
X7740967Y-14402436D01*
X7740967Y-14402436D02*
X7750491Y-14383388D01*
X7750491Y-14383388D02*
X7750491Y-14335769D01*
X7750491Y-14335769D02*
X7740967Y-14316722D01*
X7740967Y-14316722D02*
X7731444Y-14307198D01*
X7731444Y-14307198D02*
X7712396Y-14297674D01*
X7712396Y-14297674D02*
X7674301Y-14297674D01*
X7674301Y-14297674D02*
X7655253Y-14307198D01*
X7655253Y-14307198D02*
X7645729Y-14316722D01*
X7645729Y-14316722D02*
X7636206Y-14335769D01*
X7864777Y-14307198D02*
X7845729Y-14297674D01*
X7845729Y-14297674D02*
X7836206Y-14288150D01*
X7836206Y-14288150D02*
X7826682Y-14269103D01*
X7826682Y-14269103D02*
X7826682Y-14259579D01*
X7826682Y-14259579D02*
X7836206Y-14240531D01*
X7836206Y-14240531D02*
X7845729Y-14231008D01*
X7845729Y-14231008D02*
X7864777Y-14221484D01*
X7864777Y-14221484D02*
X7902872Y-14221484D01*
X7902872Y-14221484D02*
X7921920Y-14231008D01*
X7921920Y-14231008D02*
X7931444Y-14240531D01*
X7931444Y-14240531D02*
X7940967Y-14259579D01*
X7940967Y-14259579D02*
X7940967Y-14269103D01*
X7940967Y-14269103D02*
X7931444Y-14288150D01*
X7931444Y-14288150D02*
X7921920Y-14297674D01*
X7921920Y-14297674D02*
X7902872Y-14307198D01*
X7902872Y-14307198D02*
X7864777Y-14307198D01*
X7864777Y-14307198D02*
X7845729Y-14316722D01*
X7845729Y-14316722D02*
X7836206Y-14326246D01*
X7836206Y-14326246D02*
X7826682Y-14345293D01*
X7826682Y-14345293D02*
X7826682Y-14383388D01*
X7826682Y-14383388D02*
X7836206Y-14402436D01*
X7836206Y-14402436D02*
X7845729Y-14411960D01*
X7845729Y-14411960D02*
X7864777Y-14421484D01*
X7864777Y-14421484D02*
X7902872Y-14421484D01*
X7902872Y-14421484D02*
X7921920Y-14411960D01*
X7921920Y-14411960D02*
X7931444Y-14402436D01*
X7931444Y-14402436D02*
X7940967Y-14383388D01*
X7940967Y-14383388D02*
X7940967Y-14345293D01*
X7940967Y-14345293D02*
X7931444Y-14326246D01*
X7931444Y-14326246D02*
X7921920Y-14316722D01*
X7921920Y-14316722D02*
X7902872Y-14307198D01*
X8131444Y-14421484D02*
X8017158Y-14421484D01*
X8074301Y-14421484D02*
X8074301Y-14221484D01*
X8074301Y-14221484D02*
X8055253Y-14250055D01*
X8055253Y-14250055D02*
X8036206Y-14269103D01*
X8036206Y-14269103D02*
X8017158Y-14278627D01*
X8207634Y-14221484D02*
X8207634Y-14259579D01*
X8283825Y-14221484D02*
X8283825Y-14259579D01*
X8579063Y-14497674D02*
X8569539Y-14488150D01*
X8569539Y-14488150D02*
X8550491Y-14459579D01*
X8550491Y-14459579D02*
X8540968Y-14440531D01*
X8540968Y-14440531D02*
X8531444Y-14411960D01*
X8531444Y-14411960D02*
X8521920Y-14364341D01*
X8521920Y-14364341D02*
X8521920Y-14326246D01*
X8521920Y-14326246D02*
X8531444Y-14278627D01*
X8531444Y-14278627D02*
X8540968Y-14250055D01*
X8540968Y-14250055D02*
X8550491Y-14231008D01*
X8550491Y-14231008D02*
X8569539Y-14202436D01*
X8569539Y-14202436D02*
X8579063Y-14192912D01*
X8740968Y-14221484D02*
X8702872Y-14221484D01*
X8702872Y-14221484D02*
X8683825Y-14231008D01*
X8683825Y-14231008D02*
X8674301Y-14240531D01*
X8674301Y-14240531D02*
X8655253Y-14269103D01*
X8655253Y-14269103D02*
X8645730Y-14307198D01*
X8645730Y-14307198D02*
X8645730Y-14383388D01*
X8645730Y-14383388D02*
X8655253Y-14402436D01*
X8655253Y-14402436D02*
X8664777Y-14411960D01*
X8664777Y-14411960D02*
X8683825Y-14421484D01*
X8683825Y-14421484D02*
X8721920Y-14421484D01*
X8721920Y-14421484D02*
X8740968Y-14411960D01*
X8740968Y-14411960D02*
X8750491Y-14402436D01*
X8750491Y-14402436D02*
X8760015Y-14383388D01*
X8760015Y-14383388D02*
X8760015Y-14335769D01*
X8760015Y-14335769D02*
X8750491Y-14316722D01*
X8750491Y-14316722D02*
X8740968Y-14307198D01*
X8740968Y-14307198D02*
X8721920Y-14297674D01*
X8721920Y-14297674D02*
X8683825Y-14297674D01*
X8683825Y-14297674D02*
X8664777Y-14307198D01*
X8664777Y-14307198D02*
X8655253Y-14316722D01*
X8655253Y-14316722D02*
X8645730Y-14335769D01*
X8998111Y-14421484D02*
X8998111Y-14221484D01*
X9083825Y-14421484D02*
X9083825Y-14316722D01*
X9083825Y-14316722D02*
X9074301Y-14297674D01*
X9074301Y-14297674D02*
X9055253Y-14288150D01*
X9055253Y-14288150D02*
X9026682Y-14288150D01*
X9026682Y-14288150D02*
X9007634Y-14297674D01*
X9007634Y-14297674D02*
X8998111Y-14307198D01*
X9207634Y-14421484D02*
X9188587Y-14411960D01*
X9188587Y-14411960D02*
X9179063Y-14402436D01*
X9179063Y-14402436D02*
X9169539Y-14383388D01*
X9169539Y-14383388D02*
X9169539Y-14326246D01*
X9169539Y-14326246D02*
X9179063Y-14307198D01*
X9179063Y-14307198D02*
X9188587Y-14297674D01*
X9188587Y-14297674D02*
X9207634Y-14288150D01*
X9207634Y-14288150D02*
X9236206Y-14288150D01*
X9236206Y-14288150D02*
X9255253Y-14297674D01*
X9255253Y-14297674D02*
X9264777Y-14307198D01*
X9264777Y-14307198D02*
X9274301Y-14326246D01*
X9274301Y-14326246D02*
X9274301Y-14383388D01*
X9274301Y-14383388D02*
X9264777Y-14402436D01*
X9264777Y-14402436D02*
X9255253Y-14411960D01*
X9255253Y-14411960D02*
X9236206Y-14421484D01*
X9236206Y-14421484D02*
X9207634Y-14421484D01*
X9388587Y-14421484D02*
X9369539Y-14411960D01*
X9369539Y-14411960D02*
X9360015Y-14392912D01*
X9360015Y-14392912D02*
X9360015Y-14221484D01*
X9540968Y-14411960D02*
X9521920Y-14421484D01*
X9521920Y-14421484D02*
X9483825Y-14421484D01*
X9483825Y-14421484D02*
X9464777Y-14411960D01*
X9464777Y-14411960D02*
X9455253Y-14392912D01*
X9455253Y-14392912D02*
X9455253Y-14316722D01*
X9455253Y-14316722D02*
X9464777Y-14297674D01*
X9464777Y-14297674D02*
X9483825Y-14288150D01*
X9483825Y-14288150D02*
X9521920Y-14288150D01*
X9521920Y-14288150D02*
X9540968Y-14297674D01*
X9540968Y-14297674D02*
X9550492Y-14316722D01*
X9550492Y-14316722D02*
X9550492Y-14335769D01*
X9550492Y-14335769D02*
X9455253Y-14354817D01*
X9626682Y-14411960D02*
X9645730Y-14421484D01*
X9645730Y-14421484D02*
X9683825Y-14421484D01*
X9683825Y-14421484D02*
X9702873Y-14411960D01*
X9702873Y-14411960D02*
X9712396Y-14392912D01*
X9712396Y-14392912D02*
X9712396Y-14383388D01*
X9712396Y-14383388D02*
X9702873Y-14364341D01*
X9702873Y-14364341D02*
X9683825Y-14354817D01*
X9683825Y-14354817D02*
X9655253Y-14354817D01*
X9655253Y-14354817D02*
X9636206Y-14345293D01*
X9636206Y-14345293D02*
X9626682Y-14326246D01*
X9626682Y-14326246D02*
X9626682Y-14316722D01*
X9626682Y-14316722D02*
X9636206Y-14297674D01*
X9636206Y-14297674D02*
X9655253Y-14288150D01*
X9655253Y-14288150D02*
X9683825Y-14288150D01*
X9683825Y-14288150D02*
X9702873Y-14297674D01*
X9779063Y-14497674D02*
X9788587Y-14488150D01*
X9788587Y-14488150D02*
X9807634Y-14459579D01*
X9807634Y-14459579D02*
X9817158Y-14440531D01*
X9817158Y-14440531D02*
X9826682Y-14411960D01*
X9826682Y-14411960D02*
X9836206Y-14364341D01*
X9836206Y-14364341D02*
X9836206Y-14326246D01*
X9836206Y-14326246D02*
X9826682Y-14278627D01*
X9826682Y-14278627D02*
X9817158Y-14250055D01*
X9817158Y-14250055D02*
X9807634Y-14231008D01*
X9807634Y-14231008D02*
X9788587Y-14202436D01*
X9788587Y-14202436D02*
X9779063Y-14192912D01*
M02*
