M48
; DRILL file {KiCad 8.0.6} date 2024-11-27T19:43:04+0300
; FORMAT={-:-/ absolute / metric / decimal}
; #@! TF.CreationDate,2024-11-27T19:43:04+03:00
; #@! TF.GenerationSoftware,Kicad,Pcbnew,8.0.6
; #@! TF.FileFunction,Plated,1,2,PTH
FMAT,2
METRIC
; #@! TA.AperFunction,Plated,PTH,ViaDrill
T1C0.300
; #@! TA.AperFunction,Plated,PTH,ComponentDrill
T2C0.600
; #@! TA.AperFunction,Plated,PTH,ComponentDrill
T3C1.000
; #@! TA.AperFunction,Plated,PTH,ComponentDrill
T4C1.320
; #@! TA.AperFunction,Plated,PTH,ComponentDrill
T5C1.730
%
G90
G05
T1
X51.361Y-53.02
X51.361Y-57.02
X51.361Y-61.02
X51.361Y-65.02
X51.361Y-69.02
X51.361Y-73.02
X51.361Y-77.02
X51.361Y-81.02
X51.361Y-85.02
X51.361Y-89.02
X51.361Y-93.02
X51.361Y-97.02
X51.361Y-101.02
X51.361Y-105.02
X51.361Y-109.02
X51.361Y-117.02
X51.361Y-121.02
X52.361Y-51.02
X52.361Y-55.02
X52.361Y-59.02
X52.361Y-63.02
X53.361Y-103.02
X53.361Y-107.02
X53.361Y-111.02
X53.361Y-119.02
X54.361Y-53.02
X54.361Y-57.02
X54.361Y-61.02
X54.361Y-65.02
X55.361Y-117.02
X55.361Y-121.02
X55.361Y-125.02
X56.361Y-47.02
X56.361Y-51.02
X56.361Y-55.02
X57.361Y-119.02
X57.361Y-123.02
X59.361Y-117.02
X59.361Y-121.02
X59.361Y-125.02
X60.361Y-63.02
X61.361Y-75.02
X61.361Y-79.02
X61.361Y-83.02
X61.361Y-87.02
X61.361Y-119.02
X61.361Y-123.02
X63.361Y-77.02
X63.361Y-81.02
X63.361Y-85.02
X63.361Y-93.02
X63.361Y-117.02
X63.361Y-121.02
X63.361Y-125.02
X64.361Y-47.02
X64.361Y-63.02
X65.361Y-75.02
X65.361Y-79.02
X65.361Y-83.02
X65.361Y-87.02
X65.361Y-91.02
X65.361Y-99.02
X65.361Y-103.02
X65.361Y-107.02
X65.361Y-111.02
X65.361Y-115.02
X65.361Y-119.02
X65.361Y-123.02
X67.361Y-77.02
X67.361Y-81.02
X67.361Y-101.02
X67.361Y-105.02
X67.361Y-109.02
X67.361Y-113.02
X67.361Y-117.02
X67.361Y-121.02
X67.361Y-125.02
X68.361Y-63.02
X69.361Y-75.02
X69.361Y-79.02
X69.361Y-99.02
X69.361Y-103.02
X69.361Y-107.02
X69.361Y-111.02
X69.361Y-115.02
X70.361Y-53.02
X71.361Y-105.02
X71.361Y-109.02
X71.361Y-113.02
X71.361Y-125.02
X72.073Y-90.948
X72.073Y-91.964
X72.073Y-92.98
X73.361Y-75.02
X73.361Y-79.02
X73.361Y-87.02
X73.361Y-107.02
X73.361Y-111.02
X73.361Y-115.02
X73.361Y-123.02
X75.361Y-77.02
X75.361Y-81.02
X75.361Y-85.02
X75.361Y-89.02
X75.361Y-101.02
X75.361Y-109.02
X75.361Y-113.02
X75.361Y-125.02
X77.361Y-53.02
X77.361Y-75.02
X77.361Y-79.02
X77.361Y-87.02
X77.361Y-91.02
X77.361Y-99.02
X77.361Y-103.02
X77.361Y-107.02
X77.361Y-111.02
X77.361Y-115.02
X77.432Y-94.275
X79.361Y-77.02
X79.361Y-81.02
X79.361Y-85.02
X79.361Y-89.02
X79.361Y-97.02
X79.361Y-101.02
X79.361Y-109.02
X79.361Y-113.02
X79.361Y-117.02
X79.361Y-125.02
X81.357Y-53.052
X81.361Y-75.02
X81.361Y-79.02
X81.361Y-87.02
X81.361Y-95.02
X81.361Y-99.02
X81.361Y-103.02
X81.361Y-107.02
X81.361Y-111.02
X83.361Y-55.02
X83.361Y-59.02
X83.361Y-63.02
X83.361Y-77.02
X83.361Y-81.02
X85.361Y-57.02
X85.361Y-61.02
X85.361Y-65.02
X85.361Y-75.02
X85.361Y-79.02
X87.361Y-55.02
X87.361Y-59.02
X87.361Y-81.02
X87.361Y-95.02
X87.361Y-99.02
X87.361Y-109.02
X87.361Y-113.02
X89.361Y-57.02
X89.361Y-93.02
X89.361Y-97.02
X91.361Y-55.02
X91.361Y-59.02
X91.361Y-95.02
X91.361Y-99.02
X93.361Y-57.02
X93.361Y-93.02
X93.361Y-97.02
X93.361Y-109.02
X93.361Y-113.02
X93.361Y-117.02
X93.361Y-121.02
X93.361Y-125.02
X95.361Y-55.02
X95.361Y-87.02
X95.361Y-95.02
X95.361Y-99.02
X95.361Y-107.02
X95.361Y-111.02
X95.361Y-115.02
X95.361Y-119.02
X95.361Y-123.02
X97.361Y-57.02
X97.361Y-61.02
X97.361Y-89.02
X97.361Y-93.02
X97.361Y-97.02
X97.361Y-113.02
X97.361Y-117.02
X97.361Y-121.02
X97.361Y-125.02
X99.361Y-55.02
X99.361Y-59.02
X99.361Y-63.02
X99.361Y-87.02
X99.361Y-95.02
X99.361Y-99.02
X99.361Y-111.02
X99.361Y-115.02
X99.361Y-119.02
X99.361Y-123.02
X99.653Y-109.028
X101.361Y-57.02
X101.361Y-65.02
X101.361Y-85.02
X101.361Y-89.02
X101.361Y-93.02
X101.361Y-117.02
X101.361Y-121.02
X101.361Y-125.02
X102.045Y-105.832
X102.045Y-106.848
X102.045Y-107.864
X103.361Y-55.02
X103.361Y-59.02
X103.361Y-63.02
X103.361Y-67.02
X103.361Y-87.02
X103.361Y-95.02
X103.361Y-99.02
X103.361Y-115.02
X103.361Y-119.02
X103.361Y-123.02
X105.361Y-57.02
X105.361Y-61.02
X105.361Y-65.02
X105.361Y-85.02
X105.361Y-89.02
X105.361Y-93.02
X105.361Y-121.02
X105.361Y-125.02
X107.361Y-55.02
X107.361Y-59.02
X107.361Y-63.02
X107.361Y-67.02
X107.361Y-87.02
X107.361Y-95.02
X107.361Y-99.02
X107.361Y-103.02
X107.361Y-107.02
X107.361Y-115.02
X107.361Y-119.02
X107.361Y-123.02
X109.361Y-57.02
X109.361Y-61.02
X109.361Y-65.02
X109.361Y-85.02
X109.361Y-89.02
X109.361Y-93.02
X109.361Y-101.02
X109.361Y-105.02
X109.361Y-113.02
X109.361Y-117.02
X109.361Y-121.02
X109.361Y-125.02
X111.361Y-55.02
X111.361Y-63.02
X111.361Y-67.02
X111.361Y-87.02
X111.361Y-95.02
X111.361Y-99.02
X111.361Y-103.02
X111.361Y-107.02
X111.361Y-115.02
X111.361Y-119.02
X111.361Y-123.02
X113.361Y-53.02
X113.361Y-57.02
X113.361Y-61.02
X113.361Y-65.02
X113.361Y-85.02
X113.361Y-89.02
X113.361Y-93.02
X113.361Y-101.02
X113.361Y-105.02
X113.361Y-121.02
X113.361Y-125.02
X115.361Y-55.02
X115.361Y-59.02
X115.361Y-63.02
X115.361Y-67.02
X115.361Y-95.02
X115.361Y-99.02
X115.361Y-103.02
X115.361Y-107.02
X115.361Y-115.02
X115.361Y-119.02
X115.361Y-123.02
X117.361Y-49.02
X117.361Y-53.02
X117.361Y-57.02
X117.361Y-61.02
X117.361Y-65.02
X117.361Y-85.02
X117.361Y-93.02
X117.361Y-113.02
X117.361Y-117.02
X117.361Y-121.02
X117.361Y-125.02
X119.361Y-51.02
X119.361Y-55.02
X119.361Y-59.02
X119.361Y-67.02
X119.361Y-87.02
X119.361Y-115.02
X119.361Y-119.02
X119.361Y-123.02
X121.361Y-53.02
X121.361Y-57.02
X121.361Y-61.02
X121.361Y-65.02
X121.361Y-85.02
X121.361Y-89.02
X121.361Y-105.02
X121.361Y-117.02
X121.361Y-121.02
X121.361Y-125.02
X123.361Y-47.02
X123.361Y-55.02
X123.361Y-59.02
X123.361Y-63.02
X123.361Y-67.02
X123.361Y-91.02
X123.361Y-95.02
X123.361Y-99.02
X123.361Y-103.02
X123.361Y-107.02
X123.361Y-115.02
X123.361Y-119.02
X123.361Y-123.02
X125.361Y-57.02
X125.361Y-61.02
X125.361Y-65.02
X125.361Y-101.02
X125.361Y-105.02
X125.361Y-117.02
X125.361Y-121.02
X125.361Y-125.02
X127.361Y-59.02
X127.361Y-63.02
X127.361Y-103.02
X127.361Y-115.02
X127.361Y-119.02
X129.361Y-53.02
X129.361Y-109.02
X129.361Y-113.02
X129.361Y-117.02
X129.361Y-121.02
T3
X59.521Y-57.084
X59.521Y-59.584
X66.261Y-49.17
X66.261Y-51.71
X68.801Y-49.17
X68.801Y-51.71
X71.341Y-49.17
X71.341Y-51.71
X73.881Y-49.17
X73.881Y-51.71
X76.421Y-49.17
X76.421Y-51.71
X78.961Y-49.17
X78.961Y-51.71
X81.501Y-49.17
X81.501Y-51.71
X84.041Y-49.17
X84.041Y-51.71
X86.581Y-49.17
X86.581Y-51.71
X89.121Y-49.17
X89.121Y-51.71
X91.661Y-49.17
X91.661Y-51.71
X94.201Y-49.17
X94.201Y-51.71
X96.741Y-49.17
X96.741Y-51.71
X99.281Y-49.17
X99.281Y-51.71
X101.821Y-49.17
X101.821Y-51.71
X104.361Y-49.17
X104.361Y-51.71
X104.859Y-116.86
X106.901Y-49.17
X106.901Y-51.71
X107.359Y-116.86
X109.441Y-49.17
X109.441Y-51.71
X111.981Y-49.17
X111.981Y-51.71
X113.495Y-116.86
X114.521Y-49.17
X114.521Y-51.71
X115.995Y-116.86
T4
X54.251Y-74.59
X54.251Y-97.45
X126.471Y-74.59
X126.471Y-97.45
T5
X52.767Y-113.706
X57.467Y-113.706
X62.167Y-113.706
X89.599Y-113.832
X89.599Y-118.532
X89.599Y-123.232
T2
X69.023Y-119.55G85X69.023Y-120.15
G05
X69.023Y-123.35G85X69.023Y-123.95
G05
X77.663Y-119.55G85X77.663Y-120.15
G05
X77.663Y-123.35G85X77.663Y-123.95
G05
M30
