%TF.GenerationSoftware,KiCad,Pcbnew,8.0.6*%
%TF.CreationDate,2024-11-27T19:42:17+03:00*%
%TF.ProjectId,EPSv3,45505376-332e-46b6-9963-61645f706362,rev?*%
%TF.SameCoordinates,Original*%
%TF.FileFunction,Copper,L2,Bot*%
%TF.FilePolarity,Positive*%
%FSLAX46Y46*%
G04 Gerber Fmt 4.6, Leading zero omitted, Abs format (unit mm)*
G04 Created by KiCad (PCBNEW 8.0.6) date 2024-11-27 19:42:17*
%MOMM*%
%LPD*%
G01*
G04 APERTURE LIST*
G04 Aperture macros list*
%AMRoundRect*
0 Rectangle with rounded corners*
0 $1 Rounding radius*
0 $2 $3 $4 $5 $6 $7 $8 $9 X,Y pos of 4 corners*
0 Add a 4 corners polygon primitive as box body*
4,1,4,$2,$3,$4,$5,$6,$7,$8,$9,$2,$3,0*
0 Add four circle primitives for the rounded corners*
1,1,$1+$1,$2,$3*
1,1,$1+$1,$4,$5*
1,1,$1+$1,$6,$7*
1,1,$1+$1,$8,$9*
0 Add four rect primitives between the rounded corners*
20,1,$1+$1,$2,$3,$4,$5,0*
20,1,$1+$1,$4,$5,$6,$7,0*
20,1,$1+$1,$6,$7,$8,$9,0*
20,1,$1+$1,$8,$9,$2,$3,0*%
G04 Aperture macros list end*
%TA.AperFunction,ComponentPad*%
%ADD10RoundRect,0.250000X-0.600000X-0.750000X0.600000X-0.750000X0.600000X0.750000X-0.600000X0.750000X0*%
%TD*%
%TA.AperFunction,ComponentPad*%
%ADD11O,1.700000X2.000000*%
%TD*%
%TA.AperFunction,ComponentPad*%
%ADD12R,2.595000X2.595000*%
%TD*%
%TA.AperFunction,ComponentPad*%
%ADD13C,2.595000*%
%TD*%
%TA.AperFunction,ComponentPad*%
%ADD14RoundRect,0.250000X-0.750000X0.600000X-0.750000X-0.600000X0.750000X-0.600000X0.750000X0.600000X0*%
%TD*%
%TA.AperFunction,ComponentPad*%
%ADD15O,2.000000X1.700000*%
%TD*%
%TA.AperFunction,ComponentPad*%
%ADD16O,1.100000X1.700000*%
%TD*%
%TA.AperFunction,ComponentPad*%
%ADD17R,1.700000X1.700000*%
%TD*%
%TA.AperFunction,ComponentPad*%
%ADD18O,1.700000X1.700000*%
%TD*%
%TA.AperFunction,ComponentPad*%
%ADD19C,1.980000*%
%TD*%
%TA.AperFunction,ViaPad*%
%ADD20C,0.600000*%
%TD*%
%TA.AperFunction,ViaPad*%
%ADD21C,0.500000*%
%TD*%
%TA.AperFunction,Conductor*%
%ADD22C,0.500000*%
%TD*%
%TA.AperFunction,Conductor*%
%ADD23C,0.250000*%
%TD*%
G04 APERTURE END LIST*
D10*
%TO.P,J2,1,Pin_1*%
%TO.N,Net-(J2-Pin_1)*%
X113494606Y-116859982D03*
D11*
%TO.P,J2,2,Pin_2*%
%TO.N,GND*%
X115994606Y-116859982D03*
%TD*%
D12*
%TO.P,S1,1,NC*%
%TO.N,Net-(S1-NC)*%
X89598606Y-113831982D03*
D13*
%TO.P,S1,2,COM*%
%TO.N,/VIN*%
X89598606Y-118531982D03*
%TO.P,S1,3,NO*%
%TO.N,Net-(S1-NO)*%
X89598606Y-123231982D03*
%TD*%
D12*
%TO.P,S3,1,NC*%
%TO.N,Net-(S3-NC)*%
X62166606Y-113705982D03*
D13*
%TO.P,S3,2,COM*%
%TO.N,Net-(J4-Pin_2)*%
X57466606Y-113705982D03*
%TO.P,S3,3,NO*%
%TO.N,unconnected-(S3-NO-Pad3)*%
X52766606Y-113705982D03*
%TD*%
D14*
%TO.P,J4,1,Pin_1*%
%TO.N,+5V*%
X59520606Y-57083982D03*
D15*
%TO.P,J4,2,Pin_2*%
%TO.N,Net-(J4-Pin_2)*%
X59520606Y-59583982D03*
%TD*%
D16*
%TO.P,J3,S1,SHIELD*%
%TO.N,GND*%
X69022606Y-119849982D03*
X69022606Y-123649982D03*
X77662606Y-119849982D03*
X77662606Y-123649982D03*
%TD*%
D10*
%TO.P,J1,1,Pin_1*%
%TO.N,Net-(J1-Pin_1)*%
X104858606Y-116859982D03*
D11*
%TO.P,J1,2,Pin_2*%
%TO.N,GND*%
X107358606Y-116859982D03*
%TD*%
D17*
%TO.P,J5,1,Pin_1*%
%TO.N,+5V*%
X66260606Y-49169982D03*
D18*
%TO.P,J5,2,Pin_2*%
%TO.N,+3.3V*%
X66260606Y-51709982D03*
%TO.P,J5,3,Pin_3*%
%TO.N,unconnected-(J5-Pin_3-Pad3)*%
X68800606Y-49169982D03*
%TO.P,J5,4,Pin_4*%
%TO.N,unconnected-(J5-Pin_4-Pad4)*%
X68800606Y-51709982D03*
%TO.P,J5,5,Pin_5*%
%TO.N,unconnected-(J5-Pin_5-Pad5)*%
X71340606Y-49169982D03*
%TO.P,J5,6,Pin_6*%
%TO.N,/ANA1*%
X71340606Y-51709982D03*
%TO.P,J5,7,Pin_7*%
%TO.N,unconnected-(J5-Pin_7-Pad7)*%
X73880606Y-49169982D03*
%TO.P,J5,8,Pin_8*%
%TO.N,/ANA3*%
X73880606Y-51709982D03*
%TO.P,J5,9,Pin_9*%
%TO.N,unconnected-(J5-Pin_9-Pad9)*%
X76420606Y-49169982D03*
%TO.P,J5,10,Pin_10*%
%TO.N,unconnected-(J5-Pin_10-Pad10)*%
X76420606Y-51709982D03*
%TO.P,J5,11,Pin_11*%
%TO.N,unconnected-(J5-Pin_11-Pad11)*%
X78960606Y-49169982D03*
%TO.P,J5,12,Pin_12*%
%TO.N,unconnected-(J5-Pin_12-Pad12)*%
X78960606Y-51709982D03*
%TO.P,J5,13,Pin_13*%
%TO.N,unconnected-(J5-Pin_13-Pad13)*%
X81500606Y-49169982D03*
%TO.P,J5,14,Pin_14*%
%TO.N,unconnected-(J5-Pin_14-Pad14)*%
X81500606Y-51709982D03*
%TO.P,J5,15,Pin_15*%
%TO.N,unconnected-(J5-Pin_15-Pad15)*%
X84040606Y-49169982D03*
%TO.P,J5,16,Pin_16*%
%TO.N,unconnected-(J5-Pin_16-Pad16)*%
X84040606Y-51709982D03*
%TO.P,J5,17,Pin_17*%
%TO.N,unconnected-(J5-Pin_17-Pad17)*%
X86580606Y-49169982D03*
%TO.P,J5,18,Pin_18*%
%TO.N,unconnected-(J5-Pin_18-Pad18)*%
X86580606Y-51709982D03*
%TO.P,J5,19,Pin_19*%
%TO.N,unconnected-(J5-Pin_19-Pad19)*%
X89120606Y-49169982D03*
%TO.P,J5,20,Pin_20*%
%TO.N,/ANA2*%
X89120606Y-51709982D03*
%TO.P,J5,21,Pin_21*%
%TO.N,unconnected-(J5-Pin_21-Pad21)*%
X91660606Y-49169982D03*
%TO.P,J5,22,Pin_22*%
%TO.N,unconnected-(J5-Pin_22-Pad22)*%
X91660606Y-51709982D03*
%TO.P,J5,23,Pin_23*%
%TO.N,unconnected-(J5-Pin_23-Pad23)*%
X94200606Y-49169982D03*
%TO.P,J5,24,Pin_24*%
%TO.N,unconnected-(J5-Pin_24-Pad24)*%
X94200606Y-51709982D03*
%TO.P,J5,25,Pin_25*%
%TO.N,unconnected-(J5-Pin_25-Pad25)*%
X96740606Y-49169982D03*
%TO.P,J5,26,Pin_26*%
%TO.N,unconnected-(J5-Pin_26-Pad26)*%
X96740606Y-51709982D03*
%TO.P,J5,27,Pin_27*%
%TO.N,unconnected-(J5-Pin_27-Pad27)*%
X99280606Y-49169982D03*
%TO.P,J5,28,Pin_28*%
%TO.N,unconnected-(J5-Pin_28-Pad28)*%
X99280606Y-51709982D03*
%TO.P,J5,29,Pin_29*%
%TO.N,unconnected-(J5-Pin_29-Pad29)*%
X101820606Y-49169982D03*
%TO.P,J5,30,Pin_30*%
%TO.N,unconnected-(J5-Pin_30-Pad30)*%
X101820606Y-51709982D03*
%TO.P,J5,31,Pin_31*%
%TO.N,unconnected-(J5-Pin_31-Pad31)*%
X104360606Y-49169982D03*
%TO.P,J5,32,Pin_32*%
%TO.N,unconnected-(J5-Pin_32-Pad32)*%
X104360606Y-51709982D03*
%TO.P,J5,33,Pin_33*%
%TO.N,unconnected-(J5-Pin_33-Pad33)*%
X106900606Y-49169982D03*
%TO.P,J5,34,Pin_34*%
%TO.N,unconnected-(J5-Pin_34-Pad34)*%
X106900606Y-51709982D03*
%TO.P,J5,35,Pin_35*%
%TO.N,unconnected-(J5-Pin_35-Pad35)*%
X109440606Y-49169982D03*
%TO.P,J5,36,Pin_36*%
%TO.N,unconnected-(J5-Pin_36-Pad36)*%
X109440606Y-51709982D03*
%TO.P,J5,37,Pin_37*%
%TO.N,unconnected-(J5-Pin_37-Pad37)*%
X111980606Y-49169982D03*
%TO.P,J5,38,Pin_38*%
%TO.N,+5V*%
X111980606Y-51709982D03*
%TO.P,J5,39,Pin_39*%
%TO.N,+BATT*%
X114520606Y-49169982D03*
%TO.P,J5,40,Pin_40*%
X114520606Y-51709982D03*
%TD*%
D19*
%TO.P,BT2,N*%
%TO.N,Net-(U3-D)*%
X54250606Y-74589982D03*
%TO.P,BT2,P*%
%TO.N,+BATT*%
X126470606Y-74589982D03*
%TD*%
%TO.P,BT1,N*%
%TO.N,Net-(U3-D)*%
X54250606Y-97449982D03*
%TO.P,BT1,P*%
%TO.N,+BATT*%
X126470606Y-97449982D03*
%TD*%
D20*
%TO.N,GND*%
X107360606Y-115019982D03*
X85360606Y-65019982D03*
X109360606Y-121019982D03*
X111360606Y-119019982D03*
X81360606Y-87019982D03*
X119360606Y-51019982D03*
X99360606Y-111019982D03*
X101360606Y-121019982D03*
X65360606Y-111019982D03*
X75360606Y-109019982D03*
X107360606Y-67019982D03*
X105360606Y-57019982D03*
X54360606Y-61019982D03*
X115360606Y-123019982D03*
X85360606Y-79019982D03*
X51360606Y-93019982D03*
X111360606Y-115019982D03*
X95360606Y-55019982D03*
X73360606Y-87019982D03*
X105360606Y-93019982D03*
X67360606Y-125019982D03*
X123360606Y-47019982D03*
X121360606Y-57019982D03*
X69360606Y-75019982D03*
X97360606Y-113019982D03*
X123360606Y-115019982D03*
X109360606Y-101019982D03*
X52360606Y-59019982D03*
X121360606Y-105019982D03*
X65360606Y-87019982D03*
X113360606Y-125019982D03*
X127360606Y-119019982D03*
X63360606Y-121019982D03*
X59360606Y-117019982D03*
X115360606Y-63019982D03*
X60360606Y-63019982D03*
X99360606Y-115019982D03*
X123360606Y-59019982D03*
X64360606Y-63019982D03*
X79360606Y-117019982D03*
X56360606Y-55019982D03*
X51360606Y-65019982D03*
X113360606Y-61019982D03*
X109360606Y-113019982D03*
X109360606Y-65019982D03*
X97360606Y-89019982D03*
X56360606Y-51019982D03*
X57360606Y-123019982D03*
X79360606Y-89019982D03*
X89360606Y-93019982D03*
X55360606Y-125019982D03*
X52360606Y-51019982D03*
X111360606Y-103019982D03*
X101360606Y-117019982D03*
X79360606Y-77019982D03*
X105360606Y-85019982D03*
X73360606Y-107019982D03*
X51360606Y-109019982D03*
X109360606Y-125019982D03*
X64360606Y-47019982D03*
X75360606Y-81019982D03*
X75360606Y-77019982D03*
X54360606Y-65019982D03*
X101360606Y-65019982D03*
X67360606Y-109019982D03*
X61360606Y-119019982D03*
X97360606Y-93019982D03*
X87360606Y-113019982D03*
X119360606Y-123019982D03*
X91360606Y-55019982D03*
X119360606Y-119019982D03*
X103360606Y-95019982D03*
X107360606Y-119019982D03*
X115360606Y-107019982D03*
X81360606Y-103019982D03*
X67360606Y-77019982D03*
X77360606Y-111019982D03*
X81357148Y-53052341D03*
X103360606Y-87019982D03*
X123360606Y-123019982D03*
X87360606Y-95019982D03*
X85360606Y-57019982D03*
X79360606Y-113019982D03*
X81360606Y-111019982D03*
X69360606Y-115019982D03*
X119360606Y-87019982D03*
X65360606Y-115019982D03*
X61360606Y-79019982D03*
X51360606Y-61019982D03*
X93360606Y-125019982D03*
X63360606Y-93019982D03*
X117360606Y-65019982D03*
X55360606Y-117019982D03*
X79360606Y-97019982D03*
X71360606Y-109019982D03*
X79360606Y-101019982D03*
X109360606Y-93019982D03*
X101360606Y-125019982D03*
X109360606Y-85019982D03*
X115360606Y-55019982D03*
X103360606Y-67019982D03*
X129360606Y-53019982D03*
X117360606Y-85019982D03*
X125360606Y-121019982D03*
X79360606Y-85019982D03*
X103360606Y-63019982D03*
X111360606Y-55019982D03*
X113360606Y-53019982D03*
X121360606Y-61019982D03*
X54360606Y-53019982D03*
X91360606Y-95019982D03*
X97360606Y-97019982D03*
X107360606Y-59019982D03*
X73360606Y-79019982D03*
X97360606Y-121019982D03*
X111360606Y-63019982D03*
X103360606Y-119019982D03*
X107360606Y-99019982D03*
X127360606Y-103019982D03*
X125360606Y-105019982D03*
X97360606Y-125019982D03*
X65360606Y-79019982D03*
X65360606Y-99019982D03*
X81360606Y-75019982D03*
X119360606Y-59019982D03*
X117360606Y-121019982D03*
X95360606Y-119019982D03*
X125360606Y-57019982D03*
X93360606Y-57019982D03*
X67360606Y-105019982D03*
X51360606Y-81019982D03*
X51360606Y-121019982D03*
X103360606Y-99019982D03*
X75360606Y-125019982D03*
X115360606Y-59019982D03*
X69360606Y-103019982D03*
X69360606Y-111019982D03*
X123360606Y-99019982D03*
X93360606Y-121019982D03*
X77360606Y-107019982D03*
X57360606Y-119019982D03*
X61360606Y-87019982D03*
X79360606Y-125019982D03*
X129360606Y-121019982D03*
X109360606Y-117019982D03*
X51360606Y-73019982D03*
X71360606Y-125019982D03*
X107360606Y-95019982D03*
X129360606Y-113019982D03*
X129360606Y-117019982D03*
X115360606Y-99019982D03*
X121360606Y-85019982D03*
X95360606Y-107019982D03*
X65360606Y-123019982D03*
X68360606Y-63019982D03*
X95360606Y-123019982D03*
X95360606Y-111019982D03*
X99360606Y-87019982D03*
X107360606Y-107019982D03*
X105360606Y-125019982D03*
X101360606Y-89019982D03*
X127360606Y-59019982D03*
X75360606Y-101019982D03*
X123360606Y-103019982D03*
X70360606Y-53019982D03*
X109360606Y-89019982D03*
X85360606Y-61019982D03*
X71360606Y-105019982D03*
X54360606Y-57019982D03*
X52360606Y-55019982D03*
X123360606Y-67019982D03*
X117360606Y-57019982D03*
X52360606Y-63019982D03*
X51360606Y-97019982D03*
X113360606Y-121019982D03*
X63360606Y-81019982D03*
X51360606Y-53019982D03*
X115360606Y-95019982D03*
X105360606Y-65019982D03*
X121360606Y-117019982D03*
X119360606Y-115019982D03*
X65360606Y-103019982D03*
X83360606Y-55019982D03*
X113360606Y-89019982D03*
X73360606Y-75019982D03*
X123360606Y-63019982D03*
X111360606Y-95019982D03*
X83360606Y-77019982D03*
X53360606Y-119019982D03*
X107360606Y-103019982D03*
X91360606Y-59019982D03*
X97360606Y-57019982D03*
X73360606Y-123019982D03*
X83360606Y-81019982D03*
X113360606Y-85019982D03*
X61360606Y-75019982D03*
X53360606Y-111019982D03*
X61360606Y-123019982D03*
X51360606Y-57019982D03*
X121360606Y-65019982D03*
X103360606Y-115019982D03*
X53360606Y-103019982D03*
X125360606Y-125019982D03*
X69360606Y-79019982D03*
X95360606Y-87019982D03*
X119360606Y-67019982D03*
X53360606Y-107019982D03*
X51360606Y-69019982D03*
X81360606Y-99019982D03*
X81360606Y-107019982D03*
X51360606Y-105019982D03*
X75360606Y-89019982D03*
X117360606Y-61019982D03*
X113360606Y-105019982D03*
X65360606Y-75019982D03*
X129360606Y-109019982D03*
X81360606Y-95019982D03*
X65360606Y-91019982D03*
X77360606Y-75019982D03*
X117360606Y-93019982D03*
X99360606Y-99019982D03*
X73360606Y-111019982D03*
X59360606Y-125019982D03*
X67360606Y-121019982D03*
X115360606Y-103019982D03*
X75360606Y-85019982D03*
X117360606Y-49019982D03*
X99360606Y-63019982D03*
X91360606Y-99019982D03*
X55360606Y-121019982D03*
X87360606Y-109019982D03*
X63360606Y-125019982D03*
X67360606Y-101019982D03*
X127360606Y-115019982D03*
X121360606Y-53019982D03*
X51360606Y-89019982D03*
X115360606Y-119019982D03*
X67360606Y-113019982D03*
X67360606Y-117019982D03*
X69360606Y-107019982D03*
X121360606Y-121019982D03*
X117360606Y-125019982D03*
X123360606Y-55019982D03*
X105360606Y-61019982D03*
X61360606Y-83019982D03*
X89360606Y-57019982D03*
X119360606Y-55019982D03*
X87360606Y-99019982D03*
X105360606Y-89019982D03*
X56360606Y-47019982D03*
X97360606Y-117019982D03*
X107360606Y-123019982D03*
X83360606Y-63019982D03*
X115360606Y-67019982D03*
X101360606Y-57019982D03*
X99360606Y-95019982D03*
X99360606Y-55019982D03*
X87360606Y-81019982D03*
X77360606Y-103019982D03*
X77360606Y-87019982D03*
X63360606Y-77019982D03*
X109360606Y-105019982D03*
X123360606Y-91019982D03*
X63360606Y-117019982D03*
X95360606Y-115019982D03*
X95360606Y-99019982D03*
X93360606Y-97019982D03*
X51360606Y-117019982D03*
X67360606Y-81019982D03*
X73360606Y-115019982D03*
X93360606Y-113019982D03*
X93360606Y-93019982D03*
X117360606Y-117019982D03*
X103360606Y-55019982D03*
X121360606Y-89019982D03*
X65360606Y-107019982D03*
X107360606Y-55019982D03*
X87360606Y-55019982D03*
X77360606Y-91019982D03*
X117360606Y-53019982D03*
X109360606Y-57019982D03*
X83360606Y-59019982D03*
X105360606Y-121019982D03*
X123360606Y-107019982D03*
X99360606Y-123019982D03*
X111360606Y-123019982D03*
X99360606Y-119019982D03*
X77360606Y-115019982D03*
X125360606Y-101019982D03*
X79360606Y-109019982D03*
X101360606Y-85019982D03*
X75360606Y-113019982D03*
X71360606Y-113019982D03*
X113360606Y-65019982D03*
X123360606Y-119019982D03*
X123360606Y-95019982D03*
X115360606Y-115019982D03*
X51360606Y-101019982D03*
X113360606Y-101019982D03*
X99360606Y-59019982D03*
X69360606Y-99019982D03*
X103360606Y-123019982D03*
X81360606Y-79019982D03*
X117360606Y-113019982D03*
X63360606Y-85019982D03*
X101360606Y-93019982D03*
X85360606Y-75019982D03*
X79360606Y-81019982D03*
X77360606Y-99019982D03*
X121360606Y-125019982D03*
X97360606Y-61019982D03*
X51360606Y-85019982D03*
X65360606Y-83019982D03*
X93360606Y-109019982D03*
X125360606Y-65019982D03*
X95360606Y-95019982D03*
X109360606Y-61019982D03*
X125360606Y-117019982D03*
X111360606Y-67019982D03*
X111360606Y-107019982D03*
X89360606Y-97019982D03*
X107360606Y-87019982D03*
X87360606Y-59019982D03*
X77360606Y-53019982D03*
X107360606Y-63019982D03*
X111360606Y-87019982D03*
X51360606Y-77019982D03*
X125360606Y-61019982D03*
X93360606Y-117019982D03*
X59360606Y-121019982D03*
X77360606Y-79019982D03*
X103360606Y-59019982D03*
X113360606Y-57019982D03*
X127360606Y-63019982D03*
X113360606Y-93019982D03*
X65360606Y-119019982D03*
X111360606Y-99019982D03*
D21*
%TO.N,+5V*%
X102044606Y-107863982D03*
X72072606Y-91963582D03*
X72072606Y-90947582D03*
X72072606Y-92979582D03*
X102044606Y-105831982D03*
X102044606Y-106847982D03*
D20*
%TO.N,/ANA1*%
X99652606Y-109027982D03*
%TO.N,/ANA3*%
X77432006Y-94274982D03*
%TD*%
D22*
%TO.N,+5V*%
X102044606Y-106847982D02*
X102044606Y-105831982D01*
X72072606Y-92979582D02*
X72072606Y-102021982D01*
X100774606Y-104561982D02*
X102044606Y-105831982D01*
X72072606Y-102021982D02*
X74612606Y-104561982D01*
X60408606Y-57083982D02*
X59520606Y-57083982D01*
X72072606Y-90947582D02*
X72072606Y-68747982D01*
X102044606Y-107863982D02*
X102044606Y-106847982D01*
X72072606Y-92979582D02*
X72072606Y-91963582D01*
X72072606Y-68747982D02*
X60408606Y-57083982D01*
X74612606Y-104561982D02*
X87360606Y-104561982D01*
X72072606Y-91963582D02*
X72072606Y-90947582D01*
X87360606Y-104561982D02*
X100774606Y-104561982D01*
D23*
%TO.N,/ANA1*%
X100800006Y-110175382D02*
X124879206Y-110175382D01*
X128714606Y-106339982D02*
X128714606Y-58333982D01*
X99652606Y-109027982D02*
X100800006Y-110175382D01*
X118375606Y-47994982D02*
X70853905Y-47994982D01*
X70165606Y-48683281D02*
X70165606Y-50534982D01*
X99631606Y-109006982D02*
X99652606Y-109027982D01*
X124879206Y-110175382D02*
X128714606Y-106339982D01*
X70165606Y-50534982D02*
X71340606Y-51709982D01*
X70853905Y-47994982D02*
X70165606Y-48683281D01*
X128714606Y-58333982D02*
X118375606Y-47994982D01*
%TO.N,/ANA3*%
X80504606Y-53919982D02*
X76060606Y-53919982D01*
X82232606Y-55647982D02*
X80504606Y-53919982D01*
X77432006Y-94274982D02*
X82232606Y-89474382D01*
X82232606Y-89474382D02*
X82232606Y-55647982D01*
X73880606Y-51739982D02*
X73880606Y-51709982D01*
X76060606Y-53919982D02*
X73880606Y-51739982D01*
%TD*%
%TA.AperFunction,Conductor*%
%TO.N,GND*%
G36*
X127305608Y-46272477D02*
G01*
X127305939Y-46272500D01*
X127313928Y-46272500D01*
X127376339Y-46272500D01*
X127383291Y-46272694D01*
X127680716Y-46289399D01*
X127694523Y-46290955D01*
X127984774Y-46340273D01*
X127998325Y-46343366D01*
X128281236Y-46424873D01*
X128294344Y-46429460D01*
X128566347Y-46542129D01*
X128578869Y-46548159D01*
X128836547Y-46690575D01*
X128848301Y-46697960D01*
X129088425Y-46868339D01*
X129099283Y-46876999D01*
X129252638Y-47014046D01*
X129318799Y-47073172D01*
X129328632Y-47083004D01*
X129389804Y-47151456D01*
X129524816Y-47302536D01*
X129533475Y-47313394D01*
X129591221Y-47394779D01*
X129703842Y-47553505D01*
X129711240Y-47565279D01*
X129853648Y-47822948D01*
X129859681Y-47835476D01*
X129972343Y-48107467D01*
X129976936Y-48120593D01*
X130058437Y-48403491D01*
X130061531Y-48417047D01*
X130110845Y-48707288D01*
X130112402Y-48721106D01*
X130129129Y-49018959D01*
X130129324Y-49025912D01*
X130129324Y-123036223D01*
X130129129Y-123043176D01*
X130112425Y-123340599D01*
X130110868Y-123354417D01*
X130061554Y-123644659D01*
X130058460Y-123658216D01*
X129976956Y-123941120D01*
X129972363Y-123954244D01*
X129859702Y-124226235D01*
X129853669Y-124238764D01*
X129711259Y-124496435D01*
X129703861Y-124508209D01*
X129533498Y-124748315D01*
X129524828Y-124759187D01*
X129328648Y-124978713D01*
X129318815Y-124988545D01*
X129099303Y-125184715D01*
X129088432Y-125193385D01*
X128848323Y-125363753D01*
X128836549Y-125371151D01*
X128578883Y-125513560D01*
X128566354Y-125519594D01*
X128294359Y-125632259D01*
X128281234Y-125636852D01*
X127998331Y-125718357D01*
X127984774Y-125721451D01*
X127694532Y-125770766D01*
X127680715Y-125772323D01*
X127383625Y-125789010D01*
X127376671Y-125789205D01*
X127313926Y-125789205D01*
X53343474Y-125789498D01*
X53336522Y-125789303D01*
X53039107Y-125772602D01*
X53025288Y-125771045D01*
X52735046Y-125721730D01*
X52721489Y-125718636D01*
X52438586Y-125637133D01*
X52425462Y-125632540D01*
X52153472Y-125519879D01*
X52140943Y-125513846D01*
X51883273Y-125371436D01*
X51871499Y-125364038D01*
X51631395Y-125193676D01*
X51620523Y-125185006D01*
X51401002Y-124988830D01*
X51391169Y-124978997D01*
X51194993Y-124759476D01*
X51186323Y-124748604D01*
X51015961Y-124508500D01*
X51008563Y-124496726D01*
X50920768Y-124337874D01*
X50866149Y-124239049D01*
X50860120Y-124226527D01*
X50747459Y-123954537D01*
X50742866Y-123941413D01*
X50661363Y-123658510D01*
X50658269Y-123644953D01*
X50647930Y-123584104D01*
X50608953Y-123354703D01*
X50607397Y-123340892D01*
X50601281Y-123231987D01*
X50590695Y-123043472D01*
X50590500Y-123036518D01*
X50590503Y-122866711D01*
X51541500Y-122866711D01*
X51541500Y-123109288D01*
X51573161Y-123349785D01*
X51635947Y-123584104D01*
X51728773Y-123808205D01*
X51728776Y-123808212D01*
X51850064Y-124018289D01*
X51850066Y-124018292D01*
X51850067Y-124018293D01*
X51997733Y-124210736D01*
X51997739Y-124210743D01*
X52169256Y-124382260D01*
X52169262Y-124382265D01*
X52361711Y-124529936D01*
X52571788Y-124651224D01*
X52795900Y-124744054D01*
X53030211Y-124806838D01*
X53210586Y-124830584D01*
X53270711Y-124838500D01*
X53270712Y-124838500D01*
X53513289Y-124838500D01*
X53561388Y-124832167D01*
X53753789Y-124806838D01*
X53988100Y-124744054D01*
X54212212Y-124651224D01*
X54422289Y-124529936D01*
X54614738Y-124382265D01*
X54786265Y-124210738D01*
X54933936Y-124018289D01*
X55055224Y-123808212D01*
X55148054Y-123584100D01*
X55210838Y-123349789D01*
X55226348Y-123231976D01*
X88095472Y-123231976D01*
X88095472Y-123231987D01*
X88115972Y-123479386D01*
X88176915Y-123720047D01*
X88276639Y-123947396D01*
X88322956Y-124018289D01*
X88412422Y-124155226D01*
X88580561Y-124337874D01*
X88776470Y-124490355D01*
X88994804Y-124608512D01*
X89229608Y-124689120D01*
X89474478Y-124729982D01*
X89474479Y-124729982D01*
X89722733Y-124729982D01*
X89722734Y-124729982D01*
X89967604Y-124689120D01*
X90202408Y-124608512D01*
X90420742Y-124490355D01*
X90616651Y-124337874D01*
X90784790Y-124155226D01*
X90920573Y-123947395D01*
X91020296Y-123720049D01*
X91081239Y-123479390D01*
X91091978Y-123349789D01*
X91101740Y-123231987D01*
X91101740Y-123231976D01*
X91081239Y-122984577D01*
X91081239Y-122984574D01*
X91051392Y-122866711D01*
X125581324Y-122866711D01*
X125581324Y-123109288D01*
X125612985Y-123349785D01*
X125675771Y-123584104D01*
X125768597Y-123808205D01*
X125768600Y-123808212D01*
X125889888Y-124018289D01*
X125889890Y-124018292D01*
X125889891Y-124018293D01*
X126037557Y-124210736D01*
X126037563Y-124210743D01*
X126209080Y-124382260D01*
X126209086Y-124382265D01*
X126401535Y-124529936D01*
X126611612Y-124651224D01*
X126835724Y-124744054D01*
X127070035Y-124806838D01*
X127250410Y-124830584D01*
X127310535Y-124838500D01*
X127310536Y-124838500D01*
X127553113Y-124838500D01*
X127601212Y-124832167D01*
X127793613Y-124806838D01*
X128027924Y-124744054D01*
X128252036Y-124651224D01*
X128462113Y-124529936D01*
X128654562Y-124382265D01*
X128826089Y-124210738D01*
X128973760Y-124018289D01*
X129095048Y-123808212D01*
X129187878Y-123584100D01*
X129250662Y-123349789D01*
X129282324Y-123109288D01*
X129282324Y-122866712D01*
X129250662Y-122626211D01*
X129187878Y-122391900D01*
X129095048Y-122167788D01*
X128973760Y-121957711D01*
X128826089Y-121765262D01*
X128826084Y-121765256D01*
X128654567Y-121593739D01*
X128654560Y-121593733D01*
X128462117Y-121446067D01*
X128462116Y-121446066D01*
X128462113Y-121446064D01*
X128252036Y-121324776D01*
X128252029Y-121324773D01*
X128027928Y-121231947D01*
X127793609Y-121169161D01*
X127553113Y-121137500D01*
X127553112Y-121137500D01*
X127310536Y-121137500D01*
X127310535Y-121137500D01*
X127070038Y-121169161D01*
X126835719Y-121231947D01*
X126611618Y-121324773D01*
X126611609Y-121324777D01*
X126401530Y-121446067D01*
X126209087Y-121593733D01*
X126209080Y-121593739D01*
X126037563Y-121765256D01*
X126037557Y-121765263D01*
X125889891Y-121957706D01*
X125768601Y-122167785D01*
X125768597Y-122167794D01*
X125675771Y-122391895D01*
X125612985Y-122626214D01*
X125581324Y-122866711D01*
X91051392Y-122866711D01*
X91020296Y-122743915D01*
X90920573Y-122516569D01*
X90784790Y-122308738D01*
X90616651Y-122126090D01*
X90420742Y-121973609D01*
X90320566Y-121919396D01*
X90202409Y-121855452D01*
X90202403Y-121855450D01*
X89967606Y-121774844D01*
X89804357Y-121747602D01*
X89722734Y-121733982D01*
X89474478Y-121733982D01*
X89413260Y-121744197D01*
X89229605Y-121774844D01*
X88994808Y-121855450D01*
X88994802Y-121855452D01*
X88776468Y-121973610D01*
X88580563Y-122126088D01*
X88412423Y-122308736D01*
X88412420Y-122308740D01*
X88276639Y-122516567D01*
X88176915Y-122743916D01*
X88115972Y-122984577D01*
X88095472Y-123231976D01*
X55226348Y-123231976D01*
X55242500Y-123109288D01*
X55242500Y-122866712D01*
X55210838Y-122626211D01*
X55148054Y-122391900D01*
X55055224Y-122167788D01*
X54933936Y-121957711D01*
X54786265Y-121765262D01*
X54786260Y-121765256D01*
X54614743Y-121593739D01*
X54614736Y-121593733D01*
X54422293Y-121446067D01*
X54422292Y-121446066D01*
X54422289Y-121446064D01*
X54212212Y-121324776D01*
X54212205Y-121324773D01*
X53988104Y-121231947D01*
X53753785Y-121169161D01*
X53513289Y-121137500D01*
X53513288Y-121137500D01*
X53270712Y-121137500D01*
X53270711Y-121137500D01*
X53030214Y-121169161D01*
X52795895Y-121231947D01*
X52571794Y-121324773D01*
X52571785Y-121324777D01*
X52361706Y-121446067D01*
X52169263Y-121593733D01*
X52169256Y-121593739D01*
X51997739Y-121765256D01*
X51997733Y-121765263D01*
X51850067Y-121957706D01*
X51728777Y-122167785D01*
X51728773Y-122167794D01*
X51635947Y-122391895D01*
X51573161Y-122626214D01*
X51541500Y-122866711D01*
X50590503Y-122866711D01*
X50590584Y-118531976D01*
X88095472Y-118531976D01*
X88095472Y-118531987D01*
X88115972Y-118779386D01*
X88176915Y-119020047D01*
X88276639Y-119247396D01*
X88412420Y-119455223D01*
X88412422Y-119455226D01*
X88580561Y-119637874D01*
X88776470Y-119790355D01*
X88994804Y-119908512D01*
X89229608Y-119989120D01*
X89474478Y-120029982D01*
X89474479Y-120029982D01*
X89722733Y-120029982D01*
X89722734Y-120029982D01*
X89967604Y-119989120D01*
X90202408Y-119908512D01*
X90420742Y-119790355D01*
X90616651Y-119637874D01*
X90784790Y-119455226D01*
X90920573Y-119247395D01*
X91020296Y-119020049D01*
X91081239Y-118779390D01*
X91101740Y-118531982D01*
X91081239Y-118284574D01*
X91020296Y-118043915D01*
X90920573Y-117816569D01*
X90784790Y-117608738D01*
X90616651Y-117426090D01*
X90420742Y-117273609D01*
X90320566Y-117219396D01*
X90202409Y-117155452D01*
X90202403Y-117155450D01*
X89967606Y-117074844D01*
X89804357Y-117047602D01*
X89722734Y-117033982D01*
X89474478Y-117033982D01*
X89413260Y-117044197D01*
X89229605Y-117074844D01*
X88994808Y-117155450D01*
X88994802Y-117155452D01*
X88776468Y-117273610D01*
X88580563Y-117426088D01*
X88412423Y-117608736D01*
X88412420Y-117608740D01*
X88276639Y-117816567D01*
X88176915Y-118043916D01*
X88115972Y-118284577D01*
X88095472Y-118531976D01*
X50590584Y-118531976D01*
X50590631Y-116055712D01*
X103808106Y-116055712D01*
X103808106Y-117664251D01*
X103810959Y-117694681D01*
X103810959Y-117694683D01*
X103853610Y-117816569D01*
X103855813Y-117822864D01*
X103936456Y-117932132D01*
X104045724Y-118012775D01*
X104088451Y-118027726D01*
X104173905Y-118057628D01*
X104204336Y-118060482D01*
X104204340Y-118060482D01*
X105512876Y-118060482D01*
X105543305Y-118057628D01*
X105543307Y-118057628D01*
X105607396Y-118035201D01*
X105671488Y-118012775D01*
X105780756Y-117932132D01*
X105861399Y-117822864D01*
X105883825Y-117758772D01*
X105906252Y-117694683D01*
X105906252Y-117694681D01*
X105909106Y-117664251D01*
X105909106Y-116055712D01*
X112444106Y-116055712D01*
X112444106Y-117664251D01*
X112446959Y-117694681D01*
X112446959Y-117694683D01*
X112489610Y-117816569D01*
X112491813Y-117822864D01*
X112572456Y-117932132D01*
X112681724Y-118012775D01*
X112724451Y-118027726D01*
X112809905Y-118057628D01*
X112840336Y-118060482D01*
X112840340Y-118060482D01*
X114148876Y-118060482D01*
X114179305Y-118057628D01*
X114179307Y-118057628D01*
X114243396Y-118035201D01*
X114307488Y-118012775D01*
X114416756Y-117932132D01*
X114497399Y-117822864D01*
X114519825Y-117758772D01*
X114542252Y-117694683D01*
X114542252Y-117694681D01*
X114545106Y-117664251D01*
X114545106Y-116055712D01*
X114542252Y-116025282D01*
X114542252Y-116025280D01*
X114497399Y-115897101D01*
X114497398Y-115897099D01*
X114416756Y-115787832D01*
X114307488Y-115707189D01*
X114307486Y-115707188D01*
X114179306Y-115662335D01*
X114148876Y-115659482D01*
X114148872Y-115659482D01*
X112840340Y-115659482D01*
X112840336Y-115659482D01*
X112809906Y-115662335D01*
X112809904Y-115662335D01*
X112681725Y-115707188D01*
X112681723Y-115707189D01*
X112572456Y-115787832D01*
X112491813Y-115897099D01*
X112491812Y-115897101D01*
X112446959Y-116025280D01*
X112446959Y-116025282D01*
X112444106Y-116055712D01*
X105909106Y-116055712D01*
X105906252Y-116025282D01*
X105906252Y-116025280D01*
X105861399Y-115897101D01*
X105861398Y-115897099D01*
X105780756Y-115787832D01*
X105671488Y-115707189D01*
X105671486Y-115707188D01*
X105543306Y-115662335D01*
X105512876Y-115659482D01*
X105512872Y-115659482D01*
X104204340Y-115659482D01*
X104204336Y-115659482D01*
X104173906Y-115662335D01*
X104173904Y-115662335D01*
X104045725Y-115707188D01*
X104045723Y-115707189D01*
X103936456Y-115787832D01*
X103855813Y-115897099D01*
X103855812Y-115897101D01*
X103810959Y-116025280D01*
X103810959Y-116025282D01*
X103808106Y-116055712D01*
X50590631Y-116055712D01*
X50590675Y-113705976D01*
X51263472Y-113705976D01*
X51263472Y-113705987D01*
X51283972Y-113953386D01*
X51344915Y-114194047D01*
X51444639Y-114421396D01*
X51580420Y-114629223D01*
X51580422Y-114629226D01*
X51748561Y-114811874D01*
X51944470Y-114964355D01*
X52144822Y-115072780D01*
X52161327Y-115081713D01*
X52162804Y-115082512D01*
X52397608Y-115163120D01*
X52642478Y-115203982D01*
X52642479Y-115203982D01*
X52890733Y-115203982D01*
X52890734Y-115203982D01*
X53135604Y-115163120D01*
X53370408Y-115082512D01*
X53588742Y-114964355D01*
X53784651Y-114811874D01*
X53952790Y-114629226D01*
X54088573Y-114421395D01*
X54188296Y-114194049D01*
X54249239Y-113953390D01*
X54269740Y-113705982D01*
X54249239Y-113458574D01*
X54188296Y-113217915D01*
X54088573Y-112990569D01*
X53952790Y-112782738D01*
X53784651Y-112600090D01*
X53588742Y-112447609D01*
X53479951Y-112388734D01*
X53370409Y-112329452D01*
X53370403Y-112329450D01*
X53135606Y-112248844D01*
X52960434Y-112219613D01*
X52890734Y-112207982D01*
X52642478Y-112207982D01*
X52581260Y-112218197D01*
X52397605Y-112248844D01*
X52162808Y-112329450D01*
X52162802Y-112329452D01*
X51944468Y-112447610D01*
X51748563Y-112600088D01*
X51580423Y-112782736D01*
X51580420Y-112782740D01*
X51444639Y-112990567D01*
X51344915Y-113217916D01*
X51283972Y-113458577D01*
X51263472Y-113705976D01*
X50590675Y-113705976D01*
X50591407Y-74589981D01*
X53055006Y-74589981D01*
X53055006Y-74589982D01*
X53075362Y-74809672D01*
X53075363Y-74809674D01*
X53135740Y-75021878D01*
X53135746Y-75021893D01*
X53234086Y-75219384D01*
X53367047Y-75395453D01*
X53530096Y-75544091D01*
X53717681Y-75660239D01*
X53923415Y-75739941D01*
X54140290Y-75780482D01*
X54140292Y-75780482D01*
X54360920Y-75780482D01*
X54360922Y-75780482D01*
X54577797Y-75739941D01*
X54783531Y-75660239D01*
X54913828Y-75579561D01*
X54981189Y-75561006D01*
X55047888Y-75581814D01*
X55092750Y-75635379D01*
X55103106Y-75684989D01*
X55103106Y-96354974D01*
X55083421Y-96422013D01*
X55030617Y-96467768D01*
X54961459Y-96477712D01*
X54913829Y-96460401D01*
X54783537Y-96379728D01*
X54783530Y-96379724D01*
X54712517Y-96352214D01*
X54577797Y-96300023D01*
X54360922Y-96259482D01*
X54140290Y-96259482D01*
X53923415Y-96300023D01*
X53865968Y-96322277D01*
X53717681Y-96379724D01*
X53717679Y-96379725D01*
X53530100Y-96495870D01*
X53530098Y-96495871D01*
X53530096Y-96495873D01*
X53398106Y-96616197D01*
X53367046Y-96644512D01*
X53234086Y-96820579D01*
X53135746Y-97018070D01*
X53135740Y-97018085D01*
X53075363Y-97230289D01*
X53075362Y-97230291D01*
X53055006Y-97449981D01*
X53055006Y-97449982D01*
X53075362Y-97669672D01*
X53075363Y-97669674D01*
X53135740Y-97881878D01*
X53135746Y-97881893D01*
X53234086Y-98079384D01*
X53367047Y-98255453D01*
X53530096Y-98404091D01*
X53717681Y-98520239D01*
X53923415Y-98599941D01*
X54140290Y-98640482D01*
X54140292Y-98640482D01*
X54360920Y-98640482D01*
X54360922Y-98640482D01*
X54577797Y-98599941D01*
X54783531Y-98520239D01*
X54913828Y-98439561D01*
X54981189Y-98421006D01*
X55047888Y-98441814D01*
X55092750Y-98495379D01*
X55103106Y-98544989D01*
X55103106Y-114670620D01*
X55104284Y-114692600D01*
X55107117Y-114718947D01*
X55107118Y-114718949D01*
X55131076Y-114795460D01*
X55131077Y-114795465D01*
X55140038Y-114811875D01*
X55164562Y-114856787D01*
X55164564Y-114856790D01*
X55164566Y-114856793D01*
X55199604Y-114903597D01*
X55199608Y-114903601D01*
X55199615Y-114903611D01*
X55199619Y-114903615D01*
X55199622Y-114903618D01*
X55634971Y-115338968D01*
X55634972Y-115338969D01*
X55651322Y-115353656D01*
X55651336Y-115353668D01*
X55651344Y-115353675D01*
X55659742Y-115360442D01*
X55671985Y-115370309D01*
X55743030Y-115407472D01*
X55810062Y-115427155D01*
X55810064Y-115427155D01*
X55810070Y-115427157D01*
X55867968Y-115435482D01*
X55867972Y-115435482D01*
X59067245Y-115435482D01*
X59069786Y-115435345D01*
X59089213Y-115434304D01*
X59089220Y-115434303D01*
X59089224Y-115434303D01*
X59115571Y-115431470D01*
X59192088Y-115407511D01*
X59253411Y-115374026D01*
X59300235Y-115338973D01*
X59735597Y-114903611D01*
X59750299Y-114887244D01*
X59766933Y-114866602D01*
X59804096Y-114795557D01*
X59823781Y-114728518D01*
X59832106Y-114670620D01*
X59832106Y-112388729D01*
X60668606Y-112388729D01*
X60668606Y-115023234D01*
X60680237Y-115081711D01*
X60680238Y-115081712D01*
X60724553Y-115148034D01*
X60790875Y-115192349D01*
X60790876Y-115192350D01*
X60849353Y-115203981D01*
X60849356Y-115203982D01*
X60849358Y-115203982D01*
X63483856Y-115203982D01*
X63483857Y-115203981D01*
X63498674Y-115201034D01*
X63542335Y-115192350D01*
X63542335Y-115192349D01*
X63542337Y-115192349D01*
X63608658Y-115148034D01*
X63652973Y-115081713D01*
X63652973Y-115081711D01*
X63652974Y-115081711D01*
X63664605Y-115023234D01*
X63664606Y-115023232D01*
X63664606Y-112514729D01*
X88100606Y-112514729D01*
X88100606Y-115149234D01*
X88112237Y-115207711D01*
X88112238Y-115207712D01*
X88156553Y-115274034D01*
X88222875Y-115318349D01*
X88222876Y-115318350D01*
X88281353Y-115329981D01*
X88281356Y-115329982D01*
X88281358Y-115329982D01*
X90915856Y-115329982D01*
X90915857Y-115329981D01*
X90930674Y-115327034D01*
X90974335Y-115318350D01*
X90974335Y-115318349D01*
X90974337Y-115318349D01*
X91040658Y-115274034D01*
X91084973Y-115207713D01*
X91084973Y-115207711D01*
X91084974Y-115207711D01*
X91096605Y-115149234D01*
X91096606Y-115149232D01*
X91096606Y-112514731D01*
X91096605Y-112514729D01*
X91084974Y-112456252D01*
X91084973Y-112456251D01*
X91040658Y-112389929D01*
X90974336Y-112345614D01*
X90974335Y-112345613D01*
X90915858Y-112333982D01*
X90915854Y-112333982D01*
X88281358Y-112333982D01*
X88281353Y-112333982D01*
X88222876Y-112345613D01*
X88222875Y-112345614D01*
X88156553Y-112389929D01*
X88112238Y-112456251D01*
X88112237Y-112456252D01*
X88100606Y-112514729D01*
X63664606Y-112514729D01*
X63664606Y-112388731D01*
X63664605Y-112388729D01*
X63652974Y-112330252D01*
X63652973Y-112330251D01*
X63608658Y-112263929D01*
X63542336Y-112219614D01*
X63542335Y-112219613D01*
X63483858Y-112207982D01*
X63483854Y-112207982D01*
X60849358Y-112207982D01*
X60849353Y-112207982D01*
X60790876Y-112219613D01*
X60790875Y-112219614D01*
X60724553Y-112263929D01*
X60680238Y-112330251D01*
X60680237Y-112330252D01*
X60668606Y-112388729D01*
X59832106Y-112388729D01*
X59832106Y-89447230D01*
X61045106Y-89447230D01*
X61045106Y-89712733D01*
X61045107Y-89712749D01*
X61079762Y-89975983D01*
X61148485Y-90232460D01*
X61250087Y-90477750D01*
X61250095Y-90477767D01*
X61382846Y-90707696D01*
X61382857Y-90707712D01*
X61544485Y-90918350D01*
X61544491Y-90918357D01*
X61732230Y-91106096D01*
X61732236Y-91106101D01*
X61942884Y-91267737D01*
X61942891Y-91267741D01*
X62172820Y-91400492D01*
X62172825Y-91400494D01*
X62172828Y-91400496D01*
X62172832Y-91400497D01*
X62172837Y-91400500D01*
X62418128Y-91502102D01*
X62418126Y-91502102D01*
X62418132Y-91502103D01*
X62418133Y-91502104D01*
X62674603Y-91570825D01*
X62937848Y-91605482D01*
X62937855Y-91605482D01*
X63203357Y-91605482D01*
X63203364Y-91605482D01*
X63466609Y-91570825D01*
X63723079Y-91502104D01*
X63968384Y-91400496D01*
X64198328Y-91267737D01*
X64408976Y-91106101D01*
X64596725Y-90918352D01*
X64758361Y-90707704D01*
X64891120Y-90477760D01*
X64992728Y-90232455D01*
X65061449Y-89975985D01*
X65096106Y-89712740D01*
X65096106Y-89447224D01*
X65061449Y-89183979D01*
X64992728Y-88927509D01*
X64949180Y-88822375D01*
X64891124Y-88682213D01*
X64891116Y-88682196D01*
X64758365Y-88452267D01*
X64758361Y-88452260D01*
X64596725Y-88241612D01*
X64596720Y-88241606D01*
X64408981Y-88053867D01*
X64408974Y-88053861D01*
X64198336Y-87892233D01*
X64198334Y-87892231D01*
X64198328Y-87892227D01*
X64198323Y-87892224D01*
X64198320Y-87892222D01*
X63968391Y-87759471D01*
X63968374Y-87759463D01*
X63723083Y-87657861D01*
X63723085Y-87657861D01*
X63466607Y-87589138D01*
X63203373Y-87554483D01*
X63203370Y-87554482D01*
X63203364Y-87554482D01*
X62937848Y-87554482D01*
X62937842Y-87554482D01*
X62937838Y-87554483D01*
X62674604Y-87589138D01*
X62418127Y-87657861D01*
X62172837Y-87759463D01*
X62172820Y-87759471D01*
X61942891Y-87892222D01*
X61942875Y-87892233D01*
X61732237Y-88053861D01*
X61732230Y-88053867D01*
X61544491Y-88241606D01*
X61544485Y-88241613D01*
X61382857Y-88452251D01*
X61382846Y-88452267D01*
X61250095Y-88682196D01*
X61250087Y-88682213D01*
X61148485Y-88927503D01*
X61079762Y-89183980D01*
X61045107Y-89447214D01*
X61045106Y-89447230D01*
X59832106Y-89447230D01*
X59832106Y-66587230D01*
X61045106Y-66587230D01*
X61045106Y-66852733D01*
X61045107Y-66852749D01*
X61079762Y-67115983D01*
X61148485Y-67372460D01*
X61250087Y-67617750D01*
X61250095Y-67617767D01*
X61382846Y-67847696D01*
X61382857Y-67847712D01*
X61544485Y-68058350D01*
X61544491Y-68058357D01*
X61732230Y-68246096D01*
X61732236Y-68246101D01*
X61942884Y-68407737D01*
X61942891Y-68407741D01*
X62172820Y-68540492D01*
X62172825Y-68540494D01*
X62172828Y-68540496D01*
X62172832Y-68540497D01*
X62172837Y-68540500D01*
X62418128Y-68642102D01*
X62418126Y-68642102D01*
X62418132Y-68642103D01*
X62418133Y-68642104D01*
X62674603Y-68710825D01*
X62937848Y-68745482D01*
X62937855Y-68745482D01*
X63203357Y-68745482D01*
X63203364Y-68745482D01*
X63466609Y-68710825D01*
X63723079Y-68642104D01*
X63968384Y-68540496D01*
X64198328Y-68407737D01*
X64408976Y-68246101D01*
X64596725Y-68058352D01*
X64758361Y-67847704D01*
X64891120Y-67617760D01*
X64992728Y-67372455D01*
X65061449Y-67115985D01*
X65096106Y-66852740D01*
X65096106Y-66587224D01*
X65061449Y-66323979D01*
X64992728Y-66067509D01*
X64949180Y-65962375D01*
X64891124Y-65822213D01*
X64891116Y-65822196D01*
X64758365Y-65592267D01*
X64758361Y-65592260D01*
X64596725Y-65381612D01*
X64596720Y-65381606D01*
X64408981Y-65193867D01*
X64408974Y-65193861D01*
X64198336Y-65032233D01*
X64198334Y-65032231D01*
X64198328Y-65032227D01*
X64198323Y-65032224D01*
X64198320Y-65032222D01*
X63968391Y-64899471D01*
X63968374Y-64899463D01*
X63723083Y-64797861D01*
X63723085Y-64797861D01*
X63466607Y-64729138D01*
X63203373Y-64694483D01*
X63203370Y-64694482D01*
X63203364Y-64694482D01*
X62937848Y-64694482D01*
X62937842Y-64694482D01*
X62937838Y-64694483D01*
X62674604Y-64729138D01*
X62418127Y-64797861D01*
X62172837Y-64899463D01*
X62172820Y-64899471D01*
X61942891Y-65032222D01*
X61942875Y-65032233D01*
X61732237Y-65193861D01*
X61732230Y-65193867D01*
X61544491Y-65381606D01*
X61544485Y-65381613D01*
X61382857Y-65592251D01*
X61382846Y-65592267D01*
X61250095Y-65822196D01*
X61250087Y-65822213D01*
X61148485Y-66067503D01*
X61079762Y-66323980D01*
X61045107Y-66587214D01*
X61045106Y-66587230D01*
X59832106Y-66587230D01*
X59832106Y-61518463D01*
X59851791Y-61451424D01*
X59868425Y-61430782D01*
X60183406Y-61115801D01*
X60244729Y-61082316D01*
X60271087Y-61079482D01*
X60845245Y-61079482D01*
X60847786Y-61079345D01*
X60867213Y-61078304D01*
X60867220Y-61078303D01*
X60867224Y-61078303D01*
X60893571Y-61075470D01*
X60970088Y-61051511D01*
X61031411Y-61018026D01*
X61078235Y-60982973D01*
X61513597Y-60547611D01*
X61528299Y-60531244D01*
X61544933Y-60510602D01*
X61582096Y-60439557D01*
X61601781Y-60372518D01*
X61610106Y-60314620D01*
X61610106Y-59221947D01*
X61629791Y-59154908D01*
X61682595Y-59109153D01*
X61751753Y-59099209D01*
X61815309Y-59128234D01*
X61821787Y-59134266D01*
X71585787Y-68898266D01*
X71619272Y-68959589D01*
X71622106Y-68985947D01*
X71622106Y-90906488D01*
X71620844Y-90924134D01*
X71617473Y-90947581D01*
X71620844Y-90971027D01*
X71622106Y-90988674D01*
X71622106Y-91922488D01*
X71620844Y-91940134D01*
X71617473Y-91963581D01*
X71620844Y-91987027D01*
X71622106Y-92004674D01*
X71622106Y-92938488D01*
X71620844Y-92956134D01*
X71617473Y-92979581D01*
X71620844Y-93003027D01*
X71622106Y-93020674D01*
X71622106Y-102081290D01*
X71646318Y-102171654D01*
X71652806Y-102195867D01*
X71652806Y-102195868D01*
X71652807Y-102195869D01*
X71712117Y-102298596D01*
X74335992Y-104922471D01*
X74335993Y-104922472D01*
X74335995Y-104922473D01*
X74395299Y-104956711D01*
X74395302Y-104956714D01*
X74429543Y-104976482D01*
X74438720Y-104981781D01*
X74553297Y-105012482D01*
X87301297Y-105012482D01*
X100536641Y-105012482D01*
X100603680Y-105032167D01*
X100624322Y-105048801D01*
X101557787Y-105982266D01*
X101591272Y-106043589D01*
X101594106Y-106069947D01*
X101594106Y-106806888D01*
X101592844Y-106824534D01*
X101589473Y-106847981D01*
X101592844Y-106871427D01*
X101594106Y-106889074D01*
X101594106Y-107822888D01*
X101592844Y-107840534D01*
X101589473Y-107863981D01*
X101592844Y-107887427D01*
X101594106Y-107905074D01*
X101594106Y-107923292D01*
X101600597Y-107947519D01*
X101603558Y-107961958D01*
X101607907Y-107992204D01*
X101607908Y-107992207D01*
X101614892Y-108007500D01*
X101621870Y-108026909D01*
X101621873Y-108026922D01*
X101624807Y-108037868D01*
X101640776Y-108065527D01*
X101646180Y-108076009D01*
X101661724Y-108110045D01*
X101668218Y-108117540D01*
X101681897Y-108136749D01*
X101684116Y-108140594D01*
X101711526Y-108168004D01*
X101717558Y-108174482D01*
X101746557Y-108207949D01*
X101749091Y-108209577D01*
X101761503Y-108219580D01*
X101761547Y-108219524D01*
X101767987Y-108224465D01*
X101767993Y-108224471D01*
X101807477Y-108247267D01*
X101807484Y-108247271D01*
X101812524Y-108250343D01*
X101855536Y-108277986D01*
X101856832Y-108278577D01*
X101865777Y-108281733D01*
X101870713Y-108283777D01*
X101870720Y-108283781D01*
X101919546Y-108296863D01*
X101921384Y-108297356D01*
X101924186Y-108298142D01*
X101979834Y-108314482D01*
X102109378Y-108314482D01*
X102165032Y-108298139D01*
X102167849Y-108297350D01*
X102218492Y-108283781D01*
X102218498Y-108283777D01*
X102223427Y-108281736D01*
X102232374Y-108278579D01*
X102233668Y-108277987D01*
X102233675Y-108277986D01*
X102276720Y-108250321D01*
X102281692Y-108247291D01*
X102321219Y-108224471D01*
X102321224Y-108224465D01*
X102327674Y-108219518D01*
X102327717Y-108219575D01*
X102340131Y-108209570D01*
X102342655Y-108207949D01*
X102371660Y-108174473D01*
X102377666Y-108168022D01*
X102405095Y-108140595D01*
X102407314Y-108136749D01*
X102420997Y-108117535D01*
X102427488Y-108110045D01*
X102443034Y-108076000D01*
X102448428Y-108065537D01*
X102464405Y-108037868D01*
X102467340Y-108026913D01*
X102474321Y-108007495D01*
X102481303Y-107992208D01*
X102485652Y-107961958D01*
X102488613Y-107947519D01*
X102495106Y-107923291D01*
X102495106Y-107905074D01*
X102496368Y-107887427D01*
X102499739Y-107863981D01*
X102496368Y-107840534D01*
X102495106Y-107822888D01*
X102495106Y-106889074D01*
X102496368Y-106871427D01*
X102499739Y-106847981D01*
X102496368Y-106824534D01*
X102495106Y-106806888D01*
X102495106Y-105873074D01*
X102496368Y-105855427D01*
X102499739Y-105831981D01*
X102496368Y-105808534D01*
X102495106Y-105790888D01*
X102495106Y-105772674D01*
X102495106Y-105772673D01*
X102488610Y-105748433D01*
X102485650Y-105733995D01*
X102481303Y-105703758D01*
X102481301Y-105703750D01*
X102474321Y-105688467D01*
X102467339Y-105669046D01*
X102464405Y-105658096D01*
X102464405Y-105658095D01*
X102448427Y-105630421D01*
X102443032Y-105619957D01*
X102427488Y-105585919D01*
X102420992Y-105578422D01*
X102407320Y-105559223D01*
X102405095Y-105555368D01*
X102377679Y-105527952D01*
X102371646Y-105521473D01*
X102342656Y-105488016D01*
X102342654Y-105488014D01*
X102340117Y-105486384D01*
X102319478Y-105469751D01*
X102036957Y-105187230D01*
X116245106Y-105187230D01*
X116245106Y-105452733D01*
X116245107Y-105452749D01*
X116279762Y-105715983D01*
X116348485Y-105972460D01*
X116450087Y-106217750D01*
X116450095Y-106217767D01*
X116582846Y-106447696D01*
X116582857Y-106447712D01*
X116744485Y-106658350D01*
X116744491Y-106658357D01*
X116932230Y-106846096D01*
X116932236Y-106846101D01*
X117142884Y-107007737D01*
X117142891Y-107007741D01*
X117372820Y-107140492D01*
X117372825Y-107140494D01*
X117372828Y-107140496D01*
X117372832Y-107140497D01*
X117372837Y-107140500D01*
X117618128Y-107242102D01*
X117618126Y-107242102D01*
X117618132Y-107242103D01*
X117618133Y-107242104D01*
X117874603Y-107310825D01*
X118137848Y-107345482D01*
X118137855Y-107345482D01*
X118403357Y-107345482D01*
X118403364Y-107345482D01*
X118666609Y-107310825D01*
X118923079Y-107242104D01*
X119168384Y-107140496D01*
X119398328Y-107007737D01*
X119608976Y-106846101D01*
X119796725Y-106658352D01*
X119958361Y-106447704D01*
X120091120Y-106217760D01*
X120192728Y-105972455D01*
X120261449Y-105715985D01*
X120296106Y-105452740D01*
X120296106Y-105187224D01*
X120261449Y-104923979D01*
X120192728Y-104667509D01*
X120091120Y-104422204D01*
X120091118Y-104422201D01*
X120091116Y-104422196D01*
X119958365Y-104192267D01*
X119958361Y-104192260D01*
X119796725Y-103981612D01*
X119796720Y-103981606D01*
X119608981Y-103793867D01*
X119608974Y-103793861D01*
X119398336Y-103632233D01*
X119398334Y-103632231D01*
X119398328Y-103632227D01*
X119398323Y-103632224D01*
X119398320Y-103632222D01*
X119168391Y-103499471D01*
X119168374Y-103499463D01*
X118923083Y-103397861D01*
X118923085Y-103397861D01*
X118666607Y-103329138D01*
X118403373Y-103294483D01*
X118403370Y-103294482D01*
X118403364Y-103294482D01*
X118137848Y-103294482D01*
X118137842Y-103294482D01*
X118137838Y-103294483D01*
X117874604Y-103329138D01*
X117618127Y-103397861D01*
X117372837Y-103499463D01*
X117372820Y-103499471D01*
X117142891Y-103632222D01*
X117142875Y-103632233D01*
X116932237Y-103793861D01*
X116932230Y-103793867D01*
X116744491Y-103981606D01*
X116744485Y-103981613D01*
X116582857Y-104192251D01*
X116582846Y-104192267D01*
X116450095Y-104422196D01*
X116450087Y-104422213D01*
X116348485Y-104667503D01*
X116279762Y-104923980D01*
X116245107Y-105187214D01*
X116245106Y-105187230D01*
X102036957Y-105187230D01*
X101051222Y-104201495D01*
X101051220Y-104201493D01*
X100999856Y-104171838D01*
X100948494Y-104142183D01*
X100936386Y-104138939D01*
X100924279Y-104135695D01*
X100924276Y-104135694D01*
X100886084Y-104125460D01*
X100833915Y-104111482D01*
X100833914Y-104111482D01*
X74850571Y-104111482D01*
X74783532Y-104091797D01*
X74762890Y-104075163D01*
X72559425Y-101871698D01*
X72525940Y-101810375D01*
X72523106Y-101784017D01*
X72523106Y-97449981D01*
X125275006Y-97449981D01*
X125275006Y-97449982D01*
X125295362Y-97669672D01*
X125295363Y-97669674D01*
X125355740Y-97881878D01*
X125355746Y-97881893D01*
X125454086Y-98079384D01*
X125587047Y-98255453D01*
X125750096Y-98404091D01*
X125937681Y-98520239D01*
X126143415Y-98599941D01*
X126360290Y-98640482D01*
X126360292Y-98640482D01*
X126580920Y-98640482D01*
X126580922Y-98640482D01*
X126797797Y-98599941D01*
X127003531Y-98520239D01*
X127191116Y-98404091D01*
X127354165Y-98255453D01*
X127487126Y-98079384D01*
X127585470Y-97881883D01*
X127645849Y-97669673D01*
X127666206Y-97449982D01*
X127645849Y-97230291D01*
X127585470Y-97018081D01*
X127487126Y-96820580D01*
X127354165Y-96644511D01*
X127191116Y-96495873D01*
X127133827Y-96460401D01*
X127003532Y-96379725D01*
X127003530Y-96379724D01*
X126932517Y-96352214D01*
X126797797Y-96300023D01*
X126580922Y-96259482D01*
X126360290Y-96259482D01*
X126143415Y-96300023D01*
X126085968Y-96322277D01*
X125937681Y-96379724D01*
X125937679Y-96379725D01*
X125750100Y-96495870D01*
X125750098Y-96495871D01*
X125750096Y-96495873D01*
X125618106Y-96616197D01*
X125587046Y-96644512D01*
X125454086Y-96820579D01*
X125355746Y-97018070D01*
X125355740Y-97018085D01*
X125295363Y-97230289D01*
X125295362Y-97230291D01*
X125275006Y-97449981D01*
X72523106Y-97449981D01*
X72523106Y-93020674D01*
X72524368Y-93003027D01*
X72527739Y-92979581D01*
X72524368Y-92956134D01*
X72523106Y-92938488D01*
X72523106Y-92004674D01*
X72524368Y-91987027D01*
X72527739Y-91963581D01*
X72524368Y-91940134D01*
X72523106Y-91922488D01*
X72523106Y-90988674D01*
X72524368Y-90971027D01*
X72527739Y-90947581D01*
X72524368Y-90924134D01*
X72523106Y-90906488D01*
X72523106Y-68688675D01*
X72523106Y-68688673D01*
X72492405Y-68574096D01*
X72492405Y-68574095D01*
X72433095Y-68471368D01*
X60757425Y-56795698D01*
X60723940Y-56734375D01*
X60721106Y-56708017D01*
X60721106Y-56429712D01*
X60718252Y-56399282D01*
X60718252Y-56399280D01*
X60673399Y-56271101D01*
X60673398Y-56271099D01*
X60592756Y-56161832D01*
X60483488Y-56081189D01*
X60483486Y-56081188D01*
X60355306Y-56036335D01*
X60324876Y-56033482D01*
X60324872Y-56033482D01*
X58716340Y-56033482D01*
X58716336Y-56033482D01*
X58685906Y-56036335D01*
X58685904Y-56036335D01*
X58557725Y-56081188D01*
X58557723Y-56081189D01*
X58448456Y-56161832D01*
X58367813Y-56271099D01*
X58367812Y-56271101D01*
X58322959Y-56399280D01*
X58322959Y-56399282D01*
X58320106Y-56429712D01*
X58320106Y-57738251D01*
X58322959Y-57768681D01*
X58322959Y-57768683D01*
X58367812Y-57896862D01*
X58367813Y-57896864D01*
X58448456Y-58006132D01*
X58557724Y-58086775D01*
X58600451Y-58101726D01*
X58685905Y-58131628D01*
X58701123Y-58133055D01*
X58716340Y-58134482D01*
X58716342Y-58134482D01*
X58719236Y-58134618D01*
X58785283Y-58157414D01*
X58828520Y-58212299D01*
X58835220Y-58281846D01*
X58803256Y-58343976D01*
X58742777Y-58378962D01*
X58713441Y-58382482D01*
X55867967Y-58382482D01*
X55845987Y-58383660D01*
X55819640Y-58386493D01*
X55819638Y-58386494D01*
X55743127Y-58410452D01*
X55743122Y-58410453D01*
X55681794Y-58443942D01*
X55634990Y-58478980D01*
X55634969Y-58478998D01*
X55199619Y-58914347D01*
X55199618Y-58914348D01*
X55184931Y-58930698D01*
X55184919Y-58930712D01*
X55168278Y-58951361D01*
X55131115Y-59022406D01*
X55111432Y-59089438D01*
X55111431Y-59089446D01*
X55104987Y-59134266D01*
X55103106Y-59147347D01*
X55103106Y-73494974D01*
X55083421Y-73562013D01*
X55030617Y-73607768D01*
X54961459Y-73617712D01*
X54913829Y-73600401D01*
X54783537Y-73519728D01*
X54783530Y-73519724D01*
X54712517Y-73492214D01*
X54577797Y-73440023D01*
X54360922Y-73399482D01*
X54140290Y-73399482D01*
X53923415Y-73440023D01*
X53865968Y-73462277D01*
X53717681Y-73519724D01*
X53717679Y-73519725D01*
X53530100Y-73635870D01*
X53530098Y-73635871D01*
X53530096Y-73635873D01*
X53398106Y-73756197D01*
X53367046Y-73784512D01*
X53234086Y-73960579D01*
X53135746Y-74158070D01*
X53135740Y-74158085D01*
X53075363Y-74370289D01*
X53075362Y-74370291D01*
X53055006Y-74589981D01*
X50591407Y-74589981D01*
X50591836Y-51709982D01*
X65205023Y-51709982D01*
X65225305Y-51915914D01*
X65225306Y-51915916D01*
X65285374Y-52113936D01*
X65382921Y-52296432D01*
X65382923Y-52296434D01*
X65514195Y-52456392D01*
X65610815Y-52535684D01*
X65674156Y-52587667D01*
X65856652Y-52685214D01*
X66054672Y-52745282D01*
X66054671Y-52745282D01*
X66073135Y-52747100D01*
X66260606Y-52765565D01*
X66466540Y-52745282D01*
X66664560Y-52685214D01*
X66847056Y-52587667D01*
X67007016Y-52456392D01*
X67138291Y-52296432D01*
X67235838Y-52113936D01*
X67295906Y-51915916D01*
X67316189Y-51709982D01*
X67745023Y-51709982D01*
X67765305Y-51915914D01*
X67765306Y-51915916D01*
X67825374Y-52113936D01*
X67922921Y-52296432D01*
X67922923Y-52296434D01*
X68054195Y-52456392D01*
X68150815Y-52535684D01*
X68214156Y-52587667D01*
X68396652Y-52685214D01*
X68594672Y-52745282D01*
X68594671Y-52745282D01*
X68613135Y-52747100D01*
X68800606Y-52765565D01*
X69006540Y-52745282D01*
X69204560Y-52685214D01*
X69387056Y-52587667D01*
X69547016Y-52456392D01*
X69678291Y-52296432D01*
X69775838Y-52113936D01*
X69835906Y-51915916D01*
X69856189Y-51709982D01*
X69835906Y-51504048D01*
X69775838Y-51306028D01*
X69678291Y-51123532D01*
X69626308Y-51060191D01*
X69547016Y-50963571D01*
X69387058Y-50832299D01*
X69387059Y-50832299D01*
X69387056Y-50832297D01*
X69204560Y-50734750D01*
X69006540Y-50674682D01*
X69006538Y-50674681D01*
X69006540Y-50674681D01*
X68800606Y-50654399D01*
X68594673Y-50674681D01*
X68396649Y-50734751D01*
X68324349Y-50773397D01*
X68214156Y-50832297D01*
X68214154Y-50832298D01*
X68214153Y-50832299D01*
X68054195Y-50963571D01*
X67922923Y-51123529D01*
X67825375Y-51306025D01*
X67765305Y-51504049D01*
X67745023Y-51709982D01*
X67316189Y-51709982D01*
X67295906Y-51504048D01*
X67235838Y-51306028D01*
X67138291Y-51123532D01*
X67086308Y-51060191D01*
X67007016Y-50963571D01*
X66847058Y-50832299D01*
X66847059Y-50832299D01*
X66847056Y-50832297D01*
X66664560Y-50734750D01*
X66466540Y-50674682D01*
X66466538Y-50674681D01*
X66466540Y-50674681D01*
X66260606Y-50654399D01*
X66054673Y-50674681D01*
X65856649Y-50734751D01*
X65784349Y-50773397D01*
X65674156Y-50832297D01*
X65674154Y-50832298D01*
X65674153Y-50832299D01*
X65514195Y-50963571D01*
X65382923Y-51123529D01*
X65285375Y-51306025D01*
X65225305Y-51504049D01*
X65205023Y-51709982D01*
X50591836Y-51709982D01*
X50591885Y-49077984D01*
X50591888Y-49077967D01*
X50591888Y-49003738D01*
X50592083Y-48996786D01*
X50600382Y-48849006D01*
X51541500Y-48849006D01*
X51541500Y-49091583D01*
X51573161Y-49332080D01*
X51635947Y-49566399D01*
X51726887Y-49785947D01*
X51728776Y-49790507D01*
X51850064Y-50000584D01*
X51850066Y-50000587D01*
X51850067Y-50000588D01*
X51997733Y-50193031D01*
X51997739Y-50193038D01*
X52169256Y-50364555D01*
X52169262Y-50364560D01*
X52361711Y-50512231D01*
X52571788Y-50633519D01*
X52795900Y-50726349D01*
X53030211Y-50789133D01*
X53210586Y-50812879D01*
X53270711Y-50820795D01*
X53270712Y-50820795D01*
X53513289Y-50820795D01*
X53561388Y-50814462D01*
X53753789Y-50789133D01*
X53988100Y-50726349D01*
X54212212Y-50633519D01*
X54422289Y-50512231D01*
X54614738Y-50364560D01*
X54786265Y-50193033D01*
X54933936Y-50000584D01*
X55055224Y-49790507D01*
X55148054Y-49566395D01*
X55210838Y-49332084D01*
X55242500Y-49091583D01*
X55242500Y-48849007D01*
X55210838Y-48608506D01*
X55148054Y-48374195D01*
X55117416Y-48300229D01*
X65210106Y-48300229D01*
X65210106Y-50039734D01*
X65221737Y-50098211D01*
X65221738Y-50098212D01*
X65266053Y-50164534D01*
X65332375Y-50208849D01*
X65332376Y-50208850D01*
X65390853Y-50220481D01*
X65390856Y-50220482D01*
X65390858Y-50220482D01*
X67130356Y-50220482D01*
X67130357Y-50220481D01*
X67145174Y-50217534D01*
X67188835Y-50208850D01*
X67188835Y-50208849D01*
X67188837Y-50208849D01*
X67255158Y-50164534D01*
X67299473Y-50098213D01*
X67299473Y-50098211D01*
X67299474Y-50098211D01*
X67311105Y-50039734D01*
X67311106Y-50039732D01*
X67311106Y-49169982D01*
X67745023Y-49169982D01*
X67765305Y-49375914D01*
X67765306Y-49375916D01*
X67825374Y-49573936D01*
X67922921Y-49756432D01*
X67950887Y-49790509D01*
X68054195Y-49916392D01*
X68121012Y-49971226D01*
X68214156Y-50047667D01*
X68396652Y-50145214D01*
X68594672Y-50205282D01*
X68594671Y-50205282D01*
X68613135Y-50207100D01*
X68800606Y-50225565D01*
X69006540Y-50205282D01*
X69204560Y-50145214D01*
X69387056Y-50047667D01*
X69547016Y-49916392D01*
X69620252Y-49827152D01*
X69677998Y-49787818D01*
X69747842Y-49785947D01*
X69807611Y-49822134D01*
X69838327Y-49884890D01*
X69840106Y-49905817D01*
X69840106Y-50577834D01*
X69862288Y-50660622D01*
X69870406Y-50674682D01*
X69905141Y-50734844D01*
X69905143Y-50734846D01*
X70339284Y-51168987D01*
X70372769Y-51230310D01*
X70367785Y-51300002D01*
X70366167Y-51304114D01*
X70365376Y-51306023D01*
X70305305Y-51504049D01*
X70285023Y-51709982D01*
X70305305Y-51915914D01*
X70305306Y-51915916D01*
X70365374Y-52113936D01*
X70462921Y-52296432D01*
X70462923Y-52296434D01*
X70594195Y-52456392D01*
X70690815Y-52535684D01*
X70754156Y-52587667D01*
X70936652Y-52685214D01*
X71134672Y-52745282D01*
X71134671Y-52745282D01*
X71153135Y-52747100D01*
X71340606Y-52765565D01*
X71546540Y-52745282D01*
X71744560Y-52685214D01*
X71927056Y-52587667D01*
X72087016Y-52456392D01*
X72218291Y-52296432D01*
X72315838Y-52113936D01*
X72375906Y-51915916D01*
X72396189Y-51709982D01*
X72825023Y-51709982D01*
X72845305Y-51915914D01*
X72845306Y-51915916D01*
X72905374Y-52113936D01*
X73002921Y-52296432D01*
X73002923Y-52296434D01*
X73134195Y-52456392D01*
X73230815Y-52535684D01*
X73294156Y-52587667D01*
X73476652Y-52685214D01*
X73674672Y-52745282D01*
X73674671Y-52745282D01*
X73693135Y-52747100D01*
X73880606Y-52765565D01*
X74086540Y-52745282D01*
X74275550Y-52687946D01*
X74345415Y-52687324D01*
X74399224Y-52718927D01*
X75795800Y-54115502D01*
X75795810Y-54115513D01*
X75800140Y-54119843D01*
X75800141Y-54119844D01*
X75860744Y-54180447D01*
X75860746Y-54180448D01*
X75860750Y-54180451D01*
X75934961Y-54223296D01*
X75934968Y-54223300D01*
X76017754Y-54245483D01*
X76017756Y-54245483D01*
X76111055Y-54245483D01*
X76111071Y-54245482D01*
X80318417Y-54245482D01*
X80385456Y-54265167D01*
X80406098Y-54281801D01*
X81870787Y-55746490D01*
X81904272Y-55807813D01*
X81907106Y-55834171D01*
X81907106Y-89288193D01*
X81887421Y-89355232D01*
X81870787Y-89375874D01*
X77508498Y-93738163D01*
X77447175Y-93771648D01*
X77420817Y-93774482D01*
X77360042Y-93774482D01*
X77221955Y-93815027D01*
X77100879Y-93892838D01*
X77006629Y-94001608D01*
X77006628Y-94001610D01*
X76946840Y-94132525D01*
X76926359Y-94274982D01*
X76946840Y-94417438D01*
X77006628Y-94548353D01*
X77006629Y-94548355D01*
X77100878Y-94657125D01*
X77221953Y-94734935D01*
X77221956Y-94734936D01*
X77221955Y-94734936D01*
X77360042Y-94775481D01*
X77360044Y-94775482D01*
X77360045Y-94775482D01*
X77503968Y-94775482D01*
X77503968Y-94775481D01*
X77642059Y-94734935D01*
X77763134Y-94657125D01*
X77857383Y-94548355D01*
X77917171Y-94417439D01*
X77937653Y-94274982D01*
X77937652Y-94274981D01*
X77938915Y-94266204D01*
X77941878Y-94266630D01*
X77957338Y-94213983D01*
X77973967Y-94193346D01*
X82422258Y-89745054D01*
X82422263Y-89745051D01*
X82432466Y-89734847D01*
X82432468Y-89734847D01*
X82493071Y-89674244D01*
X82535924Y-89600020D01*
X82558107Y-89517235D01*
X82558107Y-89466213D01*
X125025106Y-89466213D01*
X125025106Y-89693750D01*
X125060699Y-89918472D01*
X125131006Y-90134858D01*
X125131007Y-90134861D01*
X125180737Y-90232460D01*
X125234303Y-90337589D01*
X125368040Y-90521662D01*
X125528926Y-90682548D01*
X125712999Y-90816285D01*
X125812431Y-90866948D01*
X125915726Y-90919580D01*
X125915729Y-90919581D01*
X126001909Y-90947582D01*
X126132117Y-90989889D01*
X126236197Y-91006373D01*
X126356838Y-91025482D01*
X126356843Y-91025482D01*
X126584374Y-91025482D01*
X126693316Y-91008226D01*
X126809095Y-90989889D01*
X127025485Y-90919580D01*
X127228213Y-90816285D01*
X127412286Y-90682548D01*
X127573172Y-90521662D01*
X127706909Y-90337589D01*
X127810204Y-90134861D01*
X127880513Y-89918471D01*
X127909596Y-89734848D01*
X127916106Y-89693750D01*
X127916106Y-89466213D01*
X127895399Y-89335481D01*
X127880513Y-89241493D01*
X127810204Y-89025103D01*
X127810204Y-89025102D01*
X127706908Y-88822374D01*
X127573172Y-88638302D01*
X127412286Y-88477416D01*
X127228213Y-88343679D01*
X127025485Y-88240383D01*
X127025482Y-88240382D01*
X126809096Y-88170075D01*
X126584374Y-88134482D01*
X126584369Y-88134482D01*
X126356843Y-88134482D01*
X126356838Y-88134482D01*
X126132115Y-88170075D01*
X125915729Y-88240382D01*
X125915726Y-88240383D01*
X125712998Y-88343679D01*
X125607978Y-88419980D01*
X125528926Y-88477416D01*
X125528924Y-88477418D01*
X125528923Y-88477418D01*
X125368042Y-88638299D01*
X125368042Y-88638300D01*
X125368040Y-88638302D01*
X125336137Y-88682213D01*
X125234303Y-88822374D01*
X125131007Y-89025102D01*
X125131006Y-89025105D01*
X125060699Y-89241491D01*
X125025106Y-89466213D01*
X82558107Y-89466213D01*
X82558107Y-89431529D01*
X82558107Y-89423934D01*
X82558106Y-89423916D01*
X82558106Y-82327230D01*
X116245106Y-82327230D01*
X116245106Y-82592733D01*
X116245107Y-82592749D01*
X116279762Y-82855983D01*
X116348485Y-83112460D01*
X116450087Y-83357750D01*
X116450095Y-83357767D01*
X116582846Y-83587696D01*
X116582857Y-83587712D01*
X116744485Y-83798350D01*
X116744491Y-83798357D01*
X116932230Y-83986096D01*
X116932236Y-83986101D01*
X117142884Y-84147737D01*
X117142891Y-84147741D01*
X117372820Y-84280492D01*
X117372825Y-84280494D01*
X117372828Y-84280496D01*
X117372832Y-84280497D01*
X117372837Y-84280500D01*
X117618128Y-84382102D01*
X117618126Y-84382102D01*
X117618132Y-84382103D01*
X117618133Y-84382104D01*
X117874603Y-84450825D01*
X118137848Y-84485482D01*
X118137855Y-84485482D01*
X118403357Y-84485482D01*
X118403364Y-84485482D01*
X118666609Y-84450825D01*
X118923079Y-84382104D01*
X119168384Y-84280496D01*
X119398328Y-84147737D01*
X119608976Y-83986101D01*
X119796725Y-83798352D01*
X119958361Y-83587704D01*
X120091120Y-83357760D01*
X120192728Y-83112455D01*
X120261449Y-82855985D01*
X120296106Y-82592740D01*
X120296106Y-82327224D01*
X120261449Y-82063979D01*
X120192728Y-81807509D01*
X120091120Y-81562204D01*
X120091118Y-81562201D01*
X120091116Y-81562196D01*
X119958365Y-81332267D01*
X119958361Y-81332260D01*
X119796725Y-81121612D01*
X119796720Y-81121606D01*
X119608981Y-80933867D01*
X119608974Y-80933861D01*
X119398336Y-80772233D01*
X119398334Y-80772231D01*
X119398328Y-80772227D01*
X119398323Y-80772224D01*
X119398320Y-80772222D01*
X119168391Y-80639471D01*
X119168374Y-80639463D01*
X118923083Y-80537861D01*
X118923085Y-80537861D01*
X118666607Y-80469138D01*
X118403373Y-80434483D01*
X118403370Y-80434482D01*
X118403364Y-80434482D01*
X118137848Y-80434482D01*
X118137842Y-80434482D01*
X118137838Y-80434483D01*
X117874604Y-80469138D01*
X117618127Y-80537861D01*
X117372837Y-80639463D01*
X117372820Y-80639471D01*
X117142891Y-80772222D01*
X117142875Y-80772233D01*
X116932237Y-80933861D01*
X116932230Y-80933867D01*
X116744491Y-81121606D01*
X116744485Y-81121613D01*
X116582857Y-81332251D01*
X116582846Y-81332267D01*
X116450095Y-81562196D01*
X116450087Y-81562213D01*
X116348485Y-81807503D01*
X116279762Y-82063980D01*
X116245107Y-82327214D01*
X116245106Y-82327230D01*
X82558106Y-82327230D01*
X82558106Y-74589981D01*
X125275006Y-74589981D01*
X125275006Y-74589982D01*
X125295362Y-74809672D01*
X125295363Y-74809674D01*
X125355740Y-75021878D01*
X125355746Y-75021893D01*
X125454086Y-75219384D01*
X125587047Y-75395453D01*
X125750096Y-75544091D01*
X125937681Y-75660239D01*
X126143415Y-75739941D01*
X126360290Y-75780482D01*
X126360292Y-75780482D01*
X126580920Y-75780482D01*
X126580922Y-75780482D01*
X126797797Y-75739941D01*
X127003531Y-75660239D01*
X127191116Y-75544091D01*
X127354165Y-75395453D01*
X127487126Y-75219384D01*
X127585470Y-75021883D01*
X127645849Y-74809673D01*
X127666206Y-74589982D01*
X127645849Y-74370291D01*
X127585470Y-74158081D01*
X127487126Y-73960580D01*
X127354165Y-73784511D01*
X127191116Y-73635873D01*
X127133827Y-73600401D01*
X127003532Y-73519725D01*
X127003530Y-73519724D01*
X126932517Y-73492214D01*
X126797797Y-73440023D01*
X126580922Y-73399482D01*
X126360290Y-73399482D01*
X126143415Y-73440023D01*
X126085968Y-73462277D01*
X125937681Y-73519724D01*
X125937679Y-73519725D01*
X125750100Y-73635870D01*
X125750098Y-73635871D01*
X125750096Y-73635873D01*
X125618106Y-73756197D01*
X125587046Y-73784512D01*
X125454086Y-73960579D01*
X125355746Y-74158070D01*
X125355740Y-74158085D01*
X125295363Y-74370289D01*
X125295362Y-74370291D01*
X125275006Y-74589981D01*
X82558106Y-74589981D01*
X82558106Y-66606213D01*
X125025106Y-66606213D01*
X125025106Y-66833750D01*
X125060699Y-67058472D01*
X125131006Y-67274858D01*
X125131007Y-67274861D01*
X125180737Y-67372460D01*
X125234303Y-67477589D01*
X125368040Y-67661662D01*
X125528926Y-67822548D01*
X125712999Y-67956285D01*
X125812431Y-68006948D01*
X125915726Y-68059580D01*
X125915729Y-68059581D01*
X126023922Y-68094734D01*
X126132117Y-68129889D01*
X126236197Y-68146373D01*
X126356838Y-68165482D01*
X126356843Y-68165482D01*
X126584374Y-68165482D01*
X126693316Y-68148226D01*
X126809095Y-68129889D01*
X127025485Y-68059580D01*
X127228213Y-67956285D01*
X127412286Y-67822548D01*
X127573172Y-67661662D01*
X127706909Y-67477589D01*
X127810204Y-67274861D01*
X127880513Y-67058471D01*
X127898850Y-66942692D01*
X127916106Y-66833750D01*
X127916106Y-66606213D01*
X127895399Y-66475481D01*
X127880513Y-66381493D01*
X127810204Y-66165103D01*
X127810204Y-66165102D01*
X127706908Y-65962374D01*
X127573172Y-65778302D01*
X127412286Y-65617416D01*
X127228213Y-65483679D01*
X127025485Y-65380383D01*
X127025482Y-65380382D01*
X126809096Y-65310075D01*
X126584374Y-65274482D01*
X126584369Y-65274482D01*
X126356843Y-65274482D01*
X126356838Y-65274482D01*
X126132115Y-65310075D01*
X125915729Y-65380382D01*
X125915726Y-65380383D01*
X125712998Y-65483679D01*
X125607978Y-65559980D01*
X125528926Y-65617416D01*
X125528924Y-65617418D01*
X125528923Y-65617418D01*
X125368042Y-65778299D01*
X125368042Y-65778300D01*
X125368040Y-65778302D01*
X125336137Y-65822213D01*
X125234303Y-65962374D01*
X125131007Y-66165102D01*
X125131006Y-66165105D01*
X125060699Y-66381491D01*
X125025106Y-66606213D01*
X82558106Y-66606213D01*
X82558106Y-55605131D01*
X82558106Y-55605129D01*
X82535924Y-55522344D01*
X82535924Y-55522343D01*
X82493071Y-55448120D01*
X80704468Y-53659517D01*
X80667356Y-53638090D01*
X80630246Y-53616664D01*
X80588852Y-53605573D01*
X80547459Y-53594482D01*
X80547458Y-53594482D01*
X76246794Y-53594482D01*
X76179755Y-53574797D01*
X76159113Y-53558163D01*
X74871769Y-52270818D01*
X74838284Y-52209495D01*
X74843268Y-52139803D01*
X74850086Y-52124696D01*
X74855838Y-52113936D01*
X74915906Y-51915916D01*
X74936189Y-51709982D01*
X75365023Y-51709982D01*
X75385305Y-51915914D01*
X75385306Y-51915916D01*
X75445374Y-52113936D01*
X75542921Y-52296432D01*
X75542923Y-52296434D01*
X75674195Y-52456392D01*
X75770815Y-52535684D01*
X75834156Y-52587667D01*
X76016652Y-52685214D01*
X76214672Y-52745282D01*
X76214671Y-52745282D01*
X76233135Y-52747100D01*
X76420606Y-52765565D01*
X76626540Y-52745282D01*
X76824560Y-52685214D01*
X77007056Y-52587667D01*
X77167016Y-52456392D01*
X77298291Y-52296432D01*
X77395838Y-52113936D01*
X77455906Y-51915916D01*
X77476189Y-51709982D01*
X77905023Y-51709982D01*
X77925305Y-51915914D01*
X77925306Y-51915916D01*
X77985374Y-52113936D01*
X78082921Y-52296432D01*
X78082923Y-52296434D01*
X78214195Y-52456392D01*
X78310815Y-52535684D01*
X78374156Y-52587667D01*
X78556652Y-52685214D01*
X78754672Y-52745282D01*
X78754671Y-52745282D01*
X78773135Y-52747100D01*
X78960606Y-52765565D01*
X79166540Y-52745282D01*
X79364560Y-52685214D01*
X79547056Y-52587667D01*
X79707016Y-52456392D01*
X79838291Y-52296432D01*
X79935838Y-52113936D01*
X79995906Y-51915916D01*
X80016189Y-51709982D01*
X80445023Y-51709982D01*
X80465305Y-51915914D01*
X80465306Y-51915916D01*
X80525374Y-52113936D01*
X80622921Y-52296432D01*
X80622923Y-52296434D01*
X80754195Y-52456392D01*
X80850815Y-52535684D01*
X80914156Y-52587667D01*
X81096652Y-52685214D01*
X81294672Y-52745282D01*
X81294671Y-52745282D01*
X81313135Y-52747100D01*
X81500606Y-52765565D01*
X81706540Y-52745282D01*
X81904560Y-52685214D01*
X82087056Y-52587667D01*
X82247016Y-52456392D01*
X82378291Y-52296432D01*
X82475838Y-52113936D01*
X82535906Y-51915916D01*
X82556189Y-51709982D01*
X82985023Y-51709982D01*
X83005305Y-51915914D01*
X83005306Y-51915916D01*
X83065374Y-52113936D01*
X83162921Y-52296432D01*
X83162923Y-52296434D01*
X83294195Y-52456392D01*
X83390815Y-52535684D01*
X83454156Y-52587667D01*
X83636652Y-52685214D01*
X83834672Y-52745282D01*
X83834671Y-52745282D01*
X83853135Y-52747100D01*
X84040606Y-52765565D01*
X84246540Y-52745282D01*
X84444560Y-52685214D01*
X84627056Y-52587667D01*
X84787016Y-52456392D01*
X84918291Y-52296432D01*
X85015838Y-52113936D01*
X85075906Y-51915916D01*
X85096189Y-51709982D01*
X85525023Y-51709982D01*
X85545305Y-51915914D01*
X85545306Y-51915916D01*
X85605374Y-52113936D01*
X85702921Y-52296432D01*
X85702923Y-52296434D01*
X85834195Y-52456392D01*
X85930815Y-52535684D01*
X85994156Y-52587667D01*
X86176652Y-52685214D01*
X86374672Y-52745282D01*
X86374671Y-52745282D01*
X86393135Y-52747100D01*
X86580606Y-52765565D01*
X86786540Y-52745282D01*
X86984560Y-52685214D01*
X87167056Y-52587667D01*
X87327016Y-52456392D01*
X87458291Y-52296432D01*
X87555838Y-52113936D01*
X87615906Y-51915916D01*
X87636189Y-51709982D01*
X88065023Y-51709982D01*
X88085305Y-51915914D01*
X88085306Y-51915916D01*
X88145374Y-52113936D01*
X88242921Y-52296432D01*
X88242923Y-52296434D01*
X88374195Y-52456392D01*
X88470815Y-52535684D01*
X88534156Y-52587667D01*
X88716652Y-52685214D01*
X88914672Y-52745282D01*
X88914671Y-52745282D01*
X88933135Y-52747100D01*
X89120606Y-52765565D01*
X89326540Y-52745282D01*
X89524560Y-52685214D01*
X89707056Y-52587667D01*
X89867016Y-52456392D01*
X89998291Y-52296432D01*
X90095838Y-52113936D01*
X90155906Y-51915916D01*
X90176189Y-51709982D01*
X90605023Y-51709982D01*
X90625305Y-51915914D01*
X90625306Y-51915916D01*
X90685374Y-52113936D01*
X90782921Y-52296432D01*
X90782923Y-52296434D01*
X90914195Y-52456392D01*
X91010815Y-52535684D01*
X91074156Y-52587667D01*
X91256652Y-52685214D01*
X91454672Y-52745282D01*
X91454671Y-52745282D01*
X91473135Y-52747100D01*
X91660606Y-52765565D01*
X91866540Y-52745282D01*
X92064560Y-52685214D01*
X92247056Y-52587667D01*
X92407016Y-52456392D01*
X92538291Y-52296432D01*
X92635838Y-52113936D01*
X92695906Y-51915916D01*
X92716189Y-51709982D01*
X93145023Y-51709982D01*
X93165305Y-51915914D01*
X93165306Y-51915916D01*
X93225374Y-52113936D01*
X93322921Y-52296432D01*
X93322923Y-52296434D01*
X93454195Y-52456392D01*
X93550815Y-52535684D01*
X93614156Y-52587667D01*
X93796652Y-52685214D01*
X93994672Y-52745282D01*
X93994671Y-52745282D01*
X94013135Y-52747100D01*
X94200606Y-52765565D01*
X94406540Y-52745282D01*
X94604560Y-52685214D01*
X94787056Y-52587667D01*
X94947016Y-52456392D01*
X95078291Y-52296432D01*
X95175838Y-52113936D01*
X95235906Y-51915916D01*
X95256189Y-51709982D01*
X95685023Y-51709982D01*
X95705305Y-51915914D01*
X95705306Y-51915916D01*
X95765374Y-52113936D01*
X95862921Y-52296432D01*
X95862923Y-52296434D01*
X95994195Y-52456392D01*
X96090815Y-52535684D01*
X96154156Y-52587667D01*
X96336652Y-52685214D01*
X96534672Y-52745282D01*
X96534671Y-52745282D01*
X96553135Y-52747100D01*
X96740606Y-52765565D01*
X96946540Y-52745282D01*
X97144560Y-52685214D01*
X97327056Y-52587667D01*
X97487016Y-52456392D01*
X97618291Y-52296432D01*
X97715838Y-52113936D01*
X97775906Y-51915916D01*
X97796189Y-51709982D01*
X98225023Y-51709982D01*
X98245305Y-51915914D01*
X98245306Y-51915916D01*
X98305374Y-52113936D01*
X98402921Y-52296432D01*
X98402923Y-52296434D01*
X98534195Y-52456392D01*
X98630815Y-52535684D01*
X98694156Y-52587667D01*
X98876652Y-52685214D01*
X99074672Y-52745282D01*
X99074671Y-52745282D01*
X99093135Y-52747100D01*
X99280606Y-52765565D01*
X99486540Y-52745282D01*
X99684560Y-52685214D01*
X99867056Y-52587667D01*
X100027016Y-52456392D01*
X100158291Y-52296432D01*
X100255838Y-52113936D01*
X100315906Y-51915916D01*
X100336189Y-51709982D01*
X100765023Y-51709982D01*
X100785305Y-51915914D01*
X100785306Y-51915916D01*
X100845374Y-52113936D01*
X100942921Y-52296432D01*
X100942923Y-52296434D01*
X101074195Y-52456392D01*
X101170815Y-52535684D01*
X101234156Y-52587667D01*
X101416652Y-52685214D01*
X101614672Y-52745282D01*
X101614671Y-52745282D01*
X101633135Y-52747100D01*
X101820606Y-52765565D01*
X102026540Y-52745282D01*
X102224560Y-52685214D01*
X102407056Y-52587667D01*
X102567016Y-52456392D01*
X102698291Y-52296432D01*
X102795838Y-52113936D01*
X102855906Y-51915916D01*
X102876189Y-51709982D01*
X103305023Y-51709982D01*
X103325305Y-51915914D01*
X103325306Y-51915916D01*
X103385374Y-52113936D01*
X103482921Y-52296432D01*
X103482923Y-52296434D01*
X103614195Y-52456392D01*
X103710815Y-52535684D01*
X103774156Y-52587667D01*
X103956652Y-52685214D01*
X104154672Y-52745282D01*
X104154671Y-52745282D01*
X104173135Y-52747100D01*
X104360606Y-52765565D01*
X104566540Y-52745282D01*
X104764560Y-52685214D01*
X104947056Y-52587667D01*
X105107016Y-52456392D01*
X105238291Y-52296432D01*
X105335838Y-52113936D01*
X105395906Y-51915916D01*
X105416189Y-51709982D01*
X105845023Y-51709982D01*
X105865305Y-51915914D01*
X105865306Y-51915916D01*
X105925374Y-52113936D01*
X106022921Y-52296432D01*
X106022923Y-52296434D01*
X106154195Y-52456392D01*
X106250815Y-52535684D01*
X106314156Y-52587667D01*
X106496652Y-52685214D01*
X106694672Y-52745282D01*
X106694671Y-52745282D01*
X106713135Y-52747100D01*
X106900606Y-52765565D01*
X107106540Y-52745282D01*
X107304560Y-52685214D01*
X107487056Y-52587667D01*
X107647016Y-52456392D01*
X107778291Y-52296432D01*
X107875838Y-52113936D01*
X107935906Y-51915916D01*
X107956189Y-51709982D01*
X108385023Y-51709982D01*
X108405305Y-51915914D01*
X108405306Y-51915916D01*
X108465374Y-52113936D01*
X108562921Y-52296432D01*
X108562923Y-52296434D01*
X108694195Y-52456392D01*
X108790815Y-52535684D01*
X108854156Y-52587667D01*
X109036652Y-52685214D01*
X109234672Y-52745282D01*
X109234671Y-52745282D01*
X109253135Y-52747100D01*
X109440606Y-52765565D01*
X109646540Y-52745282D01*
X109844560Y-52685214D01*
X110027056Y-52587667D01*
X110187016Y-52456392D01*
X110318291Y-52296432D01*
X110415838Y-52113936D01*
X110475906Y-51915916D01*
X110496189Y-51709982D01*
X110925023Y-51709982D01*
X110945305Y-51915914D01*
X110945306Y-51915916D01*
X111005374Y-52113936D01*
X111102921Y-52296432D01*
X111102923Y-52296434D01*
X111234195Y-52456392D01*
X111330815Y-52535684D01*
X111394156Y-52587667D01*
X111576652Y-52685214D01*
X111774672Y-52745282D01*
X111774671Y-52745282D01*
X111793135Y-52747100D01*
X111980606Y-52765565D01*
X112186540Y-52745282D01*
X112384560Y-52685214D01*
X112567056Y-52587667D01*
X112727016Y-52456392D01*
X112858291Y-52296432D01*
X112955838Y-52113936D01*
X113015906Y-51915916D01*
X113036189Y-51709982D01*
X113465023Y-51709982D01*
X113485305Y-51915914D01*
X113485306Y-51915916D01*
X113545374Y-52113936D01*
X113642921Y-52296432D01*
X113642923Y-52296434D01*
X113774195Y-52456392D01*
X113870815Y-52535684D01*
X113934156Y-52587667D01*
X114116652Y-52685214D01*
X114314672Y-52745282D01*
X114314671Y-52745282D01*
X114333135Y-52747100D01*
X114520606Y-52765565D01*
X114726540Y-52745282D01*
X114924560Y-52685214D01*
X115107056Y-52587667D01*
X115267016Y-52456392D01*
X115398291Y-52296432D01*
X115495838Y-52113936D01*
X115555906Y-51915916D01*
X115576189Y-51709982D01*
X115555906Y-51504048D01*
X115495838Y-51306028D01*
X115398291Y-51123532D01*
X115346308Y-51060191D01*
X115267016Y-50963571D01*
X115107058Y-50832299D01*
X115107059Y-50832299D01*
X115107056Y-50832297D01*
X114924560Y-50734750D01*
X114726540Y-50674682D01*
X114726538Y-50674681D01*
X114726540Y-50674681D01*
X114520606Y-50654399D01*
X114314673Y-50674681D01*
X114116649Y-50734751D01*
X114044349Y-50773397D01*
X113934156Y-50832297D01*
X113934154Y-50832298D01*
X113934153Y-50832299D01*
X113774195Y-50963571D01*
X113642923Y-51123529D01*
X113545375Y-51306025D01*
X113485305Y-51504049D01*
X113465023Y-51709982D01*
X113036189Y-51709982D01*
X113015906Y-51504048D01*
X112955838Y-51306028D01*
X112858291Y-51123532D01*
X112806308Y-51060191D01*
X112727016Y-50963571D01*
X112567058Y-50832299D01*
X112567059Y-50832299D01*
X112567056Y-50832297D01*
X112384560Y-50734750D01*
X112186540Y-50674682D01*
X112186538Y-50674681D01*
X112186540Y-50674681D01*
X111980606Y-50654399D01*
X111774673Y-50674681D01*
X111576649Y-50734751D01*
X111504349Y-50773397D01*
X111394156Y-50832297D01*
X111394154Y-50832298D01*
X111394153Y-50832299D01*
X111234195Y-50963571D01*
X111102923Y-51123529D01*
X111005375Y-51306025D01*
X110945305Y-51504049D01*
X110925023Y-51709982D01*
X110496189Y-51709982D01*
X110475906Y-51504048D01*
X110415838Y-51306028D01*
X110318291Y-51123532D01*
X110266308Y-51060191D01*
X110187016Y-50963571D01*
X110027058Y-50832299D01*
X110027059Y-50832299D01*
X110027056Y-50832297D01*
X109844560Y-50734750D01*
X109646540Y-50674682D01*
X109646538Y-50674681D01*
X109646540Y-50674681D01*
X109440606Y-50654399D01*
X109234673Y-50674681D01*
X109036649Y-50734751D01*
X108964349Y-50773397D01*
X108854156Y-50832297D01*
X108854154Y-50832298D01*
X108854153Y-50832299D01*
X108694195Y-50963571D01*
X108562923Y-51123529D01*
X108465375Y-51306025D01*
X108405305Y-51504049D01*
X108385023Y-51709982D01*
X107956189Y-51709982D01*
X107935906Y-51504048D01*
X107875838Y-51306028D01*
X107778291Y-51123532D01*
X107726308Y-51060191D01*
X107647016Y-50963571D01*
X107487058Y-50832299D01*
X107487059Y-50832299D01*
X107487056Y-50832297D01*
X107304560Y-50734750D01*
X107106540Y-50674682D01*
X107106538Y-50674681D01*
X107106540Y-50674681D01*
X106900606Y-50654399D01*
X106694673Y-50674681D01*
X106496649Y-50734751D01*
X106424349Y-50773397D01*
X106314156Y-50832297D01*
X106314154Y-50832298D01*
X106314153Y-50832299D01*
X106154195Y-50963571D01*
X106022923Y-51123529D01*
X105925375Y-51306025D01*
X105865305Y-51504049D01*
X105845023Y-51709982D01*
X105416189Y-51709982D01*
X105395906Y-51504048D01*
X105335838Y-51306028D01*
X105238291Y-51123532D01*
X105186308Y-51060191D01*
X105107016Y-50963571D01*
X104947058Y-50832299D01*
X104947059Y-50832299D01*
X104947056Y-50832297D01*
X104764560Y-50734750D01*
X104566540Y-50674682D01*
X104566538Y-50674681D01*
X104566540Y-50674681D01*
X104360606Y-50654399D01*
X104154673Y-50674681D01*
X103956649Y-50734751D01*
X103884349Y-50773397D01*
X103774156Y-50832297D01*
X103774154Y-50832298D01*
X103774153Y-50832299D01*
X103614195Y-50963571D01*
X103482923Y-51123529D01*
X103385375Y-51306025D01*
X103325305Y-51504049D01*
X103305023Y-51709982D01*
X102876189Y-51709982D01*
X102855906Y-51504048D01*
X102795838Y-51306028D01*
X102698291Y-51123532D01*
X102646308Y-51060191D01*
X102567016Y-50963571D01*
X102407058Y-50832299D01*
X102407059Y-50832299D01*
X102407056Y-50832297D01*
X102224560Y-50734750D01*
X102026540Y-50674682D01*
X102026538Y-50674681D01*
X102026540Y-50674681D01*
X101820606Y-50654399D01*
X101614673Y-50674681D01*
X101416649Y-50734751D01*
X101344349Y-50773397D01*
X101234156Y-50832297D01*
X101234154Y-50832298D01*
X101234153Y-50832299D01*
X101074195Y-50963571D01*
X100942923Y-51123529D01*
X100845375Y-51306025D01*
X100785305Y-51504049D01*
X100765023Y-51709982D01*
X100336189Y-51709982D01*
X100315906Y-51504048D01*
X100255838Y-51306028D01*
X100158291Y-51123532D01*
X100106308Y-51060191D01*
X100027016Y-50963571D01*
X99867058Y-50832299D01*
X99867059Y-50832299D01*
X99867056Y-50832297D01*
X99684560Y-50734750D01*
X99486540Y-50674682D01*
X99486538Y-50674681D01*
X99486540Y-50674681D01*
X99280606Y-50654399D01*
X99074673Y-50674681D01*
X98876649Y-50734751D01*
X98804349Y-50773397D01*
X98694156Y-50832297D01*
X98694154Y-50832298D01*
X98694153Y-50832299D01*
X98534195Y-50963571D01*
X98402923Y-51123529D01*
X98305375Y-51306025D01*
X98245305Y-51504049D01*
X98225023Y-51709982D01*
X97796189Y-51709982D01*
X97775906Y-51504048D01*
X97715838Y-51306028D01*
X97618291Y-51123532D01*
X97566308Y-51060191D01*
X97487016Y-50963571D01*
X97327058Y-50832299D01*
X97327059Y-50832299D01*
X97327056Y-50832297D01*
X97144560Y-50734750D01*
X96946540Y-50674682D01*
X96946538Y-50674681D01*
X96946540Y-50674681D01*
X96740606Y-50654399D01*
X96534673Y-50674681D01*
X96336649Y-50734751D01*
X96264349Y-50773397D01*
X96154156Y-50832297D01*
X96154154Y-50832298D01*
X96154153Y-50832299D01*
X95994195Y-50963571D01*
X95862923Y-51123529D01*
X95765375Y-51306025D01*
X95705305Y-51504049D01*
X95685023Y-51709982D01*
X95256189Y-51709982D01*
X95235906Y-51504048D01*
X95175838Y-51306028D01*
X95078291Y-51123532D01*
X95026308Y-51060191D01*
X94947016Y-50963571D01*
X94787058Y-50832299D01*
X94787059Y-50832299D01*
X94787056Y-50832297D01*
X94604560Y-50734750D01*
X94406540Y-50674682D01*
X94406538Y-50674681D01*
X94406540Y-50674681D01*
X94200606Y-50654399D01*
X93994673Y-50674681D01*
X93796649Y-50734751D01*
X93724349Y-50773397D01*
X93614156Y-50832297D01*
X93614154Y-50832298D01*
X93614153Y-50832299D01*
X93454195Y-50963571D01*
X93322923Y-51123529D01*
X93225375Y-51306025D01*
X93165305Y-51504049D01*
X93145023Y-51709982D01*
X92716189Y-51709982D01*
X92695906Y-51504048D01*
X92635838Y-51306028D01*
X92538291Y-51123532D01*
X92486308Y-51060191D01*
X92407016Y-50963571D01*
X92247058Y-50832299D01*
X92247059Y-50832299D01*
X92247056Y-50832297D01*
X92064560Y-50734750D01*
X91866540Y-50674682D01*
X91866538Y-50674681D01*
X91866540Y-50674681D01*
X91660606Y-50654399D01*
X91454673Y-50674681D01*
X91256649Y-50734751D01*
X91184349Y-50773397D01*
X91074156Y-50832297D01*
X91074154Y-50832298D01*
X91074153Y-50832299D01*
X90914195Y-50963571D01*
X90782923Y-51123529D01*
X90685375Y-51306025D01*
X90625305Y-51504049D01*
X90605023Y-51709982D01*
X90176189Y-51709982D01*
X90155906Y-51504048D01*
X90095838Y-51306028D01*
X89998291Y-51123532D01*
X89946308Y-51060191D01*
X89867016Y-50963571D01*
X89707058Y-50832299D01*
X89707059Y-50832299D01*
X89707056Y-50832297D01*
X89524560Y-50734750D01*
X89326540Y-50674682D01*
X89326538Y-50674681D01*
X89326540Y-50674681D01*
X89120606Y-50654399D01*
X88914673Y-50674681D01*
X88716649Y-50734751D01*
X88644349Y-50773397D01*
X88534156Y-50832297D01*
X88534154Y-50832298D01*
X88534153Y-50832299D01*
X88374195Y-50963571D01*
X88242923Y-51123529D01*
X88145375Y-51306025D01*
X88085305Y-51504049D01*
X88065023Y-51709982D01*
X87636189Y-51709982D01*
X87615906Y-51504048D01*
X87555838Y-51306028D01*
X87458291Y-51123532D01*
X87406308Y-51060191D01*
X87327016Y-50963571D01*
X87167058Y-50832299D01*
X87167059Y-50832299D01*
X87167056Y-50832297D01*
X86984560Y-50734750D01*
X86786540Y-50674682D01*
X86786538Y-50674681D01*
X86786540Y-50674681D01*
X86580606Y-50654399D01*
X86374673Y-50674681D01*
X86176649Y-50734751D01*
X86104349Y-50773397D01*
X85994156Y-50832297D01*
X85994154Y-50832298D01*
X85994153Y-50832299D01*
X85834195Y-50963571D01*
X85702923Y-51123529D01*
X85605375Y-51306025D01*
X85545305Y-51504049D01*
X85525023Y-51709982D01*
X85096189Y-51709982D01*
X85075906Y-51504048D01*
X85015838Y-51306028D01*
X84918291Y-51123532D01*
X84866308Y-51060191D01*
X84787016Y-50963571D01*
X84627058Y-50832299D01*
X84627059Y-50832299D01*
X84627056Y-50832297D01*
X84444560Y-50734750D01*
X84246540Y-50674682D01*
X84246538Y-50674681D01*
X84246540Y-50674681D01*
X84040606Y-50654399D01*
X83834673Y-50674681D01*
X83636649Y-50734751D01*
X83564349Y-50773397D01*
X83454156Y-50832297D01*
X83454154Y-50832298D01*
X83454153Y-50832299D01*
X83294195Y-50963571D01*
X83162923Y-51123529D01*
X83065375Y-51306025D01*
X83005305Y-51504049D01*
X82985023Y-51709982D01*
X82556189Y-51709982D01*
X82535906Y-51504048D01*
X82475838Y-51306028D01*
X82378291Y-51123532D01*
X82326308Y-51060191D01*
X82247016Y-50963571D01*
X82087058Y-50832299D01*
X82087059Y-50832299D01*
X82087056Y-50832297D01*
X81904560Y-50734750D01*
X81706540Y-50674682D01*
X81706538Y-50674681D01*
X81706540Y-50674681D01*
X81500606Y-50654399D01*
X81294673Y-50674681D01*
X81096649Y-50734751D01*
X81024349Y-50773397D01*
X80914156Y-50832297D01*
X80914154Y-50832298D01*
X80914153Y-50832299D01*
X80754195Y-50963571D01*
X80622923Y-51123529D01*
X80525375Y-51306025D01*
X80465305Y-51504049D01*
X80445023Y-51709982D01*
X80016189Y-51709982D01*
X79995906Y-51504048D01*
X79935838Y-51306028D01*
X79838291Y-51123532D01*
X79786308Y-51060191D01*
X79707016Y-50963571D01*
X79547058Y-50832299D01*
X79547059Y-50832299D01*
X79547056Y-50832297D01*
X79364560Y-50734750D01*
X79166540Y-50674682D01*
X79166538Y-50674681D01*
X79166540Y-50674681D01*
X78960606Y-50654399D01*
X78754673Y-50674681D01*
X78556649Y-50734751D01*
X78484349Y-50773397D01*
X78374156Y-50832297D01*
X78374154Y-50832298D01*
X78374153Y-50832299D01*
X78214195Y-50963571D01*
X78082923Y-51123529D01*
X77985375Y-51306025D01*
X77925305Y-51504049D01*
X77905023Y-51709982D01*
X77476189Y-51709982D01*
X77455906Y-51504048D01*
X77395838Y-51306028D01*
X77298291Y-51123532D01*
X77246308Y-51060191D01*
X77167016Y-50963571D01*
X77007058Y-50832299D01*
X77007059Y-50832299D01*
X77007056Y-50832297D01*
X76824560Y-50734750D01*
X76626540Y-50674682D01*
X76626538Y-50674681D01*
X76626540Y-50674681D01*
X76420606Y-50654399D01*
X76214673Y-50674681D01*
X76016649Y-50734751D01*
X75944349Y-50773397D01*
X75834156Y-50832297D01*
X75834154Y-50832298D01*
X75834153Y-50832299D01*
X75674195Y-50963571D01*
X75542923Y-51123529D01*
X75445375Y-51306025D01*
X75385305Y-51504049D01*
X75365023Y-51709982D01*
X74936189Y-51709982D01*
X74915906Y-51504048D01*
X74855838Y-51306028D01*
X74758291Y-51123532D01*
X74706308Y-51060191D01*
X74627016Y-50963571D01*
X74467058Y-50832299D01*
X74467059Y-50832299D01*
X74467056Y-50832297D01*
X74284560Y-50734750D01*
X74086540Y-50674682D01*
X74086538Y-50674681D01*
X74086540Y-50674681D01*
X73880606Y-50654399D01*
X73674673Y-50674681D01*
X73476649Y-50734751D01*
X73404349Y-50773397D01*
X73294156Y-50832297D01*
X73294154Y-50832298D01*
X73294153Y-50832299D01*
X73134195Y-50963571D01*
X73002923Y-51123529D01*
X72905375Y-51306025D01*
X72845305Y-51504049D01*
X72825023Y-51709982D01*
X72396189Y-51709982D01*
X72375906Y-51504048D01*
X72315838Y-51306028D01*
X72218291Y-51123532D01*
X72166308Y-51060191D01*
X72087016Y-50963571D01*
X71927058Y-50832299D01*
X71927059Y-50832299D01*
X71927056Y-50832297D01*
X71744560Y-50734750D01*
X71546540Y-50674682D01*
X71546538Y-50674681D01*
X71546540Y-50674681D01*
X71340606Y-50654399D01*
X71134673Y-50674681D01*
X71022660Y-50708660D01*
X70936652Y-50734750D01*
X70936649Y-50734751D01*
X70936647Y-50734752D01*
X70934738Y-50735543D01*
X70933657Y-50735659D01*
X70930823Y-50736519D01*
X70930659Y-50735981D01*
X70865268Y-50743008D01*
X70802791Y-50711729D01*
X70799611Y-50708660D01*
X70527425Y-50436474D01*
X70493940Y-50375151D01*
X70491106Y-50348793D01*
X70491106Y-50093964D01*
X70510791Y-50026925D01*
X70563595Y-49981170D01*
X70632753Y-49971226D01*
X70693771Y-49998111D01*
X70754152Y-50047664D01*
X70754156Y-50047667D01*
X70936652Y-50145214D01*
X71134672Y-50205282D01*
X71134671Y-50205282D01*
X71153135Y-50207100D01*
X71340606Y-50225565D01*
X71546540Y-50205282D01*
X71744560Y-50145214D01*
X71927056Y-50047667D01*
X72087016Y-49916392D01*
X72218291Y-49756432D01*
X72315838Y-49573936D01*
X72375906Y-49375916D01*
X72396189Y-49169982D01*
X72375906Y-48964048D01*
X72315838Y-48766028D01*
X72218291Y-48583532D01*
X72168735Y-48523147D01*
X72141422Y-48458837D01*
X72153213Y-48389969D01*
X72200366Y-48338409D01*
X72264588Y-48320482D01*
X72956624Y-48320482D01*
X73023663Y-48340167D01*
X73069418Y-48392971D01*
X73079362Y-48462129D01*
X73052477Y-48523147D01*
X73002923Y-48583528D01*
X72905375Y-48766025D01*
X72845305Y-48964049D01*
X72825023Y-49169982D01*
X72845305Y-49375914D01*
X72845306Y-49375916D01*
X72905374Y-49573936D01*
X73002921Y-49756432D01*
X73030887Y-49790509D01*
X73134195Y-49916392D01*
X73201012Y-49971226D01*
X73294156Y-50047667D01*
X73476652Y-50145214D01*
X73674672Y-50205282D01*
X73674671Y-50205282D01*
X73693135Y-50207100D01*
X73880606Y-50225565D01*
X74086540Y-50205282D01*
X74284560Y-50145214D01*
X74467056Y-50047667D01*
X74627016Y-49916392D01*
X74758291Y-49756432D01*
X74855838Y-49573936D01*
X74915906Y-49375916D01*
X74936189Y-49169982D01*
X74915906Y-48964048D01*
X74855838Y-48766028D01*
X74758291Y-48583532D01*
X74708735Y-48523147D01*
X74681422Y-48458837D01*
X74693213Y-48389969D01*
X74740366Y-48338409D01*
X74804588Y-48320482D01*
X75496624Y-48320482D01*
X75563663Y-48340167D01*
X75609418Y-48392971D01*
X75619362Y-48462129D01*
X75592477Y-48523147D01*
X75542923Y-48583528D01*
X75445375Y-48766025D01*
X75385305Y-48964049D01*
X75365023Y-49169982D01*
X75385305Y-49375914D01*
X75385306Y-49375916D01*
X75445374Y-49573936D01*
X75542921Y-49756432D01*
X75570887Y-49790509D01*
X75674195Y-49916392D01*
X75741012Y-49971226D01*
X75834156Y-50047667D01*
X76016652Y-50145214D01*
X76214672Y-50205282D01*
X76214671Y-50205282D01*
X76233135Y-50207100D01*
X76420606Y-50225565D01*
X76626540Y-50205282D01*
X76824560Y-50145214D01*
X77007056Y-50047667D01*
X77167016Y-49916392D01*
X77298291Y-49756432D01*
X77395838Y-49573936D01*
X77455906Y-49375916D01*
X77476189Y-49169982D01*
X77455906Y-48964048D01*
X77395838Y-48766028D01*
X77298291Y-48583532D01*
X77248735Y-48523147D01*
X77221422Y-48458837D01*
X77233213Y-48389969D01*
X77280366Y-48338409D01*
X77344588Y-48320482D01*
X78036624Y-48320482D01*
X78103663Y-48340167D01*
X78149418Y-48392971D01*
X78159362Y-48462129D01*
X78132477Y-48523147D01*
X78082923Y-48583528D01*
X77985375Y-48766025D01*
X77925305Y-48964049D01*
X77905023Y-49169982D01*
X77925305Y-49375914D01*
X77925306Y-49375916D01*
X77985374Y-49573936D01*
X78082921Y-49756432D01*
X78110887Y-49790509D01*
X78214195Y-49916392D01*
X78281012Y-49971226D01*
X78374156Y-50047667D01*
X78556652Y-50145214D01*
X78754672Y-50205282D01*
X78754671Y-50205282D01*
X78773135Y-50207100D01*
X78960606Y-50225565D01*
X79166540Y-50205282D01*
X79364560Y-50145214D01*
X79547056Y-50047667D01*
X79707016Y-49916392D01*
X79838291Y-49756432D01*
X79935838Y-49573936D01*
X79995906Y-49375916D01*
X80016189Y-49169982D01*
X79995906Y-48964048D01*
X79935838Y-48766028D01*
X79838291Y-48583532D01*
X79788735Y-48523147D01*
X79761422Y-48458837D01*
X79773213Y-48389969D01*
X79820366Y-48338409D01*
X79884588Y-48320482D01*
X80576624Y-48320482D01*
X80643663Y-48340167D01*
X80689418Y-48392971D01*
X80699362Y-48462129D01*
X80672477Y-48523147D01*
X80622923Y-48583528D01*
X80525375Y-48766025D01*
X80465305Y-48964049D01*
X80445023Y-49169982D01*
X80465305Y-49375914D01*
X80465306Y-49375916D01*
X80525374Y-49573936D01*
X80622921Y-49756432D01*
X80650887Y-49790509D01*
X80754195Y-49916392D01*
X80821012Y-49971226D01*
X80914156Y-50047667D01*
X81096652Y-50145214D01*
X81294672Y-50205282D01*
X81294671Y-50205282D01*
X81313135Y-50207100D01*
X81500606Y-50225565D01*
X81706540Y-50205282D01*
X81904560Y-50145214D01*
X82087056Y-50047667D01*
X82247016Y-49916392D01*
X82378291Y-49756432D01*
X82475838Y-49573936D01*
X82535906Y-49375916D01*
X82556189Y-49169982D01*
X82535906Y-48964048D01*
X82475838Y-48766028D01*
X82378291Y-48583532D01*
X82328735Y-48523147D01*
X82301422Y-48458837D01*
X82313213Y-48389969D01*
X82360366Y-48338409D01*
X82424588Y-48320482D01*
X83116624Y-48320482D01*
X83183663Y-48340167D01*
X83229418Y-48392971D01*
X83239362Y-48462129D01*
X83212477Y-48523147D01*
X83162923Y-48583528D01*
X83065375Y-48766025D01*
X83005305Y-48964049D01*
X82985023Y-49169982D01*
X83005305Y-49375914D01*
X83005306Y-49375916D01*
X83065374Y-49573936D01*
X83162921Y-49756432D01*
X83190887Y-49790509D01*
X83294195Y-49916392D01*
X83361012Y-49971226D01*
X83454156Y-50047667D01*
X83636652Y-50145214D01*
X83834672Y-50205282D01*
X83834671Y-50205282D01*
X83853135Y-50207100D01*
X84040606Y-50225565D01*
X84246540Y-50205282D01*
X84444560Y-50145214D01*
X84627056Y-50047667D01*
X84787016Y-49916392D01*
X84918291Y-49756432D01*
X85015838Y-49573936D01*
X85075906Y-49375916D01*
X85096189Y-49169982D01*
X85075906Y-48964048D01*
X85015838Y-48766028D01*
X84918291Y-48583532D01*
X84868735Y-48523147D01*
X84841422Y-48458837D01*
X84853213Y-48389969D01*
X84900366Y-48338409D01*
X84964588Y-48320482D01*
X85656624Y-48320482D01*
X85723663Y-48340167D01*
X85769418Y-48392971D01*
X85779362Y-48462129D01*
X85752477Y-48523147D01*
X85702923Y-48583528D01*
X85605375Y-48766025D01*
X85545305Y-48964049D01*
X85525023Y-49169982D01*
X85545305Y-49375914D01*
X85545306Y-49375916D01*
X85605374Y-49573936D01*
X85702921Y-49756432D01*
X85730887Y-49790509D01*
X85834195Y-49916392D01*
X85901012Y-49971226D01*
X85994156Y-50047667D01*
X86176652Y-50145214D01*
X86374672Y-50205282D01*
X86374671Y-50205282D01*
X86393135Y-50207100D01*
X86580606Y-50225565D01*
X86786540Y-50205282D01*
X86984560Y-50145214D01*
X87167056Y-50047667D01*
X87327016Y-49916392D01*
X87458291Y-49756432D01*
X87555838Y-49573936D01*
X87615906Y-49375916D01*
X87636189Y-49169982D01*
X87615906Y-48964048D01*
X87555838Y-48766028D01*
X87458291Y-48583532D01*
X87408735Y-48523147D01*
X87381422Y-48458837D01*
X87393213Y-48389969D01*
X87440366Y-48338409D01*
X87504588Y-48320482D01*
X88196624Y-48320482D01*
X88263663Y-48340167D01*
X88309418Y-48392971D01*
X88319362Y-48462129D01*
X88292477Y-48523147D01*
X88242923Y-48583528D01*
X88145375Y-48766025D01*
X88085305Y-48964049D01*
X88065023Y-49169982D01*
X88085305Y-49375914D01*
X88085306Y-49375916D01*
X88145374Y-49573936D01*
X88242921Y-49756432D01*
X88270887Y-49790509D01*
X88374195Y-49916392D01*
X88441012Y-49971226D01*
X88534156Y-50047667D01*
X88716652Y-50145214D01*
X88914672Y-50205282D01*
X88914671Y-50205282D01*
X88933135Y-50207100D01*
X89120606Y-50225565D01*
X89326540Y-50205282D01*
X89524560Y-50145214D01*
X89707056Y-50047667D01*
X89867016Y-49916392D01*
X89998291Y-49756432D01*
X90095838Y-49573936D01*
X90155906Y-49375916D01*
X90176189Y-49169982D01*
X90155906Y-48964048D01*
X90095838Y-48766028D01*
X89998291Y-48583532D01*
X89948735Y-48523147D01*
X89921422Y-48458837D01*
X89933213Y-48389969D01*
X89980366Y-48338409D01*
X90044588Y-48320482D01*
X90736624Y-48320482D01*
X90803663Y-48340167D01*
X90849418Y-48392971D01*
X90859362Y-48462129D01*
X90832477Y-48523147D01*
X90782923Y-48583528D01*
X90685375Y-48766025D01*
X90625305Y-48964049D01*
X90605023Y-49169982D01*
X90625305Y-49375914D01*
X90625306Y-49375916D01*
X90685374Y-49573936D01*
X90782921Y-49756432D01*
X90810887Y-49790509D01*
X90914195Y-49916392D01*
X90981012Y-49971226D01*
X91074156Y-50047667D01*
X91256652Y-50145214D01*
X91454672Y-50205282D01*
X91454671Y-50205282D01*
X91473135Y-50207100D01*
X91660606Y-50225565D01*
X91866540Y-50205282D01*
X92064560Y-50145214D01*
X92247056Y-50047667D01*
X92407016Y-49916392D01*
X92538291Y-49756432D01*
X92635838Y-49573936D01*
X92695906Y-49375916D01*
X92716189Y-49169982D01*
X92695906Y-48964048D01*
X92635838Y-48766028D01*
X92538291Y-48583532D01*
X92488735Y-48523147D01*
X92461422Y-48458837D01*
X92473213Y-48389969D01*
X92520366Y-48338409D01*
X92584588Y-48320482D01*
X93276624Y-48320482D01*
X93343663Y-48340167D01*
X93389418Y-48392971D01*
X93399362Y-48462129D01*
X93372477Y-48523147D01*
X93322923Y-48583528D01*
X93225375Y-48766025D01*
X93165305Y-48964049D01*
X93145023Y-49169982D01*
X93165305Y-49375914D01*
X93165306Y-49375916D01*
X93225374Y-49573936D01*
X93322921Y-49756432D01*
X93350887Y-49790509D01*
X93454195Y-49916392D01*
X93521012Y-49971226D01*
X93614156Y-50047667D01*
X93796652Y-50145214D01*
X93994672Y-50205282D01*
X93994671Y-50205282D01*
X94013135Y-50207100D01*
X94200606Y-50225565D01*
X94406540Y-50205282D01*
X94604560Y-50145214D01*
X94787056Y-50047667D01*
X94947016Y-49916392D01*
X95078291Y-49756432D01*
X95175838Y-49573936D01*
X95235906Y-49375916D01*
X95256189Y-49169982D01*
X95235906Y-48964048D01*
X95175838Y-48766028D01*
X95078291Y-48583532D01*
X95028735Y-48523147D01*
X95001422Y-48458837D01*
X95013213Y-48389969D01*
X95060366Y-48338409D01*
X95124588Y-48320482D01*
X95816624Y-48320482D01*
X95883663Y-48340167D01*
X95929418Y-48392971D01*
X95939362Y-48462129D01*
X95912477Y-48523147D01*
X95862923Y-48583528D01*
X95765375Y-48766025D01*
X95705305Y-48964049D01*
X95685023Y-49169982D01*
X95705305Y-49375914D01*
X95705306Y-49375916D01*
X95765374Y-49573936D01*
X95862921Y-49756432D01*
X95890887Y-49790509D01*
X95994195Y-49916392D01*
X96061012Y-49971226D01*
X96154156Y-50047667D01*
X96336652Y-50145214D01*
X96534672Y-50205282D01*
X96534671Y-50205282D01*
X96553135Y-50207100D01*
X96740606Y-50225565D01*
X96946540Y-50205282D01*
X97144560Y-50145214D01*
X97327056Y-50047667D01*
X97487016Y-49916392D01*
X97618291Y-49756432D01*
X97715838Y-49573936D01*
X97775906Y-49375916D01*
X97796189Y-49169982D01*
X97775906Y-48964048D01*
X97715838Y-48766028D01*
X97618291Y-48583532D01*
X97568735Y-48523147D01*
X97541422Y-48458837D01*
X97553213Y-48389969D01*
X97600366Y-48338409D01*
X97664588Y-48320482D01*
X98356624Y-48320482D01*
X98423663Y-48340167D01*
X98469418Y-48392971D01*
X98479362Y-48462129D01*
X98452477Y-48523147D01*
X98402923Y-48583528D01*
X98305375Y-48766025D01*
X98245305Y-48964049D01*
X98225023Y-49169982D01*
X98245305Y-49375914D01*
X98245306Y-49375916D01*
X98305374Y-49573936D01*
X98402921Y-49756432D01*
X98430887Y-49790509D01*
X98534195Y-49916392D01*
X98601012Y-49971226D01*
X98694156Y-50047667D01*
X98876652Y-50145214D01*
X99074672Y-50205282D01*
X99074671Y-50205282D01*
X99093135Y-50207100D01*
X99280606Y-50225565D01*
X99486540Y-50205282D01*
X99684560Y-50145214D01*
X99867056Y-50047667D01*
X100027016Y-49916392D01*
X100158291Y-49756432D01*
X100255838Y-49573936D01*
X100315906Y-49375916D01*
X100336189Y-49169982D01*
X100315906Y-48964048D01*
X100255838Y-48766028D01*
X100158291Y-48583532D01*
X100108735Y-48523147D01*
X100081422Y-48458837D01*
X100093213Y-48389969D01*
X100140366Y-48338409D01*
X100204588Y-48320482D01*
X100896624Y-48320482D01*
X100963663Y-48340167D01*
X101009418Y-48392971D01*
X101019362Y-48462129D01*
X100992477Y-48523147D01*
X100942923Y-48583528D01*
X100845375Y-48766025D01*
X100785305Y-48964049D01*
X100765023Y-49169982D01*
X100785305Y-49375914D01*
X100785306Y-49375916D01*
X100845374Y-49573936D01*
X100942921Y-49756432D01*
X100970887Y-49790509D01*
X101074195Y-49916392D01*
X101141012Y-49971226D01*
X101234156Y-50047667D01*
X101416652Y-50145214D01*
X101614672Y-50205282D01*
X101614671Y-50205282D01*
X101633135Y-50207100D01*
X101820606Y-50225565D01*
X102026540Y-50205282D01*
X102224560Y-50145214D01*
X102407056Y-50047667D01*
X102567016Y-49916392D01*
X102698291Y-49756432D01*
X102795838Y-49573936D01*
X102855906Y-49375916D01*
X102876189Y-49169982D01*
X102855906Y-48964048D01*
X102795838Y-48766028D01*
X102698291Y-48583532D01*
X102648735Y-48523147D01*
X102621422Y-48458837D01*
X102633213Y-48389969D01*
X102680366Y-48338409D01*
X102744588Y-48320482D01*
X103436624Y-48320482D01*
X103503663Y-48340167D01*
X103549418Y-48392971D01*
X103559362Y-48462129D01*
X103532477Y-48523147D01*
X103482923Y-48583528D01*
X103385375Y-48766025D01*
X103325305Y-48964049D01*
X103305023Y-49169982D01*
X103325305Y-49375914D01*
X103325306Y-49375916D01*
X103385374Y-49573936D01*
X103482921Y-49756432D01*
X103510887Y-49790509D01*
X103614195Y-49916392D01*
X103681012Y-49971226D01*
X103774156Y-50047667D01*
X103956652Y-50145214D01*
X104154672Y-50205282D01*
X104154671Y-50205282D01*
X104173135Y-50207100D01*
X104360606Y-50225565D01*
X104566540Y-50205282D01*
X104764560Y-50145214D01*
X104947056Y-50047667D01*
X105107016Y-49916392D01*
X105238291Y-49756432D01*
X105335838Y-49573936D01*
X105395906Y-49375916D01*
X105416189Y-49169982D01*
X105395906Y-48964048D01*
X105335838Y-48766028D01*
X105238291Y-48583532D01*
X105188735Y-48523147D01*
X105161422Y-48458837D01*
X105173213Y-48389969D01*
X105220366Y-48338409D01*
X105284588Y-48320482D01*
X105976624Y-48320482D01*
X106043663Y-48340167D01*
X106089418Y-48392971D01*
X106099362Y-48462129D01*
X106072477Y-48523147D01*
X106022923Y-48583528D01*
X105925375Y-48766025D01*
X105865305Y-48964049D01*
X105845023Y-49169982D01*
X105865305Y-49375914D01*
X105865306Y-49375916D01*
X105925374Y-49573936D01*
X106022921Y-49756432D01*
X106050887Y-49790509D01*
X106154195Y-49916392D01*
X106221012Y-49971226D01*
X106314156Y-50047667D01*
X106496652Y-50145214D01*
X106694672Y-50205282D01*
X106694671Y-50205282D01*
X106713135Y-50207100D01*
X106900606Y-50225565D01*
X107106540Y-50205282D01*
X107304560Y-50145214D01*
X107487056Y-50047667D01*
X107647016Y-49916392D01*
X107778291Y-49756432D01*
X107875838Y-49573936D01*
X107935906Y-49375916D01*
X107956189Y-49169982D01*
X107935906Y-48964048D01*
X107875838Y-48766028D01*
X107778291Y-48583532D01*
X107728735Y-48523147D01*
X107701422Y-48458837D01*
X107713213Y-48389969D01*
X107760366Y-48338409D01*
X107824588Y-48320482D01*
X108516624Y-48320482D01*
X108583663Y-48340167D01*
X108629418Y-48392971D01*
X108639362Y-48462129D01*
X108612477Y-48523147D01*
X108562923Y-48583528D01*
X108465375Y-48766025D01*
X108405305Y-48964049D01*
X108385023Y-49169982D01*
X108405305Y-49375914D01*
X108405306Y-49375916D01*
X108465374Y-49573936D01*
X108562921Y-49756432D01*
X108590887Y-49790509D01*
X108694195Y-49916392D01*
X108761012Y-49971226D01*
X108854156Y-50047667D01*
X109036652Y-50145214D01*
X109234672Y-50205282D01*
X109234671Y-50205282D01*
X109253135Y-50207100D01*
X109440606Y-50225565D01*
X109646540Y-50205282D01*
X109844560Y-50145214D01*
X110027056Y-50047667D01*
X110187016Y-49916392D01*
X110318291Y-49756432D01*
X110415838Y-49573936D01*
X110475906Y-49375916D01*
X110496189Y-49169982D01*
X110475906Y-48964048D01*
X110415838Y-48766028D01*
X110318291Y-48583532D01*
X110268735Y-48523147D01*
X110241422Y-48458837D01*
X110253213Y-48389969D01*
X110300366Y-48338409D01*
X110364588Y-48320482D01*
X111056624Y-48320482D01*
X111123663Y-48340167D01*
X111169418Y-48392971D01*
X111179362Y-48462129D01*
X111152477Y-48523147D01*
X111102923Y-48583528D01*
X111005375Y-48766025D01*
X110945305Y-48964049D01*
X110925023Y-49169982D01*
X110945305Y-49375914D01*
X110945306Y-49375916D01*
X111005374Y-49573936D01*
X111102921Y-49756432D01*
X111130887Y-49790509D01*
X111234195Y-49916392D01*
X111301012Y-49971226D01*
X111394156Y-50047667D01*
X111576652Y-50145214D01*
X111774672Y-50205282D01*
X111774671Y-50205282D01*
X111793135Y-50207100D01*
X111980606Y-50225565D01*
X112186540Y-50205282D01*
X112384560Y-50145214D01*
X112567056Y-50047667D01*
X112727016Y-49916392D01*
X112858291Y-49756432D01*
X112955838Y-49573936D01*
X113015906Y-49375916D01*
X113036189Y-49169982D01*
X113015906Y-48964048D01*
X112955838Y-48766028D01*
X112858291Y-48583532D01*
X112808735Y-48523147D01*
X112781422Y-48458837D01*
X112793213Y-48389969D01*
X112840366Y-48338409D01*
X112904588Y-48320482D01*
X113596624Y-48320482D01*
X113663663Y-48340167D01*
X113709418Y-48392971D01*
X113719362Y-48462129D01*
X113692477Y-48523147D01*
X113642923Y-48583528D01*
X113545375Y-48766025D01*
X113485305Y-48964049D01*
X113465023Y-49169982D01*
X113485305Y-49375914D01*
X113485306Y-49375916D01*
X113545374Y-49573936D01*
X113642921Y-49756432D01*
X113670887Y-49790509D01*
X113774195Y-49916392D01*
X113841012Y-49971226D01*
X113934156Y-50047667D01*
X114116652Y-50145214D01*
X114314672Y-50205282D01*
X114314671Y-50205282D01*
X114333135Y-50207100D01*
X114520606Y-50225565D01*
X114726540Y-50205282D01*
X114924560Y-50145214D01*
X115107056Y-50047667D01*
X115267016Y-49916392D01*
X115398291Y-49756432D01*
X115495838Y-49573936D01*
X115555906Y-49375916D01*
X115576189Y-49169982D01*
X115555906Y-48964048D01*
X115495838Y-48766028D01*
X115398291Y-48583532D01*
X115348735Y-48523147D01*
X115321422Y-48458837D01*
X115333213Y-48389969D01*
X115380366Y-48338409D01*
X115444588Y-48320482D01*
X118189417Y-48320482D01*
X118256456Y-48340167D01*
X118277098Y-48356801D01*
X128352787Y-58432490D01*
X128386272Y-58493813D01*
X128389106Y-58520171D01*
X128389106Y-106153793D01*
X128369421Y-106220832D01*
X128352787Y-106241474D01*
X124780698Y-109813563D01*
X124719375Y-109847048D01*
X124693017Y-109849882D01*
X100986194Y-109849882D01*
X100919155Y-109830197D01*
X100898513Y-109813563D01*
X100194572Y-109109621D01*
X100161087Y-109048298D01*
X100159841Y-109036714D01*
X100159515Y-109036761D01*
X100137771Y-108885525D01*
X100077983Y-108754610D01*
X100077982Y-108754608D01*
X99983734Y-108645839D01*
X99862659Y-108568029D01*
X99862657Y-108568028D01*
X99862655Y-108568027D01*
X99862656Y-108568027D01*
X99724569Y-108527482D01*
X99724567Y-108527482D01*
X99580645Y-108527482D01*
X99580642Y-108527482D01*
X99442555Y-108568027D01*
X99321479Y-108645838D01*
X99227229Y-108754608D01*
X99227228Y-108754610D01*
X99167440Y-108885525D01*
X99146959Y-109027982D01*
X99167440Y-109170438D01*
X99227228Y-109301353D01*
X99227229Y-109301355D01*
X99321478Y-109410125D01*
X99442553Y-109487935D01*
X99442556Y-109487936D01*
X99442555Y-109487936D01*
X99580642Y-109528481D01*
X99580644Y-109528482D01*
X99580645Y-109528482D01*
X99641417Y-109528482D01*
X99708456Y-109548167D01*
X99729098Y-109564801D01*
X100535200Y-110370902D01*
X100535210Y-110370913D01*
X100539540Y-110375243D01*
X100539541Y-110375244D01*
X100600144Y-110435847D01*
X100600146Y-110435848D01*
X100600147Y-110435849D01*
X100674364Y-110478698D01*
X100674365Y-110478699D01*
X100674367Y-110478699D01*
X100674368Y-110478700D01*
X100757153Y-110500883D01*
X100757155Y-110500883D01*
X100850455Y-110500883D01*
X100850471Y-110500882D01*
X124922057Y-110500882D01*
X124922059Y-110500882D01*
X125004845Y-110478700D01*
X125079068Y-110435847D01*
X128904258Y-106610654D01*
X128904263Y-106610651D01*
X128914466Y-106600447D01*
X128914468Y-106600447D01*
X128975071Y-106539844D01*
X129005296Y-106487493D01*
X129017924Y-106465621D01*
X129040107Y-106382835D01*
X129040107Y-106297129D01*
X129040107Y-106289534D01*
X129040106Y-106289516D01*
X129040106Y-58291131D01*
X129040106Y-58291129D01*
X129017924Y-58208344D01*
X129017924Y-58208343D01*
X128975071Y-58134120D01*
X119689957Y-48849006D01*
X125581324Y-48849006D01*
X125581324Y-49091583D01*
X125612985Y-49332080D01*
X125675771Y-49566399D01*
X125766711Y-49785947D01*
X125768600Y-49790507D01*
X125889888Y-50000584D01*
X125889890Y-50000587D01*
X125889891Y-50000588D01*
X126037557Y-50193031D01*
X126037563Y-50193038D01*
X126209080Y-50364555D01*
X126209086Y-50364560D01*
X126401535Y-50512231D01*
X126611612Y-50633519D01*
X126835724Y-50726349D01*
X127070035Y-50789133D01*
X127250410Y-50812879D01*
X127310535Y-50820795D01*
X127310536Y-50820795D01*
X127553113Y-50820795D01*
X127601212Y-50814462D01*
X127793613Y-50789133D01*
X128027924Y-50726349D01*
X128252036Y-50633519D01*
X128462113Y-50512231D01*
X128654562Y-50364560D01*
X128826089Y-50193033D01*
X128973760Y-50000584D01*
X129095048Y-49790507D01*
X129187878Y-49566395D01*
X129250662Y-49332084D01*
X129282324Y-49091583D01*
X129282324Y-48849007D01*
X129250662Y-48608506D01*
X129187878Y-48374195D01*
X129095048Y-48150083D01*
X128973760Y-47940006D01*
X128912842Y-47860616D01*
X128826090Y-47747558D01*
X128826084Y-47747551D01*
X128654567Y-47576034D01*
X128654560Y-47576028D01*
X128462117Y-47428362D01*
X128462116Y-47428361D01*
X128462113Y-47428359D01*
X128252036Y-47307071D01*
X128201101Y-47285973D01*
X128027928Y-47214242D01*
X127793609Y-47151456D01*
X127553113Y-47119795D01*
X127553112Y-47119795D01*
X127310536Y-47119795D01*
X127310535Y-47119795D01*
X127070038Y-47151456D01*
X126835719Y-47214242D01*
X126611618Y-47307068D01*
X126611609Y-47307072D01*
X126401530Y-47428362D01*
X126209087Y-47576028D01*
X126209080Y-47576034D01*
X126037563Y-47747551D01*
X126037557Y-47747558D01*
X125889891Y-47940001D01*
X125768601Y-48150080D01*
X125768597Y-48150089D01*
X125675771Y-48374190D01*
X125612985Y-48608509D01*
X125581324Y-48849006D01*
X119689957Y-48849006D01*
X118575468Y-47734517D01*
X118538354Y-47713089D01*
X118501246Y-47691664D01*
X118459852Y-47680573D01*
X118418459Y-47669482D01*
X70896758Y-47669482D01*
X70811052Y-47669482D01*
X70728266Y-47691664D01*
X70728263Y-47691665D01*
X70691155Y-47713089D01*
X70691155Y-47713090D01*
X70654043Y-47734517D01*
X70654040Y-47734519D01*
X69905143Y-48483416D01*
X69905136Y-48483425D01*
X69867107Y-48549293D01*
X69816540Y-48597508D01*
X69747932Y-48610730D01*
X69683068Y-48584762D01*
X69663867Y-48565956D01*
X69547016Y-48423571D01*
X69396727Y-48300234D01*
X69387056Y-48292297D01*
X69204560Y-48194750D01*
X69006540Y-48134682D01*
X69006538Y-48134681D01*
X69006540Y-48134681D01*
X68800606Y-48114399D01*
X68594673Y-48134681D01*
X68396649Y-48194751D01*
X68308720Y-48241751D01*
X68214156Y-48292297D01*
X68214154Y-48292298D01*
X68214153Y-48292299D01*
X68054195Y-48423571D01*
X67944168Y-48557642D01*
X67922921Y-48583532D01*
X67908383Y-48610730D01*
X67825375Y-48766025D01*
X67765305Y-48964049D01*
X67745023Y-49169982D01*
X67311106Y-49169982D01*
X67311106Y-48300231D01*
X67311105Y-48300229D01*
X67299474Y-48241752D01*
X67299473Y-48241751D01*
X67255158Y-48175429D01*
X67188836Y-48131114D01*
X67188835Y-48131113D01*
X67130358Y-48119482D01*
X67130354Y-48119482D01*
X65390858Y-48119482D01*
X65390853Y-48119482D01*
X65332376Y-48131113D01*
X65332375Y-48131114D01*
X65266053Y-48175429D01*
X65221738Y-48241751D01*
X65221737Y-48241752D01*
X65210106Y-48300229D01*
X55117416Y-48300229D01*
X55055224Y-48150083D01*
X54933936Y-47940006D01*
X54873018Y-47860616D01*
X54786266Y-47747558D01*
X54786260Y-47747551D01*
X54614743Y-47576034D01*
X54614736Y-47576028D01*
X54422293Y-47428362D01*
X54422292Y-47428361D01*
X54422289Y-47428359D01*
X54212212Y-47307071D01*
X54161277Y-47285973D01*
X53988104Y-47214242D01*
X53753785Y-47151456D01*
X53513289Y-47119795D01*
X53513288Y-47119795D01*
X53270712Y-47119795D01*
X53270711Y-47119795D01*
X53030214Y-47151456D01*
X52795895Y-47214242D01*
X52571794Y-47307068D01*
X52571785Y-47307072D01*
X52361706Y-47428362D01*
X52169263Y-47576028D01*
X52169256Y-47576034D01*
X51997739Y-47747551D01*
X51997733Y-47747558D01*
X51850067Y-47940001D01*
X51728777Y-48150080D01*
X51728773Y-48150089D01*
X51635947Y-48374190D01*
X51573161Y-48608509D01*
X51541500Y-48849006D01*
X50600382Y-48849006D01*
X50602235Y-48816007D01*
X50608786Y-48699355D01*
X50610340Y-48685556D01*
X50659657Y-48395299D01*
X50662751Y-48381747D01*
X50675237Y-48338409D01*
X50744255Y-48098840D01*
X50748847Y-48085719D01*
X50861515Y-47813715D01*
X50867535Y-47801215D01*
X51009964Y-47543506D01*
X51017341Y-47531767D01*
X51187719Y-47291643D01*
X51196365Y-47280800D01*
X51392567Y-47061249D01*
X51402379Y-47051437D01*
X51621930Y-46855235D01*
X51632773Y-46846589D01*
X51872897Y-46676211D01*
X51884636Y-46668834D01*
X52142345Y-46526405D01*
X52154845Y-46520385D01*
X52426853Y-46407715D01*
X52439970Y-46403125D01*
X52722882Y-46321619D01*
X52736429Y-46318527D01*
X53026686Y-46269210D01*
X53040483Y-46267656D01*
X53337891Y-46250953D01*
X53344878Y-46250759D01*
X127305608Y-46272477D01*
G37*
%TD.AperFunction*%
%TD*%
%TA.AperFunction,Conductor*%
%TO.N,Net-(J4-Pin_2)*%
G36*
X60912283Y-58607667D02*
G01*
X60932925Y-58624301D01*
X61368287Y-59059663D01*
X61401772Y-59120986D01*
X61404606Y-59147344D01*
X61404606Y-60314620D01*
X61384921Y-60381659D01*
X61368287Y-60402301D01*
X60932925Y-60837663D01*
X60871602Y-60871148D01*
X60845244Y-60873982D01*
X60134605Y-60873982D01*
X59626606Y-61381981D01*
X59626606Y-114670620D01*
X59606921Y-114737659D01*
X59590287Y-114758301D01*
X59154925Y-115193663D01*
X59093602Y-115227148D01*
X59067244Y-115229982D01*
X55867968Y-115229982D01*
X55800929Y-115210297D01*
X55780287Y-115193663D01*
X55344925Y-114758301D01*
X55311440Y-114696978D01*
X55308606Y-114670620D01*
X55308606Y-98025245D01*
X55321606Y-97969973D01*
X55365465Y-97881893D01*
X55365464Y-97881893D01*
X55365470Y-97881883D01*
X55425849Y-97669673D01*
X55446206Y-97449982D01*
X55425849Y-97230291D01*
X55417080Y-97199472D01*
X55365472Y-97018085D01*
X55365469Y-97018079D01*
X55321606Y-96929990D01*
X55308606Y-96874718D01*
X55308606Y-75165245D01*
X55321606Y-75109973D01*
X55365465Y-75021893D01*
X55365464Y-75021893D01*
X55365470Y-75021883D01*
X55425849Y-74809673D01*
X55446206Y-74589982D01*
X55443430Y-74560029D01*
X55425849Y-74370291D01*
X55425848Y-74370288D01*
X55365472Y-74158085D01*
X55365469Y-74158079D01*
X55321606Y-74069990D01*
X55308606Y-74014718D01*
X55308606Y-59147344D01*
X55328291Y-59080305D01*
X55344925Y-59059663D01*
X55780287Y-58624301D01*
X55841610Y-58590816D01*
X55867968Y-58587982D01*
X60845244Y-58587982D01*
X60912283Y-58607667D01*
G37*
%TD.AperFunction*%
%TD*%
M02*
