%TF.GenerationSoftware,KiCad,Pcbnew,8.0.6*%
%TF.CreationDate,2024-11-27T19:42:17+03:00*%
%TF.ProjectId,EPSv3,45505376-332e-46b6-9963-61645f706362,rev?*%
%TF.SameCoordinates,Original*%
%TF.FileFunction,Soldermask,Bot*%
%TF.FilePolarity,Negative*%
%FSLAX46Y46*%
G04 Gerber Fmt 4.6, Leading zero omitted, Abs format (unit mm)*
G04 Created by KiCad (PCBNEW 8.0.6) date 2024-11-27 19:42:17*
%MOMM*%
%LPD*%
G01*
G04 APERTURE LIST*
G04 Aperture macros list*
%AMRoundRect*
0 Rectangle with rounded corners*
0 $1 Rounding radius*
0 $2 $3 $4 $5 $6 $7 $8 $9 X,Y pos of 4 corners*
0 Add a 4 corners polygon primitive as box body*
4,1,4,$2,$3,$4,$5,$6,$7,$8,$9,$2,$3,0*
0 Add four circle primitives for the rounded corners*
1,1,$1+$1,$2,$3*
1,1,$1+$1,$4,$5*
1,1,$1+$1,$6,$7*
1,1,$1+$1,$8,$9*
0 Add four rect primitives between the rounded corners*
20,1,$1+$1,$2,$3,$4,$5,0*
20,1,$1+$1,$4,$5,$6,$7,0*
20,1,$1+$1,$6,$7,$8,$9,0*
20,1,$1+$1,$8,$9,$2,$3,0*%
G04 Aperture macros list end*
%ADD10RoundRect,0.250000X-0.600000X-0.750000X0.600000X-0.750000X0.600000X0.750000X-0.600000X0.750000X0*%
%ADD11O,1.700000X2.000000*%
%ADD12R,2.595000X2.595000*%
%ADD13C,2.595000*%
%ADD14RoundRect,0.250000X-0.750000X0.600000X-0.750000X-0.600000X0.750000X-0.600000X0.750000X0.600000X0*%
%ADD15O,2.000000X1.700000*%
%ADD16O,1.100000X1.700000*%
%ADD17C,3.200000*%
%ADD18R,1.700000X1.700000*%
%ADD19O,1.700000X1.700000*%
%ADD20C,3.550000*%
%ADD21C,2.390000*%
%ADD22C,2.184000*%
G04 APERTURE END LIST*
D10*
%TO.C,J2*%
X113494606Y-116859982D03*
D11*
X115994606Y-116859982D03*
%TD*%
D12*
%TO.C,S1*%
X89598606Y-113831982D03*
D13*
X89598606Y-118531982D03*
X89598606Y-123231982D03*
%TD*%
D12*
%TO.C,S3*%
X62166606Y-113705982D03*
D13*
X57466606Y-113705982D03*
X52766606Y-113705982D03*
%TD*%
D14*
%TO.C,J4*%
X59520606Y-57083982D03*
D15*
X59520606Y-59583982D03*
%TD*%
D16*
%TO.C,J3*%
X69022606Y-119849982D03*
X69022606Y-123649982D03*
X77662606Y-119849982D03*
X77662606Y-123649982D03*
%TD*%
D10*
%TO.C,J1*%
X104858606Y-116859982D03*
D11*
X107358606Y-116859982D03*
%TD*%
D17*
%TO.C,H4*%
X127431824Y-48970295D03*
%TD*%
%TO.C,H1*%
X53392000Y-122988000D03*
%TD*%
%TO.C,H2*%
X127431824Y-122988000D03*
%TD*%
D18*
%TO.C,J5*%
X66260606Y-49169982D03*
D19*
X66260606Y-51709982D03*
X68800606Y-49169982D03*
X68800606Y-51709982D03*
X71340606Y-49169982D03*
X71340606Y-51709982D03*
X73880606Y-49169982D03*
X73880606Y-51709982D03*
X76420606Y-49169982D03*
X76420606Y-51709982D03*
X78960606Y-49169982D03*
X78960606Y-51709982D03*
X81500606Y-49169982D03*
X81500606Y-51709982D03*
X84040606Y-49169982D03*
X84040606Y-51709982D03*
X86580606Y-49169982D03*
X86580606Y-51709982D03*
X89120606Y-49169982D03*
X89120606Y-51709982D03*
X91660606Y-49169982D03*
X91660606Y-51709982D03*
X94200606Y-49169982D03*
X94200606Y-51709982D03*
X96740606Y-49169982D03*
X96740606Y-51709982D03*
X99280606Y-49169982D03*
X99280606Y-51709982D03*
X101820606Y-49169982D03*
X101820606Y-51709982D03*
X104360606Y-49169982D03*
X104360606Y-51709982D03*
X106900606Y-49169982D03*
X106900606Y-51709982D03*
X109440606Y-49169982D03*
X109440606Y-51709982D03*
X111980606Y-49169982D03*
X111980606Y-51709982D03*
X114520606Y-49169982D03*
X114520606Y-51709982D03*
%TD*%
D17*
%TO.C,H3*%
X53392000Y-48970295D03*
%TD*%
D20*
%TO.C,BT2*%
X63070606Y-66719982D03*
X118270606Y-82459982D03*
D21*
X126470606Y-66719982D03*
D22*
X54250606Y-74589982D03*
X126470606Y-74589982D03*
%TD*%
D20*
%TO.C,BT1*%
X63070606Y-89579982D03*
X118270606Y-105319982D03*
D21*
X126470606Y-89579982D03*
D22*
X54250606Y-97449982D03*
X126470606Y-97449982D03*
%TD*%
M02*
