%TF.GenerationSoftware,KiCad,Pcbnew,8.0.6*%
%TF.CreationDate,2024-11-27T19:43:05+03:00*%
%TF.ProjectId,EPSv3,45505376-332e-46b6-9963-61645f706362,rev?*%
%TF.SameCoordinates,Original*%
%TF.FileFunction,Drillmap*%
%TF.FilePolarity,Positive*%
%FSLAX45Y45*%
G04 Gerber Fmt 4.5, Leading zero omitted, Abs format (unit mm)*
G04 Created by KiCad (PCBNEW 8.0.6) date 2024-11-27 19:43:05*
%MOMM*%
%LPD*%
G01*
G04 APERTURE LIST*
%ADD10C,0.100000*%
%ADD11C,0.200000*%
%ADD12C,0.239000*%
%ADD13C,0.320000*%
%ADD14C,0.355000*%
G04 APERTURE END LIST*
D10*
X12737982Y-12628970D02*
X5334000Y-12629000D01*
X5009139Y-4900026D02*
G75*
G02*
X5334139Y-4575026I325000J0D01*
G01*
X13062982Y-12303970D02*
G75*
G02*
X12737982Y-12628972I-325002J1D01*
G01*
X13062982Y-4902200D02*
X13062982Y-12303970D01*
X5334000Y-12629000D02*
G75*
G02*
X5009000Y-12304000I0J325000D01*
G01*
X12737982Y-4577200D02*
G75*
G02*
X13062980Y-4902200I-2J-325000D01*
G01*
X5334139Y-4575026D02*
X12737982Y-4577200D01*
X5009139Y-4900026D02*
X5009000Y-12304000D01*
D11*
D12*
X12527561Y-6552498D02*
X12766561Y-6791498D01*
X12766561Y-6552498D02*
X12527561Y-6791498D01*
X12527561Y-8838498D02*
X12766561Y-9077498D01*
X12766561Y-8838498D02*
X12527561Y-9077498D01*
D13*
X5499200Y-4897030D02*
G75*
G02*
X5179200Y-4897030I-160000J0D01*
G01*
X5179200Y-4897030D02*
G75*
G02*
X5499200Y-4897030I160000J0D01*
G01*
X5499200Y-12298800D02*
G75*
G02*
X5179200Y-12298800I-160000J0D01*
G01*
X5179200Y-12298800D02*
G75*
G02*
X5499200Y-12298800I160000J0D01*
G01*
X12903182Y-4897030D02*
G75*
G02*
X12583182Y-4897030I-160000J0D01*
G01*
X12583182Y-4897030D02*
G75*
G02*
X12903182Y-4897030I160000J0D01*
G01*
X12903182Y-12298800D02*
G75*
G02*
X12583182Y-12298800I-160000J0D01*
G01*
X12583182Y-12298800D02*
G75*
G02*
X12903182Y-12298800I160000J0D01*
G01*
D14*
X6307061Y-6494498D02*
X6307061Y-6849498D01*
X6129561Y-6671998D02*
X6484561Y-6671998D01*
X6307061Y-8780498D02*
X6307061Y-9135498D01*
X6129561Y-8957998D02*
X6484561Y-8957998D01*
X11827061Y-8068498D02*
X11827061Y-8423498D01*
X11649561Y-8245998D02*
X12004561Y-8245998D01*
X11827061Y-10354498D02*
X11827061Y-10709498D01*
X11649561Y-10531998D02*
X12004561Y-10531998D01*
D11*
X5264777Y-12945484D02*
X5264777Y-12745484D01*
X5264777Y-12745484D02*
X5312396Y-12745484D01*
X5312396Y-12745484D02*
X5340967Y-12755008D01*
X5340967Y-12755008D02*
X5360015Y-12774055D01*
X5360015Y-12774055D02*
X5369539Y-12793103D01*
X5369539Y-12793103D02*
X5379063Y-12831198D01*
X5379063Y-12831198D02*
X5379063Y-12859769D01*
X5379063Y-12859769D02*
X5369539Y-12897865D01*
X5369539Y-12897865D02*
X5360015Y-12916912D01*
X5360015Y-12916912D02*
X5340967Y-12935960D01*
X5340967Y-12935960D02*
X5312396Y-12945484D01*
X5312396Y-12945484D02*
X5264777Y-12945484D01*
X5464777Y-12945484D02*
X5464777Y-12812150D01*
X5464777Y-12850246D02*
X5474301Y-12831198D01*
X5474301Y-12831198D02*
X5483824Y-12821674D01*
X5483824Y-12821674D02*
X5502872Y-12812150D01*
X5502872Y-12812150D02*
X5521920Y-12812150D01*
X5588586Y-12945484D02*
X5588586Y-12812150D01*
X5588586Y-12745484D02*
X5579063Y-12755008D01*
X5579063Y-12755008D02*
X5588586Y-12764531D01*
X5588586Y-12764531D02*
X5598110Y-12755008D01*
X5598110Y-12755008D02*
X5588586Y-12745484D01*
X5588586Y-12745484D02*
X5588586Y-12764531D01*
X5712396Y-12945484D02*
X5693348Y-12935960D01*
X5693348Y-12935960D02*
X5683824Y-12916912D01*
X5683824Y-12916912D02*
X5683824Y-12745484D01*
X5817158Y-12945484D02*
X5798110Y-12935960D01*
X5798110Y-12935960D02*
X5788586Y-12916912D01*
X5788586Y-12916912D02*
X5788586Y-12745484D01*
X6045729Y-12945484D02*
X6045729Y-12745484D01*
X6045729Y-12745484D02*
X6112396Y-12888341D01*
X6112396Y-12888341D02*
X6179062Y-12745484D01*
X6179062Y-12745484D02*
X6179062Y-12945484D01*
X6360015Y-12945484D02*
X6360015Y-12840722D01*
X6360015Y-12840722D02*
X6350491Y-12821674D01*
X6350491Y-12821674D02*
X6331443Y-12812150D01*
X6331443Y-12812150D02*
X6293348Y-12812150D01*
X6293348Y-12812150D02*
X6274301Y-12821674D01*
X6360015Y-12935960D02*
X6340967Y-12945484D01*
X6340967Y-12945484D02*
X6293348Y-12945484D01*
X6293348Y-12945484D02*
X6274301Y-12935960D01*
X6274301Y-12935960D02*
X6264777Y-12916912D01*
X6264777Y-12916912D02*
X6264777Y-12897865D01*
X6264777Y-12897865D02*
X6274301Y-12878817D01*
X6274301Y-12878817D02*
X6293348Y-12869293D01*
X6293348Y-12869293D02*
X6340967Y-12869293D01*
X6340967Y-12869293D02*
X6360015Y-12859769D01*
X6455253Y-12812150D02*
X6455253Y-13012150D01*
X6455253Y-12821674D02*
X6474301Y-12812150D01*
X6474301Y-12812150D02*
X6512396Y-12812150D01*
X6512396Y-12812150D02*
X6531443Y-12821674D01*
X6531443Y-12821674D02*
X6540967Y-12831198D01*
X6540967Y-12831198D02*
X6550491Y-12850246D01*
X6550491Y-12850246D02*
X6550491Y-12907388D01*
X6550491Y-12907388D02*
X6540967Y-12926436D01*
X6540967Y-12926436D02*
X6531443Y-12935960D01*
X6531443Y-12935960D02*
X6512396Y-12945484D01*
X6512396Y-12945484D02*
X6474301Y-12945484D01*
X6474301Y-12945484D02*
X6455253Y-12935960D01*
X6636205Y-12926436D02*
X6645729Y-12935960D01*
X6645729Y-12935960D02*
X6636205Y-12945484D01*
X6636205Y-12945484D02*
X6626682Y-12935960D01*
X6626682Y-12935960D02*
X6636205Y-12926436D01*
X6636205Y-12926436D02*
X6636205Y-12945484D01*
X6636205Y-12821674D02*
X6645729Y-12831198D01*
X6645729Y-12831198D02*
X6636205Y-12840722D01*
X6636205Y-12840722D02*
X6626682Y-12831198D01*
X6626682Y-12831198D02*
X6636205Y-12821674D01*
X6636205Y-12821674D02*
X6636205Y-12840722D01*
X4804000Y-13174000D02*
X5004000Y-13374000D01*
X5004000Y-13174000D02*
X4804000Y-13374000D01*
X5255253Y-13184531D02*
X5264777Y-13175008D01*
X5264777Y-13175008D02*
X5283824Y-13165484D01*
X5283824Y-13165484D02*
X5331444Y-13165484D01*
X5331444Y-13165484D02*
X5350491Y-13175008D01*
X5350491Y-13175008D02*
X5360015Y-13184531D01*
X5360015Y-13184531D02*
X5369539Y-13203579D01*
X5369539Y-13203579D02*
X5369539Y-13222627D01*
X5369539Y-13222627D02*
X5360015Y-13251198D01*
X5360015Y-13251198D02*
X5245729Y-13365484D01*
X5245729Y-13365484D02*
X5369539Y-13365484D01*
X5455253Y-13346436D02*
X5464777Y-13355960D01*
X5464777Y-13355960D02*
X5455253Y-13365484D01*
X5455253Y-13365484D02*
X5445729Y-13355960D01*
X5445729Y-13355960D02*
X5455253Y-13346436D01*
X5455253Y-13346436D02*
X5455253Y-13365484D01*
X5531444Y-13165484D02*
X5655253Y-13165484D01*
X5655253Y-13165484D02*
X5588586Y-13241674D01*
X5588586Y-13241674D02*
X5617158Y-13241674D01*
X5617158Y-13241674D02*
X5636205Y-13251198D01*
X5636205Y-13251198D02*
X5645729Y-13260722D01*
X5645729Y-13260722D02*
X5655253Y-13279769D01*
X5655253Y-13279769D02*
X5655253Y-13327388D01*
X5655253Y-13327388D02*
X5645729Y-13346436D01*
X5645729Y-13346436D02*
X5636205Y-13355960D01*
X5636205Y-13355960D02*
X5617158Y-13365484D01*
X5617158Y-13365484D02*
X5560015Y-13365484D01*
X5560015Y-13365484D02*
X5540967Y-13355960D01*
X5540967Y-13355960D02*
X5531444Y-13346436D01*
X5750491Y-13365484D02*
X5788586Y-13365484D01*
X5788586Y-13365484D02*
X5807634Y-13355960D01*
X5807634Y-13355960D02*
X5817158Y-13346436D01*
X5817158Y-13346436D02*
X5836205Y-13317865D01*
X5836205Y-13317865D02*
X5845729Y-13279769D01*
X5845729Y-13279769D02*
X5845729Y-13203579D01*
X5845729Y-13203579D02*
X5836205Y-13184531D01*
X5836205Y-13184531D02*
X5826682Y-13175008D01*
X5826682Y-13175008D02*
X5807634Y-13165484D01*
X5807634Y-13165484D02*
X5769539Y-13165484D01*
X5769539Y-13165484D02*
X5750491Y-13175008D01*
X5750491Y-13175008D02*
X5740967Y-13184531D01*
X5740967Y-13184531D02*
X5731443Y-13203579D01*
X5731443Y-13203579D02*
X5731443Y-13251198D01*
X5731443Y-13251198D02*
X5740967Y-13270246D01*
X5740967Y-13270246D02*
X5750491Y-13279769D01*
X5750491Y-13279769D02*
X5769539Y-13289293D01*
X5769539Y-13289293D02*
X5807634Y-13289293D01*
X5807634Y-13289293D02*
X5826682Y-13279769D01*
X5826682Y-13279769D02*
X5836205Y-13270246D01*
X5836205Y-13270246D02*
X5845729Y-13251198D01*
X5969539Y-13165484D02*
X5988586Y-13165484D01*
X5988586Y-13165484D02*
X6007634Y-13175008D01*
X6007634Y-13175008D02*
X6017158Y-13184531D01*
X6017158Y-13184531D02*
X6026682Y-13203579D01*
X6026682Y-13203579D02*
X6036205Y-13241674D01*
X6036205Y-13241674D02*
X6036205Y-13289293D01*
X6036205Y-13289293D02*
X6026682Y-13327388D01*
X6026682Y-13327388D02*
X6017158Y-13346436D01*
X6017158Y-13346436D02*
X6007634Y-13355960D01*
X6007634Y-13355960D02*
X5988586Y-13365484D01*
X5988586Y-13365484D02*
X5969539Y-13365484D01*
X5969539Y-13365484D02*
X5950491Y-13355960D01*
X5950491Y-13355960D02*
X5940967Y-13346436D01*
X5940967Y-13346436D02*
X5931443Y-13327388D01*
X5931443Y-13327388D02*
X5921920Y-13289293D01*
X5921920Y-13289293D02*
X5921920Y-13241674D01*
X5921920Y-13241674D02*
X5931443Y-13203579D01*
X5931443Y-13203579D02*
X5940967Y-13184531D01*
X5940967Y-13184531D02*
X5950491Y-13175008D01*
X5950491Y-13175008D02*
X5969539Y-13165484D01*
X6121920Y-13365484D02*
X6121920Y-13232150D01*
X6121920Y-13251198D02*
X6131443Y-13241674D01*
X6131443Y-13241674D02*
X6150491Y-13232150D01*
X6150491Y-13232150D02*
X6179063Y-13232150D01*
X6179063Y-13232150D02*
X6198110Y-13241674D01*
X6198110Y-13241674D02*
X6207634Y-13260722D01*
X6207634Y-13260722D02*
X6207634Y-13365484D01*
X6207634Y-13260722D02*
X6217158Y-13241674D01*
X6217158Y-13241674D02*
X6236205Y-13232150D01*
X6236205Y-13232150D02*
X6264777Y-13232150D01*
X6264777Y-13232150D02*
X6283824Y-13241674D01*
X6283824Y-13241674D02*
X6293348Y-13260722D01*
X6293348Y-13260722D02*
X6293348Y-13365484D01*
X6388586Y-13365484D02*
X6388586Y-13232150D01*
X6388586Y-13251198D02*
X6398110Y-13241674D01*
X6398110Y-13241674D02*
X6417158Y-13232150D01*
X6417158Y-13232150D02*
X6445729Y-13232150D01*
X6445729Y-13232150D02*
X6464777Y-13241674D01*
X6464777Y-13241674D02*
X6474301Y-13260722D01*
X6474301Y-13260722D02*
X6474301Y-13365484D01*
X6474301Y-13260722D02*
X6483824Y-13241674D01*
X6483824Y-13241674D02*
X6502872Y-13232150D01*
X6502872Y-13232150D02*
X6531443Y-13232150D01*
X6531443Y-13232150D02*
X6550491Y-13241674D01*
X6550491Y-13241674D02*
X6560015Y-13260722D01*
X6560015Y-13260722D02*
X6560015Y-13365484D01*
X6950491Y-13155960D02*
X6779063Y-13413103D01*
X7207634Y-13165484D02*
X7226682Y-13165484D01*
X7226682Y-13165484D02*
X7245729Y-13175008D01*
X7245729Y-13175008D02*
X7255253Y-13184531D01*
X7255253Y-13184531D02*
X7264777Y-13203579D01*
X7264777Y-13203579D02*
X7274301Y-13241674D01*
X7274301Y-13241674D02*
X7274301Y-13289293D01*
X7274301Y-13289293D02*
X7264777Y-13327388D01*
X7264777Y-13327388D02*
X7255253Y-13346436D01*
X7255253Y-13346436D02*
X7245729Y-13355960D01*
X7245729Y-13355960D02*
X7226682Y-13365484D01*
X7226682Y-13365484D02*
X7207634Y-13365484D01*
X7207634Y-13365484D02*
X7188586Y-13355960D01*
X7188586Y-13355960D02*
X7179063Y-13346436D01*
X7179063Y-13346436D02*
X7169539Y-13327388D01*
X7169539Y-13327388D02*
X7160015Y-13289293D01*
X7160015Y-13289293D02*
X7160015Y-13241674D01*
X7160015Y-13241674D02*
X7169539Y-13203579D01*
X7169539Y-13203579D02*
X7179063Y-13184531D01*
X7179063Y-13184531D02*
X7188586Y-13175008D01*
X7188586Y-13175008D02*
X7207634Y-13165484D01*
X7360015Y-13346436D02*
X7369539Y-13355960D01*
X7369539Y-13355960D02*
X7360015Y-13365484D01*
X7360015Y-13365484D02*
X7350491Y-13355960D01*
X7350491Y-13355960D02*
X7360015Y-13346436D01*
X7360015Y-13346436D02*
X7360015Y-13365484D01*
X7493348Y-13165484D02*
X7512396Y-13165484D01*
X7512396Y-13165484D02*
X7531444Y-13175008D01*
X7531444Y-13175008D02*
X7540967Y-13184531D01*
X7540967Y-13184531D02*
X7550491Y-13203579D01*
X7550491Y-13203579D02*
X7560015Y-13241674D01*
X7560015Y-13241674D02*
X7560015Y-13289293D01*
X7560015Y-13289293D02*
X7550491Y-13327388D01*
X7550491Y-13327388D02*
X7540967Y-13346436D01*
X7540967Y-13346436D02*
X7531444Y-13355960D01*
X7531444Y-13355960D02*
X7512396Y-13365484D01*
X7512396Y-13365484D02*
X7493348Y-13365484D01*
X7493348Y-13365484D02*
X7474301Y-13355960D01*
X7474301Y-13355960D02*
X7464777Y-13346436D01*
X7464777Y-13346436D02*
X7455253Y-13327388D01*
X7455253Y-13327388D02*
X7445729Y-13289293D01*
X7445729Y-13289293D02*
X7445729Y-13241674D01*
X7445729Y-13241674D02*
X7455253Y-13203579D01*
X7455253Y-13203579D02*
X7464777Y-13184531D01*
X7464777Y-13184531D02*
X7474301Y-13175008D01*
X7474301Y-13175008D02*
X7493348Y-13165484D01*
X7655253Y-13365484D02*
X7693348Y-13365484D01*
X7693348Y-13365484D02*
X7712396Y-13355960D01*
X7712396Y-13355960D02*
X7721920Y-13346436D01*
X7721920Y-13346436D02*
X7740967Y-13317865D01*
X7740967Y-13317865D02*
X7750491Y-13279769D01*
X7750491Y-13279769D02*
X7750491Y-13203579D01*
X7750491Y-13203579D02*
X7740967Y-13184531D01*
X7740967Y-13184531D02*
X7731444Y-13175008D01*
X7731444Y-13175008D02*
X7712396Y-13165484D01*
X7712396Y-13165484D02*
X7674301Y-13165484D01*
X7674301Y-13165484D02*
X7655253Y-13175008D01*
X7655253Y-13175008D02*
X7645729Y-13184531D01*
X7645729Y-13184531D02*
X7636206Y-13203579D01*
X7636206Y-13203579D02*
X7636206Y-13251198D01*
X7636206Y-13251198D02*
X7645729Y-13270246D01*
X7645729Y-13270246D02*
X7655253Y-13279769D01*
X7655253Y-13279769D02*
X7674301Y-13289293D01*
X7674301Y-13289293D02*
X7712396Y-13289293D01*
X7712396Y-13289293D02*
X7731444Y-13279769D01*
X7731444Y-13279769D02*
X7740967Y-13270246D01*
X7740967Y-13270246D02*
X7750491Y-13251198D01*
X7921920Y-13232150D02*
X7921920Y-13365484D01*
X7874301Y-13155960D02*
X7826682Y-13298817D01*
X7826682Y-13298817D02*
X7950491Y-13298817D01*
X8131444Y-13365484D02*
X8017158Y-13365484D01*
X8074301Y-13365484D02*
X8074301Y-13165484D01*
X8074301Y-13165484D02*
X8055253Y-13194055D01*
X8055253Y-13194055D02*
X8036206Y-13213103D01*
X8036206Y-13213103D02*
X8017158Y-13222627D01*
X8207634Y-13165484D02*
X8207634Y-13203579D01*
X8283825Y-13165484D02*
X8283825Y-13203579D01*
X8579063Y-13441674D02*
X8569539Y-13432150D01*
X8569539Y-13432150D02*
X8550491Y-13403579D01*
X8550491Y-13403579D02*
X8540968Y-13384531D01*
X8540968Y-13384531D02*
X8531444Y-13355960D01*
X8531444Y-13355960D02*
X8521920Y-13308341D01*
X8521920Y-13308341D02*
X8521920Y-13270246D01*
X8521920Y-13270246D02*
X8531444Y-13222627D01*
X8531444Y-13222627D02*
X8540968Y-13194055D01*
X8540968Y-13194055D02*
X8550491Y-13175008D01*
X8550491Y-13175008D02*
X8569539Y-13146436D01*
X8569539Y-13146436D02*
X8579063Y-13136912D01*
X8645730Y-13184531D02*
X8655253Y-13175008D01*
X8655253Y-13175008D02*
X8674301Y-13165484D01*
X8674301Y-13165484D02*
X8721920Y-13165484D01*
X8721920Y-13165484D02*
X8740968Y-13175008D01*
X8740968Y-13175008D02*
X8750491Y-13184531D01*
X8750491Y-13184531D02*
X8760015Y-13203579D01*
X8760015Y-13203579D02*
X8760015Y-13222627D01*
X8760015Y-13222627D02*
X8750491Y-13251198D01*
X8750491Y-13251198D02*
X8636206Y-13365484D01*
X8636206Y-13365484D02*
X8760015Y-13365484D01*
X8998111Y-13365484D02*
X8998111Y-13165484D01*
X9083825Y-13365484D02*
X9083825Y-13260722D01*
X9083825Y-13260722D02*
X9074301Y-13241674D01*
X9074301Y-13241674D02*
X9055253Y-13232150D01*
X9055253Y-13232150D02*
X9026682Y-13232150D01*
X9026682Y-13232150D02*
X9007634Y-13241674D01*
X9007634Y-13241674D02*
X8998111Y-13251198D01*
X9207634Y-13365484D02*
X9188587Y-13355960D01*
X9188587Y-13355960D02*
X9179063Y-13346436D01*
X9179063Y-13346436D02*
X9169539Y-13327388D01*
X9169539Y-13327388D02*
X9169539Y-13270246D01*
X9169539Y-13270246D02*
X9179063Y-13251198D01*
X9179063Y-13251198D02*
X9188587Y-13241674D01*
X9188587Y-13241674D02*
X9207634Y-13232150D01*
X9207634Y-13232150D02*
X9236206Y-13232150D01*
X9236206Y-13232150D02*
X9255253Y-13241674D01*
X9255253Y-13241674D02*
X9264777Y-13251198D01*
X9264777Y-13251198D02*
X9274301Y-13270246D01*
X9274301Y-13270246D02*
X9274301Y-13327388D01*
X9274301Y-13327388D02*
X9264777Y-13346436D01*
X9264777Y-13346436D02*
X9255253Y-13355960D01*
X9255253Y-13355960D02*
X9236206Y-13365484D01*
X9236206Y-13365484D02*
X9207634Y-13365484D01*
X9388587Y-13365484D02*
X9369539Y-13355960D01*
X9369539Y-13355960D02*
X9360015Y-13336912D01*
X9360015Y-13336912D02*
X9360015Y-13165484D01*
X9540968Y-13355960D02*
X9521920Y-13365484D01*
X9521920Y-13365484D02*
X9483825Y-13365484D01*
X9483825Y-13365484D02*
X9464777Y-13355960D01*
X9464777Y-13355960D02*
X9455253Y-13336912D01*
X9455253Y-13336912D02*
X9455253Y-13260722D01*
X9455253Y-13260722D02*
X9464777Y-13241674D01*
X9464777Y-13241674D02*
X9483825Y-13232150D01*
X9483825Y-13232150D02*
X9521920Y-13232150D01*
X9521920Y-13232150D02*
X9540968Y-13241674D01*
X9540968Y-13241674D02*
X9550492Y-13260722D01*
X9550492Y-13260722D02*
X9550492Y-13279769D01*
X9550492Y-13279769D02*
X9455253Y-13298817D01*
X9626682Y-13355960D02*
X9645730Y-13365484D01*
X9645730Y-13365484D02*
X9683825Y-13365484D01*
X9683825Y-13365484D02*
X9702873Y-13355960D01*
X9702873Y-13355960D02*
X9712396Y-13336912D01*
X9712396Y-13336912D02*
X9712396Y-13327388D01*
X9712396Y-13327388D02*
X9702873Y-13308341D01*
X9702873Y-13308341D02*
X9683825Y-13298817D01*
X9683825Y-13298817D02*
X9655253Y-13298817D01*
X9655253Y-13298817D02*
X9636206Y-13289293D01*
X9636206Y-13289293D02*
X9626682Y-13270246D01*
X9626682Y-13270246D02*
X9626682Y-13260722D01*
X9626682Y-13260722D02*
X9636206Y-13241674D01*
X9636206Y-13241674D02*
X9655253Y-13232150D01*
X9655253Y-13232150D02*
X9683825Y-13232150D01*
X9683825Y-13232150D02*
X9702873Y-13241674D01*
X9779063Y-13441674D02*
X9788587Y-13432150D01*
X9788587Y-13432150D02*
X9807634Y-13403579D01*
X9807634Y-13403579D02*
X9817158Y-13384531D01*
X9817158Y-13384531D02*
X9826682Y-13355960D01*
X9826682Y-13355960D02*
X9836206Y-13308341D01*
X9836206Y-13308341D02*
X9836206Y-13270246D01*
X9836206Y-13270246D02*
X9826682Y-13222627D01*
X9826682Y-13222627D02*
X9817158Y-13194055D01*
X9817158Y-13194055D02*
X9807634Y-13175008D01*
X9807634Y-13175008D02*
X9788587Y-13146436D01*
X9788587Y-13146436D02*
X9779063Y-13136912D01*
X10140968Y-13441674D02*
X10131444Y-13432150D01*
X10131444Y-13432150D02*
X10112396Y-13403579D01*
X10112396Y-13403579D02*
X10102873Y-13384531D01*
X10102873Y-13384531D02*
X10093349Y-13355960D01*
X10093349Y-13355960D02*
X10083825Y-13308341D01*
X10083825Y-13308341D02*
X10083825Y-13270246D01*
X10083825Y-13270246D02*
X10093349Y-13222627D01*
X10093349Y-13222627D02*
X10102873Y-13194055D01*
X10102873Y-13194055D02*
X10112396Y-13175008D01*
X10112396Y-13175008D02*
X10131444Y-13146436D01*
X10131444Y-13146436D02*
X10140968Y-13136912D01*
X10217158Y-13232150D02*
X10217158Y-13365484D01*
X10217158Y-13251198D02*
X10226682Y-13241674D01*
X10226682Y-13241674D02*
X10245730Y-13232150D01*
X10245730Y-13232150D02*
X10274301Y-13232150D01*
X10274301Y-13232150D02*
X10293349Y-13241674D01*
X10293349Y-13241674D02*
X10302873Y-13260722D01*
X10302873Y-13260722D02*
X10302873Y-13365484D01*
X10426682Y-13365484D02*
X10407634Y-13355960D01*
X10407634Y-13355960D02*
X10398111Y-13346436D01*
X10398111Y-13346436D02*
X10388587Y-13327388D01*
X10388587Y-13327388D02*
X10388587Y-13270246D01*
X10388587Y-13270246D02*
X10398111Y-13251198D01*
X10398111Y-13251198D02*
X10407634Y-13241674D01*
X10407634Y-13241674D02*
X10426682Y-13232150D01*
X10426682Y-13232150D02*
X10455254Y-13232150D01*
X10455254Y-13232150D02*
X10474301Y-13241674D01*
X10474301Y-13241674D02*
X10483825Y-13251198D01*
X10483825Y-13251198D02*
X10493349Y-13270246D01*
X10493349Y-13270246D02*
X10493349Y-13327388D01*
X10493349Y-13327388D02*
X10483825Y-13346436D01*
X10483825Y-13346436D02*
X10474301Y-13355960D01*
X10474301Y-13355960D02*
X10455254Y-13365484D01*
X10455254Y-13365484D02*
X10426682Y-13365484D01*
X10550492Y-13232150D02*
X10626682Y-13232150D01*
X10579063Y-13165484D02*
X10579063Y-13336912D01*
X10579063Y-13336912D02*
X10588587Y-13355960D01*
X10588587Y-13355960D02*
X10607634Y-13365484D01*
X10607634Y-13365484D02*
X10626682Y-13365484D01*
X10845730Y-13232150D02*
X10845730Y-13432150D01*
X10845730Y-13241674D02*
X10864777Y-13232150D01*
X10864777Y-13232150D02*
X10902873Y-13232150D01*
X10902873Y-13232150D02*
X10921920Y-13241674D01*
X10921920Y-13241674D02*
X10931444Y-13251198D01*
X10931444Y-13251198D02*
X10940968Y-13270246D01*
X10940968Y-13270246D02*
X10940968Y-13327388D01*
X10940968Y-13327388D02*
X10931444Y-13346436D01*
X10931444Y-13346436D02*
X10921920Y-13355960D01*
X10921920Y-13355960D02*
X10902873Y-13365484D01*
X10902873Y-13365484D02*
X10864777Y-13365484D01*
X10864777Y-13365484D02*
X10845730Y-13355960D01*
X11055254Y-13365484D02*
X11036206Y-13355960D01*
X11036206Y-13355960D02*
X11026682Y-13336912D01*
X11026682Y-13336912D02*
X11026682Y-13165484D01*
X11217158Y-13365484D02*
X11217158Y-13260722D01*
X11217158Y-13260722D02*
X11207634Y-13241674D01*
X11207634Y-13241674D02*
X11188587Y-13232150D01*
X11188587Y-13232150D02*
X11150492Y-13232150D01*
X11150492Y-13232150D02*
X11131444Y-13241674D01*
X11217158Y-13355960D02*
X11198111Y-13365484D01*
X11198111Y-13365484D02*
X11150492Y-13365484D01*
X11150492Y-13365484D02*
X11131444Y-13355960D01*
X11131444Y-13355960D02*
X11121920Y-13336912D01*
X11121920Y-13336912D02*
X11121920Y-13317865D01*
X11121920Y-13317865D02*
X11131444Y-13298817D01*
X11131444Y-13298817D02*
X11150492Y-13289293D01*
X11150492Y-13289293D02*
X11198111Y-13289293D01*
X11198111Y-13289293D02*
X11217158Y-13279769D01*
X11283825Y-13232150D02*
X11360015Y-13232150D01*
X11312396Y-13165484D02*
X11312396Y-13336912D01*
X11312396Y-13336912D02*
X11321920Y-13355960D01*
X11321920Y-13355960D02*
X11340968Y-13365484D01*
X11340968Y-13365484D02*
X11360015Y-13365484D01*
X11502873Y-13355960D02*
X11483825Y-13365484D01*
X11483825Y-13365484D02*
X11445730Y-13365484D01*
X11445730Y-13365484D02*
X11426682Y-13355960D01*
X11426682Y-13355960D02*
X11417158Y-13336912D01*
X11417158Y-13336912D02*
X11417158Y-13260722D01*
X11417158Y-13260722D02*
X11426682Y-13241674D01*
X11426682Y-13241674D02*
X11445730Y-13232150D01*
X11445730Y-13232150D02*
X11483825Y-13232150D01*
X11483825Y-13232150D02*
X11502873Y-13241674D01*
X11502873Y-13241674D02*
X11512396Y-13260722D01*
X11512396Y-13260722D02*
X11512396Y-13279769D01*
X11512396Y-13279769D02*
X11417158Y-13298817D01*
X11683825Y-13365484D02*
X11683825Y-13165484D01*
X11683825Y-13355960D02*
X11664777Y-13365484D01*
X11664777Y-13365484D02*
X11626682Y-13365484D01*
X11626682Y-13365484D02*
X11607634Y-13355960D01*
X11607634Y-13355960D02*
X11598111Y-13346436D01*
X11598111Y-13346436D02*
X11588587Y-13327388D01*
X11588587Y-13327388D02*
X11588587Y-13270246D01*
X11588587Y-13270246D02*
X11598111Y-13251198D01*
X11598111Y-13251198D02*
X11607634Y-13241674D01*
X11607634Y-13241674D02*
X11626682Y-13232150D01*
X11626682Y-13232150D02*
X11664777Y-13232150D01*
X11664777Y-13232150D02*
X11683825Y-13241674D01*
X11760015Y-13441674D02*
X11769539Y-13432150D01*
X11769539Y-13432150D02*
X11788587Y-13403579D01*
X11788587Y-13403579D02*
X11798111Y-13384531D01*
X11798111Y-13384531D02*
X11807634Y-13355960D01*
X11807634Y-13355960D02*
X11817158Y-13308341D01*
X11817158Y-13308341D02*
X11817158Y-13270246D01*
X11817158Y-13270246D02*
X11807634Y-13222627D01*
X11807634Y-13222627D02*
X11798111Y-13194055D01*
X11798111Y-13194055D02*
X11788587Y-13175008D01*
X11788587Y-13175008D02*
X11769539Y-13146436D01*
X11769539Y-13146436D02*
X11760015Y-13136912D01*
X5004000Y-13594000D02*
G75*
G02*
X4804000Y-13594000I-100000J0D01*
G01*
X4804000Y-13594000D02*
G75*
G02*
X5004000Y-13594000I100000J0D01*
G01*
X5245729Y-13485484D02*
X5369539Y-13485484D01*
X5369539Y-13485484D02*
X5302872Y-13561674D01*
X5302872Y-13561674D02*
X5331444Y-13561674D01*
X5331444Y-13561674D02*
X5350491Y-13571198D01*
X5350491Y-13571198D02*
X5360015Y-13580722D01*
X5360015Y-13580722D02*
X5369539Y-13599769D01*
X5369539Y-13599769D02*
X5369539Y-13647388D01*
X5369539Y-13647388D02*
X5360015Y-13666436D01*
X5360015Y-13666436D02*
X5350491Y-13675960D01*
X5350491Y-13675960D02*
X5331444Y-13685484D01*
X5331444Y-13685484D02*
X5274301Y-13685484D01*
X5274301Y-13685484D02*
X5255253Y-13675960D01*
X5255253Y-13675960D02*
X5245729Y-13666436D01*
X5455253Y-13666436D02*
X5464777Y-13675960D01*
X5464777Y-13675960D02*
X5455253Y-13685484D01*
X5455253Y-13685484D02*
X5445729Y-13675960D01*
X5445729Y-13675960D02*
X5455253Y-13666436D01*
X5455253Y-13666436D02*
X5455253Y-13685484D01*
X5540967Y-13504531D02*
X5550491Y-13495008D01*
X5550491Y-13495008D02*
X5569539Y-13485484D01*
X5569539Y-13485484D02*
X5617158Y-13485484D01*
X5617158Y-13485484D02*
X5636205Y-13495008D01*
X5636205Y-13495008D02*
X5645729Y-13504531D01*
X5645729Y-13504531D02*
X5655253Y-13523579D01*
X5655253Y-13523579D02*
X5655253Y-13542627D01*
X5655253Y-13542627D02*
X5645729Y-13571198D01*
X5645729Y-13571198D02*
X5531444Y-13685484D01*
X5531444Y-13685484D02*
X5655253Y-13685484D01*
X5779062Y-13485484D02*
X5798110Y-13485484D01*
X5798110Y-13485484D02*
X5817158Y-13495008D01*
X5817158Y-13495008D02*
X5826682Y-13504531D01*
X5826682Y-13504531D02*
X5836205Y-13523579D01*
X5836205Y-13523579D02*
X5845729Y-13561674D01*
X5845729Y-13561674D02*
X5845729Y-13609293D01*
X5845729Y-13609293D02*
X5836205Y-13647388D01*
X5836205Y-13647388D02*
X5826682Y-13666436D01*
X5826682Y-13666436D02*
X5817158Y-13675960D01*
X5817158Y-13675960D02*
X5798110Y-13685484D01*
X5798110Y-13685484D02*
X5779062Y-13685484D01*
X5779062Y-13685484D02*
X5760015Y-13675960D01*
X5760015Y-13675960D02*
X5750491Y-13666436D01*
X5750491Y-13666436D02*
X5740967Y-13647388D01*
X5740967Y-13647388D02*
X5731443Y-13609293D01*
X5731443Y-13609293D02*
X5731443Y-13561674D01*
X5731443Y-13561674D02*
X5740967Y-13523579D01*
X5740967Y-13523579D02*
X5750491Y-13504531D01*
X5750491Y-13504531D02*
X5760015Y-13495008D01*
X5760015Y-13495008D02*
X5779062Y-13485484D01*
X5969539Y-13485484D02*
X5988586Y-13485484D01*
X5988586Y-13485484D02*
X6007634Y-13495008D01*
X6007634Y-13495008D02*
X6017158Y-13504531D01*
X6017158Y-13504531D02*
X6026682Y-13523579D01*
X6026682Y-13523579D02*
X6036205Y-13561674D01*
X6036205Y-13561674D02*
X6036205Y-13609293D01*
X6036205Y-13609293D02*
X6026682Y-13647388D01*
X6026682Y-13647388D02*
X6017158Y-13666436D01*
X6017158Y-13666436D02*
X6007634Y-13675960D01*
X6007634Y-13675960D02*
X5988586Y-13685484D01*
X5988586Y-13685484D02*
X5969539Y-13685484D01*
X5969539Y-13685484D02*
X5950491Y-13675960D01*
X5950491Y-13675960D02*
X5940967Y-13666436D01*
X5940967Y-13666436D02*
X5931443Y-13647388D01*
X5931443Y-13647388D02*
X5921920Y-13609293D01*
X5921920Y-13609293D02*
X5921920Y-13561674D01*
X5921920Y-13561674D02*
X5931443Y-13523579D01*
X5931443Y-13523579D02*
X5940967Y-13504531D01*
X5940967Y-13504531D02*
X5950491Y-13495008D01*
X5950491Y-13495008D02*
X5969539Y-13485484D01*
X6121920Y-13685484D02*
X6121920Y-13552150D01*
X6121920Y-13571198D02*
X6131443Y-13561674D01*
X6131443Y-13561674D02*
X6150491Y-13552150D01*
X6150491Y-13552150D02*
X6179063Y-13552150D01*
X6179063Y-13552150D02*
X6198110Y-13561674D01*
X6198110Y-13561674D02*
X6207634Y-13580722D01*
X6207634Y-13580722D02*
X6207634Y-13685484D01*
X6207634Y-13580722D02*
X6217158Y-13561674D01*
X6217158Y-13561674D02*
X6236205Y-13552150D01*
X6236205Y-13552150D02*
X6264777Y-13552150D01*
X6264777Y-13552150D02*
X6283824Y-13561674D01*
X6283824Y-13561674D02*
X6293348Y-13580722D01*
X6293348Y-13580722D02*
X6293348Y-13685484D01*
X6388586Y-13685484D02*
X6388586Y-13552150D01*
X6388586Y-13571198D02*
X6398110Y-13561674D01*
X6398110Y-13561674D02*
X6417158Y-13552150D01*
X6417158Y-13552150D02*
X6445729Y-13552150D01*
X6445729Y-13552150D02*
X6464777Y-13561674D01*
X6464777Y-13561674D02*
X6474301Y-13580722D01*
X6474301Y-13580722D02*
X6474301Y-13685484D01*
X6474301Y-13580722D02*
X6483824Y-13561674D01*
X6483824Y-13561674D02*
X6502872Y-13552150D01*
X6502872Y-13552150D02*
X6531443Y-13552150D01*
X6531443Y-13552150D02*
X6550491Y-13561674D01*
X6550491Y-13561674D02*
X6560015Y-13580722D01*
X6560015Y-13580722D02*
X6560015Y-13685484D01*
X6950491Y-13475960D02*
X6779063Y-13733103D01*
X7207634Y-13485484D02*
X7226682Y-13485484D01*
X7226682Y-13485484D02*
X7245729Y-13495008D01*
X7245729Y-13495008D02*
X7255253Y-13504531D01*
X7255253Y-13504531D02*
X7264777Y-13523579D01*
X7264777Y-13523579D02*
X7274301Y-13561674D01*
X7274301Y-13561674D02*
X7274301Y-13609293D01*
X7274301Y-13609293D02*
X7264777Y-13647388D01*
X7264777Y-13647388D02*
X7255253Y-13666436D01*
X7255253Y-13666436D02*
X7245729Y-13675960D01*
X7245729Y-13675960D02*
X7226682Y-13685484D01*
X7226682Y-13685484D02*
X7207634Y-13685484D01*
X7207634Y-13685484D02*
X7188586Y-13675960D01*
X7188586Y-13675960D02*
X7179063Y-13666436D01*
X7179063Y-13666436D02*
X7169539Y-13647388D01*
X7169539Y-13647388D02*
X7160015Y-13609293D01*
X7160015Y-13609293D02*
X7160015Y-13561674D01*
X7160015Y-13561674D02*
X7169539Y-13523579D01*
X7169539Y-13523579D02*
X7179063Y-13504531D01*
X7179063Y-13504531D02*
X7188586Y-13495008D01*
X7188586Y-13495008D02*
X7207634Y-13485484D01*
X7360015Y-13666436D02*
X7369539Y-13675960D01*
X7369539Y-13675960D02*
X7360015Y-13685484D01*
X7360015Y-13685484D02*
X7350491Y-13675960D01*
X7350491Y-13675960D02*
X7360015Y-13666436D01*
X7360015Y-13666436D02*
X7360015Y-13685484D01*
X7560015Y-13685484D02*
X7445729Y-13685484D01*
X7502872Y-13685484D02*
X7502872Y-13485484D01*
X7502872Y-13485484D02*
X7483825Y-13514055D01*
X7483825Y-13514055D02*
X7464777Y-13533103D01*
X7464777Y-13533103D02*
X7445729Y-13542627D01*
X7636206Y-13504531D02*
X7645729Y-13495008D01*
X7645729Y-13495008D02*
X7664777Y-13485484D01*
X7664777Y-13485484D02*
X7712396Y-13485484D01*
X7712396Y-13485484D02*
X7731444Y-13495008D01*
X7731444Y-13495008D02*
X7740967Y-13504531D01*
X7740967Y-13504531D02*
X7750491Y-13523579D01*
X7750491Y-13523579D02*
X7750491Y-13542627D01*
X7750491Y-13542627D02*
X7740967Y-13571198D01*
X7740967Y-13571198D02*
X7626682Y-13685484D01*
X7626682Y-13685484D02*
X7750491Y-13685484D01*
X7921920Y-13485484D02*
X7883825Y-13485484D01*
X7883825Y-13485484D02*
X7864777Y-13495008D01*
X7864777Y-13495008D02*
X7855253Y-13504531D01*
X7855253Y-13504531D02*
X7836206Y-13533103D01*
X7836206Y-13533103D02*
X7826682Y-13571198D01*
X7826682Y-13571198D02*
X7826682Y-13647388D01*
X7826682Y-13647388D02*
X7836206Y-13666436D01*
X7836206Y-13666436D02*
X7845729Y-13675960D01*
X7845729Y-13675960D02*
X7864777Y-13685484D01*
X7864777Y-13685484D02*
X7902872Y-13685484D01*
X7902872Y-13685484D02*
X7921920Y-13675960D01*
X7921920Y-13675960D02*
X7931444Y-13666436D01*
X7931444Y-13666436D02*
X7940967Y-13647388D01*
X7940967Y-13647388D02*
X7940967Y-13599769D01*
X7940967Y-13599769D02*
X7931444Y-13580722D01*
X7931444Y-13580722D02*
X7921920Y-13571198D01*
X7921920Y-13571198D02*
X7902872Y-13561674D01*
X7902872Y-13561674D02*
X7864777Y-13561674D01*
X7864777Y-13561674D02*
X7845729Y-13571198D01*
X7845729Y-13571198D02*
X7836206Y-13580722D01*
X7836206Y-13580722D02*
X7826682Y-13599769D01*
X8064777Y-13485484D02*
X8083825Y-13485484D01*
X8083825Y-13485484D02*
X8102872Y-13495008D01*
X8102872Y-13495008D02*
X8112396Y-13504531D01*
X8112396Y-13504531D02*
X8121920Y-13523579D01*
X8121920Y-13523579D02*
X8131444Y-13561674D01*
X8131444Y-13561674D02*
X8131444Y-13609293D01*
X8131444Y-13609293D02*
X8121920Y-13647388D01*
X8121920Y-13647388D02*
X8112396Y-13666436D01*
X8112396Y-13666436D02*
X8102872Y-13675960D01*
X8102872Y-13675960D02*
X8083825Y-13685484D01*
X8083825Y-13685484D02*
X8064777Y-13685484D01*
X8064777Y-13685484D02*
X8045729Y-13675960D01*
X8045729Y-13675960D02*
X8036206Y-13666436D01*
X8036206Y-13666436D02*
X8026682Y-13647388D01*
X8026682Y-13647388D02*
X8017158Y-13609293D01*
X8017158Y-13609293D02*
X8017158Y-13561674D01*
X8017158Y-13561674D02*
X8026682Y-13523579D01*
X8026682Y-13523579D02*
X8036206Y-13504531D01*
X8036206Y-13504531D02*
X8045729Y-13495008D01*
X8045729Y-13495008D02*
X8064777Y-13485484D01*
X8207634Y-13485484D02*
X8207634Y-13523579D01*
X8283825Y-13485484D02*
X8283825Y-13523579D01*
X8579063Y-13761674D02*
X8569539Y-13752150D01*
X8569539Y-13752150D02*
X8550491Y-13723579D01*
X8550491Y-13723579D02*
X8540968Y-13704531D01*
X8540968Y-13704531D02*
X8531444Y-13675960D01*
X8531444Y-13675960D02*
X8521920Y-13628341D01*
X8521920Y-13628341D02*
X8521920Y-13590246D01*
X8521920Y-13590246D02*
X8531444Y-13542627D01*
X8531444Y-13542627D02*
X8540968Y-13514055D01*
X8540968Y-13514055D02*
X8550491Y-13495008D01*
X8550491Y-13495008D02*
X8569539Y-13466436D01*
X8569539Y-13466436D02*
X8579063Y-13456912D01*
X8740968Y-13552150D02*
X8740968Y-13685484D01*
X8693349Y-13475960D02*
X8645730Y-13618817D01*
X8645730Y-13618817D02*
X8769539Y-13618817D01*
X8998111Y-13685484D02*
X8998111Y-13485484D01*
X9083825Y-13685484D02*
X9083825Y-13580722D01*
X9083825Y-13580722D02*
X9074301Y-13561674D01*
X9074301Y-13561674D02*
X9055253Y-13552150D01*
X9055253Y-13552150D02*
X9026682Y-13552150D01*
X9026682Y-13552150D02*
X9007634Y-13561674D01*
X9007634Y-13561674D02*
X8998111Y-13571198D01*
X9207634Y-13685484D02*
X9188587Y-13675960D01*
X9188587Y-13675960D02*
X9179063Y-13666436D01*
X9179063Y-13666436D02*
X9169539Y-13647388D01*
X9169539Y-13647388D02*
X9169539Y-13590246D01*
X9169539Y-13590246D02*
X9179063Y-13571198D01*
X9179063Y-13571198D02*
X9188587Y-13561674D01*
X9188587Y-13561674D02*
X9207634Y-13552150D01*
X9207634Y-13552150D02*
X9236206Y-13552150D01*
X9236206Y-13552150D02*
X9255253Y-13561674D01*
X9255253Y-13561674D02*
X9264777Y-13571198D01*
X9264777Y-13571198D02*
X9274301Y-13590246D01*
X9274301Y-13590246D02*
X9274301Y-13647388D01*
X9274301Y-13647388D02*
X9264777Y-13666436D01*
X9264777Y-13666436D02*
X9255253Y-13675960D01*
X9255253Y-13675960D02*
X9236206Y-13685484D01*
X9236206Y-13685484D02*
X9207634Y-13685484D01*
X9388587Y-13685484D02*
X9369539Y-13675960D01*
X9369539Y-13675960D02*
X9360015Y-13656912D01*
X9360015Y-13656912D02*
X9360015Y-13485484D01*
X9540968Y-13675960D02*
X9521920Y-13685484D01*
X9521920Y-13685484D02*
X9483825Y-13685484D01*
X9483825Y-13685484D02*
X9464777Y-13675960D01*
X9464777Y-13675960D02*
X9455253Y-13656912D01*
X9455253Y-13656912D02*
X9455253Y-13580722D01*
X9455253Y-13580722D02*
X9464777Y-13561674D01*
X9464777Y-13561674D02*
X9483825Y-13552150D01*
X9483825Y-13552150D02*
X9521920Y-13552150D01*
X9521920Y-13552150D02*
X9540968Y-13561674D01*
X9540968Y-13561674D02*
X9550492Y-13580722D01*
X9550492Y-13580722D02*
X9550492Y-13599769D01*
X9550492Y-13599769D02*
X9455253Y-13618817D01*
X9626682Y-13675960D02*
X9645730Y-13685484D01*
X9645730Y-13685484D02*
X9683825Y-13685484D01*
X9683825Y-13685484D02*
X9702873Y-13675960D01*
X9702873Y-13675960D02*
X9712396Y-13656912D01*
X9712396Y-13656912D02*
X9712396Y-13647388D01*
X9712396Y-13647388D02*
X9702873Y-13628341D01*
X9702873Y-13628341D02*
X9683825Y-13618817D01*
X9683825Y-13618817D02*
X9655253Y-13618817D01*
X9655253Y-13618817D02*
X9636206Y-13609293D01*
X9636206Y-13609293D02*
X9626682Y-13590246D01*
X9626682Y-13590246D02*
X9626682Y-13580722D01*
X9626682Y-13580722D02*
X9636206Y-13561674D01*
X9636206Y-13561674D02*
X9655253Y-13552150D01*
X9655253Y-13552150D02*
X9683825Y-13552150D01*
X9683825Y-13552150D02*
X9702873Y-13561674D01*
X9779063Y-13761674D02*
X9788587Y-13752150D01*
X9788587Y-13752150D02*
X9807634Y-13723579D01*
X9807634Y-13723579D02*
X9817158Y-13704531D01*
X9817158Y-13704531D02*
X9826682Y-13675960D01*
X9826682Y-13675960D02*
X9836206Y-13628341D01*
X9836206Y-13628341D02*
X9836206Y-13590246D01*
X9836206Y-13590246D02*
X9826682Y-13542627D01*
X9826682Y-13542627D02*
X9817158Y-13514055D01*
X9817158Y-13514055D02*
X9807634Y-13495008D01*
X9807634Y-13495008D02*
X9788587Y-13466436D01*
X9788587Y-13466436D02*
X9779063Y-13456912D01*
X10140968Y-13761674D02*
X10131444Y-13752150D01*
X10131444Y-13752150D02*
X10112396Y-13723579D01*
X10112396Y-13723579D02*
X10102873Y-13704531D01*
X10102873Y-13704531D02*
X10093349Y-13675960D01*
X10093349Y-13675960D02*
X10083825Y-13628341D01*
X10083825Y-13628341D02*
X10083825Y-13590246D01*
X10083825Y-13590246D02*
X10093349Y-13542627D01*
X10093349Y-13542627D02*
X10102873Y-13514055D01*
X10102873Y-13514055D02*
X10112396Y-13495008D01*
X10112396Y-13495008D02*
X10131444Y-13466436D01*
X10131444Y-13466436D02*
X10140968Y-13456912D01*
X10217158Y-13552150D02*
X10217158Y-13685484D01*
X10217158Y-13571198D02*
X10226682Y-13561674D01*
X10226682Y-13561674D02*
X10245730Y-13552150D01*
X10245730Y-13552150D02*
X10274301Y-13552150D01*
X10274301Y-13552150D02*
X10293349Y-13561674D01*
X10293349Y-13561674D02*
X10302873Y-13580722D01*
X10302873Y-13580722D02*
X10302873Y-13685484D01*
X10426682Y-13685484D02*
X10407634Y-13675960D01*
X10407634Y-13675960D02*
X10398111Y-13666436D01*
X10398111Y-13666436D02*
X10388587Y-13647388D01*
X10388587Y-13647388D02*
X10388587Y-13590246D01*
X10388587Y-13590246D02*
X10398111Y-13571198D01*
X10398111Y-13571198D02*
X10407634Y-13561674D01*
X10407634Y-13561674D02*
X10426682Y-13552150D01*
X10426682Y-13552150D02*
X10455254Y-13552150D01*
X10455254Y-13552150D02*
X10474301Y-13561674D01*
X10474301Y-13561674D02*
X10483825Y-13571198D01*
X10483825Y-13571198D02*
X10493349Y-13590246D01*
X10493349Y-13590246D02*
X10493349Y-13647388D01*
X10493349Y-13647388D02*
X10483825Y-13666436D01*
X10483825Y-13666436D02*
X10474301Y-13675960D01*
X10474301Y-13675960D02*
X10455254Y-13685484D01*
X10455254Y-13685484D02*
X10426682Y-13685484D01*
X10550492Y-13552150D02*
X10626682Y-13552150D01*
X10579063Y-13485484D02*
X10579063Y-13656912D01*
X10579063Y-13656912D02*
X10588587Y-13675960D01*
X10588587Y-13675960D02*
X10607634Y-13685484D01*
X10607634Y-13685484D02*
X10626682Y-13685484D01*
X10845730Y-13552150D02*
X10845730Y-13752150D01*
X10845730Y-13561674D02*
X10864777Y-13552150D01*
X10864777Y-13552150D02*
X10902873Y-13552150D01*
X10902873Y-13552150D02*
X10921920Y-13561674D01*
X10921920Y-13561674D02*
X10931444Y-13571198D01*
X10931444Y-13571198D02*
X10940968Y-13590246D01*
X10940968Y-13590246D02*
X10940968Y-13647388D01*
X10940968Y-13647388D02*
X10931444Y-13666436D01*
X10931444Y-13666436D02*
X10921920Y-13675960D01*
X10921920Y-13675960D02*
X10902873Y-13685484D01*
X10902873Y-13685484D02*
X10864777Y-13685484D01*
X10864777Y-13685484D02*
X10845730Y-13675960D01*
X11055254Y-13685484D02*
X11036206Y-13675960D01*
X11036206Y-13675960D02*
X11026682Y-13656912D01*
X11026682Y-13656912D02*
X11026682Y-13485484D01*
X11217158Y-13685484D02*
X11217158Y-13580722D01*
X11217158Y-13580722D02*
X11207634Y-13561674D01*
X11207634Y-13561674D02*
X11188587Y-13552150D01*
X11188587Y-13552150D02*
X11150492Y-13552150D01*
X11150492Y-13552150D02*
X11131444Y-13561674D01*
X11217158Y-13675960D02*
X11198111Y-13685484D01*
X11198111Y-13685484D02*
X11150492Y-13685484D01*
X11150492Y-13685484D02*
X11131444Y-13675960D01*
X11131444Y-13675960D02*
X11121920Y-13656912D01*
X11121920Y-13656912D02*
X11121920Y-13637865D01*
X11121920Y-13637865D02*
X11131444Y-13618817D01*
X11131444Y-13618817D02*
X11150492Y-13609293D01*
X11150492Y-13609293D02*
X11198111Y-13609293D01*
X11198111Y-13609293D02*
X11217158Y-13599769D01*
X11283825Y-13552150D02*
X11360015Y-13552150D01*
X11312396Y-13485484D02*
X11312396Y-13656912D01*
X11312396Y-13656912D02*
X11321920Y-13675960D01*
X11321920Y-13675960D02*
X11340968Y-13685484D01*
X11340968Y-13685484D02*
X11360015Y-13685484D01*
X11502873Y-13675960D02*
X11483825Y-13685484D01*
X11483825Y-13685484D02*
X11445730Y-13685484D01*
X11445730Y-13685484D02*
X11426682Y-13675960D01*
X11426682Y-13675960D02*
X11417158Y-13656912D01*
X11417158Y-13656912D02*
X11417158Y-13580722D01*
X11417158Y-13580722D02*
X11426682Y-13561674D01*
X11426682Y-13561674D02*
X11445730Y-13552150D01*
X11445730Y-13552150D02*
X11483825Y-13552150D01*
X11483825Y-13552150D02*
X11502873Y-13561674D01*
X11502873Y-13561674D02*
X11512396Y-13580722D01*
X11512396Y-13580722D02*
X11512396Y-13599769D01*
X11512396Y-13599769D02*
X11417158Y-13618817D01*
X11683825Y-13685484D02*
X11683825Y-13485484D01*
X11683825Y-13675960D02*
X11664777Y-13685484D01*
X11664777Y-13685484D02*
X11626682Y-13685484D01*
X11626682Y-13685484D02*
X11607634Y-13675960D01*
X11607634Y-13675960D02*
X11598111Y-13666436D01*
X11598111Y-13666436D02*
X11588587Y-13647388D01*
X11588587Y-13647388D02*
X11588587Y-13590246D01*
X11588587Y-13590246D02*
X11598111Y-13571198D01*
X11598111Y-13571198D02*
X11607634Y-13561674D01*
X11607634Y-13561674D02*
X11626682Y-13552150D01*
X11626682Y-13552150D02*
X11664777Y-13552150D01*
X11664777Y-13552150D02*
X11683825Y-13561674D01*
X11760015Y-13761674D02*
X11769539Y-13752150D01*
X11769539Y-13752150D02*
X11788587Y-13723579D01*
X11788587Y-13723579D02*
X11798111Y-13704531D01*
X11798111Y-13704531D02*
X11807634Y-13675960D01*
X11807634Y-13675960D02*
X11817158Y-13628341D01*
X11817158Y-13628341D02*
X11817158Y-13590246D01*
X11817158Y-13590246D02*
X11807634Y-13542627D01*
X11807634Y-13542627D02*
X11798111Y-13514055D01*
X11798111Y-13514055D02*
X11788587Y-13495008D01*
X11788587Y-13495008D02*
X11769539Y-13466436D01*
X11769539Y-13466436D02*
X11760015Y-13456912D01*
X4904000Y-13814000D02*
X4904000Y-14014000D01*
X4804000Y-13914000D02*
X5004000Y-13914000D01*
X5245729Y-13805484D02*
X5369539Y-13805484D01*
X5369539Y-13805484D02*
X5302872Y-13881674D01*
X5302872Y-13881674D02*
X5331444Y-13881674D01*
X5331444Y-13881674D02*
X5350491Y-13891198D01*
X5350491Y-13891198D02*
X5360015Y-13900722D01*
X5360015Y-13900722D02*
X5369539Y-13919769D01*
X5369539Y-13919769D02*
X5369539Y-13967388D01*
X5369539Y-13967388D02*
X5360015Y-13986436D01*
X5360015Y-13986436D02*
X5350491Y-13995960D01*
X5350491Y-13995960D02*
X5331444Y-14005484D01*
X5331444Y-14005484D02*
X5274301Y-14005484D01*
X5274301Y-14005484D02*
X5255253Y-13995960D01*
X5255253Y-13995960D02*
X5245729Y-13986436D01*
X5455253Y-13986436D02*
X5464777Y-13995960D01*
X5464777Y-13995960D02*
X5455253Y-14005484D01*
X5455253Y-14005484D02*
X5445729Y-13995960D01*
X5445729Y-13995960D02*
X5455253Y-13986436D01*
X5455253Y-13986436D02*
X5455253Y-14005484D01*
X5645729Y-13805484D02*
X5550491Y-13805484D01*
X5550491Y-13805484D02*
X5540967Y-13900722D01*
X5540967Y-13900722D02*
X5550491Y-13891198D01*
X5550491Y-13891198D02*
X5569539Y-13881674D01*
X5569539Y-13881674D02*
X5617158Y-13881674D01*
X5617158Y-13881674D02*
X5636205Y-13891198D01*
X5636205Y-13891198D02*
X5645729Y-13900722D01*
X5645729Y-13900722D02*
X5655253Y-13919769D01*
X5655253Y-13919769D02*
X5655253Y-13967388D01*
X5655253Y-13967388D02*
X5645729Y-13986436D01*
X5645729Y-13986436D02*
X5636205Y-13995960D01*
X5636205Y-13995960D02*
X5617158Y-14005484D01*
X5617158Y-14005484D02*
X5569539Y-14005484D01*
X5569539Y-14005484D02*
X5550491Y-13995960D01*
X5550491Y-13995960D02*
X5540967Y-13986436D01*
X5836205Y-13805484D02*
X5740967Y-13805484D01*
X5740967Y-13805484D02*
X5731443Y-13900722D01*
X5731443Y-13900722D02*
X5740967Y-13891198D01*
X5740967Y-13891198D02*
X5760015Y-13881674D01*
X5760015Y-13881674D02*
X5807634Y-13881674D01*
X5807634Y-13881674D02*
X5826682Y-13891198D01*
X5826682Y-13891198D02*
X5836205Y-13900722D01*
X5836205Y-13900722D02*
X5845729Y-13919769D01*
X5845729Y-13919769D02*
X5845729Y-13967388D01*
X5845729Y-13967388D02*
X5836205Y-13986436D01*
X5836205Y-13986436D02*
X5826682Y-13995960D01*
X5826682Y-13995960D02*
X5807634Y-14005484D01*
X5807634Y-14005484D02*
X5760015Y-14005484D01*
X5760015Y-14005484D02*
X5740967Y-13995960D01*
X5740967Y-13995960D02*
X5731443Y-13986436D01*
X5969539Y-13805484D02*
X5988586Y-13805484D01*
X5988586Y-13805484D02*
X6007634Y-13815008D01*
X6007634Y-13815008D02*
X6017158Y-13824531D01*
X6017158Y-13824531D02*
X6026682Y-13843579D01*
X6026682Y-13843579D02*
X6036205Y-13881674D01*
X6036205Y-13881674D02*
X6036205Y-13929293D01*
X6036205Y-13929293D02*
X6026682Y-13967388D01*
X6026682Y-13967388D02*
X6017158Y-13986436D01*
X6017158Y-13986436D02*
X6007634Y-13995960D01*
X6007634Y-13995960D02*
X5988586Y-14005484D01*
X5988586Y-14005484D02*
X5969539Y-14005484D01*
X5969539Y-14005484D02*
X5950491Y-13995960D01*
X5950491Y-13995960D02*
X5940967Y-13986436D01*
X5940967Y-13986436D02*
X5931443Y-13967388D01*
X5931443Y-13967388D02*
X5921920Y-13929293D01*
X5921920Y-13929293D02*
X5921920Y-13881674D01*
X5921920Y-13881674D02*
X5931443Y-13843579D01*
X5931443Y-13843579D02*
X5940967Y-13824531D01*
X5940967Y-13824531D02*
X5950491Y-13815008D01*
X5950491Y-13815008D02*
X5969539Y-13805484D01*
X6121920Y-14005484D02*
X6121920Y-13872150D01*
X6121920Y-13891198D02*
X6131443Y-13881674D01*
X6131443Y-13881674D02*
X6150491Y-13872150D01*
X6150491Y-13872150D02*
X6179063Y-13872150D01*
X6179063Y-13872150D02*
X6198110Y-13881674D01*
X6198110Y-13881674D02*
X6207634Y-13900722D01*
X6207634Y-13900722D02*
X6207634Y-14005484D01*
X6207634Y-13900722D02*
X6217158Y-13881674D01*
X6217158Y-13881674D02*
X6236205Y-13872150D01*
X6236205Y-13872150D02*
X6264777Y-13872150D01*
X6264777Y-13872150D02*
X6283824Y-13881674D01*
X6283824Y-13881674D02*
X6293348Y-13900722D01*
X6293348Y-13900722D02*
X6293348Y-14005484D01*
X6388586Y-14005484D02*
X6388586Y-13872150D01*
X6388586Y-13891198D02*
X6398110Y-13881674D01*
X6398110Y-13881674D02*
X6417158Y-13872150D01*
X6417158Y-13872150D02*
X6445729Y-13872150D01*
X6445729Y-13872150D02*
X6464777Y-13881674D01*
X6464777Y-13881674D02*
X6474301Y-13900722D01*
X6474301Y-13900722D02*
X6474301Y-14005484D01*
X6474301Y-13900722D02*
X6483824Y-13881674D01*
X6483824Y-13881674D02*
X6502872Y-13872150D01*
X6502872Y-13872150D02*
X6531443Y-13872150D01*
X6531443Y-13872150D02*
X6550491Y-13881674D01*
X6550491Y-13881674D02*
X6560015Y-13900722D01*
X6560015Y-13900722D02*
X6560015Y-14005484D01*
X6950491Y-13795960D02*
X6779063Y-14053103D01*
X7207634Y-13805484D02*
X7226682Y-13805484D01*
X7226682Y-13805484D02*
X7245729Y-13815008D01*
X7245729Y-13815008D02*
X7255253Y-13824531D01*
X7255253Y-13824531D02*
X7264777Y-13843579D01*
X7264777Y-13843579D02*
X7274301Y-13881674D01*
X7274301Y-13881674D02*
X7274301Y-13929293D01*
X7274301Y-13929293D02*
X7264777Y-13967388D01*
X7264777Y-13967388D02*
X7255253Y-13986436D01*
X7255253Y-13986436D02*
X7245729Y-13995960D01*
X7245729Y-13995960D02*
X7226682Y-14005484D01*
X7226682Y-14005484D02*
X7207634Y-14005484D01*
X7207634Y-14005484D02*
X7188586Y-13995960D01*
X7188586Y-13995960D02*
X7179063Y-13986436D01*
X7179063Y-13986436D02*
X7169539Y-13967388D01*
X7169539Y-13967388D02*
X7160015Y-13929293D01*
X7160015Y-13929293D02*
X7160015Y-13881674D01*
X7160015Y-13881674D02*
X7169539Y-13843579D01*
X7169539Y-13843579D02*
X7179063Y-13824531D01*
X7179063Y-13824531D02*
X7188586Y-13815008D01*
X7188586Y-13815008D02*
X7207634Y-13805484D01*
X7360015Y-13986436D02*
X7369539Y-13995960D01*
X7369539Y-13995960D02*
X7360015Y-14005484D01*
X7360015Y-14005484D02*
X7350491Y-13995960D01*
X7350491Y-13995960D02*
X7360015Y-13986436D01*
X7360015Y-13986436D02*
X7360015Y-14005484D01*
X7560015Y-14005484D02*
X7445729Y-14005484D01*
X7502872Y-14005484D02*
X7502872Y-13805484D01*
X7502872Y-13805484D02*
X7483825Y-13834055D01*
X7483825Y-13834055D02*
X7464777Y-13853103D01*
X7464777Y-13853103D02*
X7445729Y-13862627D01*
X7626682Y-13805484D02*
X7750491Y-13805484D01*
X7750491Y-13805484D02*
X7683825Y-13881674D01*
X7683825Y-13881674D02*
X7712396Y-13881674D01*
X7712396Y-13881674D02*
X7731444Y-13891198D01*
X7731444Y-13891198D02*
X7740967Y-13900722D01*
X7740967Y-13900722D02*
X7750491Y-13919769D01*
X7750491Y-13919769D02*
X7750491Y-13967388D01*
X7750491Y-13967388D02*
X7740967Y-13986436D01*
X7740967Y-13986436D02*
X7731444Y-13995960D01*
X7731444Y-13995960D02*
X7712396Y-14005484D01*
X7712396Y-14005484D02*
X7655253Y-14005484D01*
X7655253Y-14005484D02*
X7636206Y-13995960D01*
X7636206Y-13995960D02*
X7626682Y-13986436D01*
X7845729Y-14005484D02*
X7883825Y-14005484D01*
X7883825Y-14005484D02*
X7902872Y-13995960D01*
X7902872Y-13995960D02*
X7912396Y-13986436D01*
X7912396Y-13986436D02*
X7931444Y-13957865D01*
X7931444Y-13957865D02*
X7940967Y-13919769D01*
X7940967Y-13919769D02*
X7940967Y-13843579D01*
X7940967Y-13843579D02*
X7931444Y-13824531D01*
X7931444Y-13824531D02*
X7921920Y-13815008D01*
X7921920Y-13815008D02*
X7902872Y-13805484D01*
X7902872Y-13805484D02*
X7864777Y-13805484D01*
X7864777Y-13805484D02*
X7845729Y-13815008D01*
X7845729Y-13815008D02*
X7836206Y-13824531D01*
X7836206Y-13824531D02*
X7826682Y-13843579D01*
X7826682Y-13843579D02*
X7826682Y-13891198D01*
X7826682Y-13891198D02*
X7836206Y-13910246D01*
X7836206Y-13910246D02*
X7845729Y-13919769D01*
X7845729Y-13919769D02*
X7864777Y-13929293D01*
X7864777Y-13929293D02*
X7902872Y-13929293D01*
X7902872Y-13929293D02*
X7921920Y-13919769D01*
X7921920Y-13919769D02*
X7931444Y-13910246D01*
X7931444Y-13910246D02*
X7940967Y-13891198D01*
X8055253Y-13891198D02*
X8036206Y-13881674D01*
X8036206Y-13881674D02*
X8026682Y-13872150D01*
X8026682Y-13872150D02*
X8017158Y-13853103D01*
X8017158Y-13853103D02*
X8017158Y-13843579D01*
X8017158Y-13843579D02*
X8026682Y-13824531D01*
X8026682Y-13824531D02*
X8036206Y-13815008D01*
X8036206Y-13815008D02*
X8055253Y-13805484D01*
X8055253Y-13805484D02*
X8093348Y-13805484D01*
X8093348Y-13805484D02*
X8112396Y-13815008D01*
X8112396Y-13815008D02*
X8121920Y-13824531D01*
X8121920Y-13824531D02*
X8131444Y-13843579D01*
X8131444Y-13843579D02*
X8131444Y-13853103D01*
X8131444Y-13853103D02*
X8121920Y-13872150D01*
X8121920Y-13872150D02*
X8112396Y-13881674D01*
X8112396Y-13881674D02*
X8093348Y-13891198D01*
X8093348Y-13891198D02*
X8055253Y-13891198D01*
X8055253Y-13891198D02*
X8036206Y-13900722D01*
X8036206Y-13900722D02*
X8026682Y-13910246D01*
X8026682Y-13910246D02*
X8017158Y-13929293D01*
X8017158Y-13929293D02*
X8017158Y-13967388D01*
X8017158Y-13967388D02*
X8026682Y-13986436D01*
X8026682Y-13986436D02*
X8036206Y-13995960D01*
X8036206Y-13995960D02*
X8055253Y-14005484D01*
X8055253Y-14005484D02*
X8093348Y-14005484D01*
X8093348Y-14005484D02*
X8112396Y-13995960D01*
X8112396Y-13995960D02*
X8121920Y-13986436D01*
X8121920Y-13986436D02*
X8131444Y-13967388D01*
X8131444Y-13967388D02*
X8131444Y-13929293D01*
X8131444Y-13929293D02*
X8121920Y-13910246D01*
X8121920Y-13910246D02*
X8112396Y-13900722D01*
X8112396Y-13900722D02*
X8093348Y-13891198D01*
X8207634Y-13805484D02*
X8207634Y-13843579D01*
X8283825Y-13805484D02*
X8283825Y-13843579D01*
X8579063Y-14081674D02*
X8569539Y-14072150D01*
X8569539Y-14072150D02*
X8550491Y-14043579D01*
X8550491Y-14043579D02*
X8540968Y-14024531D01*
X8540968Y-14024531D02*
X8531444Y-13995960D01*
X8531444Y-13995960D02*
X8521920Y-13948341D01*
X8521920Y-13948341D02*
X8521920Y-13910246D01*
X8521920Y-13910246D02*
X8531444Y-13862627D01*
X8531444Y-13862627D02*
X8540968Y-13834055D01*
X8540968Y-13834055D02*
X8550491Y-13815008D01*
X8550491Y-13815008D02*
X8569539Y-13786436D01*
X8569539Y-13786436D02*
X8579063Y-13776912D01*
X8740968Y-13872150D02*
X8740968Y-14005484D01*
X8693349Y-13795960D02*
X8645730Y-13938817D01*
X8645730Y-13938817D02*
X8769539Y-13938817D01*
X8998111Y-14005484D02*
X8998111Y-13805484D01*
X9083825Y-14005484D02*
X9083825Y-13900722D01*
X9083825Y-13900722D02*
X9074301Y-13881674D01*
X9074301Y-13881674D02*
X9055253Y-13872150D01*
X9055253Y-13872150D02*
X9026682Y-13872150D01*
X9026682Y-13872150D02*
X9007634Y-13881674D01*
X9007634Y-13881674D02*
X8998111Y-13891198D01*
X9207634Y-14005484D02*
X9188587Y-13995960D01*
X9188587Y-13995960D02*
X9179063Y-13986436D01*
X9179063Y-13986436D02*
X9169539Y-13967388D01*
X9169539Y-13967388D02*
X9169539Y-13910246D01*
X9169539Y-13910246D02*
X9179063Y-13891198D01*
X9179063Y-13891198D02*
X9188587Y-13881674D01*
X9188587Y-13881674D02*
X9207634Y-13872150D01*
X9207634Y-13872150D02*
X9236206Y-13872150D01*
X9236206Y-13872150D02*
X9255253Y-13881674D01*
X9255253Y-13881674D02*
X9264777Y-13891198D01*
X9264777Y-13891198D02*
X9274301Y-13910246D01*
X9274301Y-13910246D02*
X9274301Y-13967388D01*
X9274301Y-13967388D02*
X9264777Y-13986436D01*
X9264777Y-13986436D02*
X9255253Y-13995960D01*
X9255253Y-13995960D02*
X9236206Y-14005484D01*
X9236206Y-14005484D02*
X9207634Y-14005484D01*
X9388587Y-14005484D02*
X9369539Y-13995960D01*
X9369539Y-13995960D02*
X9360015Y-13976912D01*
X9360015Y-13976912D02*
X9360015Y-13805484D01*
X9540968Y-13995960D02*
X9521920Y-14005484D01*
X9521920Y-14005484D02*
X9483825Y-14005484D01*
X9483825Y-14005484D02*
X9464777Y-13995960D01*
X9464777Y-13995960D02*
X9455253Y-13976912D01*
X9455253Y-13976912D02*
X9455253Y-13900722D01*
X9455253Y-13900722D02*
X9464777Y-13881674D01*
X9464777Y-13881674D02*
X9483825Y-13872150D01*
X9483825Y-13872150D02*
X9521920Y-13872150D01*
X9521920Y-13872150D02*
X9540968Y-13881674D01*
X9540968Y-13881674D02*
X9550492Y-13900722D01*
X9550492Y-13900722D02*
X9550492Y-13919769D01*
X9550492Y-13919769D02*
X9455253Y-13938817D01*
X9626682Y-13995960D02*
X9645730Y-14005484D01*
X9645730Y-14005484D02*
X9683825Y-14005484D01*
X9683825Y-14005484D02*
X9702873Y-13995960D01*
X9702873Y-13995960D02*
X9712396Y-13976912D01*
X9712396Y-13976912D02*
X9712396Y-13967388D01*
X9712396Y-13967388D02*
X9702873Y-13948341D01*
X9702873Y-13948341D02*
X9683825Y-13938817D01*
X9683825Y-13938817D02*
X9655253Y-13938817D01*
X9655253Y-13938817D02*
X9636206Y-13929293D01*
X9636206Y-13929293D02*
X9626682Y-13910246D01*
X9626682Y-13910246D02*
X9626682Y-13900722D01*
X9626682Y-13900722D02*
X9636206Y-13881674D01*
X9636206Y-13881674D02*
X9655253Y-13872150D01*
X9655253Y-13872150D02*
X9683825Y-13872150D01*
X9683825Y-13872150D02*
X9702873Y-13881674D01*
X9779063Y-14081674D02*
X9788587Y-14072150D01*
X9788587Y-14072150D02*
X9807634Y-14043579D01*
X9807634Y-14043579D02*
X9817158Y-14024531D01*
X9817158Y-14024531D02*
X9826682Y-13995960D01*
X9826682Y-13995960D02*
X9836206Y-13948341D01*
X9836206Y-13948341D02*
X9836206Y-13910246D01*
X9836206Y-13910246D02*
X9826682Y-13862627D01*
X9826682Y-13862627D02*
X9817158Y-13834055D01*
X9817158Y-13834055D02*
X9807634Y-13815008D01*
X9807634Y-13815008D02*
X9788587Y-13786436D01*
X9788587Y-13786436D02*
X9779063Y-13776912D01*
X10140968Y-14081674D02*
X10131444Y-14072150D01*
X10131444Y-14072150D02*
X10112396Y-14043579D01*
X10112396Y-14043579D02*
X10102873Y-14024531D01*
X10102873Y-14024531D02*
X10093349Y-13995960D01*
X10093349Y-13995960D02*
X10083825Y-13948341D01*
X10083825Y-13948341D02*
X10083825Y-13910246D01*
X10083825Y-13910246D02*
X10093349Y-13862627D01*
X10093349Y-13862627D02*
X10102873Y-13834055D01*
X10102873Y-13834055D02*
X10112396Y-13815008D01*
X10112396Y-13815008D02*
X10131444Y-13786436D01*
X10131444Y-13786436D02*
X10140968Y-13776912D01*
X10217158Y-13872150D02*
X10217158Y-14005484D01*
X10217158Y-13891198D02*
X10226682Y-13881674D01*
X10226682Y-13881674D02*
X10245730Y-13872150D01*
X10245730Y-13872150D02*
X10274301Y-13872150D01*
X10274301Y-13872150D02*
X10293349Y-13881674D01*
X10293349Y-13881674D02*
X10302873Y-13900722D01*
X10302873Y-13900722D02*
X10302873Y-14005484D01*
X10426682Y-14005484D02*
X10407634Y-13995960D01*
X10407634Y-13995960D02*
X10398111Y-13986436D01*
X10398111Y-13986436D02*
X10388587Y-13967388D01*
X10388587Y-13967388D02*
X10388587Y-13910246D01*
X10388587Y-13910246D02*
X10398111Y-13891198D01*
X10398111Y-13891198D02*
X10407634Y-13881674D01*
X10407634Y-13881674D02*
X10426682Y-13872150D01*
X10426682Y-13872150D02*
X10455254Y-13872150D01*
X10455254Y-13872150D02*
X10474301Y-13881674D01*
X10474301Y-13881674D02*
X10483825Y-13891198D01*
X10483825Y-13891198D02*
X10493349Y-13910246D01*
X10493349Y-13910246D02*
X10493349Y-13967388D01*
X10493349Y-13967388D02*
X10483825Y-13986436D01*
X10483825Y-13986436D02*
X10474301Y-13995960D01*
X10474301Y-13995960D02*
X10455254Y-14005484D01*
X10455254Y-14005484D02*
X10426682Y-14005484D01*
X10550492Y-13872150D02*
X10626682Y-13872150D01*
X10579063Y-13805484D02*
X10579063Y-13976912D01*
X10579063Y-13976912D02*
X10588587Y-13995960D01*
X10588587Y-13995960D02*
X10607634Y-14005484D01*
X10607634Y-14005484D02*
X10626682Y-14005484D01*
X10845730Y-13872150D02*
X10845730Y-14072150D01*
X10845730Y-13881674D02*
X10864777Y-13872150D01*
X10864777Y-13872150D02*
X10902873Y-13872150D01*
X10902873Y-13872150D02*
X10921920Y-13881674D01*
X10921920Y-13881674D02*
X10931444Y-13891198D01*
X10931444Y-13891198D02*
X10940968Y-13910246D01*
X10940968Y-13910246D02*
X10940968Y-13967388D01*
X10940968Y-13967388D02*
X10931444Y-13986436D01*
X10931444Y-13986436D02*
X10921920Y-13995960D01*
X10921920Y-13995960D02*
X10902873Y-14005484D01*
X10902873Y-14005484D02*
X10864777Y-14005484D01*
X10864777Y-14005484D02*
X10845730Y-13995960D01*
X11055254Y-14005484D02*
X11036206Y-13995960D01*
X11036206Y-13995960D02*
X11026682Y-13976912D01*
X11026682Y-13976912D02*
X11026682Y-13805484D01*
X11217158Y-14005484D02*
X11217158Y-13900722D01*
X11217158Y-13900722D02*
X11207634Y-13881674D01*
X11207634Y-13881674D02*
X11188587Y-13872150D01*
X11188587Y-13872150D02*
X11150492Y-13872150D01*
X11150492Y-13872150D02*
X11131444Y-13881674D01*
X11217158Y-13995960D02*
X11198111Y-14005484D01*
X11198111Y-14005484D02*
X11150492Y-14005484D01*
X11150492Y-14005484D02*
X11131444Y-13995960D01*
X11131444Y-13995960D02*
X11121920Y-13976912D01*
X11121920Y-13976912D02*
X11121920Y-13957865D01*
X11121920Y-13957865D02*
X11131444Y-13938817D01*
X11131444Y-13938817D02*
X11150492Y-13929293D01*
X11150492Y-13929293D02*
X11198111Y-13929293D01*
X11198111Y-13929293D02*
X11217158Y-13919769D01*
X11283825Y-13872150D02*
X11360015Y-13872150D01*
X11312396Y-13805484D02*
X11312396Y-13976912D01*
X11312396Y-13976912D02*
X11321920Y-13995960D01*
X11321920Y-13995960D02*
X11340968Y-14005484D01*
X11340968Y-14005484D02*
X11360015Y-14005484D01*
X11502873Y-13995960D02*
X11483825Y-14005484D01*
X11483825Y-14005484D02*
X11445730Y-14005484D01*
X11445730Y-14005484D02*
X11426682Y-13995960D01*
X11426682Y-13995960D02*
X11417158Y-13976912D01*
X11417158Y-13976912D02*
X11417158Y-13900722D01*
X11417158Y-13900722D02*
X11426682Y-13881674D01*
X11426682Y-13881674D02*
X11445730Y-13872150D01*
X11445730Y-13872150D02*
X11483825Y-13872150D01*
X11483825Y-13872150D02*
X11502873Y-13881674D01*
X11502873Y-13881674D02*
X11512396Y-13900722D01*
X11512396Y-13900722D02*
X11512396Y-13919769D01*
X11512396Y-13919769D02*
X11417158Y-13938817D01*
X11683825Y-14005484D02*
X11683825Y-13805484D01*
X11683825Y-13995960D02*
X11664777Y-14005484D01*
X11664777Y-14005484D02*
X11626682Y-14005484D01*
X11626682Y-14005484D02*
X11607634Y-13995960D01*
X11607634Y-13995960D02*
X11598111Y-13986436D01*
X11598111Y-13986436D02*
X11588587Y-13967388D01*
X11588587Y-13967388D02*
X11588587Y-13910246D01*
X11588587Y-13910246D02*
X11598111Y-13891198D01*
X11598111Y-13891198D02*
X11607634Y-13881674D01*
X11607634Y-13881674D02*
X11626682Y-13872150D01*
X11626682Y-13872150D02*
X11664777Y-13872150D01*
X11664777Y-13872150D02*
X11683825Y-13881674D01*
X11760015Y-14081674D02*
X11769539Y-14072150D01*
X11769539Y-14072150D02*
X11788587Y-14043579D01*
X11788587Y-14043579D02*
X11798111Y-14024531D01*
X11798111Y-14024531D02*
X11807634Y-13995960D01*
X11807634Y-13995960D02*
X11817158Y-13948341D01*
X11817158Y-13948341D02*
X11817158Y-13910246D01*
X11817158Y-13910246D02*
X11807634Y-13862627D01*
X11807634Y-13862627D02*
X11798111Y-13834055D01*
X11798111Y-13834055D02*
X11788587Y-13815008D01*
X11788587Y-13815008D02*
X11769539Y-13786436D01*
X11769539Y-13786436D02*
X11760015Y-13776912D01*
M02*
