%TF.GenerationSoftware,KiCad,Pcbnew,(6.0.7)*%
%TF.CreationDate,2023-01-28T09:16:53+03:00*%
%TF.ProjectId,Omarichet Sensor Shield 1.2,4f6d6172-6963-4686-9574-2053656e736f,rev?*%
%TF.SameCoordinates,Original*%
%TF.FileFunction,Copper,L1,Top*%
%TF.FilePolarity,Positive*%
%FSLAX46Y46*%
G04 Gerber Fmt 4.6, Leading zero omitted, Abs format (unit mm)*
G04 Created by KiCad (PCBNEW (6.0.7)) date 2023-01-28 09:16:53*
%MOMM*%
%LPD*%
G01*
G04 APERTURE LIST*
G04 Aperture macros list*
%AMRoundRect*
0 Rectangle with rounded corners*
0 $1 Rounding radius*
0 $2 $3 $4 $5 $6 $7 $8 $9 X,Y pos of 4 corners*
0 Add a 4 corners polygon primitive as box body*
4,1,4,$2,$3,$4,$5,$6,$7,$8,$9,$2,$3,0*
0 Add four circle primitives for the rounded corners*
1,1,$1+$1,$2,$3*
1,1,$1+$1,$4,$5*
1,1,$1+$1,$6,$7*
1,1,$1+$1,$8,$9*
0 Add four rect primitives between the rounded corners*
20,1,$1+$1,$2,$3,$4,$5,0*
20,1,$1+$1,$4,$5,$6,$7,0*
20,1,$1+$1,$6,$7,$8,$9,0*
20,1,$1+$1,$8,$9,$2,$3,0*%
G04 Aperture macros list end*
%TA.AperFunction,ComponentPad*%
%ADD10R,1.500000X1.500000*%
%TD*%
%TA.AperFunction,ComponentPad*%
%ADD11C,1.500000*%
%TD*%
%TA.AperFunction,SMDPad,CuDef*%
%ADD12RoundRect,0.135000X-0.185000X0.135000X-0.185000X-0.135000X0.185000X-0.135000X0.185000X0.135000X0*%
%TD*%
%TA.AperFunction,SMDPad,CuDef*%
%ADD13RoundRect,0.150000X-0.825000X-0.150000X0.825000X-0.150000X0.825000X0.150000X-0.825000X0.150000X0*%
%TD*%
%TA.AperFunction,SMDPad,CuDef*%
%ADD14RoundRect,0.135000X-0.135000X-0.185000X0.135000X-0.185000X0.135000X0.185000X-0.135000X0.185000X0*%
%TD*%
%TA.AperFunction,SMDPad,CuDef*%
%ADD15RoundRect,0.135000X0.185000X-0.135000X0.185000X0.135000X-0.185000X0.135000X-0.185000X-0.135000X0*%
%TD*%
%TA.AperFunction,SMDPad,CuDef*%
%ADD16RoundRect,0.140000X-0.170000X0.140000X-0.170000X-0.140000X0.170000X-0.140000X0.170000X0.140000X0*%
%TD*%
%TA.AperFunction,SMDPad,CuDef*%
%ADD17RoundRect,0.140000X0.170000X-0.140000X0.170000X0.140000X-0.170000X0.140000X-0.170000X-0.140000X0*%
%TD*%
%TA.AperFunction,SMDPad,CuDef*%
%ADD18RoundRect,0.135000X0.135000X0.185000X-0.135000X0.185000X-0.135000X-0.185000X0.135000X-0.185000X0*%
%TD*%
%TA.AperFunction,SMDPad,CuDef*%
%ADD19RoundRect,0.225000X-0.225000X-0.250000X0.225000X-0.250000X0.225000X0.250000X-0.225000X0.250000X0*%
%TD*%
%TA.AperFunction,SMDPad,CuDef*%
%ADD20R,0.500000X0.350000*%
%TD*%
%TA.AperFunction,ComponentPad*%
%ADD21R,1.700000X1.700000*%
%TD*%
%TA.AperFunction,ComponentPad*%
%ADD22O,1.700000X1.700000*%
%TD*%
%TA.AperFunction,SMDPad,CuDef*%
%ADD23RoundRect,0.140000X0.140000X0.170000X-0.140000X0.170000X-0.140000X-0.170000X0.140000X-0.170000X0*%
%TD*%
%TA.AperFunction,ComponentPad*%
%ADD24C,1.600000*%
%TD*%
%TA.AperFunction,SMDPad,CuDef*%
%ADD25RoundRect,0.140000X-0.140000X-0.170000X0.140000X-0.170000X0.140000X0.170000X-0.140000X0.170000X0*%
%TD*%
%TA.AperFunction,ComponentPad*%
%ADD26R,1.600000X1.600000*%
%TD*%
%TA.AperFunction,ComponentPad*%
%ADD27O,1.600000X1.600000*%
%TD*%
%TA.AperFunction,SMDPad,CuDef*%
%ADD28RoundRect,0.075000X0.350000X0.075000X-0.350000X0.075000X-0.350000X-0.075000X0.350000X-0.075000X0*%
%TD*%
%TA.AperFunction,SMDPad,CuDef*%
%ADD29RoundRect,0.075000X-0.075000X0.350000X-0.075000X-0.350000X0.075000X-0.350000X0.075000X0.350000X0*%
%TD*%
%TA.AperFunction,SMDPad,CuDef*%
%ADD30RoundRect,0.225000X0.250000X-0.225000X0.250000X0.225000X-0.250000X0.225000X-0.250000X-0.225000X0*%
%TD*%
%TA.AperFunction,ComponentPad*%
%ADD31RoundRect,0.250000X-0.675000X-0.675000X0.675000X-0.675000X0.675000X0.675000X-0.675000X0.675000X0*%
%TD*%
%TA.AperFunction,ComponentPad*%
%ADD32C,1.850000*%
%TD*%
%TA.AperFunction,SMDPad,CuDef*%
%ADD33RoundRect,0.100000X0.100000X-0.637500X0.100000X0.637500X-0.100000X0.637500X-0.100000X-0.637500X0*%
%TD*%
%TA.AperFunction,SMDPad,CuDef*%
%ADD34RoundRect,0.218750X-0.256250X0.218750X-0.256250X-0.218750X0.256250X-0.218750X0.256250X0.218750X0*%
%TD*%
%TA.AperFunction,ViaPad*%
%ADD35C,0.700000*%
%TD*%
%TA.AperFunction,Conductor*%
%ADD36C,0.500000*%
%TD*%
%TA.AperFunction,Conductor*%
%ADD37C,0.300000*%
%TD*%
G04 APERTURE END LIST*
D10*
%TO.P,U4,1,VCC*%
%TO.N,+3V3*%
X154660000Y-108680000D03*
D11*
%TO.P,U4,2,IO*%
%TO.N,DHTOUT*%
X152120000Y-108680000D03*
%TO.P,U4,3,NC*%
%TO.N,unconnected-(U4-Pad3)*%
X149580000Y-108680000D03*
%TO.P,U4,4,GND*%
%TO.N,GND*%
X147040000Y-108680000D03*
%TD*%
D12*
%TO.P,R8,1*%
%TO.N,GND*%
X166000000Y-128767500D03*
%TO.P,R8,2*%
%TO.N,Net-(D1-Pad1)*%
X166000000Y-129787500D03*
%TD*%
D13*
%TO.P,U1,1,IP+*%
%TO.N,IP*%
X106725000Y-120515000D03*
%TO.P,U1,2,IP+*%
X106725000Y-121785000D03*
%TO.P,U1,3,IP-*%
%TO.N,OP*%
X106725000Y-123055000D03*
%TO.P,U1,4,IP-*%
X106725000Y-124325000D03*
%TO.P,U1,5,GND*%
%TO.N,GND*%
X111675000Y-124325000D03*
%TO.P,U1,6,FILTER*%
%TO.N,Net-(C5-Pad2)*%
X111675000Y-123055000D03*
%TO.P,U1,7,VIOUT*%
%TO.N,CH2*%
X111675000Y-121785000D03*
%TO.P,U1,8,VCC*%
%TO.N,+5V*%
X111675000Y-120515000D03*
%TD*%
D14*
%TO.P,R9,1*%
%TO.N,DHTOUT*%
X152087500Y-104302500D03*
%TO.P,R9,2*%
%TO.N,+3V3*%
X153107500Y-104302500D03*
%TD*%
D15*
%TO.P,R11,1*%
%TO.N,GND*%
X109900000Y-109310000D03*
%TO.P,R11,2*%
%TO.N,CH0*%
X109900000Y-108290000D03*
%TD*%
%TO.P,R7,1*%
%TO.N,GND*%
X109000000Y-114810000D03*
%TO.P,R7,2*%
%TO.N,CH1*%
X109000000Y-113790000D03*
%TD*%
D14*
%TO.P,R12,1*%
%TO.N,OE*%
X142890000Y-123300000D03*
%TO.P,R12,2*%
%TO.N,GND*%
X143910000Y-123300000D03*
%TD*%
D16*
%TO.P,C2,1*%
%TO.N,GND*%
X152815000Y-120835000D03*
%TO.P,C2,2*%
%TO.N,+3V3*%
X152815000Y-121795000D03*
%TD*%
D17*
%TO.P,C1,1*%
%TO.N,+5V*%
X113900000Y-120410000D03*
%TO.P,C1,2*%
%TO.N,GND*%
X113900000Y-119450000D03*
%TD*%
D16*
%TO.P,C11,1*%
%TO.N,+5V*%
X133910000Y-107090000D03*
%TO.P,C11,2*%
%TO.N,GND*%
X133910000Y-108050000D03*
%TD*%
D18*
%TO.P,R3,1*%
%TO.N,Net-(R3-Pad1)*%
X154085000Y-123815000D03*
%TO.P,R3,2*%
%TO.N,GND*%
X153065000Y-123815000D03*
%TD*%
D14*
%TO.P,R5,1*%
%TO.N,+3V3*%
X155565000Y-123825000D03*
%TO.P,R5,2*%
%TO.N,SCL*%
X156585000Y-123825000D03*
%TD*%
D19*
%TO.P,C9,1*%
%TO.N,GND*%
X136050000Y-124110000D03*
%TO.P,C9,2*%
%TO.N,+3V3*%
X137600000Y-124110000D03*
%TD*%
D20*
%TO.P,U2,1,GND*%
%TO.N,GND*%
X156150000Y-120490000D03*
%TO.P,U2,2,CSB*%
%TO.N,+3V3*%
X156150000Y-121140000D03*
%TO.P,U2,3,SDI*%
%TO.N,SDA*%
X156150000Y-121790000D03*
%TO.P,U2,4,SCK*%
%TO.N,SCL*%
X156150000Y-122440000D03*
%TO.P,U2,5,SDO*%
%TO.N,Net-(R3-Pad1)*%
X154100000Y-122440000D03*
%TO.P,U2,6,VDDIO*%
%TO.N,+3V3*%
X154100000Y-121790000D03*
%TO.P,U2,7,GND*%
%TO.N,GND*%
X154100000Y-121140000D03*
%TO.P,U2,8,VDD*%
%TO.N,+3V3*%
X154100000Y-120490000D03*
%TD*%
D19*
%TO.P,C10,1*%
%TO.N,+5V*%
X137990000Y-113300000D03*
%TO.P,C10,2*%
%TO.N,GND*%
X139540000Y-113300000D03*
%TD*%
D21*
%TO.P,J1,1,Pin_1*%
%TO.N,unconnected-(J1-Pad1)*%
X162850000Y-95140000D03*
D22*
%TO.P,J1,2,Pin_2*%
%TO.N,unconnected-(J1-Pad2)*%
X162850000Y-92600000D03*
%TO.P,J1,3,Pin_3*%
%TO.N,unconnected-(J1-Pad3)*%
X162850000Y-90060000D03*
%TO.P,J1,4,Pin_4*%
%TO.N,unconnected-(J1-Pad4)*%
X162850000Y-87520000D03*
%TO.P,J1,5,Pin_5*%
%TO.N,TX*%
X162850000Y-84980000D03*
%TO.P,J1,6,Pin_6*%
%TO.N,RX*%
X162850000Y-82440000D03*
%TO.P,J1,7,Pin_7*%
%TO.N,GND*%
X162850000Y-79900000D03*
%TO.P,J1,8,Pin_8*%
%TO.N,+3V3*%
X162850000Y-77360000D03*
%TO.P,J1,9,Pin_9*%
%TO.N,PPS*%
X162850000Y-74820000D03*
%TD*%
D19*
%TO.P,C7,1*%
%TO.N,GND*%
X163475000Y-112970000D03*
%TO.P,C7,2*%
%TO.N,Net-(C7-Pad2)*%
X165025000Y-112970000D03*
%TD*%
D23*
%TO.P,C8,1*%
%TO.N,Net-(C8-Pad1)*%
X163525000Y-121815000D03*
%TO.P,C8,2*%
%TO.N,GND*%
X162565000Y-121815000D03*
%TD*%
D24*
%TO.P,R10,1*%
%TO.N,+5V*%
X109910000Y-102870000D03*
%TO.P,R10,2*%
%TO.N,CH0*%
X109910000Y-105410000D03*
%TD*%
D25*
%TO.P,C4,1*%
%TO.N,+3V3*%
X154105000Y-119315000D03*
%TO.P,C4,2*%
%TO.N,GND*%
X155065000Y-119315000D03*
%TD*%
D18*
%TO.P,R2,1*%
%TO.N,SCL*%
X166075000Y-121815000D03*
%TO.P,R2,2*%
%TO.N,+3V3*%
X165055000Y-121815000D03*
%TD*%
D26*
%TO.P,U6,1,CH0*%
%TO.N,CH0*%
X124000000Y-106965000D03*
D27*
%TO.P,U6,2,CH1*%
%TO.N,CH1*%
X124000000Y-109505000D03*
%TO.P,U6,3,CH2*%
%TO.N,CH2*%
X124000000Y-112045000D03*
%TO.P,U6,4,CH3*%
%TO.N,unconnected-(U6-Pad4)*%
X124000000Y-114585000D03*
%TO.P,U6,5,CH4*%
%TO.N,unconnected-(U6-Pad5)*%
X124000000Y-117125000D03*
%TO.P,U6,6,CH5*%
%TO.N,unconnected-(U6-Pad6)*%
X124000000Y-119665000D03*
%TO.P,U6,7,CH6*%
%TO.N,unconnected-(U6-Pad7)*%
X124000000Y-122205000D03*
%TO.P,U6,8,CH7*%
%TO.N,unconnected-(U6-Pad8)*%
X124000000Y-124745000D03*
%TO.P,U6,9,DGND*%
%TO.N,GND*%
X131620000Y-124745000D03*
%TO.P,U6,10,~{CS}/SHDN*%
%TO.N,CS*%
X131620000Y-122205000D03*
%TO.P,U6,11,Din*%
%TO.N,MOSI*%
X131620000Y-119665000D03*
%TO.P,U6,12,Dout*%
%TO.N,MISO*%
X131620000Y-117125000D03*
%TO.P,U6,13,CLK*%
%TO.N,CLK*%
X131620000Y-114585000D03*
%TO.P,U6,14,AGND*%
%TO.N,GND*%
X131620000Y-112045000D03*
%TO.P,U6,15,Vref*%
%TO.N,+5V*%
X131620000Y-109505000D03*
%TO.P,U6,16,Vdd*%
X131620000Y-106965000D03*
%TD*%
D12*
%TO.P,R4,1*%
%TO.N,+3V3*%
X158065000Y-121045000D03*
%TO.P,R4,2*%
%TO.N,SDA*%
X158065000Y-122065000D03*
%TD*%
D28*
%TO.P,U3,1,CLKIN*%
%TO.N,GND*%
X167505000Y-119395000D03*
%TO.P,U3,2,NC*%
%TO.N,unconnected-(U3-Pad2)*%
X167505000Y-118895000D03*
%TO.P,U3,3,NC*%
%TO.N,unconnected-(U3-Pad3)*%
X167505000Y-118395000D03*
%TO.P,U3,4,NC*%
%TO.N,unconnected-(U3-Pad4)*%
X167505000Y-117895000D03*
%TO.P,U3,5,NC*%
%TO.N,unconnected-(U3-Pad5)*%
X167505000Y-117395000D03*
%TO.P,U3,6,AUX_SDA*%
%TO.N,unconnected-(U3-Pad6)*%
X167505000Y-116895000D03*
D29*
%TO.P,U3,7,AUX_SCL*%
%TO.N,unconnected-(U3-Pad7)*%
X166805000Y-116195000D03*
%TO.P,U3,8,VDDIO*%
%TO.N,+3V3*%
X166305000Y-116195000D03*
%TO.P,U3,9,AD0*%
%TO.N,ADO*%
X165805000Y-116195000D03*
%TO.P,U3,10,REGOUT*%
%TO.N,Net-(C7-Pad2)*%
X165305000Y-116195000D03*
%TO.P,U3,11,FSYNC*%
%TO.N,GND*%
X164805000Y-116195000D03*
%TO.P,U3,12,INT*%
%TO.N,INT*%
X164305000Y-116195000D03*
D28*
%TO.P,U3,13,VDD*%
%TO.N,+3V3*%
X163605000Y-116895000D03*
%TO.P,U3,14,NC*%
%TO.N,unconnected-(U3-Pad14)*%
X163605000Y-117395000D03*
%TO.P,U3,15,NC*%
%TO.N,unconnected-(U3-Pad15)*%
X163605000Y-117895000D03*
%TO.P,U3,16,NC*%
%TO.N,unconnected-(U3-Pad16)*%
X163605000Y-118395000D03*
%TO.P,U3,17,NC*%
%TO.N,unconnected-(U3-Pad17)*%
X163605000Y-118895000D03*
%TO.P,U3,18,GND*%
%TO.N,GND*%
X163605000Y-119395000D03*
D29*
%TO.P,U3,19,NC*%
%TO.N,unconnected-(U3-Pad19)*%
X164305000Y-120095000D03*
%TO.P,U3,20,CPOUT*%
%TO.N,Net-(C8-Pad1)*%
X164805000Y-120095000D03*
%TO.P,U3,21,NC*%
%TO.N,unconnected-(U3-Pad21)*%
X165305000Y-120095000D03*
%TO.P,U3,22,NC*%
%TO.N,unconnected-(U3-Pad22)*%
X165805000Y-120095000D03*
%TO.P,U3,23,SCL*%
%TO.N,SCL*%
X166305000Y-120095000D03*
%TO.P,U3,24,SDA*%
%TO.N,SDA*%
X166805000Y-120095000D03*
%TD*%
D30*
%TO.P,C6,1*%
%TO.N,+3V3*%
X161135000Y-116865000D03*
%TO.P,C6,2*%
%TO.N,GND*%
X161135000Y-115315000D03*
%TD*%
D31*
%TO.P,J2,1,Pin_1*%
%TO.N,IP*%
X99500000Y-130710000D03*
D32*
%TO.P,J2,2,Pin_2*%
%TO.N,GND*%
X103700000Y-130710000D03*
%TO.P,J2,3,Pin_3*%
X107900000Y-130710000D03*
%TO.P,J2,4,Pin_4*%
%TO.N,OP*%
X112100000Y-130710000D03*
%TD*%
D23*
%TO.P,C3,1*%
%TO.N,GND*%
X168165000Y-114365000D03*
%TO.P,C3,2*%
%TO.N,+3V3*%
X167205000Y-114365000D03*
%TD*%
D33*
%TO.P,U5,1,A1*%
%TO.N,CLK1*%
X136985000Y-121412500D03*
%TO.P,U5,2,VCCA*%
%TO.N,+3V3*%
X137635000Y-121412500D03*
%TO.P,U5,3,A2*%
%TO.N,MISO1*%
X138285000Y-121412500D03*
%TO.P,U5,4,A3*%
%TO.N,MOSI1*%
X138935000Y-121412500D03*
%TO.P,U5,5,A4*%
%TO.N,CS1*%
X139585000Y-121412500D03*
%TO.P,U5,6,A5*%
%TO.N,unconnected-(U5-Pad6)*%
X140235000Y-121412500D03*
%TO.P,U5,7,A6*%
%TO.N,unconnected-(U5-Pad7)*%
X140885000Y-121412500D03*
%TO.P,U5,8,A7*%
%TO.N,unconnected-(U5-Pad8)*%
X141535000Y-121412500D03*
%TO.P,U5,9,A8*%
%TO.N,unconnected-(U5-Pad9)*%
X142185000Y-121412500D03*
%TO.P,U5,10,OE*%
%TO.N,OE*%
X142835000Y-121412500D03*
%TO.P,U5,11,GND*%
%TO.N,GND*%
X142835000Y-115687500D03*
%TO.P,U5,12,B8*%
%TO.N,unconnected-(U5-Pad12)*%
X142185000Y-115687500D03*
%TO.P,U5,13,B7*%
%TO.N,unconnected-(U5-Pad13)*%
X141535000Y-115687500D03*
%TO.P,U5,14,B6*%
%TO.N,unconnected-(U5-Pad14)*%
X140885000Y-115687500D03*
%TO.P,U5,15,B5*%
%TO.N,unconnected-(U5-Pad15)*%
X140235000Y-115687500D03*
%TO.P,U5,16,B4*%
%TO.N,CS*%
X139585000Y-115687500D03*
%TO.P,U5,17,B3*%
%TO.N,MOSI*%
X138935000Y-115687500D03*
%TO.P,U5,18,B2*%
%TO.N,MISO*%
X138285000Y-115687500D03*
%TO.P,U5,19,VCCB*%
%TO.N,+5V*%
X137635000Y-115687500D03*
%TO.P,U5,20,B1*%
%TO.N,CLK*%
X136985000Y-115687500D03*
%TD*%
D15*
%TO.P,R6,1*%
%TO.N,CH1*%
X109000000Y-112300000D03*
%TO.P,R6,2*%
%TO.N,IP*%
X109000000Y-111280000D03*
%TD*%
D14*
%TO.P,R1,1*%
%TO.N,SDA*%
X167295000Y-121815000D03*
%TO.P,R1,2*%
%TO.N,+3V3*%
X168315000Y-121815000D03*
%TD*%
D23*
%TO.P,C5,1*%
%TO.N,GND*%
X115010000Y-123080000D03*
%TO.P,C5,2*%
%TO.N,Net-(C5-Pad2)*%
X114050000Y-123080000D03*
%TD*%
D34*
%TO.P,D1,1,K*%
%TO.N,Net-(D1-Pad1)*%
X166000000Y-131712500D03*
%TO.P,D1,2,A*%
%TO.N,+3V3*%
X166000000Y-133287500D03*
%TD*%
D21*
%TO.P,J3,1,Pin_1*%
%TO.N,+3V3*%
X167300000Y-138010000D03*
D22*
%TO.P,J3,2,Pin_2*%
%TO.N,+5V*%
X167300000Y-140550000D03*
%TO.P,J3,3,Pin_3*%
%TO.N,SDA*%
X164760000Y-138010000D03*
%TO.P,J3,4,Pin_4*%
%TO.N,unconnected-(J3-Pad4)*%
X164760000Y-140550000D03*
%TO.P,J3,5,Pin_5*%
%TO.N,SCL*%
X162220000Y-138010000D03*
%TO.P,J3,6,Pin_6*%
%TO.N,unconnected-(J3-Pad6)*%
X162220000Y-140550000D03*
%TO.P,J3,7,Pin_7*%
%TO.N,PPS*%
X159680000Y-138010000D03*
%TO.P,J3,8,Pin_8*%
%TO.N,TX*%
X159680000Y-140550000D03*
%TO.P,J3,9,Pin_9*%
%TO.N,GND*%
X157140000Y-138010000D03*
%TO.P,J3,10,Pin_10*%
%TO.N,RX*%
X157140000Y-140550000D03*
%TO.P,J3,11,Pin_11*%
%TO.N,INT*%
X154600000Y-138010000D03*
%TO.P,J3,12,Pin_12*%
%TO.N,unconnected-(J3-Pad12)*%
X154600000Y-140550000D03*
%TO.P,J3,13,Pin_13*%
%TO.N,ADO*%
X152060000Y-138010000D03*
%TO.P,J3,14,Pin_14*%
%TO.N,unconnected-(J3-Pad14)*%
X152060000Y-140550000D03*
%TO.P,J3,15,Pin_15*%
%TO.N,DHTOUT*%
X149520000Y-138010000D03*
%TO.P,J3,16,Pin_16*%
%TO.N,unconnected-(J3-Pad16)*%
X149520000Y-140550000D03*
%TO.P,J3,17,Pin_17*%
%TO.N,unconnected-(J3-Pad17)*%
X146980000Y-138010000D03*
%TO.P,J3,18,Pin_18*%
%TO.N,OE*%
X146980000Y-140550000D03*
%TO.P,J3,19,Pin_19*%
%TO.N,MOSI1*%
X144440000Y-138010000D03*
%TO.P,J3,20,Pin_20*%
%TO.N,unconnected-(J3-Pad20)*%
X144440000Y-140550000D03*
%TO.P,J3,21,Pin_21*%
%TO.N,MISO1*%
X141900000Y-138010000D03*
%TO.P,J3,22,Pin_22*%
%TO.N,unconnected-(J3-Pad22)*%
X141900000Y-140550000D03*
%TO.P,J3,23,Pin_23*%
%TO.N,CLK1*%
X139360000Y-138010000D03*
%TO.P,J3,24,Pin_24*%
%TO.N,unconnected-(J3-Pad24)*%
X139360000Y-140550000D03*
%TO.P,J3,25,Pin_25*%
%TO.N,unconnected-(J3-Pad25)*%
X136820000Y-138010000D03*
%TO.P,J3,26,Pin_26*%
%TO.N,unconnected-(J3-Pad26)*%
X136820000Y-140550000D03*
%TO.P,J3,27,Pin_27*%
%TO.N,unconnected-(J3-Pad27)*%
X134280000Y-138010000D03*
%TO.P,J3,28,Pin_28*%
%TO.N,unconnected-(J3-Pad28)*%
X134280000Y-140550000D03*
%TO.P,J3,29,Pin_29*%
%TO.N,unconnected-(J3-Pad29)*%
X131740000Y-138010000D03*
%TO.P,J3,30,Pin_30*%
%TO.N,unconnected-(J3-Pad30)*%
X131740000Y-140550000D03*
%TO.P,J3,31,Pin_31*%
%TO.N,unconnected-(J3-Pad31)*%
X129200000Y-138010000D03*
%TO.P,J3,32,Pin_32*%
%TO.N,unconnected-(J3-Pad32)*%
X129200000Y-140550000D03*
%TO.P,J3,33,Pin_33*%
%TO.N,unconnected-(J3-Pad33)*%
X126660000Y-138010000D03*
%TO.P,J3,34,Pin_34*%
%TO.N,unconnected-(J3-Pad34)*%
X126660000Y-140550000D03*
%TO.P,J3,35,Pin_35*%
%TO.N,unconnected-(J3-Pad35)*%
X124120000Y-138010000D03*
%TO.P,J3,36,Pin_36*%
%TO.N,unconnected-(J3-Pad36)*%
X124120000Y-140550000D03*
%TO.P,J3,37,Pin_37*%
%TO.N,CS1*%
X121580000Y-138010000D03*
%TO.P,J3,38,Pin_38*%
%TO.N,unconnected-(J3-Pad38)*%
X121580000Y-140550000D03*
%TO.P,J3,39,Pin_39*%
%TO.N,GND*%
X119040000Y-138010000D03*
%TO.P,J3,40,Pin_40*%
%TO.N,unconnected-(J3-Pad40)*%
X119040000Y-140550000D03*
%TD*%
D35*
%TO.N,+5V*%
X104780000Y-115510000D03*
X102890000Y-115500000D03*
X167150000Y-147080000D03*
%TO.N,GND*%
X159830000Y-115330000D03*
X162180000Y-119360000D03*
X152830000Y-119940000D03*
X114860000Y-119420000D03*
X113800000Y-125310000D03*
X136040000Y-125420000D03*
X141350000Y-113340000D03*
X161600000Y-121780000D03*
X144450000Y-124390000D03*
X163510000Y-111740000D03*
X166050000Y-127520000D03*
X135360000Y-108080000D03*
X164324622Y-114835378D03*
X169150000Y-114360000D03*
X168900000Y-119400000D03*
X143270000Y-114070000D03*
X151960000Y-123840000D03*
X116210000Y-123100000D03*
X155080000Y-118250000D03*
X111430000Y-109330000D03*
X109850000Y-115460000D03*
X156370000Y-119530000D03*
%TO.N,+3V3*%
X151500000Y-128830000D03*
X140790000Y-128800000D03*
X157250000Y-115740000D03*
X155280000Y-113800000D03*
X166454622Y-123894622D03*
X164375378Y-122525378D03*
X156770000Y-79780000D03*
X158890000Y-79770000D03*
%TO.N,SDA*%
X162590378Y-124310378D03*
X163579622Y-125299622D03*
%TD*%
D36*
%TO.N,+5V*%
X109775000Y-120515000D02*
X109775000Y-118115000D01*
X109775000Y-120055000D02*
X115750000Y-114080000D01*
X114800000Y-128310000D02*
X112190000Y-125700000D01*
X115750000Y-114080000D02*
X115750000Y-112480000D01*
X117390000Y-110840000D02*
X117930000Y-110840000D01*
X105450000Y-102870000D02*
X109910000Y-102870000D01*
X102890000Y-115500000D02*
X102080000Y-114690000D01*
X109775000Y-120515000D02*
X109775000Y-120055000D01*
X112190000Y-125700000D02*
X110060000Y-125700000D01*
X118000001Y-110769999D02*
X130355001Y-110769999D01*
X167110000Y-147120000D02*
X119710000Y-147120000D01*
X109775000Y-118115000D02*
X107170000Y-115510000D01*
X109775000Y-120515000D02*
X111675000Y-120515000D01*
X117930000Y-110840000D02*
X118000001Y-110769999D01*
D37*
X137635000Y-115687500D02*
X137635000Y-113655000D01*
D36*
X119710000Y-147120000D02*
X114800000Y-142210000D01*
X133785000Y-106965000D02*
X133910000Y-107090000D01*
X114800000Y-142210000D02*
X114800000Y-128310000D01*
X108850000Y-121440000D02*
X109775000Y-120515000D01*
X130355001Y-110769999D02*
X131620000Y-109505000D01*
X102080000Y-106240000D02*
X105450000Y-102870000D01*
X134195000Y-109505000D02*
X137990000Y-113300000D01*
X110060000Y-125700000D02*
X108850000Y-124490000D01*
X108850000Y-124490000D02*
X108850000Y-121440000D01*
X131620000Y-109505000D02*
X134195000Y-109505000D01*
X107170000Y-115510000D02*
X104780000Y-115510000D01*
X131620000Y-109505000D02*
X131620000Y-106965000D01*
X131620000Y-106965000D02*
X133785000Y-106965000D01*
X167150000Y-147080000D02*
X167110000Y-147120000D01*
X111675000Y-120515000D02*
X113795000Y-120515000D01*
X115750000Y-112480000D02*
X117390000Y-110840000D01*
X113795000Y-120515000D02*
X113900000Y-120410000D01*
D37*
X137635000Y-113655000D02*
X137990000Y-113300000D01*
D36*
X102080000Y-114690000D02*
X102080000Y-106240000D01*
%TO.N,GND*%
X152815000Y-119955000D02*
X152830000Y-119940000D01*
D37*
X164805000Y-115315756D02*
X164324622Y-114835378D01*
D36*
X169145000Y-114365000D02*
X169150000Y-114360000D01*
X116190000Y-123080000D02*
X116210000Y-123100000D01*
X155065000Y-118265000D02*
X155080000Y-118250000D01*
X139540000Y-113300000D02*
X141310000Y-113300000D01*
X115010000Y-123080000D02*
X116190000Y-123080000D01*
X166000000Y-128767500D02*
X166000000Y-127570000D01*
X153065000Y-123815000D02*
X151985000Y-123815000D01*
X135330000Y-108050000D02*
X135360000Y-108080000D01*
X155065000Y-119315000D02*
X155065000Y-118265000D01*
D37*
X162215000Y-119395000D02*
X162180000Y-119360000D01*
D36*
X151985000Y-123815000D02*
X151960000Y-123840000D01*
X168165000Y-114365000D02*
X169145000Y-114365000D01*
X112815000Y-124325000D02*
X113800000Y-125310000D01*
X161135000Y-115315000D02*
X159845000Y-115315000D01*
X111410000Y-109310000D02*
X111430000Y-109330000D01*
X113900000Y-119450000D02*
X114830000Y-119450000D01*
X114830000Y-119450000D02*
X114860000Y-119420000D01*
X163475000Y-111775000D02*
X163510000Y-111740000D01*
X109000000Y-114810000D02*
X109200000Y-114810000D01*
D37*
X154100000Y-121140000D02*
X153120000Y-121140000D01*
X168895000Y-119395000D02*
X168900000Y-119400000D01*
D36*
X109900000Y-109310000D02*
X111410000Y-109310000D01*
D37*
X167505000Y-119395000D02*
X168895000Y-119395000D01*
D36*
X136050000Y-125410000D02*
X136040000Y-125420000D01*
X143910000Y-123300000D02*
X143910000Y-123850000D01*
X163475000Y-112970000D02*
X163475000Y-111775000D01*
X111675000Y-124325000D02*
X112815000Y-124325000D01*
X141310000Y-113300000D02*
X141350000Y-113340000D01*
X156150000Y-120490000D02*
X156150000Y-119750000D01*
D37*
X164805000Y-116195000D02*
X164805000Y-115315756D01*
D36*
X109200000Y-114810000D02*
X109850000Y-115460000D01*
X166000000Y-127570000D02*
X166050000Y-127520000D01*
X162565000Y-121815000D02*
X161635000Y-121815000D01*
X152815000Y-120835000D02*
X152815000Y-119955000D01*
X142835000Y-115687500D02*
X142835000Y-114505000D01*
D37*
X153120000Y-121140000D02*
X152815000Y-120835000D01*
D36*
X143910000Y-123850000D02*
X144450000Y-124390000D01*
X159845000Y-115315000D02*
X159830000Y-115330000D01*
X133910000Y-108050000D02*
X135330000Y-108050000D01*
D37*
X163605000Y-119395000D02*
X162215000Y-119395000D01*
D36*
X142835000Y-114505000D02*
X143270000Y-114070000D01*
X156150000Y-119750000D02*
X156370000Y-119530000D01*
X161635000Y-121815000D02*
X161600000Y-121780000D01*
X136050000Y-124110000D02*
X136050000Y-125410000D01*
%TO.N,+3V3*%
X159030000Y-79770000D02*
X158890000Y-79770000D01*
D37*
X166610000Y-108680000D02*
X170220000Y-112290000D01*
D36*
X168065378Y-123894622D02*
X168315000Y-123645000D01*
D37*
X155565000Y-125735000D02*
X155280000Y-126020000D01*
X155265000Y-121355000D02*
X155265000Y-121215000D01*
D36*
X168570000Y-133450000D02*
X168570000Y-133500000D01*
X168315000Y-123645000D02*
X168315000Y-121815000D01*
D37*
X157250000Y-115740000D02*
X158375000Y-116865000D01*
X155255000Y-122345000D02*
X155255000Y-121365000D01*
D36*
X169960000Y-112030000D02*
X168210000Y-112030000D01*
D37*
X155280000Y-126020000D02*
X152470000Y-128830000D01*
X156150000Y-121140000D02*
X155340000Y-121140000D01*
X155340000Y-121140000D02*
X155265000Y-121215000D01*
X154100000Y-120490000D02*
X154540000Y-120490000D01*
D36*
X170220000Y-112290000D02*
X169960000Y-112030000D01*
D37*
X153657500Y-104302500D02*
X154660000Y-105305000D01*
X140340000Y-128800000D02*
X137600000Y-126060000D01*
D36*
X168315000Y-121815000D02*
X169185000Y-121815000D01*
X169185000Y-121815000D02*
X170490000Y-120510000D01*
D37*
X155565000Y-123825000D02*
X155565000Y-125735000D01*
X137600000Y-126060000D02*
X137600000Y-124110000D01*
D36*
X165055000Y-121815000D02*
X165055000Y-121845756D01*
X170490000Y-120510000D02*
X170490000Y-112560000D01*
X156320000Y-79780000D02*
X153107500Y-82992500D01*
X166454622Y-123894622D02*
X168065378Y-123894622D01*
D37*
X166305000Y-116195000D02*
X166305000Y-115295000D01*
X154100000Y-120490000D02*
X154100000Y-119320000D01*
X155255000Y-122345000D02*
X154700000Y-121790000D01*
X163525000Y-116815000D02*
X163605000Y-116895000D01*
D36*
X153107500Y-82992500D02*
X153107500Y-104302500D01*
X165055000Y-121845756D02*
X164375378Y-122525378D01*
D37*
X155565000Y-123825000D02*
X155255000Y-123515000D01*
X158065000Y-121045000D02*
X161135000Y-117975000D01*
D36*
X169250000Y-128850000D02*
X169250000Y-132770000D01*
D37*
X137635000Y-124075000D02*
X137600000Y-124110000D01*
X157105000Y-121045000D02*
X158065000Y-121045000D01*
D36*
X161440000Y-77360000D02*
X159030000Y-79770000D01*
X167300000Y-138010000D02*
X167300000Y-136320000D01*
D37*
X140790000Y-128800000D02*
X140340000Y-128800000D01*
D36*
X170490000Y-112560000D02*
X170220000Y-112290000D01*
D37*
X154700000Y-121790000D02*
X154100000Y-121790000D01*
X154100000Y-119320000D02*
X154105000Y-119315000D01*
X158375000Y-116865000D02*
X161135000Y-116865000D01*
X152815000Y-121795000D02*
X154095000Y-121795000D01*
X166305000Y-115295000D02*
X167205000Y-114395000D01*
D36*
X168570000Y-133500000D02*
X166212500Y-133500000D01*
D37*
X153107500Y-104302500D02*
X153657500Y-104302500D01*
X155255000Y-123515000D02*
X155255000Y-122345000D01*
D36*
X167205000Y-113035000D02*
X167205000Y-114365000D01*
X161205000Y-116795000D02*
X163472462Y-116795000D01*
X162850000Y-77360000D02*
X161440000Y-77360000D01*
D37*
X157010000Y-121140000D02*
X157105000Y-121045000D01*
D36*
X167300000Y-136320000D02*
X166000000Y-135020000D01*
X161135000Y-116865000D02*
X161205000Y-116795000D01*
D37*
X154660000Y-108680000D02*
X154660000Y-113180000D01*
X167205000Y-114395000D02*
X167205000Y-114365000D01*
D36*
X166000000Y-135020000D02*
X166000000Y-133287500D01*
D37*
X154660000Y-108680000D02*
X166610000Y-108680000D01*
X154660000Y-113180000D02*
X155280000Y-113800000D01*
X152470000Y-128830000D02*
X151500000Y-128830000D01*
D36*
X168315000Y-127915000D02*
X169250000Y-128850000D01*
D37*
X154660000Y-105305000D02*
X154660000Y-108680000D01*
X161135000Y-117975000D02*
X161135000Y-116865000D01*
D36*
X168210000Y-112030000D02*
X167205000Y-113035000D01*
X168315000Y-123645000D02*
X168315000Y-127915000D01*
D37*
X155265000Y-121215000D02*
X154540000Y-120490000D01*
X154095000Y-121795000D02*
X154100000Y-121790000D01*
X156150000Y-121140000D02*
X157010000Y-121140000D01*
D36*
X169250000Y-132770000D02*
X168570000Y-133450000D01*
D37*
X155255000Y-121365000D02*
X155265000Y-121355000D01*
D36*
X156770000Y-79780000D02*
X156320000Y-79780000D01*
D37*
X137635000Y-121412500D02*
X137635000Y-124075000D01*
%TO.N,Net-(C5-Pad2)*%
X111675000Y-123055000D02*
X113945000Y-123055000D01*
X113945000Y-123055000D02*
X113960000Y-123040000D01*
%TO.N,Net-(C7-Pad2)*%
X165305000Y-113250000D02*
X165305000Y-116195000D01*
X165025000Y-112970000D02*
X165305000Y-113250000D01*
%TO.N,Net-(C8-Pad1)*%
X163525000Y-121465000D02*
X163525000Y-121815000D01*
X164805000Y-120905000D02*
X164585000Y-121125000D01*
X164805000Y-120095000D02*
X164805000Y-120905000D01*
X164585000Y-121125000D02*
X163865000Y-121125000D01*
X163865000Y-121125000D02*
X163525000Y-121465000D01*
%TO.N,Net-(D1-Pad1)*%
X166000000Y-131712500D02*
X166000000Y-129787500D01*
%TO.N,TX*%
X173120000Y-91580000D02*
X173120000Y-142950000D01*
X171310000Y-144760000D02*
X161170000Y-144760000D01*
X173120000Y-142950000D02*
X171310000Y-144760000D01*
X161170000Y-144760000D02*
X159680000Y-143270000D01*
X159680000Y-143270000D02*
X159680000Y-140550000D01*
X166520000Y-84980000D02*
X173120000Y-91580000D01*
X162850000Y-84980000D02*
X166520000Y-84980000D01*
%TO.N,RX*%
X158930000Y-145890000D02*
X157140000Y-144100000D01*
X174610000Y-143120000D02*
X171840000Y-145890000D01*
X157140000Y-144100000D02*
X157140000Y-140550000D01*
X166670000Y-82440000D02*
X174610000Y-90380000D01*
X171840000Y-145890000D02*
X158930000Y-145890000D01*
X162850000Y-82440000D02*
X166670000Y-82440000D01*
X174610000Y-90380000D02*
X174610000Y-143120000D01*
%TO.N,PPS*%
X170840000Y-143410000D02*
X171530000Y-142720000D01*
X171530000Y-104200000D02*
X167720000Y-100390000D01*
X159680000Y-138010000D02*
X160918923Y-139248923D01*
X157740000Y-97870000D02*
X160260000Y-100390000D01*
X160470000Y-74820000D02*
X157740000Y-77550000D01*
X162850000Y-74820000D02*
X160470000Y-74820000D01*
X171530000Y-142720000D02*
X171530000Y-104200000D01*
X160260000Y-100390000D02*
X167720000Y-100390000D01*
X160918923Y-139248923D02*
X160918923Y-142308923D01*
X157740000Y-77550000D02*
X157740000Y-97870000D01*
X160918923Y-142308923D02*
X162020000Y-143410000D01*
X162020000Y-143410000D02*
X170840000Y-143410000D01*
D36*
%TO.N,IP*%
X103850000Y-112570000D02*
X105140000Y-111280000D01*
X106725000Y-120515000D02*
X104715000Y-120515000D01*
X105140000Y-111280000D02*
X109000000Y-111280000D01*
X103850000Y-123230000D02*
X103850000Y-119650000D01*
X99500000Y-127580000D02*
X103850000Y-123230000D01*
X106725000Y-120515000D02*
X106725000Y-121785000D01*
X104715000Y-120515000D02*
X103850000Y-119650000D01*
X103850000Y-119650000D02*
X103850000Y-112570000D01*
X99500000Y-130710000D02*
X99500000Y-127580000D01*
%TO.N,OP*%
X106725000Y-123055000D02*
X106725000Y-124325000D01*
X106725000Y-124325000D02*
X109080000Y-126680000D01*
X109080000Y-126680000D02*
X110570000Y-126680000D01*
X112100000Y-128210000D02*
X112100000Y-130710000D01*
X110570000Y-126680000D02*
X112100000Y-128210000D01*
D37*
%TO.N,SDA*%
X167295000Y-121225000D02*
X167295000Y-121815000D01*
X163579622Y-125299622D02*
X164119622Y-125299622D01*
X166805000Y-120095000D02*
X166805000Y-120735000D01*
X156910000Y-121790000D02*
X157185000Y-122065000D01*
X164119622Y-125299622D02*
X164665000Y-125845000D01*
X166805000Y-120735000D02*
X167295000Y-121225000D01*
X157185000Y-122065000D02*
X158065000Y-122065000D01*
X158065000Y-122065000D02*
X160345000Y-122065000D01*
X164665000Y-125845000D02*
X164760000Y-125940000D01*
X164760000Y-125940000D02*
X164760000Y-138010000D01*
X164665000Y-124695000D02*
X164665000Y-125845000D01*
X160345000Y-122065000D02*
X162590378Y-124310378D01*
X167295000Y-121815000D02*
X167295000Y-122065000D01*
X167295000Y-122065000D02*
X164665000Y-124695000D01*
X156150000Y-121790000D02*
X156910000Y-121790000D01*
%TO.N,SCL*%
X166305000Y-120925000D02*
X166075000Y-121155000D01*
X162125000Y-125765000D02*
X162125000Y-125805000D01*
X156150000Y-122440000D02*
X156150000Y-122780000D01*
X166075000Y-121155000D02*
X166075000Y-121815000D01*
X156585000Y-123825000D02*
X160145000Y-123825000D01*
X156150000Y-122780000D02*
X156585000Y-123215000D01*
X160145000Y-123825000D02*
X162125000Y-125805000D01*
X162125000Y-125765000D02*
X162220000Y-125860000D01*
X166305000Y-120095000D02*
X166305000Y-120925000D01*
X162220000Y-125860000D02*
X162220000Y-138010000D01*
X166075000Y-121815000D02*
X162125000Y-125765000D01*
X156585000Y-123215000D02*
X156585000Y-123825000D01*
%TO.N,INT*%
X161820000Y-112250000D02*
X159680000Y-112250000D01*
X152650000Y-135100000D02*
X153460000Y-135100000D01*
X155340000Y-116590000D02*
X151470000Y-116590000D01*
X151470000Y-116590000D02*
X150550000Y-117510000D01*
X154600000Y-136240000D02*
X154600000Y-138010000D01*
X163330000Y-114830000D02*
X162770000Y-114830000D01*
X162770000Y-114830000D02*
X162180000Y-114240000D01*
X150550000Y-133000000D02*
X152650000Y-135100000D01*
X162180000Y-112610000D02*
X161820000Y-112250000D01*
X153460000Y-135100000D02*
X154600000Y-136240000D01*
X150550000Y-117510000D02*
X150550000Y-133000000D01*
X164305000Y-116195000D02*
X164305000Y-115805000D01*
X159680000Y-112250000D02*
X155340000Y-116590000D01*
X164305000Y-115805000D02*
X163330000Y-114830000D01*
X162180000Y-114240000D02*
X162180000Y-112610000D01*
%TO.N,ADO*%
X151010000Y-115750000D02*
X154610000Y-115750000D01*
X154610000Y-115750000D02*
X159970000Y-110390000D01*
X152060000Y-138010000D02*
X152060000Y-135920000D01*
X165360000Y-110390000D02*
X166420000Y-111450000D01*
X166420000Y-114340000D02*
X165805000Y-114955000D01*
X152060000Y-135920000D02*
X149780000Y-133640000D01*
X165805000Y-114955000D02*
X165805000Y-116195000D01*
X159970000Y-110390000D02*
X165360000Y-110390000D01*
X149780000Y-116980000D02*
X151010000Y-115750000D01*
X166420000Y-111450000D02*
X166420000Y-114340000D01*
X149780000Y-133640000D02*
X149780000Y-116980000D01*
%TO.N,DHTOUT*%
X148530000Y-137020000D02*
X149520000Y-138010000D01*
X152120000Y-110880000D02*
X148530000Y-114470000D01*
X152087500Y-104302500D02*
X152120000Y-104335000D01*
X152120000Y-108680000D02*
X152120000Y-110880000D01*
X152120000Y-104335000D02*
X152120000Y-108680000D01*
X148530000Y-114470000D02*
X148530000Y-137020000D01*
%TO.N,MOSI1*%
X138935000Y-121412500D02*
X138935000Y-122315000D01*
X138935000Y-122315000D02*
X144440000Y-127820000D01*
X144440000Y-127820000D02*
X144440000Y-138010000D01*
%TO.N,MISO1*%
X138285000Y-121412500D02*
X138285000Y-122565000D01*
X138285000Y-122565000D02*
X141900000Y-126180000D01*
X141900000Y-126180000D02*
X141900000Y-138010000D01*
%TO.N,CLK1*%
X136985000Y-121412500D02*
X135507500Y-121412500D01*
X135507500Y-121412500D02*
X134310000Y-122610000D01*
X134310000Y-128560000D02*
X139360000Y-133610000D01*
X134310000Y-122610000D02*
X134310000Y-128560000D01*
X139360000Y-133610000D02*
X139360000Y-138010000D01*
%TO.N,CS1*%
X129570000Y-133050000D02*
X133550000Y-129070000D01*
X121580000Y-138010000D02*
X121580000Y-134860000D01*
X139540000Y-120400000D02*
X139540000Y-121367500D01*
X121580000Y-134860000D02*
X123390000Y-133050000D01*
X123390000Y-133050000D02*
X129570000Y-133050000D01*
X139540000Y-121367500D02*
X139585000Y-121412500D01*
X139000000Y-119860000D02*
X139540000Y-120400000D01*
X133550000Y-121920000D02*
X135610000Y-119860000D01*
X133550000Y-129070000D02*
X133550000Y-121920000D01*
X135610000Y-119860000D02*
X139000000Y-119860000D01*
%TO.N,Net-(R3-Pad1)*%
X154100000Y-122440000D02*
X154100000Y-123800000D01*
X154100000Y-123800000D02*
X154085000Y-123815000D01*
%TO.N,CH1*%
X109000000Y-112300000D02*
X109000000Y-113790000D01*
X109000000Y-112300000D02*
X113420000Y-112300000D01*
X113420000Y-112300000D02*
X116215000Y-109505000D01*
X116215000Y-109505000D02*
X124000000Y-109505000D01*
%TO.N,CH0*%
X109910000Y-105410000D02*
X109910000Y-108280000D01*
X115275000Y-106965000D02*
X124000000Y-106965000D01*
X109910000Y-108280000D02*
X109900000Y-108290000D01*
X113950000Y-108290000D02*
X115275000Y-106965000D01*
X109900000Y-108290000D02*
X113950000Y-108290000D01*
%TO.N,OE*%
X145780000Y-135910000D02*
X145780000Y-139350000D01*
X146960000Y-134730000D02*
X145780000Y-135910000D01*
X146960000Y-128570000D02*
X146960000Y-134730000D01*
X142835000Y-123245000D02*
X142890000Y-123300000D01*
X142890000Y-123300000D02*
X142890000Y-124500000D01*
X142890000Y-124500000D02*
X146960000Y-128570000D01*
X145780000Y-139350000D02*
X146980000Y-140550000D01*
X142835000Y-121412500D02*
X142835000Y-123245000D01*
%TO.N,CH2*%
X117900000Y-113170000D02*
X119025000Y-112045000D01*
X119025000Y-112045000D02*
X124000000Y-112045000D01*
X117900000Y-118880000D02*
X117900000Y-113170000D01*
X111675000Y-121785000D02*
X114995000Y-121785000D01*
X114995000Y-121785000D02*
X117900000Y-118880000D01*
%TO.N,CS*%
X135240000Y-118570000D02*
X139480000Y-118570000D01*
X135090000Y-118740000D02*
X135090000Y-118720000D01*
X134010000Y-119820000D02*
X135090000Y-118740000D01*
X131620000Y-122205000D02*
X134005000Y-119820000D01*
X139585000Y-118465000D02*
X139585000Y-115687500D01*
X139480000Y-118570000D02*
X139585000Y-118465000D01*
X134005000Y-119820000D02*
X134010000Y-119820000D01*
X135090000Y-118720000D02*
X135240000Y-118570000D01*
%TO.N,MOSI*%
X132805000Y-119665000D02*
X134540000Y-117930000D01*
X138980000Y-115732500D02*
X138935000Y-115687500D01*
X138980000Y-117020000D02*
X138980000Y-115732500D01*
X131620000Y-119665000D02*
X132805000Y-119665000D01*
X138070000Y-117930000D02*
X138980000Y-117020000D01*
X134540000Y-117930000D02*
X138070000Y-117930000D01*
%TO.N,MISO*%
X138285000Y-116635000D02*
X138285000Y-115687500D01*
X134260000Y-117400000D02*
X134290000Y-117430000D01*
X131620000Y-117125000D02*
X132425000Y-117930000D01*
X133730000Y-117930000D02*
X134260000Y-117400000D01*
X137490000Y-117430000D02*
X138285000Y-116635000D01*
X132425000Y-117930000D02*
X133730000Y-117930000D01*
X134290000Y-117430000D02*
X137490000Y-117430000D01*
%TO.N,CLK*%
X136985000Y-114665000D02*
X136985000Y-115687500D01*
X134010000Y-113710000D02*
X136030000Y-113710000D01*
X136030000Y-113710000D02*
X136985000Y-114665000D01*
X133135000Y-114585000D02*
X134010000Y-113710000D01*
X131620000Y-114585000D02*
X133135000Y-114585000D01*
%TD*%
M02*
