M48
; DRILL file {KiCad (6.0.7)} date Sat Jan 28 09:16:49 2023
; FORMAT={-:-/ absolute / metric / decimal}
; #@! TF.CreationDate,2023-01-28T09:16:49+03:00
; #@! TF.GenerationSoftware,Kicad,Pcbnew,(6.0.7)
; #@! TF.FileFunction,MixedPlating,1,2
FMAT,2
METRIC
; #@! TA.AperFunction,Plated,PTH,ViaDrill
T1C0.300
; #@! TA.AperFunction,Plated,PTH,ComponentDrill
T2C0.800
; #@! TA.AperFunction,Plated,PTH,ComponentDrill
T3C0.850
; #@! TA.AperFunction,Plated,PTH,ComponentDrill
T4C1.000
; #@! TA.AperFunction,NonPlated,NPTH,ComponentDrill
T5C2.200
; #@! TA.AperFunction,NonPlated,NPTH,ComponentDrill
T6C3.200
%
G90
G05
T1
X102.89Y-115.5
X104.78Y-115.51
X109.85Y-115.46
X111.43Y-109.33
X113.8Y-125.31
X114.86Y-119.42
X116.21Y-123.1
X135.36Y-108.08
X136.04Y-125.42
X140.79Y-128.8
X141.35Y-113.34
X143.27Y-114.07
X144.45Y-124.39
X151.5Y-128.83
X151.96Y-123.84
X152.83Y-119.94
X155.08Y-118.25
X155.28Y-113.8
X156.37Y-119.53
X156.77Y-79.78
X157.25Y-115.74
X158.89Y-79.77
X159.83Y-115.33
X161.6Y-121.78
X162.18Y-119.36
X162.59Y-124.31
X163.51Y-111.74
X163.58Y-125.3
X164.325Y-114.835
X164.375Y-122.525
X166.05Y-127.52
X166.455Y-123.895
X167.15Y-147.08
X168.9Y-119.4
X169.15Y-114.36
T2
X109.91Y-102.87
X109.91Y-105.41
X124.0Y-106.965
X124.0Y-109.505
X124.0Y-112.045
X124.0Y-114.585
X124.0Y-117.125
X124.0Y-119.665
X124.0Y-122.205
X124.0Y-124.745
X131.62Y-106.965
X131.62Y-109.505
X131.62Y-112.045
X131.62Y-114.585
X131.62Y-117.125
X131.62Y-119.665
X131.62Y-122.205
X131.62Y-124.745
X147.04Y-108.68
X149.58Y-108.68
X152.12Y-108.68
X154.66Y-108.68
T3
X99.5Y-130.71
X103.7Y-130.71
X107.9Y-130.71
X112.1Y-130.71
T4
X119.04Y-138.01
X119.04Y-140.55
X121.58Y-138.01
X121.58Y-140.55
X124.12Y-138.01
X124.12Y-140.55
X126.66Y-138.01
X126.66Y-140.55
X129.2Y-138.01
X129.2Y-140.55
X131.74Y-138.01
X131.74Y-140.55
X134.28Y-138.01
X134.28Y-140.55
X136.82Y-138.01
X136.82Y-140.55
X139.36Y-138.01
X139.36Y-140.55
X141.9Y-138.01
X141.9Y-140.55
X144.44Y-138.01
X144.44Y-140.55
X146.98Y-138.01
X146.98Y-140.55
X149.52Y-138.01
X149.52Y-140.55
X152.06Y-138.01
X152.06Y-140.55
X154.6Y-138.01
X154.6Y-140.55
X157.14Y-138.01
X157.14Y-140.55
X159.68Y-138.01
X159.68Y-140.55
X162.22Y-138.01
X162.22Y-140.55
X162.85Y-74.82
X162.85Y-77.36
X162.85Y-79.9
X162.85Y-82.44
X162.85Y-84.98
X162.85Y-87.52
X162.85Y-90.06
X162.85Y-92.6
X162.85Y-95.14
X164.76Y-138.01
X164.76Y-140.55
X167.3Y-138.01
X167.3Y-140.55
T5
X99.5Y-140.91
X103.7Y-140.91
X107.9Y-140.91
X112.1Y-140.91
T6
X91.1Y-142.9
X91.2Y-54.9
X179.1Y-142.85
X179.2Y-54.9
T0
M30
