%TF.GenerationSoftware,Altium Limited,Altium Designer,24.5.2 (23)*%
G04 Layer_Color=16711935*
%FSLAX45Y45*%
%MOMM*%
%TF.SameCoordinates,2470441B-8579-4349-B98B-18B4F8D42BC9*%
%TF.FilePolarity,Negative*%
%TF.FileFunction,Soldermask,Bot*%
%TF.Part,Single*%
G01*
G75*
%TA.AperFunction,ComponentPad*%
%ADD47C,1.40000*%
%ADD48R,1.40000X1.40000*%
G04:AMPARAMS|DCode=51|XSize=1.1mm|YSize=1.7mm|CornerRadius=0.55mm|HoleSize=0mm|Usage=FLASHONLY|Rotation=270.000|XOffset=0mm|YOffset=0mm|HoleType=Round|Shape=RoundedRectangle|*
%AMROUNDEDRECTD51*
21,1,1.10000,0.60000,0,0,270.0*
21,1,0.00000,1.70000,0,0,270.0*
1,1,1.10000,-0.30000,0.00000*
1,1,1.10000,-0.30000,0.00000*
1,1,1.10000,0.30000,0.00000*
1,1,1.10000,0.30000,0.00000*
%
%ADD51ROUNDEDRECTD51*%
%ADD53R,1.40000X1.40000*%
%ADD76C,1.62320*%
G04:AMPARAMS|DCode=77|XSize=1.6232mm|YSize=1.6232mm|CornerRadius=0.4566mm|HoleSize=0mm|Usage=FLASHONLY|Rotation=0.000|XOffset=0mm|YOffset=0mm|HoleType=Round|Shape=RoundedRectangle|*
%AMROUNDEDRECTD77*
21,1,1.62320,0.71000,0,0,0.0*
21,1,0.71000,1.62320,0,0,0.0*
1,1,0.91320,0.35500,-0.35500*
1,1,0.91320,-0.35500,-0.35500*
1,1,0.91320,-0.35500,0.35500*
1,1,0.91320,0.35500,0.35500*
%
%ADD77ROUNDEDRECTD77*%
%ADD78C,3.65320*%
%ADD79C,2.79820*%
%ADD80R,2.79820X2.79820*%
%ADD81R,2.79820X2.79820*%
%TA.AperFunction,ViaPad*%
%ADD82C,0.71120*%
D47*
X2922499Y781900D02*
D03*
X5922499D02*
D03*
X4422499D02*
D03*
X1992700D02*
D03*
X4233100Y7272100D02*
D03*
X1742700D02*
D03*
X781900Y6408100D02*
D03*
Y6158100D02*
D03*
D48*
X3172499Y781900D02*
D03*
X6172499D02*
D03*
X4672499D02*
D03*
X1742700D02*
D03*
X4483100Y7272100D02*
D03*
X1992700D02*
D03*
D51*
X668300Y2565600D02*
D03*
Y1701600D02*
D03*
X288300Y2565600D02*
D03*
Y1701600D02*
D03*
D53*
X781900Y6658100D02*
D03*
D76*
X6259533Y7373018D02*
D03*
X6059532D02*
D03*
X6509533D02*
D03*
D77*
X5809532D02*
D03*
D78*
X6816532Y7102018D02*
D03*
X5502533D02*
D03*
D79*
X457200Y3242664D02*
D03*
Y3712664D02*
D03*
X2646026Y7594600D02*
D03*
X3116026D02*
D03*
D80*
X457200Y4182664D02*
D03*
D81*
X3586026Y7594600D02*
D03*
D82*
X7561600Y7396500D02*
D03*
X7710000Y6960000D02*
D03*
X7460000Y6460000D02*
D03*
X7710000Y5960000D02*
D03*
Y4960000D02*
D03*
X7460000Y4460000D02*
D03*
X7710000Y3960000D02*
D03*
X7510800Y3460000D02*
D03*
X7710000Y2960000D02*
D03*
X7460000Y2460000D02*
D03*
X7710000Y960000D02*
D03*
X7460000Y460000D02*
D03*
X6960000Y7460000D02*
D03*
X7210000Y6960000D02*
D03*
X6960000Y6460000D02*
D03*
Y4409200D02*
D03*
X7210000Y2960000D02*
D03*
X6960000Y2460000D02*
D03*
Y1460000D02*
D03*
X7210000Y960000D02*
D03*
X6960000Y460000D02*
D03*
X6460000Y6460000D02*
D03*
Y5510800D02*
D03*
X6671900Y2883800D02*
D03*
X6421900Y2460000D02*
D03*
X6710000Y1960000D02*
D03*
X6837000Y960000D02*
D03*
X6210000Y6960000D02*
D03*
X5960000Y6460000D02*
D03*
Y5460000D02*
D03*
X6210000Y2960000D02*
D03*
X6362400Y2023500D02*
D03*
X5960000Y460000D02*
D03*
X5773500Y6960000D02*
D03*
X5460000Y6460000D02*
D03*
Y5460000D02*
D03*
X5595700Y5099700D02*
D03*
X5460000Y4460000D02*
D03*
X5421900Y3460000D02*
D03*
X5396500Y1460000D02*
D03*
X5210000Y6960000D02*
D03*
X4960000Y6460000D02*
D03*
X5210000Y1960000D02*
D03*
X5286200Y960000D02*
D03*
X4633800Y6960000D02*
D03*
X4460000Y6460000D02*
D03*
Y5460000D02*
D03*
X4710000Y2036200D02*
D03*
X4460000Y460000D02*
D03*
X4210000Y6960000D02*
D03*
X3960000Y6460000D02*
D03*
Y5460000D02*
D03*
X3883800Y1460000D02*
D03*
X3710000Y6960000D02*
D03*
X3460000Y6460000D02*
D03*
Y5460000D02*
D03*
X3494100Y4985400D02*
D03*
X3760800Y1960000D02*
D03*
X3798900Y960000D02*
D03*
X3210000Y4960000D02*
D03*
X2934600Y4434600D02*
D03*
X3210000Y2036200D02*
D03*
X2960000Y460000D02*
D03*
X2710000Y1960000D02*
D03*
X2460000Y1460000D02*
D03*
X1985400Y7536200D02*
D03*
X2146500Y6960000D02*
D03*
X1960000Y5460000D02*
D03*
X1985400Y3523500D02*
D03*
X2210000Y1960000D02*
D03*
X1960000Y1460000D02*
D03*
X2375100Y960000D02*
D03*
X1960000Y460000D02*
D03*
X1710000Y6960000D02*
D03*
X1460000Y6460000D02*
D03*
X1710000Y5163200D02*
D03*
Y1960000D02*
D03*
X1460000Y1460000D02*
D03*
X1710000Y960000D02*
D03*
X1460000Y460000D02*
D03*
X960000Y7510800D02*
D03*
Y6460000D02*
D03*
X1248100Y5960000D02*
D03*
Y3087000D02*
D03*
X1273500Y1960000D02*
D03*
X960000Y460000D02*
D03*
X460000Y7460000D02*
D03*
X710000Y5960000D02*
D03*
Y960000D02*
D03*
X6172200Y3995100D02*
D03*
X6299200D02*
D03*
Y3766500D02*
D03*
X6172200D02*
D03*
Y3873500D02*
D03*
X6299200D02*
D03*
X4076700Y3995100D02*
D03*
X4203700Y3873500D02*
D03*
X4076700Y3766500D02*
D03*
X4203700D02*
D03*
Y3995100D02*
D03*
X4076700Y3873500D02*
D03*
X2108200Y3886200D02*
D03*
X1981200D02*
D03*
Y3779200D02*
D03*
X2108200D02*
D03*
X7353300Y1701800D02*
D03*
X381000Y6807200D02*
D03*
X330200Y952500D02*
D03*
X266700Y1968500D02*
D03*
Y2336800D02*
D03*
X330200Y5270500D02*
D03*
X368300Y5778500D02*
D03*
X381000Y6299200D02*
D03*
X5765800Y1231900D02*
D03*
X5638800D02*
D03*
X4292600D02*
D03*
X4140200D02*
D03*
X5778500Y4140200D02*
D03*
X5613400D02*
D03*
X3683000D02*
D03*
X3517900D02*
D03*
X1422400D02*
D03*
X1587500D02*
D03*
X2108200Y4007800D02*
D03*
X1981200D02*
D03*
%TF.MD5,2be9c3494e1426a81b85ae9d40b87a28*%
M02*
