%TF.GenerationSoftware,Altium Limited,Altium Designer,24.5.2 (23)*%
G04 Layer_Color=0*
%FSLAX45Y45*%
%MOMM*%
%TF.SameCoordinates,2470441B-8579-4349-B98B-18B4F8D42BC9*%
%TF.FilePolarity,Positive*%
%TF.FileFunction,Plated,1,2,PTH,Drill*%
%TF.Part,Single*%
G01*
G75*
%TA.AperFunction,ComponentDrill*%
%ADD84C,0.92000*%
%ADD85C,2.30000*%
%ADD86C,0.90000*%
%ADD87C,1.73000*%
%ADD88O,1.20000X0.60000*%
%ADD89C,1.73000*%
%ADD90C,0.90000*%
%TA.AperFunction,ViaDrill,NotFilled*%
%ADD91C,0.30480*%
D84*
X6259533Y7373018D02*
D03*
X6059532D02*
D03*
X6509533D02*
D03*
X5809532D02*
D03*
D85*
X6816532Y7102018D02*
D03*
X5502533D02*
D03*
D86*
X2922499Y781900D02*
D03*
X3172499D02*
D03*
X5922499D02*
D03*
X6172499D02*
D03*
X4422499D02*
D03*
X4672499D02*
D03*
X1992700D02*
D03*
X1742700D02*
D03*
X4233100Y7272100D02*
D03*
X4483100D02*
D03*
X1742700D02*
D03*
X1992700D02*
D03*
D87*
X457200Y3242664D02*
D03*
Y3712664D02*
D03*
Y4182664D02*
D03*
D88*
X668300Y2565600D02*
D03*
Y1701600D02*
D03*
X288300Y2565600D02*
D03*
Y1701600D02*
D03*
D89*
X2646026Y7594600D02*
D03*
X3116026D02*
D03*
X3586026D02*
D03*
D90*
X781900Y6658100D02*
D03*
Y6408100D02*
D03*
Y6158100D02*
D03*
D91*
X7561600Y7396500D02*
D03*
X7710000Y6960000D02*
D03*
X7460000Y6460000D02*
D03*
X7710000Y5960000D02*
D03*
Y4960000D02*
D03*
X7460000Y4460000D02*
D03*
X7710000Y3960000D02*
D03*
X7510800Y3460000D02*
D03*
X7710000Y2960000D02*
D03*
X7460000Y2460000D02*
D03*
X7710000Y960000D02*
D03*
X7460000Y460000D02*
D03*
X6960000Y7460000D02*
D03*
X7210000Y6960000D02*
D03*
X6960000Y6460000D02*
D03*
Y4409200D02*
D03*
X7210000Y2960000D02*
D03*
X6960000Y2460000D02*
D03*
Y1460000D02*
D03*
X7210000Y960000D02*
D03*
X6960000Y460000D02*
D03*
X6460000Y6460000D02*
D03*
Y5510800D02*
D03*
X6671900Y2883800D02*
D03*
X6421900Y2460000D02*
D03*
X6710000Y1960000D02*
D03*
X6837000Y960000D02*
D03*
X6210000Y6960000D02*
D03*
X5960000Y6460000D02*
D03*
Y5460000D02*
D03*
X6210000Y2960000D02*
D03*
X6362400Y2023500D02*
D03*
X5960000Y460000D02*
D03*
X5773500Y6960000D02*
D03*
X5460000Y6460000D02*
D03*
Y5460000D02*
D03*
X5595700Y5099700D02*
D03*
X5460000Y4460000D02*
D03*
X5421900Y3460000D02*
D03*
X5396500Y1460000D02*
D03*
X5210000Y6960000D02*
D03*
X4960000Y6460000D02*
D03*
X5210000Y1960000D02*
D03*
X5286200Y960000D02*
D03*
X4633800Y6960000D02*
D03*
X4460000Y6460000D02*
D03*
Y5460000D02*
D03*
X4710000Y2036200D02*
D03*
X4460000Y460000D02*
D03*
X4210000Y6960000D02*
D03*
X3960000Y6460000D02*
D03*
Y5460000D02*
D03*
X3883800Y1460000D02*
D03*
X3710000Y6960000D02*
D03*
X3460000Y6460000D02*
D03*
Y5460000D02*
D03*
X3494100Y4985400D02*
D03*
X3760800Y1960000D02*
D03*
X3798900Y960000D02*
D03*
X3210000Y4960000D02*
D03*
X2934600Y4434600D02*
D03*
X3210000Y2036200D02*
D03*
X2960000Y460000D02*
D03*
X2710000Y1960000D02*
D03*
X2460000Y1460000D02*
D03*
X1985400Y7536200D02*
D03*
X2146500Y6960000D02*
D03*
X1960000Y5460000D02*
D03*
X1985400Y3523500D02*
D03*
X2210000Y1960000D02*
D03*
X1960000Y1460000D02*
D03*
X2375100Y960000D02*
D03*
X1960000Y460000D02*
D03*
X1710000Y6960000D02*
D03*
X1460000Y6460000D02*
D03*
X1710000Y5163200D02*
D03*
Y1960000D02*
D03*
X1460000Y1460000D02*
D03*
X1710000Y960000D02*
D03*
X1460000Y460000D02*
D03*
X960000Y7510800D02*
D03*
Y6460000D02*
D03*
X1248100Y5960000D02*
D03*
Y3087000D02*
D03*
X1273500Y1960000D02*
D03*
X960000Y460000D02*
D03*
X460000Y7460000D02*
D03*
X710000Y5960000D02*
D03*
Y960000D02*
D03*
X6172200Y3995100D02*
D03*
X6299200D02*
D03*
Y3766500D02*
D03*
X6172200D02*
D03*
Y3873500D02*
D03*
X6299200D02*
D03*
X4076700Y3995100D02*
D03*
X4203700Y3873500D02*
D03*
X4076700Y3766500D02*
D03*
X4203700D02*
D03*
Y3995100D02*
D03*
X4076700Y3873500D02*
D03*
X2108200Y3886200D02*
D03*
X1981200D02*
D03*
Y3779200D02*
D03*
X2108200D02*
D03*
X7353300Y1701800D02*
D03*
X381000Y6807200D02*
D03*
X330200Y952500D02*
D03*
X266700Y1968500D02*
D03*
Y2336800D02*
D03*
X330200Y5270500D02*
D03*
X368300Y5778500D02*
D03*
X381000Y6299200D02*
D03*
X5765800Y1231900D02*
D03*
X5638800D02*
D03*
X4292600D02*
D03*
X4140200D02*
D03*
X5778500Y4140200D02*
D03*
X5613400D02*
D03*
X3683000D02*
D03*
X3517900D02*
D03*
X1422400D02*
D03*
X1587500D02*
D03*
X2108200Y4007800D02*
D03*
X1981200D02*
D03*
%TF.MD5,e9a852fc5abacda44c58e82c0cb460f2*%
M02*
