%TF.GenerationSoftware,Altium Limited,Altium Designer,24.5.2 (23)*%
G04 Layer_Physical_Order=2*
G04 Layer_Color=16711680*
%FSLAX45Y45*%
%MOMM*%
%TF.SameCoordinates,2470441B-8579-4349-B98B-18B4F8D42BC9*%
%TF.FilePolarity,Positive*%
%TF.FileFunction,Copper,L2,Bot,Signal*%
%TF.Part,Single*%
G01*
G75*
%TA.AperFunction,ComponentPad*%
%ADD44C,1.42000*%
G04:AMPARAMS|DCode=45|XSize=1.42mm|YSize=1.42mm|CornerRadius=0.355mm|HoleSize=0mm|Usage=FLASHONLY|Rotation=0.000|XOffset=0mm|YOffset=0mm|HoleType=Round|Shape=RoundedRectangle|*
%AMROUNDEDRECTD45*
21,1,1.42000,0.71000,0,0,0.0*
21,1,0.71000,1.42000,0,0,0.0*
1,1,0.71000,0.35500,-0.35500*
1,1,0.71000,-0.35500,-0.35500*
1,1,0.71000,-0.35500,0.35500*
1,1,0.71000,0.35500,0.35500*
%
%ADD45ROUNDEDRECTD45*%
%ADD46C,3.45000*%
%ADD47C,1.40000*%
%ADD48R,1.40000X1.40000*%
%ADD49C,2.59500*%
%ADD50R,2.59500X2.59500*%
G04:AMPARAMS|DCode=51|XSize=1.1mm|YSize=1.7mm|CornerRadius=0.55mm|HoleSize=0mm|Usage=FLASHONLY|Rotation=270.000|XOffset=0mm|YOffset=0mm|HoleType=Round|Shape=RoundedRectangle|*
%AMROUNDEDRECTD51*
21,1,1.10000,0.60000,0,0,270.0*
21,1,0.00000,1.70000,0,0,270.0*
1,1,1.10000,-0.30000,0.00000*
1,1,1.10000,-0.30000,0.00000*
1,1,1.10000,0.30000,0.00000*
1,1,1.10000,0.30000,0.00000*
%
%ADD51ROUNDEDRECTD51*%
%ADD52R,2.59500X2.59500*%
%ADD53R,1.40000X1.40000*%
%TA.AperFunction,ViaPad*%
%ADD54C,0.50800*%
G36*
X7729000Y8015154D02*
X7747756D01*
X7784945Y8010258D01*
X7821179Y8000549D01*
X7855834Y7986195D01*
X7888320Y7967439D01*
X7918080Y7944603D01*
X7944604Y7918080D01*
X7967439Y7888320D01*
X7986195Y7855834D01*
X8000550Y7821179D01*
X8010259Y7784944D01*
X8015155Y7747756D01*
X8015155Y7729000D01*
X8015154Y325000D01*
Y306243D01*
X8010258Y269055D01*
X8000549Y232821D01*
X7986195Y198165D01*
X7967439Y165680D01*
X7944603Y135920D01*
X7918080Y109396D01*
X7888320Y86561D01*
X7855834Y67805D01*
X7821179Y53450D01*
X7784946Y43742D01*
X7747754Y38845D01*
X7729000Y38845D01*
X325000Y38845D01*
X306245D01*
X269054Y43742D01*
X232821Y53450D01*
X198165Y67805D01*
X165681Y86560D01*
X135920Y109396D01*
X109397Y135919D01*
X86560Y165680D01*
X67805Y198165D01*
X53450Y232821D01*
X43742Y269054D01*
X38845Y306246D01*
X38845Y325001D01*
X38845Y7729000D01*
Y7747755D01*
X43742Y7784946D01*
X53450Y7821179D01*
X67805Y7855835D01*
X86560Y7888319D01*
X109396Y7918080D01*
X135919Y7944603D01*
X165680Y7967439D01*
X198165Y7986195D01*
X232821Y8000550D01*
X269056Y8010259D01*
X306244Y8015155D01*
X325001Y8015155D01*
X7729000Y8015154D01*
D02*
G37*
%LPC*%
G36*
X7726005Y7911347D02*
X7693995D01*
X7690242Y7910600D01*
X7686416D01*
X7655022Y7904355D01*
X7651487Y7902891D01*
X7647734Y7902145D01*
X7618161Y7889895D01*
X7614980Y7887769D01*
X7611446Y7886305D01*
X7584830Y7868522D01*
X7582125Y7865816D01*
X7578944Y7863691D01*
X7556309Y7841056D01*
X7554184Y7837875D01*
X7551478Y7835169D01*
X7533695Y7808554D01*
X7532231Y7805020D01*
X7530105Y7801839D01*
X7517855Y7772266D01*
X7517109Y7768513D01*
X7515644Y7764978D01*
X7509400Y7733583D01*
Y7729758D01*
X7508654Y7726005D01*
Y7693995D01*
X7509400Y7690242D01*
Y7686417D01*
X7515645Y7655022D01*
X7517108Y7651488D01*
X7517855Y7647734D01*
X7530105Y7618161D01*
X7532231Y7614980D01*
X7533695Y7611446D01*
X7551478Y7584830D01*
X7554184Y7582125D01*
X7556309Y7578944D01*
X7578944Y7556309D01*
X7582125Y7554184D01*
X7584830Y7551478D01*
X7611446Y7533695D01*
X7614980Y7532231D01*
X7618161Y7530105D01*
X7647734Y7517855D01*
X7651487Y7517109D01*
X7655022Y7515644D01*
X7686417Y7509400D01*
X7690242D01*
X7693995Y7508654D01*
X7726005D01*
X7729758Y7509400D01*
X7733583D01*
X7764978Y7515645D01*
X7768512Y7517108D01*
X7772266Y7517855D01*
X7801839Y7530105D01*
X7805020Y7532231D01*
X7808554Y7533695D01*
X7835169Y7551478D01*
X7837875Y7554184D01*
X7841056Y7556309D01*
X7863691Y7578944D01*
X7865816Y7582125D01*
X7868522Y7584830D01*
X7886305Y7611446D01*
X7887769Y7614980D01*
X7889895Y7618161D01*
X7902145Y7647734D01*
X7902891Y7651487D01*
X7904355Y7655022D01*
X7910600Y7686416D01*
Y7690242D01*
X7911347Y7693995D01*
Y7726005D01*
X7910600Y7729758D01*
Y7733583D01*
X7904355Y7764978D01*
X7902891Y7768513D01*
X7902145Y7772266D01*
X7889895Y7801839D01*
X7887769Y7805020D01*
X7886305Y7808554D01*
X7868522Y7835169D01*
X7865816Y7837875D01*
X7863691Y7841056D01*
X7841056Y7863691D01*
X7837875Y7865816D01*
X7835169Y7868522D01*
X7808554Y7886305D01*
X7805020Y7887769D01*
X7801839Y7889895D01*
X7772266Y7902145D01*
X7768513Y7902891D01*
X7764978Y7904355D01*
X7733583Y7910600D01*
X7729758D01*
X7726005Y7911347D01*
D02*
G37*
G36*
X360005D02*
X327995D01*
X324242Y7910600D01*
X320416D01*
X289022Y7904355D01*
X285487Y7902891D01*
X281734Y7902145D01*
X252161Y7889895D01*
X248980Y7887769D01*
X245446Y7886305D01*
X218830Y7868522D01*
X216125Y7865816D01*
X212944Y7863691D01*
X190309Y7841056D01*
X188184Y7837875D01*
X185478Y7835169D01*
X167695Y7808554D01*
X166231Y7805020D01*
X164105Y7801839D01*
X151855Y7772266D01*
X151109Y7768513D01*
X149644Y7764978D01*
X143400Y7733583D01*
Y7729758D01*
X142654Y7726005D01*
Y7693995D01*
X143400Y7690242D01*
Y7686417D01*
X149645Y7655022D01*
X151108Y7651488D01*
X151855Y7647734D01*
X164105Y7618161D01*
X166231Y7614980D01*
X167695Y7611446D01*
X185478Y7584830D01*
X188184Y7582125D01*
X190309Y7578944D01*
X212944Y7556309D01*
X216125Y7554184D01*
X218830Y7551478D01*
X245446Y7533695D01*
X248980Y7532231D01*
X252161Y7530105D01*
X281734Y7517855D01*
X285487Y7517109D01*
X289022Y7515644D01*
X320417Y7509400D01*
X324242D01*
X327995Y7508654D01*
X360005D01*
X363758Y7509400D01*
X367583D01*
X398978Y7515645D01*
X402512Y7517108D01*
X406266Y7517855D01*
X435839Y7530105D01*
X439020Y7532231D01*
X442554Y7533695D01*
X469169Y7551478D01*
X471875Y7554184D01*
X475056Y7556309D01*
X497691Y7578944D01*
X499816Y7582125D01*
X502522Y7584830D01*
X520305Y7611446D01*
X521769Y7614980D01*
X523895Y7618161D01*
X536145Y7647734D01*
X536891Y7651487D01*
X538355Y7655022D01*
X544600Y7686416D01*
Y7690242D01*
X545347Y7693995D01*
Y7726005D01*
X544600Y7729758D01*
Y7733583D01*
X538355Y7764978D01*
X536891Y7768513D01*
X536145Y7772266D01*
X523895Y7801839D01*
X521769Y7805020D01*
X520305Y7808554D01*
X502522Y7835169D01*
X499816Y7837875D01*
X497691Y7841056D01*
X475056Y7863691D01*
X471875Y7865816D01*
X469169Y7868522D01*
X442554Y7886305D01*
X439020Y7887769D01*
X435839Y7889895D01*
X406266Y7902145D01*
X402513Y7902891D01*
X398978Y7904355D01*
X367583Y7910600D01*
X363758D01*
X360005Y7911347D01*
D02*
G37*
G36*
X3741176Y7749750D02*
X3430876D01*
Y7439450D01*
X3741176D01*
Y7749750D01*
D02*
G37*
G36*
X3131307D02*
X3100745D01*
X3070770Y7743788D01*
X3042535Y7732092D01*
X3017123Y7715113D01*
X2995513Y7693503D01*
X2978534Y7668091D01*
X2966838Y7639856D01*
X2960876Y7609881D01*
Y7579319D01*
X2966838Y7549344D01*
X2978534Y7521109D01*
X2995513Y7495697D01*
X3017123Y7474087D01*
X3042535Y7457108D01*
X3070770Y7445412D01*
X3100745Y7439450D01*
X3131307D01*
X3161281Y7445412D01*
X3189517Y7457108D01*
X3214928Y7474087D01*
X3236539Y7495697D01*
X3253518Y7521109D01*
X3265214Y7549344D01*
X3271176Y7579319D01*
Y7609881D01*
X3265214Y7639856D01*
X3253518Y7668091D01*
X3236539Y7693503D01*
X3214928Y7715113D01*
X3189517Y7732092D01*
X3161281Y7743788D01*
X3131307Y7749750D01*
D02*
G37*
G36*
X2661307D02*
X2630745D01*
X2600770Y7743788D01*
X2572535Y7732092D01*
X2547123Y7715113D01*
X2525513Y7693503D01*
X2508534Y7668091D01*
X2496838Y7639856D01*
X2490876Y7609881D01*
Y7579319D01*
X2496838Y7549344D01*
X2508534Y7521109D01*
X2525513Y7495697D01*
X2547123Y7474087D01*
X2572535Y7457108D01*
X2600770Y7445412D01*
X2630745Y7439450D01*
X2661307D01*
X2691282Y7445412D01*
X2719517Y7457108D01*
X2744928Y7474087D01*
X2766539Y7495697D01*
X2783518Y7521109D01*
X2795214Y7549344D01*
X2801176Y7579319D01*
Y7609881D01*
X2795214Y7639856D01*
X2783518Y7668091D01*
X2766539Y7693503D01*
X2744928Y7715113D01*
X2719517Y7732092D01*
X2691282Y7743788D01*
X2661307Y7749750D01*
D02*
G37*
G36*
X6272224Y7469418D02*
X6246841D01*
X6222324Y7462848D01*
X6200342Y7450157D01*
X6182394Y7432209D01*
X6169702Y7410227D01*
X6166107Y7396808D01*
X6152958D01*
X6149363Y7410227D01*
X6136671Y7432209D01*
X6118723Y7450157D01*
X6096741Y7462848D01*
X6072224Y7469418D01*
X6046841D01*
X6022323Y7462848D01*
X6000342Y7450157D01*
X5982393Y7432209D01*
X5969702Y7410227D01*
X5963133Y7385709D01*
Y7360327D01*
X5969702Y7335809D01*
X5982393Y7313827D01*
X6000342Y7295879D01*
X6022323Y7283188D01*
X6046841Y7276618D01*
X6072224D01*
X6096741Y7283188D01*
X6118723Y7295879D01*
X6136671Y7313827D01*
X6149363Y7335809D01*
X6152958Y7349228D01*
X6166107D01*
X6169702Y7335809D01*
X6182394Y7313827D01*
X6200342Y7295879D01*
X6222324Y7283188D01*
X6246841Y7276618D01*
X6272224D01*
X6296742Y7283188D01*
X6318723Y7295879D01*
X6336672Y7313827D01*
X6349363Y7335809D01*
X6355932Y7360327D01*
Y7385709D01*
X6349363Y7410227D01*
X6336672Y7432209D01*
X6318723Y7450157D01*
X6296742Y7462848D01*
X6272224Y7469418D01*
D02*
G37*
G36*
X6522233Y7469416D02*
Y7385718D01*
X6605930D01*
X6599363Y7410227D01*
X6586672Y7432209D01*
X6568723Y7450157D01*
X6546742Y7462848D01*
X6522233Y7469416D01*
D02*
G37*
G36*
X6496833D02*
X6472324Y7462848D01*
X6450342Y7450157D01*
X6432394Y7432209D01*
X6419702Y7410227D01*
X6413135Y7385718D01*
X6496833D01*
Y7469416D01*
D02*
G37*
G36*
X1755400Y7367462D02*
Y7284800D01*
X1838062D01*
X1831599Y7308923D01*
X1819039Y7330677D01*
X1801277Y7348439D01*
X1779523Y7360998D01*
X1755400Y7367462D01*
D02*
G37*
G36*
X1730000D02*
X1705877Y7360998D01*
X1684123Y7348439D01*
X1666361Y7330677D01*
X1653802Y7308923D01*
X1647338Y7284800D01*
X1730000D01*
Y7367462D01*
D02*
G37*
G36*
X6605930Y7360318D02*
X6522233D01*
Y7276620D01*
X6546742Y7283188D01*
X6568723Y7295879D01*
X6586672Y7313827D01*
X6599363Y7335809D01*
X6605930Y7360318D01*
D02*
G37*
G36*
X6496833D02*
X6413135D01*
X6419702Y7335809D01*
X6432394Y7313827D01*
X6450342Y7295879D01*
X6472324Y7283188D01*
X6496833Y7276620D01*
Y7360318D01*
D02*
G37*
G36*
X5845032Y7470611D02*
X5774033D01*
X5750271Y7465884D01*
X5730126Y7452424D01*
X5716666Y7432280D01*
X5711940Y7408518D01*
Y7337518D01*
X5716666Y7313756D01*
X5730126Y7293612D01*
X5750271Y7280152D01*
X5774033Y7275425D01*
X5845032D01*
X5868794Y7280152D01*
X5888939Y7293612D01*
X5902399Y7313756D01*
X5907125Y7337518D01*
Y7408518D01*
X5902399Y7432280D01*
X5888939Y7452424D01*
X5868794Y7465884D01*
X5845032Y7470611D01*
D02*
G37*
G36*
X1838062Y7259400D02*
X1755400D01*
Y7176738D01*
X1779523Y7183202D01*
X1801277Y7195761D01*
X1819039Y7213523D01*
X1831599Y7235277D01*
X1838062Y7259400D01*
D02*
G37*
G36*
X1730000D02*
X1647338D01*
X1653802Y7235277D01*
X1666361Y7213523D01*
X1684123Y7195761D01*
X1705877Y7183202D01*
X1730000Y7176738D01*
Y7259400D01*
D02*
G37*
G36*
X4578500Y7367500D02*
X4387700D01*
Y7176700D01*
X4578500D01*
Y7367500D01*
D02*
G37*
G36*
X4245660D02*
X4220540D01*
X4196277Y7360998D01*
X4174523Y7348439D01*
X4156761Y7330677D01*
X4144202Y7308923D01*
X4137700Y7284660D01*
Y7259540D01*
X4144202Y7235277D01*
X4156761Y7213523D01*
X4174523Y7195761D01*
X4196277Y7183202D01*
X4220540Y7176700D01*
X4245660D01*
X4269923Y7183202D01*
X4291677Y7195761D01*
X4309439Y7213523D01*
X4321998Y7235277D01*
X4328500Y7259540D01*
Y7284660D01*
X4321998Y7308923D01*
X4309439Y7330677D01*
X4291677Y7348439D01*
X4269923Y7360998D01*
X4245660Y7367500D01*
D02*
G37*
G36*
X2088100D02*
X1897300D01*
Y7176700D01*
X2088100D01*
Y7367500D01*
D02*
G37*
G36*
X6836024Y7299918D02*
X6829232D01*
Y7114718D01*
X7014433D01*
Y7121510D01*
X7006827Y7159743D01*
X6991909Y7195759D01*
X6970251Y7228172D01*
X6942686Y7255737D01*
X6910273Y7277395D01*
X6874258Y7292313D01*
X6836024Y7299918D01*
D02*
G37*
G36*
X6803832D02*
X6797041D01*
X6758807Y7292313D01*
X6722792Y7277395D01*
X6690379Y7255737D01*
X6662813Y7228172D01*
X6641156Y7195759D01*
X6626238Y7159743D01*
X6618632Y7121510D01*
Y7114718D01*
X6803832D01*
Y7299918D01*
D02*
G37*
G36*
X5522024D02*
X5515233D01*
Y7114718D01*
X5700433D01*
Y7121510D01*
X5692827Y7159743D01*
X5677909Y7195759D01*
X5656252Y7228172D01*
X5628686Y7255737D01*
X5596273Y7277395D01*
X5560258Y7292313D01*
X5522024Y7299918D01*
D02*
G37*
G36*
X5489833D02*
X5483041D01*
X5444807Y7292313D01*
X5408792Y7277395D01*
X5376379Y7255737D01*
X5348814Y7228172D01*
X5327156Y7195759D01*
X5312238Y7159743D01*
X5304633Y7121510D01*
Y7114718D01*
X5489833D01*
Y7299918D01*
D02*
G37*
G36*
X7014433Y7089318D02*
X6829232D01*
Y6904118D01*
X6836024D01*
X6874258Y6911723D01*
X6910273Y6926641D01*
X6942686Y6948299D01*
X6970251Y6975864D01*
X6991909Y7008277D01*
X7006827Y7044293D01*
X7014433Y7082527D01*
Y7089318D01*
D02*
G37*
G36*
X6803832D02*
X6618632D01*
Y7082527D01*
X6626238Y7044293D01*
X6641156Y7008277D01*
X6662813Y6975864D01*
X6690379Y6948299D01*
X6722792Y6926641D01*
X6758807Y6911723D01*
X6797041Y6904118D01*
X6803832D01*
Y7089318D01*
D02*
G37*
G36*
X5700433D02*
X5515233D01*
Y6904118D01*
X5522024D01*
X5560258Y6911723D01*
X5596273Y6926641D01*
X5628686Y6948299D01*
X5656252Y6975864D01*
X5677909Y7008277D01*
X5692827Y7044293D01*
X5700433Y7082527D01*
Y7089318D01*
D02*
G37*
G36*
X5489833D02*
X5304633D01*
Y7082527D01*
X5312238Y7044293D01*
X5327156Y7008277D01*
X5348814Y6975864D01*
X5376379Y6948299D01*
X5408792Y6926641D01*
X5444807Y6911723D01*
X5483041Y6904118D01*
X5489833D01*
Y7089318D01*
D02*
G37*
G36*
X877300Y6753500D02*
X686500D01*
Y6562700D01*
X877300D01*
Y6753500D01*
D02*
G37*
G36*
X794459Y6503500D02*
X769340D01*
X745077Y6496998D01*
X723323Y6484439D01*
X705561Y6466677D01*
X693001Y6444923D01*
X686500Y6420659D01*
Y6395540D01*
X693001Y6371277D01*
X705561Y6349523D01*
X723323Y6331761D01*
X745077Y6319201D01*
X769340Y6312700D01*
X794459D01*
X818723Y6319201D01*
X840477Y6331761D01*
X858239Y6349523D01*
X870798Y6371277D01*
X877300Y6395540D01*
Y6420659D01*
X870798Y6444923D01*
X858239Y6466677D01*
X840477Y6484439D01*
X818723Y6496998D01*
X794459Y6503500D01*
D02*
G37*
G36*
Y6253500D02*
X769340D01*
X745077Y6246998D01*
X723323Y6234439D01*
X705561Y6216677D01*
X693001Y6194923D01*
X686500Y6170659D01*
Y6145540D01*
X693001Y6121277D01*
X705561Y6099523D01*
X723323Y6081761D01*
X745077Y6069201D01*
X769340Y6062700D01*
X794459D01*
X818723Y6069201D01*
X840477Y6081761D01*
X858239Y6099523D01*
X870798Y6121277D01*
X877300Y6145540D01*
Y6170659D01*
X870798Y6194923D01*
X858239Y6216677D01*
X840477Y6234439D01*
X818723Y6246998D01*
X794459Y6253500D01*
D02*
G37*
G36*
X612350Y4337814D02*
X302050D01*
Y4027514D01*
X612350D01*
Y4337814D01*
D02*
G37*
G36*
X472481Y3397814D02*
X441919D01*
X411944Y3391852D01*
X383709Y3380157D01*
X358297Y3363177D01*
X336687Y3341567D01*
X319708Y3316155D01*
X308012Y3287920D01*
X302050Y3257945D01*
Y3227383D01*
X308012Y3197409D01*
X319708Y3169173D01*
X336687Y3143762D01*
X358297Y3122151D01*
X383709Y3105172D01*
X411944Y3093476D01*
X441919Y3087514D01*
X472481D01*
X502456Y3093476D01*
X530691Y3105172D01*
X556103Y3122151D01*
X577713Y3143762D01*
X594692Y3169173D01*
X606388Y3197409D01*
X612350Y3227383D01*
Y3257945D01*
X606388Y3287920D01*
X594692Y3316155D01*
X577713Y3341567D01*
X556103Y3363177D01*
X530691Y3380157D01*
X502456Y3391852D01*
X472481Y3397814D01*
D02*
G37*
G36*
X698300Y2646693D02*
X681000D01*
Y2578300D01*
X777721D01*
X776630Y2586588D01*
X768529Y2606147D01*
X755642Y2622942D01*
X738847Y2635829D01*
X719288Y2643930D01*
X698300Y2646693D01*
D02*
G37*
G36*
X318300D02*
X301000D01*
Y2578300D01*
X397721D01*
X396630Y2586588D01*
X388529Y2606147D01*
X375642Y2622942D01*
X358847Y2635829D01*
X339288Y2643930D01*
X318300Y2646693D01*
D02*
G37*
G36*
X655600D02*
X638300D01*
X617311Y2643930D01*
X597753Y2635829D01*
X580958Y2622942D01*
X568071Y2606147D01*
X559970Y2586588D01*
X558878Y2578300D01*
X655600D01*
Y2646693D01*
D02*
G37*
G36*
X275600D02*
X258300D01*
X237311Y2643930D01*
X217753Y2635829D01*
X200958Y2622942D01*
X188071Y2606147D01*
X179970Y2586588D01*
X178878Y2578300D01*
X275600D01*
Y2646693D01*
D02*
G37*
G36*
X777721Y2552900D02*
X681000D01*
Y2484506D01*
X698300D01*
X719288Y2487270D01*
X738847Y2495371D01*
X755642Y2508258D01*
X768529Y2525053D01*
X776630Y2544611D01*
X777721Y2552900D01*
D02*
G37*
G36*
X655600D02*
X558878D01*
X559970Y2544611D01*
X568071Y2525053D01*
X580958Y2508258D01*
X597753Y2495371D01*
X617311Y2487270D01*
X638300Y2484506D01*
X655600D01*
Y2552900D01*
D02*
G37*
G36*
X397721D02*
X301000D01*
Y2484506D01*
X318300D01*
X339288Y2487270D01*
X358847Y2495371D01*
X375642Y2508258D01*
X388529Y2525053D01*
X396630Y2544611D01*
X397721Y2552900D01*
D02*
G37*
G36*
X275600D02*
X178878D01*
X179970Y2544611D01*
X188071Y2525053D01*
X200958Y2508258D01*
X217753Y2495371D01*
X237311Y2487270D01*
X258300Y2484506D01*
X275600D01*
Y2552900D01*
D02*
G37*
G36*
X1816100Y4254998D02*
X1320800Y4254997D01*
X1310889Y4253026D01*
X1302488Y4247412D01*
X1296874Y4239010D01*
X1294902Y4229099D01*
Y4011227D01*
X1195773Y3912098D01*
X292100D01*
X282189Y3910126D01*
X273788Y3904512D01*
X210288Y3841012D01*
X204674Y3832611D01*
X202702Y3822700D01*
Y3644900D01*
X204674Y3634989D01*
X210288Y3626588D01*
X299187Y3537688D01*
X307589Y3532074D01*
X317500Y3530102D01*
X396807D01*
X399308Y3530600D01*
X401859D01*
X404217Y3531576D01*
X406717Y3532074D01*
X408838Y3533490D01*
X411195Y3534467D01*
X412999Y3536271D01*
X415119Y3537688D01*
X416536Y3539809D01*
X418340Y3541612D01*
X419316Y3543968D01*
X420733Y3546089D01*
X421231Y3548591D01*
X422207Y3550947D01*
X424214Y3561036D01*
X441919Y3557514D01*
X472481D01*
X490186Y3561036D01*
X492193Y3550947D01*
X493169Y3548591D01*
X493667Y3546089D01*
X495083Y3543969D01*
X496060Y3541612D01*
X497864Y3539808D01*
X499280Y3537687D01*
X501401Y3536270D01*
X503205Y3534467D01*
X505561Y3533491D01*
X507682Y3532073D01*
X510184Y3531576D01*
X512541Y3530600D01*
X515091D01*
X517593Y3530102D01*
X979873Y3530102D01*
X1307602Y3202372D01*
Y2959103D01*
X1307602Y2336800D01*
X1309574Y2326889D01*
X1315188Y2318488D01*
X1454888Y2178788D01*
X1463289Y2173174D01*
X1473200Y2171202D01*
X6007100D01*
X6017011Y2173174D01*
X6025412Y2178788D01*
X6088912Y2242288D01*
X6094526Y2250689D01*
X6096498Y2260600D01*
Y4165600D01*
X6094526Y4175511D01*
X6088912Y4183912D01*
X6050812Y4222012D01*
X6042411Y4227626D01*
X6032500Y4229598D01*
X5511800Y4229597D01*
X5501889Y4227626D01*
X5493488Y4222012D01*
X5487874Y4213610D01*
X5485902Y4203700D01*
Y3033327D01*
X5437573Y2984998D01*
X4049327D01*
X4000998Y3033327D01*
Y4178300D01*
X3999026Y4188211D01*
X3993412Y4196612D01*
X3955312Y4234712D01*
X3946911Y4240326D01*
X3937000Y4242298D01*
X3416300D01*
X3406389Y4240326D01*
X3397988Y4234712D01*
X3392374Y4226311D01*
X3390402Y4216400D01*
Y3020627D01*
X3342073Y2972298D01*
X1941127D01*
X1892798Y3020627D01*
Y4178300D01*
X1890826Y4188211D01*
X1885212Y4196612D01*
X1834412Y4247412D01*
X1826011Y4253026D01*
X1816100Y4254998D01*
D02*
G37*
G36*
X698300Y1782694D02*
X681000D01*
Y1714300D01*
X777721D01*
X776630Y1722589D01*
X768529Y1742147D01*
X755642Y1758942D01*
X738847Y1771829D01*
X719288Y1779930D01*
X698300Y1782694D01*
D02*
G37*
G36*
X318300D02*
X301000D01*
Y1714300D01*
X397721D01*
X396630Y1722589D01*
X388529Y1742147D01*
X375642Y1758942D01*
X358847Y1771829D01*
X339288Y1779930D01*
X318300Y1782694D01*
D02*
G37*
G36*
X655600D02*
X638300D01*
X617311Y1779930D01*
X597753Y1771829D01*
X580958Y1758942D01*
X568071Y1742147D01*
X559970Y1722589D01*
X558878Y1714300D01*
X655600D01*
Y1782694D01*
D02*
G37*
G36*
X275600D02*
X258300D01*
X237311Y1779930D01*
X217753Y1771829D01*
X200958Y1758942D01*
X188071Y1742147D01*
X179970Y1722589D01*
X178878Y1714300D01*
X275600D01*
Y1782694D01*
D02*
G37*
G36*
X777721Y1688900D02*
X681000D01*
Y1620507D01*
X698300D01*
X719288Y1623270D01*
X738847Y1631371D01*
X755642Y1644258D01*
X768529Y1661053D01*
X776630Y1680612D01*
X777721Y1688900D01*
D02*
G37*
G36*
X655600D02*
X558878D01*
X559970Y1680612D01*
X568071Y1661053D01*
X580958Y1644258D01*
X597753Y1631371D01*
X617311Y1623270D01*
X638300Y1620507D01*
X655600D01*
Y1688900D01*
D02*
G37*
G36*
X397721D02*
X301000D01*
Y1620507D01*
X318300D01*
X339288Y1623270D01*
X358847Y1631371D01*
X375642Y1644258D01*
X388529Y1661053D01*
X396630Y1680612D01*
X397721Y1688900D01*
D02*
G37*
G36*
X275600D02*
X178878D01*
X179970Y1680612D01*
X188071Y1661053D01*
X200958Y1644258D01*
X217753Y1631371D01*
X237311Y1623270D01*
X258300Y1620507D01*
X275600D01*
Y1688900D01*
D02*
G37*
G36*
X2005400Y877262D02*
Y794600D01*
X2088062D01*
X2081599Y818723D01*
X2069039Y840477D01*
X2051277Y858239D01*
X2029523Y870798D01*
X2005400Y877262D01*
D02*
G37*
G36*
X1980000D02*
X1955877Y870798D01*
X1934123Y858239D01*
X1916361Y840477D01*
X1903802Y818723D01*
X1897338Y794600D01*
X1980000D01*
Y877262D01*
D02*
G37*
G36*
X2088062Y769200D02*
X2005400D01*
Y686538D01*
X2029523Y693001D01*
X2051277Y705561D01*
X2069039Y723323D01*
X2081599Y745077D01*
X2088062Y769200D01*
D02*
G37*
G36*
X1980000D02*
X1897338D01*
X1903802Y745077D01*
X1916361Y723323D01*
X1934123Y705561D01*
X1955877Y693001D01*
X1980000Y686538D01*
Y769200D01*
D02*
G37*
G36*
X6267899Y877300D02*
X6077099D01*
Y686500D01*
X6267899D01*
Y877300D01*
D02*
G37*
G36*
X5935059D02*
X5909940D01*
X5885676Y870798D01*
X5863922Y858239D01*
X5846160Y840477D01*
X5833601Y818723D01*
X5827099Y794459D01*
Y769340D01*
X5833601Y745077D01*
X5846160Y723323D01*
X5863922Y705561D01*
X5885676Y693001D01*
X5909940Y686500D01*
X5935059D01*
X5959322Y693001D01*
X5981076Y705561D01*
X5998838Y723323D01*
X6011398Y745077D01*
X6017899Y769340D01*
Y794459D01*
X6011398Y818723D01*
X5998838Y840477D01*
X5981076Y858239D01*
X5959322Y870798D01*
X5935059Y877300D01*
D02*
G37*
G36*
X4767899D02*
X4577099D01*
Y686500D01*
X4767899D01*
Y877300D01*
D02*
G37*
G36*
X4435059D02*
X4409940D01*
X4385676Y870798D01*
X4363922Y858239D01*
X4346160Y840477D01*
X4333601Y818723D01*
X4327099Y794459D01*
Y769340D01*
X4333601Y745077D01*
X4346160Y723323D01*
X4363922Y705561D01*
X4385676Y693001D01*
X4409940Y686500D01*
X4435059D01*
X4459322Y693001D01*
X4481076Y705561D01*
X4498838Y723323D01*
X4511398Y745077D01*
X4517899Y769340D01*
Y794459D01*
X4511398Y818723D01*
X4498838Y840477D01*
X4481076Y858239D01*
X4459322Y870798D01*
X4435059Y877300D01*
D02*
G37*
G36*
X3267899D02*
X3077099D01*
Y686500D01*
X3267899D01*
Y877300D01*
D02*
G37*
G36*
X2935059D02*
X2909940D01*
X2885676Y870798D01*
X2863922Y858239D01*
X2846160Y840477D01*
X2833601Y818723D01*
X2827099Y794459D01*
Y769340D01*
X2833601Y745077D01*
X2846160Y723323D01*
X2863922Y705561D01*
X2885676Y693001D01*
X2909940Y686500D01*
X2935059D01*
X2959322Y693001D01*
X2981076Y705561D01*
X2998838Y723323D01*
X3011398Y745077D01*
X3017899Y769340D01*
Y794459D01*
X3011398Y818723D01*
X2998838Y840477D01*
X2981076Y858239D01*
X2959322Y870798D01*
X2935059Y877300D01*
D02*
G37*
G36*
X1838100D02*
X1647300D01*
Y686500D01*
X1838100D01*
Y877300D01*
D02*
G37*
G36*
X7726005Y545347D02*
X7693995D01*
X7690242Y544600D01*
X7686416D01*
X7655022Y538355D01*
X7651487Y536891D01*
X7647734Y536145D01*
X7618161Y523895D01*
X7614980Y521769D01*
X7611446Y520305D01*
X7584830Y502522D01*
X7582125Y499816D01*
X7578944Y497691D01*
X7556309Y475056D01*
X7554184Y471875D01*
X7551478Y469169D01*
X7533695Y442554D01*
X7532231Y439020D01*
X7530105Y435839D01*
X7517855Y406266D01*
X7517109Y402513D01*
X7515644Y398978D01*
X7509400Y367583D01*
Y363758D01*
X7508654Y360005D01*
Y327995D01*
X7509400Y324242D01*
Y320417D01*
X7515645Y289022D01*
X7517108Y285488D01*
X7517855Y281734D01*
X7530105Y252161D01*
X7532231Y248980D01*
X7533695Y245446D01*
X7551478Y218830D01*
X7554184Y216125D01*
X7556309Y212944D01*
X7578944Y190309D01*
X7582125Y188184D01*
X7584830Y185478D01*
X7611446Y167695D01*
X7614980Y166231D01*
X7618161Y164105D01*
X7647734Y151855D01*
X7651487Y151109D01*
X7655022Y149644D01*
X7686417Y143400D01*
X7690242D01*
X7693995Y142654D01*
X7726005D01*
X7729758Y143400D01*
X7733583D01*
X7764978Y149645D01*
X7768512Y151108D01*
X7772266Y151855D01*
X7801839Y164105D01*
X7805020Y166231D01*
X7808554Y167695D01*
X7835169Y185478D01*
X7837875Y188184D01*
X7841056Y190309D01*
X7863691Y212944D01*
X7865816Y216125D01*
X7868522Y218830D01*
X7886305Y245446D01*
X7887769Y248980D01*
X7889895Y252161D01*
X7902145Y281734D01*
X7902891Y285487D01*
X7904355Y289022D01*
X7910600Y320416D01*
Y324242D01*
X7911347Y327995D01*
Y360005D01*
X7910600Y363758D01*
Y367583D01*
X7904355Y398978D01*
X7902891Y402513D01*
X7902145Y406266D01*
X7889895Y435839D01*
X7887769Y439020D01*
X7886305Y442554D01*
X7868522Y469169D01*
X7865816Y471875D01*
X7863691Y475056D01*
X7841056Y497691D01*
X7837875Y499816D01*
X7835169Y502522D01*
X7808554Y520305D01*
X7805020Y521769D01*
X7801839Y523895D01*
X7772266Y536145D01*
X7768513Y536891D01*
X7764978Y538355D01*
X7733583Y544600D01*
X7729758D01*
X7726005Y545347D01*
D02*
G37*
G36*
X360005D02*
X327995D01*
X324242Y544600D01*
X320416D01*
X289022Y538355D01*
X285487Y536891D01*
X281734Y536145D01*
X252161Y523895D01*
X248980Y521769D01*
X245446Y520305D01*
X218830Y502522D01*
X216125Y499816D01*
X212944Y497691D01*
X190309Y475056D01*
X188184Y471875D01*
X185478Y469169D01*
X167695Y442554D01*
X166231Y439020D01*
X164105Y435839D01*
X151855Y406266D01*
X151109Y402513D01*
X149644Y398978D01*
X143400Y367583D01*
Y363758D01*
X142654Y360005D01*
Y327995D01*
X143400Y324242D01*
Y320417D01*
X149645Y289022D01*
X151108Y285488D01*
X151855Y281734D01*
X164105Y252161D01*
X166231Y248980D01*
X167695Y245446D01*
X185478Y218830D01*
X188184Y216125D01*
X190309Y212944D01*
X212944Y190309D01*
X216125Y188184D01*
X218830Y185478D01*
X245446Y167695D01*
X248980Y166231D01*
X252161Y164105D01*
X281734Y151855D01*
X285487Y151109D01*
X289022Y149644D01*
X320417Y143400D01*
X324242D01*
X327995Y142654D01*
X360005D01*
X363758Y143400D01*
X367583D01*
X398978Y149645D01*
X402512Y151108D01*
X406266Y151855D01*
X435839Y164105D01*
X439020Y166231D01*
X442554Y167695D01*
X469169Y185478D01*
X471875Y188184D01*
X475056Y190309D01*
X497691Y212944D01*
X499816Y216125D01*
X502522Y218830D01*
X520305Y245446D01*
X521769Y248980D01*
X523895Y252161D01*
X536145Y281734D01*
X536891Y285487D01*
X538355Y289022D01*
X544600Y320416D01*
Y324242D01*
X545347Y327995D01*
Y360005D01*
X544600Y363758D01*
Y367583D01*
X538355Y398978D01*
X536891Y402513D01*
X536145Y406266D01*
X523895Y435839D01*
X521769Y439020D01*
X520305Y442554D01*
X502522Y469169D01*
X499816Y471875D01*
X497691Y475056D01*
X475056Y497691D01*
X471875Y499816D01*
X469169Y502522D01*
X442554Y520305D01*
X439020Y521769D01*
X435839Y523895D01*
X406266Y536145D01*
X402513Y536891D01*
X398978Y538355D01*
X367583Y544600D01*
X363758D01*
X360005Y545347D01*
D02*
G37*
%LPD*%
G36*
X1866900Y4178300D02*
Y3009900D01*
X1930400Y2946400D01*
X3352800D01*
X3416300Y3009900D01*
Y4216400D01*
X3937000D01*
X3975100Y4178300D01*
Y3022600D01*
X4038600Y2959100D01*
X5448300D01*
X5511800Y3022600D01*
Y4203700D01*
X6032500Y4203700D01*
X6070600Y4165600D01*
Y2260600D01*
X6007100Y2197100D01*
X1473200D01*
X1333500Y2336800D01*
X1333499Y2959103D01*
Y3213099D01*
X990600Y3555999D01*
X517593Y3556000D01*
X515067Y3568700D01*
X530691Y3575172D01*
X556103Y3592151D01*
X577713Y3613762D01*
X594692Y3639173D01*
X606388Y3667408D01*
X612350Y3697383D01*
Y3699964D01*
X457200D01*
X302050D01*
Y3697383D01*
X308012Y3667408D01*
X319708Y3639173D01*
X336687Y3613762D01*
X358297Y3592151D01*
X383709Y3575172D01*
X399333Y3568700D01*
X396807Y3556000D01*
X317500D01*
X228600Y3644900D01*
Y3822700D01*
X292100Y3886200D01*
X1206500D01*
X1320800Y4000500D01*
Y4229099D01*
X1816100Y4229100D01*
X1866900Y4178300D01*
D02*
G37*
%LPC*%
G36*
X472481Y3867814D02*
X469900D01*
Y3725364D01*
X612350D01*
Y3727945D01*
X606388Y3757920D01*
X594692Y3786155D01*
X577713Y3811567D01*
X556103Y3833177D01*
X530691Y3850156D01*
X502456Y3861852D01*
X472481Y3867814D01*
D02*
G37*
G36*
X444500D02*
X441919D01*
X411944Y3861852D01*
X383709Y3850156D01*
X358297Y3833177D01*
X336687Y3811567D01*
X319708Y3786155D01*
X308012Y3757920D01*
X302050Y3727945D01*
Y3725364D01*
X444500D01*
Y3867814D01*
D02*
G37*
%LPD*%
D44*
X6259533Y7373018D02*
D03*
X6059532D02*
D03*
X6509533D02*
D03*
D45*
X5809532D02*
D03*
D46*
X6816532Y7102018D02*
D03*
X5502533D02*
D03*
D47*
X2922499Y781900D02*
D03*
X5922499D02*
D03*
X4422499D02*
D03*
X1992700D02*
D03*
X4233100Y7272100D02*
D03*
X1742700D02*
D03*
X781900Y6408100D02*
D03*
Y6158100D02*
D03*
D48*
X3172499Y781900D02*
D03*
X6172499D02*
D03*
X4672499D02*
D03*
X1742700D02*
D03*
X4483100Y7272100D02*
D03*
X1992700D02*
D03*
D49*
X457200Y3242664D02*
D03*
Y3712664D02*
D03*
X2646026Y7594600D02*
D03*
X3116026D02*
D03*
D50*
X457200Y4182664D02*
D03*
D51*
X668300Y2565600D02*
D03*
Y1701600D02*
D03*
X288300Y2565600D02*
D03*
Y1701600D02*
D03*
D52*
X3586026Y7594600D02*
D03*
D53*
X781900Y6658100D02*
D03*
D54*
X7561600Y7396500D02*
D03*
X7710000Y6960000D02*
D03*
X7460000Y6460000D02*
D03*
X7710000Y5960000D02*
D03*
Y4960000D02*
D03*
X7460000Y4460000D02*
D03*
X7710000Y3960000D02*
D03*
X7510800Y3460000D02*
D03*
X7710000Y2960000D02*
D03*
X7460000Y2460000D02*
D03*
X7710000Y960000D02*
D03*
X7460000Y460000D02*
D03*
X6960000Y7460000D02*
D03*
X7210000Y6960000D02*
D03*
X6960000Y6460000D02*
D03*
Y4409200D02*
D03*
X7210000Y2960000D02*
D03*
X6960000Y2460000D02*
D03*
Y1460000D02*
D03*
X7210000Y960000D02*
D03*
X6960000Y460000D02*
D03*
X6460000Y6460000D02*
D03*
Y5510800D02*
D03*
X6671900Y2883800D02*
D03*
X6421900Y2460000D02*
D03*
X6710000Y1960000D02*
D03*
X6837000Y960000D02*
D03*
X6210000Y6960000D02*
D03*
X5960000Y6460000D02*
D03*
Y5460000D02*
D03*
X6210000Y2960000D02*
D03*
X6362400Y2023500D02*
D03*
X5960000Y460000D02*
D03*
X5773500Y6960000D02*
D03*
X5460000Y6460000D02*
D03*
Y5460000D02*
D03*
X5595700Y5099700D02*
D03*
X5460000Y4460000D02*
D03*
X5421900Y3460000D02*
D03*
X5396500Y1460000D02*
D03*
X5210000Y6960000D02*
D03*
X4960000Y6460000D02*
D03*
X5210000Y1960000D02*
D03*
X5286200Y960000D02*
D03*
X4633800Y6960000D02*
D03*
X4460000Y6460000D02*
D03*
Y5460000D02*
D03*
X4710000Y2036200D02*
D03*
X4460000Y460000D02*
D03*
X4210000Y6960000D02*
D03*
X3960000Y6460000D02*
D03*
Y5460000D02*
D03*
X3883800Y1460000D02*
D03*
X3710000Y6960000D02*
D03*
X3460000Y6460000D02*
D03*
Y5460000D02*
D03*
X3494100Y4985400D02*
D03*
X3760800Y1960000D02*
D03*
X3798900Y960000D02*
D03*
X3210000Y4960000D02*
D03*
X2934600Y4434600D02*
D03*
X3210000Y2036200D02*
D03*
X2960000Y460000D02*
D03*
X2710000Y1960000D02*
D03*
X2460000Y1460000D02*
D03*
X1985400Y7536200D02*
D03*
X2146500Y6960000D02*
D03*
X1960000Y5460000D02*
D03*
X1985400Y3523500D02*
D03*
X2210000Y1960000D02*
D03*
X1960000Y1460000D02*
D03*
X2375100Y960000D02*
D03*
X1960000Y460000D02*
D03*
X1710000Y6960000D02*
D03*
X1460000Y6460000D02*
D03*
X1710000Y5163200D02*
D03*
Y1960000D02*
D03*
X1460000Y1460000D02*
D03*
X1710000Y960000D02*
D03*
X1460000Y460000D02*
D03*
X960000Y7510800D02*
D03*
Y6460000D02*
D03*
X1248100Y5960000D02*
D03*
Y3087000D02*
D03*
X1273500Y1960000D02*
D03*
X960000Y460000D02*
D03*
X460000Y7460000D02*
D03*
X710000Y5960000D02*
D03*
Y960000D02*
D03*
X6172200Y3995100D02*
D03*
X6299200D02*
D03*
Y3766500D02*
D03*
X6172200D02*
D03*
Y3873500D02*
D03*
X6299200D02*
D03*
X4076700Y3995100D02*
D03*
X4203700Y3873500D02*
D03*
X4076700Y3766500D02*
D03*
X4203700D02*
D03*
Y3995100D02*
D03*
X4076700Y3873500D02*
D03*
X2108200Y3886200D02*
D03*
X1981200D02*
D03*
Y3779200D02*
D03*
X2108200D02*
D03*
X7353300Y1701800D02*
D03*
X381000Y6807200D02*
D03*
X330200Y952500D02*
D03*
X266700Y1968500D02*
D03*
Y2336800D02*
D03*
X330200Y5270500D02*
D03*
X368300Y5778500D02*
D03*
X381000Y6299200D02*
D03*
X5765800Y1231900D02*
D03*
X5638800D02*
D03*
X4292600D02*
D03*
X4140200D02*
D03*
X5778500Y4140200D02*
D03*
X5613400D02*
D03*
X3683000D02*
D03*
X3517900D02*
D03*
X1422400D02*
D03*
X1587500D02*
D03*
X2108200Y4007800D02*
D03*
X1981200D02*
D03*
%TF.MD5,1d62829af4d5e71090a7a3673a6492c2*%
M02*
