%TF.GenerationSoftware,Altium Limited,Altium Designer,24.5.2 (23)*%
G04 Layer_Color=128*
%FSLAX45Y45*%
%MOMM*%
%TF.SameCoordinates,2470441B-8579-4349-B98B-18B4F8D42BC9*%
%TF.FilePolarity,Positive*%
%TF.FileFunction,Drillmap*%
%TF.Part,Single*%
G01*
G75*
%TA.AperFunction,NonConductor*%
%ADD93C,0.12700*%
D93*
X6213533Y7373018D02*
X6305532D01*
X6259533Y7327018D02*
Y7419018D01*
X6013533Y7373018D02*
X6105532D01*
X6059532Y7327018D02*
Y7419018D01*
X6463533Y7373018D02*
X6555532D01*
X6509533Y7327018D02*
Y7419018D01*
X5763533Y7373018D02*
X5855532D01*
X5809532Y7327018D02*
Y7419018D01*
X6701532Y7102018D02*
X6931532D01*
X6816532Y6987018D02*
Y7217018D01*
X5387533Y7102018D02*
X5617533D01*
X5502533Y6987018D02*
Y7217018D01*
X2877499Y781900D02*
X2967499D01*
X2922499Y736900D02*
Y826900D01*
X3127499Y781900D02*
X3217499D01*
X3172499Y736900D02*
Y826900D01*
X5877499Y781900D02*
X5967499D01*
X5922499Y736900D02*
Y826900D01*
X6127499Y781900D02*
X6217499D01*
X6172499Y736900D02*
Y826900D01*
X4377499Y781900D02*
X4467499D01*
X4422499Y736900D02*
Y826900D01*
X4627499Y781900D02*
X4717499D01*
X4672499Y736900D02*
Y826900D01*
X370700Y3242664D02*
X543700D01*
X457200Y3156164D02*
Y3329164D01*
X370700Y3712664D02*
X543700D01*
X457200Y3626164D02*
Y3799164D01*
X370700Y4182664D02*
X543700D01*
X457200Y4096164D02*
Y4269164D01*
X608300Y2565600D02*
X728300D01*
X668300Y2505600D02*
Y2625600D01*
X608300Y1701600D02*
X728300D01*
X668300Y1641600D02*
Y1761600D01*
X228300Y2565600D02*
X348300D01*
X288300Y2505600D02*
Y2625600D01*
X228300Y1701600D02*
X348300D01*
X288300Y1641600D02*
Y1761600D01*
X2559526Y7594600D02*
X2732526D01*
X2646026Y7508100D02*
Y7681100D01*
X3029526Y7594600D02*
X3202526D01*
X3116026Y7508100D02*
Y7681100D01*
X3499526Y7594600D02*
X3672526D01*
X3586026Y7508100D02*
Y7681100D01*
X1947700Y781900D02*
X2037700D01*
X1992700Y736900D02*
Y826900D01*
X1697700Y781900D02*
X1787700D01*
X1742700Y736900D02*
Y826900D01*
X4188100Y7272100D02*
X4278100D01*
X4233100Y7227100D02*
Y7317100D01*
X4438100Y7272100D02*
X4528100D01*
X4483100Y7227100D02*
Y7317100D01*
X1697700Y7272100D02*
X1787700D01*
X1742700Y7227100D02*
Y7317100D01*
X1947700Y7272100D02*
X2037700D01*
X1992700Y7227100D02*
Y7317100D01*
X736900Y6658100D02*
X826900D01*
X781900Y6613100D02*
Y6703100D01*
X736900Y6408100D02*
X826900D01*
X781900Y6363100D02*
Y6453100D01*
X736900Y6158100D02*
X826900D01*
X781900Y6113100D02*
Y6203100D01*
X7546360Y7396500D02*
X7576840D01*
X7561600Y7381260D02*
Y7411740D01*
X7694760Y6960000D02*
X7725240D01*
X7710000Y6944760D02*
Y6975240D01*
X7444760Y6460000D02*
X7475240D01*
X7460000Y6444760D02*
Y6475240D01*
X7694760Y5960000D02*
X7725240D01*
X7710000Y5944760D02*
Y5975240D01*
X7694760Y4960000D02*
X7725240D01*
X7710000Y4944760D02*
Y4975240D01*
X7444760Y4460000D02*
X7475240D01*
X7460000Y4444760D02*
Y4475240D01*
X7694760Y3960000D02*
X7725240D01*
X7710000Y3944760D02*
Y3975240D01*
X7495560Y3460000D02*
X7526040D01*
X7510800Y3444760D02*
Y3475240D01*
X7694760Y2960000D02*
X7725240D01*
X7710000Y2944760D02*
Y2975240D01*
X7444760Y2460000D02*
X7475240D01*
X7460000Y2444760D02*
Y2475240D01*
X7694760Y960000D02*
X7725240D01*
X7710000Y944760D02*
Y975240D01*
X7444760Y460000D02*
X7475240D01*
X7460000Y444760D02*
Y475240D01*
X6944760Y7460000D02*
X6975240D01*
X6960000Y7444760D02*
Y7475240D01*
X7194760Y6960000D02*
X7225240D01*
X7210000Y6944760D02*
Y6975240D01*
X6944760Y6460000D02*
X6975240D01*
X6960000Y6444760D02*
Y6475240D01*
X6944760Y4409200D02*
X6975240D01*
X6960000Y4393960D02*
Y4424440D01*
X7194760Y2960000D02*
X7225240D01*
X7210000Y2944760D02*
Y2975240D01*
X6944760Y2460000D02*
X6975240D01*
X6960000Y2444760D02*
Y2475240D01*
X6944760Y1460000D02*
X6975240D01*
X6960000Y1444760D02*
Y1475240D01*
X7194760Y960000D02*
X7225240D01*
X7210000Y944760D02*
Y975240D01*
X6944760Y460000D02*
X6975240D01*
X6960000Y444760D02*
Y475240D01*
X6444760Y6460000D02*
X6475240D01*
X6460000Y6444760D02*
Y6475240D01*
X6444760Y5510800D02*
X6475240D01*
X6460000Y5495560D02*
Y5526040D01*
X6656660Y2883800D02*
X6687140D01*
X6671900Y2868560D02*
Y2899040D01*
X6406660Y2460000D02*
X6437140D01*
X6421900Y2444760D02*
Y2475240D01*
X6694760Y1960000D02*
X6725240D01*
X6710000Y1944760D02*
Y1975240D01*
X6821760Y960000D02*
X6852240D01*
X6837000Y944760D02*
Y975240D01*
X6194760Y6960000D02*
X6225240D01*
X6210000Y6944760D02*
Y6975240D01*
X5944760Y6460000D02*
X5975240D01*
X5960000Y6444760D02*
Y6475240D01*
X5944760Y5460000D02*
X5975240D01*
X5960000Y5444760D02*
Y5475240D01*
X6194760Y2960000D02*
X6225240D01*
X6210000Y2944760D02*
Y2975240D01*
X6347160Y2023500D02*
X6377640D01*
X6362400Y2008260D02*
Y2038740D01*
X5944760Y460000D02*
X5975240D01*
X5960000Y444760D02*
Y475240D01*
X5758260Y6960000D02*
X5788740D01*
X5773500Y6944760D02*
Y6975240D01*
X5444760Y6460000D02*
X5475240D01*
X5460000Y6444760D02*
Y6475240D01*
X5444760Y5460000D02*
X5475240D01*
X5460000Y5444760D02*
Y5475240D01*
X5580460Y5099700D02*
X5610940D01*
X5595700Y5084460D02*
Y5114940D01*
X5444760Y4460000D02*
X5475240D01*
X5460000Y4444760D02*
Y4475240D01*
X5406660Y3460000D02*
X5437140D01*
X5421900Y3444760D02*
Y3475240D01*
X5381260Y1460000D02*
X5411740D01*
X5396500Y1444760D02*
Y1475240D01*
X5194760Y6960000D02*
X5225240D01*
X5210000Y6944760D02*
Y6975240D01*
X4944760Y6460000D02*
X4975240D01*
X4960000Y6444760D02*
Y6475240D01*
X5194760Y1960000D02*
X5225240D01*
X5210000Y1944760D02*
Y1975240D01*
X5270960Y960000D02*
X5301440D01*
X5286200Y944760D02*
Y975240D01*
X4618560Y6960000D02*
X4649040D01*
X4633800Y6944760D02*
Y6975240D01*
X4444760Y6460000D02*
X4475240D01*
X4460000Y6444760D02*
Y6475240D01*
X4444760Y5460000D02*
X4475240D01*
X4460000Y5444760D02*
Y5475240D01*
X4694760Y2036200D02*
X4725240D01*
X4710000Y2020960D02*
Y2051440D01*
X4444760Y460000D02*
X4475240D01*
X4460000Y444760D02*
Y475240D01*
X4194760Y6960000D02*
X4225240D01*
X4210000Y6944760D02*
Y6975240D01*
X3944760Y6460000D02*
X3975240D01*
X3960000Y6444760D02*
Y6475240D01*
X3944760Y5460000D02*
X3975240D01*
X3960000Y5444760D02*
Y5475240D01*
X3868560Y1460000D02*
X3899040D01*
X3883800Y1444760D02*
Y1475240D01*
X3694760Y6960000D02*
X3725240D01*
X3710000Y6944760D02*
Y6975240D01*
X3444760Y6460000D02*
X3475240D01*
X3460000Y6444760D02*
Y6475240D01*
X3444760Y5460000D02*
X3475240D01*
X3460000Y5444760D02*
Y5475240D01*
X3478860Y4985400D02*
X3509340D01*
X3494100Y4970160D02*
Y5000640D01*
X3745560Y1960000D02*
X3776040D01*
X3760800Y1944760D02*
Y1975240D01*
X3783660Y960000D02*
X3814140D01*
X3798900Y944760D02*
Y975240D01*
X3194760Y4960000D02*
X3225240D01*
X3210000Y4944760D02*
Y4975240D01*
X2919360Y4434600D02*
X2949840D01*
X2934600Y4419360D02*
Y4449840D01*
X3194760Y2036200D02*
X3225240D01*
X3210000Y2020960D02*
Y2051440D01*
X2944760Y460000D02*
X2975240D01*
X2960000Y444760D02*
Y475240D01*
X2694760Y1960000D02*
X2725240D01*
X2710000Y1944760D02*
Y1975240D01*
X2444760Y1460000D02*
X2475240D01*
X2460000Y1444760D02*
Y1475240D01*
X1970160Y7536200D02*
X2000640D01*
X1985400Y7520960D02*
Y7551440D01*
X2131260Y6960000D02*
X2161740D01*
X2146500Y6944760D02*
Y6975240D01*
X1944760Y5460000D02*
X1975240D01*
X1960000Y5444760D02*
Y5475240D01*
X1970160Y3523500D02*
X2000640D01*
X1985400Y3508260D02*
Y3538740D01*
X2194760Y1960000D02*
X2225240D01*
X2210000Y1944760D02*
Y1975240D01*
X1944760Y1460000D02*
X1975240D01*
X1960000Y1444760D02*
Y1475240D01*
X2359860Y960000D02*
X2390340D01*
X2375100Y944760D02*
Y975240D01*
X1944760Y460000D02*
X1975240D01*
X1960000Y444760D02*
Y475240D01*
X1694760Y6960000D02*
X1725240D01*
X1710000Y6944760D02*
Y6975240D01*
X1444760Y6460000D02*
X1475240D01*
X1460000Y6444760D02*
Y6475240D01*
X1694760Y5163200D02*
X1725240D01*
X1710000Y5147960D02*
Y5178440D01*
X1694760Y1960000D02*
X1725240D01*
X1710000Y1944760D02*
Y1975240D01*
X1444760Y1460000D02*
X1475240D01*
X1460000Y1444760D02*
Y1475240D01*
X1694760Y960000D02*
X1725240D01*
X1710000Y944760D02*
Y975240D01*
X1444760Y460000D02*
X1475240D01*
X1460000Y444760D02*
Y475240D01*
X944760Y7510800D02*
X975240D01*
X960000Y7495560D02*
Y7526040D01*
X944760Y6460000D02*
X975240D01*
X960000Y6444760D02*
Y6475240D01*
X1232860Y5960000D02*
X1263340D01*
X1248100Y5944760D02*
Y5975240D01*
X1232860Y3087000D02*
X1263340D01*
X1248100Y3071760D02*
Y3102240D01*
X1258260Y1960000D02*
X1288740D01*
X1273500Y1944760D02*
Y1975240D01*
X944760Y460000D02*
X975240D01*
X960000Y444760D02*
Y475240D01*
X444760Y7460000D02*
X475240D01*
X460000Y7444760D02*
Y7475240D01*
X694760Y5960000D02*
X725240D01*
X710000Y5944760D02*
Y5975240D01*
X694760Y960000D02*
X725240D01*
X710000Y944760D02*
Y975240D01*
X6156960Y3995100D02*
X6187440D01*
X6172200Y3979860D02*
Y4010340D01*
X6283960Y3995100D02*
X6314440D01*
X6299200Y3979860D02*
Y4010340D01*
X6283960Y3766500D02*
X6314440D01*
X6299200Y3751260D02*
Y3781740D01*
X6156960Y3766500D02*
X6187440D01*
X6172200Y3751260D02*
Y3781740D01*
X6156960Y3873500D02*
X6187440D01*
X6172200Y3858260D02*
Y3888740D01*
X6283960Y3873500D02*
X6314440D01*
X6299200Y3858260D02*
Y3888740D01*
X4061460Y3995100D02*
X4091940D01*
X4076700Y3979860D02*
Y4010340D01*
X4188460Y3873500D02*
X4218940D01*
X4203700Y3858260D02*
Y3888740D01*
X4061460Y3766500D02*
X4091940D01*
X4076700Y3751260D02*
Y3781740D01*
X4188460Y3766500D02*
X4218940D01*
X4203700Y3751260D02*
Y3781740D01*
X4188460Y3995100D02*
X4218940D01*
X4203700Y3979860D02*
Y4010340D01*
X4061460Y3873500D02*
X4091940D01*
X4076700Y3858260D02*
Y3888740D01*
X2092960Y3886200D02*
X2123440D01*
X2108200Y3870960D02*
Y3901440D01*
X1965960Y3886200D02*
X1996440D01*
X1981200Y3870960D02*
Y3901440D01*
X1965960Y3779200D02*
X1996440D01*
X1981200Y3763960D02*
Y3794440D01*
X2092960Y3779200D02*
X2123440D01*
X2108200Y3763960D02*
Y3794440D01*
X7338060Y1701800D02*
X7368540D01*
X7353300Y1686560D02*
Y1717040D01*
X365760Y6807200D02*
X396240D01*
X381000Y6791960D02*
Y6822440D01*
X314960Y952500D02*
X345440D01*
X330200Y937260D02*
Y967740D01*
X251460Y1968500D02*
X281940D01*
X266700Y1953260D02*
Y1983740D01*
X251460Y2336800D02*
X281940D01*
X266700Y2321560D02*
Y2352040D01*
X314960Y5270500D02*
X345440D01*
X330200Y5255260D02*
Y5285740D01*
X353060Y5778500D02*
X383540D01*
X368300Y5763260D02*
Y5793740D01*
X365760Y6299200D02*
X396240D01*
X381000Y6283960D02*
Y6314440D01*
X5750560Y1231900D02*
X5781040D01*
X5765800Y1216660D02*
Y1247140D01*
X5623560Y1231900D02*
X5654040D01*
X5638800Y1216660D02*
Y1247140D01*
X4277360Y1231900D02*
X4307840D01*
X4292600Y1216660D02*
Y1247140D01*
X4124960Y1231900D02*
X4155440D01*
X4140200Y1216660D02*
Y1247140D01*
X5763260Y4140200D02*
X5793740D01*
X5778500Y4124960D02*
Y4155440D01*
X5598160Y4140200D02*
X5628640D01*
X5613400Y4124960D02*
Y4155440D01*
X3667760Y4140200D02*
X3698240D01*
X3683000Y4124960D02*
Y4155440D01*
X3502660Y4140200D02*
X3533140D01*
X3517900Y4124960D02*
Y4155440D01*
X1407160Y4140200D02*
X1437640D01*
X1422400Y4124960D02*
Y4155440D01*
X1572260Y4140200D02*
X1602740D01*
X1587500Y4124960D02*
Y4155440D01*
X2092960Y4007800D02*
X2123440D01*
X2108200Y3992560D02*
Y4023040D01*
X1965960Y4007800D02*
X1996440D01*
X1981200Y3992560D02*
Y4023040D01*
%TF.MD5,07adac711678da0d354214d26bdb5ee8*%
M02*
