%TF.GenerationSoftware,Altium Limited,Altium Designer,24.5.2 (23)*%
G04 Layer_Color=8388736*
%FSLAX45Y45*%
%MOMM*%
%TF.SameCoordinates,2470441B-8579-4349-B98B-18B4F8D42BC9*%
%TF.FilePolarity,Negative*%
%TF.FileFunction,Soldermask,Top*%
%TF.Part,Single*%
G01*
G75*
%TA.AperFunction,SMDPad,CuDef*%
%ADD10R,0.85814X1.26213*%
%ADD12R,1.26213X0.85814*%
%ADD15R,1.20000X1.20000*%
%ADD20R,1.46213X1.25814*%
%ADD21R,1.45464X1.55620*%
%ADD22R,1.45620X1.25464*%
%ADD23R,1.55620X1.45464*%
%ADD24R,0.62213X2.47407*%
G04:AMPARAMS|DCode=25|XSize=2.47407mm|YSize=0.62213mm|CornerRadius=0.31107mm|HoleSize=0mm|Usage=FLASHONLY|Rotation=90.000|XOffset=0mm|YOffset=0mm|HoleType=Round|Shape=RoundedRectangle|*
%AMROUNDEDRECTD25*
21,1,2.47407,0.00000,0,0,90.0*
21,1,1.85193,0.62213,0,0,90.0*
1,1,0.62213,0.00000,0.92597*
1,1,0.62213,0.00000,-0.92597*
1,1,0.62213,0.00000,-0.92597*
1,1,0.62213,0.00000,0.92597*
%
%ADD25ROUNDEDRECTD25*%
%ADD26R,1.25464X1.45620*%
%ADD27R,2.47407X0.62213*%
G04:AMPARAMS|DCode=28|XSize=2.47407mm|YSize=0.62213mm|CornerRadius=0.31107mm|HoleSize=0mm|Usage=FLASHONLY|Rotation=180.000|XOffset=0mm|YOffset=0mm|HoleType=Round|Shape=RoundedRectangle|*
%AMROUNDEDRECTD28*
21,1,2.47407,0.00000,0,0,180.0*
21,1,1.85193,0.62213,0,0,180.0*
1,1,0.62213,-0.92597,0.00000*
1,1,0.62213,0.92597,0.00000*
1,1,0.62213,0.92597,0.00000*
1,1,0.62213,-0.92597,0.00000*
%
%ADD28ROUNDEDRECTD28*%
%ADD30R,1.36213X1.05814*%
%ADD31R,1.05464X1.35620*%
%ADD34R,1.20000X1.20000*%
%TA.AperFunction,ConnectorPad*%
%ADD35R,1.20000X0.80000*%
%ADD36R,1.20000X0.76000*%
%ADD37R,1.20000X0.70000*%
%TA.AperFunction,SMDPad,CuDef*%
%ADD38R,1.25814X1.46213*%
%TA.AperFunction,ComponentPad*%
%ADD47C,1.40000*%
%ADD48R,1.40000X1.40000*%
G04:AMPARAMS|DCode=51|XSize=1.1mm|YSize=1.7mm|CornerRadius=0.55mm|HoleSize=0mm|Usage=FLASHONLY|Rotation=270.000|XOffset=0mm|YOffset=0mm|HoleType=Round|Shape=RoundedRectangle|*
%AMROUNDEDRECTD51*
21,1,1.10000,0.60000,0,0,270.0*
21,1,0.00000,1.70000,0,0,270.0*
1,1,1.10000,-0.30000,0.00000*
1,1,1.10000,-0.30000,0.00000*
1,1,1.10000,0.30000,0.00000*
1,1,1.10000,0.30000,0.00000*
%
%ADD51ROUNDEDRECTD51*%
%ADD53R,1.40000X1.40000*%
%TA.AperFunction,SMDPad,CuDef*%
%ADD62C,0.80320*%
%ADD63R,1.72820X0.90320*%
%ADD64R,2.41320X3.30320*%
%ADD65R,1.40320X1.40320*%
%ADD66R,1.60320X1.10320*%
%ADD67R,1.60320X2.40320*%
%ADD68R,2.20320X1.60320*%
%ADD69R,1.65320X1.20320*%
%ADD70R,0.80320X1.40320*%
%ADD71R,3.40320X2.80320*%
%ADD72R,1.20320X1.65320*%
%ADD73R,1.45320X0.80320*%
%ADD74R,1.50320X0.80320*%
%ADD75R,1.40320X1.40320*%
%TA.AperFunction,ComponentPad*%
%ADD76C,1.62320*%
G04:AMPARAMS|DCode=77|XSize=1.6232mm|YSize=1.6232mm|CornerRadius=0.4566mm|HoleSize=0mm|Usage=FLASHONLY|Rotation=0.000|XOffset=0mm|YOffset=0mm|HoleType=Round|Shape=RoundedRectangle|*
%AMROUNDEDRECTD77*
21,1,1.62320,0.71000,0,0,0.0*
21,1,0.71000,1.62320,0,0,0.0*
1,1,0.91320,0.35500,-0.35500*
1,1,0.91320,-0.35500,-0.35500*
1,1,0.91320,-0.35500,0.35500*
1,1,0.91320,0.35500,0.35500*
%
%ADD77ROUNDEDRECTD77*%
%ADD78C,3.65320*%
%ADD79C,2.79820*%
%ADD80R,2.79820X2.79820*%
%ADD81R,2.79820X2.79820*%
%TA.AperFunction,ViaPad*%
%ADD82C,0.71120*%
D10*
X2338299Y5139176D02*
D03*
X2182901D02*
D03*
X6506257Y5156200D02*
D03*
X6350859D02*
D03*
X4421099Y5143500D02*
D03*
X4265701D02*
D03*
D12*
X6756400Y3179451D02*
D03*
Y3334850D02*
D03*
X4650342Y3182351D02*
D03*
Y3337750D02*
D03*
X2555932Y3186751D02*
D03*
Y3342150D02*
D03*
X3937000Y674599D02*
D03*
Y519201D02*
D03*
X2438400Y674599D02*
D03*
Y519201D02*
D03*
X5442475Y674599D02*
D03*
Y519201D02*
D03*
D15*
X5762400Y2908300D02*
D03*
X5972400D02*
D03*
X3666900D02*
D03*
X3876900D02*
D03*
X618900Y7226300D02*
D03*
X828900D02*
D03*
X6505800Y7747000D02*
D03*
X6295800D02*
D03*
X1571400Y2908300D02*
D03*
X1781400D02*
D03*
D20*
X520700Y5080639D02*
D03*
Y5276038D02*
D03*
Y4626701D02*
D03*
Y4822099D02*
D03*
X5684368Y1562100D02*
D03*
Y1366701D02*
D03*
X4185768Y1558199D02*
D03*
Y1362801D02*
D03*
X2687168Y1558199D02*
D03*
Y1362801D02*
D03*
D21*
X727578Y5562600D02*
D03*
X542422D02*
D03*
X6912478Y5384800D02*
D03*
X6727322D02*
D03*
X6742368Y4610100D02*
D03*
X6927524D02*
D03*
X4816978Y5384800D02*
D03*
X4631822D02*
D03*
X5950276Y4330700D02*
D03*
X6135433D02*
D03*
X5950276Y4619046D02*
D03*
X6135433D02*
D03*
X4646868Y4610100D02*
D03*
X4832024D02*
D03*
X3857122Y4622800D02*
D03*
X4042278D02*
D03*
X3854776Y4331936D02*
D03*
X4039933D02*
D03*
X6370056Y1822436D02*
D03*
X6184900D02*
D03*
X4867778D02*
D03*
X4682622D02*
D03*
X3369178D02*
D03*
X3184022D02*
D03*
X2725156Y5384800D02*
D03*
X2540000D02*
D03*
X2559057Y4610100D02*
D03*
X2744213D02*
D03*
X1759619Y4326536D02*
D03*
X1944775D02*
D03*
X1763241Y4619046D02*
D03*
X1948397D02*
D03*
D22*
X1890255Y6235644D02*
D03*
Y6400800D02*
D03*
D23*
X1900655Y5934578D02*
D03*
Y5749422D02*
D03*
X5112946Y5210678D02*
D03*
Y5025522D02*
D03*
X3021124Y5210678D02*
D03*
Y5025522D02*
D03*
X7208446Y5210678D02*
D03*
Y5025522D02*
D03*
D24*
X774700Y4701483D02*
D03*
D25*
X901700D02*
D03*
X1028700D02*
D03*
X1155700D02*
D03*
Y5184696D02*
D03*
X1028700D02*
D03*
X901700D02*
D03*
X774700D02*
D03*
D26*
X1022322Y5516635D02*
D03*
X1187478D02*
D03*
D27*
X2705407Y5981700D02*
D03*
D28*
Y6108700D02*
D03*
Y6235700D02*
D03*
Y6362700D02*
D03*
X2222193D02*
D03*
Y6235700D02*
D03*
Y6108700D02*
D03*
Y5981700D02*
D03*
D30*
X5686712Y4331901D02*
D03*
Y4507299D02*
D03*
X3594100Y4331901D02*
D03*
Y4507299D02*
D03*
X1496055Y4331901D02*
D03*
Y4507299D02*
D03*
D31*
X6511478Y4880525D02*
D03*
X6366322D02*
D03*
X6511478Y4610100D02*
D03*
X6366322D02*
D03*
X6511478Y4330700D02*
D03*
X6366322D02*
D03*
X6546778Y3185350D02*
D03*
X6401622D02*
D03*
X6544743Y3455775D02*
D03*
X6399586D02*
D03*
X4415978Y4330700D02*
D03*
X4270822D02*
D03*
X4415978Y4876800D02*
D03*
X4270822D02*
D03*
X4415978Y4610100D02*
D03*
X4270822D02*
D03*
X4441378Y3185350D02*
D03*
X4296222D02*
D03*
X4441378Y3455775D02*
D03*
X4296222D02*
D03*
X2345878Y3192650D02*
D03*
X2200722D02*
D03*
X2346968Y3463075D02*
D03*
X2201812D02*
D03*
X2324443Y4873750D02*
D03*
X2179286D02*
D03*
X2324443Y4603325D02*
D03*
X2179286D02*
D03*
X2320821Y4323925D02*
D03*
X2175664D02*
D03*
D34*
X946225Y1241200D02*
D03*
Y1451200D02*
D03*
D35*
X668300Y2408600D02*
D03*
Y1858600D02*
D03*
D36*
Y2285600D02*
D03*
Y1981600D02*
D03*
D37*
Y2183600D02*
D03*
Y2083600D02*
D03*
D38*
X461101Y1468068D02*
D03*
X656499D02*
D03*
X452301Y2799132D02*
D03*
X647700D02*
D03*
D47*
X2922499Y781900D02*
D03*
X5922499D02*
D03*
X4422499D02*
D03*
X1992700D02*
D03*
X4233100Y7272100D02*
D03*
X1742700D02*
D03*
X781900Y6408100D02*
D03*
Y6158100D02*
D03*
D48*
X3172499Y781900D02*
D03*
X6172499D02*
D03*
X4672499D02*
D03*
X1742700D02*
D03*
X4483100Y7272100D02*
D03*
X1992700D02*
D03*
D51*
X668300Y2565600D02*
D03*
Y1701600D02*
D03*
X288300Y2565600D02*
D03*
Y1701600D02*
D03*
D53*
X781900Y6658100D02*
D03*
D62*
X4978400Y7226300D02*
D03*
X1422400Y4025900D02*
D03*
X355600Y7035800D02*
D03*
X7138181Y4686300D02*
D03*
X5042681D02*
D03*
X2959100D02*
D03*
X3632200Y1320800D02*
D03*
X5130800Y1308100D02*
D03*
X6616700Y1320800D02*
D03*
X7315200Y7366000D02*
D03*
X3200400Y6070600D02*
D03*
Y6286500D02*
D03*
D63*
X3869000Y4076700D02*
D03*
Y3949700D02*
D03*
Y3822700D02*
D03*
Y3695700D02*
D03*
X4411400D02*
D03*
Y3822700D02*
D03*
Y3949700D02*
D03*
Y4076700D02*
D03*
X5964500D02*
D03*
Y3949700D02*
D03*
Y3822700D02*
D03*
Y3695700D02*
D03*
X6506900D02*
D03*
Y3822700D02*
D03*
Y3949700D02*
D03*
Y4076700D02*
D03*
X1773500Y4084000D02*
D03*
Y3957000D02*
D03*
Y3830000D02*
D03*
Y3703000D02*
D03*
X2315900D02*
D03*
Y3830000D02*
D03*
Y3957000D02*
D03*
Y4084000D02*
D03*
D64*
X4140200Y3886200D02*
D03*
X6235700D02*
D03*
X2044700Y3893500D02*
D03*
D65*
X3666900Y2705100D02*
D03*
X3876900D02*
D03*
X5762400Y2311400D02*
D03*
X5972400D02*
D03*
Y2508300D02*
D03*
X5762400D02*
D03*
Y2705100D02*
D03*
X5972400D02*
D03*
X1781400D02*
D03*
X1571400D02*
D03*
X3666900Y2311400D02*
D03*
X3876900D02*
D03*
Y2509200D02*
D03*
X3666900D02*
D03*
X1571400Y2311400D02*
D03*
X1781400D02*
D03*
Y2509200D02*
D03*
X1571400D02*
D03*
D66*
X1282700Y786400D02*
D03*
X1343275Y7284700D02*
D03*
D67*
X1282700Y1041400D02*
D03*
X1343275Y7029700D02*
D03*
D68*
X6407900Y218300D02*
D03*
X5707900D02*
D03*
X6407900Y518300D02*
D03*
X5707900D02*
D03*
X4909300Y218300D02*
D03*
X4209300D02*
D03*
X4909300Y518300D02*
D03*
X4209300D02*
D03*
X3410700Y218300D02*
D03*
X2710700D02*
D03*
X3410700Y518300D02*
D03*
X2710700D02*
D03*
D69*
X1041400Y7225800D02*
D03*
Y7035800D02*
D03*
X946225Y1644900D02*
D03*
Y1834900D02*
D03*
X6400800Y1555500D02*
D03*
Y1365500D02*
D03*
X5727700Y794000D02*
D03*
Y984000D02*
D03*
X4902200Y1555500D02*
D03*
Y1365500D02*
D03*
X4229100Y794000D02*
D03*
Y984000D02*
D03*
X3403626Y1561600D02*
D03*
Y1371600D02*
D03*
X2722574Y806700D02*
D03*
Y996700D02*
D03*
D70*
X6887135Y4873800D02*
D03*
X6697135D02*
D03*
Y5133800D02*
D03*
X6792135D02*
D03*
X6887135D02*
D03*
X4794000Y4873800D02*
D03*
X4604000D02*
D03*
Y5133800D02*
D03*
X4699000D02*
D03*
X4794000D02*
D03*
X2711200Y4873536D02*
D03*
X2521200D02*
D03*
Y5133536D02*
D03*
X2616200D02*
D03*
X2711200D02*
D03*
D71*
X7010400Y4181200D02*
D03*
Y3591200D02*
D03*
X4914900Y4184100D02*
D03*
Y3594100D02*
D03*
X2812625Y3598500D02*
D03*
Y4188500D02*
D03*
D72*
X6064000Y7747000D02*
D03*
X5874000D02*
D03*
D73*
X6182900Y1568200D02*
D03*
Y1473200D02*
D03*
Y1378200D02*
D03*
X5932900D02*
D03*
Y1473200D02*
D03*
Y1568200D02*
D03*
X4684300D02*
D03*
Y1473200D02*
D03*
Y1378200D02*
D03*
X4434300D02*
D03*
Y1473200D02*
D03*
Y1568200D02*
D03*
X3185700D02*
D03*
Y1473200D02*
D03*
Y1378200D02*
D03*
X2935700D02*
D03*
Y1473200D02*
D03*
Y1568200D02*
D03*
D74*
X5952900Y1079500D02*
D03*
X6162900Y1174500D02*
D03*
Y984500D02*
D03*
X4454300Y1079500D02*
D03*
X4664300Y1174500D02*
D03*
Y984500D02*
D03*
X2943000Y1079500D02*
D03*
X3153000Y1174500D02*
D03*
Y984500D02*
D03*
D75*
X6375400Y1006700D02*
D03*
Y796700D02*
D03*
X4876800Y1006700D02*
D03*
Y796700D02*
D03*
X3378200Y1016000D02*
D03*
Y806000D02*
D03*
D76*
X6259533Y7373018D02*
D03*
X6059532D02*
D03*
X6509533D02*
D03*
D77*
X5809532D02*
D03*
D78*
X6816532Y7102018D02*
D03*
X5502533D02*
D03*
D79*
X457200Y3242664D02*
D03*
Y3712664D02*
D03*
X2646026Y7594600D02*
D03*
X3116026D02*
D03*
D80*
X457200Y4182664D02*
D03*
D81*
X3586026Y7594600D02*
D03*
D82*
X7561600Y7396500D02*
D03*
X7710000Y6960000D02*
D03*
X7460000Y6460000D02*
D03*
X7710000Y5960000D02*
D03*
Y4960000D02*
D03*
X7460000Y4460000D02*
D03*
X7710000Y3960000D02*
D03*
X7510800Y3460000D02*
D03*
X7710000Y2960000D02*
D03*
X7460000Y2460000D02*
D03*
X7710000Y960000D02*
D03*
X7460000Y460000D02*
D03*
X6960000Y7460000D02*
D03*
X7210000Y6960000D02*
D03*
X6960000Y6460000D02*
D03*
Y4409200D02*
D03*
X7210000Y2960000D02*
D03*
X6960000Y2460000D02*
D03*
Y1460000D02*
D03*
X7210000Y960000D02*
D03*
X6960000Y460000D02*
D03*
X6460000Y6460000D02*
D03*
Y5510800D02*
D03*
X6671900Y2883800D02*
D03*
X6421900Y2460000D02*
D03*
X6710000Y1960000D02*
D03*
X6837000Y960000D02*
D03*
X6210000Y6960000D02*
D03*
X5960000Y6460000D02*
D03*
Y5460000D02*
D03*
X6210000Y2960000D02*
D03*
X6362400Y2023500D02*
D03*
X5960000Y460000D02*
D03*
X5773500Y6960000D02*
D03*
X5460000Y6460000D02*
D03*
Y5460000D02*
D03*
X5595700Y5099700D02*
D03*
X5460000Y4460000D02*
D03*
X5421900Y3460000D02*
D03*
X5396500Y1460000D02*
D03*
X5210000Y6960000D02*
D03*
X4960000Y6460000D02*
D03*
X5210000Y1960000D02*
D03*
X5286200Y960000D02*
D03*
X4633800Y6960000D02*
D03*
X4460000Y6460000D02*
D03*
Y5460000D02*
D03*
X4710000Y2036200D02*
D03*
X4460000Y460000D02*
D03*
X4210000Y6960000D02*
D03*
X3960000Y6460000D02*
D03*
Y5460000D02*
D03*
X3883800Y1460000D02*
D03*
X3710000Y6960000D02*
D03*
X3460000Y6460000D02*
D03*
Y5460000D02*
D03*
X3494100Y4985400D02*
D03*
X3760800Y1960000D02*
D03*
X3798900Y960000D02*
D03*
X3210000Y4960000D02*
D03*
X2934600Y4434600D02*
D03*
X3210000Y2036200D02*
D03*
X2960000Y460000D02*
D03*
X2710000Y1960000D02*
D03*
X2460000Y1460000D02*
D03*
X1985400Y7536200D02*
D03*
X2146500Y6960000D02*
D03*
X1960000Y5460000D02*
D03*
X1985400Y3523500D02*
D03*
X2210000Y1960000D02*
D03*
X1960000Y1460000D02*
D03*
X2375100Y960000D02*
D03*
X1960000Y460000D02*
D03*
X1710000Y6960000D02*
D03*
X1460000Y6460000D02*
D03*
X1710000Y5163200D02*
D03*
Y1960000D02*
D03*
X1460000Y1460000D02*
D03*
X1710000Y960000D02*
D03*
X1460000Y460000D02*
D03*
X960000Y7510800D02*
D03*
Y6460000D02*
D03*
X1248100Y5960000D02*
D03*
Y3087000D02*
D03*
X1273500Y1960000D02*
D03*
X960000Y460000D02*
D03*
X460000Y7460000D02*
D03*
X710000Y5960000D02*
D03*
Y960000D02*
D03*
X6172200Y3995100D02*
D03*
X6299200D02*
D03*
Y3766500D02*
D03*
X6172200D02*
D03*
Y3873500D02*
D03*
X6299200D02*
D03*
X4076700Y3995100D02*
D03*
X4203700Y3873500D02*
D03*
X4076700Y3766500D02*
D03*
X4203700D02*
D03*
Y3995100D02*
D03*
X4076700Y3873500D02*
D03*
X2108200Y3886200D02*
D03*
X1981200D02*
D03*
Y3779200D02*
D03*
X2108200D02*
D03*
X7353300Y1701800D02*
D03*
X381000Y6807200D02*
D03*
X330200Y952500D02*
D03*
X266700Y1968500D02*
D03*
Y2336800D02*
D03*
X330200Y5270500D02*
D03*
X368300Y5778500D02*
D03*
X381000Y6299200D02*
D03*
X5765800Y1231900D02*
D03*
X5638800D02*
D03*
X4292600D02*
D03*
X4140200D02*
D03*
X5778500Y4140200D02*
D03*
X5613400D02*
D03*
X3683000D02*
D03*
X3517900D02*
D03*
X1422400D02*
D03*
X1587500D02*
D03*
X2108200Y4007800D02*
D03*
X1981200D02*
D03*
%TF.MD5,01b1c95dd1724fb646489dd13facd039*%
M02*
