%TF.GenerationSoftware,Altium Limited,Altium Designer,24.5.2 (23)*%
G04 Layer_Color=0*
%FSLAX45Y45*%
%MOMM*%
%TF.SameCoordinates,2470441B-8579-4349-B98B-18B4F8D42BC9*%
%TF.FilePolarity,Positive*%
%TF.FileFunction,NonPlated,1,2,NPTH,Drill*%
%TF.Part,Single*%
G01*
G75*
G36*
X7547500Y344000D02*
Y327995D01*
X7553745Y296600D01*
X7565994Y267027D01*
X7583778Y240412D01*
X7606412Y217778D01*
X7633027Y199994D01*
X7662600Y187745D01*
X7693995Y181500D01*
X7710000D01*
X7726005D01*
X7757400Y187745D01*
X7786972Y199994D01*
X7813588Y217778D01*
X7836222Y240412D01*
X7854006Y267027D01*
X7866255Y296600D01*
X7872500Y327995D01*
Y344000D01*
Y360005D01*
X7866255Y391400D01*
X7854006Y420972D01*
X7836222Y447588D01*
X7813588Y470222D01*
X7786972Y488006D01*
X7757400Y500255D01*
X7726005Y506500D01*
X7710000D01*
X7693995D01*
X7662600Y500255D01*
X7633027Y488006D01*
X7606412Y470222D01*
X7583778Y447588D01*
X7565994Y420972D01*
X7553745Y391400D01*
X7547500Y360005D01*
Y344000D01*
D01*
D02*
G37*
G36*
X7710000Y7547500D02*
X7693995D01*
X7662600Y7553745D01*
X7633027Y7565994D01*
X7606412Y7583778D01*
X7583778Y7606412D01*
X7565994Y7633027D01*
X7553745Y7662600D01*
X7547500Y7693995D01*
Y7710000D01*
Y7726005D01*
X7553745Y7757400D01*
X7565994Y7786972D01*
X7583778Y7813588D01*
X7606412Y7836222D01*
X7633027Y7854006D01*
X7662600Y7866255D01*
X7693995Y7872500D01*
X7710000D01*
X7726005D01*
X7757400Y7866255D01*
X7786972Y7854006D01*
X7813588Y7836222D01*
X7836222Y7813588D01*
X7854006Y7786972D01*
X7866255Y7757400D01*
X7872500Y7726005D01*
Y7710000D01*
Y7693995D01*
X7866255Y7662600D01*
X7854006Y7633027D01*
X7836222Y7606412D01*
X7813588Y7583778D01*
X7786972Y7565994D01*
X7757400Y7553745D01*
X7726005Y7547500D01*
X7710000D01*
D01*
D02*
G37*
G36*
X344000D02*
X327995D01*
X296600Y7553745D01*
X267027Y7565994D01*
X240412Y7583778D01*
X217778Y7606412D01*
X199994Y7633027D01*
X187745Y7662600D01*
X181500Y7693995D01*
Y7710000D01*
Y7726005D01*
X187745Y7757400D01*
X199994Y7786972D01*
X217778Y7813588D01*
X240412Y7836222D01*
X267027Y7854006D01*
X296600Y7866255D01*
X327995Y7872500D01*
X344000D01*
X360005D01*
X391400Y7866255D01*
X420972Y7854006D01*
X447588Y7836222D01*
X470222Y7813588D01*
X488006Y7786972D01*
X500255Y7757400D01*
X506500Y7726005D01*
Y7710000D01*
Y7693995D01*
X500255Y7662600D01*
X488006Y7633027D01*
X470222Y7606412D01*
X447588Y7583778D01*
X420972Y7565994D01*
X391400Y7553745D01*
X360005Y7547500D01*
X344000D01*
D01*
D02*
G37*
G36*
Y181500D02*
X327995D01*
X296600Y187745D01*
X267027Y199994D01*
X240412Y217778D01*
X217778Y240412D01*
X199994Y267027D01*
X187745Y296600D01*
X181500Y327995D01*
Y344000D01*
Y360005D01*
X187745Y391400D01*
X199994Y420972D01*
X217778Y447588D01*
X240412Y470222D01*
X267027Y488006D01*
X296600Y500255D01*
X327995Y506500D01*
X344000D01*
X360005D01*
X391400Y500255D01*
X420972Y488006D01*
X447588Y470222D01*
X470222Y447588D01*
X488006Y420972D01*
X500255Y391400D01*
X506500Y360005D01*
Y344000D01*
Y327995D01*
X500255Y296600D01*
X488006Y267027D01*
X470222Y240412D01*
X447588Y217778D01*
X420972Y199994D01*
X391400Y187745D01*
X360005Y181500D01*
X344000D01*
D01*
D02*
G37*
%TF.MD5,5e9ea26b079baf33afa606b6068863ab*%
M02*
