%TF.GenerationSoftware,Altium Limited,Altium Designer,24.5.2 (23)*%
G04 Layer_Color=32896*
%FSLAX45Y45*%
%MOMM*%
%TF.SameCoordinates,2470441B-8579-4349-B98B-18B4F8D42BC9*%
%TF.FilePolarity,Positive*%
%TF.FileFunction,Legend,Bot*%
%TF.Part,Single*%
G01*
G75*
%TA.AperFunction,NonConductor*%
%ADD55C,0.25000*%
%ADD56C,0.20000*%
%ADD61C,0.16000*%
G36*
X2513669Y3707444D02*
X2516083Y3706478D01*
X2517773Y3704305D01*
X2518256Y3677261D01*
X2517291Y3674846D01*
X2516083Y3673639D01*
X2513427Y3671948D01*
X2511013Y3671466D01*
X2485659Y3671707D01*
X2482278Y3671224D01*
X2479864Y3670259D01*
X2478898Y3669775D01*
X2478415Y3668810D01*
X2477449Y3666395D01*
X2476967Y3664463D01*
X2476242Y3661324D01*
X2474069Y3657702D01*
X2473103Y3655288D01*
X2472137Y3651424D01*
X2471413Y3648768D01*
X2469239Y3645146D01*
X2468032Y3642007D01*
X2467066Y3638144D01*
X2463686Y3630900D01*
X2462720Y3627036D01*
X2461755Y3623656D01*
X2459340Y3619793D01*
X2458374Y3615446D01*
X2455959Y3610134D01*
X2455235Y3608444D01*
X2454027Y3605305D01*
X2453061Y3601442D01*
X2451613Y3598061D01*
X2450888Y3597336D01*
X2449922Y3594922D01*
X2449440Y3592990D01*
X2448715Y3589851D01*
X2446784Y3585505D01*
X2446059Y3584781D01*
X2445093Y3582366D01*
X2444369Y3578744D01*
X2443403Y3576329D01*
X2441713Y3573190D01*
X2440264Y3569327D01*
X2439781Y3567395D01*
X2439057Y3564256D01*
X2436883Y3560634D01*
X2435676Y3557495D01*
X2435193Y3555564D01*
X2434228Y3552183D01*
X2432054Y3548078D01*
X2431088Y3545663D01*
X2430364Y3542042D01*
X2428432Y3537695D01*
X2427708Y3536971D01*
X2426501Y3533832D01*
X2425535Y3529968D01*
X2423361Y3524897D01*
X2421913Y3522000D01*
X2421430Y3519586D01*
X2420705Y3516446D01*
X2418532Y3512825D01*
X2417084Y3508961D01*
X2416600Y3507030D01*
X2415876Y3503890D01*
X2413703Y3500268D01*
X2412737Y3497854D01*
X2411771Y3493990D01*
X2411047Y3491334D01*
X2408874Y3487712D01*
X2407908Y3485298D01*
X2407183Y3482159D01*
X2406701Y3480227D01*
X2405010Y3477088D01*
X2403561Y3474190D01*
X2403079Y3472259D01*
X2402354Y3469120D01*
X2400906Y3465739D01*
X2398974Y3462359D01*
X2398008Y3458012D01*
X2395593Y3452700D01*
X2394869Y3451010D01*
X2393903Y3448595D01*
X2393179Y3444973D01*
X2391247Y3440627D01*
X2390522Y3439903D01*
X2389315Y3436764D01*
X2388349Y3432900D01*
X2386418Y3428554D01*
X2384728Y3424932D01*
X2384244Y3422517D01*
X2383520Y3419378D01*
X2381347Y3415756D01*
X2380140Y3412617D01*
X2379415Y3409961D01*
X2378691Y3406822D01*
X2376518Y3403200D01*
X2375310Y3400061D01*
X2374344Y3396198D01*
X2370964Y3388954D01*
X2369998Y3385091D01*
X2368549Y3381710D01*
X2365169Y3375432D01*
X2364686Y3374466D01*
X2362271Y3372052D01*
X2361789Y3371086D01*
X2360581Y3369878D01*
X2359615Y3369396D01*
X2356235Y3366981D01*
X2352854Y3365049D01*
X2351406Y3364566D01*
X2277035Y3364083D01*
X2273654Y3364566D01*
X2272689Y3365532D01*
X2270515Y3368188D01*
X2270033Y3391851D01*
X2270515Y3395232D01*
X2272447Y3397164D01*
X2275103Y3399337D01*
X2293937Y3399820D01*
X2295869Y3399337D01*
X2299249Y3399820D01*
X2300457Y3401027D01*
X2300940Y3404408D01*
X2300457Y3406339D01*
X2297801Y3411410D01*
X2296835Y3413825D01*
X2296352Y3415756D01*
X2295628Y3418895D01*
X2294179Y3422276D01*
X2293455Y3423001D01*
X2292489Y3425415D01*
X2291764Y3428071D01*
X2291281Y3430003D01*
X2287659Y3437971D01*
X2286935Y3441110D01*
X2286452Y3443042D01*
X2285486Y3445456D01*
X2283796Y3448595D01*
X2282830Y3451010D01*
X2282347Y3452942D01*
X2281623Y3456081D01*
X2278484Y3462117D01*
X2277518Y3465981D01*
X2276793Y3469120D01*
X2274620Y3472742D01*
X2273654Y3475156D01*
X2272930Y3478295D01*
X2272447Y3480227D01*
X2270998Y3483607D01*
X2270274Y3484332D01*
X2268584Y3488920D01*
X2267618Y3492783D01*
X2266652Y3495197D01*
X2266169Y3496163D01*
X2265445Y3496888D01*
X2264479Y3499302D01*
X2263996Y3501234D01*
X2263272Y3504373D01*
X2260616Y3509927D01*
X2259408Y3513066D01*
X2258442Y3516929D01*
X2255062Y3524173D01*
X2254579Y3526105D01*
X2254096Y3527554D01*
X2253613Y3530451D01*
X2251440Y3534073D01*
X2250232Y3537212D01*
X2249750Y3539144D01*
X2248784Y3542525D01*
X2247094Y3545663D01*
X2245645Y3549527D01*
X2245162Y3551459D01*
X2244438Y3554598D01*
X2242264Y3558220D01*
X2241057Y3561359D01*
X2240091Y3565222D01*
X2237676Y3570534D01*
X2236469Y3573673D01*
X2235745Y3576812D01*
X2232123Y3584781D01*
X2231640Y3586712D01*
X2230916Y3589368D01*
X2230432Y3591300D01*
X2228259Y3595405D01*
X2227052Y3598544D01*
X2226569Y3600476D01*
X2225603Y3603856D01*
X2222947Y3608927D01*
X2221981Y3612790D01*
X2221257Y3615929D01*
X2219084Y3619551D01*
X2218118Y3621966D01*
X2217635Y3623898D01*
X2216911Y3627036D01*
X2213772Y3633073D01*
X2212564Y3638144D01*
X2211599Y3640558D01*
X2210391Y3643214D01*
X2208942Y3646112D01*
X2208218Y3648768D01*
X2207735Y3650700D01*
X2204354Y3657944D01*
X2202906Y3663739D01*
X2201698Y3666878D01*
X2199767Y3669775D01*
X2196386Y3671707D01*
X2191315Y3671466D01*
X2173205Y3671707D01*
X2171757Y3671224D01*
X2164996Y3672190D01*
X2162340Y3674846D01*
X2161616Y3679434D01*
X2161857Y3701890D01*
X2162340Y3705271D01*
X2164996Y3707444D01*
X2274137Y3707927D01*
X2278001Y3706961D01*
X2279208Y3705754D01*
X2279691Y3704788D01*
X2280657Y3703822D01*
X2281140Y3677744D01*
X2280174Y3675329D01*
X2278001Y3673156D01*
X2276311Y3671948D01*
X2274379Y3671466D01*
X2248060Y3671707D01*
X2244196Y3670741D01*
X2243472Y3670017D01*
X2242989Y3668568D01*
X2243713Y3666395D01*
X2245403Y3661807D01*
X2246369Y3658427D01*
X2247335Y3656012D01*
X2248060Y3655288D01*
X2249025Y3652873D01*
X2249750Y3650217D01*
X2250232Y3648285D01*
X2252647Y3642973D01*
X2254579Y3637661D01*
X2255545Y3633798D01*
X2257718Y3629693D01*
X2258684Y3627278D01*
X2259167Y3624863D01*
X2259891Y3621725D01*
X2262064Y3618102D01*
X2263030Y3615688D01*
X2263755Y3613032D01*
X2264238Y3611100D01*
X2266652Y3605788D01*
X2267859Y3602649D01*
X2268825Y3598785D01*
X2269549Y3596129D01*
X2271481Y3593232D01*
X2271964Y3592266D01*
X2273896Y3589368D01*
X2276311Y3588403D01*
X2403561Y3588644D01*
X2405735Y3589368D01*
X2406942Y3591059D01*
X2408149Y3594198D01*
X2409115Y3596612D01*
X2411289Y3600717D01*
X2412496Y3605788D01*
X2413462Y3608202D01*
X2415152Y3611342D01*
X2416359Y3614480D01*
X2417325Y3618344D01*
X2420705Y3625588D01*
X2422154Y3631383D01*
X2425535Y3638627D01*
X2426984Y3644422D01*
X2429157Y3648527D01*
X2430364Y3651666D01*
X2431330Y3655529D01*
X2433262Y3659876D01*
X2433986Y3661566D01*
X2435435Y3665429D01*
X2436159Y3668085D01*
X2435676Y3670017D01*
X2434469Y3671224D01*
X2428674Y3671707D01*
X2427225Y3671224D01*
X2425776Y3671707D01*
X2408632Y3671466D01*
X2404528Y3671707D01*
X2401147Y3672673D01*
X2399940Y3673880D01*
X2398732Y3675570D01*
X2398249Y3678468D01*
X2398491Y3695129D01*
X2398008Y3696578D01*
X2398491Y3703339D01*
X2399698Y3705995D01*
X2402113Y3707444D01*
X2440264Y3707927D01*
X2508840D01*
X2513669Y3707444D01*
D02*
G37*
G36*
X3830850Y3711065D02*
X3836162Y3710583D01*
X3839060Y3710100D01*
X3840991Y3709617D01*
X3843889Y3709134D01*
X3846303Y3708651D01*
X3849201Y3708168D01*
X3853789Y3707444D01*
X3857652Y3706478D01*
X3863206Y3703822D01*
X3866345Y3703097D01*
X3868276Y3702615D01*
X3870691Y3701166D01*
X3875037Y3698751D01*
X3878176Y3697544D01*
X3880833Y3695371D01*
X3885179Y3692956D01*
X3886869Y3691266D01*
X3889525Y3689093D01*
X3890491Y3688610D01*
X3893872Y3685229D01*
X3894838Y3684746D01*
X3896045Y3683539D01*
X3896528Y3682573D01*
X3898218Y3680883D01*
X3899184Y3680400D01*
X3899908Y3679675D01*
X3900391Y3678709D01*
X3902564Y3676536D01*
X3904737Y3673880D01*
X3905221Y3672915D01*
X3908118Y3670017D01*
X3910532Y3665671D01*
X3912464Y3663739D01*
X3915845Y3657461D01*
X3916328Y3656495D01*
X3917535Y3655288D01*
X3918501Y3652873D01*
X3919708Y3649734D01*
X3922847Y3643697D01*
X3923572Y3640558D01*
X3924537Y3637178D01*
X3925745Y3634039D01*
X3927194Y3630176D01*
X3928159Y3624863D01*
X3928642Y3621000D01*
X3929125Y3618102D01*
X3930091Y3613273D01*
X3930815Y3608685D01*
X3931298Y3607237D01*
X3931781Y3594681D01*
X3932264Y3593232D01*
X3931781Y3578261D01*
X3930574Y3568361D01*
X3930091Y3565463D01*
X3929608Y3563532D01*
X3929125Y3560634D01*
X3928642Y3558220D01*
X3927918Y3552183D01*
X3926952Y3548320D01*
X3925745Y3545181D01*
X3924054Y3540593D01*
X3922606Y3534798D01*
X3920433Y3531176D01*
X3918742Y3526588D01*
X3917294Y3523207D01*
X3916328Y3522242D01*
X3914879Y3519827D01*
X3913430Y3516446D01*
X3911498Y3514515D01*
X3909084Y3510168D01*
X3907394Y3508478D01*
X3905221Y3505822D01*
X3904737Y3504856D01*
X3901357Y3501476D01*
X3900874Y3500510D01*
X3894838Y3494473D01*
X3893872Y3493990D01*
X3890974Y3491093D01*
X3888559Y3489644D01*
X3885662Y3486747D01*
X3881315Y3484332D01*
X3880350Y3483849D01*
X3879625Y3483124D01*
X3875762Y3480710D01*
X3873106Y3479985D01*
X3870208Y3478054D01*
X3868518Y3476846D01*
X3865862Y3476122D01*
X3861999Y3475156D01*
X3856686Y3472742D01*
X3855238Y3472259D01*
X3850650Y3471534D01*
X3841233Y3470327D01*
X3839784Y3469844D01*
X3833506Y3469361D01*
X3832057Y3468878D01*
X3819260Y3469120D01*
X3813464Y3469603D01*
X3809601Y3470086D01*
X3805013Y3470810D01*
X3803082Y3471293D01*
X3798252Y3471776D01*
X3796321Y3472259D01*
X3792940Y3473708D01*
X3789318Y3475398D01*
X3786179Y3476122D01*
X3783765Y3477088D01*
X3782799Y3477571D01*
X3781833Y3478537D01*
X3778452Y3480468D01*
X3776037Y3481434D01*
X3774106Y3483366D01*
X3770726Y3485298D01*
X3769760Y3486264D01*
X3768794Y3486747D01*
X3765896Y3489644D01*
X3764930Y3490127D01*
X3757928Y3497129D01*
X3756479Y3499544D01*
X3755513Y3500510D01*
X3755030Y3501476D01*
X3754065Y3502442D01*
X3752133Y3505822D01*
X3751167Y3508237D01*
X3750443Y3508961D01*
X3748028Y3510410D01*
X3746337Y3510168D01*
X3745855Y3504856D01*
X3746337Y3503408D01*
X3746821Y3370603D01*
X3746337Y3367222D01*
X3745130Y3366015D01*
X3742716Y3364566D01*
X3680418Y3364083D01*
X3678004Y3365049D01*
X3677038Y3365532D01*
X3675347Y3368188D01*
X3674865Y3389437D01*
X3675831Y3391851D01*
X3676796Y3392817D01*
X3677279Y3393783D01*
X3678970Y3395474D01*
X3703116Y3395956D01*
X3706497Y3396922D01*
X3708186Y3398612D01*
X3708669Y3402476D01*
X3708186Y3403925D01*
X3708428Y3693922D01*
X3708186Y3697544D01*
X3708669Y3702373D01*
X3709877Y3705512D01*
X3710118Y3705754D01*
Y3706236D01*
X3711808Y3707444D01*
X3738853Y3707927D01*
X3741991Y3706719D01*
X3743923Y3703339D01*
X3744406Y3673880D01*
X3743923Y3672432D01*
X3744164Y3667361D01*
X3745613Y3666878D01*
X3747303Y3668568D01*
X3747786Y3669534D01*
X3750201Y3671948D01*
X3751650Y3674363D01*
X3753582Y3677261D01*
X3754789Y3678951D01*
X3756962Y3681607D01*
X3757445Y3682573D01*
X3758652Y3683780D01*
X3759618Y3684263D01*
X3760825Y3685471D01*
X3761308Y3686436D01*
X3763481Y3688610D01*
X3764447Y3689093D01*
X3766379Y3691024D01*
X3770726Y3694405D01*
X3771691Y3694887D01*
X3773140Y3696336D01*
X3779418Y3699717D01*
X3781591Y3701890D01*
X3785455Y3703339D01*
X3788594Y3704063D01*
X3792215Y3706236D01*
X3794630Y3707202D01*
X3802599Y3708410D01*
X3808394Y3709858D01*
X3809843Y3710341D01*
X3818535Y3710824D01*
X3819984Y3711307D01*
X3830850Y3711065D01*
D02*
G37*
G36*
X4219605D02*
X4224435Y3710583D01*
X4228781Y3710100D01*
X4231920Y3709375D01*
X4234576Y3708651D01*
X4236991Y3708168D01*
X4241579Y3707444D01*
X4243510Y3706961D01*
X4246891Y3705512D01*
X4249547Y3703822D01*
X4251478Y3703339D01*
X4254134Y3702615D01*
X4257515Y3700200D01*
X4261861Y3697785D01*
X4263310Y3696336D01*
X4267656Y3692956D01*
X4268622Y3692473D01*
X4270795Y3689817D01*
X4271278Y3685954D01*
X4270313Y3683539D01*
X4268381Y3681607D01*
X4265966Y3678227D01*
X4265483Y3677261D01*
X4263069Y3674846D01*
X4261620Y3672432D01*
X4258239Y3669051D01*
X4257756Y3668085D01*
X4256549Y3666878D01*
X4252686Y3666395D01*
X4250754Y3666878D01*
X4248339Y3669293D01*
X4242786Y3672432D01*
X4238922Y3674846D01*
X4234335Y3675570D01*
X4232886Y3676054D01*
X4224676Y3676536D01*
X4223227Y3677019D01*
X4220813Y3676536D01*
X4214535Y3676054D01*
X4212603Y3675570D01*
X4209222Y3675088D01*
X4205842Y3674122D01*
X4204876Y3673156D01*
X4198598Y3669775D01*
X4197874Y3669051D01*
X4197391Y3668085D01*
X4195700Y3666395D01*
X4194735Y3665912D01*
X4193527Y3664705D01*
X4191596Y3661324D01*
X4191113Y3660358D01*
X4188940Y3658185D01*
X4187732Y3655046D01*
X4186767Y3651666D01*
X4185076Y3647561D01*
X4184593Y3645629D01*
X4183869Y3642490D01*
X4183386Y3641041D01*
X4182903Y3508719D01*
X4183386Y3505339D01*
X4184110Y3504615D01*
X4185801Y3503890D01*
X4242061Y3504132D01*
X4246891Y3503649D01*
X4248098Y3502442D01*
X4249305Y3500751D01*
X4250513Y3497612D01*
X4250996Y3496163D01*
X4250513Y3488920D01*
X4250996Y3479744D01*
X4249064Y3475398D01*
X4248581Y3474432D01*
X4246408Y3472259D01*
X4188940Y3471776D01*
X4187491Y3472259D01*
X4186042Y3471776D01*
X4184110Y3471293D01*
X4183386Y3470086D01*
X4182903Y3422276D01*
X4181937Y3419861D01*
X4178315Y3417205D01*
X4173969Y3416722D01*
X4149340D01*
X4147408Y3417205D01*
X4146201Y3418412D01*
X4145718Y3419378D01*
X4144752Y3420344D01*
X4144269Y3421310D01*
X4143303Y3422276D01*
X4142820Y3426139D01*
X4143303Y3427588D01*
X4143062Y3460668D01*
X4143303Y3467671D01*
X4142820Y3469603D01*
X4141130Y3471293D01*
X4116018Y3471776D01*
X4113603Y3472742D01*
X4112637Y3473225D01*
X4111430Y3474432D01*
X4110947Y3475398D01*
X4109981Y3476364D01*
X4109498Y3497612D01*
X4110464Y3500993D01*
X4111671Y3502200D01*
X4114086Y3503649D01*
X4134852Y3504132D01*
X4136301Y3503649D01*
X4139681Y3504132D01*
X4141613Y3504615D01*
X4143303Y3506788D01*
X4143062Y3510893D01*
X4143303Y3637178D01*
X4143786Y3639110D01*
X4144510Y3645629D01*
X4144993Y3648527D01*
X4145718Y3654563D01*
X4146201Y3656495D01*
X4146683Y3659876D01*
X4147166Y3661807D01*
X4149823Y3667361D01*
X4150305Y3669293D01*
X4151030Y3672432D01*
X4152961Y3675329D01*
X4155376Y3679675D01*
X4156825Y3682090D01*
X4160205Y3686436D01*
X4160688Y3687403D01*
X4161896Y3688610D01*
X4162861Y3689093D01*
X4165035Y3691749D01*
X4167691Y3693922D01*
X4168657Y3694405D01*
X4169864Y3695612D01*
X4170347Y3696578D01*
X4172520Y3697785D01*
X4176142Y3699958D01*
X4178798Y3702132D01*
X4181213Y3703097D01*
X4185559Y3705029D01*
X4188940Y3706961D01*
X4192803Y3707927D01*
X4196183Y3708410D01*
X4200047Y3709375D01*
X4202703Y3710100D01*
X4208257Y3710824D01*
X4209705Y3711307D01*
X4219605Y3711065D01*
D02*
G37*
G36*
X4070140Y3707444D02*
X4070864Y3706719D01*
X4072796Y3703339D01*
X4073279Y3683056D01*
X4072796Y3681124D01*
X4071830Y3677744D01*
X4070140Y3676054D01*
X4046476Y3675570D01*
X4043096Y3674605D01*
X4042371Y3673880D01*
X4041647Y3672190D01*
X4041889Y3572466D01*
Y3571983D01*
Y3478295D01*
X4039957Y3473949D01*
X4038266Y3472259D01*
X3975969Y3471776D01*
X3972106Y3472742D01*
X3969933Y3475881D01*
X3969450Y3496163D01*
X3970415Y3501959D01*
X3972589Y3503649D01*
X3993837Y3504132D01*
X3997218Y3503649D01*
X4000599Y3504132D01*
X4001806Y3505339D01*
X4002289Y3673397D01*
X4000599Y3675088D01*
X3975969Y3675570D01*
X3972589Y3676054D01*
X3971381Y3677261D01*
X3969933Y3679675D01*
X3969450Y3699958D01*
X3969933Y3701890D01*
X3970415Y3705271D01*
X3973072Y3707444D01*
X4065310Y3707927D01*
X4070140Y3707444D01*
D02*
G37*
G36*
X2684625Y3706961D02*
X2686315Y3704305D01*
X2686798Y3683056D01*
X2686315Y3679675D01*
X2685349Y3677261D01*
X2684142Y3676054D01*
X2641161Y3675570D01*
X2639954Y3674363D01*
X2639230Y3672673D01*
X2639471Y3515480D01*
X2638988Y3507754D01*
X2640195Y3504615D01*
X2641885Y3503890D01*
X2700078Y3504132D01*
X2703942Y3503166D01*
X2704666Y3502442D01*
X2706115Y3500027D01*
X2706598Y3498095D01*
X2707081Y3496646D01*
X2706839Y3484815D01*
X2707081Y3479261D01*
X2705149Y3474915D01*
X2704666Y3473949D01*
X2703942Y3473225D01*
X2701527Y3471776D01*
X2643817Y3472017D01*
X2641161Y3471776D01*
X2639954Y3470569D01*
X2639230Y3468878D01*
X2639471Y3432900D01*
X2639954Y3430968D01*
X2640920Y3425173D01*
X2641885Y3422759D01*
X2643093Y3420103D01*
X2643817Y3417447D01*
X2644783Y3414066D01*
X2646715Y3412134D01*
X2649130Y3407788D01*
X2649854Y3407064D01*
X2650820Y3406581D01*
X2652510Y3404891D01*
X2653717Y3403200D01*
X2657098Y3401269D01*
X2659995Y3399337D01*
X2662652Y3397646D01*
X2664583Y3397164D01*
X2670620Y3395956D01*
X2672068Y3395474D01*
X2680278Y3394991D01*
X2682210Y3395474D01*
X2688729Y3396198D01*
X2691144Y3396681D01*
X2695249Y3397405D01*
X2697905Y3398612D01*
X2701769Y3401027D01*
X2704907Y3402234D01*
X2705873Y3403200D01*
X2706839Y3403683D01*
X2708288Y3405132D01*
X2708771D01*
X2709737Y3405615D01*
X2712151Y3405132D01*
X2716015Y3401269D01*
X2718188Y3398612D01*
X2718671Y3397646D01*
X2720602Y3395715D01*
X2723017Y3392334D01*
X2723500Y3391369D01*
X2726881Y3387988D01*
X2727364Y3383642D01*
X2726398Y3381227D01*
X2724225Y3379537D01*
X2723259Y3379054D01*
X2721327Y3377122D01*
X2720361Y3376639D01*
X2718429Y3374708D01*
X2715049Y3372776D01*
X2714083Y3372293D01*
X2713117Y3371327D01*
X2709737Y3369396D01*
X2705390Y3367464D01*
X2704183Y3366256D01*
X2701769Y3365290D01*
X2698630Y3364566D01*
X2694766Y3363600D01*
X2690661Y3362393D01*
X2688005Y3361668D01*
X2686556Y3361186D01*
X2671103Y3360703D01*
X2661444Y3361668D01*
X2659513Y3362152D01*
X2656856Y3362876D01*
X2654924Y3363359D01*
X2646956Y3365049D01*
X2645025Y3365532D01*
X2639954Y3368188D01*
X2636815Y3369396D01*
X2634400Y3370362D01*
X2633434Y3370844D01*
X2631986Y3372293D01*
X2627639Y3374708D01*
X2625949Y3376398D01*
X2623293Y3378571D01*
X2622327Y3379054D01*
X2621603Y3379778D01*
X2621120Y3380744D01*
X2617981Y3383883D01*
X2615808Y3386540D01*
X2615325Y3387505D01*
X2613393Y3389437D01*
X2611703Y3392093D01*
X2610496Y3395232D01*
X2609530Y3396198D01*
X2609047Y3397164D01*
X2608081Y3398130D01*
X2606632Y3401993D01*
X2606149Y3403925D01*
X2603976Y3408995D01*
X2603010Y3411410D01*
X2601078Y3423966D01*
X2600354Y3429037D01*
X2599871Y3430485D01*
X2599388Y3468154D01*
X2598905Y3470086D01*
X2597215Y3471293D01*
X2572586Y3471776D01*
X2569205Y3472742D01*
X2568239Y3473708D01*
X2566066Y3476364D01*
X2565583Y3497612D01*
X2566549Y3501476D01*
X2569688Y3503649D01*
X2590454Y3504132D01*
X2592386Y3503649D01*
X2595766Y3504132D01*
X2597698Y3504615D01*
X2598905Y3505822D01*
X2599388Y3671948D01*
X2598905Y3673880D01*
X2597215Y3675088D01*
X2572586Y3675570D01*
X2570412Y3676295D01*
X2567032Y3680641D01*
X2566549Y3699958D01*
X2567998Y3704788D01*
X2570654Y3707444D01*
X2680761Y3707927D01*
X2684625Y3706961D01*
D02*
G37*
G36*
X3052614Y3707444D02*
X3054546Y3706961D01*
X3056236Y3704788D01*
X3056719Y3681124D01*
X3055753Y3677744D01*
X3053580Y3676054D01*
X3029434Y3675570D01*
X3026053Y3674605D01*
X3024846Y3672915D01*
X3025088Y3667361D01*
X3024846Y3657461D01*
Y3656978D01*
Y3483124D01*
X3025329Y3481676D01*
X3024846Y3477812D01*
X3024363Y3475881D01*
X3023398Y3473466D01*
X3022190Y3472259D01*
X2958927Y3471776D01*
X2956271Y3472500D01*
X2953856Y3475881D01*
X2953373Y3498095D01*
X2954339Y3501959D01*
X2956512Y3503649D01*
X2981141Y3504132D01*
X2984522Y3504615D01*
X2986212Y3506788D01*
X2985729Y3513066D01*
X2986212Y3514515D01*
X2985970Y3515722D01*
X2986212Y3663256D01*
X2985729Y3664705D01*
X2986212Y3671948D01*
X2985729Y3673880D01*
X2984039Y3675088D01*
X2957961Y3675570D01*
X2955546Y3676536D01*
X2953856Y3679675D01*
X2953373Y3700441D01*
X2953856Y3703822D01*
X2954822Y3706236D01*
X2956512Y3707444D01*
X3049234Y3707927D01*
X3052614Y3707444D01*
D02*
G37*
G36*
X3574899Y3706719D02*
X3576831Y3703339D01*
X3577314Y3684505D01*
X3576831Y3681124D01*
X3576347Y3679675D01*
X3575865Y3677744D01*
X3574174Y3676054D01*
X3549545Y3675570D01*
X3546889Y3674363D01*
X3545682Y3672673D01*
X3545923Y3591783D01*
X3546406Y3588403D01*
X3548338Y3573432D01*
X3548821Y3571500D01*
X3550994Y3566429D01*
X3552443Y3562566D01*
X3553167Y3559427D01*
X3555099Y3556529D01*
X3557031Y3553149D01*
X3557996Y3550734D01*
X3559446Y3549285D01*
X3559928Y3548320D01*
X3560894Y3547354D01*
X3562826Y3543973D01*
X3563309Y3543007D01*
X3564516Y3541800D01*
X3566689Y3539144D01*
X3567172Y3538178D01*
X3568379Y3536971D01*
X3569345Y3536488D01*
X3570070Y3535764D01*
X3570553Y3534798D01*
X3573692Y3531658D01*
X3574658Y3531176D01*
X3575865Y3529968D01*
X3576347Y3529003D01*
X3577072Y3528278D01*
X3580453Y3526346D01*
X3582384Y3524415D01*
X3588662Y3521034D01*
X3590835Y3518861D01*
X3596872Y3516688D01*
X3600977Y3514515D01*
X3603392Y3513549D01*
X3607496Y3512825D01*
X3611360Y3511858D01*
X3614016Y3511134D01*
X3617879Y3510168D01*
X3623674Y3509203D01*
X3642750Y3508478D01*
X3644199Y3508961D01*
X3647096Y3508478D01*
X3649028Y3507995D01*
X3649753Y3507271D01*
X3650960Y3505580D01*
X3651684Y3502925D01*
X3652167Y3501476D01*
Y3500993D01*
Y3479261D01*
X3651201Y3475398D01*
X3650235Y3472983D01*
X3649028Y3471776D01*
X3634541Y3471293D01*
X3632609Y3471776D01*
X3624882Y3472259D01*
X3619087Y3473708D01*
X3614982Y3474915D01*
X3610877Y3475639D01*
X3607014Y3476605D01*
X3603633Y3477571D01*
X3599528Y3479744D01*
X3596872Y3480468D01*
X3593492Y3481434D01*
X3591077Y3482883D01*
X3589387Y3484090D01*
X3586248Y3485298D01*
X3582867Y3486747D01*
X3581901Y3487712D01*
X3577555Y3490127D01*
X3574658Y3493025D01*
X3573692Y3493507D01*
X3572726Y3494473D01*
X3571760Y3494956D01*
X3571036Y3495681D01*
X3570553Y3496646D01*
X3568863Y3498337D01*
X3567897Y3498820D01*
X3566689Y3500027D01*
X3566206Y3500993D01*
X3563067Y3504132D01*
X3560894Y3506788D01*
X3560411Y3507754D01*
X3558962Y3509203D01*
X3556548Y3512583D01*
X3556065Y3513549D01*
X3553650Y3515964D01*
X3550753Y3521276D01*
X3548338Y3525622D01*
X3547855Y3527554D01*
X3546889Y3529968D01*
X3545682Y3531176D01*
X3543750Y3531658D01*
X3542543Y3529968D01*
X3542060Y3483124D01*
X3542543Y3481676D01*
X3542060Y3478295D01*
X3541094Y3475881D01*
X3540611Y3474915D01*
X3537955Y3472259D01*
X3479521Y3471776D01*
X3476141Y3472742D01*
X3473967Y3475881D01*
X3473484Y3498095D01*
X3474451Y3501959D01*
X3476623Y3503649D01*
X3496906Y3504132D01*
X3501736Y3503649D01*
X3505116Y3504615D01*
X3505841Y3505339D01*
X3506323Y3510168D01*
X3505841Y3512100D01*
X3506323Y3513549D01*
X3506082Y3665429D01*
X3506323Y3671948D01*
X3505841Y3673880D01*
X3504633Y3675088D01*
X3479038Y3675570D01*
X3475658Y3676536D01*
X3473967Y3679193D01*
X3473484Y3700441D01*
X3473967Y3703822D01*
X3474933Y3706236D01*
X3477106Y3707444D01*
X3571760Y3707927D01*
X3574899Y3706719D01*
D02*
G37*
G36*
X2852683Y3706478D02*
X2855098Y3702615D01*
X2855580Y3700200D01*
X2855339Y3688368D01*
X2855822Y3684988D01*
X2855339Y3681607D01*
X2853890Y3678227D01*
X2851717Y3676054D01*
X2827571Y3675570D01*
X2825639Y3675088D01*
X2824432Y3673880D01*
X2823949Y3592749D01*
X2824432Y3587920D01*
X2824915Y3580193D01*
X2825398Y3576812D01*
X2826363Y3572949D01*
X2827571Y3570293D01*
X2828778Y3567154D01*
X2829744Y3563290D01*
X2831193Y3559910D01*
X2834090Y3554598D01*
X2835297Y3551942D01*
X2837471Y3549285D01*
X2839402Y3545905D01*
X2839885Y3544939D01*
X2841093Y3543732D01*
X2843266Y3541076D01*
X2843749Y3540110D01*
X2845922Y3537937D01*
X2848095Y3535281D01*
X2849302Y3533590D01*
X2850268Y3533107D01*
X2853166Y3530210D01*
X2857512Y3526829D01*
X2858478Y3526346D01*
X2859685Y3525139D01*
X2862341Y3522966D01*
X2863307Y3522483D01*
X2865722Y3521517D01*
X2866688Y3520552D01*
X2867653Y3520068D01*
X2868861Y3518861D01*
X2873449Y3517171D01*
X2875381Y3516688D01*
X2878278Y3514756D01*
X2879968Y3514032D01*
X2887454Y3512341D01*
X2889385Y3511858D01*
X2893490Y3510651D01*
X2895422Y3510168D01*
X2898319Y3509685D01*
X2902183Y3509203D01*
X2919326Y3508478D01*
X2920776Y3508961D01*
X2925122Y3508478D01*
X2927536Y3507512D01*
X2929710Y3504856D01*
X2930193Y3477330D01*
X2928744Y3473949D01*
X2928261Y3472983D01*
X2926570Y3471776D01*
X2912566Y3471293D01*
X2910634Y3471776D01*
X2902907Y3472259D01*
X2902424D01*
X2900493Y3472742D01*
X2897112Y3473708D01*
X2894456Y3474432D01*
X2892524Y3474915D01*
X2889385Y3475639D01*
X2887454Y3476122D01*
X2884073Y3476605D01*
X2881658Y3477571D01*
X2879485Y3478778D01*
X2874898Y3480468D01*
X2870068Y3481917D01*
X2869102Y3482883D01*
X2868137Y3483366D01*
X2867412Y3484090D01*
X2864273Y3485298D01*
X2861859Y3486264D01*
X2860893Y3486747D01*
X2859927Y3487712D01*
X2854614Y3490610D01*
X2851234Y3493990D01*
X2850268Y3494473D01*
X2843266Y3501476D01*
X2842783Y3502442D01*
X2842059Y3503166D01*
X2841093Y3503649D01*
X2839885Y3504856D01*
X2837954Y3508237D01*
X2836263Y3509927D01*
X2833124Y3514515D01*
X2832642Y3515480D01*
X2831193Y3516929D01*
X2827812Y3523207D01*
X2826605Y3524415D01*
X2825639Y3526829D01*
X2824915Y3529485D01*
X2823949Y3532866D01*
X2822742Y3534073D01*
X2821534Y3533832D01*
X2820327Y3532142D01*
X2819844Y3529727D01*
X2820085Y3478778D01*
X2819602Y3476846D01*
X2818636Y3474432D01*
X2815980Y3472259D01*
X2758030Y3471776D01*
X2754649Y3472742D01*
X2753683Y3473708D01*
X2751510Y3476364D01*
X2751027Y3497612D01*
X2751993Y3501476D01*
X2755132Y3503649D01*
X2775898Y3504132D01*
X2777346Y3503649D01*
X2781693Y3504132D01*
X2783866Y3506788D01*
X2783624Y3665912D01*
X2783866Y3671948D01*
X2783383Y3673880D01*
X2782176Y3675088D01*
X2757547Y3675570D01*
X2754166Y3676536D01*
X2752959Y3677744D01*
X2752476Y3678709D01*
X2751510Y3679675D01*
X2751027Y3700924D01*
X2751993Y3704788D01*
X2753200Y3705995D01*
X2755615Y3707444D01*
X2849302Y3707927D01*
X2852683Y3706478D01*
D02*
G37*
G36*
X4028366Y3445456D02*
X4032955Y3443766D01*
X4036335Y3442317D01*
X4040681Y3437971D01*
X4041647Y3437488D01*
X4042371Y3436764D01*
X4047684Y3426622D01*
X4048167Y3417930D01*
X4047684Y3414549D01*
X4044786Y3408271D01*
X4042854Y3403925D01*
X4041647Y3402717D01*
X4040681Y3402234D01*
X4039474Y3401027D01*
X4038991Y3400061D01*
X4037784Y3398854D01*
X4031506Y3395474D01*
X4028125Y3393542D01*
X4017018Y3393059D01*
X4015086Y3393542D01*
X4005910Y3397888D01*
X4000115Y3403683D01*
X3998184Y3406581D01*
X3996976Y3409720D01*
X3995286Y3413825D01*
X3995045Y3414066D01*
X3994562Y3417930D01*
X3994079Y3419378D01*
X3994562Y3424208D01*
X3995045Y3426139D01*
X3996493Y3429520D01*
X3998425Y3434349D01*
X3999874Y3435798D01*
X4000357Y3436764D01*
X4001081Y3437005D01*
X4001323Y3437730D01*
X4002530Y3438937D01*
X4003496Y3439420D01*
X4004703Y3440627D01*
X4007359Y3442800D01*
X4011223Y3444249D01*
X4015569Y3446181D01*
X4024262Y3446663D01*
X4028366Y3445456D01*
D02*
G37*
G36*
X3009634Y3446181D02*
X3011807Y3445456D01*
X3014946Y3444249D01*
X3019292Y3442317D01*
X3020258Y3441834D01*
X3026778Y3435315D01*
X3027261Y3434349D01*
X3027985Y3433625D01*
X3030158Y3427588D01*
X3031124Y3425173D01*
X3031607Y3420344D01*
X3031124Y3415515D01*
X3029917Y3412376D01*
X3029192Y3409720D01*
X3027743Y3406339D01*
X3027261Y3405373D01*
X3023880Y3401993D01*
X3023398Y3401027D01*
X3021224Y3398854D01*
X3014946Y3395474D01*
X3011565Y3393542D01*
X3001907Y3393059D01*
X2998526Y3393542D01*
X2989351Y3397888D01*
X2983797Y3403442D01*
X2981383Y3407788D01*
X2978485Y3413100D01*
X2978002Y3422276D01*
Y3422759D01*
Y3423242D01*
X2978485Y3426622D01*
X2982831Y3435798D01*
X2985488Y3438454D01*
X2986453Y3438937D01*
X2990076Y3442559D01*
X2994663Y3444249D01*
X2999009Y3446181D01*
X3006253Y3446663D01*
X3009634Y3446181D01*
D02*
G37*
G36*
X3271621Y3711065D02*
X3280314Y3710583D01*
X3284177Y3710100D01*
X3286592Y3709617D01*
X3292870Y3708651D01*
X3299872Y3707927D01*
X3301804Y3707444D01*
X3305185Y3706961D01*
X3308565Y3705995D01*
X3311221Y3705271D01*
X3313636Y3704305D01*
X3315567Y3703822D01*
X3321121Y3702615D01*
X3326433Y3700200D01*
X3331745Y3698268D01*
X3335126Y3697302D01*
X3338507Y3694887D01*
X3341646Y3693680D01*
X3344302Y3692956D01*
X3345509Y3691749D01*
X3348407Y3689817D01*
X3351546Y3688610D01*
X3352511Y3687644D01*
X3353477Y3687161D01*
X3354443Y3686195D01*
X3358790Y3683780D01*
X3359755Y3683297D01*
X3361204Y3681849D01*
X3364585Y3679434D01*
X3365550Y3678951D01*
X3367241Y3677261D01*
X3369897Y3675088D01*
X3370863Y3674605D01*
X3374726Y3670741D01*
X3375692Y3670259D01*
X3376416Y3669534D01*
X3376899Y3668568D01*
X3378107Y3667361D01*
X3379072Y3666878D01*
X3385592Y3660358D01*
X3386075Y3659392D01*
X3389938Y3655529D01*
X3390421Y3654563D01*
X3393801Y3651183D01*
X3395250Y3648768D01*
X3396458Y3647561D01*
X3398631Y3644905D01*
X3400563Y3641524D01*
X3401045Y3640558D01*
X3402494Y3639110D01*
X3405392Y3633798D01*
X3406841Y3632349D01*
X3408772Y3628968D01*
X3409980Y3625829D01*
X3413119Y3621241D01*
X3413602Y3619310D01*
X3417948Y3610134D01*
X3418914Y3606271D01*
X3421570Y3600717D01*
X3422053Y3598785D01*
X3423260Y3593232D01*
X3424468Y3589127D01*
X3425916Y3585264D01*
X3426399Y3583332D01*
X3427365Y3577536D01*
X3427848Y3573673D01*
X3429296Y3564014D01*
X3429780Y3561600D01*
X3430504Y3557012D01*
X3430987Y3555564D01*
X3431470Y3527071D01*
X3430987Y3514998D01*
X3430504Y3511617D01*
X3429538Y3505822D01*
X3429055Y3503890D01*
X3426641Y3486988D01*
X3425916Y3484332D01*
X3425433Y3482400D01*
X3423502Y3477088D01*
X3422777Y3473466D01*
X3421328Y3468637D01*
X3419397Y3464291D01*
X3418431Y3461876D01*
X3417948Y3459944D01*
X3416016Y3455598D01*
X3414326Y3452942D01*
X3413602Y3450286D01*
X3412153Y3446905D01*
X3411187Y3445939D01*
X3407806Y3439661D01*
X3407324Y3438695D01*
X3406358Y3437730D01*
X3403460Y3432417D01*
X3401045Y3430003D01*
X3399114Y3426622D01*
X3396699Y3424208D01*
X3395250Y3421793D01*
X3391870Y3418412D01*
X3391387Y3417447D01*
X3386799Y3412859D01*
X3386558Y3412617D01*
X3386075Y3411652D01*
X3381004Y3406581D01*
X3380038Y3406098D01*
X3377382Y3403442D01*
X3374726Y3401269D01*
X3373760Y3400786D01*
X3372553Y3399578D01*
X3372070Y3398612D01*
X3370380Y3397405D01*
X3369414Y3396922D01*
X3368448Y3395956D01*
X3367482Y3395474D01*
X3367241Y3394749D01*
X3365550Y3393542D01*
X3362170Y3391610D01*
X3360238Y3389679D01*
X3354926Y3386781D01*
X3353477Y3385332D01*
X3350097Y3383400D01*
X3347682Y3382434D01*
X3346716Y3381468D01*
X3345750Y3380986D01*
X3344543Y3379778D01*
X3338507Y3377605D01*
X3335126Y3375191D01*
X3332711Y3374225D01*
X3330780Y3373742D01*
X3324743Y3371086D01*
X3322329Y3370120D01*
X3319673Y3369396D01*
X3317741Y3368913D01*
X3312187Y3367222D01*
X3309772Y3366256D01*
X3307841Y3365774D01*
X3304219Y3365049D01*
X3302287Y3364566D01*
X3294077Y3363600D01*
X3292146Y3363117D01*
X3288765Y3362634D01*
X3286834Y3362152D01*
X3285385Y3361668D01*
X3274761Y3361186D01*
X3273312Y3360703D01*
X3256651Y3360944D01*
X3247958Y3361427D01*
X3245060Y3361910D01*
X3243129Y3362393D01*
X3240714Y3362876D01*
X3225985Y3365049D01*
X3222121Y3366015D01*
X3218016Y3367222D01*
X3214153Y3368671D01*
X3208600Y3369878D01*
X3202321Y3372776D01*
X3199907Y3373742D01*
X3197975Y3374225D01*
X3194836Y3375432D01*
X3191939Y3377364D01*
X3185902Y3379537D01*
X3184453Y3380986D01*
X3180107Y3383400D01*
X3177692Y3384366D01*
X3176243Y3385815D01*
X3170931Y3388713D01*
X3169000Y3390644D01*
X3166343Y3392334D01*
X3163446Y3394266D01*
X3162963Y3395232D01*
X3159824Y3397405D01*
X3158858Y3397888D01*
X3155478Y3401269D01*
X3154512Y3401752D01*
X3151131Y3405132D01*
X3150165Y3405615D01*
X3148233Y3407547D01*
X3147268Y3408030D01*
X3146543Y3408754D01*
X3146061Y3409720D01*
X3139783Y3415998D01*
X3139300Y3416964D01*
X3137126Y3419137D01*
X3134953Y3421793D01*
X3134470Y3422759D01*
X3132539Y3424691D01*
X3130124Y3428071D01*
X3129641Y3429037D01*
X3127709Y3430968D01*
X3125295Y3435315D01*
X3123846Y3436764D01*
X3121431Y3441110D01*
X3120465Y3443524D01*
X3119016Y3444973D01*
X3117809Y3446663D01*
X3115395Y3452942D01*
X3112497Y3457771D01*
X3111773Y3460910D01*
X3108634Y3466946D01*
X3108151Y3468878D01*
X3107427Y3472017D01*
X3106461Y3475881D01*
X3105253Y3478537D01*
X3104288Y3480951D01*
X3103804Y3483366D01*
X3102356Y3492059D01*
X3101390Y3496888D01*
X3100907Y3498820D01*
X3100424Y3501717D01*
X3099941Y3504132D01*
X3099217Y3509685D01*
X3098734Y3511134D01*
X3098251Y3533349D01*
X3098734Y3555564D01*
X3099217Y3557495D01*
X3099941Y3564014D01*
X3101390Y3571259D01*
X3101873Y3573190D01*
X3103080Y3580675D01*
X3104046Y3586471D01*
X3105253Y3589610D01*
X3106702Y3593473D01*
X3107668Y3597336D01*
X3108392Y3601442D01*
X3110566Y3605063D01*
X3111773Y3608202D01*
X3113222Y3613032D01*
X3115395Y3616654D01*
X3116361Y3619068D01*
X3117568Y3622207D01*
X3119500Y3625105D01*
X3121431Y3628485D01*
X3122397Y3630900D01*
X3122880Y3631866D01*
X3124329Y3633315D01*
X3126744Y3637661D01*
X3127226Y3638627D01*
X3129158Y3640558D01*
X3131573Y3644905D01*
X3133987Y3647319D01*
X3135436Y3649734D01*
X3139300Y3653597D01*
X3139783Y3654563D01*
X3143646Y3658427D01*
X3144129Y3659392D01*
X3150648Y3665912D01*
X3151614Y3666395D01*
X3153304Y3668085D01*
X3153787Y3669051D01*
X3154512Y3669775D01*
X3155478Y3670259D01*
X3157892Y3672673D01*
X3162239Y3676054D01*
X3163204Y3676536D01*
X3163446Y3677261D01*
X3164170Y3677985D01*
X3165136Y3678468D01*
X3168516Y3680883D01*
X3169482Y3681366D01*
X3170931Y3682815D01*
X3176243Y3685712D01*
X3177692Y3687161D01*
X3183970Y3690542D01*
X3184936Y3691507D01*
X3185902Y3691990D01*
X3186626Y3692714D01*
X3189766Y3693922D01*
X3194112Y3695853D01*
X3195802Y3697061D01*
X3200390Y3698751D01*
X3203770Y3699717D01*
X3206909Y3701407D01*
X3209324Y3702373D01*
X3212463Y3703097D01*
X3218258Y3704546D01*
X3220673Y3705512D01*
X3222846Y3706236D01*
X3225985Y3706961D01*
X3227433Y3707444D01*
X3233228Y3707927D01*
X3235160Y3708410D01*
X3243370Y3709375D01*
X3245302Y3709858D01*
X3246750Y3710341D01*
X3257858Y3710824D01*
X3259307Y3711307D01*
X3271621Y3711065D01*
D02*
G37*
G36*
X3170448Y3331727D02*
X3173829Y3328347D01*
X3174795Y3327864D01*
X3176243Y3327381D01*
X3192663Y3326898D01*
X3195078Y3325932D01*
X3196526Y3324483D01*
X3200631Y3321827D01*
X3203287Y3319654D01*
X3210531Y3319171D01*
X3216326Y3320620D01*
X3217775Y3321103D01*
X3221639Y3320137D01*
X3222604Y3319171D01*
X3227917Y3318688D01*
X3230572Y3319413D01*
X3235885Y3321344D01*
X3237816Y3321827D01*
X3242404Y3322552D01*
X3244336Y3322069D01*
X3246509Y3320862D01*
X3249165Y3318688D01*
X3253029Y3318205D01*
X3254478Y3318688D01*
X3257375Y3319171D01*
X3259307Y3318688D01*
X3260031Y3317481D01*
X3260514Y3315549D01*
X3262687Y3313376D01*
X3277175Y3312893D01*
X3284419Y3309513D01*
X3286834Y3308547D01*
X3288041Y3307340D01*
X3290697Y3305166D01*
X3291663Y3304684D01*
X3292629Y3303718D01*
X3293594Y3303235D01*
X3293836Y3302510D01*
X3295043Y3301303D01*
X3296009Y3300820D01*
X3299872Y3298405D01*
X3302287Y3295508D01*
X3303253Y3295025D01*
X3307358Y3290920D01*
X3310255Y3288989D01*
X3310738Y3288022D01*
X3314602Y3284159D01*
X3317016Y3279813D01*
X3317499Y3278847D01*
X3318948Y3277398D01*
X3320880Y3274018D01*
X3324743Y3270154D01*
X3325226Y3269188D01*
X3326916Y3267498D01*
X3327882Y3267015D01*
X3329090Y3265808D01*
X3329572Y3264842D01*
X3331745Y3262669D01*
X3332711Y3262186D01*
X3333436Y3261462D01*
X3335609Y3257357D01*
X3337782Y3254701D01*
X3340197Y3250354D01*
X3342129Y3248423D01*
X3344060Y3245042D01*
X3345026Y3242627D01*
X3346475Y3241179D01*
X3349372Y3235866D01*
X3351304Y3233935D01*
X3352994Y3231279D01*
X3353719Y3228622D01*
X3356133Y3226208D01*
X3358065Y3222827D01*
X3358790Y3222103D01*
X3362170Y3220172D01*
X3363377Y3218964D01*
X3367965Y3215825D01*
X3368931Y3215342D01*
X3370863Y3212927D01*
X3372070Y3209788D01*
X3372553Y3207857D01*
X3375450Y3201578D01*
X3376416Y3190471D01*
X3376899Y3188540D01*
X3378831Y3184193D01*
X3379797Y3181778D01*
X3380279Y3172603D01*
X3379797Y3170671D01*
X3375933Y3166808D01*
X3375450Y3163910D01*
X3376416Y3160530D01*
X3377382Y3159564D01*
X3377865Y3158598D01*
X3381970Y3155942D01*
X3383902Y3155459D01*
X3388731Y3152079D01*
X3389697Y3151596D01*
X3392594Y3149664D01*
X3395975Y3147249D01*
X3401770Y3146766D01*
X3403702Y3146284D01*
X3410704Y3143145D01*
X3413119Y3142179D01*
X3416016Y3140247D01*
X3416499Y3139281D01*
X3417224Y3138557D01*
X3418431Y3135418D01*
X3418914Y3133486D01*
X3419397Y3132037D01*
X3419155Y3129381D01*
X3418672Y3125518D01*
X3418914Y3122379D01*
X3421328Y3117066D01*
X3421812Y3112720D01*
X3422294Y3111271D01*
X3422777Y3098232D01*
X3421328Y3094852D01*
X3418914Y3091472D01*
X3418189Y3086884D01*
X3417465Y3083744D01*
X3414084Y3076501D01*
X3413119Y3073120D01*
X3411670Y3071672D01*
X3409255Y3068291D01*
X3408772Y3061047D01*
X3409738Y3058633D01*
X3410221Y3057666D01*
X3412877Y3055494D01*
X3416257Y3053562D01*
X3416982Y3052837D01*
X3417465Y3051871D01*
X3420121Y3049215D01*
X3421087Y3048733D01*
X3421812Y3048008D01*
X3422294Y3047042D01*
X3424950Y3044386D01*
X3425916Y3043903D01*
X3427123Y3042213D01*
X3427606Y3041247D01*
X3428331Y3040523D01*
X3431711Y3038108D01*
X3437990Y3034728D01*
X3438956Y3034245D01*
X3440404Y3032313D01*
X3441128Y3029657D01*
X3441853Y3027484D01*
X3444267Y3026035D01*
X3446440Y3023862D01*
X3446924Y3022896D01*
X3451753Y3018067D01*
X3454168Y3017101D01*
X3457307Y3015893D01*
X3458031Y3015169D01*
X3460928Y3013237D01*
X3462860Y3012754D01*
X3465999Y3012030D01*
X3469380Y3010581D01*
X3472760Y3008650D01*
X3476141Y3008167D01*
X3478072Y3007684D01*
X3481211Y3005994D01*
X3481694Y3005028D01*
X3482901Y3003820D01*
X3483867Y3003337D01*
X3485316Y3001888D01*
X3486282Y3001406D01*
X3486523Y3000681D01*
X3488214Y2999474D01*
X3490629Y2998025D01*
X3491836Y2996335D01*
X3492319Y2995369D01*
X3493284Y2992955D01*
X3499562Y2986676D01*
X3502460Y2981364D01*
X3505358Y2978467D01*
X3505841Y2973638D01*
X3506323Y2970257D01*
X3508738Y2964945D01*
X3507289Y2961564D01*
X3505841Y2959150D01*
X3505358Y2947076D01*
X3504875Y2943696D01*
X3503909Y2941282D01*
X3504150Y2925103D01*
X3505358Y2917618D01*
X3505841Y2916169D01*
X3506323Y2908442D01*
X3505358Y2906028D01*
X3504633Y2905304D01*
X3503667Y2904821D01*
X3502943Y2903613D01*
X3500528Y2899267D01*
X3498597Y2897335D01*
X3496665Y2893955D01*
X3493767Y2891057D01*
X3491353Y2886711D01*
X3488938Y2884296D01*
X3487006Y2880915D01*
X3486523Y2879950D01*
X3485075Y2878501D01*
X3482660Y2875120D01*
X3482177Y2874155D01*
X3479762Y2871740D01*
X3477348Y2867394D01*
X3475416Y2865462D01*
X3473002Y2861116D01*
X3471070Y2859184D01*
X3468655Y2855804D01*
X3468172Y2854838D01*
X3466240Y2852906D01*
X3463826Y2848559D01*
X3461411Y2846145D01*
X3459479Y2842765D01*
X3455616Y2838901D01*
X3455133Y2837935D01*
X3453926Y2836728D01*
X3452960Y2836245D01*
X3451270Y2834555D01*
X3450787Y2833589D01*
X3449097Y2831899D01*
X3448131Y2831416D01*
X3445958Y2829243D01*
X3443060Y2827311D01*
X3439921Y2826104D01*
X3437265Y2823447D01*
X3434850Y2822482D01*
X3431711Y2821757D01*
X3426641Y2819584D01*
X3422777Y2818135D01*
X3417224Y2817411D01*
X3410463Y2816445D01*
X3409014Y2815962D01*
X3350097Y2815479D01*
X3343819Y2814996D01*
X3341887Y2815479D01*
X3337782Y2816687D01*
X3335851Y2817169D01*
X3331745Y2817894D01*
X3329814Y2818377D01*
X3327399Y2819342D01*
X3324743Y2820550D01*
X3322329Y2821516D01*
X3319190Y2822240D01*
X3316775Y2823206D01*
X3314843Y2825138D01*
X3309531Y2828035D01*
X3307116Y2830450D01*
X3303736Y2832381D01*
X3300838Y2835279D01*
X3299872Y2835762D01*
X3298182Y2837452D01*
X3297699Y2838418D01*
X3296733Y2839384D01*
X3296250Y2840350D01*
X3295526Y2840591D01*
X3294319Y2841798D01*
X3292387Y2845179D01*
X3291904Y2846145D01*
X3289973Y2848077D01*
X3287558Y2852423D01*
X3285626Y2854355D01*
X3283211Y2857735D01*
X3282729Y2858701D01*
X3280314Y2861116D01*
X3278382Y2864496D01*
X3277899Y2865462D01*
X3275968Y2867394D01*
X3273553Y2871740D01*
X3271621Y2873672D01*
X3269207Y2877052D01*
X3268724Y2878018D01*
X3266309Y2880433D01*
X3264378Y2883813D01*
X3263894Y2884779D01*
X3261963Y2886711D01*
X3260031Y2890091D01*
X3257134Y2892989D01*
X3255202Y2896369D01*
X3254719Y2897335D01*
X3252787Y2899267D01*
X3250372Y2903613D01*
X3248441Y2905545D01*
X3246026Y2908925D01*
X3245543Y2909891D01*
X3244336Y2911099D01*
X3242163Y2913755D01*
X3240955Y2915445D01*
X3239266Y2916652D01*
X3238782Y2917618D01*
X3237092Y2918825D01*
X3235402Y2919550D01*
X3232987Y2920033D01*
X3228158Y2920516D01*
X3223812Y2920033D01*
X3220673Y2919308D01*
X3218499Y2916652D01*
X3218016Y2915686D01*
X3217292Y2914962D01*
X3215119Y2912306D01*
X3214636Y2907477D01*
X3214153Y2906028D01*
X3214636Y2775155D01*
X3215602Y2768394D01*
X3217292Y2762840D01*
X3218258Y2758977D01*
X3218982Y2754872D01*
X3219465Y2752940D01*
X3220914Y2749560D01*
X3222121Y2747870D01*
X3223088Y2745455D01*
X3223812Y2742316D01*
X3225743Y2739418D01*
X3227675Y2736038D01*
X3229124Y2732657D01*
X3230572Y2731208D01*
X3232987Y2726862D01*
X3235160Y2724689D01*
X3237334Y2722033D01*
X3237816Y2721067D01*
X3241197Y2717686D01*
X3241680Y2716721D01*
X3251097Y2707304D01*
X3254478Y2705372D01*
X3255202Y2704648D01*
X3255685Y2703682D01*
X3256651Y2702716D01*
X3257134Y2701750D01*
X3258583Y2700301D01*
X3259307Y2698611D01*
X3259790Y2686538D01*
X3260755Y2658045D01*
X3261238Y2651767D01*
X3261721Y2647904D01*
X3262687Y2642109D01*
X3263170Y2639694D01*
X3263653Y2636796D01*
X3264136Y2632933D01*
X3264619Y2628587D01*
X3265102Y2621826D01*
X3265585Y2616997D01*
X3266067Y2614099D01*
X3266550Y2611684D01*
X3268482Y2603957D01*
X3268965Y2601543D01*
X3269690Y2595989D01*
X3270414Y2589470D01*
X3270897Y2587055D01*
X3271621Y2583916D01*
X3272829Y2579811D01*
X3273312Y2577880D01*
X3274036Y2575223D01*
X3275002Y2568462D01*
X3275485Y2566531D01*
X3276692Y2562426D01*
X3277658Y2560011D01*
X3278624Y2556148D01*
X3279348Y2550111D01*
X3280314Y2546731D01*
X3280797Y2544799D01*
X3281763Y2542385D01*
X3282970Y2539245D01*
X3283453Y2536831D01*
X3284177Y2532243D01*
X3286592Y2526931D01*
X3288041Y2523067D01*
X3288524Y2519687D01*
X3289007Y2517755D01*
X3291180Y2512685D01*
X3292146Y2510270D01*
X3292629Y2507855D01*
X3293353Y2503750D01*
X3294802Y2500370D01*
X3295284Y2499404D01*
X3296009Y2498680D01*
X3296975Y2496265D01*
X3297458Y2493850D01*
X3298182Y2490711D01*
X3299631Y2487331D01*
X3300355Y2486606D01*
X3301321Y2484192D01*
X3302046Y2481536D01*
X3303495Y2476707D01*
X3304702Y2474533D01*
X3306151Y2471636D01*
X3307358Y2466082D01*
X3308565Y2463426D01*
X3310980Y2459563D01*
X3311704Y2456423D01*
X3312670Y2454009D01*
X3314843Y2450870D01*
X3316533Y2446282D01*
X3317982Y2442902D01*
X3319673Y2440245D01*
X3320638Y2437831D01*
X3321363Y2434692D01*
X3323294Y2431794D01*
X3325226Y2428414D01*
X3325709Y2425516D01*
X3329090Y2420687D01*
X3331021Y2415375D01*
X3332470Y2413926D01*
X3334402Y2410546D01*
X3335851Y2407165D01*
X3336333Y2406199D01*
X3337299Y2405233D01*
X3338507Y2403543D01*
X3339714Y2400404D01*
X3340680Y2397990D01*
X3341646Y2397024D01*
X3344060Y2392677D01*
X3345026Y2390263D01*
X3345509Y2389297D01*
X3346475Y2388331D01*
X3348889Y2383985D01*
X3349855Y2381570D01*
X3350821Y2380604D01*
X3354202Y2374326D01*
X3357582Y2371911D01*
X3358065Y2370945D01*
X3359755Y2369255D01*
X3366999Y2365392D01*
X3367965Y2364909D01*
X3370380Y2363943D01*
X3380038Y2363460D01*
X3383419Y2363943D01*
X3385350Y2364426D01*
X3391628Y2367324D01*
X3395009Y2368773D01*
X3395975Y2369255D01*
X3398631Y2371911D01*
X3399114Y2372877D01*
X3400080Y2373843D01*
X3400563Y2374809D01*
X3402494Y2376741D01*
X3404426Y2380121D01*
X3404909Y2382053D01*
X3406841Y2383985D01*
X3407324Y2384951D01*
X3408048Y2385675D01*
X3409255Y2388814D01*
X3410463Y2391470D01*
X3412636Y2394126D01*
X3414567Y2398955D01*
X3416016Y2400404D01*
X3417224Y2402094D01*
X3418914Y2406682D01*
X3420363Y2408131D01*
X3420846Y2409097D01*
X3421812Y2410063D01*
X3423260Y2413926D01*
X3424468Y2416582D01*
X3426882Y2420446D01*
X3427365Y2422377D01*
X3428089Y2425033D01*
X3430745Y2428655D01*
X3431953Y2431794D01*
X3432436Y2433726D01*
X3433643Y2436382D01*
X3436058Y2440245D01*
X3436782Y2442902D01*
X3438231Y2446282D01*
X3438714Y2447248D01*
X3439921Y2448455D01*
X3441611Y2453043D01*
X3442577Y2456423D01*
X3444509Y2459321D01*
X3445233Y2461012D01*
X3446199Y2464875D01*
X3446924Y2467531D01*
X3448855Y2470428D01*
X3449338Y2471394D01*
X3450304Y2473809D01*
X3450787Y2476707D01*
X3452719Y2481053D01*
X3453926Y2482743D01*
X3454892Y2485158D01*
X3455375Y2487572D01*
X3455858Y2489504D01*
X3457065Y2492643D01*
X3457789Y2493368D01*
X3459479Y2497955D01*
X3459963Y2499887D01*
X3460445Y2503268D01*
X3462618Y2508338D01*
X3464067Y2512201D01*
X3464550Y2515099D01*
X3465275Y2518238D01*
X3468172Y2524516D01*
X3469621Y2531277D01*
X3470104Y2533209D01*
X3470828Y2535865D01*
X3472035Y2539004D01*
X3473002Y2541419D01*
X3473484Y2545282D01*
X3473967Y2547214D01*
X3474451Y2550594D01*
X3477589Y2560494D01*
X3478314Y2564599D01*
X3478796Y2567979D01*
X3479280Y2569911D01*
X3480728Y2574741D01*
X3481453Y2577396D01*
X3481935Y2579811D01*
X3482418Y2582709D01*
X3483143Y2589228D01*
X3484109Y2595989D01*
X3485075Y2599853D01*
X3485799Y2602509D01*
X3486282Y2604441D01*
X3486765Y2606855D01*
X3487248Y2609753D01*
X3487731Y2614099D01*
X3488214Y2619894D01*
X3488697Y2624241D01*
X3489180Y2628104D01*
X3489663Y2630518D01*
X3490629Y2636313D01*
X3491594Y2642592D01*
X3492560Y2656114D01*
X3493043Y2665289D01*
X3494250Y2684365D01*
X3494733Y2685814D01*
X3495216Y2697404D01*
X3495699Y2699335D01*
X3496665Y2701750D01*
X3497631Y2702716D01*
X3498113Y2703682D01*
X3498838Y2704406D01*
X3503185Y2706821D01*
X3505358Y2708994D01*
X3505841Y2709960D01*
X3506565Y2710684D01*
X3507531Y2711167D01*
X3509704Y2713340D01*
X3510187Y2714306D01*
X3511152Y2715272D01*
X3511636Y2716238D01*
X3513326Y2717928D01*
X3515499Y2720584D01*
X3515982Y2721550D01*
X3519363Y2724931D01*
X3521294Y2728311D01*
X3521777Y2729277D01*
X3523226Y2730726D01*
X3524675Y2733140D01*
X3526606Y2737486D01*
X3528780Y2739660D01*
X3532160Y2740143D01*
X3532884Y2739418D01*
X3534816Y2736038D01*
X3536507Y2734347D01*
X3537472Y2733864D01*
X3537714Y2733140D01*
X3538438Y2732416D01*
X3539645Y2729277D01*
X3542301Y2726621D01*
X3545682Y2724689D01*
X3546647Y2724206D01*
X3550028Y2720826D01*
X3550994Y2720343D01*
X3552201Y2719135D01*
X3552685Y2718169D01*
X3554858Y2715996D01*
X3555823Y2715513D01*
X3556548Y2714789D01*
X3557031Y2713823D01*
X3559204Y2711650D01*
X3560170Y2711167D01*
X3561377Y2709960D01*
X3561860Y2708994D01*
X3563067Y2707787D01*
X3565482Y2706338D01*
X3568863Y2702957D01*
X3569828Y2702474D01*
X3571519Y2700784D01*
X3572001Y2699818D01*
X3573208Y2698611D01*
X3574174Y2698128D01*
X3578038Y2694265D01*
X3579004Y2693782D01*
X3579728Y2693058D01*
X3584316Y2691367D01*
X3588421Y2689194D01*
X3591560Y2687987D01*
X3593975Y2687021D01*
X3594940Y2686538D01*
X3595665Y2685814D01*
X3596147Y2684848D01*
X3596872Y2684606D01*
X3597596Y2683882D01*
X3598079Y2682916D01*
X3599045Y2681950D01*
X3599528Y2680984D01*
X3603392Y2677121D01*
X3603874Y2676155D01*
X3605565Y2674465D01*
X3606531Y2673982D01*
X3608221Y2672292D01*
X3608704Y2671326D01*
X3611360Y2669152D01*
X3613533Y2666496D01*
X3616189Y2664323D01*
X3617155Y2663840D01*
X3620535Y2660460D01*
X3621502Y2659977D01*
X3623674Y2657804D01*
X3624157Y2656838D01*
X3624882Y2656597D01*
X3625606Y2655872D01*
X3628021Y2651526D01*
X3629470Y2650077D01*
X3630677Y2648387D01*
X3631401Y2645731D01*
X3632367Y2643316D01*
X3634299Y2641384D01*
X3635748Y2638970D01*
X3642267Y2632450D01*
X3643233Y2631967D01*
X3644440Y2630760D01*
X3646855Y2626414D01*
X3647338Y2625448D01*
X3648062Y2624723D01*
X3649028Y2622309D01*
X3649511Y2619894D01*
X3650235Y2617238D01*
X3651201Y2614823D01*
X3652167Y2613858D01*
X3653374Y2612167D01*
X3654582Y2609028D01*
X3656996Y2603716D01*
X3658928Y2600335D01*
X3659411Y2595506D01*
X3660377Y2593092D01*
X3662309Y2591160D01*
X3664723Y2586813D01*
X3666655Y2584882D01*
X3669552Y2579570D01*
X3673657Y2575465D01*
X3674623Y2573050D01*
X3675831Y2569911D01*
X3676796Y2566048D01*
X3677279Y2564599D01*
X3677762Y2557355D01*
X3678728Y2553975D01*
X3681143Y2551560D01*
X3683074Y2546248D01*
X3684765Y2544558D01*
X3685730Y2544075D01*
X3686938Y2542385D01*
X3687421Y2541419D01*
X3691284Y2537555D01*
X3691767Y2536589D01*
X3693940Y2534416D01*
X3696113Y2531760D01*
X3696596Y2530794D01*
X3697803Y2529587D01*
X3698769Y2529104D01*
X3699494Y2528379D01*
X3701426Y2524999D01*
X3703116Y2523309D01*
X3705289Y2520653D01*
X3705772Y2519687D01*
X3708428Y2517031D01*
X3710601Y2514375D01*
X3711084Y2513409D01*
X3713981Y2510511D01*
X3715430Y2508097D01*
X3716155Y2507372D01*
X3717845Y2506165D01*
X3719777Y2502784D01*
X3722191Y2500370D01*
X3724606Y2496989D01*
X3725089Y2496023D01*
X3727504Y2493609D01*
X3728952Y2491194D01*
X3731125Y2489021D01*
X3733299Y2486365D01*
X3733782Y2485399D01*
X3735713Y2483467D01*
X3738128Y2480087D01*
X3738611Y2479121D01*
X3741026Y2476707D01*
X3743440Y2472360D01*
X3746337Y2469462D01*
X3747786Y2467048D01*
X3750201Y2464633D01*
X3752133Y2461253D01*
X3755030Y2458355D01*
X3757445Y2454009D01*
X3759860Y2451594D01*
X3761791Y2448214D01*
X3764206Y2445799D01*
X3766621Y2441453D01*
X3769035Y2439038D01*
X3770967Y2435658D01*
X3771450Y2434692D01*
X3773864Y2432277D01*
X3775796Y2428897D01*
X3778211Y2426482D01*
X3779659Y2424067D01*
X3781350Y2420928D01*
X3782316Y2420446D01*
X3783040Y2419238D01*
X3784972Y2415858D01*
X3786662Y2414167D01*
X3788835Y2411512D01*
X3789318Y2409580D01*
X3790042Y2408855D01*
X3792215Y2406199D01*
X3794630Y2401853D01*
X3797045Y2399438D01*
X3798977Y2396058D01*
X3799460Y2395092D01*
X3800909Y2393643D01*
X3803806Y2388331D01*
X3805738Y2386399D01*
X3809360Y2380363D01*
X3811533Y2377707D01*
X3812015Y2376741D01*
X3812981Y2374326D01*
X3814913Y2372394D01*
X3817811Y2367082D01*
X3819742Y2365150D01*
X3822157Y2360805D01*
X3824089Y2358873D01*
X3826021Y2355492D01*
X3827952Y2353560D01*
X3830850Y2353077D01*
X3842199Y2353319D01*
X3850409Y2354285D01*
X3853789Y2354767D01*
X3855721Y2355251D01*
X3858377Y2355975D01*
X3863689Y2357907D01*
X3866587Y2358390D01*
X3870208Y2359114D01*
X3873589Y2360563D01*
X3874555Y2361046D01*
X3875279Y2361770D01*
X3879867Y2363460D01*
X3883247Y2364426D01*
X3885662Y2366841D01*
X3888077Y2367807D01*
X3890008Y2367324D01*
X3891215Y2366116D01*
X3890974Y2362495D01*
X3889767Y2356941D01*
X3888077Y2352836D01*
X3887594Y2350904D01*
X3887111Y2348490D01*
X3886628Y2344627D01*
X3885904Y2337141D01*
X3885420Y2335692D01*
X3884938Y2317341D01*
X3885420Y2315409D01*
X3886386Y2307199D01*
X3886869Y2300921D01*
X3887352Y2298990D01*
X3890008Y2292953D01*
X3890491Y2291021D01*
X3891215Y2287400D01*
X3892423Y2283294D01*
X3894354Y2280397D01*
X3895562Y2277258D01*
X3896045Y2275326D01*
X3896769Y2273153D01*
X3898942Y2270497D01*
X3899425Y2269048D01*
X3898701Y2266875D01*
X3896286Y2266392D01*
X3893630Y2267116D01*
X3890491Y2268324D01*
X3887111Y2269773D01*
X3882281Y2270255D01*
X3880833Y2270738D01*
X3874555Y2271222D01*
X3872864Y2269048D01*
X3873347Y2266151D01*
X3875279Y2264219D01*
X3876486Y2262529D01*
X3877211Y2259873D01*
X3877694Y2257941D01*
X3878901Y2255768D01*
X3880833Y2252870D01*
X3882040Y2247799D01*
X3883247Y2245144D01*
X3885662Y2241280D01*
X3886145Y2239348D01*
X3886869Y2236209D01*
X3890491Y2229207D01*
X3891215Y2226068D01*
X3892181Y2222687D01*
X3893872Y2219548D01*
X3894838Y2217134D01*
X3896045Y2211580D01*
X3896769Y2209407D01*
X3897735Y2206992D01*
X3899184Y2204095D01*
X3899667Y2202163D01*
X3900391Y2198541D01*
X3901357Y2194678D01*
X3902564Y2191539D01*
X3904013Y2187675D01*
X3904496Y2185743D01*
X3905221Y2180190D01*
X3906186Y2176327D01*
X3906911Y2173670D01*
X3907876Y2171255D01*
X3908359Y2168841D01*
X3908842Y2166910D01*
X3909566Y2161356D01*
X3910291Y2154836D01*
X3911740Y2146144D01*
X3912464Y2141073D01*
X3912947Y2139624D01*
X3913430Y2118858D01*
X3912947Y2112580D01*
X3911740Y2102680D01*
X3911257Y2100266D01*
X3910532Y2097127D01*
X3910050Y2095678D01*
X3909566Y2090848D01*
X3909084Y2088917D01*
X3908601Y2085536D01*
X3906911Y2081431D01*
X3905221Y2076844D01*
X3903772Y2072014D01*
X3901357Y2068634D01*
X3900633Y2066944D01*
X3899908Y2064287D01*
X3897494Y2060907D01*
X3894596Y2055595D01*
X3892664Y2053663D01*
X3890250Y2050283D01*
X3889767Y2049317D01*
X3889043Y2049075D01*
X3886386Y2046419D01*
X3885904Y2045454D01*
X3883247Y2043280D01*
X3881074Y2040624D01*
X3878418Y2038451D01*
X3877452Y2037968D01*
X3876486Y2036519D01*
X3873106Y2034105D01*
X3872140Y2033622D01*
X3870208Y2031690D01*
X3864896Y2028792D01*
X3863930Y2028310D01*
X3862481Y2026861D01*
X3860791Y2025653D01*
X3857652Y2024446D01*
X3855238Y2023480D01*
X3854272Y2022997D01*
X3853064Y2021790D01*
X3848477Y2020100D01*
X3844372Y2018892D01*
X3839542Y2016961D01*
X3837611Y2016478D01*
X3835196Y2015995D01*
X3831333Y2015512D01*
X3828918Y2015029D01*
X3825055Y2014063D01*
X3821191Y2012614D01*
X3819260Y2012132D01*
X3816362Y2011649D01*
X3806221Y2011166D01*
X3785213Y2010441D01*
X3765896Y2010924D01*
X3751650Y2011649D01*
X3746337Y2012132D01*
X3741991Y2012614D01*
X3739094Y2013098D01*
X3736679Y2013580D01*
X3732816Y2014546D01*
X3730401Y2015029D01*
X3723882Y2015753D01*
X3717121Y2016719D01*
X3713257Y2017685D01*
X3709152Y2018892D01*
X3705289Y2019859D01*
X3700943Y2020341D01*
X3697079Y2020824D01*
X3694664Y2021307D01*
X3691526Y2022032D01*
X3689111Y2022997D01*
X3686455Y2023722D01*
X3681384Y2024929D01*
X3678004Y2025412D01*
X3674623Y2026378D01*
X3669311Y2028792D01*
X3665931Y2029276D01*
X3663999Y2029758D01*
X3660618Y2030241D01*
X3655548Y2032415D01*
X3653133Y2033380D01*
X3651201Y2033863D01*
X3648062Y2034587D01*
X3644682Y2035553D01*
X3641060Y2037726D01*
X3635989Y2038934D01*
X3632125Y2039900D01*
X3627055Y2042556D01*
X3623916Y2043280D01*
X3620053Y2044246D01*
X3614016Y2047385D01*
X3610394Y2048110D01*
X3607014Y2049075D01*
X3602909Y2051249D01*
X3600494Y2052214D01*
X3597355Y2052938D01*
X3595423Y2053422D01*
X3593009Y2054388D01*
X3589628Y2056802D01*
X3586731Y2057285D01*
X3581418Y2059700D01*
X3578038Y2061632D01*
X3574174Y2062598D01*
X3570794Y2064046D01*
X3569828Y2064529D01*
X3569104Y2065253D01*
X3566689Y2066219D01*
X3564033Y2066944D01*
X3559687Y2068875D01*
X3557996Y2070083D01*
X3554858Y2071290D01*
X3552926Y2071773D01*
X3550511Y2072739D01*
X3548821Y2074429D01*
X3545682Y2075636D01*
X3542301Y2076602D01*
X3539887Y2078051D01*
X3538197Y2079258D01*
X3535782Y2080224D01*
X3533126Y2080949D01*
X3529745Y2082397D01*
X3528538Y2083605D01*
X3524675Y2085053D01*
X3522019Y2085778D01*
X3518880Y2087468D01*
X3515982Y2089400D01*
X3512843Y2090124D01*
X3509704Y2091331D01*
X3505841Y2093746D01*
X3503185Y2094471D01*
X3499804Y2095919D01*
X3498838Y2096402D01*
X3497389Y2097851D01*
X3492077Y2099783D01*
X3487248Y2103163D01*
X3485316Y2103646D01*
X3481935Y2105095D01*
X3480970Y2105578D01*
X3479280Y2107268D01*
X3476141Y2108475D01*
X3474209Y2108958D01*
X3471311Y2110890D01*
X3469621Y2112097D01*
X3466482Y2113305D01*
X3463826Y2114512D01*
X3461170Y2116685D01*
X3456341Y2118617D01*
X3455375Y2119100D01*
X3454409Y2120065D01*
X3452719Y2121273D01*
X3449580Y2122480D01*
X3446924Y2123687D01*
X3444026Y2126102D01*
X3440887Y2127310D01*
X3438472Y2128275D01*
X3437506Y2129241D01*
X3435816Y2130449D01*
X3431228Y2132139D01*
X3427848Y2134553D01*
X3425433Y2136002D01*
X3423502Y2136485D01*
X3420846Y2137692D01*
X3418189Y2139865D01*
X3412877Y2141797D01*
X3411429Y2143246D01*
X3410463Y2143729D01*
X3409738Y2144453D01*
X3406599Y2145661D01*
X3404185Y2146627D01*
X3402736Y2148075D01*
X3399355Y2150007D01*
X3396941Y2150973D01*
X3395492Y2152422D01*
X3391146Y2154836D01*
X3388731Y2155802D01*
X3386799Y2157734D01*
X3384385Y2159183D01*
X3381970Y2160149D01*
X3381004Y2160631D01*
X3379555Y2162080D01*
X3373277Y2165461D01*
X3372312Y2165944D01*
X3371346Y2166910D01*
X3368931Y2168358D01*
X3365550Y2169807D01*
X3364101Y2171255D01*
X3362411Y2172463D01*
X3359272Y2173670D01*
X3356858Y2175119D01*
X3353477Y2177534D01*
X3347682Y2178017D01*
X3337058Y2178500D01*
X3330780Y2181397D01*
X3328365Y2182363D01*
X3326433Y2182846D01*
X3324019Y2185261D01*
X3317741Y2188641D01*
X3316775Y2189124D01*
X3315809Y2190090D01*
X3312912Y2190573D01*
X3308806Y2188882D01*
X3305668Y2187675D01*
X3303736Y2187192D01*
X3299631Y2185985D01*
X3295768Y2183570D01*
X3292629Y2182363D01*
X3285385Y2178982D01*
X3283694Y2178258D01*
X3276692Y2177051D01*
X3274761Y2176568D01*
X3273312Y2176085D01*
X3254960Y2175602D01*
X3252546Y2174636D01*
X3251097Y2173187D01*
X3250131Y2172704D01*
X3248682Y2171255D01*
X3246026Y2169565D01*
X3244095Y2169083D01*
X3235643Y2167875D01*
X3233711Y2167392D01*
X3231056Y2166185D01*
X3228641Y2165219D01*
X3225985Y2164495D01*
X3219224Y2163529D01*
X3217050Y2162322D01*
X3215843Y2160631D01*
X3215119Y2157975D01*
X3214153Y2155561D01*
X3212704Y2154595D01*
X3207875Y2152663D01*
X3203287Y2150973D01*
X3201838Y2150490D01*
X3187351Y2150007D01*
X3185419Y2150490D01*
X3181073Y2152422D01*
X3174795Y2155802D01*
X3173829Y2156285D01*
X3173588Y2157009D01*
X3170931Y2159183D01*
X3169965Y2159665D01*
X3167792Y2161839D01*
X3167309Y2162805D01*
X3166102Y2164012D01*
X3163929Y2166668D01*
X3163446Y2176327D01*
X3164412Y2179707D01*
X3165861Y2182122D01*
X3166343Y2185502D01*
X3164894Y2188882D01*
X3162963Y2192263D01*
X3162480Y2193229D01*
X3160790Y2194919D01*
X3159100Y2196126D01*
X3156202Y2198058D01*
X3153546Y2200231D01*
X3148717Y2200714D01*
X3144370Y2198782D01*
X3140990Y2196851D01*
X3139300Y2195161D01*
X3138817Y2194195D01*
X3136643Y2192505D01*
X3135678Y2192021D01*
X3125536Y2187192D01*
X3123604Y2186709D01*
X3120948Y2185985D01*
X3117085Y2184536D01*
X3108392Y2183088D01*
X3101873Y2182363D01*
X3099458Y2181397D01*
X3098251Y2180190D01*
X3095595Y2178017D01*
X3094629Y2177534D01*
X3091249Y2174153D01*
X3090283Y2173670D01*
X3089076Y2172463D01*
X3088592Y2167151D01*
X3088109Y2165219D01*
X3083039Y2160149D01*
X3080624Y2159183D01*
X3076761Y2158217D01*
X3071690Y2155561D01*
X3068551Y2154353D01*
X3064204Y2152422D01*
X3060341Y2151939D01*
X3056961Y2150490D01*
X3051165Y2150007D01*
X3046336Y2150490D01*
X3044405Y2150973D01*
X3042956Y2151456D01*
X3040783Y2151214D01*
X3038851Y2150731D01*
X3036195Y2150007D01*
X3034263Y2149524D01*
X3031849Y2148558D01*
X3030882Y2147592D01*
X3028227Y2145902D01*
X3023156Y2144695D01*
X3020741Y2143729D01*
X3019775Y2143246D01*
X3018810Y2142280D01*
X3017843Y2141797D01*
X3013497Y2137451D01*
X3011807Y2136726D01*
X3009393Y2135761D01*
X3006253Y2135036D01*
X3002873Y2134070D01*
X3000700Y2131897D01*
X3000217Y2128034D01*
X3000700Y2126102D01*
X3005529Y2121273D01*
X3006012Y2120307D01*
X3007220Y2119100D01*
X3008185Y2118617D01*
X3014222Y2112580D01*
X3015670Y2110165D01*
X3016395Y2109441D01*
X3018568Y2106785D01*
X3019051Y2101956D01*
X3018568Y2100024D01*
X3017119Y2096644D01*
X3014704Y2092297D01*
X3013497Y2091090D01*
X3012531Y2090607D01*
X3011807Y2089883D01*
X3010358Y2087468D01*
X3009875Y2086019D01*
X3010358Y2082639D01*
X3011324Y2080224D01*
X3015429Y2076119D01*
X3016395Y2075636D01*
X3019051Y2072980D01*
X3019534Y2069117D01*
X3018810Y2066944D01*
X3015429Y2066461D01*
X3013739Y2068151D01*
X3013256Y2069117D01*
X3012531Y2069841D01*
X3009151Y2070324D01*
X3007220Y2069841D01*
X3006012Y2067668D01*
X3005046Y2063805D01*
X3003356Y2062114D01*
X2996112Y2061632D01*
X2989834Y2062114D01*
X2987419Y2063080D01*
X2986695Y2063805D01*
X2982107Y2066944D01*
X2971000Y2067426D01*
X2969551Y2067910D01*
X2966171Y2068393D01*
X2961824Y2066461D01*
X2956512Y2065978D01*
X2954097Y2066944D01*
X2950717Y2067426D01*
X2946853Y2066461D01*
X2945405Y2065978D01*
X2942507Y2065495D01*
X2940576Y2065978D01*
X2938161Y2066944D01*
X2935263Y2068875D01*
X2930917Y2071290D01*
X2929468Y2071773D01*
X2924156Y2072256D01*
X2922224Y2071773D01*
X2919810Y2070807D01*
X2901459Y2070324D01*
X2900010Y2070807D01*
X2887937Y2071290D01*
X2886005Y2071773D01*
X2883590Y2073222D01*
X2881900Y2074429D01*
X2879968Y2074912D01*
X2867895Y2075395D01*
X2859444Y2076119D01*
X2856063Y2077085D01*
X2855339Y2077810D01*
X2852441Y2079741D01*
X2849302Y2080949D01*
X2846405Y2082880D01*
X2843024Y2084812D01*
X2840610Y2085778D01*
X2838920Y2087468D01*
X2838436Y2088434D01*
X2837712Y2088675D01*
X2836746Y2089641D01*
X2831917Y2090124D01*
X2829985Y2090607D01*
X2827812Y2091814D01*
X2825156Y2092539D01*
X2821776Y2093022D01*
X2820085Y2094712D01*
X2819602Y2095678D01*
X2813566Y2101714D01*
X2811876Y2102922D01*
X2809461Y2103887D01*
X2806805Y2104612D01*
X2804390Y2105578D01*
X2796181Y2106061D01*
X2793766Y2105095D01*
X2790386Y2103163D01*
X2779278Y2103646D01*
X2777829Y2103163D01*
X2763825Y2103646D01*
X2761893Y2103163D01*
X2760444Y2102680D01*
X2759478Y2102197D01*
X2758030Y2100748D01*
X2753683Y2098334D01*
X2750302Y2094953D01*
X2746922Y2092539D01*
X2743059Y2092056D01*
X2738229Y2096885D01*
X2737264Y2099300D01*
X2736298Y2104129D01*
X2735573Y2107268D01*
X2734366Y2110407D01*
X2732193Y2116444D01*
X2729295Y2119341D01*
X2726398Y2124653D01*
X2723017Y2128034D01*
X2722534Y2129000D01*
X2720844Y2130690D01*
X2717463Y2132622D01*
X2716498Y2133588D01*
X2713842Y2135278D01*
X2711186Y2136002D01*
X2707805Y2137451D01*
X2706839Y2137934D01*
X2705632Y2139141D01*
X2702493Y2140349D01*
X2700561Y2140831D01*
X2698146Y2141797D01*
X2694766Y2145178D01*
X2693800Y2145661D01*
X2692834Y2146627D01*
X2690420Y2149524D01*
X2689454Y2150007D01*
X2687764Y2151697D01*
X2685349Y2155077D01*
X2684866Y2161356D01*
X2684383Y2163288D01*
X2682934Y2165702D01*
X2680037Y2171014D01*
X2678105Y2172946D01*
X2676656Y2175361D01*
X2675449Y2178017D01*
X2674000Y2181880D01*
X2674242Y2191780D01*
X2674966Y2194436D01*
X2676173Y2197575D01*
X2676656Y2199024D01*
X2676173Y2206268D01*
X2675208Y2208683D01*
X2674483Y2209407D01*
X2672310Y2212063D01*
X2671827Y2213995D01*
X2669654Y2217617D01*
X2667963Y2218824D01*
X2667481Y2219790D01*
X2666032Y2221238D01*
X2665549Y2222204D01*
X2663859Y2223412D01*
X2662893Y2223895D01*
X2659995Y2226792D01*
X2654683Y2229690D01*
X2653476Y2230897D01*
X2650820Y2233070D01*
X2649854Y2233553D01*
X2648164Y2235243D01*
X2647681Y2236209D01*
X2644300Y2238141D01*
X2641161Y2238865D01*
X2637539Y2241039D01*
X2634400Y2242246D01*
X2632468Y2242729D01*
X2627639Y2243212D01*
X2624259Y2244660D01*
X2623293Y2245144D01*
X2622569Y2245868D01*
X2620637Y2249248D01*
X2619188Y2252629D01*
X2618222Y2253594D01*
X2617015Y2255285D01*
X2615808Y2258424D01*
X2615325Y2260356D01*
X2614359Y2262770D01*
X2613876Y2263736D01*
X2611461Y2266151D01*
X2610979Y2267116D01*
X2609288Y2268806D01*
X2607598Y2270014D01*
X2604459Y2271222D01*
X2602044Y2273636D01*
X2601078Y2274119D01*
X2600112Y2275085D01*
X2599146Y2275568D01*
X2598181Y2277017D01*
X2596973Y2280155D01*
X2594076Y2286434D01*
X2593110Y2288848D01*
X2592627Y2293678D01*
X2592144Y2295609D01*
X2591661Y2297058D01*
X2591178Y2298024D01*
X2590213Y2298990D01*
X2587798Y2303336D01*
X2587315Y2304302D01*
X2585383Y2306233D01*
X2583452Y2309614D01*
X2582969Y2310580D01*
X2582244Y2311304D01*
X2581279Y2311787D01*
X2580071Y2312995D01*
X2577657Y2317341D01*
X2577174Y2318307D01*
X2575966Y2319514D01*
X2575000Y2321929D01*
X2574276Y2324585D01*
X2572586Y2326275D01*
X2571620Y2326758D01*
X2569930Y2328448D01*
X2569446Y2335209D01*
X2568481Y2337624D01*
X2567515Y2338589D01*
X2567032Y2339555D01*
X2566308Y2340280D01*
X2565100Y2343419D01*
X2563893Y2344627D01*
X2562203Y2345834D01*
X2556408Y2353560D01*
X2555925Y2360321D01*
X2555442Y2363702D01*
X2556408Y2367082D01*
X2557615Y2367807D01*
X2558581Y2368290D01*
X2559305Y2369014D01*
X2561237Y2372394D01*
X2564859Y2376017D01*
X2567032Y2378673D01*
X2567515Y2388331D01*
X2567032Y2390263D01*
X2565583Y2393643D01*
X2565100Y2398472D01*
X2565583Y2400404D01*
X2567515Y2402336D01*
X2569930Y2405716D01*
X2570412Y2421170D01*
X2569930Y2423102D01*
X2569446Y2427931D01*
X2568481Y2434692D01*
X2566066Y2440004D01*
X2565583Y2441936D01*
X2565100Y2445316D01*
X2564135Y2448697D01*
X2562686Y2452077D01*
X2563169Y2456907D01*
X2560754Y2462219D01*
X2559305Y2465599D01*
X2552303Y2472602D01*
X2548922Y2474533D01*
X2547232Y2476224D01*
X2547715Y2478155D01*
X2550854Y2479845D01*
X2554959Y2483950D01*
X2556891Y2487331D01*
X2560271Y2492160D01*
X2560754Y2496023D01*
X2558822Y2500370D01*
X2558340Y2504716D01*
X2557857Y2512443D01*
X2558822Y2515824D01*
X2560030Y2518480D01*
X2563410Y2520894D01*
X2564376Y2521377D01*
X2565100Y2522101D01*
X2565583Y2523067D01*
X2566308Y2523792D01*
X2571620Y2526689D01*
X2581279Y2527172D01*
X2582727Y2526689D01*
X2585625Y2527172D01*
X2585866Y2528379D01*
X2583210Y2529587D01*
X2582003Y2530794D01*
X2581279Y2532484D01*
X2581520Y2534657D01*
X2582969Y2538038D01*
X2583934Y2539004D01*
X2584417Y2539970D01*
X2585142Y2540694D01*
X2588522Y2542626D01*
X2591903Y2544075D01*
X2592869Y2544558D01*
X2593593Y2545765D01*
X2596973Y2552043D01*
X2597457Y2553009D01*
X2598905Y2554457D01*
X2599388Y2555423D01*
X2600112Y2555665D01*
X2601078Y2556631D01*
X2605183Y2558804D01*
X2607598Y2562184D01*
X2608081Y2563150D01*
X2614842Y2569911D01*
X2615566Y2571601D01*
X2616532Y2576914D01*
X2617256Y2581984D01*
X2617739Y2583916D01*
X2619188Y2587296D01*
X2621120Y2590194D01*
X2621603Y2591160D01*
X2623776Y2593333D01*
X2628122Y2595748D01*
X2629813Y2597921D01*
X2630295Y2598887D01*
X2631020Y2599611D01*
X2631986Y2600094D01*
X2635366Y2602509D01*
X2637781Y2603957D01*
X2639712Y2604441D01*
X2643093Y2605889D01*
X2646473Y2607821D01*
X2651785Y2613133D01*
X2653959Y2615789D01*
X2654442Y2616755D01*
X2656856Y2618204D01*
X2659995Y2619411D01*
X2660961Y2620377D01*
X2665308Y2622792D01*
X2668688Y2626172D01*
X2669654Y2626655D01*
X2670620Y2627621D01*
X2671586Y2628104D01*
X2678830Y2635348D01*
X2682210Y2637279D01*
X2683900Y2638970D01*
X2686798Y2640901D01*
X2689937Y2642109D01*
X2691386Y2643558D01*
X2694766Y2645972D01*
X2699595Y2646455D01*
X2704907Y2648870D01*
X2706598Y2649594D01*
X2708530Y2650077D01*
X2716015Y2650801D01*
X2719878Y2649835D01*
X2721327Y2648387D01*
X2722293Y2647904D01*
X2723259Y2646938D01*
X2725190Y2646455D01*
X2731227Y2643799D01*
X2736539Y2641867D01*
X2741610Y2641143D01*
X2747405Y2640177D01*
X2751510Y2638970D01*
X2753442Y2638487D01*
X2756581Y2637762D01*
X2758030Y2637279D01*
X2771068Y2636796D01*
X2774449Y2637279D01*
X2776381Y2637762D01*
X2779761Y2638728D01*
X2782900Y2639936D01*
X2784832Y2640419D01*
X2787971Y2641143D01*
X2790627Y2642350D01*
X2791110Y2643316D01*
X2790627Y2645248D01*
X2789903Y2645489D01*
X2786039Y2649353D01*
X2785073Y2649835D01*
X2784349Y2650560D01*
X2783866Y2651526D01*
X2782900Y2652492D01*
X2782417Y2653457D01*
X2781210Y2654665D01*
X2780244Y2655148D01*
X2779037Y2656355D01*
X2778554Y2657321D01*
X2774208Y2661668D01*
X2773724Y2662633D01*
X2769378Y2666979D01*
X2768895Y2667945D01*
X2767688Y2669152D01*
X2766722Y2669636D01*
X2764549Y2672292D01*
X2764066Y2673257D01*
X2761168Y2676155D01*
X2759720Y2678570D01*
X2756822Y2681467D01*
X2756339Y2682433D01*
X2755373Y2683399D01*
X2754890Y2684365D01*
X2752717Y2686538D01*
X2750544Y2689194D01*
X2750061Y2690160D01*
X2746681Y2693540D01*
X2746198Y2694506D01*
X2745232Y2695472D01*
X2744749Y2696438D01*
X2743542Y2697162D01*
X2741369Y2699818D01*
X2740886Y2700784D01*
X2737988Y2703682D01*
X2736539Y2706096D01*
X2734366Y2708270D01*
X2732193Y2710926D01*
X2731710Y2711891D01*
X2730020Y2713582D01*
X2727847Y2716238D01*
X2727364Y2717204D01*
X2726398Y2718169D01*
X2725915Y2719135D01*
X2725190Y2719377D01*
X2723983Y2720584D01*
X2722534Y2722999D01*
X2720844Y2724689D01*
X2719878Y2725172D01*
X2718671Y2726862D01*
X2718188Y2727828D01*
X2715290Y2730726D01*
X2712876Y2734106D01*
X2712393Y2735072D01*
X2711427Y2736038D01*
X2708047Y2740384D01*
X2707805Y2740626D01*
X2707564Y2741350D01*
X2706115Y2742316D01*
X2703700Y2745696D01*
X2703217Y2746662D01*
X2702010Y2747870D01*
X2701044Y2748352D01*
X2700561Y2749318D01*
X2698630Y2752216D01*
X2697663Y2752699D01*
X2696456Y2753906D01*
X2694524Y2757287D01*
X2691627Y2760184D01*
X2689695Y2763564D01*
X2689212Y2764531D01*
X2686798Y2766945D01*
X2685349Y2769360D01*
X2682451Y2772257D01*
X2680520Y2775638D01*
X2678105Y2778052D01*
X2675691Y2782399D01*
X2674000Y2784089D01*
X2671827Y2786745D01*
X2671344Y2787711D01*
X2668447Y2790609D01*
X2666515Y2793989D01*
X2664583Y2795921D01*
X2662169Y2800267D01*
X2661203Y2801233D01*
X2660720Y2802199D01*
X2659995Y2802440D01*
X2659271Y2803164D01*
X2657339Y2806545D01*
X2654442Y2809443D01*
X2652510Y2812823D01*
X2650095Y2815238D01*
X2647681Y2819584D01*
X2647198Y2820550D01*
X2645749Y2821516D01*
X2643335Y2825862D01*
X2641403Y2827794D01*
X2638505Y2833106D01*
X2638022Y2834072D01*
X2636090Y2836003D01*
X2634159Y2839384D01*
X2633676Y2840350D01*
X2631744Y2842282D01*
X2629330Y2846628D01*
X2628847Y2847594D01*
X2627398Y2849043D01*
X2624500Y2854355D01*
X2623052Y2855804D01*
X2619671Y2862082D01*
X2617739Y2864013D01*
X2616290Y2866428D01*
X2615325Y2868842D01*
X2613393Y2870774D01*
X2611944Y2873189D01*
X2610496Y2876569D01*
X2608564Y2878501D01*
X2605666Y2883813D01*
X2605183Y2884779D01*
X2604217Y2885745D01*
X2601320Y2891057D01*
X2599388Y2892989D01*
X2597939Y2895403D01*
X2596491Y2898784D01*
X2596008Y2899750D01*
X2595042Y2900716D01*
X2593110Y2904096D01*
X2592144Y2906511D01*
X2591661Y2907477D01*
X2590213Y2908925D01*
X2588281Y2912306D01*
X2587798Y2914238D01*
X2585142Y2916894D01*
X2581761Y2918825D01*
X2578139Y2918584D01*
X2572827Y2917618D01*
X2569930Y2917135D01*
X2561961Y2915928D01*
X2560030Y2915445D01*
X2556649Y2914962D01*
X2552786Y2913996D01*
X2547232Y2911340D01*
X2542162Y2910133D01*
X2540230Y2909650D01*
X2536849Y2908201D01*
X2536125Y2907477D01*
X2531537Y2905786D01*
X2528156Y2904338D01*
X2524776Y2903855D01*
X2523810Y2904821D01*
X2523327Y2906752D01*
X2523569Y2910374D01*
X2526949Y2920999D01*
X2527432Y2922447D01*
X2527915Y2929691D01*
X2528398Y2931140D01*
X2528881Y2954803D01*
X2528398Y2956252D01*
X2527915Y2964945D01*
X2527432Y2966876D01*
X2526949Y2970257D01*
X2524293Y2976294D01*
X2523810Y2978225D01*
X2523086Y2982330D01*
X2522120Y2985711D01*
X2520188Y2988608D01*
X2519464Y2990299D01*
X2518739Y2993437D01*
X2517773Y2995852D01*
X2517291Y2996818D01*
X2515359Y2998749D01*
X2514876Y3001647D01*
X2516566Y3003337D01*
X2520188Y3003096D01*
X2524052Y3002613D01*
X2526949Y3002130D01*
X2530813Y3001164D01*
X2533951Y3000440D01*
X2536366Y2999474D01*
X2540713Y2998991D01*
X2543127Y2999957D01*
X2543369Y3001647D01*
X2542644Y3003820D01*
X2541920Y3006477D01*
X2541437Y3008408D01*
X2538781Y3013962D01*
X2537815Y3016376D01*
X2537091Y3019998D01*
X2535642Y3023379D01*
X2535159Y3024345D01*
X2534434Y3025069D01*
X2533469Y3027484D01*
X2532261Y3033037D01*
X2531779Y3034969D01*
X2530088Y3039074D01*
X2529122Y3041488D01*
X2527915Y3047042D01*
X2526949Y3050906D01*
X2525983Y3053320D01*
X2524776Y3055976D01*
X2523810Y3059840D01*
X2523086Y3065393D01*
X2522120Y3069257D01*
X2521396Y3071913D01*
X2519947Y3077708D01*
X2518981Y3083020D01*
X2518498Y3087367D01*
X2517773Y3094852D01*
X2517291Y3096783D01*
X2516566Y3103303D01*
X2515842Y3109340D01*
X2515359Y3110789D01*
X2515601Y3123103D01*
X2516083Y3132762D01*
X2516566Y3137108D01*
X2517049Y3139523D01*
X2518015Y3143386D01*
X2519705Y3155218D01*
X2520188Y3157150D01*
X2522844Y3162703D01*
X2523569Y3165842D01*
X2524535Y3169706D01*
X2526466Y3172603D01*
X2527915Y3176466D01*
X2528881Y3178881D01*
X2531295Y3181296D01*
X2533227Y3184676D01*
X2534917Y3186366D01*
X2538056Y3190954D01*
X2538539Y3191920D01*
X2539264Y3192162D01*
X2540230Y3193127D01*
X2542403Y3195784D01*
X2542886Y3196749D01*
X2543610Y3196991D01*
X2546266Y3199647D01*
X2546749Y3200613D01*
X2547715Y3201578D01*
X2550612Y3203510D01*
X2551095Y3204476D01*
X2552303Y3205684D01*
X2554718Y3207133D01*
X2557132Y3209547D01*
X2558822Y3210754D01*
X2561961Y3211962D01*
X2564376Y3212927D01*
X2565342Y3213893D01*
X2567032Y3215101D01*
X2570171Y3216308D01*
X2574518Y3218240D01*
X2575483Y3218723D01*
X2576208Y3219447D01*
X2580795Y3221137D01*
X2588764Y3224759D01*
X2596008Y3226208D01*
X2597939Y3226691D01*
X2600354Y3227174D01*
X2605908Y3228381D01*
X2607357Y3228864D01*
X2612186Y3229347D01*
X2613634Y3229830D01*
X2621361Y3230313D01*
X2622810Y3230795D01*
X2631503Y3231279D01*
X2632952Y3231762D01*
X2644542Y3232244D01*
X2658788Y3231520D01*
X2670378Y3230554D01*
X2677864Y3229830D01*
X2684383Y3229105D01*
X2690178Y3228140D01*
X2694042Y3227174D01*
X2697181Y3226449D01*
X2698630Y3225966D01*
X2704424Y3225484D01*
X2711186Y3224518D01*
X2715049Y3223552D01*
X2718429Y3222586D01*
X2721085Y3221862D01*
X2723017Y3221379D01*
X2729054Y3220654D01*
X2732434Y3220172D01*
X2734366Y3219688D01*
X2737746Y3218723D01*
X2742576Y3217274D01*
X2746439Y3216308D01*
X2749819Y3215825D01*
X2753683Y3214859D01*
X2756822Y3213652D01*
X2759237Y3212686D01*
X2761893Y3211962D01*
X2763825Y3211478D01*
X2767205Y3210996D01*
X2769136Y3210513D01*
X2775656Y3207857D01*
X2777588Y3207374D01*
X2781693Y3206649D01*
X2785073Y3205684D01*
X2787729Y3204476D01*
X2791593Y3203027D01*
X2794007Y3202544D01*
X2796905Y3202062D01*
X2799561Y3201337D01*
X2805115Y3198681D01*
X2807771Y3197957D01*
X2811634Y3196991D01*
X2815014Y3195542D01*
X2815739Y3194818D01*
X2818154Y3193852D01*
X2823707Y3192645D01*
X2829744Y3189505D01*
X2832400Y3188781D01*
X2836263Y3187815D01*
X2838920Y3186608D01*
X2842783Y3184193D01*
X2845922Y3183469D01*
X2850268Y3181537D01*
X2852924Y3179847D01*
X2856546Y3179122D01*
X2859685Y3177915D01*
X2862583Y3175983D01*
X2867171Y3174293D01*
X2870551Y3173327D01*
X2873690Y3171154D01*
X2876105Y3170188D01*
X2879244Y3169464D01*
X2882624Y3168015D01*
X2883831Y3166808D01*
X2886971Y3165600D01*
X2891800Y3164152D01*
X2895663Y3161737D01*
X2896629Y3161254D01*
X2901459Y3159805D01*
X2903873Y3158357D01*
X2905563Y3157150D01*
X2910151Y3155459D01*
X2912566Y3154494D01*
X2913531Y3153528D01*
X2916912Y3151596D01*
X2918844Y3151113D01*
X2922224Y3149664D01*
X2925605Y3147249D01*
X2927536Y3146766D01*
X2931883Y3144835D01*
X2932849Y3144352D01*
X2933814Y3143386D01*
X2934780Y3142903D01*
X2937195Y3141937D01*
X2939127Y3141454D01*
X2941541Y3140489D01*
X2942266Y3139764D01*
X2945163Y3137832D01*
X2948302Y3137108D01*
X2950717Y3136142D01*
X2951441Y3135418D01*
X2954339Y3133486D01*
X2956995Y3132762D01*
X2959410Y3131796D01*
X2960375Y3131313D01*
X2961341Y3130347D01*
X2963032Y3129140D01*
X2966171Y3127932D01*
X2968826Y3126725D01*
X2971483Y3124552D01*
X2976795Y3122620D01*
X2977761Y3121654D01*
X2978727Y3121172D01*
X2979934Y3119964D01*
X2983073Y3118757D01*
X2985488Y3117791D01*
X2986936Y3116342D01*
X2990317Y3114411D01*
X2993697Y3112962D01*
X2994663Y3112479D01*
X2996353Y3110789D01*
X2999492Y3109581D01*
X3001907Y3108615D01*
X3003356Y3107167D01*
X3005046Y3105959D01*
X3009634Y3104269D01*
X3010358Y3103545D01*
X3013014Y3101371D01*
X3017843Y3099440D01*
X3019292Y3097991D01*
X3022673Y3096059D01*
X3026053Y3094611D01*
X3027019Y3094128D01*
X3027985Y3093162D01*
X3029675Y3091954D01*
X3034263Y3090264D01*
X3034988Y3089540D01*
X3037644Y3087367D01*
X3042473Y3085435D01*
X3043922Y3083986D01*
X3044887Y3083503D01*
X3045612Y3082779D01*
X3048751Y3081571D01*
X3051165Y3080605D01*
X3052614Y3079157D01*
X3055029Y3077708D01*
X3056478Y3077225D01*
X3058892Y3077708D01*
X3060100Y3078915D01*
X3061066Y3081330D01*
X3062031Y3084710D01*
X3063963Y3086642D01*
X3067343Y3092920D01*
X3067826Y3093886D01*
X3068551Y3094128D01*
X3070241Y3096301D01*
X3073863Y3103303D01*
X3074346Y3126483D01*
X3075553Y3136384D01*
X3076519Y3139764D01*
X3078934Y3145076D01*
X3079416Y3149422D01*
X3079900Y3150871D01*
X3080382Y3161496D01*
X3080866Y3164876D01*
X3082073Y3167532D01*
X3083521Y3173327D01*
X3084004Y3175742D01*
X3084487Y3178640D01*
X3085212Y3181778D01*
X3085695Y3183227D01*
X3086178Y3188057D01*
X3090041Y3196266D01*
X3090524Y3197232D01*
X3091973Y3198681D01*
X3093180Y3200371D01*
X3094388Y3203510D01*
X3097044Y3206166D01*
X3098009Y3206649D01*
X3099458Y3208098D01*
X3100424Y3208581D01*
X3101148Y3209305D01*
X3101631Y3210271D01*
X3102356Y3210513D01*
X3104288Y3212444D01*
X3105253Y3212927D01*
X3106461Y3214617D01*
X3107909Y3217032D01*
X3109841Y3218964D01*
X3112256Y3223311D01*
X3113222Y3226691D01*
X3115395Y3229830D01*
X3116602Y3232969D01*
X3117085Y3234901D01*
X3118051Y3238281D01*
X3120224Y3242386D01*
X3120948Y3246008D01*
X3122397Y3251320D01*
X3124812Y3254701D01*
X3127226Y3261462D01*
X3128675Y3262910D01*
X3131573Y3268222D01*
X3132055Y3269188D01*
X3133504Y3270637D01*
X3134712Y3272327D01*
X3135678Y3274742D01*
X3136402Y3278847D01*
X3136885Y3280779D01*
X3138092Y3284883D01*
X3138575Y3286815D01*
X3138334Y3289471D01*
X3137609Y3290196D01*
X3133263Y3293576D01*
X3132297Y3294059D01*
X3131573Y3295266D01*
X3131090Y3298164D01*
X3131573Y3300096D01*
X3133021Y3301544D01*
X3134953Y3304925D01*
X3135919Y3307340D01*
X3137126Y3308547D01*
X3138092Y3309030D01*
X3139300Y3310237D01*
X3139783Y3315549D01*
X3140265Y3318930D01*
X3140748Y3320862D01*
X3142922Y3322069D01*
X3147751Y3323518D01*
X3149199Y3324966D01*
X3155719Y3328588D01*
X3160307Y3331727D01*
X3167068Y3332210D01*
X3170448Y3331727D01*
D02*
G37*
G36*
X3587696Y3157874D02*
X3588421Y3157150D01*
X3593009Y3155459D01*
X3596147Y3154252D01*
X3599045Y3153769D01*
X3602184Y3153045D01*
X3604599Y3152079D01*
X3606531Y3151596D01*
X3608945Y3150630D01*
X3609911Y3150147D01*
X3612084Y3147974D01*
X3612567Y3147008D01*
X3616189Y3143386D01*
X3617397Y3140247D01*
X3618362Y3133486D01*
X3619328Y3131071D01*
X3619811Y3129140D01*
X3621502Y3123586D01*
X3621984Y3121172D01*
X3622709Y3118032D01*
X3623674Y3115618D01*
X3626089Y3110305D01*
X3626572Y3107408D01*
X3627538Y3103545D01*
X3628745Y3100888D01*
X3630677Y3096059D01*
X3631884Y3089057D01*
X3635265Y3081813D01*
X3635748Y3079881D01*
X3636231Y3076501D01*
X3636714Y3074569D01*
X3637680Y3072154D01*
X3639853Y3068049D01*
X3640335Y3065635D01*
X3641060Y3061530D01*
X3643957Y3055252D01*
X3644923Y3052837D01*
X3645889Y3046076D01*
X3646372Y3044145D01*
X3647096Y3041488D01*
X3648545Y3037625D01*
X3649028Y3035210D01*
X3649511Y3032313D01*
X3650235Y3027725D01*
X3650719Y3024345D01*
X3651201Y3022413D01*
X3651684Y3020964D01*
X3652167Y3016135D01*
X3651684Y3014686D01*
X3651201Y3010823D01*
X3652167Y3008408D01*
X3652892Y3007684D01*
X3655306Y3003820D01*
X3656272Y3003337D01*
X3658928Y3000681D01*
X3659411Y2992472D01*
X3658928Y2991023D01*
X3658445Y2985228D01*
X3658928Y2983296D01*
X3660135Y2982572D01*
X3664965Y2982089D01*
X3665689Y2981364D01*
X3666172Y2969291D01*
X3665689Y2965911D01*
X3664723Y2963496D01*
X3663757Y2953354D01*
X3662309Y2948525D01*
X3659894Y2943213D01*
X3657962Y2938384D01*
X3655789Y2936211D01*
X3654823Y2933796D01*
X3653616Y2930657D01*
X3650719Y2927760D01*
X3648062Y2925586D01*
X3646131Y2926069D01*
X3644923Y2927277D01*
X3644440Y2928243D01*
X3643474Y2929208D01*
X3642991Y2936452D01*
X3641543Y2941282D01*
X3640335Y2942489D01*
X3639370Y2942972D01*
X3637196Y2945145D01*
X3634541Y2947318D01*
X3632125Y2947801D01*
X3628745Y2948284D01*
X3627538Y2949491D01*
X3627055Y2952872D01*
X3626572Y2954321D01*
X3626089Y2960599D01*
X3625606Y2963979D01*
X3622709Y2966876D01*
X3622226Y2967842D01*
X3619570Y2970499D01*
X3618604Y2970981D01*
X3615948Y2976052D01*
X3614982Y2977018D01*
X3614499Y2977984D01*
X3613291Y2979191D01*
X3606531Y2979674D01*
X3604599Y2980157D01*
X3603874Y2980881D01*
X3603392Y2983779D01*
X3603874Y2985228D01*
X3603150Y2987884D01*
X3601219Y2988367D01*
X3599287Y2987884D01*
X3596389Y2984986D01*
X3592526Y2984503D01*
X3590353Y2985228D01*
X3588904Y2987642D01*
X3586731Y2989333D01*
X3582867Y2989816D01*
X3578038Y2990299D01*
X3573692Y2992230D01*
X3572726Y2992713D01*
X3572001Y2993437D01*
X3570070Y2996818D01*
X3569587Y2998749D01*
X3567655Y3003579D01*
X3566206Y3006959D01*
X3565482Y3007684D01*
X3564516Y3008167D01*
X3561377Y3012272D01*
X3560894Y3015652D01*
X3562343Y3019032D01*
X3564757Y3021447D01*
X3565240Y3022413D01*
X3565965Y3023137D01*
X3566689Y3026760D01*
X3567172Y3028691D01*
X3568138Y3032071D01*
X3568621Y3034003D01*
X3569104Y3037384D01*
X3570311Y3040523D01*
X3570794Y3042454D01*
X3571277Y3044869D01*
X3572001Y3048974D01*
X3572484Y3050423D01*
X3572001Y3052837D01*
X3571519Y3054286D01*
X3571036Y3056218D01*
X3567655Y3059598D01*
X3565723Y3062979D01*
X3564999Y3063703D01*
X3562826Y3066359D01*
X3562101Y3068049D01*
X3561377Y3071189D01*
X3559446Y3074086D01*
X3558238Y3075776D01*
X3557031Y3078915D01*
X3555582Y3082296D01*
X3553167Y3085676D01*
X3552685Y3087608D01*
X3552201Y3089057D01*
X3551719Y3102096D01*
X3552201Y3105476D01*
X3552685Y3107408D01*
X3554133Y3110789D01*
X3554616Y3111754D01*
X3554858Y3111996D01*
X3556548Y3115135D01*
X3557031Y3120447D01*
X3557514Y3122379D01*
X3557996Y3125759D01*
X3558721Y3128415D01*
X3560653Y3133728D01*
X3561860Y3139281D01*
X3562343Y3142662D01*
X3563309Y3145076D01*
X3566206Y3150388D01*
X3568138Y3152320D01*
X3570794Y3154494D01*
X3573208Y3155942D01*
X3576106Y3156425D01*
X3580453Y3158357D01*
X3585282Y3158840D01*
X3587696Y3157874D01*
D02*
G37*
G36*
X1220642Y138334D02*
X1222445Y138057D01*
X1224525Y137779D01*
X1226744Y137363D01*
X1228963Y136808D01*
X1231182Y135976D01*
X1231459Y135838D01*
X1232152Y135560D01*
X1233123Y135006D01*
X1234510Y134451D01*
X1235897Y133619D01*
X1237422Y132787D01*
X1238809Y131816D01*
X1240196Y130706D01*
X1240335Y130568D01*
X1240751Y130290D01*
X1241306Y129736D01*
X1241999Y129042D01*
X1243525Y127655D01*
X1244218Y126962D01*
X1244634Y126407D01*
X1244773Y126268D01*
X1244911Y125714D01*
Y125020D01*
X1244773Y124743D01*
X1244495Y124327D01*
X1241722Y121137D01*
X1241583Y120998D01*
X1241028Y120860D01*
X1240335D01*
X1239919Y121137D01*
X1239503Y121415D01*
X1239364Y121553D01*
X1239225Y121831D01*
X1238671Y122385D01*
X1237977Y122940D01*
X1237145Y123772D01*
X1235897Y124743D01*
X1234371Y125852D01*
X1232569Y126962D01*
X1232291Y127101D01*
X1231598Y127517D01*
X1230488Y127933D01*
X1228963Y128626D01*
X1227160Y129181D01*
X1224941Y129874D01*
X1222445Y130290D01*
X1219671Y130568D01*
X1218977D01*
X1218423Y130429D01*
X1217036Y130290D01*
X1215372Y129874D01*
X1213430Y129320D01*
X1211350Y128487D01*
X1209270Y127239D01*
X1207328Y125575D01*
X1207051Y125298D01*
X1206496Y124604D01*
X1205803Y123356D01*
X1204970Y121692D01*
X1204138Y119612D01*
X1203445Y116977D01*
X1203029Y113787D01*
Y110181D01*
X1245466D01*
X1245882Y110042D01*
X1246298Y109765D01*
X1246853Y109072D01*
Y108933D01*
X1246992Y108794D01*
X1247130Y108378D01*
X1247269Y107824D01*
X1247408Y106991D01*
X1247546Y106021D01*
Y104634D01*
X1247685Y103108D01*
Y102970D01*
Y102554D01*
Y101999D01*
X1247546Y101305D01*
Y100335D01*
X1247408Y99225D01*
X1246853Y96729D01*
X1246160Y93955D01*
X1245050Y91043D01*
X1243663Y88130D01*
X1241722Y85634D01*
Y85495D01*
X1241444Y85357D01*
X1240612Y84663D01*
X1239364Y83692D01*
X1237561Y82444D01*
X1235204Y81335D01*
X1232291Y80364D01*
X1228963Y79671D01*
X1227021Y79393D01*
X1223693D01*
X1222167Y79532D01*
X1220226Y79948D01*
X1217868Y80364D01*
X1215372Y81057D01*
X1212598Y82028D01*
X1209824Y83415D01*
X1209686D01*
X1209547Y83554D01*
X1209131Y83831D01*
X1208576Y84109D01*
X1207189Y85079D01*
X1205525Y86327D01*
X1203722Y87853D01*
X1201642Y89795D01*
X1199700Y92152D01*
X1197759Y94787D01*
Y94926D01*
X1197620Y95065D01*
X1197343Y95481D01*
X1197065Y96174D01*
X1196649Y96867D01*
X1196233Y97700D01*
X1195817Y98670D01*
X1195401Y99919D01*
X1194569Y102554D01*
X1193737Y105605D01*
X1193182Y109210D01*
X1192905Y113094D01*
Y113232D01*
Y113648D01*
Y114203D01*
X1193044Y115035D01*
X1193182Y116145D01*
X1193321Y117254D01*
X1193876Y119889D01*
X1194708Y122940D01*
X1195956Y126130D01*
X1196788Y127655D01*
X1197620Y129042D01*
X1198730Y130568D01*
X1199978Y131816D01*
X1200116Y131955D01*
X1200255Y132093D01*
X1200671Y132371D01*
X1201226Y132787D01*
X1201919Y133341D01*
X1202751Y133896D01*
X1204832Y135144D01*
X1207328Y136392D01*
X1210518Y137363D01*
X1213985Y138195D01*
X1215926Y138334D01*
X1217868Y138473D01*
X1219116D01*
X1220642Y138334D01*
D02*
G37*
G36*
X887384D02*
X889187Y138057D01*
X891267Y137779D01*
X893486Y137363D01*
X895705Y136808D01*
X897924Y135976D01*
X898201Y135838D01*
X898895Y135560D01*
X899866Y135006D01*
X901252Y134451D01*
X902639Y133619D01*
X904165Y132787D01*
X905552Y131816D01*
X906938Y130706D01*
X907077Y130568D01*
X907493Y130290D01*
X908048Y129736D01*
X908741Y129042D01*
X910267Y127655D01*
X910960Y126962D01*
X911376Y126407D01*
X911515Y126268D01*
X911654Y125714D01*
Y125020D01*
X911515Y124743D01*
X911238Y124327D01*
X908464Y121137D01*
X908325Y120998D01*
X907771Y120860D01*
X907077D01*
X906661Y121137D01*
X906245Y121415D01*
X906106Y121553D01*
X905968Y121831D01*
X905413Y122385D01*
X904720Y122940D01*
X903887Y123772D01*
X902639Y124743D01*
X901114Y125852D01*
X899311Y126962D01*
X899034Y127101D01*
X898340Y127517D01*
X897231Y127933D01*
X895705Y128626D01*
X893902Y129181D01*
X891683Y129874D01*
X889187Y130290D01*
X886413Y130568D01*
X885720D01*
X885165Y130429D01*
X883778Y130290D01*
X882114Y129874D01*
X880172Y129320D01*
X878092Y128487D01*
X876012Y127239D01*
X874070Y125575D01*
X873793Y125298D01*
X873238Y124604D01*
X872545Y123356D01*
X871713Y121692D01*
X870881Y119612D01*
X870187Y116977D01*
X869771Y113787D01*
Y110181D01*
X912208D01*
X912625Y110042D01*
X913041Y109765D01*
X913595Y109072D01*
Y108933D01*
X913734Y108794D01*
X913873Y108378D01*
X914011Y107824D01*
X914150Y106991D01*
X914289Y106021D01*
Y104634D01*
X914427Y103108D01*
Y102970D01*
Y102554D01*
Y101999D01*
X914289Y101305D01*
Y100335D01*
X914150Y99225D01*
X913595Y96729D01*
X912902Y93955D01*
X911792Y91043D01*
X910406Y88130D01*
X908464Y85634D01*
Y85495D01*
X908187Y85357D01*
X907355Y84663D01*
X906106Y83692D01*
X904303Y82444D01*
X901946Y81335D01*
X899034Y80364D01*
X895705Y79671D01*
X893764Y79393D01*
X890435D01*
X888910Y79532D01*
X886968Y79948D01*
X884610Y80364D01*
X882114Y81057D01*
X879340Y82028D01*
X876567Y83415D01*
X876428D01*
X876289Y83554D01*
X875873Y83831D01*
X875319Y84109D01*
X873932Y85079D01*
X872267Y86327D01*
X870465Y87853D01*
X868384Y89795D01*
X866443Y92152D01*
X864501Y94787D01*
Y94926D01*
X864363Y95065D01*
X864085Y95481D01*
X863808Y96174D01*
X863392Y96867D01*
X862976Y97700D01*
X862560Y98670D01*
X862144Y99919D01*
X861311Y102554D01*
X860479Y105605D01*
X859925Y109210D01*
X859647Y113094D01*
Y113232D01*
Y113648D01*
Y114203D01*
X859786Y115035D01*
X859925Y116145D01*
X860063Y117254D01*
X860618Y119889D01*
X861450Y122940D01*
X862698Y126130D01*
X863530Y127655D01*
X864363Y129042D01*
X865472Y130568D01*
X866720Y131816D01*
X866859Y131955D01*
X866998Y132093D01*
X867414Y132371D01*
X867968Y132787D01*
X868662Y133341D01*
X869494Y133896D01*
X871574Y135144D01*
X874070Y136392D01*
X877260Y137363D01*
X880727Y138195D01*
X882669Y138334D01*
X884610Y138473D01*
X885859D01*
X887384Y138334D01*
D02*
G37*
G36*
X1178620Y137502D02*
X1178759Y137363D01*
X1178898Y137225D01*
X1179175Y136392D01*
X1180007Y130568D01*
Y130429D01*
Y130152D01*
Y129874D01*
X1179869Y129597D01*
Y129458D01*
X1179591Y129320D01*
X1179314Y129181D01*
X1171686D01*
X1164336Y108794D01*
Y108656D01*
X1164197Y108240D01*
X1163920Y107685D01*
X1163643Y106853D01*
X1162810Y105050D01*
X1161840Y103247D01*
Y103108D01*
X1161562Y102831D01*
X1161285Y102415D01*
X1160869Y101860D01*
X1159621Y100612D01*
X1158789Y99919D01*
X1157818Y99364D01*
X1157957D01*
X1158234Y99225D01*
X1158650Y98948D01*
X1159205Y98670D01*
X1160730Y97700D01*
X1162533Y96313D01*
X1164752Y94510D01*
X1166971Y92291D01*
X1169329Y89656D01*
X1171409Y86466D01*
Y86327D01*
X1171686Y86050D01*
X1171964Y85495D01*
X1172380Y84802D01*
X1172796Y83970D01*
X1173212Y82860D01*
X1173905Y81474D01*
X1174460Y80087D01*
X1175015Y78422D01*
X1175708Y76620D01*
X1176402Y74678D01*
X1176956Y72459D01*
X1177511Y70240D01*
X1178066Y67744D01*
X1178620Y65109D01*
X1179037Y62335D01*
X1187496D01*
X1188190Y62058D01*
X1188328Y61919D01*
X1188467Y61780D01*
X1188606Y61364D01*
X1188744Y60948D01*
X1189576Y55124D01*
Y54846D01*
X1189438Y54430D01*
X1189160Y54014D01*
X1188744Y53737D01*
X1161840D01*
X1161424Y53875D01*
X1160869Y54291D01*
X1160592Y55124D01*
X1159759Y60948D01*
Y61087D01*
Y61364D01*
Y61642D01*
X1159898Y62058D01*
X1160037D01*
X1160175Y62196D01*
X1160869Y62335D01*
X1168913D01*
Y62613D01*
X1168774Y63167D01*
X1168635Y64138D01*
X1168358Y65386D01*
X1168080Y66912D01*
X1167664Y68715D01*
X1167248Y70656D01*
X1166694Y72736D01*
X1165307Y77036D01*
X1163504Y81335D01*
X1162533Y83415D01*
X1161424Y85357D01*
X1160175Y87021D01*
X1158789Y88546D01*
X1158650Y88685D01*
X1158511Y88824D01*
X1158095Y89240D01*
X1157402Y89656D01*
X1156708Y90211D01*
X1155876Y90765D01*
X1154767Y91459D01*
X1153657Y92152D01*
X1150884Y93400D01*
X1147694Y94510D01*
X1143949Y95203D01*
X1141869Y95481D01*
X1127446D01*
X1132161Y62335D01*
X1139650D01*
X1140344Y62058D01*
X1140482Y61919D01*
X1140621Y61780D01*
X1140760Y61364D01*
X1140898Y60948D01*
X1141731Y55124D01*
Y54846D01*
X1141592Y54430D01*
X1141314Y54014D01*
X1140898Y53737D01*
X1113855D01*
X1113439Y53875D01*
X1113023Y54153D01*
X1112884Y54430D01*
X1112746Y54708D01*
X1112607Y55124D01*
X1111775Y60948D01*
Y61226D01*
Y61642D01*
X1112191Y62058D01*
X1112468Y62335D01*
X1121899D01*
X1112607Y129181D01*
X1103315D01*
X1102760Y129320D01*
X1102206Y129736D01*
X1101928Y130568D01*
X1101096Y136392D01*
Y136670D01*
X1101235Y137086D01*
X1101512Y137502D01*
X1101928Y137779D01*
X1132716D01*
X1133409Y137502D01*
X1133548Y137363D01*
X1133687Y137225D01*
X1133826Y136808D01*
X1133964Y136392D01*
X1134796Y130568D01*
Y130290D01*
X1134658Y129874D01*
X1134380Y129458D01*
X1133964Y129181D01*
X1122731D01*
X1126337Y103663D01*
X1143811D01*
X1144782Y103802D01*
X1146030Y103940D01*
X1147417Y104218D01*
X1148665Y104634D01*
X1149913Y105050D01*
X1150745Y105743D01*
X1150884Y105882D01*
X1151022Y106021D01*
X1151438Y106437D01*
X1151854Y106991D01*
X1152687Y108240D01*
X1152964Y109072D01*
X1153241Y109904D01*
X1161285Y132232D01*
Y132371D01*
X1161424Y132648D01*
X1161562Y133203D01*
X1161840Y133757D01*
X1162533Y135144D01*
X1163504Y136392D01*
X1163781Y136670D01*
X1164475Y137086D01*
X1165723Y137502D01*
X1167387Y137779D01*
X1177927D01*
X1178620Y137502D01*
D02*
G37*
G36*
X1415770Y138473D02*
X1417573Y138334D01*
X1419376Y138057D01*
X1421456Y137641D01*
X1423536Y137086D01*
X1425478Y136392D01*
X1425755Y136254D01*
X1426310Y135976D01*
X1427281Y135560D01*
X1428390Y134867D01*
X1429638Y134173D01*
X1431025Y133341D01*
X1432273Y132371D01*
X1433522Y131400D01*
X1433660Y131261D01*
X1434076Y130984D01*
X1434492Y130429D01*
X1435186Y129736D01*
X1436573Y128349D01*
X1437266Y127655D01*
X1437821Y126962D01*
X1438098D01*
X1437266Y132925D01*
Y133064D01*
Y133341D01*
Y133757D01*
Y134312D01*
X1437405Y135560D01*
X1437682Y136254D01*
X1437960Y136670D01*
X1438237Y136808D01*
X1438792Y137225D01*
X1439901Y137641D01*
X1441565Y137779D01*
X1452105D01*
X1452521Y137641D01*
X1453076Y137225D01*
X1453492Y136392D01*
X1454186Y131400D01*
Y131122D01*
X1454047Y130706D01*
X1453770Y130290D01*
X1453353Y130013D01*
X1446281D01*
X1450164Y102831D01*
Y102692D01*
Y102276D01*
X1450302Y101583D01*
Y100751D01*
X1450441Y99641D01*
Y98532D01*
X1450302Y95758D01*
X1449886Y92846D01*
X1449054Y89795D01*
X1448500Y88408D01*
X1447806Y87021D01*
X1446974Y85773D01*
X1446003Y84663D01*
X1445726Y84386D01*
X1444894Y83831D01*
X1443646Y82999D01*
X1441704Y82028D01*
X1439346Y81057D01*
X1436295Y80087D01*
X1432828Y79532D01*
X1428806Y79393D01*
X1427558D01*
X1426033Y79532D01*
X1424230Y79671D01*
X1422150Y79809D01*
X1419931Y80087D01*
X1417712Y80641D01*
X1415631Y81196D01*
X1415354Y81335D01*
X1414799Y81474D01*
X1413829Y81751D01*
X1412719Y82306D01*
X1410223Y83415D01*
X1408975Y83970D01*
X1407865Y84663D01*
X1407726D01*
X1407449Y84941D01*
X1406478Y85495D01*
X1405507Y86327D01*
X1405230Y86605D01*
X1404953Y86882D01*
X1404814D01*
X1404675Y87160D01*
X1404398Y87437D01*
X1404259Y87714D01*
Y87992D01*
Y88269D01*
X1404398Y88685D01*
X1407172Y92846D01*
X1407310Y93123D01*
X1407865Y93400D01*
X1408142D01*
X1408836Y93123D01*
X1408975Y92984D01*
X1409113Y92846D01*
X1409529Y92707D01*
X1410084Y92291D01*
X1410916Y91875D01*
X1412026Y91320D01*
X1413551Y90488D01*
X1413829Y90349D01*
X1414383Y90072D01*
X1415493Y89656D01*
X1416880Y89240D01*
X1418821Y88824D01*
X1421179Y88269D01*
X1424091Y87992D01*
X1427281Y87714D01*
X1428390D01*
X1429638Y87853D01*
X1431164Y88130D01*
X1432967Y88546D01*
X1434770Y89101D01*
X1436434Y89933D01*
X1437960Y91043D01*
X1438098Y91181D01*
X1438514Y91597D01*
X1439069Y92430D01*
X1439762Y93678D01*
X1440317Y95203D01*
X1440595Y97145D01*
X1440872Y99641D01*
X1440595Y102415D01*
X1440317Y103940D01*
X1427974D01*
X1426587Y104079D01*
X1425201Y104218D01*
X1423536Y104356D01*
X1421734Y104495D01*
X1417712Y105050D01*
X1413690Y105882D01*
X1409529Y107130D01*
X1405785Y108794D01*
X1405646D01*
X1405369Y109072D01*
X1404953Y109349D01*
X1404398Y109765D01*
X1402872Y110875D01*
X1401070Y112539D01*
X1399405Y114758D01*
X1397880Y117393D01*
X1397325Y119057D01*
X1396770Y120721D01*
X1396493Y122524D01*
X1396354Y124466D01*
Y124604D01*
Y124743D01*
X1396493Y125575D01*
X1396632Y126823D01*
X1397048Y128349D01*
X1397602Y130013D01*
X1398435Y131816D01*
X1399544Y133480D01*
X1401070Y135006D01*
X1401347Y135144D01*
X1401902Y135560D01*
X1403011Y136115D01*
X1404398Y136808D01*
X1406062Y137502D01*
X1408281Y138057D01*
X1410639Y138473D01*
X1413274Y138611D01*
X1414522D01*
X1415770Y138473D01*
D02*
G37*
G36*
X1315779Y137502D02*
X1315918Y137363D01*
X1316056Y137225D01*
X1316195Y136808D01*
X1316334Y136392D01*
X1317027Y131400D01*
Y131122D01*
X1316888Y130706D01*
X1316611Y130290D01*
X1316195Y130013D01*
X1309261D01*
X1313421Y99780D01*
Y99641D01*
Y99364D01*
X1313560Y98809D01*
Y98254D01*
Y97422D01*
Y96451D01*
Y94371D01*
X1313144Y92014D01*
X1312589Y89517D01*
X1311618Y87160D01*
X1310232Y84941D01*
X1310093Y84663D01*
X1309399Y84109D01*
X1308290Y83138D01*
X1306903Y82167D01*
X1304962Y81196D01*
X1302465Y80225D01*
X1299692Y79671D01*
X1296363Y79393D01*
X1295531D01*
X1294976Y79532D01*
X1293451Y79671D01*
X1291509Y79948D01*
X1289429Y80503D01*
X1287210Y81196D01*
X1285130Y82306D01*
X1283188Y83554D01*
X1283050Y83692D01*
X1282495Y84247D01*
X1281663Y84941D01*
X1280692Y86050D01*
X1279582Y87160D01*
X1278612Y88546D01*
X1277641Y89933D01*
X1276809Y91459D01*
X1276670Y91597D01*
X1276531Y92014D01*
X1276254Y92707D01*
X1275977Y93400D01*
X1275561Y94232D01*
X1275283Y94787D01*
X1275145Y95342D01*
Y95619D01*
X1274728D01*
X1276809Y81612D01*
Y81335D01*
Y80919D01*
X1276531Y80503D01*
X1276115Y80225D01*
X1261553D01*
X1261137Y80364D01*
X1260583Y80780D01*
X1260167Y81612D01*
X1259473Y86605D01*
Y86882D01*
X1259612Y87298D01*
X1259889Y87714D01*
X1260305Y87992D01*
X1267378D01*
X1261415Y130013D01*
X1254481D01*
X1254065Y130152D01*
X1253510Y130568D01*
X1253232Y131400D01*
X1252400Y136392D01*
Y136670D01*
X1252539Y137086D01*
X1252955Y137502D01*
X1253232Y137779D01*
X1276531D01*
X1277225Y137502D01*
X1277363Y137363D01*
X1277502Y137225D01*
X1277780Y136808D01*
X1277918Y136392D01*
X1278612Y131400D01*
Y131122D01*
X1278473Y130706D01*
X1278196Y130290D01*
X1277780Y130013D01*
X1271123D01*
X1274451Y105327D01*
Y105189D01*
X1274590Y104911D01*
X1274728Y104634D01*
X1275006Y104079D01*
X1275422Y103247D01*
X1275977Y102137D01*
X1276670Y100751D01*
X1276809Y100612D01*
X1277086Y100057D01*
X1277502Y99225D01*
X1278196Y98116D01*
X1279028Y96729D01*
X1280137Y95342D01*
X1281385Y93816D01*
X1282772Y92291D01*
X1282911Y92152D01*
X1283466Y91597D01*
X1284436Y90904D01*
X1285684Y90211D01*
X1287071Y89379D01*
X1288874Y88546D01*
X1290816Y87992D01*
X1293035Y87714D01*
X1293312D01*
X1294006Y87853D01*
X1295115Y87992D01*
X1296363Y88269D01*
X1297750Y88685D01*
X1299137Y89379D01*
X1300524Y90349D01*
X1301633Y91597D01*
X1301772Y91736D01*
X1302049Y92291D01*
X1302465Y93123D01*
X1302881Y94371D01*
X1303159Y95758D01*
X1303436Y97561D01*
X1303575Y99780D01*
X1303297Y102137D01*
X1299137Y132925D01*
Y133064D01*
Y133341D01*
Y133757D01*
Y134312D01*
X1299276Y135560D01*
X1299553Y136254D01*
X1299830Y136670D01*
X1300108Y136808D01*
X1300662Y137225D01*
X1301772Y137641D01*
X1303436Y137779D01*
X1315086D01*
X1315779Y137502D01*
D02*
G37*
G36*
X1053666D02*
X1053805Y137363D01*
X1053944Y137225D01*
X1054082Y136808D01*
X1054221Y136392D01*
X1054914Y131400D01*
Y131122D01*
X1054776Y130706D01*
X1054498Y130290D01*
X1054082Y130013D01*
X1047148D01*
X1051309Y99780D01*
Y99641D01*
Y99364D01*
X1051447Y98809D01*
Y98254D01*
Y97422D01*
Y96451D01*
Y94371D01*
X1051031Y92014D01*
X1050476Y89517D01*
X1049506Y87160D01*
X1048119Y84941D01*
X1047980Y84663D01*
X1047287Y84109D01*
X1046177Y83138D01*
X1044790Y82167D01*
X1042849Y81196D01*
X1040353Y80225D01*
X1037579Y79671D01*
X1034250Y79393D01*
X1033418D01*
X1032864Y79532D01*
X1031338Y79671D01*
X1029396Y79948D01*
X1027316Y80503D01*
X1025097Y81196D01*
X1023017Y82306D01*
X1021075Y83554D01*
X1020937Y83692D01*
X1020382Y84247D01*
X1019550Y84941D01*
X1018579Y86050D01*
X1017470Y87160D01*
X1016499Y88546D01*
X1015528Y89933D01*
X1014696Y91459D01*
X1014557Y91597D01*
X1014419Y92014D01*
X1014141Y92707D01*
X1013864Y93400D01*
X1013448Y94232D01*
X1013170Y94787D01*
X1013032Y95342D01*
Y95619D01*
X1012616D01*
X1014696Y81612D01*
Y81335D01*
Y80919D01*
X1014419Y80503D01*
X1014003Y80225D01*
X999441D01*
X999025Y80364D01*
X998470Y80780D01*
X998054Y81612D01*
X997360Y86605D01*
Y86882D01*
X997499Y87298D01*
X997777Y87714D01*
X998193Y87992D01*
X1005265D01*
X999302Y130013D01*
X992368D01*
X991952Y130152D01*
X991397Y130568D01*
X991120Y131400D01*
X990288Y136392D01*
Y136670D01*
X990426Y137086D01*
X990842Y137502D01*
X991120Y137779D01*
X1014419D01*
X1015112Y137502D01*
X1015251Y137363D01*
X1015389Y137225D01*
X1015667Y136808D01*
X1015805Y136392D01*
X1016499Y131400D01*
Y131122D01*
X1016360Y130706D01*
X1016083Y130290D01*
X1015667Y130013D01*
X1009010D01*
X1012338Y105327D01*
Y105189D01*
X1012477Y104911D01*
X1012616Y104634D01*
X1012893Y104079D01*
X1013309Y103247D01*
X1013864Y102137D01*
X1014557Y100751D01*
X1014696Y100612D01*
X1014973Y100057D01*
X1015389Y99225D01*
X1016083Y98116D01*
X1016915Y96729D01*
X1018024Y95342D01*
X1019273Y93816D01*
X1020659Y92291D01*
X1020798Y92152D01*
X1021353Y91597D01*
X1022324Y90904D01*
X1023572Y90211D01*
X1024959Y89379D01*
X1026761Y88546D01*
X1028703Y87992D01*
X1030922Y87714D01*
X1031199D01*
X1031893Y87853D01*
X1033002Y87992D01*
X1034250Y88269D01*
X1035637Y88685D01*
X1037024Y89379D01*
X1038411Y90349D01*
X1039520Y91597D01*
X1039659Y91736D01*
X1039936Y92291D01*
X1040353Y93123D01*
X1040769Y94371D01*
X1041046Y95758D01*
X1041323Y97561D01*
X1041462Y99780D01*
X1041185Y102137D01*
X1037024Y132925D01*
Y133064D01*
Y133341D01*
Y133757D01*
Y134312D01*
X1037163Y135560D01*
X1037440Y136254D01*
X1037718Y136670D01*
X1037995Y136808D01*
X1038550Y137225D01*
X1039659Y137641D01*
X1041323Y137779D01*
X1052973D01*
X1053666Y137502D01*
D02*
G37*
G36*
X737467Y138473D02*
X739270Y138334D01*
X741072Y138057D01*
X743153Y137641D01*
X745233Y137086D01*
X747175Y136392D01*
X747452Y136254D01*
X748007Y135976D01*
X748977Y135560D01*
X750087Y134867D01*
X751335Y134173D01*
X752722Y133341D01*
X753970Y132371D01*
X755218Y131400D01*
X755357Y131261D01*
X755773Y130984D01*
X756189Y130429D01*
X756882Y129736D01*
X758269Y128349D01*
X758963Y127655D01*
X759517Y126962D01*
X759795D01*
X758963Y132925D01*
Y133064D01*
Y133341D01*
Y133757D01*
Y134312D01*
X759101Y135560D01*
X759379Y136254D01*
X759656Y136670D01*
X759933Y136808D01*
X760488Y137225D01*
X761598Y137641D01*
X763262Y137779D01*
X773802D01*
X774218Y137641D01*
X774773Y137225D01*
X775189Y136392D01*
X775882Y131400D01*
Y131122D01*
X775743Y130706D01*
X775466Y130290D01*
X775050Y130013D01*
X767977D01*
X771860Y102831D01*
Y102692D01*
Y102276D01*
X771999Y101583D01*
Y100751D01*
X772138Y99641D01*
Y98532D01*
X771999Y95758D01*
X771583Y92846D01*
X770751Y89795D01*
X770196Y88408D01*
X769503Y87021D01*
X768671Y85773D01*
X767700Y84663D01*
X767422Y84386D01*
X766590Y83831D01*
X765342Y82999D01*
X763401Y82028D01*
X761043Y81057D01*
X757992Y80087D01*
X754525Y79532D01*
X750503Y79393D01*
X749255D01*
X747729Y79532D01*
X745926Y79671D01*
X743846Y79809D01*
X741627Y80087D01*
X739408Y80641D01*
X737328Y81196D01*
X737051Y81335D01*
X736496Y81474D01*
X735525Y81751D01*
X734416Y82306D01*
X731919Y83415D01*
X730671Y83970D01*
X729562Y84663D01*
X729423D01*
X729146Y84941D01*
X728175Y85495D01*
X727204Y86327D01*
X726927Y86605D01*
X726649Y86882D01*
X726511D01*
X726372Y87160D01*
X726095Y87437D01*
X725956Y87714D01*
Y87992D01*
Y88269D01*
X726095Y88685D01*
X728868Y92846D01*
X729007Y93123D01*
X729562Y93400D01*
X729839D01*
X730532Y93123D01*
X730671Y92984D01*
X730810Y92846D01*
X731226Y92707D01*
X731781Y92291D01*
X732613Y91875D01*
X733722Y91320D01*
X735248Y90488D01*
X735525Y90349D01*
X736080Y90072D01*
X737189Y89656D01*
X738576Y89240D01*
X740518Y88824D01*
X742875Y88269D01*
X745788Y87992D01*
X748977Y87714D01*
X750087D01*
X751335Y87853D01*
X752861Y88130D01*
X754663Y88546D01*
X756466Y89101D01*
X758131Y89933D01*
X759656Y91043D01*
X759795Y91181D01*
X760211Y91597D01*
X760766Y92430D01*
X761459Y93678D01*
X762014Y95203D01*
X762291Y97145D01*
X762568Y99641D01*
X762291Y102415D01*
X762014Y103940D01*
X749671D01*
X748284Y104079D01*
X746897Y104218D01*
X745233Y104356D01*
X743430Y104495D01*
X739408Y105050D01*
X735386Y105882D01*
X731226Y107130D01*
X727481Y108794D01*
X727343D01*
X727065Y109072D01*
X726649Y109349D01*
X726095Y109765D01*
X724569Y110875D01*
X722766Y112539D01*
X721102Y114758D01*
X719576Y117393D01*
X719022Y119057D01*
X718467Y120721D01*
X718190Y122524D01*
X718051Y124466D01*
Y124604D01*
Y124743D01*
X718190Y125575D01*
X718328Y126823D01*
X718744Y128349D01*
X719299Y130013D01*
X720131Y131816D01*
X721241Y133480D01*
X722766Y135006D01*
X723044Y135144D01*
X723598Y135560D01*
X724708Y136115D01*
X726095Y136808D01*
X727759Y137502D01*
X729978Y138057D01*
X732335Y138473D01*
X734970Y138611D01*
X736218D01*
X737467Y138473D01*
D02*
G37*
G36*
X1336304Y164961D02*
X1337691Y164823D01*
X1339633Y164407D01*
X1341574Y163852D01*
X1343793Y162881D01*
X1346012Y161633D01*
X1347954Y159830D01*
X1348231Y159553D01*
X1348786Y158859D01*
X1349757Y157750D01*
X1351143Y156086D01*
X1352530Y154005D01*
X1354194Y151509D01*
X1355859Y148597D01*
X1357523Y145268D01*
X1386646Y87992D01*
X1393442D01*
X1394135Y87714D01*
X1394274Y87576D01*
X1394413Y87437D01*
X1394690Y87021D01*
X1394829Y86605D01*
X1395384Y81612D01*
Y81335D01*
Y80919D01*
X1395106Y80503D01*
X1394690Y80225D01*
X1372085D01*
X1371669Y80364D01*
X1371114Y80780D01*
X1370698Y81612D01*
X1370004Y86605D01*
Y86882D01*
X1370143Y87298D01*
X1370420Y87714D01*
X1370836Y87992D01*
X1376523D01*
X1356968Y127794D01*
X1356691D01*
X1347122Y87992D01*
X1352253D01*
X1352946Y87714D01*
X1353085Y87576D01*
X1353224Y87437D01*
X1353501Y87021D01*
X1353640Y86605D01*
X1354194Y81612D01*
Y81474D01*
Y81196D01*
Y80919D01*
X1354056Y80641D01*
Y80503D01*
X1353778Y80364D01*
X1353501Y80225D01*
X1331589D01*
X1331034Y80364D01*
X1330479Y80780D01*
X1330202Y81612D01*
X1329509Y86605D01*
Y86882D01*
X1329647Y87298D01*
X1329925Y87714D01*
X1330341Y87992D01*
X1337275D01*
X1348647Y133619D01*
X1348786Y133896D01*
X1348924Y134590D01*
X1349202Y135283D01*
X1349618Y135976D01*
X1349757Y136115D01*
X1350034Y136254D01*
X1350589Y136531D01*
X1352808D01*
X1348508Y145130D01*
X1348370Y145407D01*
X1347954Y146100D01*
X1347399Y147210D01*
X1346567Y148597D01*
X1344625Y151509D01*
X1343516Y152896D01*
X1342406Y154144D01*
X1342268Y154283D01*
X1341852Y154560D01*
X1341297Y154976D01*
X1340465Y155531D01*
X1339355Y156086D01*
X1338107Y156502D01*
X1336582Y156779D01*
X1335056Y156918D01*
X1334640D01*
X1334085Y156779D01*
X1333530D01*
X1332144Y156363D01*
X1330895Y155808D01*
X1330618Y155669D01*
X1330202Y155392D01*
X1329509Y154976D01*
X1329093Y154560D01*
X1328815Y154421D01*
X1328122Y154283D01*
X1327844D01*
X1327428Y154421D01*
X1327151Y154699D01*
X1323545Y158443D01*
Y158582D01*
X1323407Y158721D01*
X1323268Y159137D01*
X1323129Y159553D01*
Y159691D01*
X1323268Y159830D01*
X1323407Y160246D01*
X1323684Y160662D01*
X1323823Y160801D01*
X1324239Y161217D01*
X1324655Y161633D01*
X1325209Y162049D01*
X1326042Y162604D01*
X1326874Y163158D01*
X1327012Y163297D01*
X1327428Y163436D01*
X1327983Y163713D01*
X1328954Y164129D01*
X1330063Y164407D01*
X1331450Y164684D01*
X1333114Y164961D01*
X1334917Y165100D01*
X1335749D01*
X1336304Y164961D01*
D02*
G37*
G36*
X980441Y137641D02*
X980857Y137502D01*
X980996Y137363D01*
X981134Y137225D01*
X981412Y136392D01*
X982105Y131400D01*
Y131122D01*
X981967Y130706D01*
X981689Y130290D01*
X981273Y130013D01*
X974616D01*
X981412Y81612D01*
Y81335D01*
X981273Y80919D01*
X980996Y80503D01*
X980580Y80225D01*
X965047D01*
X964631Y80364D01*
X964076Y80780D01*
X963660Y81612D01*
X962967Y86605D01*
Y86882D01*
X963106Y87298D01*
X963522Y87714D01*
X963799Y87992D01*
X970872D01*
X964908Y130013D01*
X957974D01*
X957558Y130152D01*
X957003Y130568D01*
X956726Y131400D01*
X955894Y136392D01*
Y136670D01*
X956033Y137086D01*
X956449Y137502D01*
X956726Y137779D01*
X980025D01*
X980441Y137641D01*
D02*
G37*
G36*
X705569Y137502D02*
X705708Y137363D01*
X705847Y137225D01*
X706124Y136392D01*
X706956Y130568D01*
Y130429D01*
Y130152D01*
Y129874D01*
X706679Y129597D01*
Y129458D01*
X706401Y129320D01*
X706124Y129181D01*
X696694D01*
X706124Y62335D01*
X715416D01*
X716109Y62058D01*
X716248Y61919D01*
X716387Y61780D01*
X716664Y61364D01*
X716803Y60948D01*
X717635Y55124D01*
Y54846D01*
X717496Y54430D01*
X717080Y54014D01*
X716803Y53737D01*
X697526D01*
X697110Y53875D01*
X695861Y54153D01*
X694613Y54846D01*
X694336Y54985D01*
X693781Y55540D01*
X692949Y56372D01*
X692117Y57620D01*
X668679Y100057D01*
Y100196D01*
X668402Y100612D01*
X668125Y101167D01*
X667709Y101860D01*
X667154Y102831D01*
X666599Y103940D01*
X665351Y106298D01*
X665212Y106437D01*
X665074Y106853D01*
X664796Y107546D01*
X664380Y108240D01*
X663409Y110181D01*
X662439Y112123D01*
Y112261D01*
X662300Y112539D01*
X661884Y113371D01*
X661329Y114203D01*
X661190Y114480D01*
Y114619D01*
X660774D01*
Y114203D01*
X660636Y113926D01*
X660497Y113510D01*
X660358Y112816D01*
X660220Y111984D01*
Y111845D01*
X660081Y111568D01*
X659942Y111013D01*
X659804Y110320D01*
X659665Y109488D01*
X659388Y108378D01*
X658833Y106021D01*
Y105882D01*
X658694Y105466D01*
X658555Y104772D01*
X658278Y103940D01*
X657862Y101999D01*
X657307Y99919D01*
X645797Y57620D01*
Y57481D01*
X645658Y57343D01*
X645380Y56649D01*
X644826Y55678D01*
X643994Y54846D01*
X643855Y54708D01*
X643162Y54291D01*
X642191Y53875D01*
X640804Y53737D01*
X622359D01*
X621943Y53875D01*
X621527Y54153D01*
X621388Y54430D01*
X621249Y54708D01*
X621111Y55124D01*
X620279Y60948D01*
Y61226D01*
Y61642D01*
X620695Y62058D01*
X620972Y62335D01*
X630403D01*
X621111Y129181D01*
X611819D01*
X611264Y129320D01*
X610709Y129736D01*
X610432Y130568D01*
X609600Y136392D01*
Y136670D01*
X609739Y137086D01*
X610016Y137502D01*
X610432Y137779D01*
X638308D01*
X639001Y137502D01*
X639140Y137363D01*
X639278Y137225D01*
X639417Y136808D01*
X639556Y136392D01*
X640388Y130568D01*
Y130290D01*
X640249Y129874D01*
X639972Y129458D01*
X639556Y129181D01*
X631235D01*
X639417Y70656D01*
X639694D01*
X654256Y126130D01*
X654395Y126407D01*
X654672Y127101D01*
X655088Y127933D01*
X655782Y128765D01*
X656059Y128903D01*
X656614Y129181D01*
X657585Y129458D01*
X658833Y129597D01*
X659526D01*
X660220Y129458D01*
X661052Y129181D01*
X661884Y128765D01*
X662855Y128071D01*
X663825Y127239D01*
X664519Y126130D01*
X694613Y70656D01*
X694752D01*
X686570Y129181D01*
X678387D01*
X677971Y129320D01*
X677416Y129736D01*
X677000Y130568D01*
X676168Y136392D01*
Y136670D01*
X676307Y137086D01*
X676584Y137502D01*
X677000Y137779D01*
X704876D01*
X705569Y137502D01*
D02*
G37*
G36*
X978499Y73707D02*
X979193Y73569D01*
X980025Y73291D01*
X980857Y73014D01*
X981828Y72459D01*
X982660Y71766D01*
X982799Y71627D01*
X983076Y71350D01*
X983353Y70934D01*
X983908Y70379D01*
X984324Y69547D01*
X984602Y68715D01*
X984879Y67744D01*
X985018Y66634D01*
Y66496D01*
Y66218D01*
X984879Y65802D01*
Y65109D01*
X984324Y63861D01*
X983908Y63167D01*
X983353Y62474D01*
Y62335D01*
X983076Y62196D01*
X982244Y61642D01*
X980996Y61087D01*
X980164Y60810D01*
X978777D01*
X978222Y60948D01*
X977529Y61087D01*
X976697Y61364D01*
X975864Y61780D01*
X974894Y62335D01*
X974062Y63029D01*
X973923Y63167D01*
X973784Y63445D01*
X973368Y63861D01*
X972952Y64415D01*
X972536Y65248D01*
X972259Y66080D01*
X971981Y67050D01*
X971843Y68160D01*
Y68299D01*
Y68576D01*
X971981Y68992D01*
Y69547D01*
X972536Y70934D01*
X972813Y71627D01*
X973368Y72320D01*
X973507D01*
X973645Y72598D01*
X974478Y73014D01*
X975726Y73569D01*
X976558Y73707D01*
X977390Y73846D01*
X977945D01*
X978499Y73707D01*
D02*
G37*
G36*
X811663Y138334D02*
X813049Y138195D01*
X814991Y137918D01*
X817071Y137502D01*
X819290Y136808D01*
X821648Y135976D01*
X823728Y134728D01*
X824005Y134590D01*
X824699Y134035D01*
X825670Y133341D01*
X826779Y132232D01*
X828166Y130984D01*
X829414Y129597D01*
X830662Y128071D01*
X831633Y126407D01*
X830801Y132925D01*
Y133064D01*
Y133341D01*
Y133757D01*
Y134312D01*
X830940Y135560D01*
X831217Y136254D01*
X831494Y136670D01*
X831772Y136808D01*
X832327Y137225D01*
X833575Y137641D01*
X834268Y137779D01*
X845779D01*
X846472Y137502D01*
X846611Y137363D01*
X846750Y137225D01*
X847027Y136392D01*
X847859Y131400D01*
Y131122D01*
X847720Y130706D01*
X847443Y130290D01*
X847027Y130013D01*
X839954D01*
X850633Y55124D01*
Y54846D01*
X850494Y54430D01*
X850078Y54014D01*
X849801Y53737D01*
X834407D01*
X833991Y53875D01*
X833436Y54291D01*
X833159Y55124D01*
X832327Y60116D01*
Y60394D01*
X832465Y60810D01*
X832881Y61226D01*
X833159Y61503D01*
X840231D01*
X836626Y86882D01*
Y87160D01*
X836487Y87714D01*
Y88408D01*
X836348Y89379D01*
Y89517D01*
Y90072D01*
X836210Y90488D01*
Y90627D01*
X835932Y90072D01*
X835655Y89240D01*
X835100Y88130D01*
X834268Y86882D01*
X833297Y85634D01*
X832188Y84247D01*
X830662Y82999D01*
X830524Y82860D01*
X829830Y82444D01*
X828998Y81890D01*
X827611Y81196D01*
X825947Y80641D01*
X823867Y79948D01*
X821509Y79532D01*
X818735Y79393D01*
X818181D01*
X817487Y79532D01*
X816517D01*
X815268Y79809D01*
X814020Y79948D01*
X812495Y80225D01*
X810830Y80641D01*
X807363Y81890D01*
X805560Y82722D01*
X803619Y83554D01*
X801816Y84663D01*
X800013Y85911D01*
X798210Y87437D01*
X796546Y89101D01*
X796407Y89240D01*
X796130Y89517D01*
X795714Y90072D01*
X795159Y90765D01*
X794604Y91736D01*
X793772Y92846D01*
X793079Y94094D01*
X792247Y95619D01*
X791415Y97284D01*
X790583Y99086D01*
X789889Y101167D01*
X789196Y103247D01*
X788641Y105605D01*
X788225Y108101D01*
X787948Y110736D01*
X787809Y113510D01*
Y113648D01*
Y114064D01*
Y114619D01*
X787948Y115451D01*
Y116422D01*
X788086Y117531D01*
X788502Y120166D01*
X789334Y123079D01*
X790305Y126130D01*
X791831Y129181D01*
X792663Y130568D01*
X793772Y131816D01*
X793911D01*
X794050Y132093D01*
X794882Y132787D01*
X796269Y133896D01*
X798072Y135144D01*
X800429Y136254D01*
X803342Y137363D01*
X806531Y138195D01*
X808334Y138334D01*
X810276Y138473D01*
X811108D01*
X811663Y138334D01*
D02*
G37*
%LPC*%
G36*
X2389557Y3555805D02*
X2384728Y3555322D01*
X2383279Y3555805D01*
X2382071Y3555564D01*
X2299733Y3555805D01*
X2298284Y3555322D01*
X2290074Y3555805D01*
X2287901Y3555081D01*
X2286452Y3552666D01*
X2286935Y3550734D01*
X2287901Y3547354D01*
X2288625Y3546629D01*
X2291040Y3541317D01*
X2291764Y3538178D01*
X2292247Y3536246D01*
X2293696Y3532866D01*
X2294420Y3532142D01*
X2295869Y3528278D01*
X2296594Y3524656D01*
X2298042Y3521276D01*
X2299974Y3517895D01*
X2301423Y3512100D01*
X2302871Y3508719D01*
X2305044Y3504132D01*
X2306252Y3498578D01*
X2308425Y3494956D01*
X2309391Y3492542D01*
X2309874Y3490610D01*
X2310598Y3487471D01*
X2312047Y3484090D01*
X2313979Y3480710D01*
X2315428Y3474915D01*
X2316876Y3471534D01*
X2319049Y3466946D01*
X2319532Y3464532D01*
X2320256Y3461393D01*
X2322430Y3457771D01*
X2323396Y3455357D01*
X2323879Y3453425D01*
X2324603Y3450286D01*
X2326052Y3446905D01*
X2326776Y3446181D01*
X2328467Y3441593D01*
X2329432Y3437730D01*
X2332813Y3430485D01*
X2333779Y3426622D01*
X2334744Y3424208D01*
Y3423725D01*
X2335952Y3421552D01*
X2337642Y3416964D01*
X2338850Y3415756D01*
X2340781Y3415273D01*
X2342230Y3416722D01*
X2342954Y3419861D01*
X2343920Y3423725D01*
X2345128Y3426381D01*
X2346576Y3429278D01*
X2347059Y3431210D01*
X2347783Y3434349D01*
X2350440Y3439903D01*
X2351406Y3442317D01*
X2352613Y3447871D01*
X2354786Y3451493D01*
X2355993Y3454632D01*
X2356476Y3456564D01*
X2357925Y3461393D01*
X2359615Y3464532D01*
X2360823Y3467671D01*
X2361306Y3469603D01*
X2362271Y3472983D01*
X2363962Y3476122D01*
X2365411Y3479985D01*
X2366135Y3483124D01*
X2369515Y3490368D01*
X2370964Y3496163D01*
X2374344Y3503408D01*
X2375310Y3507754D01*
X2378932Y3515722D01*
X2379898Y3519586D01*
X2380623Y3522724D01*
X2382796Y3526346D01*
X2383762Y3528761D01*
X2384244Y3531176D01*
X2384969Y3533832D01*
X2387625Y3539385D01*
X2388591Y3541800D01*
X2389315Y3546388D01*
X2391730Y3549768D01*
X2392696Y3552183D01*
X2391971Y3554356D01*
X2389557Y3555805D01*
D02*
G37*
G36*
X3818535Y3677502D02*
X3813706Y3677019D01*
X3807186Y3676295D01*
X3804289Y3675812D01*
X3799701Y3675088D01*
X3795837Y3674122D01*
X3791733Y3671948D01*
X3785455Y3669534D01*
X3782799Y3667361D01*
X3779418Y3665429D01*
X3778452Y3664946D01*
X3776762Y3663256D01*
X3774106Y3661083D01*
X3773140Y3660600D01*
X3770967Y3658427D01*
X3770484Y3657461D01*
X3768311Y3655771D01*
X3766138Y3653115D01*
X3765655Y3652149D01*
X3764689Y3651183D01*
X3764206Y3650217D01*
X3762274Y3648285D01*
X3760342Y3644905D01*
X3759860Y3643939D01*
X3757686Y3641766D01*
X3756238Y3637902D01*
X3755272Y3635488D01*
X3753340Y3632590D01*
X3752133Y3629451D01*
X3750684Y3623656D01*
X3749477Y3621000D01*
X3748511Y3618586D01*
X3747545Y3612790D01*
X3747062Y3608444D01*
X3746337Y3598544D01*
X3745855Y3597095D01*
X3746096Y3581400D01*
X3747303Y3566671D01*
X3747786Y3564739D01*
X3748269Y3561359D01*
X3748752Y3559427D01*
X3749960Y3556771D01*
X3750925Y3554356D01*
X3751409Y3552424D01*
X3752133Y3549285D01*
X3754065Y3544939D01*
X3754547Y3543973D01*
X3755272Y3543249D01*
X3756238Y3540834D01*
X3757445Y3537695D01*
X3759377Y3535764D01*
X3761791Y3531417D01*
X3764206Y3529003D01*
X3764689Y3528037D01*
X3765655Y3527071D01*
X3766138Y3526105D01*
X3773140Y3519103D01*
X3775555Y3517654D01*
X3777003Y3516205D01*
X3777969Y3515722D01*
X3779418Y3514273D01*
X3783765Y3511858D01*
X3784731Y3511376D01*
X3786421Y3509685D01*
X3792457Y3507512D01*
X3797769Y3505098D01*
X3800184Y3504132D01*
X3805979Y3503649D01*
X3807428Y3503166D01*
X3822399Y3502683D01*
X3828677Y3503166D01*
X3832057Y3503649D01*
X3836886Y3504132D01*
X3838818Y3504615D01*
X3843889Y3506788D01*
X3846303Y3507754D01*
X3848960Y3508478D01*
X3851374Y3509444D01*
X3852823Y3510893D01*
X3853789Y3511376D01*
X3854513Y3512100D01*
X3857652Y3513307D01*
X3859825Y3515480D01*
X3860067Y3515722D01*
X3863447Y3518137D01*
X3864413Y3518620D01*
X3870933Y3525139D01*
X3871416Y3526105D01*
X3872381Y3527071D01*
X3872864Y3528037D01*
X3875762Y3530934D01*
X3878176Y3535281D01*
X3879625Y3536730D01*
X3881557Y3540110D01*
X3883972Y3545422D01*
X3885904Y3548802D01*
X3887352Y3554598D01*
X3889525Y3560151D01*
X3890008Y3562083D01*
X3890491Y3564498D01*
X3890974Y3568361D01*
X3891699Y3578261D01*
X3892181Y3579710D01*
X3891940Y3599268D01*
X3891457Y3605063D01*
X3890974Y3610376D01*
X3890491Y3614239D01*
X3890008Y3616654D01*
X3889525Y3618586D01*
X3887594Y3623415D01*
X3886869Y3626070D01*
X3885904Y3629934D01*
X3884455Y3633315D01*
X3883247Y3634522D01*
X3881557Y3639110D01*
X3880591Y3641524D01*
X3879142Y3642973D01*
X3876728Y3647319D01*
X3875279Y3648768D01*
X3871899Y3653115D01*
X3871416Y3654081D01*
X3864896Y3660600D01*
X3863930Y3661083D01*
X3862481Y3662531D01*
X3861516Y3663015D01*
X3861274Y3663739D01*
X3860550Y3663980D01*
X3859584Y3664946D01*
X3856203Y3666878D01*
X3855238Y3667361D01*
X3854272Y3668327D01*
X3849925Y3670741D01*
X3843647Y3673639D01*
X3841957Y3674363D01*
X3840025Y3674846D01*
X3834230Y3675812D01*
X3829159Y3676536D01*
X3827711Y3677019D01*
X3818535Y3677502D01*
D02*
G37*
G36*
X3268482Y3672190D02*
X3262446Y3671948D01*
X3253270Y3671466D01*
X3248924Y3670983D01*
X3244095Y3670500D01*
X3240231Y3670017D01*
X3237816Y3669534D01*
X3231538Y3667120D01*
X3229607Y3666637D01*
X3226468Y3665912D01*
X3222363Y3664705D01*
X3218499Y3662290D01*
X3215843Y3661566D01*
X3212463Y3660117D01*
X3211497Y3659634D01*
X3210048Y3658185D01*
X3208358Y3657461D01*
X3205219Y3656254D01*
X3204253Y3655288D01*
X3203287Y3654805D01*
X3202321Y3653839D01*
X3197975Y3651424D01*
X3195561Y3649010D01*
X3192180Y3647078D01*
X3188800Y3643697D01*
X3187834Y3643214D01*
X3183487Y3638869D01*
X3182521Y3638385D01*
X3180107Y3635488D01*
X3179141Y3635005D01*
X3177933Y3633798D01*
X3177451Y3632832D01*
X3176002Y3631383D01*
X3175519Y3630417D01*
X3174312Y3629693D01*
X3172139Y3627036D01*
X3171656Y3626070D01*
X3169241Y3623656D01*
X3167309Y3620276D01*
X3165377Y3618344D01*
X3161514Y3611100D01*
X3160548Y3610134D01*
X3159341Y3608444D01*
X3157651Y3603856D01*
X3155719Y3600959D01*
X3154995Y3599268D01*
X3153787Y3596129D01*
X3153304Y3594198D01*
X3151131Y3589127D01*
X3150165Y3586712D01*
X3148475Y3578744D01*
X3147509Y3575363D01*
X3146302Y3571259D01*
X3145819Y3569327D01*
X3145336Y3566912D01*
X3144853Y3562083D01*
X3144370Y3555322D01*
X3143887Y3549527D01*
X3143404Y3536005D01*
X3143646Y3524656D01*
X3144129Y3519827D01*
X3144612Y3512100D01*
X3145095Y3505822D01*
X3145577Y3502442D01*
X3146061Y3500510D01*
X3147751Y3494956D01*
X3148233Y3493025D01*
X3149682Y3485781D01*
X3150165Y3483849D01*
X3151131Y3481434D01*
X3153546Y3476122D01*
X3154270Y3472983D01*
X3155719Y3469603D01*
X3157409Y3467430D01*
X3159100Y3462842D01*
X3161031Y3459944D01*
X3164653Y3453425D01*
X3165619Y3452942D01*
X3168275Y3448837D01*
X3168758Y3447871D01*
X3170448Y3446181D01*
X3172622Y3443524D01*
X3173104Y3442559D01*
X3177451Y3438213D01*
X3177933Y3437247D01*
X3179624Y3435556D01*
X3180590Y3435073D01*
X3184936Y3430727D01*
X3185902Y3430244D01*
X3187834Y3428312D01*
X3188800Y3427830D01*
X3190731Y3425898D01*
X3193146Y3424449D01*
X3196043Y3421552D01*
X3200390Y3419137D01*
X3201838Y3417688D01*
X3204495Y3415998D01*
X3207634Y3414790D01*
X3209082Y3413342D01*
X3210048Y3412859D01*
X3210773Y3412134D01*
X3217050Y3409720D01*
X3219948Y3407788D01*
X3222363Y3406822D01*
X3225502Y3406098D01*
X3230572Y3403925D01*
X3232987Y3402959D01*
X3234919Y3402476D01*
X3240714Y3401510D01*
X3245302Y3400786D01*
X3247234Y3400303D01*
X3250614Y3399820D01*
X3252063Y3399337D01*
X3259790Y3398854D01*
X3261238Y3398371D01*
X3269690Y3398612D01*
X3275968Y3399095D01*
X3278865Y3399578D01*
X3280797Y3400061D01*
X3283694Y3400544D01*
X3291663Y3401752D01*
X3293594Y3402234D01*
X3296975Y3402717D01*
X3302529Y3405373D01*
X3304460Y3405856D01*
X3307599Y3406581D01*
X3311946Y3408513D01*
X3313636Y3409720D01*
X3319914Y3412134D01*
X3322570Y3414307D01*
X3327882Y3417205D01*
X3328848Y3417688D01*
X3329814Y3418654D01*
X3333194Y3420586D01*
X3334643Y3422034D01*
X3338990Y3425415D01*
X3339955Y3425898D01*
X3343336Y3429278D01*
X3344302Y3429761D01*
X3348648Y3434108D01*
X3349614Y3434591D01*
X3352270Y3437247D01*
X3352753Y3438213D01*
X3356616Y3442076D01*
X3357099Y3443042D01*
X3358065Y3444008D01*
X3358548Y3444973D01*
X3360238Y3446663D01*
X3363377Y3451252D01*
X3363860Y3452218D01*
X3366275Y3454632D01*
X3366758Y3455598D01*
X3368207Y3458978D01*
X3368690Y3459944D01*
X3369655Y3460910D01*
X3370863Y3462600D01*
X3372070Y3465739D01*
X3373277Y3468395D01*
X3375692Y3472259D01*
X3376175Y3474190D01*
X3376899Y3476846D01*
X3379072Y3481917D01*
X3380521Y3485781D01*
X3381004Y3488195D01*
X3381729Y3492300D01*
X3382694Y3496163D01*
X3384143Y3500993D01*
X3384626Y3502925D01*
X3385109Y3504373D01*
X3385592Y3514032D01*
X3386075Y3515480D01*
X3386558Y3543490D01*
X3386075Y3548320D01*
X3385592Y3558944D01*
X3385109Y3563773D01*
X3384626Y3567154D01*
X3383660Y3571017D01*
X3382936Y3573190D01*
X3381970Y3577054D01*
X3381487Y3579468D01*
X3381004Y3582366D01*
X3380279Y3585505D01*
X3378107Y3590575D01*
X3376899Y3593714D01*
X3375933Y3597578D01*
X3372312Y3604581D01*
X3372070Y3604822D01*
X3371587Y3606754D01*
X3370621Y3609168D01*
X3369172Y3610617D01*
X3365792Y3616895D01*
X3365309Y3617861D01*
X3363860Y3619310D01*
X3361929Y3622690D01*
X3360721Y3623898D01*
X3358548Y3626554D01*
X3358065Y3627520D01*
X3353719Y3631866D01*
X3353236Y3632832D01*
X3347682Y3638385D01*
X3346716Y3638869D01*
X3342370Y3643214D01*
X3341404Y3643697D01*
X3339714Y3645388D01*
X3337058Y3647561D01*
X3336092Y3648044D01*
X3333677Y3650459D01*
X3329331Y3652873D01*
X3328365Y3653356D01*
X3326916Y3654805D01*
X3322570Y3657220D01*
X3320155Y3658185D01*
X3319190Y3659151D01*
X3316533Y3660841D01*
X3313877Y3661566D01*
X3306875Y3665188D01*
X3303736Y3665912D01*
X3300355Y3666878D01*
X3296250Y3668085D01*
X3293836Y3669051D01*
X3291180Y3669775D01*
X3289731Y3670259D01*
X3282970Y3670741D01*
X3281521Y3671224D01*
X3269931Y3671707D01*
X3268482Y3672190D01*
D02*
G37*
G36*
X2630537Y3222103D02*
X2629330Y3221862D01*
X2616049Y3221137D01*
X2611220Y3220654D01*
X2609288Y3220172D01*
X2600837Y3217515D01*
X2598905Y3217032D01*
X2594318Y3216308D01*
X2592386Y3215825D01*
X2589005Y3214859D01*
X2586349Y3213652D01*
X2582486Y3212203D01*
X2579347Y3211478D01*
X2576932Y3210513D01*
X2575966Y3209547D01*
X2569688Y3206166D01*
X2567757Y3204235D01*
X2563410Y3201820D01*
X2560996Y3199405D01*
X2557615Y3197474D01*
X2553752Y3193610D01*
X2552061Y3192403D01*
X2551579Y3191437D01*
X2548198Y3188057D01*
X2545783Y3184676D01*
X2545300Y3183710D01*
X2543852Y3182261D01*
X2542162Y3179606D01*
X2540954Y3176466D01*
X2538056Y3173569D01*
X2537091Y3171154D01*
X2535159Y3166808D01*
X2533469Y3164152D01*
X2532986Y3162220D01*
X2532261Y3159564D01*
X2530088Y3154494D01*
X2529122Y3152079D01*
X2528640Y3149664D01*
X2527915Y3144111D01*
X2526949Y3135901D01*
X2526466Y3134452D01*
X2525983Y3121413D01*
X2525501Y3112237D01*
X2525983Y3110305D01*
X2527191Y3099440D01*
X2528398Y3083744D01*
X2529364Y3080364D01*
X2530571Y3076259D01*
X2531537Y3072396D01*
X2532261Y3068291D01*
X2532744Y3066359D01*
X2533227Y3061530D01*
X2534193Y3058150D01*
X2535400Y3055011D01*
X2536366Y3052596D01*
X2537573Y3047042D01*
X2538056Y3045110D01*
X2540713Y3039074D01*
X2541196Y3037142D01*
X2541920Y3033520D01*
X2542403Y3031589D01*
X2544818Y3026276D01*
X2545542Y3024586D01*
X2546266Y3021930D01*
X2547232Y3018067D01*
X2548681Y3015652D01*
X2550612Y3012272D01*
X2551095Y3008891D01*
X2555442Y2999715D01*
X2557132Y2998025D01*
X2566791Y2997542D01*
X2568722Y2998025D01*
X2576932Y2998991D01*
X2580795Y2999957D01*
X2583452Y3000681D01*
X2585866Y3001647D01*
X2587798Y3002130D01*
X2593352Y3003337D01*
X2596732Y3004303D01*
X2600354Y3006477D01*
X2603493Y3007684D01*
X2605425Y3008167D01*
X2607839Y3009133D01*
X2608805Y3009616D01*
X2609288Y3010581D01*
X2610254Y3011064D01*
X2610979Y3011788D01*
X2612910Y3012272D01*
X2614600Y3012030D01*
X2615325Y3011306D01*
X2615808Y3007442D01*
X2614600Y3004786D01*
X2612669Y2999474D01*
X2612186Y2997542D01*
X2611461Y2992955D01*
X2610979Y2988125D01*
X2610013Y2982330D01*
X2609530Y2980398D01*
X2609047Y2978950D01*
X2609288Y2961323D01*
X2609771Y2958425D01*
X2610737Y2953596D01*
X2611220Y2949732D01*
X2611703Y2944903D01*
X2612186Y2942489D01*
X2613393Y2939350D01*
X2614117Y2938625D01*
X2615083Y2936211D01*
X2616290Y2931140D01*
X2616774Y2929208D01*
X2618222Y2925828D01*
X2619912Y2923172D01*
X2620637Y2920516D01*
X2621603Y2916652D01*
X2623052Y2915203D01*
X2623534Y2912306D01*
X2622810Y2911582D01*
X2620395Y2911099D01*
X2618464Y2911582D01*
X2614359Y2912789D01*
X2611944Y2913755D01*
X2610013Y2914238D01*
X2605425Y2914962D01*
X2603976Y2915445D01*
X2600354Y2915203D01*
X2599871Y2913755D01*
X2603251Y2906511D01*
X2603976Y2905786D01*
X2606390Y2901923D01*
X2607598Y2898784D01*
X2609530Y2896852D01*
X2612427Y2891540D01*
X2612910Y2890574D01*
X2614359Y2889126D01*
X2615808Y2886711D01*
X2616774Y2884296D01*
X2618705Y2882364D01*
X2620637Y2878984D01*
X2621603Y2876569D01*
X2622327Y2875845D01*
X2624500Y2873189D01*
X2624983Y2872223D01*
X2625949Y2869808D01*
X2627881Y2867876D01*
X2629571Y2865221D01*
X2630778Y2862082D01*
X2631503Y2861357D01*
X2633917Y2858460D01*
X2635125Y2855321D01*
X2637056Y2853389D01*
X2639954Y2848077D01*
X2642369Y2845662D01*
X2644783Y2841316D01*
X2647681Y2838418D01*
X2648164Y2837452D01*
X2649130Y2835038D01*
X2651544Y2832623D01*
X2652027Y2831657D01*
X2652993Y2830691D01*
X2653476Y2828760D01*
X2655891Y2826345D01*
X2658305Y2821999D01*
X2660720Y2819584D01*
X2663134Y2815238D01*
X2665549Y2812823D01*
X2667481Y2809443D01*
X2669895Y2807028D01*
X2672793Y2801716D01*
X2674725Y2799784D01*
X2676656Y2796404D01*
X2678830Y2794231D01*
X2681003Y2791574D01*
X2681485Y2790609D01*
X2683900Y2788194D01*
X2685832Y2784813D01*
X2686798Y2783847D01*
X2687281Y2782882D01*
X2689212Y2780950D01*
X2691144Y2777570D01*
X2691869Y2776845D01*
X2692834Y2776362D01*
X2694524Y2774189D01*
X2695008Y2773223D01*
X2697905Y2770325D01*
X2699837Y2766945D01*
X2702251Y2764531D01*
X2704666Y2761150D01*
X2705149Y2760184D01*
X2707564Y2757770D01*
X2710220Y2753665D01*
X2711186Y2753182D01*
X2713359Y2750525D01*
X2713842Y2749560D01*
X2716739Y2746662D01*
X2718671Y2743282D01*
X2720361Y2741592D01*
X2722534Y2738935D01*
X2723017Y2737969D01*
X2725190Y2735796D01*
X2727364Y2733140D01*
X2727847Y2732174D01*
X2730744Y2729277D01*
X2732193Y2726862D01*
X2736056Y2722999D01*
X2736539Y2722033D01*
X2739920Y2718652D01*
X2741369Y2716238D01*
X2742817Y2714789D01*
X2746198Y2710443D01*
X2746681Y2709477D01*
X2748854Y2707304D01*
X2751027Y2704648D01*
X2751510Y2703682D01*
X2752717Y2702474D01*
X2753683Y2701992D01*
X2753924Y2701267D01*
X2754890Y2700301D01*
X2755373Y2699335D01*
X2758754Y2695955D01*
X2760203Y2693540D01*
X2760927Y2692816D01*
X2761893Y2692333D01*
X2763825Y2689919D01*
X2765756Y2687021D01*
X2766722Y2686538D01*
X2769378Y2682916D01*
X2769861Y2681950D01*
X2773000Y2678811D01*
X2774932Y2675914D01*
X2775898Y2675431D01*
X2778071Y2673257D01*
X2778554Y2672292D01*
X2782417Y2668428D01*
X2782900Y2667462D01*
X2787246Y2663116D01*
X2787729Y2662150D01*
X2790144Y2659736D01*
X2790386Y2659494D01*
X2790868D01*
X2791110Y2658770D01*
X2792076Y2657804D01*
X2792559Y2656838D01*
X2793766Y2655631D01*
X2794732Y2655148D01*
X2795939Y2653940D01*
X2796422Y2652974D01*
X2802458Y2646938D01*
X2804873Y2645489D01*
X2805839Y2645006D01*
X2807288Y2643558D01*
X2809944Y2641867D01*
X2813083Y2640660D01*
X2815498Y2639694D01*
X2816222Y2638970D01*
X2818636Y2638004D01*
X2822742Y2637279D01*
X2827571Y2635831D01*
X2831193Y2633175D01*
X2835780Y2631484D01*
X2838195Y2630518D01*
X2841575Y2628587D01*
X2850510Y2627862D01*
X2853649Y2627138D01*
X2856063Y2624723D01*
X2858720Y2623033D01*
X2863307Y2622309D01*
X2865963Y2621584D01*
X2868378Y2620618D01*
X2877554Y2619170D01*
X2880451Y2618687D01*
X2900010Y2617962D01*
X2907737Y2618445D01*
X2910151Y2619411D01*
X2911117Y2620377D01*
X2915463Y2622792D01*
X2917153Y2624482D01*
X2919085Y2627862D01*
X2919568Y2628828D01*
X2920534Y2629794D01*
X2921741Y2631484D01*
X2923915Y2634141D01*
X2924398Y2638970D01*
X2926812Y2644282D01*
X2927295Y2645248D01*
X2929710Y2647180D01*
X2930917Y2648870D01*
X2933573Y2650560D01*
X2936712Y2651284D01*
X2939127Y2652250D01*
X2943714Y2652008D01*
X2946371Y2651284D01*
X2951683Y2648870D01*
X2954097Y2647421D01*
X2958202Y2647662D01*
X2961100Y2648145D01*
X2963514Y2649111D01*
X2965446Y2649594D01*
X2967619Y2649353D01*
X2969551Y2648870D01*
X2972932Y2645489D01*
X2975829Y2645006D01*
X2977519Y2647662D01*
X2978002Y2648628D01*
X2980175Y2650319D01*
X2981141Y2650801D01*
X2982348Y2652492D01*
X2982831Y2653457D01*
X2984522Y2655148D01*
X2987419Y2655631D01*
X2989351Y2656114D01*
X2991041Y2657804D01*
X2991524Y2658770D01*
X2993939Y2661184D01*
X2996836Y2666496D01*
X2998768Y2669877D01*
X2999251Y2672775D01*
X2998768Y2674706D01*
X2998044Y2675431D01*
X2996595Y2679294D01*
X2996112Y2687021D01*
X2995629Y2688953D01*
X2993939Y2693540D01*
X2992007Y2696438D01*
X2991524Y2700784D01*
X2992249Y2702957D01*
X2993456Y2706096D01*
X2992490Y2709477D01*
X2991766Y2710201D01*
X2991041Y2712857D01*
X2991524Y2714789D01*
X2992249Y2715513D01*
X2993214Y2715996D01*
X2995387Y2718169D01*
X2995146Y2718894D01*
X2993456Y2720101D01*
X2990317Y2721308D01*
X2989592Y2722033D01*
X2989110Y2725897D01*
X2987661Y2729277D01*
X2987178Y2730243D01*
X2985004Y2732416D01*
X2984039Y2732899D01*
X2981866Y2735072D01*
X2981383Y2737486D01*
X2983797Y2745213D01*
X2986212Y2748594D01*
X2987178Y2752940D01*
X2988385Y2755596D01*
X2989351Y2756079D01*
X2990317Y2757045D01*
X2991283Y2757528D01*
X2992007Y2758253D01*
X2992490Y2759219D01*
X2994180Y2760909D01*
X2995146Y2761391D01*
X2996353Y2762599D01*
X2996836Y2763564D01*
X2998526Y2765255D01*
X2999492Y2765738D01*
X3001182Y2767428D01*
X3001665Y2768394D01*
X3002873Y2769601D01*
X3003839Y2770084D01*
X3006012Y2772257D01*
X3006495Y2773223D01*
X3008185Y2774913D01*
X3009151Y2775396D01*
X3010841Y2777087D01*
X3011324Y2778052D01*
X3013739Y2780467D01*
X3015188Y2782882D01*
X3016878Y2784572D01*
X3018568Y2785779D01*
X3019051Y2786745D01*
X3021224Y2788918D01*
X3022190Y2789401D01*
X3023880Y2791091D01*
X3024363Y2792057D01*
X3027743Y2795438D01*
X3029192Y2797852D01*
X3031607Y2800267D01*
X3033297Y2802923D01*
X3034504Y2806062D01*
X3034988Y2807994D01*
X3036195Y2812099D01*
X3037885Y2816687D01*
X3040300Y2824413D01*
X3040783Y2827794D01*
X3043680Y2834072D01*
X3044163Y2835038D01*
X3045370Y2835762D01*
X3047785Y2838660D01*
X3048751Y2841074D01*
X3049958Y2844213D01*
X3050441Y2847594D01*
X3051407Y2851457D01*
X3052373Y2854838D01*
X3053339Y2855804D01*
X3055270Y2859184D01*
X3055753Y2860633D01*
X3056236Y2865462D01*
X3055270Y2867876D01*
X3054546Y2868601D01*
X3052373Y2871257D01*
X3052856Y2878018D01*
X3053339Y2879950D01*
X3055029Y2884055D01*
X3056236Y2887194D01*
X3057202Y2890574D01*
X3059617Y2892989D01*
X3061549Y2896369D01*
X3062514Y2897335D01*
X3062997Y2898301D01*
X3063963Y2899267D01*
X3064446Y2903130D01*
X3062273Y2907235D01*
X3061790Y2909167D01*
X3062031Y2916652D01*
X3061066Y2922447D01*
X3060100Y2924862D01*
X3059617Y2925828D01*
X3058168Y2927277D01*
X3055753Y2931623D01*
X3053339Y2933072D01*
X3050200Y2934279D01*
X3048751Y2935728D01*
X3047544Y2938867D01*
X3046578Y2941282D01*
X3046095Y2942247D01*
X3045370Y2942489D01*
X3043680Y2944179D01*
X3042956Y2945869D01*
X3042231Y2949008D01*
X3040058Y2954079D01*
X3039092Y2956494D01*
X3038610Y2958425D01*
X3037885Y2963979D01*
X3036919Y2967842D01*
X3035229Y2971947D01*
X3034263Y2974362D01*
X3033056Y2979916D01*
X3031607Y2983296D01*
X3029192Y2986676D01*
X3028709Y2998749D01*
X3028227Y3000198D01*
X3027743Y3020481D01*
X3028227Y3026760D01*
X3029675Y3030140D01*
X3030400Y3030381D01*
X3031124Y3031106D01*
X3033539Y3034486D01*
X3034022Y3035452D01*
X3035953Y3037384D01*
X3038368Y3040764D01*
X3038851Y3041730D01*
X3040300Y3043179D01*
X3040783Y3044145D01*
X3041749Y3045110D01*
X3042715Y3047525D01*
X3044163Y3050906D01*
X3045129Y3051871D01*
X3045612Y3052837D01*
X3046336Y3053562D01*
X3047544Y3056701D01*
X3048510Y3059115D01*
X3050441Y3061047D01*
X3052373Y3064427D01*
X3051890Y3066842D01*
X3051165Y3067566D01*
X3047785Y3069498D01*
X3046819Y3070464D01*
X3042473Y3072879D01*
X3039817Y3074086D01*
X3037161Y3076259D01*
X3034746Y3077225D01*
X3031366Y3078674D01*
X3029192Y3080847D01*
X3026053Y3082054D01*
X3023398Y3083262D01*
X3020500Y3085676D01*
X3015912Y3087367D01*
X3015188Y3088091D01*
X3012531Y3090264D01*
X3007702Y3092196D01*
X3006253Y3093645D01*
X3004563Y3094852D01*
X2999975Y3096542D01*
X2998044Y3098474D01*
X2997078Y3098957D01*
X2996353Y3099681D01*
X2993214Y3100888D01*
X2987419Y3104752D01*
X2985488Y3105235D01*
X2982107Y3106684D01*
X2981141Y3107650D01*
X2978485Y3109340D01*
X2975829Y3110064D01*
X2973414Y3111030D01*
X2972449Y3111996D01*
X2968102Y3114411D01*
X2966171Y3114893D01*
X2961824Y3117791D01*
X2958685Y3118998D01*
X2956029Y3119723D01*
X2955063Y3120689D01*
X2954097Y3121172D01*
X2952890Y3122379D01*
X2946853Y3124552D01*
X2945405Y3126001D01*
X2944439Y3126483D01*
X2943714Y3127208D01*
X2937436Y3129623D01*
X2934780Y3131796D01*
X2930917Y3133244D01*
X2928502Y3134210D01*
X2927536Y3135176D01*
X2925846Y3136384D01*
X2923432Y3137350D01*
X2920776Y3138074D01*
X2917878Y3140006D01*
X2914498Y3141937D01*
X2911117Y3142903D01*
X2908219Y3144835D01*
X2904839Y3146766D01*
X2901941Y3147249D01*
X2899044Y3149181D01*
X2897354Y3150388D01*
X2892766Y3152079D01*
X2889385Y3153528D01*
X2888420Y3154010D01*
X2887695Y3154735D01*
X2883831Y3156184D01*
X2880692Y3156908D01*
X2875381Y3160289D01*
X2872483Y3160771D01*
X2869102Y3162220D01*
X2868137Y3162703D01*
X2866929Y3163910D01*
X2863790Y3165118D01*
X2859927Y3166084D01*
X2856788Y3167291D01*
X2853890Y3169223D01*
X2848820Y3170430D01*
X2845439Y3171879D01*
X2844473Y3172362D01*
X2843749Y3173086D01*
X2840610Y3174293D01*
X2834814Y3175742D01*
X2831193Y3177915D01*
X2828778Y3178881D01*
X2826363Y3179364D01*
X2823224Y3180088D01*
X2819602Y3182261D01*
X2815739Y3183710D01*
X2813324Y3184193D01*
X2810185Y3184918D01*
X2807288Y3186850D01*
X2803424Y3188298D01*
X2797629Y3189747D01*
X2792559Y3192403D01*
X2789420Y3193127D01*
X2785556Y3194093D01*
X2782176Y3195542D01*
X2778554Y3197232D01*
X2775415Y3197957D01*
X2770585Y3199405D01*
X2767205Y3200854D01*
X2764790Y3201820D01*
X2762859Y3202303D01*
X2759478Y3202786D01*
X2757547Y3203269D01*
X2754890Y3203993D01*
X2752476Y3204959D01*
X2748612Y3206408D01*
X2745473Y3207133D01*
X2742093Y3207615D01*
X2738229Y3208581D01*
X2732676Y3210271D01*
X2730744Y3210754D01*
X2723742Y3211962D01*
X2720361Y3212444D01*
X2717705Y3213169D01*
X2713842Y3214135D01*
X2708771Y3215342D01*
X2706839Y3215825D01*
X2703459Y3216308D01*
X2696939Y3217032D01*
X2694042Y3217515D01*
X2691627Y3217998D01*
X2689695Y3218481D01*
X2686798Y3218964D01*
X2680761Y3219688D01*
X2679312Y3220172D01*
X2669171Y3220654D01*
X2667722Y3221137D01*
X2631986Y3221620D01*
X2630537Y3222103D01*
D02*
G37*
G36*
X3423502Y3030864D02*
X3421570Y3030381D01*
X3420121Y3029898D01*
X3419155Y3029415D01*
X3417224Y3027484D01*
X3416257Y3027001D01*
X3414326Y3025069D01*
X3413119Y3021930D01*
X3412636Y3019998D01*
X3411670Y3017584D01*
X3411187Y2936452D01*
X3411670Y2933072D01*
X3412153Y2931623D01*
X3412636Y2875604D01*
X3414084Y2870774D01*
X3415775Y2869084D01*
X3416741Y2868601D01*
X3418431Y2866911D01*
X3418914Y2865945D01*
X3421328Y2864496D01*
X3427848Y2863772D01*
X3433643Y2864737D01*
X3437024Y2868118D01*
X3437990Y2868601D01*
X3440163Y2870774D01*
X3440645Y2871740D01*
X3441611Y2874155D01*
X3442094Y2985711D01*
X3441611Y2987159D01*
X3441128Y3011788D01*
X3441611Y3016618D01*
X3441128Y3019998D01*
X3439680Y3023379D01*
X3439197Y3024345D01*
X3438472Y3025069D01*
X3437506Y3025552D01*
X3435816Y3027242D01*
X3435575Y3027484D01*
X3434850Y3028208D01*
X3432194Y3030381D01*
X3423502Y3030864D01*
D02*
G37*
G36*
X3375692Y2979191D02*
X3372312Y2978708D01*
X3368931Y2976294D01*
X3367965Y2975811D01*
X3363619Y2971464D01*
X3362653Y2969050D01*
X3361687Y2963254D01*
X3361929Y2893955D01*
X3361446Y2886228D01*
X3361929Y2884779D01*
X3362411Y2874638D01*
X3363377Y2870774D01*
X3365067Y2869084D01*
X3366033Y2868601D01*
X3368448Y2866186D01*
X3371829Y2864255D01*
X3375209Y2863772D01*
X3381487Y2864255D01*
X3384143Y2865462D01*
X3384626Y2866428D01*
X3387282Y2868601D01*
X3388248Y2869084D01*
X3388972Y2869808D01*
X3390421Y2872223D01*
X3390904Y2877535D01*
X3391387Y2878984D01*
X3390904Y2880433D01*
X3391146Y2882606D01*
X3390904Y2921482D01*
Y2921964D01*
Y2955769D01*
X3391387Y2960599D01*
X3390421Y2968808D01*
X3388972Y2972189D01*
X3388490Y2973155D01*
X3387765Y2973396D01*
X3386799Y2974362D01*
X3382453Y2976777D01*
X3379555Y2978708D01*
X3375692Y2979191D01*
D02*
G37*
G36*
X3323053Y3030864D02*
X3319673Y3029415D01*
X3318707Y3028932D01*
X3315567Y3025794D01*
X3312187Y3021447D01*
X3311704Y2911823D01*
X3311221Y2910374D01*
X3311463Y2909167D01*
X3311946Y2905304D01*
X3312428Y2902406D01*
X3312187Y2876086D01*
X3312670Y2874155D01*
X3316051Y2869325D01*
X3316533Y2868360D01*
X3317741Y2867152D01*
X3317982Y2866911D01*
X3318224Y2866669D01*
X3321604Y2864255D01*
X3328365Y2863772D01*
X3331745Y2864255D01*
X3334160Y2865221D01*
X3335126Y2865703D01*
X3338748Y2869325D01*
X3339231Y2870291D01*
X3342612Y2877535D01*
X3343094Y2922447D01*
X3342129Y2924862D01*
X3341646Y3017584D01*
X3340438Y3021689D01*
X3339231Y3024828D01*
X3336575Y3027001D01*
X3335609Y3027484D01*
X3332711Y3030381D01*
X3323053Y3030864D01*
D02*
G37*
G36*
X3573692Y2551801D02*
X3567414Y2548904D01*
X3550994Y2532484D01*
X3547613Y2532002D01*
X3545682Y2531518D01*
X3544958Y2530794D01*
X3545923Y2527897D01*
X3547131Y2526689D01*
X3549545Y2525241D01*
X3551960Y2524275D01*
X3552685Y2523550D01*
X3553167Y2521619D01*
X3552201Y2517755D01*
X3551236Y2515341D01*
X3550753Y2514375D01*
X3548338Y2511960D01*
X3547855Y2510994D01*
X3545682Y2508821D01*
X3540370Y2505923D01*
X3538197Y2503268D01*
X3537714Y2502302D01*
X3535782Y2500370D01*
X3534575Y2498680D01*
X3532401Y2496023D01*
X3529745Y2493850D01*
X3527331Y2492885D01*
X3526123Y2491677D01*
X3524192Y2488297D01*
X3522019Y2486123D01*
X3519845Y2483467D01*
X3519363Y2482502D01*
X3518638Y2481777D01*
X3515982Y2480087D01*
X3514050Y2479604D01*
X3511394Y2478880D01*
X3508980Y2476465D01*
X3507289Y2475258D01*
X3502219Y2474051D01*
X3500528Y2472360D01*
X3500045Y2471394D01*
X3498355Y2469704D01*
X3497389Y2469221D01*
X3494009Y2468255D01*
X3493043Y2467289D01*
X3489663Y2465358D01*
X3488938Y2464633D01*
X3487490Y2462219D01*
X3486041Y2458838D01*
X3484350Y2457148D01*
X3483384Y2454733D01*
X3482418Y2449904D01*
X3481694Y2444833D01*
X3481211Y2442902D01*
X3480004Y2438797D01*
X3479521Y2436865D01*
X3478796Y2432277D01*
X3478314Y2428897D01*
X3477348Y2426482D01*
X3476865Y2425516D01*
X3475416Y2424067D01*
X3473484Y2420687D01*
X3473002Y2419721D01*
X3472035Y2419238D01*
X3469138Y2417306D01*
X3468655Y2416341D01*
X3465999Y2413685D01*
X3465033Y2413202D01*
X3463584Y2411753D01*
X3461894Y2410546D01*
X3459238Y2409821D01*
X3456099Y2408614D01*
X3451753Y2400404D01*
X3451270Y2369014D01*
X3450787Y2367082D01*
X3449580Y2364426D01*
X3448614Y2363943D01*
X3446440Y2361770D01*
X3445958Y2355009D01*
X3444992Y2351629D01*
X3443060Y2349697D01*
X3441128Y2346317D01*
X3438472Y2344143D01*
X3437506Y2343661D01*
X3436782Y2342936D01*
X3436299Y2341970D01*
X3435092Y2341246D01*
X3431711Y2339314D01*
X3430745Y2338831D01*
X3428814Y2336899D01*
X3426641Y2334243D01*
X3423260Y2329897D01*
X3422777Y2319272D01*
X3421812Y2315892D01*
X3420363Y2314443D01*
X3419155Y2312753D01*
X3417948Y2309614D01*
X3417465Y2307682D01*
X3415533Y2304785D01*
X3413602Y2301404D01*
X3413119Y2299473D01*
X3411670Y2296092D01*
X3409255Y2292712D01*
X3408772Y2289814D01*
X3407806Y2287400D01*
X3407324Y2286434D01*
X3405150Y2284261D01*
X3403943Y2281121D01*
X3402977Y2278707D01*
X3402011Y2277741D01*
X3401528Y2276775D01*
X3400804Y2276051D01*
X3399597Y2272912D01*
X3398631Y2269531D01*
X3395975Y2263495D01*
X3395250Y2260356D01*
X3393319Y2256009D01*
X3390904Y2252629D01*
X3390421Y2248283D01*
X3389938Y2244902D01*
X3388248Y2243212D01*
X3387282Y2242729D01*
X3385592Y2241039D01*
X3385109Y2240073D01*
X3384143Y2239107D01*
X3383660Y2238141D01*
X3381729Y2236209D01*
X3378107Y2229690D01*
X3377141Y2227275D01*
X3376658Y2225343D01*
X3375933Y2220756D01*
X3375450Y2218824D01*
X3374726Y2216651D01*
X3372553Y2213995D01*
X3372070Y2210131D01*
X3372794Y2207958D01*
X3374726Y2207475D01*
X3375933Y2208683D01*
X3376899Y2212546D01*
X3377623Y2214719D01*
X3379314Y2215926D01*
X3381729Y2220273D01*
X3382694Y2222687D01*
X3385109Y2226068D01*
X3385592Y2229931D01*
X3387041Y2233312D01*
X3387524Y2234277D01*
X3392353Y2239107D01*
X3393560Y2240797D01*
X3394526Y2241280D01*
X3397182Y2243936D01*
X3397665Y2244902D01*
X3398872Y2246109D01*
X3401287Y2246592D01*
X3403219Y2246109D01*
X3404185Y2244178D01*
X3404668Y2242246D01*
X3405150Y2239348D01*
X3405875Y2236209D01*
X3408048Y2232105D01*
X3408531Y2230173D01*
X3409255Y2226551D01*
X3411429Y2222929D01*
X3412636Y2219790D01*
X3412153Y2217858D01*
X3410463Y2213753D01*
X3409497Y2211339D01*
X3409014Y2209407D01*
X3408531Y2206509D01*
X3407565Y2202646D01*
X3405150Y2197334D01*
X3404426Y2194195D01*
X3403460Y2190331D01*
X3402494Y2187917D01*
X3401045Y2184536D01*
X3399355Y2182846D01*
X3396941Y2182363D01*
X3395009Y2182846D01*
X3390663Y2185743D01*
X3378107Y2186227D01*
X3370863Y2182846D01*
X3370138Y2182122D01*
X3368931Y2180431D01*
X3369172Y2179224D01*
X3370138Y2178258D01*
X3373277Y2177051D01*
X3378348Y2173429D01*
X3381004Y2172704D01*
X3384385Y2170290D01*
X3386799Y2168841D01*
X3390180Y2167392D01*
X3391146Y2166910D01*
X3392111Y2165944D01*
X3396458Y2163529D01*
X3398872Y2162563D01*
X3399597Y2161839D01*
X3402253Y2159665D01*
X3404185Y2159183D01*
X3406841Y2157975D01*
X3409738Y2155561D01*
X3414326Y2153870D01*
X3416982Y2151214D01*
X3420121Y2150007D01*
X3422536Y2149041D01*
X3423985Y2147592D01*
X3427365Y2145661D01*
X3430745Y2144212D01*
X3431711Y2143729D01*
X3433884Y2141556D01*
X3438472Y2139865D01*
X3439921Y2138417D01*
X3440887Y2137934D01*
X3441611Y2137210D01*
X3446199Y2135519D01*
X3450545Y2132622D01*
X3454409Y2131173D01*
X3456823Y2130207D01*
X3457789Y2129241D01*
X3459479Y2128034D01*
X3464067Y2126344D01*
X3466482Y2125378D01*
X3467448Y2124412D01*
X3469138Y2123204D01*
X3475175Y2121031D01*
X3476623Y2119583D01*
X3477589Y2119100D01*
X3478555Y2118134D01*
X3480487Y2117651D01*
X3483867Y2116202D01*
X3484833Y2115719D01*
X3485799Y2114753D01*
X3487490Y2113546D01*
X3490145Y2112822D01*
X3493526Y2111373D01*
X3494492Y2110407D01*
X3496182Y2109200D01*
X3502219Y2107026D01*
X3504392Y2104853D01*
X3507531Y2103646D01*
X3510911Y2102680D01*
X3513326Y2101232D01*
X3516706Y2099300D01*
X3518638Y2098817D01*
X3522984Y2096885D01*
X3523950Y2096402D01*
X3524675Y2095678D01*
X3527814Y2094471D01*
X3529745Y2093987D01*
X3532160Y2093022D01*
X3535058Y2091090D01*
X3536023Y2090607D01*
X3538438Y2089641D01*
X3541336Y2089158D01*
X3544233Y2087226D01*
X3546889Y2085536D01*
X3550028Y2084812D01*
X3553167Y2083605D01*
X3555823Y2081431D01*
X3558238Y2080465D01*
X3560170Y2079983D01*
X3563550Y2078534D01*
X3567897Y2076119D01*
X3569828Y2075636D01*
X3574174Y2073705D01*
X3575865Y2072497D01*
X3578279Y2071532D01*
X3581418Y2070807D01*
X3584799Y2069358D01*
X3587455Y2067668D01*
X3589870Y2066702D01*
X3593492Y2065978D01*
X3598804Y2062598D01*
X3601219Y2062114D01*
X3607014Y2060666D01*
X3610153Y2058975D01*
X3613291Y2057768D01*
X3615223Y2057285D01*
X3618604Y2056802D01*
X3625847Y2053422D01*
X3628745Y2052938D01*
X3632609Y2051973D01*
X3636955Y2050041D01*
X3638645Y2049317D01*
X3641784Y2048110D01*
X3645164Y2047627D01*
X3650235Y2045454D01*
X3653133Y2044005D01*
X3656755Y2043280D01*
X3660618Y2042314D01*
X3663274Y2041107D01*
X3667138Y2039658D01*
X3669794Y2038934D01*
X3675589Y2037968D01*
X3678728Y2036761D01*
X3683557Y2034829D01*
X3685972Y2034346D01*
X3691526Y2033622D01*
X3693457Y2033139D01*
X3698287Y2031690D01*
X3702391Y2030483D01*
X3716155Y2028310D01*
X3718087Y2027827D01*
X3721467Y2026861D01*
X3725330Y2025895D01*
X3726779Y2025412D01*
X3731609Y2024929D01*
X3734989Y2024446D01*
X3743199Y2023480D01*
X3748028Y2022997D01*
X3749960Y2022514D01*
X3759860Y2021307D01*
X3765172Y2020824D01*
X3790042Y2020100D01*
X3802116D01*
X3804048Y2020583D01*
X3810567Y2021307D01*
X3816362Y2022756D01*
X3819984Y2023480D01*
X3821916Y2023963D01*
X3825296Y2024446D01*
X3830125Y2024929D01*
X3832057Y2025412D01*
X3835438Y2026861D01*
X3836162Y2027585D01*
X3840025Y2029034D01*
X3843647Y2029758D01*
X3847028Y2031207D01*
X3848235Y2032415D01*
X3850650Y2033380D01*
X3853789Y2034105D01*
X3856203Y2035071D01*
X3857169Y2036037D01*
X3858135Y2036519D01*
X3859101Y2037485D01*
X3863930Y2039417D01*
X3866103Y2041590D01*
X3871416Y2044971D01*
X3871899Y2045936D01*
X3872623Y2046661D01*
X3873589Y2047144D01*
X3874555Y2048110D01*
X3875520Y2048593D01*
X3876245Y2049317D01*
X3876728Y2050283D01*
X3878901Y2052456D01*
X3879867Y2052938D01*
X3882040Y2055595D01*
X3882523Y2056561D01*
X3885420Y2059458D01*
X3887835Y2063805D01*
X3888318Y2064771D01*
X3890008Y2066461D01*
X3891699Y2071048D01*
X3893147Y2073463D01*
X3894354Y2075153D01*
X3895562Y2078293D01*
X3896528Y2081673D01*
X3899184Y2088192D01*
X3900391Y2093263D01*
X3901116Y2099783D01*
X3901598Y2102680D01*
X3902806Y2112097D01*
X3903289Y2113546D01*
X3903047Y2132622D01*
X3902081Y2141314D01*
X3901357Y2147351D01*
X3900874Y2148800D01*
X3900391Y2157492D01*
X3899908Y2159424D01*
X3899425Y2162805D01*
X3898459Y2166185D01*
X3897735Y2168841D01*
X3896286Y2174636D01*
X3895562Y2179707D01*
X3894596Y2183570D01*
X3893630Y2185985D01*
X3892181Y2189365D01*
X3891699Y2190814D01*
X3891215Y2194678D01*
X3890250Y2198541D01*
X3887594Y2204578D01*
X3886386Y2209648D01*
X3885904Y2211580D01*
X3882523Y2218824D01*
X3882040Y2222204D01*
X3880108Y2226551D01*
X3877694Y2230897D01*
X3876728Y2234761D01*
X3875279Y2238141D01*
X3874796Y2239107D01*
X3874071Y2239831D01*
X3873106Y2242246D01*
X3872381Y2244902D01*
X3870691Y2249007D01*
X3868760Y2251904D01*
X3868035Y2255043D01*
X3866103Y2259390D01*
X3863689Y2263736D01*
X3863206Y2265668D01*
X3862240Y2269048D01*
X3861032Y2270255D01*
X3858377Y2271946D01*
X3855962Y2272912D01*
X3845337Y2272429D01*
X3841474Y2271463D01*
X3835679Y2270497D01*
X3831816Y2270014D01*
X3828677Y2269290D01*
X3825538Y2268082D01*
X3821674Y2266634D01*
X3818535Y2265909D01*
X3816603Y2265426D01*
X3814189Y2264461D01*
X3813223Y2263977D01*
X3812015Y2262770D01*
X3808877Y2261563D01*
X3806945Y2261080D01*
X3804530Y2260114D01*
X3802599Y2258182D01*
X3799701Y2257699D01*
X3798977Y2258424D01*
X3798494Y2260839D01*
X3798977Y2264219D01*
X3799943Y2267599D01*
X3801150Y2270738D01*
X3802116Y2274602D01*
X3802599Y2277017D01*
X3803082Y2282329D01*
X3803564Y2286192D01*
X3804289Y2290780D01*
X3804772Y2292229D01*
X3804530Y2310339D01*
X3803564Y2316134D01*
X3802840Y2323619D01*
X3802357Y2327000D01*
X3800184Y2332070D01*
X3798735Y2335933D01*
X3798011Y2340521D01*
X3796562Y2343902D01*
X3794147Y2348248D01*
X3793664Y2350180D01*
X3792699Y2352594D01*
X3792215Y2353560D01*
X3791250Y2354526D01*
X3790767Y2357424D01*
X3792457Y2358631D01*
X3798252Y2358148D01*
X3804530Y2356216D01*
X3807911Y2354285D01*
X3811533Y2354526D01*
X3812981Y2356941D01*
X3812015Y2359355D01*
X3811291Y2360080D01*
X3809601Y2361287D01*
X3806703Y2366599D01*
X3804772Y2368531D01*
X3803564Y2370221D01*
X3802357Y2373360D01*
X3801150Y2374567D01*
X3798977Y2377224D01*
X3798494Y2378190D01*
X3797528Y2380604D01*
X3795113Y2383019D01*
X3793664Y2385433D01*
X3793182Y2387365D01*
X3790767Y2389780D01*
X3788352Y2394126D01*
X3787869Y2395092D01*
X3787145Y2395334D01*
X3786421Y2396058D01*
X3784006Y2400404D01*
X3783040Y2401370D01*
X3782557Y2402336D01*
X3781108Y2403785D01*
X3779177Y2407165D01*
X3778694Y2408131D01*
X3776279Y2410546D01*
X3774347Y2413926D01*
X3773864Y2414892D01*
X3771933Y2416824D01*
X3769518Y2421170D01*
X3767104Y2423585D01*
X3765172Y2426965D01*
X3764447Y2427690D01*
X3763481Y2428172D01*
X3762757Y2428897D01*
X3760825Y2432277D01*
X3760342Y2433243D01*
X3757928Y2435658D01*
X3755513Y2440004D01*
X3754789Y2440729D01*
X3753823Y2441211D01*
X3751650Y2444833D01*
X3748752Y2447731D01*
X3746821Y2451111D01*
X3744406Y2453526D01*
X3742474Y2456907D01*
X3741991Y2457872D01*
X3739577Y2460287D01*
X3737645Y2463668D01*
X3734748Y2466565D01*
X3732816Y2469946D01*
X3730884Y2471877D01*
X3728469Y2475258D01*
X3727986Y2476224D01*
X3726296Y2477914D01*
X3724123Y2480570D01*
X3723640Y2481536D01*
X3720743Y2484433D01*
X3719294Y2486848D01*
X3716879Y2489263D01*
X3714465Y2492643D01*
X3713981Y2493609D01*
X3711567Y2496023D01*
X3709635Y2499404D01*
X3706738Y2502302D01*
X3705289Y2504716D01*
X3703116Y2506889D01*
X3702150Y2507372D01*
X3701426Y2508580D01*
X3700943Y2509546D01*
X3698287Y2512201D01*
X3696113Y2514858D01*
X3695630Y2515824D01*
X3694906Y2516548D01*
X3693940Y2517031D01*
X3691767Y2520169D01*
X3691284Y2521136D01*
X3688870Y2523550D01*
X3686938Y2526931D01*
X3686213Y2527655D01*
X3683799Y2529104D01*
X3681626Y2528379D01*
X3678970Y2526207D01*
X3674623Y2525724D01*
X3672691Y2526207D01*
X3670277Y2528621D01*
X3668587Y2529829D01*
X3665931Y2530553D01*
X3660860Y2532726D01*
X3658445Y2533692D01*
X3653374Y2534416D01*
X3651443Y2534899D01*
X3648062Y2536348D01*
X3644199Y2536831D01*
X3642750Y2536348D01*
X3637921Y2535865D01*
X3637196Y2536589D01*
X3634541Y2538763D01*
X3623433Y2539245D01*
X3617155Y2539728D01*
X3614740Y2540694D01*
X3614016Y2541419D01*
X3613533Y2542385D01*
X3612809Y2543109D01*
X3607496Y2546006D01*
X3603633Y2546489D01*
X3599287Y2544558D01*
X3593009Y2544075D01*
X3591077Y2544558D01*
X3587938Y2547696D01*
X3581901Y2549870D01*
X3579969Y2550353D01*
X3577555Y2551318D01*
X3573692Y2551801D01*
D02*
G37*
G36*
X1238255Y103108D02*
X1204277D01*
Y102970D01*
X1204416Y102692D01*
X1204554Y102276D01*
X1204693Y101721D01*
X1205386Y100196D01*
X1206219Y98393D01*
X1207328Y96451D01*
X1208715Y94371D01*
X1210379Y92568D01*
X1212321Y90904D01*
X1212598Y90765D01*
X1213291Y90349D01*
X1214401Y89656D01*
X1215926Y88962D01*
X1217729Y88269D01*
X1219671Y87576D01*
X1221890Y87160D01*
X1224247Y87021D01*
X1224941D01*
X1225496Y87160D01*
X1226744Y87298D01*
X1228408Y87576D01*
X1230211Y88130D01*
X1232014Y88962D01*
X1233678Y90072D01*
X1235204Y91459D01*
X1235342Y91597D01*
X1235758Y92291D01*
X1236313Y93262D01*
X1237006Y94510D01*
X1237561Y96174D01*
X1237977Y98116D01*
X1238255Y100473D01*
Y103108D01*
D02*
G37*
G36*
X904997D02*
X871019D01*
Y102970D01*
X871158Y102692D01*
X871297Y102276D01*
X871435Y101721D01*
X872129Y100196D01*
X872961Y98393D01*
X874070Y96451D01*
X875457Y94371D01*
X877121Y92568D01*
X879063Y90904D01*
X879340Y90765D01*
X880034Y90349D01*
X881143Y89656D01*
X882669Y88962D01*
X884472Y88269D01*
X886413Y87576D01*
X888632Y87160D01*
X890990Y87021D01*
X891683D01*
X892238Y87160D01*
X893486Y87298D01*
X895150Y87576D01*
X896953Y88130D01*
X898756Y88962D01*
X900420Y90072D01*
X901946Y91459D01*
X902085Y91597D01*
X902501Y92291D01*
X903055Y93262D01*
X903749Y94510D01*
X904303Y96174D01*
X904720Y98116D01*
X904997Y100473D01*
Y103108D01*
D02*
G37*
G36*
X1417434Y130568D02*
X1416602D01*
X1415631Y130429D01*
X1414522Y130152D01*
X1413274Y129874D01*
X1411887Y129458D01*
X1410639Y128903D01*
X1409391Y128210D01*
X1409252Y128071D01*
X1408975Y127794D01*
X1408559Y127239D01*
X1408004Y126546D01*
X1407449Y125714D01*
X1407033Y124743D01*
X1406617Y123495D01*
X1406478Y122247D01*
Y122108D01*
Y121969D01*
X1406617Y121137D01*
X1406894Y119889D01*
X1407449Y118363D01*
X1408281Y116838D01*
X1409529Y115312D01*
X1411055Y113926D01*
X1412164Y113371D01*
X1413274Y112955D01*
X1413412D01*
X1413551Y112816D01*
X1413967Y112677D01*
X1414522Y112539D01*
X1415909Y112261D01*
X1417850Y111845D01*
X1420347Y111429D01*
X1423120Y111152D01*
X1426449Y110875D01*
X1439208D01*
X1437960Y120444D01*
X1437821Y120582D01*
X1437543Y120998D01*
X1436989Y121553D01*
X1436157Y122385D01*
X1435047Y123217D01*
X1433660Y124327D01*
X1432135Y125575D01*
X1430193Y126823D01*
X1429916Y126962D01*
X1429222Y127378D01*
X1428113Y127933D01*
X1426587Y128487D01*
X1424785Y129181D01*
X1422566Y129736D01*
X1420069Y130290D01*
X1417434Y130568D01*
D02*
G37*
G36*
X739131D02*
X738299D01*
X737328Y130429D01*
X736218Y130152D01*
X734970Y129874D01*
X733583Y129458D01*
X732335Y128903D01*
X731087Y128210D01*
X730948Y128071D01*
X730671Y127794D01*
X730255Y127239D01*
X729700Y126546D01*
X729146Y125714D01*
X728730Y124743D01*
X728314Y123495D01*
X728175Y122247D01*
Y122108D01*
Y121969D01*
X728314Y121137D01*
X728591Y119889D01*
X729146Y118363D01*
X729978Y116838D01*
X731226Y115312D01*
X732751Y113926D01*
X733861Y113371D01*
X734970Y112955D01*
X735109D01*
X735248Y112816D01*
X735664Y112677D01*
X736218Y112539D01*
X737605Y112261D01*
X739547Y111845D01*
X742043Y111429D01*
X744817Y111152D01*
X748145Y110875D01*
X760904D01*
X759656Y120444D01*
X759517Y120582D01*
X759240Y120998D01*
X758685Y121553D01*
X757853Y122385D01*
X756744Y123217D01*
X755357Y124327D01*
X753831Y125575D01*
X751890Y126823D01*
X751612Y126962D01*
X750919Y127378D01*
X749810Y127933D01*
X748284Y128487D01*
X746481Y129181D01*
X744262Y129736D01*
X741766Y130290D01*
X739131Y130568D01*
D02*
G37*
G36*
X812772D02*
X812495D01*
X811663Y130429D01*
X810276Y130290D01*
X808750Y129874D01*
X806947Y129320D01*
X805006Y128349D01*
X803203Y127239D01*
X801539Y125575D01*
X801400Y125298D01*
X800845Y124604D01*
X800291Y123495D01*
X799458Y121969D01*
X798765Y120166D01*
X798072Y117809D01*
X797656Y115174D01*
X797378Y112261D01*
Y112123D01*
Y111707D01*
X797517Y111152D01*
Y110320D01*
X797656Y109349D01*
X797794Y108240D01*
X798349Y105743D01*
X799181Y102831D01*
X800291Y99780D01*
X801816Y96867D01*
X803896Y94232D01*
X804035Y94094D01*
X804174Y93955D01*
X805006Y93123D01*
X806393Y92152D01*
X808057Y90904D01*
X810276Y89656D01*
X812772Y88546D01*
X815684Y87714D01*
X817210Y87576D01*
X818735Y87437D01*
X819013D01*
X819845Y87576D01*
X821093Y87714D01*
X822619Y88130D01*
X824283Y88685D01*
X826086Y89517D01*
X827889Y90627D01*
X829553Y92152D01*
X829692Y92430D01*
X830246Y92984D01*
X830940Y94094D01*
X831772Y95481D01*
X832465Y97422D01*
X833297Y99641D01*
X833713Y102276D01*
X833991Y105327D01*
Y105466D01*
Y105882D01*
Y106437D01*
X833852Y107269D01*
X833713Y108240D01*
X833575Y109349D01*
X833159Y111984D01*
X832465Y114896D01*
X831356Y117947D01*
X829830Y120860D01*
X828859Y122247D01*
X827750Y123633D01*
Y123772D01*
X827473Y123911D01*
X826640Y124604D01*
X825392Y125714D01*
X823589Y126962D01*
X821370Y128210D01*
X818874Y129320D01*
X815962Y130152D01*
X814436Y130429D01*
X812772Y130568D01*
D02*
G37*
%LPD*%
D55*
X3477499Y781900D02*
G03*
X3477499Y781900I-12500J0D01*
G01*
X6477499D02*
G03*
X6477499Y781900I-12500J0D01*
G01*
X4977499D02*
G03*
X4977499Y781900I-12500J0D01*
G01*
D56*
X2677499Y21900D02*
X3417499D01*
Y1171900D01*
X2677499D02*
X3417499D01*
X2677499Y21900D02*
Y1171900D01*
X5677499Y21900D02*
X6417499D01*
Y1171900D01*
X5677499D02*
X6417499D01*
X5677499Y21900D02*
Y1171900D01*
X4177499Y21900D02*
X4917499D01*
Y1171900D01*
X4177499D02*
X4917499D01*
X4177499Y21900D02*
Y1171900D01*
D61*
X5819900Y994956D02*
Y1074939D01*
Y994956D02*
X5854178D01*
X5865604Y998765D01*
X5869413Y1002573D01*
X5873222Y1010191D01*
Y1017808D01*
X5869413Y1025426D01*
X5865604Y1029234D01*
X5854178Y1033043D01*
X5819900D02*
X5854178D01*
X5865604Y1036852D01*
X5869413Y1040661D01*
X5873222Y1048278D01*
Y1059704D01*
X5869413Y1067321D01*
X5865604Y1071130D01*
X5854178Y1074939D01*
X5819900D01*
X5936827Y1021617D02*
Y1074939D01*
Y1033043D02*
X5929210Y1025426D01*
X5921592Y1021617D01*
X5910166D01*
X5902549Y1025426D01*
X5894932Y1033043D01*
X5891123Y1044469D01*
Y1052087D01*
X5894932Y1063513D01*
X5902549Y1071130D01*
X5910166Y1074939D01*
X5921592D01*
X5929210Y1071130D01*
X5936827Y1063513D01*
X5969582Y994956D02*
Y1059704D01*
X5973391Y1071130D01*
X5981009Y1074939D01*
X5988626D01*
X5958156Y1021617D02*
X5984817D01*
X6011478Y994956D02*
Y1059704D01*
X6015287Y1071130D01*
X6022904Y1074939D01*
X6030522D01*
X6000052Y1021617D02*
X6026713D01*
X6041948Y1044469D02*
X6087652D01*
Y1036852D01*
X6083844Y1029234D01*
X6080035Y1025426D01*
X6072417Y1021617D01*
X6060991D01*
X6053374Y1025426D01*
X6045757Y1033043D01*
X6041948Y1044469D01*
Y1052087D01*
X6045757Y1063513D01*
X6053374Y1071130D01*
X6060991Y1074939D01*
X6072417D01*
X6080035Y1071130D01*
X6087652Y1063513D01*
X6104791Y1021617D02*
Y1074939D01*
Y1044469D02*
X6108600Y1033043D01*
X6116218Y1025426D01*
X6123835Y1021617D01*
X6135261D01*
X6146306D02*
X6169159Y1074939D01*
X6192011Y1021617D02*
X6169159Y1074939D01*
X6161541Y1090174D01*
X6153924Y1097791D01*
X6146306Y1101600D01*
X6142498D01*
X6275803Y994956D02*
X6317698D01*
X6294846Y1025426D01*
X6306272D01*
X6313890Y1029234D01*
X6317698Y1033043D01*
X6321507Y1044469D01*
Y1052087D01*
X6317698Y1063513D01*
X6310081Y1071130D01*
X6298655Y1074939D01*
X6287229D01*
X6275803Y1071130D01*
X6271994Y1067321D01*
X6268185Y1059704D01*
X4283200Y994956D02*
Y1074939D01*
Y994956D02*
X4317478D01*
X4328904Y998765D01*
X4332713Y1002573D01*
X4336522Y1010191D01*
Y1017808D01*
X4332713Y1025426D01*
X4328904Y1029234D01*
X4317478Y1033043D01*
X4283200D02*
X4317478D01*
X4328904Y1036852D01*
X4332713Y1040661D01*
X4336522Y1048278D01*
Y1059704D01*
X4332713Y1067321D01*
X4328904Y1071130D01*
X4317478Y1074939D01*
X4283200D01*
X4400127Y1021617D02*
Y1074939D01*
Y1033043D02*
X4392510Y1025426D01*
X4384892Y1021617D01*
X4373466D01*
X4365849Y1025426D01*
X4358232Y1033043D01*
X4354423Y1044469D01*
Y1052087D01*
X4358232Y1063513D01*
X4365849Y1071130D01*
X4373466Y1074939D01*
X4384892D01*
X4392510Y1071130D01*
X4400127Y1063513D01*
X4432882Y994956D02*
Y1059704D01*
X4436691Y1071130D01*
X4444309Y1074939D01*
X4451926D01*
X4421456Y1021617D02*
X4448117D01*
X4474778Y994956D02*
Y1059704D01*
X4478587Y1071130D01*
X4486204Y1074939D01*
X4493822D01*
X4463352Y1021617D02*
X4490013D01*
X4505248Y1044469D02*
X4550952D01*
Y1036852D01*
X4547144Y1029234D01*
X4543335Y1025426D01*
X4535717Y1021617D01*
X4524291D01*
X4516674Y1025426D01*
X4509057Y1033043D01*
X4505248Y1044469D01*
Y1052087D01*
X4509057Y1063513D01*
X4516674Y1071130D01*
X4524291Y1074939D01*
X4535717D01*
X4543335Y1071130D01*
X4550952Y1063513D01*
X4568091Y1021617D02*
Y1074939D01*
Y1044469D02*
X4571900Y1033043D01*
X4579518Y1025426D01*
X4587135Y1021617D01*
X4598561D01*
X4609606D02*
X4632459Y1074939D01*
X4655311Y1021617D02*
X4632459Y1074939D01*
X4624841Y1090174D01*
X4617224Y1097791D01*
X4609606Y1101600D01*
X4605798D01*
X4735294Y1013999D02*
Y1010191D01*
X4739103Y1002573D01*
X4742911Y998765D01*
X4750529Y994956D01*
X4765763D01*
X4773381Y998765D01*
X4777190Y1002573D01*
X4780998Y1010191D01*
Y1017808D01*
X4777190Y1025426D01*
X4769572Y1036852D01*
X4731485Y1074939D01*
X4784807D01*
X2835400Y994956D02*
Y1074939D01*
Y994956D02*
X2869678D01*
X2881104Y998765D01*
X2884913Y1002573D01*
X2888722Y1010191D01*
Y1017808D01*
X2884913Y1025426D01*
X2881104Y1029234D01*
X2869678Y1033043D01*
X2835400D02*
X2869678D01*
X2881104Y1036852D01*
X2884913Y1040661D01*
X2888722Y1048278D01*
Y1059704D01*
X2884913Y1067321D01*
X2881104Y1071130D01*
X2869678Y1074939D01*
X2835400D01*
X2952327Y1021617D02*
Y1074939D01*
Y1033043D02*
X2944710Y1025426D01*
X2937092Y1021617D01*
X2925666D01*
X2918049Y1025426D01*
X2910432Y1033043D01*
X2906623Y1044469D01*
Y1052087D01*
X2910432Y1063513D01*
X2918049Y1071130D01*
X2925666Y1074939D01*
X2937092D01*
X2944710Y1071130D01*
X2952327Y1063513D01*
X2985082Y994956D02*
Y1059704D01*
X2988891Y1071130D01*
X2996509Y1074939D01*
X3004126D01*
X2973656Y1021617D02*
X3000317D01*
X3026978Y994956D02*
Y1059704D01*
X3030787Y1071130D01*
X3038404Y1074939D01*
X3046022D01*
X3015552Y1021617D02*
X3042213D01*
X3057448Y1044469D02*
X3103152D01*
Y1036852D01*
X3099344Y1029234D01*
X3095535Y1025426D01*
X3087917Y1021617D01*
X3076491D01*
X3068874Y1025426D01*
X3061257Y1033043D01*
X3057448Y1044469D01*
Y1052087D01*
X3061257Y1063513D01*
X3068874Y1071130D01*
X3076491Y1074939D01*
X3087917D01*
X3095535Y1071130D01*
X3103152Y1063513D01*
X3120291Y1021617D02*
Y1074939D01*
Y1044469D02*
X3124100Y1033043D01*
X3131718Y1025426D01*
X3139335Y1021617D01*
X3150761D01*
X3161806D02*
X3184659Y1074939D01*
X3207511Y1021617D02*
X3184659Y1074939D01*
X3177041Y1090174D01*
X3169424Y1097791D01*
X3161806Y1101600D01*
X3157998D01*
X3283685Y1010191D02*
X3291303Y1006382D01*
X3302729Y994956D01*
Y1074939D01*
X6146171Y417213D02*
X6119513D01*
X6132842D01*
Y483858D01*
X6119513Y497187D01*
X6106184D01*
X6092855Y483858D01*
X6226145Y417213D02*
X6199487Y430542D01*
X6172829Y457200D01*
Y483858D01*
X6186158Y497187D01*
X6212816D01*
X6226145Y483858D01*
Y470529D01*
X6212816Y457200D01*
X6172829D01*
X4634871Y404513D02*
X4608213D01*
X4621542D01*
Y471158D01*
X4608213Y484487D01*
X4594884D01*
X4581555Y471158D01*
X4714845Y404513D02*
X4661529D01*
Y444500D01*
X4688187Y431171D01*
X4701516D01*
X4714845Y444500D01*
Y471158D01*
X4701516Y484487D01*
X4674858D01*
X4661529Y471158D01*
X3123571Y417213D02*
X3096913D01*
X3110242D01*
Y483858D01*
X3096913Y497187D01*
X3083584D01*
X3070255Y483858D01*
X3190216Y497187D02*
Y417213D01*
X3150229Y457200D01*
X3203545D01*
%TF.MD5,9bc05de491f009c57100e5f3372ccf01*%
M02*
