%TF.GenerationSoftware,KiCad,Pcbnew,7.0.8-7.0.8~ubuntu22.04.1*%
%TF.CreationDate,2023-10-06T08:49:59+03:00*%
%TF.ProjectId,Omarich EPS stack V1.5,4f6d6172-6963-4682-9045-505320737461,rev?*%
%TF.SameCoordinates,Original*%
%TF.FileFunction,Copper,L1,Top*%
%TF.FilePolarity,Positive*%
%FSLAX46Y46*%
G04 Gerber Fmt 4.6, Leading zero omitted, Abs format (unit mm)*
G04 Created by KiCad (PCBNEW 7.0.8-7.0.8~ubuntu22.04.1) date 2023-10-06 08:49:59*
%MOMM*%
%LPD*%
G01*
G04 APERTURE LIST*
G04 Aperture macros list*
%AMRoundRect*
0 Rectangle with rounded corners*
0 $1 Rounding radius*
0 $2 $3 $4 $5 $6 $7 $8 $9 X,Y pos of 4 corners*
0 Add a 4 corners polygon primitive as box body*
4,1,4,$2,$3,$4,$5,$6,$7,$8,$9,$2,$3,0*
0 Add four circle primitives for the rounded corners*
1,1,$1+$1,$2,$3*
1,1,$1+$1,$4,$5*
1,1,$1+$1,$6,$7*
1,1,$1+$1,$8,$9*
0 Add four rect primitives between the rounded corners*
20,1,$1+$1,$2,$3,$4,$5,0*
20,1,$1+$1,$4,$5,$6,$7,0*
20,1,$1+$1,$6,$7,$8,$9,0*
20,1,$1+$1,$8,$9,$2,$3,0*%
G04 Aperture macros list end*
%TA.AperFunction,SMDPad,CuDef*%
%ADD10R,1.300000X0.450000*%
%TD*%
%TA.AperFunction,ComponentPad*%
%ADD11O,1.800000X1.150000*%
%TD*%
%TA.AperFunction,ComponentPad*%
%ADD12O,2.000000X1.450000*%
%TD*%
%TA.AperFunction,SMDPad,CuDef*%
%ADD13RoundRect,0.250000X-0.475000X0.250000X-0.475000X-0.250000X0.475000X-0.250000X0.475000X0.250000X0*%
%TD*%
%TA.AperFunction,SMDPad,CuDef*%
%ADD14RoundRect,0.243750X0.243750X0.456250X-0.243750X0.456250X-0.243750X-0.456250X0.243750X-0.456250X0*%
%TD*%
%TA.AperFunction,SMDPad,CuDef*%
%ADD15RoundRect,0.243750X0.456250X-0.243750X0.456250X0.243750X-0.456250X0.243750X-0.456250X-0.243750X0*%
%TD*%
%TA.AperFunction,SMDPad,CuDef*%
%ADD16RoundRect,0.250000X0.475000X-0.250000X0.475000X0.250000X-0.475000X0.250000X-0.475000X-0.250000X0*%
%TD*%
%TA.AperFunction,SMDPad,CuDef*%
%ADD17RoundRect,0.250000X-0.450000X0.262500X-0.450000X-0.262500X0.450000X-0.262500X0.450000X0.262500X0*%
%TD*%
%TA.AperFunction,SMDPad,CuDef*%
%ADD18RoundRect,0.243750X-0.243750X-0.456250X0.243750X-0.456250X0.243750X0.456250X-0.243750X0.456250X0*%
%TD*%
%TA.AperFunction,SMDPad,CuDef*%
%ADD19RoundRect,0.243750X-0.456250X0.243750X-0.456250X-0.243750X0.456250X-0.243750X0.456250X0.243750X0*%
%TD*%
%TA.AperFunction,SMDPad,CuDef*%
%ADD20R,1.525000X0.700000*%
%TD*%
%TA.AperFunction,SMDPad,CuDef*%
%ADD21R,2.513000X3.402000*%
%TD*%
%TA.AperFunction,SMDPad,CuDef*%
%ADD22R,1.000000X0.300000*%
%TD*%
%TA.AperFunction,SMDPad,CuDef*%
%ADD23R,1.000000X0.800000*%
%TD*%
%TA.AperFunction,ComponentPad*%
%ADD24RoundRect,0.250000X-0.750000X0.600000X-0.750000X-0.600000X0.750000X-0.600000X0.750000X0.600000X0*%
%TD*%
%TA.AperFunction,ComponentPad*%
%ADD25O,2.000000X1.700000*%
%TD*%
%TA.AperFunction,SMDPad,CuDef*%
%ADD26RoundRect,0.250000X0.250000X0.475000X-0.250000X0.475000X-0.250000X-0.475000X0.250000X-0.475000X0*%
%TD*%
%TA.AperFunction,SMDPad,CuDef*%
%ADD27RoundRect,0.250000X-0.262500X-0.450000X0.262500X-0.450000X0.262500X0.450000X-0.262500X0.450000X0*%
%TD*%
%TA.AperFunction,ComponentPad*%
%ADD28RoundRect,0.250000X0.725000X-0.600000X0.725000X0.600000X-0.725000X0.600000X-0.725000X-0.600000X0*%
%TD*%
%TA.AperFunction,ComponentPad*%
%ADD29O,1.950000X1.700000*%
%TD*%
%TA.AperFunction,SMDPad,CuDef*%
%ADD30RoundRect,0.250000X0.450000X-0.262500X0.450000X0.262500X-0.450000X0.262500X-0.450000X-0.262500X0*%
%TD*%
%TA.AperFunction,SMDPad,CuDef*%
%ADD31RoundRect,0.218750X-0.381250X0.218750X-0.381250X-0.218750X0.381250X-0.218750X0.381250X0.218750X0*%
%TD*%
%TA.AperFunction,ComponentPad*%
%ADD32RoundRect,0.250000X-0.600000X-0.750000X0.600000X-0.750000X0.600000X0.750000X-0.600000X0.750000X0*%
%TD*%
%TA.AperFunction,ComponentPad*%
%ADD33O,1.700000X2.000000*%
%TD*%
%TA.AperFunction,SMDPad,CuDef*%
%ADD34RoundRect,0.150000X-0.825000X-0.150000X0.825000X-0.150000X0.825000X0.150000X-0.825000X0.150000X0*%
%TD*%
%TA.AperFunction,ComponentPad*%
%ADD35R,1.300000X1.300000*%
%TD*%
%TA.AperFunction,ComponentPad*%
%ADD36C,1.300000*%
%TD*%
%TA.AperFunction,ComponentPad*%
%ADD37O,1.900000X2.900000*%
%TD*%
%TA.AperFunction,ComponentPad*%
%ADD38O,2.900000X1.900000*%
%TD*%
%TA.AperFunction,ComponentPad*%
%ADD39C,2.000000*%
%TD*%
%TA.AperFunction,SMDPad,CuDef*%
%ADD40RoundRect,0.150000X0.825000X0.150000X-0.825000X0.150000X-0.825000X-0.150000X0.825000X-0.150000X0*%
%TD*%
%TA.AperFunction,SMDPad,CuDef*%
%ADD41RoundRect,0.250000X-0.250000X-0.475000X0.250000X-0.475000X0.250000X0.475000X-0.250000X0.475000X0*%
%TD*%
%TA.AperFunction,ComponentPad*%
%ADD42RoundRect,0.250000X0.600000X0.750000X-0.600000X0.750000X-0.600000X-0.750000X0.600000X-0.750000X0*%
%TD*%
%TA.AperFunction,ViaPad*%
%ADD43C,0.800000*%
%TD*%
%TA.AperFunction,Conductor*%
%ADD44C,0.500000*%
%TD*%
%TA.AperFunction,Conductor*%
%ADD45C,1.000000*%
%TD*%
%TA.AperFunction,Conductor*%
%ADD46C,0.300000*%
%TD*%
%TA.AperFunction,Conductor*%
%ADD47C,0.250000*%
%TD*%
G04 APERTURE END LIST*
D10*
%TO.P,J9,1,VBUS*%
%TO.N,VBUS*%
X136005000Y-127981000D03*
%TO.P,J9,2,D-*%
%TO.N,unconnected-(J9-D--Pad2)*%
X136005000Y-128631000D03*
%TO.P,J9,3,D+*%
%TO.N,unconnected-(J9-D+-Pad3)*%
X136005000Y-129281000D03*
%TO.P,J9,4,ID*%
%TO.N,unconnected-(J9-ID-Pad4)*%
X136005000Y-129931000D03*
%TO.P,J9,5,GND*%
%TO.N,GND*%
X136005000Y-130581000D03*
D11*
%TO.P,J9,6,Shield*%
%TO.N,unconnected-(J9-Shield-Pad6)*%
X132155000Y-125406000D03*
D12*
X135955000Y-125556000D03*
X135955000Y-133006000D03*
D11*
X132155000Y-133156000D03*
%TD*%
D13*
%TO.P,C13,1*%
%TO.N,GND*%
X160960000Y-122978000D03*
%TO.P,C13,2*%
%TO.N,5V*%
X160960000Y-124878000D03*
%TD*%
D14*
%TO.P,D9,1,K*%
%TO.N,GND*%
X176474000Y-91800000D03*
%TO.P,D9,2,A*%
%TO.N,Net-(D9-A)*%
X174599000Y-91800000D03*
%TD*%
D13*
%TO.P,C7,1*%
%TO.N,GND*%
X157210000Y-102530000D03*
%TO.P,C7,2*%
%TO.N,5V*%
X157210000Y-104430000D03*
%TD*%
D15*
%TO.P,D15,1,K*%
%TO.N,GND*%
X206130000Y-124170000D03*
%TO.P,D15,2,A*%
%TO.N,Net-(D14-K)*%
X206130000Y-122295000D03*
%TD*%
%TO.P,D18,1,K*%
%TO.N,Net-(D18-K)*%
X202617000Y-108600000D03*
%TO.P,D18,2,A*%
%TO.N,BAT-3*%
X202617000Y-106725000D03*
%TD*%
D16*
%TO.P,C21,1*%
%TO.N,Net-(U5-VDD)*%
X154972500Y-125668000D03*
%TO.P,C21,2*%
%TO.N,GND*%
X154972500Y-123768000D03*
%TD*%
D15*
%TO.P,D4,1,K*%
%TO.N,Net-(D4-K)*%
X205890000Y-130226000D03*
%TO.P,D4,2,A*%
%TO.N,BAT-1*%
X205890000Y-128351000D03*
%TD*%
%TO.P,D20,1,K*%
%TO.N,Net-(D20-K)*%
X205184000Y-108565000D03*
%TO.P,D20,2,A*%
%TO.N,BAT-3*%
X205184000Y-106690000D03*
%TD*%
D17*
%TO.P,R5,1*%
%TO.N,/SWT1*%
X162810000Y-112205000D03*
%TO.P,R5,2*%
%TO.N,BtnIn*%
X162810000Y-114030000D03*
%TD*%
D18*
%TO.P,D8,1,K*%
%TO.N,VBUS*%
X167460000Y-109190000D03*
%TO.P,D8,2,A*%
%TO.N,VDD*%
X169335000Y-109190000D03*
%TD*%
D15*
%TO.P,D21,1,K*%
%TO.N,GND*%
X205184000Y-112532000D03*
%TO.P,D21,2,A*%
%TO.N,Net-(D20-K)*%
X205184000Y-110657000D03*
%TD*%
D16*
%TO.P,C10,1*%
%TO.N,Net-(U3-VDD)*%
X150900000Y-104332000D03*
%TO.P,C10,2*%
%TO.N,GND*%
X150900000Y-102432000D03*
%TD*%
D19*
%TO.P,D1,1,K*%
%TO.N,GND*%
X194960000Y-91650000D03*
%TO.P,D1,2,A*%
%TO.N,Net-(D1-A)*%
X194960000Y-93525000D03*
%TD*%
D15*
%TO.P,D5,1,K*%
%TO.N,GND*%
X203300000Y-134290000D03*
%TO.P,D5,2,A*%
%TO.N,Net-(D3-K)*%
X203300000Y-132415000D03*
%TD*%
D20*
%TO.P,IC2,1,OUT*%
%TO.N,5V*%
X160978000Y-127061000D03*
%TO.P,IC2,2,BAT*%
%TO.N,BAT-2*%
X160978000Y-128331000D03*
%TO.P,IC2,3,SW*%
%TO.N,SW2*%
X160978000Y-129601000D03*
%TO.P,IC2,4,GND*%
%TO.N,GND*%
X160978000Y-130871000D03*
%TO.P,IC2,5,SWT*%
%TO.N,/SWT2*%
X166402000Y-130871000D03*
%TO.P,IC2,6,VDD*%
%TO.N,VBUS*%
X166402000Y-129601000D03*
%TO.P,IC2,7,LED2*%
%TO.N,Net-(D14-K)*%
X166402000Y-128331000D03*
%TO.P,IC2,8,LED1*%
%TO.N,Net-(D12-K)*%
X166402000Y-127061000D03*
D21*
%TO.P,IC2,9,EP*%
%TO.N,unconnected-(IC2-EP-Pad9)*%
X163690000Y-128966000D03*
%TD*%
D22*
%TO.P,U5,1,VDD*%
%TO.N,Net-(U5-VDD)*%
X151572500Y-127418000D03*
%TO.P,U5,2,GND*%
%TO.N,GND*%
X151572500Y-127948000D03*
%TO.P,U5,3,GND*%
X151572500Y-129008000D03*
D23*
%TO.P,U5,4,VM*%
X155222500Y-128758000D03*
%TO.P,U5,5,VM*%
X155222500Y-127668000D03*
%TD*%
D24*
%TO.P,J3,1,Pin_1*%
%TO.N,Net-(J3-Pin_1)*%
X202077500Y-84230000D03*
D25*
%TO.P,J3,2,Pin_2*%
%TO.N,+5V*%
X202077500Y-86730000D03*
%TD*%
D14*
%TO.P,D2,1,K*%
%TO.N,GND*%
X176410000Y-94320000D03*
%TO.P,D2,2,A*%
%TO.N,Net-(D2-A)*%
X174535000Y-94320000D03*
%TD*%
D26*
%TO.P,C14,1*%
%TO.N,BAT-2*%
X158742500Y-127708000D03*
%TO.P,C14,2*%
%TO.N,GND*%
X156842500Y-127708000D03*
%TD*%
D17*
%TO.P,R11,1*%
%TO.N,VBUS*%
X168790000Y-130073000D03*
%TO.P,R11,2*%
%TO.N,Net-(C16-Pad1)*%
X168790000Y-131898000D03*
%TD*%
D22*
%TO.P,U6,1,VDD*%
%TO.N,Net-(U6-VDD)*%
X173405000Y-113490520D03*
%TO.P,U6,2,GND*%
%TO.N,GND*%
X173405000Y-114020520D03*
%TO.P,U6,3,GND*%
X173405000Y-115080520D03*
D23*
%TO.P,U6,4,VM*%
X177055000Y-114830520D03*
%TO.P,U6,5,VM*%
X177055000Y-113740520D03*
%TD*%
D15*
%TO.P,D13,1,K*%
%TO.N,GND*%
X203176000Y-124147500D03*
%TO.P,D13,2,A*%
%TO.N,Net-(D12-K)*%
X203176000Y-122272500D03*
%TD*%
D27*
%TO.P,R8,1*%
%TO.N,Solar1*%
X170742000Y-91800000D03*
%TO.P,R8,2*%
%TO.N,Net-(D9-A)*%
X172567000Y-91800000D03*
%TD*%
D28*
%TO.P,J4,1,Pin_1*%
%TO.N,CH5*%
X136398000Y-88820000D03*
D29*
%TO.P,J4,2,Pin_2*%
%TO.N,CH4*%
X136398000Y-86320000D03*
%TO.P,J4,3,Pin_3*%
%TO.N,CH3*%
X136398000Y-83820000D03*
%TD*%
D22*
%TO.P,U3,1,VDD*%
%TO.N,Net-(U3-VDD)*%
X147205000Y-106002520D03*
%TO.P,U3,2,GND*%
%TO.N,GND*%
X147205000Y-106532520D03*
%TO.P,U3,3,GND*%
X147205000Y-107592520D03*
D23*
%TO.P,U3,4,VM*%
X150855000Y-107342520D03*
%TO.P,U3,5,VM*%
X150855000Y-106252520D03*
%TD*%
D16*
%TO.P,C22,1*%
%TO.N,Net-(U6-VDD)*%
X176843000Y-111680000D03*
%TO.P,C22,2*%
%TO.N,GND*%
X176843000Y-109780000D03*
%TD*%
D30*
%TO.P,R3,1*%
%TO.N,+5V*%
X194960000Y-97382000D03*
%TO.P,R3,2*%
%TO.N,Net-(D1-A)*%
X194960000Y-95557000D03*
%TD*%
D15*
%TO.P,D14,1,K*%
%TO.N,Net-(D14-K)*%
X206060000Y-119950000D03*
%TO.P,D14,2,A*%
%TO.N,BAT-2*%
X206060000Y-118075000D03*
%TD*%
D13*
%TO.P,C8,1*%
%TO.N,GND*%
X159880000Y-102510000D03*
%TO.P,C8,2*%
%TO.N,5V*%
X159880000Y-104410000D03*
%TD*%
D27*
%TO.P,R14,1*%
%TO.N,Net-(U5-VDD)*%
X156890000Y-125438000D03*
%TO.P,R14,2*%
%TO.N,BAT-2*%
X158715000Y-125438000D03*
%TD*%
D15*
%TO.P,D3,1,K*%
%TO.N,Net-(D3-K)*%
X203300000Y-130226000D03*
%TO.P,D3,2,A*%
%TO.N,BAT-1*%
X203300000Y-128351000D03*
%TD*%
%TO.P,D19,1,K*%
%TO.N,GND*%
X202630000Y-112435000D03*
%TO.P,D19,2,A*%
%TO.N,Net-(D18-K)*%
X202630000Y-110560000D03*
%TD*%
D16*
%TO.P,C5,1*%
%TO.N,Net-(U1-FILTER)*%
X149365000Y-92636000D03*
%TO.P,C5,2*%
%TO.N,GND*%
X149365000Y-90736000D03*
%TD*%
D31*
%TO.P,L2,1,1*%
%TO.N,BAT-2*%
X158652500Y-129698000D03*
%TO.P,L2,2,2*%
%TO.N,SW2*%
X158652500Y-131823000D03*
%TD*%
%TO.P,L1,1,1*%
%TO.N,BAT-1*%
X154630000Y-108185000D03*
%TO.P,L1,2,2*%
%TO.N,SW1*%
X154630000Y-110310000D03*
%TD*%
D32*
%TO.P,J2,1,Pin_1*%
%TO.N,Solar1*%
X146558000Y-77470000D03*
D33*
%TO.P,J2,2,Pin_2*%
%TO.N,GND*%
X149058000Y-77470000D03*
%TD*%
D27*
%TO.P,R15,1*%
%TO.N,Net-(U6-VDD)*%
X178875000Y-111558000D03*
%TO.P,R15,2*%
%TO.N,BAT-3*%
X180700000Y-111558000D03*
%TD*%
D26*
%TO.P,C18,1*%
%TO.N,BAT-3*%
X180684000Y-113747000D03*
%TO.P,C18,2*%
%TO.N,GND*%
X178784000Y-113747000D03*
%TD*%
D34*
%TO.P,U4,1,IP+*%
%TO.N,5V*%
X182201000Y-96367000D03*
%TO.P,U4,2,IP+*%
X182201000Y-97637000D03*
%TO.P,U4,3,IP-*%
%TO.N,+5V*%
X182201000Y-98907000D03*
%TO.P,U4,4,IP-*%
X182201000Y-100177000D03*
%TO.P,U4,5,GND*%
%TO.N,GND*%
X187151000Y-100177000D03*
%TO.P,U4,6,FILTER*%
%TO.N,Net-(U4-FILTER)*%
X187151000Y-98907000D03*
%TO.P,U4,7,VIOUT*%
%TO.N,CH3*%
X187151000Y-97637000D03*
%TO.P,U4,8,VCC*%
%TO.N,+5V*%
X187151000Y-96367000D03*
%TD*%
D35*
%TO.P,J6,1,VBUS*%
%TO.N,Net-(J3-Pin_1)*%
X194710000Y-75915000D03*
D36*
%TO.P,J6,2,D-*%
%TO.N,unconnected-(J6-D--Pad2)*%
X192210000Y-75915000D03*
%TO.P,J6,3,D+*%
%TO.N,unconnected-(J6-D+-Pad3)*%
X190210000Y-75915000D03*
%TO.P,J6,4,GND*%
%TO.N,GND*%
X187710000Y-75915000D03*
D37*
%TO.P,J6,5,Shield*%
%TO.N,unconnected-(J6-Shield-Pad5)*%
X197780000Y-76515000D03*
D38*
X191210000Y-80695000D03*
D37*
X184640000Y-76515000D03*
%TD*%
D13*
%TO.P,C17,1*%
%TO.N,GND*%
X183526000Y-108598000D03*
%TO.P,C17,2*%
%TO.N,5V*%
X183526000Y-110498000D03*
%TD*%
D17*
%TO.P,R12,1*%
%TO.N,/SWT3*%
X189020000Y-118235000D03*
%TO.P,R12,2*%
%TO.N,BtnIn*%
X189020000Y-120060000D03*
%TD*%
D15*
%TO.P,D17,1,K*%
%TO.N,GND*%
X186740000Y-120075000D03*
%TO.P,D17,2,A*%
%TO.N,/SWT3*%
X186740000Y-118200000D03*
%TD*%
D13*
%TO.P,C15,1*%
%TO.N,GND*%
X163390000Y-122988000D03*
%TO.P,C15,2*%
%TO.N,5V*%
X163390000Y-124888000D03*
%TD*%
D20*
%TO.P,IC1,1,OUT*%
%TO.N,5V*%
X157212000Y-106340000D03*
%TO.P,IC1,2,BAT*%
%TO.N,BAT-1*%
X157212000Y-107610000D03*
%TO.P,IC1,3,SW*%
%TO.N,SW1*%
X157212000Y-108880000D03*
%TO.P,IC1,4,GND*%
%TO.N,GND*%
X157212000Y-110150000D03*
%TO.P,IC1,5,SWT*%
%TO.N,/SWT1*%
X162636000Y-110150000D03*
%TO.P,IC1,6,VDD*%
%TO.N,VBUS*%
X162636000Y-108880000D03*
%TO.P,IC1,7,LED2*%
%TO.N,Net-(D4-K)*%
X162636000Y-107610000D03*
%TO.P,IC1,8,LED1*%
%TO.N,Net-(D3-K)*%
X162636000Y-106340000D03*
D21*
%TO.P,IC1,9,EP*%
%TO.N,unconnected-(IC1-EP-Pad9)*%
X159924000Y-108245000D03*
%TD*%
D20*
%TO.P,IC3,1,OUT*%
%TO.N,5V*%
X183520000Y-112604000D03*
%TO.P,IC3,2,BAT*%
%TO.N,BAT-3*%
X183520000Y-113874000D03*
%TO.P,IC3,3,SW*%
%TO.N,SW3*%
X183520000Y-115144000D03*
%TO.P,IC3,4,GND*%
%TO.N,GND*%
X183520000Y-116414000D03*
%TO.P,IC3,5,SWT*%
%TO.N,/SWT3*%
X188944000Y-116414000D03*
%TO.P,IC3,6,VDD*%
%TO.N,VBUS*%
X188944000Y-115144000D03*
%TO.P,IC3,7,LED2*%
%TO.N,Net-(D20-K)*%
X188944000Y-113874000D03*
%TO.P,IC3,8,LED1*%
%TO.N,Net-(D18-K)*%
X188944000Y-112604000D03*
D21*
%TO.P,IC3,9,EP*%
%TO.N,unconnected-(IC3-EP-Pad9)*%
X186232000Y-114509000D03*
%TD*%
D26*
%TO.P,C3,1*%
%TO.N,GND*%
X153551000Y-97356000D03*
%TO.P,C3,2*%
%TO.N,+5V*%
X151651000Y-97356000D03*
%TD*%
%TO.P,C6,1*%
%TO.N,BAT-1*%
X154700000Y-106340000D03*
%TO.P,C6,2*%
%TO.N,GND*%
X152800000Y-106340000D03*
%TD*%
D13*
%TO.P,C16,1*%
%TO.N,Net-(C16-Pad1)*%
X170030000Y-133550000D03*
%TO.P,C16,2*%
%TO.N,GND*%
X170030000Y-135450000D03*
%TD*%
D15*
%TO.P,D7,1,K*%
%TO.N,GND*%
X160550000Y-113980000D03*
%TO.P,D7,2,A*%
%TO.N,/SWT1*%
X160550000Y-112105000D03*
%TD*%
D18*
%TO.P,D22,1,K*%
%TO.N,VBUS*%
X194460000Y-115220000D03*
%TO.P,D22,2,A*%
%TO.N,VDD*%
X196335000Y-115220000D03*
%TD*%
D39*
%TO.P,SW1,2,2*%
%TO.N,GND*%
X193070000Y-148000000D03*
X186570000Y-148000000D03*
%TO.P,SW1,1,1*%
%TO.N,BtnIn*%
X193070000Y-143500000D03*
X186570000Y-143500000D03*
%TD*%
D13*
%TO.P,C20,1*%
%TO.N,Net-(C20-Pad1)*%
X192460000Y-118800000D03*
%TO.P,C20,2*%
%TO.N,GND*%
X192460000Y-120700000D03*
%TD*%
%TO.P,C12,1*%
%TO.N,Net-(U4-FILTER)*%
X189590000Y-98890000D03*
%TO.P,C12,2*%
%TO.N,GND*%
X189590000Y-100790000D03*
%TD*%
D17*
%TO.P,R13,1*%
%TO.N,VBUS*%
X191240000Y-115160000D03*
%TO.P,R13,2*%
%TO.N,Net-(C20-Pad1)*%
X191240000Y-116985000D03*
%TD*%
D15*
%TO.P,D11,1,K*%
%TO.N,GND*%
X164230000Y-134905000D03*
%TO.P,D11,2,A*%
%TO.N,/SWT2*%
X164230000Y-133030000D03*
%TD*%
D27*
%TO.P,R7,1*%
%TO.N,Net-(U3-VDD)*%
X152885000Y-104210000D03*
%TO.P,R7,2*%
%TO.N,BAT-1*%
X154710000Y-104210000D03*
%TD*%
D30*
%TO.P,R1,1*%
%TO.N,VDD*%
X159512000Y-91186000D03*
%TO.P,R1,2*%
%TO.N,CH4*%
X159512000Y-89361000D03*
%TD*%
D27*
%TO.P,R4,1*%
%TO.N,Solar1*%
X170862500Y-94320000D03*
%TO.P,R4,2*%
%TO.N,Net-(D2-A)*%
X172687500Y-94320000D03*
%TD*%
D17*
%TO.P,R6,1*%
%TO.N,VBUS*%
X165110000Y-108897000D03*
%TO.P,R6,2*%
%TO.N,Net-(C9-Pad1)*%
X165110000Y-110722000D03*
%TD*%
%TO.P,R10,1*%
%TO.N,/SWT2*%
X166530000Y-133175000D03*
%TO.P,R10,2*%
%TO.N,BtnIn*%
X166530000Y-135000000D03*
%TD*%
D40*
%TO.P,U1,1,IP+*%
%TO.N,Solar1*%
X156728000Y-95181000D03*
%TO.P,U1,2,IP+*%
X156728000Y-93911000D03*
%TO.P,U1,3,IP-*%
%TO.N,VDD*%
X156728000Y-92641000D03*
%TO.P,U1,4,IP-*%
X156728000Y-91371000D03*
%TO.P,U1,5,GND*%
%TO.N,GND*%
X151778000Y-91371000D03*
%TO.P,U1,6,FILTER*%
%TO.N,Net-(U1-FILTER)*%
X151778000Y-92641000D03*
%TO.P,U1,7,VIOUT*%
%TO.N,CH5*%
X151778000Y-93911000D03*
%TO.P,U1,8,VCC*%
%TO.N,+5V*%
X151778000Y-95181000D03*
%TD*%
D41*
%TO.P,C11,1*%
%TO.N,GND*%
X185410000Y-94350000D03*
%TO.P,C11,2*%
%TO.N,+5V*%
X187310000Y-94350000D03*
%TD*%
D13*
%TO.P,C19,1*%
%TO.N,GND*%
X185910000Y-108588000D03*
%TO.P,C19,2*%
%TO.N,5V*%
X185910000Y-110488000D03*
%TD*%
D42*
%TO.P,J1,1,Pin_1*%
%TO.N,Solar1*%
X149078000Y-143517500D03*
D33*
%TO.P,J1,2,Pin_2*%
%TO.N,GND*%
X146578000Y-143517500D03*
%TD*%
D31*
%TO.P,L3,1,1*%
%TO.N,BAT-3*%
X180650000Y-115725500D03*
%TO.P,L3,2,2*%
%TO.N,SW3*%
X180650000Y-117850500D03*
%TD*%
D18*
%TO.P,D16,1,K*%
%TO.N,VBUS*%
X172115000Y-130048000D03*
%TO.P,D16,2,A*%
%TO.N,VDD*%
X173990000Y-130048000D03*
%TD*%
D13*
%TO.P,C9,1*%
%TO.N,Net-(C9-Pad1)*%
X165100000Y-112470000D03*
%TO.P,C9,2*%
%TO.N,GND*%
X165100000Y-114370000D03*
%TD*%
D15*
%TO.P,D12,1,K*%
%TO.N,Net-(D12-K)*%
X203106000Y-119927500D03*
%TO.P,D12,2,A*%
%TO.N,BAT-2*%
X203106000Y-118052500D03*
%TD*%
D30*
%TO.P,R2,1*%
%TO.N,CH4*%
X157190000Y-89370000D03*
%TO.P,R2,2*%
%TO.N,GND*%
X157190000Y-87545000D03*
%TD*%
D15*
%TO.P,D6,1,K*%
%TO.N,GND*%
X205890000Y-134290000D03*
%TO.P,D6,2,A*%
%TO.N,Net-(D4-K)*%
X205890000Y-132415000D03*
%TD*%
D42*
%TO.P,J12,1,Pin_1*%
%TO.N,BAT-3*%
X178350000Y-77380000D03*
D33*
%TO.P,J12,2,Pin_2*%
%TO.N,GND*%
X175850000Y-77380000D03*
%TD*%
D42*
%TO.P,J11,1,Pin_1*%
%TO.N,BAT-2*%
X168952000Y-77380000D03*
D33*
%TO.P,J11,2,Pin_2*%
%TO.N,GND*%
X166452000Y-77380000D03*
%TD*%
D42*
%TO.P,J10,1,Pin_1*%
%TO.N,BAT-1*%
X159808000Y-77334000D03*
D33*
%TO.P,J10,2,Pin_2*%
%TO.N,GND*%
X157308000Y-77334000D03*
%TD*%
D43*
%TO.N,BtnIn*%
X173670000Y-142180000D03*
%TO.N,+5V*%
X161890000Y-97930000D03*
X186690000Y-90970000D03*
%TO.N,BAT-1*%
X165340000Y-96680000D03*
X165900000Y-91110000D03*
%TO.N,5V*%
X179040000Y-99140000D03*
X181760000Y-109720000D03*
X161410000Y-104500000D03*
X165242000Y-124888000D03*
%TO.N,BAT-2*%
X173080000Y-97050000D03*
X172570000Y-110610000D03*
X168900000Y-118840000D03*
X167690000Y-93061500D03*
%TO.N,BAT-3*%
X199290000Y-103500000D03*
%TO.N,Net-(D3-K)*%
X174710000Y-104410000D03*
X199830000Y-128850000D03*
X169140000Y-104410000D03*
X184850000Y-103140000D03*
%TO.N,Net-(D4-K)*%
X174880000Y-105480000D03*
X206450000Y-136840000D03*
X169150000Y-105520000D03*
X184890000Y-104150000D03*
%TO.N,VBUS*%
X172260000Y-133270000D03*
X142975000Y-132685000D03*
X194420000Y-116920000D03*
X176980000Y-129040000D03*
%TO.N,VDD*%
X163870000Y-95220000D03*
X163710000Y-92960000D03*
X189790000Y-126150000D03*
X195547971Y-123842029D03*
%TO.N,Net-(D12-K)*%
X171220000Y-125790000D03*
X183810000Y-122950000D03*
%TO.N,Net-(D14-K)*%
X171170000Y-128200000D03*
X183460000Y-124870000D03*
%TO.N,Solar1*%
X146558000Y-82318000D03*
X151920000Y-87780000D03*
X159010000Y-95570000D03*
X148660000Y-99740000D03*
%TO.N,CH3*%
X151800000Y-83750000D03*
X189890000Y-97610000D03*
%TO.N,BtnIn*%
X189020000Y-121330000D03*
X172850000Y-139310000D03*
X186650000Y-139700000D03*
X187020000Y-127650000D03*
%TO.N,GND*%
X150000000Y-89290000D03*
X200970000Y-112060000D03*
X183820000Y-94270000D03*
X157230000Y-111620000D03*
X148650000Y-89290000D03*
X145930000Y-107550000D03*
X201410000Y-134040000D03*
X187190000Y-101550000D03*
X164280000Y-136520000D03*
X145940000Y-106520000D03*
X150290000Y-127970000D03*
X187470000Y-108610000D03*
X150540000Y-129010000D03*
X201390000Y-134960000D03*
X149220000Y-102390000D03*
X201300000Y-124890000D03*
X183490000Y-117980000D03*
X138020000Y-130600000D03*
X168570000Y-135920000D03*
X201280000Y-124020000D03*
X185040000Y-121130000D03*
X175290000Y-109780000D03*
X159510000Y-122380000D03*
X192420000Y-121920000D03*
X160910000Y-132430000D03*
X193376000Y-91614000D03*
X161520000Y-101530000D03*
X155010000Y-97420000D03*
X153140000Y-123780000D03*
X165100000Y-115670000D03*
X189600000Y-102100000D03*
X177930000Y-91820000D03*
X200950000Y-112970000D03*
X164880000Y-122000000D03*
X157140000Y-86090000D03*
X173410000Y-115880000D03*
X161510000Y-102690000D03*
X177610000Y-94350000D03*
X150440000Y-108660000D03*
X155260000Y-129920000D03*
X151350000Y-108640000D03*
X177180000Y-116230000D03*
X158900000Y-113980000D03*
%TD*%
D44*
%TO.N,VBUS*%
X142975000Y-132685000D02*
X138246000Y-127956000D01*
X138246000Y-127956000D02*
X136005000Y-127956000D01*
%TO.N,BtnIn*%
X186650000Y-139700000D02*
X187020000Y-139330000D01*
X187020000Y-139330000D02*
X187020000Y-127650000D01*
X186570000Y-143500000D02*
X193070000Y-143500000D01*
X173670000Y-142180000D02*
X174990000Y-143500000D01*
X174990000Y-143500000D02*
X186570000Y-143500000D01*
%TO.N,GND*%
X193150000Y-148080000D02*
X193070000Y-148000000D01*
%TO.N,+5V*%
X192387000Y-96367000D02*
X192457000Y-96437000D01*
D45*
X187310000Y-91590000D02*
X186690000Y-90970000D01*
X187310000Y-96208000D02*
X187151000Y-96367000D01*
X193470000Y-86730000D02*
X202077500Y-86730000D01*
X182201000Y-98907000D02*
X182201000Y-100177000D01*
D44*
X161090000Y-98690000D02*
X161040000Y-98640000D01*
D45*
X184600000Y-98420000D02*
X184113000Y-98907000D01*
X189840000Y-91860000D02*
X189840000Y-90360000D01*
D44*
X151651000Y-95308000D02*
X151778000Y-95181000D01*
D45*
X185703000Y-96367000D02*
X184600000Y-97470000D01*
X187310000Y-94350000D02*
X187310000Y-96208000D01*
D44*
X161130000Y-98690000D02*
X161090000Y-98690000D01*
D45*
X184600000Y-97470000D02*
X184600000Y-98420000D01*
X187310000Y-94350000D02*
X189800000Y-91860000D01*
D44*
X161040000Y-98640000D02*
X152935000Y-98640000D01*
D45*
X187310000Y-94350000D02*
X187310000Y-91590000D01*
D44*
X193690000Y-97670000D02*
X194678000Y-97670000D01*
D45*
X189800000Y-91860000D02*
X189840000Y-91860000D01*
D44*
X151651000Y-97356000D02*
X151651000Y-95308000D01*
D45*
X184113000Y-98907000D02*
X182201000Y-98907000D01*
D44*
X192457000Y-96437000D02*
X193690000Y-97670000D01*
X192457000Y-96367000D02*
X192457000Y-96437000D01*
X152935000Y-98640000D02*
X151651000Y-97356000D01*
X194710000Y-97632000D02*
X194960000Y-97382000D01*
X192387000Y-96367000D02*
X187151000Y-96367000D01*
D45*
X189840000Y-90360000D02*
X193470000Y-86730000D01*
D44*
X161890000Y-97930000D02*
X161130000Y-98690000D01*
D45*
X187151000Y-96367000D02*
X185703000Y-96367000D01*
D46*
%TO.N,Net-(U1-FILTER)*%
X149365000Y-92636000D02*
X151773000Y-92636000D01*
X151773000Y-92636000D02*
X151778000Y-92641000D01*
D44*
%TO.N,BAT-1*%
X154710000Y-106330000D02*
X154700000Y-106340000D01*
X154710000Y-102380000D02*
X154710000Y-104210000D01*
X186120000Y-141100000D02*
X186400000Y-140820000D01*
X208490000Y-129380000D02*
X207461000Y-128351000D01*
X155850000Y-101240000D02*
X146780000Y-101240000D01*
X144840000Y-103180000D02*
X144840000Y-127990000D01*
X165340000Y-96680000D02*
X164580000Y-96680000D01*
D47*
X159808000Y-82824000D02*
X159746000Y-82886000D01*
D44*
X186400000Y-140820000D02*
X206380000Y-140820000D01*
X206380000Y-140820000D02*
X208490000Y-138710000D01*
X164580000Y-96680000D02*
X161250000Y-100010000D01*
X154630000Y-108185000D02*
X154630000Y-106410000D01*
X161250000Y-100010000D02*
X160370000Y-100010000D01*
X144840000Y-127990000D02*
X153800000Y-136950000D01*
X154630000Y-108185000D02*
X155205000Y-107610000D01*
X165900000Y-91110000D02*
X165900000Y-89040000D01*
X154710000Y-104210000D02*
X154710000Y-106330000D01*
X155800000Y-141100000D02*
X186120000Y-141100000D01*
X154630000Y-106410000D02*
X154700000Y-106340000D01*
X207461000Y-128351000D02*
X205890000Y-128351000D01*
X155205000Y-107610000D02*
X157212000Y-107610000D01*
X203300000Y-128351000D02*
X205890000Y-128351000D01*
X155850000Y-101240000D02*
X154710000Y-102380000D01*
X153800000Y-139100000D02*
X155800000Y-141100000D01*
X153800000Y-136950000D02*
X153800000Y-139100000D01*
X160370000Y-100010000D02*
X160331000Y-99971000D01*
X208490000Y-138710000D02*
X208490000Y-129380000D01*
X157119000Y-99971000D02*
X155850000Y-101240000D01*
X160331000Y-99971000D02*
X157119000Y-99971000D01*
X146780000Y-101240000D02*
X144840000Y-103180000D01*
X165900000Y-89040000D02*
X159746000Y-82886000D01*
D47*
X159808000Y-77334000D02*
X159808000Y-82824000D01*
D45*
%TO.N,5V*%
X160960000Y-124878000D02*
X163380000Y-124878000D01*
X160978000Y-124896000D02*
X160960000Y-124878000D01*
D44*
X183526000Y-112598000D02*
X183520000Y-112604000D01*
D45*
X157212000Y-104432000D02*
X157210000Y-104430000D01*
X159880000Y-104410000D02*
X161320000Y-104410000D01*
X157210000Y-104430000D02*
X159860000Y-104430000D01*
D44*
X182538000Y-110498000D02*
X183526000Y-110498000D01*
D45*
X163390000Y-124888000D02*
X165242000Y-124888000D01*
D44*
X183526000Y-110498000D02*
X185900000Y-110498000D01*
X185900000Y-110498000D02*
X185910000Y-110488000D01*
D45*
X182201000Y-96367000D02*
X182201000Y-97637000D01*
X161320000Y-104410000D02*
X161410000Y-104500000D01*
X163380000Y-124878000D02*
X163390000Y-124888000D01*
X160978000Y-127061000D02*
X160978000Y-124896000D01*
X180543000Y-97637000D02*
X179040000Y-99140000D01*
X182201000Y-97637000D02*
X180543000Y-97637000D01*
X157212000Y-106340000D02*
X157212000Y-104432000D01*
X159860000Y-104430000D02*
X159880000Y-104410000D01*
D44*
X183526000Y-110498000D02*
X183526000Y-112598000D01*
X181760000Y-109720000D02*
X182538000Y-110498000D01*
%TO.N,Net-(C9-Pad1)*%
X165110000Y-112460000D02*
X165100000Y-112470000D01*
X165110000Y-110722000D02*
X165110000Y-112460000D01*
%TO.N,Net-(U3-VDD)*%
X147205000Y-104755000D02*
X147205000Y-105932520D01*
X150900000Y-104332000D02*
X147628000Y-104332000D01*
X150900000Y-104332000D02*
X152763000Y-104332000D01*
X152763000Y-104332000D02*
X152885000Y-104210000D01*
X147628000Y-104332000D02*
X147205000Y-104755000D01*
D46*
%TO.N,Net-(U4-FILTER)*%
X189573000Y-98907000D02*
X189590000Y-98890000D01*
X187151000Y-98907000D02*
X189573000Y-98907000D01*
D44*
%TO.N,BAT-2*%
X157280000Y-124003000D02*
X157280000Y-121360000D01*
X206410000Y-95240000D02*
X205180000Y-96470000D01*
X168952000Y-74598000D02*
X172440000Y-71110000D01*
X197260000Y-71920000D02*
X206410000Y-81070000D01*
X167540500Y-93211000D02*
X167690000Y-93061500D01*
X207940000Y-116810000D02*
X206675000Y-118075000D01*
X167970000Y-119770000D02*
X168900000Y-118840000D01*
X206037500Y-118052500D02*
X206060000Y-118075000D01*
X158870000Y-119770000D02*
X167970000Y-119770000D01*
X157280000Y-121360000D02*
X158870000Y-119770000D01*
X158715000Y-129635500D02*
X158652500Y-129698000D01*
X205180000Y-102280000D02*
X207940000Y-105040000D01*
X173080000Y-110100000D02*
X172570000Y-110610000D01*
X158715000Y-125438000D02*
X157280000Y-124003000D01*
X172450000Y-71120000D02*
X181880000Y-71120000D01*
X181880000Y-71120000D02*
X182680000Y-71920000D01*
X182680000Y-71920000D02*
X197260000Y-71920000D01*
X167170000Y-92850000D02*
X167531000Y-93211000D01*
X206675000Y-118075000D02*
X206060000Y-118075000D01*
X168952000Y-77380000D02*
X167170000Y-79162000D01*
X158742500Y-127708000D02*
X159365500Y-128331000D01*
X173080000Y-97050000D02*
X173080000Y-110100000D01*
X159365500Y-128331000D02*
X160978000Y-128331000D01*
X158715000Y-125438000D02*
X158715000Y-129635500D01*
X168952000Y-77380000D02*
X168952000Y-74598000D01*
X207940000Y-105040000D02*
X207940000Y-116810000D01*
X167170000Y-79162000D02*
X167170000Y-92850000D01*
X172440000Y-71110000D02*
X172450000Y-71120000D01*
X167531000Y-93211000D02*
X167540500Y-93211000D01*
X203106000Y-118052500D02*
X206037500Y-118052500D01*
X206410000Y-81070000D02*
X206410000Y-95240000D01*
X205250000Y-96575000D02*
X205250000Y-102385000D01*
D46*
%TO.N,Net-(C16-Pad1)*%
X168790000Y-131898000D02*
X168790000Y-132310000D01*
X168790000Y-132310000D02*
X170030000Y-133550000D01*
D44*
%TO.N,BAT-3*%
X180700000Y-115675500D02*
X180650000Y-115725500D01*
X199290000Y-104410000D02*
X196994000Y-106706000D01*
X183393000Y-113747000D02*
X183520000Y-113874000D01*
X202630000Y-106750000D02*
X205124000Y-106750000D01*
X205124000Y-106750000D02*
X205184000Y-106690000D01*
X199370000Y-104410000D02*
X199290000Y-104410000D01*
X180684000Y-113747000D02*
X183393000Y-113747000D01*
X199290000Y-103500000D02*
X199290000Y-104410000D01*
X180700000Y-111558000D02*
X180700000Y-115675500D01*
X202617000Y-106725000D02*
X201685000Y-106725000D01*
X182584000Y-106706000D02*
X180700000Y-108590000D01*
X180700000Y-108590000D02*
X180700000Y-111558000D01*
X196994000Y-106706000D02*
X182584000Y-106706000D01*
X201685000Y-106725000D02*
X199370000Y-104410000D01*
%TO.N,Net-(C20-Pad1)*%
X192460000Y-117850000D02*
X192460000Y-118800000D01*
X191240000Y-116985000D02*
X191595000Y-116985000D01*
X191595000Y-116985000D02*
X192460000Y-117850000D01*
%TO.N,Net-(U5-VDD)*%
X151470000Y-126330000D02*
X151470000Y-127260000D01*
X156660000Y-125668000D02*
X156890000Y-125438000D01*
X154972500Y-125668000D02*
X152132000Y-125668000D01*
X152080000Y-125720000D02*
X151470000Y-126330000D01*
X154972500Y-125668000D02*
X156660000Y-125668000D01*
X152132000Y-125668000D02*
X152080000Y-125720000D01*
D46*
%TO.N,Net-(U6-VDD)*%
X178753000Y-111680000D02*
X178875000Y-111558000D01*
X176843000Y-111680000D02*
X178753000Y-111680000D01*
X173405000Y-112355000D02*
X174080000Y-111680000D01*
X173405000Y-113490520D02*
X173405000Y-112355000D01*
X174080000Y-111680000D02*
X176843000Y-111680000D01*
D44*
%TO.N,Net-(D1-A)*%
X194960000Y-95557000D02*
X194960000Y-93525000D01*
%TO.N,Net-(D2-A)*%
X172687500Y-94320000D02*
X174535000Y-94320000D01*
%TO.N,Net-(D3-K)*%
X163400000Y-106340000D02*
X165330000Y-104410000D01*
X203300000Y-130226000D02*
X203300000Y-132415000D01*
X165330000Y-104410000D02*
X169140000Y-104410000D01*
X162636000Y-106340000D02*
X163400000Y-106340000D01*
X200966000Y-130226000D02*
X203300000Y-130226000D01*
X180740000Y-104410000D02*
X182010000Y-103140000D01*
X199830000Y-129090000D02*
X200966000Y-130226000D01*
X174710000Y-104410000D02*
X180740000Y-104410000D01*
X182010000Y-103140000D02*
X184850000Y-103140000D01*
X199830000Y-128850000D02*
X199830000Y-129090000D01*
%TO.N,Net-(D4-K)*%
X205890000Y-130226000D02*
X205890000Y-132415000D01*
X174880000Y-105480000D02*
X181220000Y-105480000D01*
X207165000Y-132415000D02*
X205890000Y-132415000D01*
X206450000Y-136840000D02*
X207790000Y-135500000D01*
X162636000Y-107610000D02*
X163700000Y-107610000D01*
X182550000Y-104150000D02*
X184890000Y-104150000D01*
X207790000Y-133040000D02*
X207165000Y-132415000D01*
X165670000Y-105640000D02*
X169030000Y-105640000D01*
X181220000Y-105480000D02*
X181460000Y-105240000D01*
X181460000Y-105240000D02*
X182550000Y-104150000D01*
X163700000Y-107610000D02*
X165670000Y-105640000D01*
X169030000Y-105640000D02*
X169150000Y-105520000D01*
X207790000Y-135500000D02*
X207790000Y-133040000D01*
%TO.N,/SWT1*%
X162710000Y-112105000D02*
X162810000Y-112205000D01*
X162636000Y-110150000D02*
X162636000Y-112031000D01*
X162636000Y-112031000D02*
X162810000Y-112205000D01*
X160550000Y-112105000D02*
X162710000Y-112105000D01*
%TO.N,VBUS*%
X170434000Y-114300000D02*
X167460000Y-111326000D01*
X194460000Y-115220000D02*
X194460000Y-116880000D01*
X191224000Y-115144000D02*
X191240000Y-115160000D01*
X168790000Y-130073000D02*
X172090000Y-130073000D01*
X167460000Y-111326000D02*
X167460000Y-109190000D01*
X194460000Y-116880000D02*
X194420000Y-116920000D01*
X176980000Y-129040000D02*
X177038000Y-128982000D01*
X191240000Y-115160000D02*
X194400000Y-115160000D01*
X194400000Y-115160000D02*
X194460000Y-115220000D01*
X172090000Y-130073000D02*
X172115000Y-130048000D01*
X166402000Y-129601000D02*
X168318000Y-129601000D01*
X170434000Y-116840000D02*
X170434000Y-114300000D01*
X177038000Y-123444000D02*
X170434000Y-116840000D01*
X167167000Y-108897000D02*
X167460000Y-109190000D01*
X177038000Y-128982000D02*
X177038000Y-123444000D01*
X168318000Y-129601000D02*
X168790000Y-130073000D01*
X188944000Y-115144000D02*
X191224000Y-115144000D01*
X165093000Y-108880000D02*
X165110000Y-108897000D01*
X165110000Y-108897000D02*
X167167000Y-108897000D01*
D46*
X172260000Y-130193000D02*
X172115000Y-130048000D01*
X172260000Y-133270000D02*
X172260000Y-130193000D01*
D44*
X162636000Y-108880000D02*
X165093000Y-108880000D01*
%TO.N,VDD*%
X171540000Y-99700050D02*
X171540000Y-106985000D01*
X179076000Y-122748082D02*
X179076000Y-128784000D01*
X156728000Y-92641000D02*
X156728000Y-91371000D01*
X171540000Y-106985000D02*
X169335000Y-109190000D01*
X171330000Y-115002082D02*
X179076000Y-122748082D01*
X156728000Y-91371000D02*
X159327000Y-91371000D01*
X169510000Y-109190000D02*
X171330000Y-111010000D01*
X159512000Y-91186000D02*
X161936000Y-91186000D01*
X177810000Y-130050000D02*
X181760000Y-126100000D01*
X195547971Y-123842029D02*
X198420000Y-120970000D01*
X169335000Y-109190000D02*
X169510000Y-109190000D01*
X167059950Y-95220000D02*
X171540000Y-99700050D01*
X181760000Y-126100000D02*
X189740000Y-126100000D01*
X171330000Y-111010000D02*
X171330000Y-115002082D01*
X177810000Y-130050000D02*
X173992000Y-130050000D01*
X163870000Y-95220000D02*
X167059950Y-95220000D01*
X159327000Y-91371000D02*
X159512000Y-91186000D01*
X196340000Y-115220000D02*
X196335000Y-115220000D01*
X198420000Y-120970000D02*
X198420000Y-117300000D01*
X161936000Y-91186000D02*
X163710000Y-92960000D01*
X198420000Y-117300000D02*
X196340000Y-115220000D01*
X189740000Y-126100000D02*
X189790000Y-126150000D01*
X173992000Y-130050000D02*
X173990000Y-130048000D01*
X179076000Y-128784000D02*
X177810000Y-130050000D01*
%TO.N,Net-(D9-A)*%
X172567000Y-91800000D02*
X174599000Y-91800000D01*
%TO.N,/SWT2*%
X166402000Y-133047000D02*
X166530000Y-133175000D01*
X166402000Y-130871000D02*
X166402000Y-133047000D01*
X164230000Y-133030000D02*
X166385000Y-133030000D01*
X166385000Y-133030000D02*
X166530000Y-133175000D01*
%TO.N,Net-(D12-K)*%
X197490000Y-125610000D02*
X197130000Y-125610000D01*
X193310000Y-125610000D02*
X190650000Y-122950000D01*
X200950000Y-122260000D02*
X197600000Y-125610000D01*
X197130000Y-125610000D02*
X193310000Y-125610000D01*
X190650000Y-122950000D02*
X183810000Y-122950000D01*
X166402000Y-127061000D02*
X169949000Y-127061000D01*
X169949000Y-127061000D02*
X171220000Y-125790000D01*
X203106000Y-119927500D02*
X203106000Y-122202500D01*
X197600000Y-125610000D02*
X197130000Y-125610000D01*
X203163500Y-122260000D02*
X200950000Y-122260000D01*
X203176000Y-122272500D02*
X203163500Y-122260000D01*
X203106000Y-122202500D02*
X203176000Y-122272500D01*
%TO.N,Net-(D14-K)*%
X206950000Y-126210000D02*
X207820000Y-125340000D01*
X190370000Y-124990000D02*
X192200000Y-126820000D01*
X206060000Y-119950000D02*
X206060000Y-122225000D01*
X207820000Y-122940000D02*
X207175000Y-122295000D01*
X207175000Y-122295000D02*
X206130000Y-122295000D01*
X171170000Y-128200000D02*
X171039000Y-128331000D01*
X183460000Y-124870000D02*
X183580000Y-124990000D01*
X192200000Y-126820000D02*
X199870000Y-126820000D01*
X199870000Y-126820000D02*
X200480000Y-126210000D01*
X183580000Y-124990000D02*
X190370000Y-124990000D01*
X207820000Y-125340000D02*
X207820000Y-122940000D01*
X200480000Y-126210000D02*
X206950000Y-126210000D01*
X206060000Y-122225000D02*
X206130000Y-122295000D01*
X171039000Y-128331000D02*
X166402000Y-128331000D01*
%TO.N,/SWT3*%
X188944000Y-118159000D02*
X189020000Y-118235000D01*
X188985000Y-118200000D02*
X189020000Y-118235000D01*
X188944000Y-116414000D02*
X188944000Y-118159000D01*
X186740000Y-118200000D02*
X188985000Y-118200000D01*
%TO.N,Net-(D18-K)*%
X195280000Y-110980000D02*
X202210000Y-110980000D01*
X202210000Y-110980000D02*
X202630000Y-110560000D01*
X202630000Y-108625000D02*
X202630000Y-110560000D01*
X193656000Y-112604000D02*
X195280000Y-110980000D01*
X188944000Y-112604000D02*
X193656000Y-112604000D01*
%TO.N,Net-(D20-K)*%
X206160000Y-114930000D02*
X200910000Y-114930000D01*
X194780000Y-112970000D02*
X193876000Y-113874000D01*
X206437000Y-110657000D02*
X206810000Y-111030000D01*
X193876000Y-113874000D02*
X188944000Y-113874000D01*
X200910000Y-114930000D02*
X198950000Y-112970000D01*
X206810000Y-114280000D02*
X206160000Y-114930000D01*
X205184000Y-108565000D02*
X205184000Y-110657000D01*
X198950000Y-112970000D02*
X194780000Y-112970000D01*
X206810000Y-111030000D02*
X206810000Y-114280000D01*
X205184000Y-110657000D02*
X206437000Y-110657000D01*
%TO.N,Solar1*%
X147760000Y-98840000D02*
X148660000Y-99740000D01*
X152020000Y-87780000D02*
X151920000Y-87780000D01*
X158359000Y-95181000D02*
X156728000Y-95181000D01*
X146558000Y-77470000D02*
X146558000Y-82318000D01*
X149078000Y-143517500D02*
X143830000Y-138269500D01*
X143830000Y-102140000D02*
X147130000Y-98840000D01*
X155521000Y-95181000D02*
X156728000Y-95181000D01*
X158830000Y-95570000D02*
X158400000Y-95140000D01*
X154210000Y-89970000D02*
X152020000Y-87780000D01*
X156728000Y-95172000D02*
X156728000Y-93911000D01*
X156728000Y-93911000D02*
X170453500Y-93911000D01*
X154210000Y-89970000D02*
X154210000Y-93870000D01*
X143830000Y-138269500D02*
X143830000Y-102140000D01*
X170742000Y-91800000D02*
X170742000Y-94199500D01*
X159010000Y-95570000D02*
X158830000Y-95570000D01*
X158400000Y-95140000D02*
X158359000Y-95181000D01*
X147130000Y-98840000D02*
X147760000Y-98840000D01*
X154210000Y-93870000D02*
X155521000Y-95181000D01*
%TO.N,CH3*%
X187151000Y-97637000D02*
X189863000Y-97637000D01*
X189863000Y-97637000D02*
X189890000Y-97610000D01*
X136398000Y-83820000D02*
X151730000Y-83820000D01*
X151730000Y-83820000D02*
X151800000Y-83750000D01*
%TO.N,CH4*%
X152800000Y-86320000D02*
X136398000Y-86320000D01*
X155750000Y-89270000D02*
X152800000Y-86320000D01*
X157190000Y-89370000D02*
X157090000Y-89270000D01*
X157199000Y-89361000D02*
X157190000Y-89370000D01*
X159512000Y-89361000D02*
X157199000Y-89361000D01*
X157090000Y-89270000D02*
X155750000Y-89270000D01*
D46*
%TO.N,CH5*%
X136398000Y-88820000D02*
X140700000Y-88820000D01*
X140700000Y-88820000D02*
X142730000Y-90850000D01*
X142730000Y-90850000D02*
X142740000Y-90850000D01*
X142740000Y-90850000D02*
X145801000Y-93911000D01*
X145801000Y-93911000D02*
X151778000Y-93911000D01*
%TO.N,unconnected-(J6-Shield-Pad5)*%
X187545000Y-73610000D02*
X194875000Y-73610000D01*
X184640000Y-76515000D02*
X187545000Y-73610000D01*
X191210000Y-80695000D02*
X188820000Y-80695000D01*
X194875000Y-73610000D02*
X197780000Y-76515000D01*
X188820000Y-80695000D02*
X184640000Y-76515000D01*
D44*
%TO.N,unconnected-(J9-Shield-Pad6)*%
X135805000Y-133156000D02*
X135955000Y-133006000D01*
X132155000Y-133156000D02*
X135805000Y-133156000D01*
X132155000Y-125406000D02*
X132155000Y-133156000D01*
X132155000Y-125406000D02*
X135805000Y-125406000D01*
X135805000Y-125406000D02*
X135955000Y-125556000D01*
%TO.N,SW1*%
X156320000Y-108880000D02*
X154890000Y-110310000D01*
X154890000Y-110310000D02*
X154630000Y-110310000D01*
X157212000Y-108880000D02*
X156320000Y-108880000D01*
%TO.N,SW2*%
X159765500Y-130071000D02*
X159765500Y-130710000D01*
X159765500Y-130710000D02*
X158652500Y-131823000D01*
X160235500Y-129601000D02*
X159765500Y-130071000D01*
X160978000Y-129601000D02*
X160235500Y-129601000D01*
%TO.N,SW3*%
X182130000Y-117070000D02*
X181349500Y-117850500D01*
X181349500Y-117850500D02*
X180650000Y-117850500D01*
X182586000Y-115144000D02*
X182130000Y-115600000D01*
X182130000Y-115600000D02*
X182130000Y-117070000D01*
X183520000Y-115144000D02*
X182586000Y-115144000D01*
%TO.N,BtnIn*%
X149080000Y-128752082D02*
X159910000Y-139582082D01*
X166180000Y-139310000D02*
X166530000Y-138960000D01*
X166530000Y-138960000D02*
X166530000Y-135000000D01*
X189020000Y-120060000D02*
X189020000Y-121330000D01*
X159910000Y-139680000D02*
X165810000Y-139680000D01*
X149080000Y-120500000D02*
X149080000Y-128752082D01*
X162810000Y-114030000D02*
X162810000Y-116980000D01*
X172850000Y-139310000D02*
X166180000Y-139310000D01*
X165810000Y-139680000D02*
X166180000Y-139310000D01*
X159910000Y-139582082D02*
X159910000Y-139680000D01*
X149200000Y-120500000D02*
X149080000Y-120500000D01*
X162280000Y-117510000D02*
X152190000Y-117510000D01*
X152190000Y-117510000D02*
X149200000Y-120500000D01*
X162810000Y-116980000D02*
X162280000Y-117510000D01*
%TO.N,GND*%
X186740000Y-120075000D02*
X186095000Y-120075000D01*
X185410000Y-94350000D02*
X183900000Y-94350000D01*
X160108000Y-122978000D02*
X160960000Y-122978000D01*
X187448000Y-108588000D02*
X187470000Y-108610000D01*
D47*
X157190000Y-87545000D02*
X157190000Y-86140000D01*
D44*
X160978000Y-132362000D02*
X160910000Y-132430000D01*
X155222500Y-129882500D02*
X155260000Y-129920000D01*
D46*
X176843000Y-109780000D02*
X175290000Y-109780000D01*
X189590000Y-102090000D02*
X189600000Y-102100000D01*
D44*
X183520000Y-116414000D02*
X183520000Y-117950000D01*
D46*
X138001000Y-130581000D02*
X138020000Y-130600000D01*
D44*
X170030000Y-135450000D02*
X169040000Y-135450000D01*
X194960000Y-91650000D02*
X193412000Y-91650000D01*
X169040000Y-135450000D02*
X168570000Y-135920000D01*
X150900000Y-102432000D02*
X149262000Y-102432000D01*
D46*
X147205000Y-107592520D02*
X145972520Y-107592520D01*
D44*
X185900000Y-108598000D02*
X185910000Y-108588000D01*
X183900000Y-94350000D02*
X183820000Y-94270000D01*
D46*
X136005000Y-130581000D02*
X138001000Y-130581000D01*
D44*
X173405000Y-115875000D02*
X173410000Y-115880000D01*
D46*
X151572500Y-129008000D02*
X150542000Y-129008000D01*
X189590000Y-100790000D02*
X189590000Y-102090000D01*
D44*
X192460000Y-121880000D02*
X192420000Y-121920000D01*
X187190000Y-101550000D02*
X187190000Y-100216000D01*
X176474000Y-91800000D02*
X177910000Y-91800000D01*
X192460000Y-120700000D02*
X192460000Y-121880000D01*
D46*
X145952520Y-106532520D02*
X145940000Y-106520000D01*
D44*
X206107500Y-124147500D02*
X206130000Y-124170000D01*
X176410000Y-94320000D02*
X177580000Y-94320000D01*
X173405000Y-115080520D02*
X173405000Y-115875000D01*
X164880000Y-122000000D02*
X163892000Y-122988000D01*
X158900000Y-113980000D02*
X160550000Y-113980000D01*
X157212000Y-111602000D02*
X157230000Y-111620000D01*
X159510000Y-122380000D02*
X160108000Y-122978000D01*
X183526000Y-108598000D02*
X185900000Y-108598000D01*
X155222500Y-128758000D02*
X155222500Y-129882500D01*
X177580000Y-94320000D02*
X177610000Y-94350000D01*
D47*
X157190000Y-86140000D02*
X157140000Y-86090000D01*
D44*
X153551000Y-97356000D02*
X154946000Y-97356000D01*
D46*
X150312000Y-127948000D02*
X150290000Y-127970000D01*
D44*
X150942480Y-106340000D02*
X150855000Y-106252520D01*
X151350000Y-108640000D02*
X151315000Y-108640000D01*
D46*
X150542000Y-129008000D02*
X150540000Y-129010000D01*
D44*
X153152000Y-123768000D02*
X153140000Y-123780000D01*
X165100000Y-114370000D02*
X165100000Y-115670000D01*
X177910000Y-91800000D02*
X177930000Y-91820000D01*
X183520000Y-117950000D02*
X183490000Y-117980000D01*
X155262500Y-127708000D02*
X155222500Y-127668000D01*
X163892000Y-122988000D02*
X163390000Y-122988000D01*
X149262000Y-102432000D02*
X149220000Y-102390000D01*
X205087000Y-112435000D02*
X205184000Y-112532000D01*
D46*
X151572500Y-127948000D02*
X150312000Y-127948000D01*
D44*
X185910000Y-108588000D02*
X187448000Y-108588000D01*
X186095000Y-120075000D02*
X185040000Y-121130000D01*
X157212000Y-110150000D02*
X157212000Y-111602000D01*
D46*
X147205000Y-106532520D02*
X145952520Y-106532520D01*
D44*
X187190000Y-100216000D02*
X187151000Y-100177000D01*
X156842500Y-127708000D02*
X155262500Y-127708000D01*
X173405000Y-115080520D02*
X173405000Y-114090520D01*
X154946000Y-97356000D02*
X155010000Y-97420000D01*
X154972500Y-123768000D02*
X153152000Y-123768000D01*
X193412000Y-91650000D02*
X193376000Y-91614000D01*
X160978000Y-130871000D02*
X160978000Y-132362000D01*
X155222500Y-127668000D02*
X155222500Y-128758000D01*
X164230000Y-134905000D02*
X164230000Y-136297500D01*
D46*
X145972520Y-107592520D02*
X145930000Y-107550000D01*
D45*
%TO.N,Net-(J3-Pin_1)*%
X194710000Y-75915000D02*
X194710000Y-78040000D01*
X194710000Y-78040000D02*
X196850000Y-80180000D01*
X196850000Y-80180000D02*
X196850000Y-83190000D01*
X197890000Y-84230000D02*
X202077500Y-84230000D01*
X196850000Y-83190000D02*
X197890000Y-84230000D01*
%TD*%
%TA.AperFunction,Conductor*%
%TO.N,GND*%
G36*
X153243039Y-105639685D02*
G01*
X153288794Y-105692489D01*
X153300000Y-105744000D01*
X153300000Y-106936000D01*
X153280315Y-107003039D01*
X153227511Y-107048794D01*
X153176000Y-107060000D01*
X152480000Y-107060000D01*
X151350000Y-107210000D01*
X151350000Y-107740000D01*
X151951552Y-108313354D01*
X151986499Y-108373856D01*
X151990000Y-108403114D01*
X151990000Y-108913866D01*
X151970315Y-108980905D01*
X151959846Y-108994915D01*
X151837094Y-109137049D01*
X151778378Y-109174920D01*
X151743248Y-109180000D01*
X150123611Y-109180000D01*
X150056572Y-109160315D01*
X150014752Y-109115378D01*
X149945141Y-108987758D01*
X149930000Y-108928380D01*
X149930000Y-108427302D01*
X149949685Y-108360263D01*
X149950582Y-108358887D01*
X149956462Y-108350000D01*
X150360000Y-107740000D01*
X150350660Y-105974656D01*
X150369989Y-105907513D01*
X150422550Y-105861480D01*
X150474658Y-105850000D01*
X151339999Y-105850000D01*
X151340000Y-105850000D01*
X152488057Y-105622367D01*
X152512174Y-105620000D01*
X153176000Y-105620000D01*
X153243039Y-105639685D01*
G37*
%TD.AperFunction*%
%TD*%
%TA.AperFunction,Conductor*%
%TO.N,GND*%
G36*
X150122298Y-88709739D02*
G01*
X150189227Y-88729789D01*
X150205228Y-88742165D01*
X150371062Y-88893578D01*
X150407297Y-88953317D01*
X150408500Y-88958251D01*
X150496720Y-89355241D01*
X150499637Y-89385115D01*
X150470000Y-90620000D01*
X150960000Y-90860000D01*
X152560060Y-90860000D01*
X152627099Y-90879685D01*
X152632431Y-90883310D01*
X152872445Y-91055820D01*
X152915393Y-91110931D01*
X152923811Y-91148440D01*
X152947755Y-91515590D01*
X152934157Y-91580628D01*
X152833851Y-91774554D01*
X152785568Y-91825056D01*
X152726335Y-91841558D01*
X152694608Y-91842230D01*
X152688431Y-91842052D01*
X152669846Y-91840590D01*
X152668694Y-91840500D01*
X150887306Y-91840500D01*
X150887303Y-91840500D01*
X150856114Y-91842954D01*
X150798849Y-91833861D01*
X149849998Y-91439999D01*
X148931254Y-91449471D01*
X148864015Y-91430479D01*
X148843332Y-91414185D01*
X148511428Y-91090000D01*
X148486553Y-91065703D01*
X148452350Y-91004779D01*
X148449214Y-90978912D01*
X148440000Y-90380000D01*
X148335069Y-90097773D01*
X148157773Y-89620905D01*
X148150000Y-89577693D01*
X148150000Y-88966133D01*
X148169685Y-88899094D01*
X148180149Y-88885090D01*
X148302639Y-88743259D01*
X148361353Y-88705390D01*
X148397158Y-88700312D01*
X150122298Y-88709739D01*
G37*
%TD.AperFunction*%
%TD*%
%TA.AperFunction,Conductor*%
%TO.N,GND*%
G36*
X179084054Y-113039685D02*
G01*
X179106623Y-113058288D01*
X179256085Y-113214544D01*
X179288199Y-113276596D01*
X179290471Y-113299064D01*
X179299293Y-114216501D01*
X179280254Y-114283726D01*
X179235861Y-114325897D01*
X177960001Y-115039998D01*
X177960000Y-115039999D01*
X177941443Y-116663703D01*
X177920993Y-116730513D01*
X177867670Y-116775662D01*
X177813751Y-116786231D01*
X176718895Y-116753549D01*
X176652473Y-116731873D01*
X176608314Y-116677727D01*
X176598604Y-116631062D01*
X176561472Y-113465454D01*
X176580368Y-113398189D01*
X176632632Y-113351818D01*
X176685463Y-113340000D01*
X177539998Y-113340000D01*
X177540000Y-113340000D01*
X178274795Y-113092490D01*
X178470739Y-113026488D01*
X178510322Y-113020000D01*
X179017015Y-113020000D01*
X179084054Y-113039685D01*
G37*
%TD.AperFunction*%
%TD*%
%TA.AperFunction,Conductor*%
%TO.N,GND*%
G36*
X201662147Y-123540150D02*
G01*
X202293810Y-123584366D01*
X202659980Y-123609999D01*
X202659986Y-123609999D01*
X202660000Y-123610000D01*
X203600000Y-123590000D01*
X206621999Y-123649061D01*
X206688639Y-123670051D01*
X206704850Y-123683015D01*
X206821281Y-123793318D01*
X206856410Y-123853713D01*
X206860000Y-123883335D01*
X206860000Y-124452623D01*
X206840315Y-124519662D01*
X206828410Y-124535306D01*
X206727091Y-124648544D01*
X206667719Y-124685379D01*
X206634373Y-124689861D01*
X202670163Y-124680025D01*
X202660000Y-124680000D01*
X202659999Y-124680000D01*
X202110000Y-124889999D01*
X201666601Y-125351874D01*
X201605974Y-125386603D01*
X201577149Y-125390000D01*
X200909374Y-125390000D01*
X200842335Y-125370315D01*
X200796580Y-125317511D01*
X200791737Y-125305212D01*
X200656363Y-124899089D01*
X200650000Y-124859877D01*
X200650000Y-123901241D01*
X200657069Y-123859971D01*
X200719523Y-123683019D01*
X200740801Y-123622729D01*
X200781676Y-123566064D01*
X200846697Y-123540492D01*
X200857732Y-123540000D01*
X201657837Y-123540000D01*
X201662147Y-123540150D01*
G37*
%TD.AperFunction*%
%TD*%
%TA.AperFunction,Conductor*%
%TO.N,GND*%
G36*
X161753804Y-101089466D02*
G01*
X161783350Y-101114483D01*
X161939468Y-101295569D01*
X161968334Y-101359197D01*
X161969471Y-101372057D01*
X162013676Y-102595043D01*
X162014854Y-102906573D01*
X161995423Y-102973686D01*
X161993390Y-102976774D01*
X161869463Y-103158997D01*
X161815774Y-103203239D01*
X161780132Y-103218514D01*
X161757773Y-103225678D01*
X161419025Y-103299746D01*
X161370786Y-103300685D01*
X161031100Y-103240160D01*
X161007055Y-103233316D01*
X160879416Y-103182588D01*
X160810000Y-103155000D01*
X160420000Y-103000000D01*
X160000352Y-103004480D01*
X160000351Y-103004480D01*
X158059974Y-103025196D01*
X157160000Y-103030000D01*
X156901560Y-103030000D01*
X156852891Y-103020050D01*
X156642239Y-102930158D01*
X156588305Y-102885740D01*
X156575851Y-102862343D01*
X156488941Y-102646044D01*
X156480000Y-102599813D01*
X156480000Y-102438855D01*
X156490497Y-102388925D01*
X156579319Y-102187012D01*
X156624329Y-102133577D01*
X156647863Y-102121382D01*
X156861103Y-102038434D01*
X156906056Y-102030000D01*
X157215000Y-102030000D01*
X157710000Y-102030000D01*
X158815914Y-102021716D01*
X160075953Y-102012278D01*
X160075954Y-102012277D01*
X160380000Y-102010000D01*
X160810000Y-101580000D01*
X160940008Y-101359983D01*
X160940689Y-101358984D01*
X160941199Y-101358453D01*
X160942392Y-101356915D01*
X160942555Y-101357042D01*
X160969631Y-101328876D01*
X161273757Y-101104371D01*
X161339379Y-101080396D01*
X161344249Y-101080176D01*
X161375824Y-101079374D01*
X161686288Y-101071490D01*
X161753804Y-101089466D01*
G37*
%TD.AperFunction*%
%TD*%
%TA.AperFunction,Conductor*%
%TO.N,GND*%
G36*
X201887412Y-133565003D02*
G01*
X202740000Y-133810000D01*
X206405991Y-133760858D01*
X206473288Y-133779642D01*
X206507769Y-133811684D01*
X206636117Y-133987318D01*
X206659778Y-134053057D01*
X206660000Y-134060478D01*
X206660000Y-134540113D01*
X206640315Y-134607152D01*
X206625452Y-134625987D01*
X206456601Y-134801874D01*
X206395974Y-134836603D01*
X206367149Y-134840000D01*
X202389999Y-134840000D01*
X201765792Y-135426377D01*
X201703453Y-135457930D01*
X201680892Y-135460000D01*
X200899477Y-135460000D01*
X200832438Y-135440315D01*
X200793723Y-135400747D01*
X200548596Y-135000373D01*
X200530356Y-134934386D01*
X200539169Y-134053057D01*
X200539521Y-134017836D01*
X200559875Y-133951000D01*
X200572482Y-133934883D01*
X200873708Y-133609234D01*
X200933680Y-133573388D01*
X200963440Y-133569443D01*
X201851883Y-133560188D01*
X201887412Y-133565003D01*
G37*
%TD.AperFunction*%
%TD*%
%TA.AperFunction,Conductor*%
%TO.N,GND*%
G36*
X201618874Y-111737247D02*
G01*
X201668666Y-111754380D01*
X202150000Y-111920000D01*
X205628048Y-112048086D01*
X205694316Y-112070224D01*
X205715052Y-112088390D01*
X205857572Y-112244484D01*
X205888238Y-112307263D01*
X205890000Y-112328092D01*
X205890000Y-112737085D01*
X205870315Y-112804124D01*
X205851796Y-112826612D01*
X205687311Y-112984243D01*
X205625290Y-113016416D01*
X205598337Y-113018675D01*
X202140001Y-112929999D01*
X202140000Y-112929999D01*
X201684140Y-113203515D01*
X201319450Y-113422329D01*
X201255655Y-113440000D01*
X200562963Y-113440000D01*
X200495924Y-113420315D01*
X200454568Y-113376220D01*
X200405605Y-113288087D01*
X200390000Y-113227867D01*
X200390000Y-111854500D01*
X200409685Y-111787461D01*
X200462489Y-111741706D01*
X200514000Y-111730500D01*
X201578529Y-111730500D01*
X201618874Y-111737247D01*
G37*
%TD.AperFunction*%
%TD*%
M02*
