%TF.GenerationSoftware,KiCad,Pcbnew,7.0.8-7.0.8~ubuntu22.04.1*%
%TF.CreationDate,2023-10-06T08:49:59+03:00*%
%TF.ProjectId,Omarich EPS stack V1.5,4f6d6172-6963-4682-9045-505320737461,rev?*%
%TF.SameCoordinates,Original*%
%TF.FileFunction,Paste,Top*%
%TF.FilePolarity,Positive*%
%FSLAX46Y46*%
G04 Gerber Fmt 4.6, Leading zero omitted, Abs format (unit mm)*
G04 Created by KiCad (PCBNEW 7.0.8-7.0.8~ubuntu22.04.1) date 2023-10-06 08:49:59*
%MOMM*%
%LPD*%
G01*
G04 APERTURE LIST*
G04 Aperture macros list*
%AMRoundRect*
0 Rectangle with rounded corners*
0 $1 Rounding radius*
0 $2 $3 $4 $5 $6 $7 $8 $9 X,Y pos of 4 corners*
0 Add a 4 corners polygon primitive as box body*
4,1,4,$2,$3,$4,$5,$6,$7,$8,$9,$2,$3,0*
0 Add four circle primitives for the rounded corners*
1,1,$1+$1,$2,$3*
1,1,$1+$1,$4,$5*
1,1,$1+$1,$6,$7*
1,1,$1+$1,$8,$9*
0 Add four rect primitives between the rounded corners*
20,1,$1+$1,$2,$3,$4,$5,0*
20,1,$1+$1,$4,$5,$6,$7,0*
20,1,$1+$1,$6,$7,$8,$9,0*
20,1,$1+$1,$8,$9,$2,$3,0*%
G04 Aperture macros list end*
%ADD10R,1.300000X0.450000*%
%ADD11RoundRect,0.250000X-0.475000X0.250000X-0.475000X-0.250000X0.475000X-0.250000X0.475000X0.250000X0*%
%ADD12RoundRect,0.243750X0.243750X0.456250X-0.243750X0.456250X-0.243750X-0.456250X0.243750X-0.456250X0*%
%ADD13RoundRect,0.243750X0.456250X-0.243750X0.456250X0.243750X-0.456250X0.243750X-0.456250X-0.243750X0*%
%ADD14RoundRect,0.250000X0.475000X-0.250000X0.475000X0.250000X-0.475000X0.250000X-0.475000X-0.250000X0*%
%ADD15RoundRect,0.250000X-0.450000X0.262500X-0.450000X-0.262500X0.450000X-0.262500X0.450000X0.262500X0*%
%ADD16RoundRect,0.243750X-0.243750X-0.456250X0.243750X-0.456250X0.243750X0.456250X-0.243750X0.456250X0*%
%ADD17RoundRect,0.243750X-0.456250X0.243750X-0.456250X-0.243750X0.456250X-0.243750X0.456250X0.243750X0*%
%ADD18R,1.525000X0.700000*%
%ADD19R,2.513000X3.402000*%
%ADD20R,1.000000X0.300000*%
%ADD21R,1.000000X0.800000*%
%ADD22RoundRect,0.250000X0.250000X0.475000X-0.250000X0.475000X-0.250000X-0.475000X0.250000X-0.475000X0*%
%ADD23RoundRect,0.250000X-0.262500X-0.450000X0.262500X-0.450000X0.262500X0.450000X-0.262500X0.450000X0*%
%ADD24RoundRect,0.250000X0.450000X-0.262500X0.450000X0.262500X-0.450000X0.262500X-0.450000X-0.262500X0*%
%ADD25RoundRect,0.218750X-0.381250X0.218750X-0.381250X-0.218750X0.381250X-0.218750X0.381250X0.218750X0*%
%ADD26RoundRect,0.150000X-0.825000X-0.150000X0.825000X-0.150000X0.825000X0.150000X-0.825000X0.150000X0*%
%ADD27RoundRect,0.150000X0.825000X0.150000X-0.825000X0.150000X-0.825000X-0.150000X0.825000X-0.150000X0*%
%ADD28RoundRect,0.250000X-0.250000X-0.475000X0.250000X-0.475000X0.250000X0.475000X-0.250000X0.475000X0*%
G04 APERTURE END LIST*
D10*
%TO.C,J9*%
X136005000Y-127981000D03*
X136005000Y-128631000D03*
X136005000Y-129281000D03*
X136005000Y-129931000D03*
X136005000Y-130581000D03*
%TD*%
D11*
%TO.C,C13*%
X160960000Y-122978000D03*
X160960000Y-124878000D03*
%TD*%
D12*
%TO.C,D9*%
X176474000Y-91800000D03*
X174599000Y-91800000D03*
%TD*%
D11*
%TO.C,C7*%
X157210000Y-102530000D03*
X157210000Y-104430000D03*
%TD*%
D13*
%TO.C,D15*%
X206130000Y-124170000D03*
X206130000Y-122295000D03*
%TD*%
%TO.C,D18*%
X202617000Y-108600000D03*
X202617000Y-106725000D03*
%TD*%
D14*
%TO.C,C21*%
X154972500Y-125668000D03*
X154972500Y-123768000D03*
%TD*%
D13*
%TO.C,D4*%
X205890000Y-130226000D03*
X205890000Y-128351000D03*
%TD*%
%TO.C,D20*%
X205184000Y-108565000D03*
X205184000Y-106690000D03*
%TD*%
D15*
%TO.C,R5*%
X162810000Y-112205000D03*
X162810000Y-114030000D03*
%TD*%
D16*
%TO.C,D8*%
X167460000Y-109190000D03*
X169335000Y-109190000D03*
%TD*%
D13*
%TO.C,D21*%
X205184000Y-112532000D03*
X205184000Y-110657000D03*
%TD*%
D14*
%TO.C,C10*%
X150900000Y-104332000D03*
X150900000Y-102432000D03*
%TD*%
D17*
%TO.C,D1*%
X194960000Y-91650000D03*
X194960000Y-93525000D03*
%TD*%
D13*
%TO.C,D5*%
X203300000Y-134290000D03*
X203300000Y-132415000D03*
%TD*%
D18*
%TO.C,IC2*%
X160978000Y-127061000D03*
X160978000Y-128331000D03*
X160978000Y-129601000D03*
X160978000Y-130871000D03*
X166402000Y-130871000D03*
X166402000Y-129601000D03*
X166402000Y-128331000D03*
X166402000Y-127061000D03*
D19*
X163690000Y-128966000D03*
%TD*%
D20*
%TO.C,U5*%
X151572500Y-127418000D03*
X151572500Y-127948000D03*
X151572500Y-129008000D03*
D21*
X155222500Y-128758000D03*
X155222500Y-127668000D03*
%TD*%
D12*
%TO.C,D2*%
X176410000Y-94320000D03*
X174535000Y-94320000D03*
%TD*%
D22*
%TO.C,C14*%
X158742500Y-127708000D03*
X156842500Y-127708000D03*
%TD*%
D15*
%TO.C,R11*%
X168790000Y-130073000D03*
X168790000Y-131898000D03*
%TD*%
D20*
%TO.C,U6*%
X173405000Y-113490520D03*
X173405000Y-114020520D03*
X173405000Y-115080520D03*
D21*
X177055000Y-114830520D03*
X177055000Y-113740520D03*
%TD*%
D13*
%TO.C,D13*%
X203176000Y-124147500D03*
X203176000Y-122272500D03*
%TD*%
D23*
%TO.C,R8*%
X170742000Y-91800000D03*
X172567000Y-91800000D03*
%TD*%
D20*
%TO.C,U3*%
X147205000Y-106002520D03*
X147205000Y-106532520D03*
X147205000Y-107592520D03*
D21*
X150855000Y-107342520D03*
X150855000Y-106252520D03*
%TD*%
D14*
%TO.C,C22*%
X176843000Y-111680000D03*
X176843000Y-109780000D03*
%TD*%
D24*
%TO.C,R3*%
X194960000Y-97382000D03*
X194960000Y-95557000D03*
%TD*%
D13*
%TO.C,D14*%
X206060000Y-119950000D03*
X206060000Y-118075000D03*
%TD*%
D11*
%TO.C,C8*%
X159880000Y-102510000D03*
X159880000Y-104410000D03*
%TD*%
D23*
%TO.C,R14*%
X156890000Y-125438000D03*
X158715000Y-125438000D03*
%TD*%
D13*
%TO.C,D3*%
X203300000Y-130226000D03*
X203300000Y-128351000D03*
%TD*%
%TO.C,D19*%
X202630000Y-112435000D03*
X202630000Y-110560000D03*
%TD*%
D14*
%TO.C,C5*%
X149365000Y-92636000D03*
X149365000Y-90736000D03*
%TD*%
D25*
%TO.C,L2*%
X158652500Y-129698000D03*
X158652500Y-131823000D03*
%TD*%
%TO.C,L1*%
X154630000Y-108185000D03*
X154630000Y-110310000D03*
%TD*%
D23*
%TO.C,R15*%
X178875000Y-111558000D03*
X180700000Y-111558000D03*
%TD*%
D22*
%TO.C,C18*%
X180684000Y-113747000D03*
X178784000Y-113747000D03*
%TD*%
D26*
%TO.C,U4*%
X182201000Y-96367000D03*
X182201000Y-97637000D03*
X182201000Y-98907000D03*
X182201000Y-100177000D03*
X187151000Y-100177000D03*
X187151000Y-98907000D03*
X187151000Y-97637000D03*
X187151000Y-96367000D03*
%TD*%
D11*
%TO.C,C17*%
X183526000Y-108598000D03*
X183526000Y-110498000D03*
%TD*%
D15*
%TO.C,R12*%
X189020000Y-118235000D03*
X189020000Y-120060000D03*
%TD*%
D13*
%TO.C,D17*%
X186740000Y-120075000D03*
X186740000Y-118200000D03*
%TD*%
D11*
%TO.C,C15*%
X163390000Y-122988000D03*
X163390000Y-124888000D03*
%TD*%
D18*
%TO.C,IC1*%
X157212000Y-106340000D03*
X157212000Y-107610000D03*
X157212000Y-108880000D03*
X157212000Y-110150000D03*
X162636000Y-110150000D03*
X162636000Y-108880000D03*
X162636000Y-107610000D03*
X162636000Y-106340000D03*
D19*
X159924000Y-108245000D03*
%TD*%
D18*
%TO.C,IC3*%
X183520000Y-112604000D03*
X183520000Y-113874000D03*
X183520000Y-115144000D03*
X183520000Y-116414000D03*
X188944000Y-116414000D03*
X188944000Y-115144000D03*
X188944000Y-113874000D03*
X188944000Y-112604000D03*
D19*
X186232000Y-114509000D03*
%TD*%
D22*
%TO.C,C3*%
X153551000Y-97356000D03*
X151651000Y-97356000D03*
%TD*%
%TO.C,C6*%
X154700000Y-106340000D03*
X152800000Y-106340000D03*
%TD*%
D11*
%TO.C,C16*%
X170030000Y-133550000D03*
X170030000Y-135450000D03*
%TD*%
D13*
%TO.C,D7*%
X160550000Y-113980000D03*
X160550000Y-112105000D03*
%TD*%
D16*
%TO.C,D22*%
X194460000Y-115220000D03*
X196335000Y-115220000D03*
%TD*%
D11*
%TO.C,C20*%
X192460000Y-118800000D03*
X192460000Y-120700000D03*
%TD*%
%TO.C,C12*%
X189590000Y-98890000D03*
X189590000Y-100790000D03*
%TD*%
D15*
%TO.C,R13*%
X191240000Y-115160000D03*
X191240000Y-116985000D03*
%TD*%
D13*
%TO.C,D11*%
X164230000Y-134905000D03*
X164230000Y-133030000D03*
%TD*%
D23*
%TO.C,R7*%
X152885000Y-104210000D03*
X154710000Y-104210000D03*
%TD*%
D24*
%TO.C,R1*%
X159512000Y-91186000D03*
X159512000Y-89361000D03*
%TD*%
D23*
%TO.C,R4*%
X170862500Y-94320000D03*
X172687500Y-94320000D03*
%TD*%
D15*
%TO.C,R6*%
X165110000Y-108897000D03*
X165110000Y-110722000D03*
%TD*%
%TO.C,R10*%
X166530000Y-133175000D03*
X166530000Y-135000000D03*
%TD*%
D27*
%TO.C,U1*%
X156728000Y-95181000D03*
X156728000Y-93911000D03*
X156728000Y-92641000D03*
X156728000Y-91371000D03*
X151778000Y-91371000D03*
X151778000Y-92641000D03*
X151778000Y-93911000D03*
X151778000Y-95181000D03*
%TD*%
D28*
%TO.C,C11*%
X185410000Y-94350000D03*
X187310000Y-94350000D03*
%TD*%
D11*
%TO.C,C19*%
X185910000Y-108588000D03*
X185910000Y-110488000D03*
%TD*%
D25*
%TO.C,L3*%
X180650000Y-115725500D03*
X180650000Y-117850500D03*
%TD*%
D16*
%TO.C,D16*%
X172115000Y-130048000D03*
X173990000Y-130048000D03*
%TD*%
D11*
%TO.C,C9*%
X165100000Y-112470000D03*
X165100000Y-114370000D03*
%TD*%
D13*
%TO.C,D12*%
X203106000Y-119927500D03*
X203106000Y-118052500D03*
%TD*%
D24*
%TO.C,R2*%
X157190000Y-89370000D03*
X157190000Y-87545000D03*
%TD*%
D13*
%TO.C,D6*%
X205890000Y-134290000D03*
X205890000Y-132415000D03*
%TD*%
M02*
