%TF.GenerationSoftware,KiCad,Pcbnew,7.0.8-7.0.8~ubuntu22.04.1*%
%TF.CreationDate,2023-10-06T08:49:59+03:00*%
%TF.ProjectId,Omarich EPS stack V1.5,4f6d6172-6963-4682-9045-505320737461,rev?*%
%TF.SameCoordinates,Original*%
%TF.FileFunction,Copper,L2,Bot*%
%TF.FilePolarity,Positive*%
%FSLAX46Y46*%
G04 Gerber Fmt 4.6, Leading zero omitted, Abs format (unit mm)*
G04 Created by KiCad (PCBNEW 7.0.8-7.0.8~ubuntu22.04.1) date 2023-10-06 08:49:59*
%MOMM*%
%LPD*%
G01*
G04 APERTURE LIST*
G04 Aperture macros list*
%AMRoundRect*
0 Rectangle with rounded corners*
0 $1 Rounding radius*
0 $2 $3 $4 $5 $6 $7 $8 $9 X,Y pos of 4 corners*
0 Add a 4 corners polygon primitive as box body*
4,1,4,$2,$3,$4,$5,$6,$7,$8,$9,$2,$3,0*
0 Add four circle primitives for the rounded corners*
1,1,$1+$1,$2,$3*
1,1,$1+$1,$4,$5*
1,1,$1+$1,$6,$7*
1,1,$1+$1,$8,$9*
0 Add four rect primitives between the rounded corners*
20,1,$1+$1,$2,$3,$4,$5,0*
20,1,$1+$1,$4,$5,$6,$7,0*
20,1,$1+$1,$6,$7,$8,$9,0*
20,1,$1+$1,$8,$9,$2,$3,0*%
G04 Aperture macros list end*
%TA.AperFunction,ComponentPad*%
%ADD10O,1.800000X1.150000*%
%TD*%
%TA.AperFunction,ComponentPad*%
%ADD11O,2.000000X1.450000*%
%TD*%
%TA.AperFunction,ComponentPad*%
%ADD12RoundRect,0.250000X-0.750000X0.600000X-0.750000X-0.600000X0.750000X-0.600000X0.750000X0.600000X0*%
%TD*%
%TA.AperFunction,ComponentPad*%
%ADD13O,2.000000X1.700000*%
%TD*%
%TA.AperFunction,ComponentPad*%
%ADD14RoundRect,0.250000X0.725000X-0.600000X0.725000X0.600000X-0.725000X0.600000X-0.725000X-0.600000X0*%
%TD*%
%TA.AperFunction,ComponentPad*%
%ADD15O,1.950000X1.700000*%
%TD*%
%TA.AperFunction,ComponentPad*%
%ADD16RoundRect,0.250000X-0.600000X-0.750000X0.600000X-0.750000X0.600000X0.750000X-0.600000X0.750000X0*%
%TD*%
%TA.AperFunction,ComponentPad*%
%ADD17O,1.700000X2.000000*%
%TD*%
%TA.AperFunction,ComponentPad*%
%ADD18R,1.300000X1.300000*%
%TD*%
%TA.AperFunction,ComponentPad*%
%ADD19C,1.300000*%
%TD*%
%TA.AperFunction,ComponentPad*%
%ADD20O,1.900000X2.900000*%
%TD*%
%TA.AperFunction,ComponentPad*%
%ADD21O,2.900000X1.900000*%
%TD*%
%TA.AperFunction,ComponentPad*%
%ADD22C,2.000000*%
%TD*%
%TA.AperFunction,ComponentPad*%
%ADD23RoundRect,0.250000X0.600000X0.750000X-0.600000X0.750000X-0.600000X-0.750000X0.600000X-0.750000X0*%
%TD*%
%TA.AperFunction,ViaPad*%
%ADD24C,0.800000*%
%TD*%
%TA.AperFunction,Conductor*%
%ADD25C,0.500000*%
%TD*%
%TA.AperFunction,Conductor*%
%ADD26C,1.000000*%
%TD*%
%TA.AperFunction,Conductor*%
%ADD27C,0.300000*%
%TD*%
G04 APERTURE END LIST*
D10*
%TO.P,J9,6,Shield*%
%TO.N,unconnected-(J9-Shield-Pad6)*%
X132155000Y-125406000D03*
D11*
X135955000Y-125556000D03*
X135955000Y-133006000D03*
D10*
X132155000Y-133156000D03*
%TD*%
D12*
%TO.P,J3,1,Pin_1*%
%TO.N,Net-(J3-Pin_1)*%
X202077500Y-84230000D03*
D13*
%TO.P,J3,2,Pin_2*%
%TO.N,+5V*%
X202077500Y-86730000D03*
%TD*%
D14*
%TO.P,J4,1,Pin_1*%
%TO.N,CH5*%
X136398000Y-88820000D03*
D15*
%TO.P,J4,2,Pin_2*%
%TO.N,CH4*%
X136398000Y-86320000D03*
%TO.P,J4,3,Pin_3*%
%TO.N,CH3*%
X136398000Y-83820000D03*
%TD*%
D16*
%TO.P,J2,1,Pin_1*%
%TO.N,Solar1*%
X146558000Y-77470000D03*
D17*
%TO.P,J2,2,Pin_2*%
%TO.N,GND*%
X149058000Y-77470000D03*
%TD*%
D18*
%TO.P,J6,1,VBUS*%
%TO.N,Net-(J3-Pin_1)*%
X194710000Y-75915000D03*
D19*
%TO.P,J6,2,D-*%
%TO.N,unconnected-(J6-D--Pad2)*%
X192210000Y-75915000D03*
%TO.P,J6,3,D+*%
%TO.N,unconnected-(J6-D+-Pad3)*%
X190210000Y-75915000D03*
%TO.P,J6,4,GND*%
%TO.N,GND*%
X187710000Y-75915000D03*
D20*
%TO.P,J6,5,Shield*%
%TO.N,unconnected-(J6-Shield-Pad5)*%
X197780000Y-76515000D03*
D21*
X191210000Y-80695000D03*
D20*
X184640000Y-76515000D03*
%TD*%
D22*
%TO.P,SW1,2,2*%
%TO.N,GND*%
X193070000Y-148000000D03*
X186570000Y-148000000D03*
%TO.P,SW1,1,1*%
%TO.N,BtnIn*%
X193070000Y-143500000D03*
X186570000Y-143500000D03*
%TD*%
D23*
%TO.P,J1,1,Pin_1*%
%TO.N,Solar1*%
X149078000Y-143517500D03*
D17*
%TO.P,J1,2,Pin_2*%
%TO.N,GND*%
X146578000Y-143517500D03*
%TD*%
D23*
%TO.P,J12,1,Pin_1*%
%TO.N,BAT-3*%
X178350000Y-77380000D03*
D17*
%TO.P,J12,2,Pin_2*%
%TO.N,GND*%
X175850000Y-77380000D03*
%TD*%
D23*
%TO.P,J11,1,Pin_1*%
%TO.N,BAT-2*%
X168952000Y-77380000D03*
D17*
%TO.P,J11,2,Pin_2*%
%TO.N,GND*%
X166452000Y-77380000D03*
%TD*%
D23*
%TO.P,J10,1,Pin_1*%
%TO.N,BAT-1*%
X159808000Y-77334000D03*
D17*
%TO.P,J10,2,Pin_2*%
%TO.N,GND*%
X157308000Y-77334000D03*
%TD*%
D24*
%TO.N,BtnIn*%
X173670000Y-142180000D03*
%TO.N,+5V*%
X161890000Y-97930000D03*
X186690000Y-90970000D03*
%TO.N,BAT-1*%
X165340000Y-96680000D03*
X165900000Y-91110000D03*
%TO.N,5V*%
X179040000Y-99140000D03*
X181760000Y-109720000D03*
X161410000Y-104500000D03*
X165242000Y-124888000D03*
%TO.N,BAT-2*%
X173080000Y-97050000D03*
X172570000Y-110610000D03*
X168900000Y-118840000D03*
X167690000Y-93061500D03*
%TO.N,BAT-3*%
X199290000Y-103500000D03*
%TO.N,Net-(D3-K)*%
X174710000Y-104410000D03*
X199830000Y-128850000D03*
X169140000Y-104410000D03*
X184850000Y-103140000D03*
%TO.N,Net-(D4-K)*%
X174880000Y-105480000D03*
X206450000Y-136840000D03*
X169150000Y-105520000D03*
X184890000Y-104150000D03*
%TO.N,VBUS*%
X172260000Y-133270000D03*
X142975000Y-132685000D03*
X194420000Y-116920000D03*
X176980000Y-129040000D03*
%TO.N,VDD*%
X163870000Y-95220000D03*
X163710000Y-92960000D03*
X189790000Y-126150000D03*
X195547971Y-123842029D03*
%TO.N,Net-(D12-K)*%
X171220000Y-125790000D03*
X183810000Y-122950000D03*
%TO.N,Net-(D14-K)*%
X171170000Y-128200000D03*
X183460000Y-124870000D03*
%TO.N,Solar1*%
X146558000Y-82318000D03*
X151920000Y-87780000D03*
X159010000Y-95570000D03*
X148660000Y-99740000D03*
%TO.N,CH3*%
X151800000Y-83750000D03*
X189890000Y-97610000D03*
%TO.N,BtnIn*%
X189020000Y-121330000D03*
X172850000Y-139310000D03*
X186650000Y-139700000D03*
X187020000Y-127650000D03*
%TO.N,GND*%
X150000000Y-89290000D03*
X200970000Y-112060000D03*
X183820000Y-94270000D03*
X157230000Y-111620000D03*
X148650000Y-89290000D03*
X145930000Y-107550000D03*
X201410000Y-134040000D03*
X187190000Y-101550000D03*
X164280000Y-136520000D03*
X145940000Y-106520000D03*
X150290000Y-127970000D03*
X187470000Y-108610000D03*
X150540000Y-129010000D03*
X201390000Y-134960000D03*
X149220000Y-102390000D03*
X201300000Y-124890000D03*
X183490000Y-117980000D03*
X138020000Y-130600000D03*
X168570000Y-135920000D03*
X201280000Y-124020000D03*
X185040000Y-121130000D03*
X175290000Y-109780000D03*
X159510000Y-122380000D03*
X192420000Y-121920000D03*
X160910000Y-132430000D03*
X193376000Y-91614000D03*
X161520000Y-101530000D03*
X155010000Y-97420000D03*
X153140000Y-123780000D03*
X165100000Y-115670000D03*
X189600000Y-102100000D03*
X177930000Y-91820000D03*
X200950000Y-112970000D03*
X164880000Y-122000000D03*
X157140000Y-86090000D03*
X173410000Y-115880000D03*
X161510000Y-102690000D03*
X177610000Y-94350000D03*
X150440000Y-108660000D03*
X155260000Y-129920000D03*
X151350000Y-108640000D03*
X177180000Y-116230000D03*
X158900000Y-113980000D03*
%TD*%
D25*
%TO.N,VBUS*%
X172210000Y-135810000D02*
X172210000Y-134290000D01*
X142975000Y-132685000D02*
X148630000Y-138340000D01*
X148630000Y-138340000D02*
X169680000Y-138340000D01*
X169680000Y-138340000D02*
X172210000Y-135810000D01*
%TO.N,BtnIn*%
X186650000Y-139700000D02*
X186650000Y-143120000D01*
X186650000Y-143120000D02*
X186800000Y-143270000D01*
X173660000Y-142190000D02*
X173660000Y-142260000D01*
X173670000Y-142180000D02*
X173660000Y-142190000D01*
X173660000Y-142170000D02*
X173670000Y-142180000D01*
X172850000Y-139310000D02*
X173660000Y-140120000D01*
X173660000Y-140120000D02*
X173660000Y-142170000D01*
%TO.N,+5V*%
X161890000Y-97930000D02*
X162150000Y-97670000D01*
X162150000Y-89680000D02*
X164290000Y-87540000D01*
X186470000Y-90750000D02*
X186690000Y-90970000D01*
X162150000Y-97670000D02*
X162150000Y-89680000D01*
X164290000Y-87540000D02*
X175790000Y-87540000D01*
X179000000Y-90750000D02*
X186470000Y-90750000D01*
X175790000Y-87540000D02*
X179000000Y-90750000D01*
%TO.N,BAT-1*%
X165980000Y-91190000D02*
X165900000Y-91110000D01*
X165980000Y-96040000D02*
X165980000Y-91190000D01*
X165340000Y-96680000D02*
X165980000Y-96040000D01*
D26*
%TO.N,5V*%
X175240000Y-116060000D02*
X175420000Y-116060000D01*
X162400000Y-104500000D02*
X165150000Y-101750000D01*
D25*
X179040000Y-106350000D02*
X181760000Y-109070000D01*
D26*
X178270000Y-98370000D02*
X179040000Y-99140000D01*
D25*
X181760000Y-109070000D02*
X181760000Y-109720000D01*
D26*
X168060000Y-124690000D02*
X175240000Y-117510000D01*
X161410000Y-104500000D02*
X162400000Y-104500000D01*
X175240000Y-117510000D02*
X175240000Y-116060000D01*
X165242000Y-124888000D02*
X165440000Y-124690000D01*
X165150000Y-101750000D02*
X165150000Y-99290000D01*
D25*
X179040000Y-99140000D02*
X179040000Y-106350000D01*
D26*
X166170000Y-98370000D02*
X178270000Y-98370000D01*
X165150000Y-99290000D02*
X165250000Y-99290000D01*
X175420000Y-116060000D02*
X181760000Y-109720000D01*
X165440000Y-124690000D02*
X168060000Y-124690000D01*
D25*
X181760000Y-109720000D02*
X181760000Y-109977918D01*
D26*
X165250000Y-99290000D02*
X166170000Y-98370000D01*
D25*
%TO.N,BAT-2*%
X167690000Y-93061500D02*
X167690000Y-95120000D01*
X172570000Y-111900000D02*
X169660000Y-114810000D01*
X169660000Y-114810000D02*
X168900000Y-115570000D01*
X168900000Y-115570000D02*
X168900000Y-118840000D01*
X169620000Y-97050000D02*
X173080000Y-97050000D01*
X172570000Y-110610000D02*
X172570000Y-111900000D01*
X167690000Y-95120000D02*
X169620000Y-97050000D01*
%TO.N,BAT-3*%
X193850000Y-87210000D02*
X181740000Y-87210000D01*
X199290000Y-92650000D02*
X193850000Y-87210000D01*
X181740000Y-87210000D02*
X178350000Y-83820000D01*
X178350000Y-83820000D02*
X178350000Y-77380000D01*
X199290000Y-103500000D02*
X199290000Y-92650000D01*
%TO.N,Net-(D3-K)*%
X199860000Y-109430000D02*
X199860000Y-117310000D01*
X169140000Y-104410000D02*
X174710000Y-104410000D01*
X184850000Y-103140000D02*
X193570000Y-103140000D01*
X199860000Y-117310000D02*
X199860000Y-128820000D01*
X199860000Y-128820000D02*
X199830000Y-128850000D01*
X195450000Y-105020000D02*
X199860000Y-109430000D01*
X193570000Y-103140000D02*
X195450000Y-105020000D01*
%TO.N,Net-(D4-K)*%
X198610000Y-135350000D02*
X198610000Y-109900000D01*
X200100000Y-136840000D02*
X198610000Y-135350000D01*
X169150000Y-105520000D02*
X174840000Y-105520000D01*
X174840000Y-105520000D02*
X174880000Y-105480000D01*
X198610000Y-109900000D02*
X192860000Y-104150000D01*
X206450000Y-136840000D02*
X200100000Y-136840000D01*
X192860000Y-104150000D02*
X184890000Y-104150000D01*
%TO.N,VBUS*%
X191740000Y-130810000D02*
X179578000Y-130810000D01*
X177808000Y-129040000D02*
X179578000Y-130810000D01*
X179578000Y-133274000D02*
X178562000Y-134290000D01*
X179578000Y-130810000D02*
X179578000Y-133274000D01*
X194630000Y-116920000D02*
X195950000Y-118240000D01*
X195950000Y-118240000D02*
X195950000Y-122220000D01*
X196700000Y-125850000D02*
X191740000Y-130810000D01*
D27*
X172260000Y-133270000D02*
X172260000Y-134240000D01*
D25*
X178562000Y-134290000D02*
X172210000Y-134290000D01*
X194420000Y-116920000D02*
X194630000Y-116920000D01*
X176980000Y-129040000D02*
X177808000Y-129040000D01*
X196700000Y-122970000D02*
X196700000Y-125850000D01*
X195950000Y-122220000D02*
X196700000Y-122970000D01*
D27*
X172260000Y-134240000D02*
X172210000Y-134290000D01*
D25*
%TO.N,VDD*%
X193240000Y-126150000D02*
X195547971Y-123842029D01*
X163710000Y-95060000D02*
X163870000Y-95220000D01*
X189790000Y-126150000D02*
X193240000Y-126150000D01*
X163710000Y-92960000D02*
X163710000Y-95060000D01*
%TO.N,Net-(D12-K)*%
X171220000Y-125790000D02*
X175930000Y-125790000D01*
X175930000Y-125790000D02*
X178770000Y-122950000D01*
X178770000Y-122950000D02*
X183810000Y-122950000D01*
%TO.N,Net-(D14-K)*%
X182430000Y-123840000D02*
X179340000Y-123840000D01*
X179340000Y-123840000D02*
X174980000Y-128200000D01*
X183460000Y-124870000D02*
X182430000Y-123840000D01*
X174980000Y-128200000D02*
X171170000Y-128200000D01*
%TO.N,Solar1*%
X148660000Y-99740000D02*
X156650000Y-99740000D01*
X159310000Y-95870000D02*
X159010000Y-95570000D01*
X151920000Y-87780000D02*
X146558000Y-82418000D01*
X156650000Y-99740000D02*
X159310000Y-97080000D01*
X146558000Y-82418000D02*
X146558000Y-82318000D01*
X159310000Y-97080000D02*
X159310000Y-95870000D01*
%TO.N,CH3*%
X188060000Y-89160000D02*
X179660000Y-89160000D01*
X158010000Y-83750000D02*
X151800000Y-83750000D01*
X175940000Y-85440000D02*
X159700000Y-85440000D01*
X190240000Y-97610000D02*
X190880000Y-96970000D01*
X179660000Y-89160000D02*
X175940000Y-85440000D01*
X159700000Y-85440000D02*
X158010000Y-83750000D01*
X190880000Y-96970000D02*
X190880000Y-91980000D01*
X189890000Y-97610000D02*
X190240000Y-97610000D01*
X190880000Y-91980000D02*
X188060000Y-89160000D01*
%TO.N,BtnIn*%
X186940000Y-123980000D02*
X186940000Y-127570000D01*
X189020000Y-121330000D02*
X189020000Y-121900000D01*
X189020000Y-121900000D02*
X186940000Y-123980000D01*
X186940000Y-127570000D02*
X187020000Y-127650000D01*
%TD*%
%TA.AperFunction,Conductor*%
%TO.N,GND*%
G36*
X132985080Y-70201391D02*
G01*
X132985865Y-70201304D01*
X201755526Y-70227578D01*
X206173327Y-70229990D01*
X206176312Y-70230064D01*
X206312339Y-70236764D01*
X206319754Y-70237154D01*
X206520519Y-70247703D01*
X206526345Y-70248288D01*
X206700069Y-70274114D01*
X206822390Y-70293530D01*
X206885233Y-70303506D01*
X206890610Y-70304605D01*
X207065117Y-70348411D01*
X207242397Y-70396016D01*
X207247224Y-70397526D01*
X207418397Y-70458908D01*
X207588283Y-70524266D01*
X207592551Y-70526095D01*
X207757878Y-70604469D01*
X207919367Y-70686945D01*
X207923061Y-70688995D01*
X208080515Y-70783601D01*
X208232198Y-70882354D01*
X208235350Y-70884548D01*
X208383143Y-70994451D01*
X208422225Y-71026188D01*
X208523608Y-71108516D01*
X208526229Y-71110768D01*
X208551259Y-71133520D01*
X208661609Y-71233830D01*
X208663791Y-71235914D01*
X208790563Y-71363081D01*
X208792662Y-71365293D01*
X208915313Y-71501068D01*
X208917557Y-71503696D01*
X209001421Y-71607634D01*
X209031171Y-71644504D01*
X209140591Y-71792610D01*
X209142788Y-71795787D01*
X209241085Y-71947805D01*
X209335167Y-72105498D01*
X209337227Y-72109238D01*
X209419201Y-72270987D01*
X209428809Y-72291418D01*
X209497045Y-72436526D01*
X209498869Y-72440818D01*
X209563694Y-72610898D01*
X209624543Y-72782264D01*
X209626046Y-72787119D01*
X209673089Y-72964510D01*
X209716354Y-73139168D01*
X209717437Y-73144549D01*
X209746254Y-73329820D01*
X209761807Y-73436732D01*
X209766681Y-73470238D01*
X209771539Y-73503628D01*
X209772109Y-73509484D01*
X209781773Y-73704229D01*
X209789432Y-73870238D01*
X209789498Y-73873119D01*
X209761696Y-147250682D01*
X209761622Y-147253701D01*
X209754206Y-147404677D01*
X209744086Y-147597764D01*
X209743500Y-147603620D01*
X209718446Y-147772523D01*
X209690691Y-147947759D01*
X209689596Y-147953127D01*
X209647298Y-148121996D01*
X209602142Y-148290517D01*
X209600630Y-148295360D01*
X209541478Y-148460677D01*
X209479355Y-148622507D01*
X209477521Y-148626797D01*
X209402080Y-148786307D01*
X209323598Y-148940335D01*
X209321535Y-148944063D01*
X209230516Y-149095918D01*
X209136466Y-149240739D01*
X209134267Y-149243905D01*
X209028563Y-149386432D01*
X208919874Y-149520652D01*
X208917629Y-149523271D01*
X208799283Y-149653847D01*
X208797184Y-149656051D01*
X208676051Y-149777184D01*
X208673847Y-149779283D01*
X208543271Y-149897629D01*
X208540652Y-149899874D01*
X208406432Y-150008563D01*
X208263905Y-150114267D01*
X208260739Y-150116466D01*
X208115918Y-150210516D01*
X207964063Y-150301535D01*
X207960335Y-150303598D01*
X207806307Y-150382080D01*
X207646797Y-150457521D01*
X207642507Y-150459355D01*
X207480677Y-150521478D01*
X207315360Y-150580630D01*
X207310517Y-150582142D01*
X207141996Y-150627298D01*
X206973127Y-150669596D01*
X206967759Y-150670691D01*
X206792523Y-150698446D01*
X206623620Y-150723500D01*
X206617764Y-150724086D01*
X206424846Y-150734197D01*
X206273709Y-150741620D01*
X206270667Y-150741695D01*
X132820041Y-150740987D01*
X132816999Y-150740912D01*
X132666130Y-150733501D01*
X132462801Y-150722846D01*
X132456945Y-150722260D01*
X132284762Y-150696719D01*
X132102776Y-150667895D01*
X132097408Y-150666800D01*
X131924633Y-150623523D01*
X131750213Y-150576787D01*
X131745372Y-150575275D01*
X131575975Y-150514666D01*
X131408701Y-150450455D01*
X131404411Y-150448620D01*
X131301626Y-150400007D01*
X131240855Y-150371264D01*
X131197439Y-150349143D01*
X131081762Y-150290202D01*
X131078046Y-150288146D01*
X130948529Y-150210516D01*
X130922294Y-150194791D01*
X130801683Y-150116466D01*
X130772748Y-150097675D01*
X130769593Y-150095484D01*
X130693279Y-150038886D01*
X130623376Y-149987042D01*
X130484817Y-149874840D01*
X130482201Y-149872598D01*
X130348216Y-149751162D01*
X130346012Y-149749063D01*
X130220935Y-149623986D01*
X130218836Y-149621782D01*
X130198280Y-149599102D01*
X130097399Y-149487796D01*
X130095164Y-149485188D01*
X129982956Y-149346622D01*
X129904428Y-149240739D01*
X129874515Y-149200405D01*
X129872323Y-149197249D01*
X129775208Y-149047705D01*
X129681860Y-148891964D01*
X129679796Y-148888236D01*
X129654221Y-148838042D01*
X129598739Y-148729154D01*
X129521376Y-148565582D01*
X129519543Y-148561296D01*
X129460272Y-148406890D01*
X129455340Y-148394043D01*
X129403660Y-148249605D01*
X129394723Y-148224626D01*
X129393211Y-148219784D01*
X129346476Y-148045366D01*
X129339719Y-148018389D01*
X129303195Y-147872577D01*
X129302105Y-147867234D01*
X129273292Y-147685317D01*
X129247734Y-147513017D01*
X129247155Y-147507228D01*
X129236509Y-147304086D01*
X129235707Y-147287763D01*
X130865787Y-147287763D01*
X130895413Y-147557013D01*
X130895415Y-147557024D01*
X130950856Y-147769088D01*
X130963928Y-147819088D01*
X131069870Y-148068390D01*
X131189949Y-148265146D01*
X131210979Y-148299605D01*
X131210986Y-148299615D01*
X131384253Y-148507819D01*
X131384259Y-148507824D01*
X131545649Y-148652429D01*
X131585998Y-148688582D01*
X131811910Y-148838044D01*
X132057176Y-148953020D01*
X132057183Y-148953022D01*
X132057185Y-148953023D01*
X132316557Y-149031057D01*
X132316564Y-149031058D01*
X132316569Y-149031060D01*
X132584561Y-149070500D01*
X132584566Y-149070500D01*
X132787636Y-149070500D01*
X132839133Y-149066730D01*
X132990156Y-149055677D01*
X133148071Y-149020500D01*
X133254546Y-148996782D01*
X133254548Y-148996781D01*
X133254553Y-148996780D01*
X133507558Y-148900014D01*
X133743777Y-148767441D01*
X133958177Y-148601888D01*
X134146186Y-148406881D01*
X134303799Y-148186579D01*
X134426585Y-147947759D01*
X134427649Y-147945690D01*
X134427651Y-147945684D01*
X134427656Y-147945675D01*
X134515118Y-147689305D01*
X134564319Y-147422933D01*
X134571086Y-147237763D01*
X204335787Y-147237763D01*
X204365413Y-147507013D01*
X204365415Y-147507024D01*
X204433926Y-147769082D01*
X204433928Y-147769088D01*
X204539870Y-148018390D01*
X204680979Y-148249605D01*
X204680986Y-148249615D01*
X204854253Y-148457819D01*
X204854259Y-148457824D01*
X204910057Y-148507819D01*
X205055998Y-148638582D01*
X205281910Y-148788044D01*
X205527176Y-148903020D01*
X205527183Y-148903022D01*
X205527185Y-148903023D01*
X205786557Y-148981057D01*
X205786564Y-148981058D01*
X205786569Y-148981060D01*
X206054561Y-149020500D01*
X206054566Y-149020500D01*
X206257636Y-149020500D01*
X206309133Y-149016730D01*
X206460156Y-149005677D01*
X206572758Y-148980593D01*
X206724546Y-148946782D01*
X206724548Y-148946781D01*
X206724553Y-148946780D01*
X206977558Y-148850014D01*
X207213777Y-148717441D01*
X207428177Y-148551888D01*
X207616186Y-148356881D01*
X207773799Y-148136579D01*
X207871942Y-147945690D01*
X207897649Y-147895690D01*
X207897651Y-147895684D01*
X207897656Y-147895675D01*
X207985118Y-147639305D01*
X208034319Y-147372933D01*
X208044212Y-147102235D01*
X208014586Y-146832982D01*
X207946072Y-146570912D01*
X207840130Y-146321610D01*
X207699018Y-146090390D01*
X207651357Y-146033119D01*
X207525746Y-145882180D01*
X207525740Y-145882175D01*
X207324002Y-145701418D01*
X207098092Y-145551957D01*
X207072558Y-145539987D01*
X206852824Y-145436980D01*
X206852819Y-145436978D01*
X206852814Y-145436976D01*
X206593442Y-145358942D01*
X206593428Y-145358939D01*
X206477791Y-145341921D01*
X206325439Y-145319500D01*
X206122369Y-145319500D01*
X206122364Y-145319500D01*
X205919844Y-145334323D01*
X205919831Y-145334325D01*
X205655453Y-145393217D01*
X205655446Y-145393220D01*
X205402439Y-145489987D01*
X205166226Y-145622557D01*
X204951822Y-145788112D01*
X204763822Y-145983109D01*
X204763816Y-145983116D01*
X204606202Y-146203419D01*
X204606199Y-146203424D01*
X204482350Y-146444309D01*
X204482343Y-146444327D01*
X204394884Y-146700685D01*
X204394881Y-146700699D01*
X204345681Y-146967068D01*
X204345680Y-146967075D01*
X204335787Y-147237763D01*
X134571086Y-147237763D01*
X134574212Y-147152235D01*
X134544586Y-146882982D01*
X134476072Y-146620912D01*
X134370130Y-146371610D01*
X134229018Y-146140390D01*
X134139747Y-146033119D01*
X134055746Y-145932180D01*
X134055740Y-145932175D01*
X133854002Y-145751418D01*
X133628092Y-145601957D01*
X133521430Y-145551956D01*
X133382824Y-145486980D01*
X133382819Y-145486978D01*
X133382814Y-145486976D01*
X133123442Y-145408942D01*
X133123428Y-145408939D01*
X133007791Y-145391921D01*
X132855439Y-145369500D01*
X132652369Y-145369500D01*
X132652364Y-145369500D01*
X132449844Y-145384323D01*
X132449831Y-145384325D01*
X132185453Y-145443217D01*
X132185446Y-145443220D01*
X131932439Y-145539987D01*
X131696226Y-145672557D01*
X131481822Y-145838112D01*
X131293822Y-146033109D01*
X131293816Y-146033116D01*
X131136202Y-146253419D01*
X131136199Y-146253424D01*
X131012350Y-146494309D01*
X131012343Y-146494327D01*
X130924884Y-146750685D01*
X130924881Y-146750699D01*
X130875681Y-147017068D01*
X130875680Y-147017075D01*
X130865787Y-147287763D01*
X129235707Y-147287763D01*
X129229087Y-147153000D01*
X129229014Y-147149931D01*
X129229175Y-146967075D01*
X129231499Y-144317501D01*
X147727500Y-144317501D01*
X147727501Y-144317518D01*
X147738000Y-144420296D01*
X147738001Y-144420299D01*
X147793185Y-144586831D01*
X147793187Y-144586836D01*
X147828069Y-144643388D01*
X147885288Y-144736156D01*
X148009344Y-144860212D01*
X148158666Y-144952314D01*
X148325203Y-145007499D01*
X148427991Y-145018000D01*
X149728008Y-145017999D01*
X149830797Y-145007499D01*
X149997334Y-144952314D01*
X150146656Y-144860212D01*
X150270712Y-144736156D01*
X150362814Y-144586834D01*
X150417999Y-144420297D01*
X150428500Y-144317509D01*
X150428499Y-143500005D01*
X185064357Y-143500005D01*
X185084890Y-143747812D01*
X185084892Y-143747824D01*
X185145936Y-143988881D01*
X185245826Y-144216606D01*
X185381833Y-144424782D01*
X185381836Y-144424785D01*
X185550256Y-144607738D01*
X185746491Y-144760474D01*
X185965190Y-144878828D01*
X186200386Y-144959571D01*
X186445665Y-145000500D01*
X186694335Y-145000500D01*
X186939614Y-144959571D01*
X187174810Y-144878828D01*
X187393509Y-144760474D01*
X187589744Y-144607738D01*
X187758164Y-144424785D01*
X187894173Y-144216607D01*
X187994063Y-143988881D01*
X188055108Y-143747821D01*
X188075643Y-143500005D01*
X191564357Y-143500005D01*
X191584890Y-143747812D01*
X191584892Y-143747824D01*
X191645936Y-143988881D01*
X191745826Y-144216606D01*
X191881833Y-144424782D01*
X191881836Y-144424785D01*
X192050256Y-144607738D01*
X192246491Y-144760474D01*
X192465190Y-144878828D01*
X192700386Y-144959571D01*
X192945665Y-145000500D01*
X193194335Y-145000500D01*
X193439614Y-144959571D01*
X193674810Y-144878828D01*
X193893509Y-144760474D01*
X194089744Y-144607738D01*
X194258164Y-144424785D01*
X194394173Y-144216607D01*
X194494063Y-143988881D01*
X194555108Y-143747821D01*
X194575643Y-143500000D01*
X194555108Y-143252179D01*
X194511633Y-143080500D01*
X194494063Y-143011118D01*
X194394173Y-142783393D01*
X194258166Y-142575217D01*
X194233366Y-142548277D01*
X194089744Y-142392262D01*
X193893509Y-142239526D01*
X193893507Y-142239525D01*
X193893506Y-142239524D01*
X193674811Y-142121172D01*
X193674802Y-142121169D01*
X193439616Y-142040429D01*
X193194335Y-141999500D01*
X192945665Y-141999500D01*
X192700383Y-142040429D01*
X192465197Y-142121169D01*
X192465188Y-142121172D01*
X192246493Y-142239524D01*
X192050257Y-142392261D01*
X191881833Y-142575217D01*
X191745826Y-142783393D01*
X191645936Y-143011118D01*
X191584892Y-143252175D01*
X191584890Y-143252187D01*
X191564357Y-143499994D01*
X191564357Y-143500005D01*
X188075643Y-143500005D01*
X188075643Y-143500000D01*
X188055108Y-143252179D01*
X188011633Y-143080500D01*
X187994063Y-143011118D01*
X187894173Y-142783393D01*
X187758166Y-142575217D01*
X187733366Y-142548277D01*
X187589744Y-142392262D01*
X187448337Y-142282200D01*
X187407524Y-142225490D01*
X187400500Y-142184347D01*
X187400500Y-140234321D01*
X187417113Y-140172321D01*
X187417794Y-140171142D01*
X187477179Y-140068284D01*
X187535674Y-139888256D01*
X187555460Y-139700000D01*
X187535674Y-139511744D01*
X187477179Y-139331716D01*
X187382533Y-139167784D01*
X187255871Y-139027112D01*
X187244062Y-139018532D01*
X187102734Y-138915851D01*
X187102729Y-138915848D01*
X186929807Y-138838857D01*
X186929802Y-138838855D01*
X186784001Y-138807865D01*
X186744646Y-138799500D01*
X186555354Y-138799500D01*
X186522897Y-138806398D01*
X186370197Y-138838855D01*
X186370192Y-138838857D01*
X186197270Y-138915848D01*
X186197265Y-138915851D01*
X186044129Y-139027111D01*
X185917466Y-139167785D01*
X185822821Y-139331715D01*
X185822818Y-139331722D01*
X185764327Y-139511740D01*
X185764326Y-139511744D01*
X185744540Y-139700000D01*
X185764326Y-139888256D01*
X185764327Y-139888259D01*
X185822818Y-140068277D01*
X185822821Y-140068284D01*
X185879084Y-140165735D01*
X185882887Y-140172321D01*
X185899500Y-140234321D01*
X185899500Y-142082832D01*
X185879815Y-142149871D01*
X185834519Y-142191886D01*
X185746496Y-142239522D01*
X185746494Y-142239523D01*
X185550257Y-142392261D01*
X185381833Y-142575217D01*
X185245826Y-142783393D01*
X185145936Y-143011118D01*
X185084892Y-143252175D01*
X185084890Y-143252187D01*
X185064357Y-143499994D01*
X185064357Y-143500005D01*
X150428499Y-143500005D01*
X150428499Y-142717492D01*
X150417999Y-142614703D01*
X150362814Y-142448166D01*
X150270712Y-142298844D01*
X150146656Y-142174788D01*
X149997334Y-142082686D01*
X149830797Y-142027501D01*
X149830795Y-142027500D01*
X149728010Y-142017000D01*
X148427998Y-142017000D01*
X148427981Y-142017001D01*
X148325203Y-142027500D01*
X148325200Y-142027501D01*
X148158668Y-142082685D01*
X148158663Y-142082687D01*
X148009342Y-142174789D01*
X147885289Y-142298842D01*
X147793187Y-142448163D01*
X147793186Y-142448166D01*
X147738001Y-142614703D01*
X147738001Y-142614704D01*
X147738000Y-142614704D01*
X147727500Y-142717483D01*
X147727500Y-144317501D01*
X129231499Y-144317501D01*
X129235891Y-139310000D01*
X171944540Y-139310000D01*
X171964326Y-139498256D01*
X171964327Y-139498259D01*
X172022818Y-139678277D01*
X172022821Y-139678284D01*
X172117467Y-139842216D01*
X172220561Y-139956713D01*
X172244129Y-139982888D01*
X172397265Y-140094148D01*
X172397270Y-140094151D01*
X172570191Y-140171142D01*
X172570193Y-140171142D01*
X172570197Y-140171144D01*
X172635329Y-140184987D01*
X172696809Y-140218178D01*
X172697228Y-140218596D01*
X172873181Y-140394549D01*
X172906666Y-140455872D01*
X172909500Y-140482230D01*
X172909500Y-141662998D01*
X172892888Y-141724997D01*
X172842820Y-141811718D01*
X172842818Y-141811722D01*
X172784327Y-141991740D01*
X172784326Y-141991744D01*
X172764540Y-142180000D01*
X172784326Y-142368256D01*
X172784327Y-142368259D01*
X172842818Y-142548277D01*
X172842821Y-142548284D01*
X172937467Y-142712216D01*
X173064129Y-142852888D01*
X173217265Y-142964148D01*
X173217270Y-142964151D01*
X173390192Y-143041142D01*
X173390197Y-143041144D01*
X173575354Y-143080500D01*
X173575355Y-143080500D01*
X173764644Y-143080500D01*
X173764646Y-143080500D01*
X173949803Y-143041144D01*
X174122730Y-142964151D01*
X174275871Y-142852888D01*
X174402533Y-142712216D01*
X174497179Y-142548284D01*
X174555674Y-142368256D01*
X174575460Y-142180000D01*
X174555674Y-141991744D01*
X174497179Y-141811716D01*
X174427111Y-141690355D01*
X174410500Y-141628357D01*
X174410500Y-140183705D01*
X174411809Y-140165735D01*
X174412129Y-140163547D01*
X174415289Y-140141977D01*
X174410735Y-140089931D01*
X174410500Y-140084528D01*
X174410500Y-140076297D01*
X174410500Y-140076291D01*
X174406693Y-140043724D01*
X174399999Y-139967203D01*
X174399999Y-139967201D01*
X174398539Y-139960129D01*
X174398597Y-139960116D01*
X174396965Y-139952757D01*
X174396906Y-139952772D01*
X174395241Y-139945751D01*
X174395241Y-139945745D01*
X174368974Y-139873576D01*
X174358582Y-139842216D01*
X174344813Y-139800663D01*
X174341764Y-139794124D01*
X174341817Y-139794099D01*
X174338531Y-139787311D01*
X174338479Y-139787338D01*
X174335236Y-139780882D01*
X174293034Y-139716716D01*
X174252714Y-139651347D01*
X174248234Y-139645681D01*
X174248280Y-139645643D01*
X174243519Y-139639799D01*
X174243474Y-139639838D01*
X174238834Y-139634308D01*
X174182982Y-139581613D01*
X173762770Y-139161402D01*
X173732521Y-139112041D01*
X173688403Y-138976260D01*
X173677181Y-138941721D01*
X173677178Y-138941715D01*
X173671981Y-138932713D01*
X173582533Y-138777784D01*
X173455871Y-138637112D01*
X173455870Y-138637111D01*
X173302734Y-138525851D01*
X173302729Y-138525848D01*
X173129807Y-138448857D01*
X173129802Y-138448855D01*
X172984001Y-138417865D01*
X172944646Y-138409500D01*
X172755354Y-138409500D01*
X172722897Y-138416398D01*
X172570197Y-138448855D01*
X172570192Y-138448857D01*
X172397270Y-138525848D01*
X172397265Y-138525851D01*
X172244129Y-138637111D01*
X172117466Y-138777785D01*
X172022821Y-138941715D01*
X172022818Y-138941722D01*
X171967479Y-139112039D01*
X171964326Y-139121744D01*
X171944540Y-139310000D01*
X129235891Y-139310000D01*
X129241334Y-133104593D01*
X130750832Y-133104593D01*
X130760605Y-133309756D01*
X130809029Y-133509362D01*
X130862528Y-133626508D01*
X130894352Y-133696195D01*
X130894356Y-133696201D01*
X131013489Y-133863501D01*
X131013495Y-133863507D01*
X131162147Y-134005246D01*
X131334933Y-134116290D01*
X131439097Y-134157991D01*
X131525618Y-134192629D01*
X131676881Y-134221782D01*
X131727301Y-134231500D01*
X131727302Y-134231500D01*
X132531226Y-134231500D01*
X132531232Y-134231500D01*
X132684466Y-134216868D01*
X132881541Y-134159001D01*
X133064104Y-134064884D01*
X133225556Y-133937916D01*
X133360061Y-133782689D01*
X133360736Y-133781521D01*
X133462757Y-133604814D01*
X133462759Y-133604811D01*
X133529937Y-133410712D01*
X133559168Y-133207407D01*
X133549395Y-133002244D01*
X133500971Y-132802638D01*
X133415647Y-132615804D01*
X133403811Y-132599182D01*
X133296510Y-132448498D01*
X133296504Y-132448492D01*
X133147852Y-132306753D01*
X132975066Y-132195709D01*
X132784391Y-132119374D01*
X132784384Y-132119371D01*
X132784382Y-132119371D01*
X132784379Y-132119370D01*
X132784378Y-132119370D01*
X132582699Y-132080500D01*
X132582698Y-132080500D01*
X131778768Y-132080500D01*
X131625534Y-132095132D01*
X131625530Y-132095133D01*
X131428462Y-132152997D01*
X131245891Y-132247118D01*
X131084446Y-132374081D01*
X131084443Y-132374084D01*
X130949936Y-132529313D01*
X130847242Y-132707185D01*
X130780064Y-132901282D01*
X130780063Y-132901287D01*
X130780063Y-132901288D01*
X130750832Y-133104593D01*
X129241334Y-133104593D01*
X129242495Y-131780999D01*
X133999540Y-131780999D01*
X134004160Y-131824960D01*
X134004500Y-131831445D01*
X134004500Y-131875646D01*
X134013688Y-131918880D01*
X134014704Y-131925291D01*
X134019325Y-131969256D01*
X134029595Y-132000861D01*
X134032740Y-132010541D01*
X134032986Y-132011296D01*
X134034666Y-132017569D01*
X134043856Y-132060803D01*
X134043855Y-132060803D01*
X134061833Y-132101179D01*
X134064160Y-132107242D01*
X134077818Y-132149277D01*
X134077820Y-132149281D01*
X134077821Y-132149284D01*
X134081514Y-132155680D01*
X134099924Y-132187567D01*
X134102872Y-132193353D01*
X134120850Y-132233732D01*
X134120853Y-132233736D01*
X134146825Y-132269484D01*
X134150362Y-132274930D01*
X134172464Y-132313212D01*
X134172471Y-132313222D01*
X134202050Y-132346072D01*
X134206137Y-132351119D01*
X134232110Y-132386869D01*
X134232111Y-132386870D01*
X134232112Y-132386871D01*
X134264966Y-132416453D01*
X134269546Y-132421034D01*
X134294270Y-132448492D01*
X134299129Y-132453888D01*
X134334892Y-132479870D01*
X134339930Y-132483951D01*
X134343360Y-132487039D01*
X134372777Y-132513528D01*
X134372787Y-132513535D01*
X134411070Y-132535638D01*
X134416516Y-132539175D01*
X134447239Y-132561496D01*
X134489904Y-132616826D01*
X134495883Y-132686439D01*
X134495244Y-132689406D01*
X134460684Y-132840826D01*
X134460682Y-132840837D01*
X134450786Y-133061199D01*
X134450786Y-133061204D01*
X134480397Y-133279802D01*
X134480398Y-133279806D01*
X134548564Y-133489600D01*
X134653095Y-133683850D01*
X134653097Y-133683853D01*
X134790634Y-133856320D01*
X134956751Y-134001451D01*
X134956759Y-134001458D01*
X135146119Y-134114596D01*
X135146126Y-134114600D01*
X135352654Y-134192111D01*
X135396063Y-134199988D01*
X135569699Y-134231500D01*
X135569703Y-134231500D01*
X136285025Y-134231500D01*
X136285032Y-134231500D01*
X136439485Y-134217598D01*
X136449707Y-134216679D01*
X136662338Y-134157997D01*
X136662343Y-134157994D01*
X136662350Y-134157993D01*
X136861098Y-134062281D01*
X137039563Y-133932619D01*
X137192007Y-133773175D01*
X137313531Y-133589073D01*
X137400230Y-133386231D01*
X137449317Y-133171168D01*
X137459214Y-132950796D01*
X137429603Y-132732198D01*
X137414267Y-132685000D01*
X142069540Y-132685000D01*
X142089326Y-132873256D01*
X142089327Y-132873259D01*
X142147818Y-133053277D01*
X142147821Y-133053284D01*
X142242467Y-133217216D01*
X142359370Y-133347050D01*
X142369129Y-133357888D01*
X142522265Y-133469148D01*
X142522270Y-133469151D01*
X142695191Y-133546142D01*
X142695193Y-133546142D01*
X142695197Y-133546144D01*
X142760329Y-133559987D01*
X142821809Y-133593178D01*
X142822228Y-133593596D01*
X148054267Y-138825634D01*
X148066048Y-138839266D01*
X148080390Y-138858530D01*
X148120420Y-138892119D01*
X148124392Y-138895759D01*
X148130224Y-138901591D01*
X148130227Y-138901594D01*
X148155947Y-138921931D01*
X148214788Y-138971304D01*
X148220818Y-138975270D01*
X148220785Y-138975319D01*
X148227147Y-138979372D01*
X148227179Y-138979321D01*
X148233319Y-138983108D01*
X148233323Y-138983111D01*
X148268132Y-138999343D01*
X148302941Y-139015575D01*
X148369444Y-139048974D01*
X148371567Y-139050040D01*
X148371569Y-139050040D01*
X148378357Y-139052511D01*
X148378336Y-139052567D01*
X148385455Y-139055042D01*
X148385474Y-139054986D01*
X148392329Y-139057258D01*
X148467562Y-139072791D01*
X148542279Y-139090500D01*
X148542289Y-139090500D01*
X148549452Y-139091338D01*
X148549444Y-139091397D01*
X148556945Y-139092164D01*
X148556951Y-139092105D01*
X148564140Y-139092734D01*
X148564144Y-139092733D01*
X148564145Y-139092734D01*
X148640918Y-139090500D01*
X169616295Y-139090500D01*
X169634265Y-139091809D01*
X169658023Y-139095289D01*
X169710068Y-139090735D01*
X169715470Y-139090500D01*
X169723704Y-139090500D01*
X169723709Y-139090500D01*
X169735327Y-139089141D01*
X169756276Y-139086693D01*
X169769028Y-139085577D01*
X169832797Y-139079999D01*
X169832805Y-139079996D01*
X169839866Y-139078539D01*
X169839878Y-139078598D01*
X169847243Y-139076965D01*
X169847229Y-139076906D01*
X169854246Y-139075241D01*
X169854255Y-139075241D01*
X169926423Y-139048974D01*
X169999334Y-139024814D01*
X169999343Y-139024807D01*
X170005882Y-139021760D01*
X170005908Y-139021816D01*
X170012690Y-139018532D01*
X170012663Y-139018478D01*
X170019106Y-139015240D01*
X170019117Y-139015237D01*
X170083283Y-138973034D01*
X170148656Y-138932712D01*
X170148662Y-138932705D01*
X170154325Y-138928229D01*
X170154362Y-138928277D01*
X170160204Y-138923518D01*
X170160164Y-138923471D01*
X170165691Y-138918832D01*
X170165696Y-138918830D01*
X170168507Y-138915851D01*
X170218386Y-138862981D01*
X170671867Y-138409500D01*
X172695638Y-136385727D01*
X172709267Y-136373950D01*
X172728530Y-136359610D01*
X172728532Y-136359606D01*
X172728534Y-136359606D01*
X172746663Y-136337999D01*
X172762113Y-136319585D01*
X172765767Y-136315599D01*
X172771589Y-136309778D01*
X172791928Y-136284054D01*
X172797162Y-136277815D01*
X172841302Y-136225214D01*
X172841304Y-136225209D01*
X172845272Y-136219179D01*
X172845323Y-136219212D01*
X172849369Y-136212860D01*
X172849317Y-136212828D01*
X172853109Y-136206679D01*
X172853111Y-136206677D01*
X172885569Y-136137069D01*
X172920040Y-136068433D01*
X172920043Y-136068417D01*
X172922510Y-136061644D01*
X172922568Y-136061665D01*
X172925043Y-136054546D01*
X172924985Y-136054527D01*
X172927256Y-136047672D01*
X172942784Y-135972467D01*
X172960500Y-135897720D01*
X172961339Y-135890548D01*
X172961397Y-135890554D01*
X172962164Y-135883056D01*
X172962104Y-135883051D01*
X172962733Y-135875860D01*
X172960500Y-135799103D01*
X172960500Y-135164500D01*
X172980185Y-135097461D01*
X173032989Y-135051706D01*
X173084500Y-135040500D01*
X178498295Y-135040500D01*
X178516265Y-135041809D01*
X178540023Y-135045289D01*
X178592068Y-135040735D01*
X178597470Y-135040500D01*
X178605704Y-135040500D01*
X178605709Y-135040500D01*
X178617411Y-135039132D01*
X178638276Y-135036693D01*
X178651028Y-135035577D01*
X178714797Y-135029999D01*
X178714805Y-135029996D01*
X178721866Y-135028539D01*
X178721878Y-135028598D01*
X178729243Y-135026965D01*
X178729229Y-135026906D01*
X178736246Y-135025241D01*
X178736255Y-135025241D01*
X178808423Y-134998974D01*
X178881334Y-134974814D01*
X178881343Y-134974807D01*
X178887882Y-134971760D01*
X178887908Y-134971816D01*
X178894690Y-134968532D01*
X178894663Y-134968478D01*
X178901106Y-134965240D01*
X178901117Y-134965237D01*
X178965283Y-134923034D01*
X179030656Y-134882712D01*
X179030662Y-134882705D01*
X179036325Y-134878229D01*
X179036363Y-134878277D01*
X179042200Y-134873522D01*
X179042161Y-134873475D01*
X179047696Y-134868830D01*
X179100385Y-134812983D01*
X179819455Y-134093912D01*
X180063642Y-133849724D01*
X180077271Y-133837947D01*
X180096530Y-133823610D01*
X180130101Y-133783601D01*
X180133761Y-133779606D01*
X180139590Y-133773778D01*
X180159941Y-133748039D01*
X180165948Y-133740879D01*
X180209302Y-133689214D01*
X180209306Y-133689205D01*
X180213274Y-133683175D01*
X180213325Y-133683208D01*
X180217372Y-133676856D01*
X180217320Y-133676824D01*
X180221112Y-133670675D01*
X180253575Y-133601058D01*
X180281155Y-133546142D01*
X180288040Y-133532433D01*
X180288042Y-133532421D01*
X180290509Y-133525646D01*
X180290567Y-133525667D01*
X180293043Y-133518546D01*
X180292986Y-133518528D01*
X180295257Y-133511673D01*
X180310792Y-133436434D01*
X180328498Y-133361728D01*
X180328500Y-133361721D01*
X180328500Y-133361710D01*
X180329338Y-133354548D01*
X180329398Y-133354555D01*
X180330164Y-133347055D01*
X180330105Y-133347050D01*
X180330734Y-133339860D01*
X180328986Y-133279802D01*
X180328500Y-133263083D01*
X180328500Y-131684500D01*
X180348185Y-131617461D01*
X180400989Y-131571706D01*
X180452500Y-131560500D01*
X191676295Y-131560500D01*
X191694265Y-131561809D01*
X191718023Y-131565289D01*
X191770068Y-131560735D01*
X191775470Y-131560500D01*
X191783704Y-131560500D01*
X191783709Y-131560500D01*
X191795327Y-131559141D01*
X191816276Y-131556693D01*
X191829028Y-131555577D01*
X191892797Y-131549999D01*
X191892805Y-131549996D01*
X191899866Y-131548539D01*
X191899878Y-131548598D01*
X191907243Y-131546965D01*
X191907229Y-131546906D01*
X191914246Y-131545241D01*
X191914255Y-131545241D01*
X191986423Y-131518974D01*
X192059334Y-131494814D01*
X192059343Y-131494807D01*
X192065882Y-131491760D01*
X192065908Y-131491816D01*
X192072690Y-131488532D01*
X192072663Y-131488478D01*
X192079106Y-131485240D01*
X192079117Y-131485237D01*
X192143283Y-131443034D01*
X192208656Y-131402712D01*
X192208662Y-131402705D01*
X192214325Y-131398229D01*
X192214362Y-131398277D01*
X192220204Y-131393518D01*
X192220164Y-131393471D01*
X192225691Y-131388832D01*
X192225696Y-131388830D01*
X192239282Y-131374430D01*
X192278386Y-131332981D01*
X192730867Y-130880500D01*
X197185638Y-126425727D01*
X197199267Y-126413950D01*
X197218530Y-126399610D01*
X197218532Y-126399606D01*
X197218534Y-126399606D01*
X197246488Y-126366290D01*
X197252113Y-126359585D01*
X197255767Y-126355599D01*
X197261589Y-126349778D01*
X197281928Y-126324054D01*
X197289625Y-126314881D01*
X197331302Y-126265214D01*
X197331304Y-126265209D01*
X197335272Y-126259179D01*
X197335323Y-126259212D01*
X197339369Y-126252860D01*
X197339317Y-126252828D01*
X197343109Y-126246679D01*
X197343111Y-126246677D01*
X197375569Y-126177069D01*
X197410040Y-126108433D01*
X197410043Y-126108417D01*
X197412510Y-126101644D01*
X197412568Y-126101665D01*
X197415043Y-126094546D01*
X197414985Y-126094527D01*
X197417256Y-126087672D01*
X197418795Y-126080221D01*
X197432784Y-126012467D01*
X197450500Y-125937721D01*
X197450500Y-125937720D01*
X197451339Y-125930548D01*
X197451397Y-125930554D01*
X197452164Y-125923056D01*
X197452104Y-125923051D01*
X197452733Y-125915860D01*
X197450500Y-125839103D01*
X197450500Y-123033705D01*
X197451809Y-123015735D01*
X197455289Y-122991974D01*
X197450736Y-122939939D01*
X197450500Y-122934532D01*
X197450500Y-122926296D01*
X197450500Y-122926291D01*
X197446691Y-122893705D01*
X197439998Y-122817203D01*
X197439995Y-122817194D01*
X197438538Y-122810135D01*
X197438598Y-122810122D01*
X197436966Y-122802764D01*
X197436908Y-122802778D01*
X197435241Y-122795747D01*
X197435241Y-122795745D01*
X197408969Y-122723563D01*
X197384814Y-122650666D01*
X197381762Y-122644121D01*
X197381815Y-122644095D01*
X197378531Y-122637311D01*
X197378479Y-122637338D01*
X197375236Y-122630882D01*
X197342903Y-122581722D01*
X197333034Y-122566716D01*
X197320193Y-122545898D01*
X197292714Y-122501347D01*
X197288234Y-122495681D01*
X197288280Y-122495643D01*
X197283519Y-122489799D01*
X197283474Y-122489838D01*
X197278834Y-122484308D01*
X197222982Y-122431613D01*
X196736819Y-121945450D01*
X196703334Y-121884127D01*
X196700500Y-121857769D01*
X196700500Y-118303705D01*
X196701809Y-118285735D01*
X196702129Y-118283547D01*
X196705289Y-118261977D01*
X196700735Y-118209931D01*
X196700500Y-118204528D01*
X196700500Y-118196297D01*
X196700500Y-118196291D01*
X196696693Y-118163724D01*
X196689999Y-118087203D01*
X196689999Y-118087201D01*
X196688539Y-118080129D01*
X196688597Y-118080116D01*
X196686965Y-118072757D01*
X196686906Y-118072772D01*
X196685242Y-118065753D01*
X196685241Y-118065745D01*
X196658974Y-117993576D01*
X196634814Y-117920666D01*
X196634809Y-117920659D01*
X196631760Y-117914118D01*
X196631815Y-117914091D01*
X196628533Y-117907313D01*
X196628480Y-117907340D01*
X196625235Y-117900880D01*
X196583028Y-117836708D01*
X196542710Y-117771342D01*
X196538234Y-117765682D01*
X196538281Y-117765644D01*
X196533519Y-117759799D01*
X196533474Y-117759838D01*
X196528834Y-117754309D01*
X196528832Y-117754307D01*
X196528830Y-117754304D01*
X196498061Y-117725275D01*
X196472965Y-117701597D01*
X195205729Y-116434361D01*
X195193949Y-116420730D01*
X195186482Y-116410701D01*
X195179612Y-116401472D01*
X195179610Y-116401470D01*
X195139587Y-116367886D01*
X195135612Y-116364244D01*
X195129777Y-116358409D01*
X195129776Y-116358408D01*
X195129775Y-116358407D01*
X195129771Y-116358403D01*
X195125179Y-116354772D01*
X195109943Y-116340481D01*
X195025871Y-116247112D01*
X195025864Y-116247106D01*
X194872734Y-116135851D01*
X194872729Y-116135848D01*
X194699807Y-116058857D01*
X194699802Y-116058855D01*
X194554001Y-116027865D01*
X194514646Y-116019500D01*
X194325354Y-116019500D01*
X194292897Y-116026398D01*
X194140197Y-116058855D01*
X194140192Y-116058857D01*
X193967270Y-116135848D01*
X193967265Y-116135851D01*
X193814129Y-116247111D01*
X193687466Y-116387785D01*
X193592821Y-116551715D01*
X193592818Y-116551722D01*
X193534327Y-116731740D01*
X193534326Y-116731744D01*
X193514540Y-116920000D01*
X193534326Y-117108256D01*
X193534327Y-117108259D01*
X193592818Y-117288277D01*
X193592821Y-117288284D01*
X193687467Y-117452216D01*
X193771630Y-117545688D01*
X193814129Y-117592888D01*
X193967265Y-117704148D01*
X193967270Y-117704151D01*
X194140192Y-117781142D01*
X194140197Y-117781144D01*
X194325354Y-117820500D01*
X194417770Y-117820500D01*
X194484809Y-117840185D01*
X194505451Y-117856819D01*
X195163181Y-118514549D01*
X195196666Y-118575872D01*
X195199500Y-118602230D01*
X195199500Y-122156294D01*
X195198191Y-122174263D01*
X195194710Y-122198025D01*
X195199264Y-122250064D01*
X195199500Y-122255470D01*
X195199500Y-122263709D01*
X195203306Y-122296274D01*
X195210000Y-122372791D01*
X195211461Y-122379867D01*
X195211403Y-122379878D01*
X195213034Y-122387237D01*
X195213092Y-122387224D01*
X195214757Y-122394250D01*
X195241025Y-122466424D01*
X195265185Y-122539331D01*
X195268236Y-122545874D01*
X195268182Y-122545898D01*
X195271470Y-122552688D01*
X195271521Y-122552663D01*
X195274761Y-122559113D01*
X195274762Y-122559114D01*
X195274763Y-122559117D01*
X195316965Y-122623283D01*
X195357287Y-122688655D01*
X195361766Y-122694319D01*
X195361719Y-122694356D01*
X195366482Y-122700202D01*
X195366528Y-122700164D01*
X195371173Y-122705700D01*
X195418243Y-122750108D01*
X195453497Y-122810431D01*
X195450542Y-122880238D01*
X195410315Y-122937366D01*
X195358931Y-122961592D01*
X195268167Y-122980885D01*
X195268163Y-122980886D01*
X195095241Y-123057877D01*
X195095236Y-123057880D01*
X194942100Y-123169140D01*
X194815437Y-123309814D01*
X194720792Y-123473744D01*
X194720790Y-123473748D01*
X194665449Y-123644070D01*
X194635199Y-123693432D01*
X192965451Y-125363181D01*
X192904128Y-125396666D01*
X192877770Y-125399500D01*
X190329337Y-125399500D01*
X190262298Y-125379815D01*
X190256452Y-125375818D01*
X190242734Y-125365851D01*
X190242729Y-125365848D01*
X190069807Y-125288857D01*
X190069802Y-125288855D01*
X189923619Y-125257784D01*
X189884646Y-125249500D01*
X189695354Y-125249500D01*
X189662897Y-125256398D01*
X189510197Y-125288855D01*
X189510192Y-125288857D01*
X189337270Y-125365848D01*
X189337265Y-125365851D01*
X189184129Y-125477111D01*
X189057466Y-125617785D01*
X188962821Y-125781715D01*
X188962818Y-125781722D01*
X188904327Y-125961740D01*
X188904326Y-125961744D01*
X188884540Y-126150000D01*
X188904326Y-126338256D01*
X188904327Y-126338259D01*
X188962818Y-126518277D01*
X188962821Y-126518284D01*
X189057467Y-126682216D01*
X189120464Y-126752181D01*
X189184129Y-126822888D01*
X189337265Y-126934148D01*
X189337270Y-126934151D01*
X189510192Y-127011142D01*
X189510197Y-127011144D01*
X189695354Y-127050500D01*
X189695355Y-127050500D01*
X189884644Y-127050500D01*
X189884646Y-127050500D01*
X190069803Y-127011144D01*
X190242730Y-126934151D01*
X190244776Y-126932664D01*
X190256452Y-126924182D01*
X190322258Y-126900702D01*
X190329337Y-126900500D01*
X193176295Y-126900500D01*
X193194265Y-126901809D01*
X193218023Y-126905289D01*
X193270068Y-126900735D01*
X193275470Y-126900500D01*
X193283704Y-126900500D01*
X193283709Y-126900500D01*
X193295327Y-126899141D01*
X193316276Y-126896693D01*
X193329028Y-126895577D01*
X193392797Y-126889999D01*
X193392805Y-126889996D01*
X193399866Y-126888539D01*
X193399878Y-126888598D01*
X193407243Y-126886965D01*
X193407229Y-126886906D01*
X193414246Y-126885241D01*
X193414255Y-126885241D01*
X193486423Y-126858974D01*
X193559334Y-126834814D01*
X193559343Y-126834807D01*
X193565882Y-126831760D01*
X193565908Y-126831816D01*
X193572690Y-126828532D01*
X193572663Y-126828478D01*
X193579106Y-126825240D01*
X193579117Y-126825237D01*
X193643283Y-126783034D01*
X193708656Y-126742712D01*
X193708662Y-126742705D01*
X193714325Y-126738229D01*
X193714363Y-126738277D01*
X193720200Y-126733522D01*
X193720161Y-126733475D01*
X193725696Y-126728830D01*
X193778385Y-126672983D01*
X195213090Y-125238277D01*
X195700742Y-124750624D01*
X195762063Y-124717141D01*
X195762419Y-124717063D01*
X195799722Y-124709135D01*
X195869387Y-124714452D01*
X195925120Y-124756590D01*
X195949225Y-124822170D01*
X195949500Y-124830426D01*
X195949500Y-125487770D01*
X195929815Y-125554809D01*
X195913181Y-125575451D01*
X191465451Y-130023181D01*
X191404128Y-130056666D01*
X191377770Y-130059500D01*
X179940230Y-130059500D01*
X179873191Y-130039815D01*
X179852549Y-130023181D01*
X178383729Y-128554361D01*
X178371949Y-128540730D01*
X178364482Y-128530701D01*
X178357612Y-128521472D01*
X178345304Y-128511144D01*
X178317587Y-128487886D01*
X178313612Y-128484244D01*
X178310690Y-128481322D01*
X178307780Y-128478411D01*
X178282040Y-128458059D01*
X178223209Y-128408694D01*
X178217180Y-128404729D01*
X178217212Y-128404680D01*
X178210853Y-128400628D01*
X178210822Y-128400679D01*
X178204680Y-128396891D01*
X178204678Y-128396890D01*
X178204677Y-128396889D01*
X178165474Y-128378608D01*
X178135058Y-128364424D01*
X178100894Y-128347267D01*
X178066433Y-128329960D01*
X178066431Y-128329959D01*
X178066430Y-128329959D01*
X178059645Y-128327489D01*
X178059665Y-128327433D01*
X178052549Y-128324959D01*
X178052531Y-128325015D01*
X178045671Y-128322742D01*
X178017841Y-128316996D01*
X177970434Y-128307207D01*
X177921472Y-128295603D01*
X177895719Y-128289499D01*
X177888547Y-128288661D01*
X177888553Y-128288601D01*
X177881055Y-128287835D01*
X177881050Y-128287895D01*
X177873860Y-128287265D01*
X177797083Y-128289500D01*
X177519337Y-128289500D01*
X177452298Y-128269815D01*
X177446452Y-128265818D01*
X177432734Y-128255851D01*
X177432729Y-128255848D01*
X177259807Y-128178857D01*
X177259802Y-128178855D01*
X177114001Y-128147865D01*
X177074646Y-128139500D01*
X176885354Y-128139500D01*
X176852897Y-128146398D01*
X176700197Y-128178855D01*
X176700192Y-128178857D01*
X176527270Y-128255848D01*
X176527265Y-128255851D01*
X176374129Y-128367111D01*
X176247466Y-128507785D01*
X176152821Y-128671715D01*
X176152818Y-128671722D01*
X176094327Y-128851740D01*
X176094326Y-128851744D01*
X176074540Y-129040000D01*
X176094326Y-129228256D01*
X176094327Y-129228259D01*
X176152818Y-129408277D01*
X176152821Y-129408284D01*
X176247467Y-129572216D01*
X176366441Y-129704350D01*
X176374129Y-129712888D01*
X176527265Y-129824148D01*
X176527270Y-129824151D01*
X176700192Y-129901142D01*
X176700197Y-129901144D01*
X176885354Y-129940500D01*
X176885355Y-129940500D01*
X177074644Y-129940500D01*
X177074646Y-129940500D01*
X177259803Y-129901144D01*
X177422722Y-129828606D01*
X177491969Y-129819321D01*
X177555246Y-129848949D01*
X177560837Y-129854205D01*
X178791181Y-131084549D01*
X178824666Y-131145872D01*
X178827500Y-131172230D01*
X178827500Y-132911770D01*
X178807815Y-132978809D01*
X178791181Y-132999451D01*
X178287451Y-133503181D01*
X178226128Y-133536666D01*
X178199770Y-133539500D01*
X173274850Y-133539500D01*
X173207811Y-133519815D01*
X173162056Y-133467011D01*
X173151529Y-133402541D01*
X173165460Y-133270000D01*
X173145674Y-133081744D01*
X173087179Y-132901716D01*
X172992533Y-132737784D01*
X172865871Y-132597112D01*
X172865870Y-132597111D01*
X172712734Y-132485851D01*
X172712729Y-132485848D01*
X172539807Y-132408857D01*
X172539802Y-132408855D01*
X172376198Y-132374081D01*
X172354646Y-132369500D01*
X172165354Y-132369500D01*
X172143802Y-132374081D01*
X171980197Y-132408855D01*
X171980192Y-132408857D01*
X171807270Y-132485848D01*
X171807265Y-132485851D01*
X171654129Y-132597111D01*
X171527466Y-132737785D01*
X171432821Y-132901715D01*
X171432818Y-132901722D01*
X171381000Y-133061204D01*
X171374326Y-133081744D01*
X171354540Y-133270000D01*
X171374326Y-133458256D01*
X171374327Y-133458259D01*
X171432818Y-133638277D01*
X171432821Y-133638284D01*
X171527466Y-133802215D01*
X171531285Y-133807471D01*
X171530032Y-133808381D01*
X171556854Y-133864277D01*
X171548225Y-133933612D01*
X171541861Y-133946249D01*
X171516188Y-133990717D01*
X171516187Y-133990719D01*
X171512968Y-134001470D01*
X171504996Y-134021537D01*
X171499960Y-134031565D01*
X171499959Y-134031569D01*
X171485182Y-134093912D01*
X171484249Y-134097393D01*
X171465869Y-134158792D01*
X171465217Y-134169990D01*
X171462087Y-134191361D01*
X171459500Y-134202279D01*
X171459500Y-134266358D01*
X171459395Y-134269963D01*
X171455669Y-134333934D01*
X171455669Y-134333935D01*
X171457616Y-134344977D01*
X171459500Y-134366509D01*
X171459500Y-135447770D01*
X171439815Y-135514809D01*
X171423181Y-135535451D01*
X169405451Y-137553181D01*
X169344128Y-137586666D01*
X169317770Y-137589500D01*
X148992229Y-137589500D01*
X148925190Y-137569815D01*
X148904548Y-137553181D01*
X146396656Y-135045289D01*
X143887770Y-132536402D01*
X143857521Y-132487041D01*
X143813357Y-132351119D01*
X143802181Y-132316721D01*
X143802178Y-132316715D01*
X143707533Y-132152784D01*
X143580871Y-132012112D01*
X143579748Y-132011296D01*
X143427734Y-131900851D01*
X143427729Y-131900848D01*
X143254807Y-131823857D01*
X143254802Y-131823855D01*
X143109001Y-131792865D01*
X143069646Y-131784500D01*
X142880354Y-131784500D01*
X142847897Y-131791398D01*
X142695197Y-131823855D01*
X142695192Y-131823857D01*
X142522270Y-131900848D01*
X142522265Y-131900851D01*
X142369129Y-132012111D01*
X142242466Y-132152785D01*
X142147821Y-132316715D01*
X142147818Y-132316722D01*
X142092866Y-132485848D01*
X142089326Y-132496744D01*
X142069540Y-132685000D01*
X137414267Y-132685000D01*
X137361436Y-132522401D01*
X137256903Y-132328147D01*
X137210121Y-132269484D01*
X137119365Y-132155679D01*
X136953248Y-132010548D01*
X136953240Y-132010541D01*
X136763880Y-131897403D01*
X136763877Y-131897401D01*
X136763874Y-131897400D01*
X136588137Y-131831445D01*
X136557344Y-131819888D01*
X136340301Y-131780500D01*
X136340297Y-131780500D01*
X135925924Y-131780500D01*
X135858885Y-131760815D01*
X135813130Y-131708011D01*
X135804634Y-131682280D01*
X135796311Y-131643123D01*
X135795295Y-131636709D01*
X135793272Y-131617461D01*
X135790674Y-131592744D01*
X135777011Y-131550698D01*
X135775334Y-131544435D01*
X135769922Y-131518974D01*
X135766144Y-131501197D01*
X135748163Y-131460812D01*
X135745835Y-131454748D01*
X135742029Y-131443034D01*
X135732179Y-131412716D01*
X135725010Y-131400300D01*
X135710075Y-131374430D01*
X135707127Y-131368644D01*
X135691248Y-131332981D01*
X135689151Y-131328270D01*
X135689149Y-131328267D01*
X135689149Y-131328266D01*
X135663175Y-131292516D01*
X135659638Y-131287070D01*
X135637535Y-131248787D01*
X135637528Y-131248777D01*
X135607954Y-131215934D01*
X135603870Y-131210892D01*
X135577888Y-131175129D01*
X135577884Y-131175125D01*
X135545034Y-131145546D01*
X135540453Y-131140966D01*
X135510871Y-131108112D01*
X135510870Y-131108111D01*
X135510869Y-131108110D01*
X135475119Y-131082137D01*
X135470072Y-131078050D01*
X135437222Y-131048471D01*
X135437212Y-131048464D01*
X135398930Y-131026362D01*
X135398928Y-131026361D01*
X135398926Y-131026359D01*
X135393484Y-131022825D01*
X135357736Y-130996853D01*
X135357732Y-130996850D01*
X135317353Y-130978872D01*
X135311567Y-130975924D01*
X135273284Y-130953821D01*
X135273281Y-130953820D01*
X135273277Y-130953818D01*
X135231242Y-130940160D01*
X135225179Y-130937833D01*
X135184803Y-130919856D01*
X135141569Y-130910666D01*
X135135301Y-130908987D01*
X135124861Y-130905595D01*
X135093256Y-130895325D01*
X135049291Y-130890704D01*
X135042880Y-130889688D01*
X134999647Y-130880500D01*
X134999646Y-130880500D01*
X134810354Y-130880500D01*
X134810351Y-130880500D01*
X134767119Y-130889688D01*
X134760710Y-130890703D01*
X134716743Y-130895325D01*
X134674705Y-130908985D01*
X134668434Y-130910665D01*
X134625195Y-130919856D01*
X134584815Y-130937834D01*
X134578755Y-130940160D01*
X134536719Y-130953819D01*
X134498430Y-130975924D01*
X134492647Y-130978871D01*
X134452267Y-130996850D01*
X134416512Y-131022826D01*
X134411069Y-131026361D01*
X134372788Y-131048463D01*
X134372785Y-131048465D01*
X134339935Y-131078044D01*
X134334889Y-131082130D01*
X134299125Y-131108115D01*
X134269550Y-131140960D01*
X134264960Y-131145550D01*
X134232115Y-131175125D01*
X134206130Y-131210889D01*
X134202044Y-131215935D01*
X134172465Y-131248785D01*
X134172463Y-131248788D01*
X134150361Y-131287069D01*
X134146826Y-131292512D01*
X134120850Y-131328267D01*
X134102871Y-131368647D01*
X134099924Y-131374430D01*
X134077819Y-131412719D01*
X134064160Y-131454755D01*
X134061834Y-131460815D01*
X134043856Y-131501195D01*
X134034665Y-131544434D01*
X134032985Y-131550705D01*
X134019325Y-131592743D01*
X134014703Y-131636710D01*
X134013688Y-131643119D01*
X134004500Y-131686351D01*
X134004500Y-131730553D01*
X134004160Y-131737037D01*
X133999540Y-131780999D01*
X129242495Y-131780999D01*
X129245636Y-128200000D01*
X170264540Y-128200000D01*
X170284326Y-128388256D01*
X170284327Y-128388259D01*
X170342818Y-128568277D01*
X170342821Y-128568284D01*
X170437467Y-128732216D01*
X170545087Y-128851740D01*
X170564129Y-128872888D01*
X170717265Y-128984148D01*
X170717270Y-128984151D01*
X170890192Y-129061142D01*
X170890197Y-129061144D01*
X171075354Y-129100500D01*
X171075355Y-129100500D01*
X171264644Y-129100500D01*
X171264646Y-129100500D01*
X171449803Y-129061144D01*
X171622730Y-128984151D01*
X171624776Y-128982664D01*
X171636452Y-128974182D01*
X171702258Y-128950702D01*
X171709337Y-128950500D01*
X174916295Y-128950500D01*
X174934265Y-128951809D01*
X174958023Y-128955289D01*
X175010068Y-128950735D01*
X175015470Y-128950500D01*
X175023704Y-128950500D01*
X175023709Y-128950500D01*
X175035327Y-128949141D01*
X175056276Y-128946693D01*
X175069028Y-128945577D01*
X175132797Y-128939999D01*
X175132805Y-128939996D01*
X175139866Y-128938539D01*
X175139878Y-128938598D01*
X175147243Y-128936965D01*
X175147229Y-128936906D01*
X175154246Y-128935241D01*
X175154255Y-128935241D01*
X175226423Y-128908974D01*
X175299334Y-128884814D01*
X175299343Y-128884807D01*
X175305882Y-128881760D01*
X175305908Y-128881816D01*
X175312690Y-128878532D01*
X175312663Y-128878478D01*
X175319106Y-128875240D01*
X175319117Y-128875237D01*
X175383283Y-128833034D01*
X175448656Y-128792712D01*
X175448662Y-128792705D01*
X175454325Y-128788229D01*
X175454362Y-128788277D01*
X175460204Y-128783518D01*
X175460164Y-128783471D01*
X175465691Y-128778832D01*
X175465696Y-128778830D01*
X175518386Y-128722981D01*
X176591367Y-127650000D01*
X186114540Y-127650000D01*
X186134326Y-127838256D01*
X186134327Y-127838259D01*
X186192818Y-128018277D01*
X186192821Y-128018284D01*
X186287467Y-128182216D01*
X186384066Y-128289500D01*
X186414129Y-128322888D01*
X186567265Y-128434148D01*
X186567270Y-128434151D01*
X186740192Y-128511142D01*
X186740197Y-128511144D01*
X186925354Y-128550500D01*
X186925355Y-128550500D01*
X187114644Y-128550500D01*
X187114646Y-128550500D01*
X187299803Y-128511144D01*
X187472730Y-128434151D01*
X187625871Y-128322888D01*
X187752533Y-128182216D01*
X187847179Y-128018284D01*
X187905674Y-127838256D01*
X187925460Y-127650000D01*
X187905674Y-127461744D01*
X187847179Y-127281716D01*
X187792821Y-127187565D01*
X187752534Y-127117785D01*
X187752529Y-127117778D01*
X187722350Y-127084261D01*
X187692120Y-127021269D01*
X187690500Y-127001289D01*
X187690500Y-124342228D01*
X187710185Y-124275189D01*
X187726814Y-124254552D01*
X189505638Y-122475727D01*
X189519267Y-122463950D01*
X189538530Y-122449610D01*
X189538532Y-122449606D01*
X189538534Y-122449606D01*
X189557472Y-122427035D01*
X189572113Y-122409585D01*
X189575767Y-122405599D01*
X189581589Y-122399778D01*
X189601928Y-122374054D01*
X189612278Y-122361719D01*
X189651302Y-122315214D01*
X189651304Y-122315209D01*
X189655272Y-122309179D01*
X189655323Y-122309212D01*
X189659369Y-122302860D01*
X189659317Y-122302828D01*
X189663109Y-122296679D01*
X189663111Y-122296677D01*
X189695569Y-122227069D01*
X189730040Y-122158433D01*
X189730043Y-122158417D01*
X189732510Y-122151644D01*
X189732568Y-122151665D01*
X189735043Y-122144546D01*
X189734985Y-122144527D01*
X189737256Y-122137672D01*
X189752784Y-122062467D01*
X189770500Y-121987720D01*
X189771339Y-121980548D01*
X189771397Y-121980554D01*
X189772164Y-121973056D01*
X189772104Y-121973051D01*
X189772733Y-121965860D01*
X189770500Y-121889103D01*
X189770500Y-121864321D01*
X189787113Y-121802321D01*
X189847179Y-121698284D01*
X189905674Y-121518256D01*
X189925460Y-121330000D01*
X189905674Y-121141744D01*
X189847179Y-120961716D01*
X189752533Y-120797784D01*
X189625871Y-120657112D01*
X189625870Y-120657111D01*
X189472734Y-120545851D01*
X189472729Y-120545848D01*
X189299807Y-120468857D01*
X189299802Y-120468855D01*
X189154001Y-120437865D01*
X189114646Y-120429500D01*
X188925354Y-120429500D01*
X188892897Y-120436398D01*
X188740197Y-120468855D01*
X188740192Y-120468857D01*
X188567270Y-120545848D01*
X188567265Y-120545851D01*
X188414129Y-120657111D01*
X188287466Y-120797785D01*
X188192821Y-120961715D01*
X188192818Y-120961722D01*
X188134327Y-121141740D01*
X188134326Y-121141744D01*
X188114540Y-121330000D01*
X188134326Y-121518256D01*
X188134326Y-121518258D01*
X188134327Y-121518260D01*
X188161375Y-121601507D01*
X188163370Y-121671348D01*
X188131125Y-121727505D01*
X186454358Y-123404272D01*
X186440729Y-123416051D01*
X186421468Y-123430390D01*
X186387898Y-123470397D01*
X186384253Y-123474376D01*
X186378409Y-123480222D01*
X186358059Y-123505959D01*
X186308695Y-123564789D01*
X186304729Y-123570819D01*
X186304682Y-123570788D01*
X186300630Y-123577147D01*
X186300679Y-123577177D01*
X186296889Y-123583321D01*
X186264424Y-123652941D01*
X186229960Y-123721566D01*
X186227488Y-123728357D01*
X186227432Y-123728336D01*
X186224960Y-123735450D01*
X186225015Y-123735469D01*
X186222742Y-123742327D01*
X186217887Y-123765842D01*
X186207207Y-123817565D01*
X186200459Y-123846040D01*
X186189498Y-123892286D01*
X186188661Y-123899454D01*
X186188601Y-123899447D01*
X186187835Y-123906945D01*
X186187895Y-123906951D01*
X186187265Y-123914140D01*
X186189500Y-123990916D01*
X186189500Y-127272296D01*
X186183431Y-127310614D01*
X186136879Y-127453888D01*
X186134326Y-127461744D01*
X186114540Y-127650000D01*
X176591367Y-127650000D01*
X179614548Y-124626819D01*
X179675871Y-124593334D01*
X179702229Y-124590500D01*
X182067770Y-124590500D01*
X182134809Y-124610185D01*
X182155451Y-124626819D01*
X182547228Y-125018596D01*
X182577478Y-125067958D01*
X182632819Y-125238280D01*
X182632821Y-125238284D01*
X182727467Y-125402216D01*
X182816229Y-125500796D01*
X182854129Y-125542888D01*
X183007265Y-125654148D01*
X183007270Y-125654151D01*
X183180192Y-125731142D01*
X183180197Y-125731144D01*
X183365354Y-125770500D01*
X183365355Y-125770500D01*
X183554644Y-125770500D01*
X183554646Y-125770500D01*
X183739803Y-125731144D01*
X183912730Y-125654151D01*
X184065871Y-125542888D01*
X184192533Y-125402216D01*
X184287179Y-125238284D01*
X184345674Y-125058256D01*
X184365460Y-124870000D01*
X184345674Y-124681744D01*
X184287179Y-124501716D01*
X184192533Y-124337784D01*
X184065871Y-124197112D01*
X184065870Y-124197111D01*
X183912734Y-124085851D01*
X183912727Y-124085847D01*
X183900962Y-124080609D01*
X183847726Y-124035358D01*
X183827406Y-123968508D01*
X183846453Y-123901285D01*
X183898820Y-123855031D01*
X183925604Y-123846045D01*
X184089803Y-123811144D01*
X184089807Y-123811142D01*
X184089808Y-123811142D01*
X184154115Y-123782510D01*
X184262730Y-123734151D01*
X184415871Y-123622888D01*
X184542533Y-123482216D01*
X184637179Y-123318284D01*
X184695674Y-123138256D01*
X184715460Y-122950000D01*
X184695674Y-122761744D01*
X184637179Y-122581716D01*
X184542533Y-122417784D01*
X184415871Y-122277112D01*
X184415870Y-122277111D01*
X184262734Y-122165851D01*
X184262729Y-122165848D01*
X184089807Y-122088857D01*
X184089802Y-122088855D01*
X183944001Y-122057865D01*
X183904646Y-122049500D01*
X183715354Y-122049500D01*
X183682897Y-122056398D01*
X183530197Y-122088855D01*
X183530192Y-122088857D01*
X183357270Y-122165848D01*
X183357265Y-122165851D01*
X183343548Y-122175818D01*
X183277742Y-122199298D01*
X183270663Y-122199500D01*
X178833708Y-122199500D01*
X178815737Y-122198191D01*
X178791979Y-122194711D01*
X178791973Y-122194710D01*
X178746903Y-122198654D01*
X178739931Y-122199264D01*
X178734530Y-122199500D01*
X178726289Y-122199500D01*
X178704579Y-122202037D01*
X178693724Y-122203306D01*
X178678419Y-122204645D01*
X178617199Y-122210001D01*
X178610132Y-122211460D01*
X178610120Y-122211404D01*
X178602763Y-122213035D01*
X178602777Y-122213092D01*
X178595743Y-122214759D01*
X178523575Y-122241025D01*
X178450675Y-122265181D01*
X178444126Y-122268236D01*
X178444101Y-122268183D01*
X178437308Y-122271471D01*
X178437334Y-122271523D01*
X178430880Y-122274764D01*
X178366708Y-122316971D01*
X178301347Y-122357285D01*
X178295683Y-122361765D01*
X178295647Y-122361719D01*
X178289798Y-122366484D01*
X178289835Y-122366528D01*
X178284310Y-122371164D01*
X178284304Y-122371169D01*
X178284304Y-122371170D01*
X178248053Y-122409593D01*
X178231597Y-122427035D01*
X175655451Y-125003181D01*
X175594128Y-125036666D01*
X175567770Y-125039500D01*
X171759337Y-125039500D01*
X171692298Y-125019815D01*
X171686452Y-125015818D01*
X171672734Y-125005851D01*
X171672729Y-125005848D01*
X171499807Y-124928857D01*
X171499802Y-124928855D01*
X171354001Y-124897865D01*
X171314646Y-124889500D01*
X171125354Y-124889500D01*
X171092897Y-124896398D01*
X170940197Y-124928855D01*
X170940192Y-124928857D01*
X170767270Y-125005848D01*
X170767265Y-125005851D01*
X170614129Y-125117111D01*
X170487466Y-125257785D01*
X170392821Y-125421715D01*
X170392818Y-125421722D01*
X170336329Y-125595578D01*
X170334326Y-125601744D01*
X170314540Y-125790000D01*
X170334326Y-125978256D01*
X170334327Y-125978259D01*
X170392818Y-126158277D01*
X170392821Y-126158284D01*
X170487467Y-126322216D01*
X170595884Y-126442625D01*
X170614129Y-126462888D01*
X170767265Y-126574148D01*
X170767270Y-126574151D01*
X170940192Y-126651142D01*
X170940197Y-126651144D01*
X171125354Y-126690500D01*
X171125355Y-126690500D01*
X171314644Y-126690500D01*
X171314646Y-126690500D01*
X171499803Y-126651144D01*
X171672730Y-126574151D01*
X171674776Y-126572664D01*
X171686452Y-126564182D01*
X171752258Y-126540702D01*
X171759337Y-126540500D01*
X175278770Y-126540500D01*
X175345809Y-126560185D01*
X175391564Y-126612989D01*
X175401508Y-126682147D01*
X175372483Y-126745703D01*
X175366451Y-126752181D01*
X174705451Y-127413181D01*
X174644128Y-127446666D01*
X174617770Y-127449500D01*
X171709337Y-127449500D01*
X171642298Y-127429815D01*
X171636452Y-127425818D01*
X171622734Y-127415851D01*
X171622729Y-127415848D01*
X171449807Y-127338857D01*
X171449802Y-127338855D01*
X171304001Y-127307865D01*
X171264646Y-127299500D01*
X171075354Y-127299500D01*
X171042897Y-127306398D01*
X170890197Y-127338855D01*
X170890192Y-127338857D01*
X170717270Y-127415848D01*
X170717265Y-127415851D01*
X170564129Y-127527111D01*
X170437466Y-127667785D01*
X170342821Y-127831715D01*
X170342818Y-127831722D01*
X170284327Y-128011740D01*
X170284326Y-128011744D01*
X170264540Y-128200000D01*
X129245636Y-128200000D01*
X129246880Y-126781000D01*
X133999540Y-126781000D01*
X133999593Y-126781500D01*
X134004160Y-126824960D01*
X134004500Y-126831445D01*
X134004500Y-126875646D01*
X134013688Y-126918880D01*
X134014704Y-126925291D01*
X134019325Y-126969256D01*
X134029595Y-127000861D01*
X134032936Y-127011144D01*
X134032986Y-127011296D01*
X134034666Y-127017569D01*
X134043856Y-127060803D01*
X134043855Y-127060803D01*
X134061833Y-127101179D01*
X134064160Y-127107242D01*
X134077818Y-127149277D01*
X134077820Y-127149281D01*
X134077821Y-127149284D01*
X134099923Y-127187565D01*
X134099924Y-127187567D01*
X134102870Y-127193349D01*
X134120849Y-127233730D01*
X134146823Y-127269482D01*
X134146825Y-127269484D01*
X134150359Y-127274926D01*
X134154279Y-127281715D01*
X134172464Y-127313212D01*
X134172471Y-127313222D01*
X134202050Y-127346072D01*
X134206137Y-127351119D01*
X134232110Y-127386869D01*
X134232111Y-127386870D01*
X134232112Y-127386871D01*
X134264966Y-127416453D01*
X134269546Y-127421034D01*
X134273854Y-127425818D01*
X134299129Y-127453888D01*
X134334887Y-127479867D01*
X134339934Y-127483954D01*
X134372777Y-127513528D01*
X134372787Y-127513535D01*
X134411070Y-127535638D01*
X134416516Y-127539175D01*
X134452266Y-127565149D01*
X134452269Y-127565150D01*
X134452270Y-127565151D01*
X134462535Y-127569721D01*
X134492644Y-127583127D01*
X134498430Y-127586075D01*
X134524300Y-127601010D01*
X134536716Y-127608179D01*
X134578755Y-127621837D01*
X134584812Y-127624163D01*
X134625193Y-127642142D01*
X134625192Y-127642142D01*
X134625197Y-127642144D01*
X134659720Y-127649481D01*
X134668435Y-127651334D01*
X134674698Y-127653011D01*
X134716744Y-127666674D01*
X134748051Y-127669964D01*
X134760709Y-127671295D01*
X134767123Y-127672311D01*
X134810354Y-127681500D01*
X134810355Y-127681500D01*
X134999643Y-127681500D01*
X134999646Y-127681500D01*
X135042894Y-127672307D01*
X135049283Y-127671295D01*
X135093256Y-127666674D01*
X135135308Y-127653009D01*
X135141551Y-127651336D01*
X135184803Y-127642144D01*
X135225197Y-127624158D01*
X135231228Y-127621842D01*
X135273284Y-127608179D01*
X135311586Y-127586063D01*
X135317333Y-127583136D01*
X135357730Y-127565151D01*
X135393504Y-127539159D01*
X135398906Y-127535650D01*
X135437216Y-127513533D01*
X135470071Y-127483948D01*
X135475098Y-127479876D01*
X135510871Y-127453888D01*
X135540453Y-127421032D01*
X135545032Y-127416453D01*
X135577888Y-127386871D01*
X135603876Y-127351098D01*
X135607948Y-127346071D01*
X135637533Y-127313216D01*
X135659650Y-127274906D01*
X135663159Y-127269504D01*
X135689151Y-127233730D01*
X135707136Y-127193333D01*
X135710063Y-127187586D01*
X135732179Y-127149284D01*
X135745842Y-127107228D01*
X135748158Y-127101197D01*
X135766144Y-127060803D01*
X135775336Y-127017551D01*
X135777013Y-127011296D01*
X135790674Y-126969256D01*
X135795295Y-126925283D01*
X135796307Y-126918894D01*
X135804635Y-126879713D01*
X135837828Y-126818235D01*
X135898992Y-126784460D01*
X135925924Y-126781500D01*
X136285025Y-126781500D01*
X136285032Y-126781500D01*
X136439485Y-126767598D01*
X136449707Y-126766679D01*
X136662338Y-126707997D01*
X136662343Y-126707994D01*
X136662350Y-126707993D01*
X136861098Y-126612281D01*
X137039563Y-126482619D01*
X137054623Y-126466868D01*
X137187136Y-126328270D01*
X137192007Y-126323175D01*
X137313531Y-126139073D01*
X137400230Y-125936231D01*
X137449317Y-125721168D01*
X137459214Y-125500796D01*
X137429603Y-125282198D01*
X137361436Y-125072401D01*
X137256903Y-124878147D01*
X137185669Y-124788822D01*
X137119365Y-124705679D01*
X136953248Y-124560548D01*
X136953240Y-124560541D01*
X136763880Y-124447403D01*
X136763877Y-124447401D01*
X136763874Y-124447400D01*
X136616270Y-124392003D01*
X136557344Y-124369888D01*
X136340301Y-124330500D01*
X136340297Y-124330500D01*
X135624968Y-124330500D01*
X135594306Y-124333259D01*
X135460292Y-124345320D01*
X135247661Y-124404002D01*
X135247646Y-124404008D01*
X135048908Y-124499715D01*
X135048900Y-124499719D01*
X134870442Y-124629376D01*
X134870434Y-124629382D01*
X134717994Y-124788822D01*
X134596469Y-124972926D01*
X134559996Y-125058259D01*
X134520234Y-125151289D01*
X134509770Y-125175770D01*
X134509767Y-125175779D01*
X134460684Y-125390826D01*
X134460682Y-125390837D01*
X134452125Y-125581378D01*
X134450786Y-125611204D01*
X134480397Y-125829802D01*
X134480398Y-125829806D01*
X134491096Y-125862731D01*
X134493091Y-125932572D01*
X134457011Y-125992405D01*
X134446047Y-126001370D01*
X134416512Y-126022826D01*
X134411070Y-126026361D01*
X134372788Y-126048463D01*
X134372785Y-126048465D01*
X134339935Y-126078044D01*
X134334889Y-126082130D01*
X134299125Y-126108115D01*
X134269550Y-126140960D01*
X134264960Y-126145550D01*
X134232115Y-126175125D01*
X134232112Y-126175128D01*
X134232112Y-126175129D01*
X134227046Y-126182101D01*
X134206130Y-126210889D01*
X134202044Y-126215935D01*
X134172465Y-126248785D01*
X134172463Y-126248788D01*
X134150361Y-126287069D01*
X134146826Y-126292512D01*
X134120850Y-126328267D01*
X134102871Y-126368647D01*
X134099924Y-126374430D01*
X134077819Y-126412719D01*
X134064160Y-126454755D01*
X134061834Y-126460815D01*
X134043856Y-126501195D01*
X134034665Y-126544434D01*
X134032985Y-126550705D01*
X134019325Y-126592743D01*
X134014703Y-126636710D01*
X134013688Y-126643119D01*
X134004500Y-126686351D01*
X134004500Y-126730553D01*
X134004160Y-126737037D01*
X134002569Y-126752181D01*
X133999540Y-126781000D01*
X129246880Y-126781000D01*
X129248131Y-125354593D01*
X130750832Y-125354593D01*
X130760605Y-125559756D01*
X130809029Y-125759362D01*
X130852641Y-125854859D01*
X130894352Y-125946195D01*
X130894356Y-125946201D01*
X131013489Y-126113501D01*
X131013495Y-126113507D01*
X131162147Y-126255246D01*
X131334933Y-126366290D01*
X131525608Y-126442625D01*
X131525618Y-126442629D01*
X131676881Y-126471782D01*
X131727301Y-126481500D01*
X131727302Y-126481500D01*
X132531226Y-126481500D01*
X132531232Y-126481500D01*
X132684466Y-126466868D01*
X132881541Y-126409001D01*
X133064104Y-126314884D01*
X133225556Y-126187916D01*
X133360061Y-126032689D01*
X133363715Y-126026361D01*
X133427515Y-125915856D01*
X133462759Y-125854811D01*
X133529937Y-125660712D01*
X133559168Y-125457407D01*
X133549395Y-125252244D01*
X133500971Y-125052638D01*
X133415647Y-124865804D01*
X133415643Y-124865798D01*
X133296510Y-124698498D01*
X133296504Y-124698492D01*
X133147852Y-124556753D01*
X132975066Y-124445709D01*
X132784391Y-124369374D01*
X132784384Y-124369371D01*
X132784382Y-124369371D01*
X132784379Y-124369370D01*
X132784378Y-124369370D01*
X132582699Y-124330500D01*
X132582698Y-124330500D01*
X131778768Y-124330500D01*
X131625534Y-124345132D01*
X131625530Y-124345133D01*
X131428462Y-124402997D01*
X131245891Y-124497118D01*
X131084446Y-124624081D01*
X131084443Y-124624084D01*
X130949936Y-124779313D01*
X130847242Y-124957185D01*
X130780064Y-125151282D01*
X130780063Y-125151287D01*
X130780063Y-125151288D01*
X130750832Y-125354593D01*
X129248131Y-125354593D01*
X129253845Y-118840000D01*
X167994540Y-118840000D01*
X168014326Y-119028256D01*
X168014327Y-119028259D01*
X168072818Y-119208277D01*
X168072821Y-119208284D01*
X168167467Y-119372216D01*
X168294129Y-119512888D01*
X168447265Y-119624148D01*
X168447270Y-119624151D01*
X168620192Y-119701142D01*
X168620197Y-119701144D01*
X168805354Y-119740500D01*
X168805355Y-119740500D01*
X168994644Y-119740500D01*
X168994646Y-119740500D01*
X169179803Y-119701144D01*
X169352730Y-119624151D01*
X169505871Y-119512888D01*
X169632533Y-119372216D01*
X169727179Y-119208284D01*
X169785674Y-119028256D01*
X169805460Y-118840000D01*
X169785674Y-118651744D01*
X169727179Y-118471716D01*
X169667113Y-118367677D01*
X169650500Y-118305677D01*
X169650500Y-115932228D01*
X169670185Y-115865189D01*
X169686815Y-115844551D01*
X170118446Y-115412919D01*
X170118451Y-115412916D01*
X170128654Y-115402712D01*
X170128656Y-115402712D01*
X173055638Y-112475727D01*
X173069267Y-112463950D01*
X173088530Y-112449610D01*
X173088532Y-112449606D01*
X173088534Y-112449606D01*
X173106663Y-112427999D01*
X173122113Y-112409585D01*
X173125767Y-112405599D01*
X173131590Y-112399777D01*
X173151923Y-112374060D01*
X173201302Y-112315214D01*
X173201309Y-112315198D01*
X173205272Y-112309176D01*
X173205324Y-112309210D01*
X173209371Y-112302858D01*
X173209317Y-112302825D01*
X173213104Y-112296684D01*
X173213110Y-112296677D01*
X173245561Y-112227086D01*
X173280036Y-112158440D01*
X173280040Y-112158433D01*
X173280042Y-112158421D01*
X173282510Y-112151644D01*
X173282568Y-112151665D01*
X173285043Y-112144546D01*
X173284985Y-112144527D01*
X173287256Y-112137672D01*
X173302784Y-112062467D01*
X173320500Y-111987720D01*
X173321339Y-111980548D01*
X173321397Y-111980554D01*
X173322164Y-111973056D01*
X173322104Y-111973051D01*
X173322733Y-111965860D01*
X173320500Y-111889103D01*
X173320500Y-111144321D01*
X173337113Y-111082321D01*
X173397179Y-110978284D01*
X173455674Y-110798256D01*
X173475460Y-110610000D01*
X173455674Y-110421744D01*
X173397179Y-110241716D01*
X173302533Y-110077784D01*
X173175871Y-109937112D01*
X173121233Y-109897415D01*
X173022734Y-109825851D01*
X173022729Y-109825848D01*
X172849807Y-109748857D01*
X172849802Y-109748855D01*
X172704001Y-109717865D01*
X172664646Y-109709500D01*
X172475354Y-109709500D01*
X172442897Y-109716398D01*
X172290197Y-109748855D01*
X172290192Y-109748857D01*
X172117270Y-109825848D01*
X172117265Y-109825851D01*
X171964129Y-109937111D01*
X171837466Y-110077785D01*
X171742821Y-110241715D01*
X171742818Y-110241722D01*
X171694127Y-110391580D01*
X171684326Y-110421744D01*
X171664540Y-110610000D01*
X171684326Y-110798256D01*
X171684327Y-110798259D01*
X171742818Y-110978277D01*
X171742821Y-110978284D01*
X171802887Y-111082321D01*
X171819500Y-111144321D01*
X171819500Y-111537769D01*
X171799815Y-111604808D01*
X171783181Y-111625450D01*
X169173902Y-114234729D01*
X168414358Y-114994272D01*
X168400729Y-115006051D01*
X168381468Y-115020390D01*
X168347898Y-115060397D01*
X168344253Y-115064376D01*
X168338409Y-115070222D01*
X168318059Y-115095959D01*
X168268695Y-115154789D01*
X168264729Y-115160819D01*
X168264682Y-115160788D01*
X168260630Y-115167147D01*
X168260679Y-115167177D01*
X168256889Y-115173321D01*
X168224424Y-115242941D01*
X168189960Y-115311566D01*
X168187488Y-115318357D01*
X168187432Y-115318336D01*
X168184960Y-115325450D01*
X168185015Y-115325469D01*
X168182742Y-115332327D01*
X168175557Y-115367129D01*
X168167207Y-115407565D01*
X168154001Y-115463284D01*
X168149498Y-115482286D01*
X168148661Y-115489454D01*
X168148601Y-115489447D01*
X168147835Y-115496945D01*
X168147895Y-115496951D01*
X168147265Y-115504140D01*
X168149500Y-115580916D01*
X168149500Y-118305677D01*
X168132887Y-118367677D01*
X168072821Y-118471714D01*
X168038978Y-118575872D01*
X168014326Y-118651744D01*
X167994540Y-118840000D01*
X129253845Y-118840000D01*
X129266377Y-104550936D01*
X160405631Y-104550936D01*
X160436442Y-104752063D01*
X160436445Y-104752075D01*
X160507111Y-104942881D01*
X160507113Y-104942884D01*
X160507114Y-104942887D01*
X160510169Y-104947788D01*
X160614745Y-105115567D01*
X160614747Y-105115569D01*
X160614748Y-105115571D01*
X160754941Y-105263053D01*
X160883344Y-105352424D01*
X160921949Y-105379294D01*
X160921950Y-105379294D01*
X160921951Y-105379295D01*
X161108942Y-105459540D01*
X161308259Y-105500500D01*
X162387284Y-105500500D01*
X162476358Y-105502757D01*
X162476358Y-105502756D01*
X162476363Y-105502757D01*
X162536753Y-105491932D01*
X162541412Y-105491280D01*
X162583607Y-105486988D01*
X162602438Y-105485074D01*
X162635227Y-105474786D01*
X162642840Y-105472918D01*
X162676653Y-105466858D01*
X162733621Y-105444101D01*
X162738053Y-105442524D01*
X162796588Y-105424159D01*
X162826627Y-105407484D01*
X162833708Y-105404122D01*
X162865617Y-105391377D01*
X162916854Y-105357608D01*
X162920851Y-105355187D01*
X162974502Y-105325409D01*
X163000568Y-105303030D01*
X163006843Y-105298300D01*
X163016797Y-105291740D01*
X163035519Y-105279402D01*
X163078917Y-105236002D01*
X163082336Y-105232834D01*
X163128895Y-105192866D01*
X163149931Y-105165688D01*
X163155101Y-105159818D01*
X163904919Y-104410000D01*
X168234540Y-104410000D01*
X168254326Y-104598256D01*
X168254327Y-104598259D01*
X168312818Y-104778277D01*
X168312823Y-104778289D01*
X168389825Y-104911661D01*
X168406298Y-104979561D01*
X168389826Y-105035659D01*
X168322820Y-105151718D01*
X168322818Y-105151722D01*
X168264327Y-105331740D01*
X168264326Y-105331744D01*
X168244540Y-105520000D01*
X168264326Y-105708256D01*
X168264327Y-105708259D01*
X168322818Y-105888277D01*
X168322821Y-105888284D01*
X168417467Y-106052216D01*
X168508113Y-106152888D01*
X168544129Y-106192888D01*
X168697265Y-106304148D01*
X168697270Y-106304151D01*
X168870192Y-106381142D01*
X168870197Y-106381144D01*
X169055354Y-106420500D01*
X169055355Y-106420500D01*
X169244644Y-106420500D01*
X169244646Y-106420500D01*
X169429803Y-106381144D01*
X169602730Y-106304151D01*
X169604776Y-106302664D01*
X169616452Y-106294182D01*
X169682258Y-106270702D01*
X169689337Y-106270500D01*
X174415173Y-106270500D01*
X174465609Y-106281221D01*
X174600192Y-106341142D01*
X174600197Y-106341144D01*
X174785354Y-106380500D01*
X174785355Y-106380500D01*
X174974644Y-106380500D01*
X174974646Y-106380500D01*
X175159803Y-106341144D01*
X175332730Y-106264151D01*
X175485871Y-106152888D01*
X175612533Y-106012216D01*
X175707179Y-105848284D01*
X175765674Y-105668256D01*
X175785460Y-105480000D01*
X175765674Y-105291744D01*
X175707179Y-105111716D01*
X175612533Y-104947784D01*
X175564592Y-104894540D01*
X175534364Y-104831552D01*
X175538812Y-104773256D01*
X175595674Y-104598256D01*
X175615460Y-104410000D01*
X175595674Y-104221744D01*
X175537179Y-104041716D01*
X175442533Y-103877784D01*
X175315871Y-103737112D01*
X175315870Y-103737111D01*
X175162734Y-103625851D01*
X175162729Y-103625848D01*
X174989807Y-103548857D01*
X174989802Y-103548855D01*
X174844001Y-103517865D01*
X174804646Y-103509500D01*
X174615354Y-103509500D01*
X174582897Y-103516398D01*
X174430197Y-103548855D01*
X174430192Y-103548857D01*
X174257270Y-103625848D01*
X174257265Y-103625851D01*
X174243548Y-103635818D01*
X174177742Y-103659298D01*
X174170663Y-103659500D01*
X169679337Y-103659500D01*
X169612298Y-103639815D01*
X169606452Y-103635818D01*
X169592734Y-103625851D01*
X169592729Y-103625848D01*
X169419807Y-103548857D01*
X169419802Y-103548855D01*
X169274001Y-103517865D01*
X169234646Y-103509500D01*
X169045354Y-103509500D01*
X169012897Y-103516398D01*
X168860197Y-103548855D01*
X168860192Y-103548857D01*
X168687270Y-103625848D01*
X168687265Y-103625851D01*
X168534129Y-103737111D01*
X168407466Y-103877785D01*
X168312821Y-104041715D01*
X168312818Y-104041722D01*
X168277400Y-104150729D01*
X168254326Y-104221744D01*
X168234540Y-104410000D01*
X163904919Y-104410000D01*
X165848487Y-102466433D01*
X165913053Y-102405059D01*
X165947302Y-102355851D01*
X165948097Y-102354709D01*
X165950924Y-102350957D01*
X165989698Y-102303407D01*
X166005607Y-102272948D01*
X166009667Y-102266248D01*
X166029295Y-102238049D01*
X166053492Y-102181660D01*
X166055498Y-102177435D01*
X166083909Y-102123049D01*
X166093357Y-102090022D01*
X166095988Y-102082633D01*
X166109540Y-102051058D01*
X166121895Y-101990930D01*
X166122999Y-101986429D01*
X166139886Y-101927418D01*
X166142494Y-101893157D01*
X166143585Y-101885389D01*
X166150500Y-101851743D01*
X166150500Y-101790398D01*
X166150679Y-101785688D01*
X166155337Y-101724524D01*
X166150997Y-101690442D01*
X166150500Y-101682603D01*
X166150500Y-99855783D01*
X166170185Y-99788744D01*
X166186819Y-99768102D01*
X166548102Y-99406819D01*
X166609425Y-99373334D01*
X166635783Y-99370500D01*
X177804217Y-99370500D01*
X177871256Y-99390185D01*
X177891898Y-99406819D01*
X178253181Y-99768102D01*
X178286666Y-99829425D01*
X178289500Y-99855783D01*
X178289500Y-106286294D01*
X178288191Y-106304263D01*
X178284710Y-106328025D01*
X178289264Y-106380064D01*
X178289500Y-106385470D01*
X178289500Y-106393709D01*
X178293306Y-106426274D01*
X178300000Y-106502791D01*
X178301461Y-106509867D01*
X178301403Y-106509878D01*
X178303034Y-106517237D01*
X178303092Y-106517224D01*
X178304757Y-106524250D01*
X178331025Y-106596424D01*
X178355185Y-106669331D01*
X178358236Y-106675874D01*
X178358182Y-106675898D01*
X178361470Y-106682688D01*
X178361521Y-106682663D01*
X178364761Y-106689113D01*
X178364762Y-106689114D01*
X178364763Y-106689117D01*
X178406965Y-106753283D01*
X178447287Y-106818655D01*
X178451766Y-106824319D01*
X178451719Y-106824356D01*
X178456482Y-106830202D01*
X178456528Y-106830164D01*
X178461173Y-106835700D01*
X178517017Y-106888385D01*
X180759173Y-109130542D01*
X180792658Y-109191865D01*
X180787674Y-109261557D01*
X180759173Y-109305904D01*
X174992350Y-115072728D01*
X174947735Y-115101328D01*
X174917768Y-115112427D01*
X174914796Y-115113443D01*
X174843412Y-115135840D01*
X174829322Y-115143661D01*
X174812220Y-115151518D01*
X174797118Y-115157111D01*
X174797108Y-115157116D01*
X174733626Y-115196685D01*
X174730919Y-115198278D01*
X174665506Y-115234585D01*
X174665499Y-115234590D01*
X174653278Y-115245081D01*
X174638114Y-115256216D01*
X174624430Y-115264746D01*
X174624427Y-115264749D01*
X174570200Y-115316295D01*
X174567870Y-115318400D01*
X174511108Y-115367129D01*
X174511102Y-115367136D01*
X174501243Y-115379872D01*
X174488631Y-115393832D01*
X174476949Y-115404938D01*
X174476948Y-115404939D01*
X174434215Y-115466335D01*
X174432356Y-115468865D01*
X174386550Y-115528043D01*
X174379452Y-115542513D01*
X174369907Y-115558728D01*
X174360706Y-115571948D01*
X174360705Y-115571949D01*
X174331199Y-115640704D01*
X174329888Y-115643556D01*
X174296939Y-115710729D01*
X174296938Y-115710733D01*
X174292901Y-115726324D01*
X174286815Y-115744129D01*
X174280461Y-115758937D01*
X174265399Y-115832225D01*
X174264689Y-115835285D01*
X174245936Y-115907716D01*
X174245119Y-115923811D01*
X174242743Y-115942474D01*
X174239500Y-115958260D01*
X174239500Y-116033070D01*
X174239420Y-116036210D01*
X174235631Y-116110935D01*
X174235631Y-116110936D01*
X174238070Y-116126857D01*
X174239500Y-116145633D01*
X174239500Y-117044217D01*
X174219815Y-117111256D01*
X174203181Y-117131898D01*
X167681899Y-123653181D01*
X167620576Y-123686666D01*
X167594218Y-123689500D01*
X165452677Y-123689500D01*
X165363637Y-123687244D01*
X165363626Y-123687245D01*
X165303271Y-123698062D01*
X165298607Y-123698716D01*
X165237563Y-123704925D01*
X165237555Y-123704927D01*
X165204781Y-123715210D01*
X165197153Y-123717082D01*
X165163349Y-123723141D01*
X165106381Y-123745895D01*
X165101945Y-123747474D01*
X165043414Y-123765840D01*
X165043410Y-123765842D01*
X165013378Y-123782510D01*
X165006284Y-123785879D01*
X164974382Y-123798623D01*
X164974377Y-123798625D01*
X164923156Y-123832381D01*
X164919128Y-123834822D01*
X164865501Y-123864588D01*
X164839434Y-123886965D01*
X164833165Y-123891692D01*
X164804484Y-123910595D01*
X164804478Y-123910600D01*
X164761110Y-123953967D01*
X164757656Y-123957168D01*
X164711102Y-123997136D01*
X164690078Y-124024296D01*
X164684888Y-124030189D01*
X164498662Y-124216417D01*
X164450740Y-124275189D01*
X164402302Y-124334593D01*
X164383865Y-124369889D01*
X164308090Y-124514953D01*
X164252112Y-124710584D01*
X164236662Y-124913474D01*
X164236662Y-124913477D01*
X164262368Y-125115321D01*
X164262370Y-125115329D01*
X164328183Y-125307870D01*
X164328189Y-125307882D01*
X164427810Y-125477112D01*
X164431410Y-125483227D01*
X164435993Y-125488300D01*
X164532915Y-125595578D01*
X164567821Y-125634213D01*
X164603905Y-125660710D01*
X164731828Y-125754646D01*
X164731835Y-125754650D01*
X164895396Y-125829802D01*
X164916732Y-125839605D01*
X164982456Y-125854857D01*
X165114945Y-125885603D01*
X165318358Y-125890757D01*
X165318358Y-125890756D01*
X165318363Y-125890757D01*
X165497853Y-125858586D01*
X165518648Y-125854859D01*
X165518648Y-125854858D01*
X165518653Y-125854858D01*
X165707617Y-125779377D01*
X165780805Y-125731142D01*
X165811422Y-125710964D01*
X165878230Y-125690508D01*
X165879658Y-125690500D01*
X168047284Y-125690500D01*
X168136358Y-125692757D01*
X168136358Y-125692756D01*
X168136363Y-125692757D01*
X168196753Y-125681932D01*
X168201412Y-125681280D01*
X168243607Y-125676988D01*
X168262438Y-125675074D01*
X168295227Y-125664786D01*
X168302840Y-125662918D01*
X168336653Y-125656858D01*
X168393621Y-125634101D01*
X168398053Y-125632524D01*
X168456588Y-125614159D01*
X168486627Y-125597484D01*
X168493708Y-125594122D01*
X168525617Y-125581377D01*
X168576854Y-125547608D01*
X168580851Y-125545187D01*
X168634502Y-125515409D01*
X168660568Y-125493030D01*
X168666843Y-125488300D01*
X168674539Y-125483228D01*
X168695519Y-125469402D01*
X168738917Y-125426002D01*
X168742336Y-125422834D01*
X168788895Y-125382866D01*
X168809931Y-125355688D01*
X168815101Y-125349818D01*
X175938487Y-118226433D01*
X176003053Y-118165059D01*
X176038097Y-118114709D01*
X176040924Y-118110957D01*
X176079698Y-118063407D01*
X176095607Y-118032948D01*
X176099667Y-118026248D01*
X176119295Y-117998049D01*
X176143492Y-117941660D01*
X176145498Y-117937435D01*
X176173909Y-117883049D01*
X176183357Y-117850022D01*
X176185988Y-117842633D01*
X176199540Y-117811058D01*
X176211895Y-117750930D01*
X176212999Y-117746429D01*
X176229886Y-117687418D01*
X176232494Y-117653157D01*
X176233585Y-117645389D01*
X176240500Y-117611743D01*
X176240500Y-117550398D01*
X176240679Y-117545688D01*
X176245337Y-117484524D01*
X176242473Y-117462038D01*
X176240997Y-117450442D01*
X176240500Y-117442603D01*
X176240500Y-116705782D01*
X176260185Y-116638743D01*
X176276819Y-116618101D01*
X178677633Y-114217287D01*
X182503340Y-110391580D01*
X182599698Y-110273407D01*
X182693909Y-110093049D01*
X182749887Y-109897418D01*
X182765337Y-109694524D01*
X182739630Y-109492672D01*
X182673816Y-109300128D01*
X182651110Y-109261557D01*
X182570593Y-109124778D01*
X182570592Y-109124777D01*
X182570590Y-109124773D01*
X182541344Y-109092402D01*
X182511009Y-109029461D01*
X182510194Y-109023671D01*
X182506693Y-108993724D01*
X182499999Y-108917201D01*
X182498539Y-108910129D01*
X182498597Y-108910116D01*
X182496965Y-108902757D01*
X182496906Y-108902772D01*
X182495242Y-108895753D01*
X182495241Y-108895745D01*
X182468974Y-108823576D01*
X182444814Y-108750666D01*
X182444809Y-108750659D01*
X182441760Y-108744118D01*
X182441815Y-108744091D01*
X182438533Y-108737313D01*
X182438480Y-108737340D01*
X182435235Y-108730880D01*
X182393028Y-108666708D01*
X182352710Y-108601342D01*
X182348234Y-108595682D01*
X182348281Y-108595644D01*
X182343519Y-108589799D01*
X182343474Y-108589838D01*
X182338834Y-108584308D01*
X182282964Y-108531596D01*
X179826819Y-106075451D01*
X179793334Y-106014128D01*
X179790500Y-105987770D01*
X179790500Y-103140000D01*
X183944540Y-103140000D01*
X183964326Y-103328256D01*
X183964327Y-103328259D01*
X184022818Y-103508277D01*
X184022820Y-103508281D01*
X184022821Y-103508284D01*
X184046246Y-103548857D01*
X184085958Y-103617641D01*
X184102430Y-103685541D01*
X184085958Y-103741638D01*
X184062821Y-103781713D01*
X184004327Y-103961740D01*
X184004326Y-103961744D01*
X183984540Y-104150000D01*
X184004326Y-104338256D01*
X184004327Y-104338259D01*
X184062818Y-104518277D01*
X184062821Y-104518284D01*
X184157467Y-104682216D01*
X184243972Y-104778289D01*
X184284129Y-104822888D01*
X184437265Y-104934148D01*
X184437270Y-104934151D01*
X184610192Y-105011142D01*
X184610197Y-105011144D01*
X184795354Y-105050500D01*
X184795355Y-105050500D01*
X184984644Y-105050500D01*
X184984646Y-105050500D01*
X185169803Y-105011144D01*
X185342730Y-104934151D01*
X185344776Y-104932664D01*
X185356452Y-104924182D01*
X185422258Y-104900702D01*
X185429337Y-104900500D01*
X192497770Y-104900500D01*
X192564809Y-104920185D01*
X192585451Y-104936819D01*
X197823181Y-110174549D01*
X197856666Y-110235872D01*
X197859500Y-110262230D01*
X197859500Y-135286294D01*
X197858191Y-135304263D01*
X197854710Y-135328025D01*
X197859264Y-135380064D01*
X197859500Y-135385470D01*
X197859500Y-135393709D01*
X197863306Y-135426274D01*
X197870000Y-135502791D01*
X197871461Y-135509867D01*
X197871403Y-135509878D01*
X197873034Y-135517237D01*
X197873092Y-135517224D01*
X197874757Y-135524250D01*
X197901025Y-135596424D01*
X197925185Y-135669331D01*
X197928236Y-135675874D01*
X197928182Y-135675898D01*
X197931470Y-135682688D01*
X197931521Y-135682663D01*
X197934761Y-135689113D01*
X197934762Y-135689114D01*
X197934763Y-135689117D01*
X197976965Y-135753283D01*
X198017287Y-135818655D01*
X198021766Y-135824319D01*
X198021719Y-135824356D01*
X198026482Y-135830202D01*
X198026528Y-135830164D01*
X198031173Y-135835700D01*
X198087018Y-135888386D01*
X199524267Y-137325634D01*
X199536048Y-137339266D01*
X199550390Y-137358530D01*
X199590420Y-137392119D01*
X199594392Y-137395759D01*
X199600223Y-137401590D01*
X199600222Y-137401590D01*
X199625944Y-137421927D01*
X199684786Y-137471302D01*
X199684794Y-137471306D01*
X199690824Y-137475273D01*
X199690790Y-137475323D01*
X199697137Y-137479366D01*
X199697169Y-137479316D01*
X199703318Y-137483108D01*
X199703320Y-137483109D01*
X199703323Y-137483111D01*
X199772930Y-137515569D01*
X199841567Y-137550040D01*
X199841576Y-137550042D01*
X199848355Y-137552510D01*
X199848334Y-137552567D01*
X199855451Y-137555040D01*
X199855470Y-137554984D01*
X199862330Y-137557257D01*
X199937532Y-137572784D01*
X200012279Y-137590500D01*
X200012288Y-137590500D01*
X200019452Y-137591338D01*
X200019445Y-137591397D01*
X200026946Y-137592163D01*
X200026952Y-137592104D01*
X200034140Y-137592733D01*
X200034143Y-137592732D01*
X200034144Y-137592733D01*
X200110898Y-137590500D01*
X205910663Y-137590500D01*
X205977702Y-137610185D01*
X205983548Y-137614182D01*
X205997265Y-137624148D01*
X205997270Y-137624151D01*
X206170192Y-137701142D01*
X206170197Y-137701144D01*
X206355354Y-137740500D01*
X206355355Y-137740500D01*
X206544644Y-137740500D01*
X206544646Y-137740500D01*
X206729803Y-137701144D01*
X206902730Y-137624151D01*
X207055871Y-137512888D01*
X207182533Y-137372216D01*
X207277179Y-137208284D01*
X207335674Y-137028256D01*
X207355460Y-136840000D01*
X207335674Y-136651744D01*
X207277179Y-136471716D01*
X207182533Y-136307784D01*
X207055871Y-136167112D01*
X207055870Y-136167111D01*
X206902734Y-136055851D01*
X206902729Y-136055848D01*
X206729807Y-135978857D01*
X206729802Y-135978855D01*
X206584001Y-135947865D01*
X206544646Y-135939500D01*
X206355354Y-135939500D01*
X206322897Y-135946398D01*
X206170197Y-135978855D01*
X206170192Y-135978857D01*
X205997270Y-136055848D01*
X205997265Y-136055851D01*
X205983548Y-136065818D01*
X205917742Y-136089298D01*
X205910663Y-136089500D01*
X200462230Y-136089500D01*
X200395191Y-136069815D01*
X200374549Y-136053181D01*
X199396819Y-135075451D01*
X199363334Y-135014128D01*
X199360500Y-134987770D01*
X199360500Y-129817628D01*
X199380185Y-129750589D01*
X199432989Y-129704834D01*
X199502147Y-129694890D01*
X199534933Y-129704348D01*
X199550197Y-129711144D01*
X199735354Y-129750500D01*
X199735355Y-129750500D01*
X199924644Y-129750500D01*
X199924646Y-129750500D01*
X200109803Y-129711144D01*
X200282730Y-129634151D01*
X200435871Y-129522888D01*
X200562533Y-129382216D01*
X200657179Y-129218284D01*
X200715674Y-129038256D01*
X200735460Y-128850000D01*
X200715674Y-128661744D01*
X200657179Y-128481716D01*
X200627113Y-128429639D01*
X200610500Y-128367639D01*
X200610500Y-109493705D01*
X200611809Y-109475735D01*
X200612129Y-109473547D01*
X200615289Y-109451977D01*
X200610735Y-109399931D01*
X200610500Y-109394528D01*
X200610500Y-109386297D01*
X200610500Y-109386291D01*
X200606693Y-109353724D01*
X200602005Y-109300129D01*
X200599999Y-109277201D01*
X200598539Y-109270129D01*
X200598597Y-109270116D01*
X200596965Y-109262757D01*
X200596906Y-109262772D01*
X200595242Y-109255753D01*
X200595241Y-109255745D01*
X200568974Y-109183576D01*
X200544814Y-109110666D01*
X200544809Y-109110659D01*
X200541760Y-109104118D01*
X200541815Y-109104091D01*
X200538533Y-109097313D01*
X200538480Y-109097340D01*
X200535235Y-109090880D01*
X200493028Y-109026708D01*
X200452710Y-108961342D01*
X200448234Y-108955682D01*
X200448281Y-108955644D01*
X200443519Y-108949799D01*
X200443474Y-108949838D01*
X200438834Y-108944308D01*
X200382964Y-108891596D01*
X195948531Y-104457163D01*
X195948512Y-104457145D01*
X194145729Y-102654361D01*
X194133949Y-102640730D01*
X194126482Y-102630701D01*
X194119612Y-102621472D01*
X194119610Y-102621470D01*
X194079587Y-102587886D01*
X194075612Y-102584244D01*
X194072690Y-102581322D01*
X194069780Y-102578411D01*
X194044040Y-102558059D01*
X193985209Y-102508694D01*
X193979180Y-102504729D01*
X193979212Y-102504680D01*
X193972853Y-102500628D01*
X193972822Y-102500679D01*
X193966680Y-102496891D01*
X193966678Y-102496890D01*
X193966677Y-102496889D01*
X193927474Y-102478608D01*
X193897058Y-102464424D01*
X193862894Y-102447267D01*
X193828433Y-102429960D01*
X193828431Y-102429959D01*
X193828430Y-102429959D01*
X193821645Y-102427489D01*
X193821665Y-102427433D01*
X193814549Y-102424959D01*
X193814531Y-102425015D01*
X193807671Y-102422742D01*
X193779841Y-102416996D01*
X193732434Y-102407207D01*
X193683472Y-102395603D01*
X193657719Y-102389499D01*
X193650547Y-102388661D01*
X193650553Y-102388601D01*
X193643055Y-102387835D01*
X193643050Y-102387895D01*
X193635860Y-102387265D01*
X193559083Y-102389500D01*
X185389337Y-102389500D01*
X185322298Y-102369815D01*
X185316452Y-102365818D01*
X185302734Y-102355851D01*
X185302729Y-102355848D01*
X185129807Y-102278857D01*
X185129802Y-102278855D01*
X184984001Y-102247865D01*
X184944646Y-102239500D01*
X184755354Y-102239500D01*
X184722897Y-102246398D01*
X184570197Y-102278855D01*
X184570192Y-102278857D01*
X184397270Y-102355848D01*
X184397265Y-102355851D01*
X184244129Y-102467111D01*
X184117466Y-102607785D01*
X184022821Y-102771715D01*
X184022818Y-102771722D01*
X183964327Y-102951740D01*
X183964326Y-102951744D01*
X183944540Y-103140000D01*
X179790500Y-103140000D01*
X179790500Y-99848977D01*
X179810185Y-99781938D01*
X179814553Y-99775584D01*
X179840683Y-99740000D01*
X179906649Y-99650167D01*
X179991605Y-99465268D01*
X180005169Y-99406819D01*
X180037602Y-99267053D01*
X180037703Y-99263070D01*
X180042756Y-99063636D01*
X180006858Y-98863347D01*
X179931377Y-98674383D01*
X179931372Y-98674376D01*
X179931370Y-98674371D01*
X179819403Y-98504482D01*
X179819400Y-98504478D01*
X178986451Y-97671531D01*
X178925061Y-97606949D01*
X178925060Y-97606948D01*
X178925059Y-97606947D01*
X178897149Y-97587521D01*
X178874709Y-97571902D01*
X178870946Y-97569064D01*
X178823413Y-97530305D01*
X178823406Y-97530300D01*
X178792959Y-97514397D01*
X178786251Y-97510334D01*
X178758049Y-97490705D01*
X178758046Y-97490703D01*
X178758045Y-97490703D01*
X178758041Y-97490701D01*
X178701680Y-97466514D01*
X178697424Y-97464493D01*
X178643057Y-97436094D01*
X178643050Y-97436091D01*
X178643049Y-97436091D01*
X178637008Y-97434362D01*
X178610030Y-97426642D01*
X178602630Y-97424008D01*
X178571057Y-97410459D01*
X178571058Y-97410459D01*
X178510966Y-97398109D01*
X178506391Y-97396986D01*
X178447420Y-97380113D01*
X178447425Y-97380113D01*
X178413158Y-97377503D01*
X178405380Y-97376412D01*
X178371742Y-97369500D01*
X178371741Y-97369500D01*
X178310402Y-97369500D01*
X178305695Y-97369321D01*
X178300121Y-97368896D01*
X178244524Y-97364662D01*
X178224589Y-97367201D01*
X178210440Y-97369003D01*
X178202611Y-97369500D01*
X174089595Y-97369500D01*
X174022556Y-97349815D01*
X173976801Y-97297011D01*
X173966274Y-97232541D01*
X173985460Y-97050000D01*
X173965674Y-96861744D01*
X173907179Y-96681716D01*
X173812533Y-96517784D01*
X173685871Y-96377112D01*
X173672033Y-96367058D01*
X173532734Y-96265851D01*
X173532729Y-96265848D01*
X173359807Y-96188857D01*
X173359802Y-96188855D01*
X173214001Y-96157865D01*
X173174646Y-96149500D01*
X172985354Y-96149500D01*
X172952897Y-96156398D01*
X172800197Y-96188855D01*
X172800192Y-96188857D01*
X172627270Y-96265848D01*
X172627265Y-96265851D01*
X172613548Y-96275818D01*
X172547742Y-96299298D01*
X172540663Y-96299500D01*
X169982230Y-96299500D01*
X169915191Y-96279815D01*
X169894549Y-96263181D01*
X168476819Y-94845451D01*
X168443334Y-94784128D01*
X168440500Y-94757770D01*
X168440500Y-93595821D01*
X168457113Y-93533821D01*
X168517179Y-93429784D01*
X168575674Y-93249756D01*
X168595460Y-93061500D01*
X168575674Y-92873244D01*
X168520901Y-92704671D01*
X168517181Y-92693222D01*
X168517180Y-92693221D01*
X168517179Y-92693216D01*
X168422533Y-92529284D01*
X168295871Y-92388612D01*
X168295870Y-92388611D01*
X168142734Y-92277351D01*
X168142729Y-92277348D01*
X167969807Y-92200357D01*
X167969802Y-92200355D01*
X167824001Y-92169365D01*
X167784646Y-92161000D01*
X167595354Y-92161000D01*
X167579810Y-92164304D01*
X167410197Y-92200355D01*
X167410192Y-92200357D01*
X167237270Y-92277348D01*
X167237265Y-92277351D01*
X167084129Y-92388611D01*
X166957467Y-92529283D01*
X166954815Y-92532934D01*
X166899483Y-92575597D01*
X166829869Y-92581573D01*
X166768076Y-92548965D01*
X166733721Y-92488124D01*
X166730500Y-92460044D01*
X166730500Y-91487702D01*
X166736569Y-91449384D01*
X166744306Y-91425572D01*
X166785674Y-91298256D01*
X166805460Y-91110000D01*
X166785674Y-90921744D01*
X166727179Y-90741716D01*
X166632533Y-90577784D01*
X166505871Y-90437112D01*
X166505870Y-90437111D01*
X166352734Y-90325851D01*
X166352729Y-90325848D01*
X166179807Y-90248857D01*
X166179802Y-90248855D01*
X166034001Y-90217865D01*
X165994646Y-90209500D01*
X165805354Y-90209500D01*
X165772897Y-90216398D01*
X165620197Y-90248855D01*
X165620192Y-90248857D01*
X165447270Y-90325848D01*
X165447265Y-90325851D01*
X165294129Y-90437111D01*
X165167466Y-90577785D01*
X165072821Y-90741715D01*
X165072818Y-90741722D01*
X165014327Y-90921740D01*
X165014326Y-90921744D01*
X164994540Y-91110000D01*
X165014326Y-91298256D01*
X165014327Y-91298259D01*
X165072818Y-91478277D01*
X165072821Y-91478284D01*
X165167466Y-91642215D01*
X165197649Y-91675736D01*
X165227879Y-91738727D01*
X165229500Y-91758709D01*
X165229500Y-95677770D01*
X165209815Y-95744809D01*
X165193178Y-95765453D01*
X165187222Y-95771410D01*
X165125896Y-95804889D01*
X165125330Y-95805011D01*
X165060196Y-95818856D01*
X165060192Y-95818857D01*
X164887270Y-95895848D01*
X164887265Y-95895851D01*
X164734129Y-96007111D01*
X164607466Y-96147785D01*
X164512821Y-96311715D01*
X164512818Y-96311722D01*
X164466195Y-96455214D01*
X164454326Y-96491744D01*
X164434540Y-96680000D01*
X164454326Y-96868256D01*
X164454327Y-96868259D01*
X164512818Y-97048277D01*
X164512821Y-97048284D01*
X164607467Y-97212216D01*
X164721114Y-97338433D01*
X164734129Y-97352888D01*
X164887265Y-97464148D01*
X164887270Y-97464151D01*
X165060192Y-97541142D01*
X165060197Y-97541144D01*
X165245354Y-97580500D01*
X165245355Y-97580500D01*
X165251822Y-97581180D01*
X165251693Y-97582402D01*
X165312255Y-97600185D01*
X165358010Y-97652989D01*
X165367954Y-97722147D01*
X165338929Y-97785703D01*
X165332897Y-97792181D01*
X164778803Y-98346275D01*
X164751299Y-98367013D01*
X164739327Y-98373658D01*
X164722219Y-98381519D01*
X164707115Y-98387113D01*
X164707108Y-98387116D01*
X164643626Y-98426685D01*
X164640919Y-98428278D01*
X164575506Y-98464585D01*
X164575499Y-98464590D01*
X164563278Y-98475081D01*
X164548114Y-98486216D01*
X164534430Y-98494746D01*
X164534427Y-98494749D01*
X164480200Y-98546295D01*
X164477870Y-98548400D01*
X164421108Y-98597129D01*
X164421102Y-98597136D01*
X164411243Y-98609872D01*
X164398631Y-98623832D01*
X164386949Y-98634938D01*
X164386948Y-98634939D01*
X164344215Y-98696335D01*
X164342356Y-98698865D01*
X164296550Y-98758043D01*
X164289452Y-98772513D01*
X164279907Y-98788728D01*
X164270706Y-98801948D01*
X164270705Y-98801949D01*
X164241199Y-98870704D01*
X164239888Y-98873556D01*
X164206939Y-98940729D01*
X164206938Y-98940733D01*
X164202901Y-98956324D01*
X164196815Y-98974129D01*
X164190461Y-98988937D01*
X164175399Y-99062225D01*
X164174689Y-99065285D01*
X164155936Y-99137716D01*
X164155119Y-99153811D01*
X164152743Y-99172474D01*
X164149500Y-99188260D01*
X164149500Y-99263070D01*
X164149420Y-99266210D01*
X164145631Y-99340935D01*
X164145631Y-99340936D01*
X164148070Y-99356857D01*
X164149500Y-99375633D01*
X164149500Y-101284217D01*
X164129815Y-101351256D01*
X164113181Y-101371898D01*
X162021899Y-103463181D01*
X161960576Y-103496666D01*
X161934218Y-103499500D01*
X161359257Y-103499500D01*
X161207560Y-103514925D01*
X161013420Y-103575837D01*
X161013405Y-103575844D01*
X160835500Y-103674589D01*
X160835495Y-103674592D01*
X160681106Y-103807132D01*
X160681104Y-103807134D01*
X160556554Y-103968037D01*
X160556553Y-103968040D01*
X160466940Y-104150728D01*
X160415937Y-104347714D01*
X160405631Y-104550936D01*
X129266377Y-104550936D01*
X129270597Y-99740000D01*
X147754540Y-99740000D01*
X147774326Y-99928256D01*
X147774327Y-99928259D01*
X147832818Y-100108277D01*
X147832821Y-100108284D01*
X147927467Y-100272216D01*
X147977945Y-100328277D01*
X148054129Y-100412888D01*
X148207265Y-100524148D01*
X148207270Y-100524151D01*
X148380192Y-100601142D01*
X148380197Y-100601144D01*
X148565354Y-100640500D01*
X148565355Y-100640500D01*
X148754644Y-100640500D01*
X148754646Y-100640500D01*
X148939803Y-100601144D01*
X149112730Y-100524151D01*
X149114776Y-100522664D01*
X149126452Y-100514182D01*
X149192258Y-100490702D01*
X149199337Y-100490500D01*
X156586295Y-100490500D01*
X156604265Y-100491809D01*
X156628023Y-100495289D01*
X156680068Y-100490735D01*
X156685470Y-100490500D01*
X156693704Y-100490500D01*
X156693709Y-100490500D01*
X156705327Y-100489141D01*
X156726276Y-100486693D01*
X156739028Y-100485577D01*
X156802797Y-100479999D01*
X156802805Y-100479996D01*
X156809866Y-100478539D01*
X156809878Y-100478598D01*
X156817243Y-100476965D01*
X156817229Y-100476906D01*
X156824246Y-100475241D01*
X156824255Y-100475241D01*
X156896423Y-100448974D01*
X156969334Y-100424814D01*
X156969343Y-100424807D01*
X156975882Y-100421760D01*
X156975908Y-100421816D01*
X156982690Y-100418532D01*
X156982663Y-100418478D01*
X156989106Y-100415240D01*
X156989117Y-100415237D01*
X157053283Y-100373034D01*
X157118656Y-100332712D01*
X157118662Y-100332705D01*
X157124325Y-100328229D01*
X157124363Y-100328277D01*
X157130200Y-100323522D01*
X157130161Y-100323475D01*
X157135696Y-100318830D01*
X157188385Y-100262983D01*
X159132393Y-98318974D01*
X159795642Y-97655724D01*
X159809271Y-97643947D01*
X159828530Y-97629610D01*
X159862101Y-97589601D01*
X159865761Y-97585606D01*
X159871590Y-97579778D01*
X159891941Y-97554039D01*
X159911859Y-97530302D01*
X159941302Y-97495214D01*
X159941306Y-97495205D01*
X159945274Y-97489175D01*
X159945325Y-97489208D01*
X159949372Y-97482856D01*
X159949320Y-97482824D01*
X159953112Y-97476675D01*
X159985575Y-97407058D01*
X160005856Y-97366675D01*
X160020040Y-97338433D01*
X160020042Y-97338421D01*
X160022509Y-97331646D01*
X160022567Y-97331667D01*
X160025043Y-97324546D01*
X160024986Y-97324527D01*
X160027255Y-97317678D01*
X160027255Y-97317676D01*
X160027257Y-97317673D01*
X160042788Y-97242449D01*
X160060500Y-97167721D01*
X160060500Y-97167718D01*
X160061339Y-97160548D01*
X160061397Y-97160554D01*
X160062164Y-97153056D01*
X160062104Y-97153051D01*
X160062733Y-97145860D01*
X160060500Y-97069103D01*
X160060500Y-95933705D01*
X160061809Y-95915735D01*
X160062129Y-95913547D01*
X160065289Y-95891977D01*
X160060735Y-95839931D01*
X160060500Y-95834528D01*
X160060500Y-95826297D01*
X160060500Y-95826291D01*
X160056693Y-95793724D01*
X160049999Y-95717203D01*
X160049999Y-95717201D01*
X160048539Y-95710129D01*
X160048597Y-95710116D01*
X160046965Y-95702757D01*
X160046906Y-95702772D01*
X160045241Y-95695751D01*
X160045241Y-95695745D01*
X160018974Y-95623576D01*
X160013050Y-95605700D01*
X159994813Y-95550663D01*
X159991764Y-95544124D01*
X159991817Y-95544099D01*
X159988531Y-95537311D01*
X159988479Y-95537338D01*
X159985236Y-95530882D01*
X159943034Y-95466716D01*
X159934366Y-95452663D01*
X159909096Y-95411694D01*
X159896704Y-95384916D01*
X159895674Y-95381746D01*
X159895674Y-95381744D01*
X159837179Y-95201716D01*
X159742533Y-95037784D01*
X159615871Y-94897112D01*
X159615870Y-94897111D01*
X159462734Y-94785851D01*
X159462729Y-94785848D01*
X159289807Y-94708857D01*
X159289802Y-94708855D01*
X159144001Y-94677865D01*
X159104646Y-94669500D01*
X158915354Y-94669500D01*
X158882897Y-94676398D01*
X158730197Y-94708855D01*
X158730192Y-94708857D01*
X158557270Y-94785848D01*
X158557265Y-94785851D01*
X158404129Y-94897111D01*
X158277466Y-95037785D01*
X158182821Y-95201715D01*
X158182818Y-95201722D01*
X158124454Y-95381349D01*
X158124326Y-95381744D01*
X158104540Y-95570000D01*
X158124326Y-95758256D01*
X158124327Y-95758259D01*
X158182818Y-95938277D01*
X158182821Y-95938284D01*
X158277467Y-96102216D01*
X158404129Y-96242888D01*
X158480580Y-96298433D01*
X158508385Y-96318634D01*
X158551051Y-96373963D01*
X158559500Y-96418952D01*
X158559500Y-96717770D01*
X158539815Y-96784809D01*
X158523181Y-96805451D01*
X156375451Y-98953181D01*
X156314128Y-98986666D01*
X156287770Y-98989500D01*
X149199337Y-98989500D01*
X149132298Y-98969815D01*
X149126452Y-98965818D01*
X149112734Y-98955851D01*
X149112729Y-98955848D01*
X148939807Y-98878857D01*
X148939802Y-98878855D01*
X148794001Y-98847865D01*
X148754646Y-98839500D01*
X148565354Y-98839500D01*
X148532897Y-98846398D01*
X148380197Y-98878855D01*
X148380192Y-98878857D01*
X148207270Y-98955848D01*
X148207265Y-98955851D01*
X148054129Y-99067111D01*
X147927466Y-99207785D01*
X147832821Y-99371715D01*
X147832818Y-99371722D01*
X147774327Y-99551740D01*
X147774326Y-99551744D01*
X147754540Y-99740000D01*
X129270597Y-99740000D01*
X129282367Y-86320000D01*
X134917341Y-86320000D01*
X134937936Y-86555403D01*
X134937938Y-86555413D01*
X134999094Y-86783655D01*
X134999096Y-86783659D01*
X134999097Y-86783663D01*
X135032449Y-86855185D01*
X135098964Y-86997828D01*
X135098965Y-86997830D01*
X135234505Y-87191402D01*
X135381704Y-87338601D01*
X135415189Y-87399924D01*
X135410205Y-87469616D01*
X135368333Y-87525549D01*
X135359120Y-87531820D01*
X135204347Y-87627285D01*
X135204343Y-87627288D01*
X135080289Y-87751342D01*
X134988187Y-87900663D01*
X134988185Y-87900668D01*
X134967619Y-87962734D01*
X134933001Y-88067203D01*
X134933001Y-88067204D01*
X134933000Y-88067204D01*
X134922500Y-88169983D01*
X134922500Y-89470001D01*
X134922501Y-89470018D01*
X134933000Y-89572796D01*
X134933001Y-89572799D01*
X134972142Y-89690916D01*
X134988186Y-89739334D01*
X135080288Y-89888656D01*
X135204344Y-90012712D01*
X135353666Y-90104814D01*
X135520203Y-90159999D01*
X135622991Y-90170500D01*
X137173008Y-90170499D01*
X137275797Y-90159999D01*
X137442334Y-90104814D01*
X137591656Y-90012712D01*
X137715712Y-89888656D01*
X137807814Y-89739334D01*
X137862999Y-89572797D01*
X137873500Y-89470009D01*
X137873499Y-88169992D01*
X137862999Y-88067203D01*
X137807814Y-87900666D01*
X137715712Y-87751344D01*
X137591656Y-87627288D01*
X137510658Y-87577328D01*
X137436879Y-87531821D01*
X137390155Y-87479873D01*
X137378932Y-87410910D01*
X137406776Y-87346828D01*
X137414295Y-87338601D01*
X137561495Y-87191401D01*
X137697035Y-86997830D01*
X137796903Y-86783663D01*
X137858063Y-86555408D01*
X137878659Y-86320000D01*
X137858063Y-86084592D01*
X137811626Y-85911285D01*
X137796905Y-85856344D01*
X137796904Y-85856343D01*
X137796903Y-85856337D01*
X137697035Y-85642171D01*
X137697034Y-85642169D01*
X137561494Y-85448597D01*
X137394403Y-85281506D01*
X137338187Y-85242144D01*
X137237401Y-85171573D01*
X137193778Y-85116999D01*
X137186584Y-85047500D01*
X137218106Y-84985145D01*
X137237398Y-84968428D01*
X137394401Y-84858495D01*
X137561495Y-84691401D01*
X137697035Y-84497830D01*
X137796903Y-84283663D01*
X137858063Y-84055408D01*
X137878659Y-83820000D01*
X137858063Y-83584592D01*
X137796903Y-83356337D01*
X137697035Y-83142171D01*
X137697034Y-83142169D01*
X137561494Y-82948597D01*
X137394402Y-82781505D01*
X137200830Y-82645965D01*
X137200828Y-82645964D01*
X137093746Y-82596031D01*
X136986663Y-82546097D01*
X136986659Y-82546096D01*
X136986655Y-82546094D01*
X136758413Y-82484938D01*
X136758403Y-82484936D01*
X136581966Y-82469500D01*
X136214034Y-82469500D01*
X136037596Y-82484936D01*
X136037586Y-82484938D01*
X135809344Y-82546094D01*
X135809335Y-82546098D01*
X135595171Y-82645964D01*
X135595169Y-82645965D01*
X135401597Y-82781505D01*
X135234506Y-82948597D01*
X135234501Y-82948604D01*
X135098967Y-83142165D01*
X135098965Y-83142169D01*
X134999098Y-83356335D01*
X134999094Y-83356344D01*
X134937938Y-83584586D01*
X134937936Y-83584596D01*
X134917341Y-83819999D01*
X134917341Y-83820000D01*
X134937936Y-84055403D01*
X134937938Y-84055413D01*
X134999094Y-84283655D01*
X134999096Y-84283659D01*
X134999097Y-84283663D01*
X135033941Y-84358385D01*
X135098964Y-84497828D01*
X135098965Y-84497830D01*
X135234505Y-84691402D01*
X135401597Y-84858494D01*
X135558595Y-84968425D01*
X135602220Y-85023002D01*
X135609414Y-85092500D01*
X135577891Y-85154855D01*
X135558595Y-85171575D01*
X135401597Y-85281505D01*
X135234506Y-85448597D01*
X135234501Y-85448604D01*
X135098967Y-85642165D01*
X135098965Y-85642169D01*
X134999098Y-85856335D01*
X134999094Y-85856344D01*
X134937938Y-86084586D01*
X134937936Y-86084596D01*
X134917341Y-86319999D01*
X134917341Y-86320000D01*
X129282367Y-86320000D01*
X129285877Y-82318000D01*
X145652540Y-82318000D01*
X145672326Y-82506256D01*
X145672327Y-82506259D01*
X145730818Y-82686277D01*
X145730821Y-82686284D01*
X145825467Y-82850216D01*
X145860258Y-82888855D01*
X145952129Y-82990888D01*
X146105265Y-83102148D01*
X146105270Y-83102151D01*
X146220393Y-83153408D01*
X146257638Y-83179006D01*
X151007228Y-87928595D01*
X151037478Y-87977958D01*
X151092818Y-88148277D01*
X151092821Y-88148284D01*
X151187467Y-88312216D01*
X151304994Y-88442743D01*
X151314129Y-88452888D01*
X151467265Y-88564148D01*
X151467270Y-88564151D01*
X151640192Y-88641142D01*
X151640197Y-88641144D01*
X151825354Y-88680500D01*
X151825355Y-88680500D01*
X152014644Y-88680500D01*
X152014646Y-88680500D01*
X152199803Y-88641144D01*
X152372730Y-88564151D01*
X152525871Y-88452888D01*
X152652533Y-88312216D01*
X152747179Y-88148284D01*
X152805674Y-87968256D01*
X152825460Y-87780000D01*
X152805674Y-87591744D01*
X152747179Y-87411716D01*
X152652533Y-87247784D01*
X152525871Y-87107112D01*
X152525870Y-87107111D01*
X152372734Y-86995851D01*
X152372729Y-86995848D01*
X152199807Y-86918857D01*
X152199803Y-86918856D01*
X152134669Y-86905011D01*
X152073188Y-86871818D01*
X152072770Y-86871402D01*
X148951368Y-83750000D01*
X150894540Y-83750000D01*
X150914326Y-83938256D01*
X150914327Y-83938259D01*
X150972818Y-84118277D01*
X150972821Y-84118284D01*
X151067467Y-84282216D01*
X151136050Y-84358385D01*
X151194129Y-84422888D01*
X151347265Y-84534148D01*
X151347270Y-84534151D01*
X151520192Y-84611142D01*
X151520197Y-84611144D01*
X151705354Y-84650500D01*
X151705355Y-84650500D01*
X151894644Y-84650500D01*
X151894646Y-84650500D01*
X152079803Y-84611144D01*
X152252730Y-84534151D01*
X152254776Y-84532664D01*
X152266452Y-84524182D01*
X152332258Y-84500702D01*
X152339337Y-84500500D01*
X157647770Y-84500500D01*
X157714809Y-84520185D01*
X157735451Y-84536819D01*
X159124270Y-85925638D01*
X159136051Y-85939270D01*
X159150388Y-85958528D01*
X159190409Y-85992111D01*
X159194397Y-85995766D01*
X159200216Y-86001585D01*
X159200220Y-86001588D01*
X159200223Y-86001591D01*
X159225959Y-86021940D01*
X159284786Y-86071302D01*
X159284787Y-86071302D01*
X159284789Y-86071304D01*
X159290818Y-86075270D01*
X159290785Y-86075319D01*
X159297147Y-86079372D01*
X159297179Y-86079321D01*
X159303319Y-86083108D01*
X159303323Y-86083111D01*
X159306508Y-86084596D01*
X159372941Y-86115575D01*
X159441565Y-86150039D01*
X159441567Y-86150040D01*
X159441569Y-86150040D01*
X159448357Y-86152511D01*
X159448336Y-86152567D01*
X159455457Y-86155043D01*
X159455476Y-86154986D01*
X159462322Y-86157254D01*
X159462327Y-86157257D01*
X159462332Y-86157258D01*
X159462335Y-86157259D01*
X159537565Y-86172792D01*
X159612279Y-86190500D01*
X159612282Y-86190500D01*
X159612286Y-86190501D01*
X159619453Y-86191339D01*
X159619446Y-86191398D01*
X159626944Y-86192164D01*
X159626950Y-86192105D01*
X159634139Y-86192734D01*
X159634143Y-86192733D01*
X159634144Y-86192734D01*
X159710917Y-86190500D01*
X175577770Y-86190500D01*
X175644809Y-86210185D01*
X175665451Y-86226819D01*
X176027806Y-86589174D01*
X176061291Y-86650497D01*
X176056307Y-86720189D01*
X176014435Y-86776122D01*
X175948971Y-86800539D01*
X175911532Y-86797513D01*
X175877721Y-86789500D01*
X175877713Y-86789498D01*
X175870547Y-86788661D01*
X175870553Y-86788601D01*
X175863055Y-86787835D01*
X175863050Y-86787895D01*
X175855860Y-86787265D01*
X175779083Y-86789500D01*
X164353705Y-86789500D01*
X164335735Y-86788191D01*
X164311972Y-86784710D01*
X164267512Y-86788601D01*
X164259931Y-86789264D01*
X164254530Y-86789500D01*
X164246289Y-86789500D01*
X164224579Y-86792037D01*
X164213724Y-86793306D01*
X164198419Y-86794645D01*
X164137199Y-86800001D01*
X164130132Y-86801460D01*
X164130120Y-86801404D01*
X164122763Y-86803035D01*
X164122777Y-86803092D01*
X164115743Y-86804759D01*
X164043575Y-86831025D01*
X163970665Y-86855185D01*
X163964126Y-86858235D01*
X163964101Y-86858183D01*
X163957308Y-86861471D01*
X163957334Y-86861522D01*
X163950884Y-86864761D01*
X163886716Y-86906964D01*
X163821347Y-86947285D01*
X163815677Y-86951769D01*
X163815641Y-86951723D01*
X163809798Y-86956484D01*
X163809835Y-86956528D01*
X163804310Y-86961164D01*
X163804304Y-86961169D01*
X163804304Y-86961170D01*
X163769718Y-86997828D01*
X163751614Y-87017017D01*
X161664358Y-89104272D01*
X161650729Y-89116051D01*
X161631468Y-89130390D01*
X161597898Y-89170397D01*
X161594253Y-89174376D01*
X161588409Y-89180222D01*
X161568059Y-89205959D01*
X161518695Y-89264789D01*
X161514729Y-89270819D01*
X161514682Y-89270788D01*
X161510630Y-89277147D01*
X161510679Y-89277177D01*
X161506889Y-89283321D01*
X161474424Y-89352941D01*
X161439960Y-89421566D01*
X161437488Y-89428357D01*
X161437432Y-89428336D01*
X161434960Y-89435450D01*
X161435015Y-89435469D01*
X161432742Y-89442327D01*
X161427027Y-89470008D01*
X161417207Y-89517565D01*
X161404118Y-89572795D01*
X161399498Y-89592286D01*
X161398661Y-89599454D01*
X161398601Y-89599447D01*
X161397835Y-89606945D01*
X161397895Y-89606951D01*
X161397265Y-89614140D01*
X161399500Y-89690916D01*
X161399500Y-97110109D01*
X161379815Y-97177148D01*
X161348385Y-97210427D01*
X161284129Y-97257111D01*
X161157466Y-97397785D01*
X161062821Y-97561715D01*
X161062818Y-97561722D01*
X161010693Y-97722147D01*
X161004326Y-97741744D01*
X160984540Y-97930000D01*
X161004326Y-98118256D01*
X161004327Y-98118259D01*
X161062818Y-98298277D01*
X161062821Y-98298284D01*
X161157467Y-98462216D01*
X161234153Y-98547384D01*
X161284129Y-98602888D01*
X161437265Y-98714148D01*
X161437270Y-98714151D01*
X161610192Y-98791142D01*
X161610197Y-98791144D01*
X161795354Y-98830500D01*
X161795355Y-98830500D01*
X161984644Y-98830500D01*
X161984646Y-98830500D01*
X162169803Y-98791144D01*
X162342730Y-98714151D01*
X162495871Y-98602888D01*
X162622533Y-98462216D01*
X162717179Y-98298284D01*
X162775674Y-98118256D01*
X162775674Y-98118254D01*
X162775675Y-98118252D01*
X162777027Y-98111894D01*
X162777790Y-98112056D01*
X162790900Y-98073615D01*
X162790059Y-98073223D01*
X162825572Y-97997063D01*
X162860040Y-97928433D01*
X162860041Y-97928427D01*
X162862508Y-97921650D01*
X162862566Y-97921671D01*
X162865043Y-97914544D01*
X162864986Y-97914526D01*
X162867255Y-97907679D01*
X162867256Y-97907674D01*
X162867257Y-97907672D01*
X162882790Y-97832441D01*
X162900500Y-97757721D01*
X162900500Y-97757719D01*
X162901339Y-97750548D01*
X162901398Y-97750554D01*
X162902164Y-97743054D01*
X162902105Y-97743049D01*
X162902734Y-97735859D01*
X162900500Y-97659082D01*
X162900500Y-95804551D01*
X162920185Y-95737512D01*
X162972989Y-95691757D01*
X163042147Y-95681813D01*
X163105703Y-95710838D01*
X163131888Y-95742553D01*
X163137465Y-95752214D01*
X163264129Y-95892888D01*
X163417265Y-96004148D01*
X163417270Y-96004151D01*
X163590192Y-96081142D01*
X163590197Y-96081144D01*
X163775354Y-96120500D01*
X163775355Y-96120500D01*
X163964644Y-96120500D01*
X163964646Y-96120500D01*
X164149803Y-96081144D01*
X164322730Y-96004151D01*
X164475871Y-95892888D01*
X164602533Y-95752216D01*
X164697179Y-95588284D01*
X164755674Y-95408256D01*
X164775460Y-95220000D01*
X164755674Y-95031744D01*
X164697179Y-94851716D01*
X164602533Y-94687784D01*
X164538890Y-94617102D01*
X164492350Y-94565413D01*
X164462120Y-94502421D01*
X164460500Y-94482441D01*
X164460500Y-93494321D01*
X164477113Y-93432321D01*
X164478582Y-93429777D01*
X164537179Y-93328284D01*
X164595674Y-93148256D01*
X164615460Y-92960000D01*
X164595674Y-92771744D01*
X164537179Y-92591716D01*
X164442533Y-92427784D01*
X164315871Y-92287112D01*
X164315870Y-92287111D01*
X164162734Y-92175851D01*
X164162729Y-92175848D01*
X163989807Y-92098857D01*
X163989802Y-92098855D01*
X163844001Y-92067865D01*
X163804646Y-92059500D01*
X163615354Y-92059500D01*
X163582897Y-92066398D01*
X163430197Y-92098855D01*
X163430192Y-92098857D01*
X163257270Y-92175848D01*
X163257265Y-92175851D01*
X163098871Y-92290932D01*
X163097420Y-92288934D01*
X163044435Y-92314338D01*
X162975103Y-92305687D01*
X162921454Y-92260926D01*
X162900522Y-92194266D01*
X162900500Y-92191951D01*
X162900500Y-90042230D01*
X162920185Y-89975191D01*
X162936819Y-89954549D01*
X164564549Y-88326819D01*
X164625872Y-88293334D01*
X164652230Y-88290500D01*
X175427770Y-88290500D01*
X175494809Y-88310185D01*
X175515451Y-88326819D01*
X178424267Y-91235634D01*
X178436048Y-91249266D01*
X178450390Y-91268530D01*
X178490420Y-91302119D01*
X178494392Y-91305759D01*
X178500224Y-91311591D01*
X178500227Y-91311594D01*
X178525947Y-91331931D01*
X178584788Y-91381304D01*
X178590818Y-91385270D01*
X178590785Y-91385319D01*
X178597143Y-91389369D01*
X178597175Y-91389319D01*
X178603320Y-91393109D01*
X178603323Y-91393111D01*
X178672936Y-91425572D01*
X178741567Y-91460040D01*
X178741572Y-91460041D01*
X178748361Y-91462513D01*
X178748340Y-91462570D01*
X178755455Y-91465043D01*
X178755475Y-91464986D01*
X178762330Y-91467258D01*
X178815700Y-91478277D01*
X178837558Y-91482790D01*
X178912279Y-91500500D01*
X178912289Y-91500500D01*
X178919452Y-91501338D01*
X178919444Y-91501397D01*
X178926945Y-91502164D01*
X178926951Y-91502105D01*
X178934140Y-91502734D01*
X178934144Y-91502733D01*
X178934145Y-91502734D01*
X179010918Y-91500500D01*
X185900713Y-91500500D01*
X185967752Y-91520185D01*
X185992862Y-91541527D01*
X186084128Y-91642887D01*
X186084129Y-91642888D01*
X186237265Y-91754148D01*
X186237270Y-91754151D01*
X186410192Y-91831142D01*
X186410197Y-91831144D01*
X186595354Y-91870500D01*
X186595355Y-91870500D01*
X186784644Y-91870500D01*
X186784646Y-91870500D01*
X186969803Y-91831144D01*
X187142730Y-91754151D01*
X187295871Y-91642888D01*
X187422533Y-91502216D01*
X187517179Y-91338284D01*
X187575674Y-91158256D01*
X187595460Y-90970000D01*
X187575674Y-90781744D01*
X187517179Y-90601716D01*
X187422533Y-90437784D01*
X187295871Y-90297112D01*
X187295870Y-90297111D01*
X187142734Y-90185851D01*
X187142729Y-90185848D01*
X187057225Y-90147779D01*
X187003988Y-90102529D01*
X186983667Y-90035680D01*
X187002713Y-89968456D01*
X187055079Y-89922201D01*
X187107661Y-89910500D01*
X187697770Y-89910500D01*
X187764809Y-89930185D01*
X187785451Y-89946819D01*
X190093181Y-92254548D01*
X190126666Y-92315871D01*
X190129500Y-92342229D01*
X190129500Y-96587162D01*
X190109815Y-96654201D01*
X190057011Y-96699956D01*
X189991182Y-96709421D01*
X189991103Y-96710179D01*
X189988104Y-96709863D01*
X189987853Y-96709900D01*
X189986987Y-96709746D01*
X189984646Y-96709500D01*
X189795354Y-96709500D01*
X189792160Y-96710179D01*
X189610197Y-96748855D01*
X189610192Y-96748857D01*
X189437270Y-96825848D01*
X189437265Y-96825851D01*
X189284129Y-96937111D01*
X189157466Y-97077785D01*
X189062821Y-97241715D01*
X189062818Y-97241722D01*
X189004327Y-97421740D01*
X189004326Y-97421744D01*
X188984540Y-97610000D01*
X189004326Y-97798256D01*
X189004327Y-97798259D01*
X189062818Y-97978277D01*
X189062821Y-97978284D01*
X189157467Y-98142216D01*
X189207945Y-98198277D01*
X189284129Y-98282888D01*
X189437265Y-98394148D01*
X189437270Y-98394151D01*
X189610192Y-98471142D01*
X189610197Y-98471144D01*
X189795354Y-98510500D01*
X189795355Y-98510500D01*
X189984644Y-98510500D01*
X189984646Y-98510500D01*
X190169803Y-98471144D01*
X190342730Y-98394151D01*
X190391728Y-98358550D01*
X190422192Y-98342351D01*
X190474075Y-98323468D01*
X190486424Y-98318974D01*
X190500953Y-98314158D01*
X190559334Y-98294814D01*
X190559343Y-98294807D01*
X190565882Y-98291760D01*
X190565908Y-98291816D01*
X190572690Y-98288532D01*
X190572663Y-98288478D01*
X190579106Y-98285240D01*
X190579117Y-98285237D01*
X190643283Y-98243034D01*
X190708656Y-98202712D01*
X190708662Y-98202705D01*
X190714325Y-98198229D01*
X190714362Y-98198277D01*
X190720204Y-98193518D01*
X190720164Y-98193471D01*
X190725686Y-98188836D01*
X190725696Y-98188830D01*
X190747399Y-98165825D01*
X190778387Y-98132981D01*
X191267419Y-97643947D01*
X191365641Y-97545724D01*
X191379260Y-97533954D01*
X191398530Y-97519610D01*
X191432123Y-97479574D01*
X191435757Y-97475608D01*
X191441591Y-97469776D01*
X191461930Y-97444052D01*
X191511302Y-97385214D01*
X191511306Y-97385205D01*
X191515274Y-97379175D01*
X191515325Y-97379208D01*
X191519372Y-97372856D01*
X191519320Y-97372824D01*
X191523112Y-97366675D01*
X191555575Y-97297058D01*
X191573116Y-97262128D01*
X191590040Y-97228433D01*
X191590042Y-97228421D01*
X191592509Y-97221646D01*
X191592567Y-97221667D01*
X191595043Y-97214546D01*
X191594986Y-97214527D01*
X191597255Y-97207680D01*
X191597256Y-97207675D01*
X191597257Y-97207673D01*
X191612791Y-97132437D01*
X191630500Y-97057721D01*
X191630500Y-97057719D01*
X191631339Y-97050548D01*
X191631398Y-97050554D01*
X191632164Y-97043054D01*
X191632105Y-97043049D01*
X191632734Y-97035859D01*
X191630500Y-96959082D01*
X191630500Y-92043705D01*
X191631809Y-92025735D01*
X191635289Y-92001974D01*
X191630736Y-91949939D01*
X191630500Y-91944532D01*
X191630500Y-91936296D01*
X191630500Y-91936291D01*
X191626691Y-91903705D01*
X191619998Y-91827203D01*
X191619995Y-91827194D01*
X191618538Y-91820135D01*
X191618598Y-91820122D01*
X191616965Y-91812757D01*
X191616906Y-91812772D01*
X191615241Y-91805749D01*
X191615241Y-91805745D01*
X191588971Y-91733568D01*
X191564814Y-91660665D01*
X191564812Y-91660662D01*
X191561761Y-91654118D01*
X191561815Y-91654092D01*
X191558533Y-91647312D01*
X191558480Y-91647340D01*
X191555238Y-91640886D01*
X191555237Y-91640883D01*
X191513038Y-91576723D01*
X191472712Y-91511344D01*
X191472711Y-91511343D01*
X191472710Y-91511341D01*
X191468234Y-91505681D01*
X191468280Y-91505643D01*
X191463519Y-91499799D01*
X191463474Y-91499838D01*
X191458834Y-91494308D01*
X191402982Y-91441613D01*
X188635729Y-88674361D01*
X188623949Y-88660730D01*
X188616482Y-88650701D01*
X188609612Y-88641472D01*
X188609219Y-88641142D01*
X188569587Y-88607886D01*
X188565612Y-88604244D01*
X188562690Y-88601322D01*
X188559780Y-88598411D01*
X188534040Y-88578059D01*
X188517465Y-88564151D01*
X188475214Y-88528698D01*
X188475213Y-88528697D01*
X188475209Y-88528694D01*
X188469180Y-88524729D01*
X188469212Y-88524680D01*
X188462853Y-88520628D01*
X188462822Y-88520679D01*
X188456680Y-88516891D01*
X188456678Y-88516890D01*
X188456677Y-88516889D01*
X188417474Y-88498608D01*
X188387058Y-88484424D01*
X188352894Y-88467267D01*
X188318433Y-88449960D01*
X188318431Y-88449959D01*
X188318430Y-88449959D01*
X188311645Y-88447489D01*
X188311665Y-88447433D01*
X188304549Y-88444959D01*
X188304531Y-88445015D01*
X188297671Y-88442742D01*
X188269841Y-88436996D01*
X188222434Y-88427207D01*
X188173472Y-88415603D01*
X188147719Y-88409499D01*
X188140547Y-88408661D01*
X188140553Y-88408601D01*
X188133055Y-88407835D01*
X188133050Y-88407895D01*
X188125860Y-88407265D01*
X188049083Y-88409500D01*
X180022229Y-88409500D01*
X179955190Y-88389815D01*
X179934548Y-88373181D01*
X176515729Y-84954361D01*
X176503949Y-84940730D01*
X176496482Y-84930701D01*
X176489612Y-84921472D01*
X176489610Y-84921470D01*
X176449587Y-84887886D01*
X176445612Y-84884244D01*
X176441369Y-84880001D01*
X176439780Y-84878411D01*
X176414040Y-84858059D01*
X176355209Y-84808694D01*
X176349180Y-84804729D01*
X176349212Y-84804680D01*
X176342853Y-84800628D01*
X176342822Y-84800679D01*
X176336680Y-84796891D01*
X176336678Y-84796890D01*
X176336677Y-84796889D01*
X176297474Y-84778608D01*
X176267058Y-84764424D01*
X176232894Y-84747267D01*
X176198433Y-84729960D01*
X176198431Y-84729959D01*
X176198430Y-84729959D01*
X176191645Y-84727489D01*
X176191665Y-84727433D01*
X176184549Y-84724959D01*
X176184531Y-84725015D01*
X176177671Y-84722742D01*
X176149841Y-84716996D01*
X176102434Y-84707207D01*
X176053472Y-84695603D01*
X176027719Y-84689499D01*
X176020547Y-84688661D01*
X176020553Y-84688601D01*
X176013055Y-84687835D01*
X176013050Y-84687895D01*
X176005860Y-84687265D01*
X175929083Y-84689500D01*
X160062229Y-84689500D01*
X159995190Y-84669815D01*
X159974548Y-84653181D01*
X159294164Y-83972797D01*
X158585729Y-83264361D01*
X158573949Y-83250730D01*
X158566482Y-83240701D01*
X158559612Y-83231472D01*
X158559610Y-83231470D01*
X158519587Y-83197886D01*
X158515612Y-83194244D01*
X158512690Y-83191322D01*
X158509780Y-83188411D01*
X158484040Y-83168059D01*
X158453187Y-83142170D01*
X158425214Y-83118698D01*
X158425213Y-83118697D01*
X158425209Y-83118694D01*
X158419180Y-83114729D01*
X158419212Y-83114680D01*
X158412853Y-83110628D01*
X158412822Y-83110679D01*
X158406680Y-83106891D01*
X158406678Y-83106890D01*
X158406677Y-83106889D01*
X158367474Y-83088608D01*
X158337058Y-83074424D01*
X158302894Y-83057267D01*
X158268433Y-83039960D01*
X158268431Y-83039959D01*
X158268430Y-83039959D01*
X158261645Y-83037489D01*
X158261665Y-83037433D01*
X158254549Y-83034959D01*
X158254531Y-83035015D01*
X158247671Y-83032742D01*
X158219841Y-83026996D01*
X158172434Y-83017207D01*
X158123472Y-83005603D01*
X158097719Y-82999499D01*
X158090547Y-82998661D01*
X158090553Y-82998601D01*
X158083055Y-82997835D01*
X158083050Y-82997895D01*
X158075860Y-82997265D01*
X157999083Y-82999500D01*
X152339337Y-82999500D01*
X152272298Y-82979815D01*
X152266452Y-82975818D01*
X152252734Y-82965851D01*
X152252729Y-82965848D01*
X152079807Y-82888857D01*
X152079802Y-82888855D01*
X151934001Y-82857865D01*
X151894646Y-82849500D01*
X151705354Y-82849500D01*
X151672897Y-82856398D01*
X151520197Y-82888855D01*
X151520192Y-82888857D01*
X151347270Y-82965848D01*
X151347265Y-82965851D01*
X151194129Y-83077111D01*
X151067466Y-83217785D01*
X150972821Y-83381715D01*
X150972818Y-83381722D01*
X150919620Y-83545451D01*
X150914326Y-83561744D01*
X150894540Y-83750000D01*
X148951368Y-83750000D01*
X147487943Y-82286575D01*
X147454458Y-82225252D01*
X147452303Y-82211853D01*
X147443674Y-82129745D01*
X147443672Y-82129740D01*
X147385179Y-81949716D01*
X147290533Y-81785784D01*
X147163871Y-81645112D01*
X147163870Y-81645111D01*
X147010734Y-81533851D01*
X147010729Y-81533848D01*
X146837807Y-81456857D01*
X146837802Y-81456855D01*
X146692001Y-81425865D01*
X146652646Y-81417500D01*
X146463354Y-81417500D01*
X146430897Y-81424398D01*
X146278197Y-81456855D01*
X146278192Y-81456857D01*
X146105270Y-81533848D01*
X146105265Y-81533851D01*
X145952129Y-81645111D01*
X145825466Y-81785785D01*
X145730821Y-81949715D01*
X145730818Y-81949722D01*
X145672327Y-82129740D01*
X145672326Y-82129744D01*
X145652540Y-82318000D01*
X129285877Y-82318000D01*
X129289427Y-78270001D01*
X145207500Y-78270001D01*
X145207501Y-78270018D01*
X145218000Y-78372796D01*
X145218001Y-78372799D01*
X145273185Y-78539331D01*
X145273187Y-78539336D01*
X145308069Y-78595888D01*
X145365288Y-78688656D01*
X145489344Y-78812712D01*
X145638666Y-78904814D01*
X145805203Y-78959999D01*
X145907991Y-78970500D01*
X147208008Y-78970499D01*
X147310797Y-78959999D01*
X147477334Y-78904814D01*
X147626656Y-78812712D01*
X147750712Y-78688656D01*
X147842814Y-78539334D01*
X147897999Y-78372797D01*
X147908500Y-78270009D01*
X147908500Y-78134001D01*
X158457500Y-78134001D01*
X158457501Y-78134018D01*
X158468000Y-78236796D01*
X158468001Y-78236799D01*
X158504811Y-78347882D01*
X158523186Y-78403334D01*
X158615288Y-78552656D01*
X158739344Y-78676712D01*
X158888666Y-78768814D01*
X159055203Y-78823999D01*
X159157991Y-78834500D01*
X160458008Y-78834499D01*
X160560797Y-78823999D01*
X160727334Y-78768814D01*
X160876656Y-78676712D01*
X161000712Y-78552656D01*
X161092814Y-78403334D01*
X161147999Y-78236797D01*
X161153801Y-78180001D01*
X167601500Y-78180001D01*
X167601501Y-78180018D01*
X167612000Y-78282796D01*
X167612001Y-78282799D01*
X167651942Y-78403331D01*
X167667186Y-78449334D01*
X167759288Y-78598656D01*
X167883344Y-78722712D01*
X168032666Y-78814814D01*
X168199203Y-78869999D01*
X168301991Y-78880500D01*
X169602008Y-78880499D01*
X169704797Y-78869999D01*
X169871334Y-78814814D01*
X170020656Y-78722712D01*
X170144712Y-78598656D01*
X170236814Y-78449334D01*
X170291999Y-78282797D01*
X170302500Y-78180009D01*
X170302500Y-78180001D01*
X176999500Y-78180001D01*
X176999501Y-78180018D01*
X177010000Y-78282796D01*
X177010001Y-78282799D01*
X177049942Y-78403331D01*
X177065186Y-78449334D01*
X177157288Y-78598656D01*
X177281344Y-78722712D01*
X177430666Y-78814814D01*
X177514505Y-78842595D01*
X177571948Y-78882366D01*
X177598772Y-78946882D01*
X177599500Y-78960300D01*
X177599500Y-83756294D01*
X177598191Y-83774263D01*
X177594710Y-83798025D01*
X177599264Y-83850064D01*
X177599500Y-83855470D01*
X177599500Y-83863709D01*
X177603306Y-83896274D01*
X177610000Y-83972791D01*
X177611461Y-83979867D01*
X177611403Y-83979878D01*
X177613034Y-83987237D01*
X177613092Y-83987224D01*
X177614757Y-83994250D01*
X177641025Y-84066424D01*
X177665185Y-84139331D01*
X177668236Y-84145874D01*
X177668182Y-84145898D01*
X177671470Y-84152688D01*
X177671521Y-84152663D01*
X177674761Y-84159113D01*
X177674762Y-84159114D01*
X177674763Y-84159117D01*
X177716965Y-84223283D01*
X177757287Y-84288655D01*
X177761766Y-84294319D01*
X177761719Y-84294356D01*
X177766482Y-84300202D01*
X177766528Y-84300164D01*
X177771173Y-84305700D01*
X177827017Y-84358385D01*
X181164270Y-87695638D01*
X181176051Y-87709270D01*
X181190388Y-87728528D01*
X181230409Y-87762111D01*
X181234397Y-87765766D01*
X181240216Y-87771585D01*
X181240220Y-87771588D01*
X181240223Y-87771591D01*
X181265959Y-87791940D01*
X181324786Y-87841302D01*
X181324787Y-87841302D01*
X181324789Y-87841304D01*
X181330818Y-87845270D01*
X181330785Y-87845319D01*
X181337147Y-87849372D01*
X181337179Y-87849321D01*
X181343319Y-87853108D01*
X181343323Y-87853111D01*
X181378132Y-87869343D01*
X181412941Y-87885575D01*
X181481565Y-87920039D01*
X181481567Y-87920040D01*
X181481569Y-87920040D01*
X181488357Y-87922511D01*
X181488336Y-87922567D01*
X181495457Y-87925043D01*
X181495476Y-87924986D01*
X181502322Y-87927254D01*
X181502327Y-87927257D01*
X181502332Y-87927258D01*
X181502335Y-87927259D01*
X181577565Y-87942792D01*
X181652279Y-87960500D01*
X181652282Y-87960500D01*
X181652286Y-87960501D01*
X181659453Y-87961339D01*
X181659446Y-87961398D01*
X181666944Y-87962164D01*
X181666950Y-87962105D01*
X181674139Y-87962734D01*
X181674143Y-87962733D01*
X181674144Y-87962734D01*
X181750917Y-87960500D01*
X193487770Y-87960500D01*
X193554809Y-87980185D01*
X193575451Y-87996819D01*
X198503181Y-92924549D01*
X198536666Y-92985872D01*
X198539500Y-93012230D01*
X198539500Y-102965677D01*
X198522887Y-103027677D01*
X198462821Y-103131714D01*
X198460129Y-103140000D01*
X198404326Y-103311744D01*
X198384540Y-103500000D01*
X198404326Y-103688256D01*
X198404327Y-103688259D01*
X198462818Y-103868277D01*
X198462821Y-103868284D01*
X198557467Y-104032216D01*
X198664176Y-104150728D01*
X198684129Y-104172888D01*
X198837265Y-104284148D01*
X198837270Y-104284151D01*
X199010192Y-104361142D01*
X199010197Y-104361144D01*
X199195354Y-104400500D01*
X199195355Y-104400500D01*
X199384644Y-104400500D01*
X199384646Y-104400500D01*
X199569803Y-104361144D01*
X199742730Y-104284151D01*
X199895871Y-104172888D01*
X200022533Y-104032216D01*
X200117179Y-103868284D01*
X200175674Y-103688256D01*
X200195460Y-103500000D01*
X200175674Y-103311744D01*
X200117179Y-103131716D01*
X200057113Y-103027677D01*
X200040500Y-102965677D01*
X200040500Y-92713705D01*
X200041809Y-92695735D01*
X200042178Y-92693215D01*
X200045289Y-92671977D01*
X200040735Y-92619931D01*
X200040500Y-92614528D01*
X200040500Y-92606297D01*
X200040500Y-92606291D01*
X200036693Y-92573724D01*
X200032806Y-92529285D01*
X200029999Y-92497201D01*
X200028539Y-92490129D01*
X200028597Y-92490116D01*
X200026965Y-92482757D01*
X200026906Y-92482772D01*
X200025242Y-92475753D01*
X200025241Y-92475745D01*
X199998974Y-92403576D01*
X199974814Y-92330666D01*
X199974809Y-92330659D01*
X199971760Y-92324118D01*
X199971815Y-92324091D01*
X199968533Y-92317313D01*
X199968480Y-92317340D01*
X199965235Y-92310880D01*
X199961819Y-92305687D01*
X199923028Y-92246708D01*
X199882712Y-92181345D01*
X199882711Y-92181344D01*
X199882710Y-92181342D01*
X199878234Y-92175682D01*
X199878281Y-92175644D01*
X199873519Y-92169799D01*
X199873474Y-92169838D01*
X199868834Y-92164308D01*
X199812964Y-92111596D01*
X194431368Y-86730000D01*
X200571841Y-86730000D01*
X200592436Y-86965403D01*
X200592438Y-86965413D01*
X200653594Y-87193655D01*
X200653596Y-87193659D01*
X200653597Y-87193663D01*
X200678834Y-87247784D01*
X200753464Y-87407828D01*
X200753465Y-87407830D01*
X200889005Y-87601402D01*
X201056097Y-87768494D01*
X201249669Y-87904034D01*
X201249671Y-87904035D01*
X201463837Y-88003903D01*
X201692092Y-88065063D01*
X201868534Y-88080500D01*
X202286466Y-88080500D01*
X202462908Y-88065063D01*
X202691163Y-88003903D01*
X202905329Y-87904035D01*
X203098901Y-87768495D01*
X203265995Y-87601401D01*
X203401535Y-87407830D01*
X203501403Y-87193663D01*
X203562563Y-86965408D01*
X203583159Y-86730000D01*
X203562563Y-86494592D01*
X203501403Y-86266337D01*
X203401535Y-86052171D01*
X203401534Y-86052169D01*
X203265994Y-85858597D01*
X203118795Y-85711398D01*
X203085310Y-85650075D01*
X203090294Y-85580383D01*
X203132166Y-85524450D01*
X203141380Y-85518178D01*
X203146834Y-85514814D01*
X203296156Y-85422712D01*
X203420212Y-85298656D01*
X203512314Y-85149334D01*
X203567499Y-84982797D01*
X203578000Y-84880009D01*
X203577999Y-83579992D01*
X203567499Y-83477203D01*
X203512314Y-83310666D01*
X203420212Y-83161344D01*
X203296156Y-83037288D01*
X203196497Y-82975818D01*
X203146836Y-82945187D01*
X203146831Y-82945185D01*
X203145362Y-82944698D01*
X202980297Y-82890001D01*
X202980295Y-82890000D01*
X202877510Y-82879500D01*
X201277498Y-82879500D01*
X201277481Y-82879501D01*
X201174703Y-82890000D01*
X201174700Y-82890001D01*
X201008168Y-82945185D01*
X201008163Y-82945187D01*
X200858842Y-83037289D01*
X200734789Y-83161342D01*
X200642687Y-83310663D01*
X200642686Y-83310666D01*
X200587501Y-83477203D01*
X200587501Y-83477204D01*
X200587500Y-83477204D01*
X200577000Y-83579983D01*
X200577000Y-84880001D01*
X200577001Y-84880018D01*
X200587500Y-84982796D01*
X200587501Y-84982799D01*
X200608941Y-85047500D01*
X200642686Y-85149334D01*
X200724209Y-85281505D01*
X200734789Y-85298657D01*
X200858844Y-85422712D01*
X201013620Y-85518178D01*
X201060345Y-85570126D01*
X201071568Y-85639088D01*
X201043724Y-85703171D01*
X201036206Y-85711398D01*
X200889001Y-85858603D01*
X200889001Y-85858604D01*
X200753467Y-86052165D01*
X200753465Y-86052169D01*
X200653598Y-86266335D01*
X200653594Y-86266344D01*
X200592438Y-86494586D01*
X200592436Y-86494596D01*
X200571841Y-86729999D01*
X200571841Y-86730000D01*
X194431368Y-86730000D01*
X194425729Y-86724361D01*
X194413949Y-86710730D01*
X194406482Y-86700701D01*
X194399612Y-86691472D01*
X194399610Y-86691470D01*
X194359587Y-86657886D01*
X194355612Y-86654244D01*
X194351865Y-86650497D01*
X194349780Y-86648411D01*
X194324040Y-86628059D01*
X194265209Y-86578694D01*
X194259180Y-86574729D01*
X194259212Y-86574680D01*
X194252853Y-86570628D01*
X194252822Y-86570679D01*
X194246680Y-86566891D01*
X194246678Y-86566890D01*
X194246677Y-86566889D01*
X194207474Y-86548608D01*
X194177058Y-86534424D01*
X194142894Y-86517267D01*
X194108433Y-86499960D01*
X194108431Y-86499959D01*
X194108430Y-86499959D01*
X194101645Y-86497489D01*
X194101665Y-86497433D01*
X194094549Y-86494959D01*
X194094531Y-86495015D01*
X194087671Y-86492742D01*
X194059841Y-86486996D01*
X194012434Y-86477207D01*
X193963472Y-86465603D01*
X193937719Y-86459499D01*
X193930547Y-86458661D01*
X193930553Y-86458601D01*
X193923055Y-86457835D01*
X193923050Y-86457895D01*
X193915860Y-86457265D01*
X193839083Y-86459500D01*
X182102230Y-86459500D01*
X182035191Y-86439815D01*
X182014549Y-86423181D01*
X179136819Y-83545451D01*
X179103334Y-83484128D01*
X179100500Y-83457770D01*
X179100500Y-80815190D01*
X189259500Y-80815190D01*
X189299066Y-81052300D01*
X189377116Y-81279652D01*
X189377118Y-81279657D01*
X189491529Y-81491069D01*
X189491533Y-81491075D01*
X189639169Y-81680757D01*
X189639171Y-81680759D01*
X189639175Y-81680764D01*
X189816031Y-81843571D01*
X189816033Y-81843572D01*
X189978495Y-81949715D01*
X190017272Y-81975049D01*
X190237409Y-82071610D01*
X190470437Y-82130620D01*
X190650010Y-82145500D01*
X190650012Y-82145500D01*
X191769988Y-82145500D01*
X191769990Y-82145500D01*
X191949563Y-82130620D01*
X192182591Y-82071610D01*
X192402728Y-81975049D01*
X192603969Y-81843571D01*
X192780825Y-81680764D01*
X192895172Y-81533851D01*
X192928466Y-81491075D01*
X192928470Y-81491069D01*
X192928472Y-81491067D01*
X193042882Y-81279656D01*
X193120934Y-81052297D01*
X193160500Y-80815192D01*
X193160500Y-80574808D01*
X193120934Y-80337703D01*
X193042882Y-80110344D01*
X192928472Y-79898933D01*
X192928470Y-79898930D01*
X192928466Y-79898924D01*
X192780830Y-79709242D01*
X192780827Y-79709239D01*
X192780825Y-79709236D01*
X192603969Y-79546429D01*
X192603966Y-79546427D01*
X192402729Y-79414951D01*
X192274757Y-79358817D01*
X192182591Y-79318390D01*
X192182589Y-79318389D01*
X191949559Y-79259379D01*
X191805659Y-79247455D01*
X191769990Y-79244500D01*
X190650010Y-79244500D01*
X190617563Y-79247188D01*
X190470440Y-79259379D01*
X190237410Y-79318389D01*
X190017270Y-79414951D01*
X189816033Y-79546427D01*
X189816029Y-79546430D01*
X189639172Y-79709239D01*
X189639169Y-79709242D01*
X189491533Y-79898924D01*
X189491529Y-79898930D01*
X189377118Y-80110342D01*
X189377116Y-80110347D01*
X189299066Y-80337699D01*
X189259500Y-80574809D01*
X189259500Y-80815190D01*
X179100500Y-80815190D01*
X179100500Y-78960300D01*
X179120185Y-78893261D01*
X179172989Y-78847506D01*
X179185482Y-78842599D01*
X179269334Y-78814814D01*
X179418656Y-78722712D01*
X179542712Y-78598656D01*
X179634814Y-78449334D01*
X179689999Y-78282797D01*
X179700500Y-78180009D01*
X179700499Y-77074988D01*
X183189500Y-77074988D01*
X183204379Y-77254559D01*
X183263389Y-77487589D01*
X183359951Y-77707729D01*
X183491427Y-77908966D01*
X183491429Y-77908969D01*
X183654236Y-78085825D01*
X183654239Y-78085827D01*
X183654242Y-78085830D01*
X183843924Y-78233466D01*
X183843930Y-78233470D01*
X183843933Y-78233472D01*
X184055344Y-78347882D01*
X184055347Y-78347883D01*
X184282699Y-78425933D01*
X184282701Y-78425933D01*
X184282703Y-78425934D01*
X184519808Y-78465500D01*
X184519809Y-78465500D01*
X184760191Y-78465500D01*
X184760192Y-78465500D01*
X184997297Y-78425934D01*
X185224656Y-78347882D01*
X185436067Y-78233472D01*
X185625764Y-78085825D01*
X185788571Y-77908969D01*
X185920049Y-77707728D01*
X186016610Y-77487591D01*
X186075620Y-77254563D01*
X186090500Y-77074990D01*
X186090500Y-77074988D01*
X196329500Y-77074988D01*
X196344379Y-77254559D01*
X196403389Y-77487589D01*
X196499951Y-77707729D01*
X196631427Y-77908966D01*
X196631429Y-77908969D01*
X196794236Y-78085825D01*
X196794239Y-78085827D01*
X196794242Y-78085830D01*
X196983924Y-78233466D01*
X196983930Y-78233470D01*
X196983933Y-78233472D01*
X197195344Y-78347882D01*
X197195347Y-78347883D01*
X197422699Y-78425933D01*
X197422701Y-78425933D01*
X197422703Y-78425934D01*
X197659808Y-78465500D01*
X197659809Y-78465500D01*
X197900191Y-78465500D01*
X197900192Y-78465500D01*
X198137297Y-78425934D01*
X198364656Y-78347882D01*
X198576067Y-78233472D01*
X198765764Y-78085825D01*
X198928571Y-77908969D01*
X199060049Y-77707728D01*
X199156610Y-77487591D01*
X199215620Y-77254563D01*
X199230500Y-77074990D01*
X199230500Y-75955010D01*
X199215620Y-75775437D01*
X199156610Y-75542409D01*
X199060049Y-75322272D01*
X199050359Y-75307441D01*
X198966170Y-75178581D01*
X198928571Y-75121031D01*
X198765764Y-74944175D01*
X198765759Y-74944171D01*
X198765757Y-74944169D01*
X198576075Y-74796533D01*
X198576069Y-74796529D01*
X198364657Y-74682118D01*
X198364652Y-74682116D01*
X198137300Y-74604066D01*
X197959468Y-74574391D01*
X197900192Y-74564500D01*
X197659808Y-74564500D01*
X197612387Y-74572413D01*
X197422699Y-74604066D01*
X197195347Y-74682116D01*
X197195342Y-74682118D01*
X196983930Y-74796529D01*
X196983924Y-74796533D01*
X196794242Y-74944169D01*
X196794239Y-74944172D01*
X196631430Y-75121029D01*
X196631427Y-75121033D01*
X196499951Y-75322270D01*
X196403389Y-75542410D01*
X196344379Y-75775440D01*
X196329500Y-75955012D01*
X196329500Y-77074988D01*
X186090500Y-77074988D01*
X186090500Y-75955010D01*
X186087185Y-75915000D01*
X189054571Y-75915000D01*
X189074244Y-76127310D01*
X189132596Y-76332392D01*
X189132596Y-76332394D01*
X189227632Y-76523253D01*
X189338450Y-76669998D01*
X189356128Y-76693407D01*
X189513698Y-76837052D01*
X189694981Y-76949298D01*
X189893802Y-77026321D01*
X190103390Y-77065500D01*
X190103392Y-77065500D01*
X190316608Y-77065500D01*
X190316610Y-77065500D01*
X190526198Y-77026321D01*
X190725019Y-76949298D01*
X190906302Y-76837052D01*
X191063872Y-76693407D01*
X191111046Y-76630938D01*
X191167155Y-76589303D01*
X191236867Y-76584612D01*
X191298049Y-76618354D01*
X191308953Y-76630938D01*
X191356128Y-76693407D01*
X191513698Y-76837052D01*
X191694981Y-76949298D01*
X191893802Y-77026321D01*
X192103390Y-77065500D01*
X192103392Y-77065500D01*
X192316608Y-77065500D01*
X192316610Y-77065500D01*
X192526198Y-77026321D01*
X192725019Y-76949298D01*
X192906302Y-76837052D01*
X193063872Y-76693407D01*
X193192366Y-76523255D01*
X193210000Y-76487840D01*
X193287403Y-76332394D01*
X193287403Y-76332392D01*
X193287405Y-76332389D01*
X193316235Y-76231063D01*
X193353513Y-76171971D01*
X193416823Y-76142414D01*
X193486062Y-76151776D01*
X193539249Y-76197086D01*
X193559496Y-76263957D01*
X193559500Y-76264999D01*
X193559500Y-76612869D01*
X193559501Y-76612876D01*
X193565908Y-76672483D01*
X193616202Y-76807328D01*
X193616206Y-76807335D01*
X193702452Y-76922544D01*
X193702455Y-76922547D01*
X193817664Y-77008793D01*
X193817671Y-77008797D01*
X193952517Y-77059091D01*
X193952516Y-77059091D01*
X193959444Y-77059835D01*
X194012127Y-77065500D01*
X195407872Y-77065499D01*
X195467483Y-77059091D01*
X195602331Y-77008796D01*
X195717546Y-76922546D01*
X195803796Y-76807331D01*
X195854091Y-76672483D01*
X195860500Y-76612873D01*
X195860499Y-75217128D01*
X195854091Y-75157517D01*
X195848261Y-75141887D01*
X195803797Y-75022671D01*
X195803793Y-75022664D01*
X195717547Y-74907455D01*
X195717544Y-74907452D01*
X195602335Y-74821206D01*
X195602328Y-74821202D01*
X195467482Y-74770908D01*
X195467483Y-74770908D01*
X195407883Y-74764501D01*
X195407881Y-74764500D01*
X195407873Y-74764500D01*
X195407864Y-74764500D01*
X194012129Y-74764500D01*
X194012123Y-74764501D01*
X193952516Y-74770908D01*
X193817671Y-74821202D01*
X193817664Y-74821206D01*
X193702455Y-74907452D01*
X193702452Y-74907455D01*
X193616206Y-75022664D01*
X193616202Y-75022671D01*
X193565908Y-75157517D01*
X193559501Y-75217116D01*
X193559501Y-75217123D01*
X193559500Y-75217135D01*
X193559500Y-75564999D01*
X193539815Y-75632038D01*
X193487011Y-75677793D01*
X193417853Y-75687737D01*
X193354297Y-75658712D01*
X193316523Y-75599934D01*
X193316234Y-75598934D01*
X193287405Y-75497611D01*
X193287403Y-75497606D01*
X193287403Y-75497605D01*
X193192367Y-75306746D01*
X193063872Y-75136593D01*
X193014832Y-75091887D01*
X192906302Y-74992948D01*
X192725019Y-74880702D01*
X192725017Y-74880701D01*
X192618934Y-74839605D01*
X192526198Y-74803679D01*
X192316610Y-74764500D01*
X192103390Y-74764500D01*
X191893802Y-74803679D01*
X191893799Y-74803679D01*
X191893799Y-74803680D01*
X191694982Y-74880701D01*
X191694980Y-74880702D01*
X191513699Y-74992947D01*
X191356126Y-75136594D01*
X191308953Y-75199061D01*
X191252844Y-75240696D01*
X191183132Y-75245387D01*
X191121950Y-75211644D01*
X191111047Y-75199061D01*
X191063873Y-75136594D01*
X191063872Y-75136593D01*
X190906302Y-74992948D01*
X190725019Y-74880702D01*
X190725017Y-74880701D01*
X190618934Y-74839605D01*
X190526198Y-74803679D01*
X190316610Y-74764500D01*
X190103390Y-74764500D01*
X189893802Y-74803679D01*
X189893799Y-74803679D01*
X189893799Y-74803680D01*
X189694982Y-74880701D01*
X189694980Y-74880702D01*
X189513699Y-74992947D01*
X189356127Y-75136593D01*
X189227632Y-75306746D01*
X189132596Y-75497605D01*
X189132596Y-75497607D01*
X189074244Y-75702689D01*
X189054571Y-75914999D01*
X189054571Y-75915000D01*
X186087185Y-75915000D01*
X186075620Y-75775437D01*
X186016610Y-75542409D01*
X185920049Y-75322272D01*
X185910359Y-75307441D01*
X185826170Y-75178581D01*
X185788571Y-75121031D01*
X185625764Y-74944175D01*
X185625759Y-74944171D01*
X185625757Y-74944169D01*
X185436075Y-74796533D01*
X185436069Y-74796529D01*
X185224657Y-74682118D01*
X185224652Y-74682116D01*
X184997300Y-74604066D01*
X184819468Y-74574391D01*
X184760192Y-74564500D01*
X184519808Y-74564500D01*
X184472387Y-74572413D01*
X184282699Y-74604066D01*
X184055347Y-74682116D01*
X184055342Y-74682118D01*
X183843930Y-74796529D01*
X183843924Y-74796533D01*
X183654242Y-74944169D01*
X183654239Y-74944172D01*
X183491430Y-75121029D01*
X183491427Y-75121033D01*
X183359951Y-75322270D01*
X183263389Y-75542410D01*
X183204379Y-75775440D01*
X183189500Y-75955012D01*
X183189500Y-77074988D01*
X179700499Y-77074988D01*
X179700499Y-76579992D01*
X179689999Y-76477203D01*
X179634814Y-76310666D01*
X179542712Y-76161344D01*
X179418656Y-76037288D01*
X179285265Y-75955012D01*
X179269336Y-75945187D01*
X179269331Y-75945185D01*
X179267862Y-75944698D01*
X179102797Y-75890001D01*
X179102795Y-75890000D01*
X179000010Y-75879500D01*
X177699998Y-75879500D01*
X177699981Y-75879501D01*
X177597203Y-75890000D01*
X177597200Y-75890001D01*
X177430668Y-75945185D01*
X177430663Y-75945187D01*
X177281342Y-76037289D01*
X177157289Y-76161342D01*
X177065187Y-76310663D01*
X177065185Y-76310668D01*
X177057986Y-76332394D01*
X177010001Y-76477203D01*
X177010001Y-76477204D01*
X177010000Y-76477204D01*
X176999500Y-76579983D01*
X176999500Y-78180001D01*
X170302500Y-78180001D01*
X170302499Y-76579992D01*
X170291999Y-76477203D01*
X170236814Y-76310666D01*
X170144712Y-76161344D01*
X170020656Y-76037288D01*
X169887265Y-75955012D01*
X169871336Y-75945187D01*
X169871331Y-75945185D01*
X169869862Y-75944698D01*
X169704797Y-75890001D01*
X169704795Y-75890000D01*
X169602010Y-75879500D01*
X168301998Y-75879500D01*
X168301981Y-75879501D01*
X168199203Y-75890000D01*
X168199200Y-75890001D01*
X168032668Y-75945185D01*
X168032663Y-75945187D01*
X167883342Y-76037289D01*
X167759289Y-76161342D01*
X167667187Y-76310663D01*
X167667185Y-76310668D01*
X167659986Y-76332394D01*
X167612001Y-76477203D01*
X167612001Y-76477204D01*
X167612000Y-76477204D01*
X167601500Y-76579983D01*
X167601500Y-78180001D01*
X161153801Y-78180001D01*
X161158500Y-78134009D01*
X161158499Y-76533992D01*
X161147999Y-76431203D01*
X161092814Y-76264666D01*
X161000712Y-76115344D01*
X160876656Y-75991288D01*
X160727334Y-75899186D01*
X160560797Y-75844001D01*
X160560795Y-75844000D01*
X160458010Y-75833500D01*
X159157998Y-75833500D01*
X159157981Y-75833501D01*
X159055203Y-75844000D01*
X159055200Y-75844001D01*
X158888668Y-75899185D01*
X158888663Y-75899187D01*
X158739342Y-75991289D01*
X158615289Y-76115342D01*
X158523187Y-76264663D01*
X158523185Y-76264668D01*
X158507944Y-76310663D01*
X158468001Y-76431203D01*
X158468001Y-76431204D01*
X158468000Y-76431204D01*
X158457500Y-76533983D01*
X158457500Y-78134001D01*
X147908500Y-78134001D01*
X147908499Y-76669992D01*
X147899304Y-76579983D01*
X147897999Y-76567203D01*
X147897998Y-76567200D01*
X147886994Y-76533992D01*
X147842814Y-76400666D01*
X147750712Y-76251344D01*
X147626656Y-76127288D01*
X147477334Y-76035186D01*
X147310797Y-75980001D01*
X147310795Y-75980000D01*
X147208010Y-75969500D01*
X145907998Y-75969500D01*
X145907981Y-75969501D01*
X145805203Y-75980000D01*
X145805200Y-75980001D01*
X145638668Y-76035185D01*
X145638663Y-76035187D01*
X145489342Y-76127289D01*
X145365289Y-76251342D01*
X145273187Y-76400663D01*
X145273185Y-76400668D01*
X145247825Y-76477200D01*
X145218001Y-76567203D01*
X145218001Y-76567204D01*
X145218000Y-76567204D01*
X145207500Y-76669983D01*
X145207500Y-78270001D01*
X129289427Y-78270001D01*
X129293275Y-73882565D01*
X129293321Y-73882409D01*
X129293321Y-73832293D01*
X129293396Y-73829244D01*
X129295931Y-73777763D01*
X130945787Y-73777763D01*
X130975413Y-74047013D01*
X130975415Y-74047024D01*
X131023070Y-74229305D01*
X131043928Y-74309088D01*
X131149870Y-74558390D01*
X131252512Y-74726575D01*
X131290979Y-74789605D01*
X131290986Y-74789615D01*
X131464253Y-74997819D01*
X131464259Y-74997824D01*
X131491988Y-75022669D01*
X131665998Y-75178582D01*
X131891910Y-75328044D01*
X132137176Y-75443020D01*
X132137183Y-75443022D01*
X132137185Y-75443023D01*
X132396557Y-75521057D01*
X132396564Y-75521058D01*
X132396569Y-75521060D01*
X132664561Y-75560500D01*
X132664566Y-75560500D01*
X132867636Y-75560500D01*
X132919133Y-75556730D01*
X133070156Y-75545677D01*
X133182758Y-75520593D01*
X133334546Y-75486782D01*
X133334548Y-75486781D01*
X133334553Y-75486780D01*
X133587558Y-75390014D01*
X133823777Y-75257441D01*
X134038177Y-75091888D01*
X134226186Y-74896881D01*
X134383799Y-74676579D01*
X134481942Y-74485690D01*
X134507649Y-74435690D01*
X134507651Y-74435684D01*
X134507656Y-74435675D01*
X134595118Y-74179305D01*
X134644319Y-73912933D01*
X134647432Y-73827763D01*
X204375787Y-73827763D01*
X204405413Y-74097013D01*
X204405415Y-74097024D01*
X204460856Y-74309088D01*
X204473928Y-74359088D01*
X204579870Y-74608390D01*
X204699054Y-74803679D01*
X204720979Y-74839605D01*
X204720986Y-74839615D01*
X204894253Y-75047819D01*
X204894259Y-75047824D01*
X205055649Y-75192429D01*
X205095998Y-75228582D01*
X205321910Y-75378044D01*
X205567176Y-75493020D01*
X205567183Y-75493022D01*
X205567185Y-75493023D01*
X205826557Y-75571057D01*
X205826564Y-75571058D01*
X205826569Y-75571060D01*
X206094561Y-75610500D01*
X206094566Y-75610500D01*
X206297636Y-75610500D01*
X206349133Y-75606730D01*
X206500156Y-75595677D01*
X206658071Y-75560500D01*
X206764546Y-75536782D01*
X206764548Y-75536781D01*
X206764553Y-75536780D01*
X207017558Y-75440014D01*
X207253777Y-75307441D01*
X207468177Y-75141888D01*
X207656186Y-74946881D01*
X207813799Y-74726579D01*
X207887787Y-74582669D01*
X207937649Y-74485690D01*
X207937651Y-74485684D01*
X207937656Y-74485675D01*
X208025118Y-74229305D01*
X208074319Y-73962933D01*
X208084212Y-73692235D01*
X208054586Y-73422982D01*
X207986072Y-73160912D01*
X207880130Y-72911610D01*
X207739018Y-72680390D01*
X207681187Y-72610898D01*
X207565746Y-72472180D01*
X207565740Y-72472175D01*
X207364002Y-72291418D01*
X207138092Y-72141957D01*
X207068296Y-72109238D01*
X206892824Y-72026980D01*
X206892819Y-72026978D01*
X206892814Y-72026976D01*
X206633442Y-71948942D01*
X206633428Y-71948939D01*
X206517791Y-71931921D01*
X206365439Y-71909500D01*
X206162369Y-71909500D01*
X206162364Y-71909500D01*
X205959844Y-71924323D01*
X205959831Y-71924325D01*
X205695453Y-71983217D01*
X205695446Y-71983220D01*
X205442439Y-72079987D01*
X205206226Y-72212557D01*
X204991822Y-72378112D01*
X204803822Y-72573109D01*
X204803816Y-72573116D01*
X204646202Y-72793419D01*
X204646199Y-72793424D01*
X204522350Y-73034309D01*
X204522343Y-73034327D01*
X204434884Y-73290685D01*
X204434881Y-73290699D01*
X204427655Y-73329820D01*
X204402796Y-73464410D01*
X204385681Y-73557068D01*
X204385680Y-73557075D01*
X204375787Y-73827763D01*
X134647432Y-73827763D01*
X134654212Y-73642235D01*
X134624586Y-73372982D01*
X134556072Y-73110912D01*
X134450130Y-72861610D01*
X134309018Y-72630390D01*
X134261357Y-72573119D01*
X134135746Y-72422180D01*
X134135740Y-72422175D01*
X133934002Y-72241418D01*
X133708092Y-72091957D01*
X133682558Y-72079987D01*
X133462824Y-71976980D01*
X133462819Y-71976978D01*
X133462814Y-71976976D01*
X133203442Y-71898942D01*
X133203428Y-71898939D01*
X133087791Y-71881921D01*
X132935439Y-71859500D01*
X132732369Y-71859500D01*
X132732364Y-71859500D01*
X132529844Y-71874323D01*
X132529831Y-71874325D01*
X132265453Y-71933217D01*
X132265446Y-71933220D01*
X132012439Y-72029987D01*
X131776226Y-72162557D01*
X131561822Y-72328112D01*
X131373822Y-72523109D01*
X131373816Y-72523116D01*
X131216202Y-72743419D01*
X131216199Y-72743424D01*
X131092350Y-72984309D01*
X131092343Y-72984327D01*
X131004884Y-73240685D01*
X131004881Y-73240699D01*
X130955681Y-73507068D01*
X130955680Y-73507075D01*
X130945787Y-73777763D01*
X129295931Y-73777763D01*
X129300810Y-73678654D01*
X129311755Y-73470238D01*
X129312337Y-73464449D01*
X129338166Y-73290685D01*
X129367553Y-73105524D01*
X129368646Y-73100179D01*
X129412471Y-72925584D01*
X129460061Y-72748351D01*
X129461550Y-72743592D01*
X129522969Y-72572308D01*
X129588311Y-72402460D01*
X129590114Y-72398251D01*
X129668524Y-72232844D01*
X129750984Y-72071384D01*
X129753029Y-72067698D01*
X129847630Y-71910250D01*
X129946410Y-71758523D01*
X129948574Y-71755415D01*
X130058472Y-71607625D01*
X130172580Y-71467102D01*
X130174769Y-71464556D01*
X130297895Y-71329105D01*
X130299914Y-71326991D01*
X130427162Y-71200139D01*
X130429299Y-71198111D01*
X130565134Y-71075405D01*
X130567660Y-71073249D01*
X130708541Y-70959574D01*
X130856691Y-70850122D01*
X130859805Y-70847969D01*
X131011808Y-70749681D01*
X131169618Y-70655530D01*
X131173253Y-70653529D01*
X131334960Y-70571576D01*
X131500606Y-70493683D01*
X131504843Y-70491882D01*
X131674920Y-70427060D01*
X131846363Y-70366185D01*
X131851120Y-70364713D01*
X132028560Y-70317659D01*
X132203254Y-70274386D01*
X132208569Y-70273317D01*
X132393894Y-70244494D01*
X132518783Y-70226328D01*
X132567678Y-70219216D01*
X132573537Y-70218646D01*
X132772332Y-70208796D01*
X132933667Y-70201355D01*
X132936653Y-70201290D01*
X132985080Y-70201391D01*
G37*
%TD.AperFunction*%
%TD*%
M02*
