M48
; DRILL file {KiCad 7.0.8-7.0.8~ubuntu22.04.1} date Fri 06 Oct 2023 08:49:54 AM EAT
; FORMAT={-:-/ absolute / metric / decimal}
; #@! TF.CreationDate,2023-10-06T08:49:54+03:00
; #@! TF.GenerationSoftware,Kicad,Pcbnew,7.0.8-7.0.8~ubuntu22.04.1
; #@! TF.FileFunction,MixedPlating,1,2
FMAT,2
METRIC
; #@! TA.AperFunction,Plated,PTH,ViaDrill
T1C0.400
; #@! TA.AperFunction,Plated,PTH,ComponentDrill
T2C0.550
; #@! TA.AperFunction,Plated,PTH,ComponentDrill
T3C0.850
; #@! TA.AperFunction,Plated,PTH,ComponentDrill
T4C0.900
; #@! TA.AperFunction,Plated,PTH,ComponentDrill
T5C0.950
; #@! TA.AperFunction,Plated,PTH,ComponentDrill
T6C1.000
; #@! TA.AperFunction,Plated,PTH,ComponentDrill
T7C1.100
; #@! TA.AperFunction,Plated,PTH,ComponentDrill
T8C1.300
; #@! TA.AperFunction,NonPlated,NPTH,ComponentDrill
T9C0.800
; #@! TA.AperFunction,NonPlated,NPTH,ComponentDrill
T10C3.200
%
G90
G05
T1
X138.02Y-130.6
X142.975Y-132.685
X145.93Y-107.55
X145.94Y-106.52
X146.558Y-82.318
X148.65Y-89.29
X148.66Y-99.74
X149.22Y-102.39
X150.0Y-89.29
X150.29Y-127.97
X150.44Y-108.66
X150.54Y-129.01
X151.35Y-108.64
X151.8Y-83.75
X151.92Y-87.78
X153.14Y-123.78
X155.01Y-97.42
X155.26Y-129.92
X157.14Y-86.09
X157.23Y-111.62
X158.9Y-113.98
X159.01Y-95.57
X159.51Y-122.38
X160.91Y-132.43
X161.41Y-104.5
X161.51Y-102.69
X161.52Y-101.53
X161.89Y-97.93
X163.71Y-92.96
X163.87Y-95.22
X164.28Y-136.52
X164.88Y-122.0
X165.1Y-115.67
X165.242Y-124.888
X165.34Y-96.68
X165.9Y-91.11
X167.69Y-93.061
X168.57Y-135.92
X168.9Y-118.84
X169.14Y-104.41
X169.15Y-105.52
X171.17Y-128.2
X171.22Y-125.79
X172.26Y-133.27
X172.57Y-110.61
X172.85Y-139.31
X173.08Y-97.05
X173.41Y-115.88
X173.67Y-142.18
X174.71Y-104.41
X174.88Y-105.48
X175.29Y-109.78
X176.98Y-129.04
X177.18Y-116.23
X177.61Y-94.35
X177.93Y-91.82
X179.04Y-99.14
X181.76Y-109.72
X183.46Y-124.87
X183.49Y-117.98
X183.81Y-122.95
X183.82Y-94.27
X184.85Y-103.14
X184.89Y-104.15
X185.04Y-121.13
X186.65Y-139.7
X186.69Y-90.97
X187.02Y-127.65
X187.19Y-101.55
X187.47Y-108.61
X189.02Y-121.33
X189.6Y-102.1
X189.79Y-126.15
X189.89Y-97.61
X192.42Y-121.92
X193.376Y-91.614
X194.42Y-116.92
X195.548Y-123.842
X199.29Y-103.5
X199.83Y-128.85
X200.95Y-112.97
X200.97Y-112.06
X201.28Y-124.02
X201.3Y-124.89
X201.39Y-134.96
X201.41Y-134.04
X206.45Y-136.84
T4
X187.71Y-75.915
X190.21Y-75.915
X192.21Y-75.915
X194.71Y-75.915
T5
X136.398Y-83.82
X136.398Y-86.32
X136.398Y-88.82
T6
X146.558Y-77.47
X146.578Y-143.517
X149.058Y-77.47
X149.078Y-143.517
X157.308Y-77.334
X159.808Y-77.334
X166.452Y-77.38
X168.952Y-77.38
X175.85Y-77.38
X178.35Y-77.38
X202.077Y-84.23
X202.077Y-86.73
T7
X186.57Y-143.5
X186.57Y-148.0
X193.07Y-143.5
X193.07Y-148.0
T9
X134.905Y-126.781
X134.905Y-131.781
T10
X132.72Y-147.22
X132.8Y-73.71
X206.19Y-147.17
X206.23Y-73.76
T2
G00X132.48Y-125.406
M15
G01X131.83Y-125.406
M16
G05
G00X132.48Y-133.156
M15
G01X131.83Y-133.156
M16
G05
T3
G00X136.23Y-125.556
M15
G01X135.68Y-125.556
M16
G05
G00X136.23Y-133.006
M15
G01X135.68Y-133.006
M16
G05
T8
G00X184.64Y-77.015
M15
G01X184.64Y-76.015
M16
G05
G00X191.71Y-80.695
M15
G01X190.71Y-80.695
M16
G05
G00X197.78Y-76.015
M15
G01X197.78Y-77.015
M16
G05
T0
M30
