%TF.GenerationSoftware,KiCad,Pcbnew,7.0.8-7.0.8~ubuntu22.04.1*%
%TF.CreationDate,2023-10-06T08:49:59+03:00*%
%TF.ProjectId,Omarich EPS stack V1.5,4f6d6172-6963-4682-9045-505320737461,rev?*%
%TF.SameCoordinates,Original*%
%TF.FileFunction,Legend,Bot*%
%TF.FilePolarity,Positive*%
%FSLAX46Y46*%
G04 Gerber Fmt 4.6, Leading zero omitted, Abs format (unit mm)*
G04 Created by KiCad (PCBNEW 7.0.8-7.0.8~ubuntu22.04.1) date 2023-10-06 08:49:59*
%MOMM*%
%LPD*%
G01*
G04 APERTURE LIST*
%ADD10C,0.250000*%
%ADD11C,0.300000*%
%ADD12C,0.500000*%
%ADD13C,0.150000*%
%ADD14C,0.120000*%
G04 APERTURE END LIST*
D10*
X166109336Y-115214619D02*
X165442669Y-115214619D01*
X165156955Y-116262238D02*
X166109336Y-116262238D01*
X166109336Y-116262238D02*
X166109336Y-114262238D01*
X166109336Y-114262238D02*
X165156955Y-114262238D01*
X163442669Y-116262238D02*
X163442669Y-114262238D01*
X163442669Y-116167000D02*
X163633145Y-116262238D01*
X163633145Y-116262238D02*
X164014098Y-116262238D01*
X164014098Y-116262238D02*
X164204574Y-116167000D01*
X164204574Y-116167000D02*
X164299812Y-116071761D01*
X164299812Y-116071761D02*
X164395050Y-115881285D01*
X164395050Y-115881285D02*
X164395050Y-115309857D01*
X164395050Y-115309857D02*
X164299812Y-115119380D01*
X164299812Y-115119380D02*
X164204574Y-115024142D01*
X164204574Y-115024142D02*
X164014098Y-114928904D01*
X164014098Y-114928904D02*
X163633145Y-114928904D01*
X163633145Y-114928904D02*
X163442669Y-115024142D01*
X161633145Y-114928904D02*
X161633145Y-116262238D01*
X162490288Y-114928904D02*
X162490288Y-115976523D01*
X162490288Y-115976523D02*
X162395050Y-116167000D01*
X162395050Y-116167000D02*
X162204574Y-116262238D01*
X162204574Y-116262238D02*
X161918859Y-116262238D01*
X161918859Y-116262238D02*
X161728383Y-116167000D01*
X161728383Y-116167000D02*
X161633145Y-116071761D01*
X160776002Y-116167000D02*
X160585526Y-116262238D01*
X160585526Y-116262238D02*
X160204574Y-116262238D01*
X160204574Y-116262238D02*
X160014097Y-116167000D01*
X160014097Y-116167000D02*
X159918859Y-115976523D01*
X159918859Y-115976523D02*
X159918859Y-115881285D01*
X159918859Y-115881285D02*
X160014097Y-115690809D01*
X160014097Y-115690809D02*
X160204574Y-115595571D01*
X160204574Y-115595571D02*
X160490288Y-115595571D01*
X160490288Y-115595571D02*
X160680764Y-115500333D01*
X160680764Y-115500333D02*
X160776002Y-115309857D01*
X160776002Y-115309857D02*
X160776002Y-115214619D01*
X160776002Y-115214619D02*
X160680764Y-115024142D01*
X160680764Y-115024142D02*
X160490288Y-114928904D01*
X160490288Y-114928904D02*
X160204574Y-114928904D01*
X160204574Y-114928904D02*
X160014097Y-115024142D01*
X158204573Y-116262238D02*
X158204573Y-115214619D01*
X158204573Y-115214619D02*
X158299811Y-115024142D01*
X158299811Y-115024142D02*
X158490287Y-114928904D01*
X158490287Y-114928904D02*
X158871240Y-114928904D01*
X158871240Y-114928904D02*
X159061716Y-115024142D01*
X158204573Y-116167000D02*
X158395049Y-116262238D01*
X158395049Y-116262238D02*
X158871240Y-116262238D01*
X158871240Y-116262238D02*
X159061716Y-116167000D01*
X159061716Y-116167000D02*
X159156954Y-115976523D01*
X159156954Y-115976523D02*
X159156954Y-115786047D01*
X159156954Y-115786047D02*
X159061716Y-115595571D01*
X159061716Y-115595571D02*
X158871240Y-115500333D01*
X158871240Y-115500333D02*
X158395049Y-115500333D01*
X158395049Y-115500333D02*
X158204573Y-115405095D01*
X157537906Y-114928904D02*
X156776002Y-114928904D01*
X157252192Y-114262238D02*
X157252192Y-115976523D01*
X157252192Y-115976523D02*
X157156954Y-116167000D01*
X157156954Y-116167000D02*
X156966478Y-116262238D01*
X156966478Y-116262238D02*
X156776002Y-116262238D01*
X154585525Y-116262238D02*
X154585525Y-114262238D01*
X153442668Y-116262238D02*
X154299811Y-115119380D01*
X153442668Y-114262238D02*
X154585525Y-115405095D01*
X152585525Y-116262238D02*
X152585525Y-114928904D01*
X152585525Y-114262238D02*
X152680763Y-114357476D01*
X152680763Y-114357476D02*
X152585525Y-114452714D01*
X152585525Y-114452714D02*
X152490287Y-114357476D01*
X152490287Y-114357476D02*
X152585525Y-114262238D01*
X152585525Y-114262238D02*
X152585525Y-114452714D01*
X151918858Y-114928904D02*
X151156954Y-114928904D01*
X151633144Y-114262238D02*
X151633144Y-115976523D01*
X151633144Y-115976523D02*
X151537906Y-116167000D01*
X151537906Y-116167000D02*
X151347430Y-116262238D01*
X151347430Y-116262238D02*
X151156954Y-116262238D01*
D11*
X166145489Y-118515114D02*
X165645489Y-118515114D01*
X165431203Y-119300828D02*
X166145489Y-119300828D01*
X166145489Y-119300828D02*
X166145489Y-117800828D01*
X166145489Y-117800828D02*
X165431203Y-117800828D01*
X164788346Y-119300828D02*
X164788346Y-117800828D01*
X164788346Y-117800828D02*
X164216917Y-117800828D01*
X164216917Y-117800828D02*
X164074060Y-117872257D01*
X164074060Y-117872257D02*
X164002631Y-117943685D01*
X164002631Y-117943685D02*
X163931203Y-118086542D01*
X163931203Y-118086542D02*
X163931203Y-118300828D01*
X163931203Y-118300828D02*
X164002631Y-118443685D01*
X164002631Y-118443685D02*
X164074060Y-118515114D01*
X164074060Y-118515114D02*
X164216917Y-118586542D01*
X164216917Y-118586542D02*
X164788346Y-118586542D01*
X163359774Y-119229400D02*
X163145489Y-119300828D01*
X163145489Y-119300828D02*
X162788346Y-119300828D01*
X162788346Y-119300828D02*
X162645489Y-119229400D01*
X162645489Y-119229400D02*
X162574060Y-119157971D01*
X162574060Y-119157971D02*
X162502631Y-119015114D01*
X162502631Y-119015114D02*
X162502631Y-118872257D01*
X162502631Y-118872257D02*
X162574060Y-118729400D01*
X162574060Y-118729400D02*
X162645489Y-118657971D01*
X162645489Y-118657971D02*
X162788346Y-118586542D01*
X162788346Y-118586542D02*
X163074060Y-118515114D01*
X163074060Y-118515114D02*
X163216917Y-118443685D01*
X163216917Y-118443685D02*
X163288346Y-118372257D01*
X163288346Y-118372257D02*
X163359774Y-118229400D01*
X163359774Y-118229400D02*
X163359774Y-118086542D01*
X163359774Y-118086542D02*
X163288346Y-117943685D01*
X163288346Y-117943685D02*
X163216917Y-117872257D01*
X163216917Y-117872257D02*
X163074060Y-117800828D01*
X163074060Y-117800828D02*
X162716917Y-117800828D01*
X162716917Y-117800828D02*
X162502631Y-117872257D01*
X160716918Y-119300828D02*
X160716918Y-117800828D01*
X160716918Y-118372257D02*
X160574061Y-118300828D01*
X160574061Y-118300828D02*
X160288346Y-118300828D01*
X160288346Y-118300828D02*
X160145489Y-118372257D01*
X160145489Y-118372257D02*
X160074061Y-118443685D01*
X160074061Y-118443685D02*
X160002632Y-118586542D01*
X160002632Y-118586542D02*
X160002632Y-119015114D01*
X160002632Y-119015114D02*
X160074061Y-119157971D01*
X160074061Y-119157971D02*
X160145489Y-119229400D01*
X160145489Y-119229400D02*
X160288346Y-119300828D01*
X160288346Y-119300828D02*
X160574061Y-119300828D01*
X160574061Y-119300828D02*
X160716918Y-119229400D01*
X159145489Y-119300828D02*
X159288346Y-119229400D01*
X159288346Y-119229400D02*
X159359775Y-119157971D01*
X159359775Y-119157971D02*
X159431203Y-119015114D01*
X159431203Y-119015114D02*
X159431203Y-118586542D01*
X159431203Y-118586542D02*
X159359775Y-118443685D01*
X159359775Y-118443685D02*
X159288346Y-118372257D01*
X159288346Y-118372257D02*
X159145489Y-118300828D01*
X159145489Y-118300828D02*
X158931203Y-118300828D01*
X158931203Y-118300828D02*
X158788346Y-118372257D01*
X158788346Y-118372257D02*
X158716918Y-118443685D01*
X158716918Y-118443685D02*
X158645489Y-118586542D01*
X158645489Y-118586542D02*
X158645489Y-119015114D01*
X158645489Y-119015114D02*
X158716918Y-119157971D01*
X158716918Y-119157971D02*
X158788346Y-119229400D01*
X158788346Y-119229400D02*
X158931203Y-119300828D01*
X158931203Y-119300828D02*
X159145489Y-119300828D01*
X157359775Y-119300828D02*
X157359775Y-118515114D01*
X157359775Y-118515114D02*
X157431203Y-118372257D01*
X157431203Y-118372257D02*
X157574060Y-118300828D01*
X157574060Y-118300828D02*
X157859775Y-118300828D01*
X157859775Y-118300828D02*
X158002632Y-118372257D01*
X157359775Y-119229400D02*
X157502632Y-119300828D01*
X157502632Y-119300828D02*
X157859775Y-119300828D01*
X157859775Y-119300828D02*
X158002632Y-119229400D01*
X158002632Y-119229400D02*
X158074060Y-119086542D01*
X158074060Y-119086542D02*
X158074060Y-118943685D01*
X158074060Y-118943685D02*
X158002632Y-118800828D01*
X158002632Y-118800828D02*
X157859775Y-118729400D01*
X157859775Y-118729400D02*
X157502632Y-118729400D01*
X157502632Y-118729400D02*
X157359775Y-118657971D01*
X156645489Y-119300828D02*
X156645489Y-118300828D01*
X156645489Y-118586542D02*
X156574060Y-118443685D01*
X156574060Y-118443685D02*
X156502632Y-118372257D01*
X156502632Y-118372257D02*
X156359774Y-118300828D01*
X156359774Y-118300828D02*
X156216917Y-118300828D01*
X155074061Y-119300828D02*
X155074061Y-117800828D01*
X155074061Y-119229400D02*
X155216918Y-119300828D01*
X155216918Y-119300828D02*
X155502632Y-119300828D01*
X155502632Y-119300828D02*
X155645489Y-119229400D01*
X155645489Y-119229400D02*
X155716918Y-119157971D01*
X155716918Y-119157971D02*
X155788346Y-119015114D01*
X155788346Y-119015114D02*
X155788346Y-118586542D01*
X155788346Y-118586542D02*
X155716918Y-118443685D01*
X155716918Y-118443685D02*
X155645489Y-118372257D01*
X155645489Y-118372257D02*
X155502632Y-118300828D01*
X155502632Y-118300828D02*
X155216918Y-118300828D01*
X155216918Y-118300828D02*
X155074061Y-118372257D01*
D12*
X165969624Y-110538047D02*
X165493433Y-110538047D01*
X165493433Y-110538047D02*
X165255338Y-110657095D01*
X165255338Y-110657095D02*
X165017243Y-110895190D01*
X165017243Y-110895190D02*
X164898195Y-111371380D01*
X164898195Y-111371380D02*
X164898195Y-112204714D01*
X164898195Y-112204714D02*
X165017243Y-112680904D01*
X165017243Y-112680904D02*
X165255338Y-112919000D01*
X165255338Y-112919000D02*
X165493433Y-113038047D01*
X165493433Y-113038047D02*
X165969624Y-113038047D01*
X165969624Y-113038047D02*
X166207719Y-112919000D01*
X166207719Y-112919000D02*
X166445814Y-112680904D01*
X166445814Y-112680904D02*
X166564862Y-112204714D01*
X166564862Y-112204714D02*
X166564862Y-111371380D01*
X166564862Y-111371380D02*
X166445814Y-110895190D01*
X166445814Y-110895190D02*
X166207719Y-110657095D01*
X166207719Y-110657095D02*
X165969624Y-110538047D01*
X163826766Y-113038047D02*
X163826766Y-110538047D01*
X163826766Y-110538047D02*
X162993433Y-112323761D01*
X162993433Y-112323761D02*
X162160100Y-110538047D01*
X162160100Y-110538047D02*
X162160100Y-113038047D01*
X161088671Y-112323761D02*
X159898195Y-112323761D01*
X161326766Y-113038047D02*
X160493433Y-110538047D01*
X160493433Y-110538047D02*
X159660100Y-113038047D01*
X157398195Y-113038047D02*
X158231528Y-111847571D01*
X158826766Y-113038047D02*
X158826766Y-110538047D01*
X158826766Y-110538047D02*
X157874385Y-110538047D01*
X157874385Y-110538047D02*
X157636290Y-110657095D01*
X157636290Y-110657095D02*
X157517243Y-110776142D01*
X157517243Y-110776142D02*
X157398195Y-111014238D01*
X157398195Y-111014238D02*
X157398195Y-111371380D01*
X157398195Y-111371380D02*
X157517243Y-111609476D01*
X157517243Y-111609476D02*
X157636290Y-111728523D01*
X157636290Y-111728523D02*
X157874385Y-111847571D01*
X157874385Y-111847571D02*
X158826766Y-111847571D01*
X156326766Y-113038047D02*
X156326766Y-110538047D01*
X153707719Y-112799952D02*
X153826767Y-112919000D01*
X153826767Y-112919000D02*
X154183909Y-113038047D01*
X154183909Y-113038047D02*
X154422005Y-113038047D01*
X154422005Y-113038047D02*
X154779148Y-112919000D01*
X154779148Y-112919000D02*
X155017243Y-112680904D01*
X155017243Y-112680904D02*
X155136290Y-112442809D01*
X155136290Y-112442809D02*
X155255338Y-111966619D01*
X155255338Y-111966619D02*
X155255338Y-111609476D01*
X155255338Y-111609476D02*
X155136290Y-111133285D01*
X155136290Y-111133285D02*
X155017243Y-110895190D01*
X155017243Y-110895190D02*
X154779148Y-110657095D01*
X154779148Y-110657095D02*
X154422005Y-110538047D01*
X154422005Y-110538047D02*
X154183909Y-110538047D01*
X154183909Y-110538047D02*
X153826767Y-110657095D01*
X153826767Y-110657095D02*
X153707719Y-110776142D01*
X152636290Y-113038047D02*
X152636290Y-110538047D01*
X152636290Y-111728523D02*
X151207719Y-111728523D01*
X151207719Y-113038047D02*
X151207719Y-110538047D01*
X150017242Y-111728523D02*
X149183909Y-111728523D01*
X148826766Y-113038047D02*
X150017242Y-113038047D01*
X150017242Y-113038047D02*
X150017242Y-110538047D01*
X150017242Y-110538047D02*
X148826766Y-110538047D01*
X148112480Y-110538047D02*
X146683909Y-110538047D01*
X147398195Y-113038047D02*
X147398195Y-110538047D01*
X145850575Y-112799952D02*
X145731528Y-112919000D01*
X145731528Y-112919000D02*
X145850575Y-113038047D01*
X145850575Y-113038047D02*
X145969623Y-112919000D01*
X145969623Y-112919000D02*
X145850575Y-112799952D01*
X145850575Y-112799952D02*
X145850575Y-113038047D01*
X144779147Y-112919000D02*
X144422004Y-113038047D01*
X144422004Y-113038047D02*
X143826766Y-113038047D01*
X143826766Y-113038047D02*
X143588671Y-112919000D01*
X143588671Y-112919000D02*
X143469623Y-112799952D01*
X143469623Y-112799952D02*
X143350576Y-112561857D01*
X143350576Y-112561857D02*
X143350576Y-112323761D01*
X143350576Y-112323761D02*
X143469623Y-112085666D01*
X143469623Y-112085666D02*
X143588671Y-111966619D01*
X143588671Y-111966619D02*
X143826766Y-111847571D01*
X143826766Y-111847571D02*
X144302957Y-111728523D01*
X144302957Y-111728523D02*
X144541052Y-111609476D01*
X144541052Y-111609476D02*
X144660099Y-111490428D01*
X144660099Y-111490428D02*
X144779147Y-111252333D01*
X144779147Y-111252333D02*
X144779147Y-111014238D01*
X144779147Y-111014238D02*
X144660099Y-110776142D01*
X144660099Y-110776142D02*
X144541052Y-110657095D01*
X144541052Y-110657095D02*
X144302957Y-110538047D01*
X144302957Y-110538047D02*
X143707718Y-110538047D01*
X143707718Y-110538047D02*
X143350576Y-110657095D01*
X142279147Y-113038047D02*
X142279147Y-110538047D01*
X142279147Y-110538047D02*
X141326766Y-110538047D01*
X141326766Y-110538047D02*
X141088671Y-110657095D01*
X141088671Y-110657095D02*
X140969624Y-110776142D01*
X140969624Y-110776142D02*
X140850576Y-111014238D01*
X140850576Y-111014238D02*
X140850576Y-111371380D01*
X140850576Y-111371380D02*
X140969624Y-111609476D01*
X140969624Y-111609476D02*
X141088671Y-111728523D01*
X141088671Y-111728523D02*
X141326766Y-111847571D01*
X141326766Y-111847571D02*
X142279147Y-111847571D01*
X139898195Y-112323761D02*
X138707719Y-112323761D01*
X140136290Y-113038047D02*
X139302957Y-110538047D01*
X139302957Y-110538047D02*
X138469624Y-113038047D01*
X136207719Y-112799952D02*
X136326767Y-112919000D01*
X136326767Y-112919000D02*
X136683909Y-113038047D01*
X136683909Y-113038047D02*
X136922005Y-113038047D01*
X136922005Y-113038047D02*
X137279148Y-112919000D01*
X137279148Y-112919000D02*
X137517243Y-112680904D01*
X137517243Y-112680904D02*
X137636290Y-112442809D01*
X137636290Y-112442809D02*
X137755338Y-111966619D01*
X137755338Y-111966619D02*
X137755338Y-111609476D01*
X137755338Y-111609476D02*
X137636290Y-111133285D01*
X137636290Y-111133285D02*
X137517243Y-110895190D01*
X137517243Y-110895190D02*
X137279148Y-110657095D01*
X137279148Y-110657095D02*
X136922005Y-110538047D01*
X136922005Y-110538047D02*
X136683909Y-110538047D01*
X136683909Y-110538047D02*
X136326767Y-110657095D01*
X136326767Y-110657095D02*
X136207719Y-110776142D01*
X135136290Y-111728523D02*
X134302957Y-111728523D01*
X133945814Y-113038047D02*
X135136290Y-113038047D01*
X135136290Y-113038047D02*
X135136290Y-110538047D01*
X135136290Y-110538047D02*
X133945814Y-110538047D01*
D13*
X179229523Y-79904819D02*
X179229523Y-80619104D01*
X179229523Y-80619104D02*
X179277142Y-80761961D01*
X179277142Y-80761961D02*
X179372380Y-80857200D01*
X179372380Y-80857200D02*
X179515237Y-80904819D01*
X179515237Y-80904819D02*
X179610475Y-80904819D01*
X178229523Y-80904819D02*
X178800951Y-80904819D01*
X178515237Y-80904819D02*
X178515237Y-79904819D01*
X178515237Y-79904819D02*
X178610475Y-80047676D01*
X178610475Y-80047676D02*
X178705713Y-80142914D01*
X178705713Y-80142914D02*
X178800951Y-80190533D01*
X177848570Y-80000057D02*
X177800951Y-79952438D01*
X177800951Y-79952438D02*
X177705713Y-79904819D01*
X177705713Y-79904819D02*
X177467618Y-79904819D01*
X177467618Y-79904819D02*
X177372380Y-79952438D01*
X177372380Y-79952438D02*
X177324761Y-80000057D01*
X177324761Y-80000057D02*
X177277142Y-80095295D01*
X177277142Y-80095295D02*
X177277142Y-80190533D01*
X177277142Y-80190533D02*
X177324761Y-80333390D01*
X177324761Y-80333390D02*
X177896189Y-80904819D01*
X177896189Y-80904819D02*
X177277142Y-80904819D01*
X169859523Y-79964819D02*
X169859523Y-80679104D01*
X169859523Y-80679104D02*
X169907142Y-80821961D01*
X169907142Y-80821961D02*
X170002380Y-80917200D01*
X170002380Y-80917200D02*
X170145237Y-80964819D01*
X170145237Y-80964819D02*
X170240475Y-80964819D01*
X168859523Y-80964819D02*
X169430951Y-80964819D01*
X169145237Y-80964819D02*
X169145237Y-79964819D01*
X169145237Y-79964819D02*
X169240475Y-80107676D01*
X169240475Y-80107676D02*
X169335713Y-80202914D01*
X169335713Y-80202914D02*
X169430951Y-80250533D01*
X167907142Y-80964819D02*
X168478570Y-80964819D01*
X168192856Y-80964819D02*
X168192856Y-79964819D01*
X168192856Y-79964819D02*
X168288094Y-80107676D01*
X168288094Y-80107676D02*
X168383332Y-80202914D01*
X168383332Y-80202914D02*
X168478570Y-80250533D01*
X162399523Y-79794819D02*
X162399523Y-80509104D01*
X162399523Y-80509104D02*
X162447142Y-80651961D01*
X162447142Y-80651961D02*
X162542380Y-80747200D01*
X162542380Y-80747200D02*
X162685237Y-80794819D01*
X162685237Y-80794819D02*
X162780475Y-80794819D01*
X161399523Y-80794819D02*
X161970951Y-80794819D01*
X161685237Y-80794819D02*
X161685237Y-79794819D01*
X161685237Y-79794819D02*
X161780475Y-79937676D01*
X161780475Y-79937676D02*
X161875713Y-80032914D01*
X161875713Y-80032914D02*
X161970951Y-80080533D01*
X160780475Y-79794819D02*
X160685237Y-79794819D01*
X160685237Y-79794819D02*
X160589999Y-79842438D01*
X160589999Y-79842438D02*
X160542380Y-79890057D01*
X160542380Y-79890057D02*
X160494761Y-79985295D01*
X160494761Y-79985295D02*
X160447142Y-80175771D01*
X160447142Y-80175771D02*
X160447142Y-80413866D01*
X160447142Y-80413866D02*
X160494761Y-80604342D01*
X160494761Y-80604342D02*
X160542380Y-80699580D01*
X160542380Y-80699580D02*
X160589999Y-80747200D01*
X160589999Y-80747200D02*
X160685237Y-80794819D01*
X160685237Y-80794819D02*
X160780475Y-80794819D01*
X160780475Y-80794819D02*
X160875713Y-80747200D01*
X160875713Y-80747200D02*
X160923332Y-80699580D01*
X160923332Y-80699580D02*
X160970951Y-80604342D01*
X160970951Y-80604342D02*
X161018570Y-80413866D01*
X161018570Y-80413866D02*
X161018570Y-80175771D01*
X161018570Y-80175771D02*
X160970951Y-79985295D01*
X160970951Y-79985295D02*
X160923332Y-79890057D01*
X160923332Y-79890057D02*
X160875713Y-79842438D01*
X160875713Y-79842438D02*
X160780475Y-79794819D01*
D14*
%TO.C,J12*%
X180960000Y-78990000D02*
X180960000Y-70570000D01*
X180960000Y-71790000D02*
X179740000Y-71790000D01*
X180960000Y-70570000D02*
X173240000Y-70570000D01*
X179740000Y-78990000D02*
X180960000Y-78990000D01*
X179740000Y-76790000D02*
X180960000Y-76790000D01*
X179740000Y-76790000D02*
X179740000Y-78990000D01*
X179740000Y-75790000D02*
X174460000Y-75790000D01*
X179740000Y-71790000D02*
X179740000Y-76790000D01*
X178670000Y-75790000D02*
X178670000Y-72370000D01*
X178670000Y-72370000D02*
X178350000Y-72290000D01*
X178650000Y-79480000D02*
X178050000Y-79480000D01*
X178350000Y-78880000D02*
X178650000Y-79480000D01*
X178350000Y-75790000D02*
X178670000Y-75790000D01*
X178350000Y-72290000D02*
X178030000Y-72370000D01*
X178050000Y-79480000D02*
X178350000Y-78880000D01*
X178030000Y-75790000D02*
X178350000Y-75790000D01*
X178030000Y-72370000D02*
X178030000Y-75790000D01*
X177180000Y-76790000D02*
X177020000Y-76790000D01*
X176170000Y-75790000D02*
X176170000Y-72370000D01*
X176170000Y-72370000D02*
X175850000Y-72290000D01*
X175850000Y-75790000D02*
X176170000Y-75790000D01*
X175850000Y-72290000D02*
X175530000Y-72370000D01*
X175530000Y-75790000D02*
X175850000Y-75790000D01*
X175530000Y-72370000D02*
X175530000Y-75790000D01*
X174460000Y-78990000D02*
X174460000Y-76790000D01*
X174460000Y-76790000D02*
X173240000Y-76790000D01*
X174460000Y-71790000D02*
X174460000Y-76790000D01*
X173240000Y-78990000D02*
X174460000Y-78990000D01*
X173240000Y-71790000D02*
X174460000Y-71790000D01*
X173240000Y-70570000D02*
X173240000Y-78990000D01*
%TO.C,J11*%
X171562000Y-78990000D02*
X171562000Y-70570000D01*
X171562000Y-71790000D02*
X170342000Y-71790000D01*
X171562000Y-70570000D02*
X163842000Y-70570000D01*
X170342000Y-78990000D02*
X171562000Y-78990000D01*
X170342000Y-76790000D02*
X171562000Y-76790000D01*
X170342000Y-76790000D02*
X170342000Y-78990000D01*
X170342000Y-75790000D02*
X165062000Y-75790000D01*
X170342000Y-71790000D02*
X170342000Y-76790000D01*
X169272000Y-75790000D02*
X169272000Y-72370000D01*
X169272000Y-72370000D02*
X168952000Y-72290000D01*
X169252000Y-79480000D02*
X168652000Y-79480000D01*
X168952000Y-78880000D02*
X169252000Y-79480000D01*
X168952000Y-75790000D02*
X169272000Y-75790000D01*
X168952000Y-72290000D02*
X168632000Y-72370000D01*
X168652000Y-79480000D02*
X168952000Y-78880000D01*
X168632000Y-75790000D02*
X168952000Y-75790000D01*
X168632000Y-72370000D02*
X168632000Y-75790000D01*
X167782000Y-76790000D02*
X167622000Y-76790000D01*
X166772000Y-75790000D02*
X166772000Y-72370000D01*
X166772000Y-72370000D02*
X166452000Y-72290000D01*
X166452000Y-75790000D02*
X166772000Y-75790000D01*
X166452000Y-72290000D02*
X166132000Y-72370000D01*
X166132000Y-75790000D02*
X166452000Y-75790000D01*
X166132000Y-72370000D02*
X166132000Y-75790000D01*
X165062000Y-78990000D02*
X165062000Y-76790000D01*
X165062000Y-76790000D02*
X163842000Y-76790000D01*
X165062000Y-71790000D02*
X165062000Y-76790000D01*
X163842000Y-78990000D02*
X165062000Y-78990000D01*
X163842000Y-71790000D02*
X165062000Y-71790000D01*
X163842000Y-70570000D02*
X163842000Y-78990000D01*
%TO.C,J10*%
X162418000Y-78944000D02*
X162418000Y-70524000D01*
X162418000Y-71744000D02*
X161198000Y-71744000D01*
X162418000Y-70524000D02*
X154698000Y-70524000D01*
X161198000Y-78944000D02*
X162418000Y-78944000D01*
X161198000Y-76744000D02*
X162418000Y-76744000D01*
X161198000Y-76744000D02*
X161198000Y-78944000D01*
X161198000Y-75744000D02*
X155918000Y-75744000D01*
X161198000Y-71744000D02*
X161198000Y-76744000D01*
X160128000Y-75744000D02*
X160128000Y-72324000D01*
X160128000Y-72324000D02*
X159808000Y-72244000D01*
X160108000Y-79434000D02*
X159508000Y-79434000D01*
X159808000Y-78834000D02*
X160108000Y-79434000D01*
X159808000Y-75744000D02*
X160128000Y-75744000D01*
X159808000Y-72244000D02*
X159488000Y-72324000D01*
X159508000Y-79434000D02*
X159808000Y-78834000D01*
X159488000Y-75744000D02*
X159808000Y-75744000D01*
X159488000Y-72324000D02*
X159488000Y-75744000D01*
X158638000Y-76744000D02*
X158478000Y-76744000D01*
X157628000Y-75744000D02*
X157628000Y-72324000D01*
X157628000Y-72324000D02*
X157308000Y-72244000D01*
X157308000Y-75744000D02*
X157628000Y-75744000D01*
X157308000Y-72244000D02*
X156988000Y-72324000D01*
X156988000Y-75744000D02*
X157308000Y-75744000D01*
X156988000Y-72324000D02*
X156988000Y-75744000D01*
X155918000Y-78944000D02*
X155918000Y-76744000D01*
X155918000Y-76744000D02*
X154698000Y-76744000D01*
X155918000Y-71744000D02*
X155918000Y-76744000D01*
X154698000Y-78944000D02*
X155918000Y-78944000D01*
X154698000Y-71744000D02*
X155918000Y-71744000D01*
X154698000Y-70524000D02*
X154698000Y-78944000D01*
%TD*%
M02*
