%TF.GenerationSoftware,KiCad,Pcbnew,7.0.8-7.0.8~ubuntu22.04.1*%
%TF.CreationDate,2023-10-06T08:49:59+03:00*%
%TF.ProjectId,Omarich EPS stack V1.5,4f6d6172-6963-4682-9045-505320737461,rev?*%
%TF.SameCoordinates,Original*%
%TF.FileFunction,Legend,Top*%
%TF.FilePolarity,Positive*%
%FSLAX46Y46*%
G04 Gerber Fmt 4.6, Leading zero omitted, Abs format (unit mm)*
G04 Created by KiCad (PCBNEW 7.0.8-7.0.8~ubuntu22.04.1) date 2023-10-06 08:49:59*
%MOMM*%
%LPD*%
G01*
G04 APERTURE LIST*
%ADD10C,0.150000*%
%ADD11C,0.250000*%
%ADD12C,0.300000*%
%ADD13C,0.600000*%
%ADD14C,0.200000*%
%ADD15C,0.254000*%
%ADD16C,0.100000*%
%ADD17C,0.120000*%
G04 APERTURE END LIST*
D10*
X201310000Y-92600000D02*
X206390000Y-92600000D01*
X206390000Y-100980000D01*
X201310000Y-100980000D01*
X201310000Y-92600000D01*
X201310000Y-97170000D02*
X206390000Y-97170000D01*
X203840000Y-104730000D02*
X204610000Y-103650000D01*
X203810000Y-102240000D02*
X203840000Y-104730000D01*
X203850000Y-92600000D02*
X203850000Y-100980000D01*
X203840000Y-104730000D02*
X203070000Y-103830000D01*
D11*
X198243000Y-83384949D02*
X198195380Y-83480187D01*
X198195380Y-83480187D02*
X198195380Y-83670663D01*
X198195380Y-83670663D02*
X198243000Y-83765901D01*
X198243000Y-83765901D02*
X198338238Y-83813520D01*
X198338238Y-83813520D02*
X198385857Y-83813520D01*
X198385857Y-83813520D02*
X198481095Y-83765901D01*
X198481095Y-83765901D02*
X198528714Y-83670663D01*
X198528714Y-83670663D02*
X198528714Y-83527806D01*
X198528714Y-83527806D02*
X198576333Y-83432568D01*
X198576333Y-83432568D02*
X198671571Y-83384949D01*
X198671571Y-83384949D02*
X198719190Y-83384949D01*
X198719190Y-83384949D02*
X198814428Y-83432568D01*
X198814428Y-83432568D02*
X198862047Y-83527806D01*
X198862047Y-83527806D02*
X198862047Y-83670663D01*
X198862047Y-83670663D02*
X198814428Y-83765901D01*
X198862047Y-84146854D02*
X198195380Y-84337330D01*
X198195380Y-84337330D02*
X198671571Y-84527806D01*
X198671571Y-84527806D02*
X198195380Y-84718282D01*
X198195380Y-84718282D02*
X198862047Y-84908758D01*
X198195380Y-85289711D02*
X198862047Y-85289711D01*
X199195380Y-85289711D02*
X199147761Y-85242092D01*
X199147761Y-85242092D02*
X199100142Y-85289711D01*
X199100142Y-85289711D02*
X199147761Y-85337330D01*
X199147761Y-85337330D02*
X199195380Y-85289711D01*
X199195380Y-85289711D02*
X199100142Y-85289711D01*
X198862047Y-85623044D02*
X198862047Y-86003996D01*
X199195380Y-85765901D02*
X198338238Y-85765901D01*
X198338238Y-85765901D02*
X198243000Y-85813520D01*
X198243000Y-85813520D02*
X198195380Y-85908758D01*
X198195380Y-85908758D02*
X198195380Y-86003996D01*
X198243000Y-86765901D02*
X198195380Y-86670663D01*
X198195380Y-86670663D02*
X198195380Y-86480187D01*
X198195380Y-86480187D02*
X198243000Y-86384949D01*
X198243000Y-86384949D02*
X198290619Y-86337330D01*
X198290619Y-86337330D02*
X198385857Y-86289711D01*
X198385857Y-86289711D02*
X198671571Y-86289711D01*
X198671571Y-86289711D02*
X198766809Y-86337330D01*
X198766809Y-86337330D02*
X198814428Y-86384949D01*
X198814428Y-86384949D02*
X198862047Y-86480187D01*
X198862047Y-86480187D02*
X198862047Y-86670663D01*
X198862047Y-86670663D02*
X198814428Y-86765901D01*
X198195380Y-87194473D02*
X199195380Y-87194473D01*
X198195380Y-87623044D02*
X198719190Y-87623044D01*
X198719190Y-87623044D02*
X198814428Y-87575425D01*
X198814428Y-87575425D02*
X198862047Y-87480187D01*
X198862047Y-87480187D02*
X198862047Y-87337330D01*
X198862047Y-87337330D02*
X198814428Y-87242092D01*
X198814428Y-87242092D02*
X198766809Y-87194473D01*
D10*
X207066295Y-100891316D02*
X207256771Y-100915125D01*
X207180580Y-101096077D02*
X207256771Y-100915125D01*
X207256771Y-100915125D02*
X207180580Y-100715125D01*
X207409152Y-101048458D02*
X207256771Y-100915125D01*
X207256771Y-100915125D02*
X207409152Y-100819887D01*
X207866295Y-100534172D02*
X207066295Y-99824649D01*
X207066295Y-100319887D02*
X207104390Y-100248458D01*
X207104390Y-100248458D02*
X207180580Y-100219887D01*
X207180580Y-100219887D02*
X207256771Y-100267506D01*
X207256771Y-100267506D02*
X207294866Y-100348458D01*
X207294866Y-100348458D02*
X207256771Y-100419887D01*
X207256771Y-100419887D02*
X207180580Y-100448458D01*
X207180580Y-100448458D02*
X207104390Y-100400839D01*
X207104390Y-100400839D02*
X207066295Y-100319887D01*
X207828200Y-99957982D02*
X207752009Y-99910363D01*
X207752009Y-99910363D02*
X207675819Y-99938934D01*
X207675819Y-99938934D02*
X207637723Y-100010363D01*
X207637723Y-100010363D02*
X207675819Y-100091315D01*
X207675819Y-100091315D02*
X207752009Y-100138934D01*
X207752009Y-100138934D02*
X207828200Y-100110363D01*
X207828200Y-100110363D02*
X207866295Y-100038934D01*
X207866295Y-100038934D02*
X207828200Y-99957982D01*
X207866295Y-98972267D02*
X207332961Y-98905601D01*
X207485342Y-98924648D02*
X207409152Y-98877029D01*
X207409152Y-98877029D02*
X207371057Y-98834172D01*
X207371057Y-98834172D02*
X207332961Y-98753220D01*
X207332961Y-98753220D02*
X207332961Y-98677029D01*
X207828200Y-98167505D02*
X207866295Y-98248458D01*
X207866295Y-98248458D02*
X207866295Y-98400839D01*
X207866295Y-98400839D02*
X207828200Y-98472267D01*
X207828200Y-98472267D02*
X207752009Y-98500839D01*
X207752009Y-98500839D02*
X207447247Y-98462744D01*
X207447247Y-98462744D02*
X207371057Y-98415124D01*
X207371057Y-98415124D02*
X207332961Y-98334172D01*
X207332961Y-98334172D02*
X207332961Y-98181791D01*
X207332961Y-98181791D02*
X207371057Y-98110363D01*
X207371057Y-98110363D02*
X207447247Y-98081791D01*
X207447247Y-98081791D02*
X207523438Y-98091315D01*
X207523438Y-98091315D02*
X207599628Y-98481791D01*
X207332961Y-97724649D02*
X208132961Y-97824649D01*
X207371057Y-97729410D02*
X207332961Y-97648458D01*
X207332961Y-97648458D02*
X207332961Y-97496077D01*
X207332961Y-97496077D02*
X207371057Y-97424649D01*
X207371057Y-97424649D02*
X207409152Y-97391315D01*
X207409152Y-97391315D02*
X207485342Y-97362744D01*
X207485342Y-97362744D02*
X207713914Y-97391315D01*
X207713914Y-97391315D02*
X207790104Y-97438934D01*
X207790104Y-97438934D02*
X207828200Y-97481791D01*
X207828200Y-97481791D02*
X207866295Y-97562744D01*
X207866295Y-97562744D02*
X207866295Y-97715125D01*
X207866295Y-97715125D02*
X207828200Y-97786553D01*
X207790104Y-97057981D02*
X207828200Y-97024648D01*
X207828200Y-97024648D02*
X207866295Y-97067505D01*
X207866295Y-97067505D02*
X207828200Y-97100839D01*
X207828200Y-97100839D02*
X207790104Y-97057981D01*
X207790104Y-97057981D02*
X207866295Y-97067505D01*
X207866295Y-96077029D02*
X207066295Y-95977029D01*
X207371057Y-96015124D02*
X207332961Y-95934172D01*
X207332961Y-95934172D02*
X207332961Y-95781791D01*
X207332961Y-95781791D02*
X207371057Y-95710363D01*
X207371057Y-95710363D02*
X207409152Y-95677029D01*
X207409152Y-95677029D02*
X207485342Y-95648458D01*
X207485342Y-95648458D02*
X207713914Y-95677029D01*
X207713914Y-95677029D02*
X207790104Y-95724648D01*
X207790104Y-95724648D02*
X207828200Y-95767505D01*
X207828200Y-95767505D02*
X207866295Y-95848458D01*
X207866295Y-95848458D02*
X207866295Y-96000839D01*
X207866295Y-96000839D02*
X207828200Y-96072267D01*
X207332961Y-95362743D02*
X207866295Y-95238934D01*
X207332961Y-94981791D02*
X207866295Y-95238934D01*
X207866295Y-95238934D02*
X208056771Y-95338934D01*
X208056771Y-95338934D02*
X208094866Y-95381791D01*
X208094866Y-95381791D02*
X208132961Y-95462743D01*
X207866295Y-93753219D02*
X207866295Y-94134171D01*
X207866295Y-94134171D02*
X207066295Y-94034171D01*
X207447247Y-93434171D02*
X207447247Y-93167505D01*
X207866295Y-93105600D02*
X207866295Y-93486552D01*
X207866295Y-93486552D02*
X207066295Y-93386552D01*
X207066295Y-93386552D02*
X207066295Y-93005600D01*
X207866295Y-92762742D02*
X207066295Y-92662742D01*
X207066295Y-92662742D02*
X207066295Y-92472266D01*
X207066295Y-92472266D02*
X207104390Y-92362742D01*
X207104390Y-92362742D02*
X207180580Y-92296076D01*
X207180580Y-92296076D02*
X207256771Y-92267504D01*
X207256771Y-92267504D02*
X207409152Y-92248457D01*
X207409152Y-92248457D02*
X207523438Y-92262742D01*
X207523438Y-92262742D02*
X207675819Y-92319885D01*
X207675819Y-92319885D02*
X207752009Y-92367504D01*
X207752009Y-92367504D02*
X207828200Y-92453218D01*
X207828200Y-92453218D02*
X207866295Y-92572266D01*
X207866295Y-92572266D02*
X207866295Y-92762742D01*
X208620961Y-100429411D02*
X209420961Y-100529411D01*
X208659057Y-100434172D02*
X208620961Y-100353220D01*
X208620961Y-100353220D02*
X208620961Y-100200839D01*
X208620961Y-100200839D02*
X208659057Y-100129411D01*
X208659057Y-100129411D02*
X208697152Y-100096077D01*
X208697152Y-100096077D02*
X208773342Y-100067506D01*
X208773342Y-100067506D02*
X209001914Y-100096077D01*
X209001914Y-100096077D02*
X209078104Y-100143696D01*
X209078104Y-100143696D02*
X209116200Y-100186553D01*
X209116200Y-100186553D02*
X209154295Y-100267506D01*
X209154295Y-100267506D02*
X209154295Y-100419887D01*
X209154295Y-100419887D02*
X209116200Y-100491315D01*
X209154295Y-99657982D02*
X209116200Y-99729410D01*
X209116200Y-99729410D02*
X209078104Y-99762743D01*
X209078104Y-99762743D02*
X209001914Y-99791315D01*
X209001914Y-99791315D02*
X208773342Y-99762743D01*
X208773342Y-99762743D02*
X208697152Y-99715124D01*
X208697152Y-99715124D02*
X208659057Y-99672267D01*
X208659057Y-99672267D02*
X208620961Y-99591315D01*
X208620961Y-99591315D02*
X208620961Y-99477029D01*
X208620961Y-99477029D02*
X208659057Y-99405601D01*
X208659057Y-99405601D02*
X208697152Y-99372267D01*
X208697152Y-99372267D02*
X208773342Y-99343696D01*
X208773342Y-99343696D02*
X209001914Y-99372267D01*
X209001914Y-99372267D02*
X209078104Y-99419886D01*
X209078104Y-99419886D02*
X209116200Y-99462743D01*
X209116200Y-99462743D02*
X209154295Y-99543696D01*
X209154295Y-99543696D02*
X209154295Y-99657982D01*
X209116200Y-99081791D02*
X209154295Y-99010362D01*
X209154295Y-99010362D02*
X209154295Y-98857981D01*
X209154295Y-98857981D02*
X209116200Y-98777029D01*
X209116200Y-98777029D02*
X209040009Y-98729410D01*
X209040009Y-98729410D02*
X209001914Y-98724648D01*
X209001914Y-98724648D02*
X208925723Y-98753219D01*
X208925723Y-98753219D02*
X208887628Y-98824648D01*
X208887628Y-98824648D02*
X208887628Y-98938933D01*
X208887628Y-98938933D02*
X208849533Y-99010362D01*
X208849533Y-99010362D02*
X208773342Y-99038933D01*
X208773342Y-99038933D02*
X208735247Y-99034172D01*
X208735247Y-99034172D02*
X208659057Y-98986552D01*
X208659057Y-98986552D02*
X208620961Y-98905600D01*
X208620961Y-98905600D02*
X208620961Y-98791314D01*
X208620961Y-98791314D02*
X208659057Y-98719886D01*
X209154295Y-98400838D02*
X208620961Y-98334172D01*
X208354295Y-98300838D02*
X208392390Y-98343695D01*
X208392390Y-98343695D02*
X208430485Y-98310362D01*
X208430485Y-98310362D02*
X208392390Y-98267505D01*
X208392390Y-98267505D02*
X208354295Y-98300838D01*
X208354295Y-98300838D02*
X208430485Y-98310362D01*
X208620961Y-98067505D02*
X208620961Y-97762743D01*
X208354295Y-97919886D02*
X209040009Y-98005601D01*
X209040009Y-98005601D02*
X209116200Y-97977029D01*
X209116200Y-97977029D02*
X209154295Y-97905601D01*
X209154295Y-97905601D02*
X209154295Y-97829410D01*
X209154295Y-97562743D02*
X208620961Y-97496077D01*
X208354295Y-97462743D02*
X208392390Y-97505600D01*
X208392390Y-97505600D02*
X208430485Y-97472267D01*
X208430485Y-97472267D02*
X208392390Y-97429410D01*
X208392390Y-97429410D02*
X208354295Y-97462743D01*
X208354295Y-97462743D02*
X208430485Y-97472267D01*
X209154295Y-97067506D02*
X209116200Y-97138934D01*
X209116200Y-97138934D02*
X209078104Y-97172267D01*
X209078104Y-97172267D02*
X209001914Y-97200839D01*
X209001914Y-97200839D02*
X208773342Y-97172267D01*
X208773342Y-97172267D02*
X208697152Y-97124648D01*
X208697152Y-97124648D02*
X208659057Y-97081791D01*
X208659057Y-97081791D02*
X208620961Y-97000839D01*
X208620961Y-97000839D02*
X208620961Y-96886553D01*
X208620961Y-96886553D02*
X208659057Y-96815125D01*
X208659057Y-96815125D02*
X208697152Y-96781791D01*
X208697152Y-96781791D02*
X208773342Y-96753220D01*
X208773342Y-96753220D02*
X209001914Y-96781791D01*
X209001914Y-96781791D02*
X209078104Y-96829410D01*
X209078104Y-96829410D02*
X209116200Y-96872267D01*
X209116200Y-96872267D02*
X209154295Y-96953220D01*
X209154295Y-96953220D02*
X209154295Y-97067506D01*
X208620961Y-96391315D02*
X209154295Y-96457981D01*
X208697152Y-96400838D02*
X208659057Y-96357981D01*
X208659057Y-96357981D02*
X208620961Y-96277029D01*
X208620961Y-96277029D02*
X208620961Y-96162743D01*
X208620961Y-96162743D02*
X208659057Y-96091315D01*
X208659057Y-96091315D02*
X208735247Y-96062743D01*
X208735247Y-96062743D02*
X209154295Y-96115124D01*
D12*
X136475114Y-104755489D02*
X136475114Y-104255489D01*
X137260828Y-104041203D02*
X137260828Y-104755489D01*
X137260828Y-104755489D02*
X135760828Y-104755489D01*
X135760828Y-104755489D02*
X135760828Y-104041203D01*
X137260828Y-103398346D02*
X135760828Y-103398346D01*
X135760828Y-103398346D02*
X135760828Y-102826917D01*
X135760828Y-102826917D02*
X135832257Y-102684060D01*
X135832257Y-102684060D02*
X135903685Y-102612631D01*
X135903685Y-102612631D02*
X136046542Y-102541203D01*
X136046542Y-102541203D02*
X136260828Y-102541203D01*
X136260828Y-102541203D02*
X136403685Y-102612631D01*
X136403685Y-102612631D02*
X136475114Y-102684060D01*
X136475114Y-102684060D02*
X136546542Y-102826917D01*
X136546542Y-102826917D02*
X136546542Y-103398346D01*
X137189400Y-101969774D02*
X137260828Y-101755489D01*
X137260828Y-101755489D02*
X137260828Y-101398346D01*
X137260828Y-101398346D02*
X137189400Y-101255489D01*
X137189400Y-101255489D02*
X137117971Y-101184060D01*
X137117971Y-101184060D02*
X136975114Y-101112631D01*
X136975114Y-101112631D02*
X136832257Y-101112631D01*
X136832257Y-101112631D02*
X136689400Y-101184060D01*
X136689400Y-101184060D02*
X136617971Y-101255489D01*
X136617971Y-101255489D02*
X136546542Y-101398346D01*
X136546542Y-101398346D02*
X136475114Y-101684060D01*
X136475114Y-101684060D02*
X136403685Y-101826917D01*
X136403685Y-101826917D02*
X136332257Y-101898346D01*
X136332257Y-101898346D02*
X136189400Y-101969774D01*
X136189400Y-101969774D02*
X136046542Y-101969774D01*
X136046542Y-101969774D02*
X135903685Y-101898346D01*
X135903685Y-101898346D02*
X135832257Y-101826917D01*
X135832257Y-101826917D02*
X135760828Y-101684060D01*
X135760828Y-101684060D02*
X135760828Y-101326917D01*
X135760828Y-101326917D02*
X135832257Y-101112631D01*
X136475114Y-98826918D02*
X136546542Y-98612632D01*
X136546542Y-98612632D02*
X136617971Y-98541203D01*
X136617971Y-98541203D02*
X136760828Y-98469775D01*
X136760828Y-98469775D02*
X136975114Y-98469775D01*
X136975114Y-98469775D02*
X137117971Y-98541203D01*
X137117971Y-98541203D02*
X137189400Y-98612632D01*
X137189400Y-98612632D02*
X137260828Y-98755489D01*
X137260828Y-98755489D02*
X137260828Y-99326918D01*
X137260828Y-99326918D02*
X135760828Y-99326918D01*
X135760828Y-99326918D02*
X135760828Y-98826918D01*
X135760828Y-98826918D02*
X135832257Y-98684061D01*
X135832257Y-98684061D02*
X135903685Y-98612632D01*
X135903685Y-98612632D02*
X136046542Y-98541203D01*
X136046542Y-98541203D02*
X136189400Y-98541203D01*
X136189400Y-98541203D02*
X136332257Y-98612632D01*
X136332257Y-98612632D02*
X136403685Y-98684061D01*
X136403685Y-98684061D02*
X136475114Y-98826918D01*
X136475114Y-98826918D02*
X136475114Y-99326918D01*
X137260828Y-97612632D02*
X137189400Y-97755489D01*
X137189400Y-97755489D02*
X137117971Y-97826918D01*
X137117971Y-97826918D02*
X136975114Y-97898346D01*
X136975114Y-97898346D02*
X136546542Y-97898346D01*
X136546542Y-97898346D02*
X136403685Y-97826918D01*
X136403685Y-97826918D02*
X136332257Y-97755489D01*
X136332257Y-97755489D02*
X136260828Y-97612632D01*
X136260828Y-97612632D02*
X136260828Y-97398346D01*
X136260828Y-97398346D02*
X136332257Y-97255489D01*
X136332257Y-97255489D02*
X136403685Y-97184061D01*
X136403685Y-97184061D02*
X136546542Y-97112632D01*
X136546542Y-97112632D02*
X136975114Y-97112632D01*
X136975114Y-97112632D02*
X137117971Y-97184061D01*
X137117971Y-97184061D02*
X137189400Y-97255489D01*
X137189400Y-97255489D02*
X137260828Y-97398346D01*
X137260828Y-97398346D02*
X137260828Y-97612632D01*
X137260828Y-95826918D02*
X136475114Y-95826918D01*
X136475114Y-95826918D02*
X136332257Y-95898346D01*
X136332257Y-95898346D02*
X136260828Y-96041203D01*
X136260828Y-96041203D02*
X136260828Y-96326918D01*
X136260828Y-96326918D02*
X136332257Y-96469775D01*
X137189400Y-95826918D02*
X137260828Y-95969775D01*
X137260828Y-95969775D02*
X137260828Y-96326918D01*
X137260828Y-96326918D02*
X137189400Y-96469775D01*
X137189400Y-96469775D02*
X137046542Y-96541203D01*
X137046542Y-96541203D02*
X136903685Y-96541203D01*
X136903685Y-96541203D02*
X136760828Y-96469775D01*
X136760828Y-96469775D02*
X136689400Y-96326918D01*
X136689400Y-96326918D02*
X136689400Y-95969775D01*
X136689400Y-95969775D02*
X136617971Y-95826918D01*
X137260828Y-95112632D02*
X136260828Y-95112632D01*
X136546542Y-95112632D02*
X136403685Y-95041203D01*
X136403685Y-95041203D02*
X136332257Y-94969775D01*
X136332257Y-94969775D02*
X136260828Y-94826917D01*
X136260828Y-94826917D02*
X136260828Y-94684060D01*
X137260828Y-93541204D02*
X135760828Y-93541204D01*
X137189400Y-93541204D02*
X137260828Y-93684061D01*
X137260828Y-93684061D02*
X137260828Y-93969775D01*
X137260828Y-93969775D02*
X137189400Y-94112632D01*
X137189400Y-94112632D02*
X137117971Y-94184061D01*
X137117971Y-94184061D02*
X136975114Y-94255489D01*
X136975114Y-94255489D02*
X136546542Y-94255489D01*
X136546542Y-94255489D02*
X136403685Y-94184061D01*
X136403685Y-94184061D02*
X136332257Y-94112632D01*
X136332257Y-94112632D02*
X136260828Y-93969775D01*
X136260828Y-93969775D02*
X136260828Y-93684061D01*
X136260828Y-93684061D02*
X136332257Y-93541204D01*
X199145114Y-110325489D02*
X199216542Y-110111203D01*
X199216542Y-110111203D02*
X199287971Y-110039774D01*
X199287971Y-110039774D02*
X199430828Y-109968346D01*
X199430828Y-109968346D02*
X199645114Y-109968346D01*
X199645114Y-109968346D02*
X199787971Y-110039774D01*
X199787971Y-110039774D02*
X199859400Y-110111203D01*
X199859400Y-110111203D02*
X199930828Y-110254060D01*
X199930828Y-110254060D02*
X199930828Y-110825489D01*
X199930828Y-110825489D02*
X198430828Y-110825489D01*
X198430828Y-110825489D02*
X198430828Y-110325489D01*
X198430828Y-110325489D02*
X198502257Y-110182632D01*
X198502257Y-110182632D02*
X198573685Y-110111203D01*
X198573685Y-110111203D02*
X198716542Y-110039774D01*
X198716542Y-110039774D02*
X198859400Y-110039774D01*
X198859400Y-110039774D02*
X199002257Y-110111203D01*
X199002257Y-110111203D02*
X199073685Y-110182632D01*
X199073685Y-110182632D02*
X199145114Y-110325489D01*
X199145114Y-110325489D02*
X199145114Y-110825489D01*
X199502257Y-109396917D02*
X199502257Y-108682632D01*
X199930828Y-109539774D02*
X198430828Y-109039774D01*
X198430828Y-109039774D02*
X199930828Y-108539774D01*
X198430828Y-108254060D02*
X198430828Y-107396918D01*
X199930828Y-107825489D02*
X198430828Y-107825489D01*
X199930828Y-106111203D02*
X199930828Y-106968346D01*
X199930828Y-106539775D02*
X198430828Y-106539775D01*
X198430828Y-106539775D02*
X198645114Y-106682632D01*
X198645114Y-106682632D02*
X198787971Y-106825489D01*
X198787971Y-106825489D02*
X198859400Y-106968346D01*
D13*
X136130228Y-121910978D02*
X136130228Y-120910978D01*
X137701657Y-120482406D02*
X137701657Y-121910978D01*
X137701657Y-121910978D02*
X134701657Y-121910978D01*
X134701657Y-121910978D02*
X134701657Y-120482406D01*
X137701657Y-119196692D02*
X134701657Y-119196692D01*
X134701657Y-119196692D02*
X134701657Y-118482406D01*
X134701657Y-118482406D02*
X134844514Y-118053835D01*
X134844514Y-118053835D02*
X135130228Y-117768120D01*
X135130228Y-117768120D02*
X135415942Y-117625263D01*
X135415942Y-117625263D02*
X135987371Y-117482406D01*
X135987371Y-117482406D02*
X136415942Y-117482406D01*
X136415942Y-117482406D02*
X136987371Y-117625263D01*
X136987371Y-117625263D02*
X137273085Y-117768120D01*
X137273085Y-117768120D02*
X137558800Y-118053835D01*
X137558800Y-118053835D02*
X137701657Y-118482406D01*
X137701657Y-118482406D02*
X137701657Y-119196692D01*
X134701657Y-116196692D02*
X137130228Y-116196692D01*
X137130228Y-116196692D02*
X137415942Y-116053835D01*
X137415942Y-116053835D02*
X137558800Y-115910978D01*
X137558800Y-115910978D02*
X137701657Y-115625263D01*
X137701657Y-115625263D02*
X137701657Y-115053835D01*
X137701657Y-115053835D02*
X137558800Y-114768120D01*
X137558800Y-114768120D02*
X137415942Y-114625263D01*
X137415942Y-114625263D02*
X137130228Y-114482406D01*
X137130228Y-114482406D02*
X134701657Y-114482406D01*
X137558800Y-113196692D02*
X137701657Y-112768121D01*
X137701657Y-112768121D02*
X137701657Y-112053835D01*
X137701657Y-112053835D02*
X137558800Y-111768121D01*
X137558800Y-111768121D02*
X137415942Y-111625263D01*
X137415942Y-111625263D02*
X137130228Y-111482406D01*
X137130228Y-111482406D02*
X136844514Y-111482406D01*
X136844514Y-111482406D02*
X136558800Y-111625263D01*
X136558800Y-111625263D02*
X136415942Y-111768121D01*
X136415942Y-111768121D02*
X136273085Y-112053835D01*
X136273085Y-112053835D02*
X136130228Y-112625263D01*
X136130228Y-112625263D02*
X135987371Y-112910978D01*
X135987371Y-112910978D02*
X135844514Y-113053835D01*
X135844514Y-113053835D02*
X135558800Y-113196692D01*
X135558800Y-113196692D02*
X135273085Y-113196692D01*
X135273085Y-113196692D02*
X134987371Y-113053835D01*
X134987371Y-113053835D02*
X134844514Y-112910978D01*
X134844514Y-112910978D02*
X134701657Y-112625263D01*
X134701657Y-112625263D02*
X134701657Y-111910978D01*
X134701657Y-111910978D02*
X134844514Y-111482406D01*
X136844514Y-110339549D02*
X136844514Y-108910978D01*
X137701657Y-110625263D02*
X134701657Y-109625263D01*
X134701657Y-109625263D02*
X137701657Y-108625263D01*
X134701657Y-108053834D02*
X134701657Y-106339549D01*
X137701657Y-107196691D02*
X134701657Y-107196691D01*
D10*
X205449819Y-96329411D02*
X205449819Y-96900839D01*
X205449819Y-96615125D02*
X204449819Y-96615125D01*
X204449819Y-96615125D02*
X204592676Y-96710363D01*
X204592676Y-96710363D02*
X204687914Y-96805601D01*
X204687914Y-96805601D02*
X204735533Y-96900839D01*
X204449819Y-95710363D02*
X204449819Y-95615125D01*
X204449819Y-95615125D02*
X204497438Y-95519887D01*
X204497438Y-95519887D02*
X204545057Y-95472268D01*
X204545057Y-95472268D02*
X204640295Y-95424649D01*
X204640295Y-95424649D02*
X204830771Y-95377030D01*
X204830771Y-95377030D02*
X205068866Y-95377030D01*
X205068866Y-95377030D02*
X205259342Y-95424649D01*
X205259342Y-95424649D02*
X205354580Y-95472268D01*
X205354580Y-95472268D02*
X205402200Y-95519887D01*
X205402200Y-95519887D02*
X205449819Y-95615125D01*
X205449819Y-95615125D02*
X205449819Y-95710363D01*
X205449819Y-95710363D02*
X205402200Y-95805601D01*
X205402200Y-95805601D02*
X205354580Y-95853220D01*
X205354580Y-95853220D02*
X205259342Y-95900839D01*
X205259342Y-95900839D02*
X205068866Y-95948458D01*
X205068866Y-95948458D02*
X204830771Y-95948458D01*
X204830771Y-95948458D02*
X204640295Y-95900839D01*
X204640295Y-95900839D02*
X204545057Y-95853220D01*
X204545057Y-95853220D02*
X204497438Y-95805601D01*
X204497438Y-95805601D02*
X204449819Y-95710363D01*
X204449819Y-94757982D02*
X204449819Y-94662744D01*
X204449819Y-94662744D02*
X204497438Y-94567506D01*
X204497438Y-94567506D02*
X204545057Y-94519887D01*
X204545057Y-94519887D02*
X204640295Y-94472268D01*
X204640295Y-94472268D02*
X204830771Y-94424649D01*
X204830771Y-94424649D02*
X205068866Y-94424649D01*
X205068866Y-94424649D02*
X205259342Y-94472268D01*
X205259342Y-94472268D02*
X205354580Y-94519887D01*
X205354580Y-94519887D02*
X205402200Y-94567506D01*
X205402200Y-94567506D02*
X205449819Y-94662744D01*
X205449819Y-94662744D02*
X205449819Y-94757982D01*
X205449819Y-94757982D02*
X205402200Y-94853220D01*
X205402200Y-94853220D02*
X205354580Y-94900839D01*
X205354580Y-94900839D02*
X205259342Y-94948458D01*
X205259342Y-94948458D02*
X205068866Y-94996077D01*
X205068866Y-94996077D02*
X204830771Y-94996077D01*
X204830771Y-94996077D02*
X204640295Y-94948458D01*
X204640295Y-94948458D02*
X204545057Y-94900839D01*
X204545057Y-94900839D02*
X204497438Y-94853220D01*
X204497438Y-94853220D02*
X204449819Y-94757982D01*
X205449819Y-94043696D02*
X204449819Y-93281792D01*
X204449819Y-93900839D02*
X204497438Y-93805601D01*
X204497438Y-93805601D02*
X204592676Y-93757982D01*
X204592676Y-93757982D02*
X204687914Y-93805601D01*
X204687914Y-93805601D02*
X204735533Y-93900839D01*
X204735533Y-93900839D02*
X204687914Y-93996077D01*
X204687914Y-93996077D02*
X204592676Y-94043696D01*
X204592676Y-94043696D02*
X204497438Y-93996077D01*
X204497438Y-93996077D02*
X204449819Y-93900839D01*
X205402200Y-93329411D02*
X205306961Y-93281792D01*
X205306961Y-93281792D02*
X205211723Y-93329411D01*
X205211723Y-93329411D02*
X205164104Y-93424649D01*
X205164104Y-93424649D02*
X205211723Y-93519887D01*
X205211723Y-93519887D02*
X205306961Y-93567506D01*
X205306961Y-93567506D02*
X205402200Y-93519887D01*
X205402200Y-93519887D02*
X205449819Y-93424649D01*
X205449819Y-93424649D02*
X205402200Y-93329411D01*
X202125057Y-100180839D02*
X202077438Y-100133220D01*
X202077438Y-100133220D02*
X202029819Y-100037982D01*
X202029819Y-100037982D02*
X202029819Y-99799887D01*
X202029819Y-99799887D02*
X202077438Y-99704649D01*
X202077438Y-99704649D02*
X202125057Y-99657030D01*
X202125057Y-99657030D02*
X202220295Y-99609411D01*
X202220295Y-99609411D02*
X202315533Y-99609411D01*
X202315533Y-99609411D02*
X202458390Y-99657030D01*
X202458390Y-99657030D02*
X203029819Y-100228458D01*
X203029819Y-100228458D02*
X203029819Y-99609411D01*
X202029819Y-98704649D02*
X202029819Y-99180839D01*
X202029819Y-99180839D02*
X202506009Y-99228458D01*
X202506009Y-99228458D02*
X202458390Y-99180839D01*
X202458390Y-99180839D02*
X202410771Y-99085601D01*
X202410771Y-99085601D02*
X202410771Y-98847506D01*
X202410771Y-98847506D02*
X202458390Y-98752268D01*
X202458390Y-98752268D02*
X202506009Y-98704649D01*
X202506009Y-98704649D02*
X202601247Y-98657030D01*
X202601247Y-98657030D02*
X202839342Y-98657030D01*
X202839342Y-98657030D02*
X202934580Y-98704649D01*
X202934580Y-98704649D02*
X202982200Y-98752268D01*
X202982200Y-98752268D02*
X203029819Y-98847506D01*
X203029819Y-98847506D02*
X203029819Y-99085601D01*
X203029819Y-99085601D02*
X202982200Y-99180839D01*
X202982200Y-99180839D02*
X202934580Y-99228458D01*
X203029819Y-98276077D02*
X202029819Y-97514173D01*
X202029819Y-98133220D02*
X202077438Y-98037982D01*
X202077438Y-98037982D02*
X202172676Y-97990363D01*
X202172676Y-97990363D02*
X202267914Y-98037982D01*
X202267914Y-98037982D02*
X202315533Y-98133220D01*
X202315533Y-98133220D02*
X202267914Y-98228458D01*
X202267914Y-98228458D02*
X202172676Y-98276077D01*
X202172676Y-98276077D02*
X202077438Y-98228458D01*
X202077438Y-98228458D02*
X202029819Y-98133220D01*
X202982200Y-97561792D02*
X202886961Y-97514173D01*
X202886961Y-97514173D02*
X202791723Y-97561792D01*
X202791723Y-97561792D02*
X202744104Y-97657030D01*
X202744104Y-97657030D02*
X202791723Y-97752268D01*
X202791723Y-97752268D02*
X202886961Y-97799887D01*
X202886961Y-97799887D02*
X202982200Y-97752268D01*
X202982200Y-97752268D02*
X203029819Y-97657030D01*
X203029819Y-97657030D02*
X202982200Y-97561792D01*
X202029819Y-96498458D02*
X202029819Y-95831792D01*
X202029819Y-95831792D02*
X203029819Y-96260363D01*
X202029819Y-94974649D02*
X202029819Y-95450839D01*
X202029819Y-95450839D02*
X202506009Y-95498458D01*
X202506009Y-95498458D02*
X202458390Y-95450839D01*
X202458390Y-95450839D02*
X202410771Y-95355601D01*
X202410771Y-95355601D02*
X202410771Y-95117506D01*
X202410771Y-95117506D02*
X202458390Y-95022268D01*
X202458390Y-95022268D02*
X202506009Y-94974649D01*
X202506009Y-94974649D02*
X202601247Y-94927030D01*
X202601247Y-94927030D02*
X202839342Y-94927030D01*
X202839342Y-94927030D02*
X202934580Y-94974649D01*
X202934580Y-94974649D02*
X202982200Y-95022268D01*
X202982200Y-95022268D02*
X203029819Y-95117506D01*
X203029819Y-95117506D02*
X203029819Y-95355601D01*
X203029819Y-95355601D02*
X202982200Y-95450839D01*
X202982200Y-95450839D02*
X202934580Y-95498458D01*
X203029819Y-94546077D02*
X202029819Y-93784173D01*
X202029819Y-94403220D02*
X202077438Y-94307982D01*
X202077438Y-94307982D02*
X202172676Y-94260363D01*
X202172676Y-94260363D02*
X202267914Y-94307982D01*
X202267914Y-94307982D02*
X202315533Y-94403220D01*
X202315533Y-94403220D02*
X202267914Y-94498458D01*
X202267914Y-94498458D02*
X202172676Y-94546077D01*
X202172676Y-94546077D02*
X202077438Y-94498458D01*
X202077438Y-94498458D02*
X202029819Y-94403220D01*
X202982200Y-93831792D02*
X202886961Y-93784173D01*
X202886961Y-93784173D02*
X202791723Y-93831792D01*
X202791723Y-93831792D02*
X202744104Y-93927030D01*
X202744104Y-93927030D02*
X202791723Y-94022268D01*
X202791723Y-94022268D02*
X202886961Y-94069887D01*
X202886961Y-94069887D02*
X202982200Y-94022268D01*
X202982200Y-94022268D02*
X203029819Y-93927030D01*
X203029819Y-93927030D02*
X202982200Y-93831792D01*
X204479819Y-99847030D02*
X204479819Y-100323220D01*
X204479819Y-100323220D02*
X204956009Y-100370839D01*
X204956009Y-100370839D02*
X204908390Y-100323220D01*
X204908390Y-100323220D02*
X204860771Y-100227982D01*
X204860771Y-100227982D02*
X204860771Y-99989887D01*
X204860771Y-99989887D02*
X204908390Y-99894649D01*
X204908390Y-99894649D02*
X204956009Y-99847030D01*
X204956009Y-99847030D02*
X205051247Y-99799411D01*
X205051247Y-99799411D02*
X205289342Y-99799411D01*
X205289342Y-99799411D02*
X205384580Y-99847030D01*
X205384580Y-99847030D02*
X205432200Y-99894649D01*
X205432200Y-99894649D02*
X205479819Y-99989887D01*
X205479819Y-99989887D02*
X205479819Y-100227982D01*
X205479819Y-100227982D02*
X205432200Y-100323220D01*
X205432200Y-100323220D02*
X205384580Y-100370839D01*
X204479819Y-99180363D02*
X204479819Y-99085125D01*
X204479819Y-99085125D02*
X204527438Y-98989887D01*
X204527438Y-98989887D02*
X204575057Y-98942268D01*
X204575057Y-98942268D02*
X204670295Y-98894649D01*
X204670295Y-98894649D02*
X204860771Y-98847030D01*
X204860771Y-98847030D02*
X205098866Y-98847030D01*
X205098866Y-98847030D02*
X205289342Y-98894649D01*
X205289342Y-98894649D02*
X205384580Y-98942268D01*
X205384580Y-98942268D02*
X205432200Y-98989887D01*
X205432200Y-98989887D02*
X205479819Y-99085125D01*
X205479819Y-99085125D02*
X205479819Y-99180363D01*
X205479819Y-99180363D02*
X205432200Y-99275601D01*
X205432200Y-99275601D02*
X205384580Y-99323220D01*
X205384580Y-99323220D02*
X205289342Y-99370839D01*
X205289342Y-99370839D02*
X205098866Y-99418458D01*
X205098866Y-99418458D02*
X204860771Y-99418458D01*
X204860771Y-99418458D02*
X204670295Y-99370839D01*
X204670295Y-99370839D02*
X204575057Y-99323220D01*
X204575057Y-99323220D02*
X204527438Y-99275601D01*
X204527438Y-99275601D02*
X204479819Y-99180363D01*
X205479819Y-98466077D02*
X204479819Y-97704173D01*
X204479819Y-98323220D02*
X204527438Y-98227982D01*
X204527438Y-98227982D02*
X204622676Y-98180363D01*
X204622676Y-98180363D02*
X204717914Y-98227982D01*
X204717914Y-98227982D02*
X204765533Y-98323220D01*
X204765533Y-98323220D02*
X204717914Y-98418458D01*
X204717914Y-98418458D02*
X204622676Y-98466077D01*
X204622676Y-98466077D02*
X204527438Y-98418458D01*
X204527438Y-98418458D02*
X204479819Y-98323220D01*
X205432200Y-97751792D02*
X205336961Y-97704173D01*
X205336961Y-97704173D02*
X205241723Y-97751792D01*
X205241723Y-97751792D02*
X205194104Y-97847030D01*
X205194104Y-97847030D02*
X205241723Y-97942268D01*
X205241723Y-97942268D02*
X205336961Y-97989887D01*
X205336961Y-97989887D02*
X205432200Y-97942268D01*
X205432200Y-97942268D02*
X205479819Y-97847030D01*
X205479819Y-97847030D02*
X205432200Y-97751792D01*
D12*
X199325114Y-121565489D02*
X199396542Y-121351203D01*
X199396542Y-121351203D02*
X199467971Y-121279774D01*
X199467971Y-121279774D02*
X199610828Y-121208346D01*
X199610828Y-121208346D02*
X199825114Y-121208346D01*
X199825114Y-121208346D02*
X199967971Y-121279774D01*
X199967971Y-121279774D02*
X200039400Y-121351203D01*
X200039400Y-121351203D02*
X200110828Y-121494060D01*
X200110828Y-121494060D02*
X200110828Y-122065489D01*
X200110828Y-122065489D02*
X198610828Y-122065489D01*
X198610828Y-122065489D02*
X198610828Y-121565489D01*
X198610828Y-121565489D02*
X198682257Y-121422632D01*
X198682257Y-121422632D02*
X198753685Y-121351203D01*
X198753685Y-121351203D02*
X198896542Y-121279774D01*
X198896542Y-121279774D02*
X199039400Y-121279774D01*
X199039400Y-121279774D02*
X199182257Y-121351203D01*
X199182257Y-121351203D02*
X199253685Y-121422632D01*
X199253685Y-121422632D02*
X199325114Y-121565489D01*
X199325114Y-121565489D02*
X199325114Y-122065489D01*
X199682257Y-120636917D02*
X199682257Y-119922632D01*
X200110828Y-120779774D02*
X198610828Y-120279774D01*
X198610828Y-120279774D02*
X200110828Y-119779774D01*
X198610828Y-119494060D02*
X198610828Y-118636918D01*
X200110828Y-119065489D02*
X198610828Y-119065489D01*
X198753685Y-118208346D02*
X198682257Y-118136918D01*
X198682257Y-118136918D02*
X198610828Y-117994061D01*
X198610828Y-117994061D02*
X198610828Y-117636918D01*
X198610828Y-117636918D02*
X198682257Y-117494061D01*
X198682257Y-117494061D02*
X198753685Y-117422632D01*
X198753685Y-117422632D02*
X198896542Y-117351203D01*
X198896542Y-117351203D02*
X199039400Y-117351203D01*
X199039400Y-117351203D02*
X199253685Y-117422632D01*
X199253685Y-117422632D02*
X200110828Y-118279775D01*
X200110828Y-118279775D02*
X200110828Y-117351203D01*
D14*
X197533409Y-100206993D02*
X197581028Y-100064136D01*
X197581028Y-100064136D02*
X197628647Y-100016517D01*
X197628647Y-100016517D02*
X197723885Y-99968898D01*
X197723885Y-99968898D02*
X197866742Y-99968898D01*
X197866742Y-99968898D02*
X197961980Y-100016517D01*
X197961980Y-100016517D02*
X198009600Y-100064136D01*
X198009600Y-100064136D02*
X198057219Y-100159374D01*
X198057219Y-100159374D02*
X198057219Y-100540326D01*
X198057219Y-100540326D02*
X197057219Y-100540326D01*
X197057219Y-100540326D02*
X197057219Y-100206993D01*
X197057219Y-100206993D02*
X197104838Y-100111755D01*
X197104838Y-100111755D02*
X197152457Y-100064136D01*
X197152457Y-100064136D02*
X197247695Y-100016517D01*
X197247695Y-100016517D02*
X197342933Y-100016517D01*
X197342933Y-100016517D02*
X197438171Y-100064136D01*
X197438171Y-100064136D02*
X197485790Y-100111755D01*
X197485790Y-100111755D02*
X197533409Y-100206993D01*
X197533409Y-100206993D02*
X197533409Y-100540326D01*
X198057219Y-99111755D02*
X197533409Y-99111755D01*
X197533409Y-99111755D02*
X197438171Y-99159374D01*
X197438171Y-99159374D02*
X197390552Y-99254612D01*
X197390552Y-99254612D02*
X197390552Y-99445088D01*
X197390552Y-99445088D02*
X197438171Y-99540326D01*
X198009600Y-99111755D02*
X198057219Y-99206993D01*
X198057219Y-99206993D02*
X198057219Y-99445088D01*
X198057219Y-99445088D02*
X198009600Y-99540326D01*
X198009600Y-99540326D02*
X197914361Y-99587945D01*
X197914361Y-99587945D02*
X197819123Y-99587945D01*
X197819123Y-99587945D02*
X197723885Y-99540326D01*
X197723885Y-99540326D02*
X197676266Y-99445088D01*
X197676266Y-99445088D02*
X197676266Y-99206993D01*
X197676266Y-99206993D02*
X197628647Y-99111755D01*
X197390552Y-98778421D02*
X197390552Y-98397469D01*
X197057219Y-98635564D02*
X197914361Y-98635564D01*
X197914361Y-98635564D02*
X198009600Y-98587945D01*
X198009600Y-98587945D02*
X198057219Y-98492707D01*
X198057219Y-98492707D02*
X198057219Y-98397469D01*
X197390552Y-98206992D02*
X197390552Y-97826040D01*
X197057219Y-98064135D02*
X197914361Y-98064135D01*
X197914361Y-98064135D02*
X198009600Y-98016516D01*
X198009600Y-98016516D02*
X198057219Y-97921278D01*
X198057219Y-97921278D02*
X198057219Y-97826040D01*
X198009600Y-97111754D02*
X198057219Y-97206992D01*
X198057219Y-97206992D02*
X198057219Y-97397468D01*
X198057219Y-97397468D02*
X198009600Y-97492706D01*
X198009600Y-97492706D02*
X197914361Y-97540325D01*
X197914361Y-97540325D02*
X197533409Y-97540325D01*
X197533409Y-97540325D02*
X197438171Y-97492706D01*
X197438171Y-97492706D02*
X197390552Y-97397468D01*
X197390552Y-97397468D02*
X197390552Y-97206992D01*
X197390552Y-97206992D02*
X197438171Y-97111754D01*
X197438171Y-97111754D02*
X197533409Y-97064135D01*
X197533409Y-97064135D02*
X197628647Y-97064135D01*
X197628647Y-97064135D02*
X197723885Y-97540325D01*
X198057219Y-96635563D02*
X197390552Y-96635563D01*
X197581028Y-96635563D02*
X197485790Y-96587944D01*
X197485790Y-96587944D02*
X197438171Y-96540325D01*
X197438171Y-96540325D02*
X197390552Y-96445087D01*
X197390552Y-96445087D02*
X197390552Y-96349849D01*
X197390552Y-96111753D02*
X198057219Y-95873658D01*
X197390552Y-95635563D02*
X198057219Y-95873658D01*
X198057219Y-95873658D02*
X198295314Y-95968896D01*
X198295314Y-95968896D02*
X198342933Y-96016515D01*
X198342933Y-96016515D02*
X198390552Y-96111753D01*
X199667219Y-100540326D02*
X198667219Y-100540326D01*
X199000552Y-100064136D02*
X199667219Y-100064136D01*
X199095790Y-100064136D02*
X199048171Y-100016517D01*
X199048171Y-100016517D02*
X199000552Y-99921279D01*
X199000552Y-99921279D02*
X199000552Y-99778422D01*
X199000552Y-99778422D02*
X199048171Y-99683184D01*
X199048171Y-99683184D02*
X199143409Y-99635565D01*
X199143409Y-99635565D02*
X199667219Y-99635565D01*
X199667219Y-98730803D02*
X198667219Y-98730803D01*
X199619600Y-98730803D02*
X199667219Y-98826041D01*
X199667219Y-98826041D02*
X199667219Y-99016517D01*
X199667219Y-99016517D02*
X199619600Y-99111755D01*
X199619600Y-99111755D02*
X199571980Y-99159374D01*
X199571980Y-99159374D02*
X199476742Y-99206993D01*
X199476742Y-99206993D02*
X199191028Y-99206993D01*
X199191028Y-99206993D02*
X199095790Y-99159374D01*
X199095790Y-99159374D02*
X199048171Y-99111755D01*
X199048171Y-99111755D02*
X199000552Y-99016517D01*
X199000552Y-99016517D02*
X199000552Y-98826041D01*
X199000552Y-98826041D02*
X199048171Y-98730803D01*
X199667219Y-98254612D02*
X199000552Y-98254612D01*
X198667219Y-98254612D02*
X198714838Y-98302231D01*
X198714838Y-98302231D02*
X198762457Y-98254612D01*
X198762457Y-98254612D02*
X198714838Y-98206993D01*
X198714838Y-98206993D02*
X198667219Y-98254612D01*
X198667219Y-98254612D02*
X198762457Y-98254612D01*
X199619600Y-97349851D02*
X199667219Y-97445089D01*
X199667219Y-97445089D02*
X199667219Y-97635565D01*
X199667219Y-97635565D02*
X199619600Y-97730803D01*
X199619600Y-97730803D02*
X199571980Y-97778422D01*
X199571980Y-97778422D02*
X199476742Y-97826041D01*
X199476742Y-97826041D02*
X199191028Y-97826041D01*
X199191028Y-97826041D02*
X199095790Y-97778422D01*
X199095790Y-97778422D02*
X199048171Y-97730803D01*
X199048171Y-97730803D02*
X199000552Y-97635565D01*
X199000552Y-97635565D02*
X199000552Y-97445089D01*
X199000552Y-97445089D02*
X199048171Y-97349851D01*
X199667219Y-96492708D02*
X199143409Y-96492708D01*
X199143409Y-96492708D02*
X199048171Y-96540327D01*
X199048171Y-96540327D02*
X199000552Y-96635565D01*
X199000552Y-96635565D02*
X199000552Y-96826041D01*
X199000552Y-96826041D02*
X199048171Y-96921279D01*
X199619600Y-96492708D02*
X199667219Y-96587946D01*
X199667219Y-96587946D02*
X199667219Y-96826041D01*
X199667219Y-96826041D02*
X199619600Y-96921279D01*
X199619600Y-96921279D02*
X199524361Y-96968898D01*
X199524361Y-96968898D02*
X199429123Y-96968898D01*
X199429123Y-96968898D02*
X199333885Y-96921279D01*
X199333885Y-96921279D02*
X199286266Y-96826041D01*
X199286266Y-96826041D02*
X199286266Y-96587946D01*
X199286266Y-96587946D02*
X199238647Y-96492708D01*
X199000552Y-96159374D02*
X199000552Y-95778422D01*
X198667219Y-96016517D02*
X199524361Y-96016517D01*
X199524361Y-96016517D02*
X199619600Y-95968898D01*
X199619600Y-95968898D02*
X199667219Y-95873660D01*
X199667219Y-95873660D02*
X199667219Y-95778422D01*
X199667219Y-95302231D02*
X199619600Y-95397469D01*
X199619600Y-95397469D02*
X199571980Y-95445088D01*
X199571980Y-95445088D02*
X199476742Y-95492707D01*
X199476742Y-95492707D02*
X199191028Y-95492707D01*
X199191028Y-95492707D02*
X199095790Y-95445088D01*
X199095790Y-95445088D02*
X199048171Y-95397469D01*
X199048171Y-95397469D02*
X199000552Y-95302231D01*
X199000552Y-95302231D02*
X199000552Y-95159374D01*
X199000552Y-95159374D02*
X199048171Y-95064136D01*
X199048171Y-95064136D02*
X199095790Y-95016517D01*
X199095790Y-95016517D02*
X199191028Y-94968898D01*
X199191028Y-94968898D02*
X199476742Y-94968898D01*
X199476742Y-94968898D02*
X199571980Y-95016517D01*
X199571980Y-95016517D02*
X199619600Y-95064136D01*
X199619600Y-95064136D02*
X199667219Y-95159374D01*
X199667219Y-95159374D02*
X199667219Y-95302231D01*
X199667219Y-94540326D02*
X199000552Y-94540326D01*
X199191028Y-94540326D02*
X199095790Y-94492707D01*
X199095790Y-94492707D02*
X199048171Y-94445088D01*
X199048171Y-94445088D02*
X199000552Y-94349850D01*
X199000552Y-94349850D02*
X199000552Y-94254612D01*
X199667219Y-93159373D02*
X198667219Y-93159373D01*
X198667219Y-93159373D02*
X199381504Y-92826040D01*
X199381504Y-92826040D02*
X198667219Y-92492707D01*
X198667219Y-92492707D02*
X199667219Y-92492707D01*
X199667219Y-91587945D02*
X199143409Y-91587945D01*
X199143409Y-91587945D02*
X199048171Y-91635564D01*
X199048171Y-91635564D02*
X199000552Y-91730802D01*
X199000552Y-91730802D02*
X199000552Y-91921278D01*
X199000552Y-91921278D02*
X199048171Y-92016516D01*
X199619600Y-91587945D02*
X199667219Y-91683183D01*
X199667219Y-91683183D02*
X199667219Y-91921278D01*
X199667219Y-91921278D02*
X199619600Y-92016516D01*
X199619600Y-92016516D02*
X199524361Y-92064135D01*
X199524361Y-92064135D02*
X199429123Y-92064135D01*
X199429123Y-92064135D02*
X199333885Y-92016516D01*
X199333885Y-92016516D02*
X199286266Y-91921278D01*
X199286266Y-91921278D02*
X199286266Y-91683183D01*
X199286266Y-91683183D02*
X199238647Y-91587945D01*
X199000552Y-91111754D02*
X200000552Y-91111754D01*
X199048171Y-91111754D02*
X199000552Y-91016516D01*
X199000552Y-91016516D02*
X199000552Y-90826040D01*
X199000552Y-90826040D02*
X199048171Y-90730802D01*
X199048171Y-90730802D02*
X199095790Y-90683183D01*
X199095790Y-90683183D02*
X199191028Y-90635564D01*
X199191028Y-90635564D02*
X199476742Y-90635564D01*
X199476742Y-90635564D02*
X199571980Y-90683183D01*
X199571980Y-90683183D02*
X199619600Y-90730802D01*
X199619600Y-90730802D02*
X199667219Y-90826040D01*
X199667219Y-90826040D02*
X199667219Y-91016516D01*
X199667219Y-91016516D02*
X199619600Y-91111754D01*
D12*
X199195114Y-133985489D02*
X199266542Y-133771203D01*
X199266542Y-133771203D02*
X199337971Y-133699774D01*
X199337971Y-133699774D02*
X199480828Y-133628346D01*
X199480828Y-133628346D02*
X199695114Y-133628346D01*
X199695114Y-133628346D02*
X199837971Y-133699774D01*
X199837971Y-133699774D02*
X199909400Y-133771203D01*
X199909400Y-133771203D02*
X199980828Y-133914060D01*
X199980828Y-133914060D02*
X199980828Y-134485489D01*
X199980828Y-134485489D02*
X198480828Y-134485489D01*
X198480828Y-134485489D02*
X198480828Y-133985489D01*
X198480828Y-133985489D02*
X198552257Y-133842632D01*
X198552257Y-133842632D02*
X198623685Y-133771203D01*
X198623685Y-133771203D02*
X198766542Y-133699774D01*
X198766542Y-133699774D02*
X198909400Y-133699774D01*
X198909400Y-133699774D02*
X199052257Y-133771203D01*
X199052257Y-133771203D02*
X199123685Y-133842632D01*
X199123685Y-133842632D02*
X199195114Y-133985489D01*
X199195114Y-133985489D02*
X199195114Y-134485489D01*
X199552257Y-133056917D02*
X199552257Y-132342632D01*
X199980828Y-133199774D02*
X198480828Y-132699774D01*
X198480828Y-132699774D02*
X199980828Y-132199774D01*
X198480828Y-131914060D02*
X198480828Y-131056918D01*
X199980828Y-131485489D02*
X198480828Y-131485489D01*
X198480828Y-130699775D02*
X198480828Y-129771203D01*
X198480828Y-129771203D02*
X199052257Y-130271203D01*
X199052257Y-130271203D02*
X199052257Y-130056918D01*
X199052257Y-130056918D02*
X199123685Y-129914061D01*
X199123685Y-129914061D02*
X199195114Y-129842632D01*
X199195114Y-129842632D02*
X199337971Y-129771203D01*
X199337971Y-129771203D02*
X199695114Y-129771203D01*
X199695114Y-129771203D02*
X199837971Y-129842632D01*
X199837971Y-129842632D02*
X199909400Y-129914061D01*
X199909400Y-129914061D02*
X199980828Y-130056918D01*
X199980828Y-130056918D02*
X199980828Y-130485489D01*
X199980828Y-130485489D02*
X199909400Y-130628346D01*
X199909400Y-130628346D02*
X199837971Y-130699775D01*
D10*
X137734819Y-133243333D02*
X138449104Y-133243333D01*
X138449104Y-133243333D02*
X138591961Y-133290952D01*
X138591961Y-133290952D02*
X138687200Y-133386190D01*
X138687200Y-133386190D02*
X138734819Y-133529047D01*
X138734819Y-133529047D02*
X138734819Y-133624285D01*
X138734819Y-132719523D02*
X138734819Y-132529047D01*
X138734819Y-132529047D02*
X138687200Y-132433809D01*
X138687200Y-132433809D02*
X138639580Y-132386190D01*
X138639580Y-132386190D02*
X138496723Y-132290952D01*
X138496723Y-132290952D02*
X138306247Y-132243333D01*
X138306247Y-132243333D02*
X137925295Y-132243333D01*
X137925295Y-132243333D02*
X137830057Y-132290952D01*
X137830057Y-132290952D02*
X137782438Y-132338571D01*
X137782438Y-132338571D02*
X137734819Y-132433809D01*
X137734819Y-132433809D02*
X137734819Y-132624285D01*
X137734819Y-132624285D02*
X137782438Y-132719523D01*
X137782438Y-132719523D02*
X137830057Y-132767142D01*
X137830057Y-132767142D02*
X137925295Y-132814761D01*
X137925295Y-132814761D02*
X138163390Y-132814761D01*
X138163390Y-132814761D02*
X138258628Y-132767142D01*
X138258628Y-132767142D02*
X138306247Y-132719523D01*
X138306247Y-132719523D02*
X138353866Y-132624285D01*
X138353866Y-132624285D02*
X138353866Y-132433809D01*
X138353866Y-132433809D02*
X138306247Y-132338571D01*
X138306247Y-132338571D02*
X138258628Y-132290952D01*
X138258628Y-132290952D02*
X138163390Y-132243333D01*
X161353580Y-121330857D02*
X161401200Y-121378476D01*
X161401200Y-121378476D02*
X161448819Y-121521333D01*
X161448819Y-121521333D02*
X161448819Y-121616571D01*
X161448819Y-121616571D02*
X161401200Y-121759428D01*
X161401200Y-121759428D02*
X161305961Y-121854666D01*
X161305961Y-121854666D02*
X161210723Y-121902285D01*
X161210723Y-121902285D02*
X161020247Y-121949904D01*
X161020247Y-121949904D02*
X160877390Y-121949904D01*
X160877390Y-121949904D02*
X160686914Y-121902285D01*
X160686914Y-121902285D02*
X160591676Y-121854666D01*
X160591676Y-121854666D02*
X160496438Y-121759428D01*
X160496438Y-121759428D02*
X160448819Y-121616571D01*
X160448819Y-121616571D02*
X160448819Y-121521333D01*
X160448819Y-121521333D02*
X160496438Y-121378476D01*
X160496438Y-121378476D02*
X160544057Y-121330857D01*
X161448819Y-120378476D02*
X161448819Y-120949904D01*
X161448819Y-120664190D02*
X160448819Y-120664190D01*
X160448819Y-120664190D02*
X160591676Y-120759428D01*
X160591676Y-120759428D02*
X160686914Y-120854666D01*
X160686914Y-120854666D02*
X160734533Y-120949904D01*
X160448819Y-120045142D02*
X160448819Y-119426095D01*
X160448819Y-119426095D02*
X160829771Y-119759428D01*
X160829771Y-119759428D02*
X160829771Y-119616571D01*
X160829771Y-119616571D02*
X160877390Y-119521333D01*
X160877390Y-119521333D02*
X160925009Y-119473714D01*
X160925009Y-119473714D02*
X161020247Y-119426095D01*
X161020247Y-119426095D02*
X161258342Y-119426095D01*
X161258342Y-119426095D02*
X161353580Y-119473714D01*
X161353580Y-119473714D02*
X161401200Y-119521333D01*
X161401200Y-119521333D02*
X161448819Y-119616571D01*
X161448819Y-119616571D02*
X161448819Y-119902285D01*
X161448819Y-119902285D02*
X161401200Y-119997523D01*
X161401200Y-119997523D02*
X161353580Y-120045142D01*
X174701905Y-90454819D02*
X174701905Y-89454819D01*
X174701905Y-89454819D02*
X174940000Y-89454819D01*
X174940000Y-89454819D02*
X175082857Y-89502438D01*
X175082857Y-89502438D02*
X175178095Y-89597676D01*
X175178095Y-89597676D02*
X175225714Y-89692914D01*
X175225714Y-89692914D02*
X175273333Y-89883390D01*
X175273333Y-89883390D02*
X175273333Y-90026247D01*
X175273333Y-90026247D02*
X175225714Y-90216723D01*
X175225714Y-90216723D02*
X175178095Y-90311961D01*
X175178095Y-90311961D02*
X175082857Y-90407200D01*
X175082857Y-90407200D02*
X174940000Y-90454819D01*
X174940000Y-90454819D02*
X174701905Y-90454819D01*
X175749524Y-90454819D02*
X175940000Y-90454819D01*
X175940000Y-90454819D02*
X176035238Y-90407200D01*
X176035238Y-90407200D02*
X176082857Y-90359580D01*
X176082857Y-90359580D02*
X176178095Y-90216723D01*
X176178095Y-90216723D02*
X176225714Y-90026247D01*
X176225714Y-90026247D02*
X176225714Y-89645295D01*
X176225714Y-89645295D02*
X176178095Y-89550057D01*
X176178095Y-89550057D02*
X176130476Y-89502438D01*
X176130476Y-89502438D02*
X176035238Y-89454819D01*
X176035238Y-89454819D02*
X175844762Y-89454819D01*
X175844762Y-89454819D02*
X175749524Y-89502438D01*
X175749524Y-89502438D02*
X175701905Y-89550057D01*
X175701905Y-89550057D02*
X175654286Y-89645295D01*
X175654286Y-89645295D02*
X175654286Y-89883390D01*
X175654286Y-89883390D02*
X175701905Y-89978628D01*
X175701905Y-89978628D02*
X175749524Y-90026247D01*
X175749524Y-90026247D02*
X175844762Y-90073866D01*
X175844762Y-90073866D02*
X176035238Y-90073866D01*
X176035238Y-90073866D02*
X176130476Y-90026247D01*
X176130476Y-90026247D02*
X176178095Y-89978628D01*
X176178095Y-89978628D02*
X176225714Y-89883390D01*
X156973333Y-101319580D02*
X156925714Y-101367200D01*
X156925714Y-101367200D02*
X156782857Y-101414819D01*
X156782857Y-101414819D02*
X156687619Y-101414819D01*
X156687619Y-101414819D02*
X156544762Y-101367200D01*
X156544762Y-101367200D02*
X156449524Y-101271961D01*
X156449524Y-101271961D02*
X156401905Y-101176723D01*
X156401905Y-101176723D02*
X156354286Y-100986247D01*
X156354286Y-100986247D02*
X156354286Y-100843390D01*
X156354286Y-100843390D02*
X156401905Y-100652914D01*
X156401905Y-100652914D02*
X156449524Y-100557676D01*
X156449524Y-100557676D02*
X156544762Y-100462438D01*
X156544762Y-100462438D02*
X156687619Y-100414819D01*
X156687619Y-100414819D02*
X156782857Y-100414819D01*
X156782857Y-100414819D02*
X156925714Y-100462438D01*
X156925714Y-100462438D02*
X156973333Y-100510057D01*
X157306667Y-100414819D02*
X157973333Y-100414819D01*
X157973333Y-100414819D02*
X157544762Y-101414819D01*
X208354819Y-124446785D02*
X207354819Y-124446785D01*
X207354819Y-124446785D02*
X207354819Y-124208690D01*
X207354819Y-124208690D02*
X207402438Y-124065833D01*
X207402438Y-124065833D02*
X207497676Y-123970595D01*
X207497676Y-123970595D02*
X207592914Y-123922976D01*
X207592914Y-123922976D02*
X207783390Y-123875357D01*
X207783390Y-123875357D02*
X207926247Y-123875357D01*
X207926247Y-123875357D02*
X208116723Y-123922976D01*
X208116723Y-123922976D02*
X208211961Y-123970595D01*
X208211961Y-123970595D02*
X208307200Y-124065833D01*
X208307200Y-124065833D02*
X208354819Y-124208690D01*
X208354819Y-124208690D02*
X208354819Y-124446785D01*
X208354819Y-122922976D02*
X208354819Y-123494404D01*
X208354819Y-123208690D02*
X207354819Y-123208690D01*
X207354819Y-123208690D02*
X207497676Y-123303928D01*
X207497676Y-123303928D02*
X207592914Y-123399166D01*
X207592914Y-123399166D02*
X207640533Y-123494404D01*
X207354819Y-122018214D02*
X207354819Y-122494404D01*
X207354819Y-122494404D02*
X207831009Y-122542023D01*
X207831009Y-122542023D02*
X207783390Y-122494404D01*
X207783390Y-122494404D02*
X207735771Y-122399166D01*
X207735771Y-122399166D02*
X207735771Y-122161071D01*
X207735771Y-122161071D02*
X207783390Y-122065833D01*
X207783390Y-122065833D02*
X207831009Y-122018214D01*
X207831009Y-122018214D02*
X207926247Y-121970595D01*
X207926247Y-121970595D02*
X208164342Y-121970595D01*
X208164342Y-121970595D02*
X208259580Y-122018214D01*
X208259580Y-122018214D02*
X208307200Y-122065833D01*
X208307200Y-122065833D02*
X208354819Y-122161071D01*
X208354819Y-122161071D02*
X208354819Y-122399166D01*
X208354819Y-122399166D02*
X208307200Y-122494404D01*
X208307200Y-122494404D02*
X208259580Y-122542023D01*
X201355819Y-107901285D02*
X200355819Y-107901285D01*
X200355819Y-107901285D02*
X200355819Y-107663190D01*
X200355819Y-107663190D02*
X200403438Y-107520333D01*
X200403438Y-107520333D02*
X200498676Y-107425095D01*
X200498676Y-107425095D02*
X200593914Y-107377476D01*
X200593914Y-107377476D02*
X200784390Y-107329857D01*
X200784390Y-107329857D02*
X200927247Y-107329857D01*
X200927247Y-107329857D02*
X201117723Y-107377476D01*
X201117723Y-107377476D02*
X201212961Y-107425095D01*
X201212961Y-107425095D02*
X201308200Y-107520333D01*
X201308200Y-107520333D02*
X201355819Y-107663190D01*
X201355819Y-107663190D02*
X201355819Y-107901285D01*
X201355819Y-106377476D02*
X201355819Y-106948904D01*
X201355819Y-106663190D02*
X200355819Y-106663190D01*
X200355819Y-106663190D02*
X200498676Y-106758428D01*
X200498676Y-106758428D02*
X200593914Y-106853666D01*
X200593914Y-106853666D02*
X200641533Y-106948904D01*
X200784390Y-105806047D02*
X200736771Y-105901285D01*
X200736771Y-105901285D02*
X200689152Y-105948904D01*
X200689152Y-105948904D02*
X200593914Y-105996523D01*
X200593914Y-105996523D02*
X200546295Y-105996523D01*
X200546295Y-105996523D02*
X200451057Y-105948904D01*
X200451057Y-105948904D02*
X200403438Y-105901285D01*
X200403438Y-105901285D02*
X200355819Y-105806047D01*
X200355819Y-105806047D02*
X200355819Y-105615571D01*
X200355819Y-105615571D02*
X200403438Y-105520333D01*
X200403438Y-105520333D02*
X200451057Y-105472714D01*
X200451057Y-105472714D02*
X200546295Y-105425095D01*
X200546295Y-105425095D02*
X200593914Y-105425095D01*
X200593914Y-105425095D02*
X200689152Y-105472714D01*
X200689152Y-105472714D02*
X200736771Y-105520333D01*
X200736771Y-105520333D02*
X200784390Y-105615571D01*
X200784390Y-105615571D02*
X200784390Y-105806047D01*
X200784390Y-105806047D02*
X200832009Y-105901285D01*
X200832009Y-105901285D02*
X200879628Y-105948904D01*
X200879628Y-105948904D02*
X200974866Y-105996523D01*
X200974866Y-105996523D02*
X201165342Y-105996523D01*
X201165342Y-105996523D02*
X201260580Y-105948904D01*
X201260580Y-105948904D02*
X201308200Y-105901285D01*
X201308200Y-105901285D02*
X201355819Y-105806047D01*
X201355819Y-105806047D02*
X201355819Y-105615571D01*
X201355819Y-105615571D02*
X201308200Y-105520333D01*
X201308200Y-105520333D02*
X201260580Y-105472714D01*
X201260580Y-105472714D02*
X201165342Y-105425095D01*
X201165342Y-105425095D02*
X200974866Y-105425095D01*
X200974866Y-105425095D02*
X200879628Y-105472714D01*
X200879628Y-105472714D02*
X200832009Y-105520333D01*
X200832009Y-105520333D02*
X200784390Y-105615571D01*
X154349642Y-122567580D02*
X154302023Y-122615200D01*
X154302023Y-122615200D02*
X154159166Y-122662819D01*
X154159166Y-122662819D02*
X154063928Y-122662819D01*
X154063928Y-122662819D02*
X153921071Y-122615200D01*
X153921071Y-122615200D02*
X153825833Y-122519961D01*
X153825833Y-122519961D02*
X153778214Y-122424723D01*
X153778214Y-122424723D02*
X153730595Y-122234247D01*
X153730595Y-122234247D02*
X153730595Y-122091390D01*
X153730595Y-122091390D02*
X153778214Y-121900914D01*
X153778214Y-121900914D02*
X153825833Y-121805676D01*
X153825833Y-121805676D02*
X153921071Y-121710438D01*
X153921071Y-121710438D02*
X154063928Y-121662819D01*
X154063928Y-121662819D02*
X154159166Y-121662819D01*
X154159166Y-121662819D02*
X154302023Y-121710438D01*
X154302023Y-121710438D02*
X154349642Y-121758057D01*
X154730595Y-121758057D02*
X154778214Y-121710438D01*
X154778214Y-121710438D02*
X154873452Y-121662819D01*
X154873452Y-121662819D02*
X155111547Y-121662819D01*
X155111547Y-121662819D02*
X155206785Y-121710438D01*
X155206785Y-121710438D02*
X155254404Y-121758057D01*
X155254404Y-121758057D02*
X155302023Y-121853295D01*
X155302023Y-121853295D02*
X155302023Y-121948533D01*
X155302023Y-121948533D02*
X155254404Y-122091390D01*
X155254404Y-122091390D02*
X154682976Y-122662819D01*
X154682976Y-122662819D02*
X155302023Y-122662819D01*
X156254404Y-122662819D02*
X155682976Y-122662819D01*
X155968690Y-122662819D02*
X155968690Y-121662819D01*
X155968690Y-121662819D02*
X155873452Y-121805676D01*
X155873452Y-121805676D02*
X155778214Y-121900914D01*
X155778214Y-121900914D02*
X155682976Y-121948533D01*
X208124819Y-130008094D02*
X207124819Y-130008094D01*
X207124819Y-130008094D02*
X207124819Y-129769999D01*
X207124819Y-129769999D02*
X207172438Y-129627142D01*
X207172438Y-129627142D02*
X207267676Y-129531904D01*
X207267676Y-129531904D02*
X207362914Y-129484285D01*
X207362914Y-129484285D02*
X207553390Y-129436666D01*
X207553390Y-129436666D02*
X207696247Y-129436666D01*
X207696247Y-129436666D02*
X207886723Y-129484285D01*
X207886723Y-129484285D02*
X207981961Y-129531904D01*
X207981961Y-129531904D02*
X208077200Y-129627142D01*
X208077200Y-129627142D02*
X208124819Y-129769999D01*
X208124819Y-129769999D02*
X208124819Y-130008094D01*
X207458152Y-128579523D02*
X208124819Y-128579523D01*
X207077200Y-128817618D02*
X207791485Y-129055713D01*
X207791485Y-129055713D02*
X207791485Y-128436666D01*
X207418819Y-108841785D02*
X206418819Y-108841785D01*
X206418819Y-108841785D02*
X206418819Y-108603690D01*
X206418819Y-108603690D02*
X206466438Y-108460833D01*
X206466438Y-108460833D02*
X206561676Y-108365595D01*
X206561676Y-108365595D02*
X206656914Y-108317976D01*
X206656914Y-108317976D02*
X206847390Y-108270357D01*
X206847390Y-108270357D02*
X206990247Y-108270357D01*
X206990247Y-108270357D02*
X207180723Y-108317976D01*
X207180723Y-108317976D02*
X207275961Y-108365595D01*
X207275961Y-108365595D02*
X207371200Y-108460833D01*
X207371200Y-108460833D02*
X207418819Y-108603690D01*
X207418819Y-108603690D02*
X207418819Y-108841785D01*
X206514057Y-107889404D02*
X206466438Y-107841785D01*
X206466438Y-107841785D02*
X206418819Y-107746547D01*
X206418819Y-107746547D02*
X206418819Y-107508452D01*
X206418819Y-107508452D02*
X206466438Y-107413214D01*
X206466438Y-107413214D02*
X206514057Y-107365595D01*
X206514057Y-107365595D02*
X206609295Y-107317976D01*
X206609295Y-107317976D02*
X206704533Y-107317976D01*
X206704533Y-107317976D02*
X206847390Y-107365595D01*
X206847390Y-107365595D02*
X207418819Y-107937023D01*
X207418819Y-107937023D02*
X207418819Y-107317976D01*
X206418819Y-106698928D02*
X206418819Y-106603690D01*
X206418819Y-106603690D02*
X206466438Y-106508452D01*
X206466438Y-106508452D02*
X206514057Y-106460833D01*
X206514057Y-106460833D02*
X206609295Y-106413214D01*
X206609295Y-106413214D02*
X206799771Y-106365595D01*
X206799771Y-106365595D02*
X207037866Y-106365595D01*
X207037866Y-106365595D02*
X207228342Y-106413214D01*
X207228342Y-106413214D02*
X207323580Y-106460833D01*
X207323580Y-106460833D02*
X207371200Y-106508452D01*
X207371200Y-106508452D02*
X207418819Y-106603690D01*
X207418819Y-106603690D02*
X207418819Y-106698928D01*
X207418819Y-106698928D02*
X207371200Y-106794166D01*
X207371200Y-106794166D02*
X207323580Y-106841785D01*
X207323580Y-106841785D02*
X207228342Y-106889404D01*
X207228342Y-106889404D02*
X207037866Y-106937023D01*
X207037866Y-106937023D02*
X206799771Y-106937023D01*
X206799771Y-106937023D02*
X206609295Y-106889404D01*
X206609295Y-106889404D02*
X206514057Y-106841785D01*
X206514057Y-106841785D02*
X206466438Y-106794166D01*
X206466438Y-106794166D02*
X206418819Y-106698928D01*
X163268819Y-115990666D02*
X162792628Y-116323999D01*
X163268819Y-116562094D02*
X162268819Y-116562094D01*
X162268819Y-116562094D02*
X162268819Y-116181142D01*
X162268819Y-116181142D02*
X162316438Y-116085904D01*
X162316438Y-116085904D02*
X162364057Y-116038285D01*
X162364057Y-116038285D02*
X162459295Y-115990666D01*
X162459295Y-115990666D02*
X162602152Y-115990666D01*
X162602152Y-115990666D02*
X162697390Y-116038285D01*
X162697390Y-116038285D02*
X162745009Y-116085904D01*
X162745009Y-116085904D02*
X162792628Y-116181142D01*
X162792628Y-116181142D02*
X162792628Y-116562094D01*
X162268819Y-115085904D02*
X162268819Y-115562094D01*
X162268819Y-115562094D02*
X162745009Y-115609713D01*
X162745009Y-115609713D02*
X162697390Y-115562094D01*
X162697390Y-115562094D02*
X162649771Y-115466856D01*
X162649771Y-115466856D02*
X162649771Y-115228761D01*
X162649771Y-115228761D02*
X162697390Y-115133523D01*
X162697390Y-115133523D02*
X162745009Y-115085904D01*
X162745009Y-115085904D02*
X162840247Y-115038285D01*
X162840247Y-115038285D02*
X163078342Y-115038285D01*
X163078342Y-115038285D02*
X163173580Y-115085904D01*
X163173580Y-115085904D02*
X163221200Y-115133523D01*
X163221200Y-115133523D02*
X163268819Y-115228761D01*
X163268819Y-115228761D02*
X163268819Y-115466856D01*
X163268819Y-115466856D02*
X163221200Y-115562094D01*
X163221200Y-115562094D02*
X163173580Y-115609713D01*
X167659405Y-107994819D02*
X167659405Y-106994819D01*
X167659405Y-106994819D02*
X167897500Y-106994819D01*
X167897500Y-106994819D02*
X168040357Y-107042438D01*
X168040357Y-107042438D02*
X168135595Y-107137676D01*
X168135595Y-107137676D02*
X168183214Y-107232914D01*
X168183214Y-107232914D02*
X168230833Y-107423390D01*
X168230833Y-107423390D02*
X168230833Y-107566247D01*
X168230833Y-107566247D02*
X168183214Y-107756723D01*
X168183214Y-107756723D02*
X168135595Y-107851961D01*
X168135595Y-107851961D02*
X168040357Y-107947200D01*
X168040357Y-107947200D02*
X167897500Y-107994819D01*
X167897500Y-107994819D02*
X167659405Y-107994819D01*
X168802262Y-107423390D02*
X168707024Y-107375771D01*
X168707024Y-107375771D02*
X168659405Y-107328152D01*
X168659405Y-107328152D02*
X168611786Y-107232914D01*
X168611786Y-107232914D02*
X168611786Y-107185295D01*
X168611786Y-107185295D02*
X168659405Y-107090057D01*
X168659405Y-107090057D02*
X168707024Y-107042438D01*
X168707024Y-107042438D02*
X168802262Y-106994819D01*
X168802262Y-106994819D02*
X168992738Y-106994819D01*
X168992738Y-106994819D02*
X169087976Y-107042438D01*
X169087976Y-107042438D02*
X169135595Y-107090057D01*
X169135595Y-107090057D02*
X169183214Y-107185295D01*
X169183214Y-107185295D02*
X169183214Y-107232914D01*
X169183214Y-107232914D02*
X169135595Y-107328152D01*
X169135595Y-107328152D02*
X169087976Y-107375771D01*
X169087976Y-107375771D02*
X168992738Y-107423390D01*
X168992738Y-107423390D02*
X168802262Y-107423390D01*
X168802262Y-107423390D02*
X168707024Y-107471009D01*
X168707024Y-107471009D02*
X168659405Y-107518628D01*
X168659405Y-107518628D02*
X168611786Y-107613866D01*
X168611786Y-107613866D02*
X168611786Y-107804342D01*
X168611786Y-107804342D02*
X168659405Y-107899580D01*
X168659405Y-107899580D02*
X168707024Y-107947200D01*
X168707024Y-107947200D02*
X168802262Y-107994819D01*
X168802262Y-107994819D02*
X168992738Y-107994819D01*
X168992738Y-107994819D02*
X169087976Y-107947200D01*
X169087976Y-107947200D02*
X169135595Y-107899580D01*
X169135595Y-107899580D02*
X169183214Y-107804342D01*
X169183214Y-107804342D02*
X169183214Y-107613866D01*
X169183214Y-107613866D02*
X169135595Y-107518628D01*
X169135595Y-107518628D02*
X169087976Y-107471009D01*
X169087976Y-107471009D02*
X168992738Y-107423390D01*
X207498819Y-111738285D02*
X206498819Y-111738285D01*
X206498819Y-111738285D02*
X206498819Y-111500190D01*
X206498819Y-111500190D02*
X206546438Y-111357333D01*
X206546438Y-111357333D02*
X206641676Y-111262095D01*
X206641676Y-111262095D02*
X206736914Y-111214476D01*
X206736914Y-111214476D02*
X206927390Y-111166857D01*
X206927390Y-111166857D02*
X207070247Y-111166857D01*
X207070247Y-111166857D02*
X207260723Y-111214476D01*
X207260723Y-111214476D02*
X207355961Y-111262095D01*
X207355961Y-111262095D02*
X207451200Y-111357333D01*
X207451200Y-111357333D02*
X207498819Y-111500190D01*
X207498819Y-111500190D02*
X207498819Y-111738285D01*
X206594057Y-110785904D02*
X206546438Y-110738285D01*
X206546438Y-110738285D02*
X206498819Y-110643047D01*
X206498819Y-110643047D02*
X206498819Y-110404952D01*
X206498819Y-110404952D02*
X206546438Y-110309714D01*
X206546438Y-110309714D02*
X206594057Y-110262095D01*
X206594057Y-110262095D02*
X206689295Y-110214476D01*
X206689295Y-110214476D02*
X206784533Y-110214476D01*
X206784533Y-110214476D02*
X206927390Y-110262095D01*
X206927390Y-110262095D02*
X207498819Y-110833523D01*
X207498819Y-110833523D02*
X207498819Y-110214476D01*
X207498819Y-109262095D02*
X207498819Y-109833523D01*
X207498819Y-109547809D02*
X206498819Y-109547809D01*
X206498819Y-109547809D02*
X206641676Y-109643047D01*
X206641676Y-109643047D02*
X206736914Y-109738285D01*
X206736914Y-109738285D02*
X206784533Y-109833523D01*
X150267142Y-101289580D02*
X150219523Y-101337200D01*
X150219523Y-101337200D02*
X150076666Y-101384819D01*
X150076666Y-101384819D02*
X149981428Y-101384819D01*
X149981428Y-101384819D02*
X149838571Y-101337200D01*
X149838571Y-101337200D02*
X149743333Y-101241961D01*
X149743333Y-101241961D02*
X149695714Y-101146723D01*
X149695714Y-101146723D02*
X149648095Y-100956247D01*
X149648095Y-100956247D02*
X149648095Y-100813390D01*
X149648095Y-100813390D02*
X149695714Y-100622914D01*
X149695714Y-100622914D02*
X149743333Y-100527676D01*
X149743333Y-100527676D02*
X149838571Y-100432438D01*
X149838571Y-100432438D02*
X149981428Y-100384819D01*
X149981428Y-100384819D02*
X150076666Y-100384819D01*
X150076666Y-100384819D02*
X150219523Y-100432438D01*
X150219523Y-100432438D02*
X150267142Y-100480057D01*
X151219523Y-101384819D02*
X150648095Y-101384819D01*
X150933809Y-101384819D02*
X150933809Y-100384819D01*
X150933809Y-100384819D02*
X150838571Y-100527676D01*
X150838571Y-100527676D02*
X150743333Y-100622914D01*
X150743333Y-100622914D02*
X150648095Y-100670533D01*
X151838571Y-100384819D02*
X151933809Y-100384819D01*
X151933809Y-100384819D02*
X152029047Y-100432438D01*
X152029047Y-100432438D02*
X152076666Y-100480057D01*
X152076666Y-100480057D02*
X152124285Y-100575295D01*
X152124285Y-100575295D02*
X152171904Y-100765771D01*
X152171904Y-100765771D02*
X152171904Y-101003866D01*
X152171904Y-101003866D02*
X152124285Y-101194342D01*
X152124285Y-101194342D02*
X152076666Y-101289580D01*
X152076666Y-101289580D02*
X152029047Y-101337200D01*
X152029047Y-101337200D02*
X151933809Y-101384819D01*
X151933809Y-101384819D02*
X151838571Y-101384819D01*
X151838571Y-101384819D02*
X151743333Y-101337200D01*
X151743333Y-101337200D02*
X151695714Y-101289580D01*
X151695714Y-101289580D02*
X151648095Y-101194342D01*
X151648095Y-101194342D02*
X151600476Y-101003866D01*
X151600476Y-101003866D02*
X151600476Y-100765771D01*
X151600476Y-100765771D02*
X151648095Y-100575295D01*
X151648095Y-100575295D02*
X151695714Y-100480057D01*
X151695714Y-100480057D02*
X151743333Y-100432438D01*
X151743333Y-100432438D02*
X151838571Y-100384819D01*
X197064819Y-93325594D02*
X196064819Y-93325594D01*
X196064819Y-93325594D02*
X196064819Y-93087499D01*
X196064819Y-93087499D02*
X196112438Y-92944642D01*
X196112438Y-92944642D02*
X196207676Y-92849404D01*
X196207676Y-92849404D02*
X196302914Y-92801785D01*
X196302914Y-92801785D02*
X196493390Y-92754166D01*
X196493390Y-92754166D02*
X196636247Y-92754166D01*
X196636247Y-92754166D02*
X196826723Y-92801785D01*
X196826723Y-92801785D02*
X196921961Y-92849404D01*
X196921961Y-92849404D02*
X197017200Y-92944642D01*
X197017200Y-92944642D02*
X197064819Y-93087499D01*
X197064819Y-93087499D02*
X197064819Y-93325594D01*
X197064819Y-91801785D02*
X197064819Y-92373213D01*
X197064819Y-92087499D02*
X196064819Y-92087499D01*
X196064819Y-92087499D02*
X196207676Y-92182737D01*
X196207676Y-92182737D02*
X196302914Y-92277975D01*
X196302914Y-92277975D02*
X196350533Y-92373213D01*
X202074819Y-133078094D02*
X201074819Y-133078094D01*
X201074819Y-133078094D02*
X201074819Y-132839999D01*
X201074819Y-132839999D02*
X201122438Y-132697142D01*
X201122438Y-132697142D02*
X201217676Y-132601904D01*
X201217676Y-132601904D02*
X201312914Y-132554285D01*
X201312914Y-132554285D02*
X201503390Y-132506666D01*
X201503390Y-132506666D02*
X201646247Y-132506666D01*
X201646247Y-132506666D02*
X201836723Y-132554285D01*
X201836723Y-132554285D02*
X201931961Y-132601904D01*
X201931961Y-132601904D02*
X202027200Y-132697142D01*
X202027200Y-132697142D02*
X202074819Y-132839999D01*
X202074819Y-132839999D02*
X202074819Y-133078094D01*
X201074819Y-131601904D02*
X201074819Y-132078094D01*
X201074819Y-132078094D02*
X201551009Y-132125713D01*
X201551009Y-132125713D02*
X201503390Y-132078094D01*
X201503390Y-132078094D02*
X201455771Y-131982856D01*
X201455771Y-131982856D02*
X201455771Y-131744761D01*
X201455771Y-131744761D02*
X201503390Y-131649523D01*
X201503390Y-131649523D02*
X201551009Y-131601904D01*
X201551009Y-131601904D02*
X201646247Y-131554285D01*
X201646247Y-131554285D02*
X201884342Y-131554285D01*
X201884342Y-131554285D02*
X201979580Y-131601904D01*
X201979580Y-131601904D02*
X202027200Y-131649523D01*
X202027200Y-131649523D02*
X202074819Y-131744761D01*
X202074819Y-131744761D02*
X202074819Y-131982856D01*
X202074819Y-131982856D02*
X202027200Y-132078094D01*
X202027200Y-132078094D02*
X201979580Y-132125713D01*
D15*
X161554318Y-135489762D02*
X160284318Y-135489762D01*
X161433365Y-134159285D02*
X161493842Y-134219761D01*
X161493842Y-134219761D02*
X161554318Y-134401190D01*
X161554318Y-134401190D02*
X161554318Y-134522142D01*
X161554318Y-134522142D02*
X161493842Y-134703571D01*
X161493842Y-134703571D02*
X161372889Y-134824523D01*
X161372889Y-134824523D02*
X161251937Y-134885000D01*
X161251937Y-134885000D02*
X161010032Y-134945476D01*
X161010032Y-134945476D02*
X160828603Y-134945476D01*
X160828603Y-134945476D02*
X160586699Y-134885000D01*
X160586699Y-134885000D02*
X160465746Y-134824523D01*
X160465746Y-134824523D02*
X160344794Y-134703571D01*
X160344794Y-134703571D02*
X160284318Y-134522142D01*
X160284318Y-134522142D02*
X160284318Y-134401190D01*
X160284318Y-134401190D02*
X160344794Y-134219761D01*
X160344794Y-134219761D02*
X160405270Y-134159285D01*
X160405270Y-133675476D02*
X160344794Y-133615000D01*
X160344794Y-133615000D02*
X160284318Y-133494047D01*
X160284318Y-133494047D02*
X160284318Y-133191666D01*
X160284318Y-133191666D02*
X160344794Y-133070714D01*
X160344794Y-133070714D02*
X160405270Y-133010238D01*
X160405270Y-133010238D02*
X160526222Y-132949761D01*
X160526222Y-132949761D02*
X160647175Y-132949761D01*
X160647175Y-132949761D02*
X160828603Y-133010238D01*
X160828603Y-133010238D02*
X161554318Y-133735952D01*
X161554318Y-133735952D02*
X161554318Y-132949761D01*
D16*
X152526595Y-129723419D02*
X152526595Y-130532942D01*
X152526595Y-130532942D02*
X152574214Y-130628180D01*
X152574214Y-130628180D02*
X152621833Y-130675800D01*
X152621833Y-130675800D02*
X152717071Y-130723419D01*
X152717071Y-130723419D02*
X152907547Y-130723419D01*
X152907547Y-130723419D02*
X153002785Y-130675800D01*
X153002785Y-130675800D02*
X153050404Y-130628180D01*
X153050404Y-130628180D02*
X153098023Y-130532942D01*
X153098023Y-130532942D02*
X153098023Y-129723419D01*
X154050404Y-129723419D02*
X153574214Y-129723419D01*
X153574214Y-129723419D02*
X153526595Y-130199609D01*
X153526595Y-130199609D02*
X153574214Y-130151990D01*
X153574214Y-130151990D02*
X153669452Y-130104371D01*
X153669452Y-130104371D02*
X153907547Y-130104371D01*
X153907547Y-130104371D02*
X154002785Y-130151990D01*
X154002785Y-130151990D02*
X154050404Y-130199609D01*
X154050404Y-130199609D02*
X154098023Y-130294847D01*
X154098023Y-130294847D02*
X154098023Y-130532942D01*
X154098023Y-130532942D02*
X154050404Y-130628180D01*
X154050404Y-130628180D02*
X154002785Y-130675800D01*
X154002785Y-130675800D02*
X153907547Y-130723419D01*
X153907547Y-130723419D02*
X153669452Y-130723419D01*
X153669452Y-130723419D02*
X153574214Y-130675800D01*
X153574214Y-130675800D02*
X153526595Y-130628180D01*
D10*
X207456666Y-89984819D02*
X207456666Y-90699104D01*
X207456666Y-90699104D02*
X207409047Y-90841961D01*
X207409047Y-90841961D02*
X207313809Y-90937200D01*
X207313809Y-90937200D02*
X207170952Y-90984819D01*
X207170952Y-90984819D02*
X207075714Y-90984819D01*
X207837619Y-89984819D02*
X208456666Y-89984819D01*
X208456666Y-89984819D02*
X208123333Y-90365771D01*
X208123333Y-90365771D02*
X208266190Y-90365771D01*
X208266190Y-90365771D02*
X208361428Y-90413390D01*
X208361428Y-90413390D02*
X208409047Y-90461009D01*
X208409047Y-90461009D02*
X208456666Y-90556247D01*
X208456666Y-90556247D02*
X208456666Y-90794342D01*
X208456666Y-90794342D02*
X208409047Y-90889580D01*
X208409047Y-90889580D02*
X208361428Y-90937200D01*
X208361428Y-90937200D02*
X208266190Y-90984819D01*
X208266190Y-90984819D02*
X207980476Y-90984819D01*
X207980476Y-90984819D02*
X207885238Y-90937200D01*
X207885238Y-90937200D02*
X207837619Y-90889580D01*
X174751905Y-96764819D02*
X174751905Y-95764819D01*
X174751905Y-95764819D02*
X174990000Y-95764819D01*
X174990000Y-95764819D02*
X175132857Y-95812438D01*
X175132857Y-95812438D02*
X175228095Y-95907676D01*
X175228095Y-95907676D02*
X175275714Y-96002914D01*
X175275714Y-96002914D02*
X175323333Y-96193390D01*
X175323333Y-96193390D02*
X175323333Y-96336247D01*
X175323333Y-96336247D02*
X175275714Y-96526723D01*
X175275714Y-96526723D02*
X175228095Y-96621961D01*
X175228095Y-96621961D02*
X175132857Y-96717200D01*
X175132857Y-96717200D02*
X174990000Y-96764819D01*
X174990000Y-96764819D02*
X174751905Y-96764819D01*
X175704286Y-95860057D02*
X175751905Y-95812438D01*
X175751905Y-95812438D02*
X175847143Y-95764819D01*
X175847143Y-95764819D02*
X176085238Y-95764819D01*
X176085238Y-95764819D02*
X176180476Y-95812438D01*
X176180476Y-95812438D02*
X176228095Y-95860057D01*
X176228095Y-95860057D02*
X176275714Y-95955295D01*
X176275714Y-95955295D02*
X176275714Y-96050533D01*
X176275714Y-96050533D02*
X176228095Y-96193390D01*
X176228095Y-96193390D02*
X175656667Y-96764819D01*
X175656667Y-96764819D02*
X176275714Y-96764819D01*
X157082080Y-130820857D02*
X157129700Y-130868476D01*
X157129700Y-130868476D02*
X157177319Y-131011333D01*
X157177319Y-131011333D02*
X157177319Y-131106571D01*
X157177319Y-131106571D02*
X157129700Y-131249428D01*
X157129700Y-131249428D02*
X157034461Y-131344666D01*
X157034461Y-131344666D02*
X156939223Y-131392285D01*
X156939223Y-131392285D02*
X156748747Y-131439904D01*
X156748747Y-131439904D02*
X156605890Y-131439904D01*
X156605890Y-131439904D02*
X156415414Y-131392285D01*
X156415414Y-131392285D02*
X156320176Y-131344666D01*
X156320176Y-131344666D02*
X156224938Y-131249428D01*
X156224938Y-131249428D02*
X156177319Y-131106571D01*
X156177319Y-131106571D02*
X156177319Y-131011333D01*
X156177319Y-131011333D02*
X156224938Y-130868476D01*
X156224938Y-130868476D02*
X156272557Y-130820857D01*
X157177319Y-129868476D02*
X157177319Y-130439904D01*
X157177319Y-130154190D02*
X156177319Y-130154190D01*
X156177319Y-130154190D02*
X156320176Y-130249428D01*
X156320176Y-130249428D02*
X156415414Y-130344666D01*
X156415414Y-130344666D02*
X156463033Y-130439904D01*
X156510652Y-129011333D02*
X157177319Y-129011333D01*
X156129700Y-129249428D02*
X156843985Y-129487523D01*
X156843985Y-129487523D02*
X156843985Y-128868476D01*
X170914819Y-131590857D02*
X170438628Y-131924190D01*
X170914819Y-132162285D02*
X169914819Y-132162285D01*
X169914819Y-132162285D02*
X169914819Y-131781333D01*
X169914819Y-131781333D02*
X169962438Y-131686095D01*
X169962438Y-131686095D02*
X170010057Y-131638476D01*
X170010057Y-131638476D02*
X170105295Y-131590857D01*
X170105295Y-131590857D02*
X170248152Y-131590857D01*
X170248152Y-131590857D02*
X170343390Y-131638476D01*
X170343390Y-131638476D02*
X170391009Y-131686095D01*
X170391009Y-131686095D02*
X170438628Y-131781333D01*
X170438628Y-131781333D02*
X170438628Y-132162285D01*
X170914819Y-130638476D02*
X170914819Y-131209904D01*
X170914819Y-130924190D02*
X169914819Y-130924190D01*
X169914819Y-130924190D02*
X170057676Y-131019428D01*
X170057676Y-131019428D02*
X170152914Y-131114666D01*
X170152914Y-131114666D02*
X170200533Y-131209904D01*
X170914819Y-129686095D02*
X170914819Y-130257523D01*
X170914819Y-129971809D02*
X169914819Y-129971809D01*
X169914819Y-129971809D02*
X170057676Y-130067047D01*
X170057676Y-130067047D02*
X170152914Y-130162285D01*
X170152914Y-130162285D02*
X170200533Y-130257523D01*
D16*
X174698095Y-116095419D02*
X174698095Y-116904942D01*
X174698095Y-116904942D02*
X174745714Y-117000180D01*
X174745714Y-117000180D02*
X174793333Y-117047800D01*
X174793333Y-117047800D02*
X174888571Y-117095419D01*
X174888571Y-117095419D02*
X175079047Y-117095419D01*
X175079047Y-117095419D02*
X175174285Y-117047800D01*
X175174285Y-117047800D02*
X175221904Y-117000180D01*
X175221904Y-117000180D02*
X175269523Y-116904942D01*
X175269523Y-116904942D02*
X175269523Y-116095419D01*
X176174285Y-116095419D02*
X175983809Y-116095419D01*
X175983809Y-116095419D02*
X175888571Y-116143038D01*
X175888571Y-116143038D02*
X175840952Y-116190657D01*
X175840952Y-116190657D02*
X175745714Y-116333514D01*
X175745714Y-116333514D02*
X175698095Y-116523990D01*
X175698095Y-116523990D02*
X175698095Y-116904942D01*
X175698095Y-116904942D02*
X175745714Y-117000180D01*
X175745714Y-117000180D02*
X175793333Y-117047800D01*
X175793333Y-117047800D02*
X175888571Y-117095419D01*
X175888571Y-117095419D02*
X176079047Y-117095419D01*
X176079047Y-117095419D02*
X176174285Y-117047800D01*
X176174285Y-117047800D02*
X176221904Y-117000180D01*
X176221904Y-117000180D02*
X176269523Y-116904942D01*
X176269523Y-116904942D02*
X176269523Y-116666847D01*
X176269523Y-116666847D02*
X176221904Y-116571609D01*
X176221904Y-116571609D02*
X176174285Y-116523990D01*
X176174285Y-116523990D02*
X176079047Y-116476371D01*
X176079047Y-116476371D02*
X175888571Y-116476371D01*
X175888571Y-116476371D02*
X175793333Y-116523990D01*
X175793333Y-116523990D02*
X175745714Y-116571609D01*
X175745714Y-116571609D02*
X175698095Y-116666847D01*
D10*
X201724819Y-123424285D02*
X200724819Y-123424285D01*
X200724819Y-123424285D02*
X200724819Y-123186190D01*
X200724819Y-123186190D02*
X200772438Y-123043333D01*
X200772438Y-123043333D02*
X200867676Y-122948095D01*
X200867676Y-122948095D02*
X200962914Y-122900476D01*
X200962914Y-122900476D02*
X201153390Y-122852857D01*
X201153390Y-122852857D02*
X201296247Y-122852857D01*
X201296247Y-122852857D02*
X201486723Y-122900476D01*
X201486723Y-122900476D02*
X201581961Y-122948095D01*
X201581961Y-122948095D02*
X201677200Y-123043333D01*
X201677200Y-123043333D02*
X201724819Y-123186190D01*
X201724819Y-123186190D02*
X201724819Y-123424285D01*
X201724819Y-121900476D02*
X201724819Y-122471904D01*
X201724819Y-122186190D02*
X200724819Y-122186190D01*
X200724819Y-122186190D02*
X200867676Y-122281428D01*
X200867676Y-122281428D02*
X200962914Y-122376666D01*
X200962914Y-122376666D02*
X201010533Y-122471904D01*
X200724819Y-121567142D02*
X200724819Y-120948095D01*
X200724819Y-120948095D02*
X201105771Y-121281428D01*
X201105771Y-121281428D02*
X201105771Y-121138571D01*
X201105771Y-121138571D02*
X201153390Y-121043333D01*
X201153390Y-121043333D02*
X201201009Y-120995714D01*
X201201009Y-120995714D02*
X201296247Y-120948095D01*
X201296247Y-120948095D02*
X201534342Y-120948095D01*
X201534342Y-120948095D02*
X201629580Y-120995714D01*
X201629580Y-120995714D02*
X201677200Y-121043333D01*
X201677200Y-121043333D02*
X201724819Y-121138571D01*
X201724819Y-121138571D02*
X201724819Y-121424285D01*
X201724819Y-121424285D02*
X201677200Y-121519523D01*
X201677200Y-121519523D02*
X201629580Y-121567142D01*
X168433333Y-92254819D02*
X168100000Y-91778628D01*
X167861905Y-92254819D02*
X167861905Y-91254819D01*
X167861905Y-91254819D02*
X168242857Y-91254819D01*
X168242857Y-91254819D02*
X168338095Y-91302438D01*
X168338095Y-91302438D02*
X168385714Y-91350057D01*
X168385714Y-91350057D02*
X168433333Y-91445295D01*
X168433333Y-91445295D02*
X168433333Y-91588152D01*
X168433333Y-91588152D02*
X168385714Y-91683390D01*
X168385714Y-91683390D02*
X168338095Y-91731009D01*
X168338095Y-91731009D02*
X168242857Y-91778628D01*
X168242857Y-91778628D02*
X167861905Y-91778628D01*
X169004762Y-91683390D02*
X168909524Y-91635771D01*
X168909524Y-91635771D02*
X168861905Y-91588152D01*
X168861905Y-91588152D02*
X168814286Y-91492914D01*
X168814286Y-91492914D02*
X168814286Y-91445295D01*
X168814286Y-91445295D02*
X168861905Y-91350057D01*
X168861905Y-91350057D02*
X168909524Y-91302438D01*
X168909524Y-91302438D02*
X169004762Y-91254819D01*
X169004762Y-91254819D02*
X169195238Y-91254819D01*
X169195238Y-91254819D02*
X169290476Y-91302438D01*
X169290476Y-91302438D02*
X169338095Y-91350057D01*
X169338095Y-91350057D02*
X169385714Y-91445295D01*
X169385714Y-91445295D02*
X169385714Y-91492914D01*
X169385714Y-91492914D02*
X169338095Y-91588152D01*
X169338095Y-91588152D02*
X169290476Y-91635771D01*
X169290476Y-91635771D02*
X169195238Y-91683390D01*
X169195238Y-91683390D02*
X169004762Y-91683390D01*
X169004762Y-91683390D02*
X168909524Y-91731009D01*
X168909524Y-91731009D02*
X168861905Y-91778628D01*
X168861905Y-91778628D02*
X168814286Y-91873866D01*
X168814286Y-91873866D02*
X168814286Y-92064342D01*
X168814286Y-92064342D02*
X168861905Y-92159580D01*
X168861905Y-92159580D02*
X168909524Y-92207200D01*
X168909524Y-92207200D02*
X169004762Y-92254819D01*
X169004762Y-92254819D02*
X169195238Y-92254819D01*
X169195238Y-92254819D02*
X169290476Y-92207200D01*
X169290476Y-92207200D02*
X169338095Y-92159580D01*
X169338095Y-92159580D02*
X169385714Y-92064342D01*
X169385714Y-92064342D02*
X169385714Y-91873866D01*
X169385714Y-91873866D02*
X169338095Y-91778628D01*
X169338095Y-91778628D02*
X169290476Y-91731009D01*
X169290476Y-91731009D02*
X169195238Y-91683390D01*
X139334819Y-88183333D02*
X140049104Y-88183333D01*
X140049104Y-88183333D02*
X140191961Y-88230952D01*
X140191961Y-88230952D02*
X140287200Y-88326190D01*
X140287200Y-88326190D02*
X140334819Y-88469047D01*
X140334819Y-88469047D02*
X140334819Y-88564285D01*
X139668152Y-87278571D02*
X140334819Y-87278571D01*
X139287200Y-87516666D02*
X140001485Y-87754761D01*
X140001485Y-87754761D02*
X140001485Y-87135714D01*
D16*
X147958095Y-108447419D02*
X147958095Y-109256942D01*
X147958095Y-109256942D02*
X148005714Y-109352180D01*
X148005714Y-109352180D02*
X148053333Y-109399800D01*
X148053333Y-109399800D02*
X148148571Y-109447419D01*
X148148571Y-109447419D02*
X148339047Y-109447419D01*
X148339047Y-109447419D02*
X148434285Y-109399800D01*
X148434285Y-109399800D02*
X148481904Y-109352180D01*
X148481904Y-109352180D02*
X148529523Y-109256942D01*
X148529523Y-109256942D02*
X148529523Y-108447419D01*
X148910476Y-108447419D02*
X149529523Y-108447419D01*
X149529523Y-108447419D02*
X149196190Y-108828371D01*
X149196190Y-108828371D02*
X149339047Y-108828371D01*
X149339047Y-108828371D02*
X149434285Y-108875990D01*
X149434285Y-108875990D02*
X149481904Y-108923609D01*
X149481904Y-108923609D02*
X149529523Y-109018847D01*
X149529523Y-109018847D02*
X149529523Y-109256942D01*
X149529523Y-109256942D02*
X149481904Y-109352180D01*
X149481904Y-109352180D02*
X149434285Y-109399800D01*
X149434285Y-109399800D02*
X149339047Y-109447419D01*
X149339047Y-109447419D02*
X149053333Y-109447419D01*
X149053333Y-109447419D02*
X148958095Y-109399800D01*
X148958095Y-109399800D02*
X148910476Y-109352180D01*
D10*
X176200142Y-108627580D02*
X176152523Y-108675200D01*
X176152523Y-108675200D02*
X176009666Y-108722819D01*
X176009666Y-108722819D02*
X175914428Y-108722819D01*
X175914428Y-108722819D02*
X175771571Y-108675200D01*
X175771571Y-108675200D02*
X175676333Y-108579961D01*
X175676333Y-108579961D02*
X175628714Y-108484723D01*
X175628714Y-108484723D02*
X175581095Y-108294247D01*
X175581095Y-108294247D02*
X175581095Y-108151390D01*
X175581095Y-108151390D02*
X175628714Y-107960914D01*
X175628714Y-107960914D02*
X175676333Y-107865676D01*
X175676333Y-107865676D02*
X175771571Y-107770438D01*
X175771571Y-107770438D02*
X175914428Y-107722819D01*
X175914428Y-107722819D02*
X176009666Y-107722819D01*
X176009666Y-107722819D02*
X176152523Y-107770438D01*
X176152523Y-107770438D02*
X176200142Y-107818057D01*
X176581095Y-107818057D02*
X176628714Y-107770438D01*
X176628714Y-107770438D02*
X176723952Y-107722819D01*
X176723952Y-107722819D02*
X176962047Y-107722819D01*
X176962047Y-107722819D02*
X177057285Y-107770438D01*
X177057285Y-107770438D02*
X177104904Y-107818057D01*
X177104904Y-107818057D02*
X177152523Y-107913295D01*
X177152523Y-107913295D02*
X177152523Y-108008533D01*
X177152523Y-108008533D02*
X177104904Y-108151390D01*
X177104904Y-108151390D02*
X176533476Y-108722819D01*
X176533476Y-108722819D02*
X177152523Y-108722819D01*
X177533476Y-107818057D02*
X177581095Y-107770438D01*
X177581095Y-107770438D02*
X177676333Y-107722819D01*
X177676333Y-107722819D02*
X177914428Y-107722819D01*
X177914428Y-107722819D02*
X178009666Y-107770438D01*
X178009666Y-107770438D02*
X178057285Y-107818057D01*
X178057285Y-107818057D02*
X178104904Y-107913295D01*
X178104904Y-107913295D02*
X178104904Y-108008533D01*
X178104904Y-108008533D02*
X178057285Y-108151390D01*
X178057285Y-108151390D02*
X177485857Y-108722819D01*
X177485857Y-108722819D02*
X178104904Y-108722819D01*
X193764819Y-96636166D02*
X193288628Y-96969499D01*
X193764819Y-97207594D02*
X192764819Y-97207594D01*
X192764819Y-97207594D02*
X192764819Y-96826642D01*
X192764819Y-96826642D02*
X192812438Y-96731404D01*
X192812438Y-96731404D02*
X192860057Y-96683785D01*
X192860057Y-96683785D02*
X192955295Y-96636166D01*
X192955295Y-96636166D02*
X193098152Y-96636166D01*
X193098152Y-96636166D02*
X193193390Y-96683785D01*
X193193390Y-96683785D02*
X193241009Y-96731404D01*
X193241009Y-96731404D02*
X193288628Y-96826642D01*
X193288628Y-96826642D02*
X193288628Y-97207594D01*
X192764819Y-96302832D02*
X192764819Y-95683785D01*
X192764819Y-95683785D02*
X193145771Y-96017118D01*
X193145771Y-96017118D02*
X193145771Y-95874261D01*
X193145771Y-95874261D02*
X193193390Y-95779023D01*
X193193390Y-95779023D02*
X193241009Y-95731404D01*
X193241009Y-95731404D02*
X193336247Y-95683785D01*
X193336247Y-95683785D02*
X193574342Y-95683785D01*
X193574342Y-95683785D02*
X193669580Y-95731404D01*
X193669580Y-95731404D02*
X193717200Y-95779023D01*
X193717200Y-95779023D02*
X193764819Y-95874261D01*
X193764819Y-95874261D02*
X193764819Y-96159975D01*
X193764819Y-96159975D02*
X193717200Y-96255213D01*
X193717200Y-96255213D02*
X193669580Y-96302832D01*
X208284819Y-120226785D02*
X207284819Y-120226785D01*
X207284819Y-120226785D02*
X207284819Y-119988690D01*
X207284819Y-119988690D02*
X207332438Y-119845833D01*
X207332438Y-119845833D02*
X207427676Y-119750595D01*
X207427676Y-119750595D02*
X207522914Y-119702976D01*
X207522914Y-119702976D02*
X207713390Y-119655357D01*
X207713390Y-119655357D02*
X207856247Y-119655357D01*
X207856247Y-119655357D02*
X208046723Y-119702976D01*
X208046723Y-119702976D02*
X208141961Y-119750595D01*
X208141961Y-119750595D02*
X208237200Y-119845833D01*
X208237200Y-119845833D02*
X208284819Y-119988690D01*
X208284819Y-119988690D02*
X208284819Y-120226785D01*
X208284819Y-118702976D02*
X208284819Y-119274404D01*
X208284819Y-118988690D02*
X207284819Y-118988690D01*
X207284819Y-118988690D02*
X207427676Y-119083928D01*
X207427676Y-119083928D02*
X207522914Y-119179166D01*
X207522914Y-119179166D02*
X207570533Y-119274404D01*
X207618152Y-117845833D02*
X208284819Y-117845833D01*
X207237200Y-118083928D02*
X207951485Y-118322023D01*
X207951485Y-118322023D02*
X207951485Y-117702976D01*
X159643333Y-101219580D02*
X159595714Y-101267200D01*
X159595714Y-101267200D02*
X159452857Y-101314819D01*
X159452857Y-101314819D02*
X159357619Y-101314819D01*
X159357619Y-101314819D02*
X159214762Y-101267200D01*
X159214762Y-101267200D02*
X159119524Y-101171961D01*
X159119524Y-101171961D02*
X159071905Y-101076723D01*
X159071905Y-101076723D02*
X159024286Y-100886247D01*
X159024286Y-100886247D02*
X159024286Y-100743390D01*
X159024286Y-100743390D02*
X159071905Y-100552914D01*
X159071905Y-100552914D02*
X159119524Y-100457676D01*
X159119524Y-100457676D02*
X159214762Y-100362438D01*
X159214762Y-100362438D02*
X159357619Y-100314819D01*
X159357619Y-100314819D02*
X159452857Y-100314819D01*
X159452857Y-100314819D02*
X159595714Y-100362438D01*
X159595714Y-100362438D02*
X159643333Y-100410057D01*
X160214762Y-100743390D02*
X160119524Y-100695771D01*
X160119524Y-100695771D02*
X160071905Y-100648152D01*
X160071905Y-100648152D02*
X160024286Y-100552914D01*
X160024286Y-100552914D02*
X160024286Y-100505295D01*
X160024286Y-100505295D02*
X160071905Y-100410057D01*
X160071905Y-100410057D02*
X160119524Y-100362438D01*
X160119524Y-100362438D02*
X160214762Y-100314819D01*
X160214762Y-100314819D02*
X160405238Y-100314819D01*
X160405238Y-100314819D02*
X160500476Y-100362438D01*
X160500476Y-100362438D02*
X160548095Y-100410057D01*
X160548095Y-100410057D02*
X160595714Y-100505295D01*
X160595714Y-100505295D02*
X160595714Y-100552914D01*
X160595714Y-100552914D02*
X160548095Y-100648152D01*
X160548095Y-100648152D02*
X160500476Y-100695771D01*
X160500476Y-100695771D02*
X160405238Y-100743390D01*
X160405238Y-100743390D02*
X160214762Y-100743390D01*
X160214762Y-100743390D02*
X160119524Y-100791009D01*
X160119524Y-100791009D02*
X160071905Y-100838628D01*
X160071905Y-100838628D02*
X160024286Y-100933866D01*
X160024286Y-100933866D02*
X160024286Y-101124342D01*
X160024286Y-101124342D02*
X160071905Y-101219580D01*
X160071905Y-101219580D02*
X160119524Y-101267200D01*
X160119524Y-101267200D02*
X160214762Y-101314819D01*
X160214762Y-101314819D02*
X160405238Y-101314819D01*
X160405238Y-101314819D02*
X160500476Y-101267200D01*
X160500476Y-101267200D02*
X160548095Y-101219580D01*
X160548095Y-101219580D02*
X160595714Y-101124342D01*
X160595714Y-101124342D02*
X160595714Y-100933866D01*
X160595714Y-100933866D02*
X160548095Y-100838628D01*
X160548095Y-100838628D02*
X160500476Y-100791009D01*
X160500476Y-100791009D02*
X160405238Y-100743390D01*
X157634819Y-123432857D02*
X157158628Y-123766190D01*
X157634819Y-124004285D02*
X156634819Y-124004285D01*
X156634819Y-124004285D02*
X156634819Y-123623333D01*
X156634819Y-123623333D02*
X156682438Y-123528095D01*
X156682438Y-123528095D02*
X156730057Y-123480476D01*
X156730057Y-123480476D02*
X156825295Y-123432857D01*
X156825295Y-123432857D02*
X156968152Y-123432857D01*
X156968152Y-123432857D02*
X157063390Y-123480476D01*
X157063390Y-123480476D02*
X157111009Y-123528095D01*
X157111009Y-123528095D02*
X157158628Y-123623333D01*
X157158628Y-123623333D02*
X157158628Y-124004285D01*
X157634819Y-122480476D02*
X157634819Y-123051904D01*
X157634819Y-122766190D02*
X156634819Y-122766190D01*
X156634819Y-122766190D02*
X156777676Y-122861428D01*
X156777676Y-122861428D02*
X156872914Y-122956666D01*
X156872914Y-122956666D02*
X156920533Y-123051904D01*
X156968152Y-121623333D02*
X157634819Y-121623333D01*
X156587200Y-121861428D02*
X157301485Y-122099523D01*
X157301485Y-122099523D02*
X157301485Y-121480476D01*
X202104819Y-130026594D02*
X201104819Y-130026594D01*
X201104819Y-130026594D02*
X201104819Y-129788499D01*
X201104819Y-129788499D02*
X201152438Y-129645642D01*
X201152438Y-129645642D02*
X201247676Y-129550404D01*
X201247676Y-129550404D02*
X201342914Y-129502785D01*
X201342914Y-129502785D02*
X201533390Y-129455166D01*
X201533390Y-129455166D02*
X201676247Y-129455166D01*
X201676247Y-129455166D02*
X201866723Y-129502785D01*
X201866723Y-129502785D02*
X201961961Y-129550404D01*
X201961961Y-129550404D02*
X202057200Y-129645642D01*
X202057200Y-129645642D02*
X202104819Y-129788499D01*
X202104819Y-129788499D02*
X202104819Y-130026594D01*
X201104819Y-129121832D02*
X201104819Y-128502785D01*
X201104819Y-128502785D02*
X201485771Y-128836118D01*
X201485771Y-128836118D02*
X201485771Y-128693261D01*
X201485771Y-128693261D02*
X201533390Y-128598023D01*
X201533390Y-128598023D02*
X201581009Y-128550404D01*
X201581009Y-128550404D02*
X201676247Y-128502785D01*
X201676247Y-128502785D02*
X201914342Y-128502785D01*
X201914342Y-128502785D02*
X202009580Y-128550404D01*
X202009580Y-128550404D02*
X202057200Y-128598023D01*
X202057200Y-128598023D02*
X202104819Y-128693261D01*
X202104819Y-128693261D02*
X202104819Y-128978975D01*
X202104819Y-128978975D02*
X202057200Y-129074213D01*
X202057200Y-129074213D02*
X202009580Y-129121832D01*
X201288819Y-111466285D02*
X200288819Y-111466285D01*
X200288819Y-111466285D02*
X200288819Y-111228190D01*
X200288819Y-111228190D02*
X200336438Y-111085333D01*
X200336438Y-111085333D02*
X200431676Y-110990095D01*
X200431676Y-110990095D02*
X200526914Y-110942476D01*
X200526914Y-110942476D02*
X200717390Y-110894857D01*
X200717390Y-110894857D02*
X200860247Y-110894857D01*
X200860247Y-110894857D02*
X201050723Y-110942476D01*
X201050723Y-110942476D02*
X201145961Y-110990095D01*
X201145961Y-110990095D02*
X201241200Y-111085333D01*
X201241200Y-111085333D02*
X201288819Y-111228190D01*
X201288819Y-111228190D02*
X201288819Y-111466285D01*
X201288819Y-109942476D02*
X201288819Y-110513904D01*
X201288819Y-110228190D02*
X200288819Y-110228190D01*
X200288819Y-110228190D02*
X200431676Y-110323428D01*
X200431676Y-110323428D02*
X200526914Y-110418666D01*
X200526914Y-110418666D02*
X200574533Y-110513904D01*
X201288819Y-109466285D02*
X201288819Y-109275809D01*
X201288819Y-109275809D02*
X201241200Y-109180571D01*
X201241200Y-109180571D02*
X201193580Y-109132952D01*
X201193580Y-109132952D02*
X201050723Y-109037714D01*
X201050723Y-109037714D02*
X200860247Y-108990095D01*
X200860247Y-108990095D02*
X200479295Y-108990095D01*
X200479295Y-108990095D02*
X200384057Y-109037714D01*
X200384057Y-109037714D02*
X200336438Y-109085333D01*
X200336438Y-109085333D02*
X200288819Y-109180571D01*
X200288819Y-109180571D02*
X200288819Y-109371047D01*
X200288819Y-109371047D02*
X200336438Y-109466285D01*
X200336438Y-109466285D02*
X200384057Y-109513904D01*
X200384057Y-109513904D02*
X200479295Y-109561523D01*
X200479295Y-109561523D02*
X200717390Y-109561523D01*
X200717390Y-109561523D02*
X200812628Y-109513904D01*
X200812628Y-109513904D02*
X200860247Y-109466285D01*
X200860247Y-109466285D02*
X200907866Y-109371047D01*
X200907866Y-109371047D02*
X200907866Y-109180571D01*
X200907866Y-109180571D02*
X200860247Y-109085333D01*
X200860247Y-109085333D02*
X200812628Y-109037714D01*
X200812628Y-109037714D02*
X200717390Y-108990095D01*
X148044580Y-91852666D02*
X148092200Y-91900285D01*
X148092200Y-91900285D02*
X148139819Y-92043142D01*
X148139819Y-92043142D02*
X148139819Y-92138380D01*
X148139819Y-92138380D02*
X148092200Y-92281237D01*
X148092200Y-92281237D02*
X147996961Y-92376475D01*
X147996961Y-92376475D02*
X147901723Y-92424094D01*
X147901723Y-92424094D02*
X147711247Y-92471713D01*
X147711247Y-92471713D02*
X147568390Y-92471713D01*
X147568390Y-92471713D02*
X147377914Y-92424094D01*
X147377914Y-92424094D02*
X147282676Y-92376475D01*
X147282676Y-92376475D02*
X147187438Y-92281237D01*
X147187438Y-92281237D02*
X147139819Y-92138380D01*
X147139819Y-92138380D02*
X147139819Y-92043142D01*
X147139819Y-92043142D02*
X147187438Y-91900285D01*
X147187438Y-91900285D02*
X147235057Y-91852666D01*
X147139819Y-90947904D02*
X147139819Y-91424094D01*
X147139819Y-91424094D02*
X147616009Y-91471713D01*
X147616009Y-91471713D02*
X147568390Y-91424094D01*
X147568390Y-91424094D02*
X147520771Y-91328856D01*
X147520771Y-91328856D02*
X147520771Y-91090761D01*
X147520771Y-91090761D02*
X147568390Y-90995523D01*
X147568390Y-90995523D02*
X147616009Y-90947904D01*
X147616009Y-90947904D02*
X147711247Y-90900285D01*
X147711247Y-90900285D02*
X147949342Y-90900285D01*
X147949342Y-90900285D02*
X148044580Y-90947904D01*
X148044580Y-90947904D02*
X148092200Y-90995523D01*
X148092200Y-90995523D02*
X148139819Y-91090761D01*
X148139819Y-91090761D02*
X148139819Y-91328856D01*
X148139819Y-91328856D02*
X148092200Y-91424094D01*
X148092200Y-91424094D02*
X148044580Y-91471713D01*
X158535833Y-133812819D02*
X158059643Y-133812819D01*
X158059643Y-133812819D02*
X158059643Y-132812819D01*
X158821548Y-132908057D02*
X158869167Y-132860438D01*
X158869167Y-132860438D02*
X158964405Y-132812819D01*
X158964405Y-132812819D02*
X159202500Y-132812819D01*
X159202500Y-132812819D02*
X159297738Y-132860438D01*
X159297738Y-132860438D02*
X159345357Y-132908057D01*
X159345357Y-132908057D02*
X159392976Y-133003295D01*
X159392976Y-133003295D02*
X159392976Y-133098533D01*
X159392976Y-133098533D02*
X159345357Y-133241390D01*
X159345357Y-133241390D02*
X158773929Y-133812819D01*
X158773929Y-133812819D02*
X159392976Y-133812819D01*
X154503333Y-112222319D02*
X154027143Y-112222319D01*
X154027143Y-112222319D02*
X154027143Y-111222319D01*
X155360476Y-112222319D02*
X154789048Y-112222319D01*
X155074762Y-112222319D02*
X155074762Y-111222319D01*
X155074762Y-111222319D02*
X154979524Y-111365176D01*
X154979524Y-111365176D02*
X154884286Y-111460414D01*
X154884286Y-111460414D02*
X154789048Y-111508033D01*
X142106666Y-73614819D02*
X142106666Y-74329104D01*
X142106666Y-74329104D02*
X142059047Y-74471961D01*
X142059047Y-74471961D02*
X141963809Y-74567200D01*
X141963809Y-74567200D02*
X141820952Y-74614819D01*
X141820952Y-74614819D02*
X141725714Y-74614819D01*
X142535238Y-73710057D02*
X142582857Y-73662438D01*
X142582857Y-73662438D02*
X142678095Y-73614819D01*
X142678095Y-73614819D02*
X142916190Y-73614819D01*
X142916190Y-73614819D02*
X143011428Y-73662438D01*
X143011428Y-73662438D02*
X143059047Y-73710057D01*
X143059047Y-73710057D02*
X143106666Y-73805295D01*
X143106666Y-73805295D02*
X143106666Y-73900533D01*
X143106666Y-73900533D02*
X143059047Y-74043390D01*
X143059047Y-74043390D02*
X142487619Y-74614819D01*
X142487619Y-74614819D02*
X143106666Y-74614819D01*
X179144642Y-110362819D02*
X178811309Y-109886628D01*
X178573214Y-110362819D02*
X178573214Y-109362819D01*
X178573214Y-109362819D02*
X178954166Y-109362819D01*
X178954166Y-109362819D02*
X179049404Y-109410438D01*
X179049404Y-109410438D02*
X179097023Y-109458057D01*
X179097023Y-109458057D02*
X179144642Y-109553295D01*
X179144642Y-109553295D02*
X179144642Y-109696152D01*
X179144642Y-109696152D02*
X179097023Y-109791390D01*
X179097023Y-109791390D02*
X179049404Y-109839009D01*
X179049404Y-109839009D02*
X178954166Y-109886628D01*
X178954166Y-109886628D02*
X178573214Y-109886628D01*
X180097023Y-110362819D02*
X179525595Y-110362819D01*
X179811309Y-110362819D02*
X179811309Y-109362819D01*
X179811309Y-109362819D02*
X179716071Y-109505676D01*
X179716071Y-109505676D02*
X179620833Y-109600914D01*
X179620833Y-109600914D02*
X179525595Y-109648533D01*
X181001785Y-109362819D02*
X180525595Y-109362819D01*
X180525595Y-109362819D02*
X180477976Y-109839009D01*
X180477976Y-109839009D02*
X180525595Y-109791390D01*
X180525595Y-109791390D02*
X180620833Y-109743771D01*
X180620833Y-109743771D02*
X180858928Y-109743771D01*
X180858928Y-109743771D02*
X180954166Y-109791390D01*
X180954166Y-109791390D02*
X181001785Y-109839009D01*
X181001785Y-109839009D02*
X181049404Y-109934247D01*
X181049404Y-109934247D02*
X181049404Y-110172342D01*
X181049404Y-110172342D02*
X181001785Y-110267580D01*
X181001785Y-110267580D02*
X180954166Y-110315200D01*
X180954166Y-110315200D02*
X180858928Y-110362819D01*
X180858928Y-110362819D02*
X180620833Y-110362819D01*
X180620833Y-110362819D02*
X180525595Y-110315200D01*
X180525595Y-110315200D02*
X180477976Y-110267580D01*
X179069580Y-117010857D02*
X179117200Y-117058476D01*
X179117200Y-117058476D02*
X179164819Y-117201333D01*
X179164819Y-117201333D02*
X179164819Y-117296571D01*
X179164819Y-117296571D02*
X179117200Y-117439428D01*
X179117200Y-117439428D02*
X179021961Y-117534666D01*
X179021961Y-117534666D02*
X178926723Y-117582285D01*
X178926723Y-117582285D02*
X178736247Y-117629904D01*
X178736247Y-117629904D02*
X178593390Y-117629904D01*
X178593390Y-117629904D02*
X178402914Y-117582285D01*
X178402914Y-117582285D02*
X178307676Y-117534666D01*
X178307676Y-117534666D02*
X178212438Y-117439428D01*
X178212438Y-117439428D02*
X178164819Y-117296571D01*
X178164819Y-117296571D02*
X178164819Y-117201333D01*
X178164819Y-117201333D02*
X178212438Y-117058476D01*
X178212438Y-117058476D02*
X178260057Y-117010857D01*
X179164819Y-116058476D02*
X179164819Y-116629904D01*
X179164819Y-116344190D02*
X178164819Y-116344190D01*
X178164819Y-116344190D02*
X178307676Y-116439428D01*
X178307676Y-116439428D02*
X178402914Y-116534666D01*
X178402914Y-116534666D02*
X178450533Y-116629904D01*
X178593390Y-115487047D02*
X178545771Y-115582285D01*
X178545771Y-115582285D02*
X178498152Y-115629904D01*
X178498152Y-115629904D02*
X178402914Y-115677523D01*
X178402914Y-115677523D02*
X178355295Y-115677523D01*
X178355295Y-115677523D02*
X178260057Y-115629904D01*
X178260057Y-115629904D02*
X178212438Y-115582285D01*
X178212438Y-115582285D02*
X178164819Y-115487047D01*
X178164819Y-115487047D02*
X178164819Y-115296571D01*
X178164819Y-115296571D02*
X178212438Y-115201333D01*
X178212438Y-115201333D02*
X178260057Y-115153714D01*
X178260057Y-115153714D02*
X178355295Y-115106095D01*
X178355295Y-115106095D02*
X178402914Y-115106095D01*
X178402914Y-115106095D02*
X178498152Y-115153714D01*
X178498152Y-115153714D02*
X178545771Y-115201333D01*
X178545771Y-115201333D02*
X178593390Y-115296571D01*
X178593390Y-115296571D02*
X178593390Y-115487047D01*
X178593390Y-115487047D02*
X178641009Y-115582285D01*
X178641009Y-115582285D02*
X178688628Y-115629904D01*
X178688628Y-115629904D02*
X178783866Y-115677523D01*
X178783866Y-115677523D02*
X178974342Y-115677523D01*
X178974342Y-115677523D02*
X179069580Y-115629904D01*
X179069580Y-115629904D02*
X179117200Y-115582285D01*
X179117200Y-115582285D02*
X179164819Y-115487047D01*
X179164819Y-115487047D02*
X179164819Y-115296571D01*
X179164819Y-115296571D02*
X179117200Y-115201333D01*
X179117200Y-115201333D02*
X179069580Y-115153714D01*
X179069580Y-115153714D02*
X178974342Y-115106095D01*
X178974342Y-115106095D02*
X178783866Y-115106095D01*
X178783866Y-115106095D02*
X178688628Y-115153714D01*
X178688628Y-115153714D02*
X178641009Y-115201333D01*
X178641009Y-115201333D02*
X178593390Y-115296571D01*
X180866095Y-94326819D02*
X180866095Y-95136342D01*
X180866095Y-95136342D02*
X180913714Y-95231580D01*
X180913714Y-95231580D02*
X180961333Y-95279200D01*
X180961333Y-95279200D02*
X181056571Y-95326819D01*
X181056571Y-95326819D02*
X181247047Y-95326819D01*
X181247047Y-95326819D02*
X181342285Y-95279200D01*
X181342285Y-95279200D02*
X181389904Y-95231580D01*
X181389904Y-95231580D02*
X181437523Y-95136342D01*
X181437523Y-95136342D02*
X181437523Y-94326819D01*
X182342285Y-94660152D02*
X182342285Y-95326819D01*
X182104190Y-94279200D02*
X181866095Y-94993485D01*
X181866095Y-94993485D02*
X182485142Y-94993485D01*
X189976666Y-82419819D02*
X189976666Y-83134104D01*
X189976666Y-83134104D02*
X189929047Y-83276961D01*
X189929047Y-83276961D02*
X189833809Y-83372200D01*
X189833809Y-83372200D02*
X189690952Y-83419819D01*
X189690952Y-83419819D02*
X189595714Y-83419819D01*
X190881428Y-82419819D02*
X190690952Y-82419819D01*
X190690952Y-82419819D02*
X190595714Y-82467438D01*
X190595714Y-82467438D02*
X190548095Y-82515057D01*
X190548095Y-82515057D02*
X190452857Y-82657914D01*
X190452857Y-82657914D02*
X190405238Y-82848390D01*
X190405238Y-82848390D02*
X190405238Y-83229342D01*
X190405238Y-83229342D02*
X190452857Y-83324580D01*
X190452857Y-83324580D02*
X190500476Y-83372200D01*
X190500476Y-83372200D02*
X190595714Y-83419819D01*
X190595714Y-83419819D02*
X190786190Y-83419819D01*
X190786190Y-83419819D02*
X190881428Y-83372200D01*
X190881428Y-83372200D02*
X190929047Y-83324580D01*
X190929047Y-83324580D02*
X190976666Y-83229342D01*
X190976666Y-83229342D02*
X190976666Y-82991247D01*
X190976666Y-82991247D02*
X190929047Y-82896009D01*
X190929047Y-82896009D02*
X190881428Y-82848390D01*
X190881428Y-82848390D02*
X190786190Y-82800771D01*
X190786190Y-82800771D02*
X190595714Y-82800771D01*
X190595714Y-82800771D02*
X190500476Y-82848390D01*
X190500476Y-82848390D02*
X190452857Y-82896009D01*
X190452857Y-82896009D02*
X190405238Y-82991247D01*
X183949580Y-106870857D02*
X183997200Y-106918476D01*
X183997200Y-106918476D02*
X184044819Y-107061333D01*
X184044819Y-107061333D02*
X184044819Y-107156571D01*
X184044819Y-107156571D02*
X183997200Y-107299428D01*
X183997200Y-107299428D02*
X183901961Y-107394666D01*
X183901961Y-107394666D02*
X183806723Y-107442285D01*
X183806723Y-107442285D02*
X183616247Y-107489904D01*
X183616247Y-107489904D02*
X183473390Y-107489904D01*
X183473390Y-107489904D02*
X183282914Y-107442285D01*
X183282914Y-107442285D02*
X183187676Y-107394666D01*
X183187676Y-107394666D02*
X183092438Y-107299428D01*
X183092438Y-107299428D02*
X183044819Y-107156571D01*
X183044819Y-107156571D02*
X183044819Y-107061333D01*
X183044819Y-107061333D02*
X183092438Y-106918476D01*
X183092438Y-106918476D02*
X183140057Y-106870857D01*
X184044819Y-105918476D02*
X184044819Y-106489904D01*
X184044819Y-106204190D02*
X183044819Y-106204190D01*
X183044819Y-106204190D02*
X183187676Y-106299428D01*
X183187676Y-106299428D02*
X183282914Y-106394666D01*
X183282914Y-106394666D02*
X183330533Y-106489904D01*
X183044819Y-105585142D02*
X183044819Y-104918476D01*
X183044819Y-104918476D02*
X184044819Y-105347047D01*
X191144819Y-120212857D02*
X190668628Y-120546190D01*
X191144819Y-120784285D02*
X190144819Y-120784285D01*
X190144819Y-120784285D02*
X190144819Y-120403333D01*
X190144819Y-120403333D02*
X190192438Y-120308095D01*
X190192438Y-120308095D02*
X190240057Y-120260476D01*
X190240057Y-120260476D02*
X190335295Y-120212857D01*
X190335295Y-120212857D02*
X190478152Y-120212857D01*
X190478152Y-120212857D02*
X190573390Y-120260476D01*
X190573390Y-120260476D02*
X190621009Y-120308095D01*
X190621009Y-120308095D02*
X190668628Y-120403333D01*
X190668628Y-120403333D02*
X190668628Y-120784285D01*
X191144819Y-119260476D02*
X191144819Y-119831904D01*
X191144819Y-119546190D02*
X190144819Y-119546190D01*
X190144819Y-119546190D02*
X190287676Y-119641428D01*
X190287676Y-119641428D02*
X190382914Y-119736666D01*
X190382914Y-119736666D02*
X190430533Y-119831904D01*
X190240057Y-118879523D02*
X190192438Y-118831904D01*
X190192438Y-118831904D02*
X190144819Y-118736666D01*
X190144819Y-118736666D02*
X190144819Y-118498571D01*
X190144819Y-118498571D02*
X190192438Y-118403333D01*
X190192438Y-118403333D02*
X190240057Y-118355714D01*
X190240057Y-118355714D02*
X190335295Y-118308095D01*
X190335295Y-118308095D02*
X190430533Y-118308095D01*
X190430533Y-118308095D02*
X190573390Y-118355714D01*
X190573390Y-118355714D02*
X191144819Y-118927142D01*
X191144819Y-118927142D02*
X191144819Y-118308095D01*
X185584819Y-120354285D02*
X184584819Y-120354285D01*
X184584819Y-120354285D02*
X184584819Y-120116190D01*
X184584819Y-120116190D02*
X184632438Y-119973333D01*
X184632438Y-119973333D02*
X184727676Y-119878095D01*
X184727676Y-119878095D02*
X184822914Y-119830476D01*
X184822914Y-119830476D02*
X185013390Y-119782857D01*
X185013390Y-119782857D02*
X185156247Y-119782857D01*
X185156247Y-119782857D02*
X185346723Y-119830476D01*
X185346723Y-119830476D02*
X185441961Y-119878095D01*
X185441961Y-119878095D02*
X185537200Y-119973333D01*
X185537200Y-119973333D02*
X185584819Y-120116190D01*
X185584819Y-120116190D02*
X185584819Y-120354285D01*
X185584819Y-118830476D02*
X185584819Y-119401904D01*
X185584819Y-119116190D02*
X184584819Y-119116190D01*
X184584819Y-119116190D02*
X184727676Y-119211428D01*
X184727676Y-119211428D02*
X184822914Y-119306666D01*
X184822914Y-119306666D02*
X184870533Y-119401904D01*
X184584819Y-118497142D02*
X184584819Y-117830476D01*
X184584819Y-117830476D02*
X185584819Y-118259047D01*
X163769580Y-121380857D02*
X163817200Y-121428476D01*
X163817200Y-121428476D02*
X163864819Y-121571333D01*
X163864819Y-121571333D02*
X163864819Y-121666571D01*
X163864819Y-121666571D02*
X163817200Y-121809428D01*
X163817200Y-121809428D02*
X163721961Y-121904666D01*
X163721961Y-121904666D02*
X163626723Y-121952285D01*
X163626723Y-121952285D02*
X163436247Y-121999904D01*
X163436247Y-121999904D02*
X163293390Y-121999904D01*
X163293390Y-121999904D02*
X163102914Y-121952285D01*
X163102914Y-121952285D02*
X163007676Y-121904666D01*
X163007676Y-121904666D02*
X162912438Y-121809428D01*
X162912438Y-121809428D02*
X162864819Y-121666571D01*
X162864819Y-121666571D02*
X162864819Y-121571333D01*
X162864819Y-121571333D02*
X162912438Y-121428476D01*
X162912438Y-121428476D02*
X162960057Y-121380857D01*
X163864819Y-120428476D02*
X163864819Y-120999904D01*
X163864819Y-120714190D02*
X162864819Y-120714190D01*
X162864819Y-120714190D02*
X163007676Y-120809428D01*
X163007676Y-120809428D02*
X163102914Y-120904666D01*
X163102914Y-120904666D02*
X163150533Y-120999904D01*
X162864819Y-119523714D02*
X162864819Y-119999904D01*
X162864819Y-119999904D02*
X163341009Y-120047523D01*
X163341009Y-120047523D02*
X163293390Y-119999904D01*
X163293390Y-119999904D02*
X163245771Y-119904666D01*
X163245771Y-119904666D02*
X163245771Y-119666571D01*
X163245771Y-119666571D02*
X163293390Y-119571333D01*
X163293390Y-119571333D02*
X163341009Y-119523714D01*
X163341009Y-119523714D02*
X163436247Y-119476095D01*
X163436247Y-119476095D02*
X163674342Y-119476095D01*
X163674342Y-119476095D02*
X163769580Y-119523714D01*
X163769580Y-119523714D02*
X163817200Y-119571333D01*
X163817200Y-119571333D02*
X163864819Y-119666571D01*
X163864819Y-119666571D02*
X163864819Y-119904666D01*
X163864819Y-119904666D02*
X163817200Y-119999904D01*
X163817200Y-119999904D02*
X163769580Y-120047523D01*
D15*
X155350237Y-114054318D02*
X155350237Y-112784318D01*
X156680714Y-113933365D02*
X156620238Y-113993842D01*
X156620238Y-113993842D02*
X156438809Y-114054318D01*
X156438809Y-114054318D02*
X156317857Y-114054318D01*
X156317857Y-114054318D02*
X156136428Y-113993842D01*
X156136428Y-113993842D02*
X156015476Y-113872889D01*
X156015476Y-113872889D02*
X155954999Y-113751937D01*
X155954999Y-113751937D02*
X155894523Y-113510032D01*
X155894523Y-113510032D02*
X155894523Y-113328603D01*
X155894523Y-113328603D02*
X155954999Y-113086699D01*
X155954999Y-113086699D02*
X156015476Y-112965746D01*
X156015476Y-112965746D02*
X156136428Y-112844794D01*
X156136428Y-112844794D02*
X156317857Y-112784318D01*
X156317857Y-112784318D02*
X156438809Y-112784318D01*
X156438809Y-112784318D02*
X156620238Y-112844794D01*
X156620238Y-112844794D02*
X156680714Y-112905270D01*
X157890238Y-114054318D02*
X157164523Y-114054318D01*
X157527380Y-114054318D02*
X157527380Y-112784318D01*
X157527380Y-112784318D02*
X157406428Y-112965746D01*
X157406428Y-112965746D02*
X157285476Y-113086699D01*
X157285476Y-113086699D02*
X157164523Y-113147175D01*
X181900237Y-119934318D02*
X181900237Y-118664318D01*
X183230714Y-119813365D02*
X183170238Y-119873842D01*
X183170238Y-119873842D02*
X182988809Y-119934318D01*
X182988809Y-119934318D02*
X182867857Y-119934318D01*
X182867857Y-119934318D02*
X182686428Y-119873842D01*
X182686428Y-119873842D02*
X182565476Y-119752889D01*
X182565476Y-119752889D02*
X182504999Y-119631937D01*
X182504999Y-119631937D02*
X182444523Y-119390032D01*
X182444523Y-119390032D02*
X182444523Y-119208603D01*
X182444523Y-119208603D02*
X182504999Y-118966699D01*
X182504999Y-118966699D02*
X182565476Y-118845746D01*
X182565476Y-118845746D02*
X182686428Y-118724794D01*
X182686428Y-118724794D02*
X182867857Y-118664318D01*
X182867857Y-118664318D02*
X182988809Y-118664318D01*
X182988809Y-118664318D02*
X183170238Y-118724794D01*
X183170238Y-118724794D02*
X183230714Y-118785270D01*
X183654047Y-118664318D02*
X184440238Y-118664318D01*
X184440238Y-118664318D02*
X184016904Y-119148127D01*
X184016904Y-119148127D02*
X184198333Y-119148127D01*
X184198333Y-119148127D02*
X184319285Y-119208603D01*
X184319285Y-119208603D02*
X184379761Y-119269080D01*
X184379761Y-119269080D02*
X184440238Y-119390032D01*
X184440238Y-119390032D02*
X184440238Y-119692413D01*
X184440238Y-119692413D02*
X184379761Y-119813365D01*
X184379761Y-119813365D02*
X184319285Y-119873842D01*
X184319285Y-119873842D02*
X184198333Y-119934318D01*
X184198333Y-119934318D02*
X183835476Y-119934318D01*
X183835476Y-119934318D02*
X183714523Y-119873842D01*
X183714523Y-119873842D02*
X183654047Y-119813365D01*
D10*
X152434333Y-99395580D02*
X152386714Y-99443200D01*
X152386714Y-99443200D02*
X152243857Y-99490819D01*
X152243857Y-99490819D02*
X152148619Y-99490819D01*
X152148619Y-99490819D02*
X152005762Y-99443200D01*
X152005762Y-99443200D02*
X151910524Y-99347961D01*
X151910524Y-99347961D02*
X151862905Y-99252723D01*
X151862905Y-99252723D02*
X151815286Y-99062247D01*
X151815286Y-99062247D02*
X151815286Y-98919390D01*
X151815286Y-98919390D02*
X151862905Y-98728914D01*
X151862905Y-98728914D02*
X151910524Y-98633676D01*
X151910524Y-98633676D02*
X152005762Y-98538438D01*
X152005762Y-98538438D02*
X152148619Y-98490819D01*
X152148619Y-98490819D02*
X152243857Y-98490819D01*
X152243857Y-98490819D02*
X152386714Y-98538438D01*
X152386714Y-98538438D02*
X152434333Y-98586057D01*
X152767667Y-98490819D02*
X153386714Y-98490819D01*
X153386714Y-98490819D02*
X153053381Y-98871771D01*
X153053381Y-98871771D02*
X153196238Y-98871771D01*
X153196238Y-98871771D02*
X153291476Y-98919390D01*
X153291476Y-98919390D02*
X153339095Y-98967009D01*
X153339095Y-98967009D02*
X153386714Y-99062247D01*
X153386714Y-99062247D02*
X153386714Y-99300342D01*
X153386714Y-99300342D02*
X153339095Y-99395580D01*
X153339095Y-99395580D02*
X153291476Y-99443200D01*
X153291476Y-99443200D02*
X153196238Y-99490819D01*
X153196238Y-99490819D02*
X152910524Y-99490819D01*
X152910524Y-99490819D02*
X152815286Y-99443200D01*
X152815286Y-99443200D02*
X152767667Y-99395580D01*
X151513333Y-110269580D02*
X151465714Y-110317200D01*
X151465714Y-110317200D02*
X151322857Y-110364819D01*
X151322857Y-110364819D02*
X151227619Y-110364819D01*
X151227619Y-110364819D02*
X151084762Y-110317200D01*
X151084762Y-110317200D02*
X150989524Y-110221961D01*
X150989524Y-110221961D02*
X150941905Y-110126723D01*
X150941905Y-110126723D02*
X150894286Y-109936247D01*
X150894286Y-109936247D02*
X150894286Y-109793390D01*
X150894286Y-109793390D02*
X150941905Y-109602914D01*
X150941905Y-109602914D02*
X150989524Y-109507676D01*
X150989524Y-109507676D02*
X151084762Y-109412438D01*
X151084762Y-109412438D02*
X151227619Y-109364819D01*
X151227619Y-109364819D02*
X151322857Y-109364819D01*
X151322857Y-109364819D02*
X151465714Y-109412438D01*
X151465714Y-109412438D02*
X151513333Y-109460057D01*
X152370476Y-109364819D02*
X152180000Y-109364819D01*
X152180000Y-109364819D02*
X152084762Y-109412438D01*
X152084762Y-109412438D02*
X152037143Y-109460057D01*
X152037143Y-109460057D02*
X151941905Y-109602914D01*
X151941905Y-109602914D02*
X151894286Y-109793390D01*
X151894286Y-109793390D02*
X151894286Y-110174342D01*
X151894286Y-110174342D02*
X151941905Y-110269580D01*
X151941905Y-110269580D02*
X151989524Y-110317200D01*
X151989524Y-110317200D02*
X152084762Y-110364819D01*
X152084762Y-110364819D02*
X152275238Y-110364819D01*
X152275238Y-110364819D02*
X152370476Y-110317200D01*
X152370476Y-110317200D02*
X152418095Y-110269580D01*
X152418095Y-110269580D02*
X152465714Y-110174342D01*
X152465714Y-110174342D02*
X152465714Y-109936247D01*
X152465714Y-109936247D02*
X152418095Y-109841009D01*
X152418095Y-109841009D02*
X152370476Y-109793390D01*
X152370476Y-109793390D02*
X152275238Y-109745771D01*
X152275238Y-109745771D02*
X152084762Y-109745771D01*
X152084762Y-109745771D02*
X151989524Y-109793390D01*
X151989524Y-109793390D02*
X151941905Y-109841009D01*
X151941905Y-109841009D02*
X151894286Y-109936247D01*
X172379580Y-135902857D02*
X172427200Y-135950476D01*
X172427200Y-135950476D02*
X172474819Y-136093333D01*
X172474819Y-136093333D02*
X172474819Y-136188571D01*
X172474819Y-136188571D02*
X172427200Y-136331428D01*
X172427200Y-136331428D02*
X172331961Y-136426666D01*
X172331961Y-136426666D02*
X172236723Y-136474285D01*
X172236723Y-136474285D02*
X172046247Y-136521904D01*
X172046247Y-136521904D02*
X171903390Y-136521904D01*
X171903390Y-136521904D02*
X171712914Y-136474285D01*
X171712914Y-136474285D02*
X171617676Y-136426666D01*
X171617676Y-136426666D02*
X171522438Y-136331428D01*
X171522438Y-136331428D02*
X171474819Y-136188571D01*
X171474819Y-136188571D02*
X171474819Y-136093333D01*
X171474819Y-136093333D02*
X171522438Y-135950476D01*
X171522438Y-135950476D02*
X171570057Y-135902857D01*
X172474819Y-134950476D02*
X172474819Y-135521904D01*
X172474819Y-135236190D02*
X171474819Y-135236190D01*
X171474819Y-135236190D02*
X171617676Y-135331428D01*
X171617676Y-135331428D02*
X171712914Y-135426666D01*
X171712914Y-135426666D02*
X171760533Y-135521904D01*
X171474819Y-134093333D02*
X171474819Y-134283809D01*
X171474819Y-134283809D02*
X171522438Y-134379047D01*
X171522438Y-134379047D02*
X171570057Y-134426666D01*
X171570057Y-134426666D02*
X171712914Y-134521904D01*
X171712914Y-134521904D02*
X171903390Y-134569523D01*
X171903390Y-134569523D02*
X172284342Y-134569523D01*
X172284342Y-134569523D02*
X172379580Y-134521904D01*
X172379580Y-134521904D02*
X172427200Y-134474285D01*
X172427200Y-134474285D02*
X172474819Y-134379047D01*
X172474819Y-134379047D02*
X172474819Y-134188571D01*
X172474819Y-134188571D02*
X172427200Y-134093333D01*
X172427200Y-134093333D02*
X172379580Y-134045714D01*
X172379580Y-134045714D02*
X172284342Y-133998095D01*
X172284342Y-133998095D02*
X172046247Y-133998095D01*
X172046247Y-133998095D02*
X171951009Y-134045714D01*
X171951009Y-134045714D02*
X171903390Y-134093333D01*
X171903390Y-134093333D02*
X171855771Y-134188571D01*
X171855771Y-134188571D02*
X171855771Y-134379047D01*
X171855771Y-134379047D02*
X171903390Y-134474285D01*
X171903390Y-134474285D02*
X171951009Y-134521904D01*
X171951009Y-134521904D02*
X172046247Y-134569523D01*
X160043905Y-116024819D02*
X160043905Y-115024819D01*
X160043905Y-115024819D02*
X160282000Y-115024819D01*
X160282000Y-115024819D02*
X160424857Y-115072438D01*
X160424857Y-115072438D02*
X160520095Y-115167676D01*
X160520095Y-115167676D02*
X160567714Y-115262914D01*
X160567714Y-115262914D02*
X160615333Y-115453390D01*
X160615333Y-115453390D02*
X160615333Y-115596247D01*
X160615333Y-115596247D02*
X160567714Y-115786723D01*
X160567714Y-115786723D02*
X160520095Y-115881961D01*
X160520095Y-115881961D02*
X160424857Y-115977200D01*
X160424857Y-115977200D02*
X160282000Y-116024819D01*
X160282000Y-116024819D02*
X160043905Y-116024819D01*
X160948667Y-115024819D02*
X161615333Y-115024819D01*
X161615333Y-115024819D02*
X161186762Y-116024819D01*
X195985714Y-114024819D02*
X195985714Y-113024819D01*
X195985714Y-113024819D02*
X196223809Y-113024819D01*
X196223809Y-113024819D02*
X196366666Y-113072438D01*
X196366666Y-113072438D02*
X196461904Y-113167676D01*
X196461904Y-113167676D02*
X196509523Y-113262914D01*
X196509523Y-113262914D02*
X196557142Y-113453390D01*
X196557142Y-113453390D02*
X196557142Y-113596247D01*
X196557142Y-113596247D02*
X196509523Y-113786723D01*
X196509523Y-113786723D02*
X196461904Y-113881961D01*
X196461904Y-113881961D02*
X196366666Y-113977200D01*
X196366666Y-113977200D02*
X196223809Y-114024819D01*
X196223809Y-114024819D02*
X195985714Y-114024819D01*
X196938095Y-113120057D02*
X196985714Y-113072438D01*
X196985714Y-113072438D02*
X197080952Y-113024819D01*
X197080952Y-113024819D02*
X197319047Y-113024819D01*
X197319047Y-113024819D02*
X197414285Y-113072438D01*
X197414285Y-113072438D02*
X197461904Y-113120057D01*
X197461904Y-113120057D02*
X197509523Y-113215295D01*
X197509523Y-113215295D02*
X197509523Y-113310533D01*
X197509523Y-113310533D02*
X197461904Y-113453390D01*
X197461904Y-113453390D02*
X196890476Y-114024819D01*
X196890476Y-114024819D02*
X197509523Y-114024819D01*
X197890476Y-113120057D02*
X197938095Y-113072438D01*
X197938095Y-113072438D02*
X198033333Y-113024819D01*
X198033333Y-113024819D02*
X198271428Y-113024819D01*
X198271428Y-113024819D02*
X198366666Y-113072438D01*
X198366666Y-113072438D02*
X198414285Y-113120057D01*
X198414285Y-113120057D02*
X198461904Y-113215295D01*
X198461904Y-113215295D02*
X198461904Y-113310533D01*
X198461904Y-113310533D02*
X198414285Y-113453390D01*
X198414285Y-113453390D02*
X197842857Y-114024819D01*
X197842857Y-114024819D02*
X198461904Y-114024819D01*
X188486667Y-141907200D02*
X188629524Y-141954819D01*
X188629524Y-141954819D02*
X188867619Y-141954819D01*
X188867619Y-141954819D02*
X188962857Y-141907200D01*
X188962857Y-141907200D02*
X189010476Y-141859580D01*
X189010476Y-141859580D02*
X189058095Y-141764342D01*
X189058095Y-141764342D02*
X189058095Y-141669104D01*
X189058095Y-141669104D02*
X189010476Y-141573866D01*
X189010476Y-141573866D02*
X188962857Y-141526247D01*
X188962857Y-141526247D02*
X188867619Y-141478628D01*
X188867619Y-141478628D02*
X188677143Y-141431009D01*
X188677143Y-141431009D02*
X188581905Y-141383390D01*
X188581905Y-141383390D02*
X188534286Y-141335771D01*
X188534286Y-141335771D02*
X188486667Y-141240533D01*
X188486667Y-141240533D02*
X188486667Y-141145295D01*
X188486667Y-141145295D02*
X188534286Y-141050057D01*
X188534286Y-141050057D02*
X188581905Y-141002438D01*
X188581905Y-141002438D02*
X188677143Y-140954819D01*
X188677143Y-140954819D02*
X188915238Y-140954819D01*
X188915238Y-140954819D02*
X189058095Y-141002438D01*
X189391429Y-140954819D02*
X189629524Y-141954819D01*
X189629524Y-141954819D02*
X189820000Y-141240533D01*
X189820000Y-141240533D02*
X190010476Y-141954819D01*
X190010476Y-141954819D02*
X190248572Y-140954819D01*
X191153333Y-141954819D02*
X190581905Y-141954819D01*
X190867619Y-141954819D02*
X190867619Y-140954819D01*
X190867619Y-140954819D02*
X190772381Y-141097676D01*
X190772381Y-141097676D02*
X190677143Y-141192914D01*
X190677143Y-141192914D02*
X190581905Y-141240533D01*
X194499580Y-120392857D02*
X194547200Y-120440476D01*
X194547200Y-120440476D02*
X194594819Y-120583333D01*
X194594819Y-120583333D02*
X194594819Y-120678571D01*
X194594819Y-120678571D02*
X194547200Y-120821428D01*
X194547200Y-120821428D02*
X194451961Y-120916666D01*
X194451961Y-120916666D02*
X194356723Y-120964285D01*
X194356723Y-120964285D02*
X194166247Y-121011904D01*
X194166247Y-121011904D02*
X194023390Y-121011904D01*
X194023390Y-121011904D02*
X193832914Y-120964285D01*
X193832914Y-120964285D02*
X193737676Y-120916666D01*
X193737676Y-120916666D02*
X193642438Y-120821428D01*
X193642438Y-120821428D02*
X193594819Y-120678571D01*
X193594819Y-120678571D02*
X193594819Y-120583333D01*
X193594819Y-120583333D02*
X193642438Y-120440476D01*
X193642438Y-120440476D02*
X193690057Y-120392857D01*
X193690057Y-120011904D02*
X193642438Y-119964285D01*
X193642438Y-119964285D02*
X193594819Y-119869047D01*
X193594819Y-119869047D02*
X193594819Y-119630952D01*
X193594819Y-119630952D02*
X193642438Y-119535714D01*
X193642438Y-119535714D02*
X193690057Y-119488095D01*
X193690057Y-119488095D02*
X193785295Y-119440476D01*
X193785295Y-119440476D02*
X193880533Y-119440476D01*
X193880533Y-119440476D02*
X194023390Y-119488095D01*
X194023390Y-119488095D02*
X194594819Y-120059523D01*
X194594819Y-120059523D02*
X194594819Y-119440476D01*
X193594819Y-118821428D02*
X193594819Y-118726190D01*
X193594819Y-118726190D02*
X193642438Y-118630952D01*
X193642438Y-118630952D02*
X193690057Y-118583333D01*
X193690057Y-118583333D02*
X193785295Y-118535714D01*
X193785295Y-118535714D02*
X193975771Y-118488095D01*
X193975771Y-118488095D02*
X194213866Y-118488095D01*
X194213866Y-118488095D02*
X194404342Y-118535714D01*
X194404342Y-118535714D02*
X194499580Y-118583333D01*
X194499580Y-118583333D02*
X194547200Y-118630952D01*
X194547200Y-118630952D02*
X194594819Y-118726190D01*
X194594819Y-118726190D02*
X194594819Y-118821428D01*
X194594819Y-118821428D02*
X194547200Y-118916666D01*
X194547200Y-118916666D02*
X194499580Y-118964285D01*
X194499580Y-118964285D02*
X194404342Y-119011904D01*
X194404342Y-119011904D02*
X194213866Y-119059523D01*
X194213866Y-119059523D02*
X193975771Y-119059523D01*
X193975771Y-119059523D02*
X193785295Y-119011904D01*
X193785295Y-119011904D02*
X193690057Y-118964285D01*
X193690057Y-118964285D02*
X193642438Y-118916666D01*
X193642438Y-118916666D02*
X193594819Y-118821428D01*
X191629580Y-100482857D02*
X191677200Y-100530476D01*
X191677200Y-100530476D02*
X191724819Y-100673333D01*
X191724819Y-100673333D02*
X191724819Y-100768571D01*
X191724819Y-100768571D02*
X191677200Y-100911428D01*
X191677200Y-100911428D02*
X191581961Y-101006666D01*
X191581961Y-101006666D02*
X191486723Y-101054285D01*
X191486723Y-101054285D02*
X191296247Y-101101904D01*
X191296247Y-101101904D02*
X191153390Y-101101904D01*
X191153390Y-101101904D02*
X190962914Y-101054285D01*
X190962914Y-101054285D02*
X190867676Y-101006666D01*
X190867676Y-101006666D02*
X190772438Y-100911428D01*
X190772438Y-100911428D02*
X190724819Y-100768571D01*
X190724819Y-100768571D02*
X190724819Y-100673333D01*
X190724819Y-100673333D02*
X190772438Y-100530476D01*
X190772438Y-100530476D02*
X190820057Y-100482857D01*
X191724819Y-99530476D02*
X191724819Y-100101904D01*
X191724819Y-99816190D02*
X190724819Y-99816190D01*
X190724819Y-99816190D02*
X190867676Y-99911428D01*
X190867676Y-99911428D02*
X190962914Y-100006666D01*
X190962914Y-100006666D02*
X191010533Y-100101904D01*
X190820057Y-99149523D02*
X190772438Y-99101904D01*
X190772438Y-99101904D02*
X190724819Y-99006666D01*
X190724819Y-99006666D02*
X190724819Y-98768571D01*
X190724819Y-98768571D02*
X190772438Y-98673333D01*
X190772438Y-98673333D02*
X190820057Y-98625714D01*
X190820057Y-98625714D02*
X190915295Y-98578095D01*
X190915295Y-98578095D02*
X191010533Y-98578095D01*
X191010533Y-98578095D02*
X191153390Y-98625714D01*
X191153390Y-98625714D02*
X191724819Y-99197142D01*
X191724819Y-99197142D02*
X191724819Y-98578095D01*
X193344819Y-116715357D02*
X192868628Y-117048690D01*
X193344819Y-117286785D02*
X192344819Y-117286785D01*
X192344819Y-117286785D02*
X192344819Y-116905833D01*
X192344819Y-116905833D02*
X192392438Y-116810595D01*
X192392438Y-116810595D02*
X192440057Y-116762976D01*
X192440057Y-116762976D02*
X192535295Y-116715357D01*
X192535295Y-116715357D02*
X192678152Y-116715357D01*
X192678152Y-116715357D02*
X192773390Y-116762976D01*
X192773390Y-116762976D02*
X192821009Y-116810595D01*
X192821009Y-116810595D02*
X192868628Y-116905833D01*
X192868628Y-116905833D02*
X192868628Y-117286785D01*
X193344819Y-115762976D02*
X193344819Y-116334404D01*
X193344819Y-116048690D02*
X192344819Y-116048690D01*
X192344819Y-116048690D02*
X192487676Y-116143928D01*
X192487676Y-116143928D02*
X192582914Y-116239166D01*
X192582914Y-116239166D02*
X192630533Y-116334404D01*
X192344819Y-115429642D02*
X192344819Y-114810595D01*
X192344819Y-114810595D02*
X192725771Y-115143928D01*
X192725771Y-115143928D02*
X192725771Y-115001071D01*
X192725771Y-115001071D02*
X192773390Y-114905833D01*
X192773390Y-114905833D02*
X192821009Y-114858214D01*
X192821009Y-114858214D02*
X192916247Y-114810595D01*
X192916247Y-114810595D02*
X193154342Y-114810595D01*
X193154342Y-114810595D02*
X193249580Y-114858214D01*
X193249580Y-114858214D02*
X193297200Y-114905833D01*
X193297200Y-114905833D02*
X193344819Y-115001071D01*
X193344819Y-115001071D02*
X193344819Y-115286785D01*
X193344819Y-115286785D02*
X193297200Y-115382023D01*
X193297200Y-115382023D02*
X193249580Y-115429642D01*
X163034819Y-135181785D02*
X162034819Y-135181785D01*
X162034819Y-135181785D02*
X162034819Y-134943690D01*
X162034819Y-134943690D02*
X162082438Y-134800833D01*
X162082438Y-134800833D02*
X162177676Y-134705595D01*
X162177676Y-134705595D02*
X162272914Y-134657976D01*
X162272914Y-134657976D02*
X162463390Y-134610357D01*
X162463390Y-134610357D02*
X162606247Y-134610357D01*
X162606247Y-134610357D02*
X162796723Y-134657976D01*
X162796723Y-134657976D02*
X162891961Y-134705595D01*
X162891961Y-134705595D02*
X162987200Y-134800833D01*
X162987200Y-134800833D02*
X163034819Y-134943690D01*
X163034819Y-134943690D02*
X163034819Y-135181785D01*
X163034819Y-133657976D02*
X163034819Y-134229404D01*
X163034819Y-133943690D02*
X162034819Y-133943690D01*
X162034819Y-133943690D02*
X162177676Y-134038928D01*
X162177676Y-134038928D02*
X162272914Y-134134166D01*
X162272914Y-134134166D02*
X162320533Y-134229404D01*
X163034819Y-132705595D02*
X163034819Y-133277023D01*
X163034819Y-132991309D02*
X162034819Y-132991309D01*
X162034819Y-132991309D02*
X162177676Y-133086547D01*
X162177676Y-133086547D02*
X162272914Y-133181785D01*
X162272914Y-133181785D02*
X162320533Y-133277023D01*
X153630833Y-103014819D02*
X153297500Y-102538628D01*
X153059405Y-103014819D02*
X153059405Y-102014819D01*
X153059405Y-102014819D02*
X153440357Y-102014819D01*
X153440357Y-102014819D02*
X153535595Y-102062438D01*
X153535595Y-102062438D02*
X153583214Y-102110057D01*
X153583214Y-102110057D02*
X153630833Y-102205295D01*
X153630833Y-102205295D02*
X153630833Y-102348152D01*
X153630833Y-102348152D02*
X153583214Y-102443390D01*
X153583214Y-102443390D02*
X153535595Y-102491009D01*
X153535595Y-102491009D02*
X153440357Y-102538628D01*
X153440357Y-102538628D02*
X153059405Y-102538628D01*
X153964167Y-102014819D02*
X154630833Y-102014819D01*
X154630833Y-102014819D02*
X154202262Y-103014819D01*
X161631333Y-91894819D02*
X161298000Y-91418628D01*
X161059905Y-91894819D02*
X161059905Y-90894819D01*
X161059905Y-90894819D02*
X161440857Y-90894819D01*
X161440857Y-90894819D02*
X161536095Y-90942438D01*
X161536095Y-90942438D02*
X161583714Y-90990057D01*
X161583714Y-90990057D02*
X161631333Y-91085295D01*
X161631333Y-91085295D02*
X161631333Y-91228152D01*
X161631333Y-91228152D02*
X161583714Y-91323390D01*
X161583714Y-91323390D02*
X161536095Y-91371009D01*
X161536095Y-91371009D02*
X161440857Y-91418628D01*
X161440857Y-91418628D02*
X161059905Y-91418628D01*
X162583714Y-91894819D02*
X162012286Y-91894819D01*
X162298000Y-91894819D02*
X162298000Y-90894819D01*
X162298000Y-90894819D02*
X162202762Y-91037676D01*
X162202762Y-91037676D02*
X162107524Y-91132914D01*
X162107524Y-91132914D02*
X162012286Y-91180533D01*
X168877333Y-94520819D02*
X168544000Y-94044628D01*
X168305905Y-94520819D02*
X168305905Y-93520819D01*
X168305905Y-93520819D02*
X168686857Y-93520819D01*
X168686857Y-93520819D02*
X168782095Y-93568438D01*
X168782095Y-93568438D02*
X168829714Y-93616057D01*
X168829714Y-93616057D02*
X168877333Y-93711295D01*
X168877333Y-93711295D02*
X168877333Y-93854152D01*
X168877333Y-93854152D02*
X168829714Y-93949390D01*
X168829714Y-93949390D02*
X168782095Y-93997009D01*
X168782095Y-93997009D02*
X168686857Y-94044628D01*
X168686857Y-94044628D02*
X168305905Y-94044628D01*
X169734476Y-93854152D02*
X169734476Y-94520819D01*
X169496381Y-93473200D02*
X169258286Y-94187485D01*
X169258286Y-94187485D02*
X169877333Y-94187485D01*
X164963333Y-107974819D02*
X164630000Y-107498628D01*
X164391905Y-107974819D02*
X164391905Y-106974819D01*
X164391905Y-106974819D02*
X164772857Y-106974819D01*
X164772857Y-106974819D02*
X164868095Y-107022438D01*
X164868095Y-107022438D02*
X164915714Y-107070057D01*
X164915714Y-107070057D02*
X164963333Y-107165295D01*
X164963333Y-107165295D02*
X164963333Y-107308152D01*
X164963333Y-107308152D02*
X164915714Y-107403390D01*
X164915714Y-107403390D02*
X164868095Y-107451009D01*
X164868095Y-107451009D02*
X164772857Y-107498628D01*
X164772857Y-107498628D02*
X164391905Y-107498628D01*
X165820476Y-106974819D02*
X165630000Y-106974819D01*
X165630000Y-106974819D02*
X165534762Y-107022438D01*
X165534762Y-107022438D02*
X165487143Y-107070057D01*
X165487143Y-107070057D02*
X165391905Y-107212914D01*
X165391905Y-107212914D02*
X165344286Y-107403390D01*
X165344286Y-107403390D02*
X165344286Y-107784342D01*
X165344286Y-107784342D02*
X165391905Y-107879580D01*
X165391905Y-107879580D02*
X165439524Y-107927200D01*
X165439524Y-107927200D02*
X165534762Y-107974819D01*
X165534762Y-107974819D02*
X165725238Y-107974819D01*
X165725238Y-107974819D02*
X165820476Y-107927200D01*
X165820476Y-107927200D02*
X165868095Y-107879580D01*
X165868095Y-107879580D02*
X165915714Y-107784342D01*
X165915714Y-107784342D02*
X165915714Y-107546247D01*
X165915714Y-107546247D02*
X165868095Y-107451009D01*
X165868095Y-107451009D02*
X165820476Y-107403390D01*
X165820476Y-107403390D02*
X165725238Y-107355771D01*
X165725238Y-107355771D02*
X165534762Y-107355771D01*
X165534762Y-107355771D02*
X165439524Y-107403390D01*
X165439524Y-107403390D02*
X165391905Y-107451009D01*
X165391905Y-107451009D02*
X165344286Y-107546247D01*
X168634819Y-134730357D02*
X168158628Y-135063690D01*
X168634819Y-135301785D02*
X167634819Y-135301785D01*
X167634819Y-135301785D02*
X167634819Y-134920833D01*
X167634819Y-134920833D02*
X167682438Y-134825595D01*
X167682438Y-134825595D02*
X167730057Y-134777976D01*
X167730057Y-134777976D02*
X167825295Y-134730357D01*
X167825295Y-134730357D02*
X167968152Y-134730357D01*
X167968152Y-134730357D02*
X168063390Y-134777976D01*
X168063390Y-134777976D02*
X168111009Y-134825595D01*
X168111009Y-134825595D02*
X168158628Y-134920833D01*
X168158628Y-134920833D02*
X168158628Y-135301785D01*
X168634819Y-133777976D02*
X168634819Y-134349404D01*
X168634819Y-134063690D02*
X167634819Y-134063690D01*
X167634819Y-134063690D02*
X167777676Y-134158928D01*
X167777676Y-134158928D02*
X167872914Y-134254166D01*
X167872914Y-134254166D02*
X167920533Y-134349404D01*
X167634819Y-133158928D02*
X167634819Y-133063690D01*
X167634819Y-133063690D02*
X167682438Y-132968452D01*
X167682438Y-132968452D02*
X167730057Y-132920833D01*
X167730057Y-132920833D02*
X167825295Y-132873214D01*
X167825295Y-132873214D02*
X168015771Y-132825595D01*
X168015771Y-132825595D02*
X168253866Y-132825595D01*
X168253866Y-132825595D02*
X168444342Y-132873214D01*
X168444342Y-132873214D02*
X168539580Y-132920833D01*
X168539580Y-132920833D02*
X168587200Y-132968452D01*
X168587200Y-132968452D02*
X168634819Y-133063690D01*
X168634819Y-133063690D02*
X168634819Y-133158928D01*
X168634819Y-133158928D02*
X168587200Y-133254166D01*
X168587200Y-133254166D02*
X168539580Y-133301785D01*
X168539580Y-133301785D02*
X168444342Y-133349404D01*
X168444342Y-133349404D02*
X168253866Y-133397023D01*
X168253866Y-133397023D02*
X168015771Y-133397023D01*
X168015771Y-133397023D02*
X167825295Y-133349404D01*
X167825295Y-133349404D02*
X167730057Y-133301785D01*
X167730057Y-133301785D02*
X167682438Y-133254166D01*
X167682438Y-133254166D02*
X167634819Y-133158928D01*
X156477095Y-96130819D02*
X156477095Y-96940342D01*
X156477095Y-96940342D02*
X156524714Y-97035580D01*
X156524714Y-97035580D02*
X156572333Y-97083200D01*
X156572333Y-97083200D02*
X156667571Y-97130819D01*
X156667571Y-97130819D02*
X156858047Y-97130819D01*
X156858047Y-97130819D02*
X156953285Y-97083200D01*
X156953285Y-97083200D02*
X157000904Y-97035580D01*
X157000904Y-97035580D02*
X157048523Y-96940342D01*
X157048523Y-96940342D02*
X157048523Y-96130819D01*
X158048523Y-97130819D02*
X157477095Y-97130819D01*
X157762809Y-97130819D02*
X157762809Y-96130819D01*
X157762809Y-96130819D02*
X157667571Y-96273676D01*
X157667571Y-96273676D02*
X157572333Y-96368914D01*
X157572333Y-96368914D02*
X157477095Y-96416533D01*
X185717142Y-93029580D02*
X185669523Y-93077200D01*
X185669523Y-93077200D02*
X185526666Y-93124819D01*
X185526666Y-93124819D02*
X185431428Y-93124819D01*
X185431428Y-93124819D02*
X185288571Y-93077200D01*
X185288571Y-93077200D02*
X185193333Y-92981961D01*
X185193333Y-92981961D02*
X185145714Y-92886723D01*
X185145714Y-92886723D02*
X185098095Y-92696247D01*
X185098095Y-92696247D02*
X185098095Y-92553390D01*
X185098095Y-92553390D02*
X185145714Y-92362914D01*
X185145714Y-92362914D02*
X185193333Y-92267676D01*
X185193333Y-92267676D02*
X185288571Y-92172438D01*
X185288571Y-92172438D02*
X185431428Y-92124819D01*
X185431428Y-92124819D02*
X185526666Y-92124819D01*
X185526666Y-92124819D02*
X185669523Y-92172438D01*
X185669523Y-92172438D02*
X185717142Y-92220057D01*
X186669523Y-93124819D02*
X186098095Y-93124819D01*
X186383809Y-93124819D02*
X186383809Y-92124819D01*
X186383809Y-92124819D02*
X186288571Y-92267676D01*
X186288571Y-92267676D02*
X186193333Y-92362914D01*
X186193333Y-92362914D02*
X186098095Y-92410533D01*
X187621904Y-93124819D02*
X187050476Y-93124819D01*
X187336190Y-93124819D02*
X187336190Y-92124819D01*
X187336190Y-92124819D02*
X187240952Y-92267676D01*
X187240952Y-92267676D02*
X187145714Y-92362914D01*
X187145714Y-92362914D02*
X187050476Y-92410533D01*
X186209580Y-106920857D02*
X186257200Y-106968476D01*
X186257200Y-106968476D02*
X186304819Y-107111333D01*
X186304819Y-107111333D02*
X186304819Y-107206571D01*
X186304819Y-107206571D02*
X186257200Y-107349428D01*
X186257200Y-107349428D02*
X186161961Y-107444666D01*
X186161961Y-107444666D02*
X186066723Y-107492285D01*
X186066723Y-107492285D02*
X185876247Y-107539904D01*
X185876247Y-107539904D02*
X185733390Y-107539904D01*
X185733390Y-107539904D02*
X185542914Y-107492285D01*
X185542914Y-107492285D02*
X185447676Y-107444666D01*
X185447676Y-107444666D02*
X185352438Y-107349428D01*
X185352438Y-107349428D02*
X185304819Y-107206571D01*
X185304819Y-107206571D02*
X185304819Y-107111333D01*
X185304819Y-107111333D02*
X185352438Y-106968476D01*
X185352438Y-106968476D02*
X185400057Y-106920857D01*
X186304819Y-105968476D02*
X186304819Y-106539904D01*
X186304819Y-106254190D02*
X185304819Y-106254190D01*
X185304819Y-106254190D02*
X185447676Y-106349428D01*
X185447676Y-106349428D02*
X185542914Y-106444666D01*
X185542914Y-106444666D02*
X185590533Y-106539904D01*
X186304819Y-105492285D02*
X186304819Y-105301809D01*
X186304819Y-105301809D02*
X186257200Y-105206571D01*
X186257200Y-105206571D02*
X186209580Y-105158952D01*
X186209580Y-105158952D02*
X186066723Y-105063714D01*
X186066723Y-105063714D02*
X185876247Y-105016095D01*
X185876247Y-105016095D02*
X185495295Y-105016095D01*
X185495295Y-105016095D02*
X185400057Y-105063714D01*
X185400057Y-105063714D02*
X185352438Y-105111333D01*
X185352438Y-105111333D02*
X185304819Y-105206571D01*
X185304819Y-105206571D02*
X185304819Y-105397047D01*
X185304819Y-105397047D02*
X185352438Y-105492285D01*
X185352438Y-105492285D02*
X185400057Y-105539904D01*
X185400057Y-105539904D02*
X185495295Y-105587523D01*
X185495295Y-105587523D02*
X185733390Y-105587523D01*
X185733390Y-105587523D02*
X185828628Y-105539904D01*
X185828628Y-105539904D02*
X185876247Y-105492285D01*
X185876247Y-105492285D02*
X185923866Y-105397047D01*
X185923866Y-105397047D02*
X185923866Y-105206571D01*
X185923866Y-105206571D02*
X185876247Y-105111333D01*
X185876247Y-105111333D02*
X185828628Y-105063714D01*
X185828628Y-105063714D02*
X185733390Y-105016095D01*
X147494666Y-139924319D02*
X147494666Y-140638604D01*
X147494666Y-140638604D02*
X147447047Y-140781461D01*
X147447047Y-140781461D02*
X147351809Y-140876700D01*
X147351809Y-140876700D02*
X147208952Y-140924319D01*
X147208952Y-140924319D02*
X147113714Y-140924319D01*
X148494666Y-140924319D02*
X147923238Y-140924319D01*
X148208952Y-140924319D02*
X148208952Y-139924319D01*
X148208952Y-139924319D02*
X148113714Y-140067176D01*
X148113714Y-140067176D02*
X148018476Y-140162414D01*
X148018476Y-140162414D02*
X147923238Y-140210033D01*
X180503333Y-119862819D02*
X180027143Y-119862819D01*
X180027143Y-119862819D02*
X180027143Y-118862819D01*
X180741429Y-118862819D02*
X181360476Y-118862819D01*
X181360476Y-118862819D02*
X181027143Y-119243771D01*
X181027143Y-119243771D02*
X181170000Y-119243771D01*
X181170000Y-119243771D02*
X181265238Y-119291390D01*
X181265238Y-119291390D02*
X181312857Y-119339009D01*
X181312857Y-119339009D02*
X181360476Y-119434247D01*
X181360476Y-119434247D02*
X181360476Y-119672342D01*
X181360476Y-119672342D02*
X181312857Y-119767580D01*
X181312857Y-119767580D02*
X181265238Y-119815200D01*
X181265238Y-119815200D02*
X181170000Y-119862819D01*
X181170000Y-119862819D02*
X180884286Y-119862819D01*
X180884286Y-119862819D02*
X180789048Y-119815200D01*
X180789048Y-119815200D02*
X180741429Y-119767580D01*
X171815714Y-132352819D02*
X171815714Y-131352819D01*
X171815714Y-131352819D02*
X172053809Y-131352819D01*
X172053809Y-131352819D02*
X172196666Y-131400438D01*
X172196666Y-131400438D02*
X172291904Y-131495676D01*
X172291904Y-131495676D02*
X172339523Y-131590914D01*
X172339523Y-131590914D02*
X172387142Y-131781390D01*
X172387142Y-131781390D02*
X172387142Y-131924247D01*
X172387142Y-131924247D02*
X172339523Y-132114723D01*
X172339523Y-132114723D02*
X172291904Y-132209961D01*
X172291904Y-132209961D02*
X172196666Y-132305200D01*
X172196666Y-132305200D02*
X172053809Y-132352819D01*
X172053809Y-132352819D02*
X171815714Y-132352819D01*
X173339523Y-132352819D02*
X172768095Y-132352819D01*
X173053809Y-132352819D02*
X173053809Y-131352819D01*
X173053809Y-131352819D02*
X172958571Y-131495676D01*
X172958571Y-131495676D02*
X172863333Y-131590914D01*
X172863333Y-131590914D02*
X172768095Y-131638533D01*
X174196666Y-131352819D02*
X174006190Y-131352819D01*
X174006190Y-131352819D02*
X173910952Y-131400438D01*
X173910952Y-131400438D02*
X173863333Y-131448057D01*
X173863333Y-131448057D02*
X173768095Y-131590914D01*
X173768095Y-131590914D02*
X173720476Y-131781390D01*
X173720476Y-131781390D02*
X173720476Y-132162342D01*
X173720476Y-132162342D02*
X173768095Y-132257580D01*
X173768095Y-132257580D02*
X173815714Y-132305200D01*
X173815714Y-132305200D02*
X173910952Y-132352819D01*
X173910952Y-132352819D02*
X174101428Y-132352819D01*
X174101428Y-132352819D02*
X174196666Y-132305200D01*
X174196666Y-132305200D02*
X174244285Y-132257580D01*
X174244285Y-132257580D02*
X174291904Y-132162342D01*
X174291904Y-132162342D02*
X174291904Y-131924247D01*
X174291904Y-131924247D02*
X174244285Y-131829009D01*
X174244285Y-131829009D02*
X174196666Y-131781390D01*
X174196666Y-131781390D02*
X174101428Y-131733771D01*
X174101428Y-131733771D02*
X173910952Y-131733771D01*
X173910952Y-131733771D02*
X173815714Y-131781390D01*
X173815714Y-131781390D02*
X173768095Y-131829009D01*
X173768095Y-131829009D02*
X173720476Y-131924247D01*
X167139580Y-113586666D02*
X167187200Y-113634285D01*
X167187200Y-113634285D02*
X167234819Y-113777142D01*
X167234819Y-113777142D02*
X167234819Y-113872380D01*
X167234819Y-113872380D02*
X167187200Y-114015237D01*
X167187200Y-114015237D02*
X167091961Y-114110475D01*
X167091961Y-114110475D02*
X166996723Y-114158094D01*
X166996723Y-114158094D02*
X166806247Y-114205713D01*
X166806247Y-114205713D02*
X166663390Y-114205713D01*
X166663390Y-114205713D02*
X166472914Y-114158094D01*
X166472914Y-114158094D02*
X166377676Y-114110475D01*
X166377676Y-114110475D02*
X166282438Y-114015237D01*
X166282438Y-114015237D02*
X166234819Y-113872380D01*
X166234819Y-113872380D02*
X166234819Y-113777142D01*
X166234819Y-113777142D02*
X166282438Y-113634285D01*
X166282438Y-113634285D02*
X166330057Y-113586666D01*
X167234819Y-113110475D02*
X167234819Y-112919999D01*
X167234819Y-112919999D02*
X167187200Y-112824761D01*
X167187200Y-112824761D02*
X167139580Y-112777142D01*
X167139580Y-112777142D02*
X166996723Y-112681904D01*
X166996723Y-112681904D02*
X166806247Y-112634285D01*
X166806247Y-112634285D02*
X166425295Y-112634285D01*
X166425295Y-112634285D02*
X166330057Y-112681904D01*
X166330057Y-112681904D02*
X166282438Y-112729523D01*
X166282438Y-112729523D02*
X166234819Y-112824761D01*
X166234819Y-112824761D02*
X166234819Y-113015237D01*
X166234819Y-113015237D02*
X166282438Y-113110475D01*
X166282438Y-113110475D02*
X166330057Y-113158094D01*
X166330057Y-113158094D02*
X166425295Y-113205713D01*
X166425295Y-113205713D02*
X166663390Y-113205713D01*
X166663390Y-113205713D02*
X166758628Y-113158094D01*
X166758628Y-113158094D02*
X166806247Y-113110475D01*
X166806247Y-113110475D02*
X166853866Y-113015237D01*
X166853866Y-113015237D02*
X166853866Y-112824761D01*
X166853866Y-112824761D02*
X166806247Y-112729523D01*
X166806247Y-112729523D02*
X166758628Y-112681904D01*
X166758628Y-112681904D02*
X166663390Y-112634285D01*
X201754819Y-119684285D02*
X200754819Y-119684285D01*
X200754819Y-119684285D02*
X200754819Y-119446190D01*
X200754819Y-119446190D02*
X200802438Y-119303333D01*
X200802438Y-119303333D02*
X200897676Y-119208095D01*
X200897676Y-119208095D02*
X200992914Y-119160476D01*
X200992914Y-119160476D02*
X201183390Y-119112857D01*
X201183390Y-119112857D02*
X201326247Y-119112857D01*
X201326247Y-119112857D02*
X201516723Y-119160476D01*
X201516723Y-119160476D02*
X201611961Y-119208095D01*
X201611961Y-119208095D02*
X201707200Y-119303333D01*
X201707200Y-119303333D02*
X201754819Y-119446190D01*
X201754819Y-119446190D02*
X201754819Y-119684285D01*
X201754819Y-118160476D02*
X201754819Y-118731904D01*
X201754819Y-118446190D02*
X200754819Y-118446190D01*
X200754819Y-118446190D02*
X200897676Y-118541428D01*
X200897676Y-118541428D02*
X200992914Y-118636666D01*
X200992914Y-118636666D02*
X201040533Y-118731904D01*
X200850057Y-117779523D02*
X200802438Y-117731904D01*
X200802438Y-117731904D02*
X200754819Y-117636666D01*
X200754819Y-117636666D02*
X200754819Y-117398571D01*
X200754819Y-117398571D02*
X200802438Y-117303333D01*
X200802438Y-117303333D02*
X200850057Y-117255714D01*
X200850057Y-117255714D02*
X200945295Y-117208095D01*
X200945295Y-117208095D02*
X201040533Y-117208095D01*
X201040533Y-117208095D02*
X201183390Y-117255714D01*
X201183390Y-117255714D02*
X201754819Y-117827142D01*
X201754819Y-117827142D02*
X201754819Y-117208095D01*
X155994819Y-88624166D02*
X155518628Y-88957499D01*
X155994819Y-89195594D02*
X154994819Y-89195594D01*
X154994819Y-89195594D02*
X154994819Y-88814642D01*
X154994819Y-88814642D02*
X155042438Y-88719404D01*
X155042438Y-88719404D02*
X155090057Y-88671785D01*
X155090057Y-88671785D02*
X155185295Y-88624166D01*
X155185295Y-88624166D02*
X155328152Y-88624166D01*
X155328152Y-88624166D02*
X155423390Y-88671785D01*
X155423390Y-88671785D02*
X155471009Y-88719404D01*
X155471009Y-88719404D02*
X155518628Y-88814642D01*
X155518628Y-88814642D02*
X155518628Y-89195594D01*
X155090057Y-88243213D02*
X155042438Y-88195594D01*
X155042438Y-88195594D02*
X154994819Y-88100356D01*
X154994819Y-88100356D02*
X154994819Y-87862261D01*
X154994819Y-87862261D02*
X155042438Y-87767023D01*
X155042438Y-87767023D02*
X155090057Y-87719404D01*
X155090057Y-87719404D02*
X155185295Y-87671785D01*
X155185295Y-87671785D02*
X155280533Y-87671785D01*
X155280533Y-87671785D02*
X155423390Y-87719404D01*
X155423390Y-87719404D02*
X155994819Y-88290832D01*
X155994819Y-88290832D02*
X155994819Y-87671785D01*
X208174819Y-133468094D02*
X207174819Y-133468094D01*
X207174819Y-133468094D02*
X207174819Y-133229999D01*
X207174819Y-133229999D02*
X207222438Y-133087142D01*
X207222438Y-133087142D02*
X207317676Y-132991904D01*
X207317676Y-132991904D02*
X207412914Y-132944285D01*
X207412914Y-132944285D02*
X207603390Y-132896666D01*
X207603390Y-132896666D02*
X207746247Y-132896666D01*
X207746247Y-132896666D02*
X207936723Y-132944285D01*
X207936723Y-132944285D02*
X208031961Y-132991904D01*
X208031961Y-132991904D02*
X208127200Y-133087142D01*
X208127200Y-133087142D02*
X208174819Y-133229999D01*
X208174819Y-133229999D02*
X208174819Y-133468094D01*
X207174819Y-132039523D02*
X207174819Y-132229999D01*
X207174819Y-132229999D02*
X207222438Y-132325237D01*
X207222438Y-132325237D02*
X207270057Y-132372856D01*
X207270057Y-132372856D02*
X207412914Y-132468094D01*
X207412914Y-132468094D02*
X207603390Y-132515713D01*
X207603390Y-132515713D02*
X207984342Y-132515713D01*
X207984342Y-132515713D02*
X208079580Y-132468094D01*
X208079580Y-132468094D02*
X208127200Y-132420475D01*
X208127200Y-132420475D02*
X208174819Y-132325237D01*
X208174819Y-132325237D02*
X208174819Y-132134761D01*
X208174819Y-132134761D02*
X208127200Y-132039523D01*
X208127200Y-132039523D02*
X208079580Y-131991904D01*
X208079580Y-131991904D02*
X207984342Y-131944285D01*
X207984342Y-131944285D02*
X207746247Y-131944285D01*
X207746247Y-131944285D02*
X207651009Y-131991904D01*
X207651009Y-131991904D02*
X207603390Y-132039523D01*
X207603390Y-132039523D02*
X207555771Y-132134761D01*
X207555771Y-132134761D02*
X207555771Y-132325237D01*
X207555771Y-132325237D02*
X207603390Y-132420475D01*
X207603390Y-132420475D02*
X207651009Y-132468094D01*
X207651009Y-132468094D02*
X207746247Y-132515713D01*
%TO.C,G\u002A\u002A\u002A*%
G36*
X159995230Y-145342224D02*
G01*
X160171296Y-145430756D01*
X160275666Y-145543229D01*
X160351909Y-145658692D01*
X160402483Y-145797239D01*
X160432480Y-145994459D01*
X160446992Y-146285943D01*
X160451108Y-146707282D01*
X160451145Y-146769988D01*
X160455537Y-147240526D01*
X160472624Y-147574953D01*
X160508266Y-147769953D01*
X160568327Y-147822209D01*
X160658669Y-147728407D01*
X160785156Y-147485230D01*
X160953648Y-147089362D01*
X161170010Y-146537488D01*
X161254880Y-146315403D01*
X161406383Y-145947541D01*
X161551381Y-145648790D01*
X161671719Y-145454404D01*
X161725159Y-145402192D01*
X162001024Y-145324242D01*
X162310480Y-145335897D01*
X162575725Y-145429848D01*
X162652478Y-145489297D01*
X162717275Y-145567428D01*
X162763147Y-145669497D01*
X162793313Y-145823768D01*
X162810994Y-146058508D01*
X162819410Y-146401982D01*
X162821778Y-146882457D01*
X162821812Y-146975920D01*
X162821812Y-148292642D01*
X162525478Y-148292642D01*
X162229145Y-148292642D01*
X162229145Y-147060869D01*
X162225487Y-146552726D01*
X162213390Y-146195012D01*
X162191170Y-145968395D01*
X162157143Y-145853540D01*
X162121849Y-145829097D01*
X162054059Y-145904519D01*
X161942732Y-146112301D01*
X161801044Y-146424713D01*
X161642170Y-146814026D01*
X161592683Y-146942840D01*
X161382463Y-147472754D01*
X161202717Y-147859268D01*
X161038486Y-148122650D01*
X160874809Y-148283170D01*
X160696728Y-148361096D01*
X160533773Y-148377592D01*
X160293972Y-148323633D01*
X160100691Y-148215392D01*
X160018734Y-148139103D01*
X159961727Y-148045651D01*
X159924072Y-147903720D01*
X159900171Y-147681995D01*
X159884427Y-147349162D01*
X159872916Y-146941144D01*
X159856831Y-146463661D01*
X159834866Y-146135206D01*
X159804399Y-145934939D01*
X159762806Y-145842018D01*
X159732908Y-145829097D01*
X159661340Y-145906753D01*
X159546550Y-146126954D01*
X159397297Y-146470548D01*
X159222341Y-146918383D01*
X159169566Y-147060869D01*
X158718337Y-148292642D01*
X158441741Y-148292642D01*
X158253723Y-148282655D01*
X158165990Y-148258319D01*
X158165145Y-148255405D01*
X158194957Y-148143846D01*
X158275871Y-147908070D01*
X158395101Y-147581203D01*
X158539861Y-147196372D01*
X158697364Y-146786703D01*
X158854827Y-146385322D01*
X158999462Y-146025356D01*
X159118484Y-145739931D01*
X159199108Y-145562174D01*
X159217370Y-145529204D01*
X159343989Y-145390343D01*
X159523309Y-145329725D01*
X159727285Y-145319398D01*
X159995230Y-145342224D01*
G37*
G36*
X156918951Y-145374219D02*
G01*
X157271455Y-145463649D01*
X157469533Y-145561189D01*
X157738415Y-145850591D01*
X157912711Y-146239391D01*
X157990704Y-146684917D01*
X157970680Y-147144499D01*
X157850922Y-147575466D01*
X157629715Y-147935148D01*
X157567605Y-148000147D01*
X157432383Y-148119346D01*
X157298534Y-148194940D01*
X157121769Y-148238675D01*
X156857798Y-148262300D01*
X156529902Y-148275406D01*
X156137432Y-148282247D01*
X155868029Y-148268111D01*
X155676060Y-148226696D01*
X155515891Y-148151695D01*
X155481089Y-148130501D01*
X155176529Y-147842588D01*
X154982682Y-147442446D01*
X154906189Y-146951871D01*
X154917025Y-146823061D01*
X155455812Y-146823061D01*
X155482207Y-147222831D01*
X155577559Y-147495954D01*
X155766116Y-147664663D01*
X156072127Y-147751191D01*
X156496827Y-147777558D01*
X156800707Y-147768340D01*
X156998568Y-147720369D01*
X157152462Y-147615600D01*
X157195327Y-147574430D01*
X157313672Y-147429611D01*
X157376263Y-147260734D01*
X157399038Y-147010044D01*
X157400452Y-146831119D01*
X157378377Y-146480826D01*
X157321713Y-146223266D01*
X157279814Y-146140152D01*
X157080296Y-145995297D01*
X156767764Y-145901545D01*
X156393889Y-145870450D01*
X156152097Y-145887959D01*
X155812983Y-145987743D01*
X155592982Y-146187801D01*
X155479203Y-146505444D01*
X155455812Y-146823061D01*
X154917025Y-146823061D01*
X154952868Y-146396996D01*
X155111220Y-145946759D01*
X155389368Y-145608864D01*
X155776665Y-145396229D01*
X155778089Y-145395757D01*
X156110265Y-145334209D01*
X156511220Y-145329052D01*
X156918951Y-145374219D01*
G37*
G36*
X165196361Y-145354180D02*
G01*
X165362382Y-145459565D01*
X165441652Y-145589526D01*
X165565714Y-145848736D01*
X165721239Y-146206865D01*
X165894903Y-146633581D01*
X166019300Y-146954682D01*
X166527012Y-148292642D01*
X166219578Y-148292178D01*
X165912145Y-148291714D01*
X165453627Y-147060405D01*
X165289657Y-146636902D01*
X165138094Y-146276304D01*
X165011382Y-146005939D01*
X164921965Y-145853133D01*
X164892936Y-145829097D01*
X164828485Y-145904130D01*
X164717446Y-146111188D01*
X164572673Y-146423208D01*
X164407022Y-146813130D01*
X164307794Y-147060869D01*
X163824825Y-148292642D01*
X163525926Y-148292642D01*
X163319051Y-148270509D01*
X163265831Y-148201281D01*
X163270518Y-148186455D01*
X163315143Y-148073726D01*
X163409578Y-147832748D01*
X163542085Y-147493551D01*
X163700928Y-147086166D01*
X163793483Y-146848495D01*
X163969735Y-146410499D01*
X164137654Y-146019889D01*
X164282720Y-145708547D01*
X164390412Y-145508356D01*
X164426036Y-145459565D01*
X164650486Y-145335789D01*
X164896145Y-145302408D01*
X165196361Y-145354180D01*
G37*
G36*
X167993624Y-145333521D02*
G01*
X169016770Y-145361873D01*
X169273268Y-145650129D01*
X169433726Y-145855234D01*
X169496873Y-146038564D01*
X169490300Y-146288170D01*
X169485916Y-146328724D01*
X169421194Y-146627506D01*
X169280936Y-146844006D01*
X169169825Y-146947098D01*
X168897584Y-147175135D01*
X169204031Y-147681289D01*
X169356509Y-147940154D01*
X169466253Y-148139860D01*
X169510400Y-148238720D01*
X169510478Y-148240042D01*
X169436371Y-148275422D01*
X169255894Y-148290990D01*
X169235312Y-148291015D01*
X169084766Y-148275906D01*
X168964842Y-148211628D01*
X168841462Y-148066610D01*
X168680547Y-147809281D01*
X168639276Y-147738841D01*
X168318407Y-147188294D01*
X167898442Y-147188294D01*
X167478478Y-147188294D01*
X167478478Y-147740468D01*
X167478478Y-148292642D01*
X167224478Y-148292642D01*
X166970478Y-148292642D01*
X166970478Y-147587558D01*
X166983259Y-147193764D01*
X167019261Y-146914555D01*
X167072078Y-146780535D01*
X167215486Y-146725490D01*
X167500314Y-146690380D01*
X167881978Y-146678595D01*
X168327020Y-146666530D01*
X168628519Y-146623550D01*
X168810997Y-146539478D01*
X168898979Y-146404139D01*
X168917812Y-146248755D01*
X168887759Y-146078134D01*
X168782502Y-145958851D01*
X168579395Y-145882924D01*
X168255790Y-145842372D01*
X167789039Y-145829214D01*
X167726966Y-145829097D01*
X166970478Y-145829097D01*
X166970478Y-145567133D01*
X166970478Y-145305169D01*
X167993624Y-145333521D01*
G37*
G36*
X170611145Y-146806020D02*
G01*
X170611145Y-148292642D01*
X170357145Y-148292642D01*
X170103145Y-148292642D01*
X170103145Y-146806020D01*
X170103145Y-145319398D01*
X170357145Y-145319398D01*
X170611145Y-145319398D01*
X170611145Y-146806020D01*
G37*
G36*
X173659145Y-145574247D02*
G01*
X173659145Y-145829097D01*
X173129978Y-145829571D01*
X172627406Y-145851674D01*
X172264189Y-145923266D01*
X172015112Y-146053824D01*
X171854959Y-146252830D01*
X171823135Y-146320863D01*
X171729023Y-146704734D01*
X171746077Y-147089265D01*
X171866608Y-147420702D01*
X172004537Y-147589003D01*
X172138950Y-147686484D01*
X172294417Y-147744929D01*
X172516990Y-147773843D01*
X172852725Y-147782731D01*
X172944199Y-147782943D01*
X173659145Y-147782943D01*
X173659145Y-148037792D01*
X173659145Y-148292642D01*
X172875978Y-148287257D01*
X172508783Y-148277333D01*
X172190388Y-148255354D01*
X171970096Y-148225274D01*
X171916573Y-148210338D01*
X171678467Y-148045203D01*
X171452763Y-147777633D01*
X171287332Y-147471323D01*
X171239355Y-147309281D01*
X171204895Y-146925149D01*
X171227607Y-146516358D01*
X171299545Y-146144259D01*
X171412763Y-145870206D01*
X171428754Y-145846811D01*
X171661994Y-145601967D01*
X171959207Y-145440052D01*
X172352413Y-145349732D01*
X172873633Y-145319671D01*
X172918312Y-145319530D01*
X173659145Y-145319398D01*
X173659145Y-145574247D01*
G37*
G36*
X174844478Y-145914047D02*
G01*
X174844478Y-146508695D01*
X175564145Y-146508695D01*
X176283812Y-146508695D01*
X176283812Y-145914047D01*
X176283812Y-145319398D01*
X176580145Y-145319398D01*
X176876478Y-145319398D01*
X176876478Y-146806020D01*
X176876478Y-148292642D01*
X176580145Y-148292642D01*
X176283812Y-148292642D01*
X176283812Y-147697993D01*
X176283812Y-147103344D01*
X175564145Y-147103344D01*
X174844478Y-147103344D01*
X174844478Y-147697993D01*
X174844478Y-148292642D01*
X174548145Y-148292642D01*
X174251812Y-148292642D01*
X174251812Y-146806020D01*
X174251812Y-145319398D01*
X174548145Y-145319398D01*
X174844478Y-145319398D01*
X174844478Y-145914047D01*
G37*
G36*
X179924478Y-145559172D02*
G01*
X179924478Y-145813176D01*
X179080664Y-145842374D01*
X178596185Y-145873601D01*
X178263986Y-145932828D01*
X178068303Y-146027113D01*
X177993373Y-146163511D01*
X178013580Y-146320151D01*
X178077680Y-146435104D01*
X178202615Y-146513429D01*
X178415831Y-146561514D01*
X178744771Y-146585747D01*
X179183645Y-146592485D01*
X179538388Y-146595102D01*
X179756821Y-146607646D01*
X179871966Y-146639194D01*
X179916844Y-146698825D01*
X179924478Y-146795615D01*
X179924478Y-146796140D01*
X179917075Y-146888782D01*
X179874173Y-146949412D01*
X179764732Y-146986792D01*
X179557713Y-147009685D01*
X179222076Y-147026852D01*
X179087697Y-147032356D01*
X178606106Y-147065371D01*
X178274224Y-147123232D01*
X178073443Y-147212180D01*
X177985157Y-147338461D01*
X177977145Y-147405003D01*
X178015706Y-147566113D01*
X178145389Y-147677145D01*
X178387194Y-147745269D01*
X178762117Y-147777657D01*
X179083859Y-147782943D01*
X179924478Y-147782943D01*
X179924478Y-148037792D01*
X179924478Y-148292642D01*
X178971978Y-148290059D01*
X178570722Y-148280988D01*
X178220132Y-148258404D01*
X177962350Y-148225895D01*
X177850145Y-148194548D01*
X177609605Y-148003681D01*
X177491671Y-147741166D01*
X177469145Y-147482548D01*
X177512917Y-147168106D01*
X177639792Y-146974727D01*
X177810439Y-146819777D01*
X177639792Y-146637523D01*
X177494883Y-146368720D01*
X177476606Y-146046704D01*
X177583105Y-145728927D01*
X177673287Y-145600222D01*
X177765858Y-145499721D01*
X177862304Y-145431346D01*
X177996544Y-145387730D01*
X178202498Y-145361504D01*
X178514083Y-145345298D01*
X178900954Y-145333521D01*
X179924478Y-145305169D01*
X179924478Y-145559172D01*
G37*
G36*
X182633812Y-145574247D02*
G01*
X182624563Y-145725112D01*
X182567696Y-145800343D01*
X182419531Y-145826235D01*
X182210478Y-145829097D01*
X181787145Y-145829097D01*
X181787145Y-147060869D01*
X181787145Y-148292642D01*
X181490812Y-148292642D01*
X181194478Y-148292642D01*
X181194478Y-147060869D01*
X181194478Y-145829097D01*
X180771145Y-145829097D01*
X180520542Y-145823529D01*
X180395575Y-145789295D01*
X180352565Y-145700098D01*
X180347812Y-145574247D01*
X180347812Y-145319398D01*
X181490812Y-145319398D01*
X182633812Y-145319398D01*
X182633812Y-145574247D01*
G37*
%TO.C,J9*%
X134755000Y-125131000D02*
X133355000Y-125131000D01*
X130955000Y-125131000D02*
X130805000Y-125131000D01*
X130805000Y-125131000D02*
X130805000Y-125431000D01*
X130805000Y-125431000D02*
X130355000Y-125431000D01*
X136930000Y-127481000D02*
X136505000Y-127481000D01*
X136505000Y-127481000D02*
X136505000Y-126481000D01*
X136930000Y-128206000D02*
X136930000Y-127481000D01*
X136505000Y-131081000D02*
X136505000Y-132081000D01*
X130805000Y-133131000D02*
X130805000Y-133431000D01*
X130355000Y-133131000D02*
X130805000Y-133131000D01*
X133355000Y-133431000D02*
X134755000Y-133431000D01*
X130805000Y-133431000D02*
X130955000Y-133431000D01*
D17*
%TO.C,C13*%
X161695000Y-123666748D02*
X161695000Y-124189252D01*
X160225000Y-123666748D02*
X160225000Y-124189252D01*
%TO.C,D9*%
X177221500Y-92760000D02*
X177221500Y-90840000D01*
X177221500Y-90840000D02*
X174536500Y-90840000D01*
X174536500Y-92760000D02*
X177221500Y-92760000D01*
%TO.C,C7*%
X157945000Y-103218748D02*
X157945000Y-103741252D01*
X156475000Y-103218748D02*
X156475000Y-103741252D01*
%TO.C,D15*%
X205170000Y-124917500D02*
X207090000Y-124917500D01*
X207090000Y-124917500D02*
X207090000Y-122232500D01*
X205170000Y-122232500D02*
X205170000Y-124917500D01*
%TO.C,D18*%
X201657000Y-109347500D02*
X203577000Y-109347500D01*
X203577000Y-109347500D02*
X203577000Y-106662500D01*
X201657000Y-106662500D02*
X201657000Y-109347500D01*
%TO.C,C21*%
X154237500Y-124979252D02*
X154237500Y-124456748D01*
X155707500Y-124979252D02*
X155707500Y-124456748D01*
%TO.C,D4*%
X204930000Y-130973500D02*
X206850000Y-130973500D01*
X206850000Y-130973500D02*
X206850000Y-128288500D01*
X204930000Y-128288500D02*
X204930000Y-130973500D01*
%TO.C,D20*%
X204224000Y-109312500D02*
X206144000Y-109312500D01*
X206144000Y-109312500D02*
X206144000Y-106627500D01*
X204224000Y-106627500D02*
X204224000Y-109312500D01*
%TO.C,R5*%
X163545000Y-112890436D02*
X163545000Y-113344564D01*
X162075000Y-112890436D02*
X162075000Y-113344564D01*
%TO.C,D8*%
X166712500Y-108230000D02*
X166712500Y-110150000D01*
X166712500Y-110150000D02*
X169397500Y-110150000D01*
X169397500Y-108230000D02*
X166712500Y-108230000D01*
%TO.C,D21*%
X204224000Y-113279500D02*
X206144000Y-113279500D01*
X206144000Y-113279500D02*
X206144000Y-110594500D01*
X204224000Y-110594500D02*
X204224000Y-113279500D01*
%TO.C,C10*%
X150165000Y-103643252D02*
X150165000Y-103120748D01*
X151635000Y-103643252D02*
X151635000Y-103120748D01*
%TO.C,D1*%
X195920000Y-90902500D02*
X194000000Y-90902500D01*
X194000000Y-90902500D02*
X194000000Y-93587500D01*
X195920000Y-93587500D02*
X195920000Y-90902500D01*
%TO.C,D5*%
X202340000Y-135037500D02*
X204260000Y-135037500D01*
X204260000Y-135037500D02*
X204260000Y-132352500D01*
X202340000Y-132352500D02*
X202340000Y-135037500D01*
D14*
%TO.C,IC2*%
X160215000Y-126361000D02*
X161740000Y-126361000D01*
D16*
%TO.C,U5*%
X154715722Y-126850562D02*
X154715722Y-127152174D01*
X152062565Y-126850562D02*
X154715722Y-126850562D01*
X152062565Y-127157286D02*
X152062565Y-126850562D01*
X152067677Y-128747134D02*
X152067677Y-128215480D01*
X154720142Y-129283900D02*
X154720142Y-129580399D01*
X154720142Y-129580399D02*
X152072789Y-129580399D01*
X152072789Y-129580399D02*
X152072789Y-129294124D01*
D17*
%TO.C,J3*%
X208887500Y-81620000D02*
X208887500Y-89340000D01*
X207667500Y-81620000D02*
X207667500Y-82840000D01*
X200467500Y-81620000D02*
X208887500Y-81620000D01*
X207667500Y-82840000D02*
X202667500Y-82840000D01*
X203667500Y-82840000D02*
X203667500Y-88120000D01*
X202667500Y-82840000D02*
X202667500Y-81620000D01*
X202667500Y-82840000D02*
X200467500Y-82840000D01*
X200467500Y-82840000D02*
X200467500Y-81620000D01*
X207087500Y-83910000D02*
X207167500Y-84230000D01*
X203667500Y-83910000D02*
X207087500Y-83910000D01*
X199977500Y-83930000D02*
X199977500Y-84530000D01*
X207167500Y-84230000D02*
X207087500Y-84550000D01*
X203667500Y-84230000D02*
X203667500Y-83910000D01*
X200577500Y-84230000D02*
X199977500Y-83930000D01*
X199977500Y-84530000D02*
X200577500Y-84230000D01*
X207087500Y-84550000D02*
X203667500Y-84550000D01*
X203667500Y-84550000D02*
X203667500Y-84230000D01*
X202667500Y-85400000D02*
X202667500Y-85560000D01*
X207087500Y-86410000D02*
X207167500Y-86730000D01*
X203667500Y-86410000D02*
X207087500Y-86410000D01*
X207167500Y-86730000D02*
X207087500Y-87050000D01*
X203667500Y-86730000D02*
X203667500Y-86410000D01*
X207087500Y-87050000D02*
X203667500Y-87050000D01*
X203667500Y-87050000D02*
X203667500Y-86730000D01*
X207667500Y-88120000D02*
X202667500Y-88120000D01*
X202667500Y-88120000D02*
X202667500Y-89340000D01*
X200467500Y-88120000D02*
X202667500Y-88120000D01*
X208887500Y-89340000D02*
X200467500Y-89340000D01*
X207667500Y-89340000D02*
X207667500Y-88120000D01*
X200467500Y-89340000D02*
X200467500Y-88120000D01*
%TO.C,D2*%
X177157500Y-95280000D02*
X177157500Y-93360000D01*
X177157500Y-93360000D02*
X174472500Y-93360000D01*
X174472500Y-95280000D02*
X177157500Y-95280000D01*
%TO.C,C14*%
X158053752Y-128443000D02*
X157531248Y-128443000D01*
X158053752Y-126973000D02*
X157531248Y-126973000D01*
%TO.C,R11*%
X169525000Y-130758436D02*
X169525000Y-131212564D01*
X168055000Y-130758436D02*
X168055000Y-131212564D01*
D16*
%TO.C,U6*%
X176548222Y-112923082D02*
X176548222Y-113224694D01*
X173895065Y-112923082D02*
X176548222Y-112923082D01*
X173895065Y-113229806D02*
X173895065Y-112923082D01*
X173900177Y-114819654D02*
X173900177Y-114288000D01*
X176552642Y-115356420D02*
X176552642Y-115652919D01*
X176552642Y-115652919D02*
X173905289Y-115652919D01*
X173905289Y-115652919D02*
X173905289Y-115366644D01*
D17*
%TO.C,D13*%
X202216000Y-124895000D02*
X204136000Y-124895000D01*
X204136000Y-124895000D02*
X204136000Y-122210000D01*
X202216000Y-122210000D02*
X202216000Y-124895000D01*
%TO.C,R8*%
X171427436Y-91065000D02*
X171881564Y-91065000D01*
X171427436Y-92535000D02*
X171881564Y-92535000D01*
%TO.C,J4*%
X129588000Y-91430000D02*
X129588000Y-81210000D01*
X130808000Y-91430000D02*
X130808000Y-90210000D01*
X138008000Y-91430000D02*
X129588000Y-91430000D01*
X130808000Y-90210000D02*
X135808000Y-90210000D01*
X134808000Y-90210000D02*
X134808000Y-82430000D01*
X135808000Y-90210000D02*
X135808000Y-91430000D01*
X135808000Y-90210000D02*
X138008000Y-90210000D01*
X138008000Y-90210000D02*
X138008000Y-91430000D01*
X131388000Y-89140000D02*
X131308000Y-88820000D01*
X134808000Y-89140000D02*
X131388000Y-89140000D01*
X138498000Y-89120000D02*
X138498000Y-88520000D01*
X131308000Y-88820000D02*
X131388000Y-88500000D01*
X134808000Y-88820000D02*
X134808000Y-89140000D01*
X137898000Y-88820000D02*
X138498000Y-89120000D01*
X138498000Y-88520000D02*
X137898000Y-88820000D01*
X131388000Y-88500000D02*
X134808000Y-88500000D01*
X134808000Y-88500000D02*
X134808000Y-88820000D01*
X135808000Y-87650000D02*
X135808000Y-87490000D01*
X131388000Y-86640000D02*
X131308000Y-86320000D01*
X134808000Y-86640000D02*
X131388000Y-86640000D01*
X131308000Y-86320000D02*
X131388000Y-86000000D01*
X134808000Y-86320000D02*
X134808000Y-86640000D01*
X131388000Y-86000000D02*
X134808000Y-86000000D01*
X134808000Y-86000000D02*
X134808000Y-86320000D01*
X135808000Y-85150000D02*
X135808000Y-84990000D01*
X131388000Y-84140000D02*
X131308000Y-83820000D01*
X134808000Y-84140000D02*
X131388000Y-84140000D01*
X131308000Y-83820000D02*
X131388000Y-83500000D01*
X134808000Y-83820000D02*
X134808000Y-84140000D01*
X131388000Y-83500000D02*
X134808000Y-83500000D01*
X134808000Y-83500000D02*
X134808000Y-83820000D01*
X130808000Y-82430000D02*
X135808000Y-82430000D01*
X135808000Y-82430000D02*
X135808000Y-81210000D01*
X138008000Y-82430000D02*
X135808000Y-82430000D01*
X129588000Y-81210000D02*
X138008000Y-81210000D01*
X130808000Y-81210000D02*
X130808000Y-82430000D01*
X138008000Y-81210000D02*
X138008000Y-82430000D01*
D16*
%TO.C,U3*%
X150348222Y-105435082D02*
X150348222Y-105736694D01*
X147695065Y-105435082D02*
X150348222Y-105435082D01*
X147695065Y-105741806D02*
X147695065Y-105435082D01*
X147700177Y-107331654D02*
X147700177Y-106800000D01*
X150352642Y-107868420D02*
X150352642Y-108164919D01*
X150352642Y-108164919D02*
X147705289Y-108164919D01*
X147705289Y-108164919D02*
X147705289Y-107878644D01*
D17*
%TO.C,C22*%
X176108000Y-110991252D02*
X176108000Y-110468748D01*
X177578000Y-110991252D02*
X177578000Y-110468748D01*
%TO.C,R3*%
X194225000Y-96696564D02*
X194225000Y-96242436D01*
X195695000Y-96696564D02*
X195695000Y-96242436D01*
%TO.C,D14*%
X205100000Y-120697500D02*
X207020000Y-120697500D01*
X207020000Y-120697500D02*
X207020000Y-118012500D01*
X205100000Y-118012500D02*
X205100000Y-120697500D01*
%TO.C,C8*%
X160615000Y-103198748D02*
X160615000Y-103721252D01*
X159145000Y-103198748D02*
X159145000Y-103721252D01*
%TO.C,R14*%
X157575436Y-124703000D02*
X158029564Y-124703000D01*
X157575436Y-126173000D02*
X158029564Y-126173000D01*
%TO.C,D3*%
X202340000Y-130973500D02*
X204260000Y-130973500D01*
X204260000Y-130973500D02*
X204260000Y-128288500D01*
X202340000Y-128288500D02*
X202340000Y-130973500D01*
%TO.C,D19*%
X201670000Y-113182500D02*
X203590000Y-113182500D01*
X203590000Y-113182500D02*
X203590000Y-110497500D01*
X201670000Y-110497500D02*
X201670000Y-113182500D01*
%TO.C,C5*%
X148630000Y-91947252D02*
X148630000Y-91424748D01*
X150100000Y-91947252D02*
X150100000Y-91424748D01*
%TO.C,L2*%
X159212500Y-130360878D02*
X159212500Y-131160122D01*
X158092500Y-130360878D02*
X158092500Y-131160122D01*
%TO.C,L1*%
X155190000Y-108847878D02*
X155190000Y-109647122D01*
X154070000Y-108847878D02*
X154070000Y-109647122D01*
%TO.C,J2*%
X143948000Y-70660000D02*
X151668000Y-70660000D01*
X143948000Y-71880000D02*
X145168000Y-71880000D01*
X143948000Y-79080000D02*
X143948000Y-70660000D01*
X145168000Y-71880000D02*
X145168000Y-76880000D01*
X145168000Y-75880000D02*
X150448000Y-75880000D01*
X145168000Y-76880000D02*
X143948000Y-76880000D01*
X145168000Y-76880000D02*
X145168000Y-79080000D01*
X145168000Y-79080000D02*
X143948000Y-79080000D01*
X146238000Y-72460000D02*
X146558000Y-72380000D01*
X146238000Y-75880000D02*
X146238000Y-72460000D01*
X146258000Y-79570000D02*
X146858000Y-79570000D01*
X146558000Y-72380000D02*
X146878000Y-72460000D01*
X146558000Y-75880000D02*
X146238000Y-75880000D01*
X146558000Y-78970000D02*
X146258000Y-79570000D01*
X146858000Y-79570000D02*
X146558000Y-78970000D01*
X146878000Y-72460000D02*
X146878000Y-75880000D01*
X146878000Y-75880000D02*
X146558000Y-75880000D01*
X147728000Y-76880000D02*
X147888000Y-76880000D01*
X148738000Y-72460000D02*
X149058000Y-72380000D01*
X148738000Y-75880000D02*
X148738000Y-72460000D01*
X149058000Y-72380000D02*
X149378000Y-72460000D01*
X149058000Y-75880000D02*
X148738000Y-75880000D01*
X149378000Y-72460000D02*
X149378000Y-75880000D01*
X149378000Y-75880000D02*
X149058000Y-75880000D01*
X150448000Y-71880000D02*
X150448000Y-76880000D01*
X150448000Y-76880000D02*
X151668000Y-76880000D01*
X150448000Y-79080000D02*
X150448000Y-76880000D01*
X151668000Y-70660000D02*
X151668000Y-79080000D01*
X151668000Y-71880000D02*
X150448000Y-71880000D01*
X151668000Y-79080000D02*
X150448000Y-79080000D01*
%TO.C,R15*%
X179560436Y-110823000D02*
X180014564Y-110823000D01*
X179560436Y-112293000D02*
X180014564Y-112293000D01*
%TO.C,C18*%
X179995252Y-114482000D02*
X179472748Y-114482000D01*
X179995252Y-113012000D02*
X179472748Y-113012000D01*
%TO.C,U4*%
X184676000Y-95712000D02*
X181226000Y-95712000D01*
X184676000Y-95712000D02*
X186626000Y-95712000D01*
X184676000Y-100832000D02*
X182726000Y-100832000D01*
X184676000Y-100832000D02*
X186626000Y-100832000D01*
%TO.C,J6*%
X197910000Y-80815000D02*
X197910000Y-78215000D01*
X197910000Y-80815000D02*
X192960000Y-80815000D01*
X184510000Y-80815000D02*
X189460000Y-80815000D01*
X184510000Y-80815000D02*
X184510000Y-78215000D01*
X184510000Y-74815000D02*
X197910000Y-74815000D01*
%TO.C,C17*%
X184261000Y-109286748D02*
X184261000Y-109809252D01*
X182791000Y-109286748D02*
X182791000Y-109809252D01*
%TO.C,R12*%
X189755000Y-118920436D02*
X189755000Y-119374564D01*
X188285000Y-118920436D02*
X188285000Y-119374564D01*
%TO.C,D17*%
X185780000Y-120822500D02*
X187700000Y-120822500D01*
X187700000Y-120822500D02*
X187700000Y-118137500D01*
X185780000Y-118137500D02*
X185780000Y-120822500D01*
%TO.C,C15*%
X164125000Y-123676748D02*
X164125000Y-124199252D01*
X162655000Y-123676748D02*
X162655000Y-124199252D01*
D14*
%TO.C,IC1*%
X156449000Y-105640000D02*
X157974000Y-105640000D01*
%TO.C,IC3*%
X182757000Y-111904000D02*
X184282000Y-111904000D01*
D17*
%TO.C,C3*%
X152862252Y-98091000D02*
X152339748Y-98091000D01*
X152862252Y-96621000D02*
X152339748Y-96621000D01*
%TO.C,C6*%
X154011252Y-107075000D02*
X153488748Y-107075000D01*
X154011252Y-105605000D02*
X153488748Y-105605000D01*
%TO.C,C16*%
X170765000Y-134238748D02*
X170765000Y-134761252D01*
X169295000Y-134238748D02*
X169295000Y-134761252D01*
%TO.C,D7*%
X159590000Y-114727500D02*
X161510000Y-114727500D01*
X161510000Y-114727500D02*
X161510000Y-112042500D01*
X159590000Y-112042500D02*
X159590000Y-114727500D01*
%TO.C,D22*%
X193712500Y-114260000D02*
X193712500Y-116180000D01*
X193712500Y-116180000D02*
X196397500Y-116180000D01*
X196397500Y-114260000D02*
X193712500Y-114260000D01*
%TO.C,SW1*%
X193320000Y-146500000D02*
X193320000Y-145000000D01*
X192070000Y-142500000D02*
X187570000Y-142500000D01*
X187570000Y-149000000D02*
X192070000Y-149000000D01*
X186320000Y-145000000D02*
X186320000Y-146500000D01*
%TO.C,C20*%
X193195000Y-119488748D02*
X193195000Y-120011252D01*
X191725000Y-119488748D02*
X191725000Y-120011252D01*
%TO.C,C12*%
X190325000Y-99578748D02*
X190325000Y-100101252D01*
X188855000Y-99578748D02*
X188855000Y-100101252D01*
%TO.C,R13*%
X191975000Y-115845436D02*
X191975000Y-116299564D01*
X190505000Y-115845436D02*
X190505000Y-116299564D01*
%TO.C,D11*%
X163270000Y-135652500D02*
X165190000Y-135652500D01*
X165190000Y-135652500D02*
X165190000Y-132967500D01*
X163270000Y-132967500D02*
X163270000Y-135652500D01*
%TO.C,R7*%
X153570436Y-103475000D02*
X154024564Y-103475000D01*
X153570436Y-104945000D02*
X154024564Y-104945000D01*
%TO.C,R1*%
X158777000Y-90500564D02*
X158777000Y-90046436D01*
X160247000Y-90500564D02*
X160247000Y-90046436D01*
%TO.C,R4*%
X171547936Y-93585000D02*
X172002064Y-93585000D01*
X171547936Y-95055000D02*
X172002064Y-95055000D01*
%TO.C,R6*%
X165845000Y-109582436D02*
X165845000Y-110036564D01*
X164375000Y-109582436D02*
X164375000Y-110036564D01*
%TO.C,R10*%
X167265000Y-133860436D02*
X167265000Y-134314564D01*
X165795000Y-133860436D02*
X165795000Y-134314564D01*
%TO.C,U1*%
X154253000Y-95836000D02*
X157703000Y-95836000D01*
X154253000Y-95836000D02*
X152303000Y-95836000D01*
X154253000Y-90716000D02*
X156203000Y-90716000D01*
X154253000Y-90716000D02*
X152303000Y-90716000D01*
%TO.C,C11*%
X186098748Y-93615000D02*
X186621252Y-93615000D01*
X186098748Y-95085000D02*
X186621252Y-95085000D01*
%TO.C,C19*%
X186645000Y-109276748D02*
X186645000Y-109799252D01*
X185175000Y-109276748D02*
X185175000Y-109799252D01*
%TO.C,J1*%
X151688000Y-150327500D02*
X143968000Y-150327500D01*
X151688000Y-149107500D02*
X150468000Y-149107500D01*
X151688000Y-141907500D02*
X151688000Y-150327500D01*
X150468000Y-149107500D02*
X150468000Y-144107500D01*
X150468000Y-145107500D02*
X145188000Y-145107500D01*
X150468000Y-144107500D02*
X151688000Y-144107500D01*
X150468000Y-144107500D02*
X150468000Y-141907500D01*
X150468000Y-141907500D02*
X151688000Y-141907500D01*
X149398000Y-148527500D02*
X149078000Y-148607500D01*
X149398000Y-145107500D02*
X149398000Y-148527500D01*
X149378000Y-141417500D02*
X148778000Y-141417500D01*
X149078000Y-148607500D02*
X148758000Y-148527500D01*
X149078000Y-145107500D02*
X149398000Y-145107500D01*
X149078000Y-142017500D02*
X149378000Y-141417500D01*
X148778000Y-141417500D02*
X149078000Y-142017500D01*
X148758000Y-148527500D02*
X148758000Y-145107500D01*
X148758000Y-145107500D02*
X149078000Y-145107500D01*
X147908000Y-144107500D02*
X147748000Y-144107500D01*
X146898000Y-148527500D02*
X146578000Y-148607500D01*
X146898000Y-145107500D02*
X146898000Y-148527500D01*
X146578000Y-148607500D02*
X146258000Y-148527500D01*
X146578000Y-145107500D02*
X146898000Y-145107500D01*
X146258000Y-148527500D02*
X146258000Y-145107500D01*
X146258000Y-145107500D02*
X146578000Y-145107500D01*
X145188000Y-149107500D02*
X145188000Y-144107500D01*
X145188000Y-144107500D02*
X143968000Y-144107500D01*
X145188000Y-141907500D02*
X145188000Y-144107500D01*
X143968000Y-150327500D02*
X143968000Y-141907500D01*
X143968000Y-149107500D02*
X145188000Y-149107500D01*
X143968000Y-141907500D02*
X145188000Y-141907500D01*
%TO.C,L3*%
X181210000Y-116388378D02*
X181210000Y-117187622D01*
X180090000Y-116388378D02*
X180090000Y-117187622D01*
%TO.C,D16*%
X171367500Y-129088000D02*
X171367500Y-131008000D01*
X171367500Y-131008000D02*
X174052500Y-131008000D01*
X174052500Y-129088000D02*
X171367500Y-129088000D01*
%TO.C,C9*%
X165835000Y-113158748D02*
X165835000Y-113681252D01*
X164365000Y-113158748D02*
X164365000Y-113681252D01*
%TO.C,D12*%
X202146000Y-120675000D02*
X204066000Y-120675000D01*
X204066000Y-120675000D02*
X204066000Y-117990000D01*
X202146000Y-117990000D02*
X202146000Y-120675000D01*
%TO.C,R2*%
X156455000Y-88684564D02*
X156455000Y-88230436D01*
X157925000Y-88684564D02*
X157925000Y-88230436D01*
%TO.C,D6*%
X204930000Y-135037500D02*
X206850000Y-135037500D01*
X206850000Y-135037500D02*
X206850000Y-132352500D01*
X204930000Y-132352500D02*
X204930000Y-135037500D01*
%TD*%
M02*
