%TF.GenerationSoftware,KiCad,Pcbnew,(6.0.7)*%
%TF.CreationDate,2023-02-23T14:58:51+03:00*%
%TF.ProjectId,Omarichet EPS Stack,4f6d6172-6963-4686-9574-204550532053,rev?*%
%TF.SameCoordinates,Original*%
%TF.FileFunction,Soldermask,Top*%
%TF.FilePolarity,Negative*%
%FSLAX46Y46*%
G04 Gerber Fmt 4.6, Leading zero omitted, Abs format (unit mm)*
G04 Created by KiCad (PCBNEW (6.0.7)) date 2023-02-23 14:58:51*
%MOMM*%
%LPD*%
G01*
G04 APERTURE LIST*
G04 Aperture macros list*
%AMRoundRect*
0 Rectangle with rounded corners*
0 $1 Rounding radius*
0 $2 $3 $4 $5 $6 $7 $8 $9 X,Y pos of 4 corners*
0 Add a 4 corners polygon primitive as box body*
4,1,4,$2,$3,$4,$5,$6,$7,$8,$9,$2,$3,0*
0 Add four circle primitives for the rounded corners*
1,1,$1+$1,$2,$3*
1,1,$1+$1,$4,$5*
1,1,$1+$1,$6,$7*
1,1,$1+$1,$8,$9*
0 Add four rect primitives between the rounded corners*
20,1,$1+$1,$2,$3,$4,$5,0*
20,1,$1+$1,$4,$5,$6,$7,0*
20,1,$1+$1,$6,$7,$8,$9,0*
20,1,$1+$1,$8,$9,$2,$3,0*%
G04 Aperture macros list end*
%ADD10C,4.000000*%
%ADD11RoundRect,0.250002X1.499998X1.499998X-1.499998X1.499998X-1.499998X-1.499998X1.499998X-1.499998X0*%
%ADD12C,3.500000*%
%ADD13R,1.700000X1.700000*%
%ADD14O,1.700000X1.700000*%
%ADD15RoundRect,0.250000X-0.475000X0.250000X-0.475000X-0.250000X0.475000X-0.250000X0.475000X0.250000X0*%
%ADD16R,2.000000X1.500000*%
%ADD17R,2.000000X3.800000*%
%ADD18RoundRect,0.243750X0.243750X0.456250X-0.243750X0.456250X-0.243750X-0.456250X0.243750X-0.456250X0*%
%ADD19C,3.200000*%
%ADD20RoundRect,0.150000X-0.825000X-0.150000X0.825000X-0.150000X0.825000X0.150000X-0.825000X0.150000X0*%
%ADD21RoundRect,0.250000X0.250000X0.475000X-0.250000X0.475000X-0.250000X-0.475000X0.250000X-0.475000X0*%
%ADD22RoundRect,0.200000X-0.275000X0.200000X-0.275000X-0.200000X0.275000X-0.200000X0.275000X0.200000X0*%
%ADD23RoundRect,0.200000X-0.200000X-0.275000X0.200000X-0.275000X0.200000X0.275000X-0.200000X0.275000X0*%
G04 APERTURE END LIST*
D10*
%TO.C,J1*%
X112890000Y-49630000D03*
X119890000Y-49630000D03*
D11*
X119890000Y-70630000D03*
D12*
X112890000Y-70630000D03*
%TD*%
D13*
%TO.C,J2*%
X102720000Y-94245000D03*
D14*
X102720000Y-96785000D03*
X102720000Y-99325000D03*
X102720000Y-101865000D03*
X102720000Y-104405000D03*
X102720000Y-106945000D03*
X102720000Y-109485000D03*
%TD*%
D15*
%TO.C,C3*%
X138480000Y-100790000D03*
X138480000Y-102690000D03*
%TD*%
D16*
%TO.C,U1*%
X148350000Y-83700000D03*
D17*
X154650000Y-86000000D03*
D16*
X148350000Y-86000000D03*
X148350000Y-88300000D03*
%TD*%
D18*
%TO.C,D1*%
X156875000Y-98500000D03*
X155000000Y-98500000D03*
%TD*%
D19*
%TO.C,H1*%
X101110000Y-51240000D03*
%TD*%
D15*
%TO.C,C5*%
X144330000Y-88330000D03*
X144330000Y-90230000D03*
%TD*%
%TO.C,C1*%
X106330000Y-92360000D03*
X106330000Y-94260000D03*
%TD*%
D19*
%TO.C,H3*%
X166410000Y-119040000D03*
%TD*%
%TO.C,H4*%
X166400000Y-51300000D03*
%TD*%
D20*
%TO.C,U2*%
X128005000Y-98275000D03*
X128005000Y-99545000D03*
X128005000Y-100815000D03*
X128005000Y-102085000D03*
X132955000Y-102085000D03*
X132955000Y-100815000D03*
X132955000Y-99545000D03*
X132955000Y-98275000D03*
%TD*%
D21*
%TO.C,C4*%
X154740000Y-79610000D03*
X152840000Y-79610000D03*
%TD*%
D18*
%TO.C,D2*%
X156937500Y-103500000D03*
X155062500Y-103500000D03*
%TD*%
D22*
%TO.C,R1*%
X119790000Y-78490000D03*
X119790000Y-80140000D03*
%TD*%
D23*
%TO.C,R3*%
X150770000Y-103720000D03*
X152420000Y-103720000D03*
%TD*%
%TO.C,R4*%
X150175000Y-98500000D03*
X151825000Y-98500000D03*
%TD*%
D19*
%TO.C,H2*%
X101080000Y-119040000D03*
%TD*%
D10*
%TO.C,J4*%
X154500000Y-49500000D03*
X147500000Y-49500000D03*
D11*
X154500000Y-70500000D03*
D12*
X147500000Y-70500000D03*
%TD*%
D22*
%TO.C,R2*%
X119770000Y-82675000D03*
X119770000Y-84325000D03*
%TD*%
D15*
%TO.C,C2*%
X138480000Y-96350000D03*
X138480000Y-98250000D03*
%TD*%
D10*
%TO.C,J3*%
X130380000Y-49630000D03*
X137380000Y-49630000D03*
D11*
X137380000Y-70630000D03*
D12*
X130380000Y-70630000D03*
%TD*%
M02*
