M48
; DRILL file {KiCad 8.0.6} date 2024-11-27T19:32:01+0300
; FORMAT={-:-/ absolute / metric / decimal}
; #@! TF.CreationDate,2024-11-27T19:32:01+03:00
; #@! TF.GenerationSoftware,Kicad,Pcbnew,8.0.6
; #@! TF.FileFunction,Plated,1,4,PTH
FMAT,2
METRIC
; #@! TA.AperFunction,Plated,PTH,ComponentDrill
T1C0.200
; #@! TA.AperFunction,Plated,PTH,ViaDrill
T2C0.300
; #@! TA.AperFunction,Plated,PTH,ComponentDrill
T3C0.600
; #@! TA.AperFunction,Plated,PTH,ComponentDrill
T4C1.000
%
G90
G05
T1
X65.13Y-95.175
X65.13Y-96.575
X65.83Y-94.475
X65.83Y-95.9
X65.83Y-97.275
X66.53Y-95.175
X66.53Y-96.575
X67.23Y-94.475
X67.23Y-95.9
X67.23Y-97.275
X67.93Y-95.175
X67.93Y-96.575
T2
X53.07Y-59.735
X53.07Y-63.735
X53.07Y-67.735
X55.07Y-53.735
X55.07Y-57.735
X55.07Y-61.735
X55.07Y-65.735
X55.07Y-69.735
X56.07Y-120.735
X56.07Y-124.735
X57.07Y-55.735
X58.07Y-70.735
X58.07Y-74.735
X58.07Y-78.735
X58.07Y-110.735
X58.07Y-114.735
X58.07Y-118.735
X58.07Y-122.735
X59.07Y-49.735
X59.07Y-53.735
X59.07Y-104.635
X59.17Y-99.835
X59.97Y-99.835
X60.07Y-104.335
X60.07Y-105.035
X60.07Y-112.735
X60.07Y-116.735
X60.07Y-120.735
X60.77Y-99.835
X61.07Y-51.735
X61.37Y-84.035
X61.37Y-87.935
X61.97Y-88.935
X61.97Y-99.835
X62.37Y-60.81
X62.37Y-61.66
X62.47Y-56.835
X62.57Y-87.935
X63.07Y-49.735
X63.07Y-53.735
X63.77Y-56.835
X64.07Y-120.735
X64.07Y-124.735
X65.07Y-51.735
X65.07Y-74.135
X65.17Y-101.835
X65.67Y-81.235
X65.87Y-74.135
X66.07Y-61.61
X66.07Y-98.735
X66.07Y-106.735
X66.07Y-110.735
X66.07Y-114.735
X66.07Y-118.735
X66.43Y-101.835
X66.97Y-60.81
X67.27Y-61.835
X67.7Y-101.835
X68.07Y-88.735
X68.07Y-92.735
X68.07Y-104.735
X68.07Y-108.735
X68.07Y-112.735
X68.07Y-116.735
X68.07Y-120.735
X68.07Y-124.735
X68.97Y-83.235
X68.97Y-101.835
X69.07Y-57.735
X69.57Y-47.335
X70.07Y-94.735
X70.07Y-98.735
X70.07Y-106.735
X70.07Y-110.735
X70.07Y-114.735
X70.07Y-118.735
X70.27Y-86.835
X70.27Y-101.835
X70.57Y-78.635
X70.77Y-47.335
X71.07Y-59.735
X71.07Y-67.735
X71.07Y-71.735
X71.57Y-83.735
X71.97Y-74.635
X72.07Y-88.735
X72.07Y-92.735
X72.07Y-96.735
X72.07Y-104.735
X72.07Y-108.735
X72.07Y-112.735
X72.07Y-116.735
X72.07Y-120.735
X72.07Y-124.735
X72.67Y-81.235
X72.87Y-76.235
X72.87Y-83.735
X72.87Y-96.235
X73.07Y-57.735
X73.07Y-61.735
X73.07Y-65.735
X73.07Y-69.735
X73.37Y-55.335
X73.87Y-72.335
X73.87Y-73.635
X74.05Y-98.935
X74.07Y-83.735
X74.07Y-90.235
X74.07Y-91.235
X74.07Y-96.235
X74.07Y-97.735
X74.07Y-106.735
X74.07Y-110.735
X74.07Y-114.735
X74.07Y-118.735
X74.17Y-56.135
X74.17Y-88.535
X75.07Y-56.135
X75.07Y-59.735
X75.07Y-67.735
X75.07Y-71.735
X75.07Y-119.535
X75.27Y-86.835
X75.27Y-88.535
X75.97Y-55.335
X76.37Y-86.735
X76.47Y-102.335
X76.47Y-119.535
X77.07Y-65.735
X77.07Y-69.735
X78.07Y-102.335
X78.07Y-106.735
X78.07Y-110.735
X78.07Y-114.735
X78.07Y-118.735
X78.37Y-75.535
X78.57Y-94.735
X79.07Y-55.735
X79.07Y-59.735
X79.07Y-63.735
X79.07Y-67.735
X79.07Y-71.735
X80.07Y-92.735
X80.07Y-104.735
X80.07Y-108.735
X80.07Y-112.735
X80.07Y-116.735
X80.07Y-120.735
X80.07Y-124.735
X81.07Y-57.735
X81.07Y-61.735
X81.07Y-65.735
X81.07Y-69.735
X82.07Y-98.735
X82.47Y-85.435
X83.07Y-55.735
X83.07Y-59.735
X83.07Y-63.735
X83.07Y-67.735
X83.07Y-75.735
X83.07Y-79.735
X83.07Y-83.735
X84.07Y-92.735
X84.07Y-104.735
X84.07Y-108.735
X84.07Y-112.735
X84.07Y-116.735
X84.07Y-120.735
X84.07Y-124.735
X85.07Y-57.735
X85.07Y-61.735
X85.07Y-65.735
X85.07Y-73.735
X85.07Y-77.735
X85.07Y-81.735
X85.07Y-85.735
X86.07Y-98.735
X86.07Y-102.735
X86.07Y-106.735
X86.07Y-110.735
X86.07Y-114.735
X86.07Y-118.735
X87.07Y-59.735
X87.07Y-63.735
X87.07Y-71.735
X87.07Y-75.735
X87.07Y-79.735
X87.07Y-83.735
X88.07Y-92.735
X88.07Y-104.735
X88.07Y-108.735
X88.07Y-120.735
X88.07Y-124.735
X89.07Y-57.735
X89.07Y-61.735
X89.07Y-69.735
X89.07Y-73.735
X89.07Y-77.735
X89.07Y-81.735
X89.07Y-85.735
X90.07Y-98.735
X90.07Y-102.735
X90.07Y-106.735
X90.07Y-110.735
X90.07Y-118.735
X91.07Y-67.735
X91.07Y-71.735
X91.07Y-75.735
X91.07Y-79.735
X91.07Y-83.735
X92.07Y-92.735
X92.07Y-120.735
X92.07Y-124.735
X93.07Y-57.735
X93.07Y-61.735
X93.07Y-65.735
X93.07Y-69.735
X93.07Y-73.735
X93.07Y-77.735
X93.07Y-81.735
X93.07Y-85.735
X94.07Y-98.735
X94.07Y-106.735
X94.07Y-110.735
X94.07Y-118.735
X95.07Y-55.735
X95.07Y-59.735
X95.07Y-63.735
X95.07Y-67.735
X95.07Y-71.735
X95.07Y-75.735
X95.07Y-79.735
X95.07Y-83.735
X96.07Y-92.735
X96.07Y-104.735
X96.07Y-108.735
X96.07Y-120.735
X96.07Y-124.735
X97.07Y-57.735
X97.07Y-61.735
X97.07Y-65.735
X97.07Y-69.735
X97.07Y-73.735
X97.07Y-77.735
X97.07Y-81.735
X97.07Y-85.735
X99.07Y-55.735
X99.07Y-59.735
X99.07Y-63.735
X99.07Y-67.735
X99.07Y-71.735
X99.07Y-75.735
X99.07Y-79.735
X99.07Y-83.735
X100.07Y-92.735
X100.07Y-124.735
X101.07Y-57.735
X101.07Y-61.735
X101.07Y-65.735
X101.07Y-69.735
X101.07Y-73.735
X101.07Y-77.735
X101.07Y-81.735
X101.07Y-85.735
X102.07Y-94.735
X102.07Y-98.735
X103.07Y-55.735
X103.07Y-59.735
X103.07Y-63.735
X103.07Y-67.735
X103.07Y-71.735
X103.07Y-75.735
X103.07Y-79.735
X103.07Y-83.735
X104.07Y-92.735
X104.07Y-96.735
X104.07Y-100.735
X104.07Y-104.735
X104.07Y-108.735
X104.07Y-124.735
X105.07Y-57.735
X105.07Y-61.735
X105.07Y-65.735
X105.07Y-69.735
X105.07Y-73.735
X105.07Y-77.735
X105.07Y-81.735
X105.07Y-85.735
X106.07Y-94.735
X106.07Y-98.735
X106.07Y-102.735
X106.07Y-106.735
X106.07Y-110.735
X106.37Y-121.735
X106.47Y-88.635
X107.07Y-55.735
X107.07Y-59.735
X107.07Y-63.735
X107.07Y-67.735
X107.07Y-71.735
X107.07Y-75.735
X107.07Y-79.735
X107.07Y-83.735
X107.67Y-121.735
X108.07Y-92.735
X108.07Y-96.735
X108.07Y-100.735
X108.07Y-104.735
X108.07Y-108.735
X108.07Y-124.735
X108.87Y-121.735
X109.07Y-57.735
X109.07Y-61.735
X109.07Y-65.735
X109.07Y-69.735
X109.07Y-73.735
X109.07Y-77.735
X109.07Y-81.735
X109.07Y-85.735
X110.07Y-94.735
X110.07Y-98.735
X110.07Y-102.735
X110.07Y-106.735
X110.07Y-110.735
X110.07Y-122.735
X110.17Y-121.735
X111.07Y-71.735
X111.07Y-75.735
X111.07Y-79.735
X111.07Y-83.735
X111.77Y-88.535
X112.07Y-104.735
X112.07Y-108.735
X112.07Y-112.735
X112.07Y-116.735
X112.07Y-124.735
X112.77Y-90.135
X112.77Y-95.835
X112.77Y-99.535
X112.97Y-92.635
X113.07Y-57.735
X113.07Y-61.735
X113.07Y-73.735
X113.07Y-77.735
X113.07Y-81.735
X113.07Y-85.735
X113.37Y-65.335
X113.37Y-66.535
X113.97Y-51.135
X114.07Y-106.735
X114.07Y-110.735
X114.07Y-114.735
X114.07Y-122.735
X114.17Y-68.735
X115.07Y-55.735
X115.07Y-59.735
X115.07Y-63.735
X115.07Y-75.735
X115.07Y-79.735
X115.17Y-95.835
X115.27Y-68.735
X115.37Y-92.635
X115.57Y-101.735
X115.67Y-88.535
X116.07Y-104.735
X116.07Y-108.735
X116.07Y-112.735
X116.07Y-116.735
X116.07Y-124.735
X116.97Y-90.235
X117.07Y-49.735
X117.07Y-53.735
X117.07Y-57.735
X117.07Y-77.735
X117.07Y-81.735
X117.07Y-85.735
X117.07Y-94.435
X117.07Y-97.535
X118.07Y-106.735
X118.07Y-110.735
X118.07Y-114.735
X118.07Y-122.735
X118.57Y-92.635
X118.67Y-88.535
X118.87Y-95.935
X118.97Y-101.735
X119.47Y-69.835
X119.57Y-81.835
X119.57Y-87.335
X120.07Y-104.735
X120.07Y-108.735
X120.07Y-112.735
X120.07Y-124.735
X120.27Y-94.435
X120.27Y-97.535
X120.37Y-101.635
X121.07Y-49.735
X121.07Y-53.735
X121.07Y-57.735
X121.07Y-61.735
X121.07Y-65.735
X121.07Y-69.835
X121.07Y-73.735
X121.07Y-77.735
X121.07Y-81.735
X121.07Y-85.735
X121.07Y-89.735
X121.57Y-92.435
X121.57Y-101.635
X122.07Y-122.735
X122.57Y-102.635
X122.67Y-92.435
X123.07Y-71.735
X123.07Y-75.735
X123.07Y-79.735
X123.07Y-87.735
X123.57Y-101.635
X124.07Y-120.735
X124.07Y-124.735
X124.37Y-80.735
X124.37Y-81.635
X124.87Y-85.435
X125.07Y-49.735
X125.07Y-53.735
X125.07Y-57.735
X125.07Y-61.735
X125.07Y-65.735
X125.57Y-70.335
X125.57Y-98.035
X126.07Y-106.735
X126.07Y-110.735
X126.07Y-114.735
X126.07Y-118.735
X126.07Y-122.735
X126.77Y-70.335
X126.97Y-98.035
X127.07Y-55.735
X127.07Y-67.735
X127.07Y-79.735
X127.07Y-87.735
X127.07Y-91.735
X127.07Y-95.735
X128.07Y-104.735
X128.07Y-108.735
X128.07Y-112.735
X128.07Y-116.735
X128.07Y-120.735
X129.07Y-53.735
X129.07Y-57.735
X129.07Y-61.735
X129.07Y-65.735
X129.07Y-69.735
X129.07Y-73.735
X129.07Y-77.735
X129.07Y-81.735
X129.07Y-85.735
X129.07Y-89.735
X129.07Y-93.735
X129.07Y-97.735
X130.07Y-102.735
X130.07Y-106.735
X130.07Y-110.735
X130.07Y-114.735
X130.07Y-118.735
T4
X66.97Y-49.885
X66.97Y-52.425
X69.51Y-49.885
X69.51Y-52.425
X72.05Y-49.885
X72.05Y-52.425
X74.59Y-49.885
X74.59Y-52.425
X77.13Y-49.885
X77.13Y-52.425
X79.67Y-49.885
X79.67Y-52.425
X82.21Y-49.885
X82.21Y-52.425
X84.75Y-49.885
X84.75Y-52.425
X87.29Y-49.885
X87.29Y-52.425
X87.33Y-113.195
X87.33Y-115.735
X89.83Y-49.885
X89.83Y-52.425
X89.87Y-113.195
X89.87Y-115.735
X92.37Y-49.885
X92.37Y-52.425
X92.41Y-113.195
X92.41Y-115.735
X94.91Y-49.885
X94.91Y-52.425
X94.95Y-113.195
X94.95Y-115.735
X97.45Y-49.885
X97.45Y-52.425
X97.49Y-113.195
X97.49Y-115.735
X99.99Y-49.885
X99.99Y-52.425
X100.03Y-113.195
X100.03Y-115.735
X102.53Y-49.885
X102.53Y-52.425
X102.57Y-113.195
X102.57Y-115.735
X105.07Y-49.885
X105.07Y-52.425
X105.11Y-113.195
X105.11Y-115.735
X107.61Y-49.885
X107.61Y-52.425
X107.65Y-113.195
X107.65Y-115.735
X110.15Y-49.885
X110.15Y-52.425
X110.19Y-113.195
X110.19Y-115.735
X112.69Y-49.885
X112.69Y-52.425
X115.23Y-49.885
X115.23Y-52.425
T3
X53.69Y-56.925G85X53.09Y-56.925
G05
X53.69Y-65.565G85X53.09Y-65.565
G05
X58.12Y-56.925G85X57.02Y-56.925
G05
X58.12Y-65.565G85X57.02Y-65.565
G05
M30
