%TF.GenerationSoftware,KiCad,Pcbnew,8.0.6*%
%TF.CreationDate,2024-11-27T19:30:55+03:00*%
%TF.ProjectId,OBCv1,4f424376-312e-46b6-9963-61645f706362,rev?*%
%TF.SameCoordinates,Original*%
%TF.FileFunction,Soldermask,Top*%
%TF.FilePolarity,Negative*%
%FSLAX46Y46*%
G04 Gerber Fmt 4.6, Leading zero omitted, Abs format (unit mm)*
G04 Created by KiCad (PCBNEW 8.0.6) date 2024-11-27 19:30:55*
%MOMM*%
%LPD*%
G01*
G04 APERTURE LIST*
G04 Aperture macros list*
%AMRoundRect*
0 Rectangle with rounded corners*
0 $1 Rounding radius*
0 $2 $3 $4 $5 $6 $7 $8 $9 X,Y pos of 4 corners*
0 Add a 4 corners polygon primitive as box body*
4,1,4,$2,$3,$4,$5,$6,$7,$8,$9,$2,$3,0*
0 Add four circle primitives for the rounded corners*
1,1,$1+$1,$2,$3*
1,1,$1+$1,$4,$5*
1,1,$1+$1,$6,$7*
1,1,$1+$1,$8,$9*
0 Add four rect primitives between the rounded corners*
20,1,$1+$1,$2,$3,$4,$5,0*
20,1,$1+$1,$4,$5,$6,$7,0*
20,1,$1+$1,$6,$7,$8,$9,0*
20,1,$1+$1,$8,$9,$2,$3,0*%
G04 Aperture macros list end*
%ADD10RoundRect,0.250000X0.250000X0.475000X-0.250000X0.475000X-0.250000X-0.475000X0.250000X-0.475000X0*%
%ADD11C,0.752000*%
%ADD12RoundRect,0.051000X-0.575000X0.150000X-0.575000X-0.150000X0.575000X-0.150000X0.575000X0.150000X0*%
%ADD13O,2.202000X1.102000*%
%ADD14O,1.702000X1.102000*%
%ADD15R,1.700000X1.700000*%
%ADD16O,1.700000X1.700000*%
%ADD17RoundRect,0.271250X-0.379750X-0.479750X0.379750X-0.479750X0.379750X0.479750X-0.379750X0.479750X0*%
%ADD18RoundRect,0.250000X-0.250000X-0.475000X0.250000X-0.475000X0.250000X0.475000X-0.250000X0.475000X0*%
%ADD19R,1.550000X1.000000*%
%ADD20C,3.200000*%
%ADD21RoundRect,0.150000X-0.587500X-0.150000X0.587500X-0.150000X0.587500X0.150000X-0.587500X0.150000X0*%
%ADD22RoundRect,0.250000X-0.450000X0.262500X-0.450000X-0.262500X0.450000X-0.262500X0.450000X0.262500X0*%
%ADD23RoundRect,0.218750X0.256250X-0.218750X0.256250X0.218750X-0.256250X0.218750X-0.256250X-0.218750X0*%
%ADD24C,0.999997*%
%ADD25RoundRect,0.102000X0.650000X-0.350000X0.650000X0.350000X-0.650000X0.350000X-0.650000X-0.350000X0*%
%ADD26RoundRect,0.102000X0.825500X-0.723900X0.825500X0.723900X-0.825500X0.723900X-0.825500X-0.723900X0*%
%ADD27RoundRect,0.102000X1.219200X-0.723900X1.219200X0.723900X-1.219200X0.723900X-1.219200X-0.723900X0*%
%ADD28RoundRect,0.102000X0.825500X-0.927100X0.825500X0.927100X-0.825500X0.927100X-0.825500X-0.927100X0*%
%ADD29RoundRect,0.250000X-0.600000X0.600000X-0.600000X-0.600000X0.600000X-0.600000X0.600000X0.600000X0*%
%ADD30C,1.700000*%
%ADD31RoundRect,0.250000X0.450000X-0.350000X0.450000X0.350000X-0.450000X0.350000X-0.450000X-0.350000X0*%
%ADD32RoundRect,0.250000X-0.475000X0.250000X-0.475000X-0.250000X0.475000X-0.250000X0.475000X0.250000X0*%
%ADD33RoundRect,0.088000X-0.088000X0.363000X-0.088000X-0.363000X0.088000X-0.363000X0.088000X0.363000X0*%
%ADD34RoundRect,0.088000X-0.363000X0.088000X-0.363000X-0.088000X0.363000X-0.088000X0.363000X0.088000X0*%
%ADD35RoundRect,0.051000X-1.675000X1.675000X-1.675000X-1.675000X1.675000X-1.675000X1.675000X1.675000X0*%
%ADD36RoundRect,0.250000X-0.450000X0.350000X-0.450000X-0.350000X0.450000X-0.350000X0.450000X0.350000X0*%
%ADD37RoundRect,0.275500X0.275500X0.500500X-0.275500X0.500500X-0.275500X-0.500500X0.275500X-0.500500X0*%
%ADD38RoundRect,0.250000X-0.350000X-0.450000X0.350000X-0.450000X0.350000X0.450000X-0.350000X0.450000X0*%
%ADD39RoundRect,0.250000X0.350000X0.450000X-0.350000X0.450000X-0.350000X-0.450000X0.350000X-0.450000X0*%
%ADD40R,1.500000X2.000000*%
%ADD41RoundRect,0.051000X0.450000X-0.750000X0.450000X0.750000X-0.450000X0.750000X-0.450000X-0.750000X0*%
%ADD42RoundRect,0.051000X0.750000X0.450000X-0.750000X0.450000X-0.750000X-0.450000X0.750000X-0.450000X0*%
%ADD43C,0.702000*%
%ADD44RoundRect,0.051000X1.900000X-1.900000X1.900000X1.900000X-1.900000X1.900000X-1.900000X-1.900000X0*%
%ADD45RoundRect,0.244250X0.244250X0.281750X-0.244250X0.281750X-0.244250X-0.281750X0.244250X-0.281750X0*%
%ADD46RoundRect,0.250000X0.450000X-0.262500X0.450000X0.262500X-0.450000X0.262500X-0.450000X-0.262500X0*%
%ADD47RoundRect,0.218750X-0.256250X0.218750X-0.256250X-0.218750X0.256250X-0.218750X0.256250X0.218750X0*%
G04 APERTURE END LIST*
D10*
%TO.C,C5*%
X64520259Y-110235491D03*
X62620259Y-110235491D03*
%TD*%
D11*
%TO.C,J2*%
X57070259Y-58355491D03*
X57070259Y-64135491D03*
D12*
X58135259Y-57895491D03*
X58135259Y-58695491D03*
X58135259Y-59995491D03*
X58135259Y-60995491D03*
X58135259Y-61495491D03*
X58135259Y-62495491D03*
X58135259Y-63795491D03*
X58135259Y-64595491D03*
X58135259Y-64295491D03*
X58135259Y-63495491D03*
X58135259Y-62995491D03*
X58135259Y-61995491D03*
X58135259Y-60495491D03*
X58135259Y-59495491D03*
X58135259Y-58995491D03*
X58135259Y-58195491D03*
D13*
X57570259Y-56925491D03*
D14*
X53390259Y-56925491D03*
D13*
X57570259Y-65565491D03*
D14*
X53390259Y-65565491D03*
%TD*%
D15*
%TO.C,J1*%
X66970259Y-49885491D03*
D16*
X66970259Y-52425491D03*
X69510259Y-49885491D03*
X69510259Y-52425491D03*
X72050259Y-49885491D03*
X72050259Y-52425491D03*
X74590259Y-49885491D03*
X74590259Y-52425491D03*
X77130259Y-49885491D03*
X77130259Y-52425491D03*
X79670259Y-49885491D03*
X79670259Y-52425491D03*
X82210259Y-49885491D03*
X82210259Y-52425491D03*
X84750259Y-49885491D03*
X84750259Y-52425491D03*
X87290259Y-49885491D03*
X87290259Y-52425491D03*
X89830259Y-49885491D03*
X89830259Y-52425491D03*
X92370259Y-49885491D03*
X92370259Y-52425491D03*
X94910259Y-49885491D03*
X94910259Y-52425491D03*
X97450259Y-49885491D03*
X97450259Y-52425491D03*
X99990259Y-49885491D03*
X99990259Y-52425491D03*
X102530259Y-49885491D03*
X102530259Y-52425491D03*
X105070259Y-49885491D03*
X105070259Y-52425491D03*
X107610259Y-49885491D03*
X107610259Y-52425491D03*
X110150259Y-49885491D03*
X110150259Y-52425491D03*
X112690259Y-49885491D03*
X112690259Y-52425491D03*
X115230259Y-49885491D03*
X115230259Y-52425491D03*
%TD*%
D17*
%TO.C,R3*%
X60470259Y-68235491D03*
X62470259Y-68235491D03*
%TD*%
D18*
%TO.C,C4*%
X65420259Y-70605491D03*
X67320259Y-70605491D03*
%TD*%
D19*
%TO.C,S1*%
X66195259Y-124835491D03*
X66195259Y-121635491D03*
X60945259Y-121635491D03*
X60945259Y-124835491D03*
%TD*%
D20*
%TO.C,H4*%
X128089824Y-49732000D03*
%TD*%
D10*
%TO.C,C7*%
X64520259Y-108235491D03*
X62620259Y-108235491D03*
%TD*%
D21*
%TO.C,Q1*%
X76870259Y-79435491D03*
X76870259Y-81335491D03*
X78745259Y-80385491D03*
%TD*%
D22*
%TO.C,R2*%
X64170259Y-62522991D03*
X64170259Y-64347991D03*
%TD*%
D23*
%TO.C,D3*%
X60970259Y-63622991D03*
X60970259Y-62047991D03*
%TD*%
D24*
%TO.C,MICRO_SD1*%
X127325859Y-72639291D03*
X127325859Y-64663691D03*
D25*
X116621459Y-65405691D03*
X116621459Y-66505691D03*
X116621459Y-67605691D03*
X116621459Y-68705691D03*
X116621459Y-69805691D03*
X116621459Y-70905691D03*
X116621459Y-72005691D03*
X116621459Y-73105691D03*
X116621459Y-74205691D03*
D26*
X117395259Y-75624091D03*
D27*
X127095259Y-75624091D03*
X127095259Y-59799291D03*
D28*
X117395259Y-60574291D03*
%TD*%
D29*
%TO.C,J3*%
X110190259Y-113195491D03*
D30*
X110190259Y-115735491D03*
X107650259Y-113195491D03*
X107650259Y-115735491D03*
X105110259Y-113195491D03*
X105110259Y-115735491D03*
X102570259Y-113195491D03*
X102570259Y-115735491D03*
X100030259Y-113195491D03*
X100030259Y-115735491D03*
X97490259Y-113195491D03*
X97490259Y-115735491D03*
X94950259Y-113195491D03*
X94950259Y-115735491D03*
X92410259Y-113195491D03*
X92410259Y-115735491D03*
X89870259Y-113195491D03*
X89870259Y-115735491D03*
X87330259Y-113195491D03*
X87330259Y-115735491D03*
%TD*%
D31*
%TO.C,R7*%
X74370259Y-81235491D03*
X74370259Y-79235491D03*
%TD*%
D32*
%TO.C,C6*%
X78870259Y-83585491D03*
X78870259Y-85485491D03*
%TD*%
D10*
%TO.C,C9*%
X60520259Y-108235491D03*
X58620259Y-108235491D03*
%TD*%
D33*
%TO.C,U2*%
X68470259Y-75165491D03*
X67970259Y-75165491D03*
X67470259Y-75165491D03*
X66970259Y-75165491D03*
X66470259Y-75165491D03*
X65970259Y-75165491D03*
X65470259Y-75165491D03*
D34*
X64520259Y-76115491D03*
X64520259Y-76615491D03*
X64520259Y-77115491D03*
X64520259Y-77615491D03*
X64520259Y-78115491D03*
X64520259Y-78615491D03*
X64520259Y-79115491D03*
D33*
X65470259Y-80065491D03*
X65970259Y-80065491D03*
X66470259Y-80065491D03*
X66970259Y-80065491D03*
X67470259Y-80065491D03*
X67970259Y-80065491D03*
X68470259Y-80065491D03*
D34*
X69420259Y-79115491D03*
X69420259Y-78615491D03*
X69420259Y-78115491D03*
X69420259Y-77615491D03*
X69420259Y-77115491D03*
X69420259Y-76615491D03*
X69420259Y-76115491D03*
D35*
X66970259Y-77615491D03*
%TD*%
D36*
%TO.C,R9*%
X80970259Y-83435491D03*
X80970259Y-85435491D03*
%TD*%
D37*
%TO.C,C8*%
X60520259Y-106235491D03*
D10*
X58620259Y-106235491D03*
%TD*%
D38*
%TO.C,R4*%
X64470259Y-68235491D03*
X66470259Y-68235491D03*
%TD*%
D39*
%TO.C,R8*%
X64570259Y-106235491D03*
X62570259Y-106235491D03*
%TD*%
D20*
%TO.C,H1*%
X54050000Y-123750000D03*
%TD*%
D18*
%TO.C,C2*%
X125620259Y-81235491D03*
X127520259Y-81235491D03*
%TD*%
%TO.C,C3*%
X65420259Y-72735491D03*
X67320259Y-72735491D03*
%TD*%
D40*
%TO.C,U3*%
X129570259Y-83735491D03*
X127570259Y-83735491D03*
X125570259Y-83735491D03*
X123570259Y-83735491D03*
X121570259Y-83735491D03*
X119570259Y-83735491D03*
X117570259Y-83735491D03*
X115570259Y-83735491D03*
X115570259Y-99735491D03*
X117570259Y-99735491D03*
X119570259Y-99735491D03*
X121570259Y-99735491D03*
X123570259Y-99735491D03*
X125570259Y-99735491D03*
X127570259Y-99735491D03*
X129570259Y-99735491D03*
%TD*%
D36*
%TO.C,R6*%
X74370259Y-75435491D03*
X74370259Y-77435491D03*
%TD*%
D41*
%TO.C,U1*%
X58810259Y-103125491D03*
X60080259Y-103125491D03*
X61350259Y-103125491D03*
X62620259Y-103125491D03*
X63890259Y-103125491D03*
X65160259Y-103125491D03*
X66430259Y-103125491D03*
X67700259Y-103125491D03*
X68970259Y-103125491D03*
X70240259Y-103125491D03*
X71510259Y-103125491D03*
X72780259Y-103125491D03*
X74050259Y-103125491D03*
X75320259Y-103125491D03*
D42*
X76570259Y-100085491D03*
X76570259Y-98815491D03*
X76570259Y-97545491D03*
X76570259Y-96275491D03*
X76570259Y-95005491D03*
X76570259Y-93735491D03*
X76570259Y-92465491D03*
X76570259Y-91195491D03*
X76570259Y-89925491D03*
X76570259Y-88655491D03*
D41*
X75320259Y-85625491D03*
X74050259Y-85625491D03*
X72780259Y-85625491D03*
X71510259Y-85625491D03*
X70240259Y-85625491D03*
X68970259Y-85625491D03*
X67700259Y-85625491D03*
X66430259Y-85625491D03*
X65160259Y-85625491D03*
X63890259Y-85625491D03*
X62620259Y-85625491D03*
X61350259Y-85625491D03*
X60080259Y-85625491D03*
X58810259Y-85625491D03*
D43*
X65830259Y-97275491D03*
X67230259Y-97275491D03*
X65130259Y-96575491D03*
X66530259Y-96575491D03*
X67930259Y-96575491D03*
X65830259Y-95900491D03*
X67230259Y-95900491D03*
D44*
X66530259Y-95875491D03*
D43*
X65130259Y-95175491D03*
X66530259Y-95175491D03*
X67930259Y-95175491D03*
X65830259Y-94475491D03*
X67230259Y-94475491D03*
%TD*%
D45*
%TO.C,D1*%
X62057759Y-66335491D03*
X60482759Y-66335491D03*
%TD*%
D20*
%TO.C,H2*%
X128089824Y-123749705D03*
%TD*%
%TO.C,H3*%
X54051388Y-49710258D03*
%TD*%
D36*
%TO.C,R5*%
X62470259Y-75165491D03*
X62470259Y-77165491D03*
%TD*%
D21*
%TO.C,Q2*%
X76832759Y-73585491D03*
X76832759Y-75485491D03*
X78707759Y-74535491D03*
%TD*%
D10*
%TO.C,C1*%
X58620259Y-68235491D03*
X56720259Y-68235491D03*
%TD*%
D46*
%TO.C,R1*%
X64170259Y-60847991D03*
X64170259Y-59022991D03*
%TD*%
D19*
%TO.C,S2*%
X75695259Y-124835491D03*
X75695259Y-121635491D03*
X70445259Y-121635491D03*
X70445259Y-124835491D03*
%TD*%
D47*
%TO.C,D2*%
X60970259Y-58847991D03*
X60970259Y-60422991D03*
%TD*%
M02*
