%TF.GenerationSoftware,KiCad,Pcbnew,8.0.6*%
%TF.CreationDate,2024-11-27T19:30:55+03:00*%
%TF.ProjectId,OBCv1,4f424376-312e-46b6-9963-61645f706362,rev?*%
%TF.SameCoordinates,Original*%
%TF.FileFunction,Legend,Bot*%
%TF.FilePolarity,Positive*%
%FSLAX46Y46*%
G04 Gerber Fmt 4.6, Leading zero omitted, Abs format (unit mm)*
G04 Created by KiCad (PCBNEW 8.0.6) date 2024-11-27 19:30:55*
%MOMM*%
%LPD*%
G01*
G04 APERTURE LIST*
G04 Aperture macros list*
%AMRoundRect*
0 Rectangle with rounded corners*
0 $1 Rounding radius*
0 $2 $3 $4 $5 $6 $7 $8 $9 X,Y pos of 4 corners*
0 Add a 4 corners polygon primitive as box body*
4,1,4,$2,$3,$4,$5,$6,$7,$8,$9,$2,$3,0*
0 Add four circle primitives for the rounded corners*
1,1,$1+$1,$2,$3*
1,1,$1+$1,$4,$5*
1,1,$1+$1,$6,$7*
1,1,$1+$1,$8,$9*
0 Add four rect primitives between the rounded corners*
20,1,$1+$1,$2,$3,$4,$5,0*
20,1,$1+$1,$4,$5,$6,$7,0*
20,1,$1+$1,$6,$7,$8,$9,0*
20,1,$1+$1,$8,$9,$2,$3,0*%
G04 Aperture macros list end*
%ADD10C,0.000000*%
%ADD11C,0.752000*%
%ADD12O,2.202000X1.102000*%
%ADD13O,1.702000X1.102000*%
%ADD14R,1.700000X1.700000*%
%ADD15O,1.700000X1.700000*%
%ADD16C,3.200000*%
%ADD17C,0.999997*%
%ADD18RoundRect,0.250000X-0.600000X0.600000X-0.600000X-0.600000X0.600000X-0.600000X0.600000X0.600000X0*%
%ADD19C,1.700000*%
G04 APERTURE END LIST*
D10*
%TO.C,G\u002A\u002A\u002A*%
G36*
X75893962Y-97293140D02*
G01*
X76088753Y-97418155D01*
X76206344Y-97628774D01*
X76236310Y-97874826D01*
X76168225Y-98106138D01*
X75991663Y-98272541D01*
X75722253Y-98339302D01*
X75471417Y-98268005D01*
X75294250Y-98072525D01*
X75227115Y-97776456D01*
X75227561Y-97757984D01*
X75314275Y-97521148D01*
X75516737Y-97346351D01*
X75785024Y-97278177D01*
X75893962Y-97293140D01*
G37*
G36*
X95782813Y-97280204D02*
G01*
X96029840Y-97376199D01*
X96219130Y-97575988D01*
X96294673Y-97824185D01*
X96240618Y-98007212D01*
X96070842Y-98206459D01*
X96061837Y-98213468D01*
X95873046Y-98333104D01*
X95727182Y-98382525D01*
X95580840Y-98326966D01*
X95399876Y-98170767D01*
X95251710Y-97972555D01*
X95190325Y-97791737D01*
X95195112Y-97737854D01*
X95301569Y-97518954D01*
X95503640Y-97347490D01*
X95742499Y-97278177D01*
X95782813Y-97280204D01*
G37*
G36*
X76740102Y-99168311D02*
G01*
X76746335Y-99247938D01*
X76740383Y-99414191D01*
X76660798Y-99477080D01*
X76464015Y-99486872D01*
X76161563Y-99486872D01*
X76161563Y-101138012D01*
X76161563Y-102789151D01*
X76437650Y-102815771D01*
X76446231Y-102816610D01*
X76625611Y-102852745D01*
X76707577Y-102949277D01*
X76740102Y-103160953D01*
X76766468Y-103479515D01*
X75736814Y-103479515D01*
X74707160Y-103479515D01*
X74733525Y-103160953D01*
X74734237Y-103152437D01*
X74767603Y-102944942D01*
X74851763Y-102850995D01*
X75034425Y-102815887D01*
X75308959Y-102789383D01*
X75331749Y-100819566D01*
X75354539Y-98849749D01*
X76034138Y-98849749D01*
X76713737Y-98849749D01*
X76740102Y-99168311D01*
G37*
G36*
X96061061Y-98825076D02*
G01*
X96761897Y-98849749D01*
X96761897Y-99147073D01*
X96761692Y-99192560D01*
X96741418Y-99365509D01*
X96652095Y-99441177D01*
X96443335Y-99470763D01*
X96124773Y-99497128D01*
X96124773Y-101148522D01*
X96124773Y-102799916D01*
X96330200Y-102799916D01*
X96590210Y-102827383D01*
X96754575Y-102933539D01*
X96804372Y-103134646D01*
X96789253Y-103303964D01*
X96745188Y-103425433D01*
X96654444Y-103445503D01*
X96425950Y-103459866D01*
X96097264Y-103465384D01*
X95704552Y-103460828D01*
X94723101Y-103437040D01*
X94695061Y-103191408D01*
X94714020Y-102973096D01*
X94851923Y-102842750D01*
X95126613Y-102801217D01*
X95360225Y-102799916D01*
X95360225Y-100800159D01*
X95360225Y-98800403D01*
X96061061Y-98825076D01*
G37*
G36*
X73039656Y-97766515D02*
G01*
X73358218Y-97806464D01*
X73358218Y-98301741D01*
X73358218Y-98797018D01*
X73676780Y-98823383D01*
X73725498Y-98827607D01*
X73909003Y-98861717D01*
X73982155Y-98951140D01*
X73995342Y-99147073D01*
X73995230Y-99181427D01*
X73976333Y-99361445D01*
X73889374Y-99440173D01*
X73683461Y-99470365D01*
X73371581Y-99496332D01*
X73343662Y-101041937D01*
X73333435Y-101554506D01*
X73320719Y-101976299D01*
X73302965Y-102282430D01*
X73276669Y-102501189D01*
X73238325Y-102660867D01*
X73184430Y-102789751D01*
X73111478Y-102916134D01*
X72892040Y-103177486D01*
X72559304Y-103407486D01*
X72211982Y-103513978D01*
X71795314Y-103542366D01*
X71399104Y-103483266D01*
X71087643Y-103339640D01*
X71004103Y-103274878D01*
X70861395Y-103122734D01*
X70857144Y-102985606D01*
X70981947Y-102816992D01*
X71105236Y-102701508D01*
X71223585Y-102679459D01*
X71403758Y-102757124D01*
X71421800Y-102766334D01*
X71735062Y-102872366D01*
X71999756Y-102831194D01*
X72260405Y-102636551D01*
X72508720Y-102388236D01*
X72508720Y-100937554D01*
X72508720Y-99486872D01*
X71866468Y-99486872D01*
X71224216Y-99486872D01*
X71250582Y-99168311D01*
X71276947Y-98849749D01*
X71892834Y-98824790D01*
X72508720Y-98799831D01*
X72508720Y-98346730D01*
X72528177Y-98035251D01*
X72606848Y-97840360D01*
X72769204Y-97759673D01*
X73039656Y-97766515D01*
G37*
G36*
X102564731Y-96700126D02*
G01*
X102953335Y-96801342D01*
X103214605Y-96950248D01*
X103457784Y-97227247D01*
X103607069Y-97618797D01*
X103672857Y-98144308D01*
X103702880Y-98798065D01*
X104012656Y-98823907D01*
X104049563Y-98827118D01*
X104235692Y-98862374D01*
X104317595Y-98957825D01*
X104348798Y-99168311D01*
X104375163Y-99486872D01*
X104030236Y-99486872D01*
X103685309Y-99486872D01*
X103685309Y-101143394D01*
X103685309Y-102799916D01*
X103890735Y-102799916D01*
X103935621Y-102800381D01*
X104194751Y-102840083D01*
X104327527Y-102961866D01*
X104364907Y-103191279D01*
X104364907Y-103479515D01*
X103170482Y-103479515D01*
X101976056Y-103479515D01*
X102002421Y-103160953D01*
X102028787Y-102842391D01*
X102474773Y-102816714D01*
X102920760Y-102791037D01*
X102920760Y-101142528D01*
X102920760Y-99494019D01*
X102262399Y-99469208D01*
X101604038Y-99444398D01*
X101604038Y-99147073D01*
X101604038Y-98849749D01*
X102272338Y-98824759D01*
X102940638Y-98799769D01*
X102904125Y-98294986D01*
X102836346Y-97916446D01*
X102666826Y-97587749D01*
X102412060Y-97396601D01*
X102084222Y-97351408D01*
X101695484Y-97460574D01*
X101586618Y-97502594D01*
X101454005Y-97490550D01*
X101316578Y-97354386D01*
X101297875Y-97330812D01*
X101206816Y-97163210D01*
X101244180Y-97038963D01*
X101405122Y-96901145D01*
X101738597Y-96757262D01*
X102142476Y-96687844D01*
X102564731Y-96700126D01*
G37*
G36*
X97663649Y-98835072D02*
G01*
X97761566Y-98848476D01*
X98306624Y-98997413D01*
X98756375Y-99252503D01*
X99082385Y-99598448D01*
X99310392Y-99944289D01*
X99352867Y-99397019D01*
X99395342Y-98849749D01*
X100043153Y-98825128D01*
X100241775Y-98818276D01*
X100493169Y-98817871D01*
X100632762Y-98840996D01*
X100697925Y-98896948D01*
X100726033Y-98995027D01*
X100738327Y-99071657D01*
X100736065Y-99319205D01*
X100631573Y-99449174D01*
X100408511Y-99486872D01*
X100117416Y-99486872D01*
X100117416Y-101143394D01*
X100117416Y-102799916D01*
X100361863Y-102799916D01*
X100613163Y-102855983D01*
X100757225Y-103018855D01*
X100762407Y-103266037D01*
X100762332Y-103266337D01*
X100734957Y-103356058D01*
X100686441Y-103416235D01*
X100587030Y-103452770D01*
X100406974Y-103471561D01*
X100116521Y-103478510D01*
X99685920Y-103479515D01*
X98663012Y-103479515D01*
X98689378Y-103160953D01*
X98690207Y-103151051D01*
X98723647Y-102944301D01*
X98808197Y-102850791D01*
X98991830Y-102815771D01*
X99267917Y-102789151D01*
X99266052Y-101838848D01*
X99257996Y-101367771D01*
X99232282Y-101017682D01*
X99184004Y-100756950D01*
X99108240Y-100545231D01*
X98893358Y-100197841D01*
X98517673Y-99861048D01*
X98046652Y-99647492D01*
X97505208Y-99572296D01*
X97381326Y-99569163D01*
X97275508Y-99532611D01*
X97235403Y-99417320D01*
X97229121Y-99177715D01*
X97229121Y-98783608D01*
X97663649Y-98835072D01*
G37*
G36*
X83174534Y-88125126D02*
G01*
X83212399Y-88267770D01*
X83244216Y-88373235D01*
X83382299Y-88485869D01*
X83481478Y-88543944D01*
X83554900Y-88682731D01*
X83555585Y-88697409D01*
X83617705Y-88886911D01*
X83743220Y-89052239D01*
X83880125Y-89122993D01*
X83910768Y-89127241D01*
X83976947Y-89205277D01*
X83991749Y-89239244D01*
X84095779Y-89241960D01*
X84154650Y-89231208D01*
X84270693Y-89287101D01*
X84317428Y-89331617D01*
X84475261Y-89377842D01*
X84613207Y-89435898D01*
X84710500Y-89616687D01*
X84734929Y-89878696D01*
X84675823Y-90179289D01*
X84625601Y-90341979D01*
X84609990Y-90507036D01*
X84660957Y-90680449D01*
X84788832Y-90930936D01*
X84808607Y-90967353D01*
X84922845Y-91195517D01*
X84971189Y-91373079D01*
X84962715Y-91572055D01*
X84906500Y-91864458D01*
X84843360Y-92102759D01*
X84739389Y-92373651D01*
X84634450Y-92543083D01*
X84481422Y-92647747D01*
X84245673Y-92650019D01*
X84171903Y-92629526D01*
X83906367Y-92515214D01*
X83712340Y-92370921D01*
X83637148Y-92229364D01*
X83628590Y-92173084D01*
X83577526Y-91971708D01*
X83490685Y-91674917D01*
X83379910Y-91324379D01*
X83338592Y-91195660D01*
X83203631Y-90748602D01*
X83079437Y-90302170D01*
X82988544Y-89936283D01*
X82983173Y-89912424D01*
X82906761Y-89608728D01*
X82833497Y-89373051D01*
X82778558Y-89254665D01*
X82712452Y-89098351D01*
X82727261Y-88813175D01*
X82839348Y-88445113D01*
X82842273Y-88437869D01*
X82960009Y-88224182D01*
X83080583Y-88115266D01*
X83174534Y-88125126D01*
G37*
G36*
X85861657Y-100548745D02*
G01*
X85856056Y-100900994D01*
X85857948Y-101388495D01*
X85869530Y-101836206D01*
X85889686Y-102179154D01*
X85910367Y-102401918D01*
X85941800Y-102627446D01*
X85989976Y-102746407D01*
X86074173Y-102796713D01*
X86213671Y-102816278D01*
X86216777Y-102816580D01*
X86394635Y-102852431D01*
X86476551Y-102949033D01*
X86509333Y-103160953D01*
X86535698Y-103479515D01*
X85512791Y-103479515D01*
X85511354Y-103479515D01*
X85081189Y-103478501D01*
X84791089Y-103471528D01*
X84611302Y-103452695D01*
X84512076Y-103416102D01*
X84463661Y-103355849D01*
X84436304Y-103266037D01*
X84438567Y-103027028D01*
X84577598Y-102860459D01*
X84836847Y-102799916D01*
X85081295Y-102799916D01*
X85081295Y-101971094D01*
X85079200Y-101778514D01*
X85063255Y-101392764D01*
X85035044Y-101066196D01*
X84998662Y-100854146D01*
X84789712Y-100386063D01*
X84483358Y-100039046D01*
X85081295Y-100039046D01*
X85123770Y-100081521D01*
X85166245Y-100039046D01*
X85123770Y-99996571D01*
X85081295Y-100039046D01*
X84483358Y-100039046D01*
X84445893Y-99996608D01*
X83989950Y-99724647D01*
X83437281Y-99582718D01*
X83000024Y-99529347D01*
X83000024Y-99189548D01*
X83000024Y-98849749D01*
X83428048Y-98860096D01*
X83945515Y-98948716D01*
X84432396Y-99193315D01*
X84843250Y-99581069D01*
X85123770Y-99931186D01*
X85166245Y-99390467D01*
X85208720Y-98849749D01*
X85845844Y-98849749D01*
X86482967Y-98849749D01*
X86482967Y-99147073D01*
X86467272Y-99347797D01*
X86385410Y-99442247D01*
X86185643Y-99486872D01*
X85888319Y-99529347D01*
X85874988Y-100039046D01*
X85861657Y-100548745D01*
G37*
G36*
X93904482Y-100196334D02*
G01*
X93809488Y-100959867D01*
X93581021Y-101654684D01*
X93229194Y-102264870D01*
X92764121Y-102774507D01*
X92195914Y-103167680D01*
X91534687Y-103428470D01*
X90935295Y-103539622D01*
X90200960Y-103536238D01*
X89512422Y-103378774D01*
X88886016Y-103075630D01*
X88338074Y-102635202D01*
X87884931Y-102065889D01*
X87542921Y-101376090D01*
X87491119Y-101230472D01*
X87425920Y-100989673D01*
X87390705Y-100729766D01*
X87380041Y-100400671D01*
X87386061Y-100081521D01*
X88275421Y-100081521D01*
X88279264Y-100387553D01*
X88304036Y-100749245D01*
X88358376Y-101027787D01*
X88449875Y-101275135D01*
X88708435Y-101725253D01*
X89108441Y-102174522D01*
X89575989Y-102496118D01*
X90039769Y-102664649D01*
X90609363Y-102739941D01*
X91172911Y-102691559D01*
X91675825Y-102518910D01*
X91726369Y-102491117D01*
X92067604Y-102231285D01*
X92399735Y-101873931D01*
X92675540Y-101476388D01*
X92847800Y-101095988D01*
X92872487Y-101005492D01*
X92953283Y-100518950D01*
X92976105Y-99982529D01*
X92940953Y-99466090D01*
X92847825Y-99039493D01*
X92616003Y-98563485D01*
X92235084Y-98109740D01*
X91755212Y-97757369D01*
X91208260Y-97529205D01*
X90626101Y-97448076D01*
X90455027Y-97453599D01*
X89843431Y-97573106D01*
X89305554Y-97841480D01*
X88856314Y-98249282D01*
X88510628Y-98787069D01*
X88459313Y-98896357D01*
X88363360Y-99139130D01*
X88307683Y-99379301D01*
X88281848Y-99674291D01*
X88275421Y-100081521D01*
X87386061Y-100081521D01*
X87388498Y-99952308D01*
X87389289Y-99926918D01*
X87407034Y-99503301D01*
X87435869Y-99195660D01*
X87486252Y-98952663D01*
X87568642Y-98722978D01*
X87693497Y-98455273D01*
X88080794Y-97848054D01*
X88600006Y-97337634D01*
X89228958Y-96953335D01*
X89355542Y-96897235D01*
X89667462Y-96791381D01*
X90014043Y-96729400D01*
X90462528Y-96697339D01*
X90580459Y-96693202D01*
X91141747Y-96705247D01*
X91607859Y-96786138D01*
X92035071Y-96950231D01*
X92479660Y-97211881D01*
X92517452Y-97237463D01*
X93072069Y-97714467D01*
X93486964Y-98287765D01*
X93761121Y-98955558D01*
X93893524Y-99716045D01*
X93899604Y-99982529D01*
X93904482Y-100196334D01*
G37*
G36*
X81938151Y-103479515D02*
G01*
X81555877Y-103479515D01*
X81173603Y-103479515D01*
X81173603Y-103123051D01*
X81173603Y-102766587D01*
X80886917Y-103044454D01*
X80822234Y-103103093D01*
X80545570Y-103303508D01*
X80271031Y-103444839D01*
X79999186Y-103513740D01*
X79524154Y-103534319D01*
X79037294Y-103459826D01*
X78611505Y-103296766D01*
X78423998Y-103173770D01*
X78074873Y-102846106D01*
X77786908Y-102452552D01*
X77609584Y-102054459D01*
X77571825Y-101879830D01*
X77529630Y-101451106D01*
X77529674Y-101207389D01*
X78303831Y-101207389D01*
X78366281Y-101682015D01*
X78531292Y-102118886D01*
X78797637Y-102484533D01*
X79164088Y-102745486D01*
X79539432Y-102866095D01*
X79912530Y-102850464D01*
X80327342Y-102693729D01*
X80650672Y-102458941D01*
X80928334Y-102083514D01*
X81102429Y-101624022D01*
X81160281Y-101115424D01*
X81089213Y-100592680D01*
X81015883Y-100392472D01*
X80812587Y-100056535D01*
X80545438Y-99766272D01*
X80253102Y-99560359D01*
X79974245Y-99477469D01*
X79883380Y-99475017D01*
X79521172Y-99483600D01*
X79261306Y-99533184D01*
X79049857Y-99632832D01*
X78744137Y-99891683D01*
X78491531Y-100278753D01*
X78345172Y-100728479D01*
X78303831Y-101207389D01*
X77529674Y-101207389D01*
X77529717Y-100973048D01*
X77570541Y-100517325D01*
X77650555Y-100155609D01*
X77754861Y-99897131D01*
X78063582Y-99424819D01*
X78478960Y-99083738D01*
X78996627Y-98876890D01*
X79612220Y-98807274D01*
X79855761Y-98811495D01*
X80131467Y-98842461D01*
X80357184Y-98919273D01*
X80604797Y-99060252D01*
X80766596Y-99170369D01*
X80937416Y-99310233D01*
X81003703Y-99400052D01*
X81006464Y-99421974D01*
X81088653Y-99486872D01*
X81099568Y-99479141D01*
X81130795Y-99347490D01*
X81154060Y-99062752D01*
X81168588Y-98637724D01*
X81173603Y-98085200D01*
X81173603Y-96683528D01*
X81847477Y-96683528D01*
X81959019Y-96683804D01*
X82259175Y-96691624D01*
X82437160Y-96716718D01*
X82530139Y-96767760D01*
X82575275Y-96853428D01*
X82582391Y-96876951D01*
X82598738Y-97138516D01*
X82478299Y-97304841D01*
X82229751Y-97363127D01*
X81938151Y-97363127D01*
X81938151Y-100421321D01*
X81938151Y-101115424D01*
X81938151Y-103479515D01*
G37*
G36*
X110742400Y-100487449D02*
G01*
X110949800Y-101035612D01*
X111132484Y-101521313D01*
X111281440Y-101920504D01*
X111387655Y-102209133D01*
X111442117Y-102363151D01*
X111450321Y-102388311D01*
X111514147Y-102553265D01*
X111599881Y-102647773D01*
X111756162Y-102704141D01*
X112031630Y-102754672D01*
X112105767Y-102767515D01*
X112272938Y-102818889D01*
X112338723Y-102925085D01*
X112350192Y-103143565D01*
X112350192Y-103479515D01*
X111160894Y-103479515D01*
X109971596Y-103479515D01*
X109971596Y-103148804D01*
X109973556Y-103068073D01*
X110024670Y-102851073D01*
X110170691Y-102743785D01*
X110445768Y-102714966D01*
X110482150Y-102714426D01*
X110584567Y-102695219D01*
X110629172Y-102628155D01*
X110614552Y-102485800D01*
X110539291Y-102240716D01*
X110401977Y-101865468D01*
X110162688Y-101228344D01*
X108827030Y-101228344D01*
X107491371Y-101228344D01*
X107211702Y-101971655D01*
X106932033Y-102714966D01*
X107170619Y-102714966D01*
X107316558Y-102719266D01*
X107540524Y-102770603D01*
X107649392Y-102903866D01*
X107677951Y-103148804D01*
X107677951Y-103479515D01*
X106488653Y-103479515D01*
X105299355Y-103479515D01*
X105299355Y-103143565D01*
X105299849Y-103065481D01*
X105322215Y-102885340D01*
X105412546Y-102800796D01*
X105617917Y-102754334D01*
X105666641Y-102746121D01*
X105884426Y-102707843D01*
X106011708Y-102682933D01*
X106054405Y-102610514D01*
X106151265Y-102396154D01*
X106294075Y-102057781D01*
X106475518Y-101613328D01*
X106688278Y-101080730D01*
X106925039Y-100477920D01*
X106955153Y-100400083D01*
X107848183Y-100400083D01*
X107848550Y-100405315D01*
X107906021Y-100452644D01*
X108074960Y-100483842D01*
X108374750Y-100501014D01*
X108824773Y-100506270D01*
X108911937Y-100506135D01*
X109332107Y-100499322D01*
X109606723Y-100480573D01*
X109756387Y-100447607D01*
X109801697Y-100398145D01*
X109800045Y-100381185D01*
X109758927Y-100224665D01*
X109673813Y-99967136D01*
X109559751Y-99654834D01*
X109416346Y-99277750D01*
X109239836Y-98812567D01*
X109083239Y-98398892D01*
X109052553Y-98318867D01*
X108941900Y-98050414D01*
X108855539Y-97871287D01*
X108810033Y-97816774D01*
X108798769Y-97834626D01*
X108733887Y-97979770D01*
X108629394Y-98238924D01*
X108497901Y-98578219D01*
X108352018Y-98963780D01*
X108204359Y-99361738D01*
X108067534Y-99738218D01*
X107954156Y-100059351D01*
X107876835Y-100291263D01*
X107848183Y-100400083D01*
X106955153Y-100400083D01*
X107178484Y-99822833D01*
X107478554Y-99048885D01*
X107777699Y-98296506D01*
X108025788Y-97696145D01*
X108221884Y-97250004D01*
X108365050Y-96960281D01*
X108454348Y-96829176D01*
X108466472Y-96819441D01*
X108589560Y-96748916D01*
X108761256Y-96709362D01*
X109021771Y-96695425D01*
X109411318Y-96701751D01*
X110183971Y-96726003D01*
X110183971Y-97065802D01*
X110183495Y-97143656D01*
X110163052Y-97323887D01*
X110082098Y-97402610D01*
X109899546Y-97432843D01*
X109800499Y-97445523D01*
X109667125Y-97498835D01*
X109656270Y-97602743D01*
X109656591Y-97603839D01*
X109698335Y-97722464D01*
X109792260Y-97977027D01*
X109930048Y-98345376D01*
X110103379Y-98805358D01*
X110303935Y-99334824D01*
X110523397Y-99911622D01*
X110708435Y-100398145D01*
X110742400Y-100487449D01*
G37*
G36*
X89513436Y-73496914D02*
G01*
X89713961Y-73534011D01*
X89875521Y-73517814D01*
X90060040Y-73451388D01*
X90102196Y-73434417D01*
X90352662Y-73354314D01*
X90549696Y-73321088D01*
X90560387Y-73320869D01*
X90801821Y-73279382D01*
X91113940Y-73184213D01*
X91422609Y-73061207D01*
X91653694Y-72936209D01*
X91894681Y-72834240D01*
X92167488Y-72833002D01*
X92410662Y-72926343D01*
X92579087Y-73096266D01*
X92627646Y-73324771D01*
X92638935Y-73507165D01*
X92715879Y-73691463D01*
X92738691Y-73717854D01*
X92824535Y-73776530D01*
X92945037Y-73758470D01*
X93156459Y-73659608D01*
X93230479Y-73623859D01*
X93473829Y-73529902D01*
X93655301Y-73492224D01*
X93679454Y-73489989D01*
X93847547Y-73405172D01*
X94015767Y-73235606D01*
X94129023Y-73109485D01*
X94346328Y-72967534D01*
X94659433Y-72860209D01*
X95105375Y-72771743D01*
X95376841Y-72690554D01*
X95613980Y-72561606D01*
X95825259Y-72399233D01*
X95635217Y-72196942D01*
X95522536Y-72055404D01*
X95451088Y-71833086D01*
X95543514Y-71643918D01*
X95596682Y-71549622D01*
X95531409Y-71412500D01*
X95494440Y-71367511D01*
X95452790Y-71287539D01*
X95512215Y-71227064D01*
X95700024Y-71142331D01*
X95877298Y-71099335D01*
X96087239Y-71116364D01*
X96176212Y-71137139D01*
X96421032Y-71170350D01*
X96760336Y-71202140D01*
X97149112Y-71227785D01*
X97399491Y-71242507D01*
X97792719Y-71271486D01*
X98121615Y-71302626D01*
X98333469Y-71331319D01*
X98385588Y-71342638D01*
X98641549Y-71420673D01*
X98937501Y-71534822D01*
X99223063Y-71662898D01*
X99447849Y-71782715D01*
X99561477Y-71872086D01*
X99608046Y-71896389D01*
X99785244Y-71913761D01*
X100037118Y-71906381D01*
X100306123Y-71878920D01*
X100534713Y-71836052D01*
X100665342Y-71782450D01*
X100685270Y-71765180D01*
X100830522Y-71713846D01*
X100973026Y-71812201D01*
X101127388Y-72069314D01*
X101296538Y-72332741D01*
X101622735Y-72600250D01*
X101628799Y-72603501D01*
X101943324Y-72864073D01*
X102155718Y-73228134D01*
X102237081Y-73646471D01*
X102260752Y-73887241D01*
X102357553Y-74114714D01*
X102556964Y-74313931D01*
X102888613Y-74524833D01*
X103101020Y-74660021D01*
X103320292Y-74840557D01*
X103434959Y-74990681D01*
X103504877Y-75121199D01*
X103594954Y-75191220D01*
X103642700Y-75222267D01*
X103753502Y-75368695D01*
X103881667Y-75594732D01*
X104001498Y-75828993D01*
X104186059Y-76182135D01*
X104368858Y-76525314D01*
X104403477Y-76589744D01*
X104534185Y-76846673D01*
X104590860Y-77006796D01*
X104582822Y-77112185D01*
X104519389Y-77204913D01*
X104419631Y-77386524D01*
X104349002Y-77716300D01*
X104337280Y-78109761D01*
X104381581Y-78514660D01*
X104479023Y-78878749D01*
X104626721Y-79149779D01*
X104686177Y-79255753D01*
X104633146Y-79374352D01*
X104620037Y-79390313D01*
X104559441Y-79556726D01*
X104534807Y-79792512D01*
X104532699Y-79853058D01*
X104457018Y-80109648D01*
X104289377Y-80244756D01*
X104052499Y-80237417D01*
X104041569Y-80233905D01*
X103954722Y-80216063D01*
X104016272Y-80271638D01*
X104030505Y-80282730D01*
X104063150Y-80360398D01*
X103997398Y-80482927D01*
X103817580Y-80682736D01*
X103710541Y-80801008D01*
X103514930Y-81057706D01*
X103387524Y-81279337D01*
X103240340Y-81510641D01*
X103034043Y-81700652D01*
X102919329Y-81777657D01*
X102671071Y-81959011D01*
X102411061Y-82162060D01*
X102313053Y-82241184D01*
X102023549Y-82461360D01*
X101798675Y-82587605D01*
X101588316Y-82633335D01*
X101342354Y-82611964D01*
X101010672Y-82536908D01*
X100708405Y-82473112D01*
X100387003Y-82434156D01*
X100171069Y-82444035D01*
X99938665Y-82502364D01*
X100523737Y-83157996D01*
X100599951Y-83243709D01*
X101717761Y-84574955D01*
X102740273Y-85933709D01*
X103635259Y-87277303D01*
X104045148Y-87937634D01*
X104353690Y-87881300D01*
X104369436Y-87878379D01*
X104637758Y-87817895D01*
X104858899Y-87751906D01*
X104953876Y-87718461D01*
X105092037Y-87695146D01*
X105160976Y-87757999D01*
X105177069Y-87934531D01*
X105156691Y-88252257D01*
X105141555Y-88532622D01*
X105163664Y-88871921D01*
X105246583Y-89154605D01*
X105246902Y-89155367D01*
X105349780Y-89423233D01*
X105369433Y-89566641D01*
X105298459Y-89613125D01*
X105129456Y-89590217D01*
X105119500Y-89588076D01*
X104946203Y-89568432D01*
X104874606Y-89594427D01*
X104874802Y-89597595D01*
X104905919Y-89712957D01*
X104979826Y-89938472D01*
X105081669Y-90228639D01*
X105203124Y-90599726D01*
X105367485Y-91375408D01*
X105384751Y-91999949D01*
X105386623Y-92067672D01*
X105265739Y-92670282D01*
X105010034Y-93177003D01*
X104624707Y-93581599D01*
X104114960Y-93877834D01*
X103485992Y-94059473D01*
X102743006Y-94120282D01*
X101891201Y-94054023D01*
X101407562Y-93964246D01*
X100633484Y-93763715D01*
X99774328Y-93487244D01*
X98861575Y-93147477D01*
X97926704Y-92757059D01*
X97001195Y-92328633D01*
X96116529Y-91874844D01*
X95304185Y-91408336D01*
X95113058Y-91292404D01*
X94896514Y-91171230D01*
X94765746Y-91124879D01*
X94685005Y-91143357D01*
X94618541Y-91216672D01*
X94548459Y-91333635D01*
X94469397Y-91544063D01*
X94459711Y-91593626D01*
X94419027Y-91807346D01*
X94360528Y-92118556D01*
X94293397Y-92478511D01*
X94230167Y-92803279D01*
X94147980Y-93149738D01*
X94061257Y-93396507D01*
X93954760Y-93584032D01*
X93813246Y-93752759D01*
X93681166Y-93935634D01*
X93516119Y-94248724D01*
X93362381Y-94611766D01*
X93245874Y-94962680D01*
X93192520Y-95239381D01*
X93148741Y-95580210D01*
X93043718Y-95839149D01*
X92868069Y-95988488D01*
X92728284Y-96048221D01*
X92567763Y-96075586D01*
X92371935Y-96044972D01*
X92079638Y-95953677D01*
X91964811Y-95919742D01*
X91646376Y-95862768D01*
X91375833Y-95859355D01*
X91180294Y-95872645D01*
X90670654Y-95796555D01*
X90175733Y-95573029D01*
X89730522Y-95215753D01*
X89518578Y-94984316D01*
X89276149Y-94689460D01*
X89099035Y-94440613D01*
X89045092Y-94356495D01*
X88850443Y-94083038D01*
X88667323Y-93860826D01*
X88578634Y-93750913D01*
X88467135Y-93504967D01*
X88411977Y-93157281D01*
X88402583Y-93066843D01*
X88308439Y-92713174D01*
X88131700Y-92504516D01*
X87868727Y-92436036D01*
X87765121Y-92404613D01*
X87632779Y-92271721D01*
X87620136Y-92245579D01*
X87559787Y-91984556D01*
X87550666Y-91647137D01*
X87590182Y-91307593D01*
X87675745Y-91040192D01*
X87724666Y-90941401D01*
X87749554Y-90833613D01*
X87707710Y-90724648D01*
X87580789Y-90575402D01*
X87350448Y-90346774D01*
X87347585Y-90343982D01*
X87078621Y-90104286D01*
X86810268Y-89901437D01*
X86600213Y-89779086D01*
X86579371Y-89769983D01*
X86316681Y-89607842D01*
X86089089Y-89399037D01*
X86016893Y-89308299D01*
X85940039Y-89173642D01*
X85899305Y-89007539D01*
X85885516Y-88763911D01*
X85889497Y-88396679D01*
X85891120Y-88323131D01*
X87122515Y-88323131D01*
X87125573Y-88771120D01*
X87135816Y-89196907D01*
X87153082Y-89564194D01*
X87177208Y-89836683D01*
X87208030Y-89978076D01*
X87244065Y-90029739D01*
X87398090Y-90125573D01*
X87566553Y-90129572D01*
X87677016Y-90033219D01*
X87687435Y-89948793D01*
X87696470Y-89714978D01*
X87701073Y-89365684D01*
X87700895Y-88930849D01*
X87695587Y-88440410D01*
X87689292Y-88039962D01*
X88155315Y-88039962D01*
X88157187Y-88525115D01*
X88182804Y-88847615D01*
X88231974Y-89004647D01*
X88270787Y-89045868D01*
X88448295Y-89117622D01*
X88632198Y-89021053D01*
X88654644Y-88977042D01*
X88691597Y-88784003D01*
X88717470Y-88487884D01*
X88731660Y-88133028D01*
X88731837Y-88098594D01*
X89083867Y-88098594D01*
X89087630Y-88321280D01*
X89102003Y-88782487D01*
X89123019Y-89214810D01*
X89134149Y-89365684D01*
X89147579Y-89547742D01*
X89178432Y-89816844D01*
X89220974Y-90003100D01*
X89286879Y-90093349D01*
X89392879Y-90127111D01*
X89520781Y-90119128D01*
X89628575Y-90039177D01*
X89639572Y-89953738D01*
X89649294Y-89718519D01*
X89654440Y-89368003D01*
X89654617Y-88932295D01*
X89649433Y-88441498D01*
X89642269Y-88022637D01*
X89631755Y-87599529D01*
X89617358Y-87304451D01*
X89596122Y-87113550D01*
X89565092Y-87002974D01*
X89521312Y-86948870D01*
X89461827Y-86927385D01*
X89309152Y-86933346D01*
X89197122Y-87034849D01*
X89126076Y-87250976D01*
X89090247Y-87599600D01*
X89088148Y-87763774D01*
X89083867Y-88098594D01*
X88731837Y-88098594D01*
X88733563Y-87763774D01*
X88722575Y-87424466D01*
X88698095Y-87159445D01*
X88659518Y-87013052D01*
X88569153Y-86948148D01*
X88384732Y-86928102D01*
X88319227Y-86940046D01*
X88252798Y-86976440D01*
X88210292Y-87062815D01*
X88184863Y-87229143D01*
X88169667Y-87505393D01*
X88157860Y-87921536D01*
X88155315Y-88039962D01*
X87689292Y-88039962D01*
X87672265Y-86956772D01*
X87469497Y-86928102D01*
X87326224Y-86935428D01*
X87194711Y-87013052D01*
X87185398Y-87035118D01*
X87158084Y-87208934D01*
X87138607Y-87505740D01*
X87126805Y-87889239D01*
X87122515Y-88323131D01*
X85891120Y-88323131D01*
X85905952Y-87651077D01*
X86429729Y-86937992D01*
X86600457Y-86711776D01*
X86905728Y-86359580D01*
X87196862Y-86124464D01*
X87516700Y-85983944D01*
X87908084Y-85915539D01*
X88413857Y-85896765D01*
X88518233Y-85896853D01*
X88971528Y-85913249D01*
X89324881Y-85971406D01*
X89616012Y-86091957D01*
X89882639Y-86295539D01*
X90162483Y-86602786D01*
X90493263Y-87034332D01*
X90508796Y-87055386D01*
X90758312Y-87386192D01*
X90978860Y-87665717D01*
X91147036Y-87865074D01*
X91239436Y-87955373D01*
X91335145Y-87968580D01*
X91495231Y-87878861D01*
X91501836Y-87872059D01*
X91551801Y-87797767D01*
X91586434Y-87681506D01*
X91591764Y-87635092D01*
X94600319Y-87635092D01*
X94641898Y-87891080D01*
X94806021Y-88185793D01*
X94928096Y-88384886D01*
X95102346Y-88795895D01*
X95140259Y-88932295D01*
X95230471Y-89256849D01*
X95288890Y-89694092D01*
X95257266Y-89984631D01*
X95076178Y-90409395D01*
X94991528Y-90557501D01*
X94890095Y-90748666D01*
X94850526Y-90844306D01*
X94880078Y-90880362D01*
X95036361Y-90990310D01*
X95305677Y-91153514D01*
X95663882Y-91356690D01*
X96086829Y-91586552D01*
X96550371Y-91829816D01*
X97030361Y-92073198D01*
X97502653Y-92303413D01*
X98322167Y-92679589D01*
X99326971Y-93093922D01*
X100260967Y-93419533D01*
X101157454Y-93668865D01*
X101609602Y-93762824D01*
X102277790Y-93849716D01*
X102914267Y-93875061D01*
X103477229Y-93837828D01*
X103924870Y-93736990D01*
X104148407Y-93638531D01*
X104546285Y-93359518D01*
X104859576Y-93000992D01*
X105045684Y-92605936D01*
X105074225Y-92478741D01*
X105113858Y-91999949D01*
X105082349Y-91433872D01*
X104984234Y-90829036D01*
X104824046Y-90233967D01*
X104735036Y-89970173D01*
X104644072Y-89737265D01*
X104564470Y-89610599D01*
X104474122Y-89558113D01*
X104350924Y-89547742D01*
X104328357Y-89548223D01*
X104071383Y-89588936D01*
X103799630Y-89675167D01*
X103741654Y-89699102D01*
X103551791Y-89772876D01*
X103455798Y-89802592D01*
X103443876Y-89737727D01*
X103448815Y-89545947D01*
X103471247Y-89271655D01*
X103482333Y-88774113D01*
X103393978Y-88315969D01*
X103342101Y-88146912D01*
X103282470Y-87923092D01*
X103282988Y-87814301D01*
X103349505Y-87789491D01*
X103487871Y-87817610D01*
X103715183Y-87874662D01*
X103515085Y-87543142D01*
X103329864Y-87244015D01*
X102812899Y-86465343D01*
X102215135Y-85628501D01*
X101567114Y-84774243D01*
X100899382Y-83943326D01*
X100242484Y-83176505D01*
X100080529Y-82994749D01*
X99868353Y-82766970D01*
X99695763Y-82613940D01*
X99516028Y-82503270D01*
X99282414Y-82402571D01*
X98948189Y-82279452D01*
X98603993Y-82167964D01*
X98109541Y-82073937D01*
X97727782Y-82101556D01*
X97454332Y-82251467D01*
X97284806Y-82524316D01*
X97273050Y-82552759D01*
X97197734Y-82629450D01*
X97042193Y-82660621D01*
X96762374Y-82657503D01*
X96746984Y-82656810D01*
X96447605Y-82659496D01*
X96245765Y-82710851D01*
X96074803Y-82827341D01*
X96051844Y-82847760D01*
X95911007Y-83029634D01*
X95904663Y-83218402D01*
X95915149Y-83263603D01*
X95959815Y-83504421D01*
X96000872Y-83785038D01*
X96014511Y-83876599D01*
X96068037Y-84103832D01*
X96128357Y-84233466D01*
X96177174Y-84295486D01*
X96197261Y-84410107D01*
X96132877Y-84564446D01*
X95971170Y-84784323D01*
X95699289Y-85095559D01*
X95607446Y-85199583D01*
X95383514Y-85477422D01*
X95216445Y-85719605D01*
X95137009Y-85883038D01*
X95080687Y-86058861D01*
X94964471Y-86300570D01*
X94922606Y-86388289D01*
X94848665Y-86641484D01*
X94800334Y-86937694D01*
X94779098Y-87103943D01*
X94729984Y-87336686D01*
X94676282Y-87462224D01*
X94600319Y-87635092D01*
X91591764Y-87635092D01*
X91607538Y-87497715D01*
X91616920Y-87220829D01*
X91616384Y-86825285D01*
X91607735Y-86285523D01*
X91605695Y-86183764D01*
X91590033Y-85619387D01*
X91564000Y-85188523D01*
X91519288Y-84859684D01*
X91447589Y-84601379D01*
X91340593Y-84382121D01*
X91189992Y-84170419D01*
X90987477Y-83934784D01*
X90978333Y-83924558D01*
X90855281Y-83775184D01*
X90774360Y-83630421D01*
X90723120Y-83446687D01*
X90689113Y-83180395D01*
X90659888Y-82787962D01*
X90591771Y-82097014D01*
X90342904Y-80809609D01*
X89932878Y-79516675D01*
X89358491Y-78206939D01*
X89168520Y-77832190D01*
X88981876Y-77494043D01*
X88829158Y-77270338D01*
X88691153Y-77138498D01*
X88548647Y-77075949D01*
X88382425Y-77060117D01*
X88348785Y-77061467D01*
X88178601Y-77115800D01*
X88005782Y-77262059D01*
X87817194Y-77517436D01*
X87599703Y-77899122D01*
X87340174Y-78424309D01*
X87215113Y-78697411D01*
X86704218Y-80056346D01*
X86344269Y-81483481D01*
X86139356Y-82963354D01*
X86103570Y-83306874D01*
X86051859Y-83561099D01*
X85970664Y-83746056D01*
X85843757Y-83913933D01*
X85796811Y-83968415D01*
X85629753Y-84177668D01*
X85519615Y-84338535D01*
X85488083Y-84383653D01*
X85422721Y-84407583D01*
X85315659Y-84358577D01*
X85139828Y-84221848D01*
X84868160Y-83982605D01*
X84342552Y-83501151D01*
X83794239Y-82970698D01*
X83383192Y-82534127D01*
X83108000Y-82189920D01*
X82967255Y-81936561D01*
X82951342Y-81893399D01*
X82827903Y-81615616D01*
X82696816Y-81387377D01*
X82580863Y-81186251D01*
X82489418Y-80951962D01*
X82479911Y-80922653D01*
X82379224Y-80732740D01*
X82204559Y-80473662D01*
X81987120Y-80192595D01*
X81769591Y-79924683D01*
X81414066Y-79472093D01*
X81037879Y-78979218D01*
X80666571Y-78480500D01*
X80325686Y-78010384D01*
X80040766Y-77603312D01*
X79837354Y-77293729D01*
X79680260Y-77054004D01*
X79518772Y-76881835D01*
X79340341Y-76818243D01*
X79098404Y-76848974D01*
X78746395Y-76959774D01*
X78315509Y-77108735D01*
X78352609Y-76467850D01*
X78362312Y-76134670D01*
X78334035Y-75780383D01*
X78252559Y-75498718D01*
X78244006Y-75478258D01*
X78151267Y-75247152D01*
X78135122Y-75138017D01*
X78208171Y-75117325D01*
X78383012Y-75151547D01*
X78540039Y-75179652D01*
X78610003Y-75155917D01*
X78582170Y-75052109D01*
X78425276Y-74663254D01*
X78233481Y-74115234D01*
X78070351Y-73568760D01*
X77950687Y-73074445D01*
X77889291Y-72682901D01*
X77875360Y-72403785D01*
X77882534Y-72322645D01*
X78103727Y-72322645D01*
X78167248Y-73003232D01*
X78344684Y-73755723D01*
X78634260Y-74562945D01*
X78736865Y-74805465D01*
X78842269Y-75022539D01*
X78933663Y-75137721D01*
X79039425Y-75183213D01*
X79187938Y-75191220D01*
X79209100Y-75190907D01*
X79498549Y-75150429D01*
X79787702Y-75062680D01*
X79851347Y-75036759D01*
X80033265Y-74971600D01*
X80117072Y-74956493D01*
X80118649Y-74999399D01*
X80096520Y-75169200D01*
X80051357Y-75419474D01*
X80028267Y-75547600D01*
X80007893Y-75808982D01*
X80040952Y-76073043D01*
X80133801Y-76416691D01*
X80303692Y-76973280D01*
X80088853Y-76919359D01*
X80033274Y-76906466D01*
X79925104Y-76905449D01*
X79940525Y-76984015D01*
X79995896Y-77079115D01*
X80190910Y-77384999D01*
X80442758Y-77752088D01*
X80734264Y-78158142D01*
X81048252Y-78580921D01*
X81367543Y-78998184D01*
X81674961Y-79387691D01*
X81953330Y-79727201D01*
X82185472Y-79994475D01*
X82354210Y-80167272D01*
X82442367Y-80223351D01*
X82522898Y-80225045D01*
X82695127Y-80284158D01*
X82786543Y-80321628D01*
X83056423Y-80393714D01*
X83478765Y-80478509D01*
X84061897Y-80577800D01*
X84220895Y-80608759D01*
X84445109Y-80667053D01*
X84495680Y-80673282D01*
X84651882Y-80625467D01*
X84818252Y-80515808D01*
X84955154Y-80380459D01*
X85022953Y-80255575D01*
X84982014Y-80177308D01*
X84978879Y-80112665D01*
X85095794Y-79949682D01*
X85330818Y-79699018D01*
X85675635Y-79369480D01*
X86121931Y-78969877D01*
X86278194Y-78786187D01*
X86355543Y-78538892D01*
X86424851Y-78308824D01*
X86652867Y-78031537D01*
X86769706Y-77912675D01*
X86910671Y-77696493D01*
X86950192Y-77460772D01*
X86955513Y-77332184D01*
X87018440Y-76992451D01*
X87136357Y-76714019D01*
X87289155Y-76550865D01*
X87396030Y-76452681D01*
X87493521Y-76258087D01*
X87523342Y-76168626D01*
X87621101Y-75930500D01*
X87764011Y-75612250D01*
X87932835Y-75257685D01*
X88021954Y-75074634D01*
X88214009Y-74670646D01*
X88350032Y-74369487D01*
X88424932Y-74183387D01*
X88433616Y-74124577D01*
X88370992Y-74205289D01*
X88248996Y-74376853D01*
X88087643Y-74582318D01*
X87908372Y-74798457D01*
X87806634Y-74490187D01*
X87780475Y-74403580D01*
X87748533Y-74136460D01*
X87808214Y-73837070D01*
X87824708Y-73783113D01*
X87903589Y-73590609D01*
X88009809Y-73509095D01*
X88195411Y-73492224D01*
X88222770Y-73491897D01*
X88404813Y-73469211D01*
X88479288Y-73421762D01*
X88478896Y-73419465D01*
X88399588Y-73347564D01*
X88202092Y-73213104D01*
X87914793Y-73034477D01*
X87566078Y-72830074D01*
X86789536Y-72403050D01*
X85714364Y-71864088D01*
X84662386Y-71395458D01*
X83649338Y-71002151D01*
X82690957Y-70689163D01*
X81802979Y-70461484D01*
X81001140Y-70324108D01*
X80301177Y-70282029D01*
X79718825Y-70340238D01*
X79503401Y-70394708D01*
X78982965Y-70612627D01*
X78572608Y-70920310D01*
X78297551Y-71300714D01*
X78155892Y-71731137D01*
X78103727Y-72322645D01*
X77882534Y-72322645D01*
X77933006Y-71751796D01*
X78121493Y-71202100D01*
X78435505Y-70757209D01*
X78869728Y-70419635D01*
X79418847Y-70191890D01*
X80077546Y-70076485D01*
X80840511Y-70075931D01*
X81702427Y-70192741D01*
X82657979Y-70429426D01*
X83453638Y-70691067D01*
X84431496Y-71065344D01*
X85454113Y-71504456D01*
X86474567Y-71987120D01*
X87445933Y-72492055D01*
X88321287Y-72997978D01*
X88513843Y-73104847D01*
X88875964Y-73273690D01*
X89233302Y-73410453D01*
X89269943Y-73421762D01*
X89513436Y-73496914D01*
G37*
%TD*%
%LPC*%
D11*
%TO.C,J2*%
X57070259Y-58355491D03*
X57070259Y-64135491D03*
D12*
X57570259Y-56925491D03*
D13*
X53390259Y-56925491D03*
D12*
X57570259Y-65565491D03*
D13*
X53390259Y-65565491D03*
%TD*%
D14*
%TO.C,J1*%
X66970259Y-49885491D03*
D15*
X66970259Y-52425491D03*
X69510259Y-49885491D03*
X69510259Y-52425491D03*
X72050259Y-49885491D03*
X72050259Y-52425491D03*
X74590259Y-49885491D03*
X74590259Y-52425491D03*
X77130259Y-49885491D03*
X77130259Y-52425491D03*
X79670259Y-49885491D03*
X79670259Y-52425491D03*
X82210259Y-49885491D03*
X82210259Y-52425491D03*
X84750259Y-49885491D03*
X84750259Y-52425491D03*
X87290259Y-49885491D03*
X87290259Y-52425491D03*
X89830259Y-49885491D03*
X89830259Y-52425491D03*
X92370259Y-49885491D03*
X92370259Y-52425491D03*
X94910259Y-49885491D03*
X94910259Y-52425491D03*
X97450259Y-49885491D03*
X97450259Y-52425491D03*
X99990259Y-49885491D03*
X99990259Y-52425491D03*
X102530259Y-49885491D03*
X102530259Y-52425491D03*
X105070259Y-49885491D03*
X105070259Y-52425491D03*
X107610259Y-49885491D03*
X107610259Y-52425491D03*
X110150259Y-49885491D03*
X110150259Y-52425491D03*
X112690259Y-49885491D03*
X112690259Y-52425491D03*
X115230259Y-49885491D03*
X115230259Y-52425491D03*
%TD*%
D16*
%TO.C,H4*%
X128089824Y-49732000D03*
%TD*%
D17*
%TO.C,MICRO_SD1*%
X127325859Y-72639291D03*
X127325859Y-64663691D03*
%TD*%
D18*
%TO.C,J3*%
X110190259Y-113195491D03*
D19*
X110190259Y-115735491D03*
X107650259Y-113195491D03*
X107650259Y-115735491D03*
X105110259Y-113195491D03*
X105110259Y-115735491D03*
X102570259Y-113195491D03*
X102570259Y-115735491D03*
X100030259Y-113195491D03*
X100030259Y-115735491D03*
X97490259Y-113195491D03*
X97490259Y-115735491D03*
X94950259Y-113195491D03*
X94950259Y-115735491D03*
X92410259Y-113195491D03*
X92410259Y-115735491D03*
X89870259Y-113195491D03*
X89870259Y-115735491D03*
X87330259Y-113195491D03*
X87330259Y-115735491D03*
%TD*%
D16*
%TO.C,H1*%
X54050000Y-123750000D03*
%TD*%
%TO.C,H2*%
X128089824Y-123749705D03*
%TD*%
%TO.C,H3*%
X54051388Y-49710258D03*
%TD*%
%LPD*%
M02*
