%TF.GenerationSoftware,KiCad,Pcbnew,8.0.6*%
%TF.CreationDate,2024-11-27T19:30:55+03:00*%
%TF.ProjectId,OBCv1,4f424376-312e-46b6-9963-61645f706362,rev?*%
%TF.SameCoordinates,Original*%
%TF.FileFunction,Legend,Top*%
%TF.FilePolarity,Positive*%
%FSLAX46Y46*%
G04 Gerber Fmt 4.6, Leading zero omitted, Abs format (unit mm)*
G04 Created by KiCad (PCBNEW 8.0.6) date 2024-11-27 19:30:55*
%MOMM*%
%LPD*%
G01*
G04 APERTURE LIST*
G04 Aperture macros list*
%AMRoundRect*
0 Rectangle with rounded corners*
0 $1 Rounding radius*
0 $2 $3 $4 $5 $6 $7 $8 $9 X,Y pos of 4 corners*
0 Add a 4 corners polygon primitive as box body*
4,1,4,$2,$3,$4,$5,$6,$7,$8,$9,$2,$3,0*
0 Add four circle primitives for the rounded corners*
1,1,$1+$1,$2,$3*
1,1,$1+$1,$4,$5*
1,1,$1+$1,$6,$7*
1,1,$1+$1,$8,$9*
0 Add four rect primitives between the rounded corners*
20,1,$1+$1,$2,$3,$4,$5,0*
20,1,$1+$1,$4,$5,$6,$7,0*
20,1,$1+$1,$6,$7,$8,$9,0*
20,1,$1+$1,$8,$9,$2,$3,0*%
G04 Aperture macros list end*
%ADD10C,0.100000*%
%ADD11C,0.200000*%
%ADD12C,0.150000*%
%ADD13C,0.300000*%
%ADD14C,0.254000*%
%ADD15C,0.120000*%
%ADD16C,0.203200*%
%ADD17C,0.000000*%
%ADD18RoundRect,0.250000X0.250000X0.475000X-0.250000X0.475000X-0.250000X-0.475000X0.250000X-0.475000X0*%
%ADD19C,0.752000*%
%ADD20RoundRect,0.051000X-0.575000X0.150000X-0.575000X-0.150000X0.575000X-0.150000X0.575000X0.150000X0*%
%ADD21O,2.202000X1.102000*%
%ADD22O,1.702000X1.102000*%
%ADD23R,1.700000X1.700000*%
%ADD24O,1.700000X1.700000*%
%ADD25RoundRect,0.271250X-0.379750X-0.479750X0.379750X-0.479750X0.379750X0.479750X-0.379750X0.479750X0*%
%ADD26RoundRect,0.250000X-0.250000X-0.475000X0.250000X-0.475000X0.250000X0.475000X-0.250000X0.475000X0*%
%ADD27R,1.550000X1.000000*%
%ADD28C,3.200000*%
%ADD29RoundRect,0.150000X-0.587500X-0.150000X0.587500X-0.150000X0.587500X0.150000X-0.587500X0.150000X0*%
%ADD30RoundRect,0.250000X-0.450000X0.262500X-0.450000X-0.262500X0.450000X-0.262500X0.450000X0.262500X0*%
%ADD31RoundRect,0.218750X0.256250X-0.218750X0.256250X0.218750X-0.256250X0.218750X-0.256250X-0.218750X0*%
%ADD32C,0.999997*%
%ADD33RoundRect,0.102000X0.650000X-0.350000X0.650000X0.350000X-0.650000X0.350000X-0.650000X-0.350000X0*%
%ADD34RoundRect,0.102000X0.825500X-0.723900X0.825500X0.723900X-0.825500X0.723900X-0.825500X-0.723900X0*%
%ADD35RoundRect,0.102000X1.219200X-0.723900X1.219200X0.723900X-1.219200X0.723900X-1.219200X-0.723900X0*%
%ADD36RoundRect,0.102000X0.825500X-0.927100X0.825500X0.927100X-0.825500X0.927100X-0.825500X-0.927100X0*%
%ADD37RoundRect,0.250000X-0.600000X0.600000X-0.600000X-0.600000X0.600000X-0.600000X0.600000X0.600000X0*%
%ADD38C,1.700000*%
%ADD39RoundRect,0.250000X0.450000X-0.350000X0.450000X0.350000X-0.450000X0.350000X-0.450000X-0.350000X0*%
%ADD40RoundRect,0.250000X-0.475000X0.250000X-0.475000X-0.250000X0.475000X-0.250000X0.475000X0.250000X0*%
%ADD41RoundRect,0.088000X-0.088000X0.363000X-0.088000X-0.363000X0.088000X-0.363000X0.088000X0.363000X0*%
%ADD42RoundRect,0.088000X-0.363000X0.088000X-0.363000X-0.088000X0.363000X-0.088000X0.363000X0.088000X0*%
%ADD43RoundRect,0.051000X-1.675000X1.675000X-1.675000X-1.675000X1.675000X-1.675000X1.675000X1.675000X0*%
%ADD44RoundRect,0.250000X-0.450000X0.350000X-0.450000X-0.350000X0.450000X-0.350000X0.450000X0.350000X0*%
%ADD45RoundRect,0.275500X0.275500X0.500500X-0.275500X0.500500X-0.275500X-0.500500X0.275500X-0.500500X0*%
%ADD46RoundRect,0.250000X-0.350000X-0.450000X0.350000X-0.450000X0.350000X0.450000X-0.350000X0.450000X0*%
%ADD47RoundRect,0.250000X0.350000X0.450000X-0.350000X0.450000X-0.350000X-0.450000X0.350000X-0.450000X0*%
%ADD48R,1.500000X2.000000*%
%ADD49RoundRect,0.051000X0.450000X-0.750000X0.450000X0.750000X-0.450000X0.750000X-0.450000X-0.750000X0*%
%ADD50RoundRect,0.051000X0.750000X0.450000X-0.750000X0.450000X-0.750000X-0.450000X0.750000X-0.450000X0*%
%ADD51C,0.702000*%
%ADD52RoundRect,0.051000X1.900000X-1.900000X1.900000X1.900000X-1.900000X1.900000X-1.900000X-1.900000X0*%
%ADD53RoundRect,0.244250X0.244250X0.281750X-0.244250X0.281750X-0.244250X-0.281750X0.244250X-0.281750X0*%
%ADD54RoundRect,0.250000X0.450000X-0.262500X0.450000X0.262500X-0.450000X0.262500X-0.450000X-0.262500X0*%
%ADD55RoundRect,0.218750X-0.256250X0.218750X-0.256250X-0.218750X0.256250X-0.218750X0.256250X0.218750X0*%
G04 APERTURE END LIST*
D10*
X89170259Y-55935491D02*
X89170259Y-64935491D01*
X77170259Y-55935491D02*
X77170259Y-64935491D01*
X105170259Y-55935491D02*
X105170259Y-64935491D01*
X87170259Y-64935491D02*
X87170259Y-55935491D01*
X75170259Y-64935491D02*
X75170259Y-55935491D01*
X109170259Y-55935491D02*
X109170259Y-64935491D01*
X99170259Y-64935491D02*
X99170259Y-55935491D01*
X95170259Y-64935491D02*
X95170259Y-55935491D01*
X103170259Y-64935491D02*
X103170259Y-55935491D01*
X97170259Y-55935491D02*
X97170259Y-64935491D01*
X73170259Y-55935491D02*
X73170259Y-64935491D01*
X83170259Y-64935491D02*
X83170259Y-55935491D01*
X93170259Y-55935491D02*
X93170259Y-64935491D01*
X107170259Y-64935491D02*
X107170259Y-55935491D01*
X101170259Y-55935491D02*
X101170259Y-64935491D01*
X81170259Y-55935491D02*
X81170259Y-64935491D01*
X91170259Y-64935491D02*
X91170259Y-55935491D01*
X85170259Y-55935491D02*
X85170259Y-64935491D01*
X71170259Y-60435491D02*
X111170259Y-60435491D01*
X79170259Y-64935491D02*
X79170259Y-55935491D01*
D11*
X71170259Y-55935491D02*
X111170259Y-55935491D01*
X111170259Y-64935491D01*
X71170259Y-64935491D01*
X71170259Y-55935491D01*
X90451763Y-64213436D02*
X90451763Y-63737246D01*
X90737478Y-64308674D02*
X89737478Y-63975341D01*
X89737478Y-63975341D02*
X90737478Y-63642008D01*
X90737478Y-63308674D02*
X89737478Y-63308674D01*
X89737478Y-63308674D02*
X90737478Y-62737246D01*
X90737478Y-62737246D02*
X89737478Y-62737246D01*
X90451763Y-62308674D02*
X90451763Y-61832484D01*
X90737478Y-62403912D02*
X89737478Y-62070579D01*
X89737478Y-62070579D02*
X90737478Y-61737246D01*
X89832716Y-61451531D02*
X89785097Y-61403912D01*
X89785097Y-61403912D02*
X89737478Y-61308674D01*
X89737478Y-61308674D02*
X89737478Y-61070579D01*
X89737478Y-61070579D02*
X89785097Y-60975341D01*
X89785097Y-60975341D02*
X89832716Y-60927722D01*
X89832716Y-60927722D02*
X89927954Y-60880103D01*
X89927954Y-60880103D02*
X90023192Y-60880103D01*
X90023192Y-60880103D02*
X90166049Y-60927722D01*
X90166049Y-60927722D02*
X90737478Y-61499150D01*
X90737478Y-61499150D02*
X90737478Y-60880103D01*
X76451763Y-64213436D02*
X76451763Y-63737246D01*
X76737478Y-64308674D02*
X75737478Y-63975341D01*
X75737478Y-63975341D02*
X76737478Y-63642008D01*
X76737478Y-63308674D02*
X75737478Y-63308674D01*
X75737478Y-63308674D02*
X76737478Y-62737246D01*
X76737478Y-62737246D02*
X75737478Y-62737246D01*
X76451763Y-62308674D02*
X76451763Y-61832484D01*
X76737478Y-62403912D02*
X75737478Y-62070579D01*
X75737478Y-62070579D02*
X76737478Y-61737246D01*
X76737478Y-60880103D02*
X76737478Y-61451531D01*
X76737478Y-61165817D02*
X75737478Y-61165817D01*
X75737478Y-61165817D02*
X75880335Y-61261055D01*
X75880335Y-61261055D02*
X75975573Y-61356293D01*
X75975573Y-61356293D02*
X76023192Y-61451531D01*
X97785097Y-63142008D02*
X97737478Y-63237246D01*
X97737478Y-63237246D02*
X97737478Y-63380103D01*
X97737478Y-63380103D02*
X97785097Y-63522960D01*
X97785097Y-63522960D02*
X97880335Y-63618198D01*
X97880335Y-63618198D02*
X97975573Y-63665817D01*
X97975573Y-63665817D02*
X98166049Y-63713436D01*
X98166049Y-63713436D02*
X98308906Y-63713436D01*
X98308906Y-63713436D02*
X98499382Y-63665817D01*
X98499382Y-63665817D02*
X98594620Y-63618198D01*
X98594620Y-63618198D02*
X98689859Y-63522960D01*
X98689859Y-63522960D02*
X98737478Y-63380103D01*
X98737478Y-63380103D02*
X98737478Y-63284865D01*
X98737478Y-63284865D02*
X98689859Y-63142008D01*
X98689859Y-63142008D02*
X98642239Y-63094389D01*
X98642239Y-63094389D02*
X98308906Y-63094389D01*
X98308906Y-63094389D02*
X98308906Y-63284865D01*
X98737478Y-62665817D02*
X97737478Y-62665817D01*
X97737478Y-62665817D02*
X98737478Y-62094389D01*
X98737478Y-62094389D02*
X97737478Y-62094389D01*
X98737478Y-61618198D02*
X97737478Y-61618198D01*
X97737478Y-61618198D02*
X97737478Y-61380103D01*
X97737478Y-61380103D02*
X97785097Y-61237246D01*
X97785097Y-61237246D02*
X97880335Y-61142008D01*
X97880335Y-61142008D02*
X97975573Y-61094389D01*
X97975573Y-61094389D02*
X98166049Y-61046770D01*
X98166049Y-61046770D02*
X98308906Y-61046770D01*
X98308906Y-61046770D02*
X98499382Y-61094389D01*
X98499382Y-61094389D02*
X98594620Y-61142008D01*
X98594620Y-61142008D02*
X98689859Y-61237246D01*
X98689859Y-61237246D02*
X98737478Y-61380103D01*
X98737478Y-61380103D02*
X98737478Y-61618198D01*
X94737478Y-59094389D02*
X94261287Y-59427722D01*
X94737478Y-59665817D02*
X93737478Y-59665817D01*
X93737478Y-59665817D02*
X93737478Y-59284865D01*
X93737478Y-59284865D02*
X93785097Y-59189627D01*
X93785097Y-59189627D02*
X93832716Y-59142008D01*
X93832716Y-59142008D02*
X93927954Y-59094389D01*
X93927954Y-59094389D02*
X94070811Y-59094389D01*
X94070811Y-59094389D02*
X94166049Y-59142008D01*
X94166049Y-59142008D02*
X94213668Y-59189627D01*
X94213668Y-59189627D02*
X94261287Y-59284865D01*
X94261287Y-59284865D02*
X94261287Y-59665817D01*
X93737478Y-58761055D02*
X94737478Y-58094389D01*
X93737478Y-58094389D02*
X94737478Y-58761055D01*
X94737478Y-57713436D02*
X93737478Y-57713436D01*
X93737478Y-57713436D02*
X93737478Y-57475341D01*
X93737478Y-57475341D02*
X93785097Y-57332484D01*
X93785097Y-57332484D02*
X93880335Y-57237246D01*
X93880335Y-57237246D02*
X93975573Y-57189627D01*
X93975573Y-57189627D02*
X94166049Y-57142008D01*
X94166049Y-57142008D02*
X94308906Y-57142008D01*
X94308906Y-57142008D02*
X94499382Y-57189627D01*
X94499382Y-57189627D02*
X94594620Y-57237246D01*
X94594620Y-57237246D02*
X94689859Y-57332484D01*
X94689859Y-57332484D02*
X94737478Y-57475341D01*
X94737478Y-57475341D02*
X94737478Y-57713436D01*
X110213668Y-63732484D02*
X110261287Y-63589627D01*
X110261287Y-63589627D02*
X110308906Y-63542008D01*
X110308906Y-63542008D02*
X110404144Y-63494389D01*
X110404144Y-63494389D02*
X110547001Y-63494389D01*
X110547001Y-63494389D02*
X110642239Y-63542008D01*
X110642239Y-63542008D02*
X110689859Y-63589627D01*
X110689859Y-63589627D02*
X110737478Y-63684865D01*
X110737478Y-63684865D02*
X110737478Y-64065817D01*
X110737478Y-64065817D02*
X109737478Y-64065817D01*
X109737478Y-64065817D02*
X109737478Y-63732484D01*
X109737478Y-63732484D02*
X109785097Y-63637246D01*
X109785097Y-63637246D02*
X109832716Y-63589627D01*
X109832716Y-63589627D02*
X109927954Y-63542008D01*
X109927954Y-63542008D02*
X110023192Y-63542008D01*
X110023192Y-63542008D02*
X110118430Y-63589627D01*
X110118430Y-63589627D02*
X110166049Y-63637246D01*
X110166049Y-63637246D02*
X110213668Y-63732484D01*
X110213668Y-63732484D02*
X110213668Y-64065817D01*
X110451763Y-63113436D02*
X110451763Y-62637246D01*
X110737478Y-63208674D02*
X109737478Y-62875341D01*
X109737478Y-62875341D02*
X110737478Y-62542008D01*
X109737478Y-62351531D02*
X109737478Y-61780103D01*
X110737478Y-62065817D02*
X109737478Y-62065817D01*
X109737478Y-61589626D02*
X109737478Y-61018198D01*
X110737478Y-61303912D02*
X109737478Y-61303912D01*
X82689859Y-59713436D02*
X82737478Y-59570579D01*
X82737478Y-59570579D02*
X82737478Y-59332484D01*
X82737478Y-59332484D02*
X82689859Y-59237246D01*
X82689859Y-59237246D02*
X82642239Y-59189627D01*
X82642239Y-59189627D02*
X82547001Y-59142008D01*
X82547001Y-59142008D02*
X82451763Y-59142008D01*
X82451763Y-59142008D02*
X82356525Y-59189627D01*
X82356525Y-59189627D02*
X82308906Y-59237246D01*
X82308906Y-59237246D02*
X82261287Y-59332484D01*
X82261287Y-59332484D02*
X82213668Y-59522960D01*
X82213668Y-59522960D02*
X82166049Y-59618198D01*
X82166049Y-59618198D02*
X82118430Y-59665817D01*
X82118430Y-59665817D02*
X82023192Y-59713436D01*
X82023192Y-59713436D02*
X81927954Y-59713436D01*
X81927954Y-59713436D02*
X81832716Y-59665817D01*
X81832716Y-59665817D02*
X81785097Y-59618198D01*
X81785097Y-59618198D02*
X81737478Y-59522960D01*
X81737478Y-59522960D02*
X81737478Y-59284865D01*
X81737478Y-59284865D02*
X81785097Y-59142008D01*
X82737478Y-58713436D02*
X81737478Y-58713436D01*
X81737478Y-58713436D02*
X81737478Y-58475341D01*
X81737478Y-58475341D02*
X81785097Y-58332484D01*
X81785097Y-58332484D02*
X81880335Y-58237246D01*
X81880335Y-58237246D02*
X81975573Y-58189627D01*
X81975573Y-58189627D02*
X82166049Y-58142008D01*
X82166049Y-58142008D02*
X82308906Y-58142008D01*
X82308906Y-58142008D02*
X82499382Y-58189627D01*
X82499382Y-58189627D02*
X82594620Y-58237246D01*
X82594620Y-58237246D02*
X82689859Y-58332484D01*
X82689859Y-58332484D02*
X82737478Y-58475341D01*
X82737478Y-58475341D02*
X82737478Y-58713436D01*
X82451763Y-57761055D02*
X82451763Y-57284865D01*
X82737478Y-57856293D02*
X81737478Y-57522960D01*
X81737478Y-57522960D02*
X82737478Y-57189627D01*
X108256525Y-63965817D02*
X108256525Y-63203913D01*
X108637478Y-63584865D02*
X107875573Y-63584865D01*
X107637478Y-62251532D02*
X107637478Y-62727722D01*
X107637478Y-62727722D02*
X108113668Y-62775341D01*
X108113668Y-62775341D02*
X108066049Y-62727722D01*
X108066049Y-62727722D02*
X108018430Y-62632484D01*
X108018430Y-62632484D02*
X108018430Y-62394389D01*
X108018430Y-62394389D02*
X108066049Y-62299151D01*
X108066049Y-62299151D02*
X108113668Y-62251532D01*
X108113668Y-62251532D02*
X108208906Y-62203913D01*
X108208906Y-62203913D02*
X108447001Y-62203913D01*
X108447001Y-62203913D02*
X108542239Y-62251532D01*
X108542239Y-62251532D02*
X108589859Y-62299151D01*
X108589859Y-62299151D02*
X108637478Y-62394389D01*
X108637478Y-62394389D02*
X108637478Y-62632484D01*
X108637478Y-62632484D02*
X108589859Y-62727722D01*
X108589859Y-62727722D02*
X108542239Y-62775341D01*
X107637478Y-61918198D02*
X108637478Y-61584865D01*
X108637478Y-61584865D02*
X107637478Y-61251532D01*
D12*
X78639249Y-89735491D02*
X78639249Y-90068824D01*
X78115439Y-90211681D02*
X78115439Y-89735491D01*
X78115439Y-89735491D02*
X79115439Y-89735491D01*
X79115439Y-89735491D02*
X79115439Y-90211681D01*
X78163059Y-90592634D02*
X78115439Y-90735491D01*
X78115439Y-90735491D02*
X78115439Y-90973586D01*
X78115439Y-90973586D02*
X78163059Y-91068824D01*
X78163059Y-91068824D02*
X78210678Y-91116443D01*
X78210678Y-91116443D02*
X78305916Y-91164062D01*
X78305916Y-91164062D02*
X78401154Y-91164062D01*
X78401154Y-91164062D02*
X78496392Y-91116443D01*
X78496392Y-91116443D02*
X78544011Y-91068824D01*
X78544011Y-91068824D02*
X78591630Y-90973586D01*
X78591630Y-90973586D02*
X78639249Y-90783110D01*
X78639249Y-90783110D02*
X78686868Y-90687872D01*
X78686868Y-90687872D02*
X78734487Y-90640253D01*
X78734487Y-90640253D02*
X78829725Y-90592634D01*
X78829725Y-90592634D02*
X78924963Y-90592634D01*
X78924963Y-90592634D02*
X79020201Y-90640253D01*
X79020201Y-90640253D02*
X79067820Y-90687872D01*
X79067820Y-90687872D02*
X79115439Y-90783110D01*
X79115439Y-90783110D02*
X79115439Y-91021205D01*
X79115439Y-91021205D02*
X79067820Y-91164062D01*
X78115439Y-91592634D02*
X79115439Y-91592634D01*
X79115439Y-91592634D02*
X79115439Y-91973586D01*
X79115439Y-91973586D02*
X79067820Y-92068824D01*
X79067820Y-92068824D02*
X79020201Y-92116443D01*
X79020201Y-92116443D02*
X78924963Y-92164062D01*
X78924963Y-92164062D02*
X78782106Y-92164062D01*
X78782106Y-92164062D02*
X78686868Y-92116443D01*
X78686868Y-92116443D02*
X78639249Y-92068824D01*
X78639249Y-92068824D02*
X78591630Y-91973586D01*
X78591630Y-91973586D02*
X78591630Y-91592634D01*
X79115439Y-92497396D02*
X79115439Y-93116443D01*
X79115439Y-93116443D02*
X78734487Y-92783110D01*
X78734487Y-92783110D02*
X78734487Y-92925967D01*
X78734487Y-92925967D02*
X78686868Y-93021205D01*
X78686868Y-93021205D02*
X78639249Y-93068824D01*
X78639249Y-93068824D02*
X78544011Y-93116443D01*
X78544011Y-93116443D02*
X78305916Y-93116443D01*
X78305916Y-93116443D02*
X78210678Y-93068824D01*
X78210678Y-93068824D02*
X78163059Y-93021205D01*
X78163059Y-93021205D02*
X78115439Y-92925967D01*
X78115439Y-92925967D02*
X78115439Y-92640253D01*
X78115439Y-92640253D02*
X78163059Y-92545015D01*
X78163059Y-92545015D02*
X78210678Y-92497396D01*
X79020201Y-93497396D02*
X79067820Y-93545015D01*
X79067820Y-93545015D02*
X79115439Y-93640253D01*
X79115439Y-93640253D02*
X79115439Y-93878348D01*
X79115439Y-93878348D02*
X79067820Y-93973586D01*
X79067820Y-93973586D02*
X79020201Y-94021205D01*
X79020201Y-94021205D02*
X78924963Y-94068824D01*
X78924963Y-94068824D02*
X78829725Y-94068824D01*
X78829725Y-94068824D02*
X78686868Y-94021205D01*
X78686868Y-94021205D02*
X78115439Y-93449777D01*
X78115439Y-93449777D02*
X78115439Y-94068824D01*
X78115439Y-95259301D02*
X79115439Y-95259301D01*
X79115439Y-95259301D02*
X78401154Y-95592634D01*
X78401154Y-95592634D02*
X79115439Y-95925967D01*
X79115439Y-95925967D02*
X78115439Y-95925967D01*
X79115439Y-96592634D02*
X79115439Y-96783110D01*
X79115439Y-96783110D02*
X79067820Y-96878348D01*
X79067820Y-96878348D02*
X78972582Y-96973586D01*
X78972582Y-96973586D02*
X78782106Y-97021205D01*
X78782106Y-97021205D02*
X78448773Y-97021205D01*
X78448773Y-97021205D02*
X78258297Y-96973586D01*
X78258297Y-96973586D02*
X78163059Y-96878348D01*
X78163059Y-96878348D02*
X78115439Y-96783110D01*
X78115439Y-96783110D02*
X78115439Y-96592634D01*
X78115439Y-96592634D02*
X78163059Y-96497396D01*
X78163059Y-96497396D02*
X78258297Y-96402158D01*
X78258297Y-96402158D02*
X78448773Y-96354539D01*
X78448773Y-96354539D02*
X78782106Y-96354539D01*
X78782106Y-96354539D02*
X78972582Y-96402158D01*
X78972582Y-96402158D02*
X79067820Y-96497396D01*
X79067820Y-96497396D02*
X79115439Y-96592634D01*
X78115439Y-97449777D02*
X79115439Y-97449777D01*
X79115439Y-97449777D02*
X79115439Y-97687872D01*
X79115439Y-97687872D02*
X79067820Y-97830729D01*
X79067820Y-97830729D02*
X78972582Y-97925967D01*
X78972582Y-97925967D02*
X78877344Y-97973586D01*
X78877344Y-97973586D02*
X78686868Y-98021205D01*
X78686868Y-98021205D02*
X78544011Y-98021205D01*
X78544011Y-98021205D02*
X78353535Y-97973586D01*
X78353535Y-97973586D02*
X78258297Y-97925967D01*
X78258297Y-97925967D02*
X78163059Y-97830729D01*
X78163059Y-97830729D02*
X78115439Y-97687872D01*
X78115439Y-97687872D02*
X78115439Y-97449777D01*
X79115439Y-98449777D02*
X78305916Y-98449777D01*
X78305916Y-98449777D02*
X78210678Y-98497396D01*
X78210678Y-98497396D02*
X78163059Y-98545015D01*
X78163059Y-98545015D02*
X78115439Y-98640253D01*
X78115439Y-98640253D02*
X78115439Y-98830729D01*
X78115439Y-98830729D02*
X78163059Y-98925967D01*
X78163059Y-98925967D02*
X78210678Y-98973586D01*
X78210678Y-98973586D02*
X78305916Y-99021205D01*
X78305916Y-99021205D02*
X79115439Y-99021205D01*
X78115439Y-99973586D02*
X78115439Y-99497396D01*
X78115439Y-99497396D02*
X79115439Y-99497396D01*
X78639249Y-100306920D02*
X78639249Y-100640253D01*
X78115439Y-100783110D02*
X78115439Y-100306920D01*
X78115439Y-100306920D02*
X79115439Y-100306920D01*
X79115439Y-100306920D02*
X79115439Y-100783110D01*
D11*
X86737478Y-59665817D02*
X85737478Y-59665817D01*
X85737478Y-59665817D02*
X86451763Y-59332484D01*
X86451763Y-59332484D02*
X85737478Y-58999151D01*
X85737478Y-58999151D02*
X86737478Y-58999151D01*
X86737478Y-58522960D02*
X85737478Y-58522960D01*
X86689859Y-58094389D02*
X86737478Y-57951532D01*
X86737478Y-57951532D02*
X86737478Y-57713437D01*
X86737478Y-57713437D02*
X86689859Y-57618199D01*
X86689859Y-57618199D02*
X86642239Y-57570580D01*
X86642239Y-57570580D02*
X86547001Y-57522961D01*
X86547001Y-57522961D02*
X86451763Y-57522961D01*
X86451763Y-57522961D02*
X86356525Y-57570580D01*
X86356525Y-57570580D02*
X86308906Y-57618199D01*
X86308906Y-57618199D02*
X86261287Y-57713437D01*
X86261287Y-57713437D02*
X86213668Y-57903913D01*
X86213668Y-57903913D02*
X86166049Y-57999151D01*
X86166049Y-57999151D02*
X86118430Y-58046770D01*
X86118430Y-58046770D02*
X86023192Y-58094389D01*
X86023192Y-58094389D02*
X85927954Y-58094389D01*
X85927954Y-58094389D02*
X85832716Y-58046770D01*
X85832716Y-58046770D02*
X85785097Y-57999151D01*
X85785097Y-57999151D02*
X85737478Y-57903913D01*
X85737478Y-57903913D02*
X85737478Y-57665818D01*
X85737478Y-57665818D02*
X85785097Y-57522961D01*
X85737478Y-56903913D02*
X85737478Y-56713437D01*
X85737478Y-56713437D02*
X85785097Y-56618199D01*
X85785097Y-56618199D02*
X85880335Y-56522961D01*
X85880335Y-56522961D02*
X86070811Y-56475342D01*
X86070811Y-56475342D02*
X86404144Y-56475342D01*
X86404144Y-56475342D02*
X86594620Y-56522961D01*
X86594620Y-56522961D02*
X86689859Y-56618199D01*
X86689859Y-56618199D02*
X86737478Y-56713437D01*
X86737478Y-56713437D02*
X86737478Y-56903913D01*
X86737478Y-56903913D02*
X86689859Y-56999151D01*
X86689859Y-56999151D02*
X86594620Y-57094389D01*
X86594620Y-57094389D02*
X86404144Y-57142008D01*
X86404144Y-57142008D02*
X86070811Y-57142008D01*
X86070811Y-57142008D02*
X85880335Y-57094389D01*
X85880335Y-57094389D02*
X85785097Y-56999151D01*
X85785097Y-56999151D02*
X85737478Y-56903913D01*
X78451763Y-64213436D02*
X78451763Y-63737246D01*
X78737478Y-64308674D02*
X77737478Y-63975341D01*
X77737478Y-63975341D02*
X78737478Y-63642008D01*
X78737478Y-63308674D02*
X77737478Y-63308674D01*
X77737478Y-63308674D02*
X78737478Y-62737246D01*
X78737478Y-62737246D02*
X77737478Y-62737246D01*
X78451763Y-62308674D02*
X78451763Y-61832484D01*
X78737478Y-62403912D02*
X77737478Y-62070579D01*
X77737478Y-62070579D02*
X78737478Y-61737246D01*
X77737478Y-61499150D02*
X77737478Y-60880103D01*
X77737478Y-60880103D02*
X78118430Y-61213436D01*
X78118430Y-61213436D02*
X78118430Y-61070579D01*
X78118430Y-61070579D02*
X78166049Y-60975341D01*
X78166049Y-60975341D02*
X78213668Y-60927722D01*
X78213668Y-60927722D02*
X78308906Y-60880103D01*
X78308906Y-60880103D02*
X78547001Y-60880103D01*
X78547001Y-60880103D02*
X78642239Y-60927722D01*
X78642239Y-60927722D02*
X78689859Y-60975341D01*
X78689859Y-60975341D02*
X78737478Y-61070579D01*
X78737478Y-61070579D02*
X78737478Y-61356293D01*
X78737478Y-61356293D02*
X78689859Y-61451531D01*
X78689859Y-61451531D02*
X78642239Y-61499150D01*
X74213668Y-63265817D02*
X74213668Y-62932484D01*
X74737478Y-62789627D02*
X74737478Y-63265817D01*
X74737478Y-63265817D02*
X73737478Y-63265817D01*
X73737478Y-63265817D02*
X73737478Y-62789627D01*
X74737478Y-62361055D02*
X73737478Y-62361055D01*
X73737478Y-62361055D02*
X74737478Y-61789627D01*
X74737478Y-61789627D02*
X73737478Y-61789627D01*
D12*
X92189306Y-111095071D02*
X92141687Y-111142691D01*
X92141687Y-111142691D02*
X91998830Y-111190310D01*
X91998830Y-111190310D02*
X91903592Y-111190310D01*
X91903592Y-111190310D02*
X91760735Y-111142691D01*
X91760735Y-111142691D02*
X91665497Y-111047452D01*
X91665497Y-111047452D02*
X91617878Y-110952214D01*
X91617878Y-110952214D02*
X91570259Y-110761738D01*
X91570259Y-110761738D02*
X91570259Y-110618881D01*
X91570259Y-110618881D02*
X91617878Y-110428405D01*
X91617878Y-110428405D02*
X91665497Y-110333167D01*
X91665497Y-110333167D02*
X91760735Y-110237929D01*
X91760735Y-110237929D02*
X91903592Y-110190310D01*
X91903592Y-110190310D02*
X91998830Y-110190310D01*
X91998830Y-110190310D02*
X92141687Y-110237929D01*
X92141687Y-110237929D02*
X92189306Y-110285548D01*
X92570259Y-110904595D02*
X93046449Y-110904595D01*
X92475021Y-111190310D02*
X92808354Y-110190310D01*
X92808354Y-110190310D02*
X93141687Y-111190310D01*
X93475021Y-111190310D02*
X93475021Y-110190310D01*
X93475021Y-110190310D02*
X93808354Y-110904595D01*
X93808354Y-110904595D02*
X94141687Y-110190310D01*
X94141687Y-110190310D02*
X94141687Y-111190310D01*
X94617878Y-110666500D02*
X94951211Y-110666500D01*
X95094068Y-111190310D02*
X94617878Y-111190310D01*
X94617878Y-111190310D02*
X94617878Y-110190310D01*
X94617878Y-110190310D02*
X95094068Y-110190310D01*
X96094068Y-111190310D02*
X95760735Y-110714119D01*
X95522640Y-111190310D02*
X95522640Y-110190310D01*
X95522640Y-110190310D02*
X95903592Y-110190310D01*
X95903592Y-110190310D02*
X95998830Y-110237929D01*
X95998830Y-110237929D02*
X96046449Y-110285548D01*
X96046449Y-110285548D02*
X96094068Y-110380786D01*
X96094068Y-110380786D02*
X96094068Y-110523643D01*
X96094068Y-110523643D02*
X96046449Y-110618881D01*
X96046449Y-110618881D02*
X95998830Y-110666500D01*
X95998830Y-110666500D02*
X95903592Y-110714119D01*
X95903592Y-110714119D02*
X95522640Y-110714119D01*
X96475021Y-110904595D02*
X96951211Y-110904595D01*
X96379783Y-111190310D02*
X96713116Y-110190310D01*
X96713116Y-110190310D02*
X97046449Y-111190310D01*
X98713116Y-111095071D02*
X98665497Y-111142691D01*
X98665497Y-111142691D02*
X98522640Y-111190310D01*
X98522640Y-111190310D02*
X98427402Y-111190310D01*
X98427402Y-111190310D02*
X98284545Y-111142691D01*
X98284545Y-111142691D02*
X98189307Y-111047452D01*
X98189307Y-111047452D02*
X98141688Y-110952214D01*
X98141688Y-110952214D02*
X98094069Y-110761738D01*
X98094069Y-110761738D02*
X98094069Y-110618881D01*
X98094069Y-110618881D02*
X98141688Y-110428405D01*
X98141688Y-110428405D02*
X98189307Y-110333167D01*
X98189307Y-110333167D02*
X98284545Y-110237929D01*
X98284545Y-110237929D02*
X98427402Y-110190310D01*
X98427402Y-110190310D02*
X98522640Y-110190310D01*
X98522640Y-110190310D02*
X98665497Y-110237929D01*
X98665497Y-110237929D02*
X98713116Y-110285548D01*
X99332164Y-110190310D02*
X99522640Y-110190310D01*
X99522640Y-110190310D02*
X99617878Y-110237929D01*
X99617878Y-110237929D02*
X99713116Y-110333167D01*
X99713116Y-110333167D02*
X99760735Y-110523643D01*
X99760735Y-110523643D02*
X99760735Y-110856976D01*
X99760735Y-110856976D02*
X99713116Y-111047452D01*
X99713116Y-111047452D02*
X99617878Y-111142691D01*
X99617878Y-111142691D02*
X99522640Y-111190310D01*
X99522640Y-111190310D02*
X99332164Y-111190310D01*
X99332164Y-111190310D02*
X99236926Y-111142691D01*
X99236926Y-111142691D02*
X99141688Y-111047452D01*
X99141688Y-111047452D02*
X99094069Y-110856976D01*
X99094069Y-110856976D02*
X99094069Y-110523643D01*
X99094069Y-110523643D02*
X99141688Y-110333167D01*
X99141688Y-110333167D02*
X99236926Y-110237929D01*
X99236926Y-110237929D02*
X99332164Y-110190310D01*
X100189307Y-111190310D02*
X100189307Y-110190310D01*
X100189307Y-110190310D02*
X100760735Y-111190310D01*
X100760735Y-111190310D02*
X100760735Y-110190310D01*
X101236926Y-111190310D02*
X101236926Y-110190310D01*
X101236926Y-110190310D02*
X101808354Y-111190310D01*
X101808354Y-111190310D02*
X101808354Y-110190310D01*
X102284545Y-110666500D02*
X102617878Y-110666500D01*
X102760735Y-111190310D02*
X102284545Y-111190310D01*
X102284545Y-111190310D02*
X102284545Y-110190310D01*
X102284545Y-110190310D02*
X102760735Y-110190310D01*
X103760735Y-111095071D02*
X103713116Y-111142691D01*
X103713116Y-111142691D02*
X103570259Y-111190310D01*
X103570259Y-111190310D02*
X103475021Y-111190310D01*
X103475021Y-111190310D02*
X103332164Y-111142691D01*
X103332164Y-111142691D02*
X103236926Y-111047452D01*
X103236926Y-111047452D02*
X103189307Y-110952214D01*
X103189307Y-110952214D02*
X103141688Y-110761738D01*
X103141688Y-110761738D02*
X103141688Y-110618881D01*
X103141688Y-110618881D02*
X103189307Y-110428405D01*
X103189307Y-110428405D02*
X103236926Y-110333167D01*
X103236926Y-110333167D02*
X103332164Y-110237929D01*
X103332164Y-110237929D02*
X103475021Y-110190310D01*
X103475021Y-110190310D02*
X103570259Y-110190310D01*
X103570259Y-110190310D02*
X103713116Y-110237929D01*
X103713116Y-110237929D02*
X103760735Y-110285548D01*
X104046450Y-110190310D02*
X104617878Y-110190310D01*
X104332164Y-111190310D02*
X104332164Y-110190310D01*
X105141688Y-110190310D02*
X105332164Y-110190310D01*
X105332164Y-110190310D02*
X105427402Y-110237929D01*
X105427402Y-110237929D02*
X105522640Y-110333167D01*
X105522640Y-110333167D02*
X105570259Y-110523643D01*
X105570259Y-110523643D02*
X105570259Y-110856976D01*
X105570259Y-110856976D02*
X105522640Y-111047452D01*
X105522640Y-111047452D02*
X105427402Y-111142691D01*
X105427402Y-111142691D02*
X105332164Y-111190310D01*
X105332164Y-111190310D02*
X105141688Y-111190310D01*
X105141688Y-111190310D02*
X105046450Y-111142691D01*
X105046450Y-111142691D02*
X104951212Y-111047452D01*
X104951212Y-111047452D02*
X104903593Y-110856976D01*
X104903593Y-110856976D02*
X104903593Y-110523643D01*
X104903593Y-110523643D02*
X104951212Y-110333167D01*
X104951212Y-110333167D02*
X105046450Y-110237929D01*
X105046450Y-110237929D02*
X105141688Y-110190310D01*
X106570259Y-111190310D02*
X106236926Y-110714119D01*
X105998831Y-111190310D02*
X105998831Y-110190310D01*
X105998831Y-110190310D02*
X106379783Y-110190310D01*
X106379783Y-110190310D02*
X106475021Y-110237929D01*
X106475021Y-110237929D02*
X106522640Y-110285548D01*
X106522640Y-110285548D02*
X106570259Y-110380786D01*
X106570259Y-110380786D02*
X106570259Y-110523643D01*
X106570259Y-110523643D02*
X106522640Y-110618881D01*
X106522640Y-110618881D02*
X106475021Y-110666500D01*
X106475021Y-110666500D02*
X106379783Y-110714119D01*
X106379783Y-110714119D02*
X105998831Y-110714119D01*
D11*
X91737478Y-59808674D02*
X91737478Y-59237246D01*
X92737478Y-59522960D02*
X91737478Y-59522960D01*
X91737478Y-58999150D02*
X92737478Y-58332484D01*
X91737478Y-58332484D02*
X92737478Y-58999150D01*
X92737478Y-57951531D02*
X91737478Y-57951531D01*
X91737478Y-57951531D02*
X91737478Y-57713436D01*
X91737478Y-57713436D02*
X91785097Y-57570579D01*
X91785097Y-57570579D02*
X91880335Y-57475341D01*
X91880335Y-57475341D02*
X91975573Y-57427722D01*
X91975573Y-57427722D02*
X92166049Y-57380103D01*
X92166049Y-57380103D02*
X92308906Y-57380103D01*
X92308906Y-57380103D02*
X92499382Y-57427722D01*
X92499382Y-57427722D02*
X92594620Y-57475341D01*
X92594620Y-57475341D02*
X92689859Y-57570579D01*
X92689859Y-57570579D02*
X92737478Y-57713436D01*
X92737478Y-57713436D02*
X92737478Y-57951531D01*
X72356525Y-59665817D02*
X72356525Y-58903913D01*
X72737478Y-59284865D02*
X71975573Y-59284865D01*
X71737478Y-57951532D02*
X71737478Y-58427722D01*
X71737478Y-58427722D02*
X72213668Y-58475341D01*
X72213668Y-58475341D02*
X72166049Y-58427722D01*
X72166049Y-58427722D02*
X72118430Y-58332484D01*
X72118430Y-58332484D02*
X72118430Y-58094389D01*
X72118430Y-58094389D02*
X72166049Y-57999151D01*
X72166049Y-57999151D02*
X72213668Y-57951532D01*
X72213668Y-57951532D02*
X72308906Y-57903913D01*
X72308906Y-57903913D02*
X72547001Y-57903913D01*
X72547001Y-57903913D02*
X72642239Y-57951532D01*
X72642239Y-57951532D02*
X72689859Y-57999151D01*
X72689859Y-57999151D02*
X72737478Y-58094389D01*
X72737478Y-58094389D02*
X72737478Y-58332484D01*
X72737478Y-58332484D02*
X72689859Y-58427722D01*
X72689859Y-58427722D02*
X72642239Y-58475341D01*
X71737478Y-57618198D02*
X72737478Y-57284865D01*
X72737478Y-57284865D02*
X71737478Y-56951532D01*
X110213668Y-59332484D02*
X110261287Y-59189627D01*
X110261287Y-59189627D02*
X110308906Y-59142008D01*
X110308906Y-59142008D02*
X110404144Y-59094389D01*
X110404144Y-59094389D02*
X110547001Y-59094389D01*
X110547001Y-59094389D02*
X110642239Y-59142008D01*
X110642239Y-59142008D02*
X110689859Y-59189627D01*
X110689859Y-59189627D02*
X110737478Y-59284865D01*
X110737478Y-59284865D02*
X110737478Y-59665817D01*
X110737478Y-59665817D02*
X109737478Y-59665817D01*
X109737478Y-59665817D02*
X109737478Y-59332484D01*
X109737478Y-59332484D02*
X109785097Y-59237246D01*
X109785097Y-59237246D02*
X109832716Y-59189627D01*
X109832716Y-59189627D02*
X109927954Y-59142008D01*
X109927954Y-59142008D02*
X110023192Y-59142008D01*
X110023192Y-59142008D02*
X110118430Y-59189627D01*
X110118430Y-59189627D02*
X110166049Y-59237246D01*
X110166049Y-59237246D02*
X110213668Y-59332484D01*
X110213668Y-59332484D02*
X110213668Y-59665817D01*
X110451763Y-58713436D02*
X110451763Y-58237246D01*
X110737478Y-58808674D02*
X109737478Y-58475341D01*
X109737478Y-58475341D02*
X110737478Y-58142008D01*
X109737478Y-57951531D02*
X109737478Y-57380103D01*
X110737478Y-57665817D02*
X109737478Y-57665817D01*
X109737478Y-57189626D02*
X109737478Y-56618198D01*
X110737478Y-56903912D02*
X109737478Y-56903912D01*
D13*
G36*
X100815259Y-98974465D02*
G01*
X100815259Y-100095173D01*
X100778256Y-100134374D01*
X100670545Y-100134374D01*
X100633542Y-100095173D01*
X100633542Y-99946429D01*
X99458245Y-99946429D01*
X99458245Y-100095173D01*
X99421242Y-100134374D01*
X99313531Y-100134374D01*
X99276529Y-100095173D01*
X99276529Y-98974465D01*
X99313531Y-98935264D01*
X99653517Y-98935264D01*
X99692718Y-98974465D01*
X99692718Y-99088404D01*
X99653517Y-99125407D01*
X99458245Y-99125407D01*
X99458245Y-99739433D01*
X99958332Y-99739433D01*
X99958332Y-99216998D01*
X99995335Y-99178163D01*
X100103046Y-99178163D01*
X100140049Y-99216998D01*
X100140049Y-99739433D01*
X100633542Y-99739433D01*
X100633542Y-99127605D01*
X100438636Y-99127605D01*
X100401267Y-99088404D01*
X100401267Y-98974465D01*
X100438636Y-98935264D01*
X100778256Y-98935264D01*
X100815259Y-98974465D01*
G37*
G36*
X100815259Y-97683763D02*
G01*
X100815259Y-97867312D01*
X100797587Y-97939159D01*
X100792178Y-97946080D01*
X100721488Y-97971625D01*
X100714875Y-97971726D01*
X100606217Y-97962785D01*
X100671346Y-97992923D01*
X100730148Y-98043704D01*
X100761403Y-98082368D01*
X100797531Y-98146138D01*
X100820279Y-98217922D01*
X100829645Y-98297721D01*
X100829913Y-98314643D01*
X100824594Y-98392854D01*
X100808635Y-98465373D01*
X100776571Y-98542783D01*
X100730026Y-98612444D01*
X100678605Y-98665986D01*
X100618605Y-98711929D01*
X100552089Y-98748366D01*
X100479055Y-98775298D01*
X100399504Y-98792725D01*
X100313435Y-98800646D01*
X100283298Y-98801174D01*
X100209338Y-98797874D01*
X100126631Y-98785200D01*
X100050519Y-98763021D01*
X99981001Y-98731336D01*
X99918078Y-98690146D01*
X99889090Y-98665986D01*
X99838042Y-98612367D01*
X99791835Y-98542420D01*
X99760003Y-98464514D01*
X99744161Y-98391403D01*
X99738880Y-98312444D01*
X99740475Y-98291562D01*
X99909972Y-98291562D01*
X99919704Y-98369987D01*
X99948899Y-98440397D01*
X99997556Y-98502794D01*
X100009623Y-98514311D01*
X100071328Y-98558055D01*
X100144335Y-98587482D01*
X100218719Y-98601622D01*
X100280367Y-98604803D01*
X100361562Y-98599262D01*
X100434423Y-98582638D01*
X100506428Y-98550689D01*
X100555140Y-98516143D01*
X100605259Y-98462533D01*
X100641710Y-98394198D01*
X100657910Y-98316632D01*
X100658821Y-98291562D01*
X100648767Y-98211334D01*
X100618607Y-98140551D01*
X100568339Y-98079214D01*
X100555873Y-98068079D01*
X100492458Y-98025575D01*
X100418031Y-97996982D01*
X100342629Y-97983243D01*
X100280367Y-97980152D01*
X100198553Y-97985762D01*
X100126036Y-98002592D01*
X100055566Y-98034937D01*
X100008891Y-98069911D01*
X99956727Y-98129968D01*
X99923883Y-98198396D01*
X99910359Y-98275197D01*
X99909972Y-98291562D01*
X99740475Y-98291562D01*
X99744962Y-98232810D01*
X99765703Y-98155378D01*
X99801162Y-98088596D01*
X99851669Y-98029794D01*
X99915571Y-97984697D01*
X99944381Y-97972479D01*
X99887624Y-97982350D01*
X99441392Y-97982350D01*
X99441392Y-98088962D01*
X99404390Y-98128163D01*
X99313531Y-98128163D01*
X99276529Y-98088962D01*
X99276529Y-97827378D01*
X99313531Y-97790009D01*
X100650395Y-97790009D01*
X100650395Y-97683763D01*
X100687397Y-97646761D01*
X100778256Y-97646761D01*
X100815259Y-97683763D01*
G37*
G36*
X100815259Y-96412113D02*
G01*
X100815259Y-96595661D01*
X100793202Y-96669029D01*
X100721051Y-96697777D01*
X100714875Y-96697877D01*
X100643434Y-96692748D01*
X100647464Y-96686153D01*
X100718555Y-96731514D01*
X100772185Y-96792582D01*
X100808354Y-96869358D01*
X100825459Y-96947669D01*
X100829913Y-97021743D01*
X100823433Y-97104083D01*
X100803993Y-97177448D01*
X100766631Y-97249254D01*
X100726232Y-97297249D01*
X100662550Y-97346480D01*
X100588146Y-97380003D01*
X100513007Y-97396615D01*
X100451092Y-97400930D01*
X99918399Y-97400930D01*
X99918399Y-97509374D01*
X99881396Y-97546377D01*
X99790538Y-97546377D01*
X99753535Y-97509374D01*
X99753535Y-97306775D01*
X99775592Y-97233144D01*
X99847743Y-97204293D01*
X99853919Y-97204193D01*
X100408961Y-97204193D01*
X100483701Y-97197612D01*
X100555621Y-97172868D01*
X100591044Y-97148505D01*
X100634621Y-97089430D01*
X100653235Y-97016617D01*
X100654791Y-96984008D01*
X100646126Y-96905530D01*
X100620131Y-96837021D01*
X100570922Y-96772593D01*
X100545248Y-96750267D01*
X100486996Y-96715096D01*
X99918399Y-96715096D01*
X99918399Y-96817312D01*
X99881396Y-96854315D01*
X99790538Y-96854315D01*
X99753535Y-96817312D01*
X99753535Y-96555361D01*
X99790538Y-96518359D01*
X100650395Y-96518359D01*
X100650395Y-96412113D01*
X100687397Y-96372912D01*
X100778256Y-96372912D01*
X100815259Y-96412113D01*
G37*
G36*
X100815259Y-96064067D02*
G01*
X100815259Y-96182403D01*
X100778256Y-96221604D01*
X100284397Y-96221604D01*
X100245196Y-96182403D01*
X100245196Y-96049412D01*
X100284397Y-96012410D01*
X100328727Y-96012410D01*
X100399000Y-95986031D01*
X100429477Y-95965515D01*
X100487912Y-95918254D01*
X100534990Y-95870993D01*
X100577674Y-95807739D01*
X100606065Y-95744597D01*
X100626350Y-95672509D01*
X100635276Y-95595373D01*
X100635740Y-95572406D01*
X100631710Y-95497507D01*
X100617542Y-95423811D01*
X100589836Y-95355047D01*
X100571260Y-95325843D01*
X100515670Y-95272262D01*
X100446169Y-95243411D01*
X100392108Y-95237915D01*
X100318377Y-95257092D01*
X100280733Y-95287008D01*
X100235688Y-95348165D01*
X100204529Y-95417068D01*
X100179906Y-95491379D01*
X100158297Y-95567165D01*
X100150307Y-95598052D01*
X100130043Y-95673219D01*
X100107718Y-95748696D01*
X100091689Y-95799186D01*
X100065105Y-95872430D01*
X100034811Y-95941037D01*
X100012554Y-95984200D01*
X99968583Y-96047585D01*
X99912276Y-96100812D01*
X99882129Y-96121952D01*
X99815084Y-96154324D01*
X99739796Y-96171755D01*
X99685025Y-96175075D01*
X99608093Y-96168484D01*
X99537263Y-96148709D01*
X99463784Y-96109965D01*
X99406026Y-96061940D01*
X99383141Y-96037322D01*
X99336746Y-95972638D01*
X99301746Y-95899117D01*
X99278142Y-95816761D01*
X99266979Y-95739138D01*
X99264072Y-95669493D01*
X99267578Y-95582996D01*
X99278097Y-95505087D01*
X99299976Y-95422929D01*
X99331953Y-95353137D01*
X99382021Y-95287340D01*
X99407687Y-95264294D01*
X99312066Y-95267591D01*
X99274697Y-95228390D01*
X99274697Y-95110421D01*
X99311700Y-95073052D01*
X99771487Y-95073052D01*
X99808489Y-95110421D01*
X99808489Y-95243045D01*
X99771487Y-95280414D01*
X99712502Y-95280414D01*
X99640564Y-95298295D01*
X99577676Y-95342087D01*
X99545806Y-95373837D01*
X99500791Y-95440834D01*
X99474532Y-95516243D01*
X99462527Y-95595292D01*
X99460443Y-95650442D01*
X99466669Y-95729711D01*
X99487897Y-95804841D01*
X99524191Y-95867329D01*
X99581311Y-95920226D01*
X99655403Y-95947034D01*
X99685025Y-95949029D01*
X99756895Y-95933147D01*
X99804459Y-95898837D01*
X99849614Y-95840493D01*
X99883461Y-95770989D01*
X99885426Y-95765846D01*
X99909942Y-95695312D01*
X99931177Y-95624945D01*
X99942945Y-95581565D01*
X99963502Y-95505625D01*
X99985604Y-95429478D01*
X100001197Y-95378599D01*
X100026785Y-95304428D01*
X100056289Y-95234687D01*
X100078134Y-95190654D01*
X100120491Y-95125665D01*
X100174337Y-95071195D01*
X100203064Y-95049604D01*
X100272793Y-95014260D01*
X100345746Y-94997628D01*
X100392108Y-94995016D01*
X100472390Y-95001555D01*
X100546221Y-95021172D01*
X100613601Y-95053868D01*
X100674529Y-95099642D01*
X100706448Y-95131670D01*
X100754556Y-95197750D01*
X100786387Y-95264408D01*
X100809537Y-95340314D01*
X100824005Y-95425468D01*
X100829431Y-95503494D01*
X100829913Y-95536502D01*
X100826109Y-95619635D01*
X100814696Y-95696246D01*
X100792336Y-95775816D01*
X100760039Y-95846867D01*
X100750412Y-95863299D01*
X100707225Y-95928536D01*
X100659164Y-95988436D01*
X100612659Y-96028896D01*
X100778256Y-96027064D01*
X100815259Y-96064067D01*
G37*
G36*
X100815259Y-93830344D02*
G01*
X100815259Y-94013892D01*
X100793202Y-94087523D01*
X100721051Y-94116374D01*
X100714875Y-94116474D01*
X100621143Y-94109519D01*
X100677706Y-94155079D01*
X100729598Y-94210810D01*
X100770900Y-94271944D01*
X100801611Y-94338480D01*
X100821733Y-94410418D01*
X100831264Y-94487759D01*
X100832111Y-94520208D01*
X100826982Y-94594809D01*
X100808950Y-94670524D01*
X100777935Y-94737545D01*
X100750046Y-94777396D01*
X100692837Y-94830526D01*
X100624251Y-94863978D01*
X100544288Y-94877752D01*
X100526930Y-94878146D01*
X100452841Y-94870713D01*
X100379459Y-94844014D01*
X100318122Y-94797898D01*
X100268829Y-94732364D01*
X100263514Y-94722807D01*
X100230966Y-94649517D01*
X100209431Y-94578214D01*
X100193769Y-94499079D01*
X100183980Y-94412113D01*
X100180309Y-94333660D01*
X100179983Y-94300756D01*
X100179983Y-94290497D01*
X100329826Y-94290497D01*
X100331298Y-94368803D01*
X100336261Y-94442674D01*
X100342282Y-94490166D01*
X100361333Y-94561882D01*
X100394306Y-94620958D01*
X100454928Y-94665981D01*
X100502017Y-94673348D01*
X100574366Y-94653458D01*
X100614491Y-94616928D01*
X100647738Y-94551349D01*
X100658778Y-94473232D01*
X100658821Y-94467451D01*
X100650511Y-94383698D01*
X100625582Y-94306185D01*
X100584033Y-94234914D01*
X100535192Y-94178791D01*
X100485164Y-94135525D01*
X100329826Y-94135525D01*
X100329826Y-94290497D01*
X100179983Y-94290497D01*
X100179983Y-94135525D01*
X100166061Y-94135525D01*
X100080400Y-94144747D01*
X100012463Y-94172414D01*
X99955602Y-94228002D01*
X99926064Y-94295631D01*
X99914249Y-94381704D01*
X99914002Y-94397842D01*
X99916816Y-94476384D01*
X99928537Y-94552179D01*
X99937816Y-94579925D01*
X99969435Y-94647134D01*
X99976284Y-94659060D01*
X99998633Y-94694964D01*
X100000098Y-94757978D01*
X99926825Y-94816597D01*
X99877366Y-94811467D01*
X99830013Y-94755047D01*
X99795340Y-94687247D01*
X99783943Y-94659793D01*
X99760179Y-94584645D01*
X99746317Y-94510282D01*
X99739584Y-94429544D01*
X99738880Y-94391614D01*
X99742693Y-94310362D01*
X99754130Y-94237101D01*
X99781241Y-94151853D01*
X99821908Y-94080813D01*
X99876129Y-94023980D01*
X99943907Y-93981356D01*
X100025240Y-93952940D01*
X100120128Y-93938732D01*
X100172656Y-93936956D01*
X100650395Y-93936956D01*
X100650395Y-93830344D01*
X100687397Y-93793341D01*
X100778256Y-93793341D01*
X100815259Y-93830344D01*
G37*
G36*
X100688130Y-92996499D02*
G01*
X100713776Y-92985142D01*
X100744550Y-93001628D01*
X100789566Y-93066608D01*
X100817909Y-93141104D01*
X100829163Y-93216288D01*
X100829913Y-93243062D01*
X100822378Y-93320406D01*
X100796332Y-93396828D01*
X100751681Y-93463231D01*
X100734658Y-93481199D01*
X100674383Y-93526182D01*
X100600719Y-93556444D01*
X100524000Y-93570984D01*
X100459519Y-93574255D01*
X99918399Y-93574255D01*
X99918399Y-93680501D01*
X99879198Y-93721900D01*
X99792736Y-93721900D01*
X99753535Y-93680501D01*
X99753535Y-93574255D01*
X99552034Y-93574255D01*
X99511002Y-93532856D01*
X99511002Y-93414887D01*
X99552034Y-93375686D01*
X99753535Y-93375686D01*
X99753535Y-93119231D01*
X99792736Y-93078198D01*
X99879198Y-93078198D01*
X99918399Y-93119231D01*
X99918399Y-93375686D01*
X100455489Y-93375686D01*
X100529241Y-93368430D01*
X100596939Y-93339579D01*
X100606797Y-93331722D01*
X100648400Y-93268618D01*
X100656623Y-93213387D01*
X100643707Y-93138244D01*
X100619986Y-93102012D01*
X100623284Y-93047057D01*
X100688130Y-92996499D01*
G37*
G36*
X100124519Y-90714416D02*
G01*
X100206338Y-90724308D01*
X100284025Y-90740794D01*
X100357578Y-90763875D01*
X100426998Y-90793551D01*
X100492285Y-90829821D01*
X100553440Y-90872685D01*
X100610461Y-90922144D01*
X100661895Y-90976618D01*
X100716544Y-91049540D01*
X100760477Y-91127829D01*
X100793695Y-91211485D01*
X100816197Y-91300507D01*
X100826484Y-91375589D01*
X100829913Y-91454105D01*
X100826450Y-91532587D01*
X100816060Y-91607749D01*
X100798743Y-91679591D01*
X100767357Y-91764724D01*
X100725149Y-91844670D01*
X100672117Y-91919427D01*
X100621899Y-91975498D01*
X100608263Y-91988997D01*
X100550761Y-92039229D01*
X100489263Y-92082763D01*
X100423770Y-92119600D01*
X100354281Y-92149739D01*
X100280796Y-92173181D01*
X100203316Y-92189925D01*
X100121840Y-92199971D01*
X100036368Y-92203320D01*
X99950982Y-92199868D01*
X99869947Y-92189513D01*
X99793262Y-92172254D01*
X99720928Y-92148091D01*
X99652945Y-92117024D01*
X99589312Y-92079054D01*
X99530030Y-92034180D01*
X99475098Y-91982403D01*
X99425639Y-91925839D01*
X99373088Y-91851384D01*
X99330842Y-91772761D01*
X99298900Y-91689969D01*
X99277261Y-91603009D01*
X99265927Y-91511882D01*
X99264072Y-91455204D01*
X99454215Y-91455204D01*
X99459702Y-91530222D01*
X99476163Y-91602225D01*
X99503597Y-91671215D01*
X99542005Y-91737190D01*
X99591387Y-91800152D01*
X99610286Y-91820470D01*
X99673051Y-91875128D01*
X99744290Y-91918478D01*
X99824004Y-91950519D01*
X99896907Y-91968581D01*
X99975695Y-91978790D01*
X100042963Y-91981303D01*
X100126513Y-91977448D01*
X100204285Y-91965883D01*
X100276278Y-91946608D01*
X100355044Y-91913300D01*
X100425489Y-91868890D01*
X100477837Y-91823400D01*
X100531499Y-91762345D01*
X100574059Y-91697606D01*
X100605516Y-91629183D01*
X100625871Y-91557077D01*
X100635123Y-91481286D01*
X100635740Y-91455204D01*
X100630189Y-91378100D01*
X100613535Y-91304783D01*
X100585779Y-91235253D01*
X100546920Y-91169509D01*
X100496958Y-91107552D01*
X100477837Y-91087741D01*
X100414326Y-91034328D01*
X100342494Y-90991965D01*
X100262342Y-90960654D01*
X100189192Y-90943003D01*
X100110265Y-90933027D01*
X100042963Y-90930571D01*
X99959370Y-90934479D01*
X99881698Y-90946206D01*
X99809947Y-90965749D01*
X99731663Y-90999521D01*
X99661905Y-91044549D01*
X99610286Y-91090672D01*
X99557247Y-91152268D01*
X99515181Y-91216982D01*
X99484088Y-91284812D01*
X99463970Y-91355759D01*
X99454825Y-91429824D01*
X99454215Y-91455204D01*
X99264072Y-91455204D01*
X99267369Y-91379917D01*
X99280765Y-91289671D01*
X99304464Y-91203718D01*
X99338467Y-91122059D01*
X99382774Y-91044693D01*
X99437385Y-90971621D01*
X99475098Y-90929838D01*
X99530064Y-90878576D01*
X99589449Y-90834148D01*
X99653254Y-90796556D01*
X99721478Y-90765798D01*
X99794121Y-90741876D01*
X99871184Y-90724789D01*
X99952665Y-90714536D01*
X100038566Y-90711119D01*
X100124519Y-90714416D01*
G37*
G36*
X100444322Y-89383417D02*
G01*
X100522638Y-89401024D01*
X100592996Y-89431603D01*
X100655394Y-89475155D01*
X100695091Y-89514206D01*
X100741914Y-89579753D01*
X100777237Y-89657781D01*
X100798360Y-89734597D01*
X100811034Y-89820584D01*
X100815141Y-89899245D01*
X100815259Y-89915742D01*
X100815259Y-90597546D01*
X100778256Y-90636747D01*
X100670545Y-90636747D01*
X100633542Y-90597546D01*
X100633542Y-90448802D01*
X99458245Y-90448802D01*
X99458245Y-90597546D01*
X99421242Y-90636747D01*
X99313531Y-90636747D01*
X99276529Y-90597546D01*
X99276529Y-89953844D01*
X99458245Y-89953844D01*
X99458245Y-90241806D01*
X99941480Y-90241806D01*
X99941480Y-89930396D01*
X99939901Y-89917940D01*
X100104145Y-89917940D01*
X100104145Y-90241806D01*
X100633542Y-90241806D01*
X100633542Y-89930396D01*
X100629306Y-89853620D01*
X100614413Y-89778140D01*
X100585290Y-89707801D01*
X100565764Y-89677971D01*
X100510423Y-89626660D01*
X100437591Y-89596647D01*
X100356204Y-89587846D01*
X100270544Y-89599451D01*
X100202606Y-89634265D01*
X100152391Y-89692290D01*
X100119899Y-89773524D01*
X100106361Y-89858948D01*
X100104145Y-89917940D01*
X99939901Y-89917940D01*
X99931949Y-89855229D01*
X99903833Y-89782750D01*
X99881030Y-89747581D01*
X99822756Y-89697293D01*
X99749537Y-89673628D01*
X99698214Y-89669911D01*
X99620290Y-89679565D01*
X99553451Y-89712117D01*
X99515764Y-89751611D01*
X99480714Y-89818174D01*
X99461840Y-89895866D01*
X99458245Y-89953844D01*
X99276529Y-89953844D01*
X99276529Y-89917940D01*
X99280586Y-89840368D01*
X99295575Y-89758332D01*
X99321609Y-89685413D01*
X99358687Y-89621610D01*
X99391933Y-89581618D01*
X99453918Y-89528884D01*
X99524832Y-89491217D01*
X99604676Y-89468617D01*
X99681866Y-89461201D01*
X99693451Y-89461084D01*
X99771615Y-89467034D01*
X99851673Y-89489018D01*
X99919738Y-89527201D01*
X99975813Y-89581582D01*
X100008524Y-89630344D01*
X100036594Y-89557835D01*
X100084233Y-89487047D01*
X100147096Y-89433955D01*
X100225183Y-89398561D01*
X100301885Y-89382584D01*
X100370859Y-89378652D01*
X100444322Y-89383417D01*
G37*
G36*
X100411891Y-87854576D02*
G01*
X100440101Y-87839189D01*
X100477471Y-87849447D01*
X100532792Y-87882420D01*
X100590235Y-87930276D01*
X100624016Y-87963020D01*
X100674823Y-88019703D01*
X100718706Y-88081216D01*
X100724034Y-88089782D01*
X100758936Y-88158394D01*
X100785726Y-88230488D01*
X100798039Y-88271133D01*
X100814848Y-88342931D01*
X100825431Y-88417735D01*
X100829789Y-88495545D01*
X100829913Y-88511467D01*
X100826496Y-88588152D01*
X100816243Y-88661585D01*
X100793816Y-88748804D01*
X100760709Y-88830943D01*
X100716922Y-88908001D01*
X100662456Y-88979979D01*
X100611194Y-89033903D01*
X100554401Y-89082933D01*
X100493385Y-89125425D01*
X100428143Y-89161381D01*
X100358677Y-89190798D01*
X100284986Y-89213679D01*
X100207071Y-89230022D01*
X100124931Y-89239828D01*
X100038566Y-89243097D01*
X99952333Y-89239794D01*
X99870588Y-89229885D01*
X99793331Y-89213370D01*
X99720562Y-89190249D01*
X99652281Y-89160522D01*
X99588488Y-89124189D01*
X99515057Y-89069483D01*
X99474365Y-89031705D01*
X99413783Y-88963525D01*
X99363469Y-88891105D01*
X99323422Y-88814446D01*
X99293645Y-88733547D01*
X99274135Y-88648409D01*
X99264894Y-88559030D01*
X99264072Y-88522092D01*
X99267158Y-88441933D01*
X99276414Y-88368150D01*
X99296662Y-88284890D01*
X99326553Y-88211594D01*
X99366086Y-88148262D01*
X99426252Y-88085416D01*
X99461543Y-88059374D01*
X99314630Y-88061206D01*
X99276529Y-88024203D01*
X99276529Y-87905867D01*
X99313531Y-87866666D01*
X99773685Y-87866666D01*
X99812886Y-87905867D01*
X99812886Y-88038858D01*
X99773685Y-88075860D01*
X99754634Y-88075860D01*
X99678644Y-88097023D01*
X99618051Y-88142103D01*
X99568237Y-88196199D01*
X99561926Y-88204088D01*
X99517528Y-88272026D01*
X99485814Y-88347977D01*
X99468471Y-88421009D01*
X99460840Y-88500177D01*
X99460443Y-88523924D01*
X99467701Y-88606090D01*
X99489475Y-88684609D01*
X99525764Y-88759482D01*
X99568423Y-88820756D01*
X99612118Y-88869772D01*
X99673479Y-88921940D01*
X99743803Y-88963315D01*
X99823093Y-88993896D01*
X99896015Y-89011136D01*
X99975162Y-89020880D01*
X100042963Y-89023278D01*
X100127039Y-89019504D01*
X100205014Y-89008180D01*
X100276890Y-88989307D01*
X100355089Y-88956695D01*
X100424503Y-88913212D01*
X100475639Y-88868673D01*
X100527807Y-88808678D01*
X100569182Y-88744922D01*
X100599763Y-88677405D01*
X100619551Y-88606127D01*
X100628546Y-88531088D01*
X100629145Y-88505239D01*
X100625603Y-88423859D01*
X100614977Y-88349254D01*
X100593627Y-88270777D01*
X100562635Y-88201522D01*
X100528395Y-88149500D01*
X100478865Y-88091210D01*
X100424215Y-88039489D01*
X100369393Y-88000756D01*
X100352907Y-87943236D01*
X100411891Y-87854576D01*
G37*
G36*
X100815259Y-85981356D02*
G01*
X100815259Y-86164904D01*
X100793202Y-86238535D01*
X100721051Y-86267386D01*
X100714875Y-86267486D01*
X100621143Y-86260531D01*
X100677706Y-86306091D01*
X100729598Y-86361822D01*
X100770900Y-86422956D01*
X100801611Y-86489492D01*
X100821733Y-86561430D01*
X100831264Y-86638771D01*
X100832111Y-86671220D01*
X100826982Y-86745821D01*
X100808950Y-86821536D01*
X100777935Y-86888557D01*
X100750046Y-86928407D01*
X100692837Y-86981537D01*
X100624251Y-87014990D01*
X100544288Y-87028764D01*
X100526930Y-87029158D01*
X100452841Y-87021724D01*
X100379459Y-86995026D01*
X100318122Y-86948910D01*
X100268829Y-86883376D01*
X100263514Y-86873819D01*
X100230966Y-86800529D01*
X100209431Y-86729226D01*
X100193769Y-86650091D01*
X100183980Y-86563125D01*
X100180309Y-86484672D01*
X100179983Y-86451768D01*
X100179983Y-86441509D01*
X100329826Y-86441509D01*
X100331298Y-86519815D01*
X100336261Y-86593686D01*
X100342282Y-86641178D01*
X100361333Y-86712894D01*
X100394306Y-86771970D01*
X100454928Y-86816993D01*
X100502017Y-86824360D01*
X100574366Y-86804470D01*
X100614491Y-86767940D01*
X100647738Y-86702361D01*
X100658778Y-86624244D01*
X100658821Y-86618463D01*
X100650511Y-86534710D01*
X100625582Y-86457197D01*
X100584033Y-86385926D01*
X100535192Y-86329803D01*
X100485164Y-86286537D01*
X100329826Y-86286537D01*
X100329826Y-86441509D01*
X100179983Y-86441509D01*
X100179983Y-86286537D01*
X100166061Y-86286537D01*
X100080400Y-86295759D01*
X100012463Y-86323426D01*
X99955602Y-86379014D01*
X99926064Y-86446643D01*
X99914249Y-86532715D01*
X99914002Y-86548854D01*
X99916816Y-86627396D01*
X99928537Y-86703190D01*
X99937816Y-86730937D01*
X99969435Y-86798146D01*
X99976284Y-86810072D01*
X99998633Y-86845975D01*
X100000098Y-86908990D01*
X99926825Y-86967608D01*
X99877366Y-86962479D01*
X99830013Y-86906059D01*
X99795340Y-86838259D01*
X99783943Y-86810805D01*
X99760179Y-86735657D01*
X99746317Y-86661294D01*
X99739584Y-86580556D01*
X99738880Y-86542626D01*
X99742693Y-86461374D01*
X99754130Y-86388113D01*
X99781241Y-86302865D01*
X99821908Y-86231824D01*
X99876129Y-86174992D01*
X99943907Y-86132368D01*
X100025240Y-86103952D01*
X100120128Y-86089744D01*
X100172656Y-86087968D01*
X100650395Y-86087968D01*
X100650395Y-85981356D01*
X100687397Y-85944353D01*
X100778256Y-85944353D01*
X100815259Y-85981356D01*
G37*
G36*
X100815259Y-84681495D02*
G01*
X100815259Y-84881897D01*
X100793202Y-84955527D01*
X100721051Y-84984378D01*
X100714875Y-84984479D01*
X100159833Y-84984479D01*
X100085136Y-84991102D01*
X100013379Y-85016009D01*
X99978116Y-85040532D01*
X99934288Y-85099357D01*
X99915568Y-85172063D01*
X99914002Y-85204664D01*
X99922017Y-85278555D01*
X99950192Y-85351336D01*
X99998653Y-85413163D01*
X100042230Y-85448296D01*
X100084728Y-85473575D01*
X100650395Y-85473575D01*
X100650395Y-85373557D01*
X100687397Y-85334357D01*
X100778256Y-85334357D01*
X100815259Y-85373557D01*
X100815259Y-85776558D01*
X100778256Y-85815759D01*
X100687397Y-85815759D01*
X100650395Y-85776558D01*
X100650395Y-85672144D01*
X99918399Y-85672144D01*
X99918399Y-85776558D01*
X99881396Y-85815759D01*
X99790538Y-85815759D01*
X99753535Y-85776558D01*
X99753535Y-85529629D01*
X99790538Y-85490428D01*
X99928291Y-85500320D01*
X99923162Y-85506548D01*
X99860535Y-85461000D01*
X99810865Y-85406513D01*
X99774153Y-85343088D01*
X99750398Y-85270724D01*
X99739600Y-85189421D01*
X99738880Y-85160333D01*
X99745292Y-85078222D01*
X99764526Y-85005545D01*
X99801491Y-84935059D01*
X99841462Y-84888491D01*
X99904787Y-84840677D01*
X99979355Y-84808107D01*
X100055078Y-84791953D01*
X100117701Y-84787741D01*
X100650395Y-84787741D01*
X100650395Y-84681495D01*
X100687397Y-84642294D01*
X100778256Y-84642294D01*
X100815259Y-84681495D01*
G37*
G36*
X100815259Y-83449779D02*
G01*
X100815259Y-83633327D01*
X100797587Y-83705175D01*
X100792178Y-83712096D01*
X100721488Y-83737641D01*
X100714875Y-83737741D01*
X100606220Y-83728801D01*
X100671346Y-83758938D01*
X100730148Y-83809719D01*
X100761403Y-83848383D01*
X100797531Y-83912153D01*
X100820279Y-83983938D01*
X100829645Y-84063737D01*
X100829913Y-84080658D01*
X100824594Y-84158870D01*
X100808635Y-84231388D01*
X100776571Y-84308798D01*
X100730026Y-84378459D01*
X100678605Y-84432001D01*
X100618605Y-84477944D01*
X100552089Y-84514382D01*
X100479055Y-84541314D01*
X100399504Y-84558740D01*
X100313435Y-84566662D01*
X100283298Y-84567190D01*
X100209338Y-84563889D01*
X100126631Y-84551215D01*
X100050519Y-84529036D01*
X99981001Y-84497351D01*
X99918078Y-84456161D01*
X99889090Y-84432001D01*
X99838042Y-84378382D01*
X99791835Y-84308435D01*
X99760003Y-84230530D01*
X99744161Y-84157418D01*
X99738880Y-84078460D01*
X99740475Y-84057577D01*
X99909972Y-84057577D01*
X99919704Y-84136002D01*
X99948899Y-84206413D01*
X99997556Y-84268809D01*
X100009623Y-84280327D01*
X100071328Y-84324070D01*
X100144335Y-84353498D01*
X100218719Y-84367637D01*
X100280367Y-84370818D01*
X100361562Y-84365277D01*
X100434423Y-84348653D01*
X100506428Y-84316705D01*
X100555140Y-84282158D01*
X100605259Y-84228549D01*
X100641710Y-84160213D01*
X100657910Y-84082647D01*
X100658821Y-84057577D01*
X100648767Y-83977349D01*
X100618607Y-83906566D01*
X100568339Y-83845229D01*
X100555873Y-83834095D01*
X100492458Y-83791591D01*
X100418031Y-83762997D01*
X100342629Y-83749259D01*
X100280367Y-83746167D01*
X100198553Y-83751777D01*
X100126036Y-83768607D01*
X100055566Y-83800952D01*
X100008891Y-83835927D01*
X99956727Y-83895983D01*
X99923883Y-83964412D01*
X99910359Y-84041212D01*
X99909972Y-84057577D01*
X99740475Y-84057577D01*
X99744962Y-83998826D01*
X99765703Y-83921394D01*
X99801162Y-83854611D01*
X99851669Y-83795810D01*
X99915571Y-83750713D01*
X99944384Y-83738494D01*
X99887624Y-83748366D01*
X99441392Y-83748366D01*
X99441392Y-83854978D01*
X99404390Y-83894179D01*
X99313531Y-83894179D01*
X99276529Y-83854978D01*
X99276529Y-83593394D01*
X99313531Y-83556024D01*
X100650395Y-83556024D01*
X100650395Y-83449779D01*
X100687397Y-83412776D01*
X100778256Y-83412776D01*
X100815259Y-83449779D01*
G37*
G36*
X100411891Y-81216056D02*
G01*
X100440101Y-81200668D01*
X100477471Y-81210927D01*
X100532792Y-81243899D01*
X100590235Y-81291756D01*
X100624016Y-81324500D01*
X100674823Y-81381182D01*
X100718706Y-81442695D01*
X100724034Y-81451262D01*
X100758936Y-81519873D01*
X100785726Y-81591967D01*
X100798039Y-81632612D01*
X100814848Y-81704411D01*
X100825431Y-81779215D01*
X100829789Y-81857024D01*
X100829913Y-81872947D01*
X100826496Y-81949632D01*
X100816243Y-82023065D01*
X100793816Y-82110284D01*
X100760709Y-82192422D01*
X100716922Y-82269480D01*
X100662456Y-82341458D01*
X100611194Y-82395382D01*
X100554401Y-82444412D01*
X100493385Y-82486905D01*
X100428143Y-82522860D01*
X100358677Y-82552278D01*
X100284986Y-82575158D01*
X100207071Y-82591502D01*
X100124931Y-82601308D01*
X100038566Y-82604576D01*
X99952333Y-82601273D01*
X99870588Y-82591364D01*
X99793331Y-82574849D01*
X99720562Y-82551728D01*
X99652281Y-82522001D01*
X99588488Y-82485668D01*
X99515057Y-82430962D01*
X99474365Y-82393184D01*
X99413783Y-82325004D01*
X99363469Y-82252585D01*
X99323422Y-82175925D01*
X99293645Y-82095027D01*
X99274135Y-82009888D01*
X99264894Y-81920510D01*
X99264072Y-81883571D01*
X99267158Y-81803412D01*
X99276414Y-81729630D01*
X99296662Y-81646370D01*
X99326553Y-81573073D01*
X99366086Y-81509741D01*
X99426252Y-81446896D01*
X99461543Y-81420853D01*
X99314630Y-81422685D01*
X99276529Y-81385682D01*
X99276529Y-81267347D01*
X99313531Y-81228146D01*
X99773685Y-81228146D01*
X99812886Y-81267347D01*
X99812886Y-81400337D01*
X99773685Y-81437340D01*
X99754634Y-81437340D01*
X99678644Y-81458502D01*
X99618051Y-81503582D01*
X99568237Y-81557678D01*
X99561926Y-81565567D01*
X99517528Y-81633505D01*
X99485814Y-81709457D01*
X99468471Y-81782489D01*
X99460840Y-81861657D01*
X99460443Y-81885403D01*
X99467701Y-81967569D01*
X99489475Y-82046088D01*
X99525764Y-82120961D01*
X99568423Y-82182236D01*
X99612118Y-82231251D01*
X99673479Y-82283419D01*
X99743803Y-82324794D01*
X99823093Y-82355376D01*
X99896015Y-82372615D01*
X99975162Y-82382359D01*
X100042963Y-82384758D01*
X100127039Y-82380983D01*
X100205014Y-82369660D01*
X100276890Y-82350787D01*
X100355089Y-82318175D01*
X100424503Y-82274692D01*
X100475639Y-82230152D01*
X100527807Y-82170157D01*
X100569182Y-82106401D01*
X100599763Y-82038884D01*
X100619551Y-81967606D01*
X100628546Y-81892567D01*
X100629145Y-81866719D01*
X100625603Y-81785339D01*
X100614977Y-81710733D01*
X100593627Y-81632257D01*
X100562635Y-81563001D01*
X100528395Y-81510979D01*
X100478865Y-81452690D01*
X100424215Y-81400969D01*
X100369393Y-81362235D01*
X100352907Y-81304716D01*
X100411891Y-81216056D01*
G37*
G36*
X100355825Y-80060207D02*
G01*
X100439356Y-80074392D01*
X100516189Y-80099216D01*
X100586325Y-80134679D01*
X100649763Y-80180781D01*
X100678971Y-80207821D01*
X100730268Y-80267374D01*
X100770951Y-80332826D01*
X100801022Y-80404177D01*
X100820479Y-80481427D01*
X100829323Y-80564576D01*
X100829913Y-80593603D01*
X100824645Y-80678731D01*
X100808841Y-80757986D01*
X100782502Y-80831368D01*
X100745626Y-80898876D01*
X100698215Y-80960511D01*
X100680070Y-80979751D01*
X100620277Y-81031048D01*
X100553554Y-81071731D01*
X100479902Y-81101802D01*
X100399321Y-81121259D01*
X100311810Y-81130103D01*
X100281099Y-81130693D01*
X100205857Y-81126954D01*
X100122154Y-81112597D01*
X100045638Y-81087473D01*
X99976310Y-81051580D01*
X99914168Y-81004920D01*
X99885792Y-80977553D01*
X99835865Y-80917244D01*
X99796268Y-80851449D01*
X99767000Y-80780167D01*
X99748062Y-80703398D01*
X99739454Y-80621142D01*
X99738880Y-80592504D01*
X99738925Y-80591771D01*
X99909972Y-80591771D01*
X99918058Y-80666626D01*
X99946007Y-80742661D01*
X99988231Y-80804669D01*
X100012188Y-80830274D01*
X100074753Y-80878445D01*
X100147866Y-80910851D01*
X100221711Y-80926422D01*
X100282565Y-80929925D01*
X100362638Y-80923812D01*
X100434698Y-80905470D01*
X100506185Y-80870221D01*
X100554774Y-80832106D01*
X100605070Y-80773457D01*
X100638906Y-80707969D01*
X100656281Y-80635641D01*
X100658821Y-80592504D01*
X100650591Y-80516406D01*
X100625900Y-80447205D01*
X100584748Y-80384901D01*
X100554774Y-80353268D01*
X100491175Y-80305805D01*
X100417434Y-80273876D01*
X100343371Y-80258534D01*
X100282565Y-80255082D01*
X100202468Y-80261265D01*
X100130707Y-80279812D01*
X100059938Y-80315457D01*
X100012188Y-80354001D01*
X99962777Y-80412801D01*
X99926842Y-80485544D01*
X99911570Y-80557682D01*
X99909972Y-80591771D01*
X99738925Y-80591771D01*
X99744084Y-80508470D01*
X99759694Y-80430027D01*
X99785712Y-80357173D01*
X99822137Y-80289910D01*
X99868968Y-80228236D01*
X99886891Y-80208920D01*
X99945736Y-80157126D01*
X100011535Y-80116047D01*
X100084290Y-80085685D01*
X100164000Y-80066038D01*
X100250665Y-80057108D01*
X100281099Y-80056513D01*
X100355825Y-80060207D01*
G37*
G36*
X100815259Y-78141893D02*
G01*
X100815259Y-78342294D01*
X100797587Y-78414503D01*
X100792178Y-78421429D01*
X100721488Y-78446974D01*
X100714875Y-78447075D01*
X100159833Y-78447075D01*
X100085136Y-78453568D01*
X100013379Y-78477987D01*
X99978116Y-78502029D01*
X99932097Y-78565302D01*
X99915004Y-78639153D01*
X99914002Y-78665428D01*
X99922475Y-78741151D01*
X99952260Y-78815555D01*
X100003490Y-78878542D01*
X100049557Y-78914189D01*
X100123473Y-78902568D01*
X100132355Y-78902465D01*
X100650395Y-78902465D01*
X100650395Y-78796220D01*
X100687397Y-78759217D01*
X100778256Y-78759217D01*
X100815259Y-78796220D01*
X100815259Y-79199220D01*
X100778256Y-79238421D01*
X100687397Y-79238421D01*
X100650395Y-79199220D01*
X100650395Y-79099203D01*
X100159833Y-79099203D01*
X100085136Y-79105827D01*
X100013379Y-79130733D01*
X99978116Y-79155257D01*
X99934288Y-79214081D01*
X99915568Y-79286787D01*
X99914002Y-79319388D01*
X99920322Y-79392661D01*
X99939282Y-79446150D01*
X99980286Y-79508019D01*
X99983978Y-79512462D01*
X100021347Y-79548732D01*
X100084544Y-79587329D01*
X100086560Y-79588299D01*
X100650395Y-79588299D01*
X100650395Y-79496708D01*
X100687397Y-79459705D01*
X100778256Y-79459705D01*
X100815259Y-79496708D01*
X100815259Y-79891283D01*
X100778256Y-79930484D01*
X100687397Y-79930484D01*
X100650395Y-79891283D01*
X100650395Y-79786869D01*
X99918399Y-79786869D01*
X99918399Y-79891283D01*
X99881396Y-79930484D01*
X99790538Y-79930484D01*
X99753535Y-79891283D01*
X99753535Y-79684653D01*
X99770388Y-79624936D01*
X99829006Y-79605152D01*
X99928291Y-79615044D01*
X99923162Y-79621272D01*
X99860535Y-79575685D01*
X99810865Y-79521083D01*
X99774153Y-79457464D01*
X99750398Y-79384830D01*
X99739600Y-79303179D01*
X99738880Y-79273959D01*
X99744625Y-79190247D01*
X99761858Y-79117716D01*
X99796485Y-79047226D01*
X99846749Y-78991953D01*
X99902279Y-78956687D01*
X99838611Y-78902206D01*
X99790581Y-78836855D01*
X99758188Y-78760634D01*
X99742869Y-78686652D01*
X99738880Y-78618899D01*
X99745292Y-78536696D01*
X99764526Y-78464111D01*
X99801491Y-78393947D01*
X99841462Y-78347790D01*
X99904787Y-78300858D01*
X99979355Y-78269286D01*
X100055078Y-78254117D01*
X100117701Y-78250703D01*
X100650395Y-78248505D01*
X100650395Y-78141893D01*
X100687397Y-78102692D01*
X100778256Y-78102692D01*
X100815259Y-78141893D01*
G37*
G36*
X100815259Y-76195766D02*
G01*
X100815259Y-76396167D01*
X100797587Y-76468376D01*
X100792178Y-76475302D01*
X100721488Y-76500847D01*
X100714875Y-76500948D01*
X100159833Y-76500948D01*
X100085136Y-76507441D01*
X100013379Y-76531860D01*
X99978116Y-76555902D01*
X99932097Y-76619175D01*
X99915004Y-76693026D01*
X99914002Y-76719301D01*
X99922475Y-76795024D01*
X99952260Y-76869428D01*
X100003490Y-76932414D01*
X100049557Y-76968062D01*
X100123473Y-76956441D01*
X100132355Y-76956338D01*
X100650395Y-76956338D01*
X100650395Y-76850093D01*
X100687397Y-76813090D01*
X100778256Y-76813090D01*
X100815259Y-76850093D01*
X100815259Y-77253093D01*
X100778256Y-77292294D01*
X100687397Y-77292294D01*
X100650395Y-77253093D01*
X100650395Y-77153076D01*
X100159833Y-77153076D01*
X100085136Y-77159700D01*
X100013379Y-77184606D01*
X99978116Y-77209130D01*
X99934288Y-77267954D01*
X99915568Y-77340660D01*
X99914002Y-77373261D01*
X99920322Y-77446534D01*
X99939282Y-77500023D01*
X99980286Y-77561892D01*
X99983978Y-77566335D01*
X100021347Y-77602605D01*
X100084544Y-77641202D01*
X100086560Y-77642172D01*
X100650395Y-77642172D01*
X100650395Y-77550581D01*
X100687397Y-77513578D01*
X100778256Y-77513578D01*
X100815259Y-77550581D01*
X100815259Y-77945156D01*
X100778256Y-77984357D01*
X100687397Y-77984357D01*
X100650395Y-77945156D01*
X100650395Y-77840742D01*
X99918399Y-77840742D01*
X99918399Y-77945156D01*
X99881396Y-77984357D01*
X99790538Y-77984357D01*
X99753535Y-77945156D01*
X99753535Y-77738526D01*
X99770388Y-77678809D01*
X99829006Y-77659025D01*
X99928291Y-77668917D01*
X99923162Y-77675145D01*
X99860535Y-77629558D01*
X99810865Y-77574956D01*
X99774153Y-77511337D01*
X99750398Y-77438703D01*
X99739600Y-77357052D01*
X99738880Y-77327832D01*
X99744625Y-77244120D01*
X99761858Y-77171589D01*
X99796485Y-77101099D01*
X99846749Y-77045826D01*
X99902279Y-77010560D01*
X99838611Y-76956079D01*
X99790581Y-76890728D01*
X99758188Y-76814507D01*
X99742869Y-76740525D01*
X99738880Y-76672772D01*
X99745292Y-76590569D01*
X99764526Y-76517984D01*
X99801491Y-76447820D01*
X99841462Y-76401663D01*
X99904787Y-76354731D01*
X99979355Y-76323159D01*
X100055078Y-76307990D01*
X100117701Y-76304576D01*
X100650395Y-76302378D01*
X100650395Y-76195766D01*
X100687397Y-76156565D01*
X100778256Y-76156565D01*
X100815259Y-76195766D01*
G37*
G36*
X100829913Y-75587235D02*
G01*
X100825595Y-75664116D01*
X100810669Y-75738934D01*
X100781935Y-75808342D01*
X100775325Y-75819510D01*
X100728822Y-75882201D01*
X100672743Y-75922825D01*
X100670545Y-75918795D01*
X100746382Y-75910002D01*
X100776058Y-75907071D01*
X100815259Y-75948104D01*
X100815259Y-76019911D01*
X100776058Y-76059112D01*
X100459519Y-76059112D01*
X100420318Y-76019911D01*
X100420318Y-75937846D01*
X100459519Y-75896447D01*
X100499819Y-75896447D01*
X100566281Y-75857373D01*
X100608629Y-75812183D01*
X100645689Y-75748968D01*
X100665644Y-75674727D01*
X100669446Y-75619109D01*
X100664075Y-75542786D01*
X100640204Y-75465586D01*
X100583510Y-75408564D01*
X100516672Y-75394527D01*
X100451276Y-75429355D01*
X100433873Y-75456443D01*
X100403373Y-75525961D01*
X100380743Y-75599862D01*
X100377820Y-75611415D01*
X100357917Y-75687265D01*
X100337507Y-75757710D01*
X100324697Y-75798994D01*
X100293818Y-75871202D01*
X100250000Y-75934825D01*
X100225412Y-75961293D01*
X100163106Y-76005413D01*
X100088707Y-76027041D01*
X100050290Y-76029437D01*
X99974556Y-76021293D01*
X99901283Y-75993143D01*
X99839459Y-75944886D01*
X99823144Y-75926488D01*
X99782411Y-75864233D01*
X99755009Y-75793284D01*
X99740937Y-75713640D01*
X99738880Y-75665637D01*
X99743285Y-75589422D01*
X99759559Y-75511704D01*
X99792841Y-75437653D01*
X99841785Y-75379355D01*
X99864177Y-75361555D01*
X99868940Y-75365951D01*
X99796571Y-75377492D01*
X99794934Y-75377675D01*
X99755733Y-75338474D01*
X99755733Y-75270696D01*
X99794934Y-75231862D01*
X100088025Y-75231862D01*
X100127226Y-75270696D01*
X100127226Y-75353128D01*
X100088025Y-75394527D01*
X100058716Y-75394527D01*
X99990443Y-75421666D01*
X99954302Y-75457542D01*
X99916435Y-75524808D01*
X99902370Y-75596909D01*
X99901546Y-75621673D01*
X99908378Y-75696272D01*
X99935547Y-75767336D01*
X99942945Y-75778111D01*
X100000244Y-75823996D01*
X100048824Y-75833066D01*
X100118691Y-75808594D01*
X100150307Y-75770417D01*
X100183280Y-75699617D01*
X100206121Y-75624895D01*
X100208926Y-75613247D01*
X100227753Y-75536383D01*
X100246850Y-75464787D01*
X100258751Y-75422738D01*
X100284992Y-75354061D01*
X100325512Y-75288383D01*
X100352540Y-75256775D01*
X100414586Y-75211942D01*
X100486886Y-75190845D01*
X100535723Y-75187532D01*
X100612737Y-75199307D01*
X100683085Y-75234632D01*
X100741253Y-75287183D01*
X100784111Y-75351206D01*
X100810432Y-75421496D01*
X100825671Y-75504381D01*
X100829913Y-75587235D01*
G37*
G36*
X100444322Y-73116844D02*
G01*
X100522638Y-73134450D01*
X100592996Y-73165029D01*
X100655394Y-73208581D01*
X100695091Y-73247633D01*
X100741914Y-73313179D01*
X100777237Y-73391208D01*
X100798360Y-73468024D01*
X100811034Y-73554011D01*
X100815141Y-73632672D01*
X100815259Y-73649168D01*
X100815259Y-74330972D01*
X100778256Y-74370173D01*
X100670545Y-74370173D01*
X100633542Y-74330972D01*
X100633542Y-74182228D01*
X99458245Y-74182228D01*
X99458245Y-74330972D01*
X99421242Y-74370173D01*
X99313531Y-74370173D01*
X99276529Y-74330972D01*
X99276529Y-73687270D01*
X99458245Y-73687270D01*
X99458245Y-73975232D01*
X99941480Y-73975232D01*
X99941480Y-73663823D01*
X99939901Y-73651366D01*
X100104145Y-73651366D01*
X100104145Y-73975232D01*
X100633542Y-73975232D01*
X100633542Y-73663823D01*
X100629306Y-73587046D01*
X100614413Y-73511566D01*
X100585290Y-73441227D01*
X100565764Y-73411398D01*
X100510423Y-73360086D01*
X100437591Y-73330073D01*
X100356204Y-73321272D01*
X100270544Y-73332877D01*
X100202606Y-73367692D01*
X100152391Y-73425716D01*
X100119899Y-73506950D01*
X100106361Y-73592375D01*
X100104145Y-73651366D01*
X99939901Y-73651366D01*
X99931949Y-73588655D01*
X99903833Y-73516177D01*
X99881030Y-73481007D01*
X99822756Y-73430719D01*
X99749537Y-73407054D01*
X99698214Y-73403338D01*
X99620290Y-73412992D01*
X99553451Y-73445544D01*
X99515764Y-73485037D01*
X99480714Y-73551601D01*
X99461840Y-73629293D01*
X99458245Y-73687270D01*
X99276529Y-73687270D01*
X99276529Y-73651366D01*
X99280586Y-73573794D01*
X99295575Y-73491759D01*
X99321609Y-73418839D01*
X99358687Y-73355036D01*
X99391933Y-73315044D01*
X99453918Y-73262310D01*
X99524832Y-73224644D01*
X99604676Y-73202043D01*
X99681866Y-73194628D01*
X99693451Y-73194510D01*
X99771615Y-73200461D01*
X99851673Y-73222445D01*
X99919738Y-73260627D01*
X99975813Y-73315009D01*
X100008524Y-73363770D01*
X100036594Y-73291261D01*
X100084233Y-73220473D01*
X100147096Y-73167382D01*
X100225183Y-73131987D01*
X100301885Y-73116011D01*
X100370859Y-73112078D01*
X100444322Y-73116844D01*
G37*
G36*
X100355825Y-71891749D02*
G01*
X100439356Y-71905934D01*
X100516189Y-71930758D01*
X100586325Y-71966221D01*
X100649763Y-72012323D01*
X100678971Y-72039363D01*
X100730268Y-72098916D01*
X100770951Y-72164368D01*
X100801022Y-72235719D01*
X100820479Y-72312969D01*
X100829323Y-72396118D01*
X100829913Y-72425145D01*
X100824645Y-72510273D01*
X100808841Y-72589528D01*
X100782502Y-72662910D01*
X100745626Y-72730418D01*
X100698215Y-72792053D01*
X100680070Y-72811293D01*
X100620277Y-72862590D01*
X100553554Y-72903273D01*
X100479902Y-72933344D01*
X100399321Y-72952801D01*
X100311810Y-72961645D01*
X100281099Y-72962235D01*
X100205857Y-72958496D01*
X100122154Y-72944139D01*
X100045638Y-72919015D01*
X99976310Y-72883123D01*
X99914168Y-72836463D01*
X99885792Y-72809095D01*
X99835865Y-72748786D01*
X99796268Y-72682991D01*
X99767000Y-72611709D01*
X99748062Y-72534940D01*
X99739454Y-72452684D01*
X99738880Y-72424046D01*
X99738925Y-72423313D01*
X99909972Y-72423313D01*
X99918058Y-72498169D01*
X99946007Y-72574203D01*
X99988231Y-72636211D01*
X100012188Y-72661816D01*
X100074753Y-72709988D01*
X100147866Y-72742394D01*
X100221711Y-72757964D01*
X100282565Y-72761467D01*
X100362638Y-72755354D01*
X100434698Y-72737013D01*
X100506185Y-72701763D01*
X100554774Y-72663648D01*
X100605070Y-72604999D01*
X100638906Y-72539511D01*
X100656281Y-72467183D01*
X100658821Y-72424046D01*
X100650591Y-72347948D01*
X100625900Y-72278747D01*
X100584748Y-72216443D01*
X100554774Y-72184810D01*
X100491175Y-72137347D01*
X100417434Y-72105418D01*
X100343371Y-72090076D01*
X100282565Y-72086624D01*
X100202468Y-72092807D01*
X100130707Y-72111354D01*
X100059938Y-72146999D01*
X100012188Y-72185543D01*
X99962777Y-72244343D01*
X99926842Y-72317087D01*
X99911570Y-72389224D01*
X99909972Y-72423313D01*
X99738925Y-72423313D01*
X99744084Y-72340013D01*
X99759694Y-72261569D01*
X99785712Y-72188716D01*
X99822137Y-72121452D01*
X99868968Y-72059778D01*
X99886891Y-72040463D01*
X99945736Y-71988668D01*
X100011535Y-71947589D01*
X100084290Y-71917227D01*
X100164000Y-71897581D01*
X100250665Y-71888650D01*
X100281099Y-71888055D01*
X100355825Y-71891749D01*
G37*
G36*
X100815259Y-70721551D02*
G01*
X100815259Y-70905100D01*
X100793202Y-70978730D01*
X100721051Y-71007582D01*
X100714875Y-71007682D01*
X100621143Y-71000726D01*
X100677706Y-71046287D01*
X100729598Y-71102018D01*
X100770900Y-71163151D01*
X100801611Y-71229687D01*
X100821733Y-71301625D01*
X100831264Y-71378966D01*
X100832111Y-71411415D01*
X100826982Y-71486016D01*
X100808950Y-71561731D01*
X100777935Y-71628752D01*
X100750046Y-71668603D01*
X100692837Y-71721733D01*
X100624251Y-71755185D01*
X100544288Y-71768959D01*
X100526930Y-71769353D01*
X100452841Y-71761920D01*
X100379459Y-71735221D01*
X100318122Y-71689105D01*
X100268829Y-71623572D01*
X100263514Y-71614015D01*
X100230966Y-71540725D01*
X100209431Y-71469421D01*
X100193769Y-71390286D01*
X100183980Y-71303321D01*
X100180309Y-71224867D01*
X100179983Y-71191963D01*
X100179983Y-71181705D01*
X100329826Y-71181705D01*
X100331298Y-71260010D01*
X100336261Y-71333882D01*
X100342282Y-71381373D01*
X100361333Y-71453089D01*
X100394306Y-71512165D01*
X100454928Y-71557188D01*
X100502017Y-71564555D01*
X100574366Y-71544665D01*
X100614491Y-71508135D01*
X100647738Y-71442556D01*
X100658778Y-71364439D01*
X100658821Y-71358659D01*
X100650511Y-71274905D01*
X100625582Y-71197393D01*
X100584033Y-71126121D01*
X100535192Y-71069999D01*
X100485164Y-71026733D01*
X100329826Y-71026733D01*
X100329826Y-71181705D01*
X100179983Y-71181705D01*
X100179983Y-71026733D01*
X100166061Y-71026733D01*
X100080400Y-71035955D01*
X100012463Y-71063621D01*
X99955602Y-71119210D01*
X99926064Y-71186838D01*
X99914249Y-71272911D01*
X99914002Y-71289049D01*
X99916816Y-71367591D01*
X99928537Y-71443386D01*
X99937816Y-71471133D01*
X99969435Y-71538341D01*
X99976284Y-71550267D01*
X99998633Y-71586171D01*
X100000098Y-71649186D01*
X99926825Y-71707804D01*
X99877366Y-71702675D01*
X99830013Y-71646255D01*
X99795340Y-71578454D01*
X99783943Y-71551000D01*
X99760179Y-71475852D01*
X99746317Y-71401490D01*
X99739584Y-71320751D01*
X99738880Y-71282821D01*
X99742693Y-71201569D01*
X99754130Y-71128309D01*
X99781241Y-71043060D01*
X99821908Y-70972020D01*
X99876129Y-70915188D01*
X99943907Y-70872563D01*
X100025240Y-70844147D01*
X100120128Y-70829939D01*
X100172656Y-70828163D01*
X100650395Y-70828163D01*
X100650395Y-70721551D01*
X100687397Y-70684548D01*
X100778256Y-70684548D01*
X100815259Y-70721551D01*
G37*
G36*
X100815259Y-70113753D02*
G01*
X100815259Y-70516754D01*
X100778256Y-70555955D01*
X100687397Y-70555955D01*
X100650395Y-70516754D01*
X100650395Y-70412340D01*
X99918399Y-70412340D01*
X99918399Y-70516754D01*
X99881396Y-70555955D01*
X99790538Y-70555955D01*
X99753535Y-70516754D01*
X99753535Y-70269824D01*
X99790538Y-70230623D01*
X100048092Y-70236119D01*
X100046993Y-70242347D01*
X99977152Y-70215296D01*
X99955402Y-70202047D01*
X99896574Y-70158224D01*
X99854285Y-70115951D01*
X99813741Y-70054752D01*
X99783768Y-69987272D01*
X99781745Y-69981862D01*
X99760871Y-69907091D01*
X99751048Y-69831631D01*
X99749505Y-69784758D01*
X99788339Y-69745557D01*
X99900447Y-69745557D01*
X99939648Y-69784758D01*
X99939648Y-69828721D01*
X99945030Y-69902525D01*
X99964361Y-69978414D01*
X99997752Y-70045281D01*
X100045202Y-70103127D01*
X100052122Y-70109723D01*
X100110259Y-70155244D01*
X100180207Y-70190908D01*
X100254966Y-70210112D01*
X100307478Y-70213770D01*
X100650395Y-70213770D01*
X100650395Y-70113753D01*
X100687397Y-70074552D01*
X100778256Y-70074552D01*
X100815259Y-70113753D01*
G37*
G36*
X100815259Y-68588578D02*
G01*
X100815259Y-68772127D01*
X100797587Y-68843974D01*
X100792178Y-68850895D01*
X100721488Y-68876441D01*
X100714875Y-68876541D01*
X100606217Y-68867600D01*
X100671346Y-68897738D01*
X100730148Y-68948519D01*
X100761403Y-68987183D01*
X100797531Y-69050953D01*
X100820279Y-69122738D01*
X100829645Y-69202536D01*
X100829913Y-69219458D01*
X100824594Y-69297669D01*
X100808635Y-69370188D01*
X100776571Y-69447598D01*
X100730026Y-69517259D01*
X100678605Y-69570801D01*
X100618605Y-69616744D01*
X100552089Y-69653181D01*
X100479055Y-69680114D01*
X100399504Y-69697540D01*
X100313435Y-69705461D01*
X100283298Y-69705989D01*
X100209338Y-69702689D01*
X100126631Y-69690015D01*
X100050519Y-69667836D01*
X99981001Y-69636151D01*
X99918078Y-69594961D01*
X99889090Y-69570801D01*
X99838042Y-69517182D01*
X99791835Y-69447235D01*
X99760003Y-69369329D01*
X99744161Y-69296218D01*
X99738880Y-69217260D01*
X99740475Y-69196377D01*
X99909972Y-69196377D01*
X99919704Y-69274802D01*
X99948899Y-69345212D01*
X99997556Y-69407609D01*
X100009623Y-69419126D01*
X100071328Y-69462870D01*
X100144335Y-69492297D01*
X100218719Y-69506437D01*
X100280367Y-69509618D01*
X100361562Y-69504077D01*
X100434423Y-69487453D01*
X100506428Y-69455504D01*
X100555140Y-69420958D01*
X100605259Y-69367348D01*
X100641710Y-69299013D01*
X100657910Y-69221447D01*
X100658821Y-69196377D01*
X100648767Y-69116149D01*
X100618607Y-69045366D01*
X100568339Y-68984029D01*
X100555873Y-68972895D01*
X100492458Y-68930391D01*
X100418031Y-68901797D01*
X100342629Y-68888058D01*
X100280367Y-68884967D01*
X100198553Y-68890577D01*
X100126036Y-68907407D01*
X100055566Y-68939752D01*
X100008891Y-68974726D01*
X99956727Y-69034783D01*
X99923883Y-69103211D01*
X99910359Y-69180012D01*
X99909972Y-69196377D01*
X99740475Y-69196377D01*
X99744962Y-69137625D01*
X99765703Y-69060193D01*
X99801162Y-68993411D01*
X99851669Y-68934609D01*
X99915571Y-68889512D01*
X99944381Y-68877294D01*
X99887624Y-68887165D01*
X99441392Y-68887165D01*
X99441392Y-68993777D01*
X99404390Y-69032978D01*
X99313531Y-69032978D01*
X99276529Y-68993777D01*
X99276529Y-68732193D01*
X99313531Y-68694824D01*
X100650395Y-68694824D01*
X100650395Y-68588578D01*
X100687397Y-68551576D01*
X100778256Y-68551576D01*
X100815259Y-68588578D01*
G37*
D11*
X83785097Y-59142008D02*
X83737478Y-59237246D01*
X83737478Y-59237246D02*
X83737478Y-59380103D01*
X83737478Y-59380103D02*
X83785097Y-59522960D01*
X83785097Y-59522960D02*
X83880335Y-59618198D01*
X83880335Y-59618198D02*
X83975573Y-59665817D01*
X83975573Y-59665817D02*
X84166049Y-59713436D01*
X84166049Y-59713436D02*
X84308906Y-59713436D01*
X84308906Y-59713436D02*
X84499382Y-59665817D01*
X84499382Y-59665817D02*
X84594620Y-59618198D01*
X84594620Y-59618198D02*
X84689859Y-59522960D01*
X84689859Y-59522960D02*
X84737478Y-59380103D01*
X84737478Y-59380103D02*
X84737478Y-59284865D01*
X84737478Y-59284865D02*
X84689859Y-59142008D01*
X84689859Y-59142008D02*
X84642239Y-59094389D01*
X84642239Y-59094389D02*
X84308906Y-59094389D01*
X84308906Y-59094389D02*
X84308906Y-59284865D01*
X84737478Y-58665817D02*
X83737478Y-58665817D01*
X83737478Y-58665817D02*
X84737478Y-58094389D01*
X84737478Y-58094389D02*
X83737478Y-58094389D01*
X84737478Y-57618198D02*
X83737478Y-57618198D01*
X83737478Y-57618198D02*
X83737478Y-57380103D01*
X83737478Y-57380103D02*
X83785097Y-57237246D01*
X83785097Y-57237246D02*
X83880335Y-57142008D01*
X83880335Y-57142008D02*
X83975573Y-57094389D01*
X83975573Y-57094389D02*
X84166049Y-57046770D01*
X84166049Y-57046770D02*
X84308906Y-57046770D01*
X84308906Y-57046770D02*
X84499382Y-57094389D01*
X84499382Y-57094389D02*
X84594620Y-57142008D01*
X84594620Y-57142008D02*
X84689859Y-57237246D01*
X84689859Y-57237246D02*
X84737478Y-57380103D01*
X84737478Y-57380103D02*
X84737478Y-57618198D01*
X79737478Y-63365817D02*
X80547001Y-63365817D01*
X80547001Y-63365817D02*
X80642239Y-63318198D01*
X80642239Y-63318198D02*
X80689859Y-63270579D01*
X80689859Y-63270579D02*
X80737478Y-63175341D01*
X80737478Y-63175341D02*
X80737478Y-62984865D01*
X80737478Y-62984865D02*
X80689859Y-62889627D01*
X80689859Y-62889627D02*
X80642239Y-62842008D01*
X80642239Y-62842008D02*
X80547001Y-62794389D01*
X80547001Y-62794389D02*
X79737478Y-62794389D01*
X79737478Y-62461055D02*
X80737478Y-62127722D01*
X80737478Y-62127722D02*
X79737478Y-61794389D01*
X74737478Y-59865817D02*
X73737478Y-59865817D01*
X73737478Y-59865817D02*
X74451763Y-59532484D01*
X74451763Y-59532484D02*
X73737478Y-59199151D01*
X73737478Y-59199151D02*
X74737478Y-59199151D01*
X73737478Y-58532484D02*
X73737478Y-58342008D01*
X73737478Y-58342008D02*
X73785097Y-58246770D01*
X73785097Y-58246770D02*
X73880335Y-58151532D01*
X73880335Y-58151532D02*
X74070811Y-58103913D01*
X74070811Y-58103913D02*
X74404144Y-58103913D01*
X74404144Y-58103913D02*
X74594620Y-58151532D01*
X74594620Y-58151532D02*
X74689859Y-58246770D01*
X74689859Y-58246770D02*
X74737478Y-58342008D01*
X74737478Y-58342008D02*
X74737478Y-58532484D01*
X74737478Y-58532484D02*
X74689859Y-58627722D01*
X74689859Y-58627722D02*
X74594620Y-58722960D01*
X74594620Y-58722960D02*
X74404144Y-58770579D01*
X74404144Y-58770579D02*
X74070811Y-58770579D01*
X74070811Y-58770579D02*
X73880335Y-58722960D01*
X73880335Y-58722960D02*
X73785097Y-58627722D01*
X73785097Y-58627722D02*
X73737478Y-58532484D01*
X74689859Y-57722960D02*
X74737478Y-57580103D01*
X74737478Y-57580103D02*
X74737478Y-57342008D01*
X74737478Y-57342008D02*
X74689859Y-57246770D01*
X74689859Y-57246770D02*
X74642239Y-57199151D01*
X74642239Y-57199151D02*
X74547001Y-57151532D01*
X74547001Y-57151532D02*
X74451763Y-57151532D01*
X74451763Y-57151532D02*
X74356525Y-57199151D01*
X74356525Y-57199151D02*
X74308906Y-57246770D01*
X74308906Y-57246770D02*
X74261287Y-57342008D01*
X74261287Y-57342008D02*
X74213668Y-57532484D01*
X74213668Y-57532484D02*
X74166049Y-57627722D01*
X74166049Y-57627722D02*
X74118430Y-57675341D01*
X74118430Y-57675341D02*
X74023192Y-57722960D01*
X74023192Y-57722960D02*
X73927954Y-57722960D01*
X73927954Y-57722960D02*
X73832716Y-57675341D01*
X73832716Y-57675341D02*
X73785097Y-57627722D01*
X73785097Y-57627722D02*
X73737478Y-57532484D01*
X73737478Y-57532484D02*
X73737478Y-57294389D01*
X73737478Y-57294389D02*
X73785097Y-57151532D01*
X74737478Y-56722960D02*
X73737478Y-56722960D01*
X76689859Y-59513436D02*
X76737478Y-59370579D01*
X76737478Y-59370579D02*
X76737478Y-59132484D01*
X76737478Y-59132484D02*
X76689859Y-59037246D01*
X76689859Y-59037246D02*
X76642239Y-58989627D01*
X76642239Y-58989627D02*
X76547001Y-58942008D01*
X76547001Y-58942008D02*
X76451763Y-58942008D01*
X76451763Y-58942008D02*
X76356525Y-58989627D01*
X76356525Y-58989627D02*
X76308906Y-59037246D01*
X76308906Y-59037246D02*
X76261287Y-59132484D01*
X76261287Y-59132484D02*
X76213668Y-59322960D01*
X76213668Y-59322960D02*
X76166049Y-59418198D01*
X76166049Y-59418198D02*
X76118430Y-59465817D01*
X76118430Y-59465817D02*
X76023192Y-59513436D01*
X76023192Y-59513436D02*
X75927954Y-59513436D01*
X75927954Y-59513436D02*
X75832716Y-59465817D01*
X75832716Y-59465817D02*
X75785097Y-59418198D01*
X75785097Y-59418198D02*
X75737478Y-59322960D01*
X75737478Y-59322960D02*
X75737478Y-59084865D01*
X75737478Y-59084865D02*
X75785097Y-58942008D01*
X76642239Y-57942008D02*
X76689859Y-57989627D01*
X76689859Y-57989627D02*
X76737478Y-58132484D01*
X76737478Y-58132484D02*
X76737478Y-58227722D01*
X76737478Y-58227722D02*
X76689859Y-58370579D01*
X76689859Y-58370579D02*
X76594620Y-58465817D01*
X76594620Y-58465817D02*
X76499382Y-58513436D01*
X76499382Y-58513436D02*
X76308906Y-58561055D01*
X76308906Y-58561055D02*
X76166049Y-58561055D01*
X76166049Y-58561055D02*
X75975573Y-58513436D01*
X75975573Y-58513436D02*
X75880335Y-58465817D01*
X75880335Y-58465817D02*
X75785097Y-58370579D01*
X75785097Y-58370579D02*
X75737478Y-58227722D01*
X75737478Y-58227722D02*
X75737478Y-58132484D01*
X75737478Y-58132484D02*
X75785097Y-57989627D01*
X75785097Y-57989627D02*
X75832716Y-57942008D01*
X76737478Y-57037246D02*
X76737478Y-57513436D01*
X76737478Y-57513436D02*
X75737478Y-57513436D01*
X88689859Y-59713436D02*
X88737478Y-59570579D01*
X88737478Y-59570579D02*
X88737478Y-59332484D01*
X88737478Y-59332484D02*
X88689859Y-59237246D01*
X88689859Y-59237246D02*
X88642239Y-59189627D01*
X88642239Y-59189627D02*
X88547001Y-59142008D01*
X88547001Y-59142008D02*
X88451763Y-59142008D01*
X88451763Y-59142008D02*
X88356525Y-59189627D01*
X88356525Y-59189627D02*
X88308906Y-59237246D01*
X88308906Y-59237246D02*
X88261287Y-59332484D01*
X88261287Y-59332484D02*
X88213668Y-59522960D01*
X88213668Y-59522960D02*
X88166049Y-59618198D01*
X88166049Y-59618198D02*
X88118430Y-59665817D01*
X88118430Y-59665817D02*
X88023192Y-59713436D01*
X88023192Y-59713436D02*
X87927954Y-59713436D01*
X87927954Y-59713436D02*
X87832716Y-59665817D01*
X87832716Y-59665817D02*
X87785097Y-59618198D01*
X87785097Y-59618198D02*
X87737478Y-59522960D01*
X87737478Y-59522960D02*
X87737478Y-59284865D01*
X87737478Y-59284865D02*
X87785097Y-59142008D01*
X88642239Y-58142008D02*
X88689859Y-58189627D01*
X88689859Y-58189627D02*
X88737478Y-58332484D01*
X88737478Y-58332484D02*
X88737478Y-58427722D01*
X88737478Y-58427722D02*
X88689859Y-58570579D01*
X88689859Y-58570579D02*
X88594620Y-58665817D01*
X88594620Y-58665817D02*
X88499382Y-58713436D01*
X88499382Y-58713436D02*
X88308906Y-58761055D01*
X88308906Y-58761055D02*
X88166049Y-58761055D01*
X88166049Y-58761055D02*
X87975573Y-58713436D01*
X87975573Y-58713436D02*
X87880335Y-58665817D01*
X87880335Y-58665817D02*
X87785097Y-58570579D01*
X87785097Y-58570579D02*
X87737478Y-58427722D01*
X87737478Y-58427722D02*
X87737478Y-58332484D01*
X87737478Y-58332484D02*
X87785097Y-58189627D01*
X87785097Y-58189627D02*
X87832716Y-58142008D01*
X88737478Y-57713436D02*
X87737478Y-57713436D01*
X88737478Y-57142008D02*
X88166049Y-57570579D01*
X87737478Y-57142008D02*
X88308906Y-57713436D01*
D12*
X112025078Y-99283110D02*
X112025078Y-99759300D01*
X112025078Y-99759300D02*
X111025078Y-99759300D01*
X111025078Y-98759300D02*
X111025078Y-98568824D01*
X111025078Y-98568824D02*
X111072697Y-98473586D01*
X111072697Y-98473586D02*
X111167935Y-98378348D01*
X111167935Y-98378348D02*
X111358411Y-98330729D01*
X111358411Y-98330729D02*
X111691744Y-98330729D01*
X111691744Y-98330729D02*
X111882220Y-98378348D01*
X111882220Y-98378348D02*
X111977459Y-98473586D01*
X111977459Y-98473586D02*
X112025078Y-98568824D01*
X112025078Y-98568824D02*
X112025078Y-98759300D01*
X112025078Y-98759300D02*
X111977459Y-98854538D01*
X111977459Y-98854538D02*
X111882220Y-98949776D01*
X111882220Y-98949776D02*
X111691744Y-98997395D01*
X111691744Y-98997395D02*
X111358411Y-98997395D01*
X111358411Y-98997395D02*
X111167935Y-98949776D01*
X111167935Y-98949776D02*
X111072697Y-98854538D01*
X111072697Y-98854538D02*
X111025078Y-98759300D01*
X112025078Y-97330729D02*
X111548887Y-97664062D01*
X112025078Y-97902157D02*
X111025078Y-97902157D01*
X111025078Y-97902157D02*
X111025078Y-97521205D01*
X111025078Y-97521205D02*
X111072697Y-97425967D01*
X111072697Y-97425967D02*
X111120316Y-97378348D01*
X111120316Y-97378348D02*
X111215554Y-97330729D01*
X111215554Y-97330729D02*
X111358411Y-97330729D01*
X111358411Y-97330729D02*
X111453649Y-97378348D01*
X111453649Y-97378348D02*
X111501268Y-97425967D01*
X111501268Y-97425967D02*
X111548887Y-97521205D01*
X111548887Y-97521205D02*
X111548887Y-97902157D01*
X111739363Y-96949776D02*
X111739363Y-96473586D01*
X112025078Y-97045014D02*
X111025078Y-96711681D01*
X111025078Y-96711681D02*
X112025078Y-96378348D01*
X111929839Y-94711681D02*
X111977459Y-94759300D01*
X111977459Y-94759300D02*
X112025078Y-94902157D01*
X112025078Y-94902157D02*
X112025078Y-94997395D01*
X112025078Y-94997395D02*
X111977459Y-95140252D01*
X111977459Y-95140252D02*
X111882220Y-95235490D01*
X111882220Y-95235490D02*
X111786982Y-95283109D01*
X111786982Y-95283109D02*
X111596506Y-95330728D01*
X111596506Y-95330728D02*
X111453649Y-95330728D01*
X111453649Y-95330728D02*
X111263173Y-95283109D01*
X111263173Y-95283109D02*
X111167935Y-95235490D01*
X111167935Y-95235490D02*
X111072697Y-95140252D01*
X111072697Y-95140252D02*
X111025078Y-94997395D01*
X111025078Y-94997395D02*
X111025078Y-94902157D01*
X111025078Y-94902157D02*
X111072697Y-94759300D01*
X111072697Y-94759300D02*
X111120316Y-94711681D01*
X111025078Y-94092633D02*
X111025078Y-93902157D01*
X111025078Y-93902157D02*
X111072697Y-93806919D01*
X111072697Y-93806919D02*
X111167935Y-93711681D01*
X111167935Y-93711681D02*
X111358411Y-93664062D01*
X111358411Y-93664062D02*
X111691744Y-93664062D01*
X111691744Y-93664062D02*
X111882220Y-93711681D01*
X111882220Y-93711681D02*
X111977459Y-93806919D01*
X111977459Y-93806919D02*
X112025078Y-93902157D01*
X112025078Y-93902157D02*
X112025078Y-94092633D01*
X112025078Y-94092633D02*
X111977459Y-94187871D01*
X111977459Y-94187871D02*
X111882220Y-94283109D01*
X111882220Y-94283109D02*
X111691744Y-94330728D01*
X111691744Y-94330728D02*
X111358411Y-94330728D01*
X111358411Y-94330728D02*
X111167935Y-94283109D01*
X111167935Y-94283109D02*
X111072697Y-94187871D01*
X111072697Y-94187871D02*
X111025078Y-94092633D01*
X112025078Y-93235490D02*
X111025078Y-93235490D01*
X111025078Y-93235490D02*
X111739363Y-92902157D01*
X111739363Y-92902157D02*
X111025078Y-92568824D01*
X111025078Y-92568824D02*
X112025078Y-92568824D01*
X112025078Y-92092633D02*
X111025078Y-92092633D01*
X111025078Y-92092633D02*
X111739363Y-91759300D01*
X111739363Y-91759300D02*
X111025078Y-91425967D01*
X111025078Y-91425967D02*
X112025078Y-91425967D01*
X112025078Y-90187871D02*
X111025078Y-90187871D01*
X111025078Y-90187871D02*
X111739363Y-89854538D01*
X111739363Y-89854538D02*
X111025078Y-89521205D01*
X111025078Y-89521205D02*
X112025078Y-89521205D01*
X111025078Y-88854538D02*
X111025078Y-88664062D01*
X111025078Y-88664062D02*
X111072697Y-88568824D01*
X111072697Y-88568824D02*
X111167935Y-88473586D01*
X111167935Y-88473586D02*
X111358411Y-88425967D01*
X111358411Y-88425967D02*
X111691744Y-88425967D01*
X111691744Y-88425967D02*
X111882220Y-88473586D01*
X111882220Y-88473586D02*
X111977459Y-88568824D01*
X111977459Y-88568824D02*
X112025078Y-88664062D01*
X112025078Y-88664062D02*
X112025078Y-88854538D01*
X112025078Y-88854538D02*
X111977459Y-88949776D01*
X111977459Y-88949776D02*
X111882220Y-89045014D01*
X111882220Y-89045014D02*
X111691744Y-89092633D01*
X111691744Y-89092633D02*
X111358411Y-89092633D01*
X111358411Y-89092633D02*
X111167935Y-89045014D01*
X111167935Y-89045014D02*
X111072697Y-88949776D01*
X111072697Y-88949776D02*
X111025078Y-88854538D01*
X112025078Y-87997395D02*
X111025078Y-87997395D01*
X111025078Y-87997395D02*
X111025078Y-87759300D01*
X111025078Y-87759300D02*
X111072697Y-87616443D01*
X111072697Y-87616443D02*
X111167935Y-87521205D01*
X111167935Y-87521205D02*
X111263173Y-87473586D01*
X111263173Y-87473586D02*
X111453649Y-87425967D01*
X111453649Y-87425967D02*
X111596506Y-87425967D01*
X111596506Y-87425967D02*
X111786982Y-87473586D01*
X111786982Y-87473586D02*
X111882220Y-87521205D01*
X111882220Y-87521205D02*
X111977459Y-87616443D01*
X111977459Y-87616443D02*
X112025078Y-87759300D01*
X112025078Y-87759300D02*
X112025078Y-87997395D01*
X111025078Y-86997395D02*
X111834601Y-86997395D01*
X111834601Y-86997395D02*
X111929839Y-86949776D01*
X111929839Y-86949776D02*
X111977459Y-86902157D01*
X111977459Y-86902157D02*
X112025078Y-86806919D01*
X112025078Y-86806919D02*
X112025078Y-86616443D01*
X112025078Y-86616443D02*
X111977459Y-86521205D01*
X111977459Y-86521205D02*
X111929839Y-86473586D01*
X111929839Y-86473586D02*
X111834601Y-86425967D01*
X111834601Y-86425967D02*
X111025078Y-86425967D01*
X112025078Y-85473586D02*
X112025078Y-85949776D01*
X112025078Y-85949776D02*
X111025078Y-85949776D01*
X111501268Y-85140252D02*
X111501268Y-84806919D01*
X112025078Y-84664062D02*
X112025078Y-85140252D01*
X112025078Y-85140252D02*
X111025078Y-85140252D01*
X111025078Y-85140252D02*
X111025078Y-84664062D01*
D11*
X72356525Y-64465817D02*
X72356525Y-63703913D01*
X72737478Y-64084865D02*
X71975573Y-64084865D01*
X71737478Y-63322960D02*
X71737478Y-62703913D01*
X71737478Y-62703913D02*
X72118430Y-63037246D01*
X72118430Y-63037246D02*
X72118430Y-62894389D01*
X72118430Y-62894389D02*
X72166049Y-62799151D01*
X72166049Y-62799151D02*
X72213668Y-62751532D01*
X72213668Y-62751532D02*
X72308906Y-62703913D01*
X72308906Y-62703913D02*
X72547001Y-62703913D01*
X72547001Y-62703913D02*
X72642239Y-62751532D01*
X72642239Y-62751532D02*
X72689859Y-62799151D01*
X72689859Y-62799151D02*
X72737478Y-62894389D01*
X72737478Y-62894389D02*
X72737478Y-63180103D01*
X72737478Y-63180103D02*
X72689859Y-63275341D01*
X72689859Y-63275341D02*
X72642239Y-63322960D01*
X71737478Y-62418198D02*
X72737478Y-62084865D01*
X72737478Y-62084865D02*
X71737478Y-61751532D01*
X71737478Y-61513436D02*
X71737478Y-60894389D01*
X71737478Y-60894389D02*
X72118430Y-61227722D01*
X72118430Y-61227722D02*
X72118430Y-61084865D01*
X72118430Y-61084865D02*
X72166049Y-60989627D01*
X72166049Y-60989627D02*
X72213668Y-60942008D01*
X72213668Y-60942008D02*
X72308906Y-60894389D01*
X72308906Y-60894389D02*
X72547001Y-60894389D01*
X72547001Y-60894389D02*
X72642239Y-60942008D01*
X72642239Y-60942008D02*
X72689859Y-60989627D01*
X72689859Y-60989627D02*
X72737478Y-61084865D01*
X72737478Y-61084865D02*
X72737478Y-61370579D01*
X72737478Y-61370579D02*
X72689859Y-61465817D01*
X72689859Y-61465817D02*
X72642239Y-61513436D01*
X96737478Y-59665817D02*
X95737478Y-59665817D01*
X95737478Y-59665817D02*
X95737478Y-59427722D01*
X95737478Y-59427722D02*
X95785097Y-59284865D01*
X95785097Y-59284865D02*
X95880335Y-59189627D01*
X95880335Y-59189627D02*
X95975573Y-59142008D01*
X95975573Y-59142008D02*
X96166049Y-59094389D01*
X96166049Y-59094389D02*
X96308906Y-59094389D01*
X96308906Y-59094389D02*
X96499382Y-59142008D01*
X96499382Y-59142008D02*
X96594620Y-59189627D01*
X96594620Y-59189627D02*
X96689859Y-59284865D01*
X96689859Y-59284865D02*
X96737478Y-59427722D01*
X96737478Y-59427722D02*
X96737478Y-59665817D01*
X96737478Y-58665817D02*
X95737478Y-58665817D01*
X96213668Y-58665817D02*
X96213668Y-58094389D01*
X96737478Y-58094389D02*
X95737478Y-58094389D01*
X95737478Y-57761055D02*
X95737478Y-57189627D01*
X96737478Y-57475341D02*
X95737478Y-57475341D01*
D12*
X66303592Y-110595071D02*
X66255973Y-110642691D01*
X66255973Y-110642691D02*
X66113116Y-110690310D01*
X66113116Y-110690310D02*
X66017878Y-110690310D01*
X66017878Y-110690310D02*
X65875021Y-110642691D01*
X65875021Y-110642691D02*
X65779783Y-110547452D01*
X65779783Y-110547452D02*
X65732164Y-110452214D01*
X65732164Y-110452214D02*
X65684545Y-110261738D01*
X65684545Y-110261738D02*
X65684545Y-110118881D01*
X65684545Y-110118881D02*
X65732164Y-109928405D01*
X65732164Y-109928405D02*
X65779783Y-109833167D01*
X65779783Y-109833167D02*
X65875021Y-109737929D01*
X65875021Y-109737929D02*
X66017878Y-109690310D01*
X66017878Y-109690310D02*
X66113116Y-109690310D01*
X66113116Y-109690310D02*
X66255973Y-109737929D01*
X66255973Y-109737929D02*
X66303592Y-109785548D01*
X67208354Y-109690310D02*
X66732164Y-109690310D01*
X66732164Y-109690310D02*
X66684545Y-110166500D01*
X66684545Y-110166500D02*
X66732164Y-110118881D01*
X66732164Y-110118881D02*
X66827402Y-110071262D01*
X66827402Y-110071262D02*
X67065497Y-110071262D01*
X67065497Y-110071262D02*
X67160735Y-110118881D01*
X67160735Y-110118881D02*
X67208354Y-110166500D01*
X67208354Y-110166500D02*
X67255973Y-110261738D01*
X67255973Y-110261738D02*
X67255973Y-110499833D01*
X67255973Y-110499833D02*
X67208354Y-110595071D01*
X67208354Y-110595071D02*
X67160735Y-110642691D01*
X67160735Y-110642691D02*
X67065497Y-110690310D01*
X67065497Y-110690310D02*
X66827402Y-110690310D01*
X66827402Y-110690310D02*
X66732164Y-110642691D01*
X66732164Y-110642691D02*
X66684545Y-110595071D01*
X52836925Y-66850310D02*
X52836925Y-67564595D01*
X52836925Y-67564595D02*
X52789306Y-67707452D01*
X52789306Y-67707452D02*
X52694068Y-67802691D01*
X52694068Y-67802691D02*
X52551211Y-67850310D01*
X52551211Y-67850310D02*
X52455973Y-67850310D01*
X53265497Y-66945548D02*
X53313116Y-66897929D01*
X53313116Y-66897929D02*
X53408354Y-66850310D01*
X53408354Y-66850310D02*
X53646449Y-66850310D01*
X53646449Y-66850310D02*
X53741687Y-66897929D01*
X53741687Y-66897929D02*
X53789306Y-66945548D01*
X53789306Y-66945548D02*
X53836925Y-67040786D01*
X53836925Y-67040786D02*
X53836925Y-67136024D01*
X53836925Y-67136024D02*
X53789306Y-67278881D01*
X53789306Y-67278881D02*
X53217878Y-67850310D01*
X53217878Y-67850310D02*
X53836925Y-67850310D01*
X63655078Y-51488824D02*
X64369363Y-51488824D01*
X64369363Y-51488824D02*
X64512220Y-51536443D01*
X64512220Y-51536443D02*
X64607459Y-51631681D01*
X64607459Y-51631681D02*
X64655078Y-51774538D01*
X64655078Y-51774538D02*
X64655078Y-51869776D01*
X64655078Y-50488824D02*
X64655078Y-51060252D01*
X64655078Y-50774538D02*
X63655078Y-50774538D01*
X63655078Y-50774538D02*
X63797935Y-50869776D01*
X63797935Y-50869776D02*
X63893173Y-50965014D01*
X63893173Y-50965014D02*
X63940792Y-51060252D01*
X60403592Y-70490310D02*
X60070259Y-70014119D01*
X59832164Y-70490310D02*
X59832164Y-69490310D01*
X59832164Y-69490310D02*
X60213116Y-69490310D01*
X60213116Y-69490310D02*
X60308354Y-69537929D01*
X60308354Y-69537929D02*
X60355973Y-69585548D01*
X60355973Y-69585548D02*
X60403592Y-69680786D01*
X60403592Y-69680786D02*
X60403592Y-69823643D01*
X60403592Y-69823643D02*
X60355973Y-69918881D01*
X60355973Y-69918881D02*
X60308354Y-69966500D01*
X60308354Y-69966500D02*
X60213116Y-70014119D01*
X60213116Y-70014119D02*
X59832164Y-70014119D01*
X60736926Y-69490310D02*
X61355973Y-69490310D01*
X61355973Y-69490310D02*
X61022640Y-69871262D01*
X61022640Y-69871262D02*
X61165497Y-69871262D01*
X61165497Y-69871262D02*
X61260735Y-69918881D01*
X61260735Y-69918881D02*
X61308354Y-69966500D01*
X61308354Y-69966500D02*
X61355973Y-70061738D01*
X61355973Y-70061738D02*
X61355973Y-70299833D01*
X61355973Y-70299833D02*
X61308354Y-70395071D01*
X61308354Y-70395071D02*
X61260735Y-70442691D01*
X61260735Y-70442691D02*
X61165497Y-70490310D01*
X61165497Y-70490310D02*
X60879783Y-70490310D01*
X60879783Y-70490310D02*
X60784545Y-70442691D01*
X60784545Y-70442691D02*
X60736926Y-70395071D01*
X69003592Y-70965071D02*
X68955973Y-71012691D01*
X68955973Y-71012691D02*
X68813116Y-71060310D01*
X68813116Y-71060310D02*
X68717878Y-71060310D01*
X68717878Y-71060310D02*
X68575021Y-71012691D01*
X68575021Y-71012691D02*
X68479783Y-70917452D01*
X68479783Y-70917452D02*
X68432164Y-70822214D01*
X68432164Y-70822214D02*
X68384545Y-70631738D01*
X68384545Y-70631738D02*
X68384545Y-70488881D01*
X68384545Y-70488881D02*
X68432164Y-70298405D01*
X68432164Y-70298405D02*
X68479783Y-70203167D01*
X68479783Y-70203167D02*
X68575021Y-70107929D01*
X68575021Y-70107929D02*
X68717878Y-70060310D01*
X68717878Y-70060310D02*
X68813116Y-70060310D01*
X68813116Y-70060310D02*
X68955973Y-70107929D01*
X68955973Y-70107929D02*
X69003592Y-70155548D01*
X69860735Y-70393643D02*
X69860735Y-71060310D01*
X69622640Y-70012691D02*
X69384545Y-70726976D01*
X69384545Y-70726976D02*
X70003592Y-70726976D01*
D14*
X62602639Y-119249333D02*
X62784068Y-119309809D01*
X62784068Y-119309809D02*
X63086449Y-119309809D01*
X63086449Y-119309809D02*
X63207401Y-119249333D01*
X63207401Y-119249333D02*
X63267877Y-119188856D01*
X63267877Y-119188856D02*
X63328354Y-119067904D01*
X63328354Y-119067904D02*
X63328354Y-118946952D01*
X63328354Y-118946952D02*
X63267877Y-118825999D01*
X63267877Y-118825999D02*
X63207401Y-118765523D01*
X63207401Y-118765523D02*
X63086449Y-118705047D01*
X63086449Y-118705047D02*
X62844544Y-118644571D01*
X62844544Y-118644571D02*
X62723592Y-118584094D01*
X62723592Y-118584094D02*
X62663115Y-118523618D01*
X62663115Y-118523618D02*
X62602639Y-118402666D01*
X62602639Y-118402666D02*
X62602639Y-118281713D01*
X62602639Y-118281713D02*
X62663115Y-118160761D01*
X62663115Y-118160761D02*
X62723592Y-118100285D01*
X62723592Y-118100285D02*
X62844544Y-118039809D01*
X62844544Y-118039809D02*
X63146925Y-118039809D01*
X63146925Y-118039809D02*
X63328354Y-118100285D01*
X64537878Y-119309809D02*
X63812163Y-119309809D01*
X64175020Y-119309809D02*
X64175020Y-118039809D01*
X64175020Y-118039809D02*
X64054068Y-118221237D01*
X64054068Y-118221237D02*
X63933116Y-118342190D01*
X63933116Y-118342190D02*
X63812163Y-118402666D01*
D12*
X127327919Y-45986819D02*
X127327919Y-44986819D01*
X127327919Y-45463009D02*
X127899347Y-45463009D01*
X127899347Y-45986819D02*
X127899347Y-44986819D01*
X128804109Y-45320152D02*
X128804109Y-45986819D01*
X128566014Y-44939200D02*
X128327919Y-45653485D01*
X128327919Y-45653485D02*
X128946966Y-45653485D01*
X66403592Y-108595071D02*
X66355973Y-108642691D01*
X66355973Y-108642691D02*
X66213116Y-108690310D01*
X66213116Y-108690310D02*
X66117878Y-108690310D01*
X66117878Y-108690310D02*
X65975021Y-108642691D01*
X65975021Y-108642691D02*
X65879783Y-108547452D01*
X65879783Y-108547452D02*
X65832164Y-108452214D01*
X65832164Y-108452214D02*
X65784545Y-108261738D01*
X65784545Y-108261738D02*
X65784545Y-108118881D01*
X65784545Y-108118881D02*
X65832164Y-107928405D01*
X65832164Y-107928405D02*
X65879783Y-107833167D01*
X65879783Y-107833167D02*
X65975021Y-107737929D01*
X65975021Y-107737929D02*
X66117878Y-107690310D01*
X66117878Y-107690310D02*
X66213116Y-107690310D01*
X66213116Y-107690310D02*
X66355973Y-107737929D01*
X66355973Y-107737929D02*
X66403592Y-107785548D01*
X66736926Y-107690310D02*
X67403592Y-107690310D01*
X67403592Y-107690310D02*
X66975021Y-108690310D01*
X77712520Y-78535548D02*
X77617282Y-78487929D01*
X77617282Y-78487929D02*
X77522044Y-78392691D01*
X77522044Y-78392691D02*
X77379187Y-78249833D01*
X77379187Y-78249833D02*
X77283949Y-78202214D01*
X77283949Y-78202214D02*
X77188711Y-78202214D01*
X77236330Y-78440310D02*
X77141092Y-78392691D01*
X77141092Y-78392691D02*
X77045854Y-78297452D01*
X77045854Y-78297452D02*
X76998235Y-78106976D01*
X76998235Y-78106976D02*
X76998235Y-77773643D01*
X76998235Y-77773643D02*
X77045854Y-77583167D01*
X77045854Y-77583167D02*
X77141092Y-77487929D01*
X77141092Y-77487929D02*
X77236330Y-77440310D01*
X77236330Y-77440310D02*
X77426806Y-77440310D01*
X77426806Y-77440310D02*
X77522044Y-77487929D01*
X77522044Y-77487929D02*
X77617282Y-77583167D01*
X77617282Y-77583167D02*
X77664901Y-77773643D01*
X77664901Y-77773643D02*
X77664901Y-78106976D01*
X77664901Y-78106976D02*
X77617282Y-78297452D01*
X77617282Y-78297452D02*
X77522044Y-78392691D01*
X77522044Y-78392691D02*
X77426806Y-78440310D01*
X77426806Y-78440310D02*
X77236330Y-78440310D01*
X78617282Y-78440310D02*
X78045854Y-78440310D01*
X78331568Y-78440310D02*
X78331568Y-77440310D01*
X78331568Y-77440310D02*
X78236330Y-77583167D01*
X78236330Y-77583167D02*
X78141092Y-77678405D01*
X78141092Y-77678405D02*
X78045854Y-77726024D01*
X66325078Y-63602157D02*
X65848887Y-63935490D01*
X66325078Y-64173585D02*
X65325078Y-64173585D01*
X65325078Y-64173585D02*
X65325078Y-63792633D01*
X65325078Y-63792633D02*
X65372697Y-63697395D01*
X65372697Y-63697395D02*
X65420316Y-63649776D01*
X65420316Y-63649776D02*
X65515554Y-63602157D01*
X65515554Y-63602157D02*
X65658411Y-63602157D01*
X65658411Y-63602157D02*
X65753649Y-63649776D01*
X65753649Y-63649776D02*
X65801268Y-63697395D01*
X65801268Y-63697395D02*
X65848887Y-63792633D01*
X65848887Y-63792633D02*
X65848887Y-64173585D01*
X65420316Y-63221204D02*
X65372697Y-63173585D01*
X65372697Y-63173585D02*
X65325078Y-63078347D01*
X65325078Y-63078347D02*
X65325078Y-62840252D01*
X65325078Y-62840252D02*
X65372697Y-62745014D01*
X65372697Y-62745014D02*
X65420316Y-62697395D01*
X65420316Y-62697395D02*
X65515554Y-62649776D01*
X65515554Y-62649776D02*
X65610792Y-62649776D01*
X65610792Y-62649776D02*
X65753649Y-62697395D01*
X65753649Y-62697395D02*
X66325078Y-63268823D01*
X66325078Y-63268823D02*
X66325078Y-62649776D01*
X62925078Y-63673585D02*
X61925078Y-63673585D01*
X61925078Y-63673585D02*
X61925078Y-63435490D01*
X61925078Y-63435490D02*
X61972697Y-63292633D01*
X61972697Y-63292633D02*
X62067935Y-63197395D01*
X62067935Y-63197395D02*
X62163173Y-63149776D01*
X62163173Y-63149776D02*
X62353649Y-63102157D01*
X62353649Y-63102157D02*
X62496506Y-63102157D01*
X62496506Y-63102157D02*
X62686982Y-63149776D01*
X62686982Y-63149776D02*
X62782220Y-63197395D01*
X62782220Y-63197395D02*
X62877459Y-63292633D01*
X62877459Y-63292633D02*
X62925078Y-63435490D01*
X62925078Y-63435490D02*
X62925078Y-63673585D01*
X61925078Y-62768823D02*
X61925078Y-62149776D01*
X61925078Y-62149776D02*
X62306030Y-62483109D01*
X62306030Y-62483109D02*
X62306030Y-62340252D01*
X62306030Y-62340252D02*
X62353649Y-62245014D01*
X62353649Y-62245014D02*
X62401268Y-62197395D01*
X62401268Y-62197395D02*
X62496506Y-62149776D01*
X62496506Y-62149776D02*
X62734601Y-62149776D01*
X62734601Y-62149776D02*
X62829839Y-62197395D01*
X62829839Y-62197395D02*
X62877459Y-62245014D01*
X62877459Y-62245014D02*
X62925078Y-62340252D01*
X62925078Y-62340252D02*
X62925078Y-62625966D01*
X62925078Y-62625966D02*
X62877459Y-62721204D01*
X62877459Y-62721204D02*
X62829839Y-62768823D01*
X117141688Y-59190310D02*
X117141688Y-58190310D01*
X117141688Y-58190310D02*
X117475021Y-58904595D01*
X117475021Y-58904595D02*
X117808354Y-58190310D01*
X117808354Y-58190310D02*
X117808354Y-59190310D01*
X118284545Y-59190310D02*
X118284545Y-58190310D01*
X119332163Y-59095071D02*
X119284544Y-59142691D01*
X119284544Y-59142691D02*
X119141687Y-59190310D01*
X119141687Y-59190310D02*
X119046449Y-59190310D01*
X119046449Y-59190310D02*
X118903592Y-59142691D01*
X118903592Y-59142691D02*
X118808354Y-59047452D01*
X118808354Y-59047452D02*
X118760735Y-58952214D01*
X118760735Y-58952214D02*
X118713116Y-58761738D01*
X118713116Y-58761738D02*
X118713116Y-58618881D01*
X118713116Y-58618881D02*
X118760735Y-58428405D01*
X118760735Y-58428405D02*
X118808354Y-58333167D01*
X118808354Y-58333167D02*
X118903592Y-58237929D01*
X118903592Y-58237929D02*
X119046449Y-58190310D01*
X119046449Y-58190310D02*
X119141687Y-58190310D01*
X119141687Y-58190310D02*
X119284544Y-58237929D01*
X119284544Y-58237929D02*
X119332163Y-58285548D01*
X120332163Y-59190310D02*
X119998830Y-58714119D01*
X119760735Y-59190310D02*
X119760735Y-58190310D01*
X119760735Y-58190310D02*
X120141687Y-58190310D01*
X120141687Y-58190310D02*
X120236925Y-58237929D01*
X120236925Y-58237929D02*
X120284544Y-58285548D01*
X120284544Y-58285548D02*
X120332163Y-58380786D01*
X120332163Y-58380786D02*
X120332163Y-58523643D01*
X120332163Y-58523643D02*
X120284544Y-58618881D01*
X120284544Y-58618881D02*
X120236925Y-58666500D01*
X120236925Y-58666500D02*
X120141687Y-58714119D01*
X120141687Y-58714119D02*
X119760735Y-58714119D01*
X120951211Y-58190310D02*
X121141687Y-58190310D01*
X121141687Y-58190310D02*
X121236925Y-58237929D01*
X121236925Y-58237929D02*
X121332163Y-58333167D01*
X121332163Y-58333167D02*
X121379782Y-58523643D01*
X121379782Y-58523643D02*
X121379782Y-58856976D01*
X121379782Y-58856976D02*
X121332163Y-59047452D01*
X121332163Y-59047452D02*
X121236925Y-59142691D01*
X121236925Y-59142691D02*
X121141687Y-59190310D01*
X121141687Y-59190310D02*
X120951211Y-59190310D01*
X120951211Y-59190310D02*
X120855973Y-59142691D01*
X120855973Y-59142691D02*
X120760735Y-59047452D01*
X120760735Y-59047452D02*
X120713116Y-58856976D01*
X120713116Y-58856976D02*
X120713116Y-58523643D01*
X120713116Y-58523643D02*
X120760735Y-58333167D01*
X120760735Y-58333167D02*
X120855973Y-58237929D01*
X120855973Y-58237929D02*
X120951211Y-58190310D01*
X121570259Y-59285548D02*
X122332163Y-59285548D01*
X122522640Y-59142691D02*
X122665497Y-59190310D01*
X122665497Y-59190310D02*
X122903592Y-59190310D01*
X122903592Y-59190310D02*
X122998830Y-59142691D01*
X122998830Y-59142691D02*
X123046449Y-59095071D01*
X123046449Y-59095071D02*
X123094068Y-58999833D01*
X123094068Y-58999833D02*
X123094068Y-58904595D01*
X123094068Y-58904595D02*
X123046449Y-58809357D01*
X123046449Y-58809357D02*
X122998830Y-58761738D01*
X122998830Y-58761738D02*
X122903592Y-58714119D01*
X122903592Y-58714119D02*
X122713116Y-58666500D01*
X122713116Y-58666500D02*
X122617878Y-58618881D01*
X122617878Y-58618881D02*
X122570259Y-58571262D01*
X122570259Y-58571262D02*
X122522640Y-58476024D01*
X122522640Y-58476024D02*
X122522640Y-58380786D01*
X122522640Y-58380786D02*
X122570259Y-58285548D01*
X122570259Y-58285548D02*
X122617878Y-58237929D01*
X122617878Y-58237929D02*
X122713116Y-58190310D01*
X122713116Y-58190310D02*
X122951211Y-58190310D01*
X122951211Y-58190310D02*
X123094068Y-58237929D01*
X123522640Y-59190310D02*
X123522640Y-58190310D01*
X123522640Y-58190310D02*
X123760735Y-58190310D01*
X123760735Y-58190310D02*
X123903592Y-58237929D01*
X123903592Y-58237929D02*
X123998830Y-58333167D01*
X123998830Y-58333167D02*
X124046449Y-58428405D01*
X124046449Y-58428405D02*
X124094068Y-58618881D01*
X124094068Y-58618881D02*
X124094068Y-58761738D01*
X124094068Y-58761738D02*
X124046449Y-58952214D01*
X124046449Y-58952214D02*
X123998830Y-59047452D01*
X123998830Y-59047452D02*
X123903592Y-59142691D01*
X123903592Y-59142691D02*
X123760735Y-59190310D01*
X123760735Y-59190310D02*
X123522640Y-59190310D01*
X125046449Y-59190310D02*
X124475021Y-59190310D01*
X124760735Y-59190310D02*
X124760735Y-58190310D01*
X124760735Y-58190310D02*
X124665497Y-58333167D01*
X124665497Y-58333167D02*
X124570259Y-58428405D01*
X124570259Y-58428405D02*
X124475021Y-58476024D01*
X115745078Y-119743824D02*
X116459363Y-119743824D01*
X116459363Y-119743824D02*
X116602220Y-119791443D01*
X116602220Y-119791443D02*
X116697459Y-119886681D01*
X116697459Y-119886681D02*
X116745078Y-120029538D01*
X116745078Y-120029538D02*
X116745078Y-120124776D01*
X115745078Y-119362871D02*
X115745078Y-118743824D01*
X115745078Y-118743824D02*
X116126030Y-119077157D01*
X116126030Y-119077157D02*
X116126030Y-118934300D01*
X116126030Y-118934300D02*
X116173649Y-118839062D01*
X116173649Y-118839062D02*
X116221268Y-118791443D01*
X116221268Y-118791443D02*
X116316506Y-118743824D01*
X116316506Y-118743824D02*
X116554601Y-118743824D01*
X116554601Y-118743824D02*
X116649839Y-118791443D01*
X116649839Y-118791443D02*
X116697459Y-118839062D01*
X116697459Y-118839062D02*
X116745078Y-118934300D01*
X116745078Y-118934300D02*
X116745078Y-119220014D01*
X116745078Y-119220014D02*
X116697459Y-119315252D01*
X116697459Y-119315252D02*
X116649839Y-119362871D01*
X73175078Y-80402157D02*
X72698887Y-80735490D01*
X73175078Y-80973585D02*
X72175078Y-80973585D01*
X72175078Y-80973585D02*
X72175078Y-80592633D01*
X72175078Y-80592633D02*
X72222697Y-80497395D01*
X72222697Y-80497395D02*
X72270316Y-80449776D01*
X72270316Y-80449776D02*
X72365554Y-80402157D01*
X72365554Y-80402157D02*
X72508411Y-80402157D01*
X72508411Y-80402157D02*
X72603649Y-80449776D01*
X72603649Y-80449776D02*
X72651268Y-80497395D01*
X72651268Y-80497395D02*
X72698887Y-80592633D01*
X72698887Y-80592633D02*
X72698887Y-80973585D01*
X72175078Y-80068823D02*
X72175078Y-79402157D01*
X72175078Y-79402157D02*
X73175078Y-79830728D01*
X79229839Y-87402157D02*
X79277459Y-87449776D01*
X79277459Y-87449776D02*
X79325078Y-87592633D01*
X79325078Y-87592633D02*
X79325078Y-87687871D01*
X79325078Y-87687871D02*
X79277459Y-87830728D01*
X79277459Y-87830728D02*
X79182220Y-87925966D01*
X79182220Y-87925966D02*
X79086982Y-87973585D01*
X79086982Y-87973585D02*
X78896506Y-88021204D01*
X78896506Y-88021204D02*
X78753649Y-88021204D01*
X78753649Y-88021204D02*
X78563173Y-87973585D01*
X78563173Y-87973585D02*
X78467935Y-87925966D01*
X78467935Y-87925966D02*
X78372697Y-87830728D01*
X78372697Y-87830728D02*
X78325078Y-87687871D01*
X78325078Y-87687871D02*
X78325078Y-87592633D01*
X78325078Y-87592633D02*
X78372697Y-87449776D01*
X78372697Y-87449776D02*
X78420316Y-87402157D01*
X78325078Y-86545014D02*
X78325078Y-86735490D01*
X78325078Y-86735490D02*
X78372697Y-86830728D01*
X78372697Y-86830728D02*
X78420316Y-86878347D01*
X78420316Y-86878347D02*
X78563173Y-86973585D01*
X78563173Y-86973585D02*
X78753649Y-87021204D01*
X78753649Y-87021204D02*
X79134601Y-87021204D01*
X79134601Y-87021204D02*
X79229839Y-86973585D01*
X79229839Y-86973585D02*
X79277459Y-86925966D01*
X79277459Y-86925966D02*
X79325078Y-86830728D01*
X79325078Y-86830728D02*
X79325078Y-86640252D01*
X79325078Y-86640252D02*
X79277459Y-86545014D01*
X79277459Y-86545014D02*
X79229839Y-86497395D01*
X79229839Y-86497395D02*
X79134601Y-86449776D01*
X79134601Y-86449776D02*
X78896506Y-86449776D01*
X78896506Y-86449776D02*
X78801268Y-86497395D01*
X78801268Y-86497395D02*
X78753649Y-86545014D01*
X78753649Y-86545014D02*
X78706030Y-86640252D01*
X78706030Y-86640252D02*
X78706030Y-86830728D01*
X78706030Y-86830728D02*
X78753649Y-86925966D01*
X78753649Y-86925966D02*
X78801268Y-86973585D01*
X78801268Y-86973585D02*
X78896506Y-87021204D01*
X56403592Y-108595071D02*
X56355973Y-108642691D01*
X56355973Y-108642691D02*
X56213116Y-108690310D01*
X56213116Y-108690310D02*
X56117878Y-108690310D01*
X56117878Y-108690310D02*
X55975021Y-108642691D01*
X55975021Y-108642691D02*
X55879783Y-108547452D01*
X55879783Y-108547452D02*
X55832164Y-108452214D01*
X55832164Y-108452214D02*
X55784545Y-108261738D01*
X55784545Y-108261738D02*
X55784545Y-108118881D01*
X55784545Y-108118881D02*
X55832164Y-107928405D01*
X55832164Y-107928405D02*
X55879783Y-107833167D01*
X55879783Y-107833167D02*
X55975021Y-107737929D01*
X55975021Y-107737929D02*
X56117878Y-107690310D01*
X56117878Y-107690310D02*
X56213116Y-107690310D01*
X56213116Y-107690310D02*
X56355973Y-107737929D01*
X56355973Y-107737929D02*
X56403592Y-107785548D01*
X56879783Y-108690310D02*
X57070259Y-108690310D01*
X57070259Y-108690310D02*
X57165497Y-108642691D01*
X57165497Y-108642691D02*
X57213116Y-108595071D01*
X57213116Y-108595071D02*
X57308354Y-108452214D01*
X57308354Y-108452214D02*
X57355973Y-108261738D01*
X57355973Y-108261738D02*
X57355973Y-107880786D01*
X57355973Y-107880786D02*
X57308354Y-107785548D01*
X57308354Y-107785548D02*
X57260735Y-107737929D01*
X57260735Y-107737929D02*
X57165497Y-107690310D01*
X57165497Y-107690310D02*
X56975021Y-107690310D01*
X56975021Y-107690310D02*
X56879783Y-107737929D01*
X56879783Y-107737929D02*
X56832164Y-107785548D01*
X56832164Y-107785548D02*
X56784545Y-107880786D01*
X56784545Y-107880786D02*
X56784545Y-108118881D01*
X56784545Y-108118881D02*
X56832164Y-108214119D01*
X56832164Y-108214119D02*
X56879783Y-108261738D01*
X56879783Y-108261738D02*
X56975021Y-108309357D01*
X56975021Y-108309357D02*
X57165497Y-108309357D01*
X57165497Y-108309357D02*
X57260735Y-108261738D01*
X57260735Y-108261738D02*
X57308354Y-108214119D01*
X57308354Y-108214119D02*
X57355973Y-108118881D01*
X70225078Y-78377395D02*
X71034601Y-78377395D01*
X71034601Y-78377395D02*
X71129839Y-78329776D01*
X71129839Y-78329776D02*
X71177459Y-78282157D01*
X71177459Y-78282157D02*
X71225078Y-78186919D01*
X71225078Y-78186919D02*
X71225078Y-77996443D01*
X71225078Y-77996443D02*
X71177459Y-77901205D01*
X71177459Y-77901205D02*
X71129839Y-77853586D01*
X71129839Y-77853586D02*
X71034601Y-77805967D01*
X71034601Y-77805967D02*
X70225078Y-77805967D01*
X70320316Y-77377395D02*
X70272697Y-77329776D01*
X70272697Y-77329776D02*
X70225078Y-77234538D01*
X70225078Y-77234538D02*
X70225078Y-76996443D01*
X70225078Y-76996443D02*
X70272697Y-76901205D01*
X70272697Y-76901205D02*
X70320316Y-76853586D01*
X70320316Y-76853586D02*
X70415554Y-76805967D01*
X70415554Y-76805967D02*
X70510792Y-76805967D01*
X70510792Y-76805967D02*
X70653649Y-76853586D01*
X70653649Y-76853586D02*
X71225078Y-77425014D01*
X71225078Y-77425014D02*
X71225078Y-76805967D01*
X81425078Y-87402157D02*
X80948887Y-87735490D01*
X81425078Y-87973585D02*
X80425078Y-87973585D01*
X80425078Y-87973585D02*
X80425078Y-87592633D01*
X80425078Y-87592633D02*
X80472697Y-87497395D01*
X80472697Y-87497395D02*
X80520316Y-87449776D01*
X80520316Y-87449776D02*
X80615554Y-87402157D01*
X80615554Y-87402157D02*
X80758411Y-87402157D01*
X80758411Y-87402157D02*
X80853649Y-87449776D01*
X80853649Y-87449776D02*
X80901268Y-87497395D01*
X80901268Y-87497395D02*
X80948887Y-87592633D01*
X80948887Y-87592633D02*
X80948887Y-87973585D01*
X81425078Y-86925966D02*
X81425078Y-86735490D01*
X81425078Y-86735490D02*
X81377459Y-86640252D01*
X81377459Y-86640252D02*
X81329839Y-86592633D01*
X81329839Y-86592633D02*
X81186982Y-86497395D01*
X81186982Y-86497395D02*
X80996506Y-86449776D01*
X80996506Y-86449776D02*
X80615554Y-86449776D01*
X80615554Y-86449776D02*
X80520316Y-86497395D01*
X80520316Y-86497395D02*
X80472697Y-86545014D01*
X80472697Y-86545014D02*
X80425078Y-86640252D01*
X80425078Y-86640252D02*
X80425078Y-86830728D01*
X80425078Y-86830728D02*
X80472697Y-86925966D01*
X80472697Y-86925966D02*
X80520316Y-86973585D01*
X80520316Y-86973585D02*
X80615554Y-87021204D01*
X80615554Y-87021204D02*
X80853649Y-87021204D01*
X80853649Y-87021204D02*
X80948887Y-86973585D01*
X80948887Y-86973585D02*
X80996506Y-86925966D01*
X80996506Y-86925966D02*
X81044125Y-86830728D01*
X81044125Y-86830728D02*
X81044125Y-86640252D01*
X81044125Y-86640252D02*
X80996506Y-86545014D01*
X80996506Y-86545014D02*
X80948887Y-86497395D01*
X80948887Y-86497395D02*
X80853649Y-86449776D01*
X56403592Y-106585071D02*
X56355973Y-106632691D01*
X56355973Y-106632691D02*
X56213116Y-106680310D01*
X56213116Y-106680310D02*
X56117878Y-106680310D01*
X56117878Y-106680310D02*
X55975021Y-106632691D01*
X55975021Y-106632691D02*
X55879783Y-106537452D01*
X55879783Y-106537452D02*
X55832164Y-106442214D01*
X55832164Y-106442214D02*
X55784545Y-106251738D01*
X55784545Y-106251738D02*
X55784545Y-106108881D01*
X55784545Y-106108881D02*
X55832164Y-105918405D01*
X55832164Y-105918405D02*
X55879783Y-105823167D01*
X55879783Y-105823167D02*
X55975021Y-105727929D01*
X55975021Y-105727929D02*
X56117878Y-105680310D01*
X56117878Y-105680310D02*
X56213116Y-105680310D01*
X56213116Y-105680310D02*
X56355973Y-105727929D01*
X56355973Y-105727929D02*
X56403592Y-105775548D01*
X56975021Y-106108881D02*
X56879783Y-106061262D01*
X56879783Y-106061262D02*
X56832164Y-106013643D01*
X56832164Y-106013643D02*
X56784545Y-105918405D01*
X56784545Y-105918405D02*
X56784545Y-105870786D01*
X56784545Y-105870786D02*
X56832164Y-105775548D01*
X56832164Y-105775548D02*
X56879783Y-105727929D01*
X56879783Y-105727929D02*
X56975021Y-105680310D01*
X56975021Y-105680310D02*
X57165497Y-105680310D01*
X57165497Y-105680310D02*
X57260735Y-105727929D01*
X57260735Y-105727929D02*
X57308354Y-105775548D01*
X57308354Y-105775548D02*
X57355973Y-105870786D01*
X57355973Y-105870786D02*
X57355973Y-105918405D01*
X57355973Y-105918405D02*
X57308354Y-106013643D01*
X57308354Y-106013643D02*
X57260735Y-106061262D01*
X57260735Y-106061262D02*
X57165497Y-106108881D01*
X57165497Y-106108881D02*
X56975021Y-106108881D01*
X56975021Y-106108881D02*
X56879783Y-106156500D01*
X56879783Y-106156500D02*
X56832164Y-106204119D01*
X56832164Y-106204119D02*
X56784545Y-106299357D01*
X56784545Y-106299357D02*
X56784545Y-106489833D01*
X56784545Y-106489833D02*
X56832164Y-106585071D01*
X56832164Y-106585071D02*
X56879783Y-106632691D01*
X56879783Y-106632691D02*
X56975021Y-106680310D01*
X56975021Y-106680310D02*
X57165497Y-106680310D01*
X57165497Y-106680310D02*
X57260735Y-106632691D01*
X57260735Y-106632691D02*
X57308354Y-106585071D01*
X57308354Y-106585071D02*
X57355973Y-106489833D01*
X57355973Y-106489833D02*
X57355973Y-106299357D01*
X57355973Y-106299357D02*
X57308354Y-106204119D01*
X57308354Y-106204119D02*
X57260735Y-106156500D01*
X57260735Y-106156500D02*
X57165497Y-106108881D01*
X68103592Y-68790310D02*
X67770259Y-68314119D01*
X67532164Y-68790310D02*
X67532164Y-67790310D01*
X67532164Y-67790310D02*
X67913116Y-67790310D01*
X67913116Y-67790310D02*
X68008354Y-67837929D01*
X68008354Y-67837929D02*
X68055973Y-67885548D01*
X68055973Y-67885548D02*
X68103592Y-67980786D01*
X68103592Y-67980786D02*
X68103592Y-68123643D01*
X68103592Y-68123643D02*
X68055973Y-68218881D01*
X68055973Y-68218881D02*
X68008354Y-68266500D01*
X68008354Y-68266500D02*
X67913116Y-68314119D01*
X67913116Y-68314119D02*
X67532164Y-68314119D01*
X68960735Y-68123643D02*
X68960735Y-68790310D01*
X68722640Y-67742691D02*
X68484545Y-68456976D01*
X68484545Y-68456976D02*
X69103592Y-68456976D01*
X66403592Y-106690310D02*
X66070259Y-106214119D01*
X65832164Y-106690310D02*
X65832164Y-105690310D01*
X65832164Y-105690310D02*
X66213116Y-105690310D01*
X66213116Y-105690310D02*
X66308354Y-105737929D01*
X66308354Y-105737929D02*
X66355973Y-105785548D01*
X66355973Y-105785548D02*
X66403592Y-105880786D01*
X66403592Y-105880786D02*
X66403592Y-106023643D01*
X66403592Y-106023643D02*
X66355973Y-106118881D01*
X66355973Y-106118881D02*
X66308354Y-106166500D01*
X66308354Y-106166500D02*
X66213116Y-106214119D01*
X66213116Y-106214119D02*
X65832164Y-106214119D01*
X66975021Y-106118881D02*
X66879783Y-106071262D01*
X66879783Y-106071262D02*
X66832164Y-106023643D01*
X66832164Y-106023643D02*
X66784545Y-105928405D01*
X66784545Y-105928405D02*
X66784545Y-105880786D01*
X66784545Y-105880786D02*
X66832164Y-105785548D01*
X66832164Y-105785548D02*
X66879783Y-105737929D01*
X66879783Y-105737929D02*
X66975021Y-105690310D01*
X66975021Y-105690310D02*
X67165497Y-105690310D01*
X67165497Y-105690310D02*
X67260735Y-105737929D01*
X67260735Y-105737929D02*
X67308354Y-105785548D01*
X67308354Y-105785548D02*
X67355973Y-105880786D01*
X67355973Y-105880786D02*
X67355973Y-105928405D01*
X67355973Y-105928405D02*
X67308354Y-106023643D01*
X67308354Y-106023643D02*
X67260735Y-106071262D01*
X67260735Y-106071262D02*
X67165497Y-106118881D01*
X67165497Y-106118881D02*
X66975021Y-106118881D01*
X66975021Y-106118881D02*
X66879783Y-106166500D01*
X66879783Y-106166500D02*
X66832164Y-106214119D01*
X66832164Y-106214119D02*
X66784545Y-106309357D01*
X66784545Y-106309357D02*
X66784545Y-106499833D01*
X66784545Y-106499833D02*
X66832164Y-106595071D01*
X66832164Y-106595071D02*
X66879783Y-106642691D01*
X66879783Y-106642691D02*
X66975021Y-106690310D01*
X66975021Y-106690310D02*
X67165497Y-106690310D01*
X67165497Y-106690310D02*
X67260735Y-106642691D01*
X67260735Y-106642691D02*
X67308354Y-106595071D01*
X67308354Y-106595071D02*
X67355973Y-106499833D01*
X67355973Y-106499833D02*
X67355973Y-106309357D01*
X67355973Y-106309357D02*
X67308354Y-106214119D01*
X67308354Y-106214119D02*
X67260735Y-106166500D01*
X67260735Y-106166500D02*
X67165497Y-106118881D01*
X53288095Y-120004819D02*
X53288095Y-119004819D01*
X53288095Y-119481009D02*
X53859523Y-119481009D01*
X53859523Y-120004819D02*
X53859523Y-119004819D01*
X54859523Y-120004819D02*
X54288095Y-120004819D01*
X54573809Y-120004819D02*
X54573809Y-119004819D01*
X54573809Y-119004819D02*
X54478571Y-119147676D01*
X54478571Y-119147676D02*
X54383333Y-119242914D01*
X54383333Y-119242914D02*
X54288095Y-119290533D01*
X127303592Y-79895071D02*
X127255973Y-79942691D01*
X127255973Y-79942691D02*
X127113116Y-79990310D01*
X127113116Y-79990310D02*
X127017878Y-79990310D01*
X127017878Y-79990310D02*
X126875021Y-79942691D01*
X126875021Y-79942691D02*
X126779783Y-79847452D01*
X126779783Y-79847452D02*
X126732164Y-79752214D01*
X126732164Y-79752214D02*
X126684545Y-79561738D01*
X126684545Y-79561738D02*
X126684545Y-79418881D01*
X126684545Y-79418881D02*
X126732164Y-79228405D01*
X126732164Y-79228405D02*
X126779783Y-79133167D01*
X126779783Y-79133167D02*
X126875021Y-79037929D01*
X126875021Y-79037929D02*
X127017878Y-78990310D01*
X127017878Y-78990310D02*
X127113116Y-78990310D01*
X127113116Y-78990310D02*
X127255973Y-79037929D01*
X127255973Y-79037929D02*
X127303592Y-79085548D01*
X127684545Y-79085548D02*
X127732164Y-79037929D01*
X127732164Y-79037929D02*
X127827402Y-78990310D01*
X127827402Y-78990310D02*
X128065497Y-78990310D01*
X128065497Y-78990310D02*
X128160735Y-79037929D01*
X128160735Y-79037929D02*
X128208354Y-79085548D01*
X128208354Y-79085548D02*
X128255973Y-79180786D01*
X128255973Y-79180786D02*
X128255973Y-79276024D01*
X128255973Y-79276024D02*
X128208354Y-79418881D01*
X128208354Y-79418881D02*
X127636926Y-79990310D01*
X127636926Y-79990310D02*
X128255973Y-79990310D01*
X69003592Y-73095071D02*
X68955973Y-73142691D01*
X68955973Y-73142691D02*
X68813116Y-73190310D01*
X68813116Y-73190310D02*
X68717878Y-73190310D01*
X68717878Y-73190310D02*
X68575021Y-73142691D01*
X68575021Y-73142691D02*
X68479783Y-73047452D01*
X68479783Y-73047452D02*
X68432164Y-72952214D01*
X68432164Y-72952214D02*
X68384545Y-72761738D01*
X68384545Y-72761738D02*
X68384545Y-72618881D01*
X68384545Y-72618881D02*
X68432164Y-72428405D01*
X68432164Y-72428405D02*
X68479783Y-72333167D01*
X68479783Y-72333167D02*
X68575021Y-72237929D01*
X68575021Y-72237929D02*
X68717878Y-72190310D01*
X68717878Y-72190310D02*
X68813116Y-72190310D01*
X68813116Y-72190310D02*
X68955973Y-72237929D01*
X68955973Y-72237929D02*
X69003592Y-72285548D01*
X69336926Y-72190310D02*
X69955973Y-72190310D01*
X69955973Y-72190310D02*
X69622640Y-72571262D01*
X69622640Y-72571262D02*
X69765497Y-72571262D01*
X69765497Y-72571262D02*
X69860735Y-72618881D01*
X69860735Y-72618881D02*
X69908354Y-72666500D01*
X69908354Y-72666500D02*
X69955973Y-72761738D01*
X69955973Y-72761738D02*
X69955973Y-72999833D01*
X69955973Y-72999833D02*
X69908354Y-73095071D01*
X69908354Y-73095071D02*
X69860735Y-73142691D01*
X69860735Y-73142691D02*
X69765497Y-73190310D01*
X69765497Y-73190310D02*
X69479783Y-73190310D01*
X69479783Y-73190310D02*
X69384545Y-73142691D01*
X69384545Y-73142691D02*
X69336926Y-73095071D01*
X123025078Y-92497395D02*
X123834601Y-92497395D01*
X123834601Y-92497395D02*
X123929839Y-92449776D01*
X123929839Y-92449776D02*
X123977459Y-92402157D01*
X123977459Y-92402157D02*
X124025078Y-92306919D01*
X124025078Y-92306919D02*
X124025078Y-92116443D01*
X124025078Y-92116443D02*
X123977459Y-92021205D01*
X123977459Y-92021205D02*
X123929839Y-91973586D01*
X123929839Y-91973586D02*
X123834601Y-91925967D01*
X123834601Y-91925967D02*
X123025078Y-91925967D01*
X123025078Y-91545014D02*
X123025078Y-90925967D01*
X123025078Y-90925967D02*
X123406030Y-91259300D01*
X123406030Y-91259300D02*
X123406030Y-91116443D01*
X123406030Y-91116443D02*
X123453649Y-91021205D01*
X123453649Y-91021205D02*
X123501268Y-90973586D01*
X123501268Y-90973586D02*
X123596506Y-90925967D01*
X123596506Y-90925967D02*
X123834601Y-90925967D01*
X123834601Y-90925967D02*
X123929839Y-90973586D01*
X123929839Y-90973586D02*
X123977459Y-91021205D01*
X123977459Y-91021205D02*
X124025078Y-91116443D01*
X124025078Y-91116443D02*
X124025078Y-91402157D01*
X124025078Y-91402157D02*
X123977459Y-91497395D01*
X123977459Y-91497395D02*
X123929839Y-91545014D01*
X73025078Y-76702157D02*
X72548887Y-77035490D01*
X73025078Y-77273585D02*
X72025078Y-77273585D01*
X72025078Y-77273585D02*
X72025078Y-76892633D01*
X72025078Y-76892633D02*
X72072697Y-76797395D01*
X72072697Y-76797395D02*
X72120316Y-76749776D01*
X72120316Y-76749776D02*
X72215554Y-76702157D01*
X72215554Y-76702157D02*
X72358411Y-76702157D01*
X72358411Y-76702157D02*
X72453649Y-76749776D01*
X72453649Y-76749776D02*
X72501268Y-76797395D01*
X72501268Y-76797395D02*
X72548887Y-76892633D01*
X72548887Y-76892633D02*
X72548887Y-77273585D01*
X72025078Y-75845014D02*
X72025078Y-76035490D01*
X72025078Y-76035490D02*
X72072697Y-76130728D01*
X72072697Y-76130728D02*
X72120316Y-76178347D01*
X72120316Y-76178347D02*
X72263173Y-76273585D01*
X72263173Y-76273585D02*
X72453649Y-76321204D01*
X72453649Y-76321204D02*
X72834601Y-76321204D01*
X72834601Y-76321204D02*
X72929839Y-76273585D01*
X72929839Y-76273585D02*
X72977459Y-76225966D01*
X72977459Y-76225966D02*
X73025078Y-76130728D01*
X73025078Y-76130728D02*
X73025078Y-75940252D01*
X73025078Y-75940252D02*
X72977459Y-75845014D01*
X72977459Y-75845014D02*
X72929839Y-75797395D01*
X72929839Y-75797395D02*
X72834601Y-75749776D01*
X72834601Y-75749776D02*
X72596506Y-75749776D01*
X72596506Y-75749776D02*
X72501268Y-75797395D01*
X72501268Y-75797395D02*
X72453649Y-75845014D01*
X72453649Y-75845014D02*
X72406030Y-75940252D01*
X72406030Y-75940252D02*
X72406030Y-76130728D01*
X72406030Y-76130728D02*
X72453649Y-76225966D01*
X72453649Y-76225966D02*
X72501268Y-76273585D01*
X72501268Y-76273585D02*
X72596506Y-76321204D01*
X74728354Y-104440310D02*
X74728354Y-105249833D01*
X74728354Y-105249833D02*
X74775973Y-105345071D01*
X74775973Y-105345071D02*
X74823592Y-105392691D01*
X74823592Y-105392691D02*
X74918830Y-105440310D01*
X74918830Y-105440310D02*
X75109306Y-105440310D01*
X75109306Y-105440310D02*
X75204544Y-105392691D01*
X75204544Y-105392691D02*
X75252163Y-105345071D01*
X75252163Y-105345071D02*
X75299782Y-105249833D01*
X75299782Y-105249833D02*
X75299782Y-104440310D01*
X76299782Y-105440310D02*
X75728354Y-105440310D01*
X76014068Y-105440310D02*
X76014068Y-104440310D01*
X76014068Y-104440310D02*
X75918830Y-104583167D01*
X75918830Y-104583167D02*
X75823592Y-104678405D01*
X75823592Y-104678405D02*
X75728354Y-104726024D01*
X63132164Y-66790310D02*
X63132164Y-65790310D01*
X63132164Y-65790310D02*
X63370259Y-65790310D01*
X63370259Y-65790310D02*
X63513116Y-65837929D01*
X63513116Y-65837929D02*
X63608354Y-65933167D01*
X63608354Y-65933167D02*
X63655973Y-66028405D01*
X63655973Y-66028405D02*
X63703592Y-66218881D01*
X63703592Y-66218881D02*
X63703592Y-66361738D01*
X63703592Y-66361738D02*
X63655973Y-66552214D01*
X63655973Y-66552214D02*
X63608354Y-66647452D01*
X63608354Y-66647452D02*
X63513116Y-66742691D01*
X63513116Y-66742691D02*
X63370259Y-66790310D01*
X63370259Y-66790310D02*
X63132164Y-66790310D01*
X64655973Y-66790310D02*
X64084545Y-66790310D01*
X64370259Y-66790310D02*
X64370259Y-65790310D01*
X64370259Y-65790310D02*
X64275021Y-65933167D01*
X64275021Y-65933167D02*
X64179783Y-66028405D01*
X64179783Y-66028405D02*
X64084545Y-66076024D01*
X127327919Y-120004524D02*
X127327919Y-119004524D01*
X127327919Y-119480714D02*
X127899347Y-119480714D01*
X127899347Y-120004524D02*
X127899347Y-119004524D01*
X128327919Y-119099762D02*
X128375538Y-119052143D01*
X128375538Y-119052143D02*
X128470776Y-119004524D01*
X128470776Y-119004524D02*
X128708871Y-119004524D01*
X128708871Y-119004524D02*
X128804109Y-119052143D01*
X128804109Y-119052143D02*
X128851728Y-119099762D01*
X128851728Y-119099762D02*
X128899347Y-119195000D01*
X128899347Y-119195000D02*
X128899347Y-119290238D01*
X128899347Y-119290238D02*
X128851728Y-119433095D01*
X128851728Y-119433095D02*
X128280300Y-120004524D01*
X128280300Y-120004524D02*
X128899347Y-120004524D01*
X53289483Y-45965077D02*
X53289483Y-44965077D01*
X53289483Y-45441267D02*
X53860911Y-45441267D01*
X53860911Y-45965077D02*
X53860911Y-44965077D01*
X54241864Y-44965077D02*
X54860911Y-44965077D01*
X54860911Y-44965077D02*
X54527578Y-45346029D01*
X54527578Y-45346029D02*
X54670435Y-45346029D01*
X54670435Y-45346029D02*
X54765673Y-45393648D01*
X54765673Y-45393648D02*
X54813292Y-45441267D01*
X54813292Y-45441267D02*
X54860911Y-45536505D01*
X54860911Y-45536505D02*
X54860911Y-45774600D01*
X54860911Y-45774600D02*
X54813292Y-45869838D01*
X54813292Y-45869838D02*
X54765673Y-45917458D01*
X54765673Y-45917458D02*
X54670435Y-45965077D01*
X54670435Y-45965077D02*
X54384721Y-45965077D01*
X54384721Y-45965077D02*
X54289483Y-45917458D01*
X54289483Y-45917458D02*
X54241864Y-45869838D01*
X62303592Y-79220310D02*
X61970259Y-78744119D01*
X61732164Y-79220310D02*
X61732164Y-78220310D01*
X61732164Y-78220310D02*
X62113116Y-78220310D01*
X62113116Y-78220310D02*
X62208354Y-78267929D01*
X62208354Y-78267929D02*
X62255973Y-78315548D01*
X62255973Y-78315548D02*
X62303592Y-78410786D01*
X62303592Y-78410786D02*
X62303592Y-78553643D01*
X62303592Y-78553643D02*
X62255973Y-78648881D01*
X62255973Y-78648881D02*
X62208354Y-78696500D01*
X62208354Y-78696500D02*
X62113116Y-78744119D01*
X62113116Y-78744119D02*
X61732164Y-78744119D01*
X63208354Y-78220310D02*
X62732164Y-78220310D01*
X62732164Y-78220310D02*
X62684545Y-78696500D01*
X62684545Y-78696500D02*
X62732164Y-78648881D01*
X62732164Y-78648881D02*
X62827402Y-78601262D01*
X62827402Y-78601262D02*
X63065497Y-78601262D01*
X63065497Y-78601262D02*
X63160735Y-78648881D01*
X63160735Y-78648881D02*
X63208354Y-78696500D01*
X63208354Y-78696500D02*
X63255973Y-78791738D01*
X63255973Y-78791738D02*
X63255973Y-79029833D01*
X63255973Y-79029833D02*
X63208354Y-79125071D01*
X63208354Y-79125071D02*
X63160735Y-79172691D01*
X63160735Y-79172691D02*
X63065497Y-79220310D01*
X63065497Y-79220310D02*
X62827402Y-79220310D01*
X62827402Y-79220310D02*
X62732164Y-79172691D01*
X62732164Y-79172691D02*
X62684545Y-79125071D01*
X77675020Y-72685548D02*
X77579782Y-72637929D01*
X77579782Y-72637929D02*
X77484544Y-72542691D01*
X77484544Y-72542691D02*
X77341687Y-72399833D01*
X77341687Y-72399833D02*
X77246449Y-72352214D01*
X77246449Y-72352214D02*
X77151211Y-72352214D01*
X77198830Y-72590310D02*
X77103592Y-72542691D01*
X77103592Y-72542691D02*
X77008354Y-72447452D01*
X77008354Y-72447452D02*
X76960735Y-72256976D01*
X76960735Y-72256976D02*
X76960735Y-71923643D01*
X76960735Y-71923643D02*
X77008354Y-71733167D01*
X77008354Y-71733167D02*
X77103592Y-71637929D01*
X77103592Y-71637929D02*
X77198830Y-71590310D01*
X77198830Y-71590310D02*
X77389306Y-71590310D01*
X77389306Y-71590310D02*
X77484544Y-71637929D01*
X77484544Y-71637929D02*
X77579782Y-71733167D01*
X77579782Y-71733167D02*
X77627401Y-71923643D01*
X77627401Y-71923643D02*
X77627401Y-72256976D01*
X77627401Y-72256976D02*
X77579782Y-72447452D01*
X77579782Y-72447452D02*
X77484544Y-72542691D01*
X77484544Y-72542691D02*
X77389306Y-72590310D01*
X77389306Y-72590310D02*
X77198830Y-72590310D01*
X78008354Y-71685548D02*
X78055973Y-71637929D01*
X78055973Y-71637929D02*
X78151211Y-71590310D01*
X78151211Y-71590310D02*
X78389306Y-71590310D01*
X78389306Y-71590310D02*
X78484544Y-71637929D01*
X78484544Y-71637929D02*
X78532163Y-71685548D01*
X78532163Y-71685548D02*
X78579782Y-71780786D01*
X78579782Y-71780786D02*
X78579782Y-71876024D01*
X78579782Y-71876024D02*
X78532163Y-72018881D01*
X78532163Y-72018881D02*
X77960735Y-72590310D01*
X77960735Y-72590310D02*
X78579782Y-72590310D01*
X55003592Y-69295071D02*
X54955973Y-69342691D01*
X54955973Y-69342691D02*
X54813116Y-69390310D01*
X54813116Y-69390310D02*
X54717878Y-69390310D01*
X54717878Y-69390310D02*
X54575021Y-69342691D01*
X54575021Y-69342691D02*
X54479783Y-69247452D01*
X54479783Y-69247452D02*
X54432164Y-69152214D01*
X54432164Y-69152214D02*
X54384545Y-68961738D01*
X54384545Y-68961738D02*
X54384545Y-68818881D01*
X54384545Y-68818881D02*
X54432164Y-68628405D01*
X54432164Y-68628405D02*
X54479783Y-68533167D01*
X54479783Y-68533167D02*
X54575021Y-68437929D01*
X54575021Y-68437929D02*
X54717878Y-68390310D01*
X54717878Y-68390310D02*
X54813116Y-68390310D01*
X54813116Y-68390310D02*
X54955973Y-68437929D01*
X54955973Y-68437929D02*
X55003592Y-68485548D01*
X55955973Y-69390310D02*
X55384545Y-69390310D01*
X55670259Y-69390310D02*
X55670259Y-68390310D01*
X55670259Y-68390310D02*
X55575021Y-68533167D01*
X55575021Y-68533167D02*
X55479783Y-68628405D01*
X55479783Y-68628405D02*
X55384545Y-68676024D01*
X66325078Y-60102157D02*
X65848887Y-60435490D01*
X66325078Y-60673585D02*
X65325078Y-60673585D01*
X65325078Y-60673585D02*
X65325078Y-60292633D01*
X65325078Y-60292633D02*
X65372697Y-60197395D01*
X65372697Y-60197395D02*
X65420316Y-60149776D01*
X65420316Y-60149776D02*
X65515554Y-60102157D01*
X65515554Y-60102157D02*
X65658411Y-60102157D01*
X65658411Y-60102157D02*
X65753649Y-60149776D01*
X65753649Y-60149776D02*
X65801268Y-60197395D01*
X65801268Y-60197395D02*
X65848887Y-60292633D01*
X65848887Y-60292633D02*
X65848887Y-60673585D01*
X66325078Y-59149776D02*
X66325078Y-59721204D01*
X66325078Y-59435490D02*
X65325078Y-59435490D01*
X65325078Y-59435490D02*
X65467935Y-59530728D01*
X65467935Y-59530728D02*
X65563173Y-59625966D01*
X65563173Y-59625966D02*
X65610792Y-59721204D01*
D14*
X72102639Y-119249333D02*
X72284068Y-119309809D01*
X72284068Y-119309809D02*
X72586449Y-119309809D01*
X72586449Y-119309809D02*
X72707401Y-119249333D01*
X72707401Y-119249333D02*
X72767877Y-119188856D01*
X72767877Y-119188856D02*
X72828354Y-119067904D01*
X72828354Y-119067904D02*
X72828354Y-118946952D01*
X72828354Y-118946952D02*
X72767877Y-118825999D01*
X72767877Y-118825999D02*
X72707401Y-118765523D01*
X72707401Y-118765523D02*
X72586449Y-118705047D01*
X72586449Y-118705047D02*
X72344544Y-118644571D01*
X72344544Y-118644571D02*
X72223592Y-118584094D01*
X72223592Y-118584094D02*
X72163115Y-118523618D01*
X72163115Y-118523618D02*
X72102639Y-118402666D01*
X72102639Y-118402666D02*
X72102639Y-118281713D01*
X72102639Y-118281713D02*
X72163115Y-118160761D01*
X72163115Y-118160761D02*
X72223592Y-118100285D01*
X72223592Y-118100285D02*
X72344544Y-118039809D01*
X72344544Y-118039809D02*
X72646925Y-118039809D01*
X72646925Y-118039809D02*
X72828354Y-118100285D01*
X73312163Y-118160761D02*
X73372639Y-118100285D01*
X73372639Y-118100285D02*
X73493592Y-118039809D01*
X73493592Y-118039809D02*
X73795973Y-118039809D01*
X73795973Y-118039809D02*
X73916925Y-118100285D01*
X73916925Y-118100285D02*
X73977401Y-118160761D01*
X73977401Y-118160761D02*
X74037878Y-118281713D01*
X74037878Y-118281713D02*
X74037878Y-118402666D01*
X74037878Y-118402666D02*
X73977401Y-118584094D01*
X73977401Y-118584094D02*
X73251687Y-119309809D01*
X73251687Y-119309809D02*
X74037878Y-119309809D01*
D12*
X63025078Y-60373585D02*
X62025078Y-60373585D01*
X62025078Y-60373585D02*
X62025078Y-60135490D01*
X62025078Y-60135490D02*
X62072697Y-59992633D01*
X62072697Y-59992633D02*
X62167935Y-59897395D01*
X62167935Y-59897395D02*
X62263173Y-59849776D01*
X62263173Y-59849776D02*
X62453649Y-59802157D01*
X62453649Y-59802157D02*
X62596506Y-59802157D01*
X62596506Y-59802157D02*
X62786982Y-59849776D01*
X62786982Y-59849776D02*
X62882220Y-59897395D01*
X62882220Y-59897395D02*
X62977459Y-59992633D01*
X62977459Y-59992633D02*
X63025078Y-60135490D01*
X63025078Y-60135490D02*
X63025078Y-60373585D01*
X62120316Y-59421204D02*
X62072697Y-59373585D01*
X62072697Y-59373585D02*
X62025078Y-59278347D01*
X62025078Y-59278347D02*
X62025078Y-59040252D01*
X62025078Y-59040252D02*
X62072697Y-58945014D01*
X62072697Y-58945014D02*
X62120316Y-58897395D01*
X62120316Y-58897395D02*
X62215554Y-58849776D01*
X62215554Y-58849776D02*
X62310792Y-58849776D01*
X62310792Y-58849776D02*
X62453649Y-58897395D01*
X62453649Y-58897395D02*
X63025078Y-59468823D01*
X63025078Y-59468823D02*
X63025078Y-58849776D01*
D15*
%TO.C,C5*%
X63831511Y-109500491D02*
X63309007Y-109500491D01*
X63831511Y-110970491D02*
X63309007Y-110970491D01*
%TO.C,J2*%
X50680259Y-56665491D02*
X52385259Y-56665491D01*
X50680259Y-65825491D02*
X50680259Y-56665491D01*
X52385259Y-65825491D02*
X50680259Y-65825491D01*
X54395259Y-65825491D02*
X56315259Y-65825491D01*
X56315259Y-56665491D02*
X54395259Y-56665491D01*
%TO.C,J1*%
X65640259Y-48555491D02*
X66970259Y-48555491D01*
X65640259Y-49885491D02*
X65640259Y-48555491D01*
X65640259Y-51155491D02*
X68240259Y-51155491D01*
X65640259Y-53755491D02*
X65640259Y-51155491D01*
X65640259Y-53755491D02*
X116560259Y-53755491D01*
X68240259Y-48555491D02*
X116560259Y-48555491D01*
X68240259Y-51155491D02*
X68240259Y-48555491D01*
X116560259Y-53755491D02*
X116560259Y-48555491D01*
%TO.C,R3*%
X61243195Y-67500491D02*
X61697323Y-67500491D01*
X61243195Y-68970491D02*
X61697323Y-68970491D01*
%TO.C,C4*%
X66109007Y-69870491D02*
X66631511Y-69870491D01*
X66109007Y-71340491D02*
X66631511Y-71340491D01*
D10*
%TO.C,S1*%
X61320259Y-123735491D02*
X61320259Y-122735491D01*
X65070259Y-120985491D02*
X62070259Y-120985491D01*
X65070259Y-125485491D02*
X62070259Y-125485491D01*
X65820259Y-123735491D02*
X65820259Y-122735491D01*
D15*
%TO.C,C7*%
X63831511Y-107500491D02*
X63309007Y-107500491D01*
X63831511Y-108970491D02*
X63309007Y-108970491D01*
%TO.C,Q1*%
X77807759Y-78825491D02*
X77157759Y-78825491D01*
X77807759Y-78825491D02*
X78457759Y-78825491D01*
X77807759Y-81945491D02*
X77157759Y-81945491D01*
X77807759Y-81945491D02*
X78457759Y-81945491D01*
X76645259Y-78875491D02*
X76405259Y-78545491D01*
X76885259Y-78545491D01*
X76645259Y-78875491D01*
G36*
X76645259Y-78875491D02*
G01*
X76405259Y-78545491D01*
X76885259Y-78545491D01*
X76645259Y-78875491D01*
G37*
%TO.C,R2*%
X63435259Y-63208427D02*
X63435259Y-63662555D01*
X64905259Y-63208427D02*
X64905259Y-63662555D01*
%TO.C,D3*%
X60235259Y-62035491D02*
X60235259Y-64320491D01*
X60235259Y-64320491D02*
X61705259Y-64320491D01*
X61705259Y-64320491D02*
X61705259Y-62035491D01*
D16*
%TO.C,MICRO_SD1*%
X116545259Y-64135491D02*
X116545259Y-61897491D01*
X118795259Y-75035491D02*
X125295259Y-75035491D01*
X125295259Y-60235491D02*
X118795259Y-60235491D01*
X128795259Y-75035491D02*
X131045259Y-75034511D01*
X131045259Y-75034511D02*
X131057959Y-60236471D01*
X131057959Y-60236471D02*
X129295259Y-60235491D01*
D14*
X115937769Y-64339841D02*
G75*
G02*
X115683769Y-64339841I-127000J0D01*
G01*
X115683769Y-64339841D02*
G75*
G02*
X115937769Y-64339841I127000J0D01*
G01*
D15*
%TO.C,J3*%
X82120259Y-117465491D02*
X115400259Y-117465491D01*
X82120259Y-126585491D02*
X82120259Y-117465491D01*
X96710259Y-117465491D02*
X96710259Y-126585491D01*
X100810259Y-117465491D02*
X100810259Y-126585491D01*
X109690259Y-110845491D02*
X110190259Y-111845491D01*
X110190259Y-111845491D02*
X110690259Y-110845491D01*
X110690259Y-110845491D02*
X109690259Y-110845491D01*
X115400259Y-117465491D02*
X115400259Y-126585491D01*
X115400259Y-126585491D02*
X82120259Y-126585491D01*
%TO.C,R7*%
X73635259Y-80462555D02*
X73635259Y-80008427D01*
X75105259Y-80462555D02*
X75105259Y-80008427D01*
%TO.C,C6*%
X78135259Y-84274239D02*
X78135259Y-84796743D01*
X79605259Y-84274239D02*
X79605259Y-84796743D01*
%TO.C,C9*%
X59831511Y-107500491D02*
X59309007Y-107500491D01*
X59831511Y-108970491D02*
X59309007Y-108970491D01*
%TO.C,U2*%
X64360259Y-75005491D02*
X65085259Y-75005491D01*
X64360259Y-75730491D02*
X64360259Y-75005491D01*
X64360259Y-79500491D02*
X64360259Y-80225491D01*
X64360259Y-80225491D02*
X65085259Y-80225491D01*
X68855259Y-75005491D02*
X69340259Y-75005491D01*
X69580259Y-75730491D02*
X69580259Y-75305491D01*
X69580259Y-79500491D02*
X69580259Y-80225491D01*
X69580259Y-80225491D02*
X68855259Y-80225491D01*
X69910259Y-75245491D02*
X69580259Y-75005491D01*
X69910259Y-74765491D01*
X69910259Y-75245491D01*
G36*
X69910259Y-75245491D02*
G01*
X69580259Y-75005491D01*
X69910259Y-74765491D01*
X69910259Y-75245491D01*
G37*
%TO.C,R9*%
X80235259Y-84208427D02*
X80235259Y-84662555D01*
X81705259Y-84208427D02*
X81705259Y-84662555D01*
%TO.C,C8*%
X59831511Y-105500491D02*
X59309007Y-105500491D01*
X59831511Y-106970491D02*
X59309007Y-106970491D01*
%TO.C,R4*%
X65243195Y-67500491D02*
X65697323Y-67500491D01*
X65243195Y-68970491D02*
X65697323Y-68970491D01*
%TO.C,R8*%
X63797323Y-105500491D02*
X63343195Y-105500491D01*
X63797323Y-106970491D02*
X63343195Y-106970491D01*
%TO.C,C2*%
X126309007Y-80500491D02*
X126831511Y-80500491D01*
X126309007Y-81970491D02*
X126831511Y-81970491D01*
%TO.C,C3*%
X66109007Y-72000491D02*
X66631511Y-72000491D01*
X66109007Y-73470491D02*
X66631511Y-73470491D01*
D12*
%TO.C,U3*%
X113820259Y-83485491D02*
X113820259Y-99985491D01*
X113820259Y-99985491D02*
X114570259Y-99985491D01*
X114570259Y-83485491D02*
X113820259Y-83485491D01*
X130570259Y-83485491D02*
X131320259Y-83485491D01*
X131320259Y-83485491D02*
X131320259Y-99985491D01*
X131320259Y-99985491D02*
X130570259Y-99985491D01*
D15*
X131070259Y-83185491D02*
X130570259Y-83185491D01*
X130570259Y-82685491D01*
X131070259Y-83185491D01*
G36*
X131070259Y-83185491D02*
G01*
X130570259Y-83185491D01*
X130570259Y-82685491D01*
X131070259Y-83185491D01*
G37*
D17*
%TO.C,G\u002A\u002A\u002A*%
G36*
X87473916Y-70549204D02*
G01*
X87622447Y-70674202D01*
X87652044Y-70857483D01*
X87538773Y-71056179D01*
X87389598Y-71171981D01*
X87253271Y-71158868D01*
X87128260Y-71078725D01*
X87011741Y-70913062D01*
X87011893Y-70721595D01*
X87116518Y-70570121D01*
X87230955Y-70524790D01*
X87473916Y-70549204D01*
G37*
G36*
X87414566Y-82871975D02*
G01*
X87534530Y-82957048D01*
X87660875Y-83160018D01*
X87619271Y-83345312D01*
X87548922Y-83419061D01*
X87359427Y-83493321D01*
X87174525Y-83447094D01*
X87039802Y-83316555D01*
X87000843Y-83137877D01*
X87044681Y-83018936D01*
X87216107Y-82865054D01*
X87414566Y-82871975D01*
G37*
G36*
X93892620Y-96152712D02*
G01*
X94227240Y-96225928D01*
X94577550Y-96324159D01*
X94829289Y-96411063D01*
X95001120Y-96532887D01*
X95063278Y-96691436D01*
X95004173Y-96832274D01*
X94928677Y-96877851D01*
X94772208Y-96897317D01*
X94515917Y-96891601D01*
X94330538Y-96874833D01*
X94023629Y-96819811D01*
X93844656Y-96733790D01*
X93772691Y-96644795D01*
X93631397Y-96452092D01*
X93500094Y-96323413D01*
X93383411Y-96213292D01*
X93397372Y-96153279D01*
X93463564Y-96122175D01*
X93621968Y-96114724D01*
X93892620Y-96152712D01*
G37*
G36*
X90731302Y-70184826D02*
G01*
X90782870Y-70251997D01*
X90807632Y-70407058D01*
X90815111Y-70685281D01*
X90815409Y-70807398D01*
X90812762Y-71131465D01*
X90796869Y-71321427D01*
X90755801Y-71413069D01*
X90677628Y-71442179D01*
X90603035Y-71444521D01*
X90436498Y-71404702D01*
X90390660Y-71274622D01*
X90380658Y-71202902D01*
X90331884Y-71154805D01*
X90216181Y-71125639D01*
X90005396Y-71110710D01*
X89671373Y-71105326D01*
X89371262Y-71104722D01*
X88940946Y-71106389D01*
X88652365Y-71114518D01*
X88477364Y-71133802D01*
X88387790Y-71168933D01*
X88355487Y-71224603D01*
X88351864Y-71274622D01*
X88302089Y-71407851D01*
X88139489Y-71444521D01*
X88013447Y-71430750D01*
X87950568Y-71360471D01*
X87929127Y-71190234D01*
X87927115Y-71019772D01*
X87927115Y-70595023D01*
X89118515Y-70595023D01*
X90309915Y-70595023D01*
X90390660Y-70382648D01*
X90519088Y-70210301D01*
X90643407Y-70170274D01*
X90731302Y-70184826D01*
G37*
G36*
X90710669Y-82580787D02*
G01*
X90773958Y-82628049D01*
X90804668Y-82750360D01*
X90814564Y-82983347D01*
X90815409Y-83215982D01*
X90812600Y-83541469D01*
X90797145Y-83731038D01*
X90758503Y-83818654D01*
X90686132Y-83838286D01*
X90624272Y-83831868D01*
X90452533Y-83735130D01*
X90405989Y-83613585D01*
X90387301Y-83532610D01*
X90339065Y-83478487D01*
X90232033Y-83445813D01*
X90036959Y-83429186D01*
X89724594Y-83423202D01*
X89371262Y-83422448D01*
X88944210Y-83423811D01*
X88657808Y-83431503D01*
X88482808Y-83450927D01*
X88389963Y-83487485D01*
X88350027Y-83546579D01*
X88336535Y-83613585D01*
X88252144Y-83773401D01*
X88139489Y-83804722D01*
X88037542Y-83780451D01*
X87980582Y-83680727D01*
X87950909Y-83465184D01*
X87943913Y-83358735D01*
X87918236Y-82912749D01*
X89154448Y-82912749D01*
X89635703Y-82911573D01*
X89972679Y-82905699D01*
X90190997Y-82891606D01*
X90316272Y-82865773D01*
X90374123Y-82824679D01*
X90390169Y-82764803D01*
X90390660Y-82742849D01*
X90440435Y-82609620D01*
X90603035Y-82572949D01*
X90710669Y-82580787D01*
G37*
G36*
X94418800Y-69647641D02*
G01*
X94671061Y-69720353D01*
X94779656Y-69818725D01*
X94735530Y-69925246D01*
X94600301Y-69998616D01*
X94377513Y-70151362D01*
X94281210Y-70365992D01*
X94297557Y-70608601D01*
X94412716Y-70845281D01*
X94612852Y-71042129D01*
X94884128Y-71165237D01*
X95086349Y-71189672D01*
X95304616Y-71119563D01*
X95508794Y-70948361D01*
X95638805Y-70734751D01*
X95657232Y-70632023D01*
X95614029Y-70451528D01*
X95508612Y-70225347D01*
X95490456Y-70194594D01*
X95394460Y-69973392D01*
X95416949Y-69860121D01*
X95531761Y-69873583D01*
X95712737Y-70032579D01*
X95713938Y-70033974D01*
X95853088Y-70257425D01*
X95904240Y-70535490D01*
X95905693Y-70663473D01*
X95892857Y-70925265D01*
X95868248Y-71122623D01*
X95855543Y-71170222D01*
X95726652Y-71309342D01*
X95492986Y-71433800D01*
X95219042Y-71514363D01*
X95062901Y-71529471D01*
X94690461Y-71458852D01*
X94371419Y-71269449D01*
X94129080Y-70994944D01*
X93986750Y-70669018D01*
X93967735Y-70325353D01*
X94052274Y-70068936D01*
X94101602Y-69913662D01*
X94031746Y-69823209D01*
X93957061Y-69733576D01*
X94019970Y-69665024D01*
X94188294Y-69632150D01*
X94418800Y-69647641D01*
G37*
G36*
X88160727Y-84117641D02*
G01*
X88345789Y-84181468D01*
X88417782Y-84343350D01*
X88419527Y-84356896D01*
X88523321Y-84777749D01*
X88728608Y-85079510D01*
X89048323Y-85271838D01*
X89495402Y-85364391D01*
X89784801Y-85376294D01*
X90100844Y-85371873D01*
X90283099Y-85351875D01*
X90367590Y-85306198D01*
X90390341Y-85224740D01*
X90390660Y-85206394D01*
X90440435Y-85073165D01*
X90603035Y-85036495D01*
X90710669Y-85044332D01*
X90773958Y-85091594D01*
X90804668Y-85213905D01*
X90814564Y-85446892D01*
X90815409Y-85679527D01*
X90812600Y-86005015D01*
X90797145Y-86194583D01*
X90758503Y-86282199D01*
X90686132Y-86301831D01*
X90624272Y-86295413D01*
X90452533Y-86198676D01*
X90405989Y-86077130D01*
X90387301Y-85996155D01*
X90339065Y-85942033D01*
X90232033Y-85909359D01*
X90036959Y-85892731D01*
X89724594Y-85886747D01*
X89371262Y-85885993D01*
X88944210Y-85887356D01*
X88657808Y-85895049D01*
X88482808Y-85914472D01*
X88389963Y-85951030D01*
X88350027Y-86010124D01*
X88336535Y-86077130D01*
X88252144Y-86236946D01*
X88139489Y-86268267D01*
X88033005Y-86241039D01*
X87975222Y-86131622D01*
X87945957Y-85898421D01*
X87943698Y-85864756D01*
X87917806Y-85461244D01*
X88271244Y-85461244D01*
X88624681Y-85461244D01*
X88362535Y-85216363D01*
X88069051Y-84845446D01*
X87935133Y-84435500D01*
X87927115Y-84303248D01*
X87952446Y-84151848D01*
X88063343Y-84110662D01*
X88160727Y-84117641D01*
G37*
G36*
X88320328Y-75331938D02*
G01*
X88394736Y-75429001D01*
X88439249Y-75646627D01*
X88442407Y-75669885D01*
X88563625Y-76060733D01*
X88811559Y-76347384D01*
X89190328Y-76532473D01*
X89704056Y-76618633D01*
X89938765Y-76625987D01*
X90200071Y-76617991D01*
X90336775Y-76581040D01*
X90393845Y-76496783D01*
X90405989Y-76435324D01*
X90502727Y-76263585D01*
X90624272Y-76217041D01*
X90721140Y-76212734D01*
X90778140Y-76256633D01*
X90805815Y-76382704D01*
X90814706Y-76624916D01*
X90815409Y-76832927D01*
X90812821Y-77158825D01*
X90797212Y-77350453D01*
X90756816Y-77443437D01*
X90679867Y-77473401D01*
X90603035Y-77475960D01*
X90436498Y-77436140D01*
X90390660Y-77306060D01*
X90380658Y-77234340D01*
X90331884Y-77186244D01*
X90216181Y-77157077D01*
X90005396Y-77142148D01*
X89671373Y-77136764D01*
X89371262Y-77136160D01*
X88940946Y-77137827D01*
X88652365Y-77145956D01*
X88477364Y-77165240D01*
X88387790Y-77200371D01*
X88355487Y-77256041D01*
X88351864Y-77306060D01*
X88303303Y-77438249D01*
X88134835Y-77475960D01*
X88004775Y-77463717D01*
X87945230Y-77397327D01*
X87935123Y-77232294D01*
X87943698Y-77072448D01*
X87966975Y-76828066D01*
X88018332Y-76705434D01*
X88131901Y-76656511D01*
X88249501Y-76642031D01*
X88529412Y-76615126D01*
X88271966Y-76321911D01*
X88059576Y-76025030D01*
X87944291Y-75746276D01*
X87928672Y-75514811D01*
X88015278Y-75359792D01*
X88183128Y-75309739D01*
X88320328Y-75331938D01*
G37*
G36*
X94865531Y-67627809D02*
G01*
X94929941Y-67668330D01*
X94963377Y-67776985D01*
X94975995Y-67987417D01*
X94977951Y-68333271D01*
X94977951Y-68343853D01*
X94980227Y-68693669D01*
X94993236Y-68907188D01*
X95026244Y-69018004D01*
X95088521Y-69059711D01*
X95177159Y-69065926D01*
X95429103Y-68997459D01*
X95587389Y-68815116D01*
X95640967Y-68553488D01*
X95578787Y-68247164D01*
X95493463Y-68075793D01*
X95386760Y-67851134D01*
X95407762Y-67731638D01*
X95503057Y-67706729D01*
X95589695Y-67772494D01*
X95713406Y-67935333D01*
X95743431Y-67982816D01*
X95878562Y-68327938D01*
X95905688Y-68700609D01*
X95824777Y-69037348D01*
X95743990Y-69172161D01*
X95478462Y-69381042D01*
X95133805Y-69453144D01*
X94736524Y-69384755D01*
X94663795Y-69356395D01*
X94601508Y-69332107D01*
X94277492Y-69120722D01*
X94066636Y-68845508D01*
X93965973Y-68538498D01*
X93969764Y-68361237D01*
X94213403Y-68361237D01*
X94261577Y-68558073D01*
X94377271Y-68781909D01*
X94517238Y-68958688D01*
X94592535Y-69010491D01*
X94663795Y-69011878D01*
X94703784Y-68926463D01*
X94720661Y-68723042D01*
X94723102Y-68511086D01*
X94708039Y-68169341D01*
X94663240Y-67989961D01*
X94623603Y-67961578D01*
X94466038Y-68025542D01*
X94307010Y-68171680D01*
X94216961Y-68331358D01*
X94213403Y-68361237D01*
X93969764Y-68361237D01*
X93972533Y-68231727D01*
X94083348Y-67957228D01*
X94295451Y-67747033D01*
X94605873Y-67633176D01*
X94759992Y-67621779D01*
X94865531Y-67627809D01*
G37*
G36*
X90605632Y-67831637D02*
G01*
X90741267Y-67972681D01*
X90837113Y-68196850D01*
X90876307Y-68460812D01*
X90841986Y-68721232D01*
X90821058Y-68778106D01*
X90700850Y-68956271D01*
X90517385Y-69136234D01*
X90513706Y-69139143D01*
X90394269Y-69219239D01*
X90254704Y-69271848D01*
X90058114Y-69302572D01*
X89767604Y-69317011D01*
X89346276Y-69320768D01*
X89317331Y-69320776D01*
X88351864Y-69320776D01*
X88351864Y-69533150D01*
X88316778Y-69694811D01*
X88178627Y-69744628D01*
X88139489Y-69745525D01*
X87977829Y-69710438D01*
X87928012Y-69572287D01*
X87927115Y-69533150D01*
X87908973Y-69397140D01*
X87822910Y-69336119D01*
X87621465Y-69320910D01*
X87581673Y-69320776D01*
X87362805Y-69311896D01*
X87269445Y-69263626D01*
X87257344Y-69143514D01*
X87263111Y-69087164D01*
X87304703Y-68929445D01*
X87416268Y-68855135D01*
X87608553Y-68827186D01*
X87805259Y-68802535D01*
X87897736Y-68738714D01*
X87925331Y-68585881D01*
X87927115Y-68423674D01*
X87936199Y-68189786D01*
X87980640Y-68079742D01*
X88086219Y-68047757D01*
X88139489Y-68046528D01*
X88270541Y-68062373D01*
X88332633Y-68140254D01*
X88351053Y-68325695D01*
X88351864Y-68428802D01*
X88351864Y-68811077D01*
X89227601Y-68811077D01*
X89705704Y-68802910D01*
X90037361Y-68770518D01*
X90245573Y-68702061D01*
X90353341Y-68585701D01*
X90383666Y-68409599D01*
X90368452Y-68223872D01*
X90352642Y-67976183D01*
X90396790Y-67849283D01*
X90447070Y-67817051D01*
X90605632Y-67831637D01*
G37*
G36*
X94404540Y-79224683D02*
G01*
X94751328Y-79271873D01*
X95101009Y-79325457D01*
X95217978Y-79345265D01*
X95466640Y-79374056D01*
X95594656Y-79342951D01*
X95630578Y-79292612D01*
X95743196Y-79185936D01*
X95799445Y-79174956D01*
X95885482Y-79231672D01*
X95899338Y-79418460D01*
X95896544Y-79451043D01*
X95848666Y-79643932D01*
X95765552Y-79706225D01*
X95763737Y-79705893D01*
X95667767Y-79728671D01*
X95685800Y-79828957D01*
X95784974Y-79939505D01*
X95886262Y-80118992D01*
X95911388Y-80375763D01*
X95863363Y-80636777D01*
X95748425Y-80826115D01*
X95637735Y-80901671D01*
X95489979Y-80937670D01*
X95260175Y-80939024D01*
X94941402Y-80914250D01*
X94580647Y-80889693D01*
X94371437Y-80899312D01*
X94298724Y-80943920D01*
X94298352Y-80948922D01*
X94227066Y-81025215D01*
X94123070Y-81043853D01*
X94003885Y-81015801D01*
X93967372Y-80899680D01*
X93974408Y-80767766D01*
X94001028Y-80491679D01*
X94468252Y-80528717D01*
X94912168Y-80559583D01*
X95217552Y-80567535D01*
X95414544Y-80550038D01*
X95533287Y-80504558D01*
X95600828Y-80433497D01*
X95634013Y-80239166D01*
X95543737Y-80014992D01*
X95354379Y-79814858D01*
X95306129Y-79782062D01*
X95122101Y-79704966D01*
X94877811Y-79647940D01*
X94625455Y-79616642D01*
X94417231Y-79616729D01*
X94305335Y-79653860D01*
X94298352Y-79672822D01*
X94227320Y-79751409D01*
X94128453Y-79769605D01*
X94011801Y-79736728D01*
X93964387Y-79608031D01*
X93958553Y-79469355D01*
X93958553Y-79169104D01*
X94404540Y-79224683D01*
G37*
G36*
X95878064Y-72023559D02*
G01*
X95911693Y-72184214D01*
X95894639Y-72365146D01*
X95826593Y-72495314D01*
X95796509Y-72513723D01*
X95735666Y-72571666D01*
X95758612Y-72696181D01*
X95838984Y-72868818D01*
X95950748Y-73109848D01*
X95983823Y-73279247D01*
X95946268Y-73451470D01*
X95911806Y-73541476D01*
X95744085Y-73772673D01*
X95504385Y-73860839D01*
X95412611Y-73840569D01*
X95254901Y-73805737D01*
X95000446Y-73601629D01*
X94853660Y-73279398D01*
X94810044Y-72871679D01*
X95062901Y-72871679D01*
X95097853Y-73214930D01*
X95207412Y-73414628D01*
X95398634Y-73483112D01*
X95412611Y-73483317D01*
X95569521Y-73415416D01*
X95644722Y-73242246D01*
X95634249Y-73009607D01*
X95534136Y-72763297D01*
X95481484Y-72687750D01*
X95296037Y-72498672D01*
X95164244Y-72470760D01*
X95086459Y-72603859D01*
X95062901Y-72871679D01*
X94810044Y-72871679D01*
X94809304Y-72864765D01*
X94774456Y-72563397D01*
X94677407Y-72406424D01*
X94525964Y-72401695D01*
X94417447Y-72470833D01*
X94338341Y-72630369D01*
X94314155Y-72896555D01*
X94346547Y-73214704D01*
X94389466Y-73393322D01*
X94353801Y-73512433D01*
X94286937Y-73546322D01*
X94154118Y-73496664D01*
X94053325Y-73305079D01*
X93962561Y-72863614D01*
X94014692Y-72485633D01*
X94153419Y-72246848D01*
X94260758Y-72131571D01*
X94365044Y-72069923D01*
X94513671Y-72053385D01*
X94754034Y-72073440D01*
X94968611Y-72100347D01*
X95303017Y-72136933D01*
X95504158Y-72139204D01*
X95605504Y-72105493D01*
X95632332Y-72067306D01*
X95743074Y-71963721D01*
X95794063Y-71954220D01*
X95878064Y-72023559D01*
G37*
G36*
X89188246Y-78052276D02*
G01*
X89572710Y-78132570D01*
X89898251Y-78288891D01*
X90218064Y-78539646D01*
X90249778Y-78568768D01*
X90555533Y-78955029D01*
X90766822Y-79431901D01*
X90866847Y-79943226D01*
X90838810Y-80432844D01*
X90824959Y-80491679D01*
X90598959Y-81038378D01*
X90230719Y-81494882D01*
X89726581Y-81853389D01*
X89711061Y-81861681D01*
X89417114Y-81959073D01*
X89021691Y-82014129D01*
X88734578Y-82022289D01*
X88584043Y-82026568D01*
X88163426Y-81996108D01*
X87819091Y-81922469D01*
X87697462Y-81871245D01*
X87237627Y-81535092D01*
X86895528Y-81108517D01*
X86676234Y-80620437D01*
X86600999Y-80191965D01*
X87079754Y-80191965D01*
X87193832Y-80597195D01*
X87200702Y-80610712D01*
X87415950Y-80908685D01*
X87715486Y-81178251D01*
X88039554Y-81371562D01*
X88226560Y-81432130D01*
X88734578Y-81472401D01*
X89220161Y-81411059D01*
X89629947Y-81257083D01*
X89756655Y-81174658D01*
X90023828Y-80901360D01*
X90239214Y-80553907D01*
X90366982Y-80197691D01*
X90386929Y-80024455D01*
X90351836Y-79814396D01*
X90264133Y-79547216D01*
X90228141Y-79462419D01*
X90054021Y-79184279D01*
X89817435Y-78925182D01*
X89750920Y-78869877D01*
X89378077Y-78679127D01*
X88921574Y-78584534D01*
X88440629Y-78590322D01*
X87994460Y-78700714D01*
X87908858Y-78738483D01*
X87537965Y-78999550D01*
X87266419Y-79354549D01*
X87108816Y-79764885D01*
X87079754Y-80191965D01*
X86600999Y-80191965D01*
X86584811Y-80099770D01*
X86626326Y-79575434D01*
X86805849Y-79076345D01*
X87128446Y-78631423D01*
X87129512Y-78630325D01*
X87432042Y-78350313D01*
X87720042Y-78170929D01*
X88046240Y-78071896D01*
X88463366Y-78032937D01*
X88691663Y-78029602D01*
X89188246Y-78052276D01*
G37*
G36*
X86956676Y-86633262D02*
G01*
X86998773Y-86653809D01*
X87112290Y-86750711D01*
X87086720Y-86887192D01*
X87071473Y-86916870D01*
X87012257Y-87174123D01*
X87098509Y-87403398D01*
X87305797Y-87576270D01*
X87609691Y-87664314D01*
X87718737Y-87669939D01*
X87842469Y-87655596D01*
X87904198Y-87583651D01*
X87925205Y-87410729D01*
X87927115Y-87245190D01*
X87934000Y-86993106D01*
X87969140Y-86867347D01*
X88054259Y-86824465D01*
X88139489Y-86820441D01*
X88265532Y-86834212D01*
X88328411Y-86904492D01*
X88349852Y-87074728D01*
X88351864Y-87245190D01*
X88351864Y-87669939D01*
X89371262Y-87669939D01*
X90390660Y-87669939D01*
X90390660Y-87372615D01*
X90406527Y-87171547D01*
X90477931Y-87089233D01*
X90603035Y-87075291D01*
X90705876Y-87081920D01*
X90768641Y-87124235D01*
X90801223Y-87235871D01*
X90813514Y-87450467D01*
X90815409Y-87797364D01*
X90813459Y-88147026D01*
X90801014Y-88360426D01*
X90768180Y-88471204D01*
X90705063Y-88512995D01*
X90603035Y-88519438D01*
X90436498Y-88479618D01*
X90390660Y-88349538D01*
X90380658Y-88277819D01*
X90331884Y-88229722D01*
X90216181Y-88200555D01*
X90005396Y-88185626D01*
X89671373Y-88180242D01*
X89371262Y-88179638D01*
X88940946Y-88181305D01*
X88652365Y-88189434D01*
X88477364Y-88208718D01*
X88387790Y-88243849D01*
X88355487Y-88299520D01*
X88351864Y-88349538D01*
X88302089Y-88482767D01*
X88139489Y-88519438D01*
X87972953Y-88479618D01*
X87927115Y-88349538D01*
X87890738Y-88228970D01*
X87751831Y-88183109D01*
X87651028Y-88179506D01*
X87317484Y-88123667D01*
X86995865Y-87978603D01*
X86749710Y-87777538D01*
X86676539Y-87669939D01*
X86580325Y-87333264D01*
X86599171Y-86990244D01*
X86700369Y-86754094D01*
X86824705Y-86625554D01*
X86956676Y-86633262D01*
G37*
G36*
X93512566Y-81491756D02*
G01*
X93777879Y-81523156D01*
X94149218Y-81569611D01*
X94564265Y-81623259D01*
X94759221Y-81649056D01*
X95161802Y-81698122D01*
X95423988Y-81716914D01*
X95572518Y-81705691D01*
X95634132Y-81664714D01*
X95637036Y-81657569D01*
X95740608Y-81562420D01*
X95792054Y-81553552D01*
X95880852Y-81621975D01*
X95912186Y-81782230D01*
X95887518Y-81966794D01*
X95808307Y-82108143D01*
X95779607Y-82129123D01*
X95690580Y-82200280D01*
X95741577Y-82281119D01*
X95779607Y-82313645D01*
X95876456Y-82489751D01*
X95912388Y-82783668D01*
X95912399Y-82789560D01*
X95887829Y-83057476D01*
X95793376Y-83235279D01*
X95688568Y-83331332D01*
X95402763Y-83464019D01*
X95089983Y-83500981D01*
X95043374Y-83506489D01*
X94682134Y-83456552D01*
X94471636Y-83368459D01*
X94189933Y-83123206D01*
X94016476Y-82808915D01*
X93969104Y-82500098D01*
X94315043Y-82500098D01*
X94325010Y-82742180D01*
X94430495Y-82912416D01*
X94517636Y-82987956D01*
X94804662Y-83141234D01*
X95089983Y-83176416D01*
X95343838Y-83112451D01*
X95536464Y-82968288D01*
X95638100Y-82762875D01*
X95618983Y-82515162D01*
X95529861Y-82343503D01*
X95297468Y-82140532D01*
X94990036Y-82033843D01*
X94678261Y-82043033D01*
X94576852Y-82079300D01*
X94402186Y-82206974D01*
X94325737Y-82408702D01*
X94315043Y-82500098D01*
X93969104Y-82500098D01*
X93964566Y-82470512D01*
X94047505Y-82152926D01*
X94090795Y-82082152D01*
X94174736Y-81946015D01*
X94147172Y-81898489D01*
X94058939Y-81893351D01*
X93856919Y-81876738D01*
X93629372Y-81840257D01*
X93441205Y-81820978D01*
X93369454Y-81876289D01*
X93363904Y-81925207D01*
X93300397Y-82044503D01*
X93236479Y-82063251D01*
X93143784Y-82001173D01*
X93109664Y-81800801D01*
X93109055Y-81755118D01*
X93109055Y-81446985D01*
X93512566Y-81491756D01*
G37*
G36*
X89609305Y-71908890D02*
G01*
X90033598Y-72024545D01*
X90402295Y-72240506D01*
X90678756Y-72554403D01*
X90738625Y-72668184D01*
X90862745Y-73008304D01*
X90881531Y-73289057D01*
X90804922Y-73568224D01*
X90680769Y-73791831D01*
X90540649Y-73971735D01*
X90361044Y-74162916D01*
X90588227Y-74162916D01*
X90757260Y-74192908D01*
X90813114Y-74314598D01*
X90815409Y-74375291D01*
X90813062Y-74451814D01*
X90792910Y-74510494D01*
X90735286Y-74553408D01*
X90620523Y-74582636D01*
X90428956Y-74600258D01*
X90140916Y-74608352D01*
X89736738Y-74608998D01*
X89268436Y-74604902D01*
X89196754Y-74604275D01*
X88703201Y-74598605D01*
X88223630Y-74596126D01*
X87795297Y-74599748D01*
X87450791Y-74608744D01*
X87222703Y-74622385D01*
X87152867Y-74633219D01*
X87020561Y-74749687D01*
X86992667Y-74854148D01*
X86950113Y-74981807D01*
X86801530Y-74997085D01*
X86682048Y-74957255D01*
X86625856Y-74850819D01*
X86610548Y-74629785D01*
X86610392Y-74587665D01*
X86610392Y-74205391D01*
X87486133Y-74181126D01*
X88361873Y-74156862D01*
X88144494Y-73898522D01*
X87981046Y-73586195D01*
X87946943Y-73369902D01*
X88356079Y-73369902D01*
X88468032Y-73688105D01*
X88728052Y-73955127D01*
X88862501Y-74035976D01*
X89268436Y-74159864D01*
X89674099Y-74115638D01*
X90070675Y-73904868D01*
X90199523Y-73797693D01*
X90365294Y-73542029D01*
X90400806Y-73230467D01*
X90309098Y-72912450D01*
X90130233Y-72670950D01*
X89958366Y-72527196D01*
X89785426Y-72452059D01*
X89545622Y-72424263D01*
X89358716Y-72421444D01*
X89062295Y-72429914D01*
X88872698Y-72470630D01*
X88727103Y-72566558D01*
X88599745Y-72698872D01*
X88398036Y-73030248D01*
X88356079Y-73369902D01*
X87946943Y-73369902D01*
X87920087Y-73199577D01*
X87964113Y-72801737D01*
X88089031Y-72496753D01*
X88369281Y-72187474D01*
X88740505Y-71987984D01*
X89166060Y-71895913D01*
X89609305Y-71908890D01*
G37*
G36*
X93428172Y-76414429D02*
G01*
X93470091Y-76420165D01*
X93774641Y-76468172D01*
X93947099Y-76517329D01*
X94024376Y-76586213D01*
X94043384Y-76693401D01*
X94043503Y-76708745D01*
X93983998Y-76853354D01*
X93879671Y-76881311D01*
X93687295Y-76939015D01*
X93582347Y-77014803D01*
X93477292Y-77221445D01*
X93451289Y-77498545D01*
X93502460Y-77767483D01*
X93604205Y-77930017D01*
X93826208Y-78058708D01*
X94023628Y-78020219D01*
X94196896Y-77814206D01*
X94346445Y-77440322D01*
X94383983Y-77306060D01*
X94543401Y-76912038D01*
X94769212Y-76652191D01*
X95040471Y-76534968D01*
X95336231Y-76568814D01*
X95635548Y-76762177D01*
X95664084Y-76789826D01*
X95807572Y-76954928D01*
X95882292Y-77123578D01*
X95909708Y-77360870D01*
X95912399Y-77542919D01*
X95892653Y-77891139D01*
X95823933Y-78131906D01*
X95736334Y-78271527D01*
X95560268Y-78495358D01*
X95736334Y-78495358D01*
X95882440Y-78552305D01*
X95912399Y-78665257D01*
X95857415Y-78802809D01*
X95721262Y-78834222D01*
X95507472Y-78819625D01*
X95240179Y-78785245D01*
X95211563Y-78780632D01*
X94972754Y-78697951D01*
X94890298Y-78572461D01*
X94967805Y-78431401D01*
X95151097Y-78324113D01*
X95397026Y-78172757D01*
X95529830Y-77948646D01*
X95572406Y-77611338D01*
X95572600Y-77579660D01*
X95522237Y-77296978D01*
X95393086Y-77087151D01*
X95218053Y-76974566D01*
X95030046Y-76983608D01*
X94902069Y-77082760D01*
X94824932Y-77226543D01*
X94730586Y-77470785D01*
X94671326Y-77656171D01*
X94498630Y-78094334D01*
X94282902Y-78370141D01*
X94019654Y-78486705D01*
X93704395Y-78447142D01*
X93594316Y-78403169D01*
X93360273Y-78211400D01*
X93194005Y-77911056D01*
X93109493Y-77554722D01*
X93120720Y-77194983D01*
X93206186Y-76943499D01*
X93260833Y-76793267D01*
X93206186Y-76729630D01*
X93125212Y-76629015D01*
X93109055Y-76533428D01*
X93129699Y-76433230D01*
X93221258Y-76398211D01*
X93428172Y-76414429D01*
G37*
G36*
X95039782Y-74102816D02*
G01*
X95397269Y-74208349D01*
X95691332Y-74413114D01*
X95773872Y-74512644D01*
X95865109Y-74731062D01*
X95906845Y-75011407D01*
X95896418Y-75284304D01*
X95831169Y-75480381D01*
X95811875Y-75503708D01*
X95749525Y-75606273D01*
X95816802Y-75678837D01*
X96030495Y-75733405D01*
X96160233Y-75752816D01*
X96385251Y-75770673D01*
X96486833Y-75736300D01*
X96507048Y-75660723D01*
X96570333Y-75541080D01*
X96634473Y-75522113D01*
X96711510Y-75564257D01*
X96751055Y-75712029D01*
X96761897Y-75986671D01*
X96753594Y-76254791D01*
X96722213Y-76385205D01*
X96658047Y-76409579D01*
X96634473Y-76402332D01*
X96521572Y-76295372D01*
X96507048Y-76235098D01*
X96470252Y-76128509D01*
X96443336Y-76117801D01*
X96338873Y-76106974D01*
X96101405Y-76076723D01*
X95766112Y-76031672D01*
X95368177Y-75976449D01*
X95365016Y-75976005D01*
X94994147Y-75927640D01*
X94905239Y-75916046D01*
X94591889Y-75887584D01*
X94404602Y-75889775D01*
X94323011Y-75921772D01*
X94317301Y-75932490D01*
X94216010Y-76015475D01*
X94121374Y-76031812D01*
X94001323Y-75988361D01*
X93959740Y-75831019D01*
X93958553Y-75776963D01*
X93996544Y-75574636D01*
X94085978Y-75522113D01*
X94196471Y-75486661D01*
X94176274Y-75369806D01*
X94083276Y-75229790D01*
X93984375Y-74989736D01*
X93979120Y-74884110D01*
X94298352Y-74884110D01*
X94343351Y-75186413D01*
X94498603Y-75391353D01*
X94644227Y-75482780D01*
X94994147Y-75595832D01*
X95301001Y-75560258D01*
X95487650Y-75437164D01*
X95635333Y-75203429D01*
X95617410Y-74957224D01*
X95433056Y-74690419D01*
X95409235Y-74666080D01*
X95145226Y-74483605D01*
X94863241Y-74414830D01*
X94602641Y-74452029D01*
X94402785Y-74587477D01*
X94303036Y-74813450D01*
X94298352Y-74884110D01*
X93979120Y-74884110D01*
X93969968Y-74700138D01*
X94041759Y-74449255D01*
X94067442Y-74410404D01*
X94326802Y-74200964D01*
X94666938Y-74099394D01*
X95039782Y-74102816D01*
G37*
G36*
X93464280Y-83627436D02*
G01*
X93722379Y-83674462D01*
X93846272Y-83723893D01*
X93870271Y-83799747D01*
X93842041Y-83891866D01*
X93733999Y-83988232D01*
X93619172Y-83974755D01*
X93530547Y-83958813D01*
X93479512Y-84003342D01*
X93455786Y-84141327D01*
X93449083Y-84405752D01*
X93448854Y-84521071D01*
X93454484Y-84838547D01*
X93477134Y-85021275D01*
X93525444Y-85104199D01*
X93597516Y-85122379D01*
X93778767Y-85136552D01*
X94028105Y-85170062D01*
X94064740Y-85175969D01*
X94383302Y-85228624D01*
X94383302Y-84707810D01*
X94396675Y-84386495D01*
X94441222Y-84223112D01*
X94523589Y-84207474D01*
X94639134Y-84315605D01*
X94706894Y-84519855D01*
X94694143Y-84821608D01*
X94678377Y-85058555D01*
X94698832Y-85217002D01*
X94718188Y-85245833D01*
X94842606Y-85284809D01*
X95068655Y-85328783D01*
X95183281Y-85346025D01*
X95572600Y-85399387D01*
X95572600Y-84837285D01*
X95568144Y-84535047D01*
X95544949Y-84360710D01*
X95488273Y-84272324D01*
X95383376Y-84227937D01*
X95355975Y-84220814D01*
X95189957Y-84130671D01*
X95166002Y-84028058D01*
X95219536Y-83919569D01*
X95255201Y-83910909D01*
X95375592Y-83925228D01*
X95586815Y-83932053D01*
X95615075Y-83932147D01*
X95912399Y-83932147D01*
X95912399Y-85042724D01*
X95910580Y-85495890D01*
X95902753Y-85805067D01*
X95885361Y-85996147D01*
X95854846Y-86095021D01*
X95807654Y-86127582D01*
X95763737Y-86124966D01*
X95632081Y-86027776D01*
X95589784Y-85920516D01*
X95560295Y-85836597D01*
X95479211Y-85775517D01*
X95315050Y-85726950D01*
X95036329Y-85680570D01*
X94740285Y-85641893D01*
X94356480Y-85592463D01*
X94012771Y-85545168D01*
X93760279Y-85507175D01*
X93682466Y-85493566D01*
X93513361Y-85481269D01*
X93453452Y-85558116D01*
X93448854Y-85630623D01*
X93406009Y-85770441D01*
X93300192Y-85784993D01*
X93238205Y-85755347D01*
X93194635Y-85676066D01*
X93165287Y-85519874D01*
X93145966Y-85259494D01*
X93132478Y-84867650D01*
X93127670Y-84663139D01*
X93103810Y-83569794D01*
X93464280Y-83627436D01*
G37*
G36*
X90705876Y-89120716D02*
G01*
X90768641Y-89163031D01*
X90801223Y-89274667D01*
X90813514Y-89489263D01*
X90815409Y-89836160D01*
X90813459Y-90185822D01*
X90801014Y-90399222D01*
X90768180Y-90510000D01*
X90705063Y-90551791D01*
X90603035Y-90558234D01*
X90441374Y-90523147D01*
X90391557Y-90384997D01*
X90390660Y-90345859D01*
X90378672Y-90186021D01*
X90355744Y-90133485D01*
X90264098Y-90161455D01*
X90061740Y-90234047D01*
X89846045Y-90315174D01*
X89371262Y-90496863D01*
X89371262Y-91290957D01*
X89371262Y-92085051D01*
X89684867Y-92216083D01*
X90020154Y-92348274D01*
X90230673Y-92405117D01*
X90343782Y-92386915D01*
X90386841Y-92293976D01*
X90390660Y-92223965D01*
X90422456Y-92057683D01*
X90550079Y-92004085D01*
X90603035Y-92002381D01*
X90705876Y-92009011D01*
X90768641Y-92051325D01*
X90801223Y-92162961D01*
X90813514Y-92377557D01*
X90815409Y-92724455D01*
X90813459Y-93074116D01*
X90801014Y-93287517D01*
X90768180Y-93398294D01*
X90705063Y-93440085D01*
X90603035Y-93446528D01*
X90440687Y-93410765D01*
X90391263Y-93273271D01*
X90390660Y-93243242D01*
X90333817Y-93059201D01*
X90241998Y-92979706D01*
X89980305Y-92876245D01*
X89629637Y-92741251D01*
X89219594Y-92585713D01*
X88911296Y-92469991D01*
X88779773Y-92420623D01*
X88339774Y-92256970D01*
X87929196Y-92105744D01*
X87577636Y-91977936D01*
X87314695Y-91884537D01*
X87169971Y-91836535D01*
X87152304Y-91832481D01*
X87091593Y-91903720D01*
X87077617Y-92002381D01*
X87012817Y-92128628D01*
X86866010Y-92176291D01*
X86708581Y-92139833D01*
X86619481Y-92037908D01*
X86568425Y-91765973D01*
X86583137Y-91454856D01*
X86620010Y-91317012D01*
X87390702Y-91317012D01*
X87392037Y-91324200D01*
X87490695Y-91374208D01*
X87703578Y-91465014D01*
X87985787Y-91579087D01*
X88292419Y-91698893D01*
X88578572Y-91806899D01*
X88799345Y-91885573D01*
X88909836Y-91917382D01*
X88911296Y-91917431D01*
X88928655Y-91839652D01*
X88941234Y-91634969D01*
X88946485Y-91346363D01*
X88946513Y-91322782D01*
X88936535Y-91029702D01*
X88910275Y-90817323D01*
X88873247Y-90728604D01*
X88870201Y-90728133D01*
X88731138Y-90756397D01*
X88500830Y-90830358D01*
X88219566Y-90933770D01*
X87927634Y-91050388D01*
X87665321Y-91163964D01*
X87472914Y-91258254D01*
X87390702Y-91317012D01*
X86620010Y-91317012D01*
X86655522Y-91184256D01*
X86716580Y-91082045D01*
X86845894Y-90993984D01*
X87113189Y-90860483D01*
X87495855Y-90691562D01*
X87971278Y-90497244D01*
X88467451Y-90306044D01*
X89068369Y-90080135D01*
X89528935Y-89904515D01*
X89867815Y-89769646D01*
X90103675Y-89665992D01*
X90255181Y-89584016D01*
X90341000Y-89514183D01*
X90379798Y-89446954D01*
X90390240Y-89372794D01*
X90390660Y-89323472D01*
X90426459Y-89163878D01*
X90566338Y-89114875D01*
X90603035Y-89114087D01*
X90705876Y-89120716D01*
G37*
G36*
X87429037Y-94325584D02*
G01*
X87799717Y-94361600D01*
X88309389Y-94417551D01*
X88587616Y-94441529D01*
X88849535Y-94455913D01*
X89039823Y-94476300D01*
X89101962Y-94543281D01*
X89084732Y-94665538D01*
X89078525Y-94772800D01*
X89132469Y-94883643D01*
X89269441Y-95024159D01*
X89512322Y-95220445D01*
X89686974Y-95352396D01*
X90040682Y-95603493D01*
X90411727Y-95845775D01*
X90735493Y-96037622D01*
X90820284Y-96082434D01*
X91256718Y-96366090D01*
X91639009Y-96728816D01*
X91652841Y-96745160D01*
X92004430Y-97165094D01*
X91715643Y-97302132D01*
X91449440Y-97396186D01*
X91194204Y-97438931D01*
X91179026Y-97439170D01*
X90891970Y-97470491D01*
X90545227Y-97554420D01*
X90175548Y-97675910D01*
X89819688Y-97819915D01*
X89514399Y-97971386D01*
X89296434Y-98115275D01*
X89202546Y-98236536D01*
X89201362Y-98248873D01*
X89280023Y-98390195D01*
X89495731Y-98547579D01*
X89818079Y-98708378D01*
X90216658Y-98859948D01*
X90661058Y-98989642D01*
X91120872Y-99084815D01*
X91260476Y-99105162D01*
X91559767Y-99168856D01*
X91818352Y-99265572D01*
X91909976Y-99320584D01*
X92092674Y-99405528D01*
X92354942Y-99461673D01*
X92650375Y-99488006D01*
X92932569Y-99483509D01*
X93155119Y-99447169D01*
X93271621Y-99377968D01*
X93278954Y-99350541D01*
X93236294Y-99237446D01*
X93200053Y-99223117D01*
X93096873Y-99169165D01*
X92922882Y-99031892D01*
X92817779Y-98936999D01*
X92625608Y-98730380D01*
X92577979Y-98628385D01*
X92939155Y-98628385D01*
X92939155Y-98628468D01*
X93017727Y-98672045D01*
X93228315Y-98702157D01*
X93533227Y-98713418D01*
X93533804Y-98713418D01*
X93838844Y-98702193D01*
X94049624Y-98672109D01*
X94128452Y-98628550D01*
X94128453Y-98628468D01*
X94049881Y-98584891D01*
X93839293Y-98554779D01*
X93728359Y-98550682D01*
X93534381Y-98543518D01*
X93533804Y-98543518D01*
X93321429Y-98551333D01*
X93228763Y-98554743D01*
X93017983Y-98584827D01*
X92939155Y-98628385D01*
X92577979Y-98628385D01*
X92537041Y-98540718D01*
X92515687Y-98288703D01*
X92515687Y-98288669D01*
X92939155Y-98288669D01*
X93015082Y-98339331D01*
X93207186Y-98369720D01*
X93321429Y-98373618D01*
X93549409Y-98356746D01*
X93686163Y-98314056D01*
X93703704Y-98288669D01*
X93627776Y-98238006D01*
X93435672Y-98207617D01*
X93321429Y-98203719D01*
X93093450Y-98220591D01*
X92956696Y-98263281D01*
X92939155Y-98288669D01*
X92515687Y-98288669D01*
X92515707Y-98278638D01*
X92531276Y-97993372D01*
X92579478Y-97853301D01*
X92939155Y-97853301D01*
X93015166Y-97921146D01*
X93207618Y-97977711D01*
X93463140Y-98017160D01*
X93728359Y-98033654D01*
X93949906Y-98021357D01*
X94071819Y-97977186D01*
X94126709Y-97880417D01*
X94050781Y-97818475D01*
X93830626Y-97786419D01*
X93533804Y-97778970D01*
X93240721Y-97788689D01*
X93028341Y-97814268D01*
X92939626Y-97850335D01*
X92939155Y-97853301D01*
X92579478Y-97853301D01*
X92598474Y-97798101D01*
X92751726Y-97628079D01*
X92939670Y-97481265D01*
X93275059Y-97297622D01*
X93574267Y-97277598D01*
X93853541Y-97423207D01*
X94040086Y-97617529D01*
X94221636Y-97824028D01*
X94361597Y-97917172D01*
X94510856Y-97926131D01*
X94562881Y-97917201D01*
X94811258Y-97925447D01*
X94955592Y-98024194D01*
X95160056Y-98169342D01*
X95317750Y-98232154D01*
X95499869Y-98316787D01*
X95739316Y-98477813D01*
X95896716Y-98605164D01*
X96115878Y-98815655D01*
X96238120Y-99006239D01*
X96304516Y-99253710D01*
X96328152Y-99411814D01*
X96353898Y-99741876D01*
X96329144Y-99945346D01*
X96305609Y-99985225D01*
X96152056Y-100059536D01*
X96051535Y-100072615D01*
X95880152Y-100114231D01*
X95641529Y-100219269D01*
X95535000Y-100277642D01*
X95244993Y-100419484D01*
X94947110Y-100523858D01*
X94868237Y-100542121D01*
X94653509Y-100595409D01*
X94524059Y-100651852D01*
X94513546Y-100662703D01*
X94534330Y-100763179D01*
X94630546Y-100946466D01*
X94692358Y-101042575D01*
X94821836Y-101254023D01*
X94971465Y-101527929D01*
X95114667Y-101811680D01*
X95224863Y-102052659D01*
X95275178Y-102196361D01*
X95304743Y-102293424D01*
X95373966Y-102500803D01*
X95444488Y-102706060D01*
X95537694Y-103067227D01*
X95598362Y-103479140D01*
X95610902Y-103702080D01*
X95603896Y-104010984D01*
X95564778Y-104211066D01*
X95475472Y-104362824D01*
X95383751Y-104462409D01*
X95292715Y-104552495D01*
X95209451Y-104615535D01*
X95104657Y-104655064D01*
X94949032Y-104674615D01*
X94738173Y-104677392D01*
X94713273Y-104677720D01*
X94368078Y-104667912D01*
X93916078Y-104649991D01*
X93884144Y-104648725D01*
X93849913Y-104647346D01*
X93519197Y-104631933D01*
X93325468Y-104610149D01*
X93235934Y-104569210D01*
X93226796Y-104532481D01*
X93873603Y-104532481D01*
X93916078Y-104574956D01*
X93958553Y-104532481D01*
X93916078Y-104490006D01*
X93873603Y-104532481D01*
X93226796Y-104532481D01*
X93217803Y-104496337D01*
X93232616Y-104406731D01*
X93237889Y-104294828D01*
X93187242Y-104188014D01*
X93056156Y-104059852D01*
X92820113Y-103883902D01*
X92619183Y-103745264D01*
X92272700Y-103502231D01*
X91929731Y-103249876D01*
X91650409Y-103032762D01*
X91587486Y-102980715D01*
X91212740Y-102663585D01*
X91269729Y-103023374D01*
X91292356Y-103203267D01*
X91277759Y-103340384D01*
X91204319Y-103475458D01*
X91050413Y-103649220D01*
X90812504Y-103884766D01*
X90298292Y-104386368D01*
X89639338Y-104360365D01*
X89109009Y-104302876D01*
X88701097Y-104167588D01*
X88379887Y-103938826D01*
X88248889Y-103787513D01*
X88196754Y-103727293D01*
X88026308Y-103556785D01*
X87854664Y-103472594D01*
X87831230Y-103470608D01*
X87625959Y-103399856D01*
X87423839Y-103224998D01*
X87272843Y-103002134D01*
X87220943Y-102787363D01*
X87224355Y-102760932D01*
X87208235Y-102535529D01*
X87131116Y-102352533D01*
X87049188Y-102137244D01*
X86998584Y-101839517D01*
X91076167Y-101839517D01*
X91100107Y-102089977D01*
X91243589Y-102386482D01*
X91496976Y-102703069D01*
X91608850Y-102812893D01*
X91826228Y-103002429D01*
X92092546Y-103217316D01*
X92381227Y-103438477D01*
X92665690Y-103646836D01*
X92919358Y-103823313D01*
X93115653Y-103948833D01*
X93227995Y-104004318D01*
X93237435Y-103981853D01*
X93220577Y-103907128D01*
X93331591Y-103913100D01*
X93371858Y-103923291D01*
X93621160Y-103968327D01*
X93772756Y-103979147D01*
X93919758Y-104015237D01*
X93944990Y-104149723D01*
X93942655Y-104167867D01*
X93992310Y-104354072D01*
X94188788Y-104488540D01*
X94514477Y-104562289D01*
X94738173Y-104573704D01*
X95009779Y-104555914D01*
X95184142Y-104482205D01*
X95311585Y-104351125D01*
X95452939Y-104049081D01*
X95477350Y-103645354D01*
X95384667Y-103131631D01*
X95283713Y-102799147D01*
X95193164Y-102511428D01*
X95138936Y-102298017D01*
X95130652Y-102198013D01*
X95135051Y-102195060D01*
X95135000Y-102156719D01*
X95105376Y-102131348D01*
X95030868Y-102030465D01*
X94906323Y-101816042D01*
X94754491Y-101528057D01*
X94699922Y-101418919D01*
X94379417Y-100768902D01*
X94055386Y-100812364D01*
X93667151Y-100793281D01*
X93533227Y-100743991D01*
X93470313Y-100720836D01*
X93288376Y-100643679D01*
X93118849Y-100631856D01*
X92885785Y-100683693D01*
X92809193Y-100706252D01*
X92528346Y-100815221D01*
X92289781Y-100948617D01*
X92223350Y-101001175D01*
X92001323Y-101131376D01*
X91702602Y-101155090D01*
X91483760Y-101153917D01*
X91380875Y-101204989D01*
X91341802Y-101335912D01*
X91340354Y-101346863D01*
X91268831Y-101552111D01*
X91181402Y-101661063D01*
X91076167Y-101839517D01*
X86998584Y-101839517D01*
X86992507Y-101803764D01*
X86974345Y-101557361D01*
X86950192Y-100964588D01*
X87226832Y-100977174D01*
X87429668Y-100961714D01*
X87527837Y-100867232D01*
X87554653Y-100785837D01*
X87627412Y-100575087D01*
X87740823Y-100318187D01*
X87763723Y-100272225D01*
X87867753Y-100014443D01*
X87854693Y-99867589D01*
X87722914Y-99817954D01*
X87709727Y-99817766D01*
X87626665Y-99799383D01*
X87595728Y-99723152D01*
X87617485Y-99557450D01*
X87692506Y-99270654D01*
X87721380Y-99170375D01*
X87855444Y-98709210D01*
X87534880Y-98137903D01*
X87156870Y-97437359D01*
X86873070Y-96844595D01*
X86673876Y-96332898D01*
X86549687Y-95875550D01*
X86490901Y-95445837D01*
X86483637Y-95230983D01*
X86618047Y-95230983D01*
X86679182Y-95590625D01*
X86793876Y-96030017D01*
X86950156Y-96513437D01*
X87136046Y-97005166D01*
X87339573Y-97469484D01*
X87548761Y-97870669D01*
X87637596Y-98015064D01*
X87741413Y-98143927D01*
X87828587Y-98137339D01*
X87890683Y-98082386D01*
X88024182Y-98009745D01*
X88156978Y-98010620D01*
X88227139Y-98073593D01*
X88210488Y-98141343D01*
X88248889Y-98150198D01*
X88402357Y-98088442D01*
X88638210Y-97969348D01*
X88650810Y-97962542D01*
X88927552Y-97823951D01*
X89161047Y-97726975D01*
X89290996Y-97694020D01*
X89464837Y-97632942D01*
X89541162Y-97566595D01*
X89684752Y-97458697D01*
X89761980Y-97439170D01*
X89886072Y-97374118D01*
X90021274Y-97219049D01*
X90193396Y-97031975D01*
X90368735Y-96921658D01*
X90521320Y-96811449D01*
X90530131Y-96695793D01*
X90483713Y-96507380D01*
X90433177Y-96273158D01*
X90364935Y-96095585D01*
X90215766Y-95910313D01*
X89957900Y-95686100D01*
X89810949Y-95573138D01*
X89465318Y-95332029D01*
X89182194Y-95190335D01*
X88903600Y-95127682D01*
X88571561Y-95123695D01*
X88537230Y-95125509D01*
X88401988Y-95112457D01*
X88371965Y-95018370D01*
X88393216Y-94895790D01*
X88411995Y-94748379D01*
X88362051Y-94654793D01*
X88207381Y-94576073D01*
X88044055Y-94517970D01*
X87545918Y-94398177D01*
X87149509Y-94412278D01*
X86856268Y-94559800D01*
X86667637Y-94840266D01*
X86622446Y-94986810D01*
X86618047Y-95230983D01*
X86483637Y-95230983D01*
X86482968Y-95211195D01*
X86495255Y-94904924D01*
X86544887Y-94704652D01*
X86651024Y-94547455D01*
X86701016Y-94495005D01*
X86790488Y-94409998D01*
X86879850Y-94351910D01*
X86997279Y-94319382D01*
X87170949Y-94311059D01*
X87429037Y-94325584D01*
G37*
D15*
%TO.C,R6*%
X73635259Y-76208427D02*
X73635259Y-76662555D01*
X75105259Y-76208427D02*
X75105259Y-76662555D01*
%TO.C,U1*%
X51200259Y-85255491D02*
X57615259Y-85255491D01*
X51200259Y-103495491D02*
X51200259Y-85255491D01*
X51200259Y-103495491D02*
X57360259Y-103495491D01*
X76160259Y-85255491D02*
X76940259Y-85255491D01*
X76160259Y-103495491D02*
X76940259Y-103495491D01*
X76940259Y-85255491D02*
X76940259Y-86255491D01*
X76940259Y-103495491D02*
X76940259Y-102495491D01*
X58085259Y-104000491D02*
X57585259Y-103500491D01*
X58085259Y-103500491D01*
X58085259Y-104000491D01*
G36*
X58085259Y-104000491D02*
G01*
X57585259Y-103500491D01*
X58085259Y-103500491D01*
X58085259Y-104000491D01*
G37*
%TO.C,D1*%
X60470259Y-67070491D02*
X62755259Y-67070491D01*
X62755259Y-65600491D02*
X60470259Y-65600491D01*
X62755259Y-67070491D02*
X62755259Y-65600491D01*
%TO.C,R5*%
X61735259Y-75938427D02*
X61735259Y-76392555D01*
X63205259Y-75938427D02*
X63205259Y-76392555D01*
%TO.C,Q2*%
X77770259Y-72975491D02*
X77120259Y-72975491D01*
X77770259Y-72975491D02*
X78420259Y-72975491D01*
X77770259Y-76095491D02*
X77120259Y-76095491D01*
X77770259Y-76095491D02*
X78420259Y-76095491D01*
X76607759Y-73025491D02*
X76367759Y-72695491D01*
X76847759Y-72695491D01*
X76607759Y-73025491D01*
G36*
X76607759Y-73025491D02*
G01*
X76367759Y-72695491D01*
X76847759Y-72695491D01*
X76607759Y-73025491D01*
G37*
%TO.C,C1*%
X57931511Y-67500491D02*
X57409007Y-67500491D01*
X57931511Y-68970491D02*
X57409007Y-68970491D01*
%TO.C,R1*%
X63435259Y-60162555D02*
X63435259Y-59708427D01*
X64905259Y-60162555D02*
X64905259Y-59708427D01*
D10*
%TO.C,S2*%
X70820259Y-123735491D02*
X70820259Y-122735491D01*
X74570259Y-120985491D02*
X71570259Y-120985491D01*
X74570259Y-125485491D02*
X71570259Y-125485491D01*
X75320259Y-123735491D02*
X75320259Y-122735491D01*
D15*
%TO.C,D2*%
X60235259Y-58150491D02*
X60235259Y-60435491D01*
X61705259Y-58150491D02*
X60235259Y-58150491D01*
X61705259Y-60435491D02*
X61705259Y-58150491D01*
%TD*%
%LPC*%
D18*
%TO.C,C5*%
X64520259Y-110235491D03*
X62620259Y-110235491D03*
%TD*%
D19*
%TO.C,J2*%
X57070259Y-58355491D03*
X57070259Y-64135491D03*
D20*
X58135259Y-57895491D03*
X58135259Y-58695491D03*
X58135259Y-59995491D03*
X58135259Y-60995491D03*
X58135259Y-61495491D03*
X58135259Y-62495491D03*
X58135259Y-63795491D03*
X58135259Y-64595491D03*
X58135259Y-64295491D03*
X58135259Y-63495491D03*
X58135259Y-62995491D03*
X58135259Y-61995491D03*
X58135259Y-60495491D03*
X58135259Y-59495491D03*
X58135259Y-58995491D03*
X58135259Y-58195491D03*
D21*
X57570259Y-56925491D03*
D22*
X53390259Y-56925491D03*
D21*
X57570259Y-65565491D03*
D22*
X53390259Y-65565491D03*
%TD*%
D23*
%TO.C,J1*%
X66970259Y-49885491D03*
D24*
X66970259Y-52425491D03*
X69510259Y-49885491D03*
X69510259Y-52425491D03*
X72050259Y-49885491D03*
X72050259Y-52425491D03*
X74590259Y-49885491D03*
X74590259Y-52425491D03*
X77130259Y-49885491D03*
X77130259Y-52425491D03*
X79670259Y-49885491D03*
X79670259Y-52425491D03*
X82210259Y-49885491D03*
X82210259Y-52425491D03*
X84750259Y-49885491D03*
X84750259Y-52425491D03*
X87290259Y-49885491D03*
X87290259Y-52425491D03*
X89830259Y-49885491D03*
X89830259Y-52425491D03*
X92370259Y-49885491D03*
X92370259Y-52425491D03*
X94910259Y-49885491D03*
X94910259Y-52425491D03*
X97450259Y-49885491D03*
X97450259Y-52425491D03*
X99990259Y-49885491D03*
X99990259Y-52425491D03*
X102530259Y-49885491D03*
X102530259Y-52425491D03*
X105070259Y-49885491D03*
X105070259Y-52425491D03*
X107610259Y-49885491D03*
X107610259Y-52425491D03*
X110150259Y-49885491D03*
X110150259Y-52425491D03*
X112690259Y-49885491D03*
X112690259Y-52425491D03*
X115230259Y-49885491D03*
X115230259Y-52425491D03*
%TD*%
D25*
%TO.C,R3*%
X60470259Y-68235491D03*
X62470259Y-68235491D03*
%TD*%
D26*
%TO.C,C4*%
X65420259Y-70605491D03*
X67320259Y-70605491D03*
%TD*%
D27*
%TO.C,S1*%
X66195259Y-124835491D03*
X66195259Y-121635491D03*
X60945259Y-121635491D03*
X60945259Y-124835491D03*
%TD*%
D28*
%TO.C,H4*%
X128089824Y-49732000D03*
%TD*%
D18*
%TO.C,C7*%
X64520259Y-108235491D03*
X62620259Y-108235491D03*
%TD*%
D29*
%TO.C,Q1*%
X76870259Y-79435491D03*
X76870259Y-81335491D03*
X78745259Y-80385491D03*
%TD*%
D30*
%TO.C,R2*%
X64170259Y-62522991D03*
X64170259Y-64347991D03*
%TD*%
D31*
%TO.C,D3*%
X60970259Y-63622991D03*
X60970259Y-62047991D03*
%TD*%
D32*
%TO.C,MICRO_SD1*%
X127325859Y-72639291D03*
X127325859Y-64663691D03*
D33*
X116621459Y-65405691D03*
X116621459Y-66505691D03*
X116621459Y-67605691D03*
X116621459Y-68705691D03*
X116621459Y-69805691D03*
X116621459Y-70905691D03*
X116621459Y-72005691D03*
X116621459Y-73105691D03*
X116621459Y-74205691D03*
D34*
X117395259Y-75624091D03*
D35*
X127095259Y-75624091D03*
X127095259Y-59799291D03*
D36*
X117395259Y-60574291D03*
%TD*%
D37*
%TO.C,J3*%
X110190259Y-113195491D03*
D38*
X110190259Y-115735491D03*
X107650259Y-113195491D03*
X107650259Y-115735491D03*
X105110259Y-113195491D03*
X105110259Y-115735491D03*
X102570259Y-113195491D03*
X102570259Y-115735491D03*
X100030259Y-113195491D03*
X100030259Y-115735491D03*
X97490259Y-113195491D03*
X97490259Y-115735491D03*
X94950259Y-113195491D03*
X94950259Y-115735491D03*
X92410259Y-113195491D03*
X92410259Y-115735491D03*
X89870259Y-113195491D03*
X89870259Y-115735491D03*
X87330259Y-113195491D03*
X87330259Y-115735491D03*
%TD*%
D39*
%TO.C,R7*%
X74370259Y-81235491D03*
X74370259Y-79235491D03*
%TD*%
D40*
%TO.C,C6*%
X78870259Y-83585491D03*
X78870259Y-85485491D03*
%TD*%
D18*
%TO.C,C9*%
X60520259Y-108235491D03*
X58620259Y-108235491D03*
%TD*%
D41*
%TO.C,U2*%
X68470259Y-75165491D03*
X67970259Y-75165491D03*
X67470259Y-75165491D03*
X66970259Y-75165491D03*
X66470259Y-75165491D03*
X65970259Y-75165491D03*
X65470259Y-75165491D03*
D42*
X64520259Y-76115491D03*
X64520259Y-76615491D03*
X64520259Y-77115491D03*
X64520259Y-77615491D03*
X64520259Y-78115491D03*
X64520259Y-78615491D03*
X64520259Y-79115491D03*
D41*
X65470259Y-80065491D03*
X65970259Y-80065491D03*
X66470259Y-80065491D03*
X66970259Y-80065491D03*
X67470259Y-80065491D03*
X67970259Y-80065491D03*
X68470259Y-80065491D03*
D42*
X69420259Y-79115491D03*
X69420259Y-78615491D03*
X69420259Y-78115491D03*
X69420259Y-77615491D03*
X69420259Y-77115491D03*
X69420259Y-76615491D03*
X69420259Y-76115491D03*
D43*
X66970259Y-77615491D03*
%TD*%
D44*
%TO.C,R9*%
X80970259Y-83435491D03*
X80970259Y-85435491D03*
%TD*%
D45*
%TO.C,C8*%
X60520259Y-106235491D03*
D18*
X58620259Y-106235491D03*
%TD*%
D46*
%TO.C,R4*%
X64470259Y-68235491D03*
X66470259Y-68235491D03*
%TD*%
D47*
%TO.C,R8*%
X64570259Y-106235491D03*
X62570259Y-106235491D03*
%TD*%
D28*
%TO.C,H1*%
X54050000Y-123750000D03*
%TD*%
D26*
%TO.C,C2*%
X125620259Y-81235491D03*
X127520259Y-81235491D03*
%TD*%
%TO.C,C3*%
X65420259Y-72735491D03*
X67320259Y-72735491D03*
%TD*%
D48*
%TO.C,U3*%
X129570259Y-83735491D03*
X127570259Y-83735491D03*
X125570259Y-83735491D03*
X123570259Y-83735491D03*
X121570259Y-83735491D03*
X119570259Y-83735491D03*
X117570259Y-83735491D03*
X115570259Y-83735491D03*
X115570259Y-99735491D03*
X117570259Y-99735491D03*
X119570259Y-99735491D03*
X121570259Y-99735491D03*
X123570259Y-99735491D03*
X125570259Y-99735491D03*
X127570259Y-99735491D03*
X129570259Y-99735491D03*
%TD*%
D44*
%TO.C,R6*%
X74370259Y-75435491D03*
X74370259Y-77435491D03*
%TD*%
D49*
%TO.C,U1*%
X58810259Y-103125491D03*
X60080259Y-103125491D03*
X61350259Y-103125491D03*
X62620259Y-103125491D03*
X63890259Y-103125491D03*
X65160259Y-103125491D03*
X66430259Y-103125491D03*
X67700259Y-103125491D03*
X68970259Y-103125491D03*
X70240259Y-103125491D03*
X71510259Y-103125491D03*
X72780259Y-103125491D03*
X74050259Y-103125491D03*
X75320259Y-103125491D03*
D50*
X76570259Y-100085491D03*
X76570259Y-98815491D03*
X76570259Y-97545491D03*
X76570259Y-96275491D03*
X76570259Y-95005491D03*
X76570259Y-93735491D03*
X76570259Y-92465491D03*
X76570259Y-91195491D03*
X76570259Y-89925491D03*
X76570259Y-88655491D03*
D49*
X75320259Y-85625491D03*
X74050259Y-85625491D03*
X72780259Y-85625491D03*
X71510259Y-85625491D03*
X70240259Y-85625491D03*
X68970259Y-85625491D03*
X67700259Y-85625491D03*
X66430259Y-85625491D03*
X65160259Y-85625491D03*
X63890259Y-85625491D03*
X62620259Y-85625491D03*
X61350259Y-85625491D03*
X60080259Y-85625491D03*
X58810259Y-85625491D03*
D51*
X65830259Y-97275491D03*
X67230259Y-97275491D03*
X65130259Y-96575491D03*
X66530259Y-96575491D03*
X67930259Y-96575491D03*
X65830259Y-95900491D03*
X67230259Y-95900491D03*
D52*
X66530259Y-95875491D03*
D51*
X65130259Y-95175491D03*
X66530259Y-95175491D03*
X67930259Y-95175491D03*
X65830259Y-94475491D03*
X67230259Y-94475491D03*
%TD*%
D53*
%TO.C,D1*%
X62057759Y-66335491D03*
X60482759Y-66335491D03*
%TD*%
D28*
%TO.C,H2*%
X128089824Y-123749705D03*
%TD*%
%TO.C,H3*%
X54051388Y-49710258D03*
%TD*%
D44*
%TO.C,R5*%
X62470259Y-75165491D03*
X62470259Y-77165491D03*
%TD*%
D29*
%TO.C,Q2*%
X76832759Y-73585491D03*
X76832759Y-75485491D03*
X78707759Y-74535491D03*
%TD*%
D18*
%TO.C,C1*%
X58620259Y-68235491D03*
X56720259Y-68235491D03*
%TD*%
D54*
%TO.C,R1*%
X64170259Y-60847991D03*
X64170259Y-59022991D03*
%TD*%
D27*
%TO.C,S2*%
X75695259Y-124835491D03*
X75695259Y-121635491D03*
X70445259Y-121635491D03*
X70445259Y-124835491D03*
%TD*%
D55*
%TO.C,D2*%
X60970259Y-58847991D03*
X60970259Y-60422991D03*
%TD*%
%LPD*%
M02*
