%TF.GenerationSoftware,KiCad,Pcbnew,8.0.6*%
%TF.CreationDate,2024-11-27T19:32:27+03:00*%
%TF.ProjectId,OBCv1,4f424376-312e-46b6-9963-61645f706362,rev?*%
%TF.SameCoordinates,Original*%
%TF.FileFunction,Drillmap*%
%TF.FilePolarity,Positive*%
%FSLAX45Y45*%
G04 Gerber Fmt 4.5, Leading zero omitted, Abs format (unit mm)*
G04 Created by KiCad (PCBNEW 8.0.6) date 2024-11-27 19:32:27*
%MOMM*%
%LPD*%
G01*
G04 APERTURE LIST*
%ADD10C,0.100000*%
%ADD11C,0.200000*%
G04 APERTURE END LIST*
D10*
X5080139Y-4971026D02*
X5080000Y-12375000D01*
X5405000Y-12700000D02*
G75*
G02*
X5080000Y-12375000I0J325000D01*
G01*
X5080139Y-4971026D02*
G75*
G02*
X5405139Y-4646026I325000J0D01*
G01*
X13133982Y-4973200D02*
X13133982Y-12374970D01*
X13133982Y-12374970D02*
G75*
G02*
X12808982Y-12699972I-325002J1D01*
G01*
X12808982Y-12699970D02*
X5405000Y-12700000D01*
X5405139Y-4646026D02*
X12808982Y-4648200D01*
X12808982Y-4648200D02*
G75*
G02*
X13133980Y-4973200I-2J-325000D01*
G01*
D11*
D10*
X6503026Y-9507549D02*
X6523026Y-9527549D01*
X6523026Y-9507549D02*
X6503026Y-9527549D01*
X6503026Y-9647549D02*
X6523026Y-9667549D01*
X6523026Y-9647549D02*
X6503026Y-9667549D01*
X6573026Y-9437549D02*
X6593026Y-9457549D01*
X6593026Y-9437549D02*
X6573026Y-9457549D01*
X6573026Y-9580049D02*
X6593026Y-9600049D01*
X6593026Y-9580049D02*
X6573026Y-9600049D01*
X6573026Y-9717549D02*
X6593026Y-9737549D01*
X6593026Y-9717549D02*
X6573026Y-9737549D01*
X6643026Y-9507549D02*
X6663026Y-9527549D01*
X6663026Y-9507549D02*
X6643026Y-9527549D01*
X6643026Y-9647549D02*
X6663026Y-9667549D01*
X6663026Y-9647549D02*
X6643026Y-9667549D01*
X6713026Y-9437549D02*
X6733026Y-9457549D01*
X6733026Y-9437549D02*
X6713026Y-9457549D01*
X6713026Y-9580049D02*
X6733026Y-9600049D01*
X6733026Y-9580049D02*
X6713026Y-9600049D01*
X6713026Y-9717549D02*
X6733026Y-9737549D01*
X6733026Y-9717549D02*
X6713026Y-9737549D01*
X6783026Y-9507549D02*
X6803026Y-9527549D01*
X6803026Y-9507549D02*
X6783026Y-9527549D01*
X6783026Y-9647549D02*
X6803026Y-9667549D01*
X6803026Y-9647549D02*
X6783026Y-9667549D01*
X5322026Y-5973549D02*
G75*
G02*
X5292026Y-5973549I-15000J0D01*
G01*
X5292026Y-5973549D02*
G75*
G02*
X5322026Y-5973549I15000J0D01*
G01*
X5322026Y-6373549D02*
G75*
G02*
X5292026Y-6373549I-15000J0D01*
G01*
X5292026Y-6373549D02*
G75*
G02*
X5322026Y-6373549I15000J0D01*
G01*
X5322026Y-6773549D02*
G75*
G02*
X5292026Y-6773549I-15000J0D01*
G01*
X5292026Y-6773549D02*
G75*
G02*
X5322026Y-6773549I15000J0D01*
G01*
X5522026Y-5373549D02*
G75*
G02*
X5492026Y-5373549I-15000J0D01*
G01*
X5492026Y-5373549D02*
G75*
G02*
X5522026Y-5373549I15000J0D01*
G01*
X5522026Y-5773549D02*
G75*
G02*
X5492026Y-5773549I-15000J0D01*
G01*
X5492026Y-5773549D02*
G75*
G02*
X5522026Y-5773549I15000J0D01*
G01*
X5522026Y-6173549D02*
G75*
G02*
X5492026Y-6173549I-15000J0D01*
G01*
X5492026Y-6173549D02*
G75*
G02*
X5522026Y-6173549I15000J0D01*
G01*
X5522026Y-6573549D02*
G75*
G02*
X5492026Y-6573549I-15000J0D01*
G01*
X5492026Y-6573549D02*
G75*
G02*
X5522026Y-6573549I15000J0D01*
G01*
X5522026Y-6973549D02*
G75*
G02*
X5492026Y-6973549I-15000J0D01*
G01*
X5492026Y-6973549D02*
G75*
G02*
X5522026Y-6973549I15000J0D01*
G01*
X5622026Y-12073549D02*
G75*
G02*
X5592026Y-12073549I-15000J0D01*
G01*
X5592026Y-12073549D02*
G75*
G02*
X5622026Y-12073549I15000J0D01*
G01*
X5622026Y-12473549D02*
G75*
G02*
X5592026Y-12473549I-15000J0D01*
G01*
X5592026Y-12473549D02*
G75*
G02*
X5622026Y-12473549I15000J0D01*
G01*
X5722026Y-5573549D02*
G75*
G02*
X5692026Y-5573549I-15000J0D01*
G01*
X5692026Y-5573549D02*
G75*
G02*
X5722026Y-5573549I15000J0D01*
G01*
X5822026Y-7073549D02*
G75*
G02*
X5792026Y-7073549I-15000J0D01*
G01*
X5792026Y-7073549D02*
G75*
G02*
X5822026Y-7073549I15000J0D01*
G01*
X5822026Y-7473549D02*
G75*
G02*
X5792026Y-7473549I-15000J0D01*
G01*
X5792026Y-7473549D02*
G75*
G02*
X5822026Y-7473549I15000J0D01*
G01*
X5822026Y-7873549D02*
G75*
G02*
X5792026Y-7873549I-15000J0D01*
G01*
X5792026Y-7873549D02*
G75*
G02*
X5822026Y-7873549I15000J0D01*
G01*
X5822026Y-11073549D02*
G75*
G02*
X5792026Y-11073549I-15000J0D01*
G01*
X5792026Y-11073549D02*
G75*
G02*
X5822026Y-11073549I15000J0D01*
G01*
X5822026Y-11473549D02*
G75*
G02*
X5792026Y-11473549I-15000J0D01*
G01*
X5792026Y-11473549D02*
G75*
G02*
X5822026Y-11473549I15000J0D01*
G01*
X5822026Y-11873549D02*
G75*
G02*
X5792026Y-11873549I-15000J0D01*
G01*
X5792026Y-11873549D02*
G75*
G02*
X5822026Y-11873549I15000J0D01*
G01*
X5822026Y-12273549D02*
G75*
G02*
X5792026Y-12273549I-15000J0D01*
G01*
X5792026Y-12273549D02*
G75*
G02*
X5822026Y-12273549I15000J0D01*
G01*
X5922026Y-4973549D02*
G75*
G02*
X5892026Y-4973549I-15000J0D01*
G01*
X5892026Y-4973549D02*
G75*
G02*
X5922026Y-4973549I15000J0D01*
G01*
X5922026Y-5373549D02*
G75*
G02*
X5892026Y-5373549I-15000J0D01*
G01*
X5892026Y-5373549D02*
G75*
G02*
X5922026Y-5373549I15000J0D01*
G01*
X5922026Y-10463549D02*
G75*
G02*
X5892026Y-10463549I-15000J0D01*
G01*
X5892026Y-10463549D02*
G75*
G02*
X5922026Y-10463549I15000J0D01*
G01*
X5932025Y-9983549D02*
G75*
G02*
X5902025Y-9983549I-15000J0D01*
G01*
X5902025Y-9983549D02*
G75*
G02*
X5932025Y-9983549I15000J0D01*
G01*
X6012026Y-9983549D02*
G75*
G02*
X5982026Y-9983549I-15000J0D01*
G01*
X5982026Y-9983549D02*
G75*
G02*
X6012026Y-9983549I15000J0D01*
G01*
X6022026Y-10433549D02*
G75*
G02*
X5992026Y-10433549I-15000J0D01*
G01*
X5992026Y-10433549D02*
G75*
G02*
X6022026Y-10433549I15000J0D01*
G01*
X6022026Y-10503549D02*
G75*
G02*
X5992026Y-10503549I-15000J0D01*
G01*
X5992026Y-10503549D02*
G75*
G02*
X6022026Y-10503549I15000J0D01*
G01*
X6022026Y-11273549D02*
G75*
G02*
X5992026Y-11273549I-15000J0D01*
G01*
X5992026Y-11273549D02*
G75*
G02*
X6022026Y-11273549I15000J0D01*
G01*
X6022026Y-11673549D02*
G75*
G02*
X5992026Y-11673549I-15000J0D01*
G01*
X5992026Y-11673549D02*
G75*
G02*
X6022026Y-11673549I15000J0D01*
G01*
X6022026Y-12073549D02*
G75*
G02*
X5992026Y-12073549I-15000J0D01*
G01*
X5992026Y-12073549D02*
G75*
G02*
X6022026Y-12073549I15000J0D01*
G01*
X6092026Y-9983549D02*
G75*
G02*
X6062026Y-9983549I-15000J0D01*
G01*
X6062026Y-9983549D02*
G75*
G02*
X6092026Y-9983549I15000J0D01*
G01*
X6122026Y-5173549D02*
G75*
G02*
X6092026Y-5173549I-15000J0D01*
G01*
X6092026Y-5173549D02*
G75*
G02*
X6122026Y-5173549I15000J0D01*
G01*
X6152026Y-8403549D02*
G75*
G02*
X6122026Y-8403549I-15000J0D01*
G01*
X6122026Y-8403549D02*
G75*
G02*
X6152026Y-8403549I15000J0D01*
G01*
X6152026Y-8793549D02*
G75*
G02*
X6122026Y-8793549I-15000J0D01*
G01*
X6122026Y-8793549D02*
G75*
G02*
X6152026Y-8793549I15000J0D01*
G01*
X6212026Y-8893549D02*
G75*
G02*
X6182026Y-8893549I-15000J0D01*
G01*
X6182026Y-8893549D02*
G75*
G02*
X6212026Y-8893549I15000J0D01*
G01*
X6212026Y-9983549D02*
G75*
G02*
X6182026Y-9983549I-15000J0D01*
G01*
X6182026Y-9983549D02*
G75*
G02*
X6212026Y-9983549I15000J0D01*
G01*
X6252026Y-6081049D02*
G75*
G02*
X6222026Y-6081049I-15000J0D01*
G01*
X6222026Y-6081049D02*
G75*
G02*
X6252026Y-6081049I15000J0D01*
G01*
X6252026Y-6166049D02*
G75*
G02*
X6222026Y-6166049I-15000J0D01*
G01*
X6222026Y-6166049D02*
G75*
G02*
X6252026Y-6166049I15000J0D01*
G01*
X6262026Y-5683549D02*
G75*
G02*
X6232026Y-5683549I-15000J0D01*
G01*
X6232026Y-5683549D02*
G75*
G02*
X6262026Y-5683549I15000J0D01*
G01*
X6272026Y-8793549D02*
G75*
G02*
X6242026Y-8793549I-15000J0D01*
G01*
X6242026Y-8793549D02*
G75*
G02*
X6272026Y-8793549I15000J0D01*
G01*
X6322026Y-4973549D02*
G75*
G02*
X6292026Y-4973549I-15000J0D01*
G01*
X6292026Y-4973549D02*
G75*
G02*
X6322026Y-4973549I15000J0D01*
G01*
X6322026Y-5373549D02*
G75*
G02*
X6292026Y-5373549I-15000J0D01*
G01*
X6292026Y-5373549D02*
G75*
G02*
X6322026Y-5373549I15000J0D01*
G01*
X6392026Y-5683549D02*
G75*
G02*
X6362026Y-5683549I-15000J0D01*
G01*
X6362026Y-5683549D02*
G75*
G02*
X6392026Y-5683549I15000J0D01*
G01*
X6422026Y-12073549D02*
G75*
G02*
X6392026Y-12073549I-15000J0D01*
G01*
X6392026Y-12073549D02*
G75*
G02*
X6422026Y-12073549I15000J0D01*
G01*
X6422026Y-12473549D02*
G75*
G02*
X6392026Y-12473549I-15000J0D01*
G01*
X6392026Y-12473549D02*
G75*
G02*
X6422026Y-12473549I15000J0D01*
G01*
X6522026Y-5173549D02*
G75*
G02*
X6492026Y-5173549I-15000J0D01*
G01*
X6492026Y-5173549D02*
G75*
G02*
X6522026Y-5173549I15000J0D01*
G01*
X6522026Y-7413549D02*
G75*
G02*
X6492026Y-7413549I-15000J0D01*
G01*
X6492026Y-7413549D02*
G75*
G02*
X6522026Y-7413549I15000J0D01*
G01*
X6532026Y-10183549D02*
G75*
G02*
X6502026Y-10183549I-15000J0D01*
G01*
X6502026Y-10183549D02*
G75*
G02*
X6532026Y-10183549I15000J0D01*
G01*
X6582026Y-8123549D02*
G75*
G02*
X6552026Y-8123549I-15000J0D01*
G01*
X6552026Y-8123549D02*
G75*
G02*
X6582026Y-8123549I15000J0D01*
G01*
X6602026Y-7413549D02*
G75*
G02*
X6572026Y-7413549I-15000J0D01*
G01*
X6572026Y-7413549D02*
G75*
G02*
X6602026Y-7413549I15000J0D01*
G01*
X6622026Y-6161049D02*
G75*
G02*
X6592026Y-6161049I-15000J0D01*
G01*
X6592026Y-6161049D02*
G75*
G02*
X6622026Y-6161049I15000J0D01*
G01*
X6622026Y-9873549D02*
G75*
G02*
X6592026Y-9873549I-15000J0D01*
G01*
X6592026Y-9873549D02*
G75*
G02*
X6622026Y-9873549I15000J0D01*
G01*
X6622026Y-10673549D02*
G75*
G02*
X6592026Y-10673549I-15000J0D01*
G01*
X6592026Y-10673549D02*
G75*
G02*
X6622026Y-10673549I15000J0D01*
G01*
X6622026Y-11073549D02*
G75*
G02*
X6592026Y-11073549I-15000J0D01*
G01*
X6592026Y-11073549D02*
G75*
G02*
X6622026Y-11073549I15000J0D01*
G01*
X6622026Y-11473549D02*
G75*
G02*
X6592026Y-11473549I-15000J0D01*
G01*
X6592026Y-11473549D02*
G75*
G02*
X6622026Y-11473549I15000J0D01*
G01*
X6622026Y-11873549D02*
G75*
G02*
X6592026Y-11873549I-15000J0D01*
G01*
X6592026Y-11873549D02*
G75*
G02*
X6622026Y-11873549I15000J0D01*
G01*
X6658026Y-10183549D02*
G75*
G02*
X6628026Y-10183549I-15000J0D01*
G01*
X6628026Y-10183549D02*
G75*
G02*
X6658026Y-10183549I15000J0D01*
G01*
X6712026Y-6081049D02*
G75*
G02*
X6682026Y-6081049I-15000J0D01*
G01*
X6682026Y-6081049D02*
G75*
G02*
X6712026Y-6081049I15000J0D01*
G01*
X6742026Y-6183549D02*
G75*
G02*
X6712026Y-6183549I-15000J0D01*
G01*
X6712026Y-6183549D02*
G75*
G02*
X6742026Y-6183549I15000J0D01*
G01*
X6785026Y-10183549D02*
G75*
G02*
X6755026Y-10183549I-15000J0D01*
G01*
X6755026Y-10183549D02*
G75*
G02*
X6785026Y-10183549I15000J0D01*
G01*
X6822026Y-8873549D02*
G75*
G02*
X6792026Y-8873549I-15000J0D01*
G01*
X6792026Y-8873549D02*
G75*
G02*
X6822026Y-8873549I15000J0D01*
G01*
X6822026Y-9273549D02*
G75*
G02*
X6792026Y-9273549I-15000J0D01*
G01*
X6792026Y-9273549D02*
G75*
G02*
X6822026Y-9273549I15000J0D01*
G01*
X6822026Y-10473549D02*
G75*
G02*
X6792026Y-10473549I-15000J0D01*
G01*
X6792026Y-10473549D02*
G75*
G02*
X6822026Y-10473549I15000J0D01*
G01*
X6822026Y-10873549D02*
G75*
G02*
X6792026Y-10873549I-15000J0D01*
G01*
X6792026Y-10873549D02*
G75*
G02*
X6822026Y-10873549I15000J0D01*
G01*
X6822026Y-11273549D02*
G75*
G02*
X6792026Y-11273549I-15000J0D01*
G01*
X6792026Y-11273549D02*
G75*
G02*
X6822026Y-11273549I15000J0D01*
G01*
X6822026Y-11673549D02*
G75*
G02*
X6792026Y-11673549I-15000J0D01*
G01*
X6792026Y-11673549D02*
G75*
G02*
X6822026Y-11673549I15000J0D01*
G01*
X6822026Y-12073549D02*
G75*
G02*
X6792026Y-12073549I-15000J0D01*
G01*
X6792026Y-12073549D02*
G75*
G02*
X6822026Y-12073549I15000J0D01*
G01*
X6822026Y-12473549D02*
G75*
G02*
X6792026Y-12473549I-15000J0D01*
G01*
X6792026Y-12473549D02*
G75*
G02*
X6822026Y-12473549I15000J0D01*
G01*
X6912026Y-8323549D02*
G75*
G02*
X6882026Y-8323549I-15000J0D01*
G01*
X6882026Y-8323549D02*
G75*
G02*
X6912026Y-8323549I15000J0D01*
G01*
X6912026Y-10183549D02*
G75*
G02*
X6882026Y-10183549I-15000J0D01*
G01*
X6882026Y-10183549D02*
G75*
G02*
X6912026Y-10183549I15000J0D01*
G01*
X6922026Y-5773549D02*
G75*
G02*
X6892026Y-5773549I-15000J0D01*
G01*
X6892026Y-5773549D02*
G75*
G02*
X6922026Y-5773549I15000J0D01*
G01*
X6972026Y-4733549D02*
G75*
G02*
X6942026Y-4733549I-15000J0D01*
G01*
X6942026Y-4733549D02*
G75*
G02*
X6972026Y-4733549I15000J0D01*
G01*
X7022026Y-9473549D02*
G75*
G02*
X6992026Y-9473549I-15000J0D01*
G01*
X6992026Y-9473549D02*
G75*
G02*
X7022026Y-9473549I15000J0D01*
G01*
X7022026Y-9873549D02*
G75*
G02*
X6992026Y-9873549I-15000J0D01*
G01*
X6992026Y-9873549D02*
G75*
G02*
X7022026Y-9873549I15000J0D01*
G01*
X7022026Y-10673549D02*
G75*
G02*
X6992026Y-10673549I-15000J0D01*
G01*
X6992026Y-10673549D02*
G75*
G02*
X7022026Y-10673549I15000J0D01*
G01*
X7022026Y-11073549D02*
G75*
G02*
X6992026Y-11073549I-15000J0D01*
G01*
X6992026Y-11073549D02*
G75*
G02*
X7022026Y-11073549I15000J0D01*
G01*
X7022026Y-11473549D02*
G75*
G02*
X6992026Y-11473549I-15000J0D01*
G01*
X6992026Y-11473549D02*
G75*
G02*
X7022026Y-11473549I15000J0D01*
G01*
X7022026Y-11873549D02*
G75*
G02*
X6992026Y-11873549I-15000J0D01*
G01*
X6992026Y-11873549D02*
G75*
G02*
X7022026Y-11873549I15000J0D01*
G01*
X7042026Y-8683549D02*
G75*
G02*
X7012026Y-8683549I-15000J0D01*
G01*
X7012026Y-8683549D02*
G75*
G02*
X7042026Y-8683549I15000J0D01*
G01*
X7042026Y-10183549D02*
G75*
G02*
X7012026Y-10183549I-15000J0D01*
G01*
X7012026Y-10183549D02*
G75*
G02*
X7042026Y-10183549I15000J0D01*
G01*
X7072026Y-7863549D02*
G75*
G02*
X7042026Y-7863549I-15000J0D01*
G01*
X7042026Y-7863549D02*
G75*
G02*
X7072026Y-7863549I15000J0D01*
G01*
X7092026Y-4733549D02*
G75*
G02*
X7062026Y-4733549I-15000J0D01*
G01*
X7062026Y-4733549D02*
G75*
G02*
X7092026Y-4733549I15000J0D01*
G01*
X7122026Y-5973549D02*
G75*
G02*
X7092026Y-5973549I-15000J0D01*
G01*
X7092026Y-5973549D02*
G75*
G02*
X7122026Y-5973549I15000J0D01*
G01*
X7122026Y-6773549D02*
G75*
G02*
X7092026Y-6773549I-15000J0D01*
G01*
X7092026Y-6773549D02*
G75*
G02*
X7122026Y-6773549I15000J0D01*
G01*
X7122026Y-7173549D02*
G75*
G02*
X7092026Y-7173549I-15000J0D01*
G01*
X7092026Y-7173549D02*
G75*
G02*
X7122026Y-7173549I15000J0D01*
G01*
X7172026Y-8373549D02*
G75*
G02*
X7142026Y-8373549I-15000J0D01*
G01*
X7142026Y-8373549D02*
G75*
G02*
X7172026Y-8373549I15000J0D01*
G01*
X7212026Y-7463549D02*
G75*
G02*
X7182026Y-7463549I-15000J0D01*
G01*
X7182026Y-7463549D02*
G75*
G02*
X7212026Y-7463549I15000J0D01*
G01*
X7222026Y-8873549D02*
G75*
G02*
X7192026Y-8873549I-15000J0D01*
G01*
X7192026Y-8873549D02*
G75*
G02*
X7222026Y-8873549I15000J0D01*
G01*
X7222026Y-9273549D02*
G75*
G02*
X7192026Y-9273549I-15000J0D01*
G01*
X7192026Y-9273549D02*
G75*
G02*
X7222026Y-9273549I15000J0D01*
G01*
X7222026Y-9673549D02*
G75*
G02*
X7192026Y-9673549I-15000J0D01*
G01*
X7192026Y-9673549D02*
G75*
G02*
X7222026Y-9673549I15000J0D01*
G01*
X7222026Y-10473549D02*
G75*
G02*
X7192026Y-10473549I-15000J0D01*
G01*
X7192026Y-10473549D02*
G75*
G02*
X7222026Y-10473549I15000J0D01*
G01*
X7222026Y-10873549D02*
G75*
G02*
X7192026Y-10873549I-15000J0D01*
G01*
X7192026Y-10873549D02*
G75*
G02*
X7222026Y-10873549I15000J0D01*
G01*
X7222026Y-11273549D02*
G75*
G02*
X7192026Y-11273549I-15000J0D01*
G01*
X7192026Y-11273549D02*
G75*
G02*
X7222026Y-11273549I15000J0D01*
G01*
X7222026Y-11673549D02*
G75*
G02*
X7192026Y-11673549I-15000J0D01*
G01*
X7192026Y-11673549D02*
G75*
G02*
X7222026Y-11673549I15000J0D01*
G01*
X7222026Y-12073549D02*
G75*
G02*
X7192026Y-12073549I-15000J0D01*
G01*
X7192026Y-12073549D02*
G75*
G02*
X7222026Y-12073549I15000J0D01*
G01*
X7222026Y-12473549D02*
G75*
G02*
X7192026Y-12473549I-15000J0D01*
G01*
X7192026Y-12473549D02*
G75*
G02*
X7222026Y-12473549I15000J0D01*
G01*
X7282026Y-8123549D02*
G75*
G02*
X7252026Y-8123549I-15000J0D01*
G01*
X7252026Y-8123549D02*
G75*
G02*
X7282026Y-8123549I15000J0D01*
G01*
X7302026Y-7623549D02*
G75*
G02*
X7272026Y-7623549I-15000J0D01*
G01*
X7272026Y-7623549D02*
G75*
G02*
X7302026Y-7623549I15000J0D01*
G01*
X7302026Y-8373549D02*
G75*
G02*
X7272026Y-8373549I-15000J0D01*
G01*
X7272026Y-8373549D02*
G75*
G02*
X7302026Y-8373549I15000J0D01*
G01*
X7302026Y-9623549D02*
G75*
G02*
X7272026Y-9623549I-15000J0D01*
G01*
X7272026Y-9623549D02*
G75*
G02*
X7302026Y-9623549I15000J0D01*
G01*
X7322026Y-5773549D02*
G75*
G02*
X7292026Y-5773549I-15000J0D01*
G01*
X7292026Y-5773549D02*
G75*
G02*
X7322026Y-5773549I15000J0D01*
G01*
X7322026Y-6173549D02*
G75*
G02*
X7292026Y-6173549I-15000J0D01*
G01*
X7292026Y-6173549D02*
G75*
G02*
X7322026Y-6173549I15000J0D01*
G01*
X7322026Y-6573549D02*
G75*
G02*
X7292026Y-6573549I-15000J0D01*
G01*
X7292026Y-6573549D02*
G75*
G02*
X7322026Y-6573549I15000J0D01*
G01*
X7322026Y-6973549D02*
G75*
G02*
X7292026Y-6973549I-15000J0D01*
G01*
X7292026Y-6973549D02*
G75*
G02*
X7322026Y-6973549I15000J0D01*
G01*
X7352026Y-5533549D02*
G75*
G02*
X7322026Y-5533549I-15000J0D01*
G01*
X7322026Y-5533549D02*
G75*
G02*
X7352026Y-5533549I15000J0D01*
G01*
X7402026Y-7233549D02*
G75*
G02*
X7372026Y-7233549I-15000J0D01*
G01*
X7372026Y-7233549D02*
G75*
G02*
X7402026Y-7233549I15000J0D01*
G01*
X7402026Y-7363549D02*
G75*
G02*
X7372026Y-7363549I-15000J0D01*
G01*
X7372026Y-7363549D02*
G75*
G02*
X7402026Y-7363549I15000J0D01*
G01*
X7420026Y-9893549D02*
G75*
G02*
X7390026Y-9893549I-15000J0D01*
G01*
X7390026Y-9893549D02*
G75*
G02*
X7420026Y-9893549I15000J0D01*
G01*
X7422026Y-8373549D02*
G75*
G02*
X7392026Y-8373549I-15000J0D01*
G01*
X7392026Y-8373549D02*
G75*
G02*
X7422026Y-8373549I15000J0D01*
G01*
X7422026Y-9023549D02*
G75*
G02*
X7392026Y-9023549I-15000J0D01*
G01*
X7392026Y-9023549D02*
G75*
G02*
X7422026Y-9023549I15000J0D01*
G01*
X7422026Y-9123549D02*
G75*
G02*
X7392026Y-9123549I-15000J0D01*
G01*
X7392026Y-9123549D02*
G75*
G02*
X7422026Y-9123549I15000J0D01*
G01*
X7422026Y-9623549D02*
G75*
G02*
X7392026Y-9623549I-15000J0D01*
G01*
X7392026Y-9623549D02*
G75*
G02*
X7422026Y-9623549I15000J0D01*
G01*
X7422026Y-9773549D02*
G75*
G02*
X7392026Y-9773549I-15000J0D01*
G01*
X7392026Y-9773549D02*
G75*
G02*
X7422026Y-9773549I15000J0D01*
G01*
X7422026Y-10673549D02*
G75*
G02*
X7392026Y-10673549I-15000J0D01*
G01*
X7392026Y-10673549D02*
G75*
G02*
X7422026Y-10673549I15000J0D01*
G01*
X7422026Y-11073549D02*
G75*
G02*
X7392026Y-11073549I-15000J0D01*
G01*
X7392026Y-11073549D02*
G75*
G02*
X7422026Y-11073549I15000J0D01*
G01*
X7422026Y-11473549D02*
G75*
G02*
X7392026Y-11473549I-15000J0D01*
G01*
X7392026Y-11473549D02*
G75*
G02*
X7422026Y-11473549I15000J0D01*
G01*
X7422026Y-11873549D02*
G75*
G02*
X7392026Y-11873549I-15000J0D01*
G01*
X7392026Y-11873549D02*
G75*
G02*
X7422026Y-11873549I15000J0D01*
G01*
X7432026Y-5613549D02*
G75*
G02*
X7402026Y-5613549I-15000J0D01*
G01*
X7402026Y-5613549D02*
G75*
G02*
X7432026Y-5613549I15000J0D01*
G01*
X7432026Y-8853549D02*
G75*
G02*
X7402026Y-8853549I-15000J0D01*
G01*
X7402026Y-8853549D02*
G75*
G02*
X7432026Y-8853549I15000J0D01*
G01*
X7522026Y-5613549D02*
G75*
G02*
X7492026Y-5613549I-15000J0D01*
G01*
X7492026Y-5613549D02*
G75*
G02*
X7522026Y-5613549I15000J0D01*
G01*
X7522026Y-5973549D02*
G75*
G02*
X7492026Y-5973549I-15000J0D01*
G01*
X7492026Y-5973549D02*
G75*
G02*
X7522026Y-5973549I15000J0D01*
G01*
X7522026Y-6773549D02*
G75*
G02*
X7492026Y-6773549I-15000J0D01*
G01*
X7492026Y-6773549D02*
G75*
G02*
X7522026Y-6773549I15000J0D01*
G01*
X7522026Y-7173549D02*
G75*
G02*
X7492026Y-7173549I-15000J0D01*
G01*
X7492026Y-7173549D02*
G75*
G02*
X7522026Y-7173549I15000J0D01*
G01*
X7522026Y-11953549D02*
G75*
G02*
X7492026Y-11953549I-15000J0D01*
G01*
X7492026Y-11953549D02*
G75*
G02*
X7522026Y-11953549I15000J0D01*
G01*
X7542026Y-8683549D02*
G75*
G02*
X7512026Y-8683549I-15000J0D01*
G01*
X7512026Y-8683549D02*
G75*
G02*
X7542026Y-8683549I15000J0D01*
G01*
X7542026Y-8853549D02*
G75*
G02*
X7512026Y-8853549I-15000J0D01*
G01*
X7512026Y-8853549D02*
G75*
G02*
X7542026Y-8853549I15000J0D01*
G01*
X7612026Y-5533549D02*
G75*
G02*
X7582026Y-5533549I-15000J0D01*
G01*
X7582026Y-5533549D02*
G75*
G02*
X7612026Y-5533549I15000J0D01*
G01*
X7652026Y-8673549D02*
G75*
G02*
X7622026Y-8673549I-15000J0D01*
G01*
X7622026Y-8673549D02*
G75*
G02*
X7652026Y-8673549I15000J0D01*
G01*
X7662026Y-10233549D02*
G75*
G02*
X7632026Y-10233549I-15000J0D01*
G01*
X7632026Y-10233549D02*
G75*
G02*
X7662026Y-10233549I15000J0D01*
G01*
X7662026Y-11953549D02*
G75*
G02*
X7632026Y-11953549I-15000J0D01*
G01*
X7632026Y-11953549D02*
G75*
G02*
X7662026Y-11953549I15000J0D01*
G01*
X7722026Y-6573549D02*
G75*
G02*
X7692026Y-6573549I-15000J0D01*
G01*
X7692026Y-6573549D02*
G75*
G02*
X7722026Y-6573549I15000J0D01*
G01*
X7722026Y-6973549D02*
G75*
G02*
X7692026Y-6973549I-15000J0D01*
G01*
X7692026Y-6973549D02*
G75*
G02*
X7722026Y-6973549I15000J0D01*
G01*
X7822026Y-10233549D02*
G75*
G02*
X7792026Y-10233549I-15000J0D01*
G01*
X7792026Y-10233549D02*
G75*
G02*
X7822026Y-10233549I15000J0D01*
G01*
X7822026Y-10673549D02*
G75*
G02*
X7792026Y-10673549I-15000J0D01*
G01*
X7792026Y-10673549D02*
G75*
G02*
X7822026Y-10673549I15000J0D01*
G01*
X7822026Y-11073549D02*
G75*
G02*
X7792026Y-11073549I-15000J0D01*
G01*
X7792026Y-11073549D02*
G75*
G02*
X7822026Y-11073549I15000J0D01*
G01*
X7822026Y-11473549D02*
G75*
G02*
X7792026Y-11473549I-15000J0D01*
G01*
X7792026Y-11473549D02*
G75*
G02*
X7822026Y-11473549I15000J0D01*
G01*
X7822026Y-11873549D02*
G75*
G02*
X7792026Y-11873549I-15000J0D01*
G01*
X7792026Y-11873549D02*
G75*
G02*
X7822026Y-11873549I15000J0D01*
G01*
X7852026Y-7553549D02*
G75*
G02*
X7822026Y-7553549I-15000J0D01*
G01*
X7822026Y-7553549D02*
G75*
G02*
X7852026Y-7553549I15000J0D01*
G01*
X7872026Y-9473549D02*
G75*
G02*
X7842026Y-9473549I-15000J0D01*
G01*
X7842026Y-9473549D02*
G75*
G02*
X7872026Y-9473549I15000J0D01*
G01*
X7922026Y-5573549D02*
G75*
G02*
X7892026Y-5573549I-15000J0D01*
G01*
X7892026Y-5573549D02*
G75*
G02*
X7922026Y-5573549I15000J0D01*
G01*
X7922026Y-5973549D02*
G75*
G02*
X7892026Y-5973549I-15000J0D01*
G01*
X7892026Y-5973549D02*
G75*
G02*
X7922026Y-5973549I15000J0D01*
G01*
X7922026Y-6373549D02*
G75*
G02*
X7892026Y-6373549I-15000J0D01*
G01*
X7892026Y-6373549D02*
G75*
G02*
X7922026Y-6373549I15000J0D01*
G01*
X7922026Y-6773549D02*
G75*
G02*
X7892026Y-6773549I-15000J0D01*
G01*
X7892026Y-6773549D02*
G75*
G02*
X7922026Y-6773549I15000J0D01*
G01*
X7922026Y-7173549D02*
G75*
G02*
X7892026Y-7173549I-15000J0D01*
G01*
X7892026Y-7173549D02*
G75*
G02*
X7922026Y-7173549I15000J0D01*
G01*
X8022026Y-9273549D02*
G75*
G02*
X7992026Y-9273549I-15000J0D01*
G01*
X7992026Y-9273549D02*
G75*
G02*
X8022026Y-9273549I15000J0D01*
G01*
X8022026Y-10473549D02*
G75*
G02*
X7992026Y-10473549I-15000J0D01*
G01*
X7992026Y-10473549D02*
G75*
G02*
X8022026Y-10473549I15000J0D01*
G01*
X8022026Y-10873549D02*
G75*
G02*
X7992026Y-10873549I-15000J0D01*
G01*
X7992026Y-10873549D02*
G75*
G02*
X8022026Y-10873549I15000J0D01*
G01*
X8022026Y-11273549D02*
G75*
G02*
X7992026Y-11273549I-15000J0D01*
G01*
X7992026Y-11273549D02*
G75*
G02*
X8022026Y-11273549I15000J0D01*
G01*
X8022026Y-11673549D02*
G75*
G02*
X7992026Y-11673549I-15000J0D01*
G01*
X7992026Y-11673549D02*
G75*
G02*
X8022026Y-11673549I15000J0D01*
G01*
X8022026Y-12073549D02*
G75*
G02*
X7992026Y-12073549I-15000J0D01*
G01*
X7992026Y-12073549D02*
G75*
G02*
X8022026Y-12073549I15000J0D01*
G01*
X8022026Y-12473549D02*
G75*
G02*
X7992026Y-12473549I-15000J0D01*
G01*
X7992026Y-12473549D02*
G75*
G02*
X8022026Y-12473549I15000J0D01*
G01*
X8122026Y-5773549D02*
G75*
G02*
X8092026Y-5773549I-15000J0D01*
G01*
X8092026Y-5773549D02*
G75*
G02*
X8122026Y-5773549I15000J0D01*
G01*
X8122026Y-6173549D02*
G75*
G02*
X8092026Y-6173549I-15000J0D01*
G01*
X8092026Y-6173549D02*
G75*
G02*
X8122026Y-6173549I15000J0D01*
G01*
X8122026Y-6573549D02*
G75*
G02*
X8092026Y-6573549I-15000J0D01*
G01*
X8092026Y-6573549D02*
G75*
G02*
X8122026Y-6573549I15000J0D01*
G01*
X8122026Y-6973549D02*
G75*
G02*
X8092026Y-6973549I-15000J0D01*
G01*
X8092026Y-6973549D02*
G75*
G02*
X8122026Y-6973549I15000J0D01*
G01*
X8222026Y-9873549D02*
G75*
G02*
X8192026Y-9873549I-15000J0D01*
G01*
X8192026Y-9873549D02*
G75*
G02*
X8222026Y-9873549I15000J0D01*
G01*
X8262026Y-8543549D02*
G75*
G02*
X8232026Y-8543549I-15000J0D01*
G01*
X8232026Y-8543549D02*
G75*
G02*
X8262026Y-8543549I15000J0D01*
G01*
X8322026Y-5573549D02*
G75*
G02*
X8292026Y-5573549I-15000J0D01*
G01*
X8292026Y-5573549D02*
G75*
G02*
X8322026Y-5573549I15000J0D01*
G01*
X8322026Y-5973549D02*
G75*
G02*
X8292026Y-5973549I-15000J0D01*
G01*
X8292026Y-5973549D02*
G75*
G02*
X8322026Y-5973549I15000J0D01*
G01*
X8322026Y-6373549D02*
G75*
G02*
X8292026Y-6373549I-15000J0D01*
G01*
X8292026Y-6373549D02*
G75*
G02*
X8322026Y-6373549I15000J0D01*
G01*
X8322026Y-6773549D02*
G75*
G02*
X8292026Y-6773549I-15000J0D01*
G01*
X8292026Y-6773549D02*
G75*
G02*
X8322026Y-6773549I15000J0D01*
G01*
X8322026Y-7573549D02*
G75*
G02*
X8292026Y-7573549I-15000J0D01*
G01*
X8292026Y-7573549D02*
G75*
G02*
X8322026Y-7573549I15000J0D01*
G01*
X8322026Y-7973549D02*
G75*
G02*
X8292026Y-7973549I-15000J0D01*
G01*
X8292026Y-7973549D02*
G75*
G02*
X8322026Y-7973549I15000J0D01*
G01*
X8322026Y-8373549D02*
G75*
G02*
X8292026Y-8373549I-15000J0D01*
G01*
X8292026Y-8373549D02*
G75*
G02*
X8322026Y-8373549I15000J0D01*
G01*
X8422026Y-9273549D02*
G75*
G02*
X8392026Y-9273549I-15000J0D01*
G01*
X8392026Y-9273549D02*
G75*
G02*
X8422026Y-9273549I15000J0D01*
G01*
X8422026Y-10473549D02*
G75*
G02*
X8392026Y-10473549I-15000J0D01*
G01*
X8392026Y-10473549D02*
G75*
G02*
X8422026Y-10473549I15000J0D01*
G01*
X8422026Y-10873549D02*
G75*
G02*
X8392026Y-10873549I-15000J0D01*
G01*
X8392026Y-10873549D02*
G75*
G02*
X8422026Y-10873549I15000J0D01*
G01*
X8422026Y-11273549D02*
G75*
G02*
X8392026Y-11273549I-15000J0D01*
G01*
X8392026Y-11273549D02*
G75*
G02*
X8422026Y-11273549I15000J0D01*
G01*
X8422026Y-11673549D02*
G75*
G02*
X8392026Y-11673549I-15000J0D01*
G01*
X8392026Y-11673549D02*
G75*
G02*
X8422026Y-11673549I15000J0D01*
G01*
X8422026Y-12073549D02*
G75*
G02*
X8392026Y-12073549I-15000J0D01*
G01*
X8392026Y-12073549D02*
G75*
G02*
X8422026Y-12073549I15000J0D01*
G01*
X8422026Y-12473549D02*
G75*
G02*
X8392026Y-12473549I-15000J0D01*
G01*
X8392026Y-12473549D02*
G75*
G02*
X8422026Y-12473549I15000J0D01*
G01*
X8522026Y-5773549D02*
G75*
G02*
X8492026Y-5773549I-15000J0D01*
G01*
X8492026Y-5773549D02*
G75*
G02*
X8522026Y-5773549I15000J0D01*
G01*
X8522026Y-6173549D02*
G75*
G02*
X8492026Y-6173549I-15000J0D01*
G01*
X8492026Y-6173549D02*
G75*
G02*
X8522026Y-6173549I15000J0D01*
G01*
X8522026Y-6573549D02*
G75*
G02*
X8492026Y-6573549I-15000J0D01*
G01*
X8492026Y-6573549D02*
G75*
G02*
X8522026Y-6573549I15000J0D01*
G01*
X8522026Y-7373549D02*
G75*
G02*
X8492026Y-7373549I-15000J0D01*
G01*
X8492026Y-7373549D02*
G75*
G02*
X8522026Y-7373549I15000J0D01*
G01*
X8522026Y-7773549D02*
G75*
G02*
X8492026Y-7773549I-15000J0D01*
G01*
X8492026Y-7773549D02*
G75*
G02*
X8522026Y-7773549I15000J0D01*
G01*
X8522026Y-8173549D02*
G75*
G02*
X8492026Y-8173549I-15000J0D01*
G01*
X8492026Y-8173549D02*
G75*
G02*
X8522026Y-8173549I15000J0D01*
G01*
X8522026Y-8573549D02*
G75*
G02*
X8492026Y-8573549I-15000J0D01*
G01*
X8492026Y-8573549D02*
G75*
G02*
X8522026Y-8573549I15000J0D01*
G01*
X8622026Y-9873549D02*
G75*
G02*
X8592026Y-9873549I-15000J0D01*
G01*
X8592026Y-9873549D02*
G75*
G02*
X8622026Y-9873549I15000J0D01*
G01*
X8622026Y-10273549D02*
G75*
G02*
X8592026Y-10273549I-15000J0D01*
G01*
X8592026Y-10273549D02*
G75*
G02*
X8622026Y-10273549I15000J0D01*
G01*
X8622026Y-10673549D02*
G75*
G02*
X8592026Y-10673549I-15000J0D01*
G01*
X8592026Y-10673549D02*
G75*
G02*
X8622026Y-10673549I15000J0D01*
G01*
X8622026Y-11073549D02*
G75*
G02*
X8592026Y-11073549I-15000J0D01*
G01*
X8592026Y-11073549D02*
G75*
G02*
X8622026Y-11073549I15000J0D01*
G01*
X8622026Y-11473549D02*
G75*
G02*
X8592026Y-11473549I-15000J0D01*
G01*
X8592026Y-11473549D02*
G75*
G02*
X8622026Y-11473549I15000J0D01*
G01*
X8622026Y-11873549D02*
G75*
G02*
X8592026Y-11873549I-15000J0D01*
G01*
X8592026Y-11873549D02*
G75*
G02*
X8622026Y-11873549I15000J0D01*
G01*
X8722026Y-5973549D02*
G75*
G02*
X8692026Y-5973549I-15000J0D01*
G01*
X8692026Y-5973549D02*
G75*
G02*
X8722026Y-5973549I15000J0D01*
G01*
X8722026Y-6373549D02*
G75*
G02*
X8692026Y-6373549I-15000J0D01*
G01*
X8692026Y-6373549D02*
G75*
G02*
X8722026Y-6373549I15000J0D01*
G01*
X8722026Y-7173549D02*
G75*
G02*
X8692026Y-7173549I-15000J0D01*
G01*
X8692026Y-7173549D02*
G75*
G02*
X8722026Y-7173549I15000J0D01*
G01*
X8722026Y-7573549D02*
G75*
G02*
X8692026Y-7573549I-15000J0D01*
G01*
X8692026Y-7573549D02*
G75*
G02*
X8722026Y-7573549I15000J0D01*
G01*
X8722026Y-7973549D02*
G75*
G02*
X8692026Y-7973549I-15000J0D01*
G01*
X8692026Y-7973549D02*
G75*
G02*
X8722026Y-7973549I15000J0D01*
G01*
X8722026Y-8373549D02*
G75*
G02*
X8692026Y-8373549I-15000J0D01*
G01*
X8692026Y-8373549D02*
G75*
G02*
X8722026Y-8373549I15000J0D01*
G01*
X8822026Y-9273549D02*
G75*
G02*
X8792026Y-9273549I-15000J0D01*
G01*
X8792026Y-9273549D02*
G75*
G02*
X8822026Y-9273549I15000J0D01*
G01*
X8822026Y-10473549D02*
G75*
G02*
X8792026Y-10473549I-15000J0D01*
G01*
X8792026Y-10473549D02*
G75*
G02*
X8822026Y-10473549I15000J0D01*
G01*
X8822026Y-10873549D02*
G75*
G02*
X8792026Y-10873549I-15000J0D01*
G01*
X8792026Y-10873549D02*
G75*
G02*
X8822026Y-10873549I15000J0D01*
G01*
X8822026Y-12073549D02*
G75*
G02*
X8792026Y-12073549I-15000J0D01*
G01*
X8792026Y-12073549D02*
G75*
G02*
X8822026Y-12073549I15000J0D01*
G01*
X8822026Y-12473549D02*
G75*
G02*
X8792026Y-12473549I-15000J0D01*
G01*
X8792026Y-12473549D02*
G75*
G02*
X8822026Y-12473549I15000J0D01*
G01*
X8922026Y-5773549D02*
G75*
G02*
X8892026Y-5773549I-15000J0D01*
G01*
X8892026Y-5773549D02*
G75*
G02*
X8922026Y-5773549I15000J0D01*
G01*
X8922026Y-6173549D02*
G75*
G02*
X8892026Y-6173549I-15000J0D01*
G01*
X8892026Y-6173549D02*
G75*
G02*
X8922026Y-6173549I15000J0D01*
G01*
X8922026Y-6973549D02*
G75*
G02*
X8892026Y-6973549I-15000J0D01*
G01*
X8892026Y-6973549D02*
G75*
G02*
X8922026Y-6973549I15000J0D01*
G01*
X8922026Y-7373549D02*
G75*
G02*
X8892026Y-7373549I-15000J0D01*
G01*
X8892026Y-7373549D02*
G75*
G02*
X8922026Y-7373549I15000J0D01*
G01*
X8922026Y-7773549D02*
G75*
G02*
X8892026Y-7773549I-15000J0D01*
G01*
X8892026Y-7773549D02*
G75*
G02*
X8922026Y-7773549I15000J0D01*
G01*
X8922026Y-8173549D02*
G75*
G02*
X8892026Y-8173549I-15000J0D01*
G01*
X8892026Y-8173549D02*
G75*
G02*
X8922026Y-8173549I15000J0D01*
G01*
X8922026Y-8573549D02*
G75*
G02*
X8892026Y-8573549I-15000J0D01*
G01*
X8892026Y-8573549D02*
G75*
G02*
X8922026Y-8573549I15000J0D01*
G01*
X9022026Y-9873549D02*
G75*
G02*
X8992026Y-9873549I-15000J0D01*
G01*
X8992026Y-9873549D02*
G75*
G02*
X9022026Y-9873549I15000J0D01*
G01*
X9022026Y-10273549D02*
G75*
G02*
X8992026Y-10273549I-15000J0D01*
G01*
X8992026Y-10273549D02*
G75*
G02*
X9022026Y-10273549I15000J0D01*
G01*
X9022026Y-10673549D02*
G75*
G02*
X8992026Y-10673549I-15000J0D01*
G01*
X8992026Y-10673549D02*
G75*
G02*
X9022026Y-10673549I15000J0D01*
G01*
X9022026Y-11073549D02*
G75*
G02*
X8992026Y-11073549I-15000J0D01*
G01*
X8992026Y-11073549D02*
G75*
G02*
X9022026Y-11073549I15000J0D01*
G01*
X9022026Y-11873549D02*
G75*
G02*
X8992026Y-11873549I-15000J0D01*
G01*
X8992026Y-11873549D02*
G75*
G02*
X9022026Y-11873549I15000J0D01*
G01*
X9122026Y-6773549D02*
G75*
G02*
X9092026Y-6773549I-15000J0D01*
G01*
X9092026Y-6773549D02*
G75*
G02*
X9122026Y-6773549I15000J0D01*
G01*
X9122026Y-7173549D02*
G75*
G02*
X9092026Y-7173549I-15000J0D01*
G01*
X9092026Y-7173549D02*
G75*
G02*
X9122026Y-7173549I15000J0D01*
G01*
X9122026Y-7573549D02*
G75*
G02*
X9092026Y-7573549I-15000J0D01*
G01*
X9092026Y-7573549D02*
G75*
G02*
X9122026Y-7573549I15000J0D01*
G01*
X9122026Y-7973549D02*
G75*
G02*
X9092026Y-7973549I-15000J0D01*
G01*
X9092026Y-7973549D02*
G75*
G02*
X9122026Y-7973549I15000J0D01*
G01*
X9122026Y-8373549D02*
G75*
G02*
X9092026Y-8373549I-15000J0D01*
G01*
X9092026Y-8373549D02*
G75*
G02*
X9122026Y-8373549I15000J0D01*
G01*
X9222026Y-9273549D02*
G75*
G02*
X9192026Y-9273549I-15000J0D01*
G01*
X9192026Y-9273549D02*
G75*
G02*
X9222026Y-9273549I15000J0D01*
G01*
X9222026Y-12073549D02*
G75*
G02*
X9192026Y-12073549I-15000J0D01*
G01*
X9192026Y-12073549D02*
G75*
G02*
X9222026Y-12073549I15000J0D01*
G01*
X9222026Y-12473549D02*
G75*
G02*
X9192026Y-12473549I-15000J0D01*
G01*
X9192026Y-12473549D02*
G75*
G02*
X9222026Y-12473549I15000J0D01*
G01*
X9322026Y-5773549D02*
G75*
G02*
X9292026Y-5773549I-15000J0D01*
G01*
X9292026Y-5773549D02*
G75*
G02*
X9322026Y-5773549I15000J0D01*
G01*
X9322026Y-6173549D02*
G75*
G02*
X9292026Y-6173549I-15000J0D01*
G01*
X9292026Y-6173549D02*
G75*
G02*
X9322026Y-6173549I15000J0D01*
G01*
X9322026Y-6573549D02*
G75*
G02*
X9292026Y-6573549I-15000J0D01*
G01*
X9292026Y-6573549D02*
G75*
G02*
X9322026Y-6573549I15000J0D01*
G01*
X9322026Y-6973549D02*
G75*
G02*
X9292026Y-6973549I-15000J0D01*
G01*
X9292026Y-6973549D02*
G75*
G02*
X9322026Y-6973549I15000J0D01*
G01*
X9322026Y-7373549D02*
G75*
G02*
X9292026Y-7373549I-15000J0D01*
G01*
X9292026Y-7373549D02*
G75*
G02*
X9322026Y-7373549I15000J0D01*
G01*
X9322026Y-7773549D02*
G75*
G02*
X9292026Y-7773549I-15000J0D01*
G01*
X9292026Y-7773549D02*
G75*
G02*
X9322026Y-7773549I15000J0D01*
G01*
X9322026Y-8173549D02*
G75*
G02*
X9292026Y-8173549I-15000J0D01*
G01*
X9292026Y-8173549D02*
G75*
G02*
X9322026Y-8173549I15000J0D01*
G01*
X9322026Y-8573549D02*
G75*
G02*
X9292026Y-8573549I-15000J0D01*
G01*
X9292026Y-8573549D02*
G75*
G02*
X9322026Y-8573549I15000J0D01*
G01*
X9422026Y-9873549D02*
G75*
G02*
X9392026Y-9873549I-15000J0D01*
G01*
X9392026Y-9873549D02*
G75*
G02*
X9422026Y-9873549I15000J0D01*
G01*
X9422026Y-10673549D02*
G75*
G02*
X9392026Y-10673549I-15000J0D01*
G01*
X9392026Y-10673549D02*
G75*
G02*
X9422026Y-10673549I15000J0D01*
G01*
X9422026Y-11073549D02*
G75*
G02*
X9392026Y-11073549I-15000J0D01*
G01*
X9392026Y-11073549D02*
G75*
G02*
X9422026Y-11073549I15000J0D01*
G01*
X9422026Y-11873549D02*
G75*
G02*
X9392026Y-11873549I-15000J0D01*
G01*
X9392026Y-11873549D02*
G75*
G02*
X9422026Y-11873549I15000J0D01*
G01*
X9522026Y-5573549D02*
G75*
G02*
X9492026Y-5573549I-15000J0D01*
G01*
X9492026Y-5573549D02*
G75*
G02*
X9522026Y-5573549I15000J0D01*
G01*
X9522026Y-5973549D02*
G75*
G02*
X9492026Y-5973549I-15000J0D01*
G01*
X9492026Y-5973549D02*
G75*
G02*
X9522026Y-5973549I15000J0D01*
G01*
X9522026Y-6373549D02*
G75*
G02*
X9492026Y-6373549I-15000J0D01*
G01*
X9492026Y-6373549D02*
G75*
G02*
X9522026Y-6373549I15000J0D01*
G01*
X9522026Y-6773549D02*
G75*
G02*
X9492026Y-6773549I-15000J0D01*
G01*
X9492026Y-6773549D02*
G75*
G02*
X9522026Y-6773549I15000J0D01*
G01*
X9522026Y-7173549D02*
G75*
G02*
X9492026Y-7173549I-15000J0D01*
G01*
X9492026Y-7173549D02*
G75*
G02*
X9522026Y-7173549I15000J0D01*
G01*
X9522026Y-7573549D02*
G75*
G02*
X9492026Y-7573549I-15000J0D01*
G01*
X9492026Y-7573549D02*
G75*
G02*
X9522026Y-7573549I15000J0D01*
G01*
X9522026Y-7973549D02*
G75*
G02*
X9492026Y-7973549I-15000J0D01*
G01*
X9492026Y-7973549D02*
G75*
G02*
X9522026Y-7973549I15000J0D01*
G01*
X9522026Y-8373549D02*
G75*
G02*
X9492026Y-8373549I-15000J0D01*
G01*
X9492026Y-8373549D02*
G75*
G02*
X9522026Y-8373549I15000J0D01*
G01*
X9622026Y-9273549D02*
G75*
G02*
X9592026Y-9273549I-15000J0D01*
G01*
X9592026Y-9273549D02*
G75*
G02*
X9622026Y-9273549I15000J0D01*
G01*
X9622026Y-10473549D02*
G75*
G02*
X9592026Y-10473549I-15000J0D01*
G01*
X9592026Y-10473549D02*
G75*
G02*
X9622026Y-10473549I15000J0D01*
G01*
X9622026Y-10873549D02*
G75*
G02*
X9592026Y-10873549I-15000J0D01*
G01*
X9592026Y-10873549D02*
G75*
G02*
X9622026Y-10873549I15000J0D01*
G01*
X9622026Y-12073549D02*
G75*
G02*
X9592026Y-12073549I-15000J0D01*
G01*
X9592026Y-12073549D02*
G75*
G02*
X9622026Y-12073549I15000J0D01*
G01*
X9622026Y-12473549D02*
G75*
G02*
X9592026Y-12473549I-15000J0D01*
G01*
X9592026Y-12473549D02*
G75*
G02*
X9622026Y-12473549I15000J0D01*
G01*
X9722026Y-5773549D02*
G75*
G02*
X9692026Y-5773549I-15000J0D01*
G01*
X9692026Y-5773549D02*
G75*
G02*
X9722026Y-5773549I15000J0D01*
G01*
X9722026Y-6173549D02*
G75*
G02*
X9692026Y-6173549I-15000J0D01*
G01*
X9692026Y-6173549D02*
G75*
G02*
X9722026Y-6173549I15000J0D01*
G01*
X9722026Y-6573549D02*
G75*
G02*
X9692026Y-6573549I-15000J0D01*
G01*
X9692026Y-6573549D02*
G75*
G02*
X9722026Y-6573549I15000J0D01*
G01*
X9722026Y-6973549D02*
G75*
G02*
X9692026Y-6973549I-15000J0D01*
G01*
X9692026Y-6973549D02*
G75*
G02*
X9722026Y-6973549I15000J0D01*
G01*
X9722026Y-7373549D02*
G75*
G02*
X9692026Y-7373549I-15000J0D01*
G01*
X9692026Y-7373549D02*
G75*
G02*
X9722026Y-7373549I15000J0D01*
G01*
X9722026Y-7773549D02*
G75*
G02*
X9692026Y-7773549I-15000J0D01*
G01*
X9692026Y-7773549D02*
G75*
G02*
X9722026Y-7773549I15000J0D01*
G01*
X9722026Y-8173549D02*
G75*
G02*
X9692026Y-8173549I-15000J0D01*
G01*
X9692026Y-8173549D02*
G75*
G02*
X9722026Y-8173549I15000J0D01*
G01*
X9722026Y-8573549D02*
G75*
G02*
X9692026Y-8573549I-15000J0D01*
G01*
X9692026Y-8573549D02*
G75*
G02*
X9722026Y-8573549I15000J0D01*
G01*
X9922026Y-5573549D02*
G75*
G02*
X9892026Y-5573549I-15000J0D01*
G01*
X9892026Y-5573549D02*
G75*
G02*
X9922026Y-5573549I15000J0D01*
G01*
X9922026Y-5973549D02*
G75*
G02*
X9892026Y-5973549I-15000J0D01*
G01*
X9892026Y-5973549D02*
G75*
G02*
X9922026Y-5973549I15000J0D01*
G01*
X9922026Y-6373549D02*
G75*
G02*
X9892026Y-6373549I-15000J0D01*
G01*
X9892026Y-6373549D02*
G75*
G02*
X9922026Y-6373549I15000J0D01*
G01*
X9922026Y-6773549D02*
G75*
G02*
X9892026Y-6773549I-15000J0D01*
G01*
X9892026Y-6773549D02*
G75*
G02*
X9922026Y-6773549I15000J0D01*
G01*
X9922026Y-7173549D02*
G75*
G02*
X9892026Y-7173549I-15000J0D01*
G01*
X9892026Y-7173549D02*
G75*
G02*
X9922026Y-7173549I15000J0D01*
G01*
X9922026Y-7573549D02*
G75*
G02*
X9892026Y-7573549I-15000J0D01*
G01*
X9892026Y-7573549D02*
G75*
G02*
X9922026Y-7573549I15000J0D01*
G01*
X9922026Y-7973549D02*
G75*
G02*
X9892026Y-7973549I-15000J0D01*
G01*
X9892026Y-7973549D02*
G75*
G02*
X9922026Y-7973549I15000J0D01*
G01*
X9922026Y-8373549D02*
G75*
G02*
X9892026Y-8373549I-15000J0D01*
G01*
X9892026Y-8373549D02*
G75*
G02*
X9922026Y-8373549I15000J0D01*
G01*
X10022026Y-9273549D02*
G75*
G02*
X9992026Y-9273549I-15000J0D01*
G01*
X9992026Y-9273549D02*
G75*
G02*
X10022026Y-9273549I15000J0D01*
G01*
X10022026Y-12473549D02*
G75*
G02*
X9992026Y-12473549I-15000J0D01*
G01*
X9992026Y-12473549D02*
G75*
G02*
X10022026Y-12473549I15000J0D01*
G01*
X10122026Y-5773549D02*
G75*
G02*
X10092026Y-5773549I-15000J0D01*
G01*
X10092026Y-5773549D02*
G75*
G02*
X10122026Y-5773549I15000J0D01*
G01*
X10122026Y-6173549D02*
G75*
G02*
X10092026Y-6173549I-15000J0D01*
G01*
X10092026Y-6173549D02*
G75*
G02*
X10122026Y-6173549I15000J0D01*
G01*
X10122026Y-6573549D02*
G75*
G02*
X10092026Y-6573549I-15000J0D01*
G01*
X10092026Y-6573549D02*
G75*
G02*
X10122026Y-6573549I15000J0D01*
G01*
X10122026Y-6973549D02*
G75*
G02*
X10092026Y-6973549I-15000J0D01*
G01*
X10092026Y-6973549D02*
G75*
G02*
X10122026Y-6973549I15000J0D01*
G01*
X10122026Y-7373549D02*
G75*
G02*
X10092026Y-7373549I-15000J0D01*
G01*
X10092026Y-7373549D02*
G75*
G02*
X10122026Y-7373549I15000J0D01*
G01*
X10122026Y-7773549D02*
G75*
G02*
X10092026Y-7773549I-15000J0D01*
G01*
X10092026Y-7773549D02*
G75*
G02*
X10122026Y-7773549I15000J0D01*
G01*
X10122026Y-8173549D02*
G75*
G02*
X10092026Y-8173549I-15000J0D01*
G01*
X10092026Y-8173549D02*
G75*
G02*
X10122026Y-8173549I15000J0D01*
G01*
X10122026Y-8573549D02*
G75*
G02*
X10092026Y-8573549I-15000J0D01*
G01*
X10092026Y-8573549D02*
G75*
G02*
X10122026Y-8573549I15000J0D01*
G01*
X10222026Y-9473549D02*
G75*
G02*
X10192026Y-9473549I-15000J0D01*
G01*
X10192026Y-9473549D02*
G75*
G02*
X10222026Y-9473549I15000J0D01*
G01*
X10222026Y-9873549D02*
G75*
G02*
X10192026Y-9873549I-15000J0D01*
G01*
X10192026Y-9873549D02*
G75*
G02*
X10222026Y-9873549I15000J0D01*
G01*
X10322026Y-5573549D02*
G75*
G02*
X10292026Y-5573549I-15000J0D01*
G01*
X10292026Y-5573549D02*
G75*
G02*
X10322026Y-5573549I15000J0D01*
G01*
X10322026Y-5973549D02*
G75*
G02*
X10292026Y-5973549I-15000J0D01*
G01*
X10292026Y-5973549D02*
G75*
G02*
X10322026Y-5973549I15000J0D01*
G01*
X10322026Y-6373549D02*
G75*
G02*
X10292026Y-6373549I-15000J0D01*
G01*
X10292026Y-6373549D02*
G75*
G02*
X10322026Y-6373549I15000J0D01*
G01*
X10322026Y-6773549D02*
G75*
G02*
X10292026Y-6773549I-15000J0D01*
G01*
X10292026Y-6773549D02*
G75*
G02*
X10322026Y-6773549I15000J0D01*
G01*
X10322026Y-7173549D02*
G75*
G02*
X10292026Y-7173549I-15000J0D01*
G01*
X10292026Y-7173549D02*
G75*
G02*
X10322026Y-7173549I15000J0D01*
G01*
X10322026Y-7573549D02*
G75*
G02*
X10292026Y-7573549I-15000J0D01*
G01*
X10292026Y-7573549D02*
G75*
G02*
X10322026Y-7573549I15000J0D01*
G01*
X10322026Y-7973549D02*
G75*
G02*
X10292026Y-7973549I-15000J0D01*
G01*
X10292026Y-7973549D02*
G75*
G02*
X10322026Y-7973549I15000J0D01*
G01*
X10322026Y-8373549D02*
G75*
G02*
X10292026Y-8373549I-15000J0D01*
G01*
X10292026Y-8373549D02*
G75*
G02*
X10322026Y-8373549I15000J0D01*
G01*
X10422026Y-9273549D02*
G75*
G02*
X10392026Y-9273549I-15000J0D01*
G01*
X10392026Y-9273549D02*
G75*
G02*
X10422026Y-9273549I15000J0D01*
G01*
X10422026Y-9673549D02*
G75*
G02*
X10392026Y-9673549I-15000J0D01*
G01*
X10392026Y-9673549D02*
G75*
G02*
X10422026Y-9673549I15000J0D01*
G01*
X10422026Y-10073549D02*
G75*
G02*
X10392026Y-10073549I-15000J0D01*
G01*
X10392026Y-10073549D02*
G75*
G02*
X10422026Y-10073549I15000J0D01*
G01*
X10422026Y-10473549D02*
G75*
G02*
X10392026Y-10473549I-15000J0D01*
G01*
X10392026Y-10473549D02*
G75*
G02*
X10422026Y-10473549I15000J0D01*
G01*
X10422026Y-10873549D02*
G75*
G02*
X10392026Y-10873549I-15000J0D01*
G01*
X10392026Y-10873549D02*
G75*
G02*
X10422026Y-10873549I15000J0D01*
G01*
X10422026Y-12473549D02*
G75*
G02*
X10392026Y-12473549I-15000J0D01*
G01*
X10392026Y-12473549D02*
G75*
G02*
X10422026Y-12473549I15000J0D01*
G01*
X10522026Y-5773549D02*
G75*
G02*
X10492026Y-5773549I-15000J0D01*
G01*
X10492026Y-5773549D02*
G75*
G02*
X10522026Y-5773549I15000J0D01*
G01*
X10522026Y-6173549D02*
G75*
G02*
X10492026Y-6173549I-15000J0D01*
G01*
X10492026Y-6173549D02*
G75*
G02*
X10522026Y-6173549I15000J0D01*
G01*
X10522026Y-6573549D02*
G75*
G02*
X10492026Y-6573549I-15000J0D01*
G01*
X10492026Y-6573549D02*
G75*
G02*
X10522026Y-6573549I15000J0D01*
G01*
X10522026Y-6973549D02*
G75*
G02*
X10492026Y-6973549I-15000J0D01*
G01*
X10492026Y-6973549D02*
G75*
G02*
X10522026Y-6973549I15000J0D01*
G01*
X10522026Y-7373549D02*
G75*
G02*
X10492026Y-7373549I-15000J0D01*
G01*
X10492026Y-7373549D02*
G75*
G02*
X10522026Y-7373549I15000J0D01*
G01*
X10522026Y-7773549D02*
G75*
G02*
X10492026Y-7773549I-15000J0D01*
G01*
X10492026Y-7773549D02*
G75*
G02*
X10522026Y-7773549I15000J0D01*
G01*
X10522026Y-8173549D02*
G75*
G02*
X10492026Y-8173549I-15000J0D01*
G01*
X10492026Y-8173549D02*
G75*
G02*
X10522026Y-8173549I15000J0D01*
G01*
X10522026Y-8573549D02*
G75*
G02*
X10492026Y-8573549I-15000J0D01*
G01*
X10492026Y-8573549D02*
G75*
G02*
X10522026Y-8573549I15000J0D01*
G01*
X10622026Y-9473549D02*
G75*
G02*
X10592026Y-9473549I-15000J0D01*
G01*
X10592026Y-9473549D02*
G75*
G02*
X10622026Y-9473549I15000J0D01*
G01*
X10622026Y-9873549D02*
G75*
G02*
X10592026Y-9873549I-15000J0D01*
G01*
X10592026Y-9873549D02*
G75*
G02*
X10622026Y-9873549I15000J0D01*
G01*
X10622026Y-10273549D02*
G75*
G02*
X10592026Y-10273549I-15000J0D01*
G01*
X10592026Y-10273549D02*
G75*
G02*
X10622026Y-10273549I15000J0D01*
G01*
X10622026Y-10673549D02*
G75*
G02*
X10592026Y-10673549I-15000J0D01*
G01*
X10592026Y-10673549D02*
G75*
G02*
X10622026Y-10673549I15000J0D01*
G01*
X10622026Y-11073549D02*
G75*
G02*
X10592026Y-11073549I-15000J0D01*
G01*
X10592026Y-11073549D02*
G75*
G02*
X10622026Y-11073549I15000J0D01*
G01*
X10652026Y-12173549D02*
G75*
G02*
X10622026Y-12173549I-15000J0D01*
G01*
X10622026Y-12173549D02*
G75*
G02*
X10652026Y-12173549I15000J0D01*
G01*
X10662026Y-8863549D02*
G75*
G02*
X10632026Y-8863549I-15000J0D01*
G01*
X10632026Y-8863549D02*
G75*
G02*
X10662026Y-8863549I15000J0D01*
G01*
X10722026Y-5573549D02*
G75*
G02*
X10692026Y-5573549I-15000J0D01*
G01*
X10692026Y-5573549D02*
G75*
G02*
X10722026Y-5573549I15000J0D01*
G01*
X10722026Y-5973549D02*
G75*
G02*
X10692026Y-5973549I-15000J0D01*
G01*
X10692026Y-5973549D02*
G75*
G02*
X10722026Y-5973549I15000J0D01*
G01*
X10722026Y-6373549D02*
G75*
G02*
X10692026Y-6373549I-15000J0D01*
G01*
X10692026Y-6373549D02*
G75*
G02*
X10722026Y-6373549I15000J0D01*
G01*
X10722026Y-6773549D02*
G75*
G02*
X10692026Y-6773549I-15000J0D01*
G01*
X10692026Y-6773549D02*
G75*
G02*
X10722026Y-6773549I15000J0D01*
G01*
X10722026Y-7173549D02*
G75*
G02*
X10692026Y-7173549I-15000J0D01*
G01*
X10692026Y-7173549D02*
G75*
G02*
X10722026Y-7173549I15000J0D01*
G01*
X10722026Y-7573549D02*
G75*
G02*
X10692026Y-7573549I-15000J0D01*
G01*
X10692026Y-7573549D02*
G75*
G02*
X10722026Y-7573549I15000J0D01*
G01*
X10722026Y-7973549D02*
G75*
G02*
X10692026Y-7973549I-15000J0D01*
G01*
X10692026Y-7973549D02*
G75*
G02*
X10722026Y-7973549I15000J0D01*
G01*
X10722026Y-8373549D02*
G75*
G02*
X10692026Y-8373549I-15000J0D01*
G01*
X10692026Y-8373549D02*
G75*
G02*
X10722026Y-8373549I15000J0D01*
G01*
X10782026Y-12173549D02*
G75*
G02*
X10752026Y-12173549I-15000J0D01*
G01*
X10752026Y-12173549D02*
G75*
G02*
X10782026Y-12173549I15000J0D01*
G01*
X10822026Y-9273549D02*
G75*
G02*
X10792026Y-9273549I-15000J0D01*
G01*
X10792026Y-9273549D02*
G75*
G02*
X10822026Y-9273549I15000J0D01*
G01*
X10822026Y-9673549D02*
G75*
G02*
X10792026Y-9673549I-15000J0D01*
G01*
X10792026Y-9673549D02*
G75*
G02*
X10822026Y-9673549I15000J0D01*
G01*
X10822026Y-10073549D02*
G75*
G02*
X10792026Y-10073549I-15000J0D01*
G01*
X10792026Y-10073549D02*
G75*
G02*
X10822026Y-10073549I15000J0D01*
G01*
X10822026Y-10473549D02*
G75*
G02*
X10792026Y-10473549I-15000J0D01*
G01*
X10792026Y-10473549D02*
G75*
G02*
X10822026Y-10473549I15000J0D01*
G01*
X10822026Y-10873549D02*
G75*
G02*
X10792026Y-10873549I-15000J0D01*
G01*
X10792026Y-10873549D02*
G75*
G02*
X10822026Y-10873549I15000J0D01*
G01*
X10822026Y-12473549D02*
G75*
G02*
X10792026Y-12473549I-15000J0D01*
G01*
X10792026Y-12473549D02*
G75*
G02*
X10822026Y-12473549I15000J0D01*
G01*
X10902026Y-12173549D02*
G75*
G02*
X10872026Y-12173549I-15000J0D01*
G01*
X10872026Y-12173549D02*
G75*
G02*
X10902026Y-12173549I15000J0D01*
G01*
X10922026Y-5773549D02*
G75*
G02*
X10892026Y-5773549I-15000J0D01*
G01*
X10892026Y-5773549D02*
G75*
G02*
X10922026Y-5773549I15000J0D01*
G01*
X10922026Y-6173549D02*
G75*
G02*
X10892026Y-6173549I-15000J0D01*
G01*
X10892026Y-6173549D02*
G75*
G02*
X10922026Y-6173549I15000J0D01*
G01*
X10922026Y-6573549D02*
G75*
G02*
X10892026Y-6573549I-15000J0D01*
G01*
X10892026Y-6573549D02*
G75*
G02*
X10922026Y-6573549I15000J0D01*
G01*
X10922026Y-6973549D02*
G75*
G02*
X10892026Y-6973549I-15000J0D01*
G01*
X10892026Y-6973549D02*
G75*
G02*
X10922026Y-6973549I15000J0D01*
G01*
X10922026Y-7373549D02*
G75*
G02*
X10892026Y-7373549I-15000J0D01*
G01*
X10892026Y-7373549D02*
G75*
G02*
X10922026Y-7373549I15000J0D01*
G01*
X10922026Y-7773549D02*
G75*
G02*
X10892026Y-7773549I-15000J0D01*
G01*
X10892026Y-7773549D02*
G75*
G02*
X10922026Y-7773549I15000J0D01*
G01*
X10922026Y-8173549D02*
G75*
G02*
X10892026Y-8173549I-15000J0D01*
G01*
X10892026Y-8173549D02*
G75*
G02*
X10922026Y-8173549I15000J0D01*
G01*
X10922026Y-8573549D02*
G75*
G02*
X10892026Y-8573549I-15000J0D01*
G01*
X10892026Y-8573549D02*
G75*
G02*
X10922026Y-8573549I15000J0D01*
G01*
X11022026Y-9473549D02*
G75*
G02*
X10992026Y-9473549I-15000J0D01*
G01*
X10992026Y-9473549D02*
G75*
G02*
X11022026Y-9473549I15000J0D01*
G01*
X11022026Y-9873549D02*
G75*
G02*
X10992026Y-9873549I-15000J0D01*
G01*
X10992026Y-9873549D02*
G75*
G02*
X11022026Y-9873549I15000J0D01*
G01*
X11022026Y-10273549D02*
G75*
G02*
X10992026Y-10273549I-15000J0D01*
G01*
X10992026Y-10273549D02*
G75*
G02*
X11022026Y-10273549I15000J0D01*
G01*
X11022026Y-10673549D02*
G75*
G02*
X10992026Y-10673549I-15000J0D01*
G01*
X10992026Y-10673549D02*
G75*
G02*
X11022026Y-10673549I15000J0D01*
G01*
X11022026Y-11073549D02*
G75*
G02*
X10992026Y-11073549I-15000J0D01*
G01*
X10992026Y-11073549D02*
G75*
G02*
X11022026Y-11073549I15000J0D01*
G01*
X11022026Y-12273549D02*
G75*
G02*
X10992026Y-12273549I-15000J0D01*
G01*
X10992026Y-12273549D02*
G75*
G02*
X11022026Y-12273549I15000J0D01*
G01*
X11032026Y-12173549D02*
G75*
G02*
X11002026Y-12173549I-15000J0D01*
G01*
X11002026Y-12173549D02*
G75*
G02*
X11032026Y-12173549I15000J0D01*
G01*
X11122026Y-7173549D02*
G75*
G02*
X11092026Y-7173549I-15000J0D01*
G01*
X11092026Y-7173549D02*
G75*
G02*
X11122026Y-7173549I15000J0D01*
G01*
X11122026Y-7573549D02*
G75*
G02*
X11092026Y-7573549I-15000J0D01*
G01*
X11092026Y-7573549D02*
G75*
G02*
X11122026Y-7573549I15000J0D01*
G01*
X11122026Y-7973549D02*
G75*
G02*
X11092026Y-7973549I-15000J0D01*
G01*
X11092026Y-7973549D02*
G75*
G02*
X11122026Y-7973549I15000J0D01*
G01*
X11122026Y-8373549D02*
G75*
G02*
X11092026Y-8373549I-15000J0D01*
G01*
X11092026Y-8373549D02*
G75*
G02*
X11122026Y-8373549I15000J0D01*
G01*
X11192026Y-8853549D02*
G75*
G02*
X11162026Y-8853549I-15000J0D01*
G01*
X11162026Y-8853549D02*
G75*
G02*
X11192026Y-8853549I15000J0D01*
G01*
X11222026Y-10473549D02*
G75*
G02*
X11192026Y-10473549I-15000J0D01*
G01*
X11192026Y-10473549D02*
G75*
G02*
X11222026Y-10473549I15000J0D01*
G01*
X11222026Y-10873549D02*
G75*
G02*
X11192026Y-10873549I-15000J0D01*
G01*
X11192026Y-10873549D02*
G75*
G02*
X11222026Y-10873549I15000J0D01*
G01*
X11222026Y-11273549D02*
G75*
G02*
X11192026Y-11273549I-15000J0D01*
G01*
X11192026Y-11273549D02*
G75*
G02*
X11222026Y-11273549I15000J0D01*
G01*
X11222026Y-11673549D02*
G75*
G02*
X11192026Y-11673549I-15000J0D01*
G01*
X11192026Y-11673549D02*
G75*
G02*
X11222026Y-11673549I15000J0D01*
G01*
X11222026Y-12473549D02*
G75*
G02*
X11192026Y-12473549I-15000J0D01*
G01*
X11192026Y-12473549D02*
G75*
G02*
X11222026Y-12473549I15000J0D01*
G01*
X11292026Y-9013549D02*
G75*
G02*
X11262026Y-9013549I-15000J0D01*
G01*
X11262026Y-9013549D02*
G75*
G02*
X11292026Y-9013549I15000J0D01*
G01*
X11292026Y-9583549D02*
G75*
G02*
X11262026Y-9583549I-15000J0D01*
G01*
X11262026Y-9583549D02*
G75*
G02*
X11292026Y-9583549I15000J0D01*
G01*
X11292026Y-9953549D02*
G75*
G02*
X11262026Y-9953549I-15000J0D01*
G01*
X11262026Y-9953549D02*
G75*
G02*
X11292026Y-9953549I15000J0D01*
G01*
X11312026Y-9263549D02*
G75*
G02*
X11282026Y-9263549I-15000J0D01*
G01*
X11282026Y-9263549D02*
G75*
G02*
X11312026Y-9263549I15000J0D01*
G01*
X11322026Y-5773549D02*
G75*
G02*
X11292026Y-5773549I-15000J0D01*
G01*
X11292026Y-5773549D02*
G75*
G02*
X11322026Y-5773549I15000J0D01*
G01*
X11322026Y-6173549D02*
G75*
G02*
X11292026Y-6173549I-15000J0D01*
G01*
X11292026Y-6173549D02*
G75*
G02*
X11322026Y-6173549I15000J0D01*
G01*
X11322026Y-7373549D02*
G75*
G02*
X11292026Y-7373549I-15000J0D01*
G01*
X11292026Y-7373549D02*
G75*
G02*
X11322026Y-7373549I15000J0D01*
G01*
X11322026Y-7773549D02*
G75*
G02*
X11292026Y-7773549I-15000J0D01*
G01*
X11292026Y-7773549D02*
G75*
G02*
X11322026Y-7773549I15000J0D01*
G01*
X11322026Y-8173549D02*
G75*
G02*
X11292026Y-8173549I-15000J0D01*
G01*
X11292026Y-8173549D02*
G75*
G02*
X11322026Y-8173549I15000J0D01*
G01*
X11322026Y-8573549D02*
G75*
G02*
X11292026Y-8573549I-15000J0D01*
G01*
X11292026Y-8573549D02*
G75*
G02*
X11322026Y-8573549I15000J0D01*
G01*
X11352026Y-6533549D02*
G75*
G02*
X11322026Y-6533549I-15000J0D01*
G01*
X11322026Y-6533549D02*
G75*
G02*
X11352026Y-6533549I15000J0D01*
G01*
X11352026Y-6653549D02*
G75*
G02*
X11322026Y-6653549I-15000J0D01*
G01*
X11322026Y-6653549D02*
G75*
G02*
X11352026Y-6653549I15000J0D01*
G01*
X11412026Y-5113549D02*
G75*
G02*
X11382026Y-5113549I-15000J0D01*
G01*
X11382026Y-5113549D02*
G75*
G02*
X11412026Y-5113549I15000J0D01*
G01*
X11422026Y-10673549D02*
G75*
G02*
X11392026Y-10673549I-15000J0D01*
G01*
X11392026Y-10673549D02*
G75*
G02*
X11422026Y-10673549I15000J0D01*
G01*
X11422026Y-11073549D02*
G75*
G02*
X11392026Y-11073549I-15000J0D01*
G01*
X11392026Y-11073549D02*
G75*
G02*
X11422026Y-11073549I15000J0D01*
G01*
X11422026Y-11473549D02*
G75*
G02*
X11392026Y-11473549I-15000J0D01*
G01*
X11392026Y-11473549D02*
G75*
G02*
X11422026Y-11473549I15000J0D01*
G01*
X11422026Y-12273549D02*
G75*
G02*
X11392026Y-12273549I-15000J0D01*
G01*
X11392026Y-12273549D02*
G75*
G02*
X11422026Y-12273549I15000J0D01*
G01*
X11432026Y-6873549D02*
G75*
G02*
X11402026Y-6873549I-15000J0D01*
G01*
X11402026Y-6873549D02*
G75*
G02*
X11432026Y-6873549I15000J0D01*
G01*
X11522026Y-5573549D02*
G75*
G02*
X11492026Y-5573549I-15000J0D01*
G01*
X11492026Y-5573549D02*
G75*
G02*
X11522026Y-5573549I15000J0D01*
G01*
X11522026Y-5973549D02*
G75*
G02*
X11492026Y-5973549I-15000J0D01*
G01*
X11492026Y-5973549D02*
G75*
G02*
X11522026Y-5973549I15000J0D01*
G01*
X11522026Y-6373549D02*
G75*
G02*
X11492026Y-6373549I-15000J0D01*
G01*
X11492026Y-6373549D02*
G75*
G02*
X11522026Y-6373549I15000J0D01*
G01*
X11522026Y-7573549D02*
G75*
G02*
X11492026Y-7573549I-15000J0D01*
G01*
X11492026Y-7573549D02*
G75*
G02*
X11522026Y-7573549I15000J0D01*
G01*
X11522026Y-7973549D02*
G75*
G02*
X11492026Y-7973549I-15000J0D01*
G01*
X11492026Y-7973549D02*
G75*
G02*
X11522026Y-7973549I15000J0D01*
G01*
X11532026Y-9583549D02*
G75*
G02*
X11502026Y-9583549I-15000J0D01*
G01*
X11502026Y-9583549D02*
G75*
G02*
X11532026Y-9583549I15000J0D01*
G01*
X11542026Y-6873549D02*
G75*
G02*
X11512026Y-6873549I-15000J0D01*
G01*
X11512026Y-6873549D02*
G75*
G02*
X11542026Y-6873549I15000J0D01*
G01*
X11552026Y-9263549D02*
G75*
G02*
X11522026Y-9263549I-15000J0D01*
G01*
X11522026Y-9263549D02*
G75*
G02*
X11552026Y-9263549I15000J0D01*
G01*
X11572026Y-10173549D02*
G75*
G02*
X11542026Y-10173549I-15000J0D01*
G01*
X11542026Y-10173549D02*
G75*
G02*
X11572026Y-10173549I15000J0D01*
G01*
X11582026Y-8853549D02*
G75*
G02*
X11552026Y-8853549I-15000J0D01*
G01*
X11552026Y-8853549D02*
G75*
G02*
X11582026Y-8853549I15000J0D01*
G01*
X11622026Y-10473549D02*
G75*
G02*
X11592026Y-10473549I-15000J0D01*
G01*
X11592026Y-10473549D02*
G75*
G02*
X11622026Y-10473549I15000J0D01*
G01*
X11622026Y-10873549D02*
G75*
G02*
X11592026Y-10873549I-15000J0D01*
G01*
X11592026Y-10873549D02*
G75*
G02*
X11622026Y-10873549I15000J0D01*
G01*
X11622026Y-11273549D02*
G75*
G02*
X11592026Y-11273549I-15000J0D01*
G01*
X11592026Y-11273549D02*
G75*
G02*
X11622026Y-11273549I15000J0D01*
G01*
X11622026Y-11673549D02*
G75*
G02*
X11592026Y-11673549I-15000J0D01*
G01*
X11592026Y-11673549D02*
G75*
G02*
X11622026Y-11673549I15000J0D01*
G01*
X11622026Y-12473549D02*
G75*
G02*
X11592026Y-12473549I-15000J0D01*
G01*
X11592026Y-12473549D02*
G75*
G02*
X11622026Y-12473549I15000J0D01*
G01*
X11712026Y-9023549D02*
G75*
G02*
X11682026Y-9023549I-15000J0D01*
G01*
X11682026Y-9023549D02*
G75*
G02*
X11712026Y-9023549I15000J0D01*
G01*
X11722026Y-4973549D02*
G75*
G02*
X11692026Y-4973549I-15000J0D01*
G01*
X11692026Y-4973549D02*
G75*
G02*
X11722026Y-4973549I15000J0D01*
G01*
X11722026Y-5373549D02*
G75*
G02*
X11692026Y-5373549I-15000J0D01*
G01*
X11692026Y-5373549D02*
G75*
G02*
X11722026Y-5373549I15000J0D01*
G01*
X11722026Y-5773549D02*
G75*
G02*
X11692026Y-5773549I-15000J0D01*
G01*
X11692026Y-5773549D02*
G75*
G02*
X11722026Y-5773549I15000J0D01*
G01*
X11722026Y-7773549D02*
G75*
G02*
X11692026Y-7773549I-15000J0D01*
G01*
X11692026Y-7773549D02*
G75*
G02*
X11722026Y-7773549I15000J0D01*
G01*
X11722026Y-8173549D02*
G75*
G02*
X11692026Y-8173549I-15000J0D01*
G01*
X11692026Y-8173549D02*
G75*
G02*
X11722026Y-8173549I15000J0D01*
G01*
X11722026Y-8573549D02*
G75*
G02*
X11692026Y-8573549I-15000J0D01*
G01*
X11692026Y-8573549D02*
G75*
G02*
X11722026Y-8573549I15000J0D01*
G01*
X11722026Y-9443549D02*
G75*
G02*
X11692026Y-9443549I-15000J0D01*
G01*
X11692026Y-9443549D02*
G75*
G02*
X11722026Y-9443549I15000J0D01*
G01*
X11722026Y-9753549D02*
G75*
G02*
X11692026Y-9753549I-15000J0D01*
G01*
X11692026Y-9753549D02*
G75*
G02*
X11722026Y-9753549I15000J0D01*
G01*
X11822026Y-10673549D02*
G75*
G02*
X11792026Y-10673549I-15000J0D01*
G01*
X11792026Y-10673549D02*
G75*
G02*
X11822026Y-10673549I15000J0D01*
G01*
X11822026Y-11073549D02*
G75*
G02*
X11792026Y-11073549I-15000J0D01*
G01*
X11792026Y-11073549D02*
G75*
G02*
X11822026Y-11073549I15000J0D01*
G01*
X11822026Y-11473549D02*
G75*
G02*
X11792026Y-11473549I-15000J0D01*
G01*
X11792026Y-11473549D02*
G75*
G02*
X11822026Y-11473549I15000J0D01*
G01*
X11822026Y-12273549D02*
G75*
G02*
X11792026Y-12273549I-15000J0D01*
G01*
X11792026Y-12273549D02*
G75*
G02*
X11822026Y-12273549I15000J0D01*
G01*
X11872026Y-9263549D02*
G75*
G02*
X11842026Y-9263549I-15000J0D01*
G01*
X11842026Y-9263549D02*
G75*
G02*
X11872026Y-9263549I15000J0D01*
G01*
X11882026Y-8853549D02*
G75*
G02*
X11852026Y-8853549I-15000J0D01*
G01*
X11852026Y-8853549D02*
G75*
G02*
X11882026Y-8853549I15000J0D01*
G01*
X11902026Y-9593549D02*
G75*
G02*
X11872026Y-9593549I-15000J0D01*
G01*
X11872026Y-9593549D02*
G75*
G02*
X11902026Y-9593549I15000J0D01*
G01*
X11912026Y-10173549D02*
G75*
G02*
X11882026Y-10173549I-15000J0D01*
G01*
X11882026Y-10173549D02*
G75*
G02*
X11912026Y-10173549I15000J0D01*
G01*
X11962026Y-6983549D02*
G75*
G02*
X11932026Y-6983549I-15000J0D01*
G01*
X11932026Y-6983549D02*
G75*
G02*
X11962026Y-6983549I15000J0D01*
G01*
X11972026Y-8183549D02*
G75*
G02*
X11942026Y-8183549I-15000J0D01*
G01*
X11942026Y-8183549D02*
G75*
G02*
X11972026Y-8183549I15000J0D01*
G01*
X11972026Y-8733549D02*
G75*
G02*
X11942026Y-8733549I-15000J0D01*
G01*
X11942026Y-8733549D02*
G75*
G02*
X11972026Y-8733549I15000J0D01*
G01*
X12022026Y-10473549D02*
G75*
G02*
X11992026Y-10473549I-15000J0D01*
G01*
X11992026Y-10473549D02*
G75*
G02*
X12022026Y-10473549I15000J0D01*
G01*
X12022026Y-10873549D02*
G75*
G02*
X11992026Y-10873549I-15000J0D01*
G01*
X11992026Y-10873549D02*
G75*
G02*
X12022026Y-10873549I15000J0D01*
G01*
X12022026Y-11273549D02*
G75*
G02*
X11992026Y-11273549I-15000J0D01*
G01*
X11992026Y-11273549D02*
G75*
G02*
X12022026Y-11273549I15000J0D01*
G01*
X12022026Y-12473549D02*
G75*
G02*
X11992026Y-12473549I-15000J0D01*
G01*
X11992026Y-12473549D02*
G75*
G02*
X12022026Y-12473549I15000J0D01*
G01*
X12042026Y-9443549D02*
G75*
G02*
X12012026Y-9443549I-15000J0D01*
G01*
X12012026Y-9443549D02*
G75*
G02*
X12042026Y-9443549I15000J0D01*
G01*
X12042026Y-9753549D02*
G75*
G02*
X12012026Y-9753549I-15000J0D01*
G01*
X12012026Y-9753549D02*
G75*
G02*
X12042026Y-9753549I15000J0D01*
G01*
X12052026Y-10163549D02*
G75*
G02*
X12022026Y-10163549I-15000J0D01*
G01*
X12022026Y-10163549D02*
G75*
G02*
X12052026Y-10163549I15000J0D01*
G01*
X12122026Y-4973549D02*
G75*
G02*
X12092026Y-4973549I-15000J0D01*
G01*
X12092026Y-4973549D02*
G75*
G02*
X12122026Y-4973549I15000J0D01*
G01*
X12122026Y-5373549D02*
G75*
G02*
X12092026Y-5373549I-15000J0D01*
G01*
X12092026Y-5373549D02*
G75*
G02*
X12122026Y-5373549I15000J0D01*
G01*
X12122026Y-5773549D02*
G75*
G02*
X12092026Y-5773549I-15000J0D01*
G01*
X12092026Y-5773549D02*
G75*
G02*
X12122026Y-5773549I15000J0D01*
G01*
X12122026Y-6173549D02*
G75*
G02*
X12092026Y-6173549I-15000J0D01*
G01*
X12092026Y-6173549D02*
G75*
G02*
X12122026Y-6173549I15000J0D01*
G01*
X12122026Y-6573549D02*
G75*
G02*
X12092026Y-6573549I-15000J0D01*
G01*
X12092026Y-6573549D02*
G75*
G02*
X12122026Y-6573549I15000J0D01*
G01*
X12122026Y-6983549D02*
G75*
G02*
X12092026Y-6983549I-15000J0D01*
G01*
X12092026Y-6983549D02*
G75*
G02*
X12122026Y-6983549I15000J0D01*
G01*
X12122026Y-7373549D02*
G75*
G02*
X12092026Y-7373549I-15000J0D01*
G01*
X12092026Y-7373549D02*
G75*
G02*
X12122026Y-7373549I15000J0D01*
G01*
X12122026Y-7773549D02*
G75*
G02*
X12092026Y-7773549I-15000J0D01*
G01*
X12092026Y-7773549D02*
G75*
G02*
X12122026Y-7773549I15000J0D01*
G01*
X12122026Y-8173549D02*
G75*
G02*
X12092026Y-8173549I-15000J0D01*
G01*
X12092026Y-8173549D02*
G75*
G02*
X12122026Y-8173549I15000J0D01*
G01*
X12122026Y-8573549D02*
G75*
G02*
X12092026Y-8573549I-15000J0D01*
G01*
X12092026Y-8573549D02*
G75*
G02*
X12122026Y-8573549I15000J0D01*
G01*
X12122026Y-8973549D02*
G75*
G02*
X12092026Y-8973549I-15000J0D01*
G01*
X12092026Y-8973549D02*
G75*
G02*
X12122026Y-8973549I15000J0D01*
G01*
X12172026Y-9243549D02*
G75*
G02*
X12142026Y-9243549I-15000J0D01*
G01*
X12142026Y-9243549D02*
G75*
G02*
X12172026Y-9243549I15000J0D01*
G01*
X12172026Y-10163549D02*
G75*
G02*
X12142026Y-10163549I-15000J0D01*
G01*
X12142026Y-10163549D02*
G75*
G02*
X12172026Y-10163549I15000J0D01*
G01*
X12222026Y-12273549D02*
G75*
G02*
X12192026Y-12273549I-15000J0D01*
G01*
X12192026Y-12273549D02*
G75*
G02*
X12222026Y-12273549I15000J0D01*
G01*
X12272026Y-10263549D02*
G75*
G02*
X12242026Y-10263549I-15000J0D01*
G01*
X12242026Y-10263549D02*
G75*
G02*
X12272026Y-10263549I15000J0D01*
G01*
X12282026Y-9243549D02*
G75*
G02*
X12252026Y-9243549I-15000J0D01*
G01*
X12252026Y-9243549D02*
G75*
G02*
X12282026Y-9243549I15000J0D01*
G01*
X12322026Y-7173549D02*
G75*
G02*
X12292026Y-7173549I-15000J0D01*
G01*
X12292026Y-7173549D02*
G75*
G02*
X12322026Y-7173549I15000J0D01*
G01*
X12322026Y-7573549D02*
G75*
G02*
X12292026Y-7573549I-15000J0D01*
G01*
X12292026Y-7573549D02*
G75*
G02*
X12322026Y-7573549I15000J0D01*
G01*
X12322026Y-7973549D02*
G75*
G02*
X12292026Y-7973549I-15000J0D01*
G01*
X12292026Y-7973549D02*
G75*
G02*
X12322026Y-7973549I15000J0D01*
G01*
X12322026Y-8773549D02*
G75*
G02*
X12292026Y-8773549I-15000J0D01*
G01*
X12292026Y-8773549D02*
G75*
G02*
X12322026Y-8773549I15000J0D01*
G01*
X12372026Y-10163549D02*
G75*
G02*
X12342026Y-10163549I-15000J0D01*
G01*
X12342026Y-10163549D02*
G75*
G02*
X12372026Y-10163549I15000J0D01*
G01*
X12422026Y-12073549D02*
G75*
G02*
X12392026Y-12073549I-15000J0D01*
G01*
X12392026Y-12073549D02*
G75*
G02*
X12422026Y-12073549I15000J0D01*
G01*
X12422026Y-12473549D02*
G75*
G02*
X12392026Y-12473549I-15000J0D01*
G01*
X12392026Y-12473549D02*
G75*
G02*
X12422026Y-12473549I15000J0D01*
G01*
X12452026Y-8073549D02*
G75*
G02*
X12422026Y-8073549I-15000J0D01*
G01*
X12422026Y-8073549D02*
G75*
G02*
X12452026Y-8073549I15000J0D01*
G01*
X12452026Y-8163549D02*
G75*
G02*
X12422026Y-8163549I-15000J0D01*
G01*
X12422026Y-8163549D02*
G75*
G02*
X12452026Y-8163549I15000J0D01*
G01*
X12502026Y-8543549D02*
G75*
G02*
X12472026Y-8543549I-15000J0D01*
G01*
X12472026Y-8543549D02*
G75*
G02*
X12502026Y-8543549I15000J0D01*
G01*
X12522026Y-4973549D02*
G75*
G02*
X12492026Y-4973549I-15000J0D01*
G01*
X12492026Y-4973549D02*
G75*
G02*
X12522026Y-4973549I15000J0D01*
G01*
X12522026Y-5373549D02*
G75*
G02*
X12492026Y-5373549I-15000J0D01*
G01*
X12492026Y-5373549D02*
G75*
G02*
X12522026Y-5373549I15000J0D01*
G01*
X12522026Y-5773549D02*
G75*
G02*
X12492026Y-5773549I-15000J0D01*
G01*
X12492026Y-5773549D02*
G75*
G02*
X12522026Y-5773549I15000J0D01*
G01*
X12522026Y-6173549D02*
G75*
G02*
X12492026Y-6173549I-15000J0D01*
G01*
X12492026Y-6173549D02*
G75*
G02*
X12522026Y-6173549I15000J0D01*
G01*
X12522026Y-6573549D02*
G75*
G02*
X12492026Y-6573549I-15000J0D01*
G01*
X12492026Y-6573549D02*
G75*
G02*
X12522026Y-6573549I15000J0D01*
G01*
X12572026Y-7033549D02*
G75*
G02*
X12542026Y-7033549I-15000J0D01*
G01*
X12542026Y-7033549D02*
G75*
G02*
X12572026Y-7033549I15000J0D01*
G01*
X12572026Y-9803549D02*
G75*
G02*
X12542026Y-9803549I-15000J0D01*
G01*
X12542026Y-9803549D02*
G75*
G02*
X12572026Y-9803549I15000J0D01*
G01*
X12622026Y-10673549D02*
G75*
G02*
X12592026Y-10673549I-15000J0D01*
G01*
X12592026Y-10673549D02*
G75*
G02*
X12622026Y-10673549I15000J0D01*
G01*
X12622026Y-11073549D02*
G75*
G02*
X12592026Y-11073549I-15000J0D01*
G01*
X12592026Y-11073549D02*
G75*
G02*
X12622026Y-11073549I15000J0D01*
G01*
X12622026Y-11473549D02*
G75*
G02*
X12592026Y-11473549I-15000J0D01*
G01*
X12592026Y-11473549D02*
G75*
G02*
X12622026Y-11473549I15000J0D01*
G01*
X12622026Y-11873549D02*
G75*
G02*
X12592026Y-11873549I-15000J0D01*
G01*
X12592026Y-11873549D02*
G75*
G02*
X12622026Y-11873549I15000J0D01*
G01*
X12622026Y-12273549D02*
G75*
G02*
X12592026Y-12273549I-15000J0D01*
G01*
X12592026Y-12273549D02*
G75*
G02*
X12622026Y-12273549I15000J0D01*
G01*
X12692026Y-7033549D02*
G75*
G02*
X12662026Y-7033549I-15000J0D01*
G01*
X12662026Y-7033549D02*
G75*
G02*
X12692026Y-7033549I15000J0D01*
G01*
X12712026Y-9803549D02*
G75*
G02*
X12682026Y-9803549I-15000J0D01*
G01*
X12682026Y-9803549D02*
G75*
G02*
X12712026Y-9803549I15000J0D01*
G01*
X12722026Y-5573549D02*
G75*
G02*
X12692026Y-5573549I-15000J0D01*
G01*
X12692026Y-5573549D02*
G75*
G02*
X12722026Y-5573549I15000J0D01*
G01*
X12722026Y-6773549D02*
G75*
G02*
X12692026Y-6773549I-15000J0D01*
G01*
X12692026Y-6773549D02*
G75*
G02*
X12722026Y-6773549I15000J0D01*
G01*
X12722026Y-7973549D02*
G75*
G02*
X12692026Y-7973549I-15000J0D01*
G01*
X12692026Y-7973549D02*
G75*
G02*
X12722026Y-7973549I15000J0D01*
G01*
X12722026Y-8773549D02*
G75*
G02*
X12692026Y-8773549I-15000J0D01*
G01*
X12692026Y-8773549D02*
G75*
G02*
X12722026Y-8773549I15000J0D01*
G01*
X12722026Y-9173549D02*
G75*
G02*
X12692026Y-9173549I-15000J0D01*
G01*
X12692026Y-9173549D02*
G75*
G02*
X12722026Y-9173549I15000J0D01*
G01*
X12722026Y-9573549D02*
G75*
G02*
X12692026Y-9573549I-15000J0D01*
G01*
X12692026Y-9573549D02*
G75*
G02*
X12722026Y-9573549I15000J0D01*
G01*
X12822026Y-10473549D02*
G75*
G02*
X12792026Y-10473549I-15000J0D01*
G01*
X12792026Y-10473549D02*
G75*
G02*
X12822026Y-10473549I15000J0D01*
G01*
X12822026Y-10873549D02*
G75*
G02*
X12792026Y-10873549I-15000J0D01*
G01*
X12792026Y-10873549D02*
G75*
G02*
X12822026Y-10873549I15000J0D01*
G01*
X12822026Y-11273549D02*
G75*
G02*
X12792026Y-11273549I-15000J0D01*
G01*
X12792026Y-11273549D02*
G75*
G02*
X12822026Y-11273549I15000J0D01*
G01*
X12822026Y-11673549D02*
G75*
G02*
X12792026Y-11673549I-15000J0D01*
G01*
X12792026Y-11673549D02*
G75*
G02*
X12822026Y-11673549I15000J0D01*
G01*
X12822026Y-12073549D02*
G75*
G02*
X12792026Y-12073549I-15000J0D01*
G01*
X12792026Y-12073549D02*
G75*
G02*
X12822026Y-12073549I15000J0D01*
G01*
X12922026Y-5373549D02*
G75*
G02*
X12892026Y-5373549I-15000J0D01*
G01*
X12892026Y-5373549D02*
G75*
G02*
X12922026Y-5373549I15000J0D01*
G01*
X12922026Y-5773549D02*
G75*
G02*
X12892026Y-5773549I-15000J0D01*
G01*
X12892026Y-5773549D02*
G75*
G02*
X12922026Y-5773549I15000J0D01*
G01*
X12922026Y-6173549D02*
G75*
G02*
X12892026Y-6173549I-15000J0D01*
G01*
X12892026Y-6173549D02*
G75*
G02*
X12922026Y-6173549I15000J0D01*
G01*
X12922026Y-6573549D02*
G75*
G02*
X12892026Y-6573549I-15000J0D01*
G01*
X12892026Y-6573549D02*
G75*
G02*
X12922026Y-6573549I15000J0D01*
G01*
X12922026Y-6973549D02*
G75*
G02*
X12892026Y-6973549I-15000J0D01*
G01*
X12892026Y-6973549D02*
G75*
G02*
X12922026Y-6973549I15000J0D01*
G01*
X12922026Y-7373549D02*
G75*
G02*
X12892026Y-7373549I-15000J0D01*
G01*
X12892026Y-7373549D02*
G75*
G02*
X12922026Y-7373549I15000J0D01*
G01*
X12922026Y-7773549D02*
G75*
G02*
X12892026Y-7773549I-15000J0D01*
G01*
X12892026Y-7773549D02*
G75*
G02*
X12922026Y-7773549I15000J0D01*
G01*
X12922026Y-8173549D02*
G75*
G02*
X12892026Y-8173549I-15000J0D01*
G01*
X12892026Y-8173549D02*
G75*
G02*
X12922026Y-8173549I15000J0D01*
G01*
X12922026Y-8573549D02*
G75*
G02*
X12892026Y-8573549I-15000J0D01*
G01*
X12892026Y-8573549D02*
G75*
G02*
X12922026Y-8573549I15000J0D01*
G01*
X12922026Y-8973549D02*
G75*
G02*
X12892026Y-8973549I-15000J0D01*
G01*
X12892026Y-8973549D02*
G75*
G02*
X12922026Y-8973549I15000J0D01*
G01*
X12922026Y-9373549D02*
G75*
G02*
X12892026Y-9373549I-15000J0D01*
G01*
X12892026Y-9373549D02*
G75*
G02*
X12922026Y-9373549I15000J0D01*
G01*
X12922026Y-9773549D02*
G75*
G02*
X12892026Y-9773549I-15000J0D01*
G01*
X12892026Y-9773549D02*
G75*
G02*
X12922026Y-9773549I15000J0D01*
G01*
X13022026Y-10273549D02*
G75*
G02*
X12992026Y-10273549I-15000J0D01*
G01*
X12992026Y-10273549D02*
G75*
G02*
X13022026Y-10273549I15000J0D01*
G01*
X13022026Y-10673549D02*
G75*
G02*
X12992026Y-10673549I-15000J0D01*
G01*
X12992026Y-10673549D02*
G75*
G02*
X13022026Y-10673549I15000J0D01*
G01*
X13022026Y-11073549D02*
G75*
G02*
X12992026Y-11073549I-15000J0D01*
G01*
X12992026Y-11073549D02*
G75*
G02*
X13022026Y-11073549I15000J0D01*
G01*
X13022026Y-11473549D02*
G75*
G02*
X12992026Y-11473549I-15000J0D01*
G01*
X12992026Y-11473549D02*
G75*
G02*
X13022026Y-11473549I15000J0D01*
G01*
X13022026Y-11873549D02*
G75*
G02*
X12992026Y-11873549I-15000J0D01*
G01*
X12992026Y-11873549D02*
G75*
G02*
X13022026Y-11873549I15000J0D01*
G01*
X5339026Y-5662549D02*
X5339026Y-5722549D01*
X5309026Y-5692549D02*
X5369026Y-5692549D01*
X5369026Y-5662549D02*
X5309026Y-5662549D01*
X5309026Y-5722549D02*
G75*
G02*
X5309026Y-5662549I0J30000D01*
G01*
X5309026Y-5722549D02*
X5369026Y-5722549D01*
X5369026Y-5722549D02*
G75*
G03*
X5369026Y-5662549I0J30000D01*
G01*
X5339026Y-6526549D02*
X5339026Y-6586549D01*
X5309026Y-6556549D02*
X5369026Y-6556549D01*
X5369026Y-6526549D02*
X5309026Y-6526549D01*
X5309026Y-6586549D02*
G75*
G02*
X5309026Y-6526549I0J30000D01*
G01*
X5309026Y-6586549D02*
X5369026Y-6586549D01*
X5369026Y-6586549D02*
G75*
G03*
X5369026Y-6526549I0J30000D01*
G01*
X5757026Y-5662549D02*
X5757026Y-5722549D01*
X5727026Y-5692549D02*
X5787026Y-5692549D01*
X5812026Y-5662549D02*
X5702026Y-5662549D01*
X5702026Y-5722549D02*
G75*
G02*
X5702026Y-5662549I0J30000D01*
G01*
X5702026Y-5722549D02*
X5812026Y-5722549D01*
X5812026Y-5722549D02*
G75*
G03*
X5812026Y-5662549I0J30000D01*
G01*
X5757026Y-6526549D02*
X5757026Y-6586549D01*
X5727026Y-6556549D02*
X5787026Y-6556549D01*
X5812026Y-6526549D02*
X5702026Y-6526549D01*
X5702026Y-6586549D02*
G75*
G02*
X5702026Y-6526549I0J30000D01*
G01*
X5702026Y-6586549D02*
X5812026Y-6586549D01*
X5812026Y-6586549D02*
G75*
G03*
X5812026Y-6526549I0J30000D01*
G01*
X6732382Y-5023905D02*
X6732382Y-4953193D01*
X6661670Y-4953193D01*
X6661670Y-5023905D01*
X6732382Y-5023905D01*
X6732382Y-5277905D02*
X6732382Y-5207193D01*
X6661670Y-5207193D01*
X6661670Y-5277905D01*
X6732382Y-5277905D01*
X6986382Y-5023905D02*
X6986382Y-4953193D01*
X6915670Y-4953193D01*
X6915670Y-5023905D01*
X6986382Y-5023905D01*
X6986382Y-5277905D02*
X6986382Y-5207193D01*
X6915670Y-5207193D01*
X6915670Y-5277905D01*
X6986382Y-5277905D01*
X7240382Y-5023905D02*
X7240382Y-4953193D01*
X7169670Y-4953193D01*
X7169670Y-5023905D01*
X7240382Y-5023905D01*
X7240382Y-5277905D02*
X7240382Y-5207193D01*
X7169670Y-5207193D01*
X7169670Y-5277905D01*
X7240382Y-5277905D01*
X7494382Y-5023905D02*
X7494382Y-4953193D01*
X7423670Y-4953193D01*
X7423670Y-5023905D01*
X7494382Y-5023905D01*
X7494382Y-5277905D02*
X7494382Y-5207193D01*
X7423670Y-5207193D01*
X7423670Y-5277905D01*
X7494382Y-5277905D01*
X7748382Y-5023905D02*
X7748382Y-4953193D01*
X7677670Y-4953193D01*
X7677670Y-5023905D01*
X7748382Y-5023905D01*
X7748382Y-5277905D02*
X7748382Y-5207193D01*
X7677670Y-5207193D01*
X7677670Y-5277905D01*
X7748382Y-5277905D01*
X8002382Y-5023905D02*
X8002382Y-4953193D01*
X7931670Y-4953193D01*
X7931670Y-5023905D01*
X8002382Y-5023905D01*
X8002382Y-5277905D02*
X8002382Y-5207193D01*
X7931670Y-5207193D01*
X7931670Y-5277905D01*
X8002382Y-5277905D01*
X8256382Y-5023905D02*
X8256382Y-4953193D01*
X8185670Y-4953193D01*
X8185670Y-5023905D01*
X8256382Y-5023905D01*
X8256382Y-5277905D02*
X8256382Y-5207193D01*
X8185670Y-5207193D01*
X8185670Y-5277905D01*
X8256382Y-5277905D01*
X8510382Y-5023905D02*
X8510382Y-4953193D01*
X8439670Y-4953193D01*
X8439670Y-5023905D01*
X8510382Y-5023905D01*
X8510382Y-5277905D02*
X8510382Y-5207193D01*
X8439670Y-5207193D01*
X8439670Y-5277905D01*
X8510382Y-5277905D01*
X8764382Y-5023905D02*
X8764382Y-4953193D01*
X8693670Y-4953193D01*
X8693670Y-5023905D01*
X8764382Y-5023905D01*
X8764382Y-5277905D02*
X8764382Y-5207193D01*
X8693670Y-5207193D01*
X8693670Y-5277905D01*
X8764382Y-5277905D01*
X8768382Y-11354905D02*
X8768382Y-11284193D01*
X8697670Y-11284193D01*
X8697670Y-11354905D01*
X8768382Y-11354905D01*
X8768382Y-11608905D02*
X8768382Y-11538193D01*
X8697670Y-11538193D01*
X8697670Y-11608905D01*
X8768382Y-11608905D01*
X9018382Y-5023905D02*
X9018382Y-4953193D01*
X8947670Y-4953193D01*
X8947670Y-5023905D01*
X9018382Y-5023905D01*
X9018382Y-5277905D02*
X9018382Y-5207193D01*
X8947670Y-5207193D01*
X8947670Y-5277905D01*
X9018382Y-5277905D01*
X9022382Y-11354905D02*
X9022382Y-11284193D01*
X8951670Y-11284193D01*
X8951670Y-11354905D01*
X9022382Y-11354905D01*
X9022382Y-11608905D02*
X9022382Y-11538193D01*
X8951670Y-11538193D01*
X8951670Y-11608905D01*
X9022382Y-11608905D01*
X9272382Y-5023905D02*
X9272382Y-4953193D01*
X9201670Y-4953193D01*
X9201670Y-5023905D01*
X9272382Y-5023905D01*
X9272382Y-5277905D02*
X9272382Y-5207193D01*
X9201670Y-5207193D01*
X9201670Y-5277905D01*
X9272382Y-5277905D01*
X9276382Y-11354905D02*
X9276382Y-11284193D01*
X9205670Y-11284193D01*
X9205670Y-11354905D01*
X9276382Y-11354905D01*
X9276382Y-11608905D02*
X9276382Y-11538193D01*
X9205670Y-11538193D01*
X9205670Y-11608905D01*
X9276382Y-11608905D01*
X9526382Y-5023905D02*
X9526382Y-4953193D01*
X9455670Y-4953193D01*
X9455670Y-5023905D01*
X9526382Y-5023905D01*
X9526382Y-5277905D02*
X9526382Y-5207193D01*
X9455670Y-5207193D01*
X9455670Y-5277905D01*
X9526382Y-5277905D01*
X9530382Y-11354905D02*
X9530382Y-11284193D01*
X9459670Y-11284193D01*
X9459670Y-11354905D01*
X9530382Y-11354905D01*
X9530382Y-11608905D02*
X9530382Y-11538193D01*
X9459670Y-11538193D01*
X9459670Y-11608905D01*
X9530382Y-11608905D01*
X9780382Y-5023905D02*
X9780382Y-4953193D01*
X9709670Y-4953193D01*
X9709670Y-5023905D01*
X9780382Y-5023905D01*
X9780382Y-5277905D02*
X9780382Y-5207193D01*
X9709670Y-5207193D01*
X9709670Y-5277905D01*
X9780382Y-5277905D01*
X9784382Y-11354905D02*
X9784382Y-11284193D01*
X9713670Y-11284193D01*
X9713670Y-11354905D01*
X9784382Y-11354905D01*
X9784382Y-11608905D02*
X9784382Y-11538193D01*
X9713670Y-11538193D01*
X9713670Y-11608905D01*
X9784382Y-11608905D01*
X10034382Y-5023905D02*
X10034382Y-4953193D01*
X9963670Y-4953193D01*
X9963670Y-5023905D01*
X10034382Y-5023905D01*
X10034382Y-5277905D02*
X10034382Y-5207193D01*
X9963670Y-5207193D01*
X9963670Y-5277905D01*
X10034382Y-5277905D01*
X10038382Y-11354905D02*
X10038382Y-11284193D01*
X9967670Y-11284193D01*
X9967670Y-11354905D01*
X10038382Y-11354905D01*
X10038382Y-11608905D02*
X10038382Y-11538193D01*
X9967670Y-11538193D01*
X9967670Y-11608905D01*
X10038382Y-11608905D01*
X10288382Y-5023905D02*
X10288382Y-4953193D01*
X10217670Y-4953193D01*
X10217670Y-5023905D01*
X10288382Y-5023905D01*
X10288382Y-5277905D02*
X10288382Y-5207193D01*
X10217670Y-5207193D01*
X10217670Y-5277905D01*
X10288382Y-5277905D01*
X10292382Y-11354905D02*
X10292382Y-11284193D01*
X10221670Y-11284193D01*
X10221670Y-11354905D01*
X10292382Y-11354905D01*
X10292382Y-11608905D02*
X10292382Y-11538193D01*
X10221670Y-11538193D01*
X10221670Y-11608905D01*
X10292382Y-11608905D01*
X10542382Y-5023905D02*
X10542382Y-4953193D01*
X10471670Y-4953193D01*
X10471670Y-5023905D01*
X10542382Y-5023905D01*
X10542382Y-5277905D02*
X10542382Y-5207193D01*
X10471670Y-5207193D01*
X10471670Y-5277905D01*
X10542382Y-5277905D01*
X10546382Y-11354905D02*
X10546382Y-11284193D01*
X10475670Y-11284193D01*
X10475670Y-11354905D01*
X10546382Y-11354905D01*
X10546382Y-11608905D02*
X10546382Y-11538193D01*
X10475670Y-11538193D01*
X10475670Y-11608905D01*
X10546382Y-11608905D01*
X10796382Y-5023905D02*
X10796382Y-4953193D01*
X10725670Y-4953193D01*
X10725670Y-5023905D01*
X10796382Y-5023905D01*
X10796382Y-5277905D02*
X10796382Y-5207193D01*
X10725670Y-5207193D01*
X10725670Y-5277905D01*
X10796382Y-5277905D01*
X10800382Y-11354905D02*
X10800382Y-11284193D01*
X10729670Y-11284193D01*
X10729670Y-11354905D01*
X10800382Y-11354905D01*
X10800382Y-11608905D02*
X10800382Y-11538193D01*
X10729670Y-11538193D01*
X10729670Y-11608905D01*
X10800382Y-11608905D01*
X11050382Y-5023905D02*
X11050382Y-4953193D01*
X10979670Y-4953193D01*
X10979670Y-5023905D01*
X11050382Y-5023905D01*
X11050382Y-5277905D02*
X11050382Y-5207193D01*
X10979670Y-5207193D01*
X10979670Y-5277905D01*
X11050382Y-5277905D01*
X11054382Y-11354905D02*
X11054382Y-11284193D01*
X10983670Y-11284193D01*
X10983670Y-11354905D01*
X11054382Y-11354905D01*
X11054382Y-11608905D02*
X11054382Y-11538193D01*
X10983670Y-11538193D01*
X10983670Y-11608905D01*
X11054382Y-11608905D01*
X11304382Y-5023905D02*
X11304382Y-4953193D01*
X11233670Y-4953193D01*
X11233670Y-5023905D01*
X11304382Y-5023905D01*
X11304382Y-5277905D02*
X11304382Y-5207193D01*
X11233670Y-5207193D01*
X11233670Y-5277905D01*
X11304382Y-5277905D01*
X11558382Y-5023905D02*
X11558382Y-4953193D01*
X11487670Y-4953193D01*
X11487670Y-5023905D01*
X11558382Y-5023905D01*
X11558382Y-5277905D02*
X11558382Y-5207193D01*
X11487670Y-5207193D01*
X11487670Y-5277905D01*
X11558382Y-5277905D01*
D11*
X5335777Y-13016484D02*
X5335777Y-12816484D01*
X5335777Y-12816484D02*
X5383396Y-12816484D01*
X5383396Y-12816484D02*
X5411967Y-12826008D01*
X5411967Y-12826008D02*
X5431015Y-12845055D01*
X5431015Y-12845055D02*
X5440539Y-12864103D01*
X5440539Y-12864103D02*
X5450063Y-12902198D01*
X5450063Y-12902198D02*
X5450063Y-12930769D01*
X5450063Y-12930769D02*
X5440539Y-12968865D01*
X5440539Y-12968865D02*
X5431015Y-12987912D01*
X5431015Y-12987912D02*
X5411967Y-13006960D01*
X5411967Y-13006960D02*
X5383396Y-13016484D01*
X5383396Y-13016484D02*
X5335777Y-13016484D01*
X5535777Y-13016484D02*
X5535777Y-12883150D01*
X5535777Y-12921246D02*
X5545301Y-12902198D01*
X5545301Y-12902198D02*
X5554824Y-12892674D01*
X5554824Y-12892674D02*
X5573872Y-12883150D01*
X5573872Y-12883150D02*
X5592920Y-12883150D01*
X5659586Y-13016484D02*
X5659586Y-12883150D01*
X5659586Y-12816484D02*
X5650062Y-12826008D01*
X5650062Y-12826008D02*
X5659586Y-12835531D01*
X5659586Y-12835531D02*
X5669110Y-12826008D01*
X5669110Y-12826008D02*
X5659586Y-12816484D01*
X5659586Y-12816484D02*
X5659586Y-12835531D01*
X5783396Y-13016484D02*
X5764348Y-13006960D01*
X5764348Y-13006960D02*
X5754824Y-12987912D01*
X5754824Y-12987912D02*
X5754824Y-12816484D01*
X5888158Y-13016484D02*
X5869110Y-13006960D01*
X5869110Y-13006960D02*
X5859586Y-12987912D01*
X5859586Y-12987912D02*
X5859586Y-12816484D01*
X6116729Y-13016484D02*
X6116729Y-12816484D01*
X6116729Y-12816484D02*
X6183396Y-12959341D01*
X6183396Y-12959341D02*
X6250062Y-12816484D01*
X6250062Y-12816484D02*
X6250062Y-13016484D01*
X6431015Y-13016484D02*
X6431015Y-12911722D01*
X6431015Y-12911722D02*
X6421491Y-12892674D01*
X6421491Y-12892674D02*
X6402443Y-12883150D01*
X6402443Y-12883150D02*
X6364348Y-12883150D01*
X6364348Y-12883150D02*
X6345301Y-12892674D01*
X6431015Y-13006960D02*
X6411967Y-13016484D01*
X6411967Y-13016484D02*
X6364348Y-13016484D01*
X6364348Y-13016484D02*
X6345301Y-13006960D01*
X6345301Y-13006960D02*
X6335777Y-12987912D01*
X6335777Y-12987912D02*
X6335777Y-12968865D01*
X6335777Y-12968865D02*
X6345301Y-12949817D01*
X6345301Y-12949817D02*
X6364348Y-12940293D01*
X6364348Y-12940293D02*
X6411967Y-12940293D01*
X6411967Y-12940293D02*
X6431015Y-12930769D01*
X6526253Y-12883150D02*
X6526253Y-13083150D01*
X6526253Y-12892674D02*
X6545301Y-12883150D01*
X6545301Y-12883150D02*
X6583396Y-12883150D01*
X6583396Y-12883150D02*
X6602443Y-12892674D01*
X6602443Y-12892674D02*
X6611967Y-12902198D01*
X6611967Y-12902198D02*
X6621491Y-12921246D01*
X6621491Y-12921246D02*
X6621491Y-12978388D01*
X6621491Y-12978388D02*
X6611967Y-12997436D01*
X6611967Y-12997436D02*
X6602443Y-13006960D01*
X6602443Y-13006960D02*
X6583396Y-13016484D01*
X6583396Y-13016484D02*
X6545301Y-13016484D01*
X6545301Y-13016484D02*
X6526253Y-13006960D01*
X6707205Y-12997436D02*
X6716729Y-13006960D01*
X6716729Y-13006960D02*
X6707205Y-13016484D01*
X6707205Y-13016484D02*
X6697682Y-13006960D01*
X6697682Y-13006960D02*
X6707205Y-12997436D01*
X6707205Y-12997436D02*
X6707205Y-13016484D01*
X6707205Y-12892674D02*
X6716729Y-12902198D01*
X6716729Y-12902198D02*
X6707205Y-12911722D01*
X6707205Y-12911722D02*
X6697682Y-12902198D01*
X6697682Y-12902198D02*
X6707205Y-12892674D01*
X6707205Y-12892674D02*
X6707205Y-12911722D01*
D10*
X5055000Y-13335000D02*
X5075000Y-13355000D01*
X5075000Y-13335000D02*
X5055000Y-13355000D01*
D11*
X5373872Y-13236484D02*
X5392920Y-13236484D01*
X5392920Y-13236484D02*
X5411967Y-13246008D01*
X5411967Y-13246008D02*
X5421491Y-13255531D01*
X5421491Y-13255531D02*
X5431015Y-13274579D01*
X5431015Y-13274579D02*
X5440539Y-13312674D01*
X5440539Y-13312674D02*
X5440539Y-13360293D01*
X5440539Y-13360293D02*
X5431015Y-13398388D01*
X5431015Y-13398388D02*
X5421491Y-13417436D01*
X5421491Y-13417436D02*
X5411967Y-13426960D01*
X5411967Y-13426960D02*
X5392920Y-13436484D01*
X5392920Y-13436484D02*
X5373872Y-13436484D01*
X5373872Y-13436484D02*
X5354824Y-13426960D01*
X5354824Y-13426960D02*
X5345301Y-13417436D01*
X5345301Y-13417436D02*
X5335777Y-13398388D01*
X5335777Y-13398388D02*
X5326253Y-13360293D01*
X5326253Y-13360293D02*
X5326253Y-13312674D01*
X5326253Y-13312674D02*
X5335777Y-13274579D01*
X5335777Y-13274579D02*
X5345301Y-13255531D01*
X5345301Y-13255531D02*
X5354824Y-13246008D01*
X5354824Y-13246008D02*
X5373872Y-13236484D01*
X5526253Y-13417436D02*
X5535777Y-13426960D01*
X5535777Y-13426960D02*
X5526253Y-13436484D01*
X5526253Y-13436484D02*
X5516729Y-13426960D01*
X5516729Y-13426960D02*
X5526253Y-13417436D01*
X5526253Y-13417436D02*
X5526253Y-13436484D01*
X5611967Y-13255531D02*
X5621491Y-13246008D01*
X5621491Y-13246008D02*
X5640539Y-13236484D01*
X5640539Y-13236484D02*
X5688158Y-13236484D01*
X5688158Y-13236484D02*
X5707205Y-13246008D01*
X5707205Y-13246008D02*
X5716729Y-13255531D01*
X5716729Y-13255531D02*
X5726253Y-13274579D01*
X5726253Y-13274579D02*
X5726253Y-13293627D01*
X5726253Y-13293627D02*
X5716729Y-13322198D01*
X5716729Y-13322198D02*
X5602443Y-13436484D01*
X5602443Y-13436484D02*
X5726253Y-13436484D01*
X5850062Y-13236484D02*
X5869110Y-13236484D01*
X5869110Y-13236484D02*
X5888158Y-13246008D01*
X5888158Y-13246008D02*
X5897682Y-13255531D01*
X5897682Y-13255531D02*
X5907205Y-13274579D01*
X5907205Y-13274579D02*
X5916729Y-13312674D01*
X5916729Y-13312674D02*
X5916729Y-13360293D01*
X5916729Y-13360293D02*
X5907205Y-13398388D01*
X5907205Y-13398388D02*
X5897682Y-13417436D01*
X5897682Y-13417436D02*
X5888158Y-13426960D01*
X5888158Y-13426960D02*
X5869110Y-13436484D01*
X5869110Y-13436484D02*
X5850062Y-13436484D01*
X5850062Y-13436484D02*
X5831015Y-13426960D01*
X5831015Y-13426960D02*
X5821491Y-13417436D01*
X5821491Y-13417436D02*
X5811967Y-13398388D01*
X5811967Y-13398388D02*
X5802443Y-13360293D01*
X5802443Y-13360293D02*
X5802443Y-13312674D01*
X5802443Y-13312674D02*
X5811967Y-13274579D01*
X5811967Y-13274579D02*
X5821491Y-13255531D01*
X5821491Y-13255531D02*
X5831015Y-13246008D01*
X5831015Y-13246008D02*
X5850062Y-13236484D01*
X6040539Y-13236484D02*
X6059586Y-13236484D01*
X6059586Y-13236484D02*
X6078634Y-13246008D01*
X6078634Y-13246008D02*
X6088158Y-13255531D01*
X6088158Y-13255531D02*
X6097682Y-13274579D01*
X6097682Y-13274579D02*
X6107205Y-13312674D01*
X6107205Y-13312674D02*
X6107205Y-13360293D01*
X6107205Y-13360293D02*
X6097682Y-13398388D01*
X6097682Y-13398388D02*
X6088158Y-13417436D01*
X6088158Y-13417436D02*
X6078634Y-13426960D01*
X6078634Y-13426960D02*
X6059586Y-13436484D01*
X6059586Y-13436484D02*
X6040539Y-13436484D01*
X6040539Y-13436484D02*
X6021491Y-13426960D01*
X6021491Y-13426960D02*
X6011967Y-13417436D01*
X6011967Y-13417436D02*
X6002443Y-13398388D01*
X6002443Y-13398388D02*
X5992920Y-13360293D01*
X5992920Y-13360293D02*
X5992920Y-13312674D01*
X5992920Y-13312674D02*
X6002443Y-13274579D01*
X6002443Y-13274579D02*
X6011967Y-13255531D01*
X6011967Y-13255531D02*
X6021491Y-13246008D01*
X6021491Y-13246008D02*
X6040539Y-13236484D01*
X6192920Y-13436484D02*
X6192920Y-13303150D01*
X6192920Y-13322198D02*
X6202443Y-13312674D01*
X6202443Y-13312674D02*
X6221491Y-13303150D01*
X6221491Y-13303150D02*
X6250063Y-13303150D01*
X6250063Y-13303150D02*
X6269110Y-13312674D01*
X6269110Y-13312674D02*
X6278634Y-13331722D01*
X6278634Y-13331722D02*
X6278634Y-13436484D01*
X6278634Y-13331722D02*
X6288158Y-13312674D01*
X6288158Y-13312674D02*
X6307205Y-13303150D01*
X6307205Y-13303150D02*
X6335777Y-13303150D01*
X6335777Y-13303150D02*
X6354824Y-13312674D01*
X6354824Y-13312674D02*
X6364348Y-13331722D01*
X6364348Y-13331722D02*
X6364348Y-13436484D01*
X6459586Y-13436484D02*
X6459586Y-13303150D01*
X6459586Y-13322198D02*
X6469110Y-13312674D01*
X6469110Y-13312674D02*
X6488158Y-13303150D01*
X6488158Y-13303150D02*
X6516729Y-13303150D01*
X6516729Y-13303150D02*
X6535777Y-13312674D01*
X6535777Y-13312674D02*
X6545301Y-13331722D01*
X6545301Y-13331722D02*
X6545301Y-13436484D01*
X6545301Y-13331722D02*
X6554824Y-13312674D01*
X6554824Y-13312674D02*
X6573872Y-13303150D01*
X6573872Y-13303150D02*
X6602443Y-13303150D01*
X6602443Y-13303150D02*
X6621491Y-13312674D01*
X6621491Y-13312674D02*
X6631015Y-13331722D01*
X6631015Y-13331722D02*
X6631015Y-13436484D01*
X7021491Y-13226960D02*
X6850063Y-13484103D01*
X7278634Y-13236484D02*
X7297682Y-13236484D01*
X7297682Y-13236484D02*
X7316729Y-13246008D01*
X7316729Y-13246008D02*
X7326253Y-13255531D01*
X7326253Y-13255531D02*
X7335777Y-13274579D01*
X7335777Y-13274579D02*
X7345301Y-13312674D01*
X7345301Y-13312674D02*
X7345301Y-13360293D01*
X7345301Y-13360293D02*
X7335777Y-13398388D01*
X7335777Y-13398388D02*
X7326253Y-13417436D01*
X7326253Y-13417436D02*
X7316729Y-13426960D01*
X7316729Y-13426960D02*
X7297682Y-13436484D01*
X7297682Y-13436484D02*
X7278634Y-13436484D01*
X7278634Y-13436484D02*
X7259586Y-13426960D01*
X7259586Y-13426960D02*
X7250063Y-13417436D01*
X7250063Y-13417436D02*
X7240539Y-13398388D01*
X7240539Y-13398388D02*
X7231015Y-13360293D01*
X7231015Y-13360293D02*
X7231015Y-13312674D01*
X7231015Y-13312674D02*
X7240539Y-13274579D01*
X7240539Y-13274579D02*
X7250063Y-13255531D01*
X7250063Y-13255531D02*
X7259586Y-13246008D01*
X7259586Y-13246008D02*
X7278634Y-13236484D01*
X7431015Y-13417436D02*
X7440539Y-13426960D01*
X7440539Y-13426960D02*
X7431015Y-13436484D01*
X7431015Y-13436484D02*
X7421491Y-13426960D01*
X7421491Y-13426960D02*
X7431015Y-13417436D01*
X7431015Y-13417436D02*
X7431015Y-13436484D01*
X7564348Y-13236484D02*
X7583396Y-13236484D01*
X7583396Y-13236484D02*
X7602444Y-13246008D01*
X7602444Y-13246008D02*
X7611967Y-13255531D01*
X7611967Y-13255531D02*
X7621491Y-13274579D01*
X7621491Y-13274579D02*
X7631015Y-13312674D01*
X7631015Y-13312674D02*
X7631015Y-13360293D01*
X7631015Y-13360293D02*
X7621491Y-13398388D01*
X7621491Y-13398388D02*
X7611967Y-13417436D01*
X7611967Y-13417436D02*
X7602444Y-13426960D01*
X7602444Y-13426960D02*
X7583396Y-13436484D01*
X7583396Y-13436484D02*
X7564348Y-13436484D01*
X7564348Y-13436484D02*
X7545301Y-13426960D01*
X7545301Y-13426960D02*
X7535777Y-13417436D01*
X7535777Y-13417436D02*
X7526253Y-13398388D01*
X7526253Y-13398388D02*
X7516729Y-13360293D01*
X7516729Y-13360293D02*
X7516729Y-13312674D01*
X7516729Y-13312674D02*
X7526253Y-13274579D01*
X7526253Y-13274579D02*
X7535777Y-13255531D01*
X7535777Y-13255531D02*
X7545301Y-13246008D01*
X7545301Y-13246008D02*
X7564348Y-13236484D01*
X7754825Y-13236484D02*
X7773872Y-13236484D01*
X7773872Y-13236484D02*
X7792920Y-13246008D01*
X7792920Y-13246008D02*
X7802444Y-13255531D01*
X7802444Y-13255531D02*
X7811967Y-13274579D01*
X7811967Y-13274579D02*
X7821491Y-13312674D01*
X7821491Y-13312674D02*
X7821491Y-13360293D01*
X7821491Y-13360293D02*
X7811967Y-13398388D01*
X7811967Y-13398388D02*
X7802444Y-13417436D01*
X7802444Y-13417436D02*
X7792920Y-13426960D01*
X7792920Y-13426960D02*
X7773872Y-13436484D01*
X7773872Y-13436484D02*
X7754825Y-13436484D01*
X7754825Y-13436484D02*
X7735777Y-13426960D01*
X7735777Y-13426960D02*
X7726253Y-13417436D01*
X7726253Y-13417436D02*
X7716729Y-13398388D01*
X7716729Y-13398388D02*
X7707206Y-13360293D01*
X7707206Y-13360293D02*
X7707206Y-13312674D01*
X7707206Y-13312674D02*
X7716729Y-13274579D01*
X7716729Y-13274579D02*
X7726253Y-13255531D01*
X7726253Y-13255531D02*
X7735777Y-13246008D01*
X7735777Y-13246008D02*
X7754825Y-13236484D01*
X7888158Y-13236484D02*
X8021491Y-13236484D01*
X8021491Y-13236484D02*
X7935777Y-13436484D01*
X8107206Y-13436484D02*
X8145301Y-13436484D01*
X8145301Y-13436484D02*
X8164348Y-13426960D01*
X8164348Y-13426960D02*
X8173872Y-13417436D01*
X8173872Y-13417436D02*
X8192920Y-13388865D01*
X8192920Y-13388865D02*
X8202444Y-13350769D01*
X8202444Y-13350769D02*
X8202444Y-13274579D01*
X8202444Y-13274579D02*
X8192920Y-13255531D01*
X8192920Y-13255531D02*
X8183396Y-13246008D01*
X8183396Y-13246008D02*
X8164348Y-13236484D01*
X8164348Y-13236484D02*
X8126253Y-13236484D01*
X8126253Y-13236484D02*
X8107206Y-13246008D01*
X8107206Y-13246008D02*
X8097682Y-13255531D01*
X8097682Y-13255531D02*
X8088158Y-13274579D01*
X8088158Y-13274579D02*
X8088158Y-13322198D01*
X8088158Y-13322198D02*
X8097682Y-13341246D01*
X8097682Y-13341246D02*
X8107206Y-13350769D01*
X8107206Y-13350769D02*
X8126253Y-13360293D01*
X8126253Y-13360293D02*
X8164348Y-13360293D01*
X8164348Y-13360293D02*
X8183396Y-13350769D01*
X8183396Y-13350769D02*
X8192920Y-13341246D01*
X8192920Y-13341246D02*
X8202444Y-13322198D01*
X8278634Y-13236484D02*
X8278634Y-13274579D01*
X8354825Y-13236484D02*
X8354825Y-13274579D01*
X8650063Y-13512674D02*
X8640539Y-13503150D01*
X8640539Y-13503150D02*
X8621491Y-13474579D01*
X8621491Y-13474579D02*
X8611968Y-13455531D01*
X8611968Y-13455531D02*
X8602444Y-13426960D01*
X8602444Y-13426960D02*
X8592920Y-13379341D01*
X8592920Y-13379341D02*
X8592920Y-13341246D01*
X8592920Y-13341246D02*
X8602444Y-13293627D01*
X8602444Y-13293627D02*
X8611968Y-13265055D01*
X8611968Y-13265055D02*
X8621491Y-13246008D01*
X8621491Y-13246008D02*
X8640539Y-13217436D01*
X8640539Y-13217436D02*
X8650063Y-13207912D01*
X8831015Y-13436484D02*
X8716730Y-13436484D01*
X8773872Y-13436484D02*
X8773872Y-13236484D01*
X8773872Y-13236484D02*
X8754825Y-13265055D01*
X8754825Y-13265055D02*
X8735777Y-13284103D01*
X8735777Y-13284103D02*
X8716730Y-13293627D01*
X8907206Y-13255531D02*
X8916730Y-13246008D01*
X8916730Y-13246008D02*
X8935777Y-13236484D01*
X8935777Y-13236484D02*
X8983396Y-13236484D01*
X8983396Y-13236484D02*
X9002444Y-13246008D01*
X9002444Y-13246008D02*
X9011968Y-13255531D01*
X9011968Y-13255531D02*
X9021491Y-13274579D01*
X9021491Y-13274579D02*
X9021491Y-13293627D01*
X9021491Y-13293627D02*
X9011968Y-13322198D01*
X9011968Y-13322198D02*
X8897682Y-13436484D01*
X8897682Y-13436484D02*
X9021491Y-13436484D01*
X9259587Y-13436484D02*
X9259587Y-13236484D01*
X9345301Y-13436484D02*
X9345301Y-13331722D01*
X9345301Y-13331722D02*
X9335777Y-13312674D01*
X9335777Y-13312674D02*
X9316730Y-13303150D01*
X9316730Y-13303150D02*
X9288158Y-13303150D01*
X9288158Y-13303150D02*
X9269111Y-13312674D01*
X9269111Y-13312674D02*
X9259587Y-13322198D01*
X9469111Y-13436484D02*
X9450063Y-13426960D01*
X9450063Y-13426960D02*
X9440539Y-13417436D01*
X9440539Y-13417436D02*
X9431015Y-13398388D01*
X9431015Y-13398388D02*
X9431015Y-13341246D01*
X9431015Y-13341246D02*
X9440539Y-13322198D01*
X9440539Y-13322198D02*
X9450063Y-13312674D01*
X9450063Y-13312674D02*
X9469111Y-13303150D01*
X9469111Y-13303150D02*
X9497682Y-13303150D01*
X9497682Y-13303150D02*
X9516730Y-13312674D01*
X9516730Y-13312674D02*
X9526253Y-13322198D01*
X9526253Y-13322198D02*
X9535777Y-13341246D01*
X9535777Y-13341246D02*
X9535777Y-13398388D01*
X9535777Y-13398388D02*
X9526253Y-13417436D01*
X9526253Y-13417436D02*
X9516730Y-13426960D01*
X9516730Y-13426960D02*
X9497682Y-13436484D01*
X9497682Y-13436484D02*
X9469111Y-13436484D01*
X9650063Y-13436484D02*
X9631015Y-13426960D01*
X9631015Y-13426960D02*
X9621492Y-13407912D01*
X9621492Y-13407912D02*
X9621492Y-13236484D01*
X9802444Y-13426960D02*
X9783396Y-13436484D01*
X9783396Y-13436484D02*
X9745301Y-13436484D01*
X9745301Y-13436484D02*
X9726253Y-13426960D01*
X9726253Y-13426960D02*
X9716730Y-13407912D01*
X9716730Y-13407912D02*
X9716730Y-13331722D01*
X9716730Y-13331722D02*
X9726253Y-13312674D01*
X9726253Y-13312674D02*
X9745301Y-13303150D01*
X9745301Y-13303150D02*
X9783396Y-13303150D01*
X9783396Y-13303150D02*
X9802444Y-13312674D01*
X9802444Y-13312674D02*
X9811968Y-13331722D01*
X9811968Y-13331722D02*
X9811968Y-13350769D01*
X9811968Y-13350769D02*
X9716730Y-13369817D01*
X9888158Y-13426960D02*
X9907206Y-13436484D01*
X9907206Y-13436484D02*
X9945301Y-13436484D01*
X9945301Y-13436484D02*
X9964349Y-13426960D01*
X9964349Y-13426960D02*
X9973873Y-13407912D01*
X9973873Y-13407912D02*
X9973873Y-13398388D01*
X9973873Y-13398388D02*
X9964349Y-13379341D01*
X9964349Y-13379341D02*
X9945301Y-13369817D01*
X9945301Y-13369817D02*
X9916730Y-13369817D01*
X9916730Y-13369817D02*
X9897682Y-13360293D01*
X9897682Y-13360293D02*
X9888158Y-13341246D01*
X9888158Y-13341246D02*
X9888158Y-13331722D01*
X9888158Y-13331722D02*
X9897682Y-13312674D01*
X9897682Y-13312674D02*
X9916730Y-13303150D01*
X9916730Y-13303150D02*
X9945301Y-13303150D01*
X9945301Y-13303150D02*
X9964349Y-13312674D01*
X10040539Y-13512674D02*
X10050063Y-13503150D01*
X10050063Y-13503150D02*
X10069111Y-13474579D01*
X10069111Y-13474579D02*
X10078634Y-13455531D01*
X10078634Y-13455531D02*
X10088158Y-13426960D01*
X10088158Y-13426960D02*
X10097682Y-13379341D01*
X10097682Y-13379341D02*
X10097682Y-13341246D01*
X10097682Y-13341246D02*
X10088158Y-13293627D01*
X10088158Y-13293627D02*
X10078634Y-13265055D01*
X10078634Y-13265055D02*
X10069111Y-13246008D01*
X10069111Y-13246008D02*
X10050063Y-13217436D01*
X10050063Y-13217436D02*
X10040539Y-13207912D01*
D10*
X5075000Y-13609000D02*
G75*
G02*
X5045000Y-13609000I-15000J0D01*
G01*
X5045000Y-13609000D02*
G75*
G02*
X5075000Y-13609000I15000J0D01*
G01*
D11*
X5373872Y-13500484D02*
X5392920Y-13500484D01*
X5392920Y-13500484D02*
X5411967Y-13510008D01*
X5411967Y-13510008D02*
X5421491Y-13519531D01*
X5421491Y-13519531D02*
X5431015Y-13538579D01*
X5431015Y-13538579D02*
X5440539Y-13576674D01*
X5440539Y-13576674D02*
X5440539Y-13624293D01*
X5440539Y-13624293D02*
X5431015Y-13662388D01*
X5431015Y-13662388D02*
X5421491Y-13681436D01*
X5421491Y-13681436D02*
X5411967Y-13690960D01*
X5411967Y-13690960D02*
X5392920Y-13700484D01*
X5392920Y-13700484D02*
X5373872Y-13700484D01*
X5373872Y-13700484D02*
X5354824Y-13690960D01*
X5354824Y-13690960D02*
X5345301Y-13681436D01*
X5345301Y-13681436D02*
X5335777Y-13662388D01*
X5335777Y-13662388D02*
X5326253Y-13624293D01*
X5326253Y-13624293D02*
X5326253Y-13576674D01*
X5326253Y-13576674D02*
X5335777Y-13538579D01*
X5335777Y-13538579D02*
X5345301Y-13519531D01*
X5345301Y-13519531D02*
X5354824Y-13510008D01*
X5354824Y-13510008D02*
X5373872Y-13500484D01*
X5526253Y-13681436D02*
X5535777Y-13690960D01*
X5535777Y-13690960D02*
X5526253Y-13700484D01*
X5526253Y-13700484D02*
X5516729Y-13690960D01*
X5516729Y-13690960D02*
X5526253Y-13681436D01*
X5526253Y-13681436D02*
X5526253Y-13700484D01*
X5602443Y-13500484D02*
X5726253Y-13500484D01*
X5726253Y-13500484D02*
X5659586Y-13576674D01*
X5659586Y-13576674D02*
X5688158Y-13576674D01*
X5688158Y-13576674D02*
X5707205Y-13586198D01*
X5707205Y-13586198D02*
X5716729Y-13595722D01*
X5716729Y-13595722D02*
X5726253Y-13614769D01*
X5726253Y-13614769D02*
X5726253Y-13662388D01*
X5726253Y-13662388D02*
X5716729Y-13681436D01*
X5716729Y-13681436D02*
X5707205Y-13690960D01*
X5707205Y-13690960D02*
X5688158Y-13700484D01*
X5688158Y-13700484D02*
X5631015Y-13700484D01*
X5631015Y-13700484D02*
X5611967Y-13690960D01*
X5611967Y-13690960D02*
X5602443Y-13681436D01*
X5850062Y-13500484D02*
X5869110Y-13500484D01*
X5869110Y-13500484D02*
X5888158Y-13510008D01*
X5888158Y-13510008D02*
X5897682Y-13519531D01*
X5897682Y-13519531D02*
X5907205Y-13538579D01*
X5907205Y-13538579D02*
X5916729Y-13576674D01*
X5916729Y-13576674D02*
X5916729Y-13624293D01*
X5916729Y-13624293D02*
X5907205Y-13662388D01*
X5907205Y-13662388D02*
X5897682Y-13681436D01*
X5897682Y-13681436D02*
X5888158Y-13690960D01*
X5888158Y-13690960D02*
X5869110Y-13700484D01*
X5869110Y-13700484D02*
X5850062Y-13700484D01*
X5850062Y-13700484D02*
X5831015Y-13690960D01*
X5831015Y-13690960D02*
X5821491Y-13681436D01*
X5821491Y-13681436D02*
X5811967Y-13662388D01*
X5811967Y-13662388D02*
X5802443Y-13624293D01*
X5802443Y-13624293D02*
X5802443Y-13576674D01*
X5802443Y-13576674D02*
X5811967Y-13538579D01*
X5811967Y-13538579D02*
X5821491Y-13519531D01*
X5821491Y-13519531D02*
X5831015Y-13510008D01*
X5831015Y-13510008D02*
X5850062Y-13500484D01*
X6040539Y-13500484D02*
X6059586Y-13500484D01*
X6059586Y-13500484D02*
X6078634Y-13510008D01*
X6078634Y-13510008D02*
X6088158Y-13519531D01*
X6088158Y-13519531D02*
X6097682Y-13538579D01*
X6097682Y-13538579D02*
X6107205Y-13576674D01*
X6107205Y-13576674D02*
X6107205Y-13624293D01*
X6107205Y-13624293D02*
X6097682Y-13662388D01*
X6097682Y-13662388D02*
X6088158Y-13681436D01*
X6088158Y-13681436D02*
X6078634Y-13690960D01*
X6078634Y-13690960D02*
X6059586Y-13700484D01*
X6059586Y-13700484D02*
X6040539Y-13700484D01*
X6040539Y-13700484D02*
X6021491Y-13690960D01*
X6021491Y-13690960D02*
X6011967Y-13681436D01*
X6011967Y-13681436D02*
X6002443Y-13662388D01*
X6002443Y-13662388D02*
X5992920Y-13624293D01*
X5992920Y-13624293D02*
X5992920Y-13576674D01*
X5992920Y-13576674D02*
X6002443Y-13538579D01*
X6002443Y-13538579D02*
X6011967Y-13519531D01*
X6011967Y-13519531D02*
X6021491Y-13510008D01*
X6021491Y-13510008D02*
X6040539Y-13500484D01*
X6192920Y-13700484D02*
X6192920Y-13567150D01*
X6192920Y-13586198D02*
X6202443Y-13576674D01*
X6202443Y-13576674D02*
X6221491Y-13567150D01*
X6221491Y-13567150D02*
X6250063Y-13567150D01*
X6250063Y-13567150D02*
X6269110Y-13576674D01*
X6269110Y-13576674D02*
X6278634Y-13595722D01*
X6278634Y-13595722D02*
X6278634Y-13700484D01*
X6278634Y-13595722D02*
X6288158Y-13576674D01*
X6288158Y-13576674D02*
X6307205Y-13567150D01*
X6307205Y-13567150D02*
X6335777Y-13567150D01*
X6335777Y-13567150D02*
X6354824Y-13576674D01*
X6354824Y-13576674D02*
X6364348Y-13595722D01*
X6364348Y-13595722D02*
X6364348Y-13700484D01*
X6459586Y-13700484D02*
X6459586Y-13567150D01*
X6459586Y-13586198D02*
X6469110Y-13576674D01*
X6469110Y-13576674D02*
X6488158Y-13567150D01*
X6488158Y-13567150D02*
X6516729Y-13567150D01*
X6516729Y-13567150D02*
X6535777Y-13576674D01*
X6535777Y-13576674D02*
X6545301Y-13595722D01*
X6545301Y-13595722D02*
X6545301Y-13700484D01*
X6545301Y-13595722D02*
X6554824Y-13576674D01*
X6554824Y-13576674D02*
X6573872Y-13567150D01*
X6573872Y-13567150D02*
X6602443Y-13567150D01*
X6602443Y-13567150D02*
X6621491Y-13576674D01*
X6621491Y-13576674D02*
X6631015Y-13595722D01*
X6631015Y-13595722D02*
X6631015Y-13700484D01*
X7021491Y-13490960D02*
X6850063Y-13748103D01*
X7278634Y-13500484D02*
X7297682Y-13500484D01*
X7297682Y-13500484D02*
X7316729Y-13510008D01*
X7316729Y-13510008D02*
X7326253Y-13519531D01*
X7326253Y-13519531D02*
X7335777Y-13538579D01*
X7335777Y-13538579D02*
X7345301Y-13576674D01*
X7345301Y-13576674D02*
X7345301Y-13624293D01*
X7345301Y-13624293D02*
X7335777Y-13662388D01*
X7335777Y-13662388D02*
X7326253Y-13681436D01*
X7326253Y-13681436D02*
X7316729Y-13690960D01*
X7316729Y-13690960D02*
X7297682Y-13700484D01*
X7297682Y-13700484D02*
X7278634Y-13700484D01*
X7278634Y-13700484D02*
X7259586Y-13690960D01*
X7259586Y-13690960D02*
X7250063Y-13681436D01*
X7250063Y-13681436D02*
X7240539Y-13662388D01*
X7240539Y-13662388D02*
X7231015Y-13624293D01*
X7231015Y-13624293D02*
X7231015Y-13576674D01*
X7231015Y-13576674D02*
X7240539Y-13538579D01*
X7240539Y-13538579D02*
X7250063Y-13519531D01*
X7250063Y-13519531D02*
X7259586Y-13510008D01*
X7259586Y-13510008D02*
X7278634Y-13500484D01*
X7431015Y-13681436D02*
X7440539Y-13690960D01*
X7440539Y-13690960D02*
X7431015Y-13700484D01*
X7431015Y-13700484D02*
X7421491Y-13690960D01*
X7421491Y-13690960D02*
X7431015Y-13681436D01*
X7431015Y-13681436D02*
X7431015Y-13700484D01*
X7564348Y-13500484D02*
X7583396Y-13500484D01*
X7583396Y-13500484D02*
X7602444Y-13510008D01*
X7602444Y-13510008D02*
X7611967Y-13519531D01*
X7611967Y-13519531D02*
X7621491Y-13538579D01*
X7621491Y-13538579D02*
X7631015Y-13576674D01*
X7631015Y-13576674D02*
X7631015Y-13624293D01*
X7631015Y-13624293D02*
X7621491Y-13662388D01*
X7621491Y-13662388D02*
X7611967Y-13681436D01*
X7611967Y-13681436D02*
X7602444Y-13690960D01*
X7602444Y-13690960D02*
X7583396Y-13700484D01*
X7583396Y-13700484D02*
X7564348Y-13700484D01*
X7564348Y-13700484D02*
X7545301Y-13690960D01*
X7545301Y-13690960D02*
X7535777Y-13681436D01*
X7535777Y-13681436D02*
X7526253Y-13662388D01*
X7526253Y-13662388D02*
X7516729Y-13624293D01*
X7516729Y-13624293D02*
X7516729Y-13576674D01*
X7516729Y-13576674D02*
X7526253Y-13538579D01*
X7526253Y-13538579D02*
X7535777Y-13519531D01*
X7535777Y-13519531D02*
X7545301Y-13510008D01*
X7545301Y-13510008D02*
X7564348Y-13500484D01*
X7821491Y-13700484D02*
X7707206Y-13700484D01*
X7764348Y-13700484D02*
X7764348Y-13500484D01*
X7764348Y-13500484D02*
X7745301Y-13529055D01*
X7745301Y-13529055D02*
X7726253Y-13548103D01*
X7726253Y-13548103D02*
X7707206Y-13557627D01*
X8011967Y-13700484D02*
X7897682Y-13700484D01*
X7954825Y-13700484D02*
X7954825Y-13500484D01*
X7954825Y-13500484D02*
X7935777Y-13529055D01*
X7935777Y-13529055D02*
X7916729Y-13548103D01*
X7916729Y-13548103D02*
X7897682Y-13557627D01*
X8126253Y-13586198D02*
X8107206Y-13576674D01*
X8107206Y-13576674D02*
X8097682Y-13567150D01*
X8097682Y-13567150D02*
X8088158Y-13548103D01*
X8088158Y-13548103D02*
X8088158Y-13538579D01*
X8088158Y-13538579D02*
X8097682Y-13519531D01*
X8097682Y-13519531D02*
X8107206Y-13510008D01*
X8107206Y-13510008D02*
X8126253Y-13500484D01*
X8126253Y-13500484D02*
X8164348Y-13500484D01*
X8164348Y-13500484D02*
X8183396Y-13510008D01*
X8183396Y-13510008D02*
X8192920Y-13519531D01*
X8192920Y-13519531D02*
X8202444Y-13538579D01*
X8202444Y-13538579D02*
X8202444Y-13548103D01*
X8202444Y-13548103D02*
X8192920Y-13567150D01*
X8192920Y-13567150D02*
X8183396Y-13576674D01*
X8183396Y-13576674D02*
X8164348Y-13586198D01*
X8164348Y-13586198D02*
X8126253Y-13586198D01*
X8126253Y-13586198D02*
X8107206Y-13595722D01*
X8107206Y-13595722D02*
X8097682Y-13605246D01*
X8097682Y-13605246D02*
X8088158Y-13624293D01*
X8088158Y-13624293D02*
X8088158Y-13662388D01*
X8088158Y-13662388D02*
X8097682Y-13681436D01*
X8097682Y-13681436D02*
X8107206Y-13690960D01*
X8107206Y-13690960D02*
X8126253Y-13700484D01*
X8126253Y-13700484D02*
X8164348Y-13700484D01*
X8164348Y-13700484D02*
X8183396Y-13690960D01*
X8183396Y-13690960D02*
X8192920Y-13681436D01*
X8192920Y-13681436D02*
X8202444Y-13662388D01*
X8202444Y-13662388D02*
X8202444Y-13624293D01*
X8202444Y-13624293D02*
X8192920Y-13605246D01*
X8192920Y-13605246D02*
X8183396Y-13595722D01*
X8183396Y-13595722D02*
X8164348Y-13586198D01*
X8278634Y-13500484D02*
X8278634Y-13538579D01*
X8354825Y-13500484D02*
X8354825Y-13538579D01*
X8650063Y-13776674D02*
X8640539Y-13767150D01*
X8640539Y-13767150D02*
X8621491Y-13738579D01*
X8621491Y-13738579D02*
X8611968Y-13719531D01*
X8611968Y-13719531D02*
X8602444Y-13690960D01*
X8602444Y-13690960D02*
X8592920Y-13643341D01*
X8592920Y-13643341D02*
X8592920Y-13605246D01*
X8592920Y-13605246D02*
X8602444Y-13557627D01*
X8602444Y-13557627D02*
X8611968Y-13529055D01*
X8611968Y-13529055D02*
X8621491Y-13510008D01*
X8621491Y-13510008D02*
X8640539Y-13481436D01*
X8640539Y-13481436D02*
X8650063Y-13471912D01*
X8811968Y-13567150D02*
X8811968Y-13700484D01*
X8764349Y-13490960D02*
X8716730Y-13633817D01*
X8716730Y-13633817D02*
X8840539Y-13633817D01*
X9002444Y-13500484D02*
X8964349Y-13500484D01*
X8964349Y-13500484D02*
X8945301Y-13510008D01*
X8945301Y-13510008D02*
X8935777Y-13519531D01*
X8935777Y-13519531D02*
X8916730Y-13548103D01*
X8916730Y-13548103D02*
X8907206Y-13586198D01*
X8907206Y-13586198D02*
X8907206Y-13662388D01*
X8907206Y-13662388D02*
X8916730Y-13681436D01*
X8916730Y-13681436D02*
X8926253Y-13690960D01*
X8926253Y-13690960D02*
X8945301Y-13700484D01*
X8945301Y-13700484D02*
X8983396Y-13700484D01*
X8983396Y-13700484D02*
X9002444Y-13690960D01*
X9002444Y-13690960D02*
X9011968Y-13681436D01*
X9011968Y-13681436D02*
X9021491Y-13662388D01*
X9021491Y-13662388D02*
X9021491Y-13614769D01*
X9021491Y-13614769D02*
X9011968Y-13595722D01*
X9011968Y-13595722D02*
X9002444Y-13586198D01*
X9002444Y-13586198D02*
X8983396Y-13576674D01*
X8983396Y-13576674D02*
X8945301Y-13576674D01*
X8945301Y-13576674D02*
X8926253Y-13586198D01*
X8926253Y-13586198D02*
X8916730Y-13595722D01*
X8916730Y-13595722D02*
X8907206Y-13614769D01*
X9192920Y-13567150D02*
X9192920Y-13700484D01*
X9145301Y-13490960D02*
X9097682Y-13633817D01*
X9097682Y-13633817D02*
X9221491Y-13633817D01*
X9450063Y-13700484D02*
X9450063Y-13500484D01*
X9535777Y-13700484D02*
X9535777Y-13595722D01*
X9535777Y-13595722D02*
X9526253Y-13576674D01*
X9526253Y-13576674D02*
X9507206Y-13567150D01*
X9507206Y-13567150D02*
X9478634Y-13567150D01*
X9478634Y-13567150D02*
X9459587Y-13576674D01*
X9459587Y-13576674D02*
X9450063Y-13586198D01*
X9659587Y-13700484D02*
X9640539Y-13690960D01*
X9640539Y-13690960D02*
X9631015Y-13681436D01*
X9631015Y-13681436D02*
X9621492Y-13662388D01*
X9621492Y-13662388D02*
X9621492Y-13605246D01*
X9621492Y-13605246D02*
X9631015Y-13586198D01*
X9631015Y-13586198D02*
X9640539Y-13576674D01*
X9640539Y-13576674D02*
X9659587Y-13567150D01*
X9659587Y-13567150D02*
X9688158Y-13567150D01*
X9688158Y-13567150D02*
X9707206Y-13576674D01*
X9707206Y-13576674D02*
X9716730Y-13586198D01*
X9716730Y-13586198D02*
X9726253Y-13605246D01*
X9726253Y-13605246D02*
X9726253Y-13662388D01*
X9726253Y-13662388D02*
X9716730Y-13681436D01*
X9716730Y-13681436D02*
X9707206Y-13690960D01*
X9707206Y-13690960D02*
X9688158Y-13700484D01*
X9688158Y-13700484D02*
X9659587Y-13700484D01*
X9840539Y-13700484D02*
X9821492Y-13690960D01*
X9821492Y-13690960D02*
X9811968Y-13671912D01*
X9811968Y-13671912D02*
X9811968Y-13500484D01*
X9992920Y-13690960D02*
X9973873Y-13700484D01*
X9973873Y-13700484D02*
X9935777Y-13700484D01*
X9935777Y-13700484D02*
X9916730Y-13690960D01*
X9916730Y-13690960D02*
X9907206Y-13671912D01*
X9907206Y-13671912D02*
X9907206Y-13595722D01*
X9907206Y-13595722D02*
X9916730Y-13576674D01*
X9916730Y-13576674D02*
X9935777Y-13567150D01*
X9935777Y-13567150D02*
X9973873Y-13567150D01*
X9973873Y-13567150D02*
X9992920Y-13576674D01*
X9992920Y-13576674D02*
X10002444Y-13595722D01*
X10002444Y-13595722D02*
X10002444Y-13614769D01*
X10002444Y-13614769D02*
X9907206Y-13633817D01*
X10078634Y-13690960D02*
X10097682Y-13700484D01*
X10097682Y-13700484D02*
X10135777Y-13700484D01*
X10135777Y-13700484D02*
X10154825Y-13690960D01*
X10154825Y-13690960D02*
X10164349Y-13671912D01*
X10164349Y-13671912D02*
X10164349Y-13662388D01*
X10164349Y-13662388D02*
X10154825Y-13643341D01*
X10154825Y-13643341D02*
X10135777Y-13633817D01*
X10135777Y-13633817D02*
X10107206Y-13633817D01*
X10107206Y-13633817D02*
X10088158Y-13624293D01*
X10088158Y-13624293D02*
X10078634Y-13605246D01*
X10078634Y-13605246D02*
X10078634Y-13595722D01*
X10078634Y-13595722D02*
X10088158Y-13576674D01*
X10088158Y-13576674D02*
X10107206Y-13567150D01*
X10107206Y-13567150D02*
X10135777Y-13567150D01*
X10135777Y-13567150D02*
X10154825Y-13576674D01*
X10231015Y-13776674D02*
X10240539Y-13767150D01*
X10240539Y-13767150D02*
X10259587Y-13738579D01*
X10259587Y-13738579D02*
X10269111Y-13719531D01*
X10269111Y-13719531D02*
X10278634Y-13690960D01*
X10278634Y-13690960D02*
X10288158Y-13643341D01*
X10288158Y-13643341D02*
X10288158Y-13605246D01*
X10288158Y-13605246D02*
X10278634Y-13557627D01*
X10278634Y-13557627D02*
X10269111Y-13529055D01*
X10269111Y-13529055D02*
X10259587Y-13510008D01*
X10259587Y-13510008D02*
X10240539Y-13481436D01*
X10240539Y-13481436D02*
X10231015Y-13471912D01*
D10*
X5045000Y-13843000D02*
X5045000Y-13903000D01*
X5015000Y-13873000D02*
X5075000Y-13873000D01*
D11*
X5373872Y-13764484D02*
X5392920Y-13764484D01*
X5392920Y-13764484D02*
X5411967Y-13774008D01*
X5411967Y-13774008D02*
X5421491Y-13783531D01*
X5421491Y-13783531D02*
X5431015Y-13802579D01*
X5431015Y-13802579D02*
X5440539Y-13840674D01*
X5440539Y-13840674D02*
X5440539Y-13888293D01*
X5440539Y-13888293D02*
X5431015Y-13926388D01*
X5431015Y-13926388D02*
X5421491Y-13945436D01*
X5421491Y-13945436D02*
X5411967Y-13954960D01*
X5411967Y-13954960D02*
X5392920Y-13964484D01*
X5392920Y-13964484D02*
X5373872Y-13964484D01*
X5373872Y-13964484D02*
X5354824Y-13954960D01*
X5354824Y-13954960D02*
X5345301Y-13945436D01*
X5345301Y-13945436D02*
X5335777Y-13926388D01*
X5335777Y-13926388D02*
X5326253Y-13888293D01*
X5326253Y-13888293D02*
X5326253Y-13840674D01*
X5326253Y-13840674D02*
X5335777Y-13802579D01*
X5335777Y-13802579D02*
X5345301Y-13783531D01*
X5345301Y-13783531D02*
X5354824Y-13774008D01*
X5354824Y-13774008D02*
X5373872Y-13764484D01*
X5526253Y-13945436D02*
X5535777Y-13954960D01*
X5535777Y-13954960D02*
X5526253Y-13964484D01*
X5526253Y-13964484D02*
X5516729Y-13954960D01*
X5516729Y-13954960D02*
X5526253Y-13945436D01*
X5526253Y-13945436D02*
X5526253Y-13964484D01*
X5707205Y-13764484D02*
X5669110Y-13764484D01*
X5669110Y-13764484D02*
X5650062Y-13774008D01*
X5650062Y-13774008D02*
X5640539Y-13783531D01*
X5640539Y-13783531D02*
X5621491Y-13812103D01*
X5621491Y-13812103D02*
X5611967Y-13850198D01*
X5611967Y-13850198D02*
X5611967Y-13926388D01*
X5611967Y-13926388D02*
X5621491Y-13945436D01*
X5621491Y-13945436D02*
X5631015Y-13954960D01*
X5631015Y-13954960D02*
X5650062Y-13964484D01*
X5650062Y-13964484D02*
X5688158Y-13964484D01*
X5688158Y-13964484D02*
X5707205Y-13954960D01*
X5707205Y-13954960D02*
X5716729Y-13945436D01*
X5716729Y-13945436D02*
X5726253Y-13926388D01*
X5726253Y-13926388D02*
X5726253Y-13878769D01*
X5726253Y-13878769D02*
X5716729Y-13859722D01*
X5716729Y-13859722D02*
X5707205Y-13850198D01*
X5707205Y-13850198D02*
X5688158Y-13840674D01*
X5688158Y-13840674D02*
X5650062Y-13840674D01*
X5650062Y-13840674D02*
X5631015Y-13850198D01*
X5631015Y-13850198D02*
X5621491Y-13859722D01*
X5621491Y-13859722D02*
X5611967Y-13878769D01*
X5850062Y-13764484D02*
X5869110Y-13764484D01*
X5869110Y-13764484D02*
X5888158Y-13774008D01*
X5888158Y-13774008D02*
X5897682Y-13783531D01*
X5897682Y-13783531D02*
X5907205Y-13802579D01*
X5907205Y-13802579D02*
X5916729Y-13840674D01*
X5916729Y-13840674D02*
X5916729Y-13888293D01*
X5916729Y-13888293D02*
X5907205Y-13926388D01*
X5907205Y-13926388D02*
X5897682Y-13945436D01*
X5897682Y-13945436D02*
X5888158Y-13954960D01*
X5888158Y-13954960D02*
X5869110Y-13964484D01*
X5869110Y-13964484D02*
X5850062Y-13964484D01*
X5850062Y-13964484D02*
X5831015Y-13954960D01*
X5831015Y-13954960D02*
X5821491Y-13945436D01*
X5821491Y-13945436D02*
X5811967Y-13926388D01*
X5811967Y-13926388D02*
X5802443Y-13888293D01*
X5802443Y-13888293D02*
X5802443Y-13840674D01*
X5802443Y-13840674D02*
X5811967Y-13802579D01*
X5811967Y-13802579D02*
X5821491Y-13783531D01*
X5821491Y-13783531D02*
X5831015Y-13774008D01*
X5831015Y-13774008D02*
X5850062Y-13764484D01*
X6040539Y-13764484D02*
X6059586Y-13764484D01*
X6059586Y-13764484D02*
X6078634Y-13774008D01*
X6078634Y-13774008D02*
X6088158Y-13783531D01*
X6088158Y-13783531D02*
X6097682Y-13802579D01*
X6097682Y-13802579D02*
X6107205Y-13840674D01*
X6107205Y-13840674D02*
X6107205Y-13888293D01*
X6107205Y-13888293D02*
X6097682Y-13926388D01*
X6097682Y-13926388D02*
X6088158Y-13945436D01*
X6088158Y-13945436D02*
X6078634Y-13954960D01*
X6078634Y-13954960D02*
X6059586Y-13964484D01*
X6059586Y-13964484D02*
X6040539Y-13964484D01*
X6040539Y-13964484D02*
X6021491Y-13954960D01*
X6021491Y-13954960D02*
X6011967Y-13945436D01*
X6011967Y-13945436D02*
X6002443Y-13926388D01*
X6002443Y-13926388D02*
X5992920Y-13888293D01*
X5992920Y-13888293D02*
X5992920Y-13840674D01*
X5992920Y-13840674D02*
X6002443Y-13802579D01*
X6002443Y-13802579D02*
X6011967Y-13783531D01*
X6011967Y-13783531D02*
X6021491Y-13774008D01*
X6021491Y-13774008D02*
X6040539Y-13764484D01*
X6192920Y-13964484D02*
X6192920Y-13831150D01*
X6192920Y-13850198D02*
X6202443Y-13840674D01*
X6202443Y-13840674D02*
X6221491Y-13831150D01*
X6221491Y-13831150D02*
X6250063Y-13831150D01*
X6250063Y-13831150D02*
X6269110Y-13840674D01*
X6269110Y-13840674D02*
X6278634Y-13859722D01*
X6278634Y-13859722D02*
X6278634Y-13964484D01*
X6278634Y-13859722D02*
X6288158Y-13840674D01*
X6288158Y-13840674D02*
X6307205Y-13831150D01*
X6307205Y-13831150D02*
X6335777Y-13831150D01*
X6335777Y-13831150D02*
X6354824Y-13840674D01*
X6354824Y-13840674D02*
X6364348Y-13859722D01*
X6364348Y-13859722D02*
X6364348Y-13964484D01*
X6459586Y-13964484D02*
X6459586Y-13831150D01*
X6459586Y-13850198D02*
X6469110Y-13840674D01*
X6469110Y-13840674D02*
X6488158Y-13831150D01*
X6488158Y-13831150D02*
X6516729Y-13831150D01*
X6516729Y-13831150D02*
X6535777Y-13840674D01*
X6535777Y-13840674D02*
X6545301Y-13859722D01*
X6545301Y-13859722D02*
X6545301Y-13964484D01*
X6545301Y-13859722D02*
X6554824Y-13840674D01*
X6554824Y-13840674D02*
X6573872Y-13831150D01*
X6573872Y-13831150D02*
X6602443Y-13831150D01*
X6602443Y-13831150D02*
X6621491Y-13840674D01*
X6621491Y-13840674D02*
X6631015Y-13859722D01*
X6631015Y-13859722D02*
X6631015Y-13964484D01*
X7021491Y-13754960D02*
X6850063Y-14012103D01*
X7278634Y-13764484D02*
X7297682Y-13764484D01*
X7297682Y-13764484D02*
X7316729Y-13774008D01*
X7316729Y-13774008D02*
X7326253Y-13783531D01*
X7326253Y-13783531D02*
X7335777Y-13802579D01*
X7335777Y-13802579D02*
X7345301Y-13840674D01*
X7345301Y-13840674D02*
X7345301Y-13888293D01*
X7345301Y-13888293D02*
X7335777Y-13926388D01*
X7335777Y-13926388D02*
X7326253Y-13945436D01*
X7326253Y-13945436D02*
X7316729Y-13954960D01*
X7316729Y-13954960D02*
X7297682Y-13964484D01*
X7297682Y-13964484D02*
X7278634Y-13964484D01*
X7278634Y-13964484D02*
X7259586Y-13954960D01*
X7259586Y-13954960D02*
X7250063Y-13945436D01*
X7250063Y-13945436D02*
X7240539Y-13926388D01*
X7240539Y-13926388D02*
X7231015Y-13888293D01*
X7231015Y-13888293D02*
X7231015Y-13840674D01*
X7231015Y-13840674D02*
X7240539Y-13802579D01*
X7240539Y-13802579D02*
X7250063Y-13783531D01*
X7250063Y-13783531D02*
X7259586Y-13774008D01*
X7259586Y-13774008D02*
X7278634Y-13764484D01*
X7431015Y-13945436D02*
X7440539Y-13954960D01*
X7440539Y-13954960D02*
X7431015Y-13964484D01*
X7431015Y-13964484D02*
X7421491Y-13954960D01*
X7421491Y-13954960D02*
X7431015Y-13945436D01*
X7431015Y-13945436D02*
X7431015Y-13964484D01*
X7564348Y-13764484D02*
X7583396Y-13764484D01*
X7583396Y-13764484D02*
X7602444Y-13774008D01*
X7602444Y-13774008D02*
X7611967Y-13783531D01*
X7611967Y-13783531D02*
X7621491Y-13802579D01*
X7621491Y-13802579D02*
X7631015Y-13840674D01*
X7631015Y-13840674D02*
X7631015Y-13888293D01*
X7631015Y-13888293D02*
X7621491Y-13926388D01*
X7621491Y-13926388D02*
X7611967Y-13945436D01*
X7611967Y-13945436D02*
X7602444Y-13954960D01*
X7602444Y-13954960D02*
X7583396Y-13964484D01*
X7583396Y-13964484D02*
X7564348Y-13964484D01*
X7564348Y-13964484D02*
X7545301Y-13954960D01*
X7545301Y-13954960D02*
X7535777Y-13945436D01*
X7535777Y-13945436D02*
X7526253Y-13926388D01*
X7526253Y-13926388D02*
X7516729Y-13888293D01*
X7516729Y-13888293D02*
X7516729Y-13840674D01*
X7516729Y-13840674D02*
X7526253Y-13802579D01*
X7526253Y-13802579D02*
X7535777Y-13783531D01*
X7535777Y-13783531D02*
X7545301Y-13774008D01*
X7545301Y-13774008D02*
X7564348Y-13764484D01*
X7707206Y-13783531D02*
X7716729Y-13774008D01*
X7716729Y-13774008D02*
X7735777Y-13764484D01*
X7735777Y-13764484D02*
X7783396Y-13764484D01*
X7783396Y-13764484D02*
X7802444Y-13774008D01*
X7802444Y-13774008D02*
X7811967Y-13783531D01*
X7811967Y-13783531D02*
X7821491Y-13802579D01*
X7821491Y-13802579D02*
X7821491Y-13821627D01*
X7821491Y-13821627D02*
X7811967Y-13850198D01*
X7811967Y-13850198D02*
X7697682Y-13964484D01*
X7697682Y-13964484D02*
X7821491Y-13964484D01*
X7888158Y-13764484D02*
X8011967Y-13764484D01*
X8011967Y-13764484D02*
X7945301Y-13840674D01*
X7945301Y-13840674D02*
X7973872Y-13840674D01*
X7973872Y-13840674D02*
X7992920Y-13850198D01*
X7992920Y-13850198D02*
X8002444Y-13859722D01*
X8002444Y-13859722D02*
X8011967Y-13878769D01*
X8011967Y-13878769D02*
X8011967Y-13926388D01*
X8011967Y-13926388D02*
X8002444Y-13945436D01*
X8002444Y-13945436D02*
X7992920Y-13954960D01*
X7992920Y-13954960D02*
X7973872Y-13964484D01*
X7973872Y-13964484D02*
X7916729Y-13964484D01*
X7916729Y-13964484D02*
X7897682Y-13954960D01*
X7897682Y-13954960D02*
X7888158Y-13945436D01*
X8183396Y-13764484D02*
X8145301Y-13764484D01*
X8145301Y-13764484D02*
X8126253Y-13774008D01*
X8126253Y-13774008D02*
X8116729Y-13783531D01*
X8116729Y-13783531D02*
X8097682Y-13812103D01*
X8097682Y-13812103D02*
X8088158Y-13850198D01*
X8088158Y-13850198D02*
X8088158Y-13926388D01*
X8088158Y-13926388D02*
X8097682Y-13945436D01*
X8097682Y-13945436D02*
X8107206Y-13954960D01*
X8107206Y-13954960D02*
X8126253Y-13964484D01*
X8126253Y-13964484D02*
X8164348Y-13964484D01*
X8164348Y-13964484D02*
X8183396Y-13954960D01*
X8183396Y-13954960D02*
X8192920Y-13945436D01*
X8192920Y-13945436D02*
X8202444Y-13926388D01*
X8202444Y-13926388D02*
X8202444Y-13878769D01*
X8202444Y-13878769D02*
X8192920Y-13859722D01*
X8192920Y-13859722D02*
X8183396Y-13850198D01*
X8183396Y-13850198D02*
X8164348Y-13840674D01*
X8164348Y-13840674D02*
X8126253Y-13840674D01*
X8126253Y-13840674D02*
X8107206Y-13850198D01*
X8107206Y-13850198D02*
X8097682Y-13859722D01*
X8097682Y-13859722D02*
X8088158Y-13878769D01*
X8278634Y-13764484D02*
X8278634Y-13802579D01*
X8354825Y-13764484D02*
X8354825Y-13802579D01*
X8650063Y-14040674D02*
X8640539Y-14031150D01*
X8640539Y-14031150D02*
X8621491Y-14002579D01*
X8621491Y-14002579D02*
X8611968Y-13983531D01*
X8611968Y-13983531D02*
X8602444Y-13954960D01*
X8602444Y-13954960D02*
X8592920Y-13907341D01*
X8592920Y-13907341D02*
X8592920Y-13869246D01*
X8592920Y-13869246D02*
X8602444Y-13821627D01*
X8602444Y-13821627D02*
X8611968Y-13793055D01*
X8611968Y-13793055D02*
X8621491Y-13774008D01*
X8621491Y-13774008D02*
X8640539Y-13745436D01*
X8640539Y-13745436D02*
X8650063Y-13735912D01*
X8764349Y-13764484D02*
X8783396Y-13764484D01*
X8783396Y-13764484D02*
X8802444Y-13774008D01*
X8802444Y-13774008D02*
X8811968Y-13783531D01*
X8811968Y-13783531D02*
X8821491Y-13802579D01*
X8821491Y-13802579D02*
X8831015Y-13840674D01*
X8831015Y-13840674D02*
X8831015Y-13888293D01*
X8831015Y-13888293D02*
X8821491Y-13926388D01*
X8821491Y-13926388D02*
X8811968Y-13945436D01*
X8811968Y-13945436D02*
X8802444Y-13954960D01*
X8802444Y-13954960D02*
X8783396Y-13964484D01*
X8783396Y-13964484D02*
X8764349Y-13964484D01*
X8764349Y-13964484D02*
X8745301Y-13954960D01*
X8745301Y-13954960D02*
X8735777Y-13945436D01*
X8735777Y-13945436D02*
X8726253Y-13926388D01*
X8726253Y-13926388D02*
X8716730Y-13888293D01*
X8716730Y-13888293D02*
X8716730Y-13840674D01*
X8716730Y-13840674D02*
X8726253Y-13802579D01*
X8726253Y-13802579D02*
X8735777Y-13783531D01*
X8735777Y-13783531D02*
X8745301Y-13774008D01*
X8745301Y-13774008D02*
X8764349Y-13764484D01*
X9069111Y-13964484D02*
X9069111Y-13764484D01*
X9154825Y-13964484D02*
X9154825Y-13859722D01*
X9154825Y-13859722D02*
X9145301Y-13840674D01*
X9145301Y-13840674D02*
X9126253Y-13831150D01*
X9126253Y-13831150D02*
X9097682Y-13831150D01*
X9097682Y-13831150D02*
X9078634Y-13840674D01*
X9078634Y-13840674D02*
X9069111Y-13850198D01*
X9278634Y-13964484D02*
X9259587Y-13954960D01*
X9259587Y-13954960D02*
X9250063Y-13945436D01*
X9250063Y-13945436D02*
X9240539Y-13926388D01*
X9240539Y-13926388D02*
X9240539Y-13869246D01*
X9240539Y-13869246D02*
X9250063Y-13850198D01*
X9250063Y-13850198D02*
X9259587Y-13840674D01*
X9259587Y-13840674D02*
X9278634Y-13831150D01*
X9278634Y-13831150D02*
X9307206Y-13831150D01*
X9307206Y-13831150D02*
X9326253Y-13840674D01*
X9326253Y-13840674D02*
X9335777Y-13850198D01*
X9335777Y-13850198D02*
X9345301Y-13869246D01*
X9345301Y-13869246D02*
X9345301Y-13926388D01*
X9345301Y-13926388D02*
X9335777Y-13945436D01*
X9335777Y-13945436D02*
X9326253Y-13954960D01*
X9326253Y-13954960D02*
X9307206Y-13964484D01*
X9307206Y-13964484D02*
X9278634Y-13964484D01*
X9459587Y-13964484D02*
X9440539Y-13954960D01*
X9440539Y-13954960D02*
X9431015Y-13935912D01*
X9431015Y-13935912D02*
X9431015Y-13764484D01*
X9611968Y-13954960D02*
X9592920Y-13964484D01*
X9592920Y-13964484D02*
X9554825Y-13964484D01*
X9554825Y-13964484D02*
X9535777Y-13954960D01*
X9535777Y-13954960D02*
X9526253Y-13935912D01*
X9526253Y-13935912D02*
X9526253Y-13859722D01*
X9526253Y-13859722D02*
X9535777Y-13840674D01*
X9535777Y-13840674D02*
X9554825Y-13831150D01*
X9554825Y-13831150D02*
X9592920Y-13831150D01*
X9592920Y-13831150D02*
X9611968Y-13840674D01*
X9611968Y-13840674D02*
X9621492Y-13859722D01*
X9621492Y-13859722D02*
X9621492Y-13878769D01*
X9621492Y-13878769D02*
X9526253Y-13897817D01*
X9697682Y-13954960D02*
X9716730Y-13964484D01*
X9716730Y-13964484D02*
X9754825Y-13964484D01*
X9754825Y-13964484D02*
X9773873Y-13954960D01*
X9773873Y-13954960D02*
X9783396Y-13935912D01*
X9783396Y-13935912D02*
X9783396Y-13926388D01*
X9783396Y-13926388D02*
X9773873Y-13907341D01*
X9773873Y-13907341D02*
X9754825Y-13897817D01*
X9754825Y-13897817D02*
X9726253Y-13897817D01*
X9726253Y-13897817D02*
X9707206Y-13888293D01*
X9707206Y-13888293D02*
X9697682Y-13869246D01*
X9697682Y-13869246D02*
X9697682Y-13859722D01*
X9697682Y-13859722D02*
X9707206Y-13840674D01*
X9707206Y-13840674D02*
X9726253Y-13831150D01*
X9726253Y-13831150D02*
X9754825Y-13831150D01*
X9754825Y-13831150D02*
X9773873Y-13840674D01*
X10021492Y-13888293D02*
X10173873Y-13888293D01*
X10097682Y-13964484D02*
X10097682Y-13812103D01*
X10507206Y-13831150D02*
X10507206Y-13964484D01*
X10459587Y-13754960D02*
X10411968Y-13897817D01*
X10411968Y-13897817D02*
X10535777Y-13897817D01*
X10754825Y-13954960D02*
X10773873Y-13964484D01*
X10773873Y-13964484D02*
X10811968Y-13964484D01*
X10811968Y-13964484D02*
X10831016Y-13954960D01*
X10831016Y-13954960D02*
X10840539Y-13935912D01*
X10840539Y-13935912D02*
X10840539Y-13926388D01*
X10840539Y-13926388D02*
X10831016Y-13907341D01*
X10831016Y-13907341D02*
X10811968Y-13897817D01*
X10811968Y-13897817D02*
X10783396Y-13897817D01*
X10783396Y-13897817D02*
X10764349Y-13888293D01*
X10764349Y-13888293D02*
X10754825Y-13869246D01*
X10754825Y-13869246D02*
X10754825Y-13859722D01*
X10754825Y-13859722D02*
X10764349Y-13840674D01*
X10764349Y-13840674D02*
X10783396Y-13831150D01*
X10783396Y-13831150D02*
X10811968Y-13831150D01*
X10811968Y-13831150D02*
X10831016Y-13840674D01*
X10954825Y-13964484D02*
X10935777Y-13954960D01*
X10935777Y-13954960D02*
X10926254Y-13935912D01*
X10926254Y-13935912D02*
X10926254Y-13764484D01*
X11059587Y-13964484D02*
X11040539Y-13954960D01*
X11040539Y-13954960D02*
X11031016Y-13945436D01*
X11031016Y-13945436D02*
X11021492Y-13926388D01*
X11021492Y-13926388D02*
X11021492Y-13869246D01*
X11021492Y-13869246D02*
X11031016Y-13850198D01*
X11031016Y-13850198D02*
X11040539Y-13840674D01*
X11040539Y-13840674D02*
X11059587Y-13831150D01*
X11059587Y-13831150D02*
X11088158Y-13831150D01*
X11088158Y-13831150D02*
X11107206Y-13840674D01*
X11107206Y-13840674D02*
X11116730Y-13850198D01*
X11116730Y-13850198D02*
X11126254Y-13869246D01*
X11126254Y-13869246D02*
X11126254Y-13926388D01*
X11126254Y-13926388D02*
X11116730Y-13945436D01*
X11116730Y-13945436D02*
X11107206Y-13954960D01*
X11107206Y-13954960D02*
X11088158Y-13964484D01*
X11088158Y-13964484D02*
X11059587Y-13964484D01*
X11183397Y-13831150D02*
X11259587Y-13831150D01*
X11211968Y-13764484D02*
X11211968Y-13935912D01*
X11211968Y-13935912D02*
X11221492Y-13954960D01*
X11221492Y-13954960D02*
X11240539Y-13964484D01*
X11240539Y-13964484D02*
X11259587Y-13964484D01*
X11316730Y-13954960D02*
X11335777Y-13964484D01*
X11335777Y-13964484D02*
X11373873Y-13964484D01*
X11373873Y-13964484D02*
X11392920Y-13954960D01*
X11392920Y-13954960D02*
X11402444Y-13935912D01*
X11402444Y-13935912D02*
X11402444Y-13926388D01*
X11402444Y-13926388D02*
X11392920Y-13907341D01*
X11392920Y-13907341D02*
X11373873Y-13897817D01*
X11373873Y-13897817D02*
X11345301Y-13897817D01*
X11345301Y-13897817D02*
X11326254Y-13888293D01*
X11326254Y-13888293D02*
X11316730Y-13869246D01*
X11316730Y-13869246D02*
X11316730Y-13859722D01*
X11316730Y-13859722D02*
X11326254Y-13840674D01*
X11326254Y-13840674D02*
X11345301Y-13831150D01*
X11345301Y-13831150D02*
X11373873Y-13831150D01*
X11373873Y-13831150D02*
X11392920Y-13840674D01*
X11469111Y-14040674D02*
X11478635Y-14031150D01*
X11478635Y-14031150D02*
X11497682Y-14002579D01*
X11497682Y-14002579D02*
X11507206Y-13983531D01*
X11507206Y-13983531D02*
X11516730Y-13954960D01*
X11516730Y-13954960D02*
X11526254Y-13907341D01*
X11526254Y-13907341D02*
X11526254Y-13869246D01*
X11526254Y-13869246D02*
X11516730Y-13821627D01*
X11516730Y-13821627D02*
X11507206Y-13793055D01*
X11507206Y-13793055D02*
X11497682Y-13774008D01*
X11497682Y-13774008D02*
X11478635Y-13745436D01*
X11478635Y-13745436D02*
X11469111Y-13735912D01*
D10*
X5060356Y-14172356D02*
X5060356Y-14101644D01*
X4989644Y-14101644D01*
X4989644Y-14172356D01*
X5060356Y-14172356D01*
D11*
X5440539Y-14228484D02*
X5326253Y-14228484D01*
X5383396Y-14228484D02*
X5383396Y-14028484D01*
X5383396Y-14028484D02*
X5364348Y-14057055D01*
X5364348Y-14057055D02*
X5345301Y-14076103D01*
X5345301Y-14076103D02*
X5326253Y-14085627D01*
X5526253Y-14209436D02*
X5535777Y-14218960D01*
X5535777Y-14218960D02*
X5526253Y-14228484D01*
X5526253Y-14228484D02*
X5516729Y-14218960D01*
X5516729Y-14218960D02*
X5526253Y-14209436D01*
X5526253Y-14209436D02*
X5526253Y-14228484D01*
X5659586Y-14028484D02*
X5678634Y-14028484D01*
X5678634Y-14028484D02*
X5697682Y-14038008D01*
X5697682Y-14038008D02*
X5707205Y-14047531D01*
X5707205Y-14047531D02*
X5716729Y-14066579D01*
X5716729Y-14066579D02*
X5726253Y-14104674D01*
X5726253Y-14104674D02*
X5726253Y-14152293D01*
X5726253Y-14152293D02*
X5716729Y-14190388D01*
X5716729Y-14190388D02*
X5707205Y-14209436D01*
X5707205Y-14209436D02*
X5697682Y-14218960D01*
X5697682Y-14218960D02*
X5678634Y-14228484D01*
X5678634Y-14228484D02*
X5659586Y-14228484D01*
X5659586Y-14228484D02*
X5640539Y-14218960D01*
X5640539Y-14218960D02*
X5631015Y-14209436D01*
X5631015Y-14209436D02*
X5621491Y-14190388D01*
X5621491Y-14190388D02*
X5611967Y-14152293D01*
X5611967Y-14152293D02*
X5611967Y-14104674D01*
X5611967Y-14104674D02*
X5621491Y-14066579D01*
X5621491Y-14066579D02*
X5631015Y-14047531D01*
X5631015Y-14047531D02*
X5640539Y-14038008D01*
X5640539Y-14038008D02*
X5659586Y-14028484D01*
X5850062Y-14028484D02*
X5869110Y-14028484D01*
X5869110Y-14028484D02*
X5888158Y-14038008D01*
X5888158Y-14038008D02*
X5897682Y-14047531D01*
X5897682Y-14047531D02*
X5907205Y-14066579D01*
X5907205Y-14066579D02*
X5916729Y-14104674D01*
X5916729Y-14104674D02*
X5916729Y-14152293D01*
X5916729Y-14152293D02*
X5907205Y-14190388D01*
X5907205Y-14190388D02*
X5897682Y-14209436D01*
X5897682Y-14209436D02*
X5888158Y-14218960D01*
X5888158Y-14218960D02*
X5869110Y-14228484D01*
X5869110Y-14228484D02*
X5850062Y-14228484D01*
X5850062Y-14228484D02*
X5831015Y-14218960D01*
X5831015Y-14218960D02*
X5821491Y-14209436D01*
X5821491Y-14209436D02*
X5811967Y-14190388D01*
X5811967Y-14190388D02*
X5802443Y-14152293D01*
X5802443Y-14152293D02*
X5802443Y-14104674D01*
X5802443Y-14104674D02*
X5811967Y-14066579D01*
X5811967Y-14066579D02*
X5821491Y-14047531D01*
X5821491Y-14047531D02*
X5831015Y-14038008D01*
X5831015Y-14038008D02*
X5850062Y-14028484D01*
X6040539Y-14028484D02*
X6059586Y-14028484D01*
X6059586Y-14028484D02*
X6078634Y-14038008D01*
X6078634Y-14038008D02*
X6088158Y-14047531D01*
X6088158Y-14047531D02*
X6097682Y-14066579D01*
X6097682Y-14066579D02*
X6107205Y-14104674D01*
X6107205Y-14104674D02*
X6107205Y-14152293D01*
X6107205Y-14152293D02*
X6097682Y-14190388D01*
X6097682Y-14190388D02*
X6088158Y-14209436D01*
X6088158Y-14209436D02*
X6078634Y-14218960D01*
X6078634Y-14218960D02*
X6059586Y-14228484D01*
X6059586Y-14228484D02*
X6040539Y-14228484D01*
X6040539Y-14228484D02*
X6021491Y-14218960D01*
X6021491Y-14218960D02*
X6011967Y-14209436D01*
X6011967Y-14209436D02*
X6002443Y-14190388D01*
X6002443Y-14190388D02*
X5992920Y-14152293D01*
X5992920Y-14152293D02*
X5992920Y-14104674D01*
X5992920Y-14104674D02*
X6002443Y-14066579D01*
X6002443Y-14066579D02*
X6011967Y-14047531D01*
X6011967Y-14047531D02*
X6021491Y-14038008D01*
X6021491Y-14038008D02*
X6040539Y-14028484D01*
X6192920Y-14228484D02*
X6192920Y-14095150D01*
X6192920Y-14114198D02*
X6202443Y-14104674D01*
X6202443Y-14104674D02*
X6221491Y-14095150D01*
X6221491Y-14095150D02*
X6250063Y-14095150D01*
X6250063Y-14095150D02*
X6269110Y-14104674D01*
X6269110Y-14104674D02*
X6278634Y-14123722D01*
X6278634Y-14123722D02*
X6278634Y-14228484D01*
X6278634Y-14123722D02*
X6288158Y-14104674D01*
X6288158Y-14104674D02*
X6307205Y-14095150D01*
X6307205Y-14095150D02*
X6335777Y-14095150D01*
X6335777Y-14095150D02*
X6354824Y-14104674D01*
X6354824Y-14104674D02*
X6364348Y-14123722D01*
X6364348Y-14123722D02*
X6364348Y-14228484D01*
X6459586Y-14228484D02*
X6459586Y-14095150D01*
X6459586Y-14114198D02*
X6469110Y-14104674D01*
X6469110Y-14104674D02*
X6488158Y-14095150D01*
X6488158Y-14095150D02*
X6516729Y-14095150D01*
X6516729Y-14095150D02*
X6535777Y-14104674D01*
X6535777Y-14104674D02*
X6545301Y-14123722D01*
X6545301Y-14123722D02*
X6545301Y-14228484D01*
X6545301Y-14123722D02*
X6554824Y-14104674D01*
X6554824Y-14104674D02*
X6573872Y-14095150D01*
X6573872Y-14095150D02*
X6602443Y-14095150D01*
X6602443Y-14095150D02*
X6621491Y-14104674D01*
X6621491Y-14104674D02*
X6631015Y-14123722D01*
X6631015Y-14123722D02*
X6631015Y-14228484D01*
X7021491Y-14018960D02*
X6850063Y-14276103D01*
X7278634Y-14028484D02*
X7297682Y-14028484D01*
X7297682Y-14028484D02*
X7316729Y-14038008D01*
X7316729Y-14038008D02*
X7326253Y-14047531D01*
X7326253Y-14047531D02*
X7335777Y-14066579D01*
X7335777Y-14066579D02*
X7345301Y-14104674D01*
X7345301Y-14104674D02*
X7345301Y-14152293D01*
X7345301Y-14152293D02*
X7335777Y-14190388D01*
X7335777Y-14190388D02*
X7326253Y-14209436D01*
X7326253Y-14209436D02*
X7316729Y-14218960D01*
X7316729Y-14218960D02*
X7297682Y-14228484D01*
X7297682Y-14228484D02*
X7278634Y-14228484D01*
X7278634Y-14228484D02*
X7259586Y-14218960D01*
X7259586Y-14218960D02*
X7250063Y-14209436D01*
X7250063Y-14209436D02*
X7240539Y-14190388D01*
X7240539Y-14190388D02*
X7231015Y-14152293D01*
X7231015Y-14152293D02*
X7231015Y-14104674D01*
X7231015Y-14104674D02*
X7240539Y-14066579D01*
X7240539Y-14066579D02*
X7250063Y-14047531D01*
X7250063Y-14047531D02*
X7259586Y-14038008D01*
X7259586Y-14038008D02*
X7278634Y-14028484D01*
X7431015Y-14209436D02*
X7440539Y-14218960D01*
X7440539Y-14218960D02*
X7431015Y-14228484D01*
X7431015Y-14228484D02*
X7421491Y-14218960D01*
X7421491Y-14218960D02*
X7431015Y-14209436D01*
X7431015Y-14209436D02*
X7431015Y-14228484D01*
X7564348Y-14028484D02*
X7583396Y-14028484D01*
X7583396Y-14028484D02*
X7602444Y-14038008D01*
X7602444Y-14038008D02*
X7611967Y-14047531D01*
X7611967Y-14047531D02*
X7621491Y-14066579D01*
X7621491Y-14066579D02*
X7631015Y-14104674D01*
X7631015Y-14104674D02*
X7631015Y-14152293D01*
X7631015Y-14152293D02*
X7621491Y-14190388D01*
X7621491Y-14190388D02*
X7611967Y-14209436D01*
X7611967Y-14209436D02*
X7602444Y-14218960D01*
X7602444Y-14218960D02*
X7583396Y-14228484D01*
X7583396Y-14228484D02*
X7564348Y-14228484D01*
X7564348Y-14228484D02*
X7545301Y-14218960D01*
X7545301Y-14218960D02*
X7535777Y-14209436D01*
X7535777Y-14209436D02*
X7526253Y-14190388D01*
X7526253Y-14190388D02*
X7516729Y-14152293D01*
X7516729Y-14152293D02*
X7516729Y-14104674D01*
X7516729Y-14104674D02*
X7526253Y-14066579D01*
X7526253Y-14066579D02*
X7535777Y-14047531D01*
X7535777Y-14047531D02*
X7545301Y-14038008D01*
X7545301Y-14038008D02*
X7564348Y-14028484D01*
X7697682Y-14028484D02*
X7821491Y-14028484D01*
X7821491Y-14028484D02*
X7754825Y-14104674D01*
X7754825Y-14104674D02*
X7783396Y-14104674D01*
X7783396Y-14104674D02*
X7802444Y-14114198D01*
X7802444Y-14114198D02*
X7811967Y-14123722D01*
X7811967Y-14123722D02*
X7821491Y-14142769D01*
X7821491Y-14142769D02*
X7821491Y-14190388D01*
X7821491Y-14190388D02*
X7811967Y-14209436D01*
X7811967Y-14209436D02*
X7802444Y-14218960D01*
X7802444Y-14218960D02*
X7783396Y-14228484D01*
X7783396Y-14228484D02*
X7726253Y-14228484D01*
X7726253Y-14228484D02*
X7707206Y-14218960D01*
X7707206Y-14218960D02*
X7697682Y-14209436D01*
X7916729Y-14228484D02*
X7954825Y-14228484D01*
X7954825Y-14228484D02*
X7973872Y-14218960D01*
X7973872Y-14218960D02*
X7983396Y-14209436D01*
X7983396Y-14209436D02*
X8002444Y-14180865D01*
X8002444Y-14180865D02*
X8011967Y-14142769D01*
X8011967Y-14142769D02*
X8011967Y-14066579D01*
X8011967Y-14066579D02*
X8002444Y-14047531D01*
X8002444Y-14047531D02*
X7992920Y-14038008D01*
X7992920Y-14038008D02*
X7973872Y-14028484D01*
X7973872Y-14028484D02*
X7935777Y-14028484D01*
X7935777Y-14028484D02*
X7916729Y-14038008D01*
X7916729Y-14038008D02*
X7907206Y-14047531D01*
X7907206Y-14047531D02*
X7897682Y-14066579D01*
X7897682Y-14066579D02*
X7897682Y-14114198D01*
X7897682Y-14114198D02*
X7907206Y-14133246D01*
X7907206Y-14133246D02*
X7916729Y-14142769D01*
X7916729Y-14142769D02*
X7935777Y-14152293D01*
X7935777Y-14152293D02*
X7973872Y-14152293D01*
X7973872Y-14152293D02*
X7992920Y-14142769D01*
X7992920Y-14142769D02*
X8002444Y-14133246D01*
X8002444Y-14133246D02*
X8011967Y-14114198D01*
X8183396Y-14095150D02*
X8183396Y-14228484D01*
X8135777Y-14018960D02*
X8088158Y-14161817D01*
X8088158Y-14161817D02*
X8211967Y-14161817D01*
X8278634Y-14028484D02*
X8278634Y-14066579D01*
X8354825Y-14028484D02*
X8354825Y-14066579D01*
X8650063Y-14304674D02*
X8640539Y-14295150D01*
X8640539Y-14295150D02*
X8621491Y-14266579D01*
X8621491Y-14266579D02*
X8611968Y-14247531D01*
X8611968Y-14247531D02*
X8602444Y-14218960D01*
X8602444Y-14218960D02*
X8592920Y-14171341D01*
X8592920Y-14171341D02*
X8592920Y-14133246D01*
X8592920Y-14133246D02*
X8602444Y-14085627D01*
X8602444Y-14085627D02*
X8611968Y-14057055D01*
X8611968Y-14057055D02*
X8621491Y-14038008D01*
X8621491Y-14038008D02*
X8640539Y-14009436D01*
X8640539Y-14009436D02*
X8650063Y-13999912D01*
X8811968Y-14028484D02*
X8773872Y-14028484D01*
X8773872Y-14028484D02*
X8754825Y-14038008D01*
X8754825Y-14038008D02*
X8745301Y-14047531D01*
X8745301Y-14047531D02*
X8726253Y-14076103D01*
X8726253Y-14076103D02*
X8716730Y-14114198D01*
X8716730Y-14114198D02*
X8716730Y-14190388D01*
X8716730Y-14190388D02*
X8726253Y-14209436D01*
X8726253Y-14209436D02*
X8735777Y-14218960D01*
X8735777Y-14218960D02*
X8754825Y-14228484D01*
X8754825Y-14228484D02*
X8792920Y-14228484D01*
X8792920Y-14228484D02*
X8811968Y-14218960D01*
X8811968Y-14218960D02*
X8821491Y-14209436D01*
X8821491Y-14209436D02*
X8831015Y-14190388D01*
X8831015Y-14190388D02*
X8831015Y-14142769D01*
X8831015Y-14142769D02*
X8821491Y-14123722D01*
X8821491Y-14123722D02*
X8811968Y-14114198D01*
X8811968Y-14114198D02*
X8792920Y-14104674D01*
X8792920Y-14104674D02*
X8754825Y-14104674D01*
X8754825Y-14104674D02*
X8735777Y-14114198D01*
X8735777Y-14114198D02*
X8726253Y-14123722D01*
X8726253Y-14123722D02*
X8716730Y-14142769D01*
X8954825Y-14028484D02*
X8973872Y-14028484D01*
X8973872Y-14028484D02*
X8992920Y-14038008D01*
X8992920Y-14038008D02*
X9002444Y-14047531D01*
X9002444Y-14047531D02*
X9011968Y-14066579D01*
X9011968Y-14066579D02*
X9021491Y-14104674D01*
X9021491Y-14104674D02*
X9021491Y-14152293D01*
X9021491Y-14152293D02*
X9011968Y-14190388D01*
X9011968Y-14190388D02*
X9002444Y-14209436D01*
X9002444Y-14209436D02*
X8992920Y-14218960D01*
X8992920Y-14218960D02*
X8973872Y-14228484D01*
X8973872Y-14228484D02*
X8954825Y-14228484D01*
X8954825Y-14228484D02*
X8935777Y-14218960D01*
X8935777Y-14218960D02*
X8926253Y-14209436D01*
X8926253Y-14209436D02*
X8916730Y-14190388D01*
X8916730Y-14190388D02*
X8907206Y-14152293D01*
X8907206Y-14152293D02*
X8907206Y-14104674D01*
X8907206Y-14104674D02*
X8916730Y-14066579D01*
X8916730Y-14066579D02*
X8926253Y-14047531D01*
X8926253Y-14047531D02*
X8935777Y-14038008D01*
X8935777Y-14038008D02*
X8954825Y-14028484D01*
X9259587Y-14228484D02*
X9259587Y-14028484D01*
X9345301Y-14228484D02*
X9345301Y-14123722D01*
X9345301Y-14123722D02*
X9335777Y-14104674D01*
X9335777Y-14104674D02*
X9316730Y-14095150D01*
X9316730Y-14095150D02*
X9288158Y-14095150D01*
X9288158Y-14095150D02*
X9269111Y-14104674D01*
X9269111Y-14104674D02*
X9259587Y-14114198D01*
X9469111Y-14228484D02*
X9450063Y-14218960D01*
X9450063Y-14218960D02*
X9440539Y-14209436D01*
X9440539Y-14209436D02*
X9431015Y-14190388D01*
X9431015Y-14190388D02*
X9431015Y-14133246D01*
X9431015Y-14133246D02*
X9440539Y-14114198D01*
X9440539Y-14114198D02*
X9450063Y-14104674D01*
X9450063Y-14104674D02*
X9469111Y-14095150D01*
X9469111Y-14095150D02*
X9497682Y-14095150D01*
X9497682Y-14095150D02*
X9516730Y-14104674D01*
X9516730Y-14104674D02*
X9526253Y-14114198D01*
X9526253Y-14114198D02*
X9535777Y-14133246D01*
X9535777Y-14133246D02*
X9535777Y-14190388D01*
X9535777Y-14190388D02*
X9526253Y-14209436D01*
X9526253Y-14209436D02*
X9516730Y-14218960D01*
X9516730Y-14218960D02*
X9497682Y-14228484D01*
X9497682Y-14228484D02*
X9469111Y-14228484D01*
X9650063Y-14228484D02*
X9631015Y-14218960D01*
X9631015Y-14218960D02*
X9621492Y-14199912D01*
X9621492Y-14199912D02*
X9621492Y-14028484D01*
X9802444Y-14218960D02*
X9783396Y-14228484D01*
X9783396Y-14228484D02*
X9745301Y-14228484D01*
X9745301Y-14228484D02*
X9726253Y-14218960D01*
X9726253Y-14218960D02*
X9716730Y-14199912D01*
X9716730Y-14199912D02*
X9716730Y-14123722D01*
X9716730Y-14123722D02*
X9726253Y-14104674D01*
X9726253Y-14104674D02*
X9745301Y-14095150D01*
X9745301Y-14095150D02*
X9783396Y-14095150D01*
X9783396Y-14095150D02*
X9802444Y-14104674D01*
X9802444Y-14104674D02*
X9811968Y-14123722D01*
X9811968Y-14123722D02*
X9811968Y-14142769D01*
X9811968Y-14142769D02*
X9716730Y-14161817D01*
X9888158Y-14218960D02*
X9907206Y-14228484D01*
X9907206Y-14228484D02*
X9945301Y-14228484D01*
X9945301Y-14228484D02*
X9964349Y-14218960D01*
X9964349Y-14218960D02*
X9973873Y-14199912D01*
X9973873Y-14199912D02*
X9973873Y-14190388D01*
X9973873Y-14190388D02*
X9964349Y-14171341D01*
X9964349Y-14171341D02*
X9945301Y-14161817D01*
X9945301Y-14161817D02*
X9916730Y-14161817D01*
X9916730Y-14161817D02*
X9897682Y-14152293D01*
X9897682Y-14152293D02*
X9888158Y-14133246D01*
X9888158Y-14133246D02*
X9888158Y-14123722D01*
X9888158Y-14123722D02*
X9897682Y-14104674D01*
X9897682Y-14104674D02*
X9916730Y-14095150D01*
X9916730Y-14095150D02*
X9945301Y-14095150D01*
X9945301Y-14095150D02*
X9964349Y-14104674D01*
X10040539Y-14304674D02*
X10050063Y-14295150D01*
X10050063Y-14295150D02*
X10069111Y-14266579D01*
X10069111Y-14266579D02*
X10078634Y-14247531D01*
X10078634Y-14247531D02*
X10088158Y-14218960D01*
X10088158Y-14218960D02*
X10097682Y-14171341D01*
X10097682Y-14171341D02*
X10097682Y-14133246D01*
X10097682Y-14133246D02*
X10088158Y-14085627D01*
X10088158Y-14085627D02*
X10078634Y-14057055D01*
X10078634Y-14057055D02*
X10069111Y-14038008D01*
X10069111Y-14038008D02*
X10050063Y-14009436D01*
X10050063Y-14009436D02*
X10040539Y-13999912D01*
M02*
