%TF.GenerationSoftware,KiCad,Pcbnew,8.0.6*%
%TF.CreationDate,2024-11-27T19:30:55+03:00*%
%TF.ProjectId,OBCv1,4f424376-312e-46b6-9963-61645f706362,rev?*%
%TF.SameCoordinates,Original*%
%TF.FileFunction,Soldermask,Bot*%
%TF.FilePolarity,Negative*%
%FSLAX46Y46*%
G04 Gerber Fmt 4.6, Leading zero omitted, Abs format (unit mm)*
G04 Created by KiCad (PCBNEW 8.0.6) date 2024-11-27 19:30:55*
%MOMM*%
%LPD*%
G01*
G04 APERTURE LIST*
G04 Aperture macros list*
%AMRoundRect*
0 Rectangle with rounded corners*
0 $1 Rounding radius*
0 $2 $3 $4 $5 $6 $7 $8 $9 X,Y pos of 4 corners*
0 Add a 4 corners polygon primitive as box body*
4,1,4,$2,$3,$4,$5,$6,$7,$8,$9,$2,$3,0*
0 Add four circle primitives for the rounded corners*
1,1,$1+$1,$2,$3*
1,1,$1+$1,$4,$5*
1,1,$1+$1,$6,$7*
1,1,$1+$1,$8,$9*
0 Add four rect primitives between the rounded corners*
20,1,$1+$1,$2,$3,$4,$5,0*
20,1,$1+$1,$4,$5,$6,$7,0*
20,1,$1+$1,$6,$7,$8,$9,0*
20,1,$1+$1,$8,$9,$2,$3,0*%
G04 Aperture macros list end*
%ADD10C,0.752000*%
%ADD11O,2.202000X1.102000*%
%ADD12O,1.702000X1.102000*%
%ADD13R,1.700000X1.700000*%
%ADD14O,1.700000X1.700000*%
%ADD15C,3.200000*%
%ADD16C,0.999997*%
%ADD17RoundRect,0.250000X-0.600000X0.600000X-0.600000X-0.600000X0.600000X-0.600000X0.600000X0.600000X0*%
%ADD18C,1.700000*%
G04 APERTURE END LIST*
D10*
%TO.C,J2*%
X57070259Y-58355491D03*
X57070259Y-64135491D03*
D11*
X57570259Y-56925491D03*
D12*
X53390259Y-56925491D03*
D11*
X57570259Y-65565491D03*
D12*
X53390259Y-65565491D03*
%TD*%
D13*
%TO.C,J1*%
X66970259Y-49885491D03*
D14*
X66970259Y-52425491D03*
X69510259Y-49885491D03*
X69510259Y-52425491D03*
X72050259Y-49885491D03*
X72050259Y-52425491D03*
X74590259Y-49885491D03*
X74590259Y-52425491D03*
X77130259Y-49885491D03*
X77130259Y-52425491D03*
X79670259Y-49885491D03*
X79670259Y-52425491D03*
X82210259Y-49885491D03*
X82210259Y-52425491D03*
X84750259Y-49885491D03*
X84750259Y-52425491D03*
X87290259Y-49885491D03*
X87290259Y-52425491D03*
X89830259Y-49885491D03*
X89830259Y-52425491D03*
X92370259Y-49885491D03*
X92370259Y-52425491D03*
X94910259Y-49885491D03*
X94910259Y-52425491D03*
X97450259Y-49885491D03*
X97450259Y-52425491D03*
X99990259Y-49885491D03*
X99990259Y-52425491D03*
X102530259Y-49885491D03*
X102530259Y-52425491D03*
X105070259Y-49885491D03*
X105070259Y-52425491D03*
X107610259Y-49885491D03*
X107610259Y-52425491D03*
X110150259Y-49885491D03*
X110150259Y-52425491D03*
X112690259Y-49885491D03*
X112690259Y-52425491D03*
X115230259Y-49885491D03*
X115230259Y-52425491D03*
%TD*%
D15*
%TO.C,H4*%
X128089824Y-49732000D03*
%TD*%
D16*
%TO.C,MICRO_SD1*%
X127325859Y-72639291D03*
X127325859Y-64663691D03*
%TD*%
D17*
%TO.C,J3*%
X110190259Y-113195491D03*
D18*
X110190259Y-115735491D03*
X107650259Y-113195491D03*
X107650259Y-115735491D03*
X105110259Y-113195491D03*
X105110259Y-115735491D03*
X102570259Y-113195491D03*
X102570259Y-115735491D03*
X100030259Y-113195491D03*
X100030259Y-115735491D03*
X97490259Y-113195491D03*
X97490259Y-115735491D03*
X94950259Y-113195491D03*
X94950259Y-115735491D03*
X92410259Y-113195491D03*
X92410259Y-115735491D03*
X89870259Y-113195491D03*
X89870259Y-115735491D03*
X87330259Y-113195491D03*
X87330259Y-115735491D03*
%TD*%
D15*
%TO.C,H1*%
X54050000Y-123750000D03*
%TD*%
%TO.C,H2*%
X128089824Y-123749705D03*
%TD*%
%TO.C,H3*%
X54051388Y-49710258D03*
%TD*%
M02*
