%TF.GenerationSoftware,KiCad,Pcbnew,8.0.6*%
%TF.CreationDate,2024-11-27T19:30:55+03:00*%
%TF.ProjectId,OBCv1,4f424376-312e-46b6-9963-61645f706362,rev?*%
%TF.SameCoordinates,Original*%
%TF.FileFunction,Copper,L2,Inr*%
%TF.FilePolarity,Positive*%
%FSLAX46Y46*%
G04 Gerber Fmt 4.6, Leading zero omitted, Abs format (unit mm)*
G04 Created by KiCad (PCBNEW 8.0.6) date 2024-11-27 19:30:55*
%MOMM*%
%LPD*%
G01*
G04 APERTURE LIST*
G04 Aperture macros list*
%AMRoundRect*
0 Rectangle with rounded corners*
0 $1 Rounding radius*
0 $2 $3 $4 $5 $6 $7 $8 $9 X,Y pos of 4 corners*
0 Add a 4 corners polygon primitive as box body*
4,1,4,$2,$3,$4,$5,$6,$7,$8,$9,$2,$3,0*
0 Add four circle primitives for the rounded corners*
1,1,$1+$1,$2,$3*
1,1,$1+$1,$4,$5*
1,1,$1+$1,$6,$7*
1,1,$1+$1,$8,$9*
0 Add four rect primitives between the rounded corners*
20,1,$1+$1,$2,$3,$4,$5,0*
20,1,$1+$1,$4,$5,$6,$7,0*
20,1,$1+$1,$6,$7,$8,$9,0*
20,1,$1+$1,$8,$9,$2,$3,0*%
G04 Aperture macros list end*
%TA.AperFunction,ComponentPad*%
%ADD10O,2.100000X1.000000*%
%TD*%
%TA.AperFunction,ComponentPad*%
%ADD11O,1.600000X1.000000*%
%TD*%
%TA.AperFunction,ComponentPad*%
%ADD12R,1.700000X1.700000*%
%TD*%
%TA.AperFunction,ComponentPad*%
%ADD13O,1.700000X1.700000*%
%TD*%
%TA.AperFunction,ComponentPad*%
%ADD14RoundRect,0.250000X-0.600000X0.600000X-0.600000X-0.600000X0.600000X-0.600000X0.600000X0.600000X0*%
%TD*%
%TA.AperFunction,ComponentPad*%
%ADD15C,1.700000*%
%TD*%
%TA.AperFunction,HeatsinkPad*%
%ADD16C,0.600000*%
%TD*%
%TA.AperFunction,ViaPad*%
%ADD17C,0.600000*%
%TD*%
%TA.AperFunction,ViaPad*%
%ADD18C,0.500000*%
%TD*%
G04 APERTURE END LIST*
D10*
%TO.N,GND*%
%TO.C,J2*%
X57570259Y-56925491D03*
D11*
X53390259Y-56925491D03*
D10*
X57570259Y-65565491D03*
D11*
X53390259Y-65565491D03*
%TD*%
D12*
%TO.N,+5V*%
%TO.C,J1*%
X66970259Y-49885491D03*
D13*
%TO.N,+3.3V*%
X66970259Y-52425491D03*
%TO.N,/MOSI*%
X69510259Y-49885491D03*
%TO.N,/EN*%
X69510259Y-52425491D03*
%TO.N,/SCL*%
X72050259Y-49885491D03*
%TO.N,/ANA1*%
X72050259Y-52425491D03*
%TO.N,unconnected-(J1-Pin_7-Pad7)*%
X74590259Y-49885491D03*
%TO.N,/ANA3*%
X74590259Y-52425491D03*
%TO.N,unconnected-(J1-Pin_9-Pad9)*%
X77130259Y-49885491D03*
%TO.N,/UV*%
X77130259Y-52425491D03*
%TO.N,/SDA*%
X79670259Y-49885491D03*
%TO.N,unconnected-(J1-Pin_12-Pad12)*%
X79670259Y-52425491D03*
%TO.N,GND*%
X82210259Y-49885491D03*
%TO.N,unconnected-(J1-Pin_14-Pad14)*%
X82210259Y-52425491D03*
%TO.N,/MISO*%
X84750259Y-49885491D03*
%TO.N,unconnected-(J1-Pin_16-Pad16)*%
X84750259Y-52425491D03*
%TO.N,/SCK*%
X87290259Y-49885491D03*
%TO.N,unconnected-(J1-Pin_18-Pad18)*%
X87290259Y-52425491D03*
%TO.N,unconnected-(J1-Pin_19-Pad19)*%
X89830259Y-49885491D03*
%TO.N,/ANA2*%
X89830259Y-52425491D03*
%TO.N,/TXD*%
X92370259Y-49885491D03*
%TO.N,unconnected-(J1-Pin_22-Pad22)*%
X92370259Y-52425491D03*
%TO.N,/RXD*%
X94910259Y-49885491D03*
%TO.N,unconnected-(J1-Pin_24-Pad24)*%
X94910259Y-52425491D03*
%TO.N,/DHT*%
X97450259Y-49885491D03*
%TO.N,unconnected-(J1-Pin_26-Pad26)*%
X97450259Y-52425491D03*
%TO.N,unconnected-(J1-Pin_27-Pad27)*%
X99990259Y-49885491D03*
%TO.N,GND*%
X99990259Y-52425491D03*
%TO.N,unconnected-(J1-Pin_29-Pad29)*%
X102530259Y-49885491D03*
%TO.N,unconnected-(J1-Pin_30-Pad30)*%
X102530259Y-52425491D03*
%TO.N,unconnected-(J1-Pin_31-Pad31)*%
X105070259Y-49885491D03*
%TO.N,unconnected-(J1-Pin_32-Pad32)*%
X105070259Y-52425491D03*
%TO.N,unconnected-(J1-Pin_33-Pad33)*%
X107610259Y-49885491D03*
%TO.N,unconnected-(J1-Pin_34-Pad34)*%
X107610259Y-52425491D03*
%TO.N,unconnected-(J1-Pin_35-Pad35)*%
X110150259Y-49885491D03*
%TO.N,unconnected-(J1-Pin_36-Pad36)*%
X110150259Y-52425491D03*
%TO.N,unconnected-(J1-Pin_37-Pad37)*%
X112690259Y-49885491D03*
%TO.N,+5V*%
X112690259Y-52425491D03*
%TO.N,+BATT*%
X115230259Y-49885491D03*
X115230259Y-52425491D03*
%TD*%
D14*
%TO.N,+3.3V*%
%TO.C,J3*%
X110190259Y-113195491D03*
D15*
%TO.N,GND*%
X110190259Y-115735491D03*
%TO.N,/SCL*%
X107650259Y-113195491D03*
%TO.N,/SDA*%
X107650259Y-115735491D03*
%TO.N,/VSYNC*%
X105110259Y-113195491D03*
%TO.N,/SCK*%
X105110259Y-115735491D03*
%TO.N,/PCLK*%
X102570259Y-113195491D03*
%TO.N,/XCLK*%
X102570259Y-115735491D03*
%TO.N,/D7*%
X100030259Y-113195491D03*
%TO.N,/MOSI*%
X100030259Y-115735491D03*
%TO.N,/D5*%
X97490259Y-113195491D03*
%TO.N,/MISO*%
X97490259Y-115735491D03*
%TO.N,/D3*%
X94950259Y-113195491D03*
%TO.N,/D2*%
X94950259Y-115735491D03*
%TO.N,/D1*%
X92410259Y-113195491D03*
%TO.N,/D0*%
X92410259Y-115735491D03*
%TO.N,unconnected-(J3-RESET-Pad17)*%
X89870259Y-113195491D03*
%TO.N,unconnected-(J3-PWDN-Pad18)*%
X89870259Y-115735491D03*
%TO.N,unconnected-(J3-NC-Pad19)*%
X87330259Y-113195491D03*
%TO.N,unconnected-(J3-NC-Pad20)*%
X87330259Y-115735491D03*
%TD*%
D16*
%TO.N,GND*%
%TO.C,U1*%
X65830259Y-97275491D03*
X67230259Y-97275491D03*
X65130259Y-96575491D03*
X66530259Y-96575491D03*
X67930259Y-96575491D03*
X65830259Y-95900491D03*
X67230259Y-95900491D03*
X65130259Y-95175491D03*
X66530259Y-95175491D03*
X67930259Y-95175491D03*
X65830259Y-94475491D03*
X67230259Y-94475491D03*
%TD*%
D17*
%TO.N,GND*%
X120070259Y-124735491D03*
D18*
X117070259Y-97535491D03*
D17*
X95070259Y-71735491D03*
X123070259Y-75735491D03*
X72870259Y-96235491D03*
X121070259Y-89735491D03*
X103070259Y-71735491D03*
X127070259Y-87735491D03*
X66070259Y-110735491D03*
X116070259Y-104735491D03*
X117070259Y-49735491D03*
X107070259Y-59735491D03*
X78070259Y-114735491D03*
X125070259Y-49735491D03*
X61070259Y-51735491D03*
X126770259Y-70335491D03*
X110170259Y-121735491D03*
X73070259Y-65735491D03*
X118070259Y-114735491D03*
X129070259Y-77735491D03*
X89070259Y-73735491D03*
X105070259Y-61735491D03*
X113070259Y-85735491D03*
X72070259Y-88735491D03*
X86070259Y-110735491D03*
X56070259Y-124735491D03*
X83070259Y-59735491D03*
X93070259Y-61735491D03*
X96070259Y-92735491D03*
D18*
X118570259Y-92635491D03*
D17*
X115070259Y-59735491D03*
X105070259Y-73735491D03*
X68070259Y-112735491D03*
X62470259Y-56835491D03*
X103070259Y-75735491D03*
X109070259Y-85735491D03*
X122670259Y-92435491D03*
X104070259Y-108735491D03*
X105070259Y-65735491D03*
X115070259Y-79735491D03*
X66070259Y-98735491D03*
D18*
X112770259Y-99535491D03*
D17*
X97070259Y-69735491D03*
X118070259Y-106735491D03*
X93070259Y-65735491D03*
X80070259Y-124735491D03*
X110070259Y-110735491D03*
X101070259Y-65735491D03*
X84070259Y-104735491D03*
X90070259Y-110735491D03*
X129070259Y-81735491D03*
X80070259Y-108735491D03*
X75070259Y-119535491D03*
X87070259Y-75735491D03*
X72070259Y-108735491D03*
X96070259Y-108735491D03*
X121070259Y-85735491D03*
D18*
X112970259Y-92635491D03*
D17*
X74070259Y-97735491D03*
X101070259Y-73735491D03*
X120070259Y-104735491D03*
X97070259Y-77735491D03*
X78070259Y-102335491D03*
X112070259Y-124735491D03*
X109070259Y-81735491D03*
X107070259Y-83735491D03*
X73070259Y-69735491D03*
X105070259Y-81735491D03*
X59070259Y-53735491D03*
X72070259Y-124735491D03*
X90070259Y-106735491D03*
X117070259Y-77735491D03*
X72070259Y-104735491D03*
X111070259Y-71735491D03*
X68070259Y-108735491D03*
X103070259Y-83735491D03*
X127070259Y-79735491D03*
X84070259Y-92735491D03*
X71070259Y-67735491D03*
X80070259Y-116735491D03*
X114070259Y-114735491D03*
X92070259Y-124735491D03*
X72070259Y-92735491D03*
X99070259Y-71735491D03*
X123070259Y-71735491D03*
X85070259Y-77735491D03*
X57070259Y-55735491D03*
X109070259Y-73735491D03*
X124070259Y-124735491D03*
X70070259Y-98735491D03*
X94070259Y-110735491D03*
X128070259Y-120735491D03*
X113070259Y-73735491D03*
X79070259Y-55735491D03*
X60070259Y-116735491D03*
X81070259Y-65735491D03*
X128070259Y-104735491D03*
D18*
X117070259Y-94435491D03*
D17*
X129070259Y-57735491D03*
X126070259Y-122735491D03*
X86070259Y-106735491D03*
X74070259Y-106735491D03*
X90070259Y-102735491D03*
X75070259Y-67735491D03*
X95070259Y-83735491D03*
X103070259Y-79735491D03*
X122070259Y-122735491D03*
X79070259Y-67735491D03*
X110070259Y-98735491D03*
X61970259Y-88935491D03*
X56070259Y-120735491D03*
X120370259Y-101635491D03*
X121070259Y-57735491D03*
X79070259Y-63735491D03*
X112070259Y-108735491D03*
X99070259Y-83735491D03*
X121070259Y-69835491D03*
X80070259Y-120735491D03*
X85070259Y-85735491D03*
X66070259Y-106735491D03*
X96070259Y-124735491D03*
X126070259Y-118735491D03*
X106070259Y-94735491D03*
X113070259Y-61735491D03*
X75070259Y-59735491D03*
X101070259Y-69735491D03*
D18*
X115370259Y-92635491D03*
D17*
X79070259Y-71735491D03*
X121070259Y-49735491D03*
X58070259Y-110735491D03*
X85070259Y-61735491D03*
X87070259Y-71735491D03*
X109070259Y-65735491D03*
X112070259Y-104735491D03*
X130070259Y-118735491D03*
X103070259Y-67735491D03*
X82070259Y-98735491D03*
X68070259Y-92735491D03*
X91070259Y-71735491D03*
X85070259Y-65735491D03*
X71970259Y-74635491D03*
X80070259Y-104735491D03*
X106070259Y-102735491D03*
X108070259Y-104735491D03*
X95070259Y-79735491D03*
X91070259Y-79735491D03*
X72070259Y-120735491D03*
X100070259Y-124735491D03*
X125070259Y-57735491D03*
X101070259Y-85735491D03*
X80070259Y-92735491D03*
X97070259Y-81735491D03*
X128070259Y-112735491D03*
X93070259Y-81735491D03*
X71070259Y-59735491D03*
D18*
X112770259Y-90135491D03*
D17*
X72070259Y-112735491D03*
X113970259Y-51135491D03*
X84070259Y-120735491D03*
X95070259Y-55735491D03*
X99070259Y-63735491D03*
X130070259Y-102735491D03*
X106070259Y-106735491D03*
X103070259Y-59735491D03*
X129070259Y-97735491D03*
X99070259Y-67735491D03*
X109070259Y-57735491D03*
X71070259Y-71735491D03*
X121070259Y-65735491D03*
X126070259Y-114735491D03*
X108070259Y-108735491D03*
X125070259Y-61735491D03*
X68070259Y-88735491D03*
X97070259Y-57735491D03*
X55070259Y-61735491D03*
X78070259Y-110735491D03*
X86070259Y-118735491D03*
X59070259Y-49735491D03*
X129070259Y-61735491D03*
X93070259Y-85735491D03*
X83070259Y-55735491D03*
X96070259Y-104735491D03*
X93070259Y-57735491D03*
X121070259Y-77735491D03*
X68070259Y-120735491D03*
X94070259Y-106735491D03*
X69070259Y-57735491D03*
X102070259Y-98735491D03*
X66070259Y-118735491D03*
X74070259Y-110735491D03*
X101070259Y-61735491D03*
X86070259Y-102735491D03*
X110070259Y-94735491D03*
X75070259Y-56135491D03*
X111070259Y-75735491D03*
X114070259Y-110735491D03*
X95070259Y-59735491D03*
X115070259Y-75735491D03*
X74070259Y-90235491D03*
X129070259Y-93735491D03*
X58070259Y-70735491D03*
X69570259Y-47335491D03*
X130070259Y-110735491D03*
X92070259Y-92735491D03*
X68070259Y-124735491D03*
X107070259Y-79735491D03*
X106370259Y-121735491D03*
X83070259Y-63735491D03*
X58070259Y-78735491D03*
X127070259Y-91735491D03*
X84070259Y-124735491D03*
X95070259Y-63735491D03*
X87070259Y-63735491D03*
X110070259Y-102735491D03*
X118070259Y-110735491D03*
X108070259Y-96735491D03*
X90070259Y-118735491D03*
X63070259Y-53735491D03*
X88070259Y-120735491D03*
X55070259Y-65735491D03*
X129070259Y-85735491D03*
X109070259Y-77735491D03*
X60070259Y-112735491D03*
X89070259Y-61735491D03*
X107070259Y-75735491D03*
X55070259Y-57735491D03*
X53070259Y-59735491D03*
X111070259Y-79735491D03*
X107070259Y-71735491D03*
D18*
X118970259Y-101735491D03*
D17*
X88070259Y-92735491D03*
X97070259Y-73735491D03*
X97070259Y-61735491D03*
X84070259Y-108735491D03*
X110070259Y-106735491D03*
X58070259Y-114735491D03*
X105070259Y-69735491D03*
X72070259Y-116735491D03*
X101070259Y-57735491D03*
X106070259Y-98735491D03*
X112070259Y-112735491D03*
D18*
X115170259Y-95835491D03*
D17*
X112070259Y-116735491D03*
X89070259Y-81735491D03*
X89070259Y-57735491D03*
X130070259Y-106735491D03*
X121070259Y-61735491D03*
X88070259Y-124735491D03*
X123070259Y-87735491D03*
X113070259Y-57735491D03*
X67270259Y-61835491D03*
X100070259Y-92735491D03*
X58070259Y-122735491D03*
X125070259Y-53735491D03*
X61970259Y-99835491D03*
X53070259Y-67735491D03*
X85070259Y-73735491D03*
X111070259Y-83735491D03*
X59070259Y-104635491D03*
X129070259Y-69735491D03*
X103070259Y-55735491D03*
X53070259Y-63735491D03*
X95070259Y-67735491D03*
X101070259Y-81735491D03*
X77070259Y-65735491D03*
X63070259Y-49735491D03*
X105070259Y-57735491D03*
X58070259Y-118735491D03*
X93070259Y-73735491D03*
X70070259Y-94735491D03*
X108070259Y-100735491D03*
X109070259Y-61735491D03*
D18*
X112770259Y-95835491D03*
D17*
X55070259Y-53735491D03*
X66070259Y-114735491D03*
X97070259Y-85735491D03*
X70070259Y-106735491D03*
X99070259Y-75735491D03*
X113070259Y-77735491D03*
X126970259Y-98035491D03*
X117070259Y-85735491D03*
X104070259Y-96735491D03*
X129070259Y-73735491D03*
X114070259Y-106735491D03*
X83070259Y-67735491D03*
X81070259Y-69735491D03*
X128070259Y-116735491D03*
X64070259Y-120735491D03*
X73870259Y-72335491D03*
X93070259Y-77735491D03*
X117070259Y-57735491D03*
X55070259Y-69735491D03*
X126070259Y-110735491D03*
X108070259Y-124735491D03*
X89070259Y-69735491D03*
X78070259Y-106735491D03*
X121070259Y-53735491D03*
X101070259Y-77735491D03*
X107070259Y-63735491D03*
X73070259Y-61735491D03*
X88070259Y-108735491D03*
X89070259Y-77735491D03*
X125070259Y-65735491D03*
X72070259Y-96735491D03*
X118070259Y-122735491D03*
X74070259Y-114735491D03*
X116070259Y-124735491D03*
X68070259Y-104735491D03*
X60070259Y-120735491D03*
X105070259Y-85735491D03*
X108070259Y-92735491D03*
X115070259Y-55735491D03*
X89070259Y-85735491D03*
X58070259Y-74735491D03*
X74170259Y-56135491D03*
X70070259Y-114735491D03*
X117070259Y-53735491D03*
X93070259Y-69735491D03*
X129070259Y-89735491D03*
X68070259Y-116735491D03*
X94070259Y-98735491D03*
X90070259Y-98735491D03*
X123070259Y-79735491D03*
X120070259Y-108735491D03*
X91070259Y-67735491D03*
X128070259Y-108735491D03*
X83070259Y-83735491D03*
X116070259Y-116735491D03*
X73070259Y-57735491D03*
X103070259Y-63735491D03*
D18*
X116970259Y-90235491D03*
D17*
X117070259Y-81735491D03*
X114070259Y-122735491D03*
X120070259Y-112735491D03*
X107070259Y-55735491D03*
X99070259Y-59735491D03*
X77070259Y-69735491D03*
X83070259Y-75735491D03*
D18*
X115670259Y-88535491D03*
D17*
X113370259Y-65335491D03*
X124070259Y-120735491D03*
X83070259Y-79735491D03*
X99070259Y-55735491D03*
X116070259Y-108735491D03*
X84070259Y-116735491D03*
D18*
X111770259Y-88535491D03*
D17*
X95070259Y-75735491D03*
X87070259Y-59735491D03*
X126070259Y-106735491D03*
X110070259Y-122735491D03*
X91070259Y-75735491D03*
X94070259Y-118735491D03*
X99070259Y-79735491D03*
X70070259Y-110735491D03*
X104070259Y-92735491D03*
D18*
X115570259Y-101735491D03*
D17*
X84070259Y-112735491D03*
X65070259Y-51735491D03*
X70070259Y-118735491D03*
D18*
X120270259Y-97535491D03*
D17*
X79070259Y-59735491D03*
X106070259Y-110735491D03*
X78070259Y-118735491D03*
X74170259Y-88535491D03*
X86070259Y-114735491D03*
X74070259Y-118735491D03*
X121070259Y-81735491D03*
X104070259Y-124735491D03*
X127070259Y-95735491D03*
X87070259Y-79735491D03*
X88070259Y-104735491D03*
X121070259Y-73735491D03*
X86070259Y-98735491D03*
X81070259Y-57735491D03*
X85070259Y-81735491D03*
X129070259Y-53735491D03*
X129070259Y-65735491D03*
X81070259Y-61735491D03*
X76370259Y-86735491D03*
D18*
X120270259Y-94435491D03*
D17*
X107070259Y-67735491D03*
X116070259Y-112735491D03*
X130070259Y-114735491D03*
X104070259Y-100735491D03*
X97070259Y-65735491D03*
X114170259Y-68735491D03*
X80070259Y-112735491D03*
X64070259Y-124735491D03*
X104070259Y-104735491D03*
X102070259Y-94735491D03*
X87070259Y-83735491D03*
X115070259Y-63735491D03*
X127070259Y-67735491D03*
X85070259Y-57735491D03*
X105070259Y-77735491D03*
X127070259Y-55735491D03*
X75070259Y-71735491D03*
X109070259Y-69735491D03*
X91070259Y-83735491D03*
D18*
X118670259Y-88535491D03*
X118870259Y-95935491D03*
D17*
X96070259Y-120735491D03*
X113070259Y-81735491D03*
X92070259Y-120735491D03*
%TO.N,+3.3V*%
X65070259Y-74135491D03*
X124870259Y-85435491D03*
D18*
X82470259Y-85435491D03*
D17*
X124370259Y-81635491D03*
X124370259Y-80735491D03*
X115270259Y-68735491D03*
X60070259Y-104335491D03*
X60070259Y-105035491D03*
X65870259Y-74135491D03*
%TO.N,/EN*%
X68970259Y-83235491D03*
X65670259Y-81235491D03*
X78370259Y-75535491D03*
%TO.N,/IO0_BTN*%
X76470259Y-119535491D03*
X75270259Y-86835491D03*
X76470259Y-102335491D03*
X75270259Y-88535491D03*
%TO.N,/D-*%
X62370259Y-60810491D03*
X66970259Y-60810491D03*
%TO.N,/D+*%
X66070259Y-61610490D03*
X62370259Y-61660491D03*
%TO.N,/SDA*%
X62570259Y-87935491D03*
X107670259Y-121735491D03*
X75970259Y-55335491D03*
%TO.N,/TXD*%
X71570259Y-83735491D03*
%TO.N,/RXD*%
X72870259Y-83735491D03*
%TO.N,/SCK*%
X74070259Y-91235491D03*
X121570259Y-92435491D03*
X121570259Y-101635491D03*
X119470259Y-69835491D03*
%TO.N,/SCL*%
X61370259Y-84035491D03*
X108870259Y-121735491D03*
X61370259Y-87935491D03*
X73370259Y-55335491D03*
%TO.N,/MISO*%
X123570259Y-101635491D03*
X119570259Y-81835491D03*
X119570259Y-87335491D03*
%TO.N,/MOSI*%
X125570259Y-70335491D03*
X125570259Y-98035491D03*
X70770259Y-47335491D03*
X122570259Y-102635491D03*
%TO.N,/CS_SD*%
X113370259Y-66535491D03*
X106470259Y-88635491D03*
%TO.N,/RTS*%
X72670259Y-81235491D03*
X70570259Y-78635491D03*
%TO.N,Net-(Q2-B)*%
X73870259Y-73635491D03*
X72870259Y-76235491D03*
%TO.N,/PCLK*%
X74050259Y-98935491D03*
%TO.N,/XCLK*%
X70270259Y-86835491D03*
X78570259Y-94735491D03*
%TO.N,/D7*%
X66430259Y-101835491D03*
%TO.N,/D3*%
X68970259Y-101835491D03*
%TO.N,/DHT*%
X74070259Y-83735491D03*
%TO.N,/D1*%
X70270259Y-101835491D03*
%TO.N,/ANA2*%
X63770259Y-56835491D03*
X60770259Y-99835491D03*
%TO.N,/ANA1*%
X59170253Y-99835491D03*
%TO.N,/ANA3*%
X59970256Y-99835491D03*
%TO.N,/VSYNC*%
X74070259Y-96235491D03*
%TO.N,/UV*%
X65170259Y-101835491D03*
%TO.N,/D5*%
X67700259Y-101835491D03*
%TD*%
%TA.AperFunction,Conductor*%
%TO.N,GND*%
G36*
X70196096Y-46965498D02*
G01*
X70263128Y-46985202D01*
X70308867Y-47038020D01*
X70318791Y-47107181D01*
X70308853Y-47141008D01*
X70285093Y-47193034D01*
X70264612Y-47335491D01*
X70285093Y-47477947D01*
X70330939Y-47578334D01*
X70344882Y-47608864D01*
X70439131Y-47717634D01*
X70560206Y-47795444D01*
X70560209Y-47795445D01*
X70560208Y-47795445D01*
X70698295Y-47835990D01*
X70698297Y-47835991D01*
X70698298Y-47835991D01*
X70842221Y-47835991D01*
X70842221Y-47835990D01*
X70980312Y-47795444D01*
X71101387Y-47717634D01*
X71195636Y-47608864D01*
X71255424Y-47477948D01*
X71275906Y-47335491D01*
X71255424Y-47193034D01*
X71231818Y-47141345D01*
X71221875Y-47072190D01*
X71250899Y-47008634D01*
X71309677Y-46970859D01*
X71344647Y-46965836D01*
X128015608Y-46982477D01*
X128015939Y-46982500D01*
X128023928Y-46982500D01*
X128086339Y-46982500D01*
X128093291Y-46982694D01*
X128390716Y-46999399D01*
X128404523Y-47000955D01*
X128694774Y-47050273D01*
X128708325Y-47053366D01*
X128991236Y-47134873D01*
X129004344Y-47139460D01*
X129276347Y-47252129D01*
X129288869Y-47258159D01*
X129546547Y-47400575D01*
X129558301Y-47407960D01*
X129798425Y-47578339D01*
X129809283Y-47586999D01*
X129833750Y-47608864D01*
X130028799Y-47783172D01*
X130038632Y-47793004D01*
X130098287Y-47859758D01*
X130234816Y-48012536D01*
X130243475Y-48023394D01*
X130301221Y-48104779D01*
X130413842Y-48263505D01*
X130421240Y-48275279D01*
X130563648Y-48532948D01*
X130569681Y-48545476D01*
X130682343Y-48817467D01*
X130686936Y-48830593D01*
X130768437Y-49113491D01*
X130771531Y-49127047D01*
X130820845Y-49417288D01*
X130822402Y-49431106D01*
X130839129Y-49728959D01*
X130839324Y-49735912D01*
X130839324Y-123746223D01*
X130839129Y-123753176D01*
X130822425Y-124050599D01*
X130820868Y-124064417D01*
X130771554Y-124354659D01*
X130768460Y-124368216D01*
X130686956Y-124651120D01*
X130682363Y-124664244D01*
X130569702Y-124936235D01*
X130563669Y-124948764D01*
X130421259Y-125206435D01*
X130413861Y-125218209D01*
X130243498Y-125458315D01*
X130234828Y-125469187D01*
X130038648Y-125688713D01*
X130028815Y-125698545D01*
X129809303Y-125894715D01*
X129798432Y-125903385D01*
X129558323Y-126073753D01*
X129546549Y-126081151D01*
X129288883Y-126223560D01*
X129276354Y-126229594D01*
X129004359Y-126342259D01*
X128991234Y-126346852D01*
X128708331Y-126428357D01*
X128694774Y-126431451D01*
X128404532Y-126480766D01*
X128390715Y-126482323D01*
X128093625Y-126499010D01*
X128086671Y-126499205D01*
X128023926Y-126499205D01*
X54053474Y-126499498D01*
X54046522Y-126499303D01*
X53749107Y-126482602D01*
X53735288Y-126481045D01*
X53445046Y-126431730D01*
X53431489Y-126428636D01*
X53148586Y-126347133D01*
X53135462Y-126342540D01*
X52863472Y-126229879D01*
X52850943Y-126223846D01*
X52593273Y-126081436D01*
X52581499Y-126074038D01*
X52341395Y-125903676D01*
X52330523Y-125895006D01*
X52111002Y-125698830D01*
X52101169Y-125688997D01*
X51904993Y-125469476D01*
X51896323Y-125458604D01*
X51725961Y-125218500D01*
X51718563Y-125206726D01*
X51683876Y-125143965D01*
X51576149Y-124949049D01*
X51570120Y-124936527D01*
X51457459Y-124664537D01*
X51452866Y-124651413D01*
X51371363Y-124368510D01*
X51368269Y-124354953D01*
X51368219Y-124354659D01*
X51318953Y-124064703D01*
X51317397Y-124050892D01*
X51310830Y-123933956D01*
X51300695Y-123753472D01*
X51300500Y-123746518D01*
X51300502Y-123628711D01*
X52199500Y-123628711D01*
X52199500Y-123871288D01*
X52231161Y-124111785D01*
X52293947Y-124346104D01*
X52386651Y-124569910D01*
X52386776Y-124570212D01*
X52508064Y-124780289D01*
X52508066Y-124780292D01*
X52508067Y-124780293D01*
X52655733Y-124972736D01*
X52655739Y-124972743D01*
X52827256Y-125144260D01*
X52827262Y-125144265D01*
X53019711Y-125291936D01*
X53229788Y-125413224D01*
X53453900Y-125506054D01*
X53688211Y-125568838D01*
X53868586Y-125592584D01*
X53928711Y-125600500D01*
X53928712Y-125600500D01*
X54171289Y-125600500D01*
X54219388Y-125594167D01*
X54411789Y-125568838D01*
X54646100Y-125506054D01*
X54870212Y-125413224D01*
X55080289Y-125291936D01*
X55272738Y-125144265D01*
X55444265Y-124972738D01*
X55591936Y-124780289D01*
X55713224Y-124570212D01*
X55806054Y-124346100D01*
X55868838Y-124111789D01*
X55900500Y-123871288D01*
X55900500Y-123628712D01*
X55900461Y-123628416D01*
X126239324Y-123628416D01*
X126239324Y-123870993D01*
X126270985Y-124111490D01*
X126333771Y-124345809D01*
X126426597Y-124569910D01*
X126426600Y-124569917D01*
X126547888Y-124779994D01*
X126547890Y-124779997D01*
X126547891Y-124779998D01*
X126695557Y-124972441D01*
X126695563Y-124972448D01*
X126867080Y-125143965D01*
X126867087Y-125143971D01*
X126948492Y-125206435D01*
X127059535Y-125291641D01*
X127269612Y-125412929D01*
X127493724Y-125505759D01*
X127728035Y-125568543D01*
X127908410Y-125592289D01*
X127968535Y-125600205D01*
X127968536Y-125600205D01*
X128211113Y-125600205D01*
X128259212Y-125593872D01*
X128451613Y-125568543D01*
X128685924Y-125505759D01*
X128910036Y-125412929D01*
X129120113Y-125291641D01*
X129312562Y-125143970D01*
X129484089Y-124972443D01*
X129631760Y-124779994D01*
X129753048Y-124569917D01*
X129845878Y-124345805D01*
X129908662Y-124111494D01*
X129940324Y-123870993D01*
X129940324Y-123628417D01*
X129908662Y-123387916D01*
X129845878Y-123153605D01*
X129753048Y-122929493D01*
X129631760Y-122719416D01*
X129484316Y-122527263D01*
X129484090Y-122526968D01*
X129484084Y-122526961D01*
X129312567Y-122355444D01*
X129312560Y-122355438D01*
X129120117Y-122207772D01*
X129120116Y-122207771D01*
X129120113Y-122207769D01*
X128910036Y-122086481D01*
X128910029Y-122086478D01*
X128685928Y-121993652D01*
X128451609Y-121930866D01*
X128211113Y-121899205D01*
X128211112Y-121899205D01*
X127968536Y-121899205D01*
X127968535Y-121899205D01*
X127728038Y-121930866D01*
X127493719Y-121993652D01*
X127269618Y-122086478D01*
X127269609Y-122086482D01*
X127059530Y-122207772D01*
X126867087Y-122355438D01*
X126867080Y-122355444D01*
X126695563Y-122526961D01*
X126695557Y-122526968D01*
X126547891Y-122719411D01*
X126426601Y-122929490D01*
X126426597Y-122929499D01*
X126333771Y-123153600D01*
X126270985Y-123387919D01*
X126239324Y-123628416D01*
X55900461Y-123628416D01*
X55868838Y-123388211D01*
X55806054Y-123153900D01*
X55713224Y-122929788D01*
X55591936Y-122719711D01*
X55444265Y-122527262D01*
X55444260Y-122527256D01*
X55272743Y-122355739D01*
X55272736Y-122355733D01*
X55080293Y-122208067D01*
X55080292Y-122208066D01*
X55080289Y-122208064D01*
X54870212Y-122086776D01*
X54869493Y-122086478D01*
X54646104Y-121993947D01*
X54411785Y-121931161D01*
X54171289Y-121899500D01*
X54171288Y-121899500D01*
X53928712Y-121899500D01*
X53928711Y-121899500D01*
X53688214Y-121931161D01*
X53453895Y-121993947D01*
X53229794Y-122086773D01*
X53229785Y-122086777D01*
X53047851Y-122191817D01*
X53041570Y-122195444D01*
X53019706Y-122208067D01*
X52827263Y-122355733D01*
X52827256Y-122355739D01*
X52655739Y-122527256D01*
X52655733Y-122527263D01*
X52508067Y-122719706D01*
X52386777Y-122929785D01*
X52386773Y-122929794D01*
X52293947Y-123153895D01*
X52231161Y-123388214D01*
X52199500Y-123628711D01*
X51300502Y-123628711D01*
X51300538Y-121735491D01*
X107164612Y-121735491D01*
X107185093Y-121877947D01*
X107244881Y-122008862D01*
X107244882Y-122008864D01*
X107339131Y-122117634D01*
X107460206Y-122195444D01*
X107460209Y-122195445D01*
X107460208Y-122195445D01*
X107598295Y-122235990D01*
X107598297Y-122235991D01*
X107598298Y-122235991D01*
X107742221Y-122235991D01*
X107742221Y-122235990D01*
X107880312Y-122195444D01*
X108001387Y-122117634D01*
X108095636Y-122008864D01*
X108155424Y-121877948D01*
X108155424Y-121877946D01*
X108157465Y-121873478D01*
X108203220Y-121820674D01*
X108270259Y-121800990D01*
X108337299Y-121820675D01*
X108383053Y-121873478D01*
X108385093Y-121877946D01*
X108385094Y-121877948D01*
X108444882Y-122008864D01*
X108539131Y-122117634D01*
X108660206Y-122195444D01*
X108660209Y-122195445D01*
X108660208Y-122195445D01*
X108798295Y-122235990D01*
X108798297Y-122235991D01*
X108798298Y-122235991D01*
X108942221Y-122235991D01*
X108942221Y-122235990D01*
X109080312Y-122195444D01*
X109201387Y-122117634D01*
X109295636Y-122008864D01*
X109355424Y-121877948D01*
X109375906Y-121735491D01*
X109355424Y-121593034D01*
X109295636Y-121462118D01*
X109201387Y-121353348D01*
X109080312Y-121275538D01*
X109080310Y-121275537D01*
X109080308Y-121275536D01*
X109080309Y-121275536D01*
X108942222Y-121234991D01*
X108942220Y-121234991D01*
X108798298Y-121234991D01*
X108798295Y-121234991D01*
X108660208Y-121275536D01*
X108539132Y-121353347D01*
X108444882Y-121462117D01*
X108444881Y-121462119D01*
X108383053Y-121597503D01*
X108337298Y-121650307D01*
X108270259Y-121669991D01*
X108203219Y-121650306D01*
X108157465Y-121597503D01*
X108095636Y-121462119D01*
X108095635Y-121462117D01*
X108001387Y-121353348D01*
X107880312Y-121275538D01*
X107880310Y-121275537D01*
X107880308Y-121275536D01*
X107880309Y-121275536D01*
X107742222Y-121234991D01*
X107742220Y-121234991D01*
X107598298Y-121234991D01*
X107598295Y-121234991D01*
X107460208Y-121275536D01*
X107339132Y-121353347D01*
X107244882Y-121462117D01*
X107244881Y-121462119D01*
X107185093Y-121593034D01*
X107164612Y-121735491D01*
X51300538Y-121735491D01*
X51300579Y-119535491D01*
X75964612Y-119535491D01*
X75985093Y-119677947D01*
X76044881Y-119808862D01*
X76044882Y-119808864D01*
X76139131Y-119917634D01*
X76260206Y-119995444D01*
X76260209Y-119995445D01*
X76260208Y-119995445D01*
X76398295Y-120035990D01*
X76398297Y-120035991D01*
X76398298Y-120035991D01*
X76542221Y-120035991D01*
X76542221Y-120035990D01*
X76680312Y-119995444D01*
X76801387Y-119917634D01*
X76895636Y-119808864D01*
X76955424Y-119677948D01*
X76975906Y-119535491D01*
X76955424Y-119393034D01*
X76895636Y-119262118D01*
X76801387Y-119153348D01*
X76680312Y-119075538D01*
X76680310Y-119075537D01*
X76680308Y-119075536D01*
X76680309Y-119075536D01*
X76542222Y-119034991D01*
X76542220Y-119034991D01*
X76398298Y-119034991D01*
X76398295Y-119034991D01*
X76260208Y-119075536D01*
X76139132Y-119153347D01*
X76044882Y-119262117D01*
X76044881Y-119262119D01*
X75985093Y-119393034D01*
X75964612Y-119535491D01*
X51300579Y-119535491D01*
X51300599Y-118499489D01*
X51320285Y-118432450D01*
X51373090Y-118386696D01*
X51424599Y-118375491D01*
X57510259Y-118375491D01*
X57510259Y-115735491D01*
X86274676Y-115735491D01*
X86294958Y-115941423D01*
X86294959Y-115941425D01*
X86355027Y-116139445D01*
X86452574Y-116321941D01*
X86452576Y-116321943D01*
X86583848Y-116481901D01*
X86680468Y-116561193D01*
X86743809Y-116613176D01*
X86926305Y-116710723D01*
X87124325Y-116770791D01*
X87124324Y-116770791D01*
X87142788Y-116772609D01*
X87330259Y-116791074D01*
X87536193Y-116770791D01*
X87734213Y-116710723D01*
X87916709Y-116613176D01*
X88076669Y-116481901D01*
X88207944Y-116321941D01*
X88305491Y-116139445D01*
X88365559Y-115941425D01*
X88385842Y-115735491D01*
X88814676Y-115735491D01*
X88834958Y-115941423D01*
X88834959Y-115941425D01*
X88895027Y-116139445D01*
X88992574Y-116321941D01*
X88992576Y-116321943D01*
X89123848Y-116481901D01*
X89220468Y-116561193D01*
X89283809Y-116613176D01*
X89466305Y-116710723D01*
X89664325Y-116770791D01*
X89664324Y-116770791D01*
X89682788Y-116772609D01*
X89870259Y-116791074D01*
X90076193Y-116770791D01*
X90274213Y-116710723D01*
X90456709Y-116613176D01*
X90616669Y-116481901D01*
X90747944Y-116321941D01*
X90845491Y-116139445D01*
X90905559Y-115941425D01*
X90925842Y-115735491D01*
X91354676Y-115735491D01*
X91374958Y-115941423D01*
X91374959Y-115941425D01*
X91435027Y-116139445D01*
X91532574Y-116321941D01*
X91532576Y-116321943D01*
X91663848Y-116481901D01*
X91760468Y-116561193D01*
X91823809Y-116613176D01*
X92006305Y-116710723D01*
X92204325Y-116770791D01*
X92204324Y-116770791D01*
X92222788Y-116772609D01*
X92410259Y-116791074D01*
X92616193Y-116770791D01*
X92814213Y-116710723D01*
X92996709Y-116613176D01*
X93156669Y-116481901D01*
X93287944Y-116321941D01*
X93385491Y-116139445D01*
X93445559Y-115941425D01*
X93465842Y-115735491D01*
X93894676Y-115735491D01*
X93914958Y-115941423D01*
X93914959Y-115941425D01*
X93975027Y-116139445D01*
X94072574Y-116321941D01*
X94072576Y-116321943D01*
X94203848Y-116481901D01*
X94300468Y-116561193D01*
X94363809Y-116613176D01*
X94546305Y-116710723D01*
X94744325Y-116770791D01*
X94744324Y-116770791D01*
X94762788Y-116772609D01*
X94950259Y-116791074D01*
X95156193Y-116770791D01*
X95354213Y-116710723D01*
X95536709Y-116613176D01*
X95696669Y-116481901D01*
X95827944Y-116321941D01*
X95925491Y-116139445D01*
X95985559Y-115941425D01*
X96005842Y-115735491D01*
X96434676Y-115735491D01*
X96454958Y-115941423D01*
X96454959Y-115941425D01*
X96515027Y-116139445D01*
X96612574Y-116321941D01*
X96612576Y-116321943D01*
X96743848Y-116481901D01*
X96840468Y-116561193D01*
X96903809Y-116613176D01*
X97086305Y-116710723D01*
X97284325Y-116770791D01*
X97284324Y-116770791D01*
X97302788Y-116772609D01*
X97490259Y-116791074D01*
X97696193Y-116770791D01*
X97894213Y-116710723D01*
X98076709Y-116613176D01*
X98236669Y-116481901D01*
X98367944Y-116321941D01*
X98465491Y-116139445D01*
X98525559Y-115941425D01*
X98545842Y-115735491D01*
X98974676Y-115735491D01*
X98994958Y-115941423D01*
X98994959Y-115941425D01*
X99055027Y-116139445D01*
X99152574Y-116321941D01*
X99152576Y-116321943D01*
X99283848Y-116481901D01*
X99380468Y-116561193D01*
X99443809Y-116613176D01*
X99626305Y-116710723D01*
X99824325Y-116770791D01*
X99824324Y-116770791D01*
X99842788Y-116772609D01*
X100030259Y-116791074D01*
X100236193Y-116770791D01*
X100434213Y-116710723D01*
X100616709Y-116613176D01*
X100776669Y-116481901D01*
X100907944Y-116321941D01*
X101005491Y-116139445D01*
X101065559Y-115941425D01*
X101085842Y-115735491D01*
X101514676Y-115735491D01*
X101534958Y-115941423D01*
X101534959Y-115941425D01*
X101595027Y-116139445D01*
X101692574Y-116321941D01*
X101692576Y-116321943D01*
X101823848Y-116481901D01*
X101920468Y-116561193D01*
X101983809Y-116613176D01*
X102166305Y-116710723D01*
X102364325Y-116770791D01*
X102364324Y-116770791D01*
X102382788Y-116772609D01*
X102570259Y-116791074D01*
X102776193Y-116770791D01*
X102974213Y-116710723D01*
X103156709Y-116613176D01*
X103316669Y-116481901D01*
X103447944Y-116321941D01*
X103545491Y-116139445D01*
X103605559Y-115941425D01*
X103625842Y-115735491D01*
X104054676Y-115735491D01*
X104074958Y-115941423D01*
X104074959Y-115941425D01*
X104135027Y-116139445D01*
X104232574Y-116321941D01*
X104232576Y-116321943D01*
X104363848Y-116481901D01*
X104460468Y-116561193D01*
X104523809Y-116613176D01*
X104706305Y-116710723D01*
X104904325Y-116770791D01*
X104904324Y-116770791D01*
X104922788Y-116772609D01*
X105110259Y-116791074D01*
X105316193Y-116770791D01*
X105514213Y-116710723D01*
X105696709Y-116613176D01*
X105856669Y-116481901D01*
X105987944Y-116321941D01*
X106085491Y-116139445D01*
X106145559Y-115941425D01*
X106165842Y-115735491D01*
X106594676Y-115735491D01*
X106614958Y-115941423D01*
X106614959Y-115941425D01*
X106675027Y-116139445D01*
X106772574Y-116321941D01*
X106772576Y-116321943D01*
X106903848Y-116481901D01*
X107000468Y-116561193D01*
X107063809Y-116613176D01*
X107246305Y-116710723D01*
X107444325Y-116770791D01*
X107444324Y-116770791D01*
X107462788Y-116772609D01*
X107650259Y-116791074D01*
X107856193Y-116770791D01*
X108054213Y-116710723D01*
X108236709Y-116613176D01*
X108396669Y-116481901D01*
X108527944Y-116321941D01*
X108625491Y-116139445D01*
X108685559Y-115941425D01*
X108705842Y-115735491D01*
X108685559Y-115529557D01*
X108625491Y-115331537D01*
X108527944Y-115149041D01*
X108475961Y-115085700D01*
X108396669Y-114989080D01*
X108236711Y-114857808D01*
X108236712Y-114857808D01*
X108236709Y-114857806D01*
X108054213Y-114760259D01*
X107856193Y-114700191D01*
X107856191Y-114700190D01*
X107856193Y-114700190D01*
X107650259Y-114679908D01*
X107444326Y-114700190D01*
X107246302Y-114760260D01*
X107136157Y-114819134D01*
X107063809Y-114857806D01*
X107063807Y-114857807D01*
X107063806Y-114857808D01*
X106903848Y-114989080D01*
X106772576Y-115149038D01*
X106675028Y-115331534D01*
X106614958Y-115529558D01*
X106594676Y-115735491D01*
X106165842Y-115735491D01*
X106145559Y-115529557D01*
X106085491Y-115331537D01*
X105987944Y-115149041D01*
X105935961Y-115085700D01*
X105856669Y-114989080D01*
X105696711Y-114857808D01*
X105696712Y-114857808D01*
X105696709Y-114857806D01*
X105514213Y-114760259D01*
X105316193Y-114700191D01*
X105316191Y-114700190D01*
X105316193Y-114700190D01*
X105110259Y-114679908D01*
X104904326Y-114700190D01*
X104706302Y-114760260D01*
X104596157Y-114819134D01*
X104523809Y-114857806D01*
X104523807Y-114857807D01*
X104523806Y-114857808D01*
X104363848Y-114989080D01*
X104232576Y-115149038D01*
X104135028Y-115331534D01*
X104074958Y-115529558D01*
X104054676Y-115735491D01*
X103625842Y-115735491D01*
X103605559Y-115529557D01*
X103545491Y-115331537D01*
X103447944Y-115149041D01*
X103395961Y-115085700D01*
X103316669Y-114989080D01*
X103156711Y-114857808D01*
X103156712Y-114857808D01*
X103156709Y-114857806D01*
X102974213Y-114760259D01*
X102776193Y-114700191D01*
X102776191Y-114700190D01*
X102776193Y-114700190D01*
X102570259Y-114679908D01*
X102364326Y-114700190D01*
X102166302Y-114760260D01*
X102056157Y-114819134D01*
X101983809Y-114857806D01*
X101983807Y-114857807D01*
X101983806Y-114857808D01*
X101823848Y-114989080D01*
X101692576Y-115149038D01*
X101595028Y-115331534D01*
X101534958Y-115529558D01*
X101514676Y-115735491D01*
X101085842Y-115735491D01*
X101065559Y-115529557D01*
X101005491Y-115331537D01*
X100907944Y-115149041D01*
X100855961Y-115085700D01*
X100776669Y-114989080D01*
X100616711Y-114857808D01*
X100616712Y-114857808D01*
X100616709Y-114857806D01*
X100434213Y-114760259D01*
X100236193Y-114700191D01*
X100236191Y-114700190D01*
X100236193Y-114700190D01*
X100030259Y-114679908D01*
X99824326Y-114700190D01*
X99626302Y-114760260D01*
X99516157Y-114819134D01*
X99443809Y-114857806D01*
X99443807Y-114857807D01*
X99443806Y-114857808D01*
X99283848Y-114989080D01*
X99152576Y-115149038D01*
X99055028Y-115331534D01*
X98994958Y-115529558D01*
X98974676Y-115735491D01*
X98545842Y-115735491D01*
X98525559Y-115529557D01*
X98465491Y-115331537D01*
X98367944Y-115149041D01*
X98315961Y-115085700D01*
X98236669Y-114989080D01*
X98076711Y-114857808D01*
X98076712Y-114857808D01*
X98076709Y-114857806D01*
X97894213Y-114760259D01*
X97696193Y-114700191D01*
X97696191Y-114700190D01*
X97696193Y-114700190D01*
X97490259Y-114679908D01*
X97284326Y-114700190D01*
X97086302Y-114760260D01*
X96976157Y-114819134D01*
X96903809Y-114857806D01*
X96903807Y-114857807D01*
X96903806Y-114857808D01*
X96743848Y-114989080D01*
X96612576Y-115149038D01*
X96515028Y-115331534D01*
X96454958Y-115529558D01*
X96434676Y-115735491D01*
X96005842Y-115735491D01*
X95985559Y-115529557D01*
X95925491Y-115331537D01*
X95827944Y-115149041D01*
X95775961Y-115085700D01*
X95696669Y-114989080D01*
X95536711Y-114857808D01*
X95536712Y-114857808D01*
X95536709Y-114857806D01*
X95354213Y-114760259D01*
X95156193Y-114700191D01*
X95156191Y-114700190D01*
X95156193Y-114700190D01*
X94950259Y-114679908D01*
X94744326Y-114700190D01*
X94546302Y-114760260D01*
X94436157Y-114819134D01*
X94363809Y-114857806D01*
X94363807Y-114857807D01*
X94363806Y-114857808D01*
X94203848Y-114989080D01*
X94072576Y-115149038D01*
X93975028Y-115331534D01*
X93914958Y-115529558D01*
X93894676Y-115735491D01*
X93465842Y-115735491D01*
X93445559Y-115529557D01*
X93385491Y-115331537D01*
X93287944Y-115149041D01*
X93235961Y-115085700D01*
X93156669Y-114989080D01*
X92996711Y-114857808D01*
X92996712Y-114857808D01*
X92996709Y-114857806D01*
X92814213Y-114760259D01*
X92616193Y-114700191D01*
X92616191Y-114700190D01*
X92616193Y-114700190D01*
X92410259Y-114679908D01*
X92204326Y-114700190D01*
X92006302Y-114760260D01*
X91896157Y-114819134D01*
X91823809Y-114857806D01*
X91823807Y-114857807D01*
X91823806Y-114857808D01*
X91663848Y-114989080D01*
X91532576Y-115149038D01*
X91435028Y-115331534D01*
X91374958Y-115529558D01*
X91354676Y-115735491D01*
X90925842Y-115735491D01*
X90905559Y-115529557D01*
X90845491Y-115331537D01*
X90747944Y-115149041D01*
X90695961Y-115085700D01*
X90616669Y-114989080D01*
X90456711Y-114857808D01*
X90456712Y-114857808D01*
X90456709Y-114857806D01*
X90274213Y-114760259D01*
X90076193Y-114700191D01*
X90076191Y-114700190D01*
X90076193Y-114700190D01*
X89870259Y-114679908D01*
X89664326Y-114700190D01*
X89466302Y-114760260D01*
X89356157Y-114819134D01*
X89283809Y-114857806D01*
X89283807Y-114857807D01*
X89283806Y-114857808D01*
X89123848Y-114989080D01*
X88992576Y-115149038D01*
X88895028Y-115331534D01*
X88834958Y-115529558D01*
X88814676Y-115735491D01*
X88385842Y-115735491D01*
X88365559Y-115529557D01*
X88305491Y-115331537D01*
X88207944Y-115149041D01*
X88155961Y-115085700D01*
X88076669Y-114989080D01*
X87916711Y-114857808D01*
X87916712Y-114857808D01*
X87916709Y-114857806D01*
X87734213Y-114760259D01*
X87536193Y-114700191D01*
X87536191Y-114700190D01*
X87536193Y-114700190D01*
X87330259Y-114679908D01*
X87124326Y-114700190D01*
X86926302Y-114760260D01*
X86816157Y-114819134D01*
X86743809Y-114857806D01*
X86743807Y-114857807D01*
X86743806Y-114857808D01*
X86583848Y-114989080D01*
X86452576Y-115149038D01*
X86355028Y-115331534D01*
X86294958Y-115529558D01*
X86274676Y-115735491D01*
X57510259Y-115735491D01*
X57510259Y-113195491D01*
X86274676Y-113195491D01*
X86294958Y-113401423D01*
X86294959Y-113401425D01*
X86355027Y-113599445D01*
X86452574Y-113781941D01*
X86452576Y-113781943D01*
X86583848Y-113941901D01*
X86664843Y-114008371D01*
X86743809Y-114073176D01*
X86926305Y-114170723D01*
X87124325Y-114230791D01*
X87124324Y-114230791D01*
X87142788Y-114232609D01*
X87330259Y-114251074D01*
X87536193Y-114230791D01*
X87734213Y-114170723D01*
X87916709Y-114073176D01*
X88076669Y-113941901D01*
X88207944Y-113781941D01*
X88305491Y-113599445D01*
X88365559Y-113401425D01*
X88385842Y-113195491D01*
X88814676Y-113195491D01*
X88834958Y-113401423D01*
X88834959Y-113401425D01*
X88895027Y-113599445D01*
X88992574Y-113781941D01*
X88992576Y-113781943D01*
X89123848Y-113941901D01*
X89204843Y-114008371D01*
X89283809Y-114073176D01*
X89466305Y-114170723D01*
X89664325Y-114230791D01*
X89664324Y-114230791D01*
X89682788Y-114232609D01*
X89870259Y-114251074D01*
X90076193Y-114230791D01*
X90274213Y-114170723D01*
X90456709Y-114073176D01*
X90616669Y-113941901D01*
X90747944Y-113781941D01*
X90845491Y-113599445D01*
X90905559Y-113401425D01*
X90925842Y-113195491D01*
X91354676Y-113195491D01*
X91374958Y-113401423D01*
X91374959Y-113401425D01*
X91435027Y-113599445D01*
X91532574Y-113781941D01*
X91532576Y-113781943D01*
X91663848Y-113941901D01*
X91744843Y-114008371D01*
X91823809Y-114073176D01*
X92006305Y-114170723D01*
X92204325Y-114230791D01*
X92204324Y-114230791D01*
X92222788Y-114232609D01*
X92410259Y-114251074D01*
X92616193Y-114230791D01*
X92814213Y-114170723D01*
X92996709Y-114073176D01*
X93156669Y-113941901D01*
X93287944Y-113781941D01*
X93385491Y-113599445D01*
X93445559Y-113401425D01*
X93465842Y-113195491D01*
X93894676Y-113195491D01*
X93914958Y-113401423D01*
X93914959Y-113401425D01*
X93975027Y-113599445D01*
X94072574Y-113781941D01*
X94072576Y-113781943D01*
X94203848Y-113941901D01*
X94284843Y-114008371D01*
X94363809Y-114073176D01*
X94546305Y-114170723D01*
X94744325Y-114230791D01*
X94744324Y-114230791D01*
X94762788Y-114232609D01*
X94950259Y-114251074D01*
X95156193Y-114230791D01*
X95354213Y-114170723D01*
X95536709Y-114073176D01*
X95696669Y-113941901D01*
X95827944Y-113781941D01*
X95925491Y-113599445D01*
X95985559Y-113401425D01*
X96005842Y-113195491D01*
X96434676Y-113195491D01*
X96454958Y-113401423D01*
X96454959Y-113401425D01*
X96515027Y-113599445D01*
X96612574Y-113781941D01*
X96612576Y-113781943D01*
X96743848Y-113941901D01*
X96824843Y-114008371D01*
X96903809Y-114073176D01*
X97086305Y-114170723D01*
X97284325Y-114230791D01*
X97284324Y-114230791D01*
X97302788Y-114232609D01*
X97490259Y-114251074D01*
X97696193Y-114230791D01*
X97894213Y-114170723D01*
X98076709Y-114073176D01*
X98236669Y-113941901D01*
X98367944Y-113781941D01*
X98465491Y-113599445D01*
X98525559Y-113401425D01*
X98545842Y-113195491D01*
X98974676Y-113195491D01*
X98994958Y-113401423D01*
X98994959Y-113401425D01*
X99055027Y-113599445D01*
X99152574Y-113781941D01*
X99152576Y-113781943D01*
X99283848Y-113941901D01*
X99364843Y-114008371D01*
X99443809Y-114073176D01*
X99626305Y-114170723D01*
X99824325Y-114230791D01*
X99824324Y-114230791D01*
X99842788Y-114232609D01*
X100030259Y-114251074D01*
X100236193Y-114230791D01*
X100434213Y-114170723D01*
X100616709Y-114073176D01*
X100776669Y-113941901D01*
X100907944Y-113781941D01*
X101005491Y-113599445D01*
X101065559Y-113401425D01*
X101085842Y-113195491D01*
X101514676Y-113195491D01*
X101534958Y-113401423D01*
X101534959Y-113401425D01*
X101595027Y-113599445D01*
X101692574Y-113781941D01*
X101692576Y-113781943D01*
X101823848Y-113941901D01*
X101904843Y-114008371D01*
X101983809Y-114073176D01*
X102166305Y-114170723D01*
X102364325Y-114230791D01*
X102364324Y-114230791D01*
X102382788Y-114232609D01*
X102570259Y-114251074D01*
X102776193Y-114230791D01*
X102974213Y-114170723D01*
X103156709Y-114073176D01*
X103316669Y-113941901D01*
X103447944Y-113781941D01*
X103545491Y-113599445D01*
X103605559Y-113401425D01*
X103625842Y-113195491D01*
X104054676Y-113195491D01*
X104074958Y-113401423D01*
X104074959Y-113401425D01*
X104135027Y-113599445D01*
X104232574Y-113781941D01*
X104232576Y-113781943D01*
X104363848Y-113941901D01*
X104444843Y-114008371D01*
X104523809Y-114073176D01*
X104706305Y-114170723D01*
X104904325Y-114230791D01*
X104904324Y-114230791D01*
X104922788Y-114232609D01*
X105110259Y-114251074D01*
X105316193Y-114230791D01*
X105514213Y-114170723D01*
X105696709Y-114073176D01*
X105856669Y-113941901D01*
X105987944Y-113781941D01*
X106085491Y-113599445D01*
X106145559Y-113401425D01*
X106165842Y-113195491D01*
X106594676Y-113195491D01*
X106614958Y-113401423D01*
X106614959Y-113401425D01*
X106675027Y-113599445D01*
X106772574Y-113781941D01*
X106772576Y-113781943D01*
X106903848Y-113941901D01*
X106984843Y-114008371D01*
X107063809Y-114073176D01*
X107246305Y-114170723D01*
X107444325Y-114230791D01*
X107444324Y-114230791D01*
X107462788Y-114232609D01*
X107650259Y-114251074D01*
X107856193Y-114230791D01*
X108054213Y-114170723D01*
X108236709Y-114073176D01*
X108396669Y-113941901D01*
X108527944Y-113781941D01*
X108625491Y-113599445D01*
X108685559Y-113401425D01*
X108705842Y-113195491D01*
X108685559Y-112989557D01*
X108625491Y-112791537D01*
X108527944Y-112609041D01*
X108472286Y-112541221D01*
X109139759Y-112541221D01*
X109139759Y-113849760D01*
X109142612Y-113880190D01*
X109142612Y-113880192D01*
X109187465Y-114008371D01*
X109187466Y-114008373D01*
X109268109Y-114117641D01*
X109377377Y-114198284D01*
X109420104Y-114213235D01*
X109505558Y-114243137D01*
X109535989Y-114245991D01*
X109535993Y-114245991D01*
X110844529Y-114245991D01*
X110874958Y-114243137D01*
X110874960Y-114243137D01*
X110939049Y-114220710D01*
X111003141Y-114198284D01*
X111112409Y-114117641D01*
X111193052Y-114008373D01*
X111216311Y-113941901D01*
X111237905Y-113880192D01*
X111237905Y-113880190D01*
X111240759Y-113849760D01*
X111240759Y-112541221D01*
X111237905Y-112510791D01*
X111237905Y-112510789D01*
X111193052Y-112382610D01*
X111193051Y-112382608D01*
X111112409Y-112273341D01*
X111003141Y-112192698D01*
X111003139Y-112192697D01*
X110874959Y-112147844D01*
X110844529Y-112144991D01*
X110844525Y-112144991D01*
X109535993Y-112144991D01*
X109535989Y-112144991D01*
X109505559Y-112147844D01*
X109505557Y-112147844D01*
X109377378Y-112192697D01*
X109377376Y-112192698D01*
X109268109Y-112273341D01*
X109187466Y-112382608D01*
X109187465Y-112382610D01*
X109142612Y-112510789D01*
X109142612Y-112510791D01*
X109139759Y-112541221D01*
X108472286Y-112541221D01*
X108447311Y-112510789D01*
X108396669Y-112449080D01*
X108236711Y-112317808D01*
X108236712Y-112317808D01*
X108236709Y-112317806D01*
X108054213Y-112220259D01*
X107856193Y-112160191D01*
X107856191Y-112160190D01*
X107856193Y-112160190D01*
X107650259Y-112139908D01*
X107444326Y-112160190D01*
X107246302Y-112220260D01*
X107146996Y-112273341D01*
X107063809Y-112317806D01*
X107063807Y-112317807D01*
X107063806Y-112317808D01*
X106903848Y-112449080D01*
X106772576Y-112609038D01*
X106675028Y-112791534D01*
X106614958Y-112989558D01*
X106594676Y-113195491D01*
X106165842Y-113195491D01*
X106145559Y-112989557D01*
X106085491Y-112791537D01*
X105987944Y-112609041D01*
X105907311Y-112510789D01*
X105856669Y-112449080D01*
X105696711Y-112317808D01*
X105696712Y-112317808D01*
X105696709Y-112317806D01*
X105514213Y-112220259D01*
X105316193Y-112160191D01*
X105316191Y-112160190D01*
X105316193Y-112160190D01*
X105110259Y-112139908D01*
X104904326Y-112160190D01*
X104706302Y-112220260D01*
X104606996Y-112273341D01*
X104523809Y-112317806D01*
X104523807Y-112317807D01*
X104523806Y-112317808D01*
X104363848Y-112449080D01*
X104232576Y-112609038D01*
X104135028Y-112791534D01*
X104074958Y-112989558D01*
X104054676Y-113195491D01*
X103625842Y-113195491D01*
X103605559Y-112989557D01*
X103545491Y-112791537D01*
X103447944Y-112609041D01*
X103367311Y-112510789D01*
X103316669Y-112449080D01*
X103156711Y-112317808D01*
X103156712Y-112317808D01*
X103156709Y-112317806D01*
X102974213Y-112220259D01*
X102776193Y-112160191D01*
X102776191Y-112160190D01*
X102776193Y-112160190D01*
X102570259Y-112139908D01*
X102364326Y-112160190D01*
X102166302Y-112220260D01*
X102066996Y-112273341D01*
X101983809Y-112317806D01*
X101983807Y-112317807D01*
X101983806Y-112317808D01*
X101823848Y-112449080D01*
X101692576Y-112609038D01*
X101595028Y-112791534D01*
X101534958Y-112989558D01*
X101514676Y-113195491D01*
X101085842Y-113195491D01*
X101065559Y-112989557D01*
X101005491Y-112791537D01*
X100907944Y-112609041D01*
X100827311Y-112510789D01*
X100776669Y-112449080D01*
X100616711Y-112317808D01*
X100616712Y-112317808D01*
X100616709Y-112317806D01*
X100434213Y-112220259D01*
X100236193Y-112160191D01*
X100236191Y-112160190D01*
X100236193Y-112160190D01*
X100030259Y-112139908D01*
X99824326Y-112160190D01*
X99626302Y-112220260D01*
X99526996Y-112273341D01*
X99443809Y-112317806D01*
X99443807Y-112317807D01*
X99443806Y-112317808D01*
X99283848Y-112449080D01*
X99152576Y-112609038D01*
X99055028Y-112791534D01*
X98994958Y-112989558D01*
X98974676Y-113195491D01*
X98545842Y-113195491D01*
X98525559Y-112989557D01*
X98465491Y-112791537D01*
X98367944Y-112609041D01*
X98287311Y-112510789D01*
X98236669Y-112449080D01*
X98076711Y-112317808D01*
X98076712Y-112317808D01*
X98076709Y-112317806D01*
X97894213Y-112220259D01*
X97696193Y-112160191D01*
X97696191Y-112160190D01*
X97696193Y-112160190D01*
X97490259Y-112139908D01*
X97284326Y-112160190D01*
X97086302Y-112220260D01*
X96986996Y-112273341D01*
X96903809Y-112317806D01*
X96903807Y-112317807D01*
X96903806Y-112317808D01*
X96743848Y-112449080D01*
X96612576Y-112609038D01*
X96515028Y-112791534D01*
X96454958Y-112989558D01*
X96434676Y-113195491D01*
X96005842Y-113195491D01*
X95985559Y-112989557D01*
X95925491Y-112791537D01*
X95827944Y-112609041D01*
X95747311Y-112510789D01*
X95696669Y-112449080D01*
X95536711Y-112317808D01*
X95536712Y-112317808D01*
X95536709Y-112317806D01*
X95354213Y-112220259D01*
X95156193Y-112160191D01*
X95156191Y-112160190D01*
X95156193Y-112160190D01*
X94950259Y-112139908D01*
X94744326Y-112160190D01*
X94546302Y-112220260D01*
X94446996Y-112273341D01*
X94363809Y-112317806D01*
X94363807Y-112317807D01*
X94363806Y-112317808D01*
X94203848Y-112449080D01*
X94072576Y-112609038D01*
X93975028Y-112791534D01*
X93914958Y-112989558D01*
X93894676Y-113195491D01*
X93465842Y-113195491D01*
X93445559Y-112989557D01*
X93385491Y-112791537D01*
X93287944Y-112609041D01*
X93207311Y-112510789D01*
X93156669Y-112449080D01*
X92996711Y-112317808D01*
X92996712Y-112317808D01*
X92996709Y-112317806D01*
X92814213Y-112220259D01*
X92616193Y-112160191D01*
X92616191Y-112160190D01*
X92616193Y-112160190D01*
X92410259Y-112139908D01*
X92204326Y-112160190D01*
X92006302Y-112220260D01*
X91906996Y-112273341D01*
X91823809Y-112317806D01*
X91823807Y-112317807D01*
X91823806Y-112317808D01*
X91663848Y-112449080D01*
X91532576Y-112609038D01*
X91435028Y-112791534D01*
X91374958Y-112989558D01*
X91354676Y-113195491D01*
X90925842Y-113195491D01*
X90905559Y-112989557D01*
X90845491Y-112791537D01*
X90747944Y-112609041D01*
X90667311Y-112510789D01*
X90616669Y-112449080D01*
X90456711Y-112317808D01*
X90456712Y-112317808D01*
X90456709Y-112317806D01*
X90274213Y-112220259D01*
X90076193Y-112160191D01*
X90076191Y-112160190D01*
X90076193Y-112160190D01*
X89870259Y-112139908D01*
X89664326Y-112160190D01*
X89466302Y-112220260D01*
X89366996Y-112273341D01*
X89283809Y-112317806D01*
X89283807Y-112317807D01*
X89283806Y-112317808D01*
X89123848Y-112449080D01*
X88992576Y-112609038D01*
X88895028Y-112791534D01*
X88834958Y-112989558D01*
X88814676Y-113195491D01*
X88385842Y-113195491D01*
X88365559Y-112989557D01*
X88305491Y-112791537D01*
X88207944Y-112609041D01*
X88127311Y-112510789D01*
X88076669Y-112449080D01*
X87916711Y-112317808D01*
X87916712Y-112317808D01*
X87916709Y-112317806D01*
X87734213Y-112220259D01*
X87536193Y-112160191D01*
X87536191Y-112160190D01*
X87536193Y-112160190D01*
X87330259Y-112139908D01*
X87124326Y-112160190D01*
X86926302Y-112220260D01*
X86826996Y-112273341D01*
X86743809Y-112317806D01*
X86743807Y-112317807D01*
X86743806Y-112317808D01*
X86583848Y-112449080D01*
X86452576Y-112609038D01*
X86355028Y-112791534D01*
X86294958Y-112989558D01*
X86274676Y-113195491D01*
X57510259Y-113195491D01*
X57510259Y-104335491D01*
X59564612Y-104335491D01*
X59585093Y-104477947D01*
X59644881Y-104608862D01*
X59649677Y-104616325D01*
X59647154Y-104617946D01*
X59669942Y-104667846D01*
X59659998Y-104737004D01*
X59648952Y-104754191D01*
X59649677Y-104754657D01*
X59644881Y-104762119D01*
X59585093Y-104893034D01*
X59564612Y-105035491D01*
X59585093Y-105177947D01*
X59644881Y-105308862D01*
X59644882Y-105308864D01*
X59739131Y-105417634D01*
X59860206Y-105495444D01*
X59860209Y-105495445D01*
X59860208Y-105495445D01*
X59998295Y-105535990D01*
X59998297Y-105535991D01*
X59998298Y-105535991D01*
X60142221Y-105535991D01*
X60142221Y-105535990D01*
X60280312Y-105495444D01*
X60401387Y-105417634D01*
X60495636Y-105308864D01*
X60555424Y-105177948D01*
X60575906Y-105035491D01*
X60555424Y-104893034D01*
X60495636Y-104762118D01*
X60495629Y-104762110D01*
X60490841Y-104754658D01*
X60493367Y-104753034D01*
X60470579Y-104703165D01*
X60480507Y-104634004D01*
X60491569Y-104616791D01*
X60490841Y-104616324D01*
X60495627Y-104608873D01*
X60495636Y-104608864D01*
X60555424Y-104477948D01*
X60575906Y-104335491D01*
X60555424Y-104193034D01*
X60495636Y-104062118D01*
X60401387Y-103953348D01*
X60280312Y-103875538D01*
X60280310Y-103875537D01*
X60280308Y-103875536D01*
X60280309Y-103875536D01*
X60142222Y-103834991D01*
X60142220Y-103834991D01*
X59998298Y-103834991D01*
X59998295Y-103834991D01*
X59860208Y-103875536D01*
X59739132Y-103953347D01*
X59644882Y-104062117D01*
X59644881Y-104062119D01*
X59585093Y-104193034D01*
X59564612Y-104335491D01*
X57510259Y-104335491D01*
X57510259Y-101835491D01*
X64664612Y-101835491D01*
X64685093Y-101977947D01*
X64723534Y-102062119D01*
X64744882Y-102108864D01*
X64839131Y-102217634D01*
X64960206Y-102295444D01*
X64960209Y-102295445D01*
X64960208Y-102295445D01*
X65067366Y-102326908D01*
X65096595Y-102335491D01*
X65098295Y-102335990D01*
X65098297Y-102335991D01*
X65098298Y-102335991D01*
X65242221Y-102335991D01*
X65242221Y-102335990D01*
X65380312Y-102295444D01*
X65501387Y-102217634D01*
X65595636Y-102108864D01*
X65655424Y-101977948D01*
X65675906Y-101835491D01*
X65924612Y-101835491D01*
X65945093Y-101977947D01*
X65983534Y-102062119D01*
X66004882Y-102108864D01*
X66099131Y-102217634D01*
X66220206Y-102295444D01*
X66220209Y-102295445D01*
X66220208Y-102295445D01*
X66327366Y-102326908D01*
X66356595Y-102335491D01*
X66358295Y-102335990D01*
X66358297Y-102335991D01*
X66358298Y-102335991D01*
X66502221Y-102335991D01*
X66502221Y-102335990D01*
X66640312Y-102295444D01*
X66761387Y-102217634D01*
X66855636Y-102108864D01*
X66915424Y-101977948D01*
X66935906Y-101835491D01*
X67194612Y-101835491D01*
X67215093Y-101977947D01*
X67253534Y-102062119D01*
X67274882Y-102108864D01*
X67369131Y-102217634D01*
X67490206Y-102295444D01*
X67490209Y-102295445D01*
X67490208Y-102295445D01*
X67597366Y-102326908D01*
X67626595Y-102335491D01*
X67628295Y-102335990D01*
X67628297Y-102335991D01*
X67628298Y-102335991D01*
X67772221Y-102335991D01*
X67772221Y-102335990D01*
X67910312Y-102295444D01*
X68031387Y-102217634D01*
X68125636Y-102108864D01*
X68185424Y-101977948D01*
X68205906Y-101835491D01*
X68464612Y-101835491D01*
X68485093Y-101977947D01*
X68523534Y-102062119D01*
X68544882Y-102108864D01*
X68639131Y-102217634D01*
X68760206Y-102295444D01*
X68760209Y-102295445D01*
X68760208Y-102295445D01*
X68867366Y-102326908D01*
X68896595Y-102335491D01*
X68898295Y-102335990D01*
X68898297Y-102335991D01*
X68898298Y-102335991D01*
X69042221Y-102335991D01*
X69042221Y-102335990D01*
X69180312Y-102295444D01*
X69301387Y-102217634D01*
X69395636Y-102108864D01*
X69455424Y-101977948D01*
X69475906Y-101835491D01*
X69764612Y-101835491D01*
X69785093Y-101977947D01*
X69823534Y-102062119D01*
X69844882Y-102108864D01*
X69939131Y-102217634D01*
X70060206Y-102295444D01*
X70060209Y-102295445D01*
X70060208Y-102295445D01*
X70167366Y-102326908D01*
X70196595Y-102335491D01*
X70198295Y-102335990D01*
X70198297Y-102335991D01*
X70198298Y-102335991D01*
X70342221Y-102335991D01*
X70342221Y-102335990D01*
X70343920Y-102335491D01*
X75964612Y-102335491D01*
X75985093Y-102477947D01*
X76044881Y-102608862D01*
X76044882Y-102608864D01*
X76139131Y-102717634D01*
X76260206Y-102795444D01*
X76260209Y-102795445D01*
X76260208Y-102795445D01*
X76398295Y-102835990D01*
X76398297Y-102835991D01*
X76398298Y-102835991D01*
X76542221Y-102835991D01*
X76542221Y-102835990D01*
X76680312Y-102795444D01*
X76801387Y-102717634D01*
X76872564Y-102635491D01*
X122064612Y-102635491D01*
X122085093Y-102777947D01*
X122144881Y-102908862D01*
X122144882Y-102908864D01*
X122239131Y-103017634D01*
X122360206Y-103095444D01*
X122360209Y-103095445D01*
X122360208Y-103095445D01*
X122498295Y-103135990D01*
X122498297Y-103135991D01*
X122498298Y-103135991D01*
X122642221Y-103135991D01*
X122642221Y-103135990D01*
X122780312Y-103095444D01*
X122901387Y-103017634D01*
X122995636Y-102908864D01*
X123055424Y-102777948D01*
X123075906Y-102635491D01*
X123055424Y-102493034D01*
X122995636Y-102362118D01*
X122901387Y-102253348D01*
X122780312Y-102175538D01*
X122780310Y-102175537D01*
X122780308Y-102175536D01*
X122780309Y-102175536D01*
X122642222Y-102134991D01*
X122642220Y-102134991D01*
X122498298Y-102134991D01*
X122498295Y-102134991D01*
X122360208Y-102175536D01*
X122239132Y-102253347D01*
X122144882Y-102362117D01*
X122144881Y-102362119D01*
X122085093Y-102493034D01*
X122064612Y-102635491D01*
X76872564Y-102635491D01*
X76895636Y-102608864D01*
X76955424Y-102477948D01*
X76975906Y-102335491D01*
X76955424Y-102193034D01*
X76895636Y-102062118D01*
X76801387Y-101953348D01*
X76680312Y-101875538D01*
X76680310Y-101875537D01*
X76680308Y-101875536D01*
X76680309Y-101875536D01*
X76542222Y-101834991D01*
X76542220Y-101834991D01*
X76398298Y-101834991D01*
X76398295Y-101834991D01*
X76260208Y-101875536D01*
X76139132Y-101953347D01*
X76044882Y-102062117D01*
X76044881Y-102062119D01*
X75985093Y-102193034D01*
X75964612Y-102335491D01*
X70343920Y-102335491D01*
X70480312Y-102295444D01*
X70601387Y-102217634D01*
X70695636Y-102108864D01*
X70755424Y-101977948D01*
X70775906Y-101835491D01*
X70755424Y-101693034D01*
X70729145Y-101635491D01*
X121064612Y-101635491D01*
X121085093Y-101777947D01*
X121111145Y-101834991D01*
X121144882Y-101908864D01*
X121239131Y-102017634D01*
X121360206Y-102095444D01*
X121360209Y-102095445D01*
X121360208Y-102095445D01*
X121467366Y-102126908D01*
X121494892Y-102134991D01*
X121498295Y-102135990D01*
X121498297Y-102135991D01*
X121498298Y-102135991D01*
X121642221Y-102135991D01*
X121642221Y-102135990D01*
X121780312Y-102095444D01*
X121901387Y-102017634D01*
X121995636Y-101908864D01*
X122055424Y-101777948D01*
X122075906Y-101635491D01*
X123064612Y-101635491D01*
X123085093Y-101777947D01*
X123111145Y-101834991D01*
X123144882Y-101908864D01*
X123239131Y-102017634D01*
X123360206Y-102095444D01*
X123360209Y-102095445D01*
X123360208Y-102095445D01*
X123467366Y-102126908D01*
X123494892Y-102134991D01*
X123498295Y-102135990D01*
X123498297Y-102135991D01*
X123498298Y-102135991D01*
X123642221Y-102135991D01*
X123642221Y-102135990D01*
X123780312Y-102095444D01*
X123901387Y-102017634D01*
X123995636Y-101908864D01*
X124055424Y-101777948D01*
X124075906Y-101635491D01*
X124055424Y-101493034D01*
X123995636Y-101362118D01*
X123901387Y-101253348D01*
X123780312Y-101175538D01*
X123780310Y-101175537D01*
X123780308Y-101175536D01*
X123780309Y-101175536D01*
X123642222Y-101134991D01*
X123642220Y-101134991D01*
X123498298Y-101134991D01*
X123498295Y-101134991D01*
X123360208Y-101175536D01*
X123239132Y-101253347D01*
X123144882Y-101362117D01*
X123144881Y-101362119D01*
X123085093Y-101493034D01*
X123064612Y-101635491D01*
X122075906Y-101635491D01*
X122055424Y-101493034D01*
X121995636Y-101362118D01*
X121901387Y-101253348D01*
X121780312Y-101175538D01*
X121780310Y-101175537D01*
X121780308Y-101175536D01*
X121780309Y-101175536D01*
X121642222Y-101134991D01*
X121642220Y-101134991D01*
X121498298Y-101134991D01*
X121498295Y-101134991D01*
X121360208Y-101175536D01*
X121239132Y-101253347D01*
X121144882Y-101362117D01*
X121144881Y-101362119D01*
X121085093Y-101493034D01*
X121064612Y-101635491D01*
X70729145Y-101635491D01*
X70695636Y-101562118D01*
X70601387Y-101453348D01*
X70480312Y-101375538D01*
X70480310Y-101375537D01*
X70480308Y-101375536D01*
X70480309Y-101375536D01*
X70342222Y-101334991D01*
X70342220Y-101334991D01*
X70198298Y-101334991D01*
X70198295Y-101334991D01*
X70060208Y-101375536D01*
X69939132Y-101453347D01*
X69844882Y-101562117D01*
X69844881Y-101562119D01*
X69785093Y-101693034D01*
X69764612Y-101835491D01*
X69475906Y-101835491D01*
X69455424Y-101693034D01*
X69395636Y-101562118D01*
X69301387Y-101453348D01*
X69180312Y-101375538D01*
X69180310Y-101375537D01*
X69180308Y-101375536D01*
X69180309Y-101375536D01*
X69042222Y-101334991D01*
X69042220Y-101334991D01*
X68898298Y-101334991D01*
X68898295Y-101334991D01*
X68760208Y-101375536D01*
X68639132Y-101453347D01*
X68544882Y-101562117D01*
X68544881Y-101562119D01*
X68485093Y-101693034D01*
X68464612Y-101835491D01*
X68205906Y-101835491D01*
X68185424Y-101693034D01*
X68125636Y-101562118D01*
X68031387Y-101453348D01*
X67910312Y-101375538D01*
X67910310Y-101375537D01*
X67910308Y-101375536D01*
X67910309Y-101375536D01*
X67772222Y-101334991D01*
X67772220Y-101334991D01*
X67628298Y-101334991D01*
X67628295Y-101334991D01*
X67490208Y-101375536D01*
X67369132Y-101453347D01*
X67274882Y-101562117D01*
X67274881Y-101562119D01*
X67215093Y-101693034D01*
X67194612Y-101835491D01*
X66935906Y-101835491D01*
X66915424Y-101693034D01*
X66855636Y-101562118D01*
X66761387Y-101453348D01*
X66640312Y-101375538D01*
X66640310Y-101375537D01*
X66640308Y-101375536D01*
X66640309Y-101375536D01*
X66502222Y-101334991D01*
X66502220Y-101334991D01*
X66358298Y-101334991D01*
X66358295Y-101334991D01*
X66220208Y-101375536D01*
X66099132Y-101453347D01*
X66004882Y-101562117D01*
X66004881Y-101562119D01*
X65945093Y-101693034D01*
X65924612Y-101835491D01*
X65675906Y-101835491D01*
X65655424Y-101693034D01*
X65595636Y-101562118D01*
X65501387Y-101453348D01*
X65380312Y-101375538D01*
X65380310Y-101375537D01*
X65380308Y-101375536D01*
X65380309Y-101375536D01*
X65242222Y-101334991D01*
X65242220Y-101334991D01*
X65098298Y-101334991D01*
X65098295Y-101334991D01*
X64960208Y-101375536D01*
X64839132Y-101453347D01*
X64744882Y-101562117D01*
X64744881Y-101562119D01*
X64685093Y-101693034D01*
X64664612Y-101835491D01*
X57510259Y-101835491D01*
X57510259Y-99835491D01*
X58664606Y-99835491D01*
X58685087Y-99977947D01*
X58744875Y-100108862D01*
X58744876Y-100108864D01*
X58839125Y-100217634D01*
X58960200Y-100295444D01*
X58960203Y-100295445D01*
X58960202Y-100295445D01*
X59098289Y-100335990D01*
X59098291Y-100335991D01*
X59098292Y-100335991D01*
X59242215Y-100335991D01*
X59242215Y-100335990D01*
X59380303Y-100295445D01*
X59380304Y-100295445D01*
X59380306Y-100295444D01*
X59501381Y-100217634D01*
X59501382Y-100217631D01*
X59503214Y-100216455D01*
X59570253Y-100196770D01*
X59637293Y-100216454D01*
X59637294Y-100216455D01*
X59639127Y-100217633D01*
X59639128Y-100217634D01*
X59699186Y-100256230D01*
X59760204Y-100295445D01*
X59898292Y-100335990D01*
X59898294Y-100335991D01*
X59898295Y-100335991D01*
X60042218Y-100335991D01*
X60042218Y-100335990D01*
X60180306Y-100295445D01*
X60180307Y-100295445D01*
X60180309Y-100295444D01*
X60301384Y-100217634D01*
X60301385Y-100217631D01*
X60303217Y-100216455D01*
X60370256Y-100196770D01*
X60437296Y-100216454D01*
X60437297Y-100216455D01*
X60439130Y-100217633D01*
X60439131Y-100217634D01*
X60499189Y-100256230D01*
X60560207Y-100295445D01*
X60698295Y-100335990D01*
X60698297Y-100335991D01*
X60698298Y-100335991D01*
X60842221Y-100335991D01*
X60842221Y-100335990D01*
X60980312Y-100295444D01*
X61101387Y-100217634D01*
X61195636Y-100108864D01*
X61255424Y-99977948D01*
X61275906Y-99835491D01*
X61255424Y-99693034D01*
X61195636Y-99562118D01*
X61101387Y-99453348D01*
X60980312Y-99375538D01*
X60980310Y-99375537D01*
X60980308Y-99375536D01*
X60980309Y-99375536D01*
X60842222Y-99334991D01*
X60842220Y-99334991D01*
X60698298Y-99334991D01*
X60698295Y-99334991D01*
X60560208Y-99375536D01*
X60437296Y-99454527D01*
X60370257Y-99474211D01*
X60303218Y-99454526D01*
X60180311Y-99375538D01*
X60180306Y-99375536D01*
X60042219Y-99334991D01*
X60042217Y-99334991D01*
X59898295Y-99334991D01*
X59898292Y-99334991D01*
X59760205Y-99375536D01*
X59637293Y-99454527D01*
X59570254Y-99474211D01*
X59503215Y-99454526D01*
X59380308Y-99375538D01*
X59380303Y-99375536D01*
X59242216Y-99334991D01*
X59242214Y-99334991D01*
X59098292Y-99334991D01*
X59098289Y-99334991D01*
X58960202Y-99375536D01*
X58839126Y-99453347D01*
X58839125Y-99453347D01*
X58839125Y-99453348D01*
X58826543Y-99467868D01*
X58744876Y-99562117D01*
X58744875Y-99562119D01*
X58685087Y-99693034D01*
X58664606Y-99835491D01*
X57510259Y-99835491D01*
X57510259Y-98935491D01*
X73544612Y-98935491D01*
X73565093Y-99077947D01*
X73624881Y-99208862D01*
X73624882Y-99208864D01*
X73719131Y-99317634D01*
X73840206Y-99395444D01*
X73840209Y-99395445D01*
X73840208Y-99395445D01*
X73978295Y-99435990D01*
X73978297Y-99435991D01*
X73978298Y-99435991D01*
X74122221Y-99435991D01*
X74122221Y-99435990D01*
X74260312Y-99395444D01*
X74381387Y-99317634D01*
X74475636Y-99208864D01*
X74535424Y-99077948D01*
X74555906Y-98935491D01*
X74535424Y-98793034D01*
X74475636Y-98662118D01*
X74381387Y-98553348D01*
X74260312Y-98475538D01*
X74260310Y-98475537D01*
X74260308Y-98475536D01*
X74260309Y-98475536D01*
X74122222Y-98434991D01*
X74122220Y-98434991D01*
X73978298Y-98434991D01*
X73978295Y-98434991D01*
X73840208Y-98475536D01*
X73719132Y-98553347D01*
X73624882Y-98662117D01*
X73624881Y-98662119D01*
X73565093Y-98793034D01*
X73544612Y-98935491D01*
X57510259Y-98935491D01*
X57510259Y-98035491D01*
X125064612Y-98035491D01*
X125085093Y-98177947D01*
X125144881Y-98308862D01*
X125144882Y-98308864D01*
X125239131Y-98417634D01*
X125360206Y-98495444D01*
X125360209Y-98495445D01*
X125360208Y-98495445D01*
X125498295Y-98535990D01*
X125498297Y-98535991D01*
X125498298Y-98535991D01*
X125642221Y-98535991D01*
X125642221Y-98535990D01*
X125780312Y-98495444D01*
X125901387Y-98417634D01*
X125995636Y-98308864D01*
X126055424Y-98177948D01*
X126075906Y-98035491D01*
X126055424Y-97893034D01*
X125995636Y-97762118D01*
X125901387Y-97653348D01*
X125780312Y-97575538D01*
X125780310Y-97575537D01*
X125780308Y-97575536D01*
X125780309Y-97575536D01*
X125642222Y-97534991D01*
X125642220Y-97534991D01*
X125498298Y-97534991D01*
X125498295Y-97534991D01*
X125360208Y-97575536D01*
X125239132Y-97653347D01*
X125144882Y-97762117D01*
X125144881Y-97762119D01*
X125085093Y-97893034D01*
X125064612Y-98035491D01*
X57510259Y-98035491D01*
X57510259Y-96235491D01*
X73564612Y-96235491D01*
X73585093Y-96377947D01*
X73644881Y-96508862D01*
X73644882Y-96508864D01*
X73739131Y-96617634D01*
X73860206Y-96695444D01*
X73860209Y-96695445D01*
X73860208Y-96695445D01*
X73998295Y-96735990D01*
X73998297Y-96735991D01*
X73998298Y-96735991D01*
X74142221Y-96735991D01*
X74142221Y-96735990D01*
X74280312Y-96695444D01*
X74401387Y-96617634D01*
X74495636Y-96508864D01*
X74555424Y-96377948D01*
X74575906Y-96235491D01*
X74555424Y-96093034D01*
X74495636Y-95962118D01*
X74401387Y-95853348D01*
X74280312Y-95775538D01*
X74280310Y-95775537D01*
X74280308Y-95775536D01*
X74280309Y-95775536D01*
X74142222Y-95734991D01*
X74142220Y-95734991D01*
X73998298Y-95734991D01*
X73998295Y-95734991D01*
X73860208Y-95775536D01*
X73739132Y-95853347D01*
X73644882Y-95962117D01*
X73644881Y-95962119D01*
X73585093Y-96093034D01*
X73564612Y-96235491D01*
X57510259Y-96235491D01*
X57510259Y-94735491D01*
X78064612Y-94735491D01*
X78085093Y-94877947D01*
X78144881Y-95008862D01*
X78144882Y-95008864D01*
X78239131Y-95117634D01*
X78360206Y-95195444D01*
X78360209Y-95195445D01*
X78360208Y-95195445D01*
X78498295Y-95235990D01*
X78498297Y-95235991D01*
X78498298Y-95235991D01*
X78642221Y-95235991D01*
X78642221Y-95235990D01*
X78780312Y-95195444D01*
X78901387Y-95117634D01*
X78995636Y-95008864D01*
X79055424Y-94877948D01*
X79075906Y-94735491D01*
X79055424Y-94593034D01*
X78995636Y-94462118D01*
X78901387Y-94353348D01*
X78780312Y-94275538D01*
X78780310Y-94275537D01*
X78780308Y-94275536D01*
X78780309Y-94275536D01*
X78642222Y-94234991D01*
X78642220Y-94234991D01*
X78498298Y-94234991D01*
X78498295Y-94234991D01*
X78360208Y-94275536D01*
X78239132Y-94353347D01*
X78144882Y-94462117D01*
X78144881Y-94462119D01*
X78085093Y-94593034D01*
X78064612Y-94735491D01*
X57510259Y-94735491D01*
X57510259Y-92435491D01*
X121064612Y-92435491D01*
X121085093Y-92577947D01*
X121144881Y-92708862D01*
X121144882Y-92708864D01*
X121239131Y-92817634D01*
X121360206Y-92895444D01*
X121360209Y-92895445D01*
X121360208Y-92895445D01*
X121498295Y-92935990D01*
X121498297Y-92935991D01*
X121498298Y-92935991D01*
X121642221Y-92935991D01*
X121642221Y-92935990D01*
X121780312Y-92895444D01*
X121901387Y-92817634D01*
X121995636Y-92708864D01*
X122055424Y-92577948D01*
X122075906Y-92435491D01*
X122055424Y-92293034D01*
X121995636Y-92162118D01*
X121901387Y-92053348D01*
X121780312Y-91975538D01*
X121780310Y-91975537D01*
X121780308Y-91975536D01*
X121780309Y-91975536D01*
X121642222Y-91934991D01*
X121642220Y-91934991D01*
X121498298Y-91934991D01*
X121498295Y-91934991D01*
X121360208Y-91975536D01*
X121239132Y-92053347D01*
X121144882Y-92162117D01*
X121144881Y-92162119D01*
X121085093Y-92293034D01*
X121064612Y-92435491D01*
X57510259Y-92435491D01*
X57510259Y-91235491D01*
X73564612Y-91235491D01*
X73585093Y-91377947D01*
X73644881Y-91508862D01*
X73644882Y-91508864D01*
X73739131Y-91617634D01*
X73860206Y-91695444D01*
X73860209Y-91695445D01*
X73860208Y-91695445D01*
X73998295Y-91735990D01*
X73998297Y-91735991D01*
X73998298Y-91735991D01*
X74142221Y-91735991D01*
X74142221Y-91735990D01*
X74280312Y-91695444D01*
X74401387Y-91617634D01*
X74495636Y-91508864D01*
X74555424Y-91377948D01*
X74575906Y-91235491D01*
X74555424Y-91093034D01*
X74495636Y-90962118D01*
X74401387Y-90853348D01*
X74280312Y-90775538D01*
X74280310Y-90775537D01*
X74280308Y-90775536D01*
X74280309Y-90775536D01*
X74142222Y-90734991D01*
X74142220Y-90734991D01*
X73998298Y-90734991D01*
X73998295Y-90734991D01*
X73860208Y-90775536D01*
X73739132Y-90853347D01*
X73644882Y-90962117D01*
X73644881Y-90962119D01*
X73585093Y-91093034D01*
X73564612Y-91235491D01*
X57510259Y-91235491D01*
X57510259Y-88535491D01*
X74764612Y-88535491D01*
X74785093Y-88677947D01*
X74830763Y-88777948D01*
X74844882Y-88808864D01*
X74939131Y-88917634D01*
X75060206Y-88995444D01*
X75060209Y-88995445D01*
X75060208Y-88995445D01*
X75198295Y-89035990D01*
X75198297Y-89035991D01*
X75198298Y-89035991D01*
X75342221Y-89035991D01*
X75342221Y-89035990D01*
X75480312Y-88995444D01*
X75601387Y-88917634D01*
X75695636Y-88808864D01*
X75755424Y-88677948D01*
X75761528Y-88635491D01*
X105964612Y-88635491D01*
X105985093Y-88777947D01*
X105999212Y-88808862D01*
X106044882Y-88908864D01*
X106139131Y-89017634D01*
X106260206Y-89095444D01*
X106260209Y-89095445D01*
X106260208Y-89095445D01*
X106398295Y-89135990D01*
X106398297Y-89135991D01*
X106398298Y-89135991D01*
X106542221Y-89135991D01*
X106542221Y-89135990D01*
X106680312Y-89095444D01*
X106801387Y-89017634D01*
X106895636Y-88908864D01*
X106955424Y-88777948D01*
X106975906Y-88635491D01*
X106955424Y-88493034D01*
X106895636Y-88362118D01*
X106801387Y-88253348D01*
X106680312Y-88175538D01*
X106680310Y-88175537D01*
X106680308Y-88175536D01*
X106680309Y-88175536D01*
X106542222Y-88134991D01*
X106542220Y-88134991D01*
X106398298Y-88134991D01*
X106398295Y-88134991D01*
X106260208Y-88175536D01*
X106139132Y-88253347D01*
X106044882Y-88362117D01*
X106044881Y-88362119D01*
X105985093Y-88493034D01*
X105964612Y-88635491D01*
X75761528Y-88635491D01*
X75775906Y-88535491D01*
X75755424Y-88393034D01*
X75695636Y-88262118D01*
X75601387Y-88153348D01*
X75480312Y-88075538D01*
X75480310Y-88075537D01*
X75480308Y-88075536D01*
X75480309Y-88075536D01*
X75342222Y-88034991D01*
X75342220Y-88034991D01*
X75198298Y-88034991D01*
X75198295Y-88034991D01*
X75060208Y-88075536D01*
X74939132Y-88153347D01*
X74844882Y-88262117D01*
X74844881Y-88262119D01*
X74785093Y-88393034D01*
X74764612Y-88535491D01*
X57510259Y-88535491D01*
X57510259Y-87935491D01*
X60864612Y-87935491D01*
X60885093Y-88077947D01*
X60911145Y-88134991D01*
X60944882Y-88208864D01*
X61039131Y-88317634D01*
X61160206Y-88395444D01*
X61160209Y-88395445D01*
X61160208Y-88395445D01*
X61298295Y-88435990D01*
X61298297Y-88435991D01*
X61298298Y-88435991D01*
X61442221Y-88435991D01*
X61442221Y-88435990D01*
X61580312Y-88395444D01*
X61701387Y-88317634D01*
X61795636Y-88208864D01*
X61855424Y-88077948D01*
X61855424Y-88077946D01*
X61857465Y-88073478D01*
X61903220Y-88020674D01*
X61970259Y-88000990D01*
X62037299Y-88020675D01*
X62083053Y-88073478D01*
X62085093Y-88077946D01*
X62085094Y-88077948D01*
X62144882Y-88208864D01*
X62239131Y-88317634D01*
X62360206Y-88395444D01*
X62360209Y-88395445D01*
X62360208Y-88395445D01*
X62498295Y-88435990D01*
X62498297Y-88435991D01*
X62498298Y-88435991D01*
X62642221Y-88435991D01*
X62642221Y-88435990D01*
X62780312Y-88395444D01*
X62901387Y-88317634D01*
X62995636Y-88208864D01*
X63055424Y-88077948D01*
X63075906Y-87935491D01*
X63055424Y-87793034D01*
X62995636Y-87662118D01*
X62901387Y-87553348D01*
X62780312Y-87475538D01*
X62780310Y-87475537D01*
X62780308Y-87475536D01*
X62780309Y-87475536D01*
X62642222Y-87434991D01*
X62642220Y-87434991D01*
X62498298Y-87434991D01*
X62498295Y-87434991D01*
X62360208Y-87475536D01*
X62239132Y-87553347D01*
X62144882Y-87662117D01*
X62144881Y-87662119D01*
X62083053Y-87797503D01*
X62037298Y-87850307D01*
X61970259Y-87869991D01*
X61903219Y-87850306D01*
X61857465Y-87797503D01*
X61850998Y-87783342D01*
X61795636Y-87662118D01*
X61701387Y-87553348D01*
X61580312Y-87475538D01*
X61580310Y-87475537D01*
X61580308Y-87475536D01*
X61580309Y-87475536D01*
X61442222Y-87434991D01*
X61442220Y-87434991D01*
X61298298Y-87434991D01*
X61298295Y-87434991D01*
X61160208Y-87475536D01*
X61039132Y-87553347D01*
X60944882Y-87662117D01*
X60944881Y-87662119D01*
X60885093Y-87793034D01*
X60864612Y-87935491D01*
X57510259Y-87935491D01*
X57510259Y-86835491D01*
X69764612Y-86835491D01*
X69785093Y-86977947D01*
X69823534Y-87062119D01*
X69844882Y-87108864D01*
X69939131Y-87217634D01*
X70060206Y-87295444D01*
X70060209Y-87295445D01*
X70060208Y-87295445D01*
X70167366Y-87326908D01*
X70196595Y-87335491D01*
X70198295Y-87335990D01*
X70198297Y-87335991D01*
X70198298Y-87335991D01*
X70342221Y-87335991D01*
X70342221Y-87335990D01*
X70480312Y-87295444D01*
X70601387Y-87217634D01*
X70695636Y-87108864D01*
X70755424Y-86977948D01*
X70775906Y-86835491D01*
X74764612Y-86835491D01*
X74785093Y-86977947D01*
X74823534Y-87062119D01*
X74844882Y-87108864D01*
X74939131Y-87217634D01*
X75060206Y-87295444D01*
X75060209Y-87295445D01*
X75060208Y-87295445D01*
X75167366Y-87326908D01*
X75196595Y-87335491D01*
X75198295Y-87335990D01*
X75198297Y-87335991D01*
X75198298Y-87335991D01*
X75342221Y-87335991D01*
X75342221Y-87335990D01*
X75343920Y-87335491D01*
X119064612Y-87335491D01*
X119085093Y-87477947D01*
X119119528Y-87553347D01*
X119144882Y-87608864D01*
X119239131Y-87717634D01*
X119360206Y-87795444D01*
X119360209Y-87795445D01*
X119360208Y-87795445D01*
X119498295Y-87835990D01*
X119498297Y-87835991D01*
X119498298Y-87835991D01*
X119642221Y-87835991D01*
X119642221Y-87835990D01*
X119780312Y-87795444D01*
X119901387Y-87717634D01*
X119995636Y-87608864D01*
X120055424Y-87477948D01*
X120075906Y-87335491D01*
X120055424Y-87193034D01*
X119995636Y-87062118D01*
X119901387Y-86953348D01*
X119780312Y-86875538D01*
X119780310Y-86875537D01*
X119780308Y-86875536D01*
X119780309Y-86875536D01*
X119642222Y-86834991D01*
X119642220Y-86834991D01*
X119498298Y-86834991D01*
X119498295Y-86834991D01*
X119360208Y-86875536D01*
X119239132Y-86953347D01*
X119144882Y-87062117D01*
X119144881Y-87062119D01*
X119085093Y-87193034D01*
X119064612Y-87335491D01*
X75343920Y-87335491D01*
X75480312Y-87295444D01*
X75601387Y-87217634D01*
X75695636Y-87108864D01*
X75755424Y-86977948D01*
X75775906Y-86835491D01*
X75755424Y-86693034D01*
X75695636Y-86562118D01*
X75601387Y-86453348D01*
X75480312Y-86375538D01*
X75480310Y-86375537D01*
X75480308Y-86375536D01*
X75480309Y-86375536D01*
X75342222Y-86334991D01*
X75342220Y-86334991D01*
X75198298Y-86334991D01*
X75198295Y-86334991D01*
X75060208Y-86375536D01*
X74939132Y-86453347D01*
X74844882Y-86562117D01*
X74844881Y-86562119D01*
X74785093Y-86693034D01*
X74764612Y-86835491D01*
X70775906Y-86835491D01*
X70755424Y-86693034D01*
X70695636Y-86562118D01*
X70601387Y-86453348D01*
X70480312Y-86375538D01*
X70480310Y-86375537D01*
X70480308Y-86375536D01*
X70480309Y-86375536D01*
X70342222Y-86334991D01*
X70342220Y-86334991D01*
X70198298Y-86334991D01*
X70198295Y-86334991D01*
X70060208Y-86375536D01*
X69939132Y-86453347D01*
X69844882Y-86562117D01*
X69844881Y-86562119D01*
X69785093Y-86693034D01*
X69764612Y-86835491D01*
X57510259Y-86835491D01*
X57510259Y-85435491D01*
X82015126Y-85435491D01*
X82033561Y-85563716D01*
X82040061Y-85577948D01*
X82087377Y-85681554D01*
X82172210Y-85779458D01*
X82281190Y-85849495D01*
X82405484Y-85885990D01*
X82405486Y-85885991D01*
X82405487Y-85885991D01*
X82535032Y-85885991D01*
X82535032Y-85885990D01*
X82659328Y-85849495D01*
X82768308Y-85779458D01*
X82853141Y-85681554D01*
X82906956Y-85563717D01*
X82925392Y-85435491D01*
X124364612Y-85435491D01*
X124385093Y-85577947D01*
X124432409Y-85681552D01*
X124444882Y-85708864D01*
X124539131Y-85817634D01*
X124660206Y-85895444D01*
X124660209Y-85895445D01*
X124660208Y-85895445D01*
X124798295Y-85935990D01*
X124798297Y-85935991D01*
X124798298Y-85935991D01*
X124942221Y-85935991D01*
X124942221Y-85935990D01*
X125080312Y-85895444D01*
X125201387Y-85817634D01*
X125295636Y-85708864D01*
X125355424Y-85577948D01*
X125375906Y-85435491D01*
X125355424Y-85293034D01*
X125295636Y-85162118D01*
X125201387Y-85053348D01*
X125080312Y-84975538D01*
X125080310Y-84975537D01*
X125080308Y-84975536D01*
X125080309Y-84975536D01*
X124942222Y-84934991D01*
X124942220Y-84934991D01*
X124798298Y-84934991D01*
X124798295Y-84934991D01*
X124660208Y-84975536D01*
X124539132Y-85053347D01*
X124444882Y-85162117D01*
X124444881Y-85162119D01*
X124385093Y-85293034D01*
X124364612Y-85435491D01*
X82925392Y-85435491D01*
X82906956Y-85307265D01*
X82853141Y-85189428D01*
X82768308Y-85091524D01*
X82659328Y-85021487D01*
X82659324Y-85021485D01*
X82659323Y-85021485D01*
X82535033Y-84984991D01*
X82535031Y-84984991D01*
X82405487Y-84984991D01*
X82405485Y-84984991D01*
X82281194Y-85021485D01*
X82281191Y-85021486D01*
X82281190Y-85021487D01*
X82231615Y-85053347D01*
X82172209Y-85091524D01*
X82087377Y-85189428D01*
X82087376Y-85189429D01*
X82033561Y-85307265D01*
X82015126Y-85435491D01*
X57510259Y-85435491D01*
X57510259Y-84035491D01*
X60864612Y-84035491D01*
X60885093Y-84177947D01*
X60944881Y-84308862D01*
X60944882Y-84308864D01*
X61039131Y-84417634D01*
X61160206Y-84495444D01*
X61160209Y-84495445D01*
X61160208Y-84495445D01*
X61298295Y-84535990D01*
X61298297Y-84535991D01*
X61298298Y-84535991D01*
X61442221Y-84535991D01*
X61442221Y-84535990D01*
X61580312Y-84495444D01*
X61701387Y-84417634D01*
X61795636Y-84308864D01*
X61855424Y-84177948D01*
X61875906Y-84035491D01*
X61855424Y-83893034D01*
X61795636Y-83762118D01*
X61701387Y-83653348D01*
X61580312Y-83575538D01*
X61580310Y-83575537D01*
X61580308Y-83575536D01*
X61580309Y-83575536D01*
X61442222Y-83534991D01*
X61442220Y-83534991D01*
X61298298Y-83534991D01*
X61298295Y-83534991D01*
X61160208Y-83575536D01*
X61039132Y-83653347D01*
X60944882Y-83762117D01*
X60944881Y-83762119D01*
X60885093Y-83893034D01*
X60864612Y-84035491D01*
X57510259Y-84035491D01*
X57510259Y-83235491D01*
X68464612Y-83235491D01*
X68485093Y-83377947D01*
X68523534Y-83462119D01*
X68544882Y-83508864D01*
X68639131Y-83617634D01*
X68760206Y-83695444D01*
X68760209Y-83695445D01*
X68760208Y-83695445D01*
X68867366Y-83726908D01*
X68896595Y-83735491D01*
X68898295Y-83735990D01*
X68898297Y-83735991D01*
X68898298Y-83735991D01*
X69042221Y-83735991D01*
X69042221Y-83735990D01*
X69043920Y-83735491D01*
X71064612Y-83735491D01*
X71085093Y-83877947D01*
X71144881Y-84008862D01*
X71144882Y-84008864D01*
X71239131Y-84117634D01*
X71360206Y-84195444D01*
X71360209Y-84195445D01*
X71360208Y-84195445D01*
X71498295Y-84235990D01*
X71498297Y-84235991D01*
X71498298Y-84235991D01*
X71642221Y-84235991D01*
X71642221Y-84235990D01*
X71780312Y-84195444D01*
X71901387Y-84117634D01*
X71995636Y-84008864D01*
X72055424Y-83877948D01*
X72075906Y-83735491D01*
X72364612Y-83735491D01*
X72385093Y-83877947D01*
X72444881Y-84008862D01*
X72444882Y-84008864D01*
X72539131Y-84117634D01*
X72660206Y-84195444D01*
X72660209Y-84195445D01*
X72660208Y-84195445D01*
X72798295Y-84235990D01*
X72798297Y-84235991D01*
X72798298Y-84235991D01*
X72942221Y-84235991D01*
X72942221Y-84235990D01*
X73080312Y-84195444D01*
X73201387Y-84117634D01*
X73295636Y-84008864D01*
X73355424Y-83877948D01*
X73355424Y-83877946D01*
X73357465Y-83873478D01*
X73403220Y-83820674D01*
X73470259Y-83800990D01*
X73537299Y-83820675D01*
X73583053Y-83873478D01*
X73585093Y-83877946D01*
X73585094Y-83877948D01*
X73644882Y-84008864D01*
X73739131Y-84117634D01*
X73860206Y-84195444D01*
X73860209Y-84195445D01*
X73860208Y-84195445D01*
X73998295Y-84235990D01*
X73998297Y-84235991D01*
X73998298Y-84235991D01*
X74142221Y-84235991D01*
X74142221Y-84235990D01*
X74280312Y-84195444D01*
X74401387Y-84117634D01*
X74495636Y-84008864D01*
X74555424Y-83877948D01*
X74575906Y-83735491D01*
X74555424Y-83593034D01*
X74495636Y-83462118D01*
X74401387Y-83353348D01*
X74280312Y-83275538D01*
X74280310Y-83275537D01*
X74280308Y-83275536D01*
X74280309Y-83275536D01*
X74142222Y-83234991D01*
X74142220Y-83234991D01*
X73998298Y-83234991D01*
X73998295Y-83234991D01*
X73860208Y-83275536D01*
X73739132Y-83353347D01*
X73644882Y-83462117D01*
X73644881Y-83462119D01*
X73583053Y-83597503D01*
X73537298Y-83650307D01*
X73470259Y-83669991D01*
X73403219Y-83650306D01*
X73357465Y-83597503D01*
X73316984Y-83508864D01*
X73295636Y-83462118D01*
X73201387Y-83353348D01*
X73080312Y-83275538D01*
X73080310Y-83275537D01*
X73080308Y-83275536D01*
X73080309Y-83275536D01*
X72942222Y-83234991D01*
X72942220Y-83234991D01*
X72798298Y-83234991D01*
X72798295Y-83234991D01*
X72660208Y-83275536D01*
X72539132Y-83353347D01*
X72444882Y-83462117D01*
X72444881Y-83462119D01*
X72385093Y-83593034D01*
X72364612Y-83735491D01*
X72075906Y-83735491D01*
X72055424Y-83593034D01*
X71995636Y-83462118D01*
X71901387Y-83353348D01*
X71780312Y-83275538D01*
X71780310Y-83275537D01*
X71780308Y-83275536D01*
X71780309Y-83275536D01*
X71642222Y-83234991D01*
X71642220Y-83234991D01*
X71498298Y-83234991D01*
X71498295Y-83234991D01*
X71360208Y-83275536D01*
X71239132Y-83353347D01*
X71144882Y-83462117D01*
X71144881Y-83462119D01*
X71085093Y-83593034D01*
X71064612Y-83735491D01*
X69043920Y-83735491D01*
X69180312Y-83695444D01*
X69301387Y-83617634D01*
X69395636Y-83508864D01*
X69455424Y-83377948D01*
X69475906Y-83235491D01*
X69455424Y-83093034D01*
X69395636Y-82962118D01*
X69301387Y-82853348D01*
X69180312Y-82775538D01*
X69180310Y-82775537D01*
X69180308Y-82775536D01*
X69180309Y-82775536D01*
X69042222Y-82734991D01*
X69042220Y-82734991D01*
X68898298Y-82734991D01*
X68898295Y-82734991D01*
X68760208Y-82775536D01*
X68639132Y-82853347D01*
X68544882Y-82962117D01*
X68544881Y-82962119D01*
X68485093Y-83093034D01*
X68464612Y-83235491D01*
X57510259Y-83235491D01*
X57510259Y-81835491D01*
X119064612Y-81835491D01*
X119085093Y-81977947D01*
X119103218Y-82017634D01*
X119144882Y-82108864D01*
X119239131Y-82217634D01*
X119360206Y-82295444D01*
X119360209Y-82295445D01*
X119360208Y-82295445D01*
X119498295Y-82335990D01*
X119498297Y-82335991D01*
X119498298Y-82335991D01*
X119642221Y-82335991D01*
X119642221Y-82335990D01*
X119780312Y-82295444D01*
X119901387Y-82217634D01*
X119995636Y-82108864D01*
X120055424Y-81977948D01*
X120075906Y-81835491D01*
X120055424Y-81693034D01*
X119995636Y-81562118D01*
X119901387Y-81453348D01*
X119780312Y-81375538D01*
X119780310Y-81375537D01*
X119780308Y-81375536D01*
X119780309Y-81375536D01*
X119642222Y-81334991D01*
X119642220Y-81334991D01*
X119498298Y-81334991D01*
X119498295Y-81334991D01*
X119360208Y-81375536D01*
X119239132Y-81453347D01*
X119144882Y-81562117D01*
X119144881Y-81562119D01*
X119085093Y-81693034D01*
X119064612Y-81835491D01*
X57510259Y-81835491D01*
X57510259Y-81235491D01*
X65164612Y-81235491D01*
X65185093Y-81377947D01*
X65244881Y-81508862D01*
X65244882Y-81508864D01*
X65339131Y-81617634D01*
X65460206Y-81695444D01*
X65460209Y-81695445D01*
X65460208Y-81695445D01*
X65598295Y-81735990D01*
X65598297Y-81735991D01*
X65598298Y-81735991D01*
X65742221Y-81735991D01*
X65742221Y-81735990D01*
X65880312Y-81695444D01*
X66001387Y-81617634D01*
X66095636Y-81508864D01*
X66155424Y-81377948D01*
X66175906Y-81235491D01*
X72164612Y-81235491D01*
X72185093Y-81377947D01*
X72244881Y-81508862D01*
X72244882Y-81508864D01*
X72339131Y-81617634D01*
X72460206Y-81695444D01*
X72460209Y-81695445D01*
X72460208Y-81695445D01*
X72598295Y-81735990D01*
X72598297Y-81735991D01*
X72598298Y-81735991D01*
X72742221Y-81735991D01*
X72742221Y-81735990D01*
X72880312Y-81695444D01*
X73001387Y-81617634D01*
X73095636Y-81508864D01*
X73155424Y-81377948D01*
X73175906Y-81235491D01*
X73155424Y-81093034D01*
X73095636Y-80962118D01*
X73001387Y-80853348D01*
X72880312Y-80775538D01*
X72880310Y-80775537D01*
X72880308Y-80775536D01*
X72880309Y-80775536D01*
X72743925Y-80735491D01*
X123864612Y-80735491D01*
X123885093Y-80877947D01*
X123923534Y-80962119D01*
X123944882Y-81008864D01*
X123994322Y-81065921D01*
X124027567Y-81104289D01*
X124056591Y-81167845D01*
X124046647Y-81237003D01*
X124027567Y-81266693D01*
X123944882Y-81362118D01*
X123944881Y-81362119D01*
X123885093Y-81493034D01*
X123864612Y-81635491D01*
X123885093Y-81777947D01*
X123911373Y-81835491D01*
X123944882Y-81908864D01*
X124039131Y-82017634D01*
X124160206Y-82095444D01*
X124160209Y-82095445D01*
X124160208Y-82095445D01*
X124298295Y-82135990D01*
X124298297Y-82135991D01*
X124298298Y-82135991D01*
X124442221Y-82135991D01*
X124442221Y-82135990D01*
X124580312Y-82095444D01*
X124701387Y-82017634D01*
X124795636Y-81908864D01*
X124855424Y-81777948D01*
X124875906Y-81635491D01*
X124855424Y-81493034D01*
X124795636Y-81362118D01*
X124712948Y-81266690D01*
X124683925Y-81203138D01*
X124693869Y-81133980D01*
X124712946Y-81104293D01*
X124795636Y-81008864D01*
X124855424Y-80877948D01*
X124875906Y-80735491D01*
X124855424Y-80593034D01*
X124795636Y-80462118D01*
X124701387Y-80353348D01*
X124580312Y-80275538D01*
X124580310Y-80275537D01*
X124580308Y-80275536D01*
X124580309Y-80275536D01*
X124442222Y-80234991D01*
X124442220Y-80234991D01*
X124298298Y-80234991D01*
X124298295Y-80234991D01*
X124160208Y-80275536D01*
X124039132Y-80353347D01*
X123944882Y-80462117D01*
X123944881Y-80462119D01*
X123885093Y-80593034D01*
X123864612Y-80735491D01*
X72743925Y-80735491D01*
X72742222Y-80734991D01*
X72742220Y-80734991D01*
X72598298Y-80734991D01*
X72598295Y-80734991D01*
X72460208Y-80775536D01*
X72339132Y-80853347D01*
X72244882Y-80962117D01*
X72244881Y-80962119D01*
X72185093Y-81093034D01*
X72164612Y-81235491D01*
X66175906Y-81235491D01*
X66155424Y-81093034D01*
X66095636Y-80962118D01*
X66001387Y-80853348D01*
X65880312Y-80775538D01*
X65880310Y-80775537D01*
X65880308Y-80775536D01*
X65880309Y-80775536D01*
X65742222Y-80734991D01*
X65742220Y-80734991D01*
X65598298Y-80734991D01*
X65598295Y-80734991D01*
X65460208Y-80775536D01*
X65339132Y-80853347D01*
X65244882Y-80962117D01*
X65244881Y-80962119D01*
X65185093Y-81093034D01*
X65164612Y-81235491D01*
X57510259Y-81235491D01*
X57510259Y-78635491D01*
X70064612Y-78635491D01*
X70085093Y-78777947D01*
X70144881Y-78908862D01*
X70144882Y-78908864D01*
X70239131Y-79017634D01*
X70360206Y-79095444D01*
X70360209Y-79095445D01*
X70360208Y-79095445D01*
X70498295Y-79135990D01*
X70498297Y-79135991D01*
X70498298Y-79135991D01*
X70642221Y-79135991D01*
X70642221Y-79135990D01*
X70780312Y-79095444D01*
X70901387Y-79017634D01*
X70995636Y-78908864D01*
X71055424Y-78777948D01*
X71075906Y-78635491D01*
X71055424Y-78493034D01*
X70995636Y-78362118D01*
X70901387Y-78253348D01*
X70780312Y-78175538D01*
X70780310Y-78175537D01*
X70780308Y-78175536D01*
X70780309Y-78175536D01*
X70642222Y-78134991D01*
X70642220Y-78134991D01*
X70498298Y-78134991D01*
X70498295Y-78134991D01*
X70360208Y-78175536D01*
X70239132Y-78253347D01*
X70144882Y-78362117D01*
X70144881Y-78362119D01*
X70085093Y-78493034D01*
X70064612Y-78635491D01*
X57510259Y-78635491D01*
X57510259Y-76235491D01*
X72364612Y-76235491D01*
X72385093Y-76377947D01*
X72444881Y-76508862D01*
X72444882Y-76508864D01*
X72539131Y-76617634D01*
X72660206Y-76695444D01*
X72660209Y-76695445D01*
X72660208Y-76695445D01*
X72798295Y-76735990D01*
X72798297Y-76735991D01*
X72798298Y-76735991D01*
X72942221Y-76735991D01*
X72942221Y-76735990D01*
X73080312Y-76695444D01*
X73201387Y-76617634D01*
X73295636Y-76508864D01*
X73355424Y-76377948D01*
X73375906Y-76235491D01*
X73355424Y-76093034D01*
X73295636Y-75962118D01*
X73201387Y-75853348D01*
X73080312Y-75775538D01*
X73080310Y-75775537D01*
X73080308Y-75775536D01*
X73080309Y-75775536D01*
X72942222Y-75734991D01*
X72942220Y-75734991D01*
X72798298Y-75734991D01*
X72798295Y-75734991D01*
X72660208Y-75775536D01*
X72539132Y-75853347D01*
X72444882Y-75962117D01*
X72444881Y-75962119D01*
X72385093Y-76093034D01*
X72364612Y-76235491D01*
X57510259Y-76235491D01*
X57510259Y-75535491D01*
X77864612Y-75535491D01*
X77885093Y-75677947D01*
X77911145Y-75734991D01*
X77944882Y-75808864D01*
X78039131Y-75917634D01*
X78160206Y-75995444D01*
X78160209Y-75995445D01*
X78160208Y-75995445D01*
X78298295Y-76035990D01*
X78298297Y-76035991D01*
X78298298Y-76035991D01*
X78442221Y-76035991D01*
X78442221Y-76035990D01*
X78580312Y-75995444D01*
X78701387Y-75917634D01*
X78795636Y-75808864D01*
X78855424Y-75677948D01*
X78875906Y-75535491D01*
X78855424Y-75393034D01*
X78795636Y-75262118D01*
X78701387Y-75153348D01*
X78580312Y-75075538D01*
X78580310Y-75075537D01*
X78580308Y-75075536D01*
X78580309Y-75075536D01*
X78442222Y-75034991D01*
X78442220Y-75034991D01*
X78298298Y-75034991D01*
X78298295Y-75034991D01*
X78160208Y-75075536D01*
X78039132Y-75153347D01*
X77944882Y-75262117D01*
X77944881Y-75262119D01*
X77885093Y-75393034D01*
X77864612Y-75535491D01*
X57510259Y-75535491D01*
X57510259Y-74135491D01*
X64564612Y-74135491D01*
X64585093Y-74277947D01*
X64644881Y-74408862D01*
X64644882Y-74408864D01*
X64739131Y-74517634D01*
X64860206Y-74595444D01*
X64860209Y-74595445D01*
X64860208Y-74595445D01*
X64998295Y-74635990D01*
X64998297Y-74635991D01*
X64998298Y-74635991D01*
X65142221Y-74635991D01*
X65142221Y-74635990D01*
X65280309Y-74595445D01*
X65280310Y-74595445D01*
X65280312Y-74595444D01*
X65401387Y-74517634D01*
X65401388Y-74517632D01*
X65403219Y-74516456D01*
X65470259Y-74496771D01*
X65537298Y-74516455D01*
X65537299Y-74516456D01*
X65539129Y-74517632D01*
X65539131Y-74517634D01*
X65616510Y-74567362D01*
X65660207Y-74595445D01*
X65798295Y-74635990D01*
X65798297Y-74635991D01*
X65798298Y-74635991D01*
X65942221Y-74635991D01*
X65942221Y-74635990D01*
X66080312Y-74595444D01*
X66201387Y-74517634D01*
X66295636Y-74408864D01*
X66355424Y-74277948D01*
X66375906Y-74135491D01*
X66355424Y-73993034D01*
X66295636Y-73862118D01*
X66201387Y-73753348D01*
X66080312Y-73675538D01*
X66080310Y-73675537D01*
X66080308Y-73675536D01*
X66080309Y-73675536D01*
X65943925Y-73635491D01*
X73364612Y-73635491D01*
X73385093Y-73777947D01*
X73423534Y-73862119D01*
X73444882Y-73908864D01*
X73539131Y-74017634D01*
X73660206Y-74095444D01*
X73660209Y-74095445D01*
X73660208Y-74095445D01*
X73767366Y-74126908D01*
X73796595Y-74135491D01*
X73798295Y-74135990D01*
X73798297Y-74135991D01*
X73798298Y-74135991D01*
X73942221Y-74135991D01*
X73942221Y-74135990D01*
X74080312Y-74095444D01*
X74201387Y-74017634D01*
X74295636Y-73908864D01*
X74355424Y-73777948D01*
X74375906Y-73635491D01*
X74355424Y-73493034D01*
X74295636Y-73362118D01*
X74201387Y-73253348D01*
X74080312Y-73175538D01*
X74080310Y-73175537D01*
X74080308Y-73175536D01*
X74080309Y-73175536D01*
X73942222Y-73134991D01*
X73942220Y-73134991D01*
X73798298Y-73134991D01*
X73798295Y-73134991D01*
X73660208Y-73175536D01*
X73539132Y-73253347D01*
X73444882Y-73362117D01*
X73444881Y-73362119D01*
X73385093Y-73493034D01*
X73364612Y-73635491D01*
X65943925Y-73635491D01*
X65942222Y-73634991D01*
X65942220Y-73634991D01*
X65798298Y-73634991D01*
X65798295Y-73634991D01*
X65660208Y-73675536D01*
X65537298Y-73754526D01*
X65470259Y-73774210D01*
X65403220Y-73754526D01*
X65401385Y-73753347D01*
X65280312Y-73675538D01*
X65280310Y-73675537D01*
X65280308Y-73675536D01*
X65280309Y-73675536D01*
X65142222Y-73634991D01*
X65142220Y-73634991D01*
X64998298Y-73634991D01*
X64998295Y-73634991D01*
X64860208Y-73675536D01*
X64739132Y-73753347D01*
X64644882Y-73862117D01*
X64644881Y-73862119D01*
X64585093Y-73993034D01*
X64564612Y-74135491D01*
X57510259Y-74135491D01*
X57510259Y-72713211D01*
X126575359Y-72713211D01*
X126604200Y-72858197D01*
X126604203Y-72858207D01*
X126660772Y-72994778D01*
X126660779Y-72994791D01*
X126742908Y-73117705D01*
X126742911Y-73117709D01*
X126847440Y-73222238D01*
X126847444Y-73222241D01*
X126970358Y-73304370D01*
X126970371Y-73304377D01*
X127106942Y-73360946D01*
X127106947Y-73360948D01*
X127106951Y-73360948D01*
X127106952Y-73360949D01*
X127251938Y-73389790D01*
X127251941Y-73389790D01*
X127399779Y-73389790D01*
X127497320Y-73370386D01*
X127544771Y-73360948D01*
X127681353Y-73304374D01*
X127804274Y-73222241D01*
X127908809Y-73117706D01*
X127990942Y-72994785D01*
X128047516Y-72858203D01*
X128076358Y-72713209D01*
X128076358Y-72565373D01*
X128076358Y-72565370D01*
X128047517Y-72420384D01*
X128047516Y-72420383D01*
X128047516Y-72420379D01*
X128047514Y-72420374D01*
X127990945Y-72283803D01*
X127990938Y-72283790D01*
X127908809Y-72160876D01*
X127908806Y-72160872D01*
X127804277Y-72056343D01*
X127804273Y-72056340D01*
X127681359Y-71974211D01*
X127681346Y-71974204D01*
X127544775Y-71917635D01*
X127544765Y-71917632D01*
X127399779Y-71888792D01*
X127399777Y-71888792D01*
X127251941Y-71888792D01*
X127251939Y-71888792D01*
X127106952Y-71917632D01*
X127106942Y-71917635D01*
X126970371Y-71974204D01*
X126970358Y-71974211D01*
X126847444Y-72056340D01*
X126847440Y-72056343D01*
X126742911Y-72160872D01*
X126742908Y-72160876D01*
X126660779Y-72283790D01*
X126660772Y-72283803D01*
X126604203Y-72420374D01*
X126604200Y-72420384D01*
X126575360Y-72565370D01*
X126575360Y-72565373D01*
X126575360Y-72713209D01*
X126575360Y-72713211D01*
X126575359Y-72713211D01*
X57510259Y-72713211D01*
X57510259Y-70375491D01*
X51425502Y-70375491D01*
X51358463Y-70355806D01*
X51312708Y-70303002D01*
X51301502Y-70251489D01*
X51301510Y-69835491D01*
X118964612Y-69835491D01*
X118985093Y-69977947D01*
X119023534Y-70062119D01*
X119044882Y-70108864D01*
X119139131Y-70217634D01*
X119260206Y-70295444D01*
X119260209Y-70295445D01*
X119260208Y-70295445D01*
X119367366Y-70326908D01*
X119396595Y-70335491D01*
X119398295Y-70335990D01*
X119398297Y-70335991D01*
X119398298Y-70335991D01*
X119542221Y-70335991D01*
X119542221Y-70335990D01*
X119543920Y-70335491D01*
X125064612Y-70335491D01*
X125085093Y-70477947D01*
X125144881Y-70608862D01*
X125144882Y-70608864D01*
X125239131Y-70717634D01*
X125360206Y-70795444D01*
X125360209Y-70795445D01*
X125360208Y-70795445D01*
X125498295Y-70835990D01*
X125498297Y-70835991D01*
X125498298Y-70835991D01*
X125642221Y-70835991D01*
X125642221Y-70835990D01*
X125780312Y-70795444D01*
X125901387Y-70717634D01*
X125995636Y-70608864D01*
X126055424Y-70477948D01*
X126075906Y-70335491D01*
X126055424Y-70193034D01*
X125995636Y-70062118D01*
X125901387Y-69953348D01*
X125780312Y-69875538D01*
X125780310Y-69875537D01*
X125780308Y-69875536D01*
X125780309Y-69875536D01*
X125642222Y-69834991D01*
X125642220Y-69834991D01*
X125498298Y-69834991D01*
X125498295Y-69834991D01*
X125360208Y-69875536D01*
X125239132Y-69953347D01*
X125144882Y-70062117D01*
X125144881Y-70062119D01*
X125085093Y-70193034D01*
X125064612Y-70335491D01*
X119543920Y-70335491D01*
X119680312Y-70295444D01*
X119801387Y-70217634D01*
X119895636Y-70108864D01*
X119955424Y-69977948D01*
X119975906Y-69835491D01*
X119955424Y-69693034D01*
X119895636Y-69562118D01*
X119801387Y-69453348D01*
X119680312Y-69375538D01*
X119680310Y-69375537D01*
X119680308Y-69375536D01*
X119680309Y-69375536D01*
X119542222Y-69334991D01*
X119542220Y-69334991D01*
X119398298Y-69334991D01*
X119398295Y-69334991D01*
X119260208Y-69375536D01*
X119139132Y-69453347D01*
X119044882Y-69562117D01*
X119044881Y-69562119D01*
X118985093Y-69693034D01*
X118964612Y-69835491D01*
X51301510Y-69835491D01*
X51301510Y-69834991D01*
X51301531Y-68735491D01*
X114764612Y-68735491D01*
X114785093Y-68877947D01*
X114844881Y-69008862D01*
X114844882Y-69008864D01*
X114939131Y-69117634D01*
X115060206Y-69195444D01*
X115060209Y-69195445D01*
X115060208Y-69195445D01*
X115198295Y-69235990D01*
X115198297Y-69235991D01*
X115198298Y-69235991D01*
X115342221Y-69235991D01*
X115342221Y-69235990D01*
X115480312Y-69195444D01*
X115601387Y-69117634D01*
X115695636Y-69008864D01*
X115755424Y-68877948D01*
X115775906Y-68735491D01*
X115755424Y-68593034D01*
X115695636Y-68462118D01*
X115601387Y-68353348D01*
X115480312Y-68275538D01*
X115480310Y-68275537D01*
X115480308Y-68275536D01*
X115480309Y-68275536D01*
X115342222Y-68234991D01*
X115342220Y-68234991D01*
X115198298Y-68234991D01*
X115198295Y-68234991D01*
X115060208Y-68275536D01*
X114939132Y-68353347D01*
X114844882Y-68462117D01*
X114844881Y-68462119D01*
X114785093Y-68593034D01*
X114764612Y-68735491D01*
X51301531Y-68735491D01*
X51301572Y-66535491D01*
X112864612Y-66535491D01*
X112885093Y-66677947D01*
X112944881Y-66808862D01*
X112944882Y-66808864D01*
X113039131Y-66917634D01*
X113160206Y-66995444D01*
X113160209Y-66995445D01*
X113160208Y-66995445D01*
X113298295Y-67035990D01*
X113298297Y-67035991D01*
X113298298Y-67035991D01*
X113442221Y-67035991D01*
X113442221Y-67035990D01*
X113580312Y-66995444D01*
X113701387Y-66917634D01*
X113795636Y-66808864D01*
X113855424Y-66677948D01*
X113875906Y-66535491D01*
X113855424Y-66393034D01*
X113795636Y-66262118D01*
X113701387Y-66153348D01*
X113580312Y-66075538D01*
X113580310Y-66075537D01*
X113580308Y-66075536D01*
X113580309Y-66075536D01*
X113442222Y-66034991D01*
X113442220Y-66034991D01*
X113298298Y-66034991D01*
X113298295Y-66034991D01*
X113160208Y-66075536D01*
X113039132Y-66153347D01*
X112944882Y-66262117D01*
X112944881Y-66262119D01*
X112885093Y-66393034D01*
X112864612Y-66535491D01*
X51301572Y-66535491D01*
X51301605Y-64737611D01*
X126575359Y-64737611D01*
X126604200Y-64882597D01*
X126604203Y-64882607D01*
X126660772Y-65019178D01*
X126660779Y-65019191D01*
X126742908Y-65142105D01*
X126742911Y-65142109D01*
X126847440Y-65246638D01*
X126847444Y-65246641D01*
X126970358Y-65328770D01*
X126970371Y-65328777D01*
X127106942Y-65385346D01*
X127106947Y-65385348D01*
X127106951Y-65385348D01*
X127106952Y-65385349D01*
X127251938Y-65414190D01*
X127251941Y-65414190D01*
X127399779Y-65414190D01*
X127497320Y-65394786D01*
X127544771Y-65385348D01*
X127681353Y-65328774D01*
X127804274Y-65246641D01*
X127908809Y-65142106D01*
X127990942Y-65019185D01*
X128047516Y-64882603D01*
X128076358Y-64737609D01*
X128076358Y-64589773D01*
X128076358Y-64589770D01*
X128047517Y-64444784D01*
X128047516Y-64444783D01*
X128047516Y-64444779D01*
X128011416Y-64357626D01*
X127990945Y-64308203D01*
X127990938Y-64308190D01*
X127908809Y-64185276D01*
X127908806Y-64185272D01*
X127804277Y-64080743D01*
X127804273Y-64080740D01*
X127681359Y-63998611D01*
X127681346Y-63998604D01*
X127544775Y-63942035D01*
X127544765Y-63942032D01*
X127399779Y-63913192D01*
X127399777Y-63913192D01*
X127251941Y-63913192D01*
X127251939Y-63913192D01*
X127106952Y-63942032D01*
X127106942Y-63942035D01*
X126970371Y-63998604D01*
X126970358Y-63998611D01*
X126847444Y-64080740D01*
X126847440Y-64080743D01*
X126742911Y-64185272D01*
X126742908Y-64185276D01*
X126660779Y-64308190D01*
X126660772Y-64308203D01*
X126604203Y-64444774D01*
X126604200Y-64444784D01*
X126575360Y-64589770D01*
X126575360Y-64589773D01*
X126575360Y-64737609D01*
X126575360Y-64737611D01*
X126575359Y-64737611D01*
X51301605Y-64737611D01*
X51301618Y-64059725D01*
X56494759Y-64059725D01*
X56494759Y-64211256D01*
X56533978Y-64357627D01*
X56571861Y-64423241D01*
X56609744Y-64488856D01*
X56716894Y-64596006D01*
X56848124Y-64671772D01*
X56994493Y-64710991D01*
X56994495Y-64710991D01*
X57146023Y-64710991D01*
X57146025Y-64710991D01*
X57292394Y-64671772D01*
X57423624Y-64596006D01*
X57530774Y-64488856D01*
X57606540Y-64357626D01*
X57645759Y-64211257D01*
X57645759Y-64059725D01*
X57606540Y-63913356D01*
X57530774Y-63782126D01*
X57423624Y-63674976D01*
X57358009Y-63637093D01*
X57292395Y-63599210D01*
X57219209Y-63579600D01*
X57146025Y-63559991D01*
X56994493Y-63559991D01*
X56848122Y-63599210D01*
X56716894Y-63674976D01*
X56716891Y-63674978D01*
X56609746Y-63782123D01*
X56609744Y-63782126D01*
X56533978Y-63913354D01*
X56494759Y-64059725D01*
X51301618Y-64059725D01*
X51301679Y-60810491D01*
X61864612Y-60810491D01*
X61885093Y-60952947D01*
X61922453Y-61034752D01*
X61944882Y-61083864D01*
X61997956Y-61145115D01*
X62005905Y-61154289D01*
X62034929Y-61217845D01*
X62024985Y-61287003D01*
X62005905Y-61316693D01*
X61944882Y-61387118D01*
X61944881Y-61387119D01*
X61885093Y-61518034D01*
X61864612Y-61660491D01*
X61885093Y-61802947D01*
X61922046Y-61883861D01*
X61944882Y-61933864D01*
X62039131Y-62042634D01*
X62160206Y-62120444D01*
X62160209Y-62120445D01*
X62160208Y-62120445D01*
X62298295Y-62160990D01*
X62298297Y-62160991D01*
X62298298Y-62160991D01*
X62442221Y-62160991D01*
X62442221Y-62160990D01*
X62580312Y-62120444D01*
X62701387Y-62042634D01*
X62795636Y-61933864D01*
X62855424Y-61802948D01*
X62875906Y-61660491D01*
X62868717Y-61610490D01*
X65564612Y-61610490D01*
X65585093Y-61752946D01*
X65607928Y-61802947D01*
X65644882Y-61883863D01*
X65739131Y-61992633D01*
X65860206Y-62070443D01*
X65860209Y-62070444D01*
X65860208Y-62070444D01*
X65998295Y-62110989D01*
X65998297Y-62110990D01*
X65998298Y-62110990D01*
X66142221Y-62110990D01*
X66142221Y-62110989D01*
X66280312Y-62070443D01*
X66401387Y-61992633D01*
X66495636Y-61883863D01*
X66555424Y-61752947D01*
X66575906Y-61610490D01*
X66555424Y-61468033D01*
X66518063Y-61386226D01*
X66508120Y-61317070D01*
X66537144Y-61253514D01*
X66595922Y-61215739D01*
X66665792Y-61215739D01*
X66697898Y-61230401D01*
X66760207Y-61270445D01*
X66898295Y-61310990D01*
X66898297Y-61310991D01*
X66898298Y-61310991D01*
X67042221Y-61310991D01*
X67042221Y-61310990D01*
X67180312Y-61270444D01*
X67301387Y-61192634D01*
X67395636Y-61083864D01*
X67455424Y-60952948D01*
X67475906Y-60810491D01*
X67455424Y-60668034D01*
X67395636Y-60537118D01*
X67301387Y-60428348D01*
X67180312Y-60350538D01*
X67180310Y-60350537D01*
X67180308Y-60350536D01*
X67180309Y-60350536D01*
X67042222Y-60309991D01*
X67042220Y-60309991D01*
X66898298Y-60309991D01*
X66898295Y-60309991D01*
X66760208Y-60350536D01*
X66639132Y-60428347D01*
X66544882Y-60537117D01*
X66544881Y-60537119D01*
X66485093Y-60668034D01*
X66464612Y-60810491D01*
X66485093Y-60952947D01*
X66522453Y-61034752D01*
X66532397Y-61103911D01*
X66503372Y-61167466D01*
X66444594Y-61205241D01*
X66374724Y-61205241D01*
X66342620Y-61190580D01*
X66332350Y-61183980D01*
X66280312Y-61150537D01*
X66280310Y-61150536D01*
X66280308Y-61150535D01*
X66280309Y-61150535D01*
X66142222Y-61109990D01*
X66142220Y-61109990D01*
X65998298Y-61109990D01*
X65998295Y-61109990D01*
X65860208Y-61150535D01*
X65739132Y-61228346D01*
X65644882Y-61337116D01*
X65644881Y-61337118D01*
X65585093Y-61468033D01*
X65564612Y-61610490D01*
X62868717Y-61610490D01*
X62855424Y-61518034D01*
X62795636Y-61387118D01*
X62734612Y-61316692D01*
X62705588Y-61253138D01*
X62715532Y-61183980D01*
X62734610Y-61154291D01*
X62795636Y-61083864D01*
X62855424Y-60952948D01*
X62875906Y-60810491D01*
X62855424Y-60668034D01*
X62795636Y-60537118D01*
X62701387Y-60428348D01*
X62580312Y-60350538D01*
X62580310Y-60350537D01*
X62580308Y-60350536D01*
X62580309Y-60350536D01*
X62442222Y-60309991D01*
X62442220Y-60309991D01*
X62298298Y-60309991D01*
X62298295Y-60309991D01*
X62160208Y-60350536D01*
X62039132Y-60428347D01*
X61944882Y-60537117D01*
X61944881Y-60537119D01*
X61885093Y-60668034D01*
X61864612Y-60810491D01*
X51301679Y-60810491D01*
X51301726Y-58279725D01*
X56494759Y-58279725D01*
X56494759Y-58431256D01*
X56533978Y-58577627D01*
X56571861Y-58643241D01*
X56609744Y-58708856D01*
X56716894Y-58816006D01*
X56848124Y-58891772D01*
X56994493Y-58930991D01*
X56994495Y-58930991D01*
X57146023Y-58930991D01*
X57146025Y-58930991D01*
X57292394Y-58891772D01*
X57423624Y-58816006D01*
X57530774Y-58708856D01*
X57606540Y-58577626D01*
X57645759Y-58431257D01*
X57645759Y-58279725D01*
X57606540Y-58133356D01*
X57530774Y-58002126D01*
X57423624Y-57894976D01*
X57358009Y-57857093D01*
X57292395Y-57819210D01*
X57219209Y-57799600D01*
X57146025Y-57779991D01*
X56994493Y-57779991D01*
X56848122Y-57819210D01*
X56716894Y-57894976D01*
X56716891Y-57894978D01*
X56609746Y-58002123D01*
X56609744Y-58002126D01*
X56533978Y-58133354D01*
X56494759Y-58279725D01*
X51301726Y-58279725D01*
X51301753Y-56835491D01*
X63264612Y-56835491D01*
X63285093Y-56977947D01*
X63344881Y-57108862D01*
X63344882Y-57108864D01*
X63439131Y-57217634D01*
X63560206Y-57295444D01*
X63560209Y-57295445D01*
X63560208Y-57295445D01*
X63698295Y-57335990D01*
X63698297Y-57335991D01*
X63698298Y-57335991D01*
X63842221Y-57335991D01*
X63842221Y-57335990D01*
X63980312Y-57295444D01*
X64101387Y-57217634D01*
X64195636Y-57108864D01*
X64255424Y-56977948D01*
X64275906Y-56835491D01*
X64255424Y-56693034D01*
X64195636Y-56562118D01*
X64101387Y-56453348D01*
X63980312Y-56375538D01*
X63980310Y-56375537D01*
X63980308Y-56375536D01*
X63980309Y-56375536D01*
X63842222Y-56334991D01*
X63842220Y-56334991D01*
X63698298Y-56334991D01*
X63698295Y-56334991D01*
X63560208Y-56375536D01*
X63439132Y-56453347D01*
X63344882Y-56562117D01*
X63344881Y-56562119D01*
X63285093Y-56693034D01*
X63264612Y-56835491D01*
X51301753Y-56835491D01*
X51301781Y-55335491D01*
X72864612Y-55335491D01*
X72885093Y-55477947D01*
X72944881Y-55608862D01*
X72944882Y-55608864D01*
X73039131Y-55717634D01*
X73160206Y-55795444D01*
X73160209Y-55795445D01*
X73160208Y-55795445D01*
X73298295Y-55835990D01*
X73298297Y-55835991D01*
X73298298Y-55835991D01*
X73442221Y-55835991D01*
X73442221Y-55835990D01*
X73580312Y-55795444D01*
X73701387Y-55717634D01*
X73795636Y-55608864D01*
X73855424Y-55477948D01*
X73875906Y-55335491D01*
X75464612Y-55335491D01*
X75485093Y-55477947D01*
X75544881Y-55608862D01*
X75544882Y-55608864D01*
X75639131Y-55717634D01*
X75760206Y-55795444D01*
X75760209Y-55795445D01*
X75760208Y-55795445D01*
X75898295Y-55835990D01*
X75898297Y-55835991D01*
X75898298Y-55835991D01*
X76042221Y-55835991D01*
X76042221Y-55835990D01*
X76180312Y-55795444D01*
X76301387Y-55717634D01*
X76395636Y-55608864D01*
X76455424Y-55477948D01*
X76475906Y-55335491D01*
X76455424Y-55193034D01*
X76395636Y-55062118D01*
X76301387Y-54953348D01*
X76180312Y-54875538D01*
X76180310Y-54875537D01*
X76180308Y-54875536D01*
X76180309Y-54875536D01*
X76042222Y-54834991D01*
X76042220Y-54834991D01*
X75898298Y-54834991D01*
X75898295Y-54834991D01*
X75760208Y-54875536D01*
X75639132Y-54953347D01*
X75544882Y-55062117D01*
X75544881Y-55062119D01*
X75485093Y-55193034D01*
X75464612Y-55335491D01*
X73875906Y-55335491D01*
X73855424Y-55193034D01*
X73795636Y-55062118D01*
X73701387Y-54953348D01*
X73580312Y-54875538D01*
X73580310Y-54875537D01*
X73580308Y-54875536D01*
X73580309Y-54875536D01*
X73442222Y-54834991D01*
X73442220Y-54834991D01*
X73298298Y-54834991D01*
X73298295Y-54834991D01*
X73160208Y-54875536D01*
X73039132Y-54953347D01*
X72944882Y-55062117D01*
X72944881Y-55062119D01*
X72885093Y-55193034D01*
X72864612Y-55335491D01*
X51301781Y-55335491D01*
X51301836Y-52425491D01*
X65914676Y-52425491D01*
X65934958Y-52631423D01*
X65934959Y-52631425D01*
X65995027Y-52829445D01*
X66092574Y-53011941D01*
X66092576Y-53011943D01*
X66223848Y-53171901D01*
X66320468Y-53251193D01*
X66383809Y-53303176D01*
X66566305Y-53400723D01*
X66764325Y-53460791D01*
X66764324Y-53460791D01*
X66782788Y-53462609D01*
X66970259Y-53481074D01*
X67176193Y-53460791D01*
X67374213Y-53400723D01*
X67556709Y-53303176D01*
X67716669Y-53171901D01*
X67847944Y-53011941D01*
X67945491Y-52829445D01*
X68005559Y-52631425D01*
X68025842Y-52425491D01*
X68454676Y-52425491D01*
X68474958Y-52631423D01*
X68474959Y-52631425D01*
X68535027Y-52829445D01*
X68632574Y-53011941D01*
X68632576Y-53011943D01*
X68763848Y-53171901D01*
X68860468Y-53251193D01*
X68923809Y-53303176D01*
X69106305Y-53400723D01*
X69304325Y-53460791D01*
X69304324Y-53460791D01*
X69322788Y-53462609D01*
X69510259Y-53481074D01*
X69716193Y-53460791D01*
X69914213Y-53400723D01*
X70096709Y-53303176D01*
X70256669Y-53171901D01*
X70387944Y-53011941D01*
X70485491Y-52829445D01*
X70545559Y-52631425D01*
X70565842Y-52425491D01*
X70994676Y-52425491D01*
X71014958Y-52631423D01*
X71014959Y-52631425D01*
X71075027Y-52829445D01*
X71172574Y-53011941D01*
X71172576Y-53011943D01*
X71303848Y-53171901D01*
X71400468Y-53251193D01*
X71463809Y-53303176D01*
X71646305Y-53400723D01*
X71844325Y-53460791D01*
X71844324Y-53460791D01*
X71862788Y-53462609D01*
X72050259Y-53481074D01*
X72256193Y-53460791D01*
X72454213Y-53400723D01*
X72636709Y-53303176D01*
X72796669Y-53171901D01*
X72927944Y-53011941D01*
X73025491Y-52829445D01*
X73085559Y-52631425D01*
X73105842Y-52425491D01*
X73534676Y-52425491D01*
X73554958Y-52631423D01*
X73554959Y-52631425D01*
X73615027Y-52829445D01*
X73712574Y-53011941D01*
X73712576Y-53011943D01*
X73843848Y-53171901D01*
X73940468Y-53251193D01*
X74003809Y-53303176D01*
X74186305Y-53400723D01*
X74384325Y-53460791D01*
X74384324Y-53460791D01*
X74402788Y-53462609D01*
X74590259Y-53481074D01*
X74796193Y-53460791D01*
X74994213Y-53400723D01*
X75176709Y-53303176D01*
X75336669Y-53171901D01*
X75467944Y-53011941D01*
X75565491Y-52829445D01*
X75625559Y-52631425D01*
X75645842Y-52425491D01*
X76074676Y-52425491D01*
X76094958Y-52631423D01*
X76094959Y-52631425D01*
X76155027Y-52829445D01*
X76252574Y-53011941D01*
X76252576Y-53011943D01*
X76383848Y-53171901D01*
X76480468Y-53251193D01*
X76543809Y-53303176D01*
X76726305Y-53400723D01*
X76924325Y-53460791D01*
X76924324Y-53460791D01*
X76942788Y-53462609D01*
X77130259Y-53481074D01*
X77336193Y-53460791D01*
X77534213Y-53400723D01*
X77716709Y-53303176D01*
X77876669Y-53171901D01*
X78007944Y-53011941D01*
X78105491Y-52829445D01*
X78165559Y-52631425D01*
X78185842Y-52425491D01*
X78614676Y-52425491D01*
X78634958Y-52631423D01*
X78634959Y-52631425D01*
X78695027Y-52829445D01*
X78792574Y-53011941D01*
X78792576Y-53011943D01*
X78923848Y-53171901D01*
X79020468Y-53251193D01*
X79083809Y-53303176D01*
X79266305Y-53400723D01*
X79464325Y-53460791D01*
X79464324Y-53460791D01*
X79482788Y-53462609D01*
X79670259Y-53481074D01*
X79876193Y-53460791D01*
X80074213Y-53400723D01*
X80256709Y-53303176D01*
X80416669Y-53171901D01*
X80547944Y-53011941D01*
X80645491Y-52829445D01*
X80705559Y-52631425D01*
X80725842Y-52425491D01*
X81154676Y-52425491D01*
X81174958Y-52631423D01*
X81174959Y-52631425D01*
X81235027Y-52829445D01*
X81332574Y-53011941D01*
X81332576Y-53011943D01*
X81463848Y-53171901D01*
X81560468Y-53251193D01*
X81623809Y-53303176D01*
X81806305Y-53400723D01*
X82004325Y-53460791D01*
X82004324Y-53460791D01*
X82022788Y-53462609D01*
X82210259Y-53481074D01*
X82416193Y-53460791D01*
X82614213Y-53400723D01*
X82796709Y-53303176D01*
X82956669Y-53171901D01*
X83087944Y-53011941D01*
X83185491Y-52829445D01*
X83245559Y-52631425D01*
X83265842Y-52425491D01*
X83694676Y-52425491D01*
X83714958Y-52631423D01*
X83714959Y-52631425D01*
X83775027Y-52829445D01*
X83872574Y-53011941D01*
X83872576Y-53011943D01*
X84003848Y-53171901D01*
X84100468Y-53251193D01*
X84163809Y-53303176D01*
X84346305Y-53400723D01*
X84544325Y-53460791D01*
X84544324Y-53460791D01*
X84562788Y-53462609D01*
X84750259Y-53481074D01*
X84956193Y-53460791D01*
X85154213Y-53400723D01*
X85336709Y-53303176D01*
X85496669Y-53171901D01*
X85627944Y-53011941D01*
X85725491Y-52829445D01*
X85785559Y-52631425D01*
X85805842Y-52425491D01*
X86234676Y-52425491D01*
X86254958Y-52631423D01*
X86254959Y-52631425D01*
X86315027Y-52829445D01*
X86412574Y-53011941D01*
X86412576Y-53011943D01*
X86543848Y-53171901D01*
X86640468Y-53251193D01*
X86703809Y-53303176D01*
X86886305Y-53400723D01*
X87084325Y-53460791D01*
X87084324Y-53460791D01*
X87102788Y-53462609D01*
X87290259Y-53481074D01*
X87496193Y-53460791D01*
X87694213Y-53400723D01*
X87876709Y-53303176D01*
X88036669Y-53171901D01*
X88167944Y-53011941D01*
X88265491Y-52829445D01*
X88325559Y-52631425D01*
X88345842Y-52425491D01*
X88774676Y-52425491D01*
X88794958Y-52631423D01*
X88794959Y-52631425D01*
X88855027Y-52829445D01*
X88952574Y-53011941D01*
X88952576Y-53011943D01*
X89083848Y-53171901D01*
X89180468Y-53251193D01*
X89243809Y-53303176D01*
X89426305Y-53400723D01*
X89624325Y-53460791D01*
X89624324Y-53460791D01*
X89642788Y-53462609D01*
X89830259Y-53481074D01*
X90036193Y-53460791D01*
X90234213Y-53400723D01*
X90416709Y-53303176D01*
X90576669Y-53171901D01*
X90707944Y-53011941D01*
X90805491Y-52829445D01*
X90865559Y-52631425D01*
X90885842Y-52425491D01*
X91314676Y-52425491D01*
X91334958Y-52631423D01*
X91334959Y-52631425D01*
X91395027Y-52829445D01*
X91492574Y-53011941D01*
X91492576Y-53011943D01*
X91623848Y-53171901D01*
X91720468Y-53251193D01*
X91783809Y-53303176D01*
X91966305Y-53400723D01*
X92164325Y-53460791D01*
X92164324Y-53460791D01*
X92182788Y-53462609D01*
X92370259Y-53481074D01*
X92576193Y-53460791D01*
X92774213Y-53400723D01*
X92956709Y-53303176D01*
X93116669Y-53171901D01*
X93247944Y-53011941D01*
X93345491Y-52829445D01*
X93405559Y-52631425D01*
X93425842Y-52425491D01*
X93854676Y-52425491D01*
X93874958Y-52631423D01*
X93874959Y-52631425D01*
X93935027Y-52829445D01*
X94032574Y-53011941D01*
X94032576Y-53011943D01*
X94163848Y-53171901D01*
X94260468Y-53251193D01*
X94323809Y-53303176D01*
X94506305Y-53400723D01*
X94704325Y-53460791D01*
X94704324Y-53460791D01*
X94722788Y-53462609D01*
X94910259Y-53481074D01*
X95116193Y-53460791D01*
X95314213Y-53400723D01*
X95496709Y-53303176D01*
X95656669Y-53171901D01*
X95787944Y-53011941D01*
X95885491Y-52829445D01*
X95945559Y-52631425D01*
X95965842Y-52425491D01*
X96394676Y-52425491D01*
X96414958Y-52631423D01*
X96414959Y-52631425D01*
X96475027Y-52829445D01*
X96572574Y-53011941D01*
X96572576Y-53011943D01*
X96703848Y-53171901D01*
X96800468Y-53251193D01*
X96863809Y-53303176D01*
X97046305Y-53400723D01*
X97244325Y-53460791D01*
X97244324Y-53460791D01*
X97262788Y-53462609D01*
X97450259Y-53481074D01*
X97656193Y-53460791D01*
X97854213Y-53400723D01*
X98036709Y-53303176D01*
X98196669Y-53171901D01*
X98327944Y-53011941D01*
X98425491Y-52829445D01*
X98485559Y-52631425D01*
X98505842Y-52425491D01*
X101474676Y-52425491D01*
X101494958Y-52631423D01*
X101494959Y-52631425D01*
X101555027Y-52829445D01*
X101652574Y-53011941D01*
X101652576Y-53011943D01*
X101783848Y-53171901D01*
X101880468Y-53251193D01*
X101943809Y-53303176D01*
X102126305Y-53400723D01*
X102324325Y-53460791D01*
X102324324Y-53460791D01*
X102342788Y-53462609D01*
X102530259Y-53481074D01*
X102736193Y-53460791D01*
X102934213Y-53400723D01*
X103116709Y-53303176D01*
X103276669Y-53171901D01*
X103407944Y-53011941D01*
X103505491Y-52829445D01*
X103565559Y-52631425D01*
X103585842Y-52425491D01*
X104014676Y-52425491D01*
X104034958Y-52631423D01*
X104034959Y-52631425D01*
X104095027Y-52829445D01*
X104192574Y-53011941D01*
X104192576Y-53011943D01*
X104323848Y-53171901D01*
X104420468Y-53251193D01*
X104483809Y-53303176D01*
X104666305Y-53400723D01*
X104864325Y-53460791D01*
X104864324Y-53460791D01*
X104882788Y-53462609D01*
X105070259Y-53481074D01*
X105276193Y-53460791D01*
X105474213Y-53400723D01*
X105656709Y-53303176D01*
X105816669Y-53171901D01*
X105947944Y-53011941D01*
X106045491Y-52829445D01*
X106105559Y-52631425D01*
X106125842Y-52425491D01*
X106554676Y-52425491D01*
X106574958Y-52631423D01*
X106574959Y-52631425D01*
X106635027Y-52829445D01*
X106732574Y-53011941D01*
X106732576Y-53011943D01*
X106863848Y-53171901D01*
X106960468Y-53251193D01*
X107023809Y-53303176D01*
X107206305Y-53400723D01*
X107404325Y-53460791D01*
X107404324Y-53460791D01*
X107422788Y-53462609D01*
X107610259Y-53481074D01*
X107816193Y-53460791D01*
X108014213Y-53400723D01*
X108196709Y-53303176D01*
X108356669Y-53171901D01*
X108487944Y-53011941D01*
X108585491Y-52829445D01*
X108645559Y-52631425D01*
X108665842Y-52425491D01*
X109094676Y-52425491D01*
X109114958Y-52631423D01*
X109114959Y-52631425D01*
X109175027Y-52829445D01*
X109272574Y-53011941D01*
X109272576Y-53011943D01*
X109403848Y-53171901D01*
X109500468Y-53251193D01*
X109563809Y-53303176D01*
X109746305Y-53400723D01*
X109944325Y-53460791D01*
X109944324Y-53460791D01*
X109962788Y-53462609D01*
X110150259Y-53481074D01*
X110356193Y-53460791D01*
X110554213Y-53400723D01*
X110736709Y-53303176D01*
X110896669Y-53171901D01*
X111027944Y-53011941D01*
X111125491Y-52829445D01*
X111185559Y-52631425D01*
X111205842Y-52425491D01*
X111634676Y-52425491D01*
X111654958Y-52631423D01*
X111654959Y-52631425D01*
X111715027Y-52829445D01*
X111812574Y-53011941D01*
X111812576Y-53011943D01*
X111943848Y-53171901D01*
X112040468Y-53251193D01*
X112103809Y-53303176D01*
X112286305Y-53400723D01*
X112484325Y-53460791D01*
X112484324Y-53460791D01*
X112502788Y-53462609D01*
X112690259Y-53481074D01*
X112896193Y-53460791D01*
X113094213Y-53400723D01*
X113276709Y-53303176D01*
X113436669Y-53171901D01*
X113567944Y-53011941D01*
X113665491Y-52829445D01*
X113725559Y-52631425D01*
X113745842Y-52425491D01*
X114174676Y-52425491D01*
X114194958Y-52631423D01*
X114194959Y-52631425D01*
X114255027Y-52829445D01*
X114352574Y-53011941D01*
X114352576Y-53011943D01*
X114483848Y-53171901D01*
X114580468Y-53251193D01*
X114643809Y-53303176D01*
X114826305Y-53400723D01*
X115024325Y-53460791D01*
X115024324Y-53460791D01*
X115042788Y-53462609D01*
X115230259Y-53481074D01*
X115436193Y-53460791D01*
X115634213Y-53400723D01*
X115816709Y-53303176D01*
X115976669Y-53171901D01*
X116107944Y-53011941D01*
X116205491Y-52829445D01*
X116265559Y-52631425D01*
X116285842Y-52425491D01*
X116265559Y-52219557D01*
X116205491Y-52021537D01*
X116107944Y-51839041D01*
X116055961Y-51775700D01*
X115976669Y-51679080D01*
X115832491Y-51560758D01*
X115816709Y-51547806D01*
X115634213Y-51450259D01*
X115436193Y-51390191D01*
X115436191Y-51390190D01*
X115436193Y-51390190D01*
X115230259Y-51369908D01*
X115024326Y-51390190D01*
X114826302Y-51450260D01*
X114755596Y-51488054D01*
X114643809Y-51547806D01*
X114643807Y-51547807D01*
X114643806Y-51547808D01*
X114483848Y-51679080D01*
X114352576Y-51839038D01*
X114255028Y-52021534D01*
X114194958Y-52219558D01*
X114174676Y-52425491D01*
X113745842Y-52425491D01*
X113725559Y-52219557D01*
X113665491Y-52021537D01*
X113567944Y-51839041D01*
X113515961Y-51775700D01*
X113436669Y-51679080D01*
X113292491Y-51560758D01*
X113276709Y-51547806D01*
X113094213Y-51450259D01*
X112896193Y-51390191D01*
X112896191Y-51390190D01*
X112896193Y-51390190D01*
X112690259Y-51369908D01*
X112484326Y-51390190D01*
X112286302Y-51450260D01*
X112215596Y-51488054D01*
X112103809Y-51547806D01*
X112103807Y-51547807D01*
X112103806Y-51547808D01*
X111943848Y-51679080D01*
X111812576Y-51839038D01*
X111715028Y-52021534D01*
X111654958Y-52219558D01*
X111634676Y-52425491D01*
X111205842Y-52425491D01*
X111185559Y-52219557D01*
X111125491Y-52021537D01*
X111027944Y-51839041D01*
X110975961Y-51775700D01*
X110896669Y-51679080D01*
X110752491Y-51560758D01*
X110736709Y-51547806D01*
X110554213Y-51450259D01*
X110356193Y-51390191D01*
X110356191Y-51390190D01*
X110356193Y-51390190D01*
X110150259Y-51369908D01*
X109944326Y-51390190D01*
X109746302Y-51450260D01*
X109675596Y-51488054D01*
X109563809Y-51547806D01*
X109563807Y-51547807D01*
X109563806Y-51547808D01*
X109403848Y-51679080D01*
X109272576Y-51839038D01*
X109175028Y-52021534D01*
X109114958Y-52219558D01*
X109094676Y-52425491D01*
X108665842Y-52425491D01*
X108645559Y-52219557D01*
X108585491Y-52021537D01*
X108487944Y-51839041D01*
X108435961Y-51775700D01*
X108356669Y-51679080D01*
X108212491Y-51560758D01*
X108196709Y-51547806D01*
X108014213Y-51450259D01*
X107816193Y-51390191D01*
X107816191Y-51390190D01*
X107816193Y-51390190D01*
X107610259Y-51369908D01*
X107404326Y-51390190D01*
X107206302Y-51450260D01*
X107135596Y-51488054D01*
X107023809Y-51547806D01*
X107023807Y-51547807D01*
X107023806Y-51547808D01*
X106863848Y-51679080D01*
X106732576Y-51839038D01*
X106635028Y-52021534D01*
X106574958Y-52219558D01*
X106554676Y-52425491D01*
X106125842Y-52425491D01*
X106105559Y-52219557D01*
X106045491Y-52021537D01*
X105947944Y-51839041D01*
X105895961Y-51775700D01*
X105816669Y-51679080D01*
X105672491Y-51560758D01*
X105656709Y-51547806D01*
X105474213Y-51450259D01*
X105276193Y-51390191D01*
X105276191Y-51390190D01*
X105276193Y-51390190D01*
X105070259Y-51369908D01*
X104864326Y-51390190D01*
X104666302Y-51450260D01*
X104595596Y-51488054D01*
X104483809Y-51547806D01*
X104483807Y-51547807D01*
X104483806Y-51547808D01*
X104323848Y-51679080D01*
X104192576Y-51839038D01*
X104095028Y-52021534D01*
X104034958Y-52219558D01*
X104014676Y-52425491D01*
X103585842Y-52425491D01*
X103565559Y-52219557D01*
X103505491Y-52021537D01*
X103407944Y-51839041D01*
X103355961Y-51775700D01*
X103276669Y-51679080D01*
X103132491Y-51560758D01*
X103116709Y-51547806D01*
X102934213Y-51450259D01*
X102736193Y-51390191D01*
X102736191Y-51390190D01*
X102736193Y-51390190D01*
X102530259Y-51369908D01*
X102324326Y-51390190D01*
X102126302Y-51450260D01*
X102055596Y-51488054D01*
X101943809Y-51547806D01*
X101943807Y-51547807D01*
X101943806Y-51547808D01*
X101783848Y-51679080D01*
X101652576Y-51839038D01*
X101555028Y-52021534D01*
X101494958Y-52219558D01*
X101474676Y-52425491D01*
X98505842Y-52425491D01*
X98485559Y-52219557D01*
X98425491Y-52021537D01*
X98327944Y-51839041D01*
X98275961Y-51775700D01*
X98196669Y-51679080D01*
X98052491Y-51560758D01*
X98036709Y-51547806D01*
X97854213Y-51450259D01*
X97656193Y-51390191D01*
X97656191Y-51390190D01*
X97656193Y-51390190D01*
X97450259Y-51369908D01*
X97244326Y-51390190D01*
X97046302Y-51450260D01*
X96975596Y-51488054D01*
X96863809Y-51547806D01*
X96863807Y-51547807D01*
X96863806Y-51547808D01*
X96703848Y-51679080D01*
X96572576Y-51839038D01*
X96475028Y-52021534D01*
X96414958Y-52219558D01*
X96394676Y-52425491D01*
X95965842Y-52425491D01*
X95945559Y-52219557D01*
X95885491Y-52021537D01*
X95787944Y-51839041D01*
X95735961Y-51775700D01*
X95656669Y-51679080D01*
X95512491Y-51560758D01*
X95496709Y-51547806D01*
X95314213Y-51450259D01*
X95116193Y-51390191D01*
X95116191Y-51390190D01*
X95116193Y-51390190D01*
X94910259Y-51369908D01*
X94704326Y-51390190D01*
X94506302Y-51450260D01*
X94435596Y-51488054D01*
X94323809Y-51547806D01*
X94323807Y-51547807D01*
X94323806Y-51547808D01*
X94163848Y-51679080D01*
X94032576Y-51839038D01*
X93935028Y-52021534D01*
X93874958Y-52219558D01*
X93854676Y-52425491D01*
X93425842Y-52425491D01*
X93405559Y-52219557D01*
X93345491Y-52021537D01*
X93247944Y-51839041D01*
X93195961Y-51775700D01*
X93116669Y-51679080D01*
X92972491Y-51560758D01*
X92956709Y-51547806D01*
X92774213Y-51450259D01*
X92576193Y-51390191D01*
X92576191Y-51390190D01*
X92576193Y-51390190D01*
X92370259Y-51369908D01*
X92164326Y-51390190D01*
X91966302Y-51450260D01*
X91895596Y-51488054D01*
X91783809Y-51547806D01*
X91783807Y-51547807D01*
X91783806Y-51547808D01*
X91623848Y-51679080D01*
X91492576Y-51839038D01*
X91395028Y-52021534D01*
X91334958Y-52219558D01*
X91314676Y-52425491D01*
X90885842Y-52425491D01*
X90865559Y-52219557D01*
X90805491Y-52021537D01*
X90707944Y-51839041D01*
X90655961Y-51775700D01*
X90576669Y-51679080D01*
X90432491Y-51560758D01*
X90416709Y-51547806D01*
X90234213Y-51450259D01*
X90036193Y-51390191D01*
X90036191Y-51390190D01*
X90036193Y-51390190D01*
X89830259Y-51369908D01*
X89624326Y-51390190D01*
X89426302Y-51450260D01*
X89355596Y-51488054D01*
X89243809Y-51547806D01*
X89243807Y-51547807D01*
X89243806Y-51547808D01*
X89083848Y-51679080D01*
X88952576Y-51839038D01*
X88855028Y-52021534D01*
X88794958Y-52219558D01*
X88774676Y-52425491D01*
X88345842Y-52425491D01*
X88325559Y-52219557D01*
X88265491Y-52021537D01*
X88167944Y-51839041D01*
X88115961Y-51775700D01*
X88036669Y-51679080D01*
X87892491Y-51560758D01*
X87876709Y-51547806D01*
X87694213Y-51450259D01*
X87496193Y-51390191D01*
X87496191Y-51390190D01*
X87496193Y-51390190D01*
X87290259Y-51369908D01*
X87084326Y-51390190D01*
X86886302Y-51450260D01*
X86815596Y-51488054D01*
X86703809Y-51547806D01*
X86703807Y-51547807D01*
X86703806Y-51547808D01*
X86543848Y-51679080D01*
X86412576Y-51839038D01*
X86315028Y-52021534D01*
X86254958Y-52219558D01*
X86234676Y-52425491D01*
X85805842Y-52425491D01*
X85785559Y-52219557D01*
X85725491Y-52021537D01*
X85627944Y-51839041D01*
X85575961Y-51775700D01*
X85496669Y-51679080D01*
X85352491Y-51560758D01*
X85336709Y-51547806D01*
X85154213Y-51450259D01*
X84956193Y-51390191D01*
X84956191Y-51390190D01*
X84956193Y-51390190D01*
X84750259Y-51369908D01*
X84544326Y-51390190D01*
X84346302Y-51450260D01*
X84275596Y-51488054D01*
X84163809Y-51547806D01*
X84163807Y-51547807D01*
X84163806Y-51547808D01*
X84003848Y-51679080D01*
X83872576Y-51839038D01*
X83775028Y-52021534D01*
X83714958Y-52219558D01*
X83694676Y-52425491D01*
X83265842Y-52425491D01*
X83245559Y-52219557D01*
X83185491Y-52021537D01*
X83087944Y-51839041D01*
X83035961Y-51775700D01*
X82956669Y-51679080D01*
X82812491Y-51560758D01*
X82796709Y-51547806D01*
X82614213Y-51450259D01*
X82416193Y-51390191D01*
X82416191Y-51390190D01*
X82416193Y-51390190D01*
X82210259Y-51369908D01*
X82004326Y-51390190D01*
X81806302Y-51450260D01*
X81735596Y-51488054D01*
X81623809Y-51547806D01*
X81623807Y-51547807D01*
X81623806Y-51547808D01*
X81463848Y-51679080D01*
X81332576Y-51839038D01*
X81235028Y-52021534D01*
X81174958Y-52219558D01*
X81154676Y-52425491D01*
X80725842Y-52425491D01*
X80705559Y-52219557D01*
X80645491Y-52021537D01*
X80547944Y-51839041D01*
X80495961Y-51775700D01*
X80416669Y-51679080D01*
X80272491Y-51560758D01*
X80256709Y-51547806D01*
X80074213Y-51450259D01*
X79876193Y-51390191D01*
X79876191Y-51390190D01*
X79876193Y-51390190D01*
X79670259Y-51369908D01*
X79464326Y-51390190D01*
X79266302Y-51450260D01*
X79195596Y-51488054D01*
X79083809Y-51547806D01*
X79083807Y-51547807D01*
X79083806Y-51547808D01*
X78923848Y-51679080D01*
X78792576Y-51839038D01*
X78695028Y-52021534D01*
X78634958Y-52219558D01*
X78614676Y-52425491D01*
X78185842Y-52425491D01*
X78165559Y-52219557D01*
X78105491Y-52021537D01*
X78007944Y-51839041D01*
X77955961Y-51775700D01*
X77876669Y-51679080D01*
X77732491Y-51560758D01*
X77716709Y-51547806D01*
X77534213Y-51450259D01*
X77336193Y-51390191D01*
X77336191Y-51390190D01*
X77336193Y-51390190D01*
X77130259Y-51369908D01*
X76924326Y-51390190D01*
X76726302Y-51450260D01*
X76655596Y-51488054D01*
X76543809Y-51547806D01*
X76543807Y-51547807D01*
X76543806Y-51547808D01*
X76383848Y-51679080D01*
X76252576Y-51839038D01*
X76155028Y-52021534D01*
X76094958Y-52219558D01*
X76074676Y-52425491D01*
X75645842Y-52425491D01*
X75625559Y-52219557D01*
X75565491Y-52021537D01*
X75467944Y-51839041D01*
X75415961Y-51775700D01*
X75336669Y-51679080D01*
X75192491Y-51560758D01*
X75176709Y-51547806D01*
X74994213Y-51450259D01*
X74796193Y-51390191D01*
X74796191Y-51390190D01*
X74796193Y-51390190D01*
X74590259Y-51369908D01*
X74384326Y-51390190D01*
X74186302Y-51450260D01*
X74115596Y-51488054D01*
X74003809Y-51547806D01*
X74003807Y-51547807D01*
X74003806Y-51547808D01*
X73843848Y-51679080D01*
X73712576Y-51839038D01*
X73615028Y-52021534D01*
X73554958Y-52219558D01*
X73534676Y-52425491D01*
X73105842Y-52425491D01*
X73085559Y-52219557D01*
X73025491Y-52021537D01*
X72927944Y-51839041D01*
X72875961Y-51775700D01*
X72796669Y-51679080D01*
X72652491Y-51560758D01*
X72636709Y-51547806D01*
X72454213Y-51450259D01*
X72256193Y-51390191D01*
X72256191Y-51390190D01*
X72256193Y-51390190D01*
X72050259Y-51369908D01*
X71844326Y-51390190D01*
X71646302Y-51450260D01*
X71575596Y-51488054D01*
X71463809Y-51547806D01*
X71463807Y-51547807D01*
X71463806Y-51547808D01*
X71303848Y-51679080D01*
X71172576Y-51839038D01*
X71075028Y-52021534D01*
X71014958Y-52219558D01*
X70994676Y-52425491D01*
X70565842Y-52425491D01*
X70545559Y-52219557D01*
X70485491Y-52021537D01*
X70387944Y-51839041D01*
X70335961Y-51775700D01*
X70256669Y-51679080D01*
X70112491Y-51560758D01*
X70096709Y-51547806D01*
X69914213Y-51450259D01*
X69716193Y-51390191D01*
X69716191Y-51390190D01*
X69716193Y-51390190D01*
X69510259Y-51369908D01*
X69304326Y-51390190D01*
X69106302Y-51450260D01*
X69035596Y-51488054D01*
X68923809Y-51547806D01*
X68923807Y-51547807D01*
X68923806Y-51547808D01*
X68763848Y-51679080D01*
X68632576Y-51839038D01*
X68535028Y-52021534D01*
X68474958Y-52219558D01*
X68454676Y-52425491D01*
X68025842Y-52425491D01*
X68005559Y-52219557D01*
X67945491Y-52021537D01*
X67847944Y-51839041D01*
X67795961Y-51775700D01*
X67716669Y-51679080D01*
X67572491Y-51560758D01*
X67556709Y-51547806D01*
X67374213Y-51450259D01*
X67176193Y-51390191D01*
X67176191Y-51390190D01*
X67176193Y-51390190D01*
X66970259Y-51369908D01*
X66764326Y-51390190D01*
X66566302Y-51450260D01*
X66495596Y-51488054D01*
X66383809Y-51547806D01*
X66383807Y-51547807D01*
X66383806Y-51547808D01*
X66223848Y-51679080D01*
X66092576Y-51839038D01*
X65995028Y-52021534D01*
X65934958Y-52219558D01*
X65914676Y-52425491D01*
X51301836Y-52425491D01*
X51301885Y-49787984D01*
X51301888Y-49787967D01*
X51301888Y-49713738D01*
X51302083Y-49706786D01*
X51308699Y-49588969D01*
X52200888Y-49588969D01*
X52200888Y-49831546D01*
X52232549Y-50072043D01*
X52295335Y-50306362D01*
X52363921Y-50471943D01*
X52388164Y-50530470D01*
X52509452Y-50740547D01*
X52509454Y-50740550D01*
X52509455Y-50740551D01*
X52657121Y-50932994D01*
X52657127Y-50933001D01*
X52828644Y-51104518D01*
X52828650Y-51104523D01*
X53021099Y-51252194D01*
X53231176Y-51373482D01*
X53455288Y-51466312D01*
X53689599Y-51529096D01*
X53854749Y-51550838D01*
X53930099Y-51560758D01*
X53930100Y-51560758D01*
X54172677Y-51560758D01*
X54248027Y-51550838D01*
X54413177Y-51529096D01*
X54647488Y-51466312D01*
X54871600Y-51373482D01*
X55081677Y-51252194D01*
X55274126Y-51104523D01*
X55445653Y-50932996D01*
X55593324Y-50740547D01*
X55714612Y-50530470D01*
X55807442Y-50306358D01*
X55870226Y-50072047D01*
X55901888Y-49831546D01*
X55901888Y-49588970D01*
X55870226Y-49348469D01*
X55807442Y-49114158D01*
X55766675Y-49015738D01*
X65919759Y-49015738D01*
X65919759Y-50755243D01*
X65931390Y-50813720D01*
X65931391Y-50813721D01*
X65975706Y-50880043D01*
X66042028Y-50924358D01*
X66042029Y-50924359D01*
X66100506Y-50935990D01*
X66100509Y-50935991D01*
X66100511Y-50935991D01*
X67840009Y-50935991D01*
X67840010Y-50935990D01*
X67855074Y-50932994D01*
X67898488Y-50924359D01*
X67898488Y-50924358D01*
X67898490Y-50924358D01*
X67964811Y-50880043D01*
X68009126Y-50813722D01*
X68009126Y-50813720D01*
X68009127Y-50813720D01*
X68020758Y-50755243D01*
X68020759Y-50755241D01*
X68020759Y-49885491D01*
X68454676Y-49885491D01*
X68474958Y-50091423D01*
X68474959Y-50091425D01*
X68535027Y-50289445D01*
X68632574Y-50471941D01*
X68632576Y-50471943D01*
X68763848Y-50631901D01*
X68860468Y-50711193D01*
X68923809Y-50763176D01*
X69106305Y-50860723D01*
X69304325Y-50920791D01*
X69304324Y-50920791D01*
X69322788Y-50922609D01*
X69510259Y-50941074D01*
X69716193Y-50920791D01*
X69914213Y-50860723D01*
X70096709Y-50763176D01*
X70256669Y-50631901D01*
X70387944Y-50471941D01*
X70485491Y-50289445D01*
X70545559Y-50091425D01*
X70565842Y-49885491D01*
X70994676Y-49885491D01*
X71014958Y-50091423D01*
X71014959Y-50091425D01*
X71075027Y-50289445D01*
X71172574Y-50471941D01*
X71172576Y-50471943D01*
X71303848Y-50631901D01*
X71400468Y-50711193D01*
X71463809Y-50763176D01*
X71646305Y-50860723D01*
X71844325Y-50920791D01*
X71844324Y-50920791D01*
X71862788Y-50922609D01*
X72050259Y-50941074D01*
X72256193Y-50920791D01*
X72454213Y-50860723D01*
X72636709Y-50763176D01*
X72796669Y-50631901D01*
X72927944Y-50471941D01*
X73025491Y-50289445D01*
X73085559Y-50091425D01*
X73105842Y-49885491D01*
X73534676Y-49885491D01*
X73554958Y-50091423D01*
X73554959Y-50091425D01*
X73615027Y-50289445D01*
X73712574Y-50471941D01*
X73712576Y-50471943D01*
X73843848Y-50631901D01*
X73940468Y-50711193D01*
X74003809Y-50763176D01*
X74186305Y-50860723D01*
X74384325Y-50920791D01*
X74384324Y-50920791D01*
X74402788Y-50922609D01*
X74590259Y-50941074D01*
X74796193Y-50920791D01*
X74994213Y-50860723D01*
X75176709Y-50763176D01*
X75336669Y-50631901D01*
X75467944Y-50471941D01*
X75565491Y-50289445D01*
X75625559Y-50091425D01*
X75645842Y-49885491D01*
X76074676Y-49885491D01*
X76094958Y-50091423D01*
X76094959Y-50091425D01*
X76155027Y-50289445D01*
X76252574Y-50471941D01*
X76252576Y-50471943D01*
X76383848Y-50631901D01*
X76480468Y-50711193D01*
X76543809Y-50763176D01*
X76726305Y-50860723D01*
X76924325Y-50920791D01*
X76924324Y-50920791D01*
X76942788Y-50922609D01*
X77130259Y-50941074D01*
X77336193Y-50920791D01*
X77534213Y-50860723D01*
X77716709Y-50763176D01*
X77876669Y-50631901D01*
X78007944Y-50471941D01*
X78105491Y-50289445D01*
X78165559Y-50091425D01*
X78185842Y-49885491D01*
X78614676Y-49885491D01*
X78634958Y-50091423D01*
X78634959Y-50091425D01*
X78695027Y-50289445D01*
X78792574Y-50471941D01*
X78792576Y-50471943D01*
X78923848Y-50631901D01*
X79020468Y-50711193D01*
X79083809Y-50763176D01*
X79266305Y-50860723D01*
X79464325Y-50920791D01*
X79464324Y-50920791D01*
X79482788Y-50922609D01*
X79670259Y-50941074D01*
X79876193Y-50920791D01*
X80074213Y-50860723D01*
X80256709Y-50763176D01*
X80416669Y-50631901D01*
X80547944Y-50471941D01*
X80645491Y-50289445D01*
X80705559Y-50091425D01*
X80725842Y-49885491D01*
X83694676Y-49885491D01*
X83714958Y-50091423D01*
X83714959Y-50091425D01*
X83775027Y-50289445D01*
X83872574Y-50471941D01*
X83872576Y-50471943D01*
X84003848Y-50631901D01*
X84100468Y-50711193D01*
X84163809Y-50763176D01*
X84346305Y-50860723D01*
X84544325Y-50920791D01*
X84544324Y-50920791D01*
X84562788Y-50922609D01*
X84750259Y-50941074D01*
X84956193Y-50920791D01*
X85154213Y-50860723D01*
X85336709Y-50763176D01*
X85496669Y-50631901D01*
X85627944Y-50471941D01*
X85725491Y-50289445D01*
X85785559Y-50091425D01*
X85805842Y-49885491D01*
X86234676Y-49885491D01*
X86254958Y-50091423D01*
X86254959Y-50091425D01*
X86315027Y-50289445D01*
X86412574Y-50471941D01*
X86412576Y-50471943D01*
X86543848Y-50631901D01*
X86640468Y-50711193D01*
X86703809Y-50763176D01*
X86886305Y-50860723D01*
X87084325Y-50920791D01*
X87084324Y-50920791D01*
X87102788Y-50922609D01*
X87290259Y-50941074D01*
X87496193Y-50920791D01*
X87694213Y-50860723D01*
X87876709Y-50763176D01*
X88036669Y-50631901D01*
X88167944Y-50471941D01*
X88265491Y-50289445D01*
X88325559Y-50091425D01*
X88345842Y-49885491D01*
X88774676Y-49885491D01*
X88794958Y-50091423D01*
X88794959Y-50091425D01*
X88855027Y-50289445D01*
X88952574Y-50471941D01*
X88952576Y-50471943D01*
X89083848Y-50631901D01*
X89180468Y-50711193D01*
X89243809Y-50763176D01*
X89426305Y-50860723D01*
X89624325Y-50920791D01*
X89624324Y-50920791D01*
X89642788Y-50922609D01*
X89830259Y-50941074D01*
X90036193Y-50920791D01*
X90234213Y-50860723D01*
X90416709Y-50763176D01*
X90576669Y-50631901D01*
X90707944Y-50471941D01*
X90805491Y-50289445D01*
X90865559Y-50091425D01*
X90885842Y-49885491D01*
X91314676Y-49885491D01*
X91334958Y-50091423D01*
X91334959Y-50091425D01*
X91395027Y-50289445D01*
X91492574Y-50471941D01*
X91492576Y-50471943D01*
X91623848Y-50631901D01*
X91720468Y-50711193D01*
X91783809Y-50763176D01*
X91966305Y-50860723D01*
X92164325Y-50920791D01*
X92164324Y-50920791D01*
X92182788Y-50922609D01*
X92370259Y-50941074D01*
X92576193Y-50920791D01*
X92774213Y-50860723D01*
X92956709Y-50763176D01*
X93116669Y-50631901D01*
X93247944Y-50471941D01*
X93345491Y-50289445D01*
X93405559Y-50091425D01*
X93425842Y-49885491D01*
X93854676Y-49885491D01*
X93874958Y-50091423D01*
X93874959Y-50091425D01*
X93935027Y-50289445D01*
X94032574Y-50471941D01*
X94032576Y-50471943D01*
X94163848Y-50631901D01*
X94260468Y-50711193D01*
X94323809Y-50763176D01*
X94506305Y-50860723D01*
X94704325Y-50920791D01*
X94704324Y-50920791D01*
X94722788Y-50922609D01*
X94910259Y-50941074D01*
X95116193Y-50920791D01*
X95314213Y-50860723D01*
X95496709Y-50763176D01*
X95656669Y-50631901D01*
X95787944Y-50471941D01*
X95885491Y-50289445D01*
X95945559Y-50091425D01*
X95965842Y-49885491D01*
X96394676Y-49885491D01*
X96414958Y-50091423D01*
X96414959Y-50091425D01*
X96475027Y-50289445D01*
X96572574Y-50471941D01*
X96572576Y-50471943D01*
X96703848Y-50631901D01*
X96800468Y-50711193D01*
X96863809Y-50763176D01*
X97046305Y-50860723D01*
X97244325Y-50920791D01*
X97244324Y-50920791D01*
X97262788Y-50922609D01*
X97450259Y-50941074D01*
X97656193Y-50920791D01*
X97854213Y-50860723D01*
X98036709Y-50763176D01*
X98196669Y-50631901D01*
X98327944Y-50471941D01*
X98425491Y-50289445D01*
X98485559Y-50091425D01*
X98505842Y-49885491D01*
X98934676Y-49885491D01*
X98954958Y-50091423D01*
X98954959Y-50091425D01*
X99015027Y-50289445D01*
X99112574Y-50471941D01*
X99112576Y-50471943D01*
X99243848Y-50631901D01*
X99340468Y-50711193D01*
X99403809Y-50763176D01*
X99586305Y-50860723D01*
X99784325Y-50920791D01*
X99784324Y-50920791D01*
X99802788Y-50922609D01*
X99990259Y-50941074D01*
X100196193Y-50920791D01*
X100394213Y-50860723D01*
X100576709Y-50763176D01*
X100736669Y-50631901D01*
X100867944Y-50471941D01*
X100965491Y-50289445D01*
X101025559Y-50091425D01*
X101045842Y-49885491D01*
X101474676Y-49885491D01*
X101494958Y-50091423D01*
X101494959Y-50091425D01*
X101555027Y-50289445D01*
X101652574Y-50471941D01*
X101652576Y-50471943D01*
X101783848Y-50631901D01*
X101880468Y-50711193D01*
X101943809Y-50763176D01*
X102126305Y-50860723D01*
X102324325Y-50920791D01*
X102324324Y-50920791D01*
X102342788Y-50922609D01*
X102530259Y-50941074D01*
X102736193Y-50920791D01*
X102934213Y-50860723D01*
X103116709Y-50763176D01*
X103276669Y-50631901D01*
X103407944Y-50471941D01*
X103505491Y-50289445D01*
X103565559Y-50091425D01*
X103585842Y-49885491D01*
X104014676Y-49885491D01*
X104034958Y-50091423D01*
X104034959Y-50091425D01*
X104095027Y-50289445D01*
X104192574Y-50471941D01*
X104192576Y-50471943D01*
X104323848Y-50631901D01*
X104420468Y-50711193D01*
X104483809Y-50763176D01*
X104666305Y-50860723D01*
X104864325Y-50920791D01*
X104864324Y-50920791D01*
X104882788Y-50922609D01*
X105070259Y-50941074D01*
X105276193Y-50920791D01*
X105474213Y-50860723D01*
X105656709Y-50763176D01*
X105816669Y-50631901D01*
X105947944Y-50471941D01*
X106045491Y-50289445D01*
X106105559Y-50091425D01*
X106125842Y-49885491D01*
X106554676Y-49885491D01*
X106574958Y-50091423D01*
X106574959Y-50091425D01*
X106635027Y-50289445D01*
X106732574Y-50471941D01*
X106732576Y-50471943D01*
X106863848Y-50631901D01*
X106960468Y-50711193D01*
X107023809Y-50763176D01*
X107206305Y-50860723D01*
X107404325Y-50920791D01*
X107404324Y-50920791D01*
X107422788Y-50922609D01*
X107610259Y-50941074D01*
X107816193Y-50920791D01*
X108014213Y-50860723D01*
X108196709Y-50763176D01*
X108356669Y-50631901D01*
X108487944Y-50471941D01*
X108585491Y-50289445D01*
X108645559Y-50091425D01*
X108665842Y-49885491D01*
X109094676Y-49885491D01*
X109114958Y-50091423D01*
X109114959Y-50091425D01*
X109175027Y-50289445D01*
X109272574Y-50471941D01*
X109272576Y-50471943D01*
X109403848Y-50631901D01*
X109500468Y-50711193D01*
X109563809Y-50763176D01*
X109746305Y-50860723D01*
X109944325Y-50920791D01*
X109944324Y-50920791D01*
X109962788Y-50922609D01*
X110150259Y-50941074D01*
X110356193Y-50920791D01*
X110554213Y-50860723D01*
X110736709Y-50763176D01*
X110896669Y-50631901D01*
X111027944Y-50471941D01*
X111125491Y-50289445D01*
X111185559Y-50091425D01*
X111205842Y-49885491D01*
X111634676Y-49885491D01*
X111654958Y-50091423D01*
X111654959Y-50091425D01*
X111715027Y-50289445D01*
X111812574Y-50471941D01*
X111812576Y-50471943D01*
X111943848Y-50631901D01*
X112040468Y-50711193D01*
X112103809Y-50763176D01*
X112286305Y-50860723D01*
X112484325Y-50920791D01*
X112484324Y-50920791D01*
X112502788Y-50922609D01*
X112690259Y-50941074D01*
X112896193Y-50920791D01*
X113094213Y-50860723D01*
X113276709Y-50763176D01*
X113436669Y-50631901D01*
X113567944Y-50471941D01*
X113665491Y-50289445D01*
X113725559Y-50091425D01*
X113745842Y-49885491D01*
X114174676Y-49885491D01*
X114194958Y-50091423D01*
X114194959Y-50091425D01*
X114255027Y-50289445D01*
X114352574Y-50471941D01*
X114352576Y-50471943D01*
X114483848Y-50631901D01*
X114580468Y-50711193D01*
X114643809Y-50763176D01*
X114826305Y-50860723D01*
X115024325Y-50920791D01*
X115024324Y-50920791D01*
X115042788Y-50922609D01*
X115230259Y-50941074D01*
X115436193Y-50920791D01*
X115634213Y-50860723D01*
X115816709Y-50763176D01*
X115976669Y-50631901D01*
X116107944Y-50471941D01*
X116205491Y-50289445D01*
X116265559Y-50091425D01*
X116285842Y-49885491D01*
X116265559Y-49679557D01*
X116244675Y-49610711D01*
X126239324Y-49610711D01*
X126239324Y-49853288D01*
X126270985Y-50093785D01*
X126333771Y-50328104D01*
X126417591Y-50530463D01*
X126426600Y-50552212D01*
X126547888Y-50762289D01*
X126547890Y-50762292D01*
X126547891Y-50762293D01*
X126695557Y-50954736D01*
X126695563Y-50954743D01*
X126867080Y-51126260D01*
X126867086Y-51126265D01*
X127059535Y-51273936D01*
X127269612Y-51395224D01*
X127493724Y-51488054D01*
X127728035Y-51550838D01*
X127908410Y-51574584D01*
X127968535Y-51582500D01*
X127968536Y-51582500D01*
X128211113Y-51582500D01*
X128259212Y-51576167D01*
X128451613Y-51550838D01*
X128685924Y-51488054D01*
X128910036Y-51395224D01*
X129120113Y-51273936D01*
X129312562Y-51126265D01*
X129484089Y-50954738D01*
X129631760Y-50762289D01*
X129753048Y-50552212D01*
X129845878Y-50328100D01*
X129908662Y-50093789D01*
X129940324Y-49853288D01*
X129940324Y-49610712D01*
X129908662Y-49370211D01*
X129845878Y-49135900D01*
X129753048Y-48911788D01*
X129631760Y-48701711D01*
X129484089Y-48509262D01*
X129484084Y-48509256D01*
X129312567Y-48337739D01*
X129312560Y-48337733D01*
X129120117Y-48190067D01*
X129120116Y-48190066D01*
X129120113Y-48190064D01*
X128910036Y-48068776D01*
X128910029Y-48068773D01*
X128685928Y-47975947D01*
X128451609Y-47913161D01*
X128211113Y-47881500D01*
X128211112Y-47881500D01*
X127968536Y-47881500D01*
X127968535Y-47881500D01*
X127728038Y-47913161D01*
X127493719Y-47975947D01*
X127269618Y-48068773D01*
X127269609Y-48068777D01*
X127059530Y-48190067D01*
X126867087Y-48337733D01*
X126867080Y-48337739D01*
X126695563Y-48509256D01*
X126695557Y-48509263D01*
X126547891Y-48701706D01*
X126426601Y-48911785D01*
X126426597Y-48911794D01*
X126333771Y-49135895D01*
X126270985Y-49370214D01*
X126239324Y-49610711D01*
X116244675Y-49610711D01*
X116205491Y-49481537D01*
X116107944Y-49299041D01*
X116055961Y-49235700D01*
X115976669Y-49139080D01*
X115826380Y-49015743D01*
X115816709Y-49007806D01*
X115634213Y-48910259D01*
X115436193Y-48850191D01*
X115436191Y-48850190D01*
X115436193Y-48850190D01*
X115230259Y-48829908D01*
X115024326Y-48850190D01*
X114826302Y-48910260D01*
X114738373Y-48957260D01*
X114643809Y-49007806D01*
X114643807Y-49007807D01*
X114643806Y-49007808D01*
X114483848Y-49139080D01*
X114352576Y-49299038D01*
X114255028Y-49481534D01*
X114194958Y-49679558D01*
X114174676Y-49885491D01*
X113745842Y-49885491D01*
X113725559Y-49679557D01*
X113665491Y-49481537D01*
X113567944Y-49299041D01*
X113515961Y-49235700D01*
X113436669Y-49139080D01*
X113286380Y-49015743D01*
X113276709Y-49007806D01*
X113094213Y-48910259D01*
X112896193Y-48850191D01*
X112896191Y-48850190D01*
X112896193Y-48850190D01*
X112690259Y-48829908D01*
X112484326Y-48850190D01*
X112286302Y-48910260D01*
X112198373Y-48957260D01*
X112103809Y-49007806D01*
X112103807Y-49007807D01*
X112103806Y-49007808D01*
X111943848Y-49139080D01*
X111812576Y-49299038D01*
X111715028Y-49481534D01*
X111654958Y-49679558D01*
X111634676Y-49885491D01*
X111205842Y-49885491D01*
X111185559Y-49679557D01*
X111125491Y-49481537D01*
X111027944Y-49299041D01*
X110975961Y-49235700D01*
X110896669Y-49139080D01*
X110746380Y-49015743D01*
X110736709Y-49007806D01*
X110554213Y-48910259D01*
X110356193Y-48850191D01*
X110356191Y-48850190D01*
X110356193Y-48850190D01*
X110150259Y-48829908D01*
X109944326Y-48850190D01*
X109746302Y-48910260D01*
X109658373Y-48957260D01*
X109563809Y-49007806D01*
X109563807Y-49007807D01*
X109563806Y-49007808D01*
X109403848Y-49139080D01*
X109272576Y-49299038D01*
X109175028Y-49481534D01*
X109114958Y-49679558D01*
X109094676Y-49885491D01*
X108665842Y-49885491D01*
X108645559Y-49679557D01*
X108585491Y-49481537D01*
X108487944Y-49299041D01*
X108435961Y-49235700D01*
X108356669Y-49139080D01*
X108206380Y-49015743D01*
X108196709Y-49007806D01*
X108014213Y-48910259D01*
X107816193Y-48850191D01*
X107816191Y-48850190D01*
X107816193Y-48850190D01*
X107610259Y-48829908D01*
X107404326Y-48850190D01*
X107206302Y-48910260D01*
X107118373Y-48957260D01*
X107023809Y-49007806D01*
X107023807Y-49007807D01*
X107023806Y-49007808D01*
X106863848Y-49139080D01*
X106732576Y-49299038D01*
X106635028Y-49481534D01*
X106574958Y-49679558D01*
X106554676Y-49885491D01*
X106125842Y-49885491D01*
X106105559Y-49679557D01*
X106045491Y-49481537D01*
X105947944Y-49299041D01*
X105895961Y-49235700D01*
X105816669Y-49139080D01*
X105666380Y-49015743D01*
X105656709Y-49007806D01*
X105474213Y-48910259D01*
X105276193Y-48850191D01*
X105276191Y-48850190D01*
X105276193Y-48850190D01*
X105070259Y-48829908D01*
X104864326Y-48850190D01*
X104666302Y-48910260D01*
X104578373Y-48957260D01*
X104483809Y-49007806D01*
X104483807Y-49007807D01*
X104483806Y-49007808D01*
X104323848Y-49139080D01*
X104192576Y-49299038D01*
X104095028Y-49481534D01*
X104034958Y-49679558D01*
X104014676Y-49885491D01*
X103585842Y-49885491D01*
X103565559Y-49679557D01*
X103505491Y-49481537D01*
X103407944Y-49299041D01*
X103355961Y-49235700D01*
X103276669Y-49139080D01*
X103126380Y-49015743D01*
X103116709Y-49007806D01*
X102934213Y-48910259D01*
X102736193Y-48850191D01*
X102736191Y-48850190D01*
X102736193Y-48850190D01*
X102530259Y-48829908D01*
X102324326Y-48850190D01*
X102126302Y-48910260D01*
X102038373Y-48957260D01*
X101943809Y-49007806D01*
X101943807Y-49007807D01*
X101943806Y-49007808D01*
X101783848Y-49139080D01*
X101652576Y-49299038D01*
X101555028Y-49481534D01*
X101494958Y-49679558D01*
X101474676Y-49885491D01*
X101045842Y-49885491D01*
X101025559Y-49679557D01*
X100965491Y-49481537D01*
X100867944Y-49299041D01*
X100815961Y-49235700D01*
X100736669Y-49139080D01*
X100586380Y-49015743D01*
X100576709Y-49007806D01*
X100394213Y-48910259D01*
X100196193Y-48850191D01*
X100196191Y-48850190D01*
X100196193Y-48850190D01*
X99990259Y-48829908D01*
X99784326Y-48850190D01*
X99586302Y-48910260D01*
X99498373Y-48957260D01*
X99403809Y-49007806D01*
X99403807Y-49007807D01*
X99403806Y-49007808D01*
X99243848Y-49139080D01*
X99112576Y-49299038D01*
X99015028Y-49481534D01*
X98954958Y-49679558D01*
X98934676Y-49885491D01*
X98505842Y-49885491D01*
X98485559Y-49679557D01*
X98425491Y-49481537D01*
X98327944Y-49299041D01*
X98275961Y-49235700D01*
X98196669Y-49139080D01*
X98046380Y-49015743D01*
X98036709Y-49007806D01*
X97854213Y-48910259D01*
X97656193Y-48850191D01*
X97656191Y-48850190D01*
X97656193Y-48850190D01*
X97450259Y-48829908D01*
X97244326Y-48850190D01*
X97046302Y-48910260D01*
X96958373Y-48957260D01*
X96863809Y-49007806D01*
X96863807Y-49007807D01*
X96863806Y-49007808D01*
X96703848Y-49139080D01*
X96572576Y-49299038D01*
X96475028Y-49481534D01*
X96414958Y-49679558D01*
X96394676Y-49885491D01*
X95965842Y-49885491D01*
X95945559Y-49679557D01*
X95885491Y-49481537D01*
X95787944Y-49299041D01*
X95735961Y-49235700D01*
X95656669Y-49139080D01*
X95506380Y-49015743D01*
X95496709Y-49007806D01*
X95314213Y-48910259D01*
X95116193Y-48850191D01*
X95116191Y-48850190D01*
X95116193Y-48850190D01*
X94910259Y-48829908D01*
X94704326Y-48850190D01*
X94506302Y-48910260D01*
X94418373Y-48957260D01*
X94323809Y-49007806D01*
X94323807Y-49007807D01*
X94323806Y-49007808D01*
X94163848Y-49139080D01*
X94032576Y-49299038D01*
X93935028Y-49481534D01*
X93874958Y-49679558D01*
X93854676Y-49885491D01*
X93425842Y-49885491D01*
X93405559Y-49679557D01*
X93345491Y-49481537D01*
X93247944Y-49299041D01*
X93195961Y-49235700D01*
X93116669Y-49139080D01*
X92966380Y-49015743D01*
X92956709Y-49007806D01*
X92774213Y-48910259D01*
X92576193Y-48850191D01*
X92576191Y-48850190D01*
X92576193Y-48850190D01*
X92370259Y-48829908D01*
X92164326Y-48850190D01*
X91966302Y-48910260D01*
X91878373Y-48957260D01*
X91783809Y-49007806D01*
X91783807Y-49007807D01*
X91783806Y-49007808D01*
X91623848Y-49139080D01*
X91492576Y-49299038D01*
X91395028Y-49481534D01*
X91334958Y-49679558D01*
X91314676Y-49885491D01*
X90885842Y-49885491D01*
X90865559Y-49679557D01*
X90805491Y-49481537D01*
X90707944Y-49299041D01*
X90655961Y-49235700D01*
X90576669Y-49139080D01*
X90426380Y-49015743D01*
X90416709Y-49007806D01*
X90234213Y-48910259D01*
X90036193Y-48850191D01*
X90036191Y-48850190D01*
X90036193Y-48850190D01*
X89830259Y-48829908D01*
X89624326Y-48850190D01*
X89426302Y-48910260D01*
X89338373Y-48957260D01*
X89243809Y-49007806D01*
X89243807Y-49007807D01*
X89243806Y-49007808D01*
X89083848Y-49139080D01*
X88952576Y-49299038D01*
X88855028Y-49481534D01*
X88794958Y-49679558D01*
X88774676Y-49885491D01*
X88345842Y-49885491D01*
X88325559Y-49679557D01*
X88265491Y-49481537D01*
X88167944Y-49299041D01*
X88115961Y-49235700D01*
X88036669Y-49139080D01*
X87886380Y-49015743D01*
X87876709Y-49007806D01*
X87694213Y-48910259D01*
X87496193Y-48850191D01*
X87496191Y-48850190D01*
X87496193Y-48850190D01*
X87290259Y-48829908D01*
X87084326Y-48850190D01*
X86886302Y-48910260D01*
X86798373Y-48957260D01*
X86703809Y-49007806D01*
X86703807Y-49007807D01*
X86703806Y-49007808D01*
X86543848Y-49139080D01*
X86412576Y-49299038D01*
X86315028Y-49481534D01*
X86254958Y-49679558D01*
X86234676Y-49885491D01*
X85805842Y-49885491D01*
X85785559Y-49679557D01*
X85725491Y-49481537D01*
X85627944Y-49299041D01*
X85575961Y-49235700D01*
X85496669Y-49139080D01*
X85346380Y-49015743D01*
X85336709Y-49007806D01*
X85154213Y-48910259D01*
X84956193Y-48850191D01*
X84956191Y-48850190D01*
X84956193Y-48850190D01*
X84750259Y-48829908D01*
X84544326Y-48850190D01*
X84346302Y-48910260D01*
X84258373Y-48957260D01*
X84163809Y-49007806D01*
X84163807Y-49007807D01*
X84163806Y-49007808D01*
X84003848Y-49139080D01*
X83872576Y-49299038D01*
X83775028Y-49481534D01*
X83714958Y-49679558D01*
X83694676Y-49885491D01*
X80725842Y-49885491D01*
X80705559Y-49679557D01*
X80645491Y-49481537D01*
X80547944Y-49299041D01*
X80495961Y-49235700D01*
X80416669Y-49139080D01*
X80266380Y-49015743D01*
X80256709Y-49007806D01*
X80074213Y-48910259D01*
X79876193Y-48850191D01*
X79876191Y-48850190D01*
X79876193Y-48850190D01*
X79670259Y-48829908D01*
X79464326Y-48850190D01*
X79266302Y-48910260D01*
X79178373Y-48957260D01*
X79083809Y-49007806D01*
X79083807Y-49007807D01*
X79083806Y-49007808D01*
X78923848Y-49139080D01*
X78792576Y-49299038D01*
X78695028Y-49481534D01*
X78634958Y-49679558D01*
X78614676Y-49885491D01*
X78185842Y-49885491D01*
X78165559Y-49679557D01*
X78105491Y-49481537D01*
X78007944Y-49299041D01*
X77955961Y-49235700D01*
X77876669Y-49139080D01*
X77726380Y-49015743D01*
X77716709Y-49007806D01*
X77534213Y-48910259D01*
X77336193Y-48850191D01*
X77336191Y-48850190D01*
X77336193Y-48850190D01*
X77130259Y-48829908D01*
X76924326Y-48850190D01*
X76726302Y-48910260D01*
X76638373Y-48957260D01*
X76543809Y-49007806D01*
X76543807Y-49007807D01*
X76543806Y-49007808D01*
X76383848Y-49139080D01*
X76252576Y-49299038D01*
X76155028Y-49481534D01*
X76094958Y-49679558D01*
X76074676Y-49885491D01*
X75645842Y-49885491D01*
X75625559Y-49679557D01*
X75565491Y-49481537D01*
X75467944Y-49299041D01*
X75415961Y-49235700D01*
X75336669Y-49139080D01*
X75186380Y-49015743D01*
X75176709Y-49007806D01*
X74994213Y-48910259D01*
X74796193Y-48850191D01*
X74796191Y-48850190D01*
X74796193Y-48850190D01*
X74590259Y-48829908D01*
X74384326Y-48850190D01*
X74186302Y-48910260D01*
X74098373Y-48957260D01*
X74003809Y-49007806D01*
X74003807Y-49007807D01*
X74003806Y-49007808D01*
X73843848Y-49139080D01*
X73712576Y-49299038D01*
X73615028Y-49481534D01*
X73554958Y-49679558D01*
X73534676Y-49885491D01*
X73105842Y-49885491D01*
X73085559Y-49679557D01*
X73025491Y-49481537D01*
X72927944Y-49299041D01*
X72875961Y-49235700D01*
X72796669Y-49139080D01*
X72646380Y-49015743D01*
X72636709Y-49007806D01*
X72454213Y-48910259D01*
X72256193Y-48850191D01*
X72256191Y-48850190D01*
X72256193Y-48850190D01*
X72050259Y-48829908D01*
X71844326Y-48850190D01*
X71646302Y-48910260D01*
X71558373Y-48957260D01*
X71463809Y-49007806D01*
X71463807Y-49007807D01*
X71463806Y-49007808D01*
X71303848Y-49139080D01*
X71172576Y-49299038D01*
X71075028Y-49481534D01*
X71014958Y-49679558D01*
X70994676Y-49885491D01*
X70565842Y-49885491D01*
X70545559Y-49679557D01*
X70485491Y-49481537D01*
X70387944Y-49299041D01*
X70335961Y-49235700D01*
X70256669Y-49139080D01*
X70106380Y-49015743D01*
X70096709Y-49007806D01*
X69914213Y-48910259D01*
X69716193Y-48850191D01*
X69716191Y-48850190D01*
X69716193Y-48850190D01*
X69510259Y-48829908D01*
X69304326Y-48850190D01*
X69106302Y-48910260D01*
X69018373Y-48957260D01*
X68923809Y-49007806D01*
X68923807Y-49007807D01*
X68923806Y-49007808D01*
X68763848Y-49139080D01*
X68632576Y-49299038D01*
X68535028Y-49481534D01*
X68474958Y-49679558D01*
X68454676Y-49885491D01*
X68020759Y-49885491D01*
X68020759Y-49015740D01*
X68020758Y-49015738D01*
X68009127Y-48957261D01*
X68009126Y-48957260D01*
X67964811Y-48890938D01*
X67898489Y-48846623D01*
X67898488Y-48846622D01*
X67840011Y-48834991D01*
X67840007Y-48834991D01*
X66100511Y-48834991D01*
X66100506Y-48834991D01*
X66042029Y-48846622D01*
X66042028Y-48846623D01*
X65975706Y-48890938D01*
X65931391Y-48957260D01*
X65931390Y-48957261D01*
X65919759Y-49015738D01*
X55766675Y-49015738D01*
X55714612Y-48890046D01*
X55593324Y-48679969D01*
X55445653Y-48487520D01*
X55445648Y-48487514D01*
X55274131Y-48315997D01*
X55274124Y-48315991D01*
X55081681Y-48168325D01*
X55081680Y-48168324D01*
X55081677Y-48168322D01*
X54871600Y-48047034D01*
X54814545Y-48023401D01*
X54647492Y-47954205D01*
X54530332Y-47922812D01*
X54413177Y-47891420D01*
X54413176Y-47891419D01*
X54413173Y-47891419D01*
X54172677Y-47859758D01*
X54172676Y-47859758D01*
X53930100Y-47859758D01*
X53930099Y-47859758D01*
X53689602Y-47891419D01*
X53455283Y-47954205D01*
X53231182Y-48047031D01*
X53231173Y-48047035D01*
X53021094Y-48168325D01*
X52828651Y-48315991D01*
X52828644Y-48315997D01*
X52657127Y-48487514D01*
X52657121Y-48487521D01*
X52509455Y-48679964D01*
X52388165Y-48890043D01*
X52388161Y-48890052D01*
X52295335Y-49114153D01*
X52232549Y-49348472D01*
X52200888Y-49588969D01*
X51308699Y-49588969D01*
X51312235Y-49526007D01*
X51318786Y-49409355D01*
X51320340Y-49395556D01*
X51369657Y-49105299D01*
X51372751Y-49091747D01*
X51394648Y-49015743D01*
X51454255Y-48808840D01*
X51458847Y-48795719D01*
X51571515Y-48523715D01*
X51577535Y-48511215D01*
X51719964Y-48253506D01*
X51727341Y-48241767D01*
X51897719Y-48001643D01*
X51906365Y-47990800D01*
X52102567Y-47771249D01*
X52112379Y-47761437D01*
X52331930Y-47565235D01*
X52342773Y-47556589D01*
X52582897Y-47386211D01*
X52594636Y-47378834D01*
X52852345Y-47236405D01*
X52864845Y-47230385D01*
X53136853Y-47117715D01*
X53149970Y-47113125D01*
X53432882Y-47031619D01*
X53446429Y-47028527D01*
X53736686Y-46979210D01*
X53750483Y-46977656D01*
X54047891Y-46960953D01*
X54054878Y-46960759D01*
X70196096Y-46965498D01*
G37*
%TD.AperFunction*%
%TD*%
M02*
