M48
; DRILL file {KiCad (6.0.7)} date Wed Feb 22 21:26:49 2023
; FORMAT={-:-/ absolute / metric / decimal}
; #@! TF.CreationDate,2023-02-22T21:26:49+03:00
; #@! TF.GenerationSoftware,Kicad,Pcbnew,(6.0.7)
; #@! TF.FileFunction,MixedPlating,1,2
FMAT,2
METRIC
; #@! TA.AperFunction,Plated,PTH,ViaDrill
T1C0.300
; #@! TA.AperFunction,Plated,PTH,ViaDrill
T2C0.400
; #@! TA.AperFunction,Plated,PTH,ComponentDrill
T3C0.800
; #@! TA.AperFunction,Plated,PTH,ComponentDrill
T4C1.000
; #@! TA.AperFunction,NonPlated,NPTH,ComponentDrill
T5C3.200
%
G90
G05
T1
X95.47Y-77.11
X96.37Y-103.11
X97.69Y-88.1
X98.95Y-107.215
X106.13Y-122.75
X106.37Y-112.445
X120.17Y-125.11
X120.3Y-109.96
X122.29Y-104.21
X125.39Y-92.75
X130.75Y-93.52
X137.88Y-135.38
X139.33Y-126.22
X147.53Y-108.5
X147.72Y-99.76
X151.64Y-112.05
X153.419Y-135.41
X153.6Y-108.08
X157.22Y-111.69
X158.0Y-124.89
X164.49Y-91.37
T2
X104.51Y-111.41
X129.72Y-126.22
X151.63Y-103.26
T3
X109.356Y-106.441
X109.356Y-108.981
X109.356Y-111.521
X109.356Y-114.061
X109.356Y-116.601
X109.356Y-119.141
X109.356Y-121.681
X109.356Y-124.221
X116.976Y-106.441
X116.976Y-108.981
X116.976Y-111.521
X116.976Y-114.061
X116.976Y-116.601
X116.976Y-119.141
X116.976Y-121.681
X116.976Y-124.221
T4
X96.36Y-92.97
X96.36Y-95.51
X97.475Y-114.51
X97.475Y-117.05
X97.475Y-119.59
X97.475Y-122.13
X97.475Y-124.67
X97.475Y-127.21
X97.475Y-129.75
X102.015Y-104.69
X102.015Y-107.23
X102.015Y-109.77
X103.855Y-70.23
X103.855Y-72.77
X103.855Y-75.31
X103.855Y-77.85
X103.855Y-80.39
X103.855Y-82.93
X103.855Y-85.47
X103.855Y-88.01
X103.855Y-90.55
X111.41Y-129.99
X111.41Y-132.53
X113.95Y-129.99
X113.95Y-132.53
X116.49Y-129.99
X116.49Y-132.53
X119.03Y-129.99
X119.03Y-132.53
X121.57Y-129.99
X121.57Y-132.53
X124.11Y-129.99
X124.11Y-132.53
X126.65Y-129.99
X126.65Y-132.53
X127.34Y-110.21
X127.34Y-112.75
X127.34Y-115.29
X127.34Y-117.83
X127.34Y-120.37
X127.34Y-122.91
X129.19Y-129.99
X129.19Y-132.53
X131.73Y-129.99
X131.73Y-132.53
X133.61Y-95.795
X134.27Y-129.99
X134.27Y-132.53
X136.15Y-95.795
X136.81Y-129.99
X136.81Y-132.53
X138.69Y-95.795
X139.35Y-129.99
X139.35Y-132.53
X139.925Y-110.205
X139.925Y-112.745
X139.925Y-115.285
X139.925Y-117.825
X139.925Y-120.365
X139.925Y-122.905
X141.23Y-95.795
X141.89Y-129.99
X141.89Y-132.53
X144.43Y-129.99
X144.43Y-132.53
X146.97Y-129.99
X146.97Y-132.53
X148.08Y-71.85
X149.51Y-129.99
X149.51Y-132.53
X150.62Y-71.85
X151.625Y-80.565
X151.625Y-83.105
X151.625Y-85.645
X151.625Y-88.185
X151.625Y-90.725
X151.625Y-93.265
X151.625Y-95.805
X151.625Y-98.345
X152.05Y-129.99
X152.05Y-132.53
X153.16Y-71.85
X154.59Y-129.99
X154.59Y-132.53
X157.13Y-129.99
X157.13Y-132.53
X159.67Y-129.99
X159.67Y-132.53
X164.275Y-104.68
X164.275Y-107.22
X164.275Y-109.76
X164.275Y-112.3
X164.275Y-114.84
T5
X95.95Y-71.66
X95.98Y-139.23
X160.98Y-139.42
X161.21Y-71.57
T0
M30
