%TF.GenerationSoftware,KiCad,Pcbnew,(6.0.7)*%
%TF.CreationDate,2023-02-22T21:26:53+03:00*%
%TF.ProjectId,Omarichet Sensor Shield 1.3,4f6d6172-6963-4686-9574-2053656e736f,rev?*%
%TF.SameCoordinates,Original*%
%TF.FileFunction,Copper,L1,Top*%
%TF.FilePolarity,Positive*%
%FSLAX46Y46*%
G04 Gerber Fmt 4.6, Leading zero omitted, Abs format (unit mm)*
G04 Created by KiCad (PCBNEW (6.0.7)) date 2023-02-22 21:26:53*
%MOMM*%
%LPD*%
G01*
G04 APERTURE LIST*
G04 Aperture macros list*
%AMRoundRect*
0 Rectangle with rounded corners*
0 $1 Rounding radius*
0 $2 $3 $4 $5 $6 $7 $8 $9 X,Y pos of 4 corners*
0 Add a 4 corners polygon primitive as box body*
4,1,4,$2,$3,$4,$5,$6,$7,$8,$9,$2,$3,0*
0 Add four circle primitives for the rounded corners*
1,1,$1+$1,$2,$3*
1,1,$1+$1,$4,$5*
1,1,$1+$1,$6,$7*
1,1,$1+$1,$8,$9*
0 Add four rect primitives between the rounded corners*
20,1,$1+$1,$2,$3,$4,$5,0*
20,1,$1+$1,$4,$5,$6,$7,0*
20,1,$1+$1,$6,$7,$8,$9,0*
20,1,$1+$1,$8,$9,$2,$3,0*%
G04 Aperture macros list end*
%ADD10C,0.300000*%
%TA.AperFunction,NonConductor*%
%ADD11C,0.300000*%
%TD*%
%ADD12C,0.150000*%
%TA.AperFunction,NonConductor*%
%ADD13C,0.150000*%
%TD*%
%TA.AperFunction,ComponentPad*%
%ADD14R,1.600000X1.600000*%
%TD*%
%TA.AperFunction,ComponentPad*%
%ADD15O,1.600000X1.600000*%
%TD*%
%TA.AperFunction,SMDPad,CuDef*%
%ADD16RoundRect,0.243750X-0.456250X0.243750X-0.456250X-0.243750X0.456250X-0.243750X0.456250X0.243750X0*%
%TD*%
%TA.AperFunction,SMDPad,CuDef*%
%ADD17RoundRect,0.200000X0.200000X0.275000X-0.200000X0.275000X-0.200000X-0.275000X0.200000X-0.275000X0*%
%TD*%
%TA.AperFunction,ComponentPad*%
%ADD18R,1.700000X1.700000*%
%TD*%
%TA.AperFunction,ComponentPad*%
%ADD19O,1.700000X1.700000*%
%TD*%
%TA.AperFunction,SMDPad,CuDef*%
%ADD20RoundRect,0.250000X0.475000X-0.250000X0.475000X0.250000X-0.475000X0.250000X-0.475000X-0.250000X0*%
%TD*%
%TA.AperFunction,SMDPad,CuDef*%
%ADD21RoundRect,0.200000X-0.275000X0.200000X-0.275000X-0.200000X0.275000X-0.200000X0.275000X0.200000X0*%
%TD*%
%TA.AperFunction,SMDPad,CuDef*%
%ADD22RoundRect,0.200000X0.275000X-0.200000X0.275000X0.200000X-0.275000X0.200000X-0.275000X-0.200000X0*%
%TD*%
%TA.AperFunction,ViaPad*%
%ADD23C,0.700000*%
%TD*%
%TA.AperFunction,ViaPad*%
%ADD24C,0.800000*%
%TD*%
%TA.AperFunction,Conductor*%
%ADD25C,0.800000*%
%TD*%
%TA.AperFunction,Conductor*%
%ADD26C,1.500000*%
%TD*%
%TA.AperFunction,Conductor*%
%ADD27C,0.700000*%
%TD*%
G04 APERTURE END LIST*
D10*
D11*
X161044000Y-101032571D02*
X161044000Y-102104000D01*
X160972571Y-102318285D01*
X160829714Y-102461142D01*
X160615428Y-102532571D01*
X160472571Y-102532571D01*
X161615428Y-101032571D02*
X162544000Y-101032571D01*
X162044000Y-101604000D01*
X162258285Y-101604000D01*
X162401142Y-101675428D01*
X162472571Y-101746857D01*
X162544000Y-101889714D01*
X162544000Y-102246857D01*
X162472571Y-102389714D01*
X162401142Y-102461142D01*
X162258285Y-102532571D01*
X161829714Y-102532571D01*
X161686857Y-102461142D01*
X161615428Y-102389714D01*
D12*
D13*
X98315714Y-109180380D02*
X98315714Y-109989904D01*
X98363333Y-110085142D01*
X98410952Y-110132761D01*
X98506190Y-110180380D01*
X98696666Y-110180380D01*
X98791904Y-110132761D01*
X98839523Y-110085142D01*
X98887142Y-109989904D01*
X98887142Y-109180380D01*
X99220476Y-109180380D02*
X99553809Y-110180380D01*
X99887142Y-109180380D01*
D12*
%TO.C,U1*%
D13*
X112404095Y-103563380D02*
X112404095Y-104372904D01*
X112451714Y-104468142D01*
X112499333Y-104515761D01*
X112594571Y-104563380D01*
X112785047Y-104563380D01*
X112880285Y-104515761D01*
X112927904Y-104468142D01*
X112975523Y-104372904D01*
X112975523Y-103563380D01*
X113975523Y-104563380D02*
X113404095Y-104563380D01*
X113689809Y-104563380D02*
X113689809Y-103563380D01*
X113594571Y-103706238D01*
X113499333Y-103801476D01*
X113404095Y-103849095D01*
D12*
%TO.C,D1*%
D13*
X162504380Y-94464095D02*
X161504380Y-94464095D01*
X161504380Y-94226000D01*
X161552000Y-94083142D01*
X161647238Y-93987904D01*
X161742476Y-93940285D01*
X161932952Y-93892666D01*
X162075809Y-93892666D01*
X162266285Y-93940285D01*
X162361523Y-93987904D01*
X162456761Y-94083142D01*
X162504380Y-94226000D01*
X162504380Y-94464095D01*
X162504380Y-92940285D02*
X162504380Y-93511714D01*
X162504380Y-93226000D02*
X161504380Y-93226000D01*
X161647238Y-93321238D01*
X161742476Y-93416476D01*
X161790095Y-93511714D01*
D12*
%TO.C,J7*%
D13*
X104314666Y-106640380D02*
X104314666Y-107354666D01*
X104267047Y-107497523D01*
X104171809Y-107592761D01*
X104028952Y-107640380D01*
X103933714Y-107640380D01*
X104695619Y-106640380D02*
X105362285Y-106640380D01*
X104933714Y-107640380D01*
D12*
%TO.C,C1*%
D13*
X118973333Y-101587142D02*
X118925714Y-101634761D01*
X118782857Y-101682380D01*
X118687619Y-101682380D01*
X118544761Y-101634761D01*
X118449523Y-101539523D01*
X118401904Y-101444285D01*
X118354285Y-101253809D01*
X118354285Y-101110952D01*
X118401904Y-100920476D01*
X118449523Y-100825238D01*
X118544761Y-100730000D01*
X118687619Y-100682380D01*
X118782857Y-100682380D01*
X118925714Y-100730000D01*
X118973333Y-100777619D01*
X119925714Y-101682380D02*
X119354285Y-101682380D01*
X119640000Y-101682380D02*
X119640000Y-100682380D01*
X119544761Y-100825238D01*
X119449523Y-100920476D01*
X119354285Y-100968095D01*
D12*
%TO.C,J1*%
D13*
X99234666Y-96226380D02*
X99234666Y-96940666D01*
X99187047Y-97083523D01*
X99091809Y-97178761D01*
X98948952Y-97226380D01*
X98853714Y-97226380D01*
X100234666Y-97226380D02*
X99663238Y-97226380D01*
X99948952Y-97226380D02*
X99948952Y-96226380D01*
X99853714Y-96369238D01*
X99758476Y-96464476D01*
X99663238Y-96512095D01*
D12*
%TO.C,J5*%
D13*
X133016666Y-98258380D02*
X133016666Y-98972666D01*
X132969047Y-99115523D01*
X132873809Y-99210761D01*
X132730952Y-99258380D01*
X132635714Y-99258380D01*
X133969047Y-98258380D02*
X133492857Y-98258380D01*
X133445238Y-98734571D01*
X133492857Y-98686952D01*
X133588095Y-98639333D01*
X133826190Y-98639333D01*
X133921428Y-98686952D01*
X133969047Y-98734571D01*
X134016666Y-98829809D01*
X134016666Y-99067904D01*
X133969047Y-99163142D01*
X133921428Y-99210761D01*
X133826190Y-99258380D01*
X133588095Y-99258380D01*
X133492857Y-99210761D01*
X133445238Y-99163142D01*
D12*
%TO.C,J4*%
D13*
X154860666Y-82256380D02*
X154860666Y-82970666D01*
X154813047Y-83113523D01*
X154717809Y-83208761D01*
X154574952Y-83256380D01*
X154479714Y-83256380D01*
X155765428Y-82589714D02*
X155765428Y-83256380D01*
X155527333Y-82208761D02*
X155289238Y-82923047D01*
X155908285Y-82923047D01*
D12*
%TO.C,J2*%
D13*
X147771666Y-68307380D02*
X147771666Y-69021666D01*
X147724047Y-69164523D01*
X147628809Y-69259761D01*
X147485952Y-69307380D01*
X147390714Y-69307380D01*
X148200238Y-68402619D02*
X148247857Y-68355000D01*
X148343095Y-68307380D01*
X148581190Y-68307380D01*
X148676428Y-68355000D01*
X148724047Y-68402619D01*
X148771666Y-68497857D01*
X148771666Y-68593095D01*
X148724047Y-68735952D01*
X148152619Y-69307380D01*
X148771666Y-69307380D01*
D12*
%TO.C,J10*%
D13*
X138382476Y-107148380D02*
X138382476Y-107862666D01*
X138334857Y-108005523D01*
X138239619Y-108100761D01*
X138096761Y-108148380D01*
X138001523Y-108148380D01*
X139382476Y-108148380D02*
X138811047Y-108148380D01*
X139096761Y-108148380D02*
X139096761Y-107148380D01*
X139001523Y-107291238D01*
X138906285Y-107386476D01*
X138811047Y-107434095D01*
X140001523Y-107148380D02*
X140096761Y-107148380D01*
X140192000Y-107196000D01*
X140239619Y-107243619D01*
X140287238Y-107338857D01*
X140334857Y-107529333D01*
X140334857Y-107767428D01*
X140287238Y-107957904D01*
X140239619Y-108053142D01*
X140192000Y-108100761D01*
X140096761Y-108148380D01*
X140001523Y-108148380D01*
X139906285Y-108100761D01*
X139858666Y-108053142D01*
X139811047Y-107957904D01*
X139763428Y-107767428D01*
X139763428Y-107529333D01*
X139811047Y-107338857D01*
X139858666Y-107243619D01*
X139906285Y-107196000D01*
X140001523Y-107148380D01*
D12*
%TO.C,J8*%
D13*
X123872666Y-107656380D02*
X123872666Y-108370666D01*
X123825047Y-108513523D01*
X123729809Y-108608761D01*
X123586952Y-108656380D01*
X123491714Y-108656380D01*
X124491714Y-108084952D02*
X124396476Y-108037333D01*
X124348857Y-107989714D01*
X124301238Y-107894476D01*
X124301238Y-107846857D01*
X124348857Y-107751619D01*
X124396476Y-107704000D01*
X124491714Y-107656380D01*
X124682190Y-107656380D01*
X124777428Y-107704000D01*
X124825047Y-107751619D01*
X124872666Y-107846857D01*
X124872666Y-107894476D01*
X124825047Y-107989714D01*
X124777428Y-108037333D01*
X124682190Y-108084952D01*
X124491714Y-108084952D01*
X124396476Y-108132571D01*
X124348857Y-108180190D01*
X124301238Y-108275428D01*
X124301238Y-108465904D01*
X124348857Y-108561142D01*
X124396476Y-108608761D01*
X124491714Y-108656380D01*
X124682190Y-108656380D01*
X124777428Y-108608761D01*
X124825047Y-108561142D01*
X124872666Y-108465904D01*
X124872666Y-108275428D01*
X124825047Y-108180190D01*
X124777428Y-108132571D01*
X124682190Y-108084952D01*
D12*
%TO.C,R1*%
D13*
X98385333Y-102814380D02*
X98052000Y-102338190D01*
X97813904Y-102814380D02*
X97813904Y-101814380D01*
X98194857Y-101814380D01*
X98290095Y-101862000D01*
X98337714Y-101909619D01*
X98385333Y-102004857D01*
X98385333Y-102147714D01*
X98337714Y-102242952D01*
X98290095Y-102290571D01*
X98194857Y-102338190D01*
X97813904Y-102338190D01*
X99337714Y-102814380D02*
X98766285Y-102814380D01*
X99052000Y-102814380D02*
X99052000Y-101814380D01*
X98956761Y-101957238D01*
X98861523Y-102052476D01*
X98766285Y-102100095D01*
D12*
%TO.C,R3*%
D13*
X162504380Y-98972666D02*
X162028190Y-99306000D01*
X162504380Y-99544095D02*
X161504380Y-99544095D01*
X161504380Y-99163142D01*
X161552000Y-99067904D01*
X161599619Y-99020285D01*
X161694857Y-98972666D01*
X161837714Y-98972666D01*
X161932952Y-99020285D01*
X161980571Y-99067904D01*
X162028190Y-99163142D01*
X162028190Y-99544095D01*
X161504380Y-98639333D02*
X161504380Y-98020285D01*
X161885333Y-98353619D01*
X161885333Y-98210761D01*
X161932952Y-98115523D01*
X161980571Y-98067904D01*
X162075809Y-98020285D01*
X162313904Y-98020285D01*
X162409142Y-98067904D01*
X162456761Y-98115523D01*
X162504380Y-98210761D01*
X162504380Y-98496476D01*
X162456761Y-98591714D01*
X162409142Y-98639333D01*
D12*
%TO.C,J6*%
D13*
X103521666Y-66912380D02*
X103521666Y-67626666D01*
X103474047Y-67769523D01*
X103378809Y-67864761D01*
X103235952Y-67912380D01*
X103140714Y-67912380D01*
X104426428Y-66912380D02*
X104235952Y-66912380D01*
X104140714Y-66960000D01*
X104093095Y-67007619D01*
X103997857Y-67150476D01*
X103950238Y-67340952D01*
X103950238Y-67721904D01*
X103997857Y-67817142D01*
X104045476Y-67864761D01*
X104140714Y-67912380D01*
X104331190Y-67912380D01*
X104426428Y-67864761D01*
X104474047Y-67817142D01*
X104521666Y-67721904D01*
X104521666Y-67483809D01*
X104474047Y-67388571D01*
X104426428Y-67340952D01*
X104331190Y-67293333D01*
X104140714Y-67293333D01*
X104045476Y-67340952D01*
X103997857Y-67388571D01*
X103950238Y-67483809D01*
D12*
%TO.C,J11*%
D13*
X98284523Y-111192380D02*
X98284523Y-111906666D01*
X98332142Y-112049523D01*
X98427380Y-112144761D01*
X98570238Y-112192380D01*
X98665476Y-112192380D01*
X97284523Y-112192380D02*
X97855952Y-112192380D01*
X97570238Y-112192380D02*
X97570238Y-111192380D01*
X97665476Y-111335238D01*
X97760714Y-111430476D01*
X97855952Y-111478095D01*
X96332142Y-112192380D02*
X96903571Y-112192380D01*
X96617857Y-112192380D02*
X96617857Y-111192380D01*
X96713095Y-111335238D01*
X96808333Y-111430476D01*
X96903571Y-111478095D01*
D12*
%TO.C,J9*%
D13*
X162773333Y-131024380D02*
X162773333Y-131738666D01*
X162820952Y-131881523D01*
X162916190Y-131976761D01*
X163059047Y-132024380D01*
X163154285Y-132024380D01*
X162249523Y-132024380D02*
X162059047Y-132024380D01*
X161963809Y-131976761D01*
X161916190Y-131929142D01*
X161820952Y-131786285D01*
X161773333Y-131595809D01*
X161773333Y-131214857D01*
X161820952Y-131119619D01*
X161868571Y-131072000D01*
X161963809Y-131024380D01*
X162154285Y-131024380D01*
X162249523Y-131072000D01*
X162297142Y-131119619D01*
X162344761Y-131214857D01*
X162344761Y-131452952D01*
X162297142Y-131548190D01*
X162249523Y-131595809D01*
X162154285Y-131643428D01*
X161963809Y-131643428D01*
X161868571Y-131595809D01*
X161820952Y-131548190D01*
X161773333Y-131452952D01*
%TD*%
D14*
%TO.P,U1,1,CH0*%
%TO.N,CH0*%
X109356000Y-106441000D03*
D15*
%TO.P,U1,2,CH1*%
%TO.N,CH1*%
X109356000Y-108981000D03*
%TO.P,U1,3,CH2*%
%TO.N,CH2*%
X109356000Y-111521000D03*
%TO.P,U1,4,CH3*%
%TO.N,CH3*%
X109356000Y-114061000D03*
%TO.P,U1,5,CH4*%
%TO.N,CH4*%
X109356000Y-116601000D03*
%TO.P,U1,6,CH5*%
%TO.N,CH5*%
X109356000Y-119141000D03*
%TO.P,U1,7,CH6*%
%TO.N,unconnected-(U1-Pad7)*%
X109356000Y-121681000D03*
%TO.P,U1,8,CH7*%
%TO.N,unconnected-(U1-Pad8)*%
X109356000Y-124221000D03*
%TO.P,U1,9,DGND*%
%TO.N,GND*%
X116976000Y-124221000D03*
%TO.P,U1,10,~{CS}/SHDN*%
%TO.N,CS*%
X116976000Y-121681000D03*
%TO.P,U1,11,Din*%
%TO.N,MOSI*%
X116976000Y-119141000D03*
%TO.P,U1,12,Dout*%
%TO.N,MISO*%
X116976000Y-116601000D03*
%TO.P,U1,13,CLK*%
%TO.N,CLK*%
X116976000Y-114061000D03*
%TO.P,U1,14,AGND*%
%TO.N,GND*%
X116976000Y-111521000D03*
%TO.P,U1,15,Vref*%
%TO.N,+5V*%
X116976000Y-108981000D03*
%TO.P,U1,16,Vdd*%
X116976000Y-106441000D03*
%TD*%
D16*
%TO.P,D1,1,K*%
%TO.N,GND*%
X164470000Y-93320000D03*
%TO.P,D1,2,A*%
%TO.N,Net-(D1-Pad2)*%
X164470000Y-95195000D03*
%TD*%
D17*
%TO.P,R2,1*%
%TO.N,/EN*%
X99355000Y-76930000D03*
%TO.P,R2,2*%
%TO.N,+3.3V*%
X97705000Y-76930000D03*
%TD*%
D18*
%TO.P,J7,1,Pin_1*%
%TO.N,+5V*%
X102015000Y-104690000D03*
D19*
%TO.P,J7,2,Pin_2*%
%TO.N,GND*%
X102015000Y-107230000D03*
%TO.P,J7,3,Pin_3*%
%TO.N,CH3*%
X102015000Y-109770000D03*
%TD*%
D20*
%TO.P,C1,1*%
%TO.N,+5V*%
X119750000Y-106120000D03*
%TO.P,C1,2*%
%TO.N,GND*%
X119750000Y-104220000D03*
%TD*%
D18*
%TO.P,J1,1,Pin_1*%
%TO.N,+5V*%
X96360000Y-92970000D03*
D19*
%TO.P,J1,2,Pin_2*%
%TO.N,CH0*%
X96360000Y-95510000D03*
%TD*%
D18*
%TO.P,J5,1,Pin_1*%
%TO.N,+3.3V*%
X133610000Y-95795000D03*
D19*
%TO.P,J5,2,Pin_2*%
%TO.N,GND*%
X136150000Y-95795000D03*
%TO.P,J5,3,Pin_3*%
%TO.N,SCL*%
X138690000Y-95795000D03*
%TO.P,J5,4,Pin_4*%
%TO.N,SDA*%
X141230000Y-95795000D03*
%TD*%
D18*
%TO.P,J4,1,Pin_1*%
%TO.N,+3.3V*%
X151625000Y-80565000D03*
D19*
%TO.P,J4,2,Pin_2*%
%TO.N,GND*%
X151625000Y-83105000D03*
%TO.P,J4,3,Pin_3*%
%TO.N,SCL*%
X151625000Y-85645000D03*
%TO.P,J4,4,Pin_4*%
%TO.N,SDA*%
X151625000Y-88185000D03*
%TO.P,J4,5,Pin_5*%
%TO.N,unconnected-(J4-Pad5)*%
X151625000Y-90725000D03*
%TO.P,J4,6,Pin_6*%
%TO.N,unconnected-(J4-Pad6)*%
X151625000Y-93265000D03*
%TO.P,J4,7,Pin_7*%
%TO.N,ADO*%
X151625000Y-95805000D03*
%TO.P,J4,8,Pin_8*%
%TO.N,INT*%
X151625000Y-98345000D03*
%TD*%
D18*
%TO.P,J2,1,Pin_1*%
%TO.N,GND*%
X148080000Y-71850000D03*
D19*
%TO.P,J2,2,Pin_2*%
%TO.N,DHTOUT*%
X150620000Y-71850000D03*
%TO.P,J2,3,Pin_3*%
%TO.N,+3.3V*%
X153160000Y-71850000D03*
%TD*%
D18*
%TO.P,J10,1,Pin_1*%
%TO.N,TXI_CLK*%
X139925000Y-110205000D03*
D19*
%TO.P,J10,2,Pin_2*%
%TO.N,RXO_MISO*%
X139925000Y-112745000D03*
%TO.P,J10,3,Pin_3*%
%TO.N,+3.3V*%
X139925000Y-115285000D03*
%TO.P,J10,4,Pin_4*%
%TO.N,GND*%
X139925000Y-117825000D03*
%TO.P,J10,5,Pin_5*%
%TO.N,RXO1_MOSI*%
X139925000Y-120365000D03*
%TO.P,J10,6,Pin_6*%
%TO.N,TXI1_CS*%
X139925000Y-122905000D03*
%TD*%
D18*
%TO.P,J3,1,Pin_1*%
%TO.N,+3.3V*%
X164275000Y-104680000D03*
D19*
%TO.P,J3,2,Pin_2*%
%TO.N,GND*%
X164275000Y-107220000D03*
%TO.P,J3,3,Pin_3*%
%TO.N,SCL*%
X164275000Y-109760000D03*
%TO.P,J3,4,Pin_4*%
%TO.N,SDA*%
X164275000Y-112300000D03*
%TO.P,J3,5,Pin_5*%
%TO.N,unconnected-(J3-Pad5)*%
X164275000Y-114840000D03*
%TD*%
D18*
%TO.P,J8,1,Pin_1*%
%TO.N,CLK*%
X127340000Y-110210000D03*
D19*
%TO.P,J8,2,Pin_2*%
%TO.N,MISO*%
X127340000Y-112750000D03*
%TO.P,J8,3,Pin_3*%
%TO.N,+5V*%
X127340000Y-115290000D03*
%TO.P,J8,4,Pin_4*%
%TO.N,GND*%
X127340000Y-117830000D03*
%TO.P,J8,5,Pin_5*%
%TO.N,MOSI*%
X127340000Y-120370000D03*
%TO.P,J8,6,Pin_6*%
%TO.N,CS*%
X127340000Y-122910000D03*
%TD*%
D21*
%TO.P,R1,1*%
%TO.N,CH0*%
X96350000Y-100350000D03*
%TO.P,R1,2*%
%TO.N,GND*%
X96350000Y-102000000D03*
%TD*%
D22*
%TO.P,R3,1*%
%TO.N,+3.3V*%
X164460000Y-99425000D03*
%TO.P,R3,2*%
%TO.N,Net-(D1-Pad2)*%
X164460000Y-97775000D03*
%TD*%
D18*
%TO.P,J6,1,Pin_1*%
%TO.N,unconnected-(J6-Pad1)*%
X103855000Y-70230000D03*
D19*
%TO.P,J6,2,Pin_2*%
%TO.N,/EN*%
X103855000Y-72770000D03*
%TO.P,J6,3,Pin_3*%
%TO.N,unconnected-(J6-Pad3)*%
X103855000Y-75310000D03*
%TO.P,J6,4,Pin_4*%
%TO.N,unconnected-(J6-Pad4)*%
X103855000Y-77850000D03*
%TO.P,J6,5,Pin_5*%
%TO.N,TX*%
X103855000Y-80390000D03*
%TO.P,J6,6,Pin_6*%
%TO.N,RX*%
X103855000Y-82930000D03*
%TO.P,J6,7,Pin_7*%
%TO.N,GND*%
X103855000Y-85470000D03*
%TO.P,J6,8,Pin_8*%
%TO.N,+3.3V*%
X103855000Y-88010000D03*
%TO.P,J6,9,Pin_9*%
%TO.N,PPS*%
X103855000Y-90550000D03*
%TD*%
D18*
%TO.P,J11,1,Pin_1*%
%TO.N,+5V*%
X97475000Y-114510000D03*
D19*
%TO.P,J11,2,Pin_2*%
%TO.N,GND*%
X97475000Y-117050000D03*
%TO.P,J11,3,Pin_3*%
%TO.N,unconnected-(J11-Pad3)*%
X97475000Y-119590000D03*
%TO.P,J11,4,Pin_4*%
%TO.N,CH1*%
X97475000Y-122130000D03*
%TO.P,J11,5,Pin_5*%
%TO.N,CH2*%
X97475000Y-124670000D03*
%TO.P,J11,6,Pin_6*%
%TO.N,CH5*%
X97475000Y-127210000D03*
%TO.P,J11,7,Pin_7*%
%TO.N,CH4*%
X97475000Y-129750000D03*
%TD*%
D18*
%TO.P,J9,1,Pin_1*%
%TO.N,+3.3V*%
X159670000Y-129990000D03*
D19*
%TO.P,J9,2,Pin_2*%
%TO.N,+5V*%
X159670000Y-132530000D03*
%TO.P,J9,3,Pin_3*%
%TO.N,SDA*%
X157130000Y-129990000D03*
%TO.P,J9,4,Pin_4*%
%TO.N,unconnected-(J9-Pad4)*%
X157130000Y-132530000D03*
%TO.P,J9,5,Pin_5*%
%TO.N,SCL*%
X154590000Y-129990000D03*
%TO.P,J9,6,Pin_6*%
%TO.N,GND*%
X154590000Y-132530000D03*
%TO.P,J9,7,Pin_7*%
%TO.N,unconnected-(J9-Pad7)*%
X152050000Y-129990000D03*
%TO.P,J9,8,Pin_8*%
%TO.N,TX*%
X152050000Y-132530000D03*
%TO.P,J9,9,Pin_9*%
%TO.N,GND*%
X149510000Y-129990000D03*
%TO.P,J9,10,Pin_10*%
%TO.N,RX*%
X149510000Y-132530000D03*
%TO.P,J9,11,Pin_11*%
%TO.N,INT*%
X146970000Y-129990000D03*
%TO.P,J9,12,Pin_12*%
%TO.N,unconnected-(J9-Pad12)*%
X146970000Y-132530000D03*
%TO.P,J9,13,Pin_13*%
%TO.N,ADO*%
X144430000Y-129990000D03*
%TO.P,J9,14,Pin_14*%
%TO.N,unconnected-(J9-Pad14)*%
X144430000Y-132530000D03*
%TO.P,J9,15,Pin_15*%
%TO.N,DHTOUT*%
X141890000Y-129990000D03*
%TO.P,J9,16,Pin_16*%
%TO.N,PPS*%
X141890000Y-132530000D03*
%TO.P,J9,17,Pin_17*%
%TO.N,unconnected-(J9-Pad17)*%
X139350000Y-129990000D03*
%TO.P,J9,18,Pin_18*%
%TO.N,unconnected-(J9-Pad18)*%
X139350000Y-132530000D03*
%TO.P,J9,19,Pin_19*%
%TO.N,RXO1_MOSI*%
X136810000Y-129990000D03*
%TO.P,J9,20,Pin_20*%
%TO.N,unconnected-(J9-Pad20)*%
X136810000Y-132530000D03*
%TO.P,J9,21,Pin_21*%
%TO.N,RXO_MISO*%
X134270000Y-129990000D03*
%TO.P,J9,22,Pin_22*%
%TO.N,unconnected-(J9-Pad22)*%
X134270000Y-132530000D03*
%TO.P,J9,23,Pin_23*%
%TO.N,TXI_CLK*%
X131730000Y-129990000D03*
%TO.P,J9,24,Pin_24*%
%TO.N,unconnected-(J9-Pad24)*%
X131730000Y-132530000D03*
%TO.P,J9,25,Pin_25*%
%TO.N,unconnected-(J9-Pad25)*%
X129190000Y-129990000D03*
%TO.P,J9,26,Pin_26*%
%TO.N,unconnected-(J9-Pad26)*%
X129190000Y-132530000D03*
%TO.P,J9,27,Pin_27*%
%TO.N,unconnected-(J9-Pad27)*%
X126650000Y-129990000D03*
%TO.P,J9,28,Pin_28*%
%TO.N,unconnected-(J9-Pad28)*%
X126650000Y-132530000D03*
%TO.P,J9,29,Pin_29*%
%TO.N,OE*%
X124110000Y-129990000D03*
%TO.P,J9,30,Pin_30*%
%TO.N,unconnected-(J9-Pad30)*%
X124110000Y-132530000D03*
%TO.P,J9,31,Pin_31*%
%TO.N,unconnected-(J9-Pad31)*%
X121570000Y-129990000D03*
%TO.P,J9,32,Pin_32*%
%TO.N,unconnected-(J9-Pad32)*%
X121570000Y-132530000D03*
%TO.P,J9,33,Pin_33*%
%TO.N,unconnected-(J9-Pad33)*%
X119030000Y-129990000D03*
%TO.P,J9,34,Pin_34*%
%TO.N,unconnected-(J9-Pad34)*%
X119030000Y-132530000D03*
%TO.P,J9,35,Pin_35*%
%TO.N,unconnected-(J9-Pad35)*%
X116490000Y-129990000D03*
%TO.P,J9,36,Pin_36*%
%TO.N,unconnected-(J9-Pad36)*%
X116490000Y-132530000D03*
%TO.P,J9,37,Pin_37*%
%TO.N,TXI1_CS*%
X113950000Y-129990000D03*
%TO.P,J9,38,Pin_38*%
%TO.N,unconnected-(J9-Pad38)*%
X113950000Y-132530000D03*
%TO.P,J9,39,Pin_39*%
%TO.N,GND*%
X111410000Y-129990000D03*
%TO.P,J9,40,Pin_40*%
%TO.N,unconnected-(J9-Pad40)*%
X111410000Y-132530000D03*
%TD*%
D23*
%TO.N,+5V*%
X153419500Y-135410000D03*
X137880000Y-135380000D03*
%TO.N,GND*%
X98950000Y-107215000D03*
X120170000Y-125110000D03*
X164490000Y-91370000D03*
X120300000Y-109960000D03*
X96370000Y-103110000D03*
X122290000Y-104210000D03*
%TO.N,+3.3V*%
X97690000Y-88100000D03*
X158000000Y-124890000D03*
X95470000Y-77110000D03*
X130750000Y-93520000D03*
X125390000Y-92750000D03*
%TO.N,SDA*%
X157220000Y-111690000D03*
X153600000Y-108080000D03*
%TO.N,ADO*%
X147720000Y-99760000D03*
X147530000Y-108500000D03*
D24*
%TO.N,INT*%
X151630000Y-103260000D03*
D23*
X151640000Y-112050000D03*
D24*
%TO.N,TXI1_CS*%
X129720000Y-126220000D03*
D23*
X139330000Y-126220000D03*
D24*
%TO.N,CH1*%
X104510000Y-111410000D03*
D23*
%TO.N,CH2*%
X106370000Y-112445500D03*
%TO.N,CH5*%
X106130000Y-122750000D03*
%TD*%
D25*
%TO.N,MOSI*%
X119659000Y-119141000D02*
X116976000Y-119141000D01*
X119675000Y-119125000D02*
X119659000Y-119141000D01*
%TO.N,+5V*%
X130800000Y-108350000D02*
X130800000Y-114050000D01*
D26*
X159670000Y-132530000D02*
X159670000Y-134280000D01*
X103170000Y-133690000D02*
X104980000Y-135500000D01*
X137760000Y-135500000D02*
X137880000Y-135380000D01*
X96010000Y-133690000D02*
X103170000Y-133690000D01*
D25*
X93150000Y-110690000D02*
X93150000Y-109980000D01*
X93150000Y-110690000D02*
X93150000Y-110570000D01*
D26*
X93210000Y-113890000D02*
X93210000Y-111570000D01*
X93210000Y-130890000D02*
X96010000Y-133690000D01*
D25*
X93150000Y-111090000D02*
X93150000Y-111570000D01*
X96360000Y-92970000D02*
X100450000Y-92970000D01*
D26*
X159670000Y-134280000D02*
X158550000Y-135400000D01*
D25*
X96630000Y-106650000D02*
X98590000Y-104690000D01*
X98590000Y-104690000D02*
X102015000Y-104690000D01*
X130800000Y-114050000D02*
X129560000Y-115290000D01*
X113050000Y-96220000D02*
X116800000Y-99970000D01*
X95960000Y-106650000D02*
X96630000Y-106650000D01*
X93910000Y-104600000D02*
X95960000Y-106650000D01*
X94210000Y-93490000D02*
X94210000Y-93450000D01*
X93150000Y-109980000D02*
X93150000Y-104600000D01*
X116800000Y-99970000D02*
X116800000Y-106425000D01*
D26*
X93830000Y-114510000D02*
X93210000Y-113890000D01*
D25*
X129560000Y-115290000D02*
X127340000Y-115290000D01*
X100450000Y-92970000D02*
X103700000Y-96220000D01*
X103700000Y-96220000D02*
X113050000Y-96220000D01*
X119750000Y-106120000D02*
X117105000Y-106120000D01*
D26*
X104980000Y-135500000D02*
X137760000Y-135500000D01*
X158550000Y-135400000D02*
X153940000Y-135400000D01*
D25*
X94210000Y-93450000D02*
X94690000Y-92970000D01*
D26*
X153930000Y-135410000D02*
X153820000Y-135410000D01*
D25*
X116800000Y-106425000D02*
X116800000Y-108965000D01*
X93150000Y-104600000D02*
X93910000Y-104600000D01*
D26*
X153940000Y-135400000D02*
X153930000Y-135410000D01*
X97475000Y-114510000D02*
X93830000Y-114510000D01*
D25*
X93150000Y-111090000D02*
X93150000Y-110690000D01*
X117105000Y-106120000D02*
X116800000Y-106425000D01*
X119750000Y-106120000D02*
X128570000Y-106120000D01*
X93150000Y-104600000D02*
X93150000Y-94550000D01*
X128570000Y-106120000D02*
X130800000Y-108350000D01*
X94690000Y-92970000D02*
X96360000Y-92970000D01*
X93150000Y-94550000D02*
X94210000Y-93490000D01*
D26*
X93210000Y-113890000D02*
X93210000Y-130890000D01*
D25*
%TO.N,GND*%
X98965000Y-107230000D02*
X98950000Y-107215000D01*
X102015000Y-107230000D02*
X98965000Y-107230000D01*
X117190000Y-111620000D02*
X118640000Y-111620000D01*
X164470000Y-93320000D02*
X164470000Y-91390000D01*
X118640000Y-111620000D02*
X120300000Y-109960000D01*
X122280000Y-104220000D02*
X119750000Y-104220000D01*
X122290000Y-104210000D02*
X122280000Y-104220000D01*
X96350000Y-103090000D02*
X96370000Y-103110000D01*
X117190000Y-124320000D02*
X119380000Y-124320000D01*
X119380000Y-124320000D02*
X120170000Y-125110000D01*
X164470000Y-91390000D02*
X164490000Y-91370000D01*
X96350000Y-102000000D02*
X96350000Y-103090000D01*
%TO.N,CH0*%
X107455000Y-106425000D02*
X109180000Y-106425000D01*
X106320000Y-105290000D02*
X107455000Y-106425000D01*
X104890000Y-102020000D02*
X104890000Y-103960000D01*
X104890000Y-103960000D02*
X106220000Y-105290000D01*
X96350000Y-100350000D02*
X103220000Y-100350000D01*
X96300000Y-95570000D02*
X96300000Y-100330000D01*
X103220000Y-100350000D02*
X104890000Y-102020000D01*
X106220000Y-105290000D02*
X106320000Y-105290000D01*
X96360000Y-95510000D02*
X96300000Y-95570000D01*
%TO.N,DHTOUT*%
X148160000Y-77610000D02*
X150620000Y-75150000D01*
X145650000Y-123400000D02*
X145650000Y-107090000D01*
X128290000Y-89440000D02*
X140120000Y-77610000D01*
X141810000Y-129590000D02*
X141810000Y-127030000D01*
X140120000Y-77610000D02*
X148160000Y-77610000D01*
X134340000Y-104630000D02*
X128290000Y-98580000D01*
X144750000Y-124300000D02*
X145650000Y-123400000D01*
X144540000Y-124300000D02*
X144750000Y-124300000D01*
X150620000Y-75150000D02*
X150620000Y-71850000D01*
X141810000Y-127030000D02*
X144540000Y-124300000D01*
X145650000Y-107090000D02*
X143190000Y-104630000D01*
X128290000Y-98580000D02*
X128290000Y-89440000D01*
X143190000Y-104630000D02*
X134340000Y-104630000D01*
%TO.N,+3.3V*%
X164275000Y-104680000D02*
X164275000Y-99610000D01*
X168660000Y-106950000D02*
X168660000Y-128570000D01*
X159590000Y-126480000D02*
X158000000Y-124890000D01*
X130750000Y-94780000D02*
X131765000Y-95795000D01*
X164275000Y-99610000D02*
X164460000Y-99425000D01*
X131765000Y-95795000D02*
X133610000Y-95795000D01*
X159590000Y-129590000D02*
X159590000Y-126480000D01*
X145575000Y-80565000D02*
X133610000Y-92530000D01*
X95650000Y-76930000D02*
X95470000Y-77110000D01*
X103765000Y-88100000D02*
X103855000Y-88010000D01*
X133610000Y-92530000D02*
X133610000Y-95795000D01*
X168660000Y-128570000D02*
X167580000Y-129650000D01*
X153160000Y-71850000D02*
X153160000Y-79030000D01*
X97705000Y-76930000D02*
X95650000Y-76930000D01*
X165210000Y-129590000D02*
X165270000Y-129650000D01*
X107150000Y-88010000D02*
X103855000Y-88010000D01*
X167580000Y-129650000D02*
X165270000Y-129650000D01*
X97690000Y-88100000D02*
X103765000Y-88100000D01*
X164275000Y-104680000D02*
X166390000Y-104680000D01*
X166390000Y-104680000D02*
X168660000Y-106950000D01*
X130750000Y-93520000D02*
X130750000Y-94780000D01*
X111890000Y-92750000D02*
X107150000Y-88010000D01*
X153160000Y-79030000D02*
X151625000Y-80565000D01*
X151625000Y-80565000D02*
X145575000Y-80565000D01*
X159590000Y-129590000D02*
X165210000Y-129590000D01*
X125390000Y-92750000D02*
X111890000Y-92750000D01*
%TO.N,SCL*%
X154790000Y-110820000D02*
X155870000Y-109740000D01*
X154510000Y-113070000D02*
X154510000Y-129590000D01*
X154790000Y-112790000D02*
X154510000Y-113070000D01*
X145615000Y-85645000D02*
X138690000Y-92570000D01*
X138690000Y-92570000D02*
X138690000Y-95795000D01*
X155890000Y-109760000D02*
X164275000Y-109760000D01*
X151625000Y-85645000D02*
X145615000Y-85645000D01*
X155870000Y-109740000D02*
X155890000Y-109760000D01*
X154790000Y-110820000D02*
X154790000Y-112790000D01*
X138690000Y-96497258D02*
X154675000Y-112482258D01*
X138690000Y-95795000D02*
X138690000Y-96497258D01*
%TO.N,SDA*%
X158670000Y-112300000D02*
X158400000Y-112570000D01*
X158400000Y-112570000D02*
X158100000Y-112570000D01*
X141230000Y-93900000D02*
X141230000Y-95795000D01*
X153525000Y-108090000D02*
X141230000Y-95795000D01*
X157050000Y-129590000D02*
X157050000Y-126202742D01*
X156110000Y-125262742D02*
X156110000Y-114860000D01*
X158400000Y-112570000D02*
X156110000Y-114860000D01*
X157050000Y-126202742D02*
X156110000Y-125262742D01*
X146945000Y-88185000D02*
X141230000Y-93900000D01*
X151625000Y-88185000D02*
X146945000Y-88185000D01*
X164275000Y-112300000D02*
X158670000Y-112300000D01*
X158100000Y-112570000D02*
X157220000Y-111690000D01*
%TO.N,ADO*%
X147530000Y-124510000D02*
X147530000Y-124150000D01*
X147530000Y-108500000D02*
X147530000Y-124150000D01*
X144350000Y-127690000D02*
X147530000Y-124510000D01*
X147720000Y-97720000D02*
X147720000Y-99760000D01*
X151625000Y-95805000D02*
X149635000Y-95805000D01*
X144350000Y-129590000D02*
X144350000Y-127690000D01*
X149635000Y-95805000D02*
X147720000Y-97720000D01*
%TO.N,INT*%
X151625000Y-103255000D02*
X151625000Y-98345000D01*
X151640000Y-112050000D02*
X151650000Y-112060000D01*
X151630000Y-103260000D02*
X151625000Y-103255000D01*
X151650000Y-123720000D02*
X146890000Y-128480000D01*
X151650000Y-112060000D02*
X151650000Y-123720000D01*
X146890000Y-128480000D02*
X146890000Y-129590000D01*
%TO.N,TX*%
X103855000Y-80390000D02*
X95660000Y-80390000D01*
X95660000Y-80390000D02*
X87590000Y-88460000D01*
X151870000Y-143710000D02*
X148140000Y-147440000D01*
X87590000Y-141180000D02*
X93850000Y-147440000D01*
X87590000Y-88460000D02*
X87590000Y-141180000D01*
X151870000Y-132230000D02*
X151870000Y-143710000D01*
X148140000Y-147440000D02*
X147740000Y-147440000D01*
X93850000Y-147440000D02*
X147740000Y-147440000D01*
%TO.N,RX*%
X103855000Y-82930000D02*
X96930000Y-82930000D01*
X149440000Y-132140000D02*
X149440000Y-143570000D01*
X96930000Y-82930000D02*
X89660000Y-90200000D01*
X147316371Y-145693629D02*
X94614441Y-145693629D01*
X89660000Y-90200000D02*
X89660000Y-90490000D01*
X89660000Y-140739188D02*
X89660000Y-90490000D01*
X149440000Y-143570000D02*
X147316371Y-145693629D01*
X94614441Y-145693629D02*
X89660000Y-140739188D01*
%TO.N,PPS*%
X141810000Y-132130000D02*
X141810000Y-143510000D01*
X103855000Y-90550000D02*
X93150000Y-90550000D01*
X91260000Y-140076446D02*
X95266777Y-144083223D01*
X91260000Y-140060000D02*
X91260000Y-140076446D01*
X95277183Y-144093629D02*
X141226371Y-144093629D01*
X93150000Y-90550000D02*
X91260000Y-92440000D01*
X91260000Y-92440000D02*
X91260000Y-140060000D01*
X95266777Y-144083223D02*
X95277183Y-144093629D01*
X141810000Y-143510000D02*
X141226371Y-144093629D01*
%TO.N,CH3*%
X105545000Y-114045000D02*
X109180000Y-114045000D01*
X102015000Y-113005000D02*
X102015000Y-109770000D01*
X103100000Y-114090000D02*
X102015000Y-113005000D01*
X105545000Y-114045000D02*
X105500000Y-114090000D01*
X105500000Y-114090000D02*
X103100000Y-114090000D01*
%TO.N,CLK*%
X122570000Y-110210000D02*
X127340000Y-110210000D01*
X116800000Y-114045000D02*
X118735000Y-114045000D01*
X118735000Y-114045000D02*
X122570000Y-110210000D01*
%TO.N,MISO*%
X123330000Y-112750000D02*
X127340000Y-112750000D01*
X119495000Y-116585000D02*
X123330000Y-112750000D01*
X116800000Y-116585000D02*
X119495000Y-116585000D01*
%TO.N,MOSI*%
X119675000Y-119125000D02*
X120920000Y-120370000D01*
X120920000Y-120370000D02*
X127340000Y-120370000D01*
%TO.N,CS*%
X118975000Y-121665000D02*
X120220000Y-122910000D01*
X116800000Y-121665000D02*
X118975000Y-121665000D01*
X120220000Y-122910000D02*
X127340000Y-122910000D01*
%TO.N,RXO1_MOSI*%
X139925000Y-120365000D02*
X138265000Y-120365000D01*
X136730000Y-121900000D02*
X136730000Y-129590000D01*
X138265000Y-120365000D02*
X136730000Y-121900000D01*
%TO.N,RXO_MISO*%
X138385000Y-112745000D02*
X136690000Y-114440000D01*
X136690000Y-116500000D02*
X134190000Y-119000000D01*
X136690000Y-114440000D02*
X136690000Y-116500000D01*
X139925000Y-112745000D02*
X138385000Y-112745000D01*
X134190000Y-119000000D02*
X134190000Y-129590000D01*
%TO.N,TXI_CLK*%
X131650000Y-115930000D02*
X131650000Y-129590000D01*
X139925000Y-110205000D02*
X135445000Y-110205000D01*
X133260000Y-114320000D02*
X131650000Y-115930000D01*
X133260000Y-112390000D02*
X133260000Y-114320000D01*
X135445000Y-110205000D02*
X133260000Y-112390000D01*
%TO.N,TXI1_CS*%
X139925000Y-125625000D02*
X139330000Y-126220000D01*
X115680000Y-127210000D02*
X128660000Y-127210000D01*
X139925000Y-122905000D02*
X139925000Y-125625000D01*
X128660000Y-127210000D02*
X129650000Y-126220000D01*
X113870000Y-129590000D02*
X113870000Y-129020000D01*
X113870000Y-129020000D02*
X115680000Y-127210000D01*
%TO.N,CH1*%
X104510000Y-111410000D02*
X104510000Y-109950000D01*
X105300000Y-109160000D02*
X108960000Y-109160000D01*
X104510000Y-109950000D02*
X105300000Y-109160000D01*
D27*
%TO.N,CH2*%
X109570000Y-111620000D02*
X107195500Y-111620000D01*
X107195500Y-111620000D02*
X106370000Y-112445500D01*
D25*
%TO.N,/EN*%
X101310000Y-72770000D02*
X99355000Y-74725000D01*
X103855000Y-72770000D02*
X101310000Y-72770000D01*
X99355000Y-74725000D02*
X99355000Y-76930000D01*
%TO.N,Net-(D1-Pad2)*%
X164460000Y-95205000D02*
X164470000Y-95195000D01*
X164460000Y-97775000D02*
X164460000Y-95205000D01*
%TO.N,CH4*%
X102830000Y-129750000D02*
X104420000Y-128160000D01*
X107975000Y-116585000D02*
X109180000Y-116585000D01*
X104420000Y-120140000D02*
X107975000Y-116585000D01*
X97475000Y-129750000D02*
X102830000Y-129750000D01*
X104420000Y-128160000D02*
X104420000Y-120140000D01*
%TO.N,CH5*%
X107590000Y-119240000D02*
X107370000Y-119460000D01*
X107362742Y-119460000D02*
X106130000Y-120692742D01*
X109570000Y-119240000D02*
X107590000Y-119240000D01*
X107370000Y-119460000D02*
X107362742Y-119460000D01*
X106130000Y-120692742D02*
X106130000Y-122750000D01*
%TD*%
M02*
