%TF.GenerationSoftware,KiCad,Pcbnew,(6.0.7)*%
%TF.CreationDate,2023-02-22T21:26:54+03:00*%
%TF.ProjectId,Omarichet Sensor Shield 1.3,4f6d6172-6963-4686-9574-2053656e736f,rev?*%
%TF.SameCoordinates,Original*%
%TF.FileFunction,Soldermask,Bot*%
%TF.FilePolarity,Negative*%
%FSLAX46Y46*%
G04 Gerber Fmt 4.6, Leading zero omitted, Abs format (unit mm)*
G04 Created by KiCad (PCBNEW (6.0.7)) date 2023-02-22 21:26:54*
%MOMM*%
%LPD*%
G01*
G04 APERTURE LIST*
%ADD10R,1.600000X1.600000*%
%ADD11O,1.600000X1.600000*%
%ADD12C,3.200000*%
%ADD13R,1.700000X1.700000*%
%ADD14O,1.700000X1.700000*%
G04 APERTURE END LIST*
D10*
%TO.C,U1*%
X109356000Y-106441000D03*
D11*
X109356000Y-108981000D03*
X109356000Y-111521000D03*
X109356000Y-114061000D03*
X109356000Y-116601000D03*
X109356000Y-119141000D03*
X109356000Y-121681000D03*
X109356000Y-124221000D03*
X116976000Y-124221000D03*
X116976000Y-121681000D03*
X116976000Y-119141000D03*
X116976000Y-116601000D03*
X116976000Y-114061000D03*
X116976000Y-111521000D03*
X116976000Y-108981000D03*
X116976000Y-106441000D03*
%TD*%
D12*
%TO.C,H2*%
X95950000Y-71660000D03*
%TD*%
D13*
%TO.C,J7*%
X102015000Y-104690000D03*
D14*
X102015000Y-107230000D03*
X102015000Y-109770000D03*
%TD*%
D12*
%TO.C,H1*%
X161210000Y-71570000D03*
%TD*%
D13*
%TO.C,J1*%
X96360000Y-92970000D03*
D14*
X96360000Y-95510000D03*
%TD*%
D13*
%TO.C,J5*%
X133610000Y-95795000D03*
D14*
X136150000Y-95795000D03*
X138690000Y-95795000D03*
X141230000Y-95795000D03*
%TD*%
D12*
%TO.C,H4*%
X160980000Y-139420000D03*
%TD*%
D13*
%TO.C,J4*%
X151625000Y-80565000D03*
D14*
X151625000Y-83105000D03*
X151625000Y-85645000D03*
X151625000Y-88185000D03*
X151625000Y-90725000D03*
X151625000Y-93265000D03*
X151625000Y-95805000D03*
X151625000Y-98345000D03*
%TD*%
D13*
%TO.C,J2*%
X148080000Y-71850000D03*
D14*
X150620000Y-71850000D03*
X153160000Y-71850000D03*
%TD*%
D13*
%TO.C,J10*%
X139925000Y-110205000D03*
D14*
X139925000Y-112745000D03*
X139925000Y-115285000D03*
X139925000Y-117825000D03*
X139925000Y-120365000D03*
X139925000Y-122905000D03*
%TD*%
D13*
%TO.C,J3*%
X164275000Y-104680000D03*
D14*
X164275000Y-107220000D03*
X164275000Y-109760000D03*
X164275000Y-112300000D03*
X164275000Y-114840000D03*
%TD*%
D13*
%TO.C,J8*%
X127340000Y-110210000D03*
D14*
X127340000Y-112750000D03*
X127340000Y-115290000D03*
X127340000Y-117830000D03*
X127340000Y-120370000D03*
X127340000Y-122910000D03*
%TD*%
D12*
%TO.C,H3*%
X95980000Y-139230000D03*
%TD*%
D13*
%TO.C,J6*%
X103855000Y-70230000D03*
D14*
X103855000Y-72770000D03*
X103855000Y-75310000D03*
X103855000Y-77850000D03*
X103855000Y-80390000D03*
X103855000Y-82930000D03*
X103855000Y-85470000D03*
X103855000Y-88010000D03*
X103855000Y-90550000D03*
%TD*%
D13*
%TO.C,J11*%
X97475000Y-114510000D03*
D14*
X97475000Y-117050000D03*
X97475000Y-119590000D03*
X97475000Y-122130000D03*
X97475000Y-124670000D03*
X97475000Y-127210000D03*
X97475000Y-129750000D03*
%TD*%
D13*
%TO.C,J9*%
X159670000Y-129990000D03*
D14*
X159670000Y-132530000D03*
X157130000Y-129990000D03*
X157130000Y-132530000D03*
X154590000Y-129990000D03*
X154590000Y-132530000D03*
X152050000Y-129990000D03*
X152050000Y-132530000D03*
X149510000Y-129990000D03*
X149510000Y-132530000D03*
X146970000Y-129990000D03*
X146970000Y-132530000D03*
X144430000Y-129990000D03*
X144430000Y-132530000D03*
X141890000Y-129990000D03*
X141890000Y-132530000D03*
X139350000Y-129990000D03*
X139350000Y-132530000D03*
X136810000Y-129990000D03*
X136810000Y-132530000D03*
X134270000Y-129990000D03*
X134270000Y-132530000D03*
X131730000Y-129990000D03*
X131730000Y-132530000D03*
X129190000Y-129990000D03*
X129190000Y-132530000D03*
X126650000Y-129990000D03*
X126650000Y-132530000D03*
X124110000Y-129990000D03*
X124110000Y-132530000D03*
X121570000Y-129990000D03*
X121570000Y-132530000D03*
X119030000Y-129990000D03*
X119030000Y-132530000D03*
X116490000Y-129990000D03*
X116490000Y-132530000D03*
X113950000Y-129990000D03*
X113950000Y-132530000D03*
X111410000Y-129990000D03*
X111410000Y-132530000D03*
%TD*%
M02*
