%TF.GenerationSoftware,KiCad,Pcbnew,(6.0.7)*%
%TF.CreationDate,2023-02-02T11:58:54+03:00*%
%TF.ProjectId,Omarichet Sensor Shield 1.3,4f6d6172-6963-4686-9574-2053656e736f,rev?*%
%TF.SameCoordinates,Original*%
%TF.FileFunction,Legend,Bot*%
%TF.FilePolarity,Positive*%
%FSLAX46Y46*%
G04 Gerber Fmt 4.6, Leading zero omitted, Abs format (unit mm)*
G04 Created by KiCad (PCBNEW (6.0.7)) date 2023-02-02 11:58:54*
%MOMM*%
%LPD*%
G01*
G04 APERTURE LIST*
%ADD10C,0.300000*%
%ADD11C,0.150000*%
%ADD12C,0.120000*%
G04 APERTURE END LIST*
D10*
X148614285Y-79337142D02*
X147947619Y-79337142D01*
X147661904Y-80384761D02*
X148614285Y-80384761D01*
X148614285Y-78384761D01*
X147661904Y-78384761D01*
X146804761Y-80384761D02*
X146804761Y-78384761D01*
X146328571Y-78384761D01*
X146042857Y-78480000D01*
X145852380Y-78670476D01*
X145757142Y-78860952D01*
X145661904Y-79241904D01*
X145661904Y-79527619D01*
X145757142Y-79908571D01*
X145852380Y-80099047D01*
X146042857Y-80289523D01*
X146328571Y-80384761D01*
X146804761Y-80384761D01*
X144804761Y-78384761D02*
X144804761Y-80003809D01*
X144709523Y-80194285D01*
X144614285Y-80289523D01*
X144423809Y-80384761D01*
X144042857Y-80384761D01*
X143852380Y-80289523D01*
X143757142Y-80194285D01*
X143661904Y-80003809D01*
X143661904Y-78384761D01*
X142804761Y-80289523D02*
X142519047Y-80384761D01*
X142042857Y-80384761D01*
X141852380Y-80289523D01*
X141757142Y-80194285D01*
X141661904Y-80003809D01*
X141661904Y-79813333D01*
X141757142Y-79622857D01*
X141852380Y-79527619D01*
X142042857Y-79432380D01*
X142423809Y-79337142D01*
X142614285Y-79241904D01*
X142709523Y-79146666D01*
X142804761Y-78956190D01*
X142804761Y-78765714D01*
X142709523Y-78575238D01*
X142614285Y-78480000D01*
X142423809Y-78384761D01*
X141947619Y-78384761D01*
X141661904Y-78480000D01*
X140900000Y-79813333D02*
X139947619Y-79813333D01*
X141090476Y-80384761D02*
X140423809Y-78384761D01*
X139757142Y-80384761D01*
X139376190Y-78384761D02*
X138233333Y-78384761D01*
X138804761Y-80384761D02*
X138804761Y-78384761D01*
X136138095Y-80289523D02*
X135852380Y-80384761D01*
X135376190Y-80384761D01*
X135185714Y-80289523D01*
X135090476Y-80194285D01*
X134995238Y-80003809D01*
X134995238Y-79813333D01*
X135090476Y-79622857D01*
X135185714Y-79527619D01*
X135376190Y-79432380D01*
X135757142Y-79337142D01*
X135947619Y-79241904D01*
X136042857Y-79146666D01*
X136138095Y-78956190D01*
X136138095Y-78765714D01*
X136042857Y-78575238D01*
X135947619Y-78480000D01*
X135757142Y-78384761D01*
X135280952Y-78384761D01*
X134995238Y-78480000D01*
X134138095Y-79337142D02*
X133471428Y-79337142D01*
X133185714Y-80384761D02*
X134138095Y-80384761D01*
X134138095Y-78384761D01*
X133185714Y-78384761D01*
X132328571Y-80384761D02*
X132328571Y-78384761D01*
X131185714Y-80384761D01*
X131185714Y-78384761D01*
X130328571Y-80289523D02*
X130042857Y-80384761D01*
X129566666Y-80384761D01*
X129376190Y-80289523D01*
X129280952Y-80194285D01*
X129185714Y-80003809D01*
X129185714Y-79813333D01*
X129280952Y-79622857D01*
X129376190Y-79527619D01*
X129566666Y-79432380D01*
X129947619Y-79337142D01*
X130138095Y-79241904D01*
X130233333Y-79146666D01*
X130328571Y-78956190D01*
X130328571Y-78765714D01*
X130233333Y-78575238D01*
X130138095Y-78480000D01*
X129947619Y-78384761D01*
X129471428Y-78384761D01*
X129185714Y-78480000D01*
X127947619Y-78384761D02*
X127566666Y-78384761D01*
X127376190Y-78480000D01*
X127185714Y-78670476D01*
X127090476Y-79051428D01*
X127090476Y-79718095D01*
X127185714Y-80099047D01*
X127376190Y-80289523D01*
X127566666Y-80384761D01*
X127947619Y-80384761D01*
X128138095Y-80289523D01*
X128328571Y-80099047D01*
X128423809Y-79718095D01*
X128423809Y-79051428D01*
X128328571Y-78670476D01*
X128138095Y-78480000D01*
X127947619Y-78384761D01*
X125090476Y-80384761D02*
X125757142Y-79432380D01*
X126233333Y-80384761D02*
X126233333Y-78384761D01*
X125471428Y-78384761D01*
X125280952Y-78480000D01*
X125185714Y-78575238D01*
X125090476Y-78765714D01*
X125090476Y-79051428D01*
X125185714Y-79241904D01*
X125280952Y-79337142D01*
X125471428Y-79432380D01*
X126233333Y-79432380D01*
X122709523Y-78384761D02*
X122709523Y-80003809D01*
X122614285Y-80194285D01*
X122519047Y-80289523D01*
X122328571Y-80384761D01*
X121947619Y-80384761D01*
X121757142Y-80289523D01*
X121661904Y-80194285D01*
X121566666Y-80003809D01*
X121566666Y-78384761D01*
X120614285Y-80384761D02*
X120614285Y-78384761D01*
X119471428Y-80384761D01*
X119471428Y-78384761D01*
X118519047Y-80384761D02*
X118519047Y-78384761D01*
X117852380Y-78384761D02*
X116709523Y-78384761D01*
X117280952Y-80384761D02*
X117280952Y-78384761D01*
X114709523Y-79051428D02*
X114233333Y-80384761D01*
X113757142Y-79051428D01*
X111947619Y-80384761D02*
X113090476Y-80384761D01*
X112519047Y-80384761D02*
X112519047Y-78384761D01*
X112709523Y-78670476D01*
X112900000Y-78860952D01*
X113090476Y-78956190D01*
X111090476Y-80194285D02*
X110995238Y-80289523D01*
X111090476Y-80384761D01*
X111185714Y-80289523D01*
X111090476Y-80194285D01*
X111090476Y-80384761D01*
X110328571Y-78384761D02*
X109090476Y-78384761D01*
X109757142Y-79146666D01*
X109471428Y-79146666D01*
X109280952Y-79241904D01*
X109185714Y-79337142D01*
X109090476Y-79527619D01*
X109090476Y-80003809D01*
X109185714Y-80194285D01*
X109280952Y-80289523D01*
X109471428Y-80384761D01*
X110042857Y-80384761D01*
X110233333Y-80289523D01*
X110328571Y-80194285D01*
D11*
X139702857Y-87057380D02*
X139702857Y-86057380D01*
X139321904Y-86057380D01*
X139226666Y-86105000D01*
X139179047Y-86152619D01*
X139131428Y-86247857D01*
X139131428Y-86390714D01*
X139179047Y-86485952D01*
X139226666Y-86533571D01*
X139321904Y-86581190D01*
X139702857Y-86581190D01*
X138702857Y-87057380D02*
X138702857Y-86390714D01*
X138702857Y-86057380D02*
X138750476Y-86105000D01*
X138702857Y-86152619D01*
X138655238Y-86105000D01*
X138702857Y-86057380D01*
X138702857Y-86152619D01*
X138226666Y-86390714D02*
X138226666Y-87057380D01*
X138226666Y-86485952D02*
X138179047Y-86438333D01*
X138083809Y-86390714D01*
X137940952Y-86390714D01*
X137845714Y-86438333D01*
X137798095Y-86533571D01*
X137798095Y-87057380D01*
X136940952Y-87009761D02*
X137036190Y-87057380D01*
X137226666Y-87057380D01*
X137321904Y-87009761D01*
X137369523Y-86914523D01*
X137369523Y-86533571D01*
X137321904Y-86438333D01*
X137226666Y-86390714D01*
X137036190Y-86390714D01*
X136940952Y-86438333D01*
X136893333Y-86533571D01*
X136893333Y-86628809D01*
X137369523Y-86724047D01*
X136607619Y-86057380D02*
X136036190Y-86057380D01*
X136321904Y-87057380D02*
X136321904Y-86057380D01*
X135702857Y-87057380D02*
X135702857Y-86390714D01*
X135702857Y-86581190D02*
X135655238Y-86485952D01*
X135607619Y-86438333D01*
X135512380Y-86390714D01*
X135417142Y-86390714D01*
X134702857Y-87009761D02*
X134798095Y-87057380D01*
X134988571Y-87057380D01*
X135083809Y-87009761D01*
X135131428Y-86914523D01*
X135131428Y-86533571D01*
X135083809Y-86438333D01*
X134988571Y-86390714D01*
X134798095Y-86390714D01*
X134702857Y-86438333D01*
X134655238Y-86533571D01*
X134655238Y-86628809D01*
X135131428Y-86724047D01*
X133845714Y-87009761D02*
X133940952Y-87057380D01*
X134131428Y-87057380D01*
X134226666Y-87009761D01*
X134274285Y-86914523D01*
X134274285Y-86533571D01*
X134226666Y-86438333D01*
X134131428Y-86390714D01*
X133940952Y-86390714D01*
X133845714Y-86438333D01*
X133798095Y-86533571D01*
X133798095Y-86628809D01*
X134274285Y-86724047D01*
X132607619Y-87057380D02*
X132607619Y-86057380D01*
X132226666Y-86057380D01*
X132131428Y-86105000D01*
X132083809Y-86152619D01*
X132036190Y-86247857D01*
X132036190Y-86390714D01*
X132083809Y-86485952D01*
X132131428Y-86533571D01*
X132226666Y-86581190D01*
X132607619Y-86581190D01*
X131464761Y-87057380D02*
X131559999Y-87009761D01*
X131607619Y-86914523D01*
X131607619Y-86057380D01*
X130655238Y-87057380D02*
X130655238Y-86533571D01*
X130702857Y-86438333D01*
X130798095Y-86390714D01*
X130988571Y-86390714D01*
X131083809Y-86438333D01*
X130655238Y-87009761D02*
X130750476Y-87057380D01*
X130988571Y-87057380D01*
X131083809Y-87009761D01*
X131131428Y-86914523D01*
X131131428Y-86819285D01*
X131083809Y-86724047D01*
X130988571Y-86676428D01*
X130750476Y-86676428D01*
X130655238Y-86628809D01*
X130274285Y-86390714D02*
X129750476Y-86390714D01*
X130274285Y-87057380D01*
X129750476Y-87057380D01*
X128940952Y-87057380D02*
X128940952Y-86533571D01*
X128988571Y-86438333D01*
X129083809Y-86390714D01*
X129274285Y-86390714D01*
X129369523Y-86438333D01*
X128940952Y-87009761D02*
X129036190Y-87057380D01*
X129274285Y-87057380D01*
X129369523Y-87009761D01*
X129417142Y-86914523D01*
X129417142Y-86819285D01*
X129369523Y-86724047D01*
X129274285Y-86676428D01*
X129036190Y-86676428D01*
X128940952Y-86628809D01*
X128417142Y-87009761D02*
X128417142Y-87057380D01*
X128464761Y-87152619D01*
X128512380Y-87200238D01*
X127226666Y-87057380D02*
X127226666Y-86057380D01*
X126655238Y-87057380D02*
X127083809Y-86485952D01*
X126655238Y-86057380D02*
X127226666Y-86628809D01*
X125798095Y-87057380D02*
X125798095Y-86533571D01*
X125845714Y-86438333D01*
X125940952Y-86390714D01*
X126131428Y-86390714D01*
X126226666Y-86438333D01*
X125798095Y-87009761D02*
X125893333Y-87057380D01*
X126131428Y-87057380D01*
X126226666Y-87009761D01*
X126274285Y-86914523D01*
X126274285Y-86819285D01*
X126226666Y-86724047D01*
X126131428Y-86676428D01*
X125893333Y-86676428D01*
X125798095Y-86628809D01*
X125321904Y-87057380D02*
X125321904Y-86390714D01*
X125321904Y-86485952D02*
X125274285Y-86438333D01*
X125179047Y-86390714D01*
X125036190Y-86390714D01*
X124940952Y-86438333D01*
X124893333Y-86533571D01*
X124893333Y-87057380D01*
X124893333Y-86533571D02*
X124845714Y-86438333D01*
X124750476Y-86390714D01*
X124607619Y-86390714D01*
X124512380Y-86438333D01*
X124464761Y-86533571D01*
X124464761Y-87057380D01*
X123988571Y-87057380D02*
X123988571Y-86057380D01*
X123988571Y-86438333D02*
X123893333Y-86390714D01*
X123702857Y-86390714D01*
X123607619Y-86438333D01*
X123559999Y-86485952D01*
X123512380Y-86581190D01*
X123512380Y-86866904D01*
X123559999Y-86962142D01*
X123607619Y-87009761D01*
X123702857Y-87057380D01*
X123893333Y-87057380D01*
X123988571Y-87009761D01*
X122655238Y-86390714D02*
X122655238Y-87057380D01*
X123083809Y-86390714D02*
X123083809Y-86914523D01*
X123036190Y-87009761D01*
X122940952Y-87057380D01*
X122798095Y-87057380D01*
X122702857Y-87009761D01*
X122655238Y-86962142D01*
X122179047Y-87057380D02*
X122179047Y-86390714D01*
X122179047Y-86581190D02*
X122131428Y-86485952D01*
X122083809Y-86438333D01*
X121988571Y-86390714D01*
X121893333Y-86390714D01*
X121131428Y-86390714D02*
X121131428Y-87057380D01*
X121559999Y-86390714D02*
X121559999Y-86914523D01*
X121512380Y-87009761D01*
X121417142Y-87057380D01*
X121274285Y-87057380D01*
X121179047Y-87009761D01*
X121131428Y-86962142D01*
X119893333Y-87057380D02*
X119893333Y-86057380D01*
X119655238Y-86057380D01*
X119512380Y-86105000D01*
X119417142Y-86200238D01*
X119369523Y-86295476D01*
X119321904Y-86485952D01*
X119321904Y-86628809D01*
X119369523Y-86819285D01*
X119417142Y-86914523D01*
X119512380Y-87009761D01*
X119655238Y-87057380D01*
X119893333Y-87057380D01*
X118893333Y-87057380D02*
X118893333Y-86390714D01*
X118893333Y-86581190D02*
X118845714Y-86485952D01*
X118798095Y-86438333D01*
X118702857Y-86390714D01*
X118607619Y-86390714D01*
X118274285Y-87057380D02*
X118274285Y-86390714D01*
X118274285Y-86057380D02*
X118321904Y-86105000D01*
X118274285Y-86152619D01*
X118226666Y-86105000D01*
X118274285Y-86057380D01*
X118274285Y-86152619D01*
X117893333Y-86390714D02*
X117655238Y-87057380D01*
X117417142Y-86390714D01*
X116655238Y-87009761D02*
X116750476Y-87057380D01*
X116940952Y-87057380D01*
X117036190Y-87009761D01*
X117083809Y-86914523D01*
X117083809Y-86533571D01*
X117036190Y-86438333D01*
X116940952Y-86390714D01*
X116750476Y-86390714D01*
X116655238Y-86438333D01*
X116607619Y-86533571D01*
X116607619Y-86628809D01*
X117083809Y-86724047D01*
X116131428Y-87009761D02*
X116131428Y-87057380D01*
X116179047Y-87152619D01*
X116226666Y-87200238D01*
X134274285Y-88667380D02*
X134274285Y-87667380D01*
X133702857Y-88667380D01*
X133702857Y-87667380D01*
X132798095Y-88000714D02*
X132798095Y-88810238D01*
X132845714Y-88905476D01*
X132893333Y-88953095D01*
X132988571Y-89000714D01*
X133131428Y-89000714D01*
X133226666Y-88953095D01*
X132798095Y-88619761D02*
X132893333Y-88667380D01*
X133083809Y-88667380D01*
X133179047Y-88619761D01*
X133226666Y-88572142D01*
X133274285Y-88476904D01*
X133274285Y-88191190D01*
X133226666Y-88095952D01*
X133179047Y-88048333D01*
X133083809Y-88000714D01*
X132893333Y-88000714D01*
X132798095Y-88048333D01*
X132179047Y-88667380D02*
X132274285Y-88619761D01*
X132321904Y-88572142D01*
X132369523Y-88476904D01*
X132369523Y-88191190D01*
X132321904Y-88095952D01*
X132274285Y-88048333D01*
X132179047Y-88000714D01*
X132036190Y-88000714D01*
X131940952Y-88048333D01*
X131893333Y-88095952D01*
X131845714Y-88191190D01*
X131845714Y-88476904D01*
X131893333Y-88572142D01*
X131940952Y-88619761D01*
X132036190Y-88667380D01*
X132179047Y-88667380D01*
X131417142Y-88000714D02*
X131417142Y-88667380D01*
X131417142Y-88095952D02*
X131369523Y-88048333D01*
X131274285Y-88000714D01*
X131131428Y-88000714D01*
X131036190Y-88048333D01*
X130988571Y-88143571D01*
X130988571Y-88667380D01*
X130083809Y-88000714D02*
X130083809Y-88810238D01*
X130131428Y-88905476D01*
X130179047Y-88953095D01*
X130274285Y-89000714D01*
X130417142Y-89000714D01*
X130512380Y-88953095D01*
X130083809Y-88619761D02*
X130179047Y-88667380D01*
X130369523Y-88667380D01*
X130464761Y-88619761D01*
X130512380Y-88572142D01*
X130560000Y-88476904D01*
X130560000Y-88191190D01*
X130512380Y-88095952D01*
X130464761Y-88048333D01*
X130369523Y-88000714D01*
X130179047Y-88000714D01*
X130083809Y-88048333D01*
X128274285Y-88667380D02*
X128607619Y-88191190D01*
X128845714Y-88667380D02*
X128845714Y-87667380D01*
X128464761Y-87667380D01*
X128369523Y-87715000D01*
X128321904Y-87762619D01*
X128274285Y-87857857D01*
X128274285Y-88000714D01*
X128321904Y-88095952D01*
X128369523Y-88143571D01*
X128464761Y-88191190D01*
X128845714Y-88191190D01*
X127417142Y-88667380D02*
X127417142Y-87667380D01*
X127417142Y-88619761D02*
X127512380Y-88667380D01*
X127702857Y-88667380D01*
X127798095Y-88619761D01*
X127845714Y-88572142D01*
X127893333Y-88476904D01*
X127893333Y-88191190D01*
X127845714Y-88095952D01*
X127798095Y-88048333D01*
X127702857Y-88000714D01*
X127512380Y-88000714D01*
X127417142Y-88048333D01*
X126179047Y-88667380D02*
X126179047Y-87667380D01*
X125607619Y-88667380D01*
X125607619Y-87667380D01*
X124702857Y-88667380D02*
X124702857Y-88143571D01*
X124750476Y-88048333D01*
X124845714Y-88000714D01*
X125036190Y-88000714D01*
X125131428Y-88048333D01*
X124702857Y-88619761D02*
X124798095Y-88667380D01*
X125036190Y-88667380D01*
X125131428Y-88619761D01*
X125179047Y-88524523D01*
X125179047Y-88429285D01*
X125131428Y-88334047D01*
X125036190Y-88286428D01*
X124798095Y-88286428D01*
X124702857Y-88238809D01*
X124226666Y-88667380D02*
X124226666Y-88000714D01*
X124226666Y-87667380D02*
X124274285Y-87715000D01*
X124226666Y-87762619D01*
X124179047Y-87715000D01*
X124226666Y-87667380D01*
X124226666Y-87762619D01*
X123750476Y-88667380D02*
X123750476Y-88000714D01*
X123750476Y-88191190D02*
X123702857Y-88095952D01*
X123655238Y-88048333D01*
X123560000Y-88000714D01*
X123464761Y-88000714D01*
X122988571Y-88667380D02*
X123083809Y-88619761D01*
X123131428Y-88572142D01*
X123179047Y-88476904D01*
X123179047Y-88191190D01*
X123131428Y-88095952D01*
X123083809Y-88048333D01*
X122988571Y-88000714D01*
X122845714Y-88000714D01*
X122750476Y-88048333D01*
X122702857Y-88095952D01*
X122655238Y-88191190D01*
X122655238Y-88476904D01*
X122702857Y-88572142D01*
X122750476Y-88619761D01*
X122845714Y-88667380D01*
X122988571Y-88667380D01*
X122226666Y-88667380D02*
X122226666Y-87667380D01*
X122226666Y-88048333D02*
X122131428Y-88000714D01*
X121940952Y-88000714D01*
X121845714Y-88048333D01*
X121798095Y-88095952D01*
X121750476Y-88191190D01*
X121750476Y-88476904D01*
X121798095Y-88572142D01*
X121845714Y-88619761D01*
X121940952Y-88667380D01*
X122131428Y-88667380D01*
X122226666Y-88619761D01*
X121321904Y-88667380D02*
X121321904Y-88000714D01*
X121321904Y-87667380D02*
X121369523Y-87715000D01*
X121321904Y-87762619D01*
X121274285Y-87715000D01*
X121321904Y-87667380D01*
X121321904Y-87762619D01*
X120845714Y-88572142D02*
X120798095Y-88619761D01*
X120845714Y-88667380D01*
X120893333Y-88619761D01*
X120845714Y-88572142D01*
X120845714Y-88667380D01*
X141691428Y-83657142D02*
X141548571Y-83728571D01*
X141262857Y-83728571D01*
X141120000Y-83657142D01*
X141048571Y-83514285D01*
X141048571Y-83442857D01*
X141120000Y-83300000D01*
X141262857Y-83228571D01*
X141477142Y-83228571D01*
X141620000Y-83157142D01*
X141691428Y-83014285D01*
X141691428Y-82942857D01*
X141620000Y-82800000D01*
X141477142Y-82728571D01*
X141262857Y-82728571D01*
X141120000Y-82800000D01*
X139762857Y-82728571D02*
X139762857Y-83728571D01*
X140405714Y-82728571D02*
X140405714Y-83514285D01*
X140334285Y-83657142D01*
X140191428Y-83728571D01*
X139977142Y-83728571D01*
X139834285Y-83657142D01*
X139762857Y-83585714D01*
X139048571Y-82728571D02*
X139048571Y-84228571D01*
X139048571Y-82800000D02*
X138905714Y-82728571D01*
X138620000Y-82728571D01*
X138477142Y-82800000D01*
X138405714Y-82871428D01*
X138334285Y-83014285D01*
X138334285Y-83442857D01*
X138405714Y-83585714D01*
X138477142Y-83657142D01*
X138620000Y-83728571D01*
X138905714Y-83728571D01*
X139048571Y-83657142D01*
X137691428Y-82728571D02*
X137691428Y-84228571D01*
X137691428Y-82800000D02*
X137548571Y-82728571D01*
X137262857Y-82728571D01*
X137120000Y-82800000D01*
X137048571Y-82871428D01*
X136977142Y-83014285D01*
X136977142Y-83442857D01*
X137048571Y-83585714D01*
X137120000Y-83657142D01*
X137262857Y-83728571D01*
X137548571Y-83728571D01*
X137691428Y-83657142D01*
X136120000Y-83728571D02*
X136262857Y-83657142D01*
X136334285Y-83585714D01*
X136405714Y-83442857D01*
X136405714Y-83014285D01*
X136334285Y-82871428D01*
X136262857Y-82800000D01*
X136120000Y-82728571D01*
X135905714Y-82728571D01*
X135762857Y-82800000D01*
X135691428Y-82871428D01*
X135620000Y-83014285D01*
X135620000Y-83442857D01*
X135691428Y-83585714D01*
X135762857Y-83657142D01*
X135905714Y-83728571D01*
X136120000Y-83728571D01*
X134977142Y-83728571D02*
X134977142Y-82728571D01*
X134977142Y-83014285D02*
X134905714Y-82871428D01*
X134834285Y-82800000D01*
X134691428Y-82728571D01*
X134548571Y-82728571D01*
X134262857Y-82728571D02*
X133691428Y-82728571D01*
X134048571Y-82228571D02*
X134048571Y-83514285D01*
X133977142Y-83657142D01*
X133834285Y-83728571D01*
X133691428Y-83728571D01*
X132262857Y-83014285D02*
X132334285Y-82942857D01*
X132477142Y-82871428D01*
X132620000Y-82871428D01*
X132762857Y-82942857D01*
X132834285Y-83014285D01*
X132905714Y-83157142D01*
X132905714Y-83300000D01*
X132834285Y-83442857D01*
X132762857Y-83514285D01*
X132620000Y-83585714D01*
X132477142Y-83585714D01*
X132334285Y-83514285D01*
X132262857Y-83442857D01*
X132262857Y-82871428D02*
X132262857Y-83442857D01*
X132191428Y-83514285D01*
X132120000Y-83514285D01*
X131977142Y-83442857D01*
X131905714Y-83300000D01*
X131905714Y-82942857D01*
X132048571Y-82728571D01*
X132262857Y-82585714D01*
X132548571Y-82514285D01*
X132834285Y-82585714D01*
X133048571Y-82728571D01*
X133191428Y-82942857D01*
X133262857Y-83228571D01*
X133191428Y-83514285D01*
X133048571Y-83728571D01*
X132834285Y-83871428D01*
X132548571Y-83942857D01*
X132262857Y-83871428D01*
X132048571Y-83728571D01*
X131048571Y-83728571D02*
X131191428Y-83657142D01*
X131262857Y-83585714D01*
X131334285Y-83442857D01*
X131334285Y-83014285D01*
X131262857Y-82871428D01*
X131191428Y-82800000D01*
X131048571Y-82728571D01*
X130834285Y-82728571D01*
X130691428Y-82800000D01*
X130620000Y-82871428D01*
X130548571Y-83014285D01*
X130548571Y-83442857D01*
X130620000Y-83585714D01*
X130691428Y-83657142D01*
X130834285Y-83728571D01*
X131048571Y-83728571D01*
X129905714Y-83728571D02*
X129905714Y-82728571D01*
X129905714Y-82871428D02*
X129834285Y-82800000D01*
X129691428Y-82728571D01*
X129477142Y-82728571D01*
X129334285Y-82800000D01*
X129262857Y-82942857D01*
X129262857Y-83728571D01*
X129262857Y-82942857D02*
X129191428Y-82800000D01*
X129048571Y-82728571D01*
X128834285Y-82728571D01*
X128691428Y-82800000D01*
X128620000Y-82942857D01*
X128620000Y-83728571D01*
X127262857Y-83728571D02*
X127262857Y-82942857D01*
X127334285Y-82800000D01*
X127477142Y-82728571D01*
X127762857Y-82728571D01*
X127905714Y-82800000D01*
X127262857Y-83657142D02*
X127405714Y-83728571D01*
X127762857Y-83728571D01*
X127905714Y-83657142D01*
X127977142Y-83514285D01*
X127977142Y-83371428D01*
X127905714Y-83228571D01*
X127762857Y-83157142D01*
X127405714Y-83157142D01*
X127262857Y-83085714D01*
X126548571Y-83728571D02*
X126548571Y-82728571D01*
X126548571Y-83014285D02*
X126477142Y-82871428D01*
X126405714Y-82800000D01*
X126262857Y-82728571D01*
X126120000Y-82728571D01*
X125620000Y-83728571D02*
X125620000Y-82728571D01*
X125620000Y-82228571D02*
X125691428Y-82300000D01*
X125620000Y-82371428D01*
X125548571Y-82300000D01*
X125620000Y-82228571D01*
X125620000Y-82371428D01*
X124262857Y-83657142D02*
X124405714Y-83728571D01*
X124691428Y-83728571D01*
X124834285Y-83657142D01*
X124905714Y-83585714D01*
X124977142Y-83442857D01*
X124977142Y-83014285D01*
X124905714Y-82871428D01*
X124834285Y-82800000D01*
X124691428Y-82728571D01*
X124405714Y-82728571D01*
X124262857Y-82800000D01*
X123620000Y-83728571D02*
X123620000Y-82228571D01*
X122977142Y-83728571D02*
X122977142Y-82942857D01*
X123048571Y-82800000D01*
X123191428Y-82728571D01*
X123405714Y-82728571D01*
X123548571Y-82800000D01*
X123620000Y-82871428D01*
X121691428Y-83657142D02*
X121834285Y-83728571D01*
X122120000Y-83728571D01*
X122262857Y-83657142D01*
X122334285Y-83514285D01*
X122334285Y-82942857D01*
X122262857Y-82800000D01*
X122120000Y-82728571D01*
X121834285Y-82728571D01*
X121691428Y-82800000D01*
X121620000Y-82942857D01*
X121620000Y-83085714D01*
X122334285Y-83228571D01*
X121191428Y-82728571D02*
X120620000Y-82728571D01*
X120977142Y-82228571D02*
X120977142Y-83514285D01*
X120905714Y-83657142D01*
X120762857Y-83728571D01*
X120620000Y-83728571D01*
X120120000Y-83585714D02*
X120048571Y-83657142D01*
X120120000Y-83728571D01*
X120191428Y-83657142D01*
X120120000Y-83585714D01*
X120120000Y-83728571D01*
X119477142Y-83657142D02*
X119334285Y-83728571D01*
X119048571Y-83728571D01*
X118905714Y-83657142D01*
X118834285Y-83514285D01*
X118834285Y-83442857D01*
X118905714Y-83300000D01*
X119048571Y-83228571D01*
X119262857Y-83228571D01*
X119405714Y-83157142D01*
X119477142Y-83014285D01*
X119477142Y-82942857D01*
X119405714Y-82800000D01*
X119262857Y-82728571D01*
X119048571Y-82728571D01*
X118905714Y-82800000D01*
X118191428Y-82728571D02*
X118191428Y-84228571D01*
X118191428Y-82800000D02*
X118048571Y-82728571D01*
X117762857Y-82728571D01*
X117620000Y-82800000D01*
X117548571Y-82871428D01*
X117477142Y-83014285D01*
X117477142Y-83442857D01*
X117548571Y-83585714D01*
X117620000Y-83657142D01*
X117762857Y-83728571D01*
X118048571Y-83728571D01*
X118191428Y-83657142D01*
X116191428Y-83728571D02*
X116191428Y-82942857D01*
X116262857Y-82800000D01*
X116405714Y-82728571D01*
X116691428Y-82728571D01*
X116834285Y-82800000D01*
X116191428Y-83657142D02*
X116334285Y-83728571D01*
X116691428Y-83728571D01*
X116834285Y-83657142D01*
X116905714Y-83514285D01*
X116905714Y-83371428D01*
X116834285Y-83228571D01*
X116691428Y-83157142D01*
X116334285Y-83157142D01*
X116191428Y-83085714D01*
X114834285Y-83657142D02*
X114977142Y-83728571D01*
X115262857Y-83728571D01*
X115405714Y-83657142D01*
X115477142Y-83585714D01*
X115548571Y-83442857D01*
X115548571Y-83014285D01*
X115477142Y-82871428D01*
X115405714Y-82800000D01*
X115262857Y-82728571D01*
X114977142Y-82728571D01*
X114834285Y-82800000D01*
X113619999Y-83657142D02*
X113762857Y-83728571D01*
X114048571Y-83728571D01*
X114191428Y-83657142D01*
X114262857Y-83514285D01*
X114262857Y-82942857D01*
X114191428Y-82800000D01*
X114048571Y-82728571D01*
X113762857Y-82728571D01*
X113619999Y-82800000D01*
X113548571Y-82942857D01*
X113548571Y-83085714D01*
X114262857Y-83228571D01*
%TO.C,J9*%
X161812380Y-130926666D02*
X162526666Y-130926666D01*
X162669523Y-130879047D01*
X162764761Y-130783809D01*
X162812380Y-130640952D01*
X162812380Y-130545714D01*
X162812380Y-131450476D02*
X162812380Y-131640952D01*
X162764761Y-131736190D01*
X162717142Y-131783809D01*
X162574285Y-131879047D01*
X162383809Y-131926666D01*
X162002857Y-131926666D01*
X161907619Y-131879047D01*
X161860000Y-131831428D01*
X161812380Y-131736190D01*
X161812380Y-131545714D01*
X161860000Y-131450476D01*
X161907619Y-131402857D01*
X162002857Y-131355238D01*
X162240952Y-131355238D01*
X162336190Y-131402857D01*
X162383809Y-131450476D01*
X162431428Y-131545714D01*
X162431428Y-131736190D01*
X162383809Y-131831428D01*
X162336190Y-131879047D01*
X162240952Y-131926666D01*
D12*
X160920000Y-130860000D02*
X158320000Y-130860000D01*
X97300000Y-133460000D02*
X97300000Y-128260000D01*
X158320000Y-130860000D02*
X158320000Y-128260000D01*
X160920000Y-133460000D02*
X160920000Y-130860000D01*
X158320000Y-128260000D02*
X97300000Y-128260000D01*
X160920000Y-128260000D02*
X159590000Y-128260000D01*
X160920000Y-133460000D02*
X97300000Y-133460000D01*
X160920000Y-129590000D02*
X160920000Y-128260000D01*
%TD*%
M02*
