%TF.GenerationSoftware,KiCad,Pcbnew,(6.0.7)*%
%TF.CreationDate,2023-02-02T11:58:53+03:00*%
%TF.ProjectId,Omarichet Sensor Shield 1.3,4f6d6172-6963-4686-9574-2053656e736f,rev?*%
%TF.SameCoordinates,Original*%
%TF.FileFunction,Copper,L1,Top*%
%TF.FilePolarity,Positive*%
%FSLAX46Y46*%
G04 Gerber Fmt 4.6, Leading zero omitted, Abs format (unit mm)*
G04 Created by KiCad (PCBNEW (6.0.7)) date 2023-02-02 11:58:53*
%MOMM*%
%LPD*%
G01*
G04 APERTURE LIST*
%TA.AperFunction,ComponentPad*%
%ADD10R,1.800000X1.800000*%
%TD*%
%TA.AperFunction,ComponentPad*%
%ADD11C,1.800000*%
%TD*%
%TA.AperFunction,ComponentPad*%
%ADD12C,1.600000*%
%TD*%
%TA.AperFunction,ComponentPad*%
%ADD13O,1.600000X1.600000*%
%TD*%
%TA.AperFunction,ComponentPad*%
%ADD14R,1.600000X1.600000*%
%TD*%
%TA.AperFunction,ComponentPad*%
%ADD15R,1.700000X1.700000*%
%TD*%
%TA.AperFunction,ComponentPad*%
%ADD16O,1.700000X1.700000*%
%TD*%
%TA.AperFunction,ViaPad*%
%ADD17C,0.800000*%
%TD*%
%TA.AperFunction,Conductor*%
%ADD18C,0.800000*%
%TD*%
G04 APERTURE END LIST*
D10*
%TO.P,D1,1,K*%
%TO.N,GND*%
X162005000Y-83500000D03*
D11*
%TO.P,D1,2,A*%
%TO.N,Net-(D1-Pad2)*%
X164545000Y-83500000D03*
%TD*%
D12*
%TO.P,R2,1*%
%TO.N,/EN*%
X97690000Y-77940000D03*
D13*
%TO.P,R2,2*%
%TO.N,+3.3V*%
X97690000Y-88100000D03*
%TD*%
D14*
%TO.P,U1,1,CH0*%
%TO.N,CH0*%
X103550000Y-105935000D03*
D13*
%TO.P,U1,2,CH1*%
%TO.N,CH1*%
X103550000Y-108475000D03*
%TO.P,U1,3,CH2*%
%TO.N,CH2*%
X103550000Y-111015000D03*
%TO.P,U1,4,CH3*%
%TO.N,CH3*%
X103550000Y-113555000D03*
%TO.P,U1,5,CH4*%
%TO.N,CH4*%
X103550000Y-116095000D03*
%TO.P,U1,6,CH5*%
%TO.N,CH5*%
X103550000Y-118635000D03*
%TO.P,U1,7,CH6*%
%TO.N,unconnected-(U1-Pad7)*%
X103550000Y-121175000D03*
%TO.P,U1,8,CH7*%
%TO.N,unconnected-(U1-Pad8)*%
X103550000Y-123715000D03*
%TO.P,U1,9,DGND*%
%TO.N,GND*%
X111170000Y-123715000D03*
%TO.P,U1,10,~{CS}/SHDN*%
%TO.N,CS*%
X111170000Y-121175000D03*
%TO.P,U1,11,Din*%
%TO.N,MOSI*%
X111170000Y-118635000D03*
%TO.P,U1,12,Dout*%
%TO.N,MISO*%
X111170000Y-116095000D03*
%TO.P,U1,13,CLK*%
%TO.N,CLK*%
X111170000Y-113555000D03*
%TO.P,U1,14,AGND*%
%TO.N,GND*%
X111170000Y-111015000D03*
%TO.P,U1,15,Vref*%
%TO.N,+5V*%
X111170000Y-108475000D03*
%TO.P,U1,16,Vdd*%
X111170000Y-105935000D03*
%TD*%
D15*
%TO.P,J7,1,Pin_1*%
%TO.N,+5V*%
X98535000Y-108815000D03*
D16*
%TO.P,J7,2,Pin_2*%
%TO.N,GND*%
X98535000Y-111355000D03*
%TO.P,J7,3,Pin_3*%
%TO.N,CH3*%
X98535000Y-113895000D03*
%TD*%
D12*
%TO.P,C1,1*%
%TO.N,+5V*%
X117100000Y-101880000D03*
%TO.P,C1,2*%
%TO.N,GND*%
X122100000Y-101880000D03*
%TD*%
D15*
%TO.P,J1,1,Pin_1*%
%TO.N,+5V*%
X96360000Y-92970000D03*
D16*
%TO.P,J1,2,Pin_2*%
%TO.N,CH0*%
X96360000Y-95510000D03*
%TD*%
D15*
%TO.P,J5,1,Pin_1*%
%TO.N,+3.3V*%
X133610000Y-95795000D03*
D16*
%TO.P,J5,2,Pin_2*%
%TO.N,GND*%
X136150000Y-95795000D03*
%TO.P,J5,3,Pin_3*%
%TO.N,SCL*%
X138690000Y-95795000D03*
%TO.P,J5,4,Pin_4*%
%TO.N,SDA*%
X141230000Y-95795000D03*
%TD*%
D15*
%TO.P,J4,1,Pin_1*%
%TO.N,+3.3V*%
X151625000Y-80565000D03*
D16*
%TO.P,J4,2,Pin_2*%
%TO.N,GND*%
X151625000Y-83105000D03*
%TO.P,J4,3,Pin_3*%
%TO.N,SCL*%
X151625000Y-85645000D03*
%TO.P,J4,4,Pin_4*%
%TO.N,SDA*%
X151625000Y-88185000D03*
%TO.P,J4,5,Pin_5*%
%TO.N,unconnected-(J4-Pad5)*%
X151625000Y-90725000D03*
%TO.P,J4,6,Pin_6*%
%TO.N,unconnected-(J4-Pad6)*%
X151625000Y-93265000D03*
%TO.P,J4,7,Pin_7*%
%TO.N,ADO*%
X151625000Y-95805000D03*
%TO.P,J4,8,Pin_8*%
%TO.N,INT*%
X151625000Y-98345000D03*
%TD*%
D15*
%TO.P,J2,1,Pin_1*%
%TO.N,GND*%
X148080000Y-71850000D03*
D16*
%TO.P,J2,2,Pin_2*%
%TO.N,DHTOUT*%
X150620000Y-71850000D03*
%TO.P,J2,3,Pin_3*%
%TO.N,+3.3V*%
X153160000Y-71850000D03*
%TD*%
D15*
%TO.P,J10,1,Pin_1*%
%TO.N,TXI_CLK*%
X139925000Y-110205000D03*
D16*
%TO.P,J10,2,Pin_2*%
%TO.N,RXO_MISO*%
X139925000Y-112745000D03*
%TO.P,J10,3,Pin_3*%
%TO.N,+3.3V*%
X139925000Y-115285000D03*
%TO.P,J10,4,Pin_4*%
%TO.N,GND*%
X139925000Y-117825000D03*
%TO.P,J10,5,Pin_5*%
%TO.N,RXO1_MOSI*%
X139925000Y-120365000D03*
%TO.P,J10,6,Pin_6*%
%TO.N,TXI1_CS*%
X139925000Y-122905000D03*
%TD*%
D15*
%TO.P,J3,1,Pin_1*%
%TO.N,+3.3V*%
X164275000Y-104680000D03*
D16*
%TO.P,J3,2,Pin_2*%
%TO.N,GND*%
X164275000Y-107220000D03*
%TO.P,J3,3,Pin_3*%
%TO.N,SCL*%
X164275000Y-109760000D03*
%TO.P,J3,4,Pin_4*%
%TO.N,SDA*%
X164275000Y-112300000D03*
%TO.P,J3,5,Pin_5*%
%TO.N,unconnected-(J3-Pad5)*%
X164275000Y-114840000D03*
%TD*%
D15*
%TO.P,J8,1,Pin_1*%
%TO.N,CLK*%
X127340000Y-110210000D03*
D16*
%TO.P,J8,2,Pin_2*%
%TO.N,MISO*%
X127340000Y-112750000D03*
%TO.P,J8,3,Pin_3*%
%TO.N,+5V*%
X127340000Y-115290000D03*
%TO.P,J8,4,Pin_4*%
%TO.N,GND*%
X127340000Y-117830000D03*
%TO.P,J8,5,Pin_5*%
%TO.N,MOSI*%
X127340000Y-120370000D03*
%TO.P,J8,6,Pin_6*%
%TO.N,CS*%
X127340000Y-122910000D03*
%TD*%
D12*
%TO.P,R1,1*%
%TO.N,CH0*%
X95970000Y-100330000D03*
D13*
%TO.P,R1,2*%
%TO.N,GND*%
X106130000Y-100330000D03*
%TD*%
D12*
%TO.P,R3,1*%
%TO.N,+3.3V*%
X164460000Y-98600000D03*
D13*
%TO.P,R3,2*%
%TO.N,Net-(D1-Pad2)*%
X164460000Y-88440000D03*
%TD*%
D15*
%TO.P,J6,1,Pin_1*%
%TO.N,unconnected-(J6-Pad1)*%
X103855000Y-70230000D03*
D16*
%TO.P,J6,2,Pin_2*%
%TO.N,/EN*%
X103855000Y-72770000D03*
%TO.P,J6,3,Pin_3*%
%TO.N,unconnected-(J6-Pad3)*%
X103855000Y-75310000D03*
%TO.P,J6,4,Pin_4*%
%TO.N,unconnected-(J6-Pad4)*%
X103855000Y-77850000D03*
%TO.P,J6,5,Pin_5*%
%TO.N,TX*%
X103855000Y-80390000D03*
%TO.P,J6,6,Pin_6*%
%TO.N,RX*%
X103855000Y-82930000D03*
%TO.P,J6,7,Pin_7*%
%TO.N,GND*%
X103855000Y-85470000D03*
%TO.P,J6,8,Pin_8*%
%TO.N,+3.3V*%
X103855000Y-88010000D03*
%TO.P,J6,9,Pin_9*%
%TO.N,PPS*%
X103855000Y-90550000D03*
%TD*%
D15*
%TO.P,J9,1,Pin_1*%
%TO.N,+3.3V*%
X159590000Y-129590000D03*
D16*
%TO.P,J9,2,Pin_2*%
%TO.N,+5V*%
X159590000Y-132130000D03*
%TO.P,J9,3,Pin_3*%
%TO.N,SDA*%
X157050000Y-129590000D03*
%TO.P,J9,4,Pin_4*%
%TO.N,unconnected-(J9-Pad4)*%
X157050000Y-132130000D03*
%TO.P,J9,5,Pin_5*%
%TO.N,SCL*%
X154510000Y-129590000D03*
%TO.P,J9,6,Pin_6*%
%TO.N,GND*%
X154510000Y-132130000D03*
%TO.P,J9,7,Pin_7*%
%TO.N,unconnected-(J9-Pad7)*%
X151970000Y-129590000D03*
%TO.P,J9,8,Pin_8*%
%TO.N,TX*%
X151970000Y-132130000D03*
%TO.P,J9,9,Pin_9*%
%TO.N,GND*%
X149430000Y-129590000D03*
%TO.P,J9,10,Pin_10*%
%TO.N,RX*%
X149430000Y-132130000D03*
%TO.P,J9,11,Pin_11*%
%TO.N,INT*%
X146890000Y-129590000D03*
%TO.P,J9,12,Pin_12*%
%TO.N,unconnected-(J9-Pad12)*%
X146890000Y-132130000D03*
%TO.P,J9,13,Pin_13*%
%TO.N,ADO*%
X144350000Y-129590000D03*
%TO.P,J9,14,Pin_14*%
%TO.N,unconnected-(J9-Pad14)*%
X144350000Y-132130000D03*
%TO.P,J9,15,Pin_15*%
%TO.N,DHTOUT*%
X141810000Y-129590000D03*
%TO.P,J9,16,Pin_16*%
%TO.N,PPS*%
X141810000Y-132130000D03*
%TO.P,J9,17,Pin_17*%
%TO.N,unconnected-(J9-Pad17)*%
X139270000Y-129590000D03*
%TO.P,J9,18,Pin_18*%
%TO.N,unconnected-(J9-Pad18)*%
X139270000Y-132130000D03*
%TO.P,J9,19,Pin_19*%
%TO.N,RXO1_MOSI*%
X136730000Y-129590000D03*
%TO.P,J9,20,Pin_20*%
%TO.N,unconnected-(J9-Pad20)*%
X136730000Y-132130000D03*
%TO.P,J9,21,Pin_21*%
%TO.N,RXO_MISO*%
X134190000Y-129590000D03*
%TO.P,J9,22,Pin_22*%
%TO.N,unconnected-(J9-Pad22)*%
X134190000Y-132130000D03*
%TO.P,J9,23,Pin_23*%
%TO.N,TXI_CLK*%
X131650000Y-129590000D03*
%TO.P,J9,24,Pin_24*%
%TO.N,unconnected-(J9-Pad24)*%
X131650000Y-132130000D03*
%TO.P,J9,25,Pin_25*%
%TO.N,unconnected-(J9-Pad25)*%
X129110000Y-129590000D03*
%TO.P,J9,26,Pin_26*%
%TO.N,unconnected-(J9-Pad26)*%
X129110000Y-132130000D03*
%TO.P,J9,27,Pin_27*%
%TO.N,unconnected-(J9-Pad27)*%
X126570000Y-129590000D03*
%TO.P,J9,28,Pin_28*%
%TO.N,unconnected-(J9-Pad28)*%
X126570000Y-132130000D03*
%TO.P,J9,29,Pin_29*%
%TO.N,unconnected-(J9-Pad29)*%
X124030000Y-129590000D03*
%TO.P,J9,30,Pin_30*%
%TO.N,unconnected-(J9-Pad30)*%
X124030000Y-132130000D03*
%TO.P,J9,31,Pin_31*%
%TO.N,unconnected-(J9-Pad31)*%
X121490000Y-129590000D03*
%TO.P,J9,32,Pin_32*%
%TO.N,unconnected-(J9-Pad32)*%
X121490000Y-132130000D03*
%TO.P,J9,33,Pin_33*%
%TO.N,unconnected-(J9-Pad33)*%
X118950000Y-129590000D03*
%TO.P,J9,34,Pin_34*%
%TO.N,unconnected-(J9-Pad34)*%
X118950000Y-132130000D03*
%TO.P,J9,35,Pin_35*%
%TO.N,unconnected-(J9-Pad35)*%
X116410000Y-129590000D03*
%TO.P,J9,36,Pin_36*%
%TO.N,unconnected-(J9-Pad36)*%
X116410000Y-132130000D03*
%TO.P,J9,37,Pin_37*%
%TO.N,TXI1_CS*%
X113870000Y-129590000D03*
%TO.P,J9,38,Pin_38*%
%TO.N,unconnected-(J9-Pad38)*%
X113870000Y-132130000D03*
%TO.P,J9,39,Pin_39*%
%TO.N,GND*%
X111330000Y-129590000D03*
%TO.P,J9,40,Pin_40*%
%TO.N,unconnected-(J9-Pad40)*%
X111330000Y-132130000D03*
%TO.P,J9,41,Pin_41*%
%TO.N,GND*%
X108790000Y-129590000D03*
%TO.P,J9,42,Pin_42*%
%TO.N,+5V*%
X108790000Y-132130000D03*
%TO.P,J9,43,Pin_43*%
%TO.N,CH1*%
X106250000Y-129590000D03*
%TO.P,J9,44,Pin_44*%
%TO.N,unconnected-(J9-Pad44)*%
X106250000Y-132130000D03*
%TO.P,J9,45,Pin_45*%
%TO.N,CH2*%
X103710000Y-129590000D03*
%TO.P,J9,46,Pin_46*%
%TO.N,unconnected-(J9-Pad46)*%
X103710000Y-132130000D03*
%TO.P,J9,47,Pin_47*%
%TO.N,CH5*%
X101170000Y-129590000D03*
%TO.P,J9,48,Pin_48*%
%TO.N,unconnected-(J9-Pad48)*%
X101170000Y-132130000D03*
%TO.P,J9,49,Pin_49*%
%TO.N,CH4*%
X98630000Y-129590000D03*
%TO.P,J9,50,Pin_50*%
%TO.N,unconnected-(J9-Pad50)*%
X98630000Y-132130000D03*
%TD*%
D17*
%TO.N,+5V*%
X153470000Y-135400000D03*
X137880000Y-135380000D03*
%TO.N,+3.3V*%
X158000000Y-124890000D03*
X130750000Y-93520000D03*
X125390000Y-92750000D03*
%TO.N,SDA*%
X157220000Y-111690000D03*
X153600000Y-108080000D03*
%TO.N,ADO*%
X147720000Y-99760000D03*
X147530000Y-108500000D03*
%TO.N,INT*%
X151630000Y-103260000D03*
X151640000Y-112050000D03*
%TO.N,TXI1_CS*%
X129720000Y-126220000D03*
X139330000Y-126220000D03*
%TD*%
D18*
%TO.N,Net-(D1-Pad2)*%
X164460000Y-83190000D02*
X164460000Y-88440000D01*
%TO.N,+3.3V*%
X164460000Y-104495000D02*
X164275000Y-104680000D01*
X164460000Y-98600000D02*
X164460000Y-104495000D01*
%TO.N,TXI1_CS*%
X139925000Y-125625000D02*
X139330000Y-126220000D01*
X139925000Y-122905000D02*
X139925000Y-125625000D01*
X115720000Y-126220000D02*
X129650000Y-126220000D01*
X115520000Y-126420000D02*
X115720000Y-126220000D01*
X113870000Y-129590000D02*
X113870000Y-128070000D01*
X113870000Y-128070000D02*
X115520000Y-126420000D01*
%TO.N,RXO_MISO*%
X136690000Y-116500000D02*
X134190000Y-119000000D01*
X136690000Y-114440000D02*
X136690000Y-116500000D01*
X138385000Y-112745000D02*
X136690000Y-114440000D01*
X139925000Y-112745000D02*
X138385000Y-112745000D01*
X134190000Y-119000000D02*
X134190000Y-129590000D01*
%TO.N,TXI_CLK*%
X131650000Y-115930000D02*
X131650000Y-129590000D01*
X133260000Y-114320000D02*
X131650000Y-115930000D01*
X133260000Y-112390000D02*
X133260000Y-114320000D01*
X135445000Y-110205000D02*
X133260000Y-112390000D01*
X139925000Y-110205000D02*
X135445000Y-110205000D01*
%TO.N,RXO1_MOSI*%
X138265000Y-120365000D02*
X136730000Y-121900000D01*
X139925000Y-120365000D02*
X138265000Y-120365000D01*
X136730000Y-121900000D02*
X136730000Y-129590000D01*
%TO.N,CH1*%
X106250000Y-128360000D02*
X106250000Y-129590000D01*
X108120000Y-126490000D02*
X106250000Y-128360000D01*
X108120000Y-111240000D02*
X108120000Y-126490000D01*
X105355000Y-108475000D02*
X108120000Y-111240000D01*
X103550000Y-108475000D02*
X105355000Y-108475000D01*
%TO.N,CH2*%
X106030000Y-125800000D02*
X103710000Y-128120000D01*
X103710000Y-128120000D02*
X103710000Y-129590000D01*
X104725000Y-111015000D02*
X106030000Y-112320000D01*
X106030000Y-112320000D02*
X106030000Y-125800000D01*
X103550000Y-111015000D02*
X104725000Y-111015000D01*
%TO.N,CH0*%
X95970000Y-100330000D02*
X95970000Y-95900000D01*
X95970000Y-95900000D02*
X96360000Y-95510000D01*
X95970000Y-103200000D02*
X95970000Y-100330000D01*
X98705000Y-105935000D02*
X95970000Y-103200000D01*
X103550000Y-105935000D02*
X98705000Y-105935000D01*
%TO.N,CH5*%
X102205000Y-118635000D02*
X101170000Y-119670000D01*
X103550000Y-118635000D02*
X102205000Y-118635000D01*
X101170000Y-119670000D02*
X101170000Y-129590000D01*
%TO.N,CH4*%
X98630000Y-118860000D02*
X98630000Y-129590000D01*
X101395000Y-116095000D02*
X98630000Y-118860000D01*
X103550000Y-116095000D02*
X101395000Y-116095000D01*
%TO.N,CH3*%
X103210000Y-113895000D02*
X103550000Y-113555000D01*
X98535000Y-113895000D02*
X103210000Y-113895000D01*
%TO.N,MOSI*%
X120940000Y-120370000D02*
X127340000Y-120370000D01*
X119205000Y-118635000D02*
X120940000Y-120370000D01*
X111170000Y-118635000D02*
X119205000Y-118635000D01*
%TO.N,CS*%
X119900000Y-122910000D02*
X127340000Y-122910000D01*
X111170000Y-121175000D02*
X118165000Y-121175000D01*
X118165000Y-121175000D02*
X119900000Y-122910000D01*
%TO.N,MISO*%
X121920000Y-112750000D02*
X118575000Y-116095000D01*
X118575000Y-116095000D02*
X111170000Y-116095000D01*
X127340000Y-112750000D02*
X121920000Y-112750000D01*
%TO.N,CLK*%
X116265000Y-113555000D02*
X119610000Y-110210000D01*
X119610000Y-110210000D02*
X127340000Y-110210000D01*
X111170000Y-113555000D02*
X116265000Y-113555000D01*
%TO.N,+5V*%
X111170000Y-105935000D02*
X111170000Y-108475000D01*
X129560000Y-115290000D02*
X127340000Y-115290000D01*
X117100000Y-101880000D02*
X121340000Y-106120000D01*
X121340000Y-106120000D02*
X128570000Y-106120000D01*
X128570000Y-106120000D02*
X130800000Y-108350000D01*
X130800000Y-108350000D02*
X130800000Y-114050000D01*
X130800000Y-114050000D02*
X129560000Y-115290000D01*
X114790000Y-101880000D02*
X117100000Y-101880000D01*
X110790000Y-97880000D02*
X114790000Y-101880000D01*
X111170000Y-105935000D02*
X111170000Y-98260000D01*
X111170000Y-98260000D02*
X110790000Y-97880000D01*
X109130000Y-96220000D02*
X110790000Y-97880000D01*
X103700000Y-96220000D02*
X109130000Y-96220000D01*
X100450000Y-92970000D02*
X103700000Y-96220000D01*
X96360000Y-92970000D02*
X100450000Y-92970000D01*
X94210000Y-93450000D02*
X94690000Y-92970000D01*
X94690000Y-92970000D02*
X96360000Y-92970000D01*
X93150000Y-94550000D02*
X94210000Y-93490000D01*
X94210000Y-93490000D02*
X94210000Y-93450000D01*
X93150000Y-109980000D02*
X93150000Y-94550000D01*
X93150000Y-110570000D02*
X94905000Y-108815000D01*
X94905000Y-108815000D02*
X98535000Y-108815000D01*
X93150000Y-110690000D02*
X93150000Y-110570000D01*
X93150000Y-111090000D02*
X93150000Y-110690000D01*
X93150000Y-110690000D02*
X93150000Y-109980000D01*
X93150000Y-130830000D02*
X93150000Y-111090000D01*
X107530000Y-135400000D02*
X97720000Y-135400000D01*
X108790000Y-134140000D02*
X107530000Y-135400000D01*
X97720000Y-135400000D02*
X93150000Y-130830000D01*
X108790000Y-132130000D02*
X108790000Y-134140000D01*
X137880000Y-135380000D02*
X107550000Y-135380000D01*
X159590000Y-133310000D02*
X157500000Y-135400000D01*
X157500000Y-135400000D02*
X153470000Y-135400000D01*
X159590000Y-132130000D02*
X159590000Y-133310000D01*
%TO.N,PPS*%
X141810000Y-143510000D02*
X141226371Y-144093629D01*
X141810000Y-132130000D02*
X141810000Y-143510000D01*
X95277183Y-144093629D02*
X141226371Y-144093629D01*
X95266777Y-144083223D02*
X95277183Y-144093629D01*
X91260000Y-140076446D02*
X95266777Y-144083223D01*
X91260000Y-140060000D02*
X91260000Y-140076446D01*
X91260000Y-92440000D02*
X91260000Y-140060000D01*
X93150000Y-90550000D02*
X91260000Y-92440000D01*
X103855000Y-90550000D02*
X93150000Y-90550000D01*
%TO.N,+3.3V*%
X103765000Y-88100000D02*
X103855000Y-88010000D01*
X97690000Y-88100000D02*
X103765000Y-88100000D01*
%TO.N,/EN*%
X102070000Y-72770000D02*
X103855000Y-72770000D01*
X100060000Y-74780000D02*
X102070000Y-72770000D01*
X100060000Y-75570000D02*
X100060000Y-74780000D01*
X97690000Y-77940000D02*
X100060000Y-75570000D01*
%TO.N,DHTOUT*%
X150620000Y-75150000D02*
X150620000Y-71850000D01*
X148160000Y-77610000D02*
X150620000Y-75150000D01*
X128290000Y-89440000D02*
X140120000Y-77610000D01*
X128290000Y-98580000D02*
X128290000Y-89440000D01*
X134340000Y-104630000D02*
X128290000Y-98580000D01*
X143190000Y-104630000D02*
X134340000Y-104630000D01*
X145650000Y-107090000D02*
X143190000Y-104630000D01*
X140120000Y-77610000D02*
X148160000Y-77610000D01*
X144540000Y-124300000D02*
X144750000Y-124300000D01*
X144750000Y-124300000D02*
X145650000Y-123400000D01*
X145650000Y-123400000D02*
X145650000Y-107090000D01*
X141810000Y-129590000D02*
X141810000Y-127030000D01*
X141810000Y-127030000D02*
X144540000Y-124300000D01*
%TO.N,INT*%
X151625000Y-103255000D02*
X151625000Y-98345000D01*
X151630000Y-103260000D02*
X151625000Y-103255000D01*
%TO.N,+3.3V*%
X131765000Y-95795000D02*
X133610000Y-95795000D01*
X130750000Y-94780000D02*
X131765000Y-95795000D01*
X130750000Y-93520000D02*
X130750000Y-94780000D01*
X107150000Y-88010000D02*
X103855000Y-88010000D01*
X111890000Y-92750000D02*
X107150000Y-88010000D01*
X125390000Y-92750000D02*
X111890000Y-92750000D01*
%TO.N,INT*%
X146890000Y-128480000D02*
X146890000Y-129590000D01*
X151650000Y-112060000D02*
X151650000Y-123720000D01*
X151640000Y-112050000D02*
X151650000Y-112060000D01*
X151650000Y-123720000D02*
X146890000Y-128480000D01*
%TO.N,ADO*%
X144350000Y-127690000D02*
X147530000Y-124510000D01*
X147530000Y-124510000D02*
X147530000Y-124150000D01*
X144350000Y-129590000D02*
X144350000Y-127690000D01*
X147530000Y-108500000D02*
X147530000Y-124150000D01*
X149635000Y-95805000D02*
X147720000Y-97720000D01*
X151625000Y-95805000D02*
X149635000Y-95805000D01*
X147720000Y-97720000D02*
X147720000Y-99760000D01*
%TO.N,+3.3V*%
X167580000Y-129650000D02*
X165270000Y-129650000D01*
X168660000Y-106950000D02*
X168660000Y-128570000D01*
X166390000Y-104680000D02*
X168660000Y-106950000D01*
X168660000Y-128570000D02*
X167580000Y-129650000D01*
X164275000Y-104680000D02*
X166390000Y-104680000D01*
X159590000Y-126480000D02*
X158000000Y-124890000D01*
X159590000Y-129590000D02*
X159590000Y-126480000D01*
X165210000Y-129590000D02*
X165270000Y-129650000D01*
X159590000Y-129590000D02*
X165210000Y-129590000D01*
%TO.N,SDA*%
X158400000Y-112570000D02*
X156110000Y-114860000D01*
X158100000Y-112570000D02*
X157220000Y-111690000D01*
X158670000Y-112300000D02*
X158400000Y-112570000D01*
X158400000Y-112570000D02*
X158100000Y-112570000D01*
X164275000Y-112300000D02*
X158670000Y-112300000D01*
X156110000Y-125262742D02*
X156110000Y-114860000D01*
X157050000Y-126202742D02*
X156110000Y-125262742D01*
X157050000Y-129590000D02*
X157050000Y-126202742D01*
%TO.N,SCL*%
X154790000Y-112790000D02*
X154510000Y-113070000D01*
X154790000Y-110820000D02*
X154790000Y-112790000D01*
X154510000Y-113070000D02*
X154510000Y-129590000D01*
X155870000Y-109740000D02*
X155890000Y-109760000D01*
X155890000Y-109760000D02*
X164275000Y-109760000D01*
X154790000Y-110820000D02*
X155870000Y-109740000D01*
%TO.N,SDA*%
X153525000Y-108090000D02*
X141230000Y-95795000D01*
%TO.N,SCL*%
X138690000Y-95795000D02*
X138690000Y-96497258D01*
X138690000Y-96497258D02*
X154675000Y-112482258D01*
%TO.N,SDA*%
X141230000Y-93900000D02*
X141230000Y-95795000D01*
X146945000Y-88185000D02*
X141230000Y-93900000D01*
X151625000Y-88185000D02*
X146945000Y-88185000D01*
%TO.N,SCL*%
X145615000Y-85645000D02*
X138690000Y-92570000D01*
X138690000Y-92570000D02*
X138690000Y-95795000D01*
X151625000Y-85645000D02*
X145615000Y-85645000D01*
%TO.N,+3.3V*%
X133610000Y-92530000D02*
X133610000Y-95795000D01*
X145575000Y-80565000D02*
X133610000Y-92530000D01*
X151625000Y-80565000D02*
X145575000Y-80565000D01*
X153160000Y-79030000D02*
X151625000Y-80565000D01*
X153160000Y-71850000D02*
X153160000Y-79030000D01*
%TO.N,RX*%
X89660000Y-90200000D02*
X89660000Y-90490000D01*
X96930000Y-82930000D02*
X89660000Y-90200000D01*
X103855000Y-82930000D02*
X96930000Y-82930000D01*
X94614441Y-145693629D02*
X89660000Y-140739188D01*
X147316371Y-145693629D02*
X94614441Y-145693629D01*
X149440000Y-143570000D02*
X147316371Y-145693629D01*
X149440000Y-132140000D02*
X149440000Y-143570000D01*
X89660000Y-140739188D02*
X89660000Y-90490000D01*
X149430000Y-132130000D02*
X149440000Y-132140000D01*
%TO.N,TX*%
X148140000Y-147440000D02*
X147740000Y-147440000D01*
X151870000Y-143710000D02*
X148140000Y-147440000D01*
X93850000Y-147440000D02*
X147740000Y-147440000D01*
X151870000Y-132230000D02*
X151870000Y-143710000D01*
X151970000Y-132130000D02*
X151870000Y-132230000D01*
X87590000Y-88460000D02*
X87590000Y-141180000D01*
X95660000Y-80390000D02*
X87590000Y-88460000D01*
X103855000Y-80390000D02*
X95660000Y-80390000D01*
X87590000Y-141180000D02*
X93850000Y-147440000D01*
%TD*%
M02*
