M48
; DRILL file {KiCad (6.0.7)} date Thu Feb  2 11:58:45 2023
; FORMAT={-:-/ absolute / metric / decimal}
; #@! TF.CreationDate,2023-02-02T11:58:45+03:00
; #@! TF.GenerationSoftware,Kicad,Pcbnew,(6.0.7)
; #@! TF.FileFunction,MixedPlating,1,2
FMAT,2
METRIC
; #@! TA.AperFunction,Plated,PTH,ViaDrill
T1C0.400
; #@! TA.AperFunction,Plated,PTH,ComponentDrill
T2C0.800
; #@! TA.AperFunction,Plated,PTH,ComponentDrill
T3C0.900
; #@! TA.AperFunction,Plated,PTH,ComponentDrill
T4C1.000
; #@! TA.AperFunction,NonPlated,NPTH,ComponentDrill
T5C3.200
%
G90
G05
T1
X125.39Y-92.75
X129.72Y-126.22
X130.75Y-93.52
X137.88Y-135.38
X139.33Y-126.22
X147.53Y-108.5
X147.72Y-99.76
X151.63Y-103.26
X151.64Y-112.05
X153.47Y-135.4
X153.6Y-108.08
X157.22Y-111.69
X158.0Y-124.89
T2
X95.97Y-100.33
X97.69Y-77.94
X97.69Y-88.1
X103.55Y-105.935
X103.55Y-108.475
X103.55Y-111.015
X103.55Y-113.555
X103.55Y-116.095
X103.55Y-118.635
X103.55Y-121.175
X103.55Y-123.715
X106.13Y-100.33
X111.17Y-105.935
X111.17Y-108.475
X111.17Y-111.015
X111.17Y-113.555
X111.17Y-116.095
X111.17Y-118.635
X111.17Y-121.175
X111.17Y-123.715
X117.1Y-101.88
X122.1Y-101.88
X164.46Y-88.44
X164.46Y-98.6
T3
X162.005Y-83.5
X164.545Y-83.5
T4
X96.36Y-92.97
X96.36Y-95.51
X98.535Y-108.815
X98.535Y-111.355
X98.535Y-113.895
X98.63Y-129.59
X98.63Y-132.13
X101.17Y-129.59
X101.17Y-132.13
X103.71Y-129.59
X103.71Y-132.13
X103.855Y-70.23
X103.855Y-72.77
X103.855Y-75.31
X103.855Y-77.85
X103.855Y-80.39
X103.855Y-82.93
X103.855Y-85.47
X103.855Y-88.01
X103.855Y-90.55
X106.25Y-129.59
X106.25Y-132.13
X108.79Y-129.59
X108.79Y-132.13
X111.33Y-129.59
X111.33Y-132.13
X113.87Y-129.59
X113.87Y-132.13
X116.41Y-129.59
X116.41Y-132.13
X118.95Y-129.59
X118.95Y-132.13
X121.49Y-129.59
X121.49Y-132.13
X124.03Y-129.59
X124.03Y-132.13
X126.57Y-129.59
X126.57Y-132.13
X127.34Y-110.21
X127.34Y-112.75
X127.34Y-115.29
X127.34Y-117.83
X127.34Y-120.37
X127.34Y-122.91
X129.11Y-129.59
X129.11Y-132.13
X131.65Y-129.59
X131.65Y-132.13
X133.61Y-95.795
X134.19Y-129.59
X134.19Y-132.13
X136.15Y-95.795
X136.73Y-129.59
X136.73Y-132.13
X138.69Y-95.795
X139.27Y-129.59
X139.27Y-132.13
X139.925Y-110.205
X139.925Y-112.745
X139.925Y-115.285
X139.925Y-117.825
X139.925Y-120.365
X139.925Y-122.905
X141.23Y-95.795
X141.81Y-129.59
X141.81Y-132.13
X144.35Y-129.59
X144.35Y-132.13
X146.89Y-129.59
X146.89Y-132.13
X148.08Y-71.85
X149.43Y-129.59
X149.43Y-132.13
X150.62Y-71.85
X151.625Y-80.565
X151.625Y-83.105
X151.625Y-85.645
X151.625Y-88.185
X151.625Y-90.725
X151.625Y-93.265
X151.625Y-95.805
X151.625Y-98.345
X151.97Y-129.59
X151.97Y-132.13
X153.16Y-71.85
X154.51Y-129.59
X154.51Y-132.13
X157.05Y-129.59
X157.05Y-132.13
X159.59Y-129.59
X159.59Y-132.13
X164.275Y-104.68
X164.275Y-107.22
X164.275Y-109.76
X164.275Y-112.3
X164.275Y-114.84
T5
X95.95Y-71.66
X95.98Y-139.23
X160.98Y-139.42
X161.21Y-71.57
T0
M30
