%TF.GenerationSoftware,KiCad,Pcbnew,(6.0.7)*%
%TF.CreationDate,2023-01-16T15:03:51+03:00*%
%TF.ProjectId,Omarichet Sensor Shield 2,4f6d6172-6963-4686-9574-2053656e736f,rev?*%
%TF.SameCoordinates,Original*%
%TF.FileFunction,Copper,L1,Top*%
%TF.FilePolarity,Positive*%
%FSLAX46Y46*%
G04 Gerber Fmt 4.6, Leading zero omitted, Abs format (unit mm)*
G04 Created by KiCad (PCBNEW (6.0.7)) date 2023-01-16 15:03:51*
%MOMM*%
%LPD*%
G01*
G04 APERTURE LIST*
G04 Aperture macros list*
%AMRoundRect*
0 Rectangle with rounded corners*
0 $1 Rounding radius*
0 $2 $3 $4 $5 $6 $7 $8 $9 X,Y pos of 4 corners*
0 Add a 4 corners polygon primitive as box body*
4,1,4,$2,$3,$4,$5,$6,$7,$8,$9,$2,$3,0*
0 Add four circle primitives for the rounded corners*
1,1,$1+$1,$2,$3*
1,1,$1+$1,$4,$5*
1,1,$1+$1,$6,$7*
1,1,$1+$1,$8,$9*
0 Add four rect primitives between the rounded corners*
20,1,$1+$1,$2,$3,$4,$5,0*
20,1,$1+$1,$4,$5,$6,$7,0*
20,1,$1+$1,$6,$7,$8,$9,0*
20,1,$1+$1,$8,$9,$2,$3,0*%
G04 Aperture macros list end*
%TA.AperFunction,SMDPad,CuDef*%
%ADD10RoundRect,0.135000X0.185000X-0.135000X0.185000X0.135000X-0.185000X0.135000X-0.185000X-0.135000X0*%
%TD*%
%TA.AperFunction,SMDPad,CuDef*%
%ADD11RoundRect,0.140000X-0.170000X0.140000X-0.170000X-0.140000X0.170000X-0.140000X0.170000X0.140000X0*%
%TD*%
%TA.AperFunction,SMDPad,CuDef*%
%ADD12RoundRect,0.135000X-0.135000X-0.185000X0.135000X-0.185000X0.135000X0.185000X-0.135000X0.185000X0*%
%TD*%
%TA.AperFunction,SMDPad,CuDef*%
%ADD13RoundRect,0.075000X0.350000X0.075000X-0.350000X0.075000X-0.350000X-0.075000X0.350000X-0.075000X0*%
%TD*%
%TA.AperFunction,SMDPad,CuDef*%
%ADD14RoundRect,0.075000X-0.075000X0.350000X-0.075000X-0.350000X0.075000X-0.350000X0.075000X0.350000X0*%
%TD*%
%TA.AperFunction,SMDPad,CuDef*%
%ADD15RoundRect,0.135000X-0.185000X0.135000X-0.185000X-0.135000X0.185000X-0.135000X0.185000X0.135000X0*%
%TD*%
%TA.AperFunction,ComponentPad*%
%ADD16R,1.350000X1.350000*%
%TD*%
%TA.AperFunction,ComponentPad*%
%ADD17O,1.350000X1.350000*%
%TD*%
%TA.AperFunction,SMDPad,CuDef*%
%ADD18RoundRect,0.140000X0.140000X0.170000X-0.140000X0.170000X-0.140000X-0.170000X0.140000X-0.170000X0*%
%TD*%
%TA.AperFunction,SMDPad,CuDef*%
%ADD19RoundRect,0.150000X-0.825000X-0.150000X0.825000X-0.150000X0.825000X0.150000X-0.825000X0.150000X0*%
%TD*%
%TA.AperFunction,SMDPad,CuDef*%
%ADD20RoundRect,0.218750X0.218750X0.256250X-0.218750X0.256250X-0.218750X-0.256250X0.218750X-0.256250X0*%
%TD*%
%TA.AperFunction,SMDPad,CuDef*%
%ADD21RoundRect,0.225000X-0.225000X-0.250000X0.225000X-0.250000X0.225000X0.250000X-0.225000X0.250000X0*%
%TD*%
%TA.AperFunction,ComponentPad*%
%ADD22C,1.600000*%
%TD*%
%TA.AperFunction,ComponentPad*%
%ADD23C,2.000000*%
%TD*%
%TA.AperFunction,SMDPad,CuDef*%
%ADD24RoundRect,0.218750X-0.218750X-0.256250X0.218750X-0.256250X0.218750X0.256250X-0.218750X0.256250X0*%
%TD*%
%TA.AperFunction,SMDPad,CuDef*%
%ADD25RoundRect,0.140000X0.170000X-0.140000X0.170000X0.140000X-0.170000X0.140000X-0.170000X-0.140000X0*%
%TD*%
%TA.AperFunction,ComponentPad*%
%ADD26R,1.500000X1.050000*%
%TD*%
%TA.AperFunction,ComponentPad*%
%ADD27O,1.500000X1.050000*%
%TD*%
%TA.AperFunction,SMDPad,CuDef*%
%ADD28RoundRect,0.135000X0.135000X0.185000X-0.135000X0.185000X-0.135000X-0.185000X0.135000X-0.185000X0*%
%TD*%
%TA.AperFunction,ComponentPad*%
%ADD29C,1.500000*%
%TD*%
%TA.AperFunction,SMDPad,CuDef*%
%ADD30R,0.350000X0.500000*%
%TD*%
%TA.AperFunction,ComponentPad*%
%ADD31R,1.600000X1.600000*%
%TD*%
%TA.AperFunction,ComponentPad*%
%ADD32O,1.600000X1.600000*%
%TD*%
%TA.AperFunction,SMDPad,CuDef*%
%ADD33RoundRect,0.218750X-0.256250X0.218750X-0.256250X-0.218750X0.256250X-0.218750X0.256250X0.218750X0*%
%TD*%
%TA.AperFunction,ComponentPad*%
%ADD34RoundRect,0.250000X-0.675000X-0.675000X0.675000X-0.675000X0.675000X0.675000X-0.675000X0.675000X0*%
%TD*%
%TA.AperFunction,ComponentPad*%
%ADD35C,1.850000*%
%TD*%
%TA.AperFunction,SMDPad,CuDef*%
%ADD36RoundRect,0.225000X0.225000X0.250000X-0.225000X0.250000X-0.225000X-0.250000X0.225000X-0.250000X0*%
%TD*%
%TA.AperFunction,ComponentPad*%
%ADD37R,1.500000X1.500000*%
%TD*%
%TA.AperFunction,ComponentPad*%
%ADD38R,1.700000X1.700000*%
%TD*%
%TA.AperFunction,ComponentPad*%
%ADD39O,1.700000X1.700000*%
%TD*%
%TA.AperFunction,ViaPad*%
%ADD40C,0.700000*%
%TD*%
%TA.AperFunction,Conductor*%
%ADD41C,0.500000*%
%TD*%
%TA.AperFunction,Conductor*%
%ADD42C,0.300000*%
%TD*%
G04 APERTURE END LIST*
D10*
%TO.P,R5,1*%
%TO.N,DHTOUT*%
X175340000Y-93070000D03*
%TO.P,R5,2*%
%TO.N,+3V3*%
X175340000Y-92050000D03*
%TD*%
D11*
%TO.P,C10,1*%
%TO.N,/xtal2*%
X141590000Y-84100000D03*
%TO.P,C10,2*%
%TO.N,GND*%
X141590000Y-85060000D03*
%TD*%
D12*
%TO.P,R1,1*%
%TO.N,SDA*%
X180830000Y-112060000D03*
%TO.P,R1,2*%
%TO.N,+3V3*%
X181850000Y-112060000D03*
%TD*%
D13*
%TO.P,U2,1,CLKIN*%
%TO.N,GND*%
X174320000Y-111622500D03*
%TO.P,U2,2,NC*%
%TO.N,unconnected-(U2-Pad2)*%
X174320000Y-111122500D03*
%TO.P,U2,3,NC*%
%TO.N,unconnected-(U2-Pad3)*%
X174320000Y-110622500D03*
%TO.P,U2,4,NC*%
%TO.N,unconnected-(U2-Pad4)*%
X174320000Y-110122500D03*
%TO.P,U2,5,NC*%
%TO.N,unconnected-(U2-Pad5)*%
X174320000Y-109622500D03*
%TO.P,U2,6,AUX_SDA*%
%TO.N,unconnected-(U2-Pad6)*%
X174320000Y-109122500D03*
D14*
%TO.P,U2,7,AUX_SCL*%
%TO.N,unconnected-(U2-Pad7)*%
X173620000Y-108422500D03*
%TO.P,U2,8,VDDIO*%
%TO.N,+3V3*%
X173120000Y-108422500D03*
%TO.P,U2,9,AD0*%
%TO.N,ADO*%
X172620000Y-108422500D03*
%TO.P,U2,10,REGOUT*%
%TO.N,Net-(C5-Pad2)*%
X172120000Y-108422500D03*
%TO.P,U2,11,FSYNC*%
%TO.N,GND*%
X171620000Y-108422500D03*
%TO.P,U2,12,INT*%
%TO.N,INT*%
X171120000Y-108422500D03*
D13*
%TO.P,U2,13,VDD*%
%TO.N,+3V3*%
X170420000Y-109122500D03*
%TO.P,U2,14,NC*%
%TO.N,unconnected-(U2-Pad14)*%
X170420000Y-109622500D03*
%TO.P,U2,15,NC*%
%TO.N,unconnected-(U2-Pad15)*%
X170420000Y-110122500D03*
%TO.P,U2,16,NC*%
%TO.N,unconnected-(U2-Pad16)*%
X170420000Y-110622500D03*
%TO.P,U2,17,NC*%
%TO.N,unconnected-(U2-Pad17)*%
X170420000Y-111122500D03*
%TO.P,U2,18,GND*%
%TO.N,GND*%
X170420000Y-111622500D03*
D14*
%TO.P,U2,19,NC*%
%TO.N,unconnected-(U2-Pad19)*%
X171120000Y-112322500D03*
%TO.P,U2,20,CPOUT*%
%TO.N,Net-(C6-Pad1)*%
X171620000Y-112322500D03*
%TO.P,U2,21,NC*%
%TO.N,unconnected-(U2-Pad21)*%
X172120000Y-112322500D03*
%TO.P,U2,22,NC*%
%TO.N,unconnected-(U2-Pad22)*%
X172620000Y-112322500D03*
%TO.P,U2,23,SCL*%
%TO.N,SCL*%
X173120000Y-112322500D03*
%TO.P,U2,24,SDA*%
%TO.N,SDA*%
X173620000Y-112322500D03*
%TD*%
D15*
%TO.P,R6,1*%
%TO.N,IP*%
X116840000Y-95290000D03*
%TO.P,R6,2*%
%TO.N,A1*%
X116840000Y-96310000D03*
%TD*%
D16*
%TO.P,J3,1,Pin_1*%
%TO.N,unconnected-(J3-Pad1)*%
X136840000Y-98810000D03*
D17*
%TO.P,J3,2,Pin_2*%
%TO.N,unconnected-(J3-Pad2)*%
X136840000Y-100810000D03*
%TO.P,J3,3,Pin_3*%
%TO.N,unconnected-(J3-Pad3)*%
X136840000Y-102810000D03*
%TO.P,J3,4,Pin_4*%
%TO.N,unconnected-(J3-Pad4)*%
X136840000Y-104810000D03*
%TO.P,J3,5,Pin_5*%
%TO.N,TX2*%
X136840000Y-106810000D03*
%TO.P,J3,6,Pin_6*%
%TO.N,RX2*%
X136840000Y-108810000D03*
%TO.P,J3,7,Pin_7*%
%TO.N,GND*%
X136840000Y-110810000D03*
%TO.P,J3,8,Pin_8*%
%TO.N,RESET*%
X136840000Y-112810000D03*
%TO.P,J3,9,Pin_9*%
%TO.N,PPS*%
X136840000Y-114810000D03*
%TD*%
D10*
%TO.P,R13,1*%
%TO.N,GND*%
X173080000Y-82330000D03*
%TO.P,R13,2*%
%TO.N,RXD*%
X173080000Y-81310000D03*
%TD*%
D18*
%TO.P,C3,1*%
%TO.N,+3V3*%
X182820000Y-102310000D03*
%TO.P,C3,2*%
%TO.N,GND*%
X181860000Y-102310000D03*
%TD*%
D19*
%TO.P,U3,1,IP+*%
%TO.N,IP*%
X105865000Y-105655000D03*
%TO.P,U3,2,IP+*%
X105865000Y-106925000D03*
%TO.P,U3,3,IP-*%
%TO.N,OP*%
X105865000Y-108195000D03*
%TO.P,U3,4,IP-*%
X105865000Y-109465000D03*
%TO.P,U3,5,GND*%
%TO.N,GND*%
X110815000Y-109465000D03*
%TO.P,U3,6,FILTER*%
%TO.N,/filter*%
X110815000Y-108195000D03*
%TO.P,U3,7,VIOUT*%
%TO.N,A2*%
X110815000Y-106925000D03*
%TO.P,U3,8,VCC*%
%TO.N,RESET*%
X110815000Y-105655000D03*
%TD*%
D20*
%TO.P,D2,1,K*%
%TO.N,GND*%
X117877500Y-81560000D03*
%TO.P,D2,2,A*%
%TO.N,/ardled*%
X116302500Y-81560000D03*
%TD*%
D18*
%TO.P,C6,1*%
%TO.N,Net-(C6-Pad1)*%
X171870000Y-114310000D03*
%TO.P,C6,2*%
%TO.N,GND*%
X170910000Y-114310000D03*
%TD*%
D12*
%TO.P,R11,1*%
%TO.N,/base*%
X164570000Y-78070000D03*
%TO.P,R11,2*%
%TO.N,Net-(D3-Pad1)*%
X165590000Y-78070000D03*
%TD*%
D21*
%TO.P,C5,1*%
%TO.N,GND*%
X170565000Y-105810000D03*
%TO.P,C5,2*%
%TO.N,Net-(C5-Pad2)*%
X172115000Y-105810000D03*
%TD*%
D22*
%TO.P,R8,1*%
%TO.N,RESET*%
X105570000Y-95810000D03*
%TO.P,R8,2*%
%TO.N,A0*%
X108110000Y-95810000D03*
%TD*%
D10*
%TO.P,R2,1*%
%TO.N,/SDO*%
X180300000Y-104090000D03*
%TO.P,R2,2*%
%TO.N,GND*%
X180300000Y-103070000D03*
%TD*%
D23*
%TO.P,SW1,1,1*%
%TO.N,GND*%
X161590000Y-84560000D03*
X155090000Y-84560000D03*
%TO.P,SW1,2,2*%
%TO.N,RESET*%
X155090000Y-89060000D03*
X161590000Y-89060000D03*
%TD*%
D11*
%TO.P,C8,1*%
%TO.N,/filter*%
X114090000Y-107310000D03*
%TO.P,C8,2*%
%TO.N,GND*%
X114090000Y-108270000D03*
%TD*%
D24*
%TO.P,D3,1,K*%
%TO.N,Net-(D3-Pad1)*%
X168042500Y-77320000D03*
%TO.P,D3,2,A*%
%TO.N,TXD*%
X169617500Y-77320000D03*
%TD*%
D25*
%TO.P,C2,1*%
%TO.N,GND*%
X168590000Y-110040000D03*
%TO.P,C2,2*%
%TO.N,+3V3*%
X168590000Y-109080000D03*
%TD*%
D26*
%TO.P,Q1,1,C*%
%TO.N,RESET*%
X148590000Y-84560000D03*
D27*
%TO.P,Q1,2,B*%
%TO.N,/base*%
X148590000Y-83290000D03*
%TO.P,Q1,3,E*%
%TO.N,RX*%
X148590000Y-82020000D03*
%TD*%
D28*
%TO.P,R10,1*%
%TO.N,/ardled*%
X113600000Y-81560000D03*
%TO.P,R10,2*%
%TO.N,13*%
X112580000Y-81560000D03*
%TD*%
D29*
%TO.P,Y1,1,1*%
%TO.N,/xtal2*%
X137590000Y-84110000D03*
%TO.P,Y1,2,2*%
%TO.N,/xtal1*%
X137590000Y-88990000D03*
%TD*%
D30*
%TO.P,U1,1,GND*%
%TO.N,GND*%
X182315000Y-109535000D03*
%TO.P,U1,2,CSB*%
%TO.N,+3V3*%
X181665000Y-109535000D03*
%TO.P,U1,3,SDI*%
%TO.N,SDA*%
X181015000Y-109535000D03*
%TO.P,U1,4,SCK*%
%TO.N,SCL*%
X180365000Y-109535000D03*
%TO.P,U1,5,SDO*%
%TO.N,/SDO*%
X180365000Y-107485000D03*
%TO.P,U1,6,VDDIO*%
%TO.N,+3V3*%
X181015000Y-107485000D03*
%TO.P,U1,7,GND*%
%TO.N,GND*%
X181665000Y-107485000D03*
%TO.P,U1,8,VDD*%
%TO.N,+3V3*%
X182315000Y-107485000D03*
%TD*%
D31*
%TO.P,U5,1,~{RESET}/PC6*%
%TO.N,RESET*%
X130140000Y-115060000D03*
D32*
%TO.P,U5,2,PD0*%
%TO.N,unconnected-(U5-Pad2)*%
X130140000Y-112520000D03*
%TO.P,U5,3,PD1*%
%TO.N,unconnected-(U5-Pad3)*%
X130140000Y-109980000D03*
%TO.P,U5,4,PD2*%
%TO.N,TX2*%
X130140000Y-107440000D03*
%TO.P,U5,5,PD3*%
%TO.N,RX2*%
X130140000Y-104900000D03*
%TO.P,U5,6,PD4*%
%TO.N,PPS*%
X130140000Y-102360000D03*
%TO.P,U5,7,VCC*%
%TO.N,RESET*%
X130140000Y-99820000D03*
%TO.P,U5,8,GND*%
%TO.N,GND*%
X130140000Y-97280000D03*
%TO.P,U5,9,XTAL1/PB6*%
%TO.N,/xtal1*%
X130140000Y-94740000D03*
%TO.P,U5,10,XTAL2/PB7*%
%TO.N,/xtal2*%
X130140000Y-92200000D03*
%TO.P,U5,11,PD5*%
%TO.N,RX*%
X130140000Y-89660000D03*
%TO.P,U5,12,PD6*%
%TO.N,TX*%
X130140000Y-87120000D03*
%TO.P,U5,13,PD7*%
%TO.N,unconnected-(U5-Pad13)*%
X130140000Y-84580000D03*
%TO.P,U5,14,PB0*%
%TO.N,unconnected-(U5-Pad14)*%
X130140000Y-82040000D03*
%TO.P,U5,15,PB1*%
%TO.N,unconnected-(U5-Pad15)*%
X122520000Y-82040000D03*
%TO.P,U5,16,PB2*%
%TO.N,unconnected-(U5-Pad16)*%
X122520000Y-84580000D03*
%TO.P,U5,17,PB3*%
%TO.N,MOSI*%
X122520000Y-87120000D03*
%TO.P,U5,18,PB4*%
%TO.N,MISO*%
X122520000Y-89660000D03*
%TO.P,U5,19,PB5*%
%TO.N,13*%
X122520000Y-92200000D03*
%TO.P,U5,20,AVCC*%
%TO.N,RESET*%
X122520000Y-94740000D03*
%TO.P,U5,21,AREF*%
%TO.N,unconnected-(U5-Pad21)*%
X122520000Y-97280000D03*
%TO.P,U5,22,GND*%
%TO.N,GND*%
X122520000Y-99820000D03*
%TO.P,U5,23,PC0*%
%TO.N,A0*%
X122520000Y-102360000D03*
%TO.P,U5,24,PC1*%
%TO.N,A1*%
X122520000Y-104900000D03*
%TO.P,U5,25,PC2*%
%TO.N,A2*%
X122520000Y-107440000D03*
%TO.P,U5,26,PC3*%
%TO.N,unconnected-(U5-Pad26)*%
X122520000Y-109980000D03*
%TO.P,U5,27,PC4*%
%TO.N,unconnected-(U5-Pad27)*%
X122520000Y-112520000D03*
%TO.P,U5,28,PC5*%
%TO.N,unconnected-(U5-Pad28)*%
X122520000Y-115060000D03*
%TD*%
D33*
%TO.P,D1,1,K*%
%TO.N,GND*%
X181890000Y-114822500D03*
%TO.P,D1,2,A*%
%TO.N,/pwrled*%
X181890000Y-116397500D03*
%TD*%
D28*
%TO.P,R4,1*%
%TO.N,/pwrled*%
X179910000Y-116610000D03*
%TO.P,R4,2*%
%TO.N,+3V3*%
X178890000Y-116610000D03*
%TD*%
D34*
%TO.P,J2,1,Pin_1*%
%TO.N,IP*%
X106040000Y-114870000D03*
D35*
%TO.P,J2,2,Pin_2*%
%TO.N,GND*%
X110240000Y-114870000D03*
%TO.P,J2,3,Pin_3*%
X114440000Y-114870000D03*
%TO.P,J2,4,Pin_4*%
%TO.N,OP*%
X118640000Y-114870000D03*
%TD*%
D10*
%TO.P,R12,1*%
%TO.N,RXD*%
X173080000Y-79580000D03*
%TO.P,R12,2*%
%TO.N,TX*%
X173080000Y-78560000D03*
%TD*%
D36*
%TO.P,C7,1*%
%TO.N,GND*%
X112890000Y-102310000D03*
%TO.P,C7,2*%
%TO.N,RESET*%
X111340000Y-102310000D03*
%TD*%
D15*
%TO.P,R7,1*%
%TO.N,A1*%
X116840000Y-98050000D03*
%TO.P,R7,2*%
%TO.N,GND*%
X116840000Y-99070000D03*
%TD*%
D37*
%TO.P,U4,1,VCC*%
%TO.N,+3V3*%
X181590000Y-89060000D03*
D29*
%TO.P,U4,2,IO*%
%TO.N,DHTOUT*%
X181590000Y-91600000D03*
%TO.P,U4,3,NC*%
%TO.N,unconnected-(U4-Pad3)*%
X181590000Y-94140000D03*
%TO.P,U4,4,GND*%
%TO.N,GND*%
X181590000Y-96680000D03*
%TD*%
D18*
%TO.P,C1,1*%
%TO.N,+3V3*%
X182570000Y-104060000D03*
%TO.P,C1,2*%
%TO.N,GND*%
X181610000Y-104060000D03*
%TD*%
D38*
%TO.P,J4,1,Pin_1*%
%TO.N,MISO*%
X111340000Y-86060000D03*
D39*
%TO.P,J4,2,Pin_2*%
%TO.N,MOSI*%
X111340000Y-88600000D03*
%TO.P,J4,3,Pin_3*%
%TO.N,13*%
X108800000Y-86060000D03*
%TO.P,J4,4,Pin_4*%
%TO.N,RESET*%
X108800000Y-88600000D03*
%TO.P,J4,5,Pin_5*%
%TO.N,GND*%
X106260000Y-86060000D03*
%TO.P,J4,6,Pin_6*%
%TO.N,RESET*%
X106260000Y-88600000D03*
%TD*%
D25*
%TO.P,C9,1*%
%TO.N,/xtal1*%
X141590000Y-89040000D03*
%TO.P,C9,2*%
%TO.N,GND*%
X141590000Y-88080000D03*
%TD*%
D10*
%TO.P,R3,1*%
%TO.N,SCL*%
X179090000Y-109820000D03*
%TO.P,R3,2*%
%TO.N,+3V3*%
X179090000Y-108800000D03*
%TD*%
D12*
%TO.P,R9,1*%
%TO.N,A0*%
X111070000Y-96060000D03*
%TO.P,R9,2*%
%TO.N,GND*%
X112090000Y-96060000D03*
%TD*%
D21*
%TO.P,C4,1*%
%TO.N,+3V3*%
X176090000Y-107060000D03*
%TO.P,C4,2*%
%TO.N,GND*%
X177640000Y-107060000D03*
%TD*%
D38*
%TO.P,J1,1,Pin_1*%
%TO.N,+3V3*%
X179210000Y-122810000D03*
D39*
%TO.P,J1,2,Pin_2*%
%TO.N,RESET*%
X179210000Y-125350000D03*
%TO.P,J1,3,Pin_3*%
%TO.N,SDA*%
X176670000Y-122810000D03*
%TO.P,J1,4,Pin_4*%
%TO.N,unconnected-(J1-Pad4)*%
X176670000Y-125350000D03*
%TO.P,J1,5,Pin_5*%
%TO.N,SCL*%
X174130000Y-122810000D03*
%TO.P,J1,6,Pin_6*%
%TO.N,unconnected-(J1-Pad6)*%
X174130000Y-125350000D03*
%TO.P,J1,7,Pin_7*%
%TO.N,unconnected-(J1-Pad7)*%
X171590000Y-122810000D03*
%TO.P,J1,8,Pin_8*%
%TO.N,TXD*%
X171590000Y-125350000D03*
%TO.P,J1,9,Pin_9*%
%TO.N,GND*%
X169050000Y-122810000D03*
%TO.P,J1,10,Pin_10*%
%TO.N,RXD*%
X169050000Y-125350000D03*
%TO.P,J1,11,Pin_11*%
%TO.N,INT*%
X166510000Y-122810000D03*
%TO.P,J1,12,Pin_12*%
%TO.N,unconnected-(J1-Pad12)*%
X166510000Y-125350000D03*
%TO.P,J1,13,Pin_13*%
%TO.N,ADO*%
X163970000Y-122810000D03*
%TO.P,J1,14,Pin_14*%
%TO.N,unconnected-(J1-Pad14)*%
X163970000Y-125350000D03*
%TO.P,J1,15,Pin_15*%
%TO.N,DHTOUT*%
X161430000Y-122810000D03*
%TO.P,J1,16,Pin_16*%
%TO.N,unconnected-(J1-Pad16)*%
X161430000Y-125350000D03*
%TO.P,J1,17,Pin_17*%
%TO.N,unconnected-(J1-Pad17)*%
X158890000Y-122810000D03*
%TO.P,J1,18,Pin_18*%
%TO.N,unconnected-(J1-Pad18)*%
X158890000Y-125350000D03*
%TO.P,J1,19,Pin_19*%
%TO.N,unconnected-(J1-Pad19)*%
X156350000Y-122810000D03*
%TO.P,J1,20,Pin_20*%
%TO.N,unconnected-(J1-Pad20)*%
X156350000Y-125350000D03*
%TO.P,J1,21,Pin_21*%
%TO.N,unconnected-(J1-Pad21)*%
X153810000Y-122810000D03*
%TO.P,J1,22,Pin_22*%
%TO.N,unconnected-(J1-Pad22)*%
X153810000Y-125350000D03*
%TO.P,J1,23,Pin_23*%
%TO.N,unconnected-(J1-Pad23)*%
X151270000Y-122810000D03*
%TO.P,J1,24,Pin_24*%
%TO.N,unconnected-(J1-Pad24)*%
X151270000Y-125350000D03*
%TO.P,J1,25,Pin_25*%
%TO.N,unconnected-(J1-Pad25)*%
X148730000Y-122810000D03*
%TO.P,J1,26,Pin_26*%
%TO.N,unconnected-(J1-Pad26)*%
X148730000Y-125350000D03*
%TO.P,J1,27,Pin_27*%
%TO.N,unconnected-(J1-Pad27)*%
X146190000Y-122810000D03*
%TO.P,J1,28,Pin_28*%
%TO.N,unconnected-(J1-Pad28)*%
X146190000Y-125350000D03*
%TO.P,J1,29,Pin_29*%
%TO.N,unconnected-(J1-Pad29)*%
X143650000Y-122810000D03*
%TO.P,J1,30,Pin_30*%
%TO.N,unconnected-(J1-Pad30)*%
X143650000Y-125350000D03*
%TO.P,J1,31,Pin_31*%
%TO.N,unconnected-(J1-Pad31)*%
X141110000Y-122810000D03*
%TO.P,J1,32,Pin_32*%
%TO.N,unconnected-(J1-Pad32)*%
X141110000Y-125350000D03*
%TO.P,J1,33,Pin_33*%
%TO.N,unconnected-(J1-Pad33)*%
X138570000Y-122810000D03*
%TO.P,J1,34,Pin_34*%
%TO.N,unconnected-(J1-Pad34)*%
X138570000Y-125350000D03*
%TO.P,J1,35,Pin_35*%
%TO.N,unconnected-(J1-Pad35)*%
X136030000Y-122810000D03*
%TO.P,J1,36,Pin_36*%
%TO.N,unconnected-(J1-Pad36)*%
X136030000Y-125350000D03*
%TO.P,J1,37,Pin_37*%
%TO.N,unconnected-(J1-Pad37)*%
X133490000Y-122810000D03*
%TO.P,J1,38,Pin_38*%
%TO.N,unconnected-(J1-Pad38)*%
X133490000Y-125350000D03*
%TO.P,J1,39,Pin_39*%
%TO.N,unconnected-(J1-Pad39)*%
X130950000Y-122810000D03*
%TO.P,J1,40,Pin_40*%
%TO.N,unconnected-(J1-Pad40)*%
X130950000Y-125350000D03*
%TD*%
D40*
%TO.N,+3V3*%
X167590000Y-109060000D03*
X174340000Y-106310000D03*
%TO.N,RESET*%
X110840000Y-100810000D03*
X109090000Y-99810000D03*
X168590000Y-85060000D03*
X171590000Y-85060000D03*
%TO.N,SDA*%
X175590000Y-114310000D03*
X174340000Y-113560000D03*
%TO.N,GND*%
X115170000Y-108290000D03*
X168710000Y-110970000D03*
X169340000Y-112060000D03*
X139090000Y-110810000D03*
X179090000Y-103060000D03*
X183340000Y-109310000D03*
X170090000Y-114310000D03*
X142590000Y-85060000D03*
X183340000Y-114810000D03*
X128340000Y-98060000D03*
X170340000Y-104060000D03*
X185340000Y-96810000D03*
X169090000Y-120310000D03*
X181491675Y-104946438D03*
X154840000Y-81810000D03*
X114090000Y-110060000D03*
X177590000Y-105560000D03*
X142590000Y-88060000D03*
X117840000Y-83060000D03*
X181850000Y-101250000D03*
X173080000Y-83320000D03*
X163840000Y-84560000D03*
X181590000Y-106560000D03*
X117840000Y-99060000D03*
X171090000Y-107060000D03*
X113090000Y-96060000D03*
X175590000Y-111560000D03*
X114340000Y-102310000D03*
X124590000Y-99810000D03*
X114430000Y-112870000D03*
X110090000Y-113060000D03*
X107340000Y-83810000D03*
%TD*%
D41*
%TO.N,+3V3*%
X178890000Y-116610000D02*
X178890000Y-115010000D01*
X179090000Y-108800000D02*
X180450000Y-108800000D01*
D42*
X177330000Y-108800000D02*
X179090000Y-108800000D01*
X176840000Y-108310000D02*
X177330000Y-108800000D01*
X176090000Y-107060000D02*
X176840000Y-107810000D01*
D41*
X181015000Y-107485000D02*
X181015000Y-108235000D01*
X181590000Y-89060000D02*
X178330000Y-89060000D01*
X186090000Y-99560000D02*
X186140000Y-99510000D01*
X181665000Y-108885000D02*
X181665000Y-108735000D01*
X185090000Y-99560000D02*
X186090000Y-99560000D01*
X178590000Y-120810000D02*
X178590000Y-116910000D01*
X182820000Y-101830000D02*
X185090000Y-99560000D01*
X181850000Y-112060000D02*
X181665000Y-111875000D01*
X182820000Y-103810000D02*
X182820000Y-102310000D01*
D42*
X175340000Y-106310000D02*
X176090000Y-107060000D01*
D41*
X182570000Y-104060000D02*
X182820000Y-103810000D01*
D42*
X168590000Y-109080000D02*
X167610000Y-109080000D01*
D41*
X181665000Y-111875000D02*
X181665000Y-109535000D01*
X178330000Y-89060000D02*
X175340000Y-92050000D01*
X181840000Y-89060000D02*
X181590000Y-89060000D01*
X178590000Y-116910000D02*
X178890000Y-116610000D01*
D42*
X167610000Y-109080000D02*
X167590000Y-109060000D01*
X175840000Y-107310000D02*
X176090000Y-107060000D01*
X168590000Y-109080000D02*
X170377500Y-109080000D01*
D41*
X178890000Y-115010000D02*
X180590000Y-113310000D01*
X186140000Y-93360000D02*
X181840000Y-89060000D01*
X180450000Y-108800000D02*
X181015000Y-108235000D01*
D42*
X173120000Y-108422500D02*
X173120000Y-107530000D01*
D41*
X182570000Y-104060000D02*
X182570000Y-107230000D01*
X181665000Y-108735000D02*
X182315000Y-108085000D01*
X186140000Y-99510000D02*
X186140000Y-93360000D01*
D42*
X170377500Y-109080000D02*
X170420000Y-109122500D01*
X173340000Y-107310000D02*
X175840000Y-107310000D01*
D41*
X179210000Y-122810000D02*
X179210000Y-121430000D01*
X181840000Y-113310000D02*
X181850000Y-113300000D01*
X182570000Y-107230000D02*
X182315000Y-107485000D01*
X179210000Y-121430000D02*
X178590000Y-120810000D01*
X181850000Y-113300000D02*
X181850000Y-112060000D01*
D42*
X173120000Y-107530000D02*
X173340000Y-107310000D01*
X176840000Y-107810000D02*
X176840000Y-108310000D01*
D41*
X181665000Y-108885000D02*
X181665000Y-109535000D01*
D42*
X174340000Y-106310000D02*
X175340000Y-106310000D01*
D41*
X182820000Y-102310000D02*
X182820000Y-101830000D01*
X181015000Y-108235000D02*
X181665000Y-108885000D01*
X182315000Y-108085000D02*
X182315000Y-107485000D01*
X180590000Y-113310000D02*
X181840000Y-113310000D01*
D42*
%TO.N,Net-(C5-Pad2)*%
X172120000Y-105815000D02*
X172120000Y-108422500D01*
D41*
%TO.N,RESET*%
X187340000Y-87810000D02*
X184590000Y-85060000D01*
X165590000Y-85060000D02*
X161590000Y-89060000D01*
X106260000Y-91330000D02*
X106260000Y-95120000D01*
X132340000Y-99810000D02*
X132590000Y-99560000D01*
X179210000Y-125350000D02*
X181590000Y-122970000D01*
X109090000Y-99330000D02*
X109090000Y-99810000D01*
D42*
X106500000Y-91570000D02*
X106260000Y-91330000D01*
D41*
X110840000Y-101810000D02*
X111340000Y-102310000D01*
X155090000Y-89060000D02*
X148840000Y-89060000D01*
X124840000Y-97060000D02*
X124840000Y-97560000D01*
D42*
X108800000Y-91380000D02*
X108610000Y-91570000D01*
D41*
X122520000Y-94740000D02*
X120520000Y-94740000D01*
X105570000Y-95810000D02*
X109090000Y-99330000D01*
X148840000Y-89060000D02*
X148590000Y-88810000D01*
X132590000Y-99560000D02*
X132590000Y-96560000D01*
X184590000Y-85060000D02*
X171590000Y-85060000D01*
D42*
X108800000Y-88600000D02*
X108800000Y-91380000D01*
D41*
X120520000Y-94740000D02*
X119090000Y-93310000D01*
X155090000Y-89060000D02*
X161590000Y-89060000D01*
X168590000Y-85060000D02*
X165590000Y-85060000D01*
X136840000Y-112810000D02*
X141090000Y-112810000D01*
X111340000Y-105130000D02*
X110815000Y-105655000D01*
X124840000Y-97560000D02*
X127100000Y-99820000D01*
X111340000Y-102310000D02*
X111340000Y-105130000D01*
X108070000Y-93310000D02*
X105570000Y-95810000D01*
X143090000Y-94810000D02*
X142590000Y-94310000D01*
X143090000Y-110810000D02*
X143090000Y-94810000D01*
X106260000Y-95120000D02*
X105570000Y-95810000D01*
D42*
X108610000Y-91570000D02*
X106500000Y-91570000D01*
D41*
X110840000Y-100810000D02*
X110840000Y-101810000D01*
X143840000Y-94060000D02*
X135340000Y-94060000D01*
X127100000Y-99820000D02*
X130140000Y-99820000D01*
X181590000Y-119810000D02*
X187340000Y-114060000D01*
X106260000Y-88600000D02*
X106260000Y-91330000D01*
X148590000Y-88810000D02*
X148590000Y-89310000D01*
X119090000Y-93310000D02*
X108070000Y-93310000D01*
X122520000Y-94740000D02*
X124840000Y-97060000D01*
X134590000Y-115060000D02*
X136840000Y-112810000D01*
X132590000Y-96560000D02*
X135090000Y-94060000D01*
X148590000Y-84560000D02*
X148590000Y-88810000D01*
X132330000Y-99820000D02*
X132340000Y-99810000D01*
X130140000Y-115060000D02*
X134590000Y-115060000D01*
X148590000Y-89310000D02*
X143840000Y-94060000D01*
X141090000Y-112810000D02*
X143090000Y-110810000D01*
X187340000Y-114060000D02*
X187340000Y-87810000D01*
X181590000Y-122970000D02*
X181590000Y-119810000D01*
X130140000Y-99820000D02*
X132330000Y-99820000D01*
D42*
%TO.N,13*%
X111840000Y-81560000D02*
X112580000Y-81560000D01*
X120100000Y-90970000D02*
X120120000Y-90950000D01*
X108800000Y-86060000D02*
X110000000Y-87260000D01*
X121370000Y-92200000D02*
X122520000Y-92200000D01*
X108800000Y-84600000D02*
X111840000Y-81560000D01*
X110160000Y-90970000D02*
X120100000Y-90970000D01*
X120120000Y-90950000D02*
X121370000Y-92200000D01*
X110000000Y-90810000D02*
X110160000Y-90970000D01*
X110000000Y-87260000D02*
X110000000Y-90810000D01*
X108800000Y-86060000D02*
X108800000Y-84600000D01*
%TO.N,/pwrled*%
X179910000Y-116610000D02*
X181677500Y-116610000D01*
X181677500Y-116610000D02*
X181890000Y-116397500D01*
%TO.N,/ardled*%
X113600000Y-81560000D02*
X116302500Y-81560000D01*
%TO.N,Net-(D3-Pad1)*%
X167292500Y-78070000D02*
X168042500Y-77320000D01*
X165590000Y-78070000D02*
X167292500Y-78070000D01*
%TO.N,TXD*%
X169617500Y-86782500D02*
X169617500Y-77320000D01*
X170070000Y-126870000D02*
X170070000Y-126950000D01*
X157887845Y-126950000D02*
X157690000Y-126752155D01*
X157690000Y-98710000D02*
X169617500Y-86782500D01*
X170070000Y-126950000D02*
X157887845Y-126950000D01*
X157690000Y-126752155D02*
X157690000Y-98710000D01*
X171590000Y-125350000D02*
X170070000Y-126870000D01*
%TO.N,SDA*%
X175590000Y-114310000D02*
X176715000Y-114310000D01*
X176715000Y-114310000D02*
X176670000Y-114355000D01*
X180830000Y-110270000D02*
X181015000Y-110085000D01*
X173620000Y-112840000D02*
X174340000Y-113560000D01*
X176715000Y-114310000D02*
X181015000Y-110010000D01*
X173620000Y-112322500D02*
X173620000Y-112840000D01*
X181015000Y-109535000D02*
X181015000Y-110085000D01*
X176670000Y-114355000D02*
X176670000Y-122810000D01*
X181015000Y-110010000D02*
X181015000Y-109535000D01*
X180830000Y-112060000D02*
X180830000Y-110270000D01*
%TO.N,SCL*%
X180080000Y-109820000D02*
X180365000Y-109535000D01*
X179090000Y-109820000D02*
X180080000Y-109820000D01*
X173340000Y-114560000D02*
X173120000Y-114340000D01*
X174350000Y-114560000D02*
X174130000Y-114780000D01*
X174350000Y-114560000D02*
X173340000Y-114560000D01*
X173120000Y-114340000D02*
X173120000Y-112322500D01*
X174130000Y-114780000D02*
X174130000Y-122810000D01*
X179090000Y-109820000D02*
X174350000Y-114560000D01*
%TO.N,RXD*%
X160090000Y-97560000D02*
X160090000Y-124060000D01*
X171590000Y-81310000D02*
X170830000Y-82070000D01*
X160090000Y-124060000D02*
X167760000Y-124060000D01*
X167760000Y-124060000D02*
X169050000Y-125350000D01*
X173080000Y-81310000D02*
X171590000Y-81310000D01*
X170830000Y-86820000D02*
X160090000Y-97560000D01*
X170830000Y-82070000D02*
X170830000Y-86820000D01*
X173080000Y-79580000D02*
X173080000Y-81310000D01*
%TO.N,INT*%
X167060000Y-107840000D02*
X171120000Y-107840000D01*
X166510000Y-108390000D02*
X167060000Y-107840000D01*
X166510000Y-108390000D02*
X166510000Y-122810000D01*
X171120000Y-108422500D02*
X171120000Y-107840000D01*
%TO.N,ADO*%
X173340000Y-106810000D02*
X173340000Y-101060000D01*
X173090000Y-100810000D02*
X166590000Y-100810000D01*
X172620000Y-106810000D02*
X173340000Y-106810000D01*
X166590000Y-100810000D02*
X163970000Y-103430000D01*
X163970000Y-103430000D02*
X163970000Y-122810000D01*
X173340000Y-101060000D02*
X173090000Y-100810000D01*
X172620000Y-108422500D02*
X172620000Y-106810000D01*
%TO.N,DHTOUT*%
X167080000Y-93070000D02*
X175340000Y-93070000D01*
X175340000Y-93070000D02*
X180120000Y-93070000D01*
X180120000Y-93070000D02*
X181590000Y-91600000D01*
X161430000Y-122810000D02*
X161430000Y-98720000D01*
X161430000Y-98720000D02*
X167080000Y-93070000D01*
%TO.N,Net-(C6-Pad1)*%
X171590000Y-113810000D02*
X171620000Y-113780000D01*
X171870000Y-114310000D02*
X171870000Y-114090000D01*
X171870000Y-114090000D02*
X171590000Y-113810000D01*
X171620000Y-113780000D02*
X171620000Y-112810000D01*
D41*
%TO.N,OP*%
X105865000Y-108195000D02*
X105865000Y-109035000D01*
X107540000Y-112010000D02*
X117290000Y-112010000D01*
X105865000Y-110335000D02*
X107540000Y-112010000D01*
X105865000Y-109035000D02*
X105840000Y-109060000D01*
X117290000Y-112010000D02*
X118640000Y-113360000D01*
X118640000Y-113360000D02*
X118640000Y-114870000D01*
X105865000Y-109465000D02*
X105865000Y-110335000D01*
%TO.N,IP*%
X105865000Y-105655000D02*
X105865000Y-104535000D01*
X104090000Y-111560000D02*
X104090000Y-106810000D01*
X105245000Y-105655000D02*
X105865000Y-105655000D01*
X105865000Y-106925000D02*
X105865000Y-105655000D01*
X106040000Y-113510000D02*
X104090000Y-111560000D01*
X104090000Y-106810000D02*
X105245000Y-105655000D01*
X115110000Y-95290000D02*
X116840000Y-95290000D01*
X106040000Y-114870000D02*
X106040000Y-113510000D01*
X105865000Y-104535000D02*
X115110000Y-95290000D01*
D42*
%TO.N,TX2*%
X136840000Y-106810000D02*
X130770000Y-106810000D01*
X130770000Y-106810000D02*
X130140000Y-107440000D01*
%TO.N,RX2*%
X138840000Y-108810000D02*
X140090000Y-107560000D01*
X133590000Y-97560000D02*
X133590000Y-103810000D01*
X132500000Y-104900000D02*
X130140000Y-104900000D01*
X133590000Y-103810000D02*
X132500000Y-104900000D01*
X136840000Y-108810000D02*
X138840000Y-108810000D01*
X138840000Y-96310000D02*
X134840000Y-96310000D01*
X140090000Y-97560000D02*
X138840000Y-96310000D01*
X140090000Y-107560000D02*
X140090000Y-97560000D01*
X134840000Y-96310000D02*
X133590000Y-97560000D01*
%TO.N,PPS*%
X128090000Y-102560000D02*
X128290000Y-102360000D01*
X136840000Y-114810000D02*
X136840000Y-117310000D01*
X128090000Y-117810000D02*
X128090000Y-102560000D01*
X128290000Y-102360000D02*
X130140000Y-102360000D01*
X136090000Y-118060000D02*
X128340000Y-118060000D01*
X136840000Y-117310000D02*
X136090000Y-118060000D01*
X128340000Y-118060000D02*
X128090000Y-117810000D01*
D41*
%TO.N,MOSI*%
X122030000Y-87120000D02*
X122520000Y-87120000D01*
X119590000Y-89560000D02*
X122030000Y-87120000D01*
X111340000Y-88600000D02*
X112300000Y-89560000D01*
X112300000Y-89560000D02*
X119590000Y-89560000D01*
D42*
%TO.N,MISO*%
X125030000Y-86790000D02*
X125030000Y-88980000D01*
X111340000Y-86060000D02*
X113670000Y-88390000D01*
X119070000Y-88390000D02*
X121610000Y-85850000D01*
X125030000Y-88980000D02*
X124350000Y-89660000D01*
X113670000Y-88390000D02*
X119070000Y-88390000D01*
X124090000Y-85850000D02*
X125030000Y-86790000D01*
X121610000Y-85850000D02*
X124090000Y-85850000D01*
X124350000Y-89660000D02*
X122520000Y-89660000D01*
%TO.N,RX*%
X134090000Y-78560000D02*
X134840000Y-77810000D01*
X134840000Y-77810000D02*
X142340000Y-77810000D01*
X130140000Y-89660000D02*
X131740000Y-89660000D01*
X142340000Y-77810000D02*
X146550000Y-82020000D01*
X134090000Y-87310000D02*
X134090000Y-78560000D01*
X131740000Y-89660000D02*
X134090000Y-87310000D01*
X146550000Y-82020000D02*
X148590000Y-82020000D01*
D41*
%TO.N,A1*%
X116840000Y-98050000D02*
X117961371Y-98050000D01*
X117961371Y-98050000D02*
X119090000Y-99178629D01*
X116840000Y-96310000D02*
X116840000Y-98050000D01*
X119090000Y-99178629D02*
X119090000Y-101470000D01*
X119090000Y-101470000D02*
X122520000Y-104900000D01*
D42*
%TO.N,A0*%
X108110000Y-95810000D02*
X110820000Y-95810000D01*
X120090000Y-96310000D02*
X120090000Y-99930000D01*
X118090000Y-94310000D02*
X120090000Y-96310000D01*
X120090000Y-99930000D02*
X122520000Y-102360000D01*
X112090000Y-94310000D02*
X118090000Y-94310000D01*
X111070000Y-96060000D02*
X111070000Y-95330000D01*
X111070000Y-95330000D02*
X112090000Y-94310000D01*
X110820000Y-95810000D02*
X111070000Y-96060000D01*
%TO.N,TX*%
X133340000Y-85560000D02*
X133340000Y-76560000D01*
X130140000Y-87120000D02*
X131780000Y-87120000D01*
X133340000Y-76560000D02*
X135340000Y-74560000D01*
X135340000Y-74560000D02*
X170320000Y-74560000D01*
X173080000Y-77320000D02*
X173080000Y-78560000D01*
X170320000Y-74560000D02*
X173080000Y-77320000D01*
X131780000Y-87120000D02*
X133340000Y-85560000D01*
D41*
%TO.N,A2*%
X113090000Y-106060000D02*
X121140000Y-106060000D01*
X121140000Y-106060000D02*
X122520000Y-107440000D01*
X110815000Y-106925000D02*
X112225000Y-106925000D01*
X112225000Y-106925000D02*
X113090000Y-106060000D01*
D42*
%TO.N,GND*%
X136840000Y-110810000D02*
X139090000Y-110810000D01*
X177590000Y-107010000D02*
X177640000Y-107060000D01*
X114430000Y-114860000D02*
X114440000Y-114870000D01*
X183327500Y-114822500D02*
X183340000Y-114810000D01*
X170910000Y-114310000D02*
X170090000Y-114310000D01*
X169050000Y-120350000D02*
X169090000Y-120310000D01*
X181860000Y-102310000D02*
X181860000Y-101260000D01*
X114090000Y-108270000D02*
X115150000Y-108270000D01*
X181890000Y-114822500D02*
X183327500Y-114822500D01*
X117877500Y-83022500D02*
X117840000Y-83060000D01*
X170420000Y-111622500D02*
X169777500Y-111622500D01*
D41*
X170565000Y-105810000D02*
X170565000Y-104285000D01*
D42*
X183115000Y-109535000D02*
X183340000Y-109310000D01*
D41*
X110815000Y-109465000D02*
X113495000Y-109465000D01*
D42*
X168590000Y-110600000D02*
X168710000Y-110720000D01*
X169050000Y-122810000D02*
X169050000Y-120350000D01*
X181665000Y-107485000D02*
X181665000Y-106635000D01*
X175527500Y-111622500D02*
X175590000Y-111560000D01*
X115150000Y-108270000D02*
X115170000Y-108290000D01*
X179100000Y-103070000D02*
X179090000Y-103060000D01*
X181610000Y-104060000D02*
X181610000Y-104828113D01*
X174320000Y-111622500D02*
X175527500Y-111622500D01*
X173080000Y-82330000D02*
X173080000Y-83320000D01*
X171090000Y-107060000D02*
X171620000Y-107590000D01*
X110240000Y-113210000D02*
X110090000Y-113060000D01*
X114430000Y-112870000D02*
X114430000Y-114860000D01*
X177590000Y-105560000D02*
X177590000Y-107010000D01*
X112090000Y-96060000D02*
X113090000Y-96060000D01*
X161590000Y-84560000D02*
X163840000Y-84560000D01*
X116840000Y-99070000D02*
X117830000Y-99070000D01*
X168590000Y-110040000D02*
X168590000Y-110600000D01*
X141590000Y-88080000D02*
X142570000Y-88080000D01*
D41*
X130140000Y-97280000D02*
X129120000Y-97280000D01*
D42*
X117830000Y-99070000D02*
X117840000Y-99060000D01*
D41*
X122520000Y-99820000D02*
X124580000Y-99820000D01*
D42*
X181665000Y-106635000D02*
X181590000Y-106560000D01*
X182315000Y-109535000D02*
X183115000Y-109535000D01*
D41*
X124580000Y-99820000D02*
X124590000Y-99810000D01*
D42*
X117877500Y-81560000D02*
X117877500Y-83022500D01*
X106260000Y-86060000D02*
X106260000Y-84890000D01*
X155090000Y-82060000D02*
X154840000Y-81810000D01*
X155090000Y-84560000D02*
X155090000Y-82060000D01*
X141590000Y-85060000D02*
X142590000Y-85060000D01*
X110240000Y-114870000D02*
X110240000Y-113210000D01*
D41*
X113495000Y-109465000D02*
X114090000Y-110060000D01*
D42*
X169777500Y-111622500D02*
X169340000Y-112060000D01*
X181610000Y-104828113D02*
X181491675Y-104946438D01*
X171620000Y-107590000D02*
X171620000Y-108422500D01*
X181590000Y-96680000D02*
X185210000Y-96680000D01*
D41*
X170565000Y-104285000D02*
X170340000Y-104060000D01*
D42*
X112890000Y-102310000D02*
X114340000Y-102310000D01*
X142570000Y-88080000D02*
X142590000Y-88060000D01*
X181860000Y-101260000D02*
X181850000Y-101250000D01*
X180300000Y-103070000D02*
X179100000Y-103070000D01*
X185210000Y-96680000D02*
X185340000Y-96810000D01*
X106260000Y-84890000D02*
X107340000Y-83810000D01*
D41*
X129120000Y-97280000D02*
X128340000Y-98060000D01*
D42*
%TO.N,/xtal1*%
X131840000Y-94740000D02*
X137590000Y-88990000D01*
X141540000Y-88990000D02*
X141590000Y-89040000D01*
X137590000Y-88990000D02*
X141540000Y-88990000D01*
X130140000Y-94740000D02*
X131840000Y-94740000D01*
%TO.N,/xtal2*%
X141580000Y-84110000D02*
X141590000Y-84100000D01*
X137590000Y-84110000D02*
X141580000Y-84110000D01*
X137590000Y-84750000D02*
X137590000Y-84110000D01*
X130140000Y-92200000D02*
X137590000Y-84750000D01*
%TO.N,/base*%
X150860000Y-83290000D02*
X151090000Y-83060000D01*
X156080000Y-78070000D02*
X164570000Y-78070000D01*
X148590000Y-83290000D02*
X150860000Y-83290000D01*
X151090000Y-83060000D02*
X156080000Y-78070000D01*
X150840000Y-83310000D02*
X151090000Y-83060000D01*
%TO.N,/SDO*%
X180365000Y-104155000D02*
X180365000Y-107485000D01*
X180300000Y-104090000D02*
X180365000Y-104155000D01*
D41*
%TO.N,/filter*%
X113020614Y-108195000D02*
X113905614Y-107310000D01*
X113905614Y-107310000D02*
X114090000Y-107310000D01*
X110815000Y-108195000D02*
X113020614Y-108195000D01*
%TD*%
M02*
