%TF.GenerationSoftware,KiCad,Pcbnew,(6.0.7)*%
%TF.CreationDate,2023-01-16T15:03:51+03:00*%
%TF.ProjectId,Omarichet Sensor Shield 2,4f6d6172-6963-4686-9574-2053656e736f,rev?*%
%TF.SameCoordinates,Original*%
%TF.FileFunction,Soldermask,Bot*%
%TF.FilePolarity,Negative*%
%FSLAX46Y46*%
G04 Gerber Fmt 4.6, Leading zero omitted, Abs format (unit mm)*
G04 Created by KiCad (PCBNEW (6.0.7)) date 2023-01-16 15:03:51*
%MOMM*%
%LPD*%
G01*
G04 APERTURE LIST*
G04 Aperture macros list*
%AMRoundRect*
0 Rectangle with rounded corners*
0 $1 Rounding radius*
0 $2 $3 $4 $5 $6 $7 $8 $9 X,Y pos of 4 corners*
0 Add a 4 corners polygon primitive as box body*
4,1,4,$2,$3,$4,$5,$6,$7,$8,$9,$2,$3,0*
0 Add four circle primitives for the rounded corners*
1,1,$1+$1,$2,$3*
1,1,$1+$1,$4,$5*
1,1,$1+$1,$6,$7*
1,1,$1+$1,$8,$9*
0 Add four rect primitives between the rounded corners*
20,1,$1+$1,$2,$3,$4,$5,0*
20,1,$1+$1,$4,$5,$6,$7,0*
20,1,$1+$1,$6,$7,$8,$9,0*
20,1,$1+$1,$8,$9,$2,$3,0*%
G04 Aperture macros list end*
%ADD10R,1.350000X1.350000*%
%ADD11O,1.350000X1.350000*%
%ADD12C,3.200000*%
%ADD13C,1.600000*%
%ADD14C,2.000000*%
%ADD15R,1.500000X1.050000*%
%ADD16O,1.500000X1.050000*%
%ADD17C,1.500000*%
%ADD18R,1.600000X1.600000*%
%ADD19O,1.600000X1.600000*%
%ADD20C,2.200000*%
%ADD21RoundRect,0.250000X-0.675000X-0.675000X0.675000X-0.675000X0.675000X0.675000X-0.675000X0.675000X0*%
%ADD22C,1.850000*%
%ADD23R,1.500000X1.500000*%
%ADD24R,1.700000X1.700000*%
%ADD25O,1.700000X1.700000*%
G04 APERTURE END LIST*
D10*
%TO.C,J3*%
X136840000Y-98810000D03*
D11*
X136840000Y-100810000D03*
X136840000Y-102810000D03*
X136840000Y-104810000D03*
X136840000Y-106810000D03*
X136840000Y-108810000D03*
X136840000Y-110810000D03*
X136840000Y-112810000D03*
X136840000Y-114810000D03*
%TD*%
D12*
%TO.C,H4*%
X185840000Y-74560000D03*
%TD*%
%TO.C,H1*%
X185840000Y-123560000D03*
%TD*%
%TO.C,H3*%
X125840000Y-74560000D03*
%TD*%
D13*
%TO.C,R8*%
X105570000Y-95810000D03*
X108110000Y-95810000D03*
%TD*%
D14*
%TO.C,SW1*%
X161590000Y-84560000D03*
X155090000Y-84560000D03*
X155090000Y-89060000D03*
X161590000Y-89060000D03*
%TD*%
D15*
%TO.C,Q1*%
X148590000Y-84560000D03*
D16*
X148590000Y-83290000D03*
X148590000Y-82020000D03*
%TD*%
D17*
%TO.C,Y1*%
X137590000Y-84110000D03*
X137590000Y-88990000D03*
%TD*%
D18*
%TO.C,U5*%
X130140000Y-115060000D03*
D19*
X130140000Y-112520000D03*
X130140000Y-109980000D03*
X130140000Y-107440000D03*
X130140000Y-104900000D03*
X130140000Y-102360000D03*
X130140000Y-99820000D03*
X130140000Y-97280000D03*
X130140000Y-94740000D03*
X130140000Y-92200000D03*
X130140000Y-89660000D03*
X130140000Y-87120000D03*
X130140000Y-84580000D03*
X130140000Y-82040000D03*
X122520000Y-82040000D03*
X122520000Y-84580000D03*
X122520000Y-87120000D03*
X122520000Y-89660000D03*
X122520000Y-92200000D03*
X122520000Y-94740000D03*
X122520000Y-97280000D03*
X122520000Y-99820000D03*
X122520000Y-102360000D03*
X122520000Y-104900000D03*
X122520000Y-107440000D03*
X122520000Y-109980000D03*
X122520000Y-112520000D03*
X122520000Y-115060000D03*
%TD*%
D12*
%TO.C,H2*%
X125340000Y-123560000D03*
%TD*%
D20*
%TO.C,J2*%
X118640000Y-125070000D03*
X114440000Y-125070000D03*
X106040000Y-125070000D03*
X110240000Y-125070000D03*
D21*
X106040000Y-114870000D03*
D22*
X110240000Y-114870000D03*
X114440000Y-114870000D03*
X118640000Y-114870000D03*
%TD*%
D23*
%TO.C,U4*%
X181590000Y-89060000D03*
D17*
X181590000Y-91600000D03*
X181590000Y-94140000D03*
X181590000Y-96680000D03*
%TD*%
D24*
%TO.C,J4*%
X111340000Y-86060000D03*
D25*
X111340000Y-88600000D03*
X108800000Y-86060000D03*
X108800000Y-88600000D03*
X106260000Y-86060000D03*
X106260000Y-88600000D03*
%TD*%
D24*
%TO.C,J1*%
X179210000Y-122810000D03*
D25*
X179210000Y-125350000D03*
X176670000Y-122810000D03*
X176670000Y-125350000D03*
X174130000Y-122810000D03*
X174130000Y-125350000D03*
X171590000Y-122810000D03*
X171590000Y-125350000D03*
X169050000Y-122810000D03*
X169050000Y-125350000D03*
X166510000Y-122810000D03*
X166510000Y-125350000D03*
X163970000Y-122810000D03*
X163970000Y-125350000D03*
X161430000Y-122810000D03*
X161430000Y-125350000D03*
X158890000Y-122810000D03*
X158890000Y-125350000D03*
X156350000Y-122810000D03*
X156350000Y-125350000D03*
X153810000Y-122810000D03*
X153810000Y-125350000D03*
X151270000Y-122810000D03*
X151270000Y-125350000D03*
X148730000Y-122810000D03*
X148730000Y-125350000D03*
X146190000Y-122810000D03*
X146190000Y-125350000D03*
X143650000Y-122810000D03*
X143650000Y-125350000D03*
X141110000Y-122810000D03*
X141110000Y-125350000D03*
X138570000Y-122810000D03*
X138570000Y-125350000D03*
X136030000Y-122810000D03*
X136030000Y-125350000D03*
X133490000Y-122810000D03*
X133490000Y-125350000D03*
X130950000Y-122810000D03*
X130950000Y-125350000D03*
%TD*%
M02*
