M48
; DRILL file {KiCad (6.0.7)} date Mon Jan 16 15:03:33 2023
; FORMAT={-:-/ absolute / metric / decimal}
; #@! TF.CreationDate,2023-01-16T15:03:33+03:00
; #@! TF.GenerationSoftware,Kicad,Pcbnew,(6.0.7)
; #@! TF.FileFunction,MixedPlating,1,2
FMAT,2
METRIC
; #@! TA.AperFunction,Plated,PTH,ViaDrill
T1C0.300
; #@! TA.AperFunction,Plated,PTH,ComponentDrill
T2C0.750
; #@! TA.AperFunction,Plated,PTH,ComponentDrill
T3C0.800
; #@! TA.AperFunction,Plated,PTH,ComponentDrill
T4C0.850
; #@! TA.AperFunction,Plated,PTH,ComponentDrill
T5C1.000
; #@! TA.AperFunction,Plated,PTH,ComponentDrill
T6C1.100
; #@! TA.AperFunction,NonPlated,NPTH,ComponentDrill
T7C2.200
; #@! TA.AperFunction,NonPlated,NPTH,ComponentDrill
T8C3.200
%
G90
G05
T1
X107.34Y-83.81
X109.09Y-99.81
X110.09Y-113.06
X110.84Y-100.81
X113.09Y-96.06
X114.09Y-110.06
X114.34Y-102.31
X114.43Y-112.87
X115.17Y-108.29
X117.84Y-83.06
X117.84Y-99.06
X124.59Y-99.81
X128.34Y-98.06
X139.09Y-110.81
X142.59Y-85.06
X142.59Y-88.06
X154.84Y-81.81
X163.84Y-84.56
X167.59Y-109.06
X168.59Y-85.06
X168.71Y-110.97
X169.09Y-120.31
X169.34Y-112.06
X170.09Y-114.31
X170.34Y-104.06
X171.09Y-107.06
X171.59Y-85.06
X173.08Y-83.32
X174.34Y-106.31
X174.34Y-113.56
X175.59Y-111.56
X175.59Y-114.31
X177.59Y-105.56
X179.09Y-103.06
X181.492Y-104.946
X181.59Y-106.56
X181.85Y-101.25
X183.34Y-109.31
X183.34Y-114.81
X185.34Y-96.81
T2
X148.59Y-82.02
X148.59Y-83.29
X148.59Y-84.56
T3
X105.57Y-95.81
X108.11Y-95.81
X122.52Y-82.04
X122.52Y-84.58
X122.52Y-87.12
X122.52Y-89.66
X122.52Y-92.2
X122.52Y-94.74
X122.52Y-97.28
X122.52Y-99.82
X122.52Y-102.36
X122.52Y-104.9
X122.52Y-107.44
X122.52Y-109.98
X122.52Y-112.52
X122.52Y-115.06
X130.14Y-82.04
X130.14Y-84.58
X130.14Y-87.12
X130.14Y-89.66
X130.14Y-92.2
X130.14Y-94.74
X130.14Y-97.28
X130.14Y-99.82
X130.14Y-102.36
X130.14Y-104.9
X130.14Y-107.44
X130.14Y-109.98
X130.14Y-112.52
X130.14Y-115.06
X136.84Y-98.81
X136.84Y-100.81
X136.84Y-102.81
X136.84Y-104.81
X136.84Y-106.81
X136.84Y-108.81
X136.84Y-110.81
X136.84Y-112.81
X136.84Y-114.81
X137.59Y-84.11
X137.59Y-88.99
X181.59Y-89.06
X181.59Y-91.6
X181.59Y-94.14
X181.59Y-96.68
T4
X106.04Y-114.87
X110.24Y-114.87
X114.44Y-114.87
X118.64Y-114.87
T5
X106.26Y-86.06
X106.26Y-88.6
X108.8Y-86.06
X108.8Y-88.6
X111.34Y-86.06
X111.34Y-88.6
X130.95Y-122.81
X130.95Y-125.35
X133.49Y-122.81
X133.49Y-125.35
X136.03Y-122.81
X136.03Y-125.35
X138.57Y-122.81
X138.57Y-125.35
X141.11Y-122.81
X141.11Y-125.35
X143.65Y-122.81
X143.65Y-125.35
X146.19Y-122.81
X146.19Y-125.35
X148.73Y-122.81
X148.73Y-125.35
X151.27Y-122.81
X151.27Y-125.35
X153.81Y-122.81
X153.81Y-125.35
X156.35Y-122.81
X156.35Y-125.35
X158.89Y-122.81
X158.89Y-125.35
X161.43Y-122.81
X161.43Y-125.35
X163.97Y-122.81
X163.97Y-125.35
X166.51Y-122.81
X166.51Y-125.35
X169.05Y-122.81
X169.05Y-125.35
X171.59Y-122.81
X171.59Y-125.35
X174.13Y-122.81
X174.13Y-125.35
X176.67Y-122.81
X176.67Y-125.35
X179.21Y-122.81
X179.21Y-125.35
T6
X155.09Y-84.56
X155.09Y-89.06
X161.59Y-84.56
X161.59Y-89.06
T7
X106.04Y-125.07
X110.24Y-125.07
X114.44Y-125.07
X118.64Y-125.07
T8
X125.34Y-123.56
X125.84Y-74.56
X185.84Y-74.56
X185.84Y-123.56
T0
M30
