%TF.GenerationSoftware,KiCad,Pcbnew,(6.0.7)*%
%TF.CreationDate,2023-01-16T15:03:51+03:00*%
%TF.ProjectId,Omarichet Sensor Shield 2,4f6d6172-6963-4686-9574-2053656e736f,rev?*%
%TF.SameCoordinates,Original*%
%TF.FileFunction,Soldermask,Top*%
%TF.FilePolarity,Negative*%
%FSLAX46Y46*%
G04 Gerber Fmt 4.6, Leading zero omitted, Abs format (unit mm)*
G04 Created by KiCad (PCBNEW (6.0.7)) date 2023-01-16 15:03:51*
%MOMM*%
%LPD*%
G01*
G04 APERTURE LIST*
G04 Aperture macros list*
%AMRoundRect*
0 Rectangle with rounded corners*
0 $1 Rounding radius*
0 $2 $3 $4 $5 $6 $7 $8 $9 X,Y pos of 4 corners*
0 Add a 4 corners polygon primitive as box body*
4,1,4,$2,$3,$4,$5,$6,$7,$8,$9,$2,$3,0*
0 Add four circle primitives for the rounded corners*
1,1,$1+$1,$2,$3*
1,1,$1+$1,$4,$5*
1,1,$1+$1,$6,$7*
1,1,$1+$1,$8,$9*
0 Add four rect primitives between the rounded corners*
20,1,$1+$1,$2,$3,$4,$5,0*
20,1,$1+$1,$4,$5,$6,$7,0*
20,1,$1+$1,$6,$7,$8,$9,0*
20,1,$1+$1,$8,$9,$2,$3,0*%
G04 Aperture macros list end*
%ADD10RoundRect,0.135000X0.185000X-0.135000X0.185000X0.135000X-0.185000X0.135000X-0.185000X-0.135000X0*%
%ADD11RoundRect,0.140000X-0.170000X0.140000X-0.170000X-0.140000X0.170000X-0.140000X0.170000X0.140000X0*%
%ADD12RoundRect,0.135000X-0.135000X-0.185000X0.135000X-0.185000X0.135000X0.185000X-0.135000X0.185000X0*%
%ADD13RoundRect,0.075000X0.350000X0.075000X-0.350000X0.075000X-0.350000X-0.075000X0.350000X-0.075000X0*%
%ADD14RoundRect,0.075000X-0.075000X0.350000X-0.075000X-0.350000X0.075000X-0.350000X0.075000X0.350000X0*%
%ADD15RoundRect,0.135000X-0.185000X0.135000X-0.185000X-0.135000X0.185000X-0.135000X0.185000X0.135000X0*%
%ADD16R,1.350000X1.350000*%
%ADD17O,1.350000X1.350000*%
%ADD18RoundRect,0.140000X0.140000X0.170000X-0.140000X0.170000X-0.140000X-0.170000X0.140000X-0.170000X0*%
%ADD19C,3.200000*%
%ADD20RoundRect,0.150000X-0.825000X-0.150000X0.825000X-0.150000X0.825000X0.150000X-0.825000X0.150000X0*%
%ADD21RoundRect,0.218750X0.218750X0.256250X-0.218750X0.256250X-0.218750X-0.256250X0.218750X-0.256250X0*%
%ADD22RoundRect,0.225000X-0.225000X-0.250000X0.225000X-0.250000X0.225000X0.250000X-0.225000X0.250000X0*%
%ADD23C,1.600000*%
%ADD24C,2.000000*%
%ADD25RoundRect,0.218750X-0.218750X-0.256250X0.218750X-0.256250X0.218750X0.256250X-0.218750X0.256250X0*%
%ADD26RoundRect,0.140000X0.170000X-0.140000X0.170000X0.140000X-0.170000X0.140000X-0.170000X-0.140000X0*%
%ADD27R,1.500000X1.050000*%
%ADD28O,1.500000X1.050000*%
%ADD29RoundRect,0.135000X0.135000X0.185000X-0.135000X0.185000X-0.135000X-0.185000X0.135000X-0.185000X0*%
%ADD30C,1.500000*%
%ADD31R,0.350000X0.500000*%
%ADD32R,1.600000X1.600000*%
%ADD33O,1.600000X1.600000*%
%ADD34RoundRect,0.218750X-0.256250X0.218750X-0.256250X-0.218750X0.256250X-0.218750X0.256250X0.218750X0*%
%ADD35C,2.200000*%
%ADD36RoundRect,0.250000X-0.675000X-0.675000X0.675000X-0.675000X0.675000X0.675000X-0.675000X0.675000X0*%
%ADD37C,1.850000*%
%ADD38RoundRect,0.225000X0.225000X0.250000X-0.225000X0.250000X-0.225000X-0.250000X0.225000X-0.250000X0*%
%ADD39R,1.500000X1.500000*%
%ADD40R,1.700000X1.700000*%
%ADD41O,1.700000X1.700000*%
G04 APERTURE END LIST*
D10*
%TO.C,R5*%
X175340000Y-93070000D03*
X175340000Y-92050000D03*
%TD*%
D11*
%TO.C,C10*%
X141590000Y-84100000D03*
X141590000Y-85060000D03*
%TD*%
D12*
%TO.C,R1*%
X180830000Y-112060000D03*
X181850000Y-112060000D03*
%TD*%
D13*
%TO.C,U2*%
X174320000Y-111622500D03*
X174320000Y-111122500D03*
X174320000Y-110622500D03*
X174320000Y-110122500D03*
X174320000Y-109622500D03*
X174320000Y-109122500D03*
D14*
X173620000Y-108422500D03*
X173120000Y-108422500D03*
X172620000Y-108422500D03*
X172120000Y-108422500D03*
X171620000Y-108422500D03*
X171120000Y-108422500D03*
D13*
X170420000Y-109122500D03*
X170420000Y-109622500D03*
X170420000Y-110122500D03*
X170420000Y-110622500D03*
X170420000Y-111122500D03*
X170420000Y-111622500D03*
D14*
X171120000Y-112322500D03*
X171620000Y-112322500D03*
X172120000Y-112322500D03*
X172620000Y-112322500D03*
X173120000Y-112322500D03*
X173620000Y-112322500D03*
%TD*%
D15*
%TO.C,R6*%
X116840000Y-95290000D03*
X116840000Y-96310000D03*
%TD*%
D16*
%TO.C,J3*%
X136840000Y-98810000D03*
D17*
X136840000Y-100810000D03*
X136840000Y-102810000D03*
X136840000Y-104810000D03*
X136840000Y-106810000D03*
X136840000Y-108810000D03*
X136840000Y-110810000D03*
X136840000Y-112810000D03*
X136840000Y-114810000D03*
%TD*%
D10*
%TO.C,R13*%
X173080000Y-82330000D03*
X173080000Y-81310000D03*
%TD*%
D18*
%TO.C,C3*%
X182820000Y-102310000D03*
X181860000Y-102310000D03*
%TD*%
D19*
%TO.C,H4*%
X185840000Y-74560000D03*
%TD*%
D20*
%TO.C,U3*%
X105865000Y-105655000D03*
X105865000Y-106925000D03*
X105865000Y-108195000D03*
X105865000Y-109465000D03*
X110815000Y-109465000D03*
X110815000Y-108195000D03*
X110815000Y-106925000D03*
X110815000Y-105655000D03*
%TD*%
D21*
%TO.C,D2*%
X117877500Y-81560000D03*
X116302500Y-81560000D03*
%TD*%
D18*
%TO.C,C6*%
X171870000Y-114310000D03*
X170910000Y-114310000D03*
%TD*%
D12*
%TO.C,R11*%
X164570000Y-78070000D03*
X165590000Y-78070000D03*
%TD*%
D22*
%TO.C,C5*%
X170565000Y-105810000D03*
X172115000Y-105810000D03*
%TD*%
D19*
%TO.C,H1*%
X185840000Y-123560000D03*
%TD*%
%TO.C,H3*%
X125840000Y-74560000D03*
%TD*%
D23*
%TO.C,R8*%
X105570000Y-95810000D03*
X108110000Y-95810000D03*
%TD*%
D10*
%TO.C,R2*%
X180300000Y-104090000D03*
X180300000Y-103070000D03*
%TD*%
D24*
%TO.C,SW1*%
X161590000Y-84560000D03*
X155090000Y-84560000D03*
X155090000Y-89060000D03*
X161590000Y-89060000D03*
%TD*%
D11*
%TO.C,C8*%
X114090000Y-107310000D03*
X114090000Y-108270000D03*
%TD*%
D25*
%TO.C,D3*%
X168042500Y-77320000D03*
X169617500Y-77320000D03*
%TD*%
D26*
%TO.C,C2*%
X168590000Y-110040000D03*
X168590000Y-109080000D03*
%TD*%
D27*
%TO.C,Q1*%
X148590000Y-84560000D03*
D28*
X148590000Y-83290000D03*
X148590000Y-82020000D03*
%TD*%
D29*
%TO.C,R10*%
X113600000Y-81560000D03*
X112580000Y-81560000D03*
%TD*%
D30*
%TO.C,Y1*%
X137590000Y-84110000D03*
X137590000Y-88990000D03*
%TD*%
D31*
%TO.C,U1*%
X182315000Y-109535000D03*
X181665000Y-109535000D03*
X181015000Y-109535000D03*
X180365000Y-109535000D03*
X180365000Y-107485000D03*
X181015000Y-107485000D03*
X181665000Y-107485000D03*
X182315000Y-107485000D03*
%TD*%
D32*
%TO.C,U5*%
X130140000Y-115060000D03*
D33*
X130140000Y-112520000D03*
X130140000Y-109980000D03*
X130140000Y-107440000D03*
X130140000Y-104900000D03*
X130140000Y-102360000D03*
X130140000Y-99820000D03*
X130140000Y-97280000D03*
X130140000Y-94740000D03*
X130140000Y-92200000D03*
X130140000Y-89660000D03*
X130140000Y-87120000D03*
X130140000Y-84580000D03*
X130140000Y-82040000D03*
X122520000Y-82040000D03*
X122520000Y-84580000D03*
X122520000Y-87120000D03*
X122520000Y-89660000D03*
X122520000Y-92200000D03*
X122520000Y-94740000D03*
X122520000Y-97280000D03*
X122520000Y-99820000D03*
X122520000Y-102360000D03*
X122520000Y-104900000D03*
X122520000Y-107440000D03*
X122520000Y-109980000D03*
X122520000Y-112520000D03*
X122520000Y-115060000D03*
%TD*%
D34*
%TO.C,D1*%
X181890000Y-114822500D03*
X181890000Y-116397500D03*
%TD*%
D19*
%TO.C,H2*%
X125340000Y-123560000D03*
%TD*%
D29*
%TO.C,R4*%
X179910000Y-116610000D03*
X178890000Y-116610000D03*
%TD*%
D35*
%TO.C,J2*%
X118640000Y-125070000D03*
X114440000Y-125070000D03*
X106040000Y-125070000D03*
X110240000Y-125070000D03*
D36*
X106040000Y-114870000D03*
D37*
X110240000Y-114870000D03*
X114440000Y-114870000D03*
X118640000Y-114870000D03*
%TD*%
D10*
%TO.C,R12*%
X173080000Y-79580000D03*
X173080000Y-78560000D03*
%TD*%
D38*
%TO.C,C7*%
X112890000Y-102310000D03*
X111340000Y-102310000D03*
%TD*%
D15*
%TO.C,R7*%
X116840000Y-98050000D03*
X116840000Y-99070000D03*
%TD*%
D39*
%TO.C,U4*%
X181590000Y-89060000D03*
D30*
X181590000Y-91600000D03*
X181590000Y-94140000D03*
X181590000Y-96680000D03*
%TD*%
D18*
%TO.C,C1*%
X182570000Y-104060000D03*
X181610000Y-104060000D03*
%TD*%
D40*
%TO.C,J4*%
X111340000Y-86060000D03*
D41*
X111340000Y-88600000D03*
X108800000Y-86060000D03*
X108800000Y-88600000D03*
X106260000Y-86060000D03*
X106260000Y-88600000D03*
%TD*%
D26*
%TO.C,C9*%
X141590000Y-89040000D03*
X141590000Y-88080000D03*
%TD*%
D10*
%TO.C,R3*%
X179090000Y-109820000D03*
X179090000Y-108800000D03*
%TD*%
D12*
%TO.C,R9*%
X111070000Y-96060000D03*
X112090000Y-96060000D03*
%TD*%
D22*
%TO.C,C4*%
X176090000Y-107060000D03*
X177640000Y-107060000D03*
%TD*%
D40*
%TO.C,J1*%
X179210000Y-122810000D03*
D41*
X179210000Y-125350000D03*
X176670000Y-122810000D03*
X176670000Y-125350000D03*
X174130000Y-122810000D03*
X174130000Y-125350000D03*
X171590000Y-122810000D03*
X171590000Y-125350000D03*
X169050000Y-122810000D03*
X169050000Y-125350000D03*
X166510000Y-122810000D03*
X166510000Y-125350000D03*
X163970000Y-122810000D03*
X163970000Y-125350000D03*
X161430000Y-122810000D03*
X161430000Y-125350000D03*
X158890000Y-122810000D03*
X158890000Y-125350000D03*
X156350000Y-122810000D03*
X156350000Y-125350000D03*
X153810000Y-122810000D03*
X153810000Y-125350000D03*
X151270000Y-122810000D03*
X151270000Y-125350000D03*
X148730000Y-122810000D03*
X148730000Y-125350000D03*
X146190000Y-122810000D03*
X146190000Y-125350000D03*
X143650000Y-122810000D03*
X143650000Y-125350000D03*
X141110000Y-122810000D03*
X141110000Y-125350000D03*
X138570000Y-122810000D03*
X138570000Y-125350000D03*
X136030000Y-122810000D03*
X136030000Y-125350000D03*
X133490000Y-122810000D03*
X133490000Y-125350000D03*
X130950000Y-122810000D03*
X130950000Y-125350000D03*
%TD*%
M02*
