%TF.GenerationSoftware,KiCad,Pcbnew,(6.0.7)*%
%TF.CreationDate,2023-01-16T15:03:51+03:00*%
%TF.ProjectId,Omarichet Sensor Shield 2,4f6d6172-6963-4686-9574-2053656e736f,rev?*%
%TF.SameCoordinates,Original*%
%TF.FileFunction,Legend,Top*%
%TF.FilePolarity,Positive*%
%FSLAX46Y46*%
G04 Gerber Fmt 4.6, Leading zero omitted, Abs format (unit mm)*
G04 Created by KiCad (PCBNEW (6.0.7)) date 2023-01-16 15:03:51*
%MOMM*%
%LPD*%
G01*
G04 APERTURE LIST*
%ADD10C,0.150000*%
%ADD11C,0.300000*%
%ADD12C,0.120000*%
%ADD13C,0.100000*%
G04 APERTURE END LIST*
D10*
X109227142Y-112232380D02*
X109227142Y-111232380D01*
X109703333Y-112232380D02*
X109703333Y-111232380D01*
X110274761Y-112232380D01*
X110274761Y-111232380D01*
X110750952Y-111851428D02*
X111512857Y-111851428D01*
X113613809Y-87322380D02*
X113613809Y-86322380D01*
X114661428Y-87227142D02*
X114613809Y-87274761D01*
X114470952Y-87322380D01*
X114375714Y-87322380D01*
X114232857Y-87274761D01*
X114137619Y-87179523D01*
X114090000Y-87084285D01*
X114042380Y-86893809D01*
X114042380Y-86750952D01*
X114090000Y-86560476D01*
X114137619Y-86465238D01*
X114232857Y-86370000D01*
X114375714Y-86322380D01*
X114470952Y-86322380D01*
X114613809Y-86370000D01*
X114661428Y-86417619D01*
X115042380Y-87274761D02*
X115185238Y-87322380D01*
X115423333Y-87322380D01*
X115518571Y-87274761D01*
X115566190Y-87227142D01*
X115613809Y-87131904D01*
X115613809Y-87036666D01*
X115566190Y-86941428D01*
X115518571Y-86893809D01*
X115423333Y-86846190D01*
X115232857Y-86798571D01*
X115137619Y-86750952D01*
X115090000Y-86703333D01*
X115042380Y-86608095D01*
X115042380Y-86512857D01*
X115090000Y-86417619D01*
X115137619Y-86370000D01*
X115232857Y-86322380D01*
X115470952Y-86322380D01*
X115613809Y-86370000D01*
X116042380Y-87322380D02*
X116042380Y-86322380D01*
X116423333Y-86322380D01*
X116518571Y-86370000D01*
X116566190Y-86417619D01*
X116613809Y-86512857D01*
X116613809Y-86655714D01*
X116566190Y-86750952D01*
X116518571Y-86798571D01*
X116423333Y-86846190D01*
X116042380Y-86846190D01*
X133950000Y-105774285D02*
X133902380Y-105869523D01*
X133902380Y-106012380D01*
X133950000Y-106155238D01*
X134045238Y-106250476D01*
X134140476Y-106298095D01*
X134330952Y-106345714D01*
X134473809Y-106345714D01*
X134664285Y-106298095D01*
X134759523Y-106250476D01*
X134854761Y-106155238D01*
X134902380Y-106012380D01*
X134902380Y-105917142D01*
X134854761Y-105774285D01*
X134807142Y-105726666D01*
X134473809Y-105726666D01*
X134473809Y-105917142D01*
X134902380Y-105298095D02*
X133902380Y-105298095D01*
X133902380Y-104917142D01*
X133950000Y-104821904D01*
X133997619Y-104774285D01*
X134092857Y-104726666D01*
X134235714Y-104726666D01*
X134330952Y-104774285D01*
X134378571Y-104821904D01*
X134426190Y-104917142D01*
X134426190Y-105298095D01*
X134854761Y-104345714D02*
X134902380Y-104202857D01*
X134902380Y-103964761D01*
X134854761Y-103869523D01*
X134807142Y-103821904D01*
X134711904Y-103774285D01*
X134616666Y-103774285D01*
X134521428Y-103821904D01*
X134473809Y-103869523D01*
X134426190Y-103964761D01*
X134378571Y-104155238D01*
X134330952Y-104250476D01*
X134283333Y-104298095D01*
X134188095Y-104345714D01*
X134092857Y-104345714D01*
X133997619Y-104298095D01*
X133950000Y-104250476D01*
X133902380Y-104155238D01*
X133902380Y-103917142D01*
X133950000Y-103774285D01*
X117610952Y-111242380D02*
X117801428Y-111242380D01*
X117896666Y-111290000D01*
X117991904Y-111385238D01*
X118039523Y-111575714D01*
X118039523Y-111909047D01*
X117991904Y-112099523D01*
X117896666Y-112194761D01*
X117801428Y-112242380D01*
X117610952Y-112242380D01*
X117515714Y-112194761D01*
X117420476Y-112099523D01*
X117372857Y-111909047D01*
X117372857Y-111575714D01*
X117420476Y-111385238D01*
X117515714Y-111290000D01*
X117610952Y-111242380D01*
X118468095Y-111242380D02*
X118468095Y-112051904D01*
X118515714Y-112147142D01*
X118563333Y-112194761D01*
X118658571Y-112242380D01*
X118849047Y-112242380D01*
X118944285Y-112194761D01*
X118991904Y-112147142D01*
X119039523Y-112051904D01*
X119039523Y-111242380D01*
X119372857Y-111242380D02*
X119944285Y-111242380D01*
X119658571Y-112242380D02*
X119658571Y-111242380D01*
X120277619Y-111861428D02*
X121039523Y-111861428D01*
X120658571Y-112242380D02*
X120658571Y-111480476D01*
X113070952Y-111202380D02*
X113261428Y-111202380D01*
X113356666Y-111250000D01*
X113451904Y-111345238D01*
X113499523Y-111535714D01*
X113499523Y-111869047D01*
X113451904Y-112059523D01*
X113356666Y-112154761D01*
X113261428Y-112202380D01*
X113070952Y-112202380D01*
X112975714Y-112154761D01*
X112880476Y-112059523D01*
X112832857Y-111869047D01*
X112832857Y-111535714D01*
X112880476Y-111345238D01*
X112975714Y-111250000D01*
X113070952Y-111202380D01*
X113928095Y-111202380D02*
X113928095Y-112011904D01*
X113975714Y-112107142D01*
X114023333Y-112154761D01*
X114118571Y-112202380D01*
X114309047Y-112202380D01*
X114404285Y-112154761D01*
X114451904Y-112107142D01*
X114499523Y-112011904D01*
X114499523Y-111202380D01*
X114832857Y-111202380D02*
X115404285Y-111202380D01*
X115118571Y-112202380D02*
X115118571Y-111202380D01*
X115737619Y-111821428D02*
X116499523Y-111821428D01*
D11*
X146440491Y-77412857D02*
X146940491Y-77412857D01*
X147056562Y-78198571D02*
X146342276Y-78198571D01*
X146529776Y-76698571D01*
X147244062Y-76698571D01*
X147699419Y-78198571D02*
X147886919Y-76698571D01*
X148244062Y-76698571D01*
X148449419Y-76770000D01*
X148574419Y-76912857D01*
X148627991Y-77055714D01*
X148663705Y-77341428D01*
X148636919Y-77555714D01*
X148529776Y-77841428D01*
X148440491Y-77984285D01*
X148279776Y-78127142D01*
X148056562Y-78198571D01*
X147699419Y-78198571D01*
X149386919Y-76698571D02*
X149235133Y-77912857D01*
X149288705Y-78055714D01*
X149351205Y-78127142D01*
X149485133Y-78198571D01*
X149770848Y-78198571D01*
X149922633Y-78127142D01*
X150002991Y-78055714D01*
X150092276Y-77912857D01*
X150244062Y-76698571D01*
X150708348Y-78127142D02*
X150913705Y-78198571D01*
X151270848Y-78198571D01*
X151422633Y-78127142D01*
X151502991Y-78055714D01*
X151592276Y-77912857D01*
X151610133Y-77770000D01*
X151556562Y-77627142D01*
X151494062Y-77555714D01*
X151360133Y-77484285D01*
X151083348Y-77412857D01*
X150949419Y-77341428D01*
X150886919Y-77270000D01*
X150833348Y-77127142D01*
X150851205Y-76984285D01*
X150940491Y-76841428D01*
X151020848Y-76770000D01*
X151172633Y-76698571D01*
X151529776Y-76698571D01*
X151735133Y-76770000D01*
X152181562Y-77770000D02*
X152895848Y-77770000D01*
X151985133Y-78198571D02*
X152672633Y-76698571D01*
X152985133Y-78198571D01*
X153458348Y-76698571D02*
X154315491Y-76698571D01*
X153699419Y-78198571D02*
X153886919Y-76698571D01*
X155744062Y-76698571D02*
X156056562Y-78198571D01*
X156744062Y-76698571D01*
X157842276Y-78198571D02*
X156985133Y-78198571D01*
X157413705Y-78198571D02*
X157601205Y-76698571D01*
X157431562Y-76912857D01*
X157270848Y-77055714D01*
X157119062Y-77127142D01*
X158502991Y-78055714D02*
X158565491Y-78127142D01*
X158485133Y-78198571D01*
X158422633Y-78127142D01*
X158502991Y-78055714D01*
X158485133Y-78198571D01*
X159985133Y-78198571D02*
X159127991Y-78198571D01*
X159556562Y-78198571D02*
X159744062Y-76698571D01*
X159574419Y-76912857D01*
X159413705Y-77055714D01*
X159261919Y-77127142D01*
D10*
X104767142Y-112232380D02*
X104767142Y-111232380D01*
X105243333Y-112232380D02*
X105243333Y-111232380D01*
X105814761Y-112232380D01*
X105814761Y-111232380D01*
X106290952Y-111851428D02*
X107052857Y-111851428D01*
X106671904Y-112232380D02*
X106671904Y-111470476D01*
%TO.C,R5*%
X174622380Y-92726666D02*
X174146190Y-93060000D01*
X174622380Y-93298095D02*
X173622380Y-93298095D01*
X173622380Y-92917142D01*
X173670000Y-92821904D01*
X173717619Y-92774285D01*
X173812857Y-92726666D01*
X173955714Y-92726666D01*
X174050952Y-92774285D01*
X174098571Y-92821904D01*
X174146190Y-92917142D01*
X174146190Y-93298095D01*
X173622380Y-91821904D02*
X173622380Y-92298095D01*
X174098571Y-92345714D01*
X174050952Y-92298095D01*
X174003333Y-92202857D01*
X174003333Y-91964761D01*
X174050952Y-91869523D01*
X174098571Y-91821904D01*
X174193809Y-91774285D01*
X174431904Y-91774285D01*
X174527142Y-91821904D01*
X174574761Y-91869523D01*
X174622380Y-91964761D01*
X174622380Y-92202857D01*
X174574761Y-92298095D01*
X174527142Y-92345714D01*
%TO.C,C10*%
X141447142Y-82917142D02*
X141399523Y-82964761D01*
X141256666Y-83012380D01*
X141161428Y-83012380D01*
X141018571Y-82964761D01*
X140923333Y-82869523D01*
X140875714Y-82774285D01*
X140828095Y-82583809D01*
X140828095Y-82440952D01*
X140875714Y-82250476D01*
X140923333Y-82155238D01*
X141018571Y-82060000D01*
X141161428Y-82012380D01*
X141256666Y-82012380D01*
X141399523Y-82060000D01*
X141447142Y-82107619D01*
X142399523Y-83012380D02*
X141828095Y-83012380D01*
X142113809Y-83012380D02*
X142113809Y-82012380D01*
X142018571Y-82155238D01*
X141923333Y-82250476D01*
X141828095Y-82298095D01*
X143018571Y-82012380D02*
X143113809Y-82012380D01*
X143209047Y-82060000D01*
X143256666Y-82107619D01*
X143304285Y-82202857D01*
X143351904Y-82393333D01*
X143351904Y-82631428D01*
X143304285Y-82821904D01*
X143256666Y-82917142D01*
X143209047Y-82964761D01*
X143113809Y-83012380D01*
X143018571Y-83012380D01*
X142923333Y-82964761D01*
X142875714Y-82917142D01*
X142828095Y-82821904D01*
X142780476Y-82631428D01*
X142780476Y-82393333D01*
X142828095Y-82202857D01*
X142875714Y-82107619D01*
X142923333Y-82060000D01*
X143018571Y-82012380D01*
%TO.C,R1*%
X183173333Y-112512380D02*
X182840000Y-112036190D01*
X182601904Y-112512380D02*
X182601904Y-111512380D01*
X182982857Y-111512380D01*
X183078095Y-111560000D01*
X183125714Y-111607619D01*
X183173333Y-111702857D01*
X183173333Y-111845714D01*
X183125714Y-111940952D01*
X183078095Y-111988571D01*
X182982857Y-112036190D01*
X182601904Y-112036190D01*
X184125714Y-112512380D02*
X183554285Y-112512380D01*
X183840000Y-112512380D02*
X183840000Y-111512380D01*
X183744761Y-111655238D01*
X183649523Y-111750476D01*
X183554285Y-111798095D01*
%TO.C,U2*%
X175328095Y-109262380D02*
X175328095Y-110071904D01*
X175375714Y-110167142D01*
X175423333Y-110214761D01*
X175518571Y-110262380D01*
X175709047Y-110262380D01*
X175804285Y-110214761D01*
X175851904Y-110167142D01*
X175899523Y-110071904D01*
X175899523Y-109262380D01*
X176328095Y-109357619D02*
X176375714Y-109310000D01*
X176470952Y-109262380D01*
X176709047Y-109262380D01*
X176804285Y-109310000D01*
X176851904Y-109357619D01*
X176899523Y-109452857D01*
X176899523Y-109548095D01*
X176851904Y-109690952D01*
X176280476Y-110262380D01*
X176899523Y-110262380D01*
%TO.C,R6*%
X116673333Y-94512380D02*
X116340000Y-94036190D01*
X116101904Y-94512380D02*
X116101904Y-93512380D01*
X116482857Y-93512380D01*
X116578095Y-93560000D01*
X116625714Y-93607619D01*
X116673333Y-93702857D01*
X116673333Y-93845714D01*
X116625714Y-93940952D01*
X116578095Y-93988571D01*
X116482857Y-94036190D01*
X116101904Y-94036190D01*
X117530476Y-93512380D02*
X117340000Y-93512380D01*
X117244761Y-93560000D01*
X117197142Y-93607619D01*
X117101904Y-93750476D01*
X117054285Y-93940952D01*
X117054285Y-94321904D01*
X117101904Y-94417142D01*
X117149523Y-94464761D01*
X117244761Y-94512380D01*
X117435238Y-94512380D01*
X117530476Y-94464761D01*
X117578095Y-94417142D01*
X117625714Y-94321904D01*
X117625714Y-94083809D01*
X117578095Y-93988571D01*
X117530476Y-93940952D01*
X117435238Y-93893333D01*
X117244761Y-93893333D01*
X117149523Y-93940952D01*
X117101904Y-93988571D01*
X117054285Y-94083809D01*
%TO.C,J3*%
X137256666Y-95202380D02*
X137256666Y-95916666D01*
X137209047Y-96059523D01*
X137113809Y-96154761D01*
X136970952Y-96202380D01*
X136875714Y-96202380D01*
X137637619Y-95202380D02*
X138256666Y-95202380D01*
X137923333Y-95583333D01*
X138066190Y-95583333D01*
X138161428Y-95630952D01*
X138209047Y-95678571D01*
X138256666Y-95773809D01*
X138256666Y-96011904D01*
X138209047Y-96107142D01*
X138161428Y-96154761D01*
X138066190Y-96202380D01*
X137780476Y-96202380D01*
X137685238Y-96154761D01*
X137637619Y-96107142D01*
%TO.C,R13*%
X174607142Y-82182380D02*
X174273809Y-81706190D01*
X174035714Y-82182380D02*
X174035714Y-81182380D01*
X174416666Y-81182380D01*
X174511904Y-81230000D01*
X174559523Y-81277619D01*
X174607142Y-81372857D01*
X174607142Y-81515714D01*
X174559523Y-81610952D01*
X174511904Y-81658571D01*
X174416666Y-81706190D01*
X174035714Y-81706190D01*
X175559523Y-82182380D02*
X174988095Y-82182380D01*
X175273809Y-82182380D02*
X175273809Y-81182380D01*
X175178571Y-81325238D01*
X175083333Y-81420476D01*
X174988095Y-81468095D01*
X175892857Y-81182380D02*
X176511904Y-81182380D01*
X176178571Y-81563333D01*
X176321428Y-81563333D01*
X176416666Y-81610952D01*
X176464285Y-81658571D01*
X176511904Y-81753809D01*
X176511904Y-81991904D01*
X176464285Y-82087142D01*
X176416666Y-82134761D01*
X176321428Y-82182380D01*
X176035714Y-82182380D01*
X175940476Y-82134761D01*
X175892857Y-82087142D01*
%TO.C,C3*%
X183933333Y-101607142D02*
X183885714Y-101654761D01*
X183742857Y-101702380D01*
X183647619Y-101702380D01*
X183504761Y-101654761D01*
X183409523Y-101559523D01*
X183361904Y-101464285D01*
X183314285Y-101273809D01*
X183314285Y-101130952D01*
X183361904Y-100940476D01*
X183409523Y-100845238D01*
X183504761Y-100750000D01*
X183647619Y-100702380D01*
X183742857Y-100702380D01*
X183885714Y-100750000D01*
X183933333Y-100797619D01*
X184266666Y-100702380D02*
X184885714Y-100702380D01*
X184552380Y-101083333D01*
X184695238Y-101083333D01*
X184790476Y-101130952D01*
X184838095Y-101178571D01*
X184885714Y-101273809D01*
X184885714Y-101511904D01*
X184838095Y-101607142D01*
X184790476Y-101654761D01*
X184695238Y-101702380D01*
X184409523Y-101702380D01*
X184314285Y-101654761D01*
X184266666Y-101607142D01*
%TO.C,U3*%
X108288095Y-103422380D02*
X108288095Y-104231904D01*
X108335714Y-104327142D01*
X108383333Y-104374761D01*
X108478571Y-104422380D01*
X108669047Y-104422380D01*
X108764285Y-104374761D01*
X108811904Y-104327142D01*
X108859523Y-104231904D01*
X108859523Y-103422380D01*
X109240476Y-103422380D02*
X109859523Y-103422380D01*
X109526190Y-103803333D01*
X109669047Y-103803333D01*
X109764285Y-103850952D01*
X109811904Y-103898571D01*
X109859523Y-103993809D01*
X109859523Y-104231904D01*
X109811904Y-104327142D01*
X109764285Y-104374761D01*
X109669047Y-104422380D01*
X109383333Y-104422380D01*
X109288095Y-104374761D01*
X109240476Y-104327142D01*
%TO.C,D2*%
X116694404Y-80512380D02*
X116694404Y-79512380D01*
X116932500Y-79512380D01*
X117075357Y-79560000D01*
X117170595Y-79655238D01*
X117218214Y-79750476D01*
X117265833Y-79940952D01*
X117265833Y-80083809D01*
X117218214Y-80274285D01*
X117170595Y-80369523D01*
X117075357Y-80464761D01*
X116932500Y-80512380D01*
X116694404Y-80512380D01*
X117646785Y-79607619D02*
X117694404Y-79560000D01*
X117789642Y-79512380D01*
X118027738Y-79512380D01*
X118122976Y-79560000D01*
X118170595Y-79607619D01*
X118218214Y-79702857D01*
X118218214Y-79798095D01*
X118170595Y-79940952D01*
X117599166Y-80512380D01*
X118218214Y-80512380D01*
%TO.C,C6*%
X171233333Y-116087142D02*
X171185714Y-116134761D01*
X171042857Y-116182380D01*
X170947619Y-116182380D01*
X170804761Y-116134761D01*
X170709523Y-116039523D01*
X170661904Y-115944285D01*
X170614285Y-115753809D01*
X170614285Y-115610952D01*
X170661904Y-115420476D01*
X170709523Y-115325238D01*
X170804761Y-115230000D01*
X170947619Y-115182380D01*
X171042857Y-115182380D01*
X171185714Y-115230000D01*
X171233333Y-115277619D01*
X172090476Y-115182380D02*
X171900000Y-115182380D01*
X171804761Y-115230000D01*
X171757142Y-115277619D01*
X171661904Y-115420476D01*
X171614285Y-115610952D01*
X171614285Y-115991904D01*
X171661904Y-116087142D01*
X171709523Y-116134761D01*
X171804761Y-116182380D01*
X171995238Y-116182380D01*
X172090476Y-116134761D01*
X172138095Y-116087142D01*
X172185714Y-115991904D01*
X172185714Y-115753809D01*
X172138095Y-115658571D01*
X172090476Y-115610952D01*
X171995238Y-115563333D01*
X171804761Y-115563333D01*
X171709523Y-115610952D01*
X171661904Y-115658571D01*
X171614285Y-115753809D01*
%TO.C,R11*%
X164437142Y-77352380D02*
X164103809Y-76876190D01*
X163865714Y-77352380D02*
X163865714Y-76352380D01*
X164246666Y-76352380D01*
X164341904Y-76400000D01*
X164389523Y-76447619D01*
X164437142Y-76542857D01*
X164437142Y-76685714D01*
X164389523Y-76780952D01*
X164341904Y-76828571D01*
X164246666Y-76876190D01*
X163865714Y-76876190D01*
X165389523Y-77352380D02*
X164818095Y-77352380D01*
X165103809Y-77352380D02*
X165103809Y-76352380D01*
X165008571Y-76495238D01*
X164913333Y-76590476D01*
X164818095Y-76638095D01*
X166341904Y-77352380D02*
X165770476Y-77352380D01*
X166056190Y-77352380D02*
X166056190Y-76352380D01*
X165960952Y-76495238D01*
X165865714Y-76590476D01*
X165770476Y-76638095D01*
%TO.C,C5*%
X168308333Y-105887142D02*
X168260714Y-105934761D01*
X168117857Y-105982380D01*
X168022619Y-105982380D01*
X167879761Y-105934761D01*
X167784523Y-105839523D01*
X167736904Y-105744285D01*
X167689285Y-105553809D01*
X167689285Y-105410952D01*
X167736904Y-105220476D01*
X167784523Y-105125238D01*
X167879761Y-105030000D01*
X168022619Y-104982380D01*
X168117857Y-104982380D01*
X168260714Y-105030000D01*
X168308333Y-105077619D01*
X169213095Y-104982380D02*
X168736904Y-104982380D01*
X168689285Y-105458571D01*
X168736904Y-105410952D01*
X168832142Y-105363333D01*
X169070238Y-105363333D01*
X169165476Y-105410952D01*
X169213095Y-105458571D01*
X169260714Y-105553809D01*
X169260714Y-105791904D01*
X169213095Y-105887142D01*
X169165476Y-105934761D01*
X169070238Y-105982380D01*
X168832142Y-105982380D01*
X168736904Y-105934761D01*
X168689285Y-105887142D01*
%TO.C,R8*%
X106673333Y-93362380D02*
X106340000Y-92886190D01*
X106101904Y-93362380D02*
X106101904Y-92362380D01*
X106482857Y-92362380D01*
X106578095Y-92410000D01*
X106625714Y-92457619D01*
X106673333Y-92552857D01*
X106673333Y-92695714D01*
X106625714Y-92790952D01*
X106578095Y-92838571D01*
X106482857Y-92886190D01*
X106101904Y-92886190D01*
X107244761Y-92790952D02*
X107149523Y-92743333D01*
X107101904Y-92695714D01*
X107054285Y-92600476D01*
X107054285Y-92552857D01*
X107101904Y-92457619D01*
X107149523Y-92410000D01*
X107244761Y-92362380D01*
X107435238Y-92362380D01*
X107530476Y-92410000D01*
X107578095Y-92457619D01*
X107625714Y-92552857D01*
X107625714Y-92600476D01*
X107578095Y-92695714D01*
X107530476Y-92743333D01*
X107435238Y-92790952D01*
X107244761Y-92790952D01*
X107149523Y-92838571D01*
X107101904Y-92886190D01*
X107054285Y-92981428D01*
X107054285Y-93171904D01*
X107101904Y-93267142D01*
X107149523Y-93314761D01*
X107244761Y-93362380D01*
X107435238Y-93362380D01*
X107530476Y-93314761D01*
X107578095Y-93267142D01*
X107625714Y-93171904D01*
X107625714Y-92981428D01*
X107578095Y-92886190D01*
X107530476Y-92838571D01*
X107435238Y-92790952D01*
%TO.C,R2*%
X180083333Y-102272380D02*
X179750000Y-101796190D01*
X179511904Y-102272380D02*
X179511904Y-101272380D01*
X179892857Y-101272380D01*
X179988095Y-101320000D01*
X180035714Y-101367619D01*
X180083333Y-101462857D01*
X180083333Y-101605714D01*
X180035714Y-101700952D01*
X179988095Y-101748571D01*
X179892857Y-101796190D01*
X179511904Y-101796190D01*
X180464285Y-101367619D02*
X180511904Y-101320000D01*
X180607142Y-101272380D01*
X180845238Y-101272380D01*
X180940476Y-101320000D01*
X180988095Y-101367619D01*
X181035714Y-101462857D01*
X181035714Y-101558095D01*
X180988095Y-101700952D01*
X180416666Y-102272380D01*
X181035714Y-102272380D01*
%TO.C,SW1*%
X156966666Y-82424761D02*
X157109523Y-82472380D01*
X157347619Y-82472380D01*
X157442857Y-82424761D01*
X157490476Y-82377142D01*
X157538095Y-82281904D01*
X157538095Y-82186666D01*
X157490476Y-82091428D01*
X157442857Y-82043809D01*
X157347619Y-81996190D01*
X157157142Y-81948571D01*
X157061904Y-81900952D01*
X157014285Y-81853333D01*
X156966666Y-81758095D01*
X156966666Y-81662857D01*
X157014285Y-81567619D01*
X157061904Y-81520000D01*
X157157142Y-81472380D01*
X157395238Y-81472380D01*
X157538095Y-81520000D01*
X157871428Y-81472380D02*
X158109523Y-82472380D01*
X158300000Y-81758095D01*
X158490476Y-82472380D01*
X158728571Y-81472380D01*
X159633333Y-82472380D02*
X159061904Y-82472380D01*
X159347619Y-82472380D02*
X159347619Y-81472380D01*
X159252380Y-81615238D01*
X159157142Y-81710476D01*
X159061904Y-81758095D01*
%TO.C,C8*%
X113923333Y-106667142D02*
X113875714Y-106714761D01*
X113732857Y-106762380D01*
X113637619Y-106762380D01*
X113494761Y-106714761D01*
X113399523Y-106619523D01*
X113351904Y-106524285D01*
X113304285Y-106333809D01*
X113304285Y-106190952D01*
X113351904Y-106000476D01*
X113399523Y-105905238D01*
X113494761Y-105810000D01*
X113637619Y-105762380D01*
X113732857Y-105762380D01*
X113875714Y-105810000D01*
X113923333Y-105857619D01*
X114494761Y-106190952D02*
X114399523Y-106143333D01*
X114351904Y-106095714D01*
X114304285Y-106000476D01*
X114304285Y-105952857D01*
X114351904Y-105857619D01*
X114399523Y-105810000D01*
X114494761Y-105762380D01*
X114685238Y-105762380D01*
X114780476Y-105810000D01*
X114828095Y-105857619D01*
X114875714Y-105952857D01*
X114875714Y-106000476D01*
X114828095Y-106095714D01*
X114780476Y-106143333D01*
X114685238Y-106190952D01*
X114494761Y-106190952D01*
X114399523Y-106238571D01*
X114351904Y-106286190D01*
X114304285Y-106381428D01*
X114304285Y-106571904D01*
X114351904Y-106667142D01*
X114399523Y-106714761D01*
X114494761Y-106762380D01*
X114685238Y-106762380D01*
X114780476Y-106714761D01*
X114828095Y-106667142D01*
X114875714Y-106571904D01*
X114875714Y-106381428D01*
X114828095Y-106286190D01*
X114780476Y-106238571D01*
X114685238Y-106190952D01*
%TO.C,D3*%
X170731904Y-77762380D02*
X170731904Y-76762380D01*
X170970000Y-76762380D01*
X171112857Y-76810000D01*
X171208095Y-76905238D01*
X171255714Y-77000476D01*
X171303333Y-77190952D01*
X171303333Y-77333809D01*
X171255714Y-77524285D01*
X171208095Y-77619523D01*
X171112857Y-77714761D01*
X170970000Y-77762380D01*
X170731904Y-77762380D01*
X171636666Y-76762380D02*
X172255714Y-76762380D01*
X171922380Y-77143333D01*
X172065238Y-77143333D01*
X172160476Y-77190952D01*
X172208095Y-77238571D01*
X172255714Y-77333809D01*
X172255714Y-77571904D01*
X172208095Y-77667142D01*
X172160476Y-77714761D01*
X172065238Y-77762380D01*
X171779523Y-77762380D01*
X171684285Y-77714761D01*
X171636666Y-77667142D01*
%TO.C,C2*%
X168283333Y-108217142D02*
X168235714Y-108264761D01*
X168092857Y-108312380D01*
X167997619Y-108312380D01*
X167854761Y-108264761D01*
X167759523Y-108169523D01*
X167711904Y-108074285D01*
X167664285Y-107883809D01*
X167664285Y-107740952D01*
X167711904Y-107550476D01*
X167759523Y-107455238D01*
X167854761Y-107360000D01*
X167997619Y-107312380D01*
X168092857Y-107312380D01*
X168235714Y-107360000D01*
X168283333Y-107407619D01*
X168664285Y-107407619D02*
X168711904Y-107360000D01*
X168807142Y-107312380D01*
X169045238Y-107312380D01*
X169140476Y-107360000D01*
X169188095Y-107407619D01*
X169235714Y-107502857D01*
X169235714Y-107598095D01*
X169188095Y-107740952D01*
X168616666Y-108312380D01*
X169235714Y-108312380D01*
%TO.C,Q1*%
X148004761Y-79977619D02*
X147909523Y-79930000D01*
X147814285Y-79834761D01*
X147671428Y-79691904D01*
X147576190Y-79644285D01*
X147480952Y-79644285D01*
X147528571Y-79882380D02*
X147433333Y-79834761D01*
X147338095Y-79739523D01*
X147290476Y-79549047D01*
X147290476Y-79215714D01*
X147338095Y-79025238D01*
X147433333Y-78930000D01*
X147528571Y-78882380D01*
X147719047Y-78882380D01*
X147814285Y-78930000D01*
X147909523Y-79025238D01*
X147957142Y-79215714D01*
X147957142Y-79549047D01*
X147909523Y-79739523D01*
X147814285Y-79834761D01*
X147719047Y-79882380D01*
X147528571Y-79882380D01*
X148909523Y-79882380D02*
X148338095Y-79882380D01*
X148623809Y-79882380D02*
X148623809Y-78882380D01*
X148528571Y-79025238D01*
X148433333Y-79120476D01*
X148338095Y-79168095D01*
%TO.C,R10*%
X112447142Y-83182380D02*
X112113809Y-82706190D01*
X111875714Y-83182380D02*
X111875714Y-82182380D01*
X112256666Y-82182380D01*
X112351904Y-82230000D01*
X112399523Y-82277619D01*
X112447142Y-82372857D01*
X112447142Y-82515714D01*
X112399523Y-82610952D01*
X112351904Y-82658571D01*
X112256666Y-82706190D01*
X111875714Y-82706190D01*
X113399523Y-83182380D02*
X112828095Y-83182380D01*
X113113809Y-83182380D02*
X113113809Y-82182380D01*
X113018571Y-82325238D01*
X112923333Y-82420476D01*
X112828095Y-82468095D01*
X114018571Y-82182380D02*
X114113809Y-82182380D01*
X114209047Y-82230000D01*
X114256666Y-82277619D01*
X114304285Y-82372857D01*
X114351904Y-82563333D01*
X114351904Y-82801428D01*
X114304285Y-82991904D01*
X114256666Y-83087142D01*
X114209047Y-83134761D01*
X114113809Y-83182380D01*
X114018571Y-83182380D01*
X113923333Y-83134761D01*
X113875714Y-83087142D01*
X113828095Y-82991904D01*
X113780476Y-82801428D01*
X113780476Y-82563333D01*
X113828095Y-82372857D01*
X113875714Y-82277619D01*
X113923333Y-82230000D01*
X114018571Y-82182380D01*
%TO.C,Y1*%
X137113809Y-79536190D02*
X137113809Y-80012380D01*
X136780476Y-79012380D02*
X137113809Y-79536190D01*
X137447142Y-79012380D01*
X138304285Y-80012380D02*
X137732857Y-80012380D01*
X138018571Y-80012380D02*
X138018571Y-79012380D01*
X137923333Y-79155238D01*
X137828095Y-79250476D01*
X137732857Y-79298095D01*
%TO.C,U1*%
X179038095Y-105712380D02*
X179038095Y-106521904D01*
X179085714Y-106617142D01*
X179133333Y-106664761D01*
X179228571Y-106712380D01*
X179419047Y-106712380D01*
X179514285Y-106664761D01*
X179561904Y-106617142D01*
X179609523Y-106521904D01*
X179609523Y-105712380D01*
X180609523Y-106712380D02*
X180038095Y-106712380D01*
X180323809Y-106712380D02*
X180323809Y-105712380D01*
X180228571Y-105855238D01*
X180133333Y-105950476D01*
X180038095Y-105998095D01*
%TO.C,U5*%
X125328095Y-78762380D02*
X125328095Y-79571904D01*
X125375714Y-79667142D01*
X125423333Y-79714761D01*
X125518571Y-79762380D01*
X125709047Y-79762380D01*
X125804285Y-79714761D01*
X125851904Y-79667142D01*
X125899523Y-79571904D01*
X125899523Y-78762380D01*
X126851904Y-78762380D02*
X126375714Y-78762380D01*
X126328095Y-79238571D01*
X126375714Y-79190952D01*
X126470952Y-79143333D01*
X126709047Y-79143333D01*
X126804285Y-79190952D01*
X126851904Y-79238571D01*
X126899523Y-79333809D01*
X126899523Y-79571904D01*
X126851904Y-79667142D01*
X126804285Y-79714761D01*
X126709047Y-79762380D01*
X126470952Y-79762380D01*
X126375714Y-79714761D01*
X126328095Y-79667142D01*
%TO.C,D1*%
X183101904Y-116512380D02*
X183101904Y-115512380D01*
X183340000Y-115512380D01*
X183482857Y-115560000D01*
X183578095Y-115655238D01*
X183625714Y-115750476D01*
X183673333Y-115940952D01*
X183673333Y-116083809D01*
X183625714Y-116274285D01*
X183578095Y-116369523D01*
X183482857Y-116464761D01*
X183340000Y-116512380D01*
X183101904Y-116512380D01*
X184625714Y-116512380D02*
X184054285Y-116512380D01*
X184340000Y-116512380D02*
X184340000Y-115512380D01*
X184244761Y-115655238D01*
X184149523Y-115750476D01*
X184054285Y-115798095D01*
%TO.C,R4*%
X179233333Y-115812380D02*
X178900000Y-115336190D01*
X178661904Y-115812380D02*
X178661904Y-114812380D01*
X179042857Y-114812380D01*
X179138095Y-114860000D01*
X179185714Y-114907619D01*
X179233333Y-115002857D01*
X179233333Y-115145714D01*
X179185714Y-115240952D01*
X179138095Y-115288571D01*
X179042857Y-115336190D01*
X178661904Y-115336190D01*
X180090476Y-115145714D02*
X180090476Y-115812380D01*
X179852380Y-114764761D02*
X179614285Y-115479047D01*
X180233333Y-115479047D01*
%TO.C,J2*%
X120906666Y-118692380D02*
X120906666Y-119406666D01*
X120859047Y-119549523D01*
X120763809Y-119644761D01*
X120620952Y-119692380D01*
X120525714Y-119692380D01*
X121335238Y-118787619D02*
X121382857Y-118740000D01*
X121478095Y-118692380D01*
X121716190Y-118692380D01*
X121811428Y-118740000D01*
X121859047Y-118787619D01*
X121906666Y-118882857D01*
X121906666Y-118978095D01*
X121859047Y-119120952D01*
X121287619Y-119692380D01*
X121906666Y-119692380D01*
%TO.C,R12*%
X174607142Y-79352380D02*
X174273809Y-78876190D01*
X174035714Y-79352380D02*
X174035714Y-78352380D01*
X174416666Y-78352380D01*
X174511904Y-78400000D01*
X174559523Y-78447619D01*
X174607142Y-78542857D01*
X174607142Y-78685714D01*
X174559523Y-78780952D01*
X174511904Y-78828571D01*
X174416666Y-78876190D01*
X174035714Y-78876190D01*
X175559523Y-79352380D02*
X174988095Y-79352380D01*
X175273809Y-79352380D02*
X175273809Y-78352380D01*
X175178571Y-78495238D01*
X175083333Y-78590476D01*
X174988095Y-78638095D01*
X175940476Y-78447619D02*
X175988095Y-78400000D01*
X176083333Y-78352380D01*
X176321428Y-78352380D01*
X176416666Y-78400000D01*
X176464285Y-78447619D01*
X176511904Y-78542857D01*
X176511904Y-78638095D01*
X176464285Y-78780952D01*
X175892857Y-79352380D01*
X176511904Y-79352380D01*
%TO.C,C7*%
X112223333Y-100917142D02*
X112175714Y-100964761D01*
X112032857Y-101012380D01*
X111937619Y-101012380D01*
X111794761Y-100964761D01*
X111699523Y-100869523D01*
X111651904Y-100774285D01*
X111604285Y-100583809D01*
X111604285Y-100440952D01*
X111651904Y-100250476D01*
X111699523Y-100155238D01*
X111794761Y-100060000D01*
X111937619Y-100012380D01*
X112032857Y-100012380D01*
X112175714Y-100060000D01*
X112223333Y-100107619D01*
X112556666Y-100012380D02*
X113223333Y-100012380D01*
X112794761Y-101012380D01*
%TO.C,R7*%
X116923333Y-101012380D02*
X116590000Y-100536190D01*
X116351904Y-101012380D02*
X116351904Y-100012380D01*
X116732857Y-100012380D01*
X116828095Y-100060000D01*
X116875714Y-100107619D01*
X116923333Y-100202857D01*
X116923333Y-100345714D01*
X116875714Y-100440952D01*
X116828095Y-100488571D01*
X116732857Y-100536190D01*
X116351904Y-100536190D01*
X117256666Y-100012380D02*
X117923333Y-100012380D01*
X117494761Y-101012380D01*
%TO.C,U4*%
X179828095Y-85012380D02*
X179828095Y-85821904D01*
X179875714Y-85917142D01*
X179923333Y-85964761D01*
X180018571Y-86012380D01*
X180209047Y-86012380D01*
X180304285Y-85964761D01*
X180351904Y-85917142D01*
X180399523Y-85821904D01*
X180399523Y-85012380D01*
X181304285Y-85345714D02*
X181304285Y-86012380D01*
X181066190Y-84964761D02*
X180828095Y-85679047D01*
X181447142Y-85679047D01*
%TO.C,C1*%
X183883333Y-104407142D02*
X183835714Y-104454761D01*
X183692857Y-104502380D01*
X183597619Y-104502380D01*
X183454761Y-104454761D01*
X183359523Y-104359523D01*
X183311904Y-104264285D01*
X183264285Y-104073809D01*
X183264285Y-103930952D01*
X183311904Y-103740476D01*
X183359523Y-103645238D01*
X183454761Y-103550000D01*
X183597619Y-103502380D01*
X183692857Y-103502380D01*
X183835714Y-103550000D01*
X183883333Y-103597619D01*
X184835714Y-104502380D02*
X184264285Y-104502380D01*
X184550000Y-104502380D02*
X184550000Y-103502380D01*
X184454761Y-103645238D01*
X184359523Y-103740476D01*
X184264285Y-103788095D01*
%TO.C,J4*%
X108256666Y-83012380D02*
X108256666Y-83726666D01*
X108209047Y-83869523D01*
X108113809Y-83964761D01*
X107970952Y-84012380D01*
X107875714Y-84012380D01*
X109161428Y-83345714D02*
X109161428Y-84012380D01*
X108923333Y-82964761D02*
X108685238Y-83679047D01*
X109304285Y-83679047D01*
%TO.C,C9*%
X141423333Y-86917142D02*
X141375714Y-86964761D01*
X141232857Y-87012380D01*
X141137619Y-87012380D01*
X140994761Y-86964761D01*
X140899523Y-86869523D01*
X140851904Y-86774285D01*
X140804285Y-86583809D01*
X140804285Y-86440952D01*
X140851904Y-86250476D01*
X140899523Y-86155238D01*
X140994761Y-86060000D01*
X141137619Y-86012380D01*
X141232857Y-86012380D01*
X141375714Y-86060000D01*
X141423333Y-86107619D01*
X141899523Y-87012380D02*
X142090000Y-87012380D01*
X142185238Y-86964761D01*
X142232857Y-86917142D01*
X142328095Y-86774285D01*
X142375714Y-86583809D01*
X142375714Y-86202857D01*
X142328095Y-86107619D01*
X142280476Y-86060000D01*
X142185238Y-86012380D01*
X141994761Y-86012380D01*
X141899523Y-86060000D01*
X141851904Y-86107619D01*
X141804285Y-86202857D01*
X141804285Y-86440952D01*
X141851904Y-86536190D01*
X141899523Y-86583809D01*
X141994761Y-86631428D01*
X142185238Y-86631428D01*
X142280476Y-86583809D01*
X142328095Y-86536190D01*
X142375714Y-86440952D01*
%TO.C,R3*%
X178893333Y-111892380D02*
X178560000Y-111416190D01*
X178321904Y-111892380D02*
X178321904Y-110892380D01*
X178702857Y-110892380D01*
X178798095Y-110940000D01*
X178845714Y-110987619D01*
X178893333Y-111082857D01*
X178893333Y-111225714D01*
X178845714Y-111320952D01*
X178798095Y-111368571D01*
X178702857Y-111416190D01*
X178321904Y-111416190D01*
X179226666Y-110892380D02*
X179845714Y-110892380D01*
X179512380Y-111273333D01*
X179655238Y-111273333D01*
X179750476Y-111320952D01*
X179798095Y-111368571D01*
X179845714Y-111463809D01*
X179845714Y-111701904D01*
X179798095Y-111797142D01*
X179750476Y-111844761D01*
X179655238Y-111892380D01*
X179369523Y-111892380D01*
X179274285Y-111844761D01*
X179226666Y-111797142D01*
%TO.C,R9*%
X111413333Y-95342380D02*
X111080000Y-94866190D01*
X110841904Y-95342380D02*
X110841904Y-94342380D01*
X111222857Y-94342380D01*
X111318095Y-94390000D01*
X111365714Y-94437619D01*
X111413333Y-94532857D01*
X111413333Y-94675714D01*
X111365714Y-94770952D01*
X111318095Y-94818571D01*
X111222857Y-94866190D01*
X110841904Y-94866190D01*
X111889523Y-95342380D02*
X112080000Y-95342380D01*
X112175238Y-95294761D01*
X112222857Y-95247142D01*
X112318095Y-95104285D01*
X112365714Y-94913809D01*
X112365714Y-94532857D01*
X112318095Y-94437619D01*
X112270476Y-94390000D01*
X112175238Y-94342380D01*
X111984761Y-94342380D01*
X111889523Y-94390000D01*
X111841904Y-94437619D01*
X111794285Y-94532857D01*
X111794285Y-94770952D01*
X111841904Y-94866190D01*
X111889523Y-94913809D01*
X111984761Y-94961428D01*
X112175238Y-94961428D01*
X112270476Y-94913809D01*
X112318095Y-94866190D01*
X112365714Y-94770952D01*
%TO.C,C4*%
X175893333Y-105767142D02*
X175845714Y-105814761D01*
X175702857Y-105862380D01*
X175607619Y-105862380D01*
X175464761Y-105814761D01*
X175369523Y-105719523D01*
X175321904Y-105624285D01*
X175274285Y-105433809D01*
X175274285Y-105290952D01*
X175321904Y-105100476D01*
X175369523Y-105005238D01*
X175464761Y-104910000D01*
X175607619Y-104862380D01*
X175702857Y-104862380D01*
X175845714Y-104910000D01*
X175893333Y-104957619D01*
X176750476Y-105195714D02*
X176750476Y-105862380D01*
X176512380Y-104814761D02*
X176274285Y-105529047D01*
X176893333Y-105529047D01*
D12*
%TO.C,R5*%
X175720000Y-92713641D02*
X175720000Y-92406359D01*
X174960000Y-92713641D02*
X174960000Y-92406359D01*
%TO.C,C10*%
X141230000Y-84472164D02*
X141230000Y-84687836D01*
X141950000Y-84472164D02*
X141950000Y-84687836D01*
%TO.C,R1*%
X181186359Y-111680000D02*
X181493641Y-111680000D01*
X181186359Y-112440000D02*
X181493641Y-112440000D01*
D10*
%TO.C,U2*%
X174520000Y-112522500D02*
X173995000Y-112522500D01*
X170220000Y-108222500D02*
X170220000Y-108747500D01*
X170220000Y-108222500D02*
X170745000Y-108222500D01*
X174520000Y-108222500D02*
X173995000Y-108222500D01*
X170220000Y-112522500D02*
X170745000Y-112522500D01*
X174520000Y-108222500D02*
X174520000Y-108747500D01*
X170220000Y-112522500D02*
X170220000Y-111997500D01*
D12*
%TO.C,R6*%
X117220000Y-95646359D02*
X117220000Y-95953641D01*
X116460000Y-95646359D02*
X116460000Y-95953641D01*
%TO.C,J3*%
X135780000Y-115870000D02*
X137900000Y-115870000D01*
X135780000Y-99810000D02*
X137900000Y-99810000D01*
X135780000Y-98810000D02*
X135780000Y-97750000D01*
X135780000Y-99810000D02*
X135780000Y-115870000D01*
X135780000Y-97750000D02*
X136840000Y-97750000D01*
X137900000Y-99810000D02*
X137900000Y-115870000D01*
%TO.C,R13*%
X172700000Y-81973641D02*
X172700000Y-81666359D01*
X173460000Y-81973641D02*
X173460000Y-81666359D01*
%TO.C,C3*%
X182447836Y-101950000D02*
X182232164Y-101950000D01*
X182447836Y-102670000D02*
X182232164Y-102670000D01*
%TO.C,U3*%
X108340000Y-110120000D02*
X106390000Y-110120000D01*
X108340000Y-110120000D02*
X110290000Y-110120000D01*
X108340000Y-105000000D02*
X110290000Y-105000000D01*
X108340000Y-105000000D02*
X104890000Y-105000000D01*
%TO.C,D2*%
X118575000Y-82295000D02*
X118575000Y-80825000D01*
X118575000Y-80825000D02*
X116290000Y-80825000D01*
X116290000Y-82295000D02*
X118575000Y-82295000D01*
%TO.C,C6*%
X171497836Y-113950000D02*
X171282164Y-113950000D01*
X171497836Y-114670000D02*
X171282164Y-114670000D01*
%TO.C,R11*%
X164926359Y-77690000D02*
X165233641Y-77690000D01*
X164926359Y-78450000D02*
X165233641Y-78450000D01*
%TO.C,C5*%
X171199420Y-105300000D02*
X171480580Y-105300000D01*
X171199420Y-106320000D02*
X171480580Y-106320000D01*
%TO.C,R8*%
X105520000Y-97960000D02*
X108170000Y-97960000D01*
X105520000Y-93660000D02*
X108170000Y-93660000D01*
X105494524Y-93675612D02*
G75*
G03*
X105520000Y-97960000I1325476J-2134388D01*
G01*
X108198027Y-97942144D02*
G75*
G03*
X108170000Y-93660000I-1378027J2132144D01*
G01*
%TO.C,R2*%
X179920000Y-103733641D02*
X179920000Y-103426359D01*
X180680000Y-103733641D02*
X180680000Y-103426359D01*
%TO.C,SW1*%
X161840000Y-87560000D02*
X161840000Y-86060000D01*
X156090000Y-90060000D02*
X160590000Y-90060000D01*
X154840000Y-86060000D02*
X154840000Y-87560000D01*
X160590000Y-83560000D02*
X156090000Y-83560000D01*
%TO.C,C8*%
X114450000Y-107682164D02*
X114450000Y-107897836D01*
X113730000Y-107682164D02*
X113730000Y-107897836D01*
%TO.C,G\u002A\u002A\u002A*%
G36*
X138929988Y-72905745D02*
G01*
X139062067Y-72915764D01*
X139173604Y-72930731D01*
X139251962Y-72950149D01*
X139267949Y-72957214D01*
X139377226Y-73032083D01*
X139457241Y-73126768D01*
X139510533Y-73247550D01*
X139539639Y-73400710D01*
X139547099Y-73592530D01*
X139545946Y-73645147D01*
X139532516Y-73829058D01*
X139503088Y-73972106D01*
X139454474Y-74081760D01*
X139383484Y-74165490D01*
X139298652Y-74224396D01*
X139248719Y-74249866D01*
X139199080Y-74267567D01*
X139138874Y-74279151D01*
X139057238Y-74286267D01*
X138943312Y-74290567D01*
X138850000Y-74292574D01*
X138691936Y-74293715D01*
X138574037Y-74289911D01*
X138486646Y-74280453D01*
X138420107Y-74264630D01*
X138406480Y-74259921D01*
X138296000Y-74196220D01*
X138198124Y-74097807D01*
X138126219Y-73979966D01*
X138102599Y-73912466D01*
X138085185Y-73804011D01*
X138076822Y-73666249D01*
X138077470Y-73519042D01*
X138087087Y-73382248D01*
X138103875Y-73282464D01*
X138156210Y-73161948D01*
X138243233Y-73052287D01*
X138351645Y-72967252D01*
X138448993Y-72925068D01*
X138536870Y-72910336D01*
X138654752Y-72902535D01*
X138790004Y-72901170D01*
X138929988Y-72905745D01*
G37*
G36*
X169500000Y-72000000D02*
G01*
X169500000Y-75525000D01*
X137500000Y-75525000D01*
X137500000Y-74675000D01*
X140055838Y-74675000D01*
X140462947Y-74675000D01*
X140523035Y-74506250D01*
X140588091Y-74325529D01*
X140658271Y-74134046D01*
X140731362Y-73937525D01*
X140805149Y-73741690D01*
X140877417Y-73552266D01*
X140945954Y-73374977D01*
X141008544Y-73215546D01*
X141062974Y-73079698D01*
X141107029Y-72973158D01*
X141138496Y-72901649D01*
X141155160Y-72870896D01*
X141155801Y-72870359D01*
X141206216Y-72855843D01*
X141236874Y-72856106D01*
X141267656Y-72863891D01*
X141292302Y-72881771D01*
X141311486Y-72914770D01*
X141325881Y-72967914D01*
X141336164Y-73046229D01*
X141343006Y-73154738D01*
X141347083Y-73298466D01*
X141349069Y-73482440D01*
X141349631Y-73696596D01*
X141349907Y-73904368D01*
X141350768Y-74068318D01*
X141352621Y-74194623D01*
X141355875Y-74289460D01*
X141360938Y-74359007D01*
X141368220Y-74409441D01*
X141378127Y-74446940D01*
X141391069Y-74477680D01*
X141402713Y-74499482D01*
X141480774Y-74599527D01*
X141585203Y-74663795D01*
X141721825Y-74695161D01*
X141807893Y-74699425D01*
X141903517Y-74695686D01*
X141985538Y-74685358D01*
X142032893Y-74671945D01*
X142117714Y-74613608D01*
X142200958Y-74533112D01*
X142261417Y-74451179D01*
X142264272Y-74445880D01*
X142284484Y-74400622D01*
X142318238Y-74317832D01*
X142361826Y-74206907D01*
X142411539Y-74077245D01*
X142448296Y-73979563D01*
X142555827Y-73692912D01*
X142648893Y-73447744D01*
X142727102Y-73245055D01*
X142790064Y-73085840D01*
X142837386Y-72971095D01*
X142868676Y-72901814D01*
X142880540Y-72881250D01*
X142931338Y-72853119D01*
X142993875Y-72856674D01*
X143043410Y-72889404D01*
X143049120Y-72898356D01*
X143056695Y-72938185D01*
X143063057Y-73025559D01*
X143068138Y-73158035D01*
X143071868Y-73333171D01*
X143074178Y-73548524D01*
X143074999Y-73801652D01*
X143075000Y-73810856D01*
X143075000Y-74675000D01*
X143450000Y-74675000D01*
X143450000Y-74661746D01*
X143775000Y-74661746D01*
X143798056Y-74667815D01*
X143859459Y-74672422D01*
X143947563Y-74674820D01*
X143981377Y-74675000D01*
X144187754Y-74675000D01*
X144247439Y-74518750D01*
X144319915Y-74330380D01*
X144396673Y-74133309D01*
X144475360Y-73933359D01*
X144553623Y-73736353D01*
X144629109Y-73548114D01*
X144699465Y-73374465D01*
X144762339Y-73221229D01*
X144815378Y-73094229D01*
X144856229Y-72999287D01*
X144882539Y-72942226D01*
X144889513Y-72929711D01*
X144943379Y-72884555D01*
X144995984Y-72879822D01*
X145023411Y-72886516D01*
X145047529Y-72904371D01*
X145072400Y-72940640D01*
X145102091Y-73002579D01*
X145140665Y-73097442D01*
X145189367Y-73225000D01*
X145237221Y-73351914D01*
X145297893Y-73512788D01*
X145366548Y-73694799D01*
X145438348Y-73885127D01*
X145508459Y-74070951D01*
X145526495Y-74118750D01*
X145736391Y-74675000D01*
X145945870Y-74675000D01*
X146047774Y-74674052D01*
X146108530Y-74669867D01*
X146136978Y-74660434D01*
X146141955Y-74643742D01*
X146138093Y-74631250D01*
X146124123Y-74594892D01*
X146095555Y-74519853D01*
X146055462Y-74414226D01*
X146006915Y-74286104D01*
X145952985Y-74143578D01*
X145950687Y-74137500D01*
X145873896Y-73934910D01*
X145795460Y-73728892D01*
X145717896Y-73525982D01*
X145643724Y-73332718D01*
X145575461Y-73155637D01*
X145515625Y-73001278D01*
X145475134Y-72897668D01*
X146475000Y-72897668D01*
X147139587Y-72905084D01*
X147804175Y-72912500D01*
X147877087Y-72994144D01*
X147934553Y-73090641D01*
X147952883Y-73197711D01*
X147933624Y-73302234D01*
X147878325Y-73391091D01*
X147825262Y-73433368D01*
X147794286Y-73447695D01*
X147751869Y-73458401D01*
X147690987Y-73465981D01*
X147604613Y-73470930D01*
X147485722Y-73473743D01*
X147327289Y-73474914D01*
X147233642Y-73475038D01*
X147053406Y-73475578D01*
X146915817Y-73477517D01*
X146813528Y-73481386D01*
X146739194Y-73487712D01*
X146685468Y-73497023D01*
X146645004Y-73509848D01*
X146625347Y-73518788D01*
X146577694Y-73545600D01*
X146541359Y-73576552D01*
X146514811Y-73618400D01*
X146496521Y-73677900D01*
X146484960Y-73761808D01*
X146478598Y-73876882D01*
X146475906Y-74029877D01*
X146475368Y-74181250D01*
X146475000Y-74675000D01*
X146850000Y-74675000D01*
X146850000Y-73850000D01*
X147469650Y-73850000D01*
X147715889Y-74262500D01*
X147962129Y-74675000D01*
X148377107Y-74675000D01*
X148775000Y-74675000D01*
X149125000Y-74675000D01*
X149125000Y-73512500D01*
X149583240Y-73512500D01*
X149585816Y-73758658D01*
X149622150Y-73983472D01*
X149690182Y-74182386D01*
X149787852Y-74350845D01*
X149913100Y-74484294D01*
X150063866Y-74578177D01*
X150065513Y-74578908D01*
X150137278Y-74607964D01*
X150209896Y-74630252D01*
X150291427Y-74646685D01*
X150389931Y-74658177D01*
X150513470Y-74665640D01*
X150670102Y-74669989D01*
X150867888Y-74672137D01*
X150889258Y-74672260D01*
X151391016Y-74675000D01*
X151824463Y-74675000D01*
X152225000Y-74675000D01*
X152225000Y-73775000D01*
X153325000Y-73775000D01*
X153325000Y-74675000D01*
X153506250Y-74675007D01*
X153687500Y-74675015D01*
X153683947Y-74111019D01*
X154121314Y-74111019D01*
X154146944Y-74261922D01*
X154212591Y-74401041D01*
X154286021Y-74489410D01*
X154342319Y-74539781D01*
X154399481Y-74579972D01*
X154463837Y-74611138D01*
X154541715Y-74634431D01*
X154639442Y-74651003D01*
X154763347Y-74662007D01*
X154919758Y-74668597D01*
X155115004Y-74671925D01*
X155293750Y-74672983D01*
X155925000Y-74675000D01*
X155925000Y-74300000D01*
X155331250Y-74299961D01*
X155118587Y-74299237D01*
X154950126Y-74296194D01*
X154820078Y-74289473D01*
X154722654Y-74277717D01*
X154652066Y-74259568D01*
X154602524Y-74233669D01*
X154568241Y-74198662D01*
X154543426Y-74153191D01*
X154527582Y-74111507D01*
X154507399Y-74040082D01*
X154509429Y-73986129D01*
X154534762Y-73921800D01*
X154535037Y-73921221D01*
X154558846Y-73875958D01*
X154586343Y-73840329D01*
X154623521Y-73813065D01*
X154676377Y-73792895D01*
X154750905Y-73778551D01*
X154853102Y-73768764D01*
X154988962Y-73762265D01*
X155164482Y-73757784D01*
X155319883Y-73755077D01*
X155927267Y-73745430D01*
X155919883Y-73591465D01*
X155912500Y-73437500D01*
X155300000Y-73425000D01*
X155079307Y-73419479D01*
X154905718Y-73412799D01*
X154776347Y-73404768D01*
X154688307Y-73395195D01*
X154638711Y-73383887D01*
X154631822Y-73380677D01*
X154560762Y-73314992D01*
X154525638Y-73228421D01*
X154524863Y-73133121D01*
X154556850Y-73041248D01*
X154620011Y-72964960D01*
X154691528Y-72923468D01*
X154733530Y-72916777D01*
X154817612Y-72910829D01*
X154935854Y-72905911D01*
X155080340Y-72902309D01*
X155243150Y-72900311D01*
X155339127Y-72899999D01*
X155925000Y-72900000D01*
X156250000Y-72900000D01*
X156875000Y-72900000D01*
X156875000Y-74675000D01*
X157250000Y-74675000D01*
X157975000Y-74675000D01*
X158325000Y-74675000D01*
X158325000Y-74250000D01*
X157975000Y-74250000D01*
X157975000Y-74675000D01*
X157250000Y-74675000D01*
X157250000Y-73101092D01*
X158705365Y-73101092D01*
X158712696Y-73288356D01*
X158759019Y-73444465D01*
X158844682Y-73569990D01*
X158970032Y-73665503D01*
X159077744Y-73713468D01*
X159152896Y-73731209D01*
X159263378Y-73742878D01*
X159414613Y-73748905D01*
X159539412Y-73750000D01*
X159748413Y-73752828D01*
X159912634Y-73762627D01*
X160037045Y-73781370D01*
X160126615Y-73811029D01*
X160186315Y-73853577D01*
X160221115Y-73910985D01*
X160235983Y-73985226D01*
X160237500Y-74027056D01*
X160231368Y-74112445D01*
X160207338Y-74172054D01*
X160168221Y-74218181D01*
X160098942Y-74287500D01*
X159411971Y-74294880D01*
X158725000Y-74302261D01*
X158725000Y-74675000D01*
X159386269Y-74675000D01*
X159580484Y-74673965D01*
X159760201Y-74671033D01*
X159917821Y-74666463D01*
X160045745Y-74660514D01*
X160136375Y-74653445D01*
X160172503Y-74648199D01*
X160330587Y-74590606D01*
X160459291Y-74493285D01*
X160555133Y-74359012D01*
X160567734Y-74333091D01*
X160601401Y-74251532D01*
X160618895Y-74180122D01*
X160623521Y-74097942D01*
X160619778Y-74003575D01*
X160602445Y-73854396D01*
X160566719Y-73739062D01*
X160506583Y-73642972D01*
X160443775Y-73576553D01*
X160383916Y-73526639D01*
X160319164Y-73487902D01*
X160241950Y-73458655D01*
X160144707Y-73437207D01*
X160019865Y-73421869D01*
X159859857Y-73410953D01*
X159666519Y-73403077D01*
X159195539Y-73387500D01*
X159135269Y-73317355D01*
X159084227Y-73222670D01*
X159075994Y-73117421D01*
X159110569Y-73016872D01*
X159135297Y-72982644D01*
X159195595Y-72912500D01*
X159835297Y-72905047D01*
X160475000Y-72897594D01*
X160475000Y-72687500D01*
X161034690Y-72687500D01*
X161035036Y-72773201D01*
X161038826Y-72840466D01*
X161043615Y-72868749D01*
X161059836Y-72879232D01*
X161102729Y-72887289D01*
X161176899Y-72893158D01*
X161286957Y-72897080D01*
X161437508Y-72899292D01*
X161633160Y-72900035D01*
X161646424Y-72900038D01*
X161838510Y-72900467D01*
X161987387Y-72902016D01*
X162099838Y-72905122D01*
X162182649Y-72910223D01*
X162242606Y-72917758D01*
X162286493Y-72928162D01*
X162321096Y-72941873D01*
X162325000Y-72943788D01*
X162401266Y-73007351D01*
X162447340Y-73098097D01*
X162461840Y-73202343D01*
X162443385Y-73306409D01*
X162390594Y-73396612D01*
X162372549Y-73414779D01*
X162350906Y-73430703D01*
X162321104Y-73443005D01*
X162276371Y-73452370D01*
X162209930Y-73459485D01*
X162115008Y-73465035D01*
X161984829Y-73469705D01*
X161812619Y-73474182D01*
X161777520Y-73475000D01*
X161593652Y-73479748D01*
X161452986Y-73484837D01*
X161348724Y-73490894D01*
X161274068Y-73498546D01*
X161222220Y-73508423D01*
X161186383Y-73521150D01*
X161168455Y-73531249D01*
X161129752Y-73557599D01*
X161100030Y-73583867D01*
X161078150Y-73616632D01*
X161062972Y-73662469D01*
X161053358Y-73727955D01*
X161048168Y-73819667D01*
X161046265Y-73944181D01*
X161046509Y-74108073D01*
X161047232Y-74231250D01*
X161050000Y-74675000D01*
X161425000Y-74675000D01*
X161425000Y-74650237D01*
X162800000Y-74650237D01*
X162823290Y-74662391D01*
X162886423Y-74671036D01*
X162979291Y-74674907D01*
X162997596Y-74675000D01*
X163195192Y-74675000D01*
X163538536Y-73806250D01*
X163616904Y-73608764D01*
X163690295Y-73425367D01*
X163756522Y-73261405D01*
X163813397Y-73122227D01*
X163858735Y-73013181D01*
X163890349Y-72939614D01*
X163906053Y-72906875D01*
X163906501Y-72906250D01*
X163954404Y-72879633D01*
X164017174Y-72878893D01*
X164066894Y-72904029D01*
X164068765Y-72906249D01*
X164078850Y-72923156D01*
X164094630Y-72956888D01*
X164117446Y-73010909D01*
X164148639Y-73088682D01*
X164189549Y-73193672D01*
X164241516Y-73329342D01*
X164305880Y-73499157D01*
X164383983Y-73706579D01*
X164477165Y-73955074D01*
X164550096Y-74150000D01*
X164741717Y-74662500D01*
X164945858Y-74669761D01*
X165057114Y-74670617D01*
X165126438Y-74664107D01*
X165150000Y-74650794D01*
X165141313Y-74621208D01*
X165116792Y-74551083D01*
X165078747Y-74446471D01*
X165029486Y-74313425D01*
X164971318Y-74157998D01*
X164906552Y-73986242D01*
X164837498Y-73804210D01*
X164766463Y-73617955D01*
X164759579Y-73600000D01*
X165300000Y-73600000D01*
X165314660Y-73855891D01*
X165359380Y-74073507D01*
X165435268Y-74255339D01*
X165543429Y-74403877D01*
X165684973Y-74521612D01*
X165719266Y-74542787D01*
X165796253Y-74583473D01*
X165876374Y-74614852D01*
X165967454Y-74638089D01*
X166077317Y-74654347D01*
X166213788Y-74664791D01*
X166384691Y-74670584D01*
X166593750Y-74672873D01*
X167100000Y-74675000D01*
X167100000Y-74303557D01*
X166568750Y-74295528D01*
X166391967Y-74292629D01*
X166257537Y-74289433D01*
X166157813Y-74285101D01*
X166085150Y-74278793D01*
X166031905Y-74269671D01*
X165990430Y-74256893D01*
X165953081Y-74239622D01*
X165926347Y-74225000D01*
X165819661Y-74136847D01*
X165798061Y-74102249D01*
X167466744Y-74102249D01*
X167488527Y-74269315D01*
X167552758Y-74410955D01*
X167657461Y-74524689D01*
X167800661Y-74608035D01*
X167895080Y-74640015D01*
X167968931Y-74652284D01*
X168089316Y-74661716D01*
X168257159Y-74668353D01*
X168473390Y-74672236D01*
X168643750Y-74673312D01*
X169275000Y-74675000D01*
X169275000Y-74300000D01*
X168681250Y-74299961D01*
X168488749Y-74299536D01*
X168339483Y-74298003D01*
X168226687Y-74294925D01*
X168143601Y-74289868D01*
X168083462Y-74282398D01*
X168039507Y-74272081D01*
X168004975Y-74258482D01*
X168000347Y-74256211D01*
X167910148Y-74188710D01*
X167863938Y-74097825D01*
X167859633Y-73990081D01*
X167872963Y-73924635D01*
X167899011Y-73872001D01*
X167942677Y-73830845D01*
X168008860Y-73799832D01*
X168102459Y-73777628D01*
X168228373Y-73762898D01*
X168391501Y-73754307D01*
X168596743Y-73750520D01*
X168740912Y-73750000D01*
X169250000Y-73750000D01*
X169250000Y-73425000D01*
X168674197Y-73425000D01*
X168463090Y-73424041D01*
X168296163Y-73420560D01*
X168167622Y-73413646D01*
X168071671Y-73402389D01*
X168002518Y-73385880D01*
X167954366Y-73363208D01*
X167921422Y-73333465D01*
X167902012Y-73303759D01*
X167880573Y-73228935D01*
X167876571Y-73135186D01*
X167890130Y-73049785D01*
X167900741Y-73023615D01*
X167924270Y-72987140D01*
X167955192Y-72958563D01*
X167999419Y-72936939D01*
X168062863Y-72921323D01*
X168151436Y-72910768D01*
X168271050Y-72904331D01*
X168427616Y-72901064D01*
X168627047Y-72900024D01*
X168673758Y-72899999D01*
X169275000Y-72900000D01*
X169275000Y-72521422D01*
X167912500Y-72537500D01*
X167767475Y-72608712D01*
X167640854Y-72686163D01*
X167554789Y-72778699D01*
X167503166Y-72895996D01*
X167479875Y-73047726D01*
X167478849Y-73065555D01*
X167487417Y-73240396D01*
X167532751Y-73381913D01*
X167615236Y-73491080D01*
X167661180Y-73527606D01*
X167745355Y-73585284D01*
X167636922Y-73680731D01*
X167547422Y-73779099D01*
X167493187Y-73891041D01*
X167469105Y-74029217D01*
X167466744Y-74102249D01*
X165798061Y-74102249D01*
X165740284Y-74009704D01*
X165689360Y-73847188D01*
X165668036Y-73652918D01*
X165676761Y-73437137D01*
X165713238Y-73256262D01*
X165780940Y-73112047D01*
X165878959Y-73006176D01*
X165926347Y-72975000D01*
X165965233Y-72954220D01*
X166003083Y-72938502D01*
X166047545Y-72927004D01*
X166106261Y-72918888D01*
X166186878Y-72913314D01*
X166297041Y-72909443D01*
X166444394Y-72906436D01*
X166568750Y-72904471D01*
X167100000Y-72896442D01*
X167100000Y-72520907D01*
X166531250Y-72529203D01*
X166348304Y-72532010D01*
X166207627Y-72534973D01*
X166101489Y-72538949D01*
X166022165Y-72544796D01*
X165961926Y-72553371D01*
X165913045Y-72565531D01*
X165867795Y-72582134D01*
X165818448Y-72604038D01*
X165806313Y-72609635D01*
X165638405Y-72709905D01*
X165505466Y-72840522D01*
X165406435Y-73003567D01*
X165340246Y-73201119D01*
X165305839Y-73435257D01*
X165300000Y-73600000D01*
X164759579Y-73600000D01*
X164695758Y-73433530D01*
X164627691Y-73256987D01*
X164564572Y-73094379D01*
X164508708Y-72951759D01*
X164462410Y-72835179D01*
X164427986Y-72750693D01*
X164407746Y-72704353D01*
X164406578Y-72702025D01*
X164348548Y-72613545D01*
X164275815Y-72554954D01*
X164177476Y-72520556D01*
X164042625Y-72504657D01*
X164027162Y-72503886D01*
X163861971Y-72509119D01*
X163734349Y-72543010D01*
X163639561Y-72607563D01*
X163578130Y-72694086D01*
X163557954Y-72738668D01*
X163522956Y-72821379D01*
X163475512Y-72936245D01*
X163417998Y-73077294D01*
X163352790Y-73238555D01*
X163282263Y-73414054D01*
X163208794Y-73597819D01*
X163134757Y-73783877D01*
X163062530Y-73966257D01*
X162994487Y-74138986D01*
X162933004Y-74296091D01*
X162880457Y-74431600D01*
X162839222Y-74539540D01*
X162811675Y-74613940D01*
X162800190Y-74648827D01*
X162800000Y-74650237D01*
X161425000Y-74650237D01*
X161425000Y-73854683D01*
X161893750Y-73844390D01*
X162073566Y-73839456D01*
X162210623Y-73833153D01*
X162312158Y-73824816D01*
X162385405Y-73813780D01*
X162437602Y-73799380D01*
X162453231Y-73792974D01*
X162605321Y-73700225D01*
X162717383Y-73577799D01*
X162789650Y-73425305D01*
X162822359Y-73242351D01*
X162824511Y-73175000D01*
X162805100Y-72984919D01*
X162747826Y-72825326D01*
X162654123Y-72698182D01*
X162525429Y-72605449D01*
X162366903Y-72549882D01*
X162291551Y-72540208D01*
X162170856Y-72533310D01*
X162009406Y-72529314D01*
X161811788Y-72528348D01*
X161637500Y-72529752D01*
X161037500Y-72537500D01*
X161034690Y-72687500D01*
X160475000Y-72687500D01*
X160475000Y-72525000D01*
X159842037Y-72525000D01*
X159614586Y-72525929D01*
X159430920Y-72529343D01*
X159284847Y-72536182D01*
X159170175Y-72547386D01*
X159080714Y-72563894D01*
X159010272Y-72586646D01*
X158952657Y-72616582D01*
X158901678Y-72654641D01*
X158883847Y-72670430D01*
X158799130Y-72765600D01*
X158744293Y-72874154D01*
X158713812Y-73009420D01*
X158705365Y-73101092D01*
X157250000Y-73101092D01*
X157250000Y-72900000D01*
X157900000Y-72900000D01*
X157900000Y-72525000D01*
X156250000Y-72525000D01*
X156250000Y-72900000D01*
X155925000Y-72900000D01*
X155925000Y-72525000D01*
X155313730Y-72524999D01*
X155085087Y-72525979D01*
X154900090Y-72529500D01*
X154752414Y-72536435D01*
X154635734Y-72547654D01*
X154543722Y-72564030D01*
X154470054Y-72586435D01*
X154408404Y-72615742D01*
X154352446Y-72652821D01*
X154344876Y-72658552D01*
X154235112Y-72771175D01*
X154163078Y-72905713D01*
X154129470Y-73052491D01*
X154134987Y-73201831D01*
X154180324Y-73344057D01*
X154266178Y-73469492D01*
X154285101Y-73488689D01*
X154390314Y-73589878D01*
X154284704Y-73691781D01*
X154190177Y-73815532D01*
X154135719Y-73958750D01*
X154121314Y-74111019D01*
X153683947Y-74111019D01*
X153680727Y-73600007D01*
X153673954Y-72525000D01*
X153325000Y-72525000D01*
X153325000Y-73400000D01*
X152225000Y-73400000D01*
X152225000Y-72522896D01*
X151837500Y-72537500D01*
X151830981Y-73606250D01*
X151824463Y-74675000D01*
X151391016Y-74675000D01*
X151383818Y-74518750D01*
X151379892Y-74431446D01*
X151376963Y-74362474D01*
X151375810Y-74331250D01*
X151363459Y-74319731D01*
X151323709Y-74311199D01*
X151251492Y-74305317D01*
X151141739Y-74301749D01*
X150989384Y-74300159D01*
X150904537Y-74300000D01*
X150710496Y-74298622D01*
X150559412Y-74294195D01*
X150444312Y-74286279D01*
X150358221Y-74274432D01*
X150306890Y-74262230D01*
X150173830Y-74198453D01*
X150071583Y-74095398D01*
X150000240Y-73953237D01*
X149959895Y-73772144D01*
X149950000Y-73599999D01*
X149965566Y-73387992D01*
X150012205Y-73214779D01*
X150089823Y-73080535D01*
X150198327Y-72985432D01*
X150306890Y-72937769D01*
X150375500Y-72922521D01*
X150467823Y-72911569D01*
X150590835Y-72904473D01*
X150751512Y-72900789D01*
X150902704Y-72900000D01*
X151071091Y-72900344D01*
X151195817Y-72899365D01*
X151283189Y-72894042D01*
X151339517Y-72881356D01*
X151371109Y-72858287D01*
X151384276Y-72821815D01*
X151385326Y-72768920D01*
X151380567Y-72696584D01*
X151379029Y-72672016D01*
X151370558Y-72524999D01*
X150878031Y-72524999D01*
X150660285Y-72526936D01*
X150484468Y-72533597D01*
X150342629Y-72546262D01*
X150226817Y-72566211D01*
X150129079Y-72594722D01*
X150041465Y-72633075D01*
X149975863Y-72670140D01*
X149835880Y-72785080D01*
X149725911Y-72939565D01*
X149646274Y-73132916D01*
X149597285Y-73364452D01*
X149583240Y-73512500D01*
X149125000Y-73512500D01*
X149125000Y-72525000D01*
X148775000Y-72525000D01*
X148775000Y-74675000D01*
X148377107Y-74675000D01*
X148308755Y-74556250D01*
X148261189Y-74474204D01*
X148200773Y-74370798D01*
X148140157Y-74267678D01*
X148137101Y-74262500D01*
X148049154Y-74112773D01*
X147984407Y-74000641D01*
X147940057Y-73920992D01*
X147913296Y-73868717D01*
X147901320Y-73838704D01*
X147900000Y-73830595D01*
X147920730Y-73807352D01*
X147973012Y-73775593D01*
X148001410Y-73761864D01*
X148122394Y-73680987D01*
X148219345Y-73562677D01*
X148287421Y-73415670D01*
X148321780Y-73248702D01*
X148325000Y-73177941D01*
X148306967Y-72991652D01*
X148251731Y-72837421D01*
X148157588Y-72712095D01*
X148022830Y-72612519D01*
X148017711Y-72609658D01*
X147887500Y-72537500D01*
X146475000Y-72522144D01*
X146475000Y-72897668D01*
X145475134Y-72897668D01*
X145466735Y-72876176D01*
X145431309Y-72786870D01*
X145416227Y-72750000D01*
X145350021Y-72636165D01*
X145259616Y-72558857D01*
X145159440Y-72522144D01*
X145138924Y-72514625D01*
X144981859Y-72500017D01*
X144975402Y-72500000D01*
X144838114Y-72508057D01*
X144734809Y-72535476D01*
X144651614Y-72587126D01*
X144608245Y-72628874D01*
X144586628Y-72665364D01*
X144549546Y-72742764D01*
X144499467Y-72855309D01*
X144438859Y-72997235D01*
X144370189Y-73162778D01*
X144295925Y-73346174D01*
X144229967Y-73512500D01*
X144151633Y-73711632D01*
X144076319Y-73902490D01*
X144006660Y-74078439D01*
X143945293Y-74232845D01*
X143894853Y-74359072D01*
X143857975Y-74450487D01*
X143840472Y-74492996D01*
X143807436Y-74573280D01*
X143783904Y-74633946D01*
X143775000Y-74661746D01*
X143450000Y-74661746D01*
X143450000Y-73755297D01*
X143449925Y-73516464D01*
X143449505Y-73322287D01*
X143448450Y-73167424D01*
X143446467Y-73046532D01*
X143443263Y-72954266D01*
X143438548Y-72885285D01*
X143432030Y-72834244D01*
X143423416Y-72795800D01*
X143412414Y-72764611D01*
X143398733Y-72735334D01*
X143393750Y-72725510D01*
X143338063Y-72632126D01*
X143276759Y-72569960D01*
X143198423Y-72533201D01*
X143091640Y-72516034D01*
X142975487Y-72512500D01*
X142867627Y-72513589D01*
X142795366Y-72519208D01*
X142744313Y-72532884D01*
X142700077Y-72558141D01*
X142658570Y-72590151D01*
X142628071Y-72616271D01*
X142600260Y-72645121D01*
X142572987Y-72681392D01*
X142544101Y-72729775D01*
X142511452Y-72794959D01*
X142472889Y-72881636D01*
X142426260Y-72994496D01*
X142369417Y-73138229D01*
X142300206Y-73317526D01*
X142216479Y-73537077D01*
X142178335Y-73637500D01*
X142103345Y-73833772D01*
X142042980Y-73988250D01*
X141994855Y-74106153D01*
X141956585Y-74192705D01*
X141925784Y-74253127D01*
X141900067Y-74292641D01*
X141877048Y-74316469D01*
X141864283Y-74325000D01*
X141814177Y-74347837D01*
X141781043Y-74338733D01*
X141748484Y-74303480D01*
X141734338Y-74283574D01*
X141723239Y-74258399D01*
X141714820Y-74222097D01*
X141708713Y-74168815D01*
X141704551Y-74092694D01*
X141701967Y-73987881D01*
X141700594Y-73848520D01*
X141700065Y-73668754D01*
X141700000Y-73530123D01*
X141699788Y-73320519D01*
X141698900Y-73154683D01*
X141696954Y-73026380D01*
X141693569Y-72929380D01*
X141688364Y-72857450D01*
X141680957Y-72804357D01*
X141670968Y-72763869D01*
X141658016Y-72729754D01*
X141649997Y-72712495D01*
X141578833Y-72609812D01*
X141479305Y-72542102D01*
X141346675Y-72506950D01*
X141234096Y-72500411D01*
X141068140Y-72518283D01*
X140937251Y-72571305D01*
X140840520Y-72659903D01*
X140816111Y-72696726D01*
X140796677Y-72738238D01*
X140762016Y-72821087D01*
X140714300Y-72939733D01*
X140655705Y-73088639D01*
X140588402Y-73262265D01*
X140514567Y-73455073D01*
X140436372Y-73661526D01*
X140411387Y-73727962D01*
X140055838Y-74675000D01*
X137500000Y-74675000D01*
X137500000Y-73525000D01*
X137707901Y-73525000D01*
X137711320Y-73787194D01*
X137748915Y-74018108D01*
X137819957Y-74215907D01*
X137923718Y-74378756D01*
X138059471Y-74504820D01*
X138109491Y-74537058D01*
X138207855Y-74588307D01*
X138308587Y-74625385D01*
X138421659Y-74649986D01*
X138557045Y-74663808D01*
X138724719Y-74668544D01*
X138875000Y-74667206D01*
X139024971Y-74663807D01*
X139135624Y-74659213D01*
X139217637Y-74651880D01*
X139281691Y-74640264D01*
X139338464Y-74622821D01*
X139398637Y-74598007D01*
X139420012Y-74588413D01*
X139587010Y-74486233D01*
X139727073Y-74346837D01*
X139831323Y-74179631D01*
X139852527Y-74130040D01*
X139879056Y-74049192D01*
X139897558Y-73958971D01*
X139909919Y-73846438D01*
X139918028Y-73698656D01*
X139918910Y-73675000D01*
X139917834Y-73432257D01*
X139894206Y-73228318D01*
X139845786Y-73056295D01*
X139770332Y-72909302D01*
X139665602Y-72780452D01*
X139610908Y-72728821D01*
X139530002Y-72663874D01*
X139448924Y-72615088D01*
X139358782Y-72580299D01*
X139250686Y-72557343D01*
X139115744Y-72544055D01*
X138945065Y-72538270D01*
X138825000Y-72537500D01*
X138637638Y-72539777D01*
X138484348Y-72546384D01*
X138370651Y-72556983D01*
X138308566Y-72569089D01*
X138137187Y-72646407D01*
X137986192Y-72764435D01*
X137862911Y-72915615D01*
X137774676Y-73092390D01*
X137760770Y-73133726D01*
X137742288Y-73215454D01*
X137725350Y-73328872D01*
X137712427Y-73455677D01*
X137707901Y-73525000D01*
X137500000Y-73525000D01*
X137500000Y-72000000D01*
X169500000Y-72000000D01*
G37*
%TO.C,D3*%
X167345000Y-78055000D02*
X169630000Y-78055000D01*
X169630000Y-76585000D02*
X167345000Y-76585000D01*
X167345000Y-76585000D02*
X167345000Y-78055000D01*
%TO.C,C2*%
X168950000Y-109667836D02*
X168950000Y-109452164D01*
X168230000Y-109667836D02*
X168230000Y-109452164D01*
%TO.C,Q1*%
X150440000Y-85090000D02*
X150440000Y-81490000D01*
X150428478Y-81451522D02*
G75*
G03*
X145990000Y-83290000I-1838478J-1838478D01*
G01*
X145989999Y-83290000D02*
G75*
G03*
X150428478Y-85128478I2600001J0D01*
G01*
%TO.C,R10*%
X113243641Y-81940000D02*
X112936359Y-81940000D01*
X113243641Y-81180000D02*
X112936359Y-81180000D01*
%TO.C,Y1*%
X135065000Y-83350000D02*
X135065000Y-89750000D01*
X140115000Y-83350000D02*
X140115000Y-89750000D01*
X135065000Y-89750000D02*
G75*
G03*
X140115000Y-89750000I2525000J0D01*
G01*
X140115000Y-83350000D02*
G75*
G03*
X135065000Y-83350000I-2525000J0D01*
G01*
D13*
%TO.C,U1*%
X179990000Y-107160000D02*
X179990000Y-107310000D01*
X179990000Y-107160000D02*
X180140000Y-107160000D01*
X182690000Y-109710000D02*
X182690000Y-109960000D01*
X179990000Y-109860000D02*
X179990000Y-109710000D01*
X182690000Y-107160000D02*
X182690000Y-107310000D01*
X182690000Y-107150000D02*
X182540000Y-107150000D01*
X180140000Y-109860000D02*
X179990000Y-109860000D01*
D12*
%TO.C,U5*%
X123680000Y-80710000D02*
X123680000Y-116390000D01*
X128980000Y-116390000D02*
X128980000Y-80710000D01*
X123680000Y-116390000D02*
X125330000Y-116390000D01*
X128980000Y-80710000D02*
X123680000Y-80710000D01*
X127330000Y-116390000D02*
X128980000Y-116390000D01*
X127330000Y-116390000D02*
G75*
G03*
X125330000Y-116390000I-1000000J0D01*
G01*
%TO.C,D1*%
X182625000Y-116410000D02*
X182625000Y-114125000D01*
X181155000Y-114125000D02*
X181155000Y-116410000D01*
X182625000Y-114125000D02*
X181155000Y-114125000D01*
%TO.C,R4*%
X179553641Y-116990000D02*
X179246359Y-116990000D01*
X179553641Y-116230000D02*
X179246359Y-116230000D01*
%TO.C,J2*%
X107000000Y-116055000D02*
X107000000Y-124110000D01*
X119600000Y-116055000D02*
X119600000Y-124110000D01*
X111200000Y-116055000D02*
X111200000Y-124110000D01*
X113480000Y-116055000D02*
X113480000Y-124110000D01*
X109280000Y-116055000D02*
X109280000Y-124110000D01*
X105080000Y-116055000D02*
X105080000Y-124110000D01*
X117680000Y-116055000D02*
X117680000Y-124110000D01*
X115400000Y-116055000D02*
X115400000Y-124110000D01*
%TO.C,R12*%
X173460000Y-79223641D02*
X173460000Y-78916359D01*
X172700000Y-79223641D02*
X172700000Y-78916359D01*
%TO.C,C7*%
X112255580Y-101800000D02*
X111974420Y-101800000D01*
X112255580Y-102820000D02*
X111974420Y-102820000D01*
%TO.C,R7*%
X117220000Y-98406359D02*
X117220000Y-98713641D01*
X116460000Y-98406359D02*
X116460000Y-98713641D01*
%TO.C,U4*%
X178430000Y-86460000D02*
X178430000Y-88460000D01*
X178720000Y-86740000D02*
X184460000Y-86740000D01*
X184470000Y-86740000D02*
X184470000Y-99000000D01*
X178430000Y-86460000D02*
X180040000Y-86460000D01*
X184470000Y-99000000D02*
X178710000Y-99000000D01*
X178710000Y-99000000D02*
X178710000Y-86750000D01*
%TO.C,C1*%
X182197836Y-103700000D02*
X181982164Y-103700000D01*
X182197836Y-104420000D02*
X181982164Y-104420000D01*
%TO.C,J4*%
X112670000Y-84730000D02*
X112670000Y-86060000D01*
X110070000Y-84730000D02*
X110070000Y-87330000D01*
X104930000Y-84730000D02*
X104930000Y-89930000D01*
X110070000Y-87330000D02*
X112670000Y-87330000D01*
X112670000Y-87330000D02*
X112670000Y-89930000D01*
X112670000Y-89930000D02*
X104930000Y-89930000D01*
X111340000Y-84730000D02*
X112670000Y-84730000D01*
X110070000Y-84730000D02*
X104930000Y-84730000D01*
%TO.C,C9*%
X141950000Y-88667836D02*
X141950000Y-88452164D01*
X141230000Y-88667836D02*
X141230000Y-88452164D01*
%TO.C,R3*%
X179470000Y-109463641D02*
X179470000Y-109156359D01*
X178710000Y-109463641D02*
X178710000Y-109156359D01*
%TO.C,R9*%
X111426359Y-95680000D02*
X111733641Y-95680000D01*
X111426359Y-96440000D02*
X111733641Y-96440000D01*
%TO.C,C4*%
X176724420Y-107570000D02*
X177005580Y-107570000D01*
X176724420Y-106550000D02*
X177005580Y-106550000D01*
%TD*%
M02*
